<?xml version="1.0"?>
<svg version="1.1" id="topsvg"
xmlns="http://www.w3.org/2000/svg" xmlns:xlink="http://www.w3.org/1999/xlink"
xmlns:cml="http://www.xml-cml.org/schema" x="0" y="0" width="200px" height="200px" viewBox="0 0 100 100">
<title> - Open Babel Depiction</title>
<rect x="0" y="0" width="100" height="100" fill="white"/>
<g transform="translate(0,0)">
<svg width="100" height="100" x="0" y="0" viewBox="0 0 169.993 250.08"
font-family="sans-serif" stroke="rgb(0,0,0)" stroke-width="2"  stroke-linecap="round">
<line x1="85.1" y1="180.9" x2="99.2" y2="185.3" stroke="rgb(0,0,0)"  stroke-width="2.0"/>
<line x1="83.3" y1="186.6" x2="97.4" y2="191.0" stroke="rgb(0,0,0)"  stroke-width="2.0"/>
<line x1="85.6" y1="139.9" x2="84.2" y2="183.7" stroke="rgb(0,0,0)"  stroke-width="2.0"/>
<line x1="85.6" y1="139.9" x2="84.8" y2="122.6" stroke="rgb(0,0,0)"  stroke-width="2.0"/>
<line x1="84.8" y1="122.6" x2="84.3" y2="104.1" stroke="rgb(0,0,0)"  stroke-width="2.0"/>
<line x1="84.8" y1="122.6" x2="101.5" y2="118.9" stroke="rgb(0,0,0)"  stroke-width="2.0"/>
<line x1="101.5" y1="118.9" x2="109.9" y2="109.2" stroke="rgb(0,0,0)"  stroke-width="2.0"/>
<line x1="51.2" y1="203.4" x2="84.2" y2="183.7" stroke="rgb(0,0,0)"  stroke-width="2.0"/>
<line x1="41.6" y1="117.0" x2="41.3" y2="65.0" stroke="rgb(0,0,0)"  stroke-width="2.0"/>
<line x1="41.3" y1="65.0" x2="85.8" y2="40.0" stroke="rgb(0,0,0)"  stroke-width="2.0"/>
<line x1="85.8" y1="40.0" x2="130.0" y2="65.0" stroke="rgb(0,0,0)"  stroke-width="2.0"/>
<line x1="130.0" y1="65.0" x2="130.0" y2="116.6" stroke="rgb(0,0,0)"  stroke-width="2.0"/>
<line x1="130.0" y1="116.6" x2="85.6" y2="139.9" stroke="rgb(0,0,0)"  stroke-width="2.0"/>
<line x1="85.6" y1="139.9" x2="41.6" y2="117.0" stroke="rgb(0,0,0)"  stroke-width="2.0"/>
<text x="104.718572" y="200.048703" fill="rgb(17,127,178)"  stroke="rgb(17,127,178)" stroke-width="1" font-size="16" >Xx</text>
<text x="57.964981" y="99.138854" fill="rgb(102,102,102)"  stroke="rgb(102,102,102)" stroke-width="1" font-size="16" >H</text>
<text x="69.964981" y="102.818854" fill="rgb(102,102,102)"  stroke="rgb(102,102,102)" stroke-width="1" font-size="13" >3</text>
<text x="76.464981" y="99.138854" fill="rgb(102,102,102)"  stroke="rgb(102,102,102)" stroke-width="1" font-size="16" >C</text>
<text x="114.289353" y="107.303357" fill="rgb(102,102,102)"  stroke="rgb(102,102,102)" stroke-width="1" font-size="16" >CH</text>
<text x="138.289353" y="110.983357" fill="rgb(102,102,102)"  stroke="rgb(102,102,102)" stroke-width="1" font-size="13" >3</text>
<text x="34.000000" y="218.080151" fill="rgb(191,191,191)"  stroke="rgb(191,191,191)" stroke-width="1" font-size="16" >H</text>
</svg>
</g>
<text font-size="18.000000" fill ="black" font-family="sans-serif"
x="10.000000" y="20.000000" ></text>
</svg>
