<?xml version="1.0"?>
<svg version="1.1" id="topsvg"
xmlns="http://www.w3.org/2000/svg" xmlns:xlink="http://www.w3.org/1999/xlink"
xmlns:cml="http://www.xml-cml.org/schema" x="0" y="0" width="200px" height="200px" viewBox="0 0 100 100">
<title> - Open Babel Depiction</title>
<rect x="0" y="0" width="100" height="100" fill="white"/>
<g transform="translate(0,0)">
<svg width="100" height="100" x="0" y="0" viewBox="0 0 253.792 161.138"
font-family="sans-serif" stroke="rgb(0,0,0)" stroke-width="2"  stroke-linecap="round">
<line x1="109.3" y1="60.0" x2="144.2" y2="40.0" stroke="rgb(0,0,0)"  stroke-width="2.0"/>
<line x1="202.2" y1="46.8" x2="178.6" y2="60.7" stroke="rgb(0,0,0)"  stroke-width="2.0"/>
<line x1="178.6" y1="60.7" x2="144.2" y2="40.0" stroke="rgb(0,0,0)"  stroke-width="2.0"/>
<line x1="143.7" y1="120.7" x2="179.4" y2="101.5" stroke="rgb(0,0,0)"  stroke-width="2.0"/>
<line x1="143.7" y1="120.7" x2="109.4" y2="101.0" stroke="rgb(0,0,0)"  stroke-width="2.0"/>
<line x1="179.4" y1="101.5" x2="202.5" y2="114.7" stroke="rgb(0,0,0)"  stroke-width="2.0"/>
<line x1="41.0" y1="60.2" x2="74.5" y2="40.6" stroke="rgb(0,0,0)"  stroke-width="2.0"/>
<line x1="74.5" y1="40.6" x2="109.3" y2="60.0" stroke="rgb(0,0,0)"  stroke-width="2.0"/>
<line x1="76.2" y1="49.8" x2="100.6" y2="63.4" stroke="rgb(0,0,0)"  stroke-width="2.0"/>
<line x1="109.3" y1="60.0" x2="109.4" y2="101.0" stroke="rgb(0,0,0)"  stroke-width="2.0"/>
<line x1="109.4" y1="101.0" x2="74.5" y2="119.6" stroke="rgb(0,0,0)"  stroke-width="2.0"/>
<line x1="100.8" y1="97.4" x2="76.4" y2="110.4" stroke="rgb(0,0,0)"  stroke-width="2.0"/>
<line x1="74.5" y1="119.6" x2="40.0" y2="101.6" stroke="rgb(0,0,0)"  stroke-width="2.0"/>
<line x1="40.0" y1="101.6" x2="41.0" y2="60.2" stroke="rgb(0,0,0)"  stroke-width="2.0"/>
<line x1="47.3" y1="95.8" x2="48.1" y2="66.4" stroke="rgb(0,0,0)"  stroke-width="2.0"/>
<text x="209.392993" y="48.191395" fill="rgb(102,102,102)"  stroke="rgb(102,102,102)" stroke-width="1" font-size="16" >CH</text>
<text x="233.392993" y="51.871395" fill="rgb(102,102,102)"  stroke="rgb(102,102,102)" stroke-width="1" font-size="13" >3</text>
<text x="209.791732" y="129.138075" fill="rgb(102,102,102)"  stroke="rgb(102,102,102)" stroke-width="1" font-size="16" >CH</text>
<text x="233.791732" y="132.818075" fill="rgb(102,102,102)"  stroke="rgb(102,102,102)" stroke-width="1" font-size="13" >3</text>
</svg>
</g>
<text font-size="18.000000" fill ="black" font-family="sans-serif"
x="10.000000" y="20.000000" ></text>
</svg>
