<?xml version="1.0"?>
<svg version="1.1" id="topsvg"
xmlns="http://www.w3.org/2000/svg" xmlns:xlink="http://www.w3.org/1999/xlink"
xmlns:cml="http://www.xml-cml.org/schema" x="0" y="0" width="200px" height="200px" viewBox="0 0 100 100">
<title> - Open Babel Depiction</title>
<rect x="0" y="0" width="100" height="100" fill="white"/>
<g transform="translate(0,0)">
<svg width="100" height="100" x="0" y="0" viewBox="0 0 318.649 241.316"
font-family="sans-serif" stroke="rgb(0,0,0)" stroke-width="2"  stroke-linecap="round">
<line x1="73.9" y1="199.3" x2="91.1" y2="170.1" stroke="rgb(0,0,0)"  stroke-width="2.0"/>
<line x1="79.1" y1="202.4" x2="96.3" y2="173.1" stroke="rgb(0,0,0)"  stroke-width="2.0"/>
<line x1="93.7" y1="171.6" x2="129.5" y2="171.9" stroke="rgb(0,0,0)"  stroke-width="2.0"/>
<line x1="143.3" y1="144.7" x2="129.5" y2="171.9" stroke="rgb(0,0,0)"  stroke-width="2.0"/>
<line x1="53.0" y1="201.2" x2="76.5" y2="200.9" stroke="rgb(0,0,0)"  stroke-width="2.0"/>
<line x1="106.8" y1="155.7" x2="133.3" y2="112.1" stroke="rgb(0,0,0)"  stroke-width="2.0"/>
<line x1="133.3" y1="112.1" x2="174.9" y2="127.2" stroke="rgb(0,0,0)"  stroke-width="2.0"/>
<line x1="199.5" y1="127.9" x2="228.4" y2="119.0" stroke="rgb(0,0,0)"  stroke-width="2.0"/>
<line x1="228.4" y1="119.0" x2="206.5" y2="161.5" stroke="rgb(0,0,0)"  stroke-width="2.0"/>
<line x1="206.5" y1="161.5" x2="143.3" y2="144.7" stroke="rgb(0,0,0)"  stroke-width="2.0"/>
<line x1="143.3" y1="144.7" x2="106.8" y2="155.7" stroke="rgb(0,0,0)"  stroke-width="2.0"/>
<line x1="203.6" y1="102.0" x2="222.4" y2="71.1" stroke="rgb(0,0,0)"  stroke-width="2.0"/>
<line x1="200.0" y1="99.9" x2="218.8" y2="68.9" stroke="rgb(0,0,0)"  stroke-width="2.0"/>
<line x1="207.1" y1="104.2" x2="226.0" y2="73.3" stroke="rgb(0,0,0)"  stroke-width="2.0"/>
<line x1="222.4" y1="71.1" x2="249.9" y2="40.0" stroke="rgb(0,0,0)"  stroke-width="2.0"/>
<line x1="249.9" y1="40.0" x2="278.6" y2="56.7" stroke="rgb(0,0,0)"  stroke-width="2.0"/>
<line x1="251.5" y1="49.2" x2="269.8" y2="59.9" stroke="rgb(0,0,0)"  stroke-width="2.0"/>
<line x1="278.6" y1="56.7" x2="271.2" y2="89.7" stroke="rgb(0,0,0)"  stroke-width="2.0"/>
<line x1="271.2" y1="89.7" x2="253.4" y2="121.1" stroke="rgb(0,0,0)"  stroke-width="2.0"/>
<line x1="274.9" y1="91.7" x2="257.0" y2="123.1" stroke="rgb(0,0,0)"  stroke-width="2.0"/>
<line x1="267.6" y1="87.6" x2="249.7" y2="119.0" stroke="rgb(0,0,0)"  stroke-width="2.0"/>
<line x1="253.4" y1="121.1" x2="237.1" y2="149.7" stroke="rgb(0,0,0)"  stroke-width="2.0"/>
<line x1="237.1" y1="149.7" x2="206.5" y2="161.5" stroke="rgb(0,0,0)"  stroke-width="2.0"/>
<line x1="193.4" y1="120.3" x2="203.6" y2="102.0" stroke="rgb(0,0,0)"  stroke-width="2.0"/>
<text x="169.068331" y="139.649570" fill="rgb(17,127,178)"  stroke="rgb(17,127,178)" stroke-width="1" font-size="16" >Xx</text>
<text x="14.000000" y="209.315970" fill="rgb(102,102,102)"  stroke="rgb(102,102,102)" stroke-width="1" font-size="16" >H</text>
<text x="26.000000" y="212.995970" fill="rgb(102,102,102)"  stroke="rgb(102,102,102)" stroke-width="1" font-size="13" >3</text>
<text x="32.500000" y="209.315970" fill="rgb(102,102,102)"  stroke="rgb(102,102,102)" stroke-width="1" font-size="16" >C</text>
</svg>
</g>
<text font-size="18.000000" fill ="black" font-family="sans-serif"
x="10.000000" y="20.000000" ></text>
</svg>
