<?xml version="1.0"?>
<svg version="1.1" id="topsvg"
xmlns="http://www.w3.org/2000/svg" xmlns:xlink="http://www.w3.org/1999/xlink"
xmlns:cml="http://www.xml-cml.org/schema" x="0" y="0" width="200px" height="200px" viewBox="0 0 100 100">
<title> - Open Babel Depiction</title>
<rect x="0" y="0" width="100" height="100" fill="white"/>
<g transform="translate(0,0)">
<svg width="100" height="100" x="0" y="0" viewBox="0 0 335.842 251.354"
font-family="sans-serif" stroke="rgb(0,0,0)" stroke-width="2"  stroke-linecap="round">
<polygon points="123.57 155.037 136.098 191.512 128.303 193.312 " stroke-width="2" fill="rgb(0,0,0)"  stroke="rgb(0,0,0)" />
<line x1="88.9" y1="97.3" x2="76.7" y2="92.9" stroke="rgb(0,0,0)"  stroke-width="2.0"/>
<line x1="68.9" y1="76.3" x2="68.9" y2="76.3" stroke="rgb(0,0,0)"  stroke-width="2.0"/>
<line x1="52.2" y1="84.1" x2="52.2" y2="84.1" stroke="rgb(0,0,0)"  stroke-width="2.0"/>
<line x1="60.1" y1="100.8" x2="60.1" y2="100.8" stroke="rgb(0,0,0)"  stroke-width="2.0"/>
<line x1="126.0" y1="52.6" x2="129.1" y2="78.9" stroke="rgb(0,0,0)"  stroke-width="2.0"/>
<line x1="120.0" y1="53.3" x2="123.1" y2="79.6" stroke="rgb(0,0,0)"  stroke-width="2.0"/>
<polygon points="155.769959 97.092141 190.619692 83.813021 192.649979 91.551105 " stroke-width="2.000000" fill="rgb(0,0,0)"  stroke="rgb(0,0,0)" />
<line x1="162.1" y1="138.7" x2="161.3" y2="140.1" stroke="rgb(0,0,0)"  stroke-width="1.0"/>
<line x1="167.7" y1="141.4" x2="166.2" y2="143.8" stroke="rgb(0,0,0)"  stroke-width="1.0"/>
<line x1="173.3" y1="144.0" x2="171.2" y2="147.6" stroke="rgb(0,0,0)"  stroke-width="1.0"/>
<line x1="178.9" y1="146.7" x2="176.1" y2="151.3" stroke="rgb(0,0,0)"  stroke-width="1.0"/>
<line x1="184.5" y1="149.3" x2="181.0" y2="155.1" stroke="rgb(0,0,0)"  stroke-width="1.0"/>
<line x1="190.1" y1="151.9" x2="186.0" y2="158.8" stroke="rgb(0,0,0)"  stroke-width="1.0"/>
<line x1="186.5" y1="152.8" x2="210.6" y2="138.8" stroke="rgb(0,0,0)"  stroke-width="2.0"/>
<line x1="189.5" y1="158.0" x2="213.6" y2="144.0" stroke="rgb(0,0,0)"  stroke-width="2.0"/>
<line x1="219.2" y1="178.8" x2="238.4" y2="211.4" stroke="rgb(0,0,0)"  stroke-width="2.0"/>
<line x1="238.4" y1="211.4" x2="277.0" y2="211.1" stroke="rgb(0,0,0)"  stroke-width="2.0"/>
<line x1="244.3" y1="204.1" x2="270.9" y2="203.9" stroke="rgb(0,0,0)"  stroke-width="2.0"/>
<line x1="277.0" y1="211.1" x2="295.8" y2="177.5" stroke="rgb(0,0,0)"  stroke-width="2.0"/>
<line x1="295.8" y1="177.5" x2="276.9" y2="144.8" stroke="rgb(0,0,0)"  stroke-width="2.0"/>
<line x1="286.6" y1="175.9" x2="273.7" y2="153.6" stroke="rgb(0,0,0)"  stroke-width="2.0"/>
<line x1="276.9" y1="144.8" x2="237.6" y2="145.1" stroke="rgb(0,0,0)"  stroke-width="2.0"/>
<line x1="237.6" y1="145.1" x2="219.2" y2="178.8" stroke="rgb(0,0,0)"  stroke-width="2.0"/>
<line x1="241.1" y1="153.8" x2="228.4" y2="177.0" stroke="rgb(0,0,0)"  stroke-width="2.0"/>
<line x1="123.6" y1="155.0" x2="88.7" y2="135.9" stroke="rgb(0,0,0)"  stroke-width="2.0"/>
<line x1="88.7" y1="135.9" x2="88.9" y2="97.3" stroke="rgb(0,0,0)"  stroke-width="2.0"/>
<line x1="95.9" y1="130.0" x2="96.1" y2="103.4" stroke="rgb(0,0,0)"  stroke-width="2.0"/>
<line x1="88.9" y1="97.3" x2="126.1" y2="79.3" stroke="rgb(0,0,0)"  stroke-width="2.0"/>
<line x1="126.1" y1="79.3" x2="155.8" y2="97.1" stroke="rgb(0,0,0)"  stroke-width="2.0"/>
<line x1="155.8" y1="97.1" x2="155.1" y2="135.4" stroke="rgb(0,0,0)"  stroke-width="2.0"/>
<line x1="155.1" y1="135.4" x2="123.6" y2="155.0" stroke="rgb(0,0,0)"  stroke-width="2.0"/>
<line x1="123.6" y1="155.0" x2="132.2" y2="192.4" stroke="rgb(0,0,0)"  stroke-width="2.0"/>
<line x1="132.2" y1="192.4" x2="219.2" y2="178.8" stroke="rgb(0,0,0)"  stroke-width="2.0"/>
<line x1="237.6" y1="145.1" x2="191.6" y2="87.7" stroke="rgb(0,0,0)"  stroke-width="2.0"/>
<line x1="191.6" y1="87.7" x2="155.8" y2="97.1" stroke="rgb(0,0,0)"  stroke-width="2.0"/>
<text x="58.458405" y="96.526891" fill="rgb(127,153,153)"  stroke="rgb(127,153,153)" stroke-width="1" font-size="16" >Si</text>
<text x="69.265407" y="72.068485" fill="rgb(102,102,102)"  stroke="rgb(102,102,102)" stroke-width="1" font-size="16" >CH</text>
<text x="93.265407" y="75.748485" fill="rgb(102,102,102)"  stroke="rgb(102,102,102)" stroke-width="1" font-size="13" >3</text>
<text x="14.000000" y="87.717290" fill="rgb(102,102,102)"  stroke="rgb(102,102,102)" stroke-width="1" font-size="16" >H</text>
<text x="26.000000" y="91.397290" fill="rgb(102,102,102)"  stroke="rgb(102,102,102)" stroke-width="1" font-size="13" >3</text>
<text x="32.500000" y="87.717290" fill="rgb(102,102,102)"  stroke="rgb(102,102,102)" stroke-width="1" font-size="16" >C</text>
<text x="29.648804" y="120.982697" fill="rgb(102,102,102)"  stroke="rgb(102,102,102)" stroke-width="1" font-size="16" >H</text>
<text x="41.648804" y="124.662697" fill="rgb(102,102,102)"  stroke="rgb(102,102,102)" stroke-width="1" font-size="13" >3</text>
<text x="48.148804" y="120.982697" fill="rgb(102,102,102)"  stroke="rgb(102,102,102)" stroke-width="1" font-size="16" >C</text>
<text x="115.514154" y="48.000000" fill="rgb(255,12,12)"  stroke="rgb(255,12,12)" stroke-width="1" font-size="16" >O</text>
<text x="219.356158" y="142.904020" fill="rgb(102,102,102)"  stroke="rgb(102,102,102)" stroke-width="1" font-size="16" >CH</text>
<text x="243.356158" y="146.584020" fill="rgb(102,102,102)"  stroke="rgb(102,102,102)" stroke-width="1" font-size="13" >2</text>
</svg>
</g>
<text font-size="18.000000" fill ="black" font-family="sans-serif"
x="10.000000" y="20.000000" ></text>
</svg>
