<?xml version="1.0"?>
<svg version="1.1" id="topsvg"
xmlns="http://www.w3.org/2000/svg" xmlns:xlink="http://www.w3.org/1999/xlink"
xmlns:cml="http://www.xml-cml.org/schema" x="0" y="0" width="200px" height="200px" viewBox="0 0 100 100">
<title> - Open Babel Depiction</title>
<rect x="0" y="0" width="100" height="100" fill="white"/>
<g transform="translate(0,0)">
<svg width="100" height="100" x="0" y="0" viewBox="0 0 248.49 298.126"
font-family="sans-serif" stroke="rgb(0,0,0)" stroke-width="2"  stroke-linecap="round">
<polygon points="133.085 169.163 136.232 212.897 128.233 212.74 " stroke-width="2" fill="rgb(0,0,0)"  stroke="rgb(0,0,0)" />
<line x1="132.2" y1="212.8" x2="168.9" y2="235.6" stroke="rgb(0,0,0)"  stroke-width="2.0"/>
<line x1="95.1" y1="105.1" x2="79.9" y2="100.3" stroke="rgb(0,0,0)"  stroke-width="2.0"/>
<line x1="71.5" y1="84.0" x2="72.3" y2="81.3" stroke="rgb(0,0,0)"  stroke-width="2.0"/>
<line x1="55.1" y1="92.5" x2="52.4" y2="91.6" stroke="rgb(0,0,0)"  stroke-width="2.0"/>
<line x1="63.6" y1="108.8" x2="62.7" y2="111.5" stroke="rgb(0,0,0)"  stroke-width="2.0"/>
<line x1="134.4" y1="52.9" x2="135.4" y2="83.9" stroke="rgb(0,0,0)"  stroke-width="2.0"/>
<line x1="128.4" y1="53.1" x2="129.4" y2="84.1" stroke="rgb(0,0,0)"  stroke-width="2.0"/>
<line x1="196.3" y1="251.6" x2="168.9" y2="235.6" stroke="rgb(0,0,0)"  stroke-width="2.0"/>
<line x1="194.2" y1="255.2" x2="166.8" y2="239.3" stroke="rgb(0,0,0)"  stroke-width="2.0"/>
<line x1="198.4" y1="248.0" x2="171.1" y2="232.0" stroke="rgb(0,0,0)"  stroke-width="2.0"/>
<line x1="207.1" y1="166.4" x2="183.0" y2="154.5" stroke="rgb(0,0,0)"  stroke-width="2.0"/>
<line x1="210.1" y1="166.3" x2="211.1" y2="202.1" stroke="rgb(0,0,0)"  stroke-width="2.0"/>
<line x1="204.1" y1="166.5" x2="205.1" y2="202.3" stroke="rgb(0,0,0)"  stroke-width="2.0"/>
<line x1="94.7" y1="148.9" x2="133.1" y2="169.2" stroke="rgb(0,0,0)"  stroke-width="2.0"/>
<line x1="133.1" y1="169.2" x2="159.9" y2="154.9" stroke="rgb(0,0,0)"  stroke-width="2.0"/>
<line x1="171.0" y1="135.8" x2="170.0" y2="105.1" stroke="rgb(0,0,0)"  stroke-width="2.0"/>
<line x1="170.0" y1="105.1" x2="132.4" y2="84.0" stroke="rgb(0,0,0)"  stroke-width="2.0"/>
<line x1="132.4" y1="84.0" x2="95.1" y2="105.1" stroke="rgb(0,0,0)"  stroke-width="2.0"/>
<line x1="95.1" y1="105.1" x2="94.7" y2="148.9" stroke="rgb(0,0,0)"  stroke-width="2.0"/>
<line x1="102.2" y1="111.2" x2="102.0" y2="142.9" stroke="rgb(0,0,0)"  stroke-width="2.0"/>
<text x="61.530011" y="104.408656" fill="rgb(127,153,153)"  stroke="rgb(127,153,153)" stroke-width="1" font-size="16" >Si</text>
<text x="72.251362" y="76.875756" fill="rgb(102,102,102)"  stroke="rgb(102,102,102)" stroke-width="1" font-size="16" >CH</text>
<text x="96.251362" y="80.555756" fill="rgb(102,102,102)"  stroke="rgb(102,102,102)" stroke-width="1" font-size="13" >3</text>
<text x="14.000000" y="95.687305" fill="rgb(102,102,102)"  stroke="rgb(102,102,102)" stroke-width="1" font-size="16" >H</text>
<text x="26.000000" y="99.367305" fill="rgb(102,102,102)"  stroke="rgb(102,102,102)" stroke-width="1" font-size="13" >3</text>
<text x="32.500000" y="95.687305" fill="rgb(102,102,102)"  stroke="rgb(102,102,102)" stroke-width="1" font-size="16" >C</text>
<text x="32.808661" y="131.938667" fill="rgb(102,102,102)"  stroke="rgb(102,102,102)" stroke-width="1" font-size="16" >H</text>
<text x="44.808661" y="135.618667" fill="rgb(102,102,102)"  stroke="rgb(102,102,102)" stroke-width="1" font-size="13" >3</text>
<text x="51.308661" y="131.938667" fill="rgb(102,102,102)"  stroke="rgb(102,102,102)" stroke-width="1" font-size="16" >C</text>
<text x="124.947514" y="48.000000" fill="rgb(255,12,12)"  stroke="rgb(255,12,12)" stroke-width="1" font-size="16" >O</text>
<text x="165.368952" y="156.797404" fill="rgb(17,127,178)"  stroke="rgb(17,127,178)" stroke-width="1" font-size="16" >Xx</text>
<text x="201.551005" y="266.126175" fill="rgb(102,102,102)"  stroke="rgb(102,102,102)" stroke-width="1" font-size="16" >CH</text>
<text x="204.489561" y="223.215398" fill="rgb(102,102,102)"  stroke="rgb(102,102,102)" stroke-width="1" font-size="16" >CH</text>
<text x="228.489561" y="226.895398" fill="rgb(102,102,102)"  stroke="rgb(102,102,102)" stroke-width="1" font-size="13" >2</text>
</svg>
</g>
<text font-size="18.000000" fill ="black" font-family="sans-serif"
x="10.000000" y="20.000000" ></text>
</svg>
