<?xml version="1.0"?>
<svg version="1.1" id="topsvg"
xmlns="http://www.w3.org/2000/svg" xmlns:xlink="http://www.w3.org/1999/xlink"
xmlns:cml="http://www.xml-cml.org/schema" x="0" y="0" width="200px" height="200px" viewBox="0 0 100 100">
<title> - Open Babel Depiction</title>
<rect x="0" y="0" width="100" height="100" fill="white"/>
<g transform="translate(0,0)">
<svg width="100" height="100" x="0" y="0" viewBox="0 0 253.808 186.794"
font-family="sans-serif" stroke="rgb(0,0,0)" stroke-width="2"  stroke-linecap="round">
<polygon points="100.752 100.862 104.79 119.274 96.7903 119.291 " stroke-width="2" fill="rgb(0,0,0)"  stroke="rgb(0,0,0)" />
<line x1="100.8" y1="119.3" x2="110.6" y2="125.4" stroke="rgb(0,0,0)"  stroke-width="2.0"/>
<line x1="77.2" y1="58.0" x2="73.1" y2="71.4" stroke="rgb(0,0,0)"  stroke-width="2.0"/>
<line x1="60.9" y1="66.6" x2="74.3" y2="70.7" stroke="rgb(0,0,0)"  stroke-width="2.0"/>
<line x1="69.5" y1="82.8" x2="73.7" y2="69.5" stroke="rgb(0,0,0)"  stroke-width="2.0"/>
<line x1="85.8" y1="74.2" x2="84.8" y2="73.9" stroke="rgb(0,0,0)"  stroke-width="2.0"/>
<line x1="103.0" y1="59.6" x2="103.0" y2="65.3" stroke="rgb(0,0,0)"  stroke-width="2.0"/>
<line x1="97.0" y1="59.6" x2="97.0" y2="65.3" stroke="rgb(0,0,0)"  stroke-width="2.0"/>
<line x1="119.6" y1="93.0" x2="118.8" y2="94.4" stroke="rgb(0,0,0)"  stroke-width="1.0"/>
<line x1="122.4" y1="93.9" x2="121.0" y2="96.4" stroke="rgb(0,0,0)"  stroke-width="1.0"/>
<line x1="125.3" y1="94.9" x2="123.2" y2="98.4" stroke="rgb(0,0,0)"  stroke-width="1.0"/>
<line x1="128.1" y1="95.8" x2="125.4" y2="100.5" stroke="rgb(0,0,0)"  stroke-width="1.0"/>
<line x1="131.0" y1="96.7" x2="127.6" y2="102.5" stroke="rgb(0,0,0)"  stroke-width="1.0"/>
<line x1="133.9" y1="97.7" x2="129.8" y2="104.6" stroke="rgb(0,0,0)"  stroke-width="1.0"/>
<line x1="159.5" y1="102.2" x2="149.5" y2="85.8" stroke="rgb(0,0,0)"  stroke-width="2.0"/>
<line x1="149.5" y1="85.8" x2="148.7" y2="86.5" stroke="rgb(0,0,0)"  stroke-width="2.0"/>
<line x1="170.9" y1="82.9" x2="157.8" y2="77.9" stroke="rgb(0,0,0)"  stroke-width="2.0"/>
<line x1="212.1" y1="86.1" x2="51.9" y2="46.1" stroke="rgb(0,0,0)"  stroke-width="2.0"/>
<line x1="213.6" y1="80.3" x2="53.3" y2="40.2" stroke="rgb(0,0,0)"  stroke-width="2.0"/>
<line x1="212.8" y1="83.2" x2="40.0" y2="40.0" stroke="rgb(0,0,0)"  stroke-width="2.0"/>
<line x1="nan" y1="nan" x2="nan" y2="nan" stroke="rgb(0,0,0)"  stroke-width="2.0"/>
<line x1="nan" y1="nan" x2="nan" y2="nan" stroke="rgb(0,0,0)"  stroke-width="2.0"/>
<line x1="207.8" y1="145.4" x2="49.6" y2="49.3" stroke="rgb(0,0,0)"  stroke-width="2.0"/>
<line x1="210.9" y1="140.3" x2="52.7" y2="44.2" stroke="rgb(0,0,0)"  stroke-width="2.0"/>
<line x1="209.3" y1="142.9" x2="40.0" y2="40.0" stroke="rgb(0,0,0)"  stroke-width="2.0"/>
<line x1="209.3" y1="142.9" x2="212.7" y2="105.6" stroke="rgb(0,0,0)"  stroke-width="2.0"/>
<line x1="nan" y1="nan" x2="nan" y2="nan" stroke="rgb(0,0,0)"  stroke-width="2.0"/>
<line x1="nan" y1="nan" x2="nan" y2="nan" stroke="rgb(0,0,0)"  stroke-width="2.0"/>
<line x1="164.2" y1="137.9" x2="164.4" y2="118.5" stroke="rgb(0,0,0)"  stroke-width="2.0"/>
<line x1="146.5" y1="144.2" x2="162.7" y2="135.3" stroke="rgb(0,0,0)"  stroke-width="2.0"/>
<line x1="149.4" y1="149.4" x2="165.6" y2="140.5" stroke="rgb(0,0,0)"  stroke-width="2.0"/>
<line x1="132.2" y1="137.8" x2="110.6" y2="125.4" stroke="rgb(0,0,0)"  stroke-width="2.0"/>
<line x1="130.1" y1="141.4" x2="108.5" y2="129.1" stroke="rgb(0,0,0)"  stroke-width="2.0"/>
<line x1="134.3" y1="134.1" x2="112.7" y2="121.8" stroke="rgb(0,0,0)"  stroke-width="2.0"/>
<line x1="132.2" y1="137.8" x2="148.0" y2="146.8" stroke="rgb(0,0,0)"  stroke-width="2.0"/>
<line x1="134.8" y1="101.0" x2="135.1" y2="106.7" stroke="rgb(0,0,0)"  stroke-width="2.0"/>
<line x1="128.8" y1="101.2" x2="129.1" y2="106.9" stroke="rgb(0,0,0)"  stroke-width="2.0"/>
<line x1="159.5" y1="102.2" x2="212.8" y2="83.2" stroke="rgb(0,0,0)"  stroke-width="2.0"/>
<line x1="212.8" y1="83.2" x2="170.4" y2="107.7" stroke="rgb(0,0,0)"  stroke-width="2.0"/>
<line x1="170.4" y1="107.7" x2="159.5" y2="102.2" stroke="rgb(0,0,0)"  stroke-width="2.0"/>
<line x1="209.3" y1="142.9" x2="212.8" y2="83.2" stroke="rgb(0,0,0)"  stroke-width="2.0"/>
<line x1="170.4" y1="107.7" x2="209.3" y2="142.9" stroke="rgb(0,0,0)"  stroke-width="2.0"/>
<line x1="164.4" y1="118.5" x2="159.5" y2="102.2" stroke="rgb(0,0,0)"  stroke-width="2.0"/>
<line x1="170.4" y1="107.7" x2="164.4" y2="118.5" stroke="rgb(0,0,0)"  stroke-width="2.0"/>
<line x1="209.3" y1="142.9" x2="164.4" y2="118.5" stroke="rgb(0,0,0)"  stroke-width="2.0"/>
<line x1="84.8" y1="73.9" x2="100.0" y2="65.3" stroke="rgb(0,0,0)"  stroke-width="2.0"/>
<line x1="100.0" y1="65.3" x2="116.8" y2="73.2" stroke="rgb(0,0,0)"  stroke-width="2.0"/>
<line x1="116.8" y1="73.2" x2="116.0" y2="91.8" stroke="rgb(0,0,0)"  stroke-width="2.0"/>
<line x1="116.0" y1="91.8" x2="100.8" y2="100.9" stroke="rgb(0,0,0)"  stroke-width="2.0"/>
<line x1="100.8" y1="100.9" x2="84.8" y2="92.0" stroke="rgb(0,0,0)"  stroke-width="2.0"/>
<line x1="84.8" y1="92.0" x2="84.8" y2="73.9" stroke="rgb(0,0,0)"  stroke-width="2.0"/>
<line x1="92.0" y1="86.0" x2="92.0" y2="79.9" stroke="rgb(0,0,0)"  stroke-width="2.0"/>
<text x="67.355022" y="78.420327" fill="rgb(127,153,153)"  stroke="rgb(127,153,153)" stroke-width="1" font-size="16" >Si</text>
<text x="72.878575" y="66.957386" fill="rgb(102,102,102)"  stroke="rgb(102,102,102)" stroke-width="1" font-size="16" >CH</text>
<text x="96.878575" y="70.637386" fill="rgb(102,102,102)"  stroke="rgb(102,102,102)" stroke-width="1" font-size="13" >3</text>
<text x="35.890882" y="74.896774" fill="rgb(102,102,102)"  stroke="rgb(102,102,102)" stroke-width="1" font-size="16" >H</text>
<text x="47.890882" y="78.576774" fill="rgb(102,102,102)"  stroke="rgb(102,102,102)" stroke-width="1" font-size="13" >3</text>
<text x="54.390882" y="74.896774" fill="rgb(102,102,102)"  stroke="rgb(102,102,102)" stroke-width="1" font-size="16" >C</text>
<text x="43.831469" y="89.884466" fill="rgb(102,102,102)"  stroke="rgb(102,102,102)" stroke-width="1" font-size="16" >H</text>
<text x="55.831469" y="93.564466" fill="rgb(102,102,102)"  stroke="rgb(102,102,102)" stroke-width="1" font-size="13" >3</text>
<text x="62.331469" y="89.884466" fill="rgb(102,102,102)"  stroke="rgb(102,102,102)" stroke-width="1" font-size="16" >C</text>
<text x="93.995145" y="54.596168" fill="rgb(255,12,12)"  stroke="rgb(255,12,12)" stroke-width="1" font-size="16" >O</text>
<text x="152.774196" y="86.264969" fill="rgb(255,12,12)"  stroke="rgb(255,12,12)" stroke-width="1" font-size="16" >O</text>
<text x="165.981685" y="90.533290" fill="rgb(102,102,102)"  stroke="rgb(102,102,102)" stroke-width="1" font-size="16" >CH</text>
<text x="189.981685" y="94.213290" fill="rgb(102,102,102)"  stroke="rgb(102,102,102)" stroke-width="1" font-size="13" >3</text>
<text x="34.000000" y="48.000000" fill="rgb(255,12,12)"  stroke="rgb(255,12,12)" stroke-width="1" font-size="16" >O</text>
<text x="34.000000" y="48.000000" fill="rgb(255,12,12)"  stroke="rgb(255,12,12)" stroke-width="1" font-size="16" >O</text>
<text x="34.000000" y="48.000000" fill="rgb(255,12,12)"  stroke="rgb(255,12,12)" stroke-width="1" font-size="16" >O</text>
<text x="34.000000" y="48.000000" fill="rgb(255,12,12)"  stroke="rgb(255,12,12)" stroke-width="1" font-size="16" >O</text>
<text x="209.807823" y="100.627825" fill="rgb(102,102,102)"  stroke="rgb(102,102,102)" stroke-width="1" font-size="16" >CH</text>
<text x="233.807823" y="104.307825" fill="rgb(102,102,102)"  stroke="rgb(102,102,102)" stroke-width="1" font-size="13" >3</text>
<text x="128.563424" y="127.783648" fill="rgb(102,102,102)"  stroke="rgb(102,102,102)" stroke-width="1" font-size="16" >CH</text>
<text x="152.563424" y="131.463648" fill="rgb(102,102,102)"  stroke="rgb(102,102,102)" stroke-width="1" font-size="13" >2</text>
</svg>
</g>
<text font-size="18.000000" fill ="black" font-family="sans-serif"
x="10.000000" y="20.000000" ></text>
</svg>
