<?xml version="1.0"?>
<svg version="1.1" id="topsvg"
xmlns="http://www.w3.org/2000/svg" xmlns:xlink="http://www.w3.org/1999/xlink"
xmlns:cml="http://www.xml-cml.org/schema" x="0" y="0" width="200px" height="200px" viewBox="0 0 100 100">
<title> - Open Babel Depiction</title>
<rect x="0" y="0" width="100" height="100" fill="white"/>
<g transform="translate(0,0)">
<svg width="100" height="100" x="0" y="0" viewBox="0 0 209.369 285.022"
font-family="sans-serif" stroke="rgb(0,0,0)" stroke-width="2"  stroke-linecap="round">
<line x1="79.6" y1="197.2" x2="64.2" y2="218.1" stroke="rgb(0,0,0)"  stroke-width="2.0"/>
<line x1="64.2" y1="218.1" x2="64.6" y2="232.0" stroke="rgb(0,0,0)"  stroke-width="2.0"/>
<polygon points="50.614520 109.836625 81.122559 89.861600 84.744159 96.994903 " stroke-width="2.000000" fill="rgb(0,0,0)"  stroke="rgb(0,0,0)" />
<line x1="126.5" y1="167.6" x2="158.1" y2="185.8" stroke="rgb(0,0,0)"  stroke-width="2.0"/>
<line x1="74.0" y1="69.7" x2="49.6" y2="92.4" stroke="rgb(0,0,0)"  stroke-width="2.0"/>
<line x1="49.6" y1="92.4" x2="50.6" y2="109.8" stroke="rgb(0,0,0)"  stroke-width="2.0"/>
<line x1="50.6" y1="109.8" x2="82.9" y2="93.4" stroke="rgb(0,0,0)"  stroke-width="2.0"/>
<line x1="82.9" y1="93.4" x2="74.0" y2="69.7" stroke="rgb(0,0,0)"  stroke-width="2.0"/>
<line x1="141.9" y1="40.0" x2="93.3" y2="45.2" stroke="rgb(0,0,0)"  stroke-width="2.0"/>
<line x1="93.3" y1="45.2" x2="82.9" y2="93.4" stroke="rgb(0,0,0)"  stroke-width="2.0"/>
<line x1="82.9" y1="93.4" x2="125.9" y2="118.0" stroke="rgb(0,0,0)"  stroke-width="2.0"/>
<line x1="125.9" y1="118.0" x2="163.5" y2="84.9" stroke="rgb(0,0,0)"  stroke-width="2.0"/>
<line x1="163.5" y1="84.9" x2="141.9" y2="40.0" stroke="rgb(0,0,0)"  stroke-width="2.0"/>
<line x1="40.0" y1="117.5" x2="40.3" y2="168.0" stroke="rgb(0,0,0)"  stroke-width="2.0"/>
<line x1="47.2" y1="123.4" x2="47.5" y2="161.9" stroke="rgb(0,0,0)"  stroke-width="2.0"/>
<line x1="40.3" y1="168.0" x2="79.6" y2="197.2" stroke="rgb(0,0,0)"  stroke-width="2.0"/>
<line x1="79.6" y1="197.2" x2="126.5" y2="167.6" stroke="rgb(0,0,0)"  stroke-width="2.0"/>
<line x1="126.5" y1="167.6" x2="125.9" y2="118.0" stroke="rgb(0,0,0)"  stroke-width="2.0"/>
<line x1="119.2" y1="161.7" x2="118.7" y2="124.1" stroke="rgb(0,0,0)"  stroke-width="2.0"/>
<line x1="50.6" y1="109.8" x2="40.0" y2="117.5" stroke="rgb(0,0,0)"  stroke-width="2.0"/>
<text x="61.011858" y="253.022226" fill="rgb(102,102,102)"  stroke="rgb(102,102,102)" stroke-width="1" font-size="16" >CH</text>
<text x="85.011858" y="256.702226" fill="rgb(102,102,102)"  stroke="rgb(102,102,102)" stroke-width="1" font-size="13" >3</text>
<text x="163.369115" y="200.230910" fill="rgb(191,191,191)"  stroke="rgb(191,191,191)" stroke-width="1" font-size="16" >D</text>
</svg>
</g>
<text font-size="18.000000" fill ="black" font-family="sans-serif"
x="10.000000" y="20.000000" ></text>
</svg>
