<?xml version="1.0"?>
<svg version="1.1" id="topsvg"
xmlns="http://www.w3.org/2000/svg" xmlns:xlink="http://www.w3.org/1999/xlink"
xmlns:cml="http://www.xml-cml.org/schema" x="0" y="0" width="200px" height="200px" viewBox="0 0 100 100">
<title> - Open Babel Depiction</title>
<rect x="0" y="0" width="100" height="100" fill="white"/>
<g transform="translate(0,0)">
<svg width="100" height="100" x="0" y="0" viewBox="0 0 163.535 194.004"
font-family="sans-serif" stroke="rgb(0,0,0)" stroke-width="2"  stroke-linecap="round">
<line x1="77.5" y1="51.4" x2="77.6" y2="52.9" stroke="rgb(0,0,0)"  stroke-width="2.0"/>
<line x1="78.2" y1="77.3" x2="76.3" y2="135.1" stroke="rgb(0,0,0)"  stroke-width="2.0"/>
<line x1="76.3" y1="135.1" x2="109.6" y2="152.8" stroke="rgb(0,0,0)"  stroke-width="2.0"/>
<line x1="109.6" y1="152.8" x2="123.5" y2="123.2" stroke="rgb(0,0,0)"  stroke-width="2.0"/>
<line x1="105.7" y1="144.3" x2="114.5" y2="125.5" stroke="rgb(0,0,0)"  stroke-width="2.0"/>
<line x1="123.5" y1="123.2" x2="86.9" y2="101.4" stroke="rgb(0,0,0)"  stroke-width="2.0"/>
<line x1="86.9" y1="101.4" x2="81.5" y2="77.0" stroke="rgb(0,0,0)"  stroke-width="2.0"/>
<line x1="56.7" y1="121.9" x2="86.9" y2="101.4" stroke="rgb(0,0,0)"  stroke-width="2.0"/>
<line x1="76.3" y1="135.1" x2="40.0" y2="154.0" stroke="rgb(0,0,0)"  stroke-width="2.0"/>
<line x1="40.0" y1="154.0" x2="56.7" y2="121.9" stroke="rgb(0,0,0)"  stroke-width="2.0"/>
<line x1="49.2" y1="152.0" x2="60.3" y2="130.5" stroke="rgb(0,0,0)"  stroke-width="2.0"/>
<text x="72.667676" y="72.311209" fill="rgb(12,12,255)"  stroke="rgb(12,12,255)" stroke-width="1" font-size="16" >N</text>
<text x="70.420139" y="48.000000" fill="rgb(191,191,191)"  stroke="rgb(191,191,191)" stroke-width="1" font-size="16" >H</text>
</svg>
</g>
<text font-size="18.000000" fill ="black" font-family="sans-serif"
x="10.000000" y="20.000000" ></text>
</svg>
