<?xml version="1.0"?>
<svg version="1.1" id="topsvg"
xmlns="http://www.w3.org/2000/svg" xmlns:xlink="http://www.w3.org/1999/xlink"
xmlns:cml="http://www.xml-cml.org/schema" x="0" y="0" width="200px" height="200px" viewBox="0 0 100 100">
<title> - Open Babel Depiction</title>
<rect x="0" y="0" width="100" height="100" fill="white"/>
<g transform="translate(0,0)">
<svg width="100" height="100" x="0" y="0" viewBox="0 0 329.481 320.27"
font-family="sans-serif" stroke="rgb(0,0,0)" stroke-width="2"  stroke-linecap="round">
<line x1="162.4" y1="153.2" x2="161.5" y2="151.8" stroke="rgb(0,0,0)"  stroke-width="1.0"/>
<line x1="157.2" y1="157.4" x2="155.6" y2="155.0" stroke="rgb(0,0,0)"  stroke-width="1.0"/>
<line x1="152.1" y1="161.7" x2="149.7" y2="158.2" stroke="rgb(0,0,0)"  stroke-width="1.0"/>
<line x1="146.9" y1="165.9" x2="143.8" y2="161.4" stroke="rgb(0,0,0)"  stroke-width="1.0"/>
<line x1="141.7" y1="170.2" x2="138.0" y2="164.6" stroke="rgb(0,0,0)"  stroke-width="1.0"/>
<line x1="136.5" y1="174.5" x2="132.1" y2="167.8" stroke="rgb(0,0,0)"  stroke-width="1.0"/>
<line x1="71.5" y1="84.5" x2="72.3" y2="81.7" stroke="rgb(0,0,0)"  stroke-width="2.0"/>
<line x1="55.2" y1="93.1" x2="52.4" y2="92.2" stroke="rgb(0,0,0)"  stroke-width="2.0"/>
<line x1="63.8" y1="109.4" x2="62.9" y2="112.1" stroke="rgb(0,0,0)"  stroke-width="2.0"/>
<line x1="80.0" y1="100.8" x2="95.2" y2="105.5" stroke="rgb(0,0,0)"  stroke-width="2.0"/>
<line x1="177.0" y1="48.3" x2="132.8" y2="84.7" stroke="rgb(0,0,0)"  stroke-width="2.0"/>
<line x1="168.9" y1="147.8" x2="208.4" y2="169.7" stroke="rgb(0,0,0)"  stroke-width="2.0"/>
<line x1="135.1" y1="214.0" x2="156.6" y2="228.3" stroke="rgb(0,0,0)"  stroke-width="2.0"/>
<line x1="283.8" y1="258.3" x2="287.8" y2="227.4" stroke="rgb(0,0,0)"  stroke-width="2.0"/>
<line x1="244.2" y1="277.7" x2="282.3" y2="255.7" stroke="rgb(0,0,0)"  stroke-width="2.0"/>
<line x1="247.2" y1="282.9" x2="285.3" y2="260.9" stroke="rgb(0,0,0)"  stroke-width="2.0"/>
<line x1="208.4" y1="258.5" x2="156.6" y2="228.3" stroke="rgb(0,0,0)"  stroke-width="2.0"/>
<line x1="206.3" y1="262.1" x2="154.5" y2="231.9" stroke="rgb(0,0,0)"  stroke-width="2.0"/>
<line x1="210.6" y1="254.9" x2="158.8" y2="224.6" stroke="rgb(0,0,0)"  stroke-width="2.0"/>
<line x1="208.4" y1="258.5" x2="245.7" y2="280.3" stroke="rgb(0,0,0)"  stroke-width="2.0"/>
<line x1="211.4" y1="169.7" x2="211.6" y2="202.6" stroke="rgb(0,0,0)"  stroke-width="2.0"/>
<line x1="205.4" y1="169.7" x2="205.6" y2="202.6" stroke="rgb(0,0,0)"  stroke-width="2.0"/>
<line x1="132.9" y1="213.3" x2="135.1" y2="214.0" stroke="rgb(0,0,0)"  stroke-width="2.0"/>
<line x1="135.1" y1="214.0" x2="134.3" y2="171.2" stroke="rgb(0,0,0)"  stroke-width="2.0"/>
<line x1="134.3" y1="171.2" x2="132.9" y2="213.3" stroke="rgb(0,0,0)"  stroke-width="2.0"/>
<line x1="95.2" y1="105.5" x2="96.1" y2="148.8" stroke="rgb(0,0,0)"  stroke-width="2.0"/>
<line x1="102.6" y1="111.4" x2="103.2" y2="142.7" stroke="rgb(0,0,0)"  stroke-width="2.0"/>
<line x1="96.1" y1="148.8" x2="134.3" y2="171.2" stroke="rgb(0,0,0)"  stroke-width="2.0"/>
<line x1="134.3" y1="171.2" x2="168.9" y2="147.8" stroke="rgb(0,0,0)"  stroke-width="2.0"/>
<line x1="168.9" y1="147.8" x2="171.0" y2="104.6" stroke="rgb(0,0,0)"  stroke-width="2.0"/>
<line x1="171.0" y1="104.6" x2="132.8" y2="84.7" stroke="rgb(0,0,0)"  stroke-width="2.0"/>
<line x1="162.3" y1="108.2" x2="134.8" y2="93.9" stroke="rgb(0,0,0)"  stroke-width="2.0"/>
<line x1="132.8" y1="84.7" x2="95.2" y2="105.5" stroke="rgb(0,0,0)"  stroke-width="2.0"/>
<text x="61.620449" y="104.944221" fill="rgb(127,153,153)"  stroke="rgb(127,153,153)" stroke-width="1" font-size="16" >Si</text>
<text x="72.189121" y="77.323772" fill="rgb(102,102,102)"  stroke="rgb(102,102,102)" stroke-width="1" font-size="16" >CH</text>
<text x="96.189121" y="81.003772" fill="rgb(102,102,102)"  stroke="rgb(102,102,102)" stroke-width="1" font-size="13" >3</text>
<text x="14.000000" y="96.372657" fill="rgb(102,102,102)"  stroke="rgb(102,102,102)" stroke-width="1" font-size="16" >H</text>
<text x="26.000000" y="100.052657" fill="rgb(102,102,102)"  stroke="rgb(102,102,102)" stroke-width="1" font-size="13" >3</text>
<text x="32.500000" y="96.372657" fill="rgb(102,102,102)"  stroke="rgb(102,102,102)" stroke-width="1" font-size="16" >C</text>
<text x="33.048884" y="132.564670" fill="rgb(102,102,102)"  stroke="rgb(102,102,102)" stroke-width="1" font-size="16" >H</text>
<text x="45.048884" y="136.244670" fill="rgb(102,102,102)"  stroke="rgb(102,102,102)" stroke-width="1" font-size="13" >3</text>
<text x="51.548884" y="132.564670" fill="rgb(102,102,102)"  stroke="rgb(102,102,102)" stroke-width="1" font-size="16" >C</text>
<text x="181.029510" y="48.000000" fill="rgb(17,127,178)"  stroke="rgb(17,127,178)" stroke-width="1" font-size="16" >Xx</text>
<text x="283.480524" y="222.464878" fill="rgb(30,239,30)"  stroke="rgb(30,239,30)" stroke-width="1" font-size="16" >Cl</text>
<text x="204.698448" y="223.578256" fill="rgb(102,102,102)"  stroke="rgb(102,102,102)" stroke-width="1" font-size="16" >CH</text>
<text x="228.698448" y="227.258256" fill="rgb(102,102,102)"  stroke="rgb(102,102,102)" stroke-width="1" font-size="13" >2</text>
</svg>
</g>
<text font-size="18.000000" fill ="black" font-family="sans-serif"
x="10.000000" y="20.000000" ></text>
</svg>
