<?xml version="1.0"?>
<svg version="1.1" id="topsvg"
xmlns="http://www.w3.org/2000/svg" xmlns:xlink="http://www.w3.org/1999/xlink"
xmlns:cml="http://www.xml-cml.org/schema" x="0" y="0" width="200px" height="200px" viewBox="0 0 100 100">
<title> - Open Babel Depiction</title>
<rect x="0" y="0" width="100" height="100" fill="white"/>
<g transform="translate(0,0)">
<svg width="100" height="100" x="0" y="0" viewBox="0 0 378.841 354.122"
font-family="sans-serif" stroke="rgb(0,0,0)" stroke-width="2"  stroke-linecap="round">
<polygon points="184.756 145.795 224.073 163.477 220.129 170.437 " stroke-width="2" fill="rgb(0,0,0)"  stroke="rgb(0,0,0)" />
<line x1="222.1" y1="167.0" x2="222.8" y2="208.3" stroke="rgb(0,0,0)"  stroke-width="2.0"/>
<line x1="113.1" y1="103.3" x2="98.8" y2="98.8" stroke="rgb(0,0,0)"  stroke-width="2.0"/>
<line x1="90.2" y1="82.5" x2="90.8" y2="80.6" stroke="rgb(0,0,0)"  stroke-width="2.0"/>
<line x1="73.9" y1="91.1" x2="72.0" y2="90.4" stroke="rgb(0,0,0)"  stroke-width="2.0"/>
<line x1="82.5" y1="107.3" x2="81.9" y2="109.3" stroke="rgb(0,0,0)"  stroke-width="2.0"/>
<line x1="151.3" y1="52.9" x2="152.1" y2="82.5" stroke="rgb(0,0,0)"  stroke-width="2.0"/>
<line x1="145.3" y1="53.1" x2="146.1" y2="82.7" stroke="rgb(0,0,0)"  stroke-width="2.0"/>
<line x1="222.8" y1="208.3" x2="222.8" y2="266.7" stroke="rgb(0,0,0)"  stroke-width="2.0"/>
<line x1="227.0" y1="208.3" x2="227.0" y2="266.7" stroke="rgb(0,0,0)"  stroke-width="2.0"/>
<line x1="218.6" y1="208.3" x2="218.6" y2="266.6" stroke="rgb(0,0,0)"  stroke-width="2.0"/>
<line x1="222.8" y1="266.7" x2="222.8" y2="293.1" stroke="rgb(0,0,0)"  stroke-width="2.0"/>
<line x1="292.7" y1="292.9" x2="327.6" y2="273.0" stroke="rgb(0,0,0)"  stroke-width="2.0"/>
<line x1="290.6" y1="289.3" x2="325.5" y2="269.4" stroke="rgb(0,0,0)"  stroke-width="2.0"/>
<line x1="294.8" y1="296.6" x2="329.6" y2="276.7" stroke="rgb(0,0,0)"  stroke-width="2.0"/>
<line x1="51.1" y1="224.2" x2="76.3" y2="209.1" stroke="rgb(0,0,0)"  stroke-width="2.0"/>
<line x1="77.8" y1="206.5" x2="114.6" y2="226.9" stroke="rgb(0,0,0)"  stroke-width="2.0"/>
<line x1="74.9" y1="211.7" x2="111.6" y2="232.2" stroke="rgb(0,0,0)"  stroke-width="2.0"/>
<line x1="113.1" y1="229.6" x2="149.1" y2="212.3" stroke="rgb(0,0,0)"  stroke-width="2.0"/>
<line x1="224.3" y1="290.5" x2="259.0" y2="311.6" stroke="rgb(0,0,0)"  stroke-width="2.0"/>
<line x1="221.2" y1="295.6" x2="255.8" y2="316.7" stroke="rgb(0,0,0)"  stroke-width="2.0"/>
<line x1="257.4" y1="314.1" x2="292.7" y2="292.9" stroke="rgb(0,0,0)"  stroke-width="2.0"/>
<line x1="149.9" y1="174.4" x2="148.3" y2="174.4" stroke="rgb(0,0,0)"  stroke-width="1.0"/>
<line x1="150.5" y1="181.9" x2="147.7" y2="181.9" stroke="rgb(0,0,0)"  stroke-width="1.0"/>
<line x1="151.2" y1="189.5" x2="147.0" y2="189.5" stroke="rgb(0,0,0)"  stroke-width="1.0"/>
<line x1="151.8" y1="197.1" x2="146.4" y2="197.1" stroke="rgb(0,0,0)"  stroke-width="1.0"/>
<line x1="152.4" y1="204.7" x2="145.7" y2="204.7" stroke="rgb(0,0,0)"  stroke-width="1.0"/>
<line x1="153.1" y1="212.3" x2="145.1" y2="212.3" stroke="rgb(0,0,0)"  stroke-width="1.0"/>
<line x1="112.8" y1="146.5" x2="149.1" y2="164.9" stroke="rgb(0,0,0)"  stroke-width="2.0"/>
<line x1="149.1" y1="164.9" x2="184.8" y2="145.8" stroke="rgb(0,0,0)"  stroke-width="2.0"/>
<line x1="184.8" y1="145.8" x2="185.0" y2="103.8" stroke="rgb(0,0,0)"  stroke-width="2.0"/>
<line x1="185.0" y1="103.8" x2="149.1" y2="82.6" stroke="rgb(0,0,0)"  stroke-width="2.0"/>
<line x1="149.1" y1="82.6" x2="113.1" y2="103.3" stroke="rgb(0,0,0)"  stroke-width="2.0"/>
<line x1="113.1" y1="103.3" x2="112.8" y2="146.5" stroke="rgb(0,0,0)"  stroke-width="2.0"/>
<text x="80.341575" y="102.931036" fill="rgb(127,153,153)"  stroke="rgb(127,153,153)" stroke-width="1" font-size="16" >Si</text>
<text x="90.695401" y="76.149982" fill="rgb(102,102,102)"  stroke="rgb(102,102,102)" stroke-width="1" font-size="16" >CH</text>
<text x="114.695401" y="79.829982" fill="rgb(102,102,102)"  stroke="rgb(102,102,102)" stroke-width="1" font-size="13" >3</text>
<text x="33.563326" y="94.577210" fill="rgb(102,102,102)"  stroke="rgb(102,102,102)" stroke-width="1" font-size="16" >H</text>
<text x="45.563326" y="98.257210" fill="rgb(102,102,102)"  stroke="rgb(102,102,102)" stroke-width="1" font-size="13" >3</text>
<text x="52.063326" y="94.577210" fill="rgb(102,102,102)"  stroke="rgb(102,102,102)" stroke-width="1" font-size="16" >C</text>
<text x="51.987748" y="129.709285" fill="rgb(102,102,102)"  stroke="rgb(102,102,102)" stroke-width="1" font-size="16" >H</text>
<text x="63.987748" y="133.389285" fill="rgb(102,102,102)"  stroke="rgb(102,102,102)" stroke-width="1" font-size="13" >3</text>
<text x="70.487748" y="129.709285" fill="rgb(102,102,102)"  stroke="rgb(102,102,102)" stroke-width="1" font-size="16" >C</text>
<text x="141.974186" y="48.000000" fill="rgb(255,12,12)"  stroke="rgb(255,12,12)" stroke-width="1" font-size="16" >O</text>
<text x="332.841442" y="274.574394" fill="rgb(17,127,178)"  stroke="rgb(17,127,178)" stroke-width="1" font-size="16" >Xx</text>
<text x="14.000000" y="238.934581" fill="rgb(102,102,102)"  stroke="rgb(102,102,102)" stroke-width="1" font-size="16" >H</text>
<text x="26.000000" y="242.614581" fill="rgb(102,102,102)"  stroke="rgb(102,102,102)" stroke-width="1" font-size="13" >3</text>
<text x="32.500000" y="238.934581" fill="rgb(102,102,102)"  stroke="rgb(102,102,102)" stroke-width="1" font-size="16" >C</text>
</svg>
</g>
<text font-size="18.000000" fill ="black" font-family="sans-serif"
x="10.000000" y="20.000000" ></text>
</svg>
