<?xml version="1.0"?>
<svg version="1.1" id="topsvg"
xmlns="http://www.w3.org/2000/svg" xmlns:xlink="http://www.w3.org/1999/xlink"
xmlns:cml="http://www.xml-cml.org/schema" x="0" y="0" width="200px" height="200px" viewBox="0 0 100 100">
<title> - Open Babel Depiction</title>
<rect x="0" y="0" width="100" height="100" fill="white"/>
<g transform="translate(0,0)">
<svg width="100" height="100" x="0" y="0" viewBox="0 0 162.558 211.192"
font-family="sans-serif" stroke="rgb(0,0,0)" stroke-width="2"  stroke-linecap="round">
<line x1="72.8" y1="94.7" x2="73.3" y2="57.0" stroke="rgb(0,0,0)"  stroke-width="2.0"/>
<line x1="72.3" y1="54.2" x2="109.3" y2="41.4" stroke="rgb(0,0,0)"  stroke-width="2.0"/>
<line x1="74.3" y1="59.9" x2="111.3" y2="47.1" stroke="rgb(0,0,0)"  stroke-width="2.0"/>
<line x1="40.0" y1="113.3" x2="72.8" y2="94.7" stroke="rgb(0,0,0)"  stroke-width="2.0"/>
<line x1="72.8" y1="94.7" x2="106.1" y2="113.0" stroke="rgb(0,0,0)"  stroke-width="2.0"/>
<line x1="74.6" y1="103.9" x2="97.4" y2="116.4" stroke="rgb(0,0,0)"  stroke-width="2.0"/>
<line x1="106.1" y1="113.0" x2="105.8" y2="152.6" stroke="rgb(0,0,0)"  stroke-width="2.0"/>
<line x1="105.8" y1="152.6" x2="73.0" y2="171.2" stroke="rgb(0,0,0)"  stroke-width="2.0"/>
<line x1="97.0" y1="149.3" x2="74.6" y2="162.0" stroke="rgb(0,0,0)"  stroke-width="2.0"/>
<line x1="73.0" y1="171.2" x2="40.0" y2="152.7" stroke="rgb(0,0,0)"  stroke-width="2.0"/>
<line x1="40.0" y1="152.7" x2="40.0" y2="113.3" stroke="rgb(0,0,0)"  stroke-width="2.0"/>
<line x1="47.2" y1="146.7" x2="47.2" y2="119.3" stroke="rgb(0,0,0)"  stroke-width="2.0"/>
<text x="116.558196" y="48.000000" fill="rgb(17,127,178)"  stroke="rgb(17,127,178)" stroke-width="1" font-size="16" >Xx</text>
</svg>
</g>
<text font-size="18.000000" fill ="black" font-family="sans-serif"
x="10.000000" y="20.000000" ></text>
</svg>
