<?xml version="1.0"?>
<svg version="1.1" id="topsvg"
xmlns="http://www.w3.org/2000/svg" xmlns:xlink="http://www.w3.org/1999/xlink"
xmlns:cml="http://www.xml-cml.org/schema" x="0" y="0" width="200px" height="200px" viewBox="0 0 100 100">
<title> - Open Babel Depiction</title>
<rect x="0" y="0" width="100" height="100" fill="white"/>
<g transform="translate(0,0)">
<svg width="100" height="100" x="0" y="0" viewBox="0 0 155.57 263.57"
font-family="sans-serif" stroke="rgb(0,0,0)" stroke-width="2"  stroke-linecap="round">
<line x1="77.5" y1="138.2" x2="77.6" y2="96.1" stroke="rgb(0,0,0)"  stroke-width="2.0"/>
<line x1="77.6" y1="96.1" x2="51.3" y2="80.7" stroke="rgb(0,0,0)"  stroke-width="2.0"/>
<line x1="83.9" y1="68.1" x2="87.4" y2="52.7" stroke="rgb(0,0,0)"  stroke-width="2.0"/>
<line x1="79.8" y1="67.1" x2="83.3" y2="51.8" stroke="rgb(0,0,0)"  stroke-width="2.0"/>
<line x1="88.0" y1="69.0" x2="91.5" y2="53.6" stroke="rgb(0,0,0)"  stroke-width="2.0"/>
<line x1="83.9" y1="68.1" x2="77.6" y2="96.1" stroke="rgb(0,0,0)"  stroke-width="2.0"/>
<line x1="104.3" y1="80.9" x2="77.6" y2="96.1" stroke="rgb(0,0,0)"  stroke-width="2.0"/>
<line x1="88.6" y1="210.2" x2="111.7" y2="201.7" stroke="rgb(0,0,0)"  stroke-width="2.0"/>
<line x1="40.2" y1="159.4" x2="77.5" y2="138.2" stroke="rgb(0,0,0)"  stroke-width="2.0"/>
<line x1="77.5" y1="138.2" x2="115.0" y2="159.6" stroke="rgb(0,0,0)"  stroke-width="2.0"/>
<line x1="115.0" y1="159.6" x2="111.7" y2="201.7" stroke="rgb(0,0,0)"  stroke-width="2.0"/>
<line x1="111.7" y1="201.7" x2="77.8" y2="223.6" stroke="rgb(0,0,0)"  stroke-width="2.0"/>
<line x1="77.8" y1="223.6" x2="40.0" y2="203.6" stroke="rgb(0,0,0)"  stroke-width="2.0"/>
<line x1="40.0" y1="203.6" x2="40.2" y2="159.4" stroke="rgb(0,0,0)"  stroke-width="2.0"/>
<line x1="47.2" y1="197.6" x2="47.4" y2="165.5" stroke="rgb(0,0,0)"  stroke-width="2.0"/>
<text x="14.046026" y="82.171691" fill="rgb(102,102,102)"  stroke="rgb(102,102,102)" stroke-width="1" font-size="16" >H</text>
<text x="26.046026" y="85.851691" fill="rgb(102,102,102)"  stroke="rgb(102,102,102)" stroke-width="1" font-size="13" >3</text>
<text x="32.546026" y="82.171691" fill="rgb(102,102,102)"  stroke="rgb(102,102,102)" stroke-width="1" font-size="16" >C</text>
<text x="84.243518" y="48.000000" fill="rgb(12,12,255)"  stroke="rgb(12,12,255)" stroke-width="1" font-size="16" >N</text>
<text x="111.569519" y="82.433466" fill="rgb(102,102,102)"  stroke="rgb(102,102,102)" stroke-width="1" font-size="16" >CH</text>
<text x="135.569519" y="86.113466" fill="rgb(102,102,102)"  stroke="rgb(102,102,102)" stroke-width="1" font-size="13" >3</text>
<text x="50.438489" y="222.710284" fill="rgb(102,102,102)"  stroke="rgb(102,102,102)" stroke-width="1" font-size="16" >H</text>
<text x="62.438489" y="226.390284" fill="rgb(102,102,102)"  stroke="rgb(102,102,102)" stroke-width="1" font-size="13" >3</text>
<text x="68.938489" y="222.710284" fill="rgb(102,102,102)"  stroke="rgb(102,102,102)" stroke-width="1" font-size="16" >C</text>
</svg>
</g>
<text font-size="18.000000" fill ="black" font-family="sans-serif"
x="10.000000" y="20.000000" ></text>
</svg>
