<?xml version="1.0"?>
<svg version="1.1" id="topsvg"
xmlns="http://www.w3.org/2000/svg" xmlns:xlink="http://www.w3.org/1999/xlink"
xmlns:cml="http://www.xml-cml.org/schema" x="0" y="0" width="200px" height="200px" viewBox="0 0 100 100">
<title> - Open Babel Depiction</title>
<rect x="0" y="0" width="100" height="100" fill="white"/>
<g transform="translate(0,0)">
<svg width="100" height="100" x="0" y="0" viewBox="0 0 378.425 307.995"
font-family="sans-serif" stroke="rgb(0,0,0)" stroke-width="2"  stroke-linecap="round">
<polygon points="128.712 162.534 132.08 204.134 124.08 204.013 " stroke-width="2" fill="rgb(0,0,0)"  stroke="rgb(0,0,0)" />
<line x1="128.1" y1="204.1" x2="151.0" y2="218.5" stroke="rgb(0,0,0)"  stroke-width="2.0"/>
<line x1="70.1" y1="81.4" x2="70.6" y2="80.0" stroke="rgb(0,0,0)"  stroke-width="2.0"/>
<line x1="53.8" y1="89.9" x2="52.4" y2="89.4" stroke="rgb(0,0,0)"  stroke-width="2.0"/>
<line x1="62.2" y1="106.2" x2="61.8" y2="107.6" stroke="rgb(0,0,0)"  stroke-width="2.0"/>
<line x1="78.6" y1="97.8" x2="92.3" y2="102.2" stroke="rgb(0,0,0)"  stroke-width="2.0"/>
<line x1="169.2" y1="48.1" x2="128.2" y2="80.7" stroke="rgb(0,0,0)"  stroke-width="2.0"/>
<line x1="170.6" y1="145.7" x2="169.9" y2="147.1" stroke="rgb(0,0,0)"  stroke-width="1.0"/>
<line x1="176.9" y1="147.9" x2="175.6" y2="150.5" stroke="rgb(0,0,0)"  stroke-width="1.0"/>
<line x1="183.1" y1="150.1" x2="181.3" y2="153.9" stroke="rgb(0,0,0)"  stroke-width="1.0"/>
<line x1="189.3" y1="152.3" x2="187.0" y2="157.2" stroke="rgb(0,0,0)"  stroke-width="1.0"/>
<line x1="195.5" y1="154.5" x2="192.7" y2="160.6" stroke="rgb(0,0,0)"  stroke-width="1.0"/>
<line x1="201.8" y1="156.8" x2="198.4" y2="164.0" stroke="rgb(0,0,0)"  stroke-width="1.0"/>
<line x1="233.9" y1="265.4" x2="269.3" y2="243.9" stroke="rgb(0,0,0)"  stroke-width="2.0"/>
<line x1="237.1" y1="270.6" x2="272.4" y2="249.0" stroke="rgb(0,0,0)"  stroke-width="2.0"/>
<line x1="270.9" y1="246.4" x2="271.1" y2="205.4" stroke="rgb(0,0,0)"  stroke-width="2.0"/>
<line x1="271.1" y1="205.4" x2="271.4" y2="147.4" stroke="rgb(0,0,0)"  stroke-width="2.0"/>
<line x1="266.9" y1="205.3" x2="267.2" y2="147.4" stroke="rgb(0,0,0)"  stroke-width="2.0"/>
<line x1="275.3" y1="205.4" x2="275.6" y2="147.4" stroke="rgb(0,0,0)"  stroke-width="2.0"/>
<line x1="304.7" y1="104.1" x2="271.5" y2="119.9" stroke="rgb(0,0,0)"  stroke-width="2.0"/>
<line x1="327.2" y1="105.9" x2="327.7" y2="106.3" stroke="rgb(0,0,0)"  stroke-width="2.0"/>
<line x1="271.5" y1="119.9" x2="271.4" y2="147.4" stroke="rgb(0,0,0)"  stroke-width="2.0"/>
<line x1="199.8" y1="247.1" x2="151.0" y2="218.5" stroke="rgb(0,0,0)"  stroke-width="2.0"/>
<line x1="197.7" y1="250.7" x2="148.9" y2="222.2" stroke="rgb(0,0,0)"  stroke-width="2.0"/>
<line x1="201.9" y1="243.5" x2="153.2" y2="214.9" stroke="rgb(0,0,0)"  stroke-width="2.0"/>
<line x1="199.8" y1="247.1" x2="235.5" y2="268.0" stroke="rgb(0,0,0)"  stroke-width="2.0"/>
<line x1="203.1" y1="160.4" x2="203.5" y2="193.0" stroke="rgb(0,0,0)"  stroke-width="2.0"/>
<line x1="197.1" y1="160.4" x2="197.5" y2="193.1" stroke="rgb(0,0,0)"  stroke-width="2.0"/>
<line x1="92.3" y1="102.2" x2="92.4" y2="143.7" stroke="rgb(0,0,0)"  stroke-width="2.0"/>
<line x1="99.6" y1="108.2" x2="99.6" y2="137.6" stroke="rgb(0,0,0)"  stroke-width="2.0"/>
<line x1="92.4" y1="143.7" x2="128.7" y2="162.5" stroke="rgb(0,0,0)"  stroke-width="2.0"/>
<line x1="128.7" y1="162.5" x2="162.8" y2="142.9" stroke="rgb(0,0,0)"  stroke-width="2.0"/>
<line x1="162.8" y1="142.9" x2="164.4" y2="100.9" stroke="rgb(0,0,0)"  stroke-width="2.0"/>
<line x1="164.4" y1="100.9" x2="128.2" y2="80.7" stroke="rgb(0,0,0)"  stroke-width="2.0"/>
<line x1="155.6" y1="104.3" x2="129.9" y2="89.9" stroke="rgb(0,0,0)"  stroke-width="2.0"/>
<line x1="128.2" y1="80.7" x2="92.3" y2="102.2" stroke="rgb(0,0,0)"  stroke-width="2.0"/>
<text x="60.172875" y="101.810178" fill="rgb(127,153,153)"  stroke="rgb(127,153,153)" stroke-width="1" font-size="16" >Si</text>
<text x="70.530831" y="75.637303" fill="rgb(102,102,102)"  stroke="rgb(102,102,102)" stroke-width="1" font-size="16" >CH</text>
<text x="94.530831" y="79.317303" fill="rgb(102,102,102)"  stroke="rgb(102,102,102)" stroke-width="1" font-size="13" >3</text>
<text x="14.000000" y="93.454970" fill="rgb(102,102,102)"  stroke="rgb(102,102,102)" stroke-width="1" font-size="16" >H</text>
<text x="26.000000" y="97.134970" fill="rgb(102,102,102)"  stroke="rgb(102,102,102)" stroke-width="1" font-size="13" >3</text>
<text x="32.500000" y="93.454970" fill="rgb(102,102,102)"  stroke="rgb(102,102,102)" stroke-width="1" font-size="16" >C</text>
<text x="31.817667" y="127.985801" fill="rgb(102,102,102)"  stroke="rgb(102,102,102)" stroke-width="1" font-size="16" >H</text>
<text x="43.817667" y="131.665801" fill="rgb(102,102,102)"  stroke="rgb(102,102,102)" stroke-width="1" font-size="13" >3</text>
<text x="50.317667" y="127.985801" fill="rgb(102,102,102)"  stroke="rgb(102,102,102)" stroke-width="1" font-size="16" >C</text>
<text x="173.348717" y="48.000000" fill="rgb(17,127,178)"  stroke="rgb(17,127,178)" stroke-width="1" font-size="16" >Xx</text>
<text x="310.471942" y="106.516680" fill="rgb(255,12,12)"  stroke="rgb(255,12,12)" stroke-width="1" font-size="16" >O</text>
<text x="196.631006" y="214.029883" fill="rgb(102,102,102)"  stroke="rgb(102,102,102)" stroke-width="1" font-size="16" >CH</text>
<text x="220.631006" y="217.709883" fill="rgb(102,102,102)"  stroke="rgb(102,102,102)" stroke-width="1" font-size="13" >2</text>
<text x="332.424627" y="121.628040" fill="rgb(191,191,191)"  stroke="rgb(191,191,191)" stroke-width="1" font-size="16" >H</text>
</svg>
</g>
<text font-size="18.000000" fill ="black" font-family="sans-serif"
x="10.000000" y="20.000000" ></text>
</svg>
