<?xml version="1.0"?>
<svg version="1.1" id="topsvg"
xmlns="http://www.w3.org/2000/svg" xmlns:xlink="http://www.w3.org/1999/xlink"
xmlns:cml="http://www.xml-cml.org/schema" x="0" y="0" width="200px" height="200px" viewBox="0 0 100 100">
<title> - Open Babel Depiction</title>
<rect x="0" y="0" width="100" height="100" fill="white"/>
<g transform="translate(0,0)">
<svg width="100" height="100" x="0" y="0" viewBox="0 0 305.481 205.794"
font-family="sans-serif" stroke="rgb(0,0,0)" stroke-width="2"  stroke-linecap="round">
<line x1="126.0" y1="128.3" x2="132.3" y2="151.9" stroke="rgb(0,0,0)"  stroke-width="2.0"/>
<line x1="90.2" y1="70.6" x2="87.6" y2="79.0" stroke="rgb(0,0,0)"  stroke-width="2.0"/>
<line x1="73.9" y1="79.1" x2="82.4" y2="81.7" stroke="rgb(0,0,0)"  stroke-width="2.0"/>
<line x1="82.4" y1="95.4" x2="85.1" y2="86.9" stroke="rgb(0,0,0)"  stroke-width="2.0"/>
<line x1="98.7" y1="86.9" x2="102.7" y2="88.1" stroke="rgb(0,0,0)"  stroke-width="2.0"/>
<line x1="125.2" y1="75.2" x2="146.8" y2="57.2" stroke="rgb(0,0,0)"  stroke-width="2.0"/>
<polygon points="147.902453 88.487833 167.311467 75.938675 170.426915 83.307120 " stroke-width="2.000000" fill="rgb(0,0,0)"  stroke="rgb(0,0,0)" />
<polygon points="177.092585 83.086192 148.630297 92.421056 147.174609 84.554610 " stroke-width="2.000000" fill="rgb(0,0,0)"  stroke="rgb(0,0,0)" />
<line x1="177.1" y1="83.1" x2="199.3" y2="87.8" stroke="rgb(0,0,0)"  stroke-width="2.0"/>
<line x1="265.3" y1="53.5" x2="52.8" y2="43.6" stroke="rgb(0,0,0)"  stroke-width="2.0"/>
<line x1="265.6" y1="47.5" x2="53.1" y2="37.6" stroke="rgb(0,0,0)"  stroke-width="2.0"/>
<line x1="265.5" y1="50.5" x2="40.0" y2="40.0" stroke="rgb(0,0,0)"  stroke-width="2.0"/>
<line x1="nan" y1="nan" x2="nan" y2="nan" stroke="rgb(0,0,0)"  stroke-width="2.0"/>
<line x1="nan" y1="nan" x2="nan" y2="nan" stroke="rgb(0,0,0)"  stroke-width="2.0"/>
<line x1="218.8" y1="135.9" x2="212.2" y2="110.9" stroke="rgb(0,0,0)"  stroke-width="2.0"/>
<line x1="203.7" y1="157.7" x2="216.2" y2="134.5" stroke="rgb(0,0,0)"  stroke-width="2.0"/>
<line x1="208.9" y1="160.5" x2="221.5" y2="137.3" stroke="rgb(0,0,0)"  stroke-width="2.0"/>
<line x1="193.1" y1="162.5" x2="206.3" y2="159.1" stroke="rgb(0,0,0)"  stroke-width="2.0"/>
<line x1="143.1" y1="158.8" x2="132.3" y2="151.9" stroke="rgb(0,0,0)"  stroke-width="2.0"/>
<line x1="146.6" y1="108.8" x2="148.2" y2="108.8" stroke="rgb(0,0,0)"  stroke-width="1.0"/>
<line x1="146.0" y1="104.7" x2="148.9" y2="104.8" stroke="rgb(0,0,0)"  stroke-width="1.0"/>
<line x1="145.5" y1="100.6" x2="149.7" y2="100.7" stroke="rgb(0,0,0)"  stroke-width="1.0"/>
<line x1="145.0" y1="96.5" x2="150.4" y2="96.7" stroke="rgb(0,0,0)"  stroke-width="1.0"/>
<line x1="144.4" y1="92.5" x2="151.2" y2="92.6" stroke="rgb(0,0,0)"  stroke-width="1.0"/>
<line x1="143.9" y1="88.4" x2="151.9" y2="88.6" stroke="rgb(0,0,0)"  stroke-width="1.0"/>
<line x1="147.2" y1="113.9" x2="170.8" y2="127.6" stroke="rgb(0,0,0)"  stroke-width="2.0"/>
<line x1="169.2" y1="125.0" x2="180.9" y2="118.0" stroke="rgb(0,0,0)"  stroke-width="2.0"/>
<line x1="172.3" y1="130.2" x2="184.0" y2="123.2" stroke="rgb(0,0,0)"  stroke-width="2.0"/>
<line x1="168.9" y1="79.6" x2="177.1" y2="83.1" stroke="rgb(0,0,0)"  stroke-width="2.0"/>
<line x1="177.1" y1="83.1" x2="147.9" y2="88.5" stroke="rgb(0,0,0)"  stroke-width="2.0"/>
<line x1="147.9" y1="88.5" x2="168.9" y2="79.6" stroke="rgb(0,0,0)"  stroke-width="2.0"/>
<line x1="265.5" y1="50.5" x2="199.3" y2="87.8" stroke="rgb(0,0,0)"  stroke-width="2.0"/>
<line x1="199.3" y1="87.8" x2="217.5" y2="92.4" stroke="rgb(0,0,0)"  stroke-width="2.0"/>
<line x1="217.5" y1="92.4" x2="265.5" y2="50.5" stroke="rgb(0,0,0)"  stroke-width="2.0"/>
<line x1="258.0" y1="84.9" x2="265.5" y2="50.5" stroke="rgb(0,0,0)"  stroke-width="2.0"/>
<line x1="217.5" y1="92.4" x2="242.4" y2="95.8" stroke="rgb(0,0,0)"  stroke-width="2.0"/>
<line x1="212.2" y1="110.9" x2="199.3" y2="87.8" stroke="rgb(0,0,0)"  stroke-width="2.0"/>
<line x1="217.5" y1="92.4" x2="212.2" y2="110.9" stroke="rgb(0,0,0)"  stroke-width="2.0"/>
<line x1="212.2" y1="110.9" x2="242.8" y2="101.5" stroke="rgb(0,0,0)"  stroke-width="2.0"/>
<line x1="102.7" y1="88.1" x2="103.1" y2="114.1" stroke="rgb(0,0,0)"  stroke-width="2.0"/>
<line x1="103.1" y1="114.1" x2="126.0" y2="128.3" stroke="rgb(0,0,0)"  stroke-width="2.0"/>
<line x1="112.0" y1="111.1" x2="124.7" y2="119.0" stroke="rgb(0,0,0)"  stroke-width="2.0"/>
<line x1="126.0" y1="128.3" x2="147.2" y2="113.9" stroke="rgb(0,0,0)"  stroke-width="2.0"/>
<line x1="147.2" y1="113.9" x2="147.9" y2="88.5" stroke="rgb(0,0,0)"  stroke-width="2.0"/>
<line x1="147.9" y1="88.5" x2="125.2" y2="75.2" stroke="rgb(0,0,0)"  stroke-width="2.0"/>
<line x1="125.2" y1="75.2" x2="102.7" y2="88.1" stroke="rgb(0,0,0)"  stroke-width="2.0"/>
<line x1="123.6" y1="84.4" x2="111.5" y2="91.4" stroke="rgb(0,0,0)"  stroke-width="2.0"/>
<text x="80.323060" y="90.967833" fill="rgb(127,153,153)"  stroke="rgb(127,153,153)" stroke-width="1" font-size="16" >Si</text>
<text x="87.491413" y="74.611959" fill="rgb(102,102,102)"  stroke="rgb(102,102,102)" stroke-width="1" font-size="16" >CH</text>
<text x="111.491413" y="78.291959" fill="rgb(102,102,102)"  stroke="rgb(102,102,102)" stroke-width="1" font-size="13" >3</text>
<text x="43.967186" y="85.801195" fill="rgb(102,102,102)"  stroke="rgb(102,102,102)" stroke-width="1" font-size="16" >H</text>
<text x="55.967186" y="89.481195" fill="rgb(102,102,102)"  stroke="rgb(102,102,102)" stroke-width="1" font-size="13" >3</text>
<text x="62.467186" y="85.801195" fill="rgb(102,102,102)"  stroke="rgb(102,102,102)" stroke-width="1" font-size="16" >C</text>
<text x="55.154706" y="107.325422" fill="rgb(102,102,102)"  stroke="rgb(102,102,102)" stroke-width="1" font-size="16" >H</text>
<text x="67.154706" y="111.005422" fill="rgb(102,102,102)"  stroke="rgb(102,102,102)" stroke-width="1" font-size="13" >3</text>
<text x="73.654706" y="107.325422" fill="rgb(102,102,102)"  stroke="rgb(102,102,102)" stroke-width="1" font-size="16" >C</text>
<text x="150.765673" y="56.914680" fill="rgb(17,127,178)"  stroke="rgb(17,127,178)" stroke-width="1" font-size="16" >Xx</text>
<text x="34.000000" y="48.000000" fill="rgb(255,12,12)"  stroke="rgb(255,12,12)" stroke-width="1" font-size="16" >O</text>
<text x="34.000000" y="48.000000" fill="rgb(255,12,12)"  stroke="rgb(255,12,12)" stroke-width="1" font-size="16" >O</text>
<text x="249.266286" y="105.622078" fill="rgb(17,127,178)"  stroke="rgb(17,127,178)" stroke-width="1" font-size="16" >Xx</text>
<text x="154.482119" y="173.793566" fill="rgb(102,102,102)"  stroke="rgb(102,102,102)" stroke-width="1" font-size="16" >H</text>
<text x="166.482119" y="177.473566" fill="rgb(102,102,102)"  stroke="rgb(102,102,102)" stroke-width="1" font-size="13" >3</text>
<text x="172.982119" y="173.793566" fill="rgb(102,102,102)"  stroke="rgb(102,102,102)" stroke-width="1" font-size="16" >C</text>
<text x="150.046841" y="173.750683" fill="rgb(102,102,102)"  stroke="rgb(102,102,102)" stroke-width="1" font-size="16" >CH</text>
<text x="174.046841" y="177.430683" fill="rgb(102,102,102)"  stroke="rgb(102,102,102)" stroke-width="1" font-size="13" >3</text>
<text x="189.604556" y="121.912769" fill="rgb(102,102,102)"  stroke="rgb(102,102,102)" stroke-width="1" font-size="16" >CH</text>
<text x="213.604556" y="125.592769" fill="rgb(102,102,102)"  stroke="rgb(102,102,102)" stroke-width="1" font-size="13" >2</text>
</svg>
</g>
<text font-size="18.000000" fill ="black" font-family="sans-serif"
x="10.000000" y="20.000000" ></text>
</svg>
