<?xml version="1.0"?>
<svg version="1.1" id="topsvg"
xmlns="http://www.w3.org/2000/svg" xmlns:xlink="http://www.w3.org/1999/xlink"
xmlns:cml="http://www.xml-cml.org/schema" x="0" y="0" width="200px" height="200px" viewBox="0 0 100 100">
<title> - Open Babel Depiction</title>
<rect x="0" y="0" width="100" height="100" fill="white"/>
<g transform="translate(0,0)">
<svg width="100" height="100" x="0" y="0" viewBox="0 0 336.745 251.636"
font-family="sans-serif" stroke="rgb(0,0,0)" stroke-width="2"  stroke-linecap="round">
<polygon points="123.058 154.968 135.676 190.214 127.899 192.09 " stroke-width="2" fill="rgb(0,0,0)"  stroke="rgb(0,0,0)" />
<line x1="89.5" y1="96.7" x2="77.2" y2="93.0" stroke="rgb(0,0,0)"  stroke-width="2.0"/>
<line x1="68.5" y1="76.8" x2="68.4" y2="77.0" stroke="rgb(0,0,0)"  stroke-width="2.0"/>
<line x1="52.3" y1="85.5" x2="52.4" y2="85.5" stroke="rgb(0,0,0)"  stroke-width="2.0"/>
<line x1="61.0" y1="101.7" x2="61.0" y2="101.5" stroke="rgb(0,0,0)"  stroke-width="2.0"/>
<line x1="123.7" y1="53.0" x2="124.0" y2="78.1" stroke="rgb(0,0,0)"  stroke-width="2.0"/>
<line x1="117.7" y1="53.0" x2="118.0" y2="78.1" stroke="rgb(0,0,0)"  stroke-width="2.0"/>
<polygon points="157.081692 98.122328 190.665840 82.957616 193.147202 90.563065 " stroke-width="2.000000" fill="rgb(0,0,0)"  stroke="rgb(0,0,0)" />
<line x1="164.1" y1="139.8" x2="163.3" y2="141.2" stroke="rgb(0,0,0)"  stroke-width="1.0"/>
<line x1="169.5" y1="142.2" x2="168.1" y2="144.7" stroke="rgb(0,0,0)"  stroke-width="1.0"/>
<line x1="175.0" y1="144.7" x2="172.9" y2="148.3" stroke="rgb(0,0,0)"  stroke-width="1.0"/>
<line x1="180.4" y1="147.2" x2="177.6" y2="151.8" stroke="rgb(0,0,0)"  stroke-width="1.0"/>
<line x1="185.8" y1="149.6" x2="182.4" y2="155.4" stroke="rgb(0,0,0)"  stroke-width="1.0"/>
<line x1="191.3" y1="152.1" x2="187.2" y2="159.0" stroke="rgb(0,0,0)"  stroke-width="1.0"/>
<line x1="187.7" y1="153.0" x2="210.1" y2="139.3" stroke="rgb(0,0,0)"  stroke-width="2.0"/>
<line x1="190.8" y1="158.1" x2="213.2" y2="144.4" stroke="rgb(0,0,0)"  stroke-width="2.0"/>
<line x1="277.7" y1="211.3" x2="296.7" y2="177.7" stroke="rgb(0,0,0)"  stroke-width="2.0"/>
<line x1="296.7" y1="177.7" x2="277.2" y2="145.0" stroke="rgb(0,0,0)"  stroke-width="2.0"/>
<line x1="287.5" y1="176.2" x2="274.1" y2="153.9" stroke="rgb(0,0,0)"  stroke-width="2.0"/>
<line x1="277.2" y1="145.0" x2="239.7" y2="144.9" stroke="rgb(0,0,0)"  stroke-width="2.0"/>
<line x1="239.7" y1="144.9" x2="220.2" y2="177.4" stroke="rgb(0,0,0)"  stroke-width="2.0"/>
<line x1="242.8" y1="153.7" x2="229.4" y2="175.9" stroke="rgb(0,0,0)"  stroke-width="2.0"/>
<line x1="220.2" y1="177.4" x2="238.7" y2="211.6" stroke="rgb(0,0,0)"  stroke-width="2.0"/>
<line x1="238.7" y1="211.6" x2="277.7" y2="211.3" stroke="rgb(0,0,0)"  stroke-width="2.0"/>
<line x1="244.6" y1="204.4" x2="271.7" y2="204.2" stroke="rgb(0,0,0)"  stroke-width="2.0"/>
<line x1="123.1" y1="155.0" x2="88.9" y2="135.9" stroke="rgb(0,0,0)"  stroke-width="2.0"/>
<line x1="88.9" y1="135.9" x2="89.5" y2="96.7" stroke="rgb(0,0,0)"  stroke-width="2.0"/>
<line x1="96.2" y1="130.0" x2="96.6" y2="102.8" stroke="rgb(0,0,0)"  stroke-width="2.0"/>
<line x1="89.5" y1="96.7" x2="121.0" y2="78.1" stroke="rgb(0,0,0)"  stroke-width="2.0"/>
<line x1="121.0" y1="78.1" x2="157.1" y2="98.1" stroke="rgb(0,0,0)"  stroke-width="2.0"/>
<line x1="157.1" y1="98.1" x2="157.3" y2="136.7" stroke="rgb(0,0,0)"  stroke-width="2.0"/>
<line x1="157.3" y1="136.7" x2="123.1" y2="155.0" stroke="rgb(0,0,0)"  stroke-width="2.0"/>
<line x1="239.7" y1="144.9" x2="191.9" y2="86.8" stroke="rgb(0,0,0)"  stroke-width="2.0"/>
<line x1="191.9" y1="86.8" x2="157.1" y2="98.1" stroke="rgb(0,0,0)"  stroke-width="2.0"/>
<line x1="123.1" y1="155.0" x2="131.8" y2="191.2" stroke="rgb(0,0,0)"  stroke-width="2.0"/>
<line x1="131.8" y1="191.2" x2="220.2" y2="177.4" stroke="rgb(0,0,0)"  stroke-width="2.0"/>
<text x="58.726145" y="97.245614" fill="rgb(127,153,153)"  stroke="rgb(127,153,153)" stroke-width="1" font-size="16" >Si</text>
<text x="68.207799" y="72.519469" fill="rgb(102,102,102)"  stroke="rgb(102,102,102)" stroke-width="1" font-size="16" >CH</text>
<text x="92.207799" y="76.199469" fill="rgb(102,102,102)"  stroke="rgb(102,102,102)" stroke-width="1" font-size="13" >3</text>
<text x="14.000000" y="89.763959" fill="rgb(102,102,102)"  stroke="rgb(102,102,102)" stroke-width="1" font-size="16" >H</text>
<text x="26.000000" y="93.443959" fill="rgb(102,102,102)"  stroke="rgb(102,102,102)" stroke-width="1" font-size="13" >3</text>
<text x="32.500000" y="89.763959" fill="rgb(102,102,102)"  stroke="rgb(102,102,102)" stroke-width="1" font-size="16" >C</text>
<text x="31.244490" y="121.974342" fill="rgb(102,102,102)"  stroke="rgb(102,102,102)" stroke-width="1" font-size="16" >H</text>
<text x="43.244490" y="125.654342" fill="rgb(102,102,102)"  stroke="rgb(102,102,102)" stroke-width="1" font-size="13" >3</text>
<text x="49.744490" y="121.974342" fill="rgb(102,102,102)"  stroke="rgb(102,102,102)" stroke-width="1" font-size="16" >C</text>
<text x="114.621544" y="48.000000" fill="rgb(255,12,12)"  stroke="rgb(255,12,12)" stroke-width="1" font-size="16" >O</text>
<text x="218.791596" y="143.099166" fill="rgb(102,102,102)"  stroke="rgb(102,102,102)" stroke-width="1" font-size="16" >CH</text>
<text x="242.791596" y="146.779166" fill="rgb(102,102,102)"  stroke="rgb(102,102,102)" stroke-width="1" font-size="13" >2</text>
</svg>
</g>
<text font-size="18.000000" fill ="black" font-family="sans-serif"
x="10.000000" y="20.000000" ></text>
</svg>
