<?xml version="1.0"?>
<svg version="1.1" id="topsvg"
xmlns="http://www.w3.org/2000/svg" xmlns:xlink="http://www.w3.org/1999/xlink"
xmlns:cml="http://www.xml-cml.org/schema" x="0" y="0" width="200px" height="200px" viewBox="0 0 100 100">
<title> - Open Babel Depiction</title>
<rect x="0" y="0" width="100" height="100" fill="white"/>
<g transform="translate(0,0)">
<svg width="100" height="100" x="0" y="0" viewBox="0 0 363.543 279.383"
font-family="sans-serif" stroke="rgb(0,0,0)" stroke-width="2"  stroke-linecap="round">
<line x1="177.3" y1="235.7" x2="209.4" y2="238.3" stroke="rgb(0,0,0)"  stroke-width="2.0"/>
<line x1="177.6" y1="231.6" x2="209.8" y2="234.1" stroke="rgb(0,0,0)"  stroke-width="2.0"/>
<line x1="176.9" y1="239.9" x2="209.1" y2="242.5" stroke="rgb(0,0,0)"  stroke-width="2.0"/>
<line x1="161.8" y1="153.7" x2="161.1" y2="152.3" stroke="rgb(0,0,0)"  stroke-width="1.0"/>
<line x1="156.0" y1="157.3" x2="154.8" y2="154.7" stroke="rgb(0,0,0)"  stroke-width="1.0"/>
<line x1="150.2" y1="160.8" x2="148.4" y2="157.0" stroke="rgb(0,0,0)"  stroke-width="1.0"/>
<line x1="144.4" y1="164.3" x2="142.1" y2="159.4" stroke="rgb(0,0,0)"  stroke-width="1.0"/>
<line x1="138.6" y1="167.8" x2="135.7" y2="161.8" stroke="rgb(0,0,0)"  stroke-width="1.0"/>
<line x1="132.8" y1="171.4" x2="129.3" y2="164.2" stroke="rgb(0,0,0)"  stroke-width="1.0"/>
<line x1="93.5" y1="103.6" x2="79.2" y2="99.3" stroke="rgb(0,0,0)"  stroke-width="2.0"/>
<line x1="70.5" y1="83.1" x2="71.0" y2="81.3" stroke="rgb(0,0,0)"  stroke-width="2.0"/>
<line x1="54.3" y1="91.8" x2="52.4" y2="91.3" stroke="rgb(0,0,0)"  stroke-width="2.0"/>
<line x1="63.0" y1="108.0" x2="62.5" y2="109.9" stroke="rgb(0,0,0)"  stroke-width="2.0"/>
<line x1="132.7" y1="52.9" x2="133.4" y2="83.1" stroke="rgb(0,0,0)"  stroke-width="2.0"/>
<line x1="126.7" y1="53.1" x2="127.4" y2="83.3" stroke="rgb(0,0,0)"  stroke-width="2.0"/>
<polygon points="167.861566 103.309309 200.586876 86.154138 203.512321 93.600061 " stroke-width="2.000000" fill="rgb(0,0,0)"  stroke="rgb(0,0,0)" />
<polygon points="215.677328 95.658899 168.493519 107.259073 167.229613 99.359545 " stroke-width="2.000000" fill="rgb(0,0,0)"  stroke="rgb(0,0,0)" />
<line x1="215.7" y1="95.7" x2="250.7" y2="102.7" stroke="rgb(0,0,0)"  stroke-width="2.0"/>
<line x1="260.3" y1="219.5" x2="281.1" y2="181.4" stroke="rgb(0,0,0)"  stroke-width="2.0"/>
<line x1="265.5" y1="222.4" x2="286.4" y2="184.3" stroke="rgb(0,0,0)"  stroke-width="2.0"/>
<line x1="283.7" y1="182.8" x2="274.4" y2="141.7" stroke="rgb(0,0,0)"  stroke-width="2.0"/>
<line x1="146.7" y1="212.1" x2="177.3" y2="235.7" stroke="rgb(0,0,0)"  stroke-width="2.0"/>
<polygon points="146.695152 212.121661 127.316678 169.102741 134.863080 166.447217 " stroke-width="2.000000" fill="rgb(0,0,0)"  stroke="rgb(0,0,0)" />
<line x1="169.1" y1="149.3" x2="205.6" y2="169.4" stroke="rgb(0,0,0)"  stroke-width="2.0"/>
<line x1="233.7" y1="228.6" x2="262.9" y2="220.9" stroke="rgb(0,0,0)"  stroke-width="2.0"/>
<line x1="322.3" y1="83.8" x2="319.9" y2="107.5" stroke="rgb(0,0,0)"  stroke-width="2.0"/>
<line x1="204.1" y1="166.9" x2="230.3" y2="151.0" stroke="rgb(0,0,0)"  stroke-width="2.0"/>
<line x1="207.2" y1="172.0" x2="233.4" y2="156.2" stroke="rgb(0,0,0)"  stroke-width="2.0"/>
<line x1="202.0" y1="89.9" x2="215.7" y2="95.7" stroke="rgb(0,0,0)"  stroke-width="2.0"/>
<line x1="215.7" y1="95.7" x2="167.9" y2="103.3" stroke="rgb(0,0,0)"  stroke-width="2.0"/>
<line x1="167.9" y1="103.3" x2="202.0" y2="89.9" stroke="rgb(0,0,0)"  stroke-width="2.0"/>
<line x1="310.2" y1="85.2" x2="250.7" y2="102.7" stroke="rgb(0,0,0)"  stroke-width="2.0"/>
<line x1="250.7" y1="102.7" x2="280.0" y2="109.9" stroke="rgb(0,0,0)"  stroke-width="2.0"/>
<line x1="280.0" y1="109.9" x2="311.8" y2="88.7" stroke="rgb(0,0,0)"  stroke-width="2.0"/>
<line x1="320.0" y1="107.5" x2="321.3" y2="94.4" stroke="rgb(0,0,0)"  stroke-width="2.0"/>
<line x1="280.0" y1="109.9" x2="306.1" y2="117.0" stroke="rgb(0,0,0)"  stroke-width="2.0"/>
<line x1="274.4" y1="141.7" x2="250.7" y2="102.7" stroke="rgb(0,0,0)"  stroke-width="2.0"/>
<line x1="280.0" y1="109.9" x2="274.4" y2="141.7" stroke="rgb(0,0,0)"  stroke-width="2.0"/>
<line x1="306.9" y1="126.1" x2="274.4" y2="141.7" stroke="rgb(0,0,0)"  stroke-width="2.0"/>
<line x1="131.1" y1="167.8" x2="146.7" y2="212.1" stroke="rgb(0,0,0)"  stroke-width="2.0"/>
<line x1="146.7" y1="212.1" x2="136.0" y2="207.9" stroke="rgb(0,0,0)"  stroke-width="2.0"/>
<line x1="136.0" y1="207.9" x2="131.1" y2="167.8" stroke="rgb(0,0,0)"  stroke-width="2.0"/>
<line x1="93.2" y1="147.8" x2="131.1" y2="167.8" stroke="rgb(0,0,0)"  stroke-width="2.0"/>
<line x1="131.1" y1="167.8" x2="169.1" y2="149.3" stroke="rgb(0,0,0)"  stroke-width="2.0"/>
<line x1="169.1" y1="149.3" x2="167.9" y2="103.3" stroke="rgb(0,0,0)"  stroke-width="2.0"/>
<line x1="167.9" y1="103.3" x2="130.4" y2="83.2" stroke="rgb(0,0,0)"  stroke-width="2.0"/>
<line x1="130.4" y1="83.2" x2="93.5" y2="103.6" stroke="rgb(0,0,0)"  stroke-width="2.0"/>
<line x1="93.5" y1="103.6" x2="93.2" y2="147.8" stroke="rgb(0,0,0)"  stroke-width="2.0"/>
<line x1="100.7" y1="109.7" x2="100.4" y2="141.9" stroke="rgb(0,0,0)"  stroke-width="2.0"/>
<text x="216.372485" y="247.382707" fill="rgb(102,102,102)"  stroke="rgb(102,102,102)" stroke-width="1" font-size="16" >CH</text>
<text x="60.749901" y="103.572312" fill="rgb(127,153,153)"  stroke="rgb(127,153,153)" stroke-width="1" font-size="16" >Si</text>
<text x="70.788558" y="76.822411" fill="rgb(102,102,102)"  stroke="rgb(102,102,102)" stroke-width="1" font-size="16" >CH</text>
<text x="94.788558" y="80.502411" fill="rgb(102,102,102)"  stroke="rgb(102,102,102)" stroke-width="1" font-size="13" >3</text>
<text x="14.000000" y="95.533655" fill="rgb(102,102,102)"  stroke="rgb(102,102,102)" stroke-width="1" font-size="16" >H</text>
<text x="26.000000" y="99.213655" fill="rgb(102,102,102)"  stroke="rgb(102,102,102)" stroke-width="1" font-size="13" >3</text>
<text x="32.500000" y="95.533655" fill="rgb(102,102,102)"  stroke="rgb(102,102,102)" stroke-width="1" font-size="16" >C</text>
<text x="32.708451" y="130.322213" fill="rgb(102,102,102)"  stroke="rgb(102,102,102)" stroke-width="1" font-size="16" >H</text>
<text x="44.708451" y="134.002213" fill="rgb(102,102,102)"  stroke="rgb(102,102,102)" stroke-width="1" font-size="13" >3</text>
<text x="51.208451" y="130.322213" fill="rgb(102,102,102)"  stroke="rgb(102,102,102)" stroke-width="1" font-size="16" >C</text>
<text x="123.430754" y="48.000000" fill="rgb(255,12,12)"  stroke="rgb(255,12,12)" stroke-width="1" font-size="16" >O</text>
<text x="316.660173" y="89.511645" fill="rgb(17,127,178)"  stroke="rgb(17,127,178)" stroke-width="1" font-size="16" >Xx</text>
<text x="312.618500" y="128.450809" fill="rgb(239,142,160)"  stroke="rgb(239,142,160)" stroke-width="1" font-size="16" >Co</text>
<text x="195.107192" y="239.919437" fill="rgb(102,102,102)"  stroke="rgb(102,102,102)" stroke-width="1" font-size="16" >H</text>
<text x="207.107192" y="243.599437" fill="rgb(102,102,102)"  stroke="rgb(102,102,102)" stroke-width="1" font-size="13" >3</text>
<text x="213.607192" y="239.919437" fill="rgb(102,102,102)"  stroke="rgb(102,102,102)" stroke-width="1" font-size="16" >C</text>
<text x="319.542805" y="78.858610" fill="rgb(102,102,102)"  stroke="rgb(102,102,102)" stroke-width="1" font-size="16" >CH</text>
<text x="343.542805" y="82.538610" fill="rgb(102,102,102)"  stroke="rgb(102,102,102)" stroke-width="1" font-size="13" >3</text>
<text x="238.949546" y="154.885085" fill="rgb(102,102,102)"  stroke="rgb(102,102,102)" stroke-width="1" font-size="16" >CH</text>
<text x="262.949546" y="158.565085" fill="rgb(102,102,102)"  stroke="rgb(102,102,102)" stroke-width="1" font-size="13" >2</text>
</svg>
</g>
<text font-size="18.000000" fill ="black" font-family="sans-serif"
x="10.000000" y="20.000000" ></text>
</svg>
