<?xml version="1.0"?>
<svg version="1.1" id="topsvg"
xmlns="http://www.w3.org/2000/svg" xmlns:xlink="http://www.w3.org/1999/xlink"
xmlns:cml="http://www.xml-cml.org/schema" x="0" y="0" width="200px" height="200px" viewBox="0 0 100 100">
<title> - Open Babel Depiction</title>
<rect x="0" y="0" width="100" height="100" fill="white"/>
<g transform="translate(0,0)">
<svg width="100" height="100" x="0" y="0" viewBox="0 0 249.079 297.959"
font-family="sans-serif" stroke="rgb(0,0,0)" stroke-width="2"  stroke-linecap="round">
<polygon points="133.381 168.92 136.522 212.85 128.524 212.694 " stroke-width="2" fill="rgb(0,0,0)"  stroke="rgb(0,0,0)" />
<line x1="132.5" y1="212.8" x2="169.8" y2="235.7" stroke="rgb(0,0,0)"  stroke-width="2.0"/>
<line x1="95.7" y1="103.4" x2="80.3" y2="99.0" stroke="rgb(0,0,0)"  stroke-width="2.0"/>
<line x1="71.5" y1="82.8" x2="72.3" y2="80.0" stroke="rgb(0,0,0)"  stroke-width="2.0"/>
<line x1="55.4" y1="91.7" x2="52.5" y2="90.8" stroke="rgb(0,0,0)"  stroke-width="2.0"/>
<line x1="64.2" y1="107.8" x2="63.4" y2="110.7" stroke="rgb(0,0,0)"  stroke-width="2.0"/>
<line x1="135.1" y1="53.0" x2="135.4" y2="82.8" stroke="rgb(0,0,0)"  stroke-width="2.0"/>
<line x1="129.1" y1="53.0" x2="129.4" y2="82.8" stroke="rgb(0,0,0)"  stroke-width="2.0"/>
<line x1="177.3" y1="150.8" x2="176.5" y2="152.3" stroke="rgb(0,0,0)"  stroke-width="1.0"/>
<line x1="183.6" y1="153.4" x2="182.3" y2="156.0" stroke="rgb(0,0,0)"  stroke-width="1.0"/>
<line x1="190.0" y1="156.0" x2="188.1" y2="159.7" stroke="rgb(0,0,0)"  stroke-width="1.0"/>
<line x1="196.3" y1="158.5" x2="193.8" y2="163.4" stroke="rgb(0,0,0)"  stroke-width="1.0"/>
<line x1="202.7" y1="161.1" x2="199.6" y2="167.1" stroke="rgb(0,0,0)"  stroke-width="1.0"/>
<line x1="209.0" y1="163.7" x2="205.4" y2="170.8" stroke="rgb(0,0,0)"  stroke-width="1.0"/>
<line x1="197.0" y1="251.5" x2="169.8" y2="235.7" stroke="rgb(0,0,0)"  stroke-width="2.0"/>
<line x1="195.0" y1="255.1" x2="167.7" y2="239.4" stroke="rgb(0,0,0)"  stroke-width="2.0"/>
<line x1="199.1" y1="247.8" x2="171.9" y2="232.1" stroke="rgb(0,0,0)"  stroke-width="2.0"/>
<line x1="210.2" y1="167.1" x2="211.6" y2="202.0" stroke="rgb(0,0,0)"  stroke-width="2.0"/>
<line x1="204.2" y1="167.3" x2="205.6" y2="202.2" stroke="rgb(0,0,0)"  stroke-width="2.0"/>
<line x1="95.2" y1="148.5" x2="133.4" y2="168.9" stroke="rgb(0,0,0)"  stroke-width="2.0"/>
<line x1="133.4" y1="168.9" x2="169.3" y2="147.6" stroke="rgb(0,0,0)"  stroke-width="2.0"/>
<line x1="169.3" y1="147.6" x2="169.9" y2="105.0" stroke="rgb(0,0,0)"  stroke-width="2.0"/>
<line x1="169.9" y1="105.0" x2="132.4" y2="82.8" stroke="rgb(0,0,0)"  stroke-width="2.0"/>
<line x1="132.4" y1="82.8" x2="95.7" y2="103.4" stroke="rgb(0,0,0)"  stroke-width="2.0"/>
<line x1="95.7" y1="103.4" x2="95.2" y2="148.5" stroke="rgb(0,0,0)"  stroke-width="2.0"/>
<line x1="102.8" y1="109.5" x2="102.4" y2="142.6" stroke="rgb(0,0,0)"  stroke-width="2.0"/>
<text x="61.851118" y="103.319323" fill="rgb(127,153,153)"  stroke="rgb(127,153,153)" stroke-width="1" font-size="16" >Si</text>
<text x="71.967713" y="75.471106" fill="rgb(102,102,102)"  stroke="rgb(102,102,102)" stroke-width="1" font-size="16" >CH</text>
<text x="95.967713" y="79.151106" fill="rgb(102,102,102)"  stroke="rgb(102,102,102)" stroke-width="1" font-size="13" >3</text>
<text x="14.000000" y="95.199827" fill="rgb(102,102,102)"  stroke="rgb(102,102,102)" stroke-width="1" font-size="16" >H</text>
<text x="26.000000" y="98.879827" fill="rgb(102,102,102)"  stroke="rgb(102,102,102)" stroke-width="1" font-size="13" >3</text>
<text x="32.500000" y="95.199827" fill="rgb(102,102,102)"  stroke="rgb(102,102,102)" stroke-width="1" font-size="16" >C</text>
<text x="33.731622" y="131.170440" fill="rgb(102,102,102)"  stroke="rgb(102,102,102)" stroke-width="1" font-size="16" >H</text>
<text x="45.731622" y="134.850440" fill="rgb(102,102,102)"  stroke="rgb(102,102,102)" stroke-width="1" font-size="13" >3</text>
<text x="52.231622" y="131.170440" fill="rgb(102,102,102)"  stroke="rgb(102,102,102)" stroke-width="1" font-size="16" >C</text>
<text x="125.994844" y="48.000000" fill="rgb(255,12,12)"  stroke="rgb(255,12,12)" stroke-width="1" font-size="16" >O</text>
<text x="202.310562" y="265.958711" fill="rgb(102,102,102)"  stroke="rgb(102,102,102)" stroke-width="1" font-size="16" >CH</text>
<text x="205.079289" y="223.113069" fill="rgb(102,102,102)"  stroke="rgb(102,102,102)" stroke-width="1" font-size="16" >CH</text>
<text x="229.079289" y="226.793069" fill="rgb(102,102,102)"  stroke="rgb(102,102,102)" stroke-width="1" font-size="13" >2</text>
</svg>
</g>
<text font-size="18.000000" fill ="black" font-family="sans-serif"
x="10.000000" y="20.000000" ></text>
</svg>
