<?xml version="1.0"?>
<svg version="1.1" id="topsvg"
xmlns="http://www.w3.org/2000/svg" xmlns:xlink="http://www.w3.org/1999/xlink"
xmlns:cml="http://www.xml-cml.org/schema" x="0" y="0" width="200px" height="200px" viewBox="0 0 100 100">
<title> - Open Babel Depiction</title>
<rect x="0" y="0" width="100" height="100" fill="white"/>
<g transform="translate(0,0)">
<svg width="100" height="100" x="0" y="0" viewBox="0 0 190.932 292.871"
font-family="sans-serif" stroke="rgb(0,0,0)" stroke-width="2"  stroke-linecap="round">
<polygon points="107.906 152.852 144.5 169.193 140.525 176.136 " stroke-width="2" fill="rgb(0,0,0)"  stroke="rgb(0,0,0)" />
<line x1="142.5" y1="172.7" x2="143.2" y2="211.3" stroke="rgb(0,0,0)"  stroke-width="2.0"/>
<line x1="73.9" y1="93.7" x2="75.4" y2="57.8" stroke="rgb(0,0,0)"  stroke-width="2.0"/>
<line x1="74.1" y1="55.1" x2="99.3" y2="42.9" stroke="rgb(0,0,0)"  stroke-width="2.0"/>
<line x1="76.7" y1="60.5" x2="101.9" y2="48.3" stroke="rgb(0,0,0)"  stroke-width="2.0"/>
<line x1="114.6" y1="108.1" x2="115.2" y2="109.6" stroke="rgb(0,0,0)"  stroke-width="1.0"/>
<line x1="118.8" y1="105.7" x2="119.9" y2="108.4" stroke="rgb(0,0,0)"  stroke-width="1.0"/>
<line x1="123.0" y1="103.3" x2="124.6" y2="107.2" stroke="rgb(0,0,0)"  stroke-width="1.0"/>
<line x1="127.2" y1="100.9" x2="129.3" y2="106.0" stroke="rgb(0,0,0)"  stroke-width="1.0"/>
<line x1="131.5" y1="98.6" x2="134.0" y2="104.8" stroke="rgb(0,0,0)"  stroke-width="1.0"/>
<line x1="135.7" y1="96.2" x2="138.7" y2="103.6" stroke="rgb(0,0,0)"  stroke-width="1.0"/>
<line x1="143.2" y1="211.3" x2="142.9" y2="239.9" stroke="rgb(0,0,0)"  stroke-width="2.0"/>
<line x1="147.4" y1="211.4" x2="147.1" y2="239.9" stroke="rgb(0,0,0)"  stroke-width="2.0"/>
<line x1="139.0" y1="211.3" x2="138.7" y2="239.8" stroke="rgb(0,0,0)"  stroke-width="2.0"/>
<line x1="40.0" y1="153.6" x2="74.1" y2="172.3" stroke="rgb(0,0,0)"  stroke-width="2.0"/>
<line x1="48.7" y1="150.2" x2="72.3" y2="163.1" stroke="rgb(0,0,0)"  stroke-width="2.0"/>
<line x1="74.1" y1="172.3" x2="107.9" y2="152.9" stroke="rgb(0,0,0)"  stroke-width="2.0"/>
<line x1="107.9" y1="152.9" x2="109.3" y2="111.0" stroke="rgb(0,0,0)"  stroke-width="2.0"/>
<line x1="109.3" y1="111.0" x2="73.9" y2="93.7" stroke="rgb(0,0,0)"  stroke-width="2.0"/>
<line x1="73.9" y1="93.7" x2="40.3" y2="113.6" stroke="rgb(0,0,0)"  stroke-width="2.0"/>
<line x1="72.4" y1="102.9" x2="49.1" y2="116.7" stroke="rgb(0,0,0)"  stroke-width="2.0"/>
<line x1="40.3" y1="113.6" x2="40.0" y2="153.6" stroke="rgb(0,0,0)"  stroke-width="2.0"/>
<text x="124.806170" y="260.870616" fill="rgb(102,102,102)"  stroke="rgb(102,102,102)" stroke-width="1" font-size="16" >HC</text>
<text x="108.299724" y="48.000000" fill="rgb(102,102,102)"  stroke="rgb(102,102,102)" stroke-width="1" font-size="16" >CH</text>
<text x="132.299724" y="51.680000" fill="rgb(102,102,102)"  stroke="rgb(102,102,102)" stroke-width="1" font-size="13" >2</text>
<text x="144.932053" y="102.397388" fill="rgb(17,127,178)"  stroke="rgb(17,127,178)" stroke-width="1" font-size="16" >Xx</text>
</svg>
</g>
<text font-size="18.000000" fill ="black" font-family="sans-serif"
x="10.000000" y="20.000000" ></text>
</svg>
