<?xml version="1.0"?>
<svg version="1.1" id="topsvg"
xmlns="http://www.w3.org/2000/svg" xmlns:xlink="http://www.w3.org/1999/xlink"
xmlns:cml="http://www.xml-cml.org/schema" x="0" y="0" width="200px" height="200px" viewBox="0 0 100 100">
<title> - Open Babel Depiction</title>
<rect x="0" y="0" width="100" height="100" fill="white"/>
<g transform="translate(0,0)">
<svg width="100" height="100" x="0" y="0" viewBox="0 0 403.156 296.264"
font-family="sans-serif" stroke="rgb(0,0,0)" stroke-width="2"  stroke-linecap="round">
<polygon points="122.535 157.448 126.374 196.383 118.374 196.35 " stroke-width="2" fill="rgb(0,0,0)"  stroke="rgb(0,0,0)" />
<line x1="122.4" y1="196.4" x2="143.7" y2="209.7" stroke="rgb(0,0,0)"  stroke-width="2.0"/>
<line x1="68.3" y1="79.3" x2="68.1" y2="79.8" stroke="rgb(0,0,0)"  stroke-width="2.0"/>
<line x1="52.0" y1="87.8" x2="52.4" y2="87.9" stroke="rgb(0,0,0)"  stroke-width="2.0"/>
<line x1="60.4" y1="104.1" x2="60.6" y2="103.7" stroke="rgb(0,0,0)"  stroke-width="2.0"/>
<line x1="76.7" y1="95.7" x2="88.7" y2="99.5" stroke="rgb(0,0,0)"  stroke-width="2.0"/>
<line x1="160.9" y1="48.2" x2="122.4" y2="79.5" stroke="rgb(0,0,0)"  stroke-width="2.0"/>
<line x1="162.1" y1="140.8" x2="161.3" y2="142.2" stroke="rgb(0,0,0)"  stroke-width="1.0"/>
<line x1="167.9" y1="143.6" x2="166.4" y2="146.0" stroke="rgb(0,0,0)"  stroke-width="1.0"/>
<line x1="173.6" y1="146.3" x2="171.5" y2="149.8" stroke="rgb(0,0,0)"  stroke-width="1.0"/>
<line x1="179.4" y1="149.0" x2="176.6" y2="153.7" stroke="rgb(0,0,0)"  stroke-width="1.0"/>
<line x1="185.2" y1="151.7" x2="181.7" y2="157.5" stroke="rgb(0,0,0)"  stroke-width="1.0"/>
<line x1="191.0" y1="154.5" x2="186.8" y2="161.3" stroke="rgb(0,0,0)"  stroke-width="1.0"/>
<line x1="221.9" y1="253.7" x2="255.5" y2="233.4" stroke="rgb(0,0,0)"  stroke-width="2.0"/>
<line x1="225.0" y1="258.8" x2="258.6" y2="238.5" stroke="rgb(0,0,0)"  stroke-width="2.0"/>
<line x1="257.1" y1="236.0" x2="258.9" y2="196.1" stroke="rgb(0,0,0)"  stroke-width="2.0"/>
<line x1="247.6" y1="159.7" x2="228.3" y2="125.0" stroke="rgb(0,0,0)"  stroke-width="2.0"/>
<line x1="228.3" y1="125.0" x2="237.8" y2="116.9" stroke="rgb(0,0,0)"  stroke-width="2.0"/>
<line x1="260.0" y1="112.8" x2="259.5" y2="112.7" stroke="rgb(0,0,0)"  stroke-width="2.0"/>
<line x1="334.9" y1="176.1" x2="355.2" y2="150.2" stroke="rgb(0,0,0)"  stroke-width="2.0"/>
<line x1="189.9" y1="236.7" x2="143.7" y2="209.7" stroke="rgb(0,0,0)"  stroke-width="2.0"/>
<line x1="187.8" y1="240.3" x2="141.5" y2="213.3" stroke="rgb(0,0,0)"  stroke-width="2.0"/>
<line x1="192.1" y1="233.1" x2="145.8" y2="206.1" stroke="rgb(0,0,0)"  stroke-width="2.0"/>
<line x1="189.9" y1="236.7" x2="223.4" y2="256.3" stroke="rgb(0,0,0)"  stroke-width="2.0"/>
<line x1="191.9" y1="157.8" x2="192.9" y2="184.8" stroke="rgb(0,0,0)"  stroke-width="2.0"/>
<line x1="185.9" y1="158.0" x2="186.9" y2="185.0" stroke="rgb(0,0,0)"  stroke-width="2.0"/>
<line x1="258.9" y1="196.1" x2="270.7" y2="172.9" stroke="rgb(0,0,0)"  stroke-width="2.0"/>
<line x1="270.7" y1="172.9" x2="247.6" y2="159.7" stroke="rgb(0,0,0)"  stroke-width="2.0"/>
<line x1="247.6" y1="159.7" x2="258.9" y2="196.1" stroke="rgb(0,0,0)"  stroke-width="2.0"/>
<line x1="270.7" y1="172.9" x2="305.4" y2="155.0" stroke="rgb(0,0,0)"  stroke-width="2.0"/>
<line x1="304.1" y1="151.1" x2="247.6" y2="159.7" stroke="rgb(0,0,0)"  stroke-width="2.0"/>
<line x1="314.3" y1="183.3" x2="270.7" y2="172.9" stroke="rgb(0,0,0)"  stroke-width="2.0"/>
<line x1="320.3" y1="161.7" x2="323.6" y2="173.8" stroke="rgb(0,0,0)"  stroke-width="2.0"/>
<line x1="258.9" y1="196.1" x2="314.1" y2="188.2" stroke="rgb(0,0,0)"  stroke-width="2.0"/>
<line x1="88.7" y1="99.5" x2="89.2" y2="138.1" stroke="rgb(0,0,0)"  stroke-width="2.0"/>
<line x1="96.0" y1="105.4" x2="96.3" y2="132.0" stroke="rgb(0,0,0)"  stroke-width="2.0"/>
<line x1="89.2" y1="138.1" x2="122.5" y2="157.4" stroke="rgb(0,0,0)"  stroke-width="2.0"/>
<line x1="122.5" y1="157.4" x2="154.9" y2="137.4" stroke="rgb(0,0,0)"  stroke-width="2.0"/>
<line x1="154.9" y1="137.4" x2="156.7" y2="99.1" stroke="rgb(0,0,0)"  stroke-width="2.0"/>
<line x1="156.7" y1="99.1" x2="122.4" y2="79.5" stroke="rgb(0,0,0)"  stroke-width="2.0"/>
<line x1="147.9" y1="102.4" x2="124.0" y2="88.8" stroke="rgb(0,0,0)"  stroke-width="2.0"/>
<line x1="122.4" y1="79.5" x2="88.7" y2="99.5" stroke="rgb(0,0,0)"  stroke-width="2.0"/>
<text x="58.346610" y="99.734950" fill="rgb(127,153,153)"  stroke="rgb(127,153,153)" stroke-width="1" font-size="16" >Si</text>
<text x="68.062031" y="75.388340" fill="rgb(102,102,102)"  stroke="rgb(102,102,102)" stroke-width="1" font-size="16" >CH</text>
<text x="92.062031" y="79.068340" fill="rgb(102,102,102)"  stroke="rgb(102,102,102)" stroke-width="1" font-size="13" >3</text>
<text x="14.000000" y="92.019529" fill="rgb(102,102,102)"  stroke="rgb(102,102,102)" stroke-width="1" font-size="16" >H</text>
<text x="26.000000" y="95.699529" fill="rgb(102,102,102)"  stroke="rgb(102,102,102)" stroke-width="1" font-size="13" >3</text>
<text x="32.500000" y="92.019529" fill="rgb(102,102,102)"  stroke="rgb(102,102,102)" stroke-width="1" font-size="16" >C</text>
<text x="30.633743" y="124.081559" fill="rgb(102,102,102)"  stroke="rgb(102,102,102)" stroke-width="1" font-size="16" >H</text>
<text x="42.633743" y="127.761559" fill="rgb(102,102,102)"  stroke="rgb(102,102,102)" stroke-width="1" font-size="13" >3</text>
<text x="49.133743" y="124.081559" fill="rgb(102,102,102)"  stroke="rgb(102,102,102)" stroke-width="1" font-size="16" >C</text>
<text x="164.957842" y="48.000000" fill="rgb(17,127,178)"  stroke="rgb(17,127,178)" stroke-width="1" font-size="16" >Xx</text>
<text x="241.728963" y="116.478511" fill="rgb(255,12,12)"  stroke="rgb(255,12,12)" stroke-width="1" font-size="16" >O</text>
<text x="267.794640" y="125.029067" fill="rgb(102,102,102)"  stroke="rgb(102,102,102)" stroke-width="1" font-size="16" >CH</text>
<text x="291.794640" y="128.709067" fill="rgb(102,102,102)"  stroke="rgb(102,102,102)" stroke-width="1" font-size="13" >3</text>
<text x="310.971099" y="157.096206" fill="rgb(17,127,178)"  stroke="rgb(17,127,178)" stroke-width="1" font-size="16" >Xx</text>
<text x="320.949301" y="194.347821" fill="rgb(17,127,178)"  stroke="rgb(17,127,178)" stroke-width="1" font-size="16" >Xx</text>
<text x="359.156360" y="147.945477" fill="rgb(102,102,102)"  stroke="rgb(102,102,102)" stroke-width="1" font-size="16" >CH</text>
<text x="383.156360" y="151.625477" fill="rgb(102,102,102)"  stroke="rgb(102,102,102)" stroke-width="1" font-size="13" >3</text>
<text x="186.311520" y="205.899244" fill="rgb(102,102,102)"  stroke="rgb(102,102,102)" stroke-width="1" font-size="16" >CH</text>
<text x="210.311520" y="209.579244" fill="rgb(102,102,102)"  stroke="rgb(102,102,102)" stroke-width="1" font-size="13" >2</text>
</svg>
</g>
<text font-size="18.000000" fill ="black" font-family="sans-serif"
x="10.000000" y="20.000000" ></text>
</svg>
