<?xml version="1.0"?>
<svg version="1.1" id="topsvg"
xmlns="http://www.w3.org/2000/svg" xmlns:xlink="http://www.w3.org/1999/xlink"
xmlns:cml="http://www.xml-cml.org/schema" x="0" y="0" width="200px" height="200px" viewBox="0 0 100 100">
<title> - Open Babel Depiction</title>
<rect x="0" y="0" width="100" height="100" fill="white"/>
<g transform="translate(0,0)">
<svg width="100" height="100" x="0" y="0" viewBox="0 0 319.637 213.509"
font-family="sans-serif" stroke="rgb(0,0,0)" stroke-width="2"  stroke-linecap="round">
<line x1="153.4" y1="123.3" x2="152.4" y2="121.9" stroke="rgb(0,0,0)"  stroke-width="1.0"/>
<line x1="150.2" y1="126.3" x2="148.5" y2="124.0" stroke="rgb(0,0,0)"  stroke-width="1.0"/>
<line x1="147.0" y1="129.4" x2="144.6" y2="126.0" stroke="rgb(0,0,0)"  stroke-width="1.0"/>
<line x1="143.8" y1="132.4" x2="140.6" y2="128.0" stroke="rgb(0,0,0)"  stroke-width="1.0"/>
<line x1="140.6" y1="135.4" x2="136.7" y2="130.0" stroke="rgb(0,0,0)"  stroke-width="1.0"/>
<line x1="137.4" y1="138.5" x2="132.7" y2="132.0" stroke="rgb(0,0,0)"  stroke-width="1.0"/>
<line x1="110.0" y1="92.2" x2="105.1" y2="90.7" stroke="rgb(0,0,0)"  stroke-width="2.0"/>
<line x1="96.6" y1="74.4" x2="94.2" y2="81.9" stroke="rgb(0,0,0)"  stroke-width="2.0"/>
<line x1="80.3" y1="82.9" x2="87.8" y2="85.3" stroke="rgb(0,0,0)"  stroke-width="2.0"/>
<line x1="88.8" y1="99.2" x2="91.1" y2="91.7" stroke="rgb(0,0,0)"  stroke-width="2.0"/>
<line x1="136.8" y1="63.1" x2="137.4" y2="79.2" stroke="rgb(0,0,0)"  stroke-width="2.0"/>
<line x1="130.8" y1="63.4" x2="131.4" y2="79.4" stroke="rgb(0,0,0)"  stroke-width="2.0"/>
<polygon points="189.488710 87.341475 159.997068 95.645147 158.852800 87.727405 " stroke-width="2.000000" fill="rgb(0,0,0)"  stroke="rgb(0,0,0)" />
<line x1="279.5" y1="55.3" x2="52.8" y2="43.7" stroke="rgb(0,0,0)"  stroke-width="2.0"/>
<line x1="279.8" y1="49.4" x2="53.1" y2="37.7" stroke="rgb(0,0,0)"  stroke-width="2.0"/>
<line x1="279.6" y1="52.4" x2="40.0" y2="40.0" stroke="rgb(0,0,0)"  stroke-width="2.0"/>
<line x1="279.6" y1="52.4" x2="275.3" y2="106.8" stroke="rgb(0,0,0)"  stroke-width="2.0"/>
<line x1="nan" y1="nan" x2="nan" y2="nan" stroke="rgb(0,0,0)"  stroke-width="2.0"/>
<line x1="nan" y1="nan" x2="nan" y2="nan" stroke="rgb(0,0,0)"  stroke-width="2.0"/>
<line x1="157.4" y1="119.4" x2="182.5" y2="135.9" stroke="rgb(0,0,0)"  stroke-width="2.0"/>
<line x1="182.5" y1="135.9" x2="178.9" y2="143.0" stroke="rgb(0,0,0)"  stroke-width="2.0"/>
<line x1="186.2" y1="137.9" x2="182.6" y2="145.0" stroke="rgb(0,0,0)"  stroke-width="2.0"/>
<line x1="178.8" y1="134.0" x2="175.1" y2="141.1" stroke="rgb(0,0,0)"  stroke-width="2.0"/>
<line x1="181.0" y1="133.4" x2="197.1" y2="123.9" stroke="rgb(0,0,0)"  stroke-width="2.0"/>
<line x1="184.0" y1="138.5" x2="200.2" y2="129.1" stroke="rgb(0,0,0)"  stroke-width="2.0"/>
<line x1="135.8" y1="160.9" x2="135.0" y2="135.2" stroke="rgb(0,0,0)"  stroke-width="2.0"/>
<line x1="135.0" y1="135.2" x2="137.4" y2="160.8" stroke="rgb(0,0,0)"  stroke-width="2.0"/>
<line x1="137.4" y1="160.8" x2="135.8" y2="160.9" stroke="rgb(0,0,0)"  stroke-width="2.0"/>
<line x1="261.1" y1="111.8" x2="227.9" y2="122.8" stroke="rgb(0,0,0)"  stroke-width="2.0"/>
<line x1="227.9" y1="122.8" x2="230.2" y2="104.9" stroke="rgb(0,0,0)"  stroke-width="2.0"/>
<line x1="230.2" y1="104.9" x2="260.5" y2="106.8" stroke="rgb(0,0,0)"  stroke-width="2.0"/>
<line x1="184.6" y1="81.8" x2="189.5" y2="87.3" stroke="rgb(0,0,0)"  stroke-width="2.0"/>
<line x1="189.5" y1="87.3" x2="159.4" y2="91.7" stroke="rgb(0,0,0)"  stroke-width="2.0"/>
<line x1="159.4" y1="91.7" x2="184.6" y2="81.8" stroke="rgb(0,0,0)"  stroke-width="2.0"/>
<line x1="230.2" y1="104.9" x2="212.5" y2="101.7" stroke="rgb(0,0,0)"  stroke-width="2.0"/>
<line x1="212.5" y1="101.7" x2="227.9" y2="122.8" stroke="rgb(0,0,0)"  stroke-width="2.0"/>
<line x1="221.8" y1="102.3" x2="230.2" y2="113.7" stroke="rgb(0,0,0)"  stroke-width="2.0"/>
<line x1="279.6" y1="52.4" x2="212.5" y2="101.7" stroke="rgb(0,0,0)"  stroke-width="2.0"/>
<line x1="230.2" y1="104.9" x2="279.6" y2="52.4" stroke="rgb(0,0,0)"  stroke-width="2.0"/>
<line x1="110.0" y1="92.2" x2="134.4" y2="79.3" stroke="rgb(0,0,0)"  stroke-width="2.0"/>
<line x1="134.4" y1="79.3" x2="159.4" y2="91.7" stroke="rgb(0,0,0)"  stroke-width="2.0"/>
<line x1="159.4" y1="91.7" x2="157.4" y2="119.4" stroke="rgb(0,0,0)"  stroke-width="2.0"/>
<line x1="157.4" y1="119.4" x2="135.0" y2="135.2" stroke="rgb(0,0,0)"  stroke-width="2.0"/>
<line x1="135.0" y1="135.2" x2="109.8" y2="120.9" stroke="rgb(0,0,0)"  stroke-width="2.0"/>
<line x1="109.8" y1="120.9" x2="110.0" y2="92.2" stroke="rgb(0,0,0)"  stroke-width="2.0"/>
<line x1="117.0" y1="115.0" x2="117.1" y2="98.3" stroke="rgb(0,0,0)"  stroke-width="2.0"/>
<line x1="227.9" y1="122.8" x2="237.8" y2="151.2" stroke="rgb(0,0,0)"  stroke-width="2.0"/>
<line x1="237.8" y1="151.2" x2="219.0" y2="173.5" stroke="rgb(0,0,0)"  stroke-width="2.0"/>
<line x1="228.4" y1="151.2" x2="217.3" y2="164.3" stroke="rgb(0,0,0)"  stroke-width="2.0"/>
<line x1="219.0" y1="173.5" x2="192.6" y2="169.7" stroke="rgb(0,0,0)"  stroke-width="2.0"/>
<line x1="192.6" y1="169.7" x2="153.9" y2="164.1" stroke="rgb(0,0,0)"  stroke-width="2.0"/>
<line x1="192.0" y1="173.9" x2="153.3" y2="168.3" stroke="rgb(0,0,0)"  stroke-width="2.0"/>
<line x1="193.2" y1="165.5" x2="154.5" y2="160.0" stroke="rgb(0,0,0)"  stroke-width="2.0"/>
<line x1="153.9" y1="164.1" x2="137.4" y2="160.8" stroke="rgb(0,0,0)"  stroke-width="2.0"/>
<line x1="189.5" y1="87.3" x2="212.5" y2="101.7" stroke="rgb(0,0,0)"  stroke-width="2.0"/>
<text x="86.675955" y="94.819446" fill="rgb(127,153,153)"  stroke="rgb(127,153,153)" stroke-width="1" font-size="16" >Si</text>
<text x="94.084752" y="77.519996" fill="rgb(102,102,102)"  stroke="rgb(102,102,102)" stroke-width="1" font-size="16" >CH</text>
<text x="118.084752" y="81.199996" fill="rgb(102,102,102)"  stroke="rgb(102,102,102)" stroke-width="1" font-size="13" >3</text>
<text x="49.376505" y="89.412462" fill="rgb(102,102,102)"  stroke="rgb(102,102,102)" stroke-width="1" font-size="16" >H</text>
<text x="61.376505" y="93.092462" fill="rgb(102,102,102)"  stroke="rgb(102,102,102)" stroke-width="1" font-size="13" >3</text>
<text x="67.876505" y="89.412462" fill="rgb(102,102,102)"  stroke="rgb(102,102,102)" stroke-width="1" font-size="16" >C</text>
<text x="61.268971" y="112.120709" fill="rgb(102,102,102)"  stroke="rgb(102,102,102)" stroke-width="1" font-size="16" >H</text>
<text x="73.268971" y="115.800709" fill="rgb(102,102,102)"  stroke="rgb(102,102,102)" stroke-width="1" font-size="13" >3</text>
<text x="79.768971" y="112.120709" fill="rgb(102,102,102)"  stroke="rgb(102,102,102)" stroke-width="1" font-size="16" >C</text>
<text x="127.281810" y="58.255688" fill="rgb(255,12,12)"  stroke="rgb(255,12,12)" stroke-width="1" font-size="16" >O</text>
<text x="34.000000" y="48.000000" fill="rgb(255,12,12)"  stroke="rgb(255,12,12)" stroke-width="1" font-size="16" >O</text>
<text x="34.000000" y="48.000000" fill="rgb(255,12,12)"  stroke="rgb(255,12,12)" stroke-width="1" font-size="16" >O</text>
<text x="267.446508" y="115.640777" fill="rgb(17,127,178)"  stroke="rgb(17,127,178)" stroke-width="1" font-size="16" >Xx</text>
<text x="248.323806" y="127.770693" fill="rgb(102,102,102)"  stroke="rgb(102,102,102)" stroke-width="1" font-size="16" >H</text>
<text x="260.323806" y="131.450693" fill="rgb(102,102,102)"  stroke="rgb(102,102,102)" stroke-width="1" font-size="13" >3</text>
<text x="266.823806" y="127.770693" fill="rgb(102,102,102)"  stroke="rgb(102,102,102)" stroke-width="1" font-size="16" >C</text>
<text x="178.804953" y="139.481899" fill="rgb(102,102,102)"  stroke="rgb(102,102,102)" stroke-width="1" font-size="16" >CH</text>
<text x="205.887705" y="127.995456" fill="rgb(102,102,102)"  stroke="rgb(102,102,102)" stroke-width="1" font-size="16" >CH</text>
<text x="229.887705" y="131.675456" fill="rgb(102,102,102)"  stroke="rgb(102,102,102)" stroke-width="1" font-size="13" >2</text>
</svg>
</g>
<text font-size="18.000000" fill ="black" font-family="sans-serif"
x="10.000000" y="20.000000" ></text>
</svg>
