<?xml version="1.0"?>
<svg version="1.1" id="topsvg"
xmlns="http://www.w3.org/2000/svg" xmlns:xlink="http://www.w3.org/1999/xlink"
xmlns:cml="http://www.xml-cml.org/schema" x="0" y="0" width="200px" height="200px" viewBox="0 0 100 100">
<title> - Open Babel Depiction</title>
<rect x="0" y="0" width="100" height="100" fill="white"/>
<g transform="translate(0,0)">
<svg width="100" height="100" x="0" y="0" viewBox="0 0 173.817 168.447"
font-family="sans-serif" stroke="rgb(0,0,0)" stroke-width="2"  stroke-linecap="round">
<line x1="93.1" y1="82.7" x2="77.5" y2="103.4" stroke="rgb(0,0,0)"  stroke-width="2.0"/>
<line x1="77.5" y1="103.4" x2="109.9" y2="128.4" stroke="rgb(0,0,0)"  stroke-width="2.0"/>
<line x1="109.9" y1="128.4" x2="133.8" y2="96.4" stroke="rgb(0,0,0)"  stroke-width="2.0"/>
<line x1="107.7" y1="119.3" x2="124.5" y2="96.9" stroke="rgb(0,0,0)"  stroke-width="2.0"/>
<line x1="133.8" y1="96.4" x2="111.5" y2="80.1" stroke="rgb(0,0,0)"  stroke-width="2.0"/>
<line x1="40.0" y1="93.2" x2="77.5" y2="103.4" stroke="rgb(0,0,0)"  stroke-width="2.0"/>
<line x1="93.4" y1="61.7" x2="77.9" y2="40.0" stroke="rgb(0,0,0)"  stroke-width="2.0"/>
<line x1="86.3" y1="64.2" x2="75.6" y2="49.1" stroke="rgb(0,0,0)"  stroke-width="2.0"/>
<line x1="77.9" y1="40.0" x2="40.8" y2="51.1" stroke="rgb(0,0,0)"  stroke-width="2.0"/>
<line x1="40.8" y1="51.1" x2="40.0" y2="93.2" stroke="rgb(0,0,0)"  stroke-width="2.0"/>
<line x1="47.9" y1="57.3" x2="47.3" y2="87.3" stroke="rgb(0,0,0)"  stroke-width="2.0"/>
<text x="94.984369" y="80.378447" fill="rgb(12,12,255)"  stroke="rgb(12,12,255)" stroke-width="1" font-size="16" >N</text>
</svg>
</g>
<text font-size="18.000000" fill ="black" font-family="sans-serif"
x="10.000000" y="20.000000" ></text>
</svg>
