<?xml version="1.0"?>
<svg version="1.1" id="topsvg"
xmlns="http://www.w3.org/2000/svg" xmlns:xlink="http://www.w3.org/1999/xlink"
xmlns:cml="http://www.xml-cml.org/schema" x="0" y="0" width="200px" height="200px" viewBox="0 0 100 100">
<title> - Open Babel Depiction</title>
<rect x="0" y="0" width="100" height="100" fill="white"/>
<g transform="translate(0,0)">
<svg width="100" height="100" x="0" y="0" viewBox="0 0 362.417 359.161"
font-family="sans-serif" stroke="rgb(0,0,0)" stroke-width="2"  stroke-linecap="round">
<polygon points="181.57 154.111 219.233 172.003 215.123 178.866 " stroke-width="2" fill="rgb(0,0,0)"  stroke="rgb(0,0,0)" />
<line x1="217.2" y1="175.4" x2="217.8" y2="215.3" stroke="rgb(0,0,0)"  stroke-width="2.0"/>
<line x1="144.3" y1="94.5" x2="145.2" y2="65.5" stroke="rgb(0,0,0)"  stroke-width="2.0"/>
<line x1="157.1" y1="46.4" x2="157.7" y2="46.1" stroke="rgb(0,0,0)"  stroke-width="2.0"/>
<line x1="217.8" y1="215.3" x2="217.4" y2="272.5" stroke="rgb(0,0,0)"  stroke-width="2.0"/>
<line x1="222.0" y1="215.4" x2="221.6" y2="272.5" stroke="rgb(0,0,0)"  stroke-width="2.0"/>
<line x1="213.6" y1="215.3" x2="213.2" y2="272.4" stroke="rgb(0,0,0)"  stroke-width="2.0"/>
<line x1="217.4" y1="272.5" x2="217.2" y2="298.2" stroke="rgb(0,0,0)"  stroke-width="2.0"/>
<line x1="311.1" y1="285.0" x2="286.2" y2="299.3" stroke="rgb(0,0,0)"  stroke-width="2.0"/>
<line x1="313.2" y1="288.6" x2="288.3" y2="302.9" stroke="rgb(0,0,0)"  stroke-width="2.0"/>
<line x1="309.1" y1="281.3" x2="284.2" y2="295.6" stroke="rgb(0,0,0)"  stroke-width="2.0"/>
<line x1="218.7" y1="295.7" x2="253.1" y2="316.6" stroke="rgb(0,0,0)"  stroke-width="2.0"/>
<line x1="215.6" y1="300.8" x2="250.0" y2="321.7" stroke="rgb(0,0,0)"  stroke-width="2.0"/>
<line x1="251.6" y1="319.2" x2="286.2" y2="299.3" stroke="rgb(0,0,0)"  stroke-width="2.0"/>
<line x1="110.4" y1="237.0" x2="145.8" y2="214.3" stroke="rgb(0,0,0)"  stroke-width="2.0"/>
<line x1="77.0" y1="214.4" x2="111.9" y2="234.4" stroke="rgb(0,0,0)"  stroke-width="2.0"/>
<line x1="74.0" y1="219.7" x2="108.9" y2="239.6" stroke="rgb(0,0,0)"  stroke-width="2.0"/>
<line x1="51.3" y1="230.9" x2="75.5" y2="217.0" stroke="rgb(0,0,0)"  stroke-width="2.0"/>
<line x1="146.8" y1="181.3" x2="145.2" y2="181.3" stroke="rgb(0,0,0)"  stroke-width="1.0"/>
<line x1="147.4" y1="187.9" x2="144.5" y2="187.9" stroke="rgb(0,0,0)"  stroke-width="1.0"/>
<line x1="148.0" y1="194.5" x2="143.9" y2="194.5" stroke="rgb(0,0,0)"  stroke-width="1.0"/>
<line x1="148.6" y1="201.1" x2="143.2" y2="201.1" stroke="rgb(0,0,0)"  stroke-width="1.0"/>
<line x1="149.2" y1="207.7" x2="142.5" y2="207.7" stroke="rgb(0,0,0)"  stroke-width="1.0"/>
<line x1="149.8" y1="214.3" x2="141.8" y2="214.3" stroke="rgb(0,0,0)"  stroke-width="1.0"/>
<line x1="111.0" y1="155.4" x2="146.1" y2="173.1" stroke="rgb(0,0,0)"  stroke-width="2.0"/>
<line x1="146.1" y1="173.1" x2="181.6" y2="154.1" stroke="rgb(0,0,0)"  stroke-width="2.0"/>
<line x1="181.6" y1="154.1" x2="181.4" y2="114.2" stroke="rgb(0,0,0)"  stroke-width="2.0"/>
<line x1="181.4" y1="114.2" x2="144.3" y2="94.5" stroke="rgb(0,0,0)"  stroke-width="2.0"/>
<line x1="144.3" y1="94.5" x2="111.8" y2="113.9" stroke="rgb(0,0,0)"  stroke-width="2.0"/>
<line x1="111.8" y1="113.9" x2="111.0" y2="155.4" stroke="rgb(0,0,0)"  stroke-width="2.0"/>
<text x="139.661756" y="60.536559" fill="rgb(255,12,12)"  stroke="rgb(255,12,12)" stroke-width="1" font-size="16" >O</text>
<text x="316.417085" y="286.515794" fill="rgb(102,102,102)"  stroke="rgb(102,102,102)" stroke-width="1" font-size="16" >CH</text>
<text x="14.000000" y="245.301890" fill="rgb(102,102,102)"  stroke="rgb(102,102,102)" stroke-width="1" font-size="16" >H</text>
<text x="26.000000" y="248.981890" fill="rgb(102,102,102)"  stroke="rgb(102,102,102)" stroke-width="1" font-size="13" >3</text>
<text x="32.500000" y="245.301890" fill="rgb(102,102,102)"  stroke="rgb(102,102,102)" stroke-width="1" font-size="16" >C</text>
<text x="163.150991" y="48.000000" fill="rgb(191,191,191)"  stroke="rgb(191,191,191)" stroke-width="1" font-size="16" >H</text>
</svg>
</g>
<text font-size="18.000000" fill ="black" font-family="sans-serif"
x="10.000000" y="20.000000" ></text>
</svg>
