<?xml version="1.0"?>
<svg version="1.1" id="topsvg"
xmlns="http://www.w3.org/2000/svg" xmlns:xlink="http://www.w3.org/1999/xlink"
xmlns:cml="http://www.xml-cml.org/schema" x="0" y="0" width="200px" height="200px" viewBox="0 0 100 100">
<title> - Open Babel Depiction</title>
<rect x="0" y="0" width="100" height="100" fill="white"/>
<g transform="translate(0,0)">
<svg width="100" height="100" x="0" y="0" viewBox="0 0 356.877 342.239"
font-family="sans-serif" stroke="rgb(0,0,0)" stroke-width="2"  stroke-linecap="round">
<polygon points="145.363 141.677 182.565 157.554 178.712 164.565 " stroke-width="2" fill="rgb(0,0,0)"  stroke="rgb(0,0,0)" />
<line x1="180.6" y1="161.1" x2="181.4" y2="200.2" stroke="rgb(0,0,0)"  stroke-width="2.0"/>
<line x1="103.3" y1="80.7" x2="105.7" y2="52.7" stroke="rgb(0,0,0)"  stroke-width="2.0"/>
<line x1="109.3" y1="81.2" x2="111.7" y2="53.2" stroke="rgb(0,0,0)"  stroke-width="2.0"/>
<line x1="181.4" y1="200.2" x2="181.5" y2="256.4" stroke="rgb(0,0,0)"  stroke-width="2.0"/>
<line x1="185.6" y1="200.2" x2="185.7" y2="256.4" stroke="rgb(0,0,0)"  stroke-width="2.0"/>
<line x1="177.2" y1="200.2" x2="177.3" y2="256.5" stroke="rgb(0,0,0)"  stroke-width="2.0"/>
<line x1="181.5" y1="256.4" x2="181.5" y2="281.4" stroke="rgb(0,0,0)"  stroke-width="2.0"/>
<line x1="183.2" y1="278.9" x2="215.7" y2="299.7" stroke="rgb(0,0,0)"  stroke-width="2.0"/>
<line x1="179.9" y1="283.9" x2="212.5" y2="304.8" stroke="rgb(0,0,0)"  stroke-width="2.0"/>
<line x1="214.1" y1="302.2" x2="248.1" y2="282.7" stroke="rgb(0,0,0)"  stroke-width="2.0"/>
<line x1="286.1" y1="257.3" x2="304.2" y2="246.5" stroke="rgb(0,0,0)"  stroke-width="2.0"/>
<line x1="289.2" y1="262.5" x2="307.3" y2="251.6" stroke="rgb(0,0,0)"  stroke-width="2.0"/>
<line x1="110.9" y1="167.2" x2="109.3" y2="167.2" stroke="rgb(0,0,0)"  stroke-width="1.0"/>
<line x1="111.6" y1="173.6" x2="108.7" y2="173.6" stroke="rgb(0,0,0)"  stroke-width="1.0"/>
<line x1="112.2" y1="179.9" x2="108.1" y2="179.9" stroke="rgb(0,0,0)"  stroke-width="1.0"/>
<line x1="112.9" y1="186.2" x2="107.4" y2="186.3" stroke="rgb(0,0,0)"  stroke-width="1.0"/>
<line x1="113.5" y1="192.6" x2="106.8" y2="192.6" stroke="rgb(0,0,0)"  stroke-width="1.0"/>
<line x1="114.2" y1="198.9" x2="106.2" y2="198.9" stroke="rgb(0,0,0)"  stroke-width="1.0"/>
<line x1="51.2" y1="275.1" x2="74.9" y2="261.0" stroke="rgb(0,0,0)"  stroke-width="2.0"/>
<line x1="71.9" y1="260.9" x2="72.2" y2="221.0" stroke="rgb(0,0,0)"  stroke-width="2.0"/>
<line x1="77.9" y1="261.0" x2="78.2" y2="221.0" stroke="rgb(0,0,0)"  stroke-width="2.0"/>
<line x1="75.2" y1="221.0" x2="110.2" y2="198.9" stroke="rgb(0,0,0)"  stroke-width="2.0"/>
<line x1="248.1" y1="282.7" x2="287.7" y2="259.9" stroke="rgb(0,0,0)"  stroke-width="2.0"/>
<line x1="246.0" y1="279.0" x2="285.6" y2="256.3" stroke="rgb(0,0,0)"  stroke-width="2.0"/>
<line x1="250.2" y1="286.3" x2="289.8" y2="263.5" stroke="rgb(0,0,0)"  stroke-width="2.0"/>
<line x1="76.3" y1="141.6" x2="110.1" y2="159.3" stroke="rgb(0,0,0)"  stroke-width="2.0"/>
<line x1="110.1" y1="159.3" x2="145.4" y2="141.7" stroke="rgb(0,0,0)"  stroke-width="2.0"/>
<line x1="145.4" y1="141.7" x2="144.9" y2="100.5" stroke="rgb(0,0,0)"  stroke-width="2.0"/>
<line x1="144.9" y1="100.5" x2="106.3" y2="80.9" stroke="rgb(0,0,0)"  stroke-width="2.0"/>
<line x1="106.3" y1="80.9" x2="76.3" y2="100.0" stroke="rgb(0,0,0)"  stroke-width="2.0"/>
<line x1="76.3" y1="100.0" x2="76.3" y2="141.6" stroke="rgb(0,0,0)"  stroke-width="2.0"/>
<text x="103.834921" y="48.000000" fill="rgb(255,12,12)"  stroke="rgb(255,12,12)" stroke-width="1" font-size="16" >O</text>
<text x="310.877353" y="250.370809" fill="rgb(147,0,147)"  stroke="rgb(147,0,147)" stroke-width="1" font-size="16" >I</text>
<text x="14.000000" y="289.759914" fill="rgb(102,102,102)"  stroke="rgb(102,102,102)" stroke-width="1" font-size="16" >H</text>
<text x="26.000000" y="293.439914" fill="rgb(102,102,102)"  stroke="rgb(102,102,102)" stroke-width="1" font-size="13" >3</text>
<text x="32.500000" y="289.759914" fill="rgb(102,102,102)"  stroke="rgb(102,102,102)" stroke-width="1" font-size="16" >C</text>
</svg>
</g>
<text font-size="18.000000" fill ="black" font-family="sans-serif"
x="10.000000" y="20.000000" ></text>
</svg>
