<?xml version="1.0"?>
<svg version="1.1" id="topsvg"
xmlns="http://www.w3.org/2000/svg" xmlns:xlink="http://www.w3.org/1999/xlink"
xmlns:cml="http://www.xml-cml.org/schema" x="0" y="0" width="200px" height="200px" viewBox="0 0 100 100">
<title> - Open Babel Depiction</title>
<rect x="0" y="0" width="100" height="100" fill="white"/>
<g transform="translate(0,0)">
<svg width="100" height="100" x="0" y="0" viewBox="0 0 317.483 242.914"
font-family="sans-serif" stroke="rgb(0,0,0)" stroke-width="2"  stroke-linecap="round">
<line x1="144.4" y1="145.2" x2="129.0" y2="173.8" stroke="rgb(0,0,0)"  stroke-width="2.0"/>
<line x1="94.1" y1="173.8" x2="129.0" y2="173.8" stroke="rgb(0,0,0)"  stroke-width="2.0"/>
<line x1="73.8" y1="201.4" x2="91.5" y2="172.3" stroke="rgb(0,0,0)"  stroke-width="2.0"/>
<line x1="79.0" y1="204.5" x2="96.6" y2="175.4" stroke="rgb(0,0,0)"  stroke-width="2.0"/>
<line x1="53.0" y1="202.6" x2="76.4" y2="202.9" stroke="rgb(0,0,0)"  stroke-width="2.0"/>
<line x1="106.2" y1="157.4" x2="144.4" y2="145.2" stroke="rgb(0,0,0)"  stroke-width="2.0"/>
<line x1="144.4" y1="145.2" x2="207.2" y2="160.7" stroke="rgb(0,0,0)"  stroke-width="2.0"/>
<line x1="207.2" y1="160.7" x2="227.3" y2="120.7" stroke="rgb(0,0,0)"  stroke-width="2.0"/>
<line x1="227.3" y1="120.7" x2="198.7" y2="129.5" stroke="rgb(0,0,0)"  stroke-width="2.0"/>
<line x1="174.2" y1="128.6" x2="132.3" y2="112.3" stroke="rgb(0,0,0)"  stroke-width="2.0"/>
<line x1="132.3" y1="112.3" x2="106.2" y2="157.4" stroke="rgb(0,0,0)"  stroke-width="2.0"/>
<line x1="202.6" y1="103.8" x2="221.3" y2="72.8" stroke="rgb(0,0,0)"  stroke-width="2.0"/>
<line x1="199.0" y1="101.6" x2="217.7" y2="70.6" stroke="rgb(0,0,0)"  stroke-width="2.0"/>
<line x1="206.2" y1="106.0" x2="224.9" y2="75.0" stroke="rgb(0,0,0)"  stroke-width="2.0"/>
<line x1="221.3" y1="72.8" x2="248.3" y2="40.0" stroke="rgb(0,0,0)"  stroke-width="2.0"/>
<line x1="248.3" y1="40.0" x2="277.5" y2="58.7" stroke="rgb(0,0,0)"  stroke-width="2.0"/>
<line x1="249.4" y1="49.3" x2="268.5" y2="61.5" stroke="rgb(0,0,0)"  stroke-width="2.0"/>
<line x1="277.5" y1="58.7" x2="269.9" y2="91.3" stroke="rgb(0,0,0)"  stroke-width="2.0"/>
<line x1="269.9" y1="91.3" x2="252.0" y2="122.8" stroke="rgb(0,0,0)"  stroke-width="2.0"/>
<line x1="273.6" y1="93.4" x2="255.7" y2="124.8" stroke="rgb(0,0,0)"  stroke-width="2.0"/>
<line x1="266.2" y1="89.2" x2="248.4" y2="120.7" stroke="rgb(0,0,0)"  stroke-width="2.0"/>
<line x1="252.0" y1="122.8" x2="235.9" y2="151.2" stroke="rgb(0,0,0)"  stroke-width="2.0"/>
<line x1="235.9" y1="151.2" x2="207.2" y2="160.7" stroke="rgb(0,0,0)"  stroke-width="2.0"/>
<line x1="192.6" y1="121.9" x2="202.6" y2="103.8" stroke="rgb(0,0,0)"  stroke-width="2.0"/>
<text x="168.277783" y="141.263865" fill="rgb(17,127,178)"  stroke="rgb(17,127,178)" stroke-width="1" font-size="16" >Xx</text>
<text x="14.000000" y="210.475799" fill="rgb(102,102,102)"  stroke="rgb(102,102,102)" stroke-width="1" font-size="16" >H</text>
<text x="26.000000" y="214.155799" fill="rgb(102,102,102)"  stroke="rgb(102,102,102)" stroke-width="1" font-size="13" >3</text>
<text x="32.500000" y="210.475799" fill="rgb(102,102,102)"  stroke="rgb(102,102,102)" stroke-width="1" font-size="16" >C</text>
</svg>
</g>
<text font-size="18.000000" fill ="black" font-family="sans-serif"
x="10.000000" y="20.000000" ></text>
</svg>
