<?xml version="1.0"?>
<svg version="1.1" id="topsvg"
xmlns="http://www.w3.org/2000/svg" xmlns:xlink="http://www.w3.org/1999/xlink"
xmlns:cml="http://www.xml-cml.org/schema" x="0" y="0" width="200px" height="200px" viewBox="0 0 100 100">
<title> - Open Babel Depiction</title>
<rect x="0" y="0" width="100" height="100" fill="white"/>
<g transform="translate(0,0)">
<svg width="100" height="100" x="0" y="0" viewBox="0 0 225.268 318.196"
font-family="sans-serif" stroke="rgb(0,0,0)" stroke-width="2"  stroke-linecap="round">
<line x1="121.0" y1="192.1" x2="132.8" y2="230.6" stroke="rgb(0,0,0)"  stroke-width="2.0"/>
<line x1="132.8" y1="230.6" x2="172.7" y2="238.5" stroke="rgb(0,0,0)"  stroke-width="2.0"/>
<line x1="119.1" y1="126.4" x2="132.1" y2="87.1" stroke="rgb(0,0,0)"  stroke-width="2.0"/>
<line x1="132.1" y1="87.1" x2="172.2" y2="79.2" stroke="rgb(0,0,0)"  stroke-width="2.0"/>
<line x1="181.0" y1="52.3" x2="172.2" y2="79.2" stroke="rgb(0,0,0)"  stroke-width="2.0"/>
<line x1="156.3" y1="158.5" x2="157.3" y2="158.4" stroke="rgb(0,0,0)"  stroke-width="2.0"/>
<line x1="172.7" y1="238.5" x2="181.3" y2="265.8" stroke="rgb(0,0,0)"  stroke-width="2.0"/>
<line x1="81.9" y1="138.5" x2="81.9" y2="179.3" stroke="rgb(0,0,0)"  stroke-width="2.0"/>
<line x1="81.9" y1="179.3" x2="121.0" y2="192.1" stroke="rgb(0,0,0)"  stroke-width="2.0"/>
<line x1="89.8" y1="174.3" x2="117.6" y2="183.4" stroke="rgb(0,0,0)"  stroke-width="2.0"/>
<line x1="121.0" y1="192.1" x2="136.1" y2="169.6" stroke="rgb(0,0,0)"  stroke-width="2.0"/>
<line x1="135.5" y1="148.4" x2="119.1" y2="126.4" stroke="rgb(0,0,0)"  stroke-width="2.0"/>
<line x1="119.1" y1="126.4" x2="81.9" y2="138.5" stroke="rgb(0,0,0)"  stroke-width="2.0"/>
<line x1="115.6" y1="135.1" x2="89.9" y2="143.5" stroke="rgb(0,0,0)"  stroke-width="2.0"/>
<line x1="40.0" y1="179.6" x2="81.9" y2="179.3" stroke="rgb(0,0,0)"  stroke-width="2.0"/>
<line x1="81.9" y1="138.5" x2="40.0" y2="138.0" stroke="rgb(0,0,0)"  stroke-width="2.0"/>
<line x1="40.0" y1="138.0" x2="40.0" y2="179.6" stroke="rgb(0,0,0)"  stroke-width="2.0"/>
<line x1="47.2" y1="144.0" x2="47.2" y2="173.6" stroke="rgb(0,0,0)"  stroke-width="2.0"/>
<text x="181.117548" y="48.000000" fill="rgb(102,102,102)"  stroke="rgb(102,102,102)" stroke-width="1" font-size="16" >CH</text>
<text x="205.117548" y="51.680000" fill="rgb(102,102,102)"  stroke="rgb(102,102,102)" stroke-width="1" font-size="13" >3</text>
<text x="137.335674" y="166.796120" fill="rgb(12,12,255)"  stroke="rgb(12,12,255)" stroke-width="1" font-size="16" >N</text>
<text x="181.268395" y="286.195627" fill="rgb(102,102,102)"  stroke="rgb(102,102,102)" stroke-width="1" font-size="16" >CH</text>
<text x="205.268395" y="289.875627" fill="rgb(102,102,102)"  stroke="rgb(102,102,102)" stroke-width="1" font-size="13" >3</text>
<text x="164.326315" y="166.093995" fill="rgb(191,191,191)"  stroke="rgb(191,191,191)" stroke-width="1" font-size="16" >H</text>
</svg>
</g>
<text font-size="18.000000" fill ="black" font-family="sans-serif"
x="10.000000" y="20.000000" ></text>
</svg>
