<?xml version="1.0"?>
<svg version="1.1" id="topsvg"
xmlns="http://www.w3.org/2000/svg" xmlns:xlink="http://www.w3.org/1999/xlink"
xmlns:cml="http://www.xml-cml.org/schema" x="0" y="0" width="200px" height="200px" viewBox="0 0 100 100">
<title> - Open Babel Depiction</title>
<rect x="0" y="0" width="100" height="100" fill="white"/>
<g transform="translate(0,0)">
<svg width="100" height="100" x="0" y="0" viewBox="0 0 183.373 255.77"
font-family="sans-serif" stroke="rgb(0,0,0)" stroke-width="2"  stroke-linecap="round">
<line x1="108.6" y1="119.1" x2="143.4" y2="100.0" stroke="rgb(0,0,0)"  stroke-width="2.0"/>
<line x1="118.8" y1="46.2" x2="143.0" y2="59.5" stroke="rgb(0,0,0)"  stroke-width="2.0"/>
<line x1="143.0" y1="59.5" x2="143.4" y2="100.0" stroke="rgb(0,0,0)"  stroke-width="2.0"/>
<line x1="84.9" y1="203.7" x2="74.8" y2="178.3" stroke="rgb(0,0,0)"  stroke-width="2.0"/>
<line x1="109.8" y1="159.6" x2="131.6" y2="172.7" stroke="rgb(0,0,0)"  stroke-width="2.0"/>
<line x1="74.8" y1="178.3" x2="40.0" y2="160.1" stroke="rgb(0,0,0)"  stroke-width="2.0"/>
<line x1="40.0" y1="160.1" x2="40.2" y2="118.8" stroke="rgb(0,0,0)"  stroke-width="2.0"/>
<line x1="47.2" y1="154.2" x2="47.4" y2="124.9" stroke="rgb(0,0,0)"  stroke-width="2.0"/>
<line x1="40.2" y1="118.8" x2="74.7" y2="98.6" stroke="rgb(0,0,0)"  stroke-width="2.0"/>
<line x1="74.7" y1="98.6" x2="108.6" y2="119.1" stroke="rgb(0,0,0)"  stroke-width="2.0"/>
<line x1="76.1" y1="107.8" x2="99.7" y2="122.1" stroke="rgb(0,0,0)"  stroke-width="2.0"/>
<line x1="108.6" y1="119.1" x2="109.8" y2="159.6" stroke="rgb(0,0,0)"  stroke-width="2.0"/>
<line x1="109.8" y1="159.6" x2="74.8" y2="178.3" stroke="rgb(0,0,0)"  stroke-width="2.0"/>
<line x1="101.1" y1="156.1" x2="76.7" y2="169.1" stroke="rgb(0,0,0)"  stroke-width="2.0"/>
<text x="81.387395" y="48.000000" fill="rgb(102,102,102)"  stroke="rgb(102,102,102)" stroke-width="1" font-size="16" >H</text>
<text x="93.387395" y="51.680000" fill="rgb(102,102,102)"  stroke="rgb(102,102,102)" stroke-width="1" font-size="13" >3</text>
<text x="99.887395" y="48.000000" fill="rgb(102,102,102)"  stroke="rgb(102,102,102)" stroke-width="1" font-size="16" >C</text>
<text x="83.763444" y="223.769576" fill="rgb(17,127,178)"  stroke="rgb(17,127,178)" stroke-width="1" font-size="16" >Xx</text>
<text x="136.761314" y="187.369146" fill="rgb(191,191,191)"  stroke="rgb(191,191,191)" stroke-width="1" font-size="16" >D</text>
</svg>
</g>
<text font-size="18.000000" fill ="black" font-family="sans-serif"
x="10.000000" y="20.000000" ></text>
</svg>
