<?xml version="1.0"?>
<svg version="1.1" id="topsvg"
xmlns="http://www.w3.org/2000/svg" xmlns:xlink="http://www.w3.org/1999/xlink"
xmlns:cml="http://www.xml-cml.org/schema" x="0" y="0" width="200px" height="200px" viewBox="0 0 100 100">
<title> - Open Babel Depiction</title>
<rect x="0" y="0" width="100" height="100" fill="white"/>
<g transform="translate(0,0)">
<svg width="100" height="100" x="0" y="0" viewBox="0 0 295.427 264.84"
font-family="sans-serif" stroke="rgb(0,0,0)" stroke-width="2"  stroke-linecap="round">
<line x1="160.4" y1="213.5" x2="161.4" y2="213.5" stroke="rgb(0,0,0)"  stroke-width="2.0"/>
<line x1="183.6" y1="187.7" x2="178.8" y2="212.1" stroke="rgb(0,0,0)"  stroke-width="2.0"/>
<line x1="187.7" y1="188.5" x2="182.9" y2="212.9" stroke="rgb(0,0,0)"  stroke-width="2.0"/>
<line x1="179.4" y1="186.9" x2="174.7" y2="211.3" stroke="rgb(0,0,0)"  stroke-width="2.0"/>
<line x1="76.4" y1="173.3" x2="51.1" y2="157.9" stroke="rgb(0,0,0)"  stroke-width="2.0"/>
<polygon points="112.649471 150.677463 78.482442 176.718700 74.246505 169.932181 " stroke-width="2.000000" fill="rgb(0,0,0)"  stroke="rgb(0,0,0)" />
<line x1="214.0" y1="201.4" x2="217.2" y2="170.3" stroke="rgb(0,0,0)"  stroke-width="2.0"/>
<line x1="219.9" y1="202.0" x2="223.1" y2="170.9" stroke="rgb(0,0,0)"  stroke-width="2.0"/>
<line x1="76.4" y1="201.6" x2="76.4" y2="173.3" stroke="rgb(0,0,0)"  stroke-width="2.0"/>
<line x1="182.8" y1="143.5" x2="184.4" y2="143.6" stroke="rgb(0,0,0)"  stroke-width="1.0"/>
<line x1="182.4" y1="136.5" x2="185.3" y2="136.6" stroke="rgb(0,0,0)"  stroke-width="1.0"/>
<line x1="181.9" y1="129.4" x2="186.1" y2="129.5" stroke="rgb(0,0,0)"  stroke-width="1.0"/>
<line x1="181.4" y1="122.4" x2="186.9" y2="122.5" stroke="rgb(0,0,0)"  stroke-width="1.0"/>
<line x1="181.0" y1="115.3" x2="187.7" y2="115.5" stroke="rgb(0,0,0)"  stroke-width="1.0"/>
<line x1="180.5" y1="108.2" x2="188.5" y2="108.4" stroke="rgb(0,0,0)"  stroke-width="1.0"/>
<line x1="183.4" y1="152.4" x2="183.6" y2="187.7" stroke="rgb(0,0,0)"  stroke-width="2.0"/>
<line x1="183.6" y1="102.3" x2="185.2" y2="102.3" stroke="rgb(0,0,0)"  stroke-width="1.0"/>
<line x1="182.9" y1="97.5" x2="185.7" y2="97.4" stroke="rgb(0,0,0)"  stroke-width="1.0"/>
<line x1="182.1" y1="92.7" x2="186.3" y2="92.6" stroke="rgb(0,0,0)"  stroke-width="1.0"/>
<line x1="181.4" y1="87.9" x2="186.8" y2="87.8" stroke="rgb(0,0,0)"  stroke-width="1.0"/>
<line x1="180.7" y1="83.0" x2="187.4" y2="82.9" stroke="rgb(0,0,0)"  stroke-width="1.0"/>
<line x1="179.9" y1="78.2" x2="187.9" y2="78.1" stroke="rgb(0,0,0)"  stroke-width="1.0"/>
<line x1="148.0" y1="169.7" x2="147.6" y2="200.9" stroke="rgb(0,0,0)"  stroke-width="2.0"/>
<line x1="154.7" y1="165.5" x2="155.4" y2="167.0" stroke="rgb(0,0,0)"  stroke-width="1.0"/>
<line x1="160.1" y1="162.2" x2="161.4" y2="164.8" stroke="rgb(0,0,0)"  stroke-width="1.0"/>
<line x1="165.5" y1="158.8" x2="167.3" y2="162.6" stroke="rgb(0,0,0)"  stroke-width="1.0"/>
<line x1="170.9" y1="155.5" x2="173.3" y2="160.4" stroke="rgb(0,0,0)"  stroke-width="1.0"/>
<line x1="176.3" y1="152.1" x2="179.2" y2="158.2" stroke="rgb(0,0,0)"  stroke-width="1.0"/>
<line x1="181.7" y1="148.8" x2="185.2" y2="156.0" stroke="rgb(0,0,0)"  stroke-width="1.0"/>
<line x1="219.9" y1="91.6" x2="226.9" y2="60.6" stroke="rgb(0,0,0)"  stroke-width="2.0"/>
<line x1="213.2" y1="95.6" x2="212.5" y2="94.2" stroke="rgb(0,0,0)"  stroke-width="1.0"/>
<line x1="207.8" y1="98.9" x2="206.6" y2="96.3" stroke="rgb(0,0,0)"  stroke-width="1.0"/>
<line x1="202.4" y1="102.2" x2="200.6" y2="98.4" stroke="rgb(0,0,0)"  stroke-width="1.0"/>
<line x1="197.0" y1="105.4" x2="194.7" y2="100.5" stroke="rgb(0,0,0)"  stroke-width="1.0"/>
<line x1="191.6" y1="108.7" x2="188.7" y2="102.6" stroke="rgb(0,0,0)"  stroke-width="1.0"/>
<line x1="186.2" y1="112.0" x2="182.8" y2="104.7" stroke="rgb(0,0,0)"  stroke-width="1.0"/>
<line x1="242.2" y1="44.0" x2="242.7" y2="43.9" stroke="rgb(0,0,0)"  stroke-width="2.0"/>
<line x1="112.6" y1="150.7" x2="148.0" y2="169.7" stroke="rgb(0,0,0)"  stroke-width="2.0"/>
<line x1="148.0" y1="169.7" x2="183.4" y2="152.4" stroke="rgb(0,0,0)"  stroke-width="2.0"/>
<line x1="183.4" y1="152.4" x2="184.5" y2="108.3" stroke="rgb(0,0,0)"  stroke-width="2.0"/>
<line x1="184.5" y1="108.3" x2="147.4" y2="89.9" stroke="rgb(0,0,0)"  stroke-width="2.0"/>
<line x1="147.4" y1="89.9" x2="112.3" y2="109.0" stroke="rgb(0,0,0)"  stroke-width="2.0"/>
<line x1="112.3" y1="109.0" x2="112.6" y2="150.7" stroke="rgb(0,0,0)"  stroke-width="2.0"/>
<line x1="255.4" y1="109.6" x2="219.9" y2="91.6" stroke="rgb(0,0,0)"  stroke-width="2.0"/>
<line x1="219.9" y1="91.6" x2="184.5" y2="108.3" stroke="rgb(0,0,0)"  stroke-width="2.0"/>
<line x1="183.4" y1="152.4" x2="220.1" y2="170.6" stroke="rgb(0,0,0)"  stroke-width="2.0"/>
<line x1="220.1" y1="170.6" x2="254.9" y2="151.8" stroke="rgb(0,0,0)"  stroke-width="2.0"/>
<line x1="254.9" y1="151.8" x2="255.4" y2="109.6" stroke="rgb(0,0,0)"  stroke-width="2.0"/>
<text x="141.446345" y="221.910374" fill="rgb(255,12,12)"  stroke="rgb(255,12,12)" stroke-width="1" font-size="16" >O</text>
<text x="170.429886" y="221.055320" fill="rgb(102,102,102)"  stroke="rgb(102,102,102)" stroke-width="1" font-size="16" >CH</text>
<text x="194.429886" y="224.735320" fill="rgb(102,102,102)"  stroke="rgb(102,102,102)" stroke-width="1" font-size="13" >3</text>
<text x="158.337314" y="232.839722" fill="rgb(102,102,102)"  stroke="rgb(102,102,102)" stroke-width="1" font-size="16" >HC</text>
<text x="14.000000" y="159.173504" fill="rgb(102,102,102)"  stroke="rgb(102,102,102)" stroke-width="1" font-size="16" >H</text>
<text x="26.000000" y="162.853504" fill="rgb(102,102,102)"  stroke="rgb(102,102,102)" stroke-width="1" font-size="13" >3</text>
<text x="32.500000" y="159.173504" fill="rgb(102,102,102)"  stroke="rgb(102,102,102)" stroke-width="1" font-size="16" >C</text>
<text x="189.604039" y="222.592773" fill="rgb(102,102,102)"  stroke="rgb(102,102,102)" stroke-width="1" font-size="16" >H</text>
<text x="201.604039" y="226.272773" fill="rgb(102,102,102)"  stroke="rgb(102,102,102)" stroke-width="1" font-size="13" >2</text>
<text x="208.104039" y="222.592773" fill="rgb(102,102,102)"  stroke="rgb(102,102,102)" stroke-width="1" font-size="16" >C</text>
<text x="72.485058" y="222.592773" fill="rgb(102,102,102)"  stroke="rgb(102,102,102)" stroke-width="1" font-size="16" >CH</text>
<text x="96.485058" y="226.272773" fill="rgb(102,102,102)"  stroke="rgb(102,102,102)" stroke-width="1" font-size="13" >3</text>
<text x="157.654606" y="71.270084" fill="rgb(102,102,102)"  stroke="rgb(102,102,102)" stroke-width="1" font-size="16" >H</text>
<text x="169.654606" y="74.950084" fill="rgb(102,102,102)"  stroke="rgb(102,102,102)" stroke-width="1" font-size="13" >3</text>
<text x="176.154606" y="71.270084" fill="rgb(102,102,102)"  stroke="rgb(102,102,102)" stroke-width="1" font-size="16" >C</text>
<text x="223.767247" y="55.901031" fill="rgb(255,12,12)"  stroke="rgb(255,12,12)" stroke-width="1" font-size="16" >O</text>
<text x="249.150302" y="48.000000" fill="rgb(191,191,191)"  stroke="rgb(191,191,191)" stroke-width="1" font-size="16" >H</text>
</svg>
</g>
<text font-size="18.000000" fill ="black" font-family="sans-serif"
x="10.000000" y="20.000000" ></text>
</svg>
