<?xml version="1.0"?>
<svg version="1.1" id="topsvg"
xmlns="http://www.w3.org/2000/svg" xmlns:xlink="http://www.w3.org/1999/xlink"
xmlns:cml="http://www.xml-cml.org/schema" x="0" y="0" width="200px" height="200px" viewBox="0 0 100 100">
<title> - Open Babel Depiction</title>
<rect x="0" y="0" width="100" height="100" fill="white"/>
<g transform="translate(0,0)">
<svg width="100" height="100" x="0" y="0" viewBox="0 0 310.174 295.312"
font-family="sans-serif" stroke="rgb(0,0,0)" stroke-width="2"  stroke-linecap="round">
<line x1="149.3" y1="180.2" x2="108.5" y2="203.6" stroke="rgb(0,0,0)"  stroke-width="2.0"/>
<line x1="108.5" y1="203.6" x2="91.1" y2="198.7" stroke="rgb(0,0,0)"  stroke-width="2.0"/>
<line x1="152.0" y1="146.5" x2="152.3" y2="180.1" stroke="rgb(0,0,0)"  stroke-width="2.0"/>
<line x1="146.0" y1="146.5" x2="146.3" y2="180.2" stroke="rgb(0,0,0)"  stroke-width="2.0"/>
<line x1="188.7" y1="110.3" x2="160.1" y2="126.9" stroke="rgb(0,0,0)"  stroke-width="2.0"/>
<line x1="82.1" y1="182.7" x2="83.5" y2="177.8" stroke="rgb(0,0,0)"  stroke-width="2.0"/>
<line x1="66.1" y1="191.7" x2="61.1" y2="190.3" stroke="rgb(0,0,0)"  stroke-width="2.0"/>
<line x1="75.1" y1="207.7" x2="70.2" y2="225.2" stroke="rgb(0,0,0)"  stroke-width="2.0"/>
<line x1="70.2" y1="225.2" x2="74.6" y2="242.7" stroke="rgb(0,0,0)"  stroke-width="2.0"/>
<line x1="70.2" y1="225.2" x2="87.6" y2="230.1" stroke="rgb(0,0,0)"  stroke-width="2.0"/>
<line x1="70.2" y1="225.2" x2="52.6" y2="229.6" stroke="rgb(0,0,0)"  stroke-width="2.0"/>
<line x1="188.6" y1="63.5" x2="188.7" y2="110.3" stroke="rgb(0,0,0)"  stroke-width="2.0"/>
<line x1="188.7" y1="110.3" x2="229.3" y2="134.1" stroke="rgb(0,0,0)"  stroke-width="2.0"/>
<line x1="229.3" y1="134.1" x2="270.2" y2="110.9" stroke="rgb(0,0,0)"  stroke-width="2.0"/>
<line x1="270.2" y1="110.9" x2="270.2" y2="63.4" stroke="rgb(0,0,0)"  stroke-width="2.0"/>
<line x1="270.2" y1="63.4" x2="230.1" y2="40.0" stroke="rgb(0,0,0)"  stroke-width="2.0"/>
<line x1="230.1" y1="40.0" x2="188.6" y2="63.5" stroke="rgb(0,0,0)"  stroke-width="2.0"/>
<text x="142.855123" y="141.501286" fill="rgb(12,12,255)"  stroke="rgb(12,12,255)" stroke-width="1" font-size="16" >N</text>
<text x="72.575931" y="203.212198" fill="rgb(127,153,153)"  stroke="rgb(127,153,153)" stroke-width="1" font-size="16" >Si</text>
<text x="83.001096" y="173.263661" fill="rgb(102,102,102)"  stroke="rgb(102,102,102)" stroke-width="1" font-size="16" >CH</text>
<text x="107.001096" y="176.943661" fill="rgb(102,102,102)"  stroke="rgb(102,102,102)" stroke-width="1" font-size="13" >3</text>
<text x="22.624283" y="194.787033" fill="rgb(102,102,102)"  stroke="rgb(102,102,102)" stroke-width="1" font-size="16" >H</text>
<text x="34.624283" y="198.467033" fill="rgb(102,102,102)"  stroke="rgb(102,102,102)" stroke-width="1" font-size="13" >3</text>
<text x="41.124283" y="194.787033" fill="rgb(102,102,102)"  stroke="rgb(102,102,102)" stroke-width="1" font-size="16" >C</text>
<text x="73.826128" y="263.311500" fill="rgb(102,102,102)"  stroke="rgb(102,102,102)" stroke-width="1" font-size="16" >CH</text>
<text x="97.826128" y="266.991500" fill="rgb(102,102,102)"  stroke="rgb(102,102,102)" stroke-width="1" font-size="13" >3</text>
<text x="96.099303" y="241.585900" fill="rgb(102,102,102)"  stroke="rgb(102,102,102)" stroke-width="1" font-size="16" >CH</text>
<text x="120.099303" y="245.265900" fill="rgb(102,102,102)"  stroke="rgb(102,102,102)" stroke-width="1" font-size="13" >3</text>
<text x="14.000000" y="240.839208" fill="rgb(102,102,102)"  stroke="rgb(102,102,102)" stroke-width="1" font-size="16" >H</text>
<text x="26.000000" y="244.519208" fill="rgb(102,102,102)"  stroke="rgb(102,102,102)" stroke-width="1" font-size="13" >3</text>
<text x="32.500000" y="240.839208" fill="rgb(102,102,102)"  stroke="rgb(102,102,102)" stroke-width="1" font-size="16" >C</text>
</svg>
</g>
<text font-size="18.000000" fill ="black" font-family="sans-serif"
x="10.000000" y="20.000000" ></text>
</svg>
