<?xml version="1.0"?>
<svg version="1.1" id="topsvg"
xmlns="http://www.w3.org/2000/svg" xmlns:xlink="http://www.w3.org/1999/xlink"
xmlns:cml="http://www.xml-cml.org/schema" x="0" y="0" width="200px" height="200px" viewBox="0 0 100 100">
<title> - Open Babel Depiction</title>
<rect x="0" y="0" width="100" height="100" fill="white"/>
<g transform="translate(0,0)">
<svg width="100" height="100" x="0" y="0" viewBox="0 0 367.108 355.993"
font-family="sans-serif" stroke="rgb(0,0,0)" stroke-width="2"  stroke-linecap="round">
<line x1="232.2" y1="281.1" x2="261.7" y2="273.6" stroke="rgb(0,0,0)"  stroke-width="2.0"/>
<line x1="261.7" y1="273.6" x2="253.9" y2="303.4" stroke="rgb(0,0,0)"  stroke-width="2.0"/>
<line x1="285.5" y1="205.5" x2="285.5" y2="161.1" stroke="rgb(0,0,0)"  stroke-width="2.0"/>
<polygon points="248.202537 140.395129 212.331734 162.025877 208.873656 154.811884 " stroke-width="2.000000" fill="rgb(0,0,0)"  stroke="rgb(0,0,0)" />
<line x1="241.7" y1="94.0" x2="242.4" y2="92.6" stroke="rgb(0,0,0)"  stroke-width="1.0"/>
<line x1="235.4" y1="91.4" x2="236.7" y2="88.9" stroke="rgb(0,0,0)"  stroke-width="1.0"/>
<line x1="229.1" y1="88.8" x2="231.0" y2="85.2" stroke="rgb(0,0,0)"  stroke-width="1.0"/>
<line x1="222.8" y1="86.3" x2="225.4" y2="81.5" stroke="rgb(0,0,0)"  stroke-width="1.0"/>
<line x1="216.6" y1="83.7" x2="219.7" y2="77.8" stroke="rgb(0,0,0)"  stroke-width="1.0"/>
<line x1="210.3" y1="81.1" x2="214.0" y2="74.1" stroke="rgb(0,0,0)"  stroke-width="1.0"/>
<line x1="311.5" y1="48.5" x2="314.1" y2="48.3" stroke="rgb(0,0,0)"  stroke-width="2.0"/>
<line x1="292.6" y1="60.7" x2="285.4" y2="74.6" stroke="rgb(0,0,0)"  stroke-width="2.0"/>
<line x1="188.4" y1="138.3" x2="212.4" y2="156.0" stroke="rgb(0,0,0)"  stroke-width="2.0"/>
<line x1="184.9" y1="143.2" x2="208.8" y2="160.8" stroke="rgb(0,0,0)"  stroke-width="2.0"/>
<line x1="97.7" y1="96.6" x2="135.5" y2="75.4" stroke="rgb(0,0,0)"  stroke-width="2.0"/>
<line x1="97.7" y1="96.6" x2="83.1" y2="90.9" stroke="rgb(0,0,0)"  stroke-width="2.0"/>
<line x1="136.9" y1="72.8" x2="174.5" y2="93.7" stroke="rgb(0,0,0)"  stroke-width="2.0"/>
<line x1="134.0" y1="78.0" x2="171.6" y2="98.9" stroke="rgb(0,0,0)"  stroke-width="2.0"/>
<line x1="173.0" y1="96.3" x2="212.2" y2="77.6" stroke="rgb(0,0,0)"  stroke-width="2.0"/>
<line x1="69.0" y1="73.4" x2="66.7" y2="57.9" stroke="rgb(0,0,0)"  stroke-width="2.0"/>
<line x1="64.8" y1="55.6" x2="77.0" y2="45.8" stroke="rgb(0,0,0)"  stroke-width="2.0"/>
<line x1="68.6" y1="60.2" x2="80.8" y2="50.5" stroke="rgb(0,0,0)"  stroke-width="2.0"/>
<line x1="66.7" y1="57.9" x2="52.1" y2="52.2" stroke="rgb(0,0,0)"  stroke-width="2.0"/>
<line x1="260.7" y1="223.1" x2="285.5" y2="205.5" stroke="rgb(0,0,0)"  stroke-width="2.0"/>
<line x1="266.0" y1="228.1" x2="284.8" y2="214.9" stroke="rgb(0,0,0)"  stroke-width="2.0"/>
<line x1="285.5" y1="205.5" x2="308.6" y2="224.8" stroke="rgb(0,0,0)"  stroke-width="2.0"/>
<line x1="314.8" y1="245.7" x2="306.6" y2="273.4" stroke="rgb(0,0,0)"  stroke-width="2.0"/>
<line x1="306.6" y1="273.4" x2="261.7" y2="273.6" stroke="rgb(0,0,0)"  stroke-width="2.0"/>
<line x1="261.7" y1="273.6" x2="252.4" y2="244.1" stroke="rgb(0,0,0)"  stroke-width="2.0"/>
<line x1="249.5" y1="97.2" x2="248.2" y2="140.4" stroke="rgb(0,0,0)"  stroke-width="2.0"/>
<line x1="248.2" y1="140.4" x2="285.5" y2="161.1" stroke="rgb(0,0,0)"  stroke-width="2.0"/>
<line x1="285.5" y1="161.1" x2="323.9" y2="141.1" stroke="rgb(0,0,0)"  stroke-width="2.0"/>
<line x1="287.5" y1="151.9" x2="315.2" y2="137.5" stroke="rgb(0,0,0)"  stroke-width="2.0"/>
<line x1="323.9" y1="141.1" x2="324.0" y2="95.8" stroke="rgb(0,0,0)"  stroke-width="2.0"/>
<line x1="324.0" y1="95.8" x2="285.4" y2="74.6" stroke="rgb(0,0,0)"  stroke-width="2.0"/>
<line x1="315.3" y1="99.3" x2="287.2" y2="83.8" stroke="rgb(0,0,0)"  stroke-width="2.0"/>
<line x1="285.4" y1="74.6" x2="249.5" y2="97.2" stroke="rgb(0,0,0)"  stroke-width="2.0"/>
<text x="193.570177" y="292.224262" fill="rgb(102,102,102)"  stroke="rgb(102,102,102)" stroke-width="1" font-size="16" >H</text>
<text x="205.570177" y="295.904262" fill="rgb(102,102,102)"  stroke="rgb(102,102,102)" stroke-width="1" font-size="13" >3</text>
<text x="212.070177" y="292.224262" fill="rgb(102,102,102)"  stroke="rgb(102,102,102)" stroke-width="1" font-size="16" >C</text>
<text x="242.425936" y="239.748310" fill="rgb(12,12,255)"  stroke="rgb(12,12,255)" stroke-width="1" font-size="16" >N</text>
<text x="312.573356" y="241.194678" fill="rgb(255,12,12)"  stroke="rgb(255,12,12)" stroke-width="1" font-size="16" >O</text>
<text x="224.533910" y="323.992806" fill="rgb(102,102,102)"  stroke="rgb(102,102,102)" stroke-width="1" font-size="16" >H</text>
<text x="236.533910" y="327.672806" fill="rgb(102,102,102)"  stroke="rgb(102,102,102)" stroke-width="1" font-size="13" >3</text>
<text x="243.033910" y="323.992806" fill="rgb(102,102,102)"  stroke="rgb(102,102,102)" stroke-width="1" font-size="16" >C</text>
<text x="292.504641" y="57.099230" fill="rgb(255,12,12)"  stroke="rgb(255,12,12)" stroke-width="1" font-size="16" >O</text>
<text x="323.108360" y="55.670047" fill="rgb(102,102,102)"  stroke="rgb(102,102,102)" stroke-width="1" font-size="16" >CH</text>
<text x="347.108360" y="59.350047" fill="rgb(102,102,102)"  stroke="rgb(102,102,102)" stroke-width="1" font-size="13" >3</text>
<text x="150.179135" y="141.045861" fill="rgb(102,102,102)"  stroke="rgb(102,102,102)" stroke-width="1" font-size="16" >H</text>
<text x="162.179135" y="144.725861" fill="rgb(102,102,102)"  stroke="rgb(102,102,102)" stroke-width="1" font-size="13" >2</text>
<text x="168.679135" y="141.045861" fill="rgb(102,102,102)"  stroke="rgb(102,102,102)" stroke-width="1" font-size="16" >C</text>
<text x="65.006695" y="94.215040" fill="rgb(255,12,12)"  stroke="rgb(255,12,12)" stroke-width="1" font-size="16" >O</text>
<text x="83.036174" y="48.000000" fill="rgb(255,12,12)"  stroke="rgb(255,12,12)" stroke-width="1" font-size="16" >O</text>
<text x="14.000000" y="55.495337" fill="rgb(102,102,102)"  stroke="rgb(102,102,102)" stroke-width="1" font-size="16" >H</text>
<text x="26.000000" y="59.175337" fill="rgb(102,102,102)"  stroke="rgb(102,102,102)" stroke-width="1" font-size="13" >3</text>
<text x="32.500000" y="55.495337" fill="rgb(102,102,102)"  stroke="rgb(102,102,102)" stroke-width="1" font-size="16" >C</text>
</svg>
</g>
<text font-size="18.000000" fill ="black" font-family="sans-serif"
x="10.000000" y="20.000000" ></text>
</svg>
