<?xml version="1.0"?>
<svg version="1.1" id="topsvg"
xmlns="http://www.w3.org/2000/svg" xmlns:xlink="http://www.w3.org/1999/xlink"
xmlns:cml="http://www.xml-cml.org/schema" x="0" y="0" width="200px" height="200px" viewBox="0 0 100 100">
<title> - Open Babel Depiction</title>
<rect x="0" y="0" width="100" height="100" fill="white"/>
<g transform="translate(0,0)">
<svg width="100" height="100" x="0" y="0" viewBox="0 0 218.058 260.622"
font-family="sans-serif" stroke="rgb(0,0,0)" stroke-width="2"  stroke-linecap="round">
<line x1="73.9" y1="100.3" x2="74.6" y2="60.6" stroke="rgb(0,0,0)"  stroke-width="2.0"/>
<line x1="73.0" y1="58.1" x2="95.6" y2="44.2" stroke="rgb(0,0,0)"  stroke-width="2.0"/>
<line x1="76.2" y1="63.2" x2="98.7" y2="49.4" stroke="rgb(0,0,0)"  stroke-width="2.0"/>
<line x1="139.7" y1="207.6" x2="140.1" y2="178.9" stroke="rgb(0,0,0)"  stroke-width="2.0"/>
<line x1="145.7" y1="207.7" x2="146.1" y2="178.9" stroke="rgb(0,0,0)"  stroke-width="2.0"/>
<line x1="110.1" y1="127.3" x2="108.5" y2="127.3" stroke="rgb(0,0,0)"  stroke-width="1.0"/>
<line x1="110.7" y1="134.2" x2="107.8" y2="134.2" stroke="rgb(0,0,0)"  stroke-width="1.0"/>
<line x1="111.2" y1="141.1" x2="107.1" y2="141.1" stroke="rgb(0,0,0)"  stroke-width="1.0"/>
<line x1="111.8" y1="148.0" x2="106.4" y2="148.0" stroke="rgb(0,0,0)"  stroke-width="1.0"/>
<line x1="112.3" y1="154.9" x2="105.6" y2="154.8" stroke="rgb(0,0,0)"  stroke-width="1.0"/>
<line x1="112.9" y1="161.8" x2="104.9" y2="161.7" stroke="rgb(0,0,0)"  stroke-width="1.0"/>
<line x1="109.5" y1="118.7" x2="108.6" y2="93.4" stroke="rgb(0,0,0)"  stroke-width="2.0"/>
<line x1="109.7" y1="167.6" x2="108.1" y2="167.6" stroke="rgb(0,0,0)"  stroke-width="1.0"/>
<line x1="110.3" y1="172.2" x2="107.4" y2="172.2" stroke="rgb(0,0,0)"  stroke-width="1.0"/>
<line x1="111.0" y1="176.9" x2="106.8" y2="176.9" stroke="rgb(0,0,0)"  stroke-width="1.0"/>
<line x1="111.6" y1="181.5" x2="106.2" y2="181.5" stroke="rgb(0,0,0)"  stroke-width="1.0"/>
<line x1="112.2" y1="186.1" x2="105.5" y2="186.1" stroke="rgb(0,0,0)"  stroke-width="1.0"/>
<line x1="112.9" y1="190.8" x2="104.9" y2="190.8" stroke="rgb(0,0,0)"  stroke-width="1.0"/>
<line x1="74.4" y1="180.1" x2="40.0" y2="160.9" stroke="rgb(0,0,0)"  stroke-width="2.0"/>
<line x1="72.7" y1="170.9" x2="48.7" y2="157.5" stroke="rgb(0,0,0)"  stroke-width="2.0"/>
<line x1="40.0" y1="160.9" x2="40.3" y2="119.8" stroke="rgb(0,0,0)"  stroke-width="2.0"/>
<line x1="40.3" y1="119.8" x2="73.9" y2="100.3" stroke="rgb(0,0,0)"  stroke-width="2.0"/>
<line x1="49.2" y1="123.0" x2="72.3" y2="109.5" stroke="rgb(0,0,0)"  stroke-width="2.0"/>
<line x1="73.9" y1="100.3" x2="109.5" y2="118.7" stroke="rgb(0,0,0)"  stroke-width="2.0"/>
<line x1="109.5" y1="118.7" x2="108.9" y2="161.8" stroke="rgb(0,0,0)"  stroke-width="2.0"/>
<line x1="108.9" y1="161.8" x2="74.4" y2="180.1" stroke="rgb(0,0,0)"  stroke-width="2.0"/>
<line x1="177.8" y1="121.0" x2="178.1" y2="160.9" stroke="rgb(0,0,0)"  stroke-width="2.0"/>
<line x1="170.6" y1="127.0" x2="170.8" y2="155.0" stroke="rgb(0,0,0)"  stroke-width="2.0"/>
<line x1="178.1" y1="160.9" x2="143.1" y2="178.9" stroke="rgb(0,0,0)"  stroke-width="2.0"/>
<line x1="143.1" y1="178.9" x2="108.9" y2="161.8" stroke="rgb(0,0,0)"  stroke-width="2.0"/>
<line x1="109.5" y1="118.7" x2="144.1" y2="100.5" stroke="rgb(0,0,0)"  stroke-width="2.0"/>
<line x1="144.1" y1="100.5" x2="177.8" y2="121.0" stroke="rgb(0,0,0)"  stroke-width="2.0"/>
<text x="102.205861" y="48.000000" fill="rgb(255,12,12)"  stroke="rgb(255,12,12)" stroke-width="1" font-size="16" >O</text>
<text x="136.611106" y="228.621543" fill="rgb(255,12,12)"  stroke="rgb(255,12,12)" stroke-width="1" font-size="16" >O</text>
<text x="104.869088" y="213.074325" fill="rgb(102,102,102)"  stroke="rgb(102,102,102)" stroke-width="1" font-size="16" >CH</text>
<text x="128.869088" y="216.754325" fill="rgb(102,102,102)"  stroke="rgb(102,102,102)" stroke-width="1" font-size="13" >3</text>
<text x="102.205861" y="88.358308" fill="rgb(191,191,191)"  stroke="rgb(191,191,191)" stroke-width="1" font-size="16" >H</text>
</svg>
</g>
<text font-size="18.000000" fill ="black" font-family="sans-serif"
x="10.000000" y="20.000000" ></text>
</svg>
