<?xml version="1.0"?>
<svg version="1.1" id="topsvg"
xmlns="http://www.w3.org/2000/svg" xmlns:xlink="http://www.w3.org/1999/xlink"
xmlns:cml="http://www.xml-cml.org/schema" x="0" y="0" width="200px" height="200px" viewBox="0 0 100 100">
<title> - Open Babel Depiction</title>
<rect x="0" y="0" width="100" height="100" fill="white"/>
<g transform="translate(0,0)">
<svg width="100" height="100" x="0" y="0" viewBox="0 0 231.375 348.078"
font-family="sans-serif" stroke="rgb(0,0,0)" stroke-width="2"  stroke-linecap="round">
<line x1="153.6" y1="296.7" x2="167.6" y2="271.4" stroke="rgb(0,0,0)"  stroke-width="2.0"/>
<line x1="183.8" y1="294.2" x2="167.6" y2="271.4" stroke="rgb(0,0,0)"  stroke-width="2.0"/>
<line x1="146.5" y1="166.5" x2="146.3" y2="207.6" stroke="rgb(0,0,0)"  stroke-width="2.0"/>
<line x1="70.5" y1="86.5" x2="72.2" y2="58.0" stroke="rgb(0,0,0)"  stroke-width="2.0"/>
<line x1="76.5" y1="86.9" x2="78.2" y2="58.4" stroke="rgb(0,0,0)"  stroke-width="2.0"/>
<line x1="110.5" y1="99.8" x2="112.1" y2="99.8" stroke="rgb(0,0,0)"  stroke-width="1.0"/>
<line x1="109.9" y1="94.7" x2="112.8" y2="94.7" stroke="rgb(0,0,0)"  stroke-width="1.0"/>
<line x1="109.3" y1="89.5" x2="113.4" y2="89.6" stroke="rgb(0,0,0)"  stroke-width="1.0"/>
<line x1="108.7" y1="84.4" x2="114.1" y2="84.4" stroke="rgb(0,0,0)"  stroke-width="1.0"/>
<line x1="108.1" y1="79.3" x2="114.8" y2="79.3" stroke="rgb(0,0,0)"  stroke-width="1.0"/>
<line x1="107.4" y1="74.2" x2="115.4" y2="74.2" stroke="rgb(0,0,0)"  stroke-width="1.0"/>
<line x1="152.1" y1="51.8" x2="151.6" y2="51.0" stroke="rgb(0,0,0)"  stroke-width="2.0"/>
<line x1="153.1" y1="74.3" x2="146.6" y2="86.7" stroke="rgb(0,0,0)"  stroke-width="2.0"/>
<line x1="125.6" y1="271.3" x2="117.3" y2="244.3" stroke="rgb(0,0,0)"  stroke-width="2.0"/>
<line x1="124.0" y1="224.2" x2="146.3" y2="207.6" stroke="rgb(0,0,0)"  stroke-width="2.0"/>
<line x1="146.3" y1="207.6" x2="168.4" y2="223.9" stroke="rgb(0,0,0)"  stroke-width="2.0"/>
<line x1="146.9" y1="216.9" x2="162.5" y2="228.5" stroke="rgb(0,0,0)"  stroke-width="2.0"/>
<line x1="175.5" y1="244.4" x2="167.6" y2="271.4" stroke="rgb(0,0,0)"  stroke-width="2.0"/>
<line x1="167.6" y1="271.4" x2="125.6" y2="271.3" stroke="rgb(0,0,0)"  stroke-width="2.0"/>
<line x1="40.0" y1="147.2" x2="75.9" y2="166.2" stroke="rgb(0,0,0)"  stroke-width="2.0"/>
<line x1="48.7" y1="143.6" x2="73.9" y2="157.1" stroke="rgb(0,0,0)"  stroke-width="2.0"/>
<line x1="75.9" y1="166.2" x2="112.5" y2="147.0" stroke="rgb(0,0,0)"  stroke-width="2.0"/>
<line x1="112.5" y1="147.0" x2="111.3" y2="106.2" stroke="rgb(0,0,0)"  stroke-width="2.0"/>
<line x1="111.3" y1="106.2" x2="73.5" y2="86.7" stroke="rgb(0,0,0)"  stroke-width="2.0"/>
<line x1="73.5" y1="86.7" x2="40.8" y2="106.4" stroke="rgb(0,0,0)"  stroke-width="2.0"/>
<line x1="40.8" y1="106.4" x2="40.0" y2="147.2" stroke="rgb(0,0,0)"  stroke-width="2.0"/>
<line x1="112.5" y1="147.0" x2="146.5" y2="166.5" stroke="rgb(0,0,0)"  stroke-width="2.0"/>
<line x1="146.5" y1="166.5" x2="182.3" y2="147.5" stroke="rgb(0,0,0)"  stroke-width="2.0"/>
<line x1="148.4" y1="157.3" x2="173.6" y2="144.0" stroke="rgb(0,0,0)"  stroke-width="2.0"/>
<line x1="182.3" y1="147.5" x2="181.9" y2="105.1" stroke="rgb(0,0,0)"  stroke-width="2.0"/>
<line x1="181.9" y1="105.1" x2="146.6" y2="86.7" stroke="rgb(0,0,0)"  stroke-width="2.0"/>
<line x1="173.3" y1="108.7" x2="148.6" y2="95.8" stroke="rgb(0,0,0)"  stroke-width="2.0"/>
<line x1="146.6" y1="86.7" x2="111.3" y2="106.2" stroke="rgb(0,0,0)"  stroke-width="2.0"/>
<text x="121.350588" y="316.078477" fill="rgb(102,102,102)"  stroke="rgb(102,102,102)" stroke-width="1" font-size="16" >H</text>
<text x="133.350588" y="319.758477" fill="rgb(102,102,102)"  stroke="rgb(102,102,102)" stroke-width="1" font-size="13" >3</text>
<text x="139.850588" y="316.078477" fill="rgb(102,102,102)"  stroke="rgb(102,102,102)" stroke-width="1" font-size="16" >C</text>
<text x="107.557280" y="239.910717" fill="rgb(255,12,12)"  stroke="rgb(255,12,12)" stroke-width="1" font-size="16" >O</text>
<text x="173.207611" y="239.910717" fill="rgb(12,12,255)"  stroke="rgb(12,12,255)" stroke-width="1" font-size="16" >N</text>
<text x="187.375467" y="312.796500" fill="rgb(102,102,102)"  stroke="rgb(102,102,102)" stroke-width="1" font-size="16" >CH</text>
<text x="211.375467" y="316.476500" fill="rgb(102,102,102)"  stroke="rgb(102,102,102)" stroke-width="1" font-size="13" >3</text>
<text x="69.945336" y="53.220960" fill="rgb(255,12,12)"  stroke="rgb(255,12,12)" stroke-width="1" font-size="16" >O</text>
<text x="153.095051" y="70.782369" fill="rgb(255,12,12)"  stroke="rgb(255,12,12)" stroke-width="1" font-size="16" >O</text>
<text x="118.667296" y="48.000000" fill="rgb(102,102,102)"  stroke="rgb(102,102,102)" stroke-width="1" font-size="16" >H</text>
<text x="130.667296" y="51.680000" fill="rgb(102,102,102)"  stroke="rgb(102,102,102)" stroke-width="1" font-size="13" >3</text>
<text x="137.167296" y="48.000000" fill="rgb(102,102,102)"  stroke="rgb(102,102,102)" stroke-width="1" font-size="16" >C</text>
<text x="107.505033" y="66.383926" fill="rgb(102,102,102)"  stroke="rgb(102,102,102)" stroke-width="1" font-size="16" >CH</text>
<text x="131.505033" y="70.063926" fill="rgb(102,102,102)"  stroke="rgb(102,102,102)" stroke-width="1" font-size="13" >3</text>
</svg>
</g>
<text font-size="18.000000" fill ="black" font-family="sans-serif"
x="10.000000" y="20.000000" ></text>
</svg>
