<?xml version="1.0"?>
<svg version="1.1" id="topsvg"
xmlns="http://www.w3.org/2000/svg" xmlns:xlink="http://www.w3.org/1999/xlink"
xmlns:cml="http://www.xml-cml.org/schema" x="0" y="0" width="200px" height="200px" viewBox="0 0 100 100">
<title> - Open Babel Depiction</title>
<rect x="0" y="0" width="100" height="100" fill="white"/>
<g transform="translate(0,0)">
<svg width="100" height="100" x="0" y="0" viewBox="0 0 302.921 354.282"
font-family="sans-serif" stroke="rgb(0,0,0)" stroke-width="2"  stroke-linecap="round">
<line x1="238.4" y1="301.3" x2="238.4" y2="272.3" stroke="rgb(0,0,0)"  stroke-width="2.0"/>
<line x1="238.4" y1="272.3" x2="255.2" y2="295.1" stroke="rgb(0,0,0)"  stroke-width="2.0"/>
<line x1="217.8" y1="169.2" x2="218.0" y2="210.0" stroke="rgb(0,0,0)"  stroke-width="2.0"/>
<line x1="182.6" y1="148.6" x2="147.2" y2="164.6" stroke="rgb(0,0,0)"  stroke-width="2.0"/>
<polygon points="182.608776 148.648052 178.113856 106.723804 186.113299 106.629423 " stroke-width="2.000000" fill="rgb(0,0,0)"  stroke="rgb(0,0,0)" />
<line x1="49.7" y1="99.0" x2="75.1" y2="84.3" stroke="rgb(0,0,0)"  stroke-width="2.0"/>
<line x1="52.7" y1="104.2" x2="78.1" y2="89.5" stroke="rgb(0,0,0)"  stroke-width="2.0"/>
<line x1="76.6" y1="86.9" x2="111.6" y2="107.3" stroke="rgb(0,0,0)"  stroke-width="2.0"/>
<line x1="147.1" y1="86.1" x2="111.6" y2="107.3" stroke="rgb(0,0,0)"  stroke-width="2.0"/>
<line x1="149.6" y1="60.2" x2="150.1" y2="86.1" stroke="rgb(0,0,0)"  stroke-width="2.0"/>
<line x1="143.6" y1="60.4" x2="144.1" y2="86.2" stroke="rgb(0,0,0)"  stroke-width="2.0"/>
<line x1="182.1" y1="106.7" x2="147.1" y2="86.1" stroke="rgb(0,0,0)"  stroke-width="2.0"/>
<line x1="181.4" y1="100.4" x2="183.0" y2="100.4" stroke="rgb(0,0,0)"  stroke-width="1.0"/>
<line x1="180.9" y1="95.4" x2="183.7" y2="95.4" stroke="rgb(0,0,0)"  stroke-width="1.0"/>
<line x1="180.3" y1="90.3" x2="184.5" y2="90.4" stroke="rgb(0,0,0)"  stroke-width="1.0"/>
<line x1="179.7" y1="85.3" x2="185.2" y2="85.4" stroke="rgb(0,0,0)"  stroke-width="1.0"/>
<line x1="179.2" y1="80.3" x2="185.9" y2="80.4" stroke="rgb(0,0,0)"  stroke-width="1.0"/>
<line x1="178.6" y1="75.3" x2="186.6" y2="75.4" stroke="rgb(0,0,0)"  stroke-width="1.0"/>
<line x1="224.1" y1="52.2" x2="223.4" y2="51.0" stroke="rgb(0,0,0)"  stroke-width="2.0"/>
<line x1="224.8" y1="74.7" x2="218.1" y2="87.4" stroke="rgb(0,0,0)"  stroke-width="2.0"/>
<line x1="123.4" y1="150.8" x2="148.4" y2="161.9" stroke="rgb(0,0,0)"  stroke-width="2.0"/>
<line x1="121.0" y1="156.3" x2="145.9" y2="167.4" stroke="rgb(0,0,0)"  stroke-width="2.0"/>
<line x1="197.5" y1="271.9" x2="188.4" y2="246.1" stroke="rgb(0,0,0)"  stroke-width="2.0"/>
<line x1="194.8" y1="226.4" x2="218.0" y2="210.0" stroke="rgb(0,0,0)"  stroke-width="2.0"/>
<line x1="218.0" y1="210.0" x2="239.9" y2="225.5" stroke="rgb(0,0,0)"  stroke-width="2.0"/>
<line x1="218.7" y1="219.4" x2="234.1" y2="230.2" stroke="rgb(0,0,0)"  stroke-width="2.0"/>
<line x1="246.8" y1="245.6" x2="238.4" y2="272.3" stroke="rgb(0,0,0)"  stroke-width="2.0"/>
<line x1="238.4" y1="272.3" x2="197.5" y2="271.9" stroke="rgb(0,0,0)"  stroke-width="2.0"/>
<line x1="182.1" y1="106.7" x2="182.6" y2="148.6" stroke="rgb(0,0,0)"  stroke-width="2.0"/>
<line x1="182.6" y1="148.6" x2="217.8" y2="169.2" stroke="rgb(0,0,0)"  stroke-width="2.0"/>
<line x1="217.8" y1="169.2" x2="254.0" y2="148.8" stroke="rgb(0,0,0)"  stroke-width="2.0"/>
<line x1="219.5" y1="160.0" x2="245.2" y2="145.4" stroke="rgb(0,0,0)"  stroke-width="2.0"/>
<line x1="254.0" y1="148.8" x2="254.1" y2="107.2" stroke="rgb(0,0,0)"  stroke-width="2.0"/>
<line x1="254.1" y1="107.2" x2="218.1" y2="87.4" stroke="rgb(0,0,0)"  stroke-width="2.0"/>
<line x1="245.4" y1="110.6" x2="219.8" y2="96.6" stroke="rgb(0,0,0)"  stroke-width="2.0"/>
<line x1="218.1" y1="87.4" x2="182.1" y2="106.7" stroke="rgb(0,0,0)"  stroke-width="2.0"/>
<text x="234.333582" y="322.282160" fill="rgb(102,102,102)"  stroke="rgb(102,102,102)" stroke-width="1" font-size="16" >CH</text>
<text x="258.333582" y="325.962160" fill="rgb(102,102,102)"  stroke="rgb(102,102,102)" stroke-width="1" font-size="13" >3</text>
<text x="178.121728" y="241.827555" fill="rgb(255,12,12)"  stroke="rgb(255,12,12)" stroke-width="1" font-size="16" >O</text>
<text x="244.639659" y="241.143580" fill="rgb(12,12,255)"  stroke="rgb(12,12,255)" stroke-width="1" font-size="16" >N</text>
<text x="258.921113" y="313.532752" fill="rgb(102,102,102)"  stroke="rgb(102,102,102)" stroke-width="1" font-size="16" >CH</text>
<text x="282.921113" y="317.212752" fill="rgb(102,102,102)"  stroke="rgb(102,102,102)" stroke-width="1" font-size="13" >3</text>
<text x="14.000000" y="116.107489" fill="rgb(102,102,102)"  stroke="rgb(102,102,102)" stroke-width="1" font-size="16" >H</text>
<text x="26.000000" y="119.787489" fill="rgb(102,102,102)"  stroke="rgb(102,102,102)" stroke-width="1" font-size="13" >2</text>
<text x="32.500000" y="116.107489" fill="rgb(102,102,102)"  stroke="rgb(102,102,102)" stroke-width="1" font-size="16" >C</text>
<text x="140.404614" y="55.299381" fill="rgb(255,12,12)"  stroke="rgb(255,12,12)" stroke-width="1" font-size="16" >O</text>
<text x="224.987691" y="71.246940" fill="rgb(255,12,12)"  stroke="rgb(255,12,12)" stroke-width="1" font-size="16" >O</text>
<text x="190.564028" y="48.000000" fill="rgb(102,102,102)"  stroke="rgb(102,102,102)" stroke-width="1" font-size="16" >H</text>
<text x="202.564028" y="51.680000" fill="rgb(102,102,102)"  stroke="rgb(102,102,102)" stroke-width="1" font-size="13" >3</text>
<text x="209.064028" y="48.000000" fill="rgb(102,102,102)"  stroke="rgb(102,102,102)" stroke-width="1" font-size="16" >C</text>
<text x="84.342719" y="156.262290" fill="rgb(102,102,102)"  stroke="rgb(102,102,102)" stroke-width="1" font-size="16" >H</text>
<text x="96.342719" y="159.942290" fill="rgb(102,102,102)"  stroke="rgb(102,102,102)" stroke-width="1" font-size="13" >2</text>
<text x="102.842719" y="156.262290" fill="rgb(102,102,102)"  stroke="rgb(102,102,102)" stroke-width="1" font-size="16" >C</text>
<text x="178.885101" y="67.873576" fill="rgb(102,102,102)"  stroke="rgb(102,102,102)" stroke-width="1" font-size="16" >CH</text>
<text x="202.885101" y="71.553576" fill="rgb(102,102,102)"  stroke="rgb(102,102,102)" stroke-width="1" font-size="13" >3</text>
</svg>
</g>
<text font-size="18.000000" fill ="black" font-family="sans-serif"
x="10.000000" y="20.000000" ></text>
</svg>
