<?xml version="1.0"?>
<svg version="1.1" id="topsvg"
xmlns="http://www.w3.org/2000/svg" xmlns:xlink="http://www.w3.org/1999/xlink"
xmlns:cml="http://www.xml-cml.org/schema" x="0" y="0" width="200px" height="200px" viewBox="0 0 100 100">
<title> - Open Babel Depiction</title>
<rect x="0" y="0" width="100" height="100" fill="white"/>
<g transform="translate(0,0)">
<svg width="100" height="100" x="0" y="0" viewBox="0 0 366.471 355.836"
font-family="sans-serif" stroke="rgb(0,0,0)" stroke-width="2"  stroke-linecap="round">
<line x1="261.4" y1="273.5" x2="231.3" y2="281.2" stroke="rgb(0,0,0)"  stroke-width="2.0"/>
<line x1="261.4" y1="273.5" x2="253.4" y2="303.3" stroke="rgb(0,0,0)"  stroke-width="2.0"/>
<line x1="284.9" y1="207.3" x2="285.8" y2="162.7" stroke="rgb(0,0,0)"  stroke-width="2.0"/>
<line x1="240.9" y1="93.3" x2="241.7" y2="92.0" stroke="rgb(0,0,0)"  stroke-width="1.0"/>
<line x1="234.7" y1="90.5" x2="236.2" y2="88.0" stroke="rgb(0,0,0)"  stroke-width="1.0"/>
<line x1="228.6" y1="87.6" x2="230.7" y2="84.0" stroke="rgb(0,0,0)"  stroke-width="1.0"/>
<line x1="222.4" y1="84.7" x2="225.2" y2="80.0" stroke="rgb(0,0,0)"  stroke-width="1.0"/>
<line x1="216.2" y1="81.9" x2="219.6" y2="76.1" stroke="rgb(0,0,0)"  stroke-width="1.0"/>
<line x1="210.1" y1="79.0" x2="214.1" y2="72.1" stroke="rgb(0,0,0)"  stroke-width="1.0"/>
<line x1="310.8" y1="49.0" x2="313.5" y2="48.9" stroke="rgb(0,0,0)"  stroke-width="2.0"/>
<line x1="291.7" y1="60.8" x2="284.2" y2="74.6" stroke="rgb(0,0,0)"  stroke-width="2.0"/>
<line x1="136.1" y1="72.3" x2="173.6" y2="93.6" stroke="rgb(0,0,0)"  stroke-width="2.0"/>
<line x1="133.1" y1="77.5" x2="170.6" y2="98.8" stroke="rgb(0,0,0)"  stroke-width="2.0"/>
<line x1="172.1" y1="96.2" x2="212.1" y2="75.6" stroke="rgb(0,0,0)"  stroke-width="2.0"/>
<line x1="97.3" y1="96.7" x2="134.6" y2="74.9" stroke="rgb(0,0,0)"  stroke-width="2.0"/>
<line x1="97.3" y1="96.7" x2="82.8" y2="90.9" stroke="rgb(0,0,0)"  stroke-width="2.0"/>
<line x1="68.9" y1="73.2" x2="66.6" y2="57.7" stroke="rgb(0,0,0)"  stroke-width="2.0"/>
<line x1="64.8" y1="55.4" x2="77.1" y2="45.7" stroke="rgb(0,0,0)"  stroke-width="2.0"/>
<line x1="68.5" y1="60.1" x2="80.8" y2="50.4" stroke="rgb(0,0,0)"  stroke-width="2.0"/>
<line x1="66.6" y1="57.7" x2="52.1" y2="51.9" stroke="rgb(0,0,0)"  stroke-width="2.0"/>
<line x1="184.6" y1="143.3" x2="211.7" y2="155.2" stroke="rgb(0,0,0)"  stroke-width="2.0"/>
<line x1="182.2" y1="148.8" x2="209.2" y2="160.7" stroke="rgb(0,0,0)"  stroke-width="2.0"/>
<line x1="260.5" y1="223.6" x2="284.9" y2="207.3" stroke="rgb(0,0,0)"  stroke-width="2.0"/>
<line x1="265.9" y1="228.7" x2="284.0" y2="216.6" stroke="rgb(0,0,0)"  stroke-width="2.0"/>
<line x1="284.9" y1="207.3" x2="308.9" y2="225.3" stroke="rgb(0,0,0)"  stroke-width="2.0"/>
<line x1="315.2" y1="245.4" x2="306.0" y2="273.5" stroke="rgb(0,0,0)"  stroke-width="2.0"/>
<line x1="306.0" y1="273.5" x2="261.4" y2="273.5" stroke="rgb(0,0,0)"  stroke-width="2.0"/>
<line x1="261.4" y1="273.5" x2="252.3" y2="244.1" stroke="rgb(0,0,0)"  stroke-width="2.0"/>
<line x1="210.5" y1="158.0" x2="247.9" y2="142.7" stroke="rgb(0,0,0)"  stroke-width="2.0"/>
<line x1="247.9" y1="142.7" x2="285.8" y2="162.7" stroke="rgb(0,0,0)"  stroke-width="2.0"/>
<line x1="285.8" y1="162.7" x2="323.4" y2="141.2" stroke="rgb(0,0,0)"  stroke-width="2.0"/>
<line x1="287.4" y1="153.5" x2="314.6" y2="137.9" stroke="rgb(0,0,0)"  stroke-width="2.0"/>
<line x1="323.4" y1="141.2" x2="323.3" y2="96.0" stroke="rgb(0,0,0)"  stroke-width="2.0"/>
<line x1="323.3" y1="96.0" x2="284.2" y2="74.6" stroke="rgb(0,0,0)"  stroke-width="2.0"/>
<line x1="314.6" y1="99.5" x2="286.0" y2="83.8" stroke="rgb(0,0,0)"  stroke-width="2.0"/>
<line x1="284.2" y1="74.6" x2="248.6" y2="96.9" stroke="rgb(0,0,0)"  stroke-width="2.0"/>
<line x1="248.6" y1="96.9" x2="247.1" y2="138.8" stroke="rgb(0,0,0)"  stroke-width="2.0"/>
<line x1="247.1" y1="138.8" x2="210.5" y2="158.0" stroke="rgb(0,0,0)"  stroke-width="2.0"/>
<text x="192.713281" y="292.473418" fill="rgb(102,102,102)"  stroke="rgb(102,102,102)" stroke-width="1" font-size="16" >H</text>
<text x="204.713281" y="296.153418" fill="rgb(102,102,102)"  stroke="rgb(102,102,102)" stroke-width="1" font-size="13" >3</text>
<text x="211.213281" y="292.473418" fill="rgb(102,102,102)"  stroke="rgb(102,102,102)" stroke-width="1" font-size="16" >C</text>
<text x="242.511246" y="239.643500" fill="rgb(12,12,255)"  stroke="rgb(12,12,255)" stroke-width="1" font-size="16" >N</text>
<text x="313.300757" y="241.087833" fill="rgb(255,12,12)"  stroke="rgb(255,12,12)" stroke-width="1" font-size="16" >O</text>
<text x="223.992834" y="323.836078" fill="rgb(102,102,102)"  stroke="rgb(102,102,102)" stroke-width="1" font-size="16" >H</text>
<text x="235.992834" y="327.516078" fill="rgb(102,102,102)"  stroke="rgb(102,102,102)" stroke-width="1" font-size="13" >3</text>
<text x="242.492834" y="323.836078" fill="rgb(102,102,102)"  stroke="rgb(102,102,102)" stroke-width="1" font-size="16" >C</text>
<text x="291.827767" y="57.350910" fill="rgb(255,12,12)"  stroke="rgb(255,12,12)" stroke-width="1" font-size="16" >O</text>
<text x="322.470839" y="56.502651" fill="rgb(102,102,102)"  stroke="rgb(102,102,102)" stroke-width="1" font-size="16" >CH</text>
<text x="346.470839" y="60.182651" fill="rgb(102,102,102)"  stroke="rgb(102,102,102)" stroke-width="1" font-size="13" >3</text>
<text x="64.723599" y="94.098295" fill="rgb(255,12,12)"  stroke="rgb(255,12,12)" stroke-width="1" font-size="16" >O</text>
<text x="83.121650" y="48.000000" fill="rgb(255,12,12)"  stroke="rgb(255,12,12)" stroke-width="1" font-size="16" >O</text>
<text x="14.000000" y="55.115633" fill="rgb(102,102,102)"  stroke="rgb(102,102,102)" stroke-width="1" font-size="16" >H</text>
<text x="26.000000" y="58.795633" fill="rgb(102,102,102)"  stroke="rgb(102,102,102)" stroke-width="1" font-size="13" >3</text>
<text x="32.500000" y="55.115633" fill="rgb(102,102,102)"  stroke="rgb(102,102,102)" stroke-width="1" font-size="16" >C</text>
<text x="145.517408" y="148.813869" fill="rgb(102,102,102)"  stroke="rgb(102,102,102)" stroke-width="1" font-size="16" >H</text>
<text x="157.517408" y="152.493869" fill="rgb(102,102,102)"  stroke="rgb(102,102,102)" stroke-width="1" font-size="13" >2</text>
<text x="164.017408" y="148.813869" fill="rgb(102,102,102)"  stroke="rgb(102,102,102)" stroke-width="1" font-size="16" >C</text>
</svg>
</g>
<text font-size="18.000000" fill ="black" font-family="sans-serif"
x="10.000000" y="20.000000" ></text>
</svg>
