<?xml version="1.0"?>
<svg version="1.1" id="topsvg"
xmlns="http://www.w3.org/2000/svg" xmlns:xlink="http://www.w3.org/1999/xlink"
xmlns:cml="http://www.xml-cml.org/schema" x="0" y="0" width="200px" height="200px" viewBox="0 0 100 100">
<title> - Open Babel Depiction</title>
<rect x="0" y="0" width="100" height="100" fill="white"/>
<g transform="translate(0,0)">
<svg width="100" height="100" x="0" y="0" viewBox="0 0 179.62 356.139"
font-family="sans-serif" stroke="rgb(0,0,0)" stroke-width="2"  stroke-linecap="round">
<line x1="52.6" y1="282.9" x2="81.3" y2="275.4" stroke="rgb(0,0,0)"  stroke-width="2.0"/>
<line x1="81.3" y1="275.4" x2="73.1" y2="303.7" stroke="rgb(0,0,0)"  stroke-width="2.0"/>
<line x1="103.0" y1="211.3" x2="103.0" y2="170.2" stroke="rgb(0,0,0)"  stroke-width="2.0"/>
<line x1="102.7" y1="87.8" x2="109.4" y2="74.8" stroke="rgb(0,0,0)"  stroke-width="2.0"/>
<line x1="108.5" y1="52.3" x2="107.6" y2="51.0" stroke="rgb(0,0,0)"  stroke-width="2.0"/>
<line x1="67.2" y1="149.9" x2="67.2" y2="106.7" stroke="rgb(0,0,0)"  stroke-width="2.0"/>
<line x1="74.4" y1="143.8" x2="74.4" y2="112.7" stroke="rgb(0,0,0)"  stroke-width="2.0"/>
<line x1="67.2" y1="106.7" x2="102.7" y2="87.8" stroke="rgb(0,0,0)"  stroke-width="2.0"/>
<line x1="102.7" y1="87.8" x2="139.6" y2="107.2" stroke="rgb(0,0,0)"  stroke-width="2.0"/>
<line x1="104.6" y1="97.0" x2="131.0" y2="110.8" stroke="rgb(0,0,0)"  stroke-width="2.0"/>
<line x1="139.6" y1="107.2" x2="139.5" y2="149.9" stroke="rgb(0,0,0)"  stroke-width="2.0"/>
<line x1="139.5" y1="149.9" x2="103.0" y2="170.2" stroke="rgb(0,0,0)"  stroke-width="2.0"/>
<line x1="130.8" y1="146.6" x2="104.8" y2="161.0" stroke="rgb(0,0,0)"  stroke-width="2.0"/>
<line x1="103.0" y1="170.2" x2="67.2" y2="149.9" stroke="rgb(0,0,0)"  stroke-width="2.0"/>
<line x1="79.6" y1="227.9" x2="103.0" y2="211.3" stroke="rgb(0,0,0)"  stroke-width="2.0"/>
<line x1="85.2" y1="232.7" x2="102.3" y2="220.7" stroke="rgb(0,0,0)"  stroke-width="2.0"/>
<line x1="103.0" y1="211.3" x2="125.4" y2="229.8" stroke="rgb(0,0,0)"  stroke-width="2.0"/>
<line x1="131.4" y1="250.4" x2="123.1" y2="275.9" stroke="rgb(0,0,0)"  stroke-width="2.0"/>
<line x1="123.1" y1="275.9" x2="81.3" y2="275.4" stroke="rgb(0,0,0)"  stroke-width="2.0"/>
<line x1="81.3" y1="275.4" x2="72.2" y2="248.3" stroke="rgb(0,0,0)"  stroke-width="2.0"/>
<text x="14.000000" y="294.203736" fill="rgb(102,102,102)"  stroke="rgb(102,102,102)" stroke-width="1" font-size="16" >H</text>
<text x="26.000000" y="297.883736" fill="rgb(102,102,102)"  stroke="rgb(102,102,102)" stroke-width="1" font-size="13" >3</text>
<text x="32.500000" y="294.203736" fill="rgb(102,102,102)"  stroke="rgb(102,102,102)" stroke-width="1" font-size="16" >C</text>
<text x="62.120599" y="243.996075" fill="rgb(12,12,255)"  stroke="rgb(12,12,255)" stroke-width="1" font-size="16" >N</text>
<text x="129.412235" y="246.076320" fill="rgb(255,12,12)"  stroke="rgb(255,12,12)" stroke-width="1" font-size="16" >O</text>
<text x="43.435601" y="324.139370" fill="rgb(102,102,102)"  stroke="rgb(102,102,102)" stroke-width="1" font-size="16" >H</text>
<text x="55.435601" y="327.819370" fill="rgb(102,102,102)"  stroke="rgb(102,102,102)" stroke-width="1" font-size="13" >3</text>
<text x="61.935601" y="324.139370" fill="rgb(102,102,102)"  stroke="rgb(102,102,102)" stroke-width="1" font-size="16" >C</text>
<text x="109.452384" y="71.302609" fill="rgb(255,12,12)"  stroke="rgb(255,12,12)" stroke-width="1" font-size="16" >O</text>
<text x="74.614409" y="48.000000" fill="rgb(102,102,102)"  stroke="rgb(102,102,102)" stroke-width="1" font-size="16" >H</text>
<text x="86.614409" y="51.680000" fill="rgb(102,102,102)"  stroke="rgb(102,102,102)" stroke-width="1" font-size="13" >3</text>
<text x="93.114409" y="48.000000" fill="rgb(102,102,102)"  stroke="rgb(102,102,102)" stroke-width="1" font-size="16" >C</text>
</svg>
</g>
<text font-size="18.000000" fill ="black" font-family="sans-serif"
x="10.000000" y="20.000000" ></text>
</svg>
