<?xml version="1.0"?>
<svg version="1.1" id="topsvg"
xmlns="http://www.w3.org/2000/svg" xmlns:xlink="http://www.w3.org/1999/xlink"
xmlns:cml="http://www.xml-cml.org/schema" x="0" y="0" width="200px" height="200px" viewBox="0 0 100 100">
<title> - Open Babel Depiction</title>
<rect x="0" y="0" width="100" height="100" fill="white"/>
<g transform="translate(0,0)">
<svg width="100" height="100" x="0" y="0" viewBox="0 0 290.03 342.661"
font-family="sans-serif" stroke="rgb(0,0,0)" stroke-width="2"  stroke-linecap="round">
<line x1="165.8" y1="270.3" x2="192.6" y2="263.4" stroke="rgb(0,0,0)"  stroke-width="2.0"/>
<line x1="192.6" y1="263.4" x2="185.5" y2="290.1" stroke="rgb(0,0,0)"  stroke-width="2.0"/>
<line x1="180.2" y1="139.2" x2="145.0" y2="156.4" stroke="rgb(0,0,0)"  stroke-width="2.0"/>
<polygon points="180.214229 139.157692 176.606855 97.437192 184.606500 97.512510 " stroke-width="2.000000" fill="rgb(0,0,0)"  stroke="rgb(0,0,0)" />
<line x1="180.6" y1="97.5" x2="145.6" y2="79.1" stroke="rgb(0,0,0)"  stroke-width="2.0"/>
<line x1="179.6" y1="91.7" x2="181.2" y2="91.6" stroke="rgb(0,0,0)"  stroke-width="1.0"/>
<line x1="178.8" y1="87.1" x2="181.6" y2="86.9" stroke="rgb(0,0,0)"  stroke-width="1.0"/>
<line x1="177.9" y1="82.4" x2="182.1" y2="82.3" stroke="rgb(0,0,0)"  stroke-width="1.0"/>
<line x1="177.1" y1="77.8" x2="182.6" y2="77.6" stroke="rgb(0,0,0)"  stroke-width="1.0"/>
<line x1="176.3" y1="73.2" x2="183.0" y2="72.9" stroke="rgb(0,0,0)"  stroke-width="1.0"/>
<line x1="175.5" y1="68.5" x2="183.5" y2="68.2" stroke="rgb(0,0,0)"  stroke-width="1.0"/>
<line x1="49.8" y1="90.1" x2="74.1" y2="76.2" stroke="rgb(0,0,0)"  stroke-width="2.0"/>
<line x1="52.8" y1="95.3" x2="77.1" y2="81.4" stroke="rgb(0,0,0)"  stroke-width="2.0"/>
<line x1="75.6" y1="78.8" x2="110.3" y2="99.2" stroke="rgb(0,0,0)"  stroke-width="2.0"/>
<line x1="110.3" y1="99.2" x2="145.6" y2="79.1" stroke="rgb(0,0,0)"  stroke-width="2.0"/>
<line x1="207.3" y1="80.1" x2="209.2" y2="52.8" stroke="rgb(0,0,0)"  stroke-width="2.0"/>
<line x1="213.2" y1="80.6" x2="215.2" y2="53.2" stroke="rgb(0,0,0)"  stroke-width="2.0"/>
<line x1="215.2" y1="167.0" x2="213.6" y2="167.0" stroke="rgb(0,0,0)"  stroke-width="1.0"/>
<line x1="215.8" y1="174.3" x2="212.9" y2="174.3" stroke="rgb(0,0,0)"  stroke-width="1.0"/>
<line x1="216.4" y1="181.7" x2="212.2" y2="181.7" stroke="rgb(0,0,0)"  stroke-width="1.0"/>
<line x1="217.0" y1="189.0" x2="211.6" y2="189.0" stroke="rgb(0,0,0)"  stroke-width="1.0"/>
<line x1="217.6" y1="196.4" x2="210.9" y2="196.3" stroke="rgb(0,0,0)"  stroke-width="1.0"/>
<line x1="218.2" y1="203.7" x2="210.2" y2="203.7" stroke="rgb(0,0,0)"  stroke-width="1.0"/>
<line x1="177.5" y1="144.2" x2="145.0" y2="156.4" stroke="rgb(0,0,0)"  stroke-width="2.0"/>
<line x1="178.4" y1="167.6" x2="177.5" y2="144.2" stroke="rgb(0,0,0)"  stroke-width="2.0"/>
<line x1="122.5" y1="142.6" x2="146.3" y2="153.7" stroke="rgb(0,0,0)"  stroke-width="2.0"/>
<line x1="119.9" y1="148.0" x2="143.7" y2="159.1" stroke="rgb(0,0,0)"  stroke-width="2.0"/>
<line x1="191.5" y1="217.8" x2="214.2" y2="203.7" stroke="rgb(0,0,0)"  stroke-width="2.0"/>
<line x1="197.0" y1="222.9" x2="212.9" y2="213.0" stroke="rgb(0,0,0)"  stroke-width="2.0"/>
<line x1="214.2" y1="203.7" x2="234.7" y2="218.5" stroke="rgb(0,0,0)"  stroke-width="2.0"/>
<line x1="241.4" y1="238.5" x2="233.7" y2="263.3" stroke="rgb(0,0,0)"  stroke-width="2.0"/>
<line x1="233.7" y1="263.3" x2="192.6" y2="263.4" stroke="rgb(0,0,0)"  stroke-width="2.0"/>
<line x1="192.6" y1="263.4" x2="184.2" y2="237.1" stroke="rgb(0,0,0)"  stroke-width="2.0"/>
<line x1="180.2" y1="139.2" x2="180.6" y2="97.5" stroke="rgb(0,0,0)"  stroke-width="2.0"/>
<line x1="180.6" y1="97.5" x2="210.2" y2="80.3" stroke="rgb(0,0,0)"  stroke-width="2.0"/>
<line x1="210.2" y1="80.3" x2="249.2" y2="99.4" stroke="rgb(0,0,0)"  stroke-width="2.0"/>
<line x1="249.2" y1="99.4" x2="250.0" y2="140.9" stroke="rgb(0,0,0)"  stroke-width="2.0"/>
<line x1="250.0" y1="140.9" x2="214.4" y2="157.8" stroke="rgb(0,0,0)"  stroke-width="2.0"/>
<line x1="214.4" y1="157.8" x2="180.2" y2="139.2" stroke="rgb(0,0,0)"  stroke-width="2.0"/>
<text x="127.213253" y="281.598094" fill="rgb(102,102,102)"  stroke="rgb(102,102,102)" stroke-width="1" font-size="16" >H</text>
<text x="139.213253" y="285.278094" fill="rgb(102,102,102)"  stroke="rgb(102,102,102)" stroke-width="1" font-size="13" >3</text>
<text x="145.713253" y="281.598094" fill="rgb(102,102,102)"  stroke="rgb(102,102,102)" stroke-width="1" font-size="16" >C</text>
<text x="174.281429" y="232.751728" fill="rgb(12,12,255)"  stroke="rgb(12,12,255)" stroke-width="1" font-size="16" >N</text>
<text x="239.212796" y="234.090353" fill="rgb(255,12,12)"  stroke="rgb(255,12,12)" stroke-width="1" font-size="16" >O</text>
<text x="156.165718" y="310.660767" fill="rgb(102,102,102)"  stroke="rgb(102,102,102)" stroke-width="1" font-size="16" >H</text>
<text x="168.165718" y="314.340767" fill="rgb(102,102,102)"  stroke="rgb(102,102,102)" stroke-width="1" font-size="13" >3</text>
<text x="174.665718" y="310.660767" fill="rgb(102,102,102)"  stroke="rgb(102,102,102)" stroke-width="1" font-size="16" >C</text>
<text x="14.000000" y="107.138724" fill="rgb(102,102,102)"  stroke="rgb(102,102,102)" stroke-width="1" font-size="16" >H</text>
<text x="26.000000" y="110.818724" fill="rgb(102,102,102)"  stroke="rgb(102,102,102)" stroke-width="1" font-size="13" >2</text>
<text x="32.500000" y="107.138724" fill="rgb(102,102,102)"  stroke="rgb(102,102,102)" stroke-width="1" font-size="16" >C</text>
<text x="207.083113" y="48.000000" fill="rgb(255,12,12)"  stroke="rgb(255,12,12)" stroke-width="1" font-size="16" >O</text>
<text x="172.942804" y="188.571733" fill="rgb(191,191,191)"  stroke="rgb(191,191,191)" stroke-width="1" font-size="16" >H</text>
<text x="152.929364" y="62.069001" fill="rgb(102,102,102)"  stroke="rgb(102,102,102)" stroke-width="1" font-size="16" >H</text>
<text x="164.929364" y="65.749001" fill="rgb(102,102,102)"  stroke="rgb(102,102,102)" stroke-width="1" font-size="13" >3</text>
<text x="171.429364" y="62.069001" fill="rgb(102,102,102)"  stroke="rgb(102,102,102)" stroke-width="1" font-size="16" >C</text>
<text x="83.409578" y="147.800125" fill="rgb(102,102,102)"  stroke="rgb(102,102,102)" stroke-width="1" font-size="16" >H</text>
<text x="95.409578" y="151.480125" fill="rgb(102,102,102)"  stroke="rgb(102,102,102)" stroke-width="1" font-size="13" >2</text>
<text x="101.909578" y="147.800125" fill="rgb(102,102,102)"  stroke="rgb(102,102,102)" stroke-width="1" font-size="16" >C</text>
</svg>
</g>
<text font-size="18.000000" fill ="black" font-family="sans-serif"
x="10.000000" y="20.000000" ></text>
</svg>
