<?xml version="1.0"?>
<svg version="1.1" id="topsvg"
xmlns="http://www.w3.org/2000/svg" xmlns:xlink="http://www.w3.org/1999/xlink"
xmlns:cml="http://www.xml-cml.org/schema" x="0" y="0" width="200px" height="200px" viewBox="0 0 100 100">
<title> - Open Babel Depiction</title>
<rect x="0" y="0" width="100" height="100" fill="white"/>
<g transform="translate(0,0)">
<svg width="100" height="100" x="0" y="0" viewBox="0 0 305.156 357.584"
font-family="sans-serif" stroke="rgb(0,0,0)" stroke-width="2"  stroke-linecap="round">
<line x1="241.2" y1="274.9" x2="257.7" y2="298.4" stroke="rgb(0,0,0)"  stroke-width="2.0"/>
<line x1="240.6" y1="304.6" x2="241.2" y2="274.9" stroke="rgb(0,0,0)"  stroke-width="2.0"/>
<line x1="219.5" y1="170.5" x2="219.6" y2="211.3" stroke="rgb(0,0,0)"  stroke-width="2.0"/>
<line x1="184.1" y1="150.0" x2="148.1" y2="166.3" stroke="rgb(0,0,0)"  stroke-width="2.0"/>
<polygon points="184.096858 149.957401 180.165400 108.028386 188.165389 108.041464 " stroke-width="2.000000" fill="rgb(0,0,0)"  stroke="rgb(0,0,0)" />
<line x1="49.7" y1="99.6" x2="75.3" y2="84.5" stroke="rgb(0,0,0)"  stroke-width="2.0"/>
<line x1="52.7" y1="104.8" x2="78.3" y2="89.7" stroke="rgb(0,0,0)"  stroke-width="2.0"/>
<line x1="76.8" y1="87.1" x2="112.8" y2="107.4" stroke="rgb(0,0,0)"  stroke-width="2.0"/>
<polygon points="146.977429 86.903717 114.867797 110.787102 110.758799 103.922982 " stroke-width="2.000000" fill="rgb(0,0,0)"  stroke="rgb(0,0,0)" />
<line x1="147.0" y1="86.9" x2="154.9" y2="59.0" stroke="rgb(0,0,0)"  stroke-width="2.0"/>
<line x1="184.2" y1="108.0" x2="147.0" y2="86.9" stroke="rgb(0,0,0)"  stroke-width="2.0"/>
<line x1="183.2" y1="101.6" x2="184.8" y2="101.6" stroke="rgb(0,0,0)"  stroke-width="1.0"/>
<line x1="182.4" y1="96.5" x2="185.3" y2="96.4" stroke="rgb(0,0,0)"  stroke-width="1.0"/>
<line x1="181.6" y1="91.4" x2="185.8" y2="91.2" stroke="rgb(0,0,0)"  stroke-width="1.0"/>
<line x1="180.8" y1="86.2" x2="186.3" y2="86.1" stroke="rgb(0,0,0)"  stroke-width="1.0"/>
<line x1="180.1" y1="81.1" x2="186.8" y2="80.9" stroke="rgb(0,0,0)"  stroke-width="1.0"/>
<line x1="179.3" y1="76.0" x2="187.3" y2="75.8" stroke="rgb(0,0,0)"  stroke-width="1.0"/>
<line x1="225.7" y1="52.6" x2="224.9" y2="51.4" stroke="rgb(0,0,0)"  stroke-width="2.0"/>
<line x1="226.5" y1="75.1" x2="219.8" y2="87.9" stroke="rgb(0,0,0)"  stroke-width="2.0"/>
<line x1="124.9" y1="151.8" x2="149.4" y2="163.6" stroke="rgb(0,0,0)"  stroke-width="2.0"/>
<line x1="122.3" y1="157.2" x2="146.8" y2="169.0" stroke="rgb(0,0,0)"  stroke-width="2.0"/>
<line x1="171.1" y1="43.3" x2="171.7" y2="43.2" stroke="rgb(0,0,0)"  stroke-width="2.0"/>
<line x1="198.7" y1="275.0" x2="189.9" y2="248.5" stroke="rgb(0,0,0)"  stroke-width="2.0"/>
<line x1="196.2" y1="228.5" x2="219.6" y2="211.3" stroke="rgb(0,0,0)"  stroke-width="2.0"/>
<line x1="219.6" y1="211.3" x2="242.2" y2="228.0" stroke="rgb(0,0,0)"  stroke-width="2.0"/>
<line x1="220.2" y1="220.7" x2="236.5" y2="232.7" stroke="rgb(0,0,0)"  stroke-width="2.0"/>
<line x1="249.5" y1="248.6" x2="241.2" y2="274.9" stroke="rgb(0,0,0)"  stroke-width="2.0"/>
<line x1="241.2" y1="274.9" x2="198.7" y2="275.0" stroke="rgb(0,0,0)"  stroke-width="2.0"/>
<line x1="184.2" y1="108.0" x2="184.1" y2="150.0" stroke="rgb(0,0,0)"  stroke-width="2.0"/>
<line x1="184.1" y1="150.0" x2="219.5" y2="170.5" stroke="rgb(0,0,0)"  stroke-width="2.0"/>
<line x1="219.5" y1="170.5" x2="255.7" y2="150.4" stroke="rgb(0,0,0)"  stroke-width="2.0"/>
<line x1="221.2" y1="161.3" x2="247.0" y2="147.0" stroke="rgb(0,0,0)"  stroke-width="2.0"/>
<line x1="255.7" y1="150.4" x2="255.6" y2="107.5" stroke="rgb(0,0,0)"  stroke-width="2.0"/>
<line x1="255.6" y1="107.5" x2="219.8" y2="87.9" stroke="rgb(0,0,0)"  stroke-width="2.0"/>
<line x1="246.9" y1="111.0" x2="221.6" y2="97.1" stroke="rgb(0,0,0)"  stroke-width="2.0"/>
<line x1="219.8" y1="87.9" x2="184.2" y2="108.0" stroke="rgb(0,0,0)"  stroke-width="2.0"/>
<text x="179.736254" y="244.184684" fill="rgb(255,12,12)"  stroke="rgb(255,12,12)" stroke-width="1" font-size="16" >O</text>
<text x="261.156481" y="317.014431" fill="rgb(102,102,102)"  stroke="rgb(102,102,102)" stroke-width="1" font-size="16" >CH</text>
<text x="285.156481" y="320.694431" fill="rgb(102,102,102)"  stroke="rgb(102,102,102)" stroke-width="1" font-size="13" >3</text>
<text x="214.310588" y="325.584249" fill="rgb(102,102,102)"  stroke="rgb(102,102,102)" stroke-width="1" font-size="16" >H</text>
<text x="226.310588" y="329.264249" fill="rgb(102,102,102)"  stroke="rgb(102,102,102)" stroke-width="1" font-size="13" >3</text>
<text x="232.810588" y="325.584249" fill="rgb(102,102,102)"  stroke="rgb(102,102,102)" stroke-width="1" font-size="16" >C</text>
<text x="14.000000" y="116.832691" fill="rgb(102,102,102)"  stroke="rgb(102,102,102)" stroke-width="1" font-size="16" >H</text>
<text x="26.000000" y="120.512691" fill="rgb(102,102,102)"  stroke="rgb(102,102,102)" stroke-width="1" font-size="13" >2</text>
<text x="32.500000" y="116.832691" fill="rgb(102,102,102)"  stroke="rgb(102,102,102)" stroke-width="1" font-size="16" >C</text>
<text x="226.593366" y="71.634166" fill="rgb(255,12,12)"  stroke="rgb(255,12,12)" stroke-width="1" font-size="16" >O</text>
<text x="191.997808" y="48.427668" fill="rgb(102,102,102)"  stroke="rgb(102,102,102)" stroke-width="1" font-size="16" >H</text>
<text x="203.997808" y="52.107668" fill="rgb(102,102,102)"  stroke="rgb(102,102,102)" stroke-width="1" font-size="13" >3</text>
<text x="210.497808" y="48.427668" fill="rgb(102,102,102)"  stroke="rgb(102,102,102)" stroke-width="1" font-size="16" >C</text>
<text x="247.338028" y="244.184684" fill="rgb(12,12,255)"  stroke="rgb(12,12,255)" stroke-width="1" font-size="16" >N</text>
<text x="85.892166" y="156.847107" fill="rgb(102,102,102)"  stroke="rgb(102,102,102)" stroke-width="1" font-size="16" >H</text>
<text x="97.892166" y="160.527107" fill="rgb(102,102,102)"  stroke="rgb(102,102,102)" stroke-width="1" font-size="13" >2</text>
<text x="104.392166" y="156.847107" fill="rgb(102,102,102)"  stroke="rgb(102,102,102)" stroke-width="1" font-size="16" >C</text>
<text x="152.488838" y="54.483564" fill="rgb(255,12,12)"  stroke="rgb(255,12,12)" stroke-width="1" font-size="16" >O</text>
<text x="156.846750" y="68.012691" fill="rgb(102,102,102)"  stroke="rgb(102,102,102)" stroke-width="1" font-size="16" >H</text>
<text x="168.846750" y="71.692691" fill="rgb(102,102,102)"  stroke="rgb(102,102,102)" stroke-width="1" font-size="13" >3</text>
<text x="175.346750" y="68.012691" fill="rgb(102,102,102)"  stroke="rgb(102,102,102)" stroke-width="1" font-size="16" >C</text>
<text x="178.277795" y="48.000000" fill="rgb(191,191,191)"  stroke="rgb(191,191,191)" stroke-width="1" font-size="16" >H</text>
</svg>
</g>
<text font-size="18.000000" fill ="black" font-family="sans-serif"
x="10.000000" y="20.000000" ></text>
</svg>
