<?xml version="1.0"?>
<svg version="1.1" id="topsvg"
xmlns="http://www.w3.org/2000/svg" xmlns:xlink="http://www.w3.org/1999/xlink"
xmlns:cml="http://www.xml-cml.org/schema" x="0" y="0" width="200px" height="200px" viewBox="0 0 100 100">
<title> - Open Babel Depiction</title>
<rect x="0" y="0" width="100" height="100" fill="white"/>
<g transform="translate(0,0)">
<svg width="100" height="100" x="0" y="0" viewBox="0 0 263.167 350.589"
font-family="sans-serif" stroke="rgb(0,0,0)" stroke-width="2"  stroke-linecap="round">
<line x1="160.0" y1="270.9" x2="132.4" y2="277.6" stroke="rgb(0,0,0)"  stroke-width="2.0"/>
<line x1="160.0" y1="270.9" x2="152.7" y2="298.0" stroke="rgb(0,0,0)"  stroke-width="2.0"/>
<line x1="161.0" y1="225.8" x2="171.2" y2="221.7" stroke="rgb(0,0,0)"  stroke-width="2.0"/>
<line x1="182.1" y1="206.0" x2="183.3" y2="165.3" stroke="rgb(0,0,0)"  stroke-width="2.0"/>
<polygon points="147.545125 144.488916 113.654522 164.714816 110.272080 157.465051 " stroke-width="2.000000" fill="rgb(0,0,0)"  stroke="rgb(0,0,0)" />
<line x1="208.8" y1="57.4" x2="210.2" y2="57.4" stroke="rgb(0,0,0)"  stroke-width="2.0"/>
<line x1="189.7" y1="69.3" x2="182.9" y2="82.0" stroke="rgb(0,0,0)"  stroke-width="2.0"/>
<line x1="37.0" y1="82.9" x2="37.4" y2="53.0" stroke="rgb(0,0,0)"  stroke-width="2.0"/>
<line x1="43.0" y1="83.0" x2="43.4" y2="53.0" stroke="rgb(0,0,0)"  stroke-width="2.0"/>
<line x1="75.6" y1="102.9" x2="111.7" y2="82.3" stroke="rgb(0,0,0)"  stroke-width="2.0"/>
<line x1="75.6" y1="102.9" x2="40.0" y2="83.0" stroke="rgb(0,0,0)"  stroke-width="2.0"/>
<line x1="140.0" y1="99.6" x2="140.8" y2="98.2" stroke="rgb(0,0,0)"  stroke-width="1.0"/>
<line x1="133.9" y1="96.9" x2="135.4" y2="94.4" stroke="rgb(0,0,0)"  stroke-width="1.0"/>
<line x1="127.9" y1="94.1" x2="130.0" y2="90.5" stroke="rgb(0,0,0)"  stroke-width="1.0"/>
<line x1="121.8" y1="91.3" x2="124.6" y2="86.6" stroke="rgb(0,0,0)"  stroke-width="1.0"/>
<line x1="115.8" y1="88.5" x2="119.2" y2="82.7" stroke="rgb(0,0,0)"  stroke-width="1.0"/>
<line x1="109.7" y1="85.8" x2="113.7" y2="78.8" stroke="rgb(0,0,0)"  stroke-width="1.0"/>
<line x1="88.6" y1="146.7" x2="113.2" y2="158.4" stroke="rgb(0,0,0)"  stroke-width="2.0"/>
<line x1="86.0" y1="152.1" x2="110.7" y2="163.8" stroke="rgb(0,0,0)"  stroke-width="2.0"/>
<line x1="159.4" y1="222.9" x2="182.1" y2="206.0" stroke="rgb(0,0,0)"  stroke-width="2.0"/>
<line x1="182.1" y1="206.0" x2="205.2" y2="223.5" stroke="rgb(0,0,0)"  stroke-width="2.0"/>
<line x1="211.5" y1="243.8" x2="202.8" y2="270.6" stroke="rgb(0,0,0)"  stroke-width="2.0"/>
<line x1="202.8" y1="270.6" x2="160.0" y2="270.9" stroke="rgb(0,0,0)"  stroke-width="2.0"/>
<line x1="160.0" y1="270.9" x2="152.4" y2="243.3" stroke="rgb(0,0,0)"  stroke-width="2.0"/>
<line x1="147.5" y1="144.5" x2="183.3" y2="165.3" stroke="rgb(0,0,0)"  stroke-width="2.0"/>
<line x1="183.3" y1="165.3" x2="219.0" y2="145.9" stroke="rgb(0,0,0)"  stroke-width="2.0"/>
<line x1="185.1" y1="156.1" x2="210.3" y2="142.4" stroke="rgb(0,0,0)"  stroke-width="2.0"/>
<line x1="219.0" y1="145.9" x2="219.4" y2="102.6" stroke="rgb(0,0,0)"  stroke-width="2.0"/>
<line x1="219.4" y1="102.6" x2="182.9" y2="82.0" stroke="rgb(0,0,0)"  stroke-width="2.0"/>
<line x1="210.6" y1="105.9" x2="184.6" y2="91.2" stroke="rgb(0,0,0)"  stroke-width="2.0"/>
<line x1="182.9" y1="82.0" x2="147.5" y2="103.1" stroke="rgb(0,0,0)"  stroke-width="2.0"/>
<line x1="147.5" y1="103.1" x2="147.5" y2="144.5" stroke="rgb(0,0,0)"  stroke-width="2.0"/>
<text x="93.817428" y="288.695580" fill="rgb(102,102,102)"  stroke="rgb(102,102,102)" stroke-width="1" font-size="16" >H</text>
<text x="105.817428" y="292.375580" fill="rgb(102,102,102)"  stroke="rgb(102,102,102)" stroke-width="1" font-size="13" >3</text>
<text x="112.317428" y="288.695580" fill="rgb(102,102,102)"  stroke="rgb(102,102,102)" stroke-width="1" font-size="16" >C</text>
<text x="142.985596" y="238.717262" fill="rgb(12,12,255)"  stroke="rgb(12,12,255)" stroke-width="1" font-size="16" >N</text>
<text x="209.532069" y="239.401896" fill="rgb(255,12,12)"  stroke="rgb(255,12,12)" stroke-width="1" font-size="16" >O</text>
<text x="189.795425" y="65.838836" fill="rgb(255,12,12)"  stroke="rgb(255,12,12)" stroke-width="1" font-size="16" >O</text>
<text x="219.167112" y="64.948812" fill="rgb(102,102,102)"  stroke="rgb(102,102,102)" stroke-width="1" font-size="16" >CH</text>
<text x="243.167112" y="68.628812" fill="rgb(102,102,102)"  stroke="rgb(102,102,102)" stroke-width="1" font-size="13" >3</text>
<text x="36.506630" y="48.000000" fill="rgb(102,102,102)"  stroke="rgb(102,102,102)" stroke-width="1" font-size="16" >CH</text>
<text x="60.506630" y="51.680000" fill="rgb(102,102,102)"  stroke="rgb(102,102,102)" stroke-width="1" font-size="13" >2</text>
<text x="179.288522" y="224.794535" fill="rgb(102,102,102)"  stroke="rgb(102,102,102)" stroke-width="1" font-size="16" >CH</text>
<text x="203.288522" y="228.474535" fill="rgb(102,102,102)"  stroke="rgb(102,102,102)" stroke-width="1" font-size="13" >3</text>
<text x="123.352560" y="318.589460" fill="rgb(102,102,102)"  stroke="rgb(102,102,102)" stroke-width="1" font-size="16" >H</text>
<text x="135.352560" y="322.269460" fill="rgb(102,102,102)"  stroke="rgb(102,102,102)" stroke-width="1" font-size="13" >3</text>
<text x="141.852560" y="318.589460" fill="rgb(102,102,102)"  stroke="rgb(102,102,102)" stroke-width="1" font-size="16" >C</text>
<text x="49.538007" y="151.864530" fill="rgb(102,102,102)"  stroke="rgb(102,102,102)" stroke-width="1" font-size="16" >H</text>
<text x="61.538007" y="155.544530" fill="rgb(102,102,102)"  stroke="rgb(102,102,102)" stroke-width="1" font-size="13" >2</text>
<text x="68.038007" y="151.864530" fill="rgb(102,102,102)"  stroke="rgb(102,102,102)" stroke-width="1" font-size="16" >C</text>
</svg>
</g>
<text font-size="18.000000" fill ="black" font-family="sans-serif"
x="10.000000" y="20.000000" ></text>
</svg>
