<?xml version="1.0"?>
<svg version="1.1" id="topsvg"
xmlns="http://www.w3.org/2000/svg" xmlns:xlink="http://www.w3.org/1999/xlink"
xmlns:cml="http://www.xml-cml.org/schema" x="0" y="0" width="200px" height="200px" viewBox="0 0 100 100">
<title> - Open Babel Depiction</title>
<rect x="0" y="0" width="100" height="100" fill="white"/>
<g transform="translate(0,0)">
<svg width="100" height="100" x="0" y="0" viewBox="0 0 374.01 355.361"
font-family="sans-serif" stroke="rgb(0,0,0)" stroke-width="2"  stroke-linecap="round">
<line x1="301.8" y1="302.8" x2="309.4" y2="274.7" stroke="rgb(0,0,0)"  stroke-width="2.0"/>
<line x1="311.8" y1="272.9" x2="328.8" y2="296.5" stroke="rgb(0,0,0)"  stroke-width="2.0"/>
<line x1="307.0" y1="276.5" x2="324.0" y2="300.0" stroke="rgb(0,0,0)"  stroke-width="2.0"/>
<line x1="289.3" y1="169.9" x2="289.5" y2="210.7" stroke="rgb(0,0,0)"  stroke-width="2.0"/>
<line x1="253.6" y1="150.5" x2="218.0" y2="166.3" stroke="rgb(0,0,0)"  stroke-width="2.0"/>
<polygon points="253.625239 150.468930 249.000880 107.411761 257.000041 107.295846 " stroke-width="2.000000" fill="rgb(0,0,0)"  stroke="rgb(0,0,0)" />
<line x1="182.6" y1="108.7" x2="216.8" y2="88.1" stroke="rgb(0,0,0)"  stroke-width="2.0"/>
<line x1="182.6" y1="108.7" x2="147.0" y2="89.1" stroke="rgb(0,0,0)"  stroke-width="2.0"/>
<line x1="213.8" y1="88.0" x2="214.7" y2="60.3" stroke="rgb(0,0,0)"  stroke-width="2.0"/>
<line x1="219.8" y1="88.2" x2="220.7" y2="60.4" stroke="rgb(0,0,0)"  stroke-width="2.0"/>
<line x1="111.8" y1="109.2" x2="147.0" y2="89.1" stroke="rgb(0,0,0)"  stroke-width="2.0"/>
<line x1="154.2" y1="60.0" x2="147.0" y2="89.1" stroke="rgb(0,0,0)"  stroke-width="2.0"/>
<line x1="169.8" y1="43.7" x2="170.1" y2="43.6" stroke="rgb(0,0,0)"  stroke-width="2.0"/>
<line x1="253.0" y1="107.4" x2="216.8" y2="88.1" stroke="rgb(0,0,0)"  stroke-width="2.0"/>
<line x1="252.2" y1="101.0" x2="253.8" y2="101.0" stroke="rgb(0,0,0)"  stroke-width="1.0"/>
<line x1="251.5" y1="96.0" x2="254.4" y2="96.0" stroke="rgb(0,0,0)"  stroke-width="1.0"/>
<line x1="250.9" y1="91.0" x2="255.0" y2="90.9" stroke="rgb(0,0,0)"  stroke-width="1.0"/>
<line x1="250.2" y1="85.9" x2="255.6" y2="85.9" stroke="rgb(0,0,0)"  stroke-width="1.0"/>
<line x1="249.5" y1="80.9" x2="256.2" y2="80.8" stroke="rgb(0,0,0)"  stroke-width="1.0"/>
<line x1="248.9" y1="75.8" x2="256.9" y2="75.8" stroke="rgb(0,0,0)"  stroke-width="1.0"/>
<line x1="295.2" y1="53.5" x2="294.6" y2="52.5" stroke="rgb(0,0,0)"  stroke-width="2.0"/>
<line x1="296.0" y1="76.0" x2="289.4" y2="88.5" stroke="rgb(0,0,0)"  stroke-width="2.0"/>
<line x1="194.9" y1="152.4" x2="219.2" y2="163.6" stroke="rgb(0,0,0)"  stroke-width="2.0"/>
<line x1="192.3" y1="157.8" x2="216.7" y2="169.1" stroke="rgb(0,0,0)"  stroke-width="2.0"/>
<line x1="111.5" y1="150.2" x2="75.9" y2="169.8" stroke="rgb(0,0,0)"  stroke-width="2.0"/>
<line x1="102.8" y1="146.8" x2="77.6" y2="160.6" stroke="rgb(0,0,0)"  stroke-width="2.0"/>
<line x1="75.9" y1="169.8" x2="40.0" y2="150.2" stroke="rgb(0,0,0)"  stroke-width="2.0"/>
<line x1="40.0" y1="150.2" x2="40.5" y2="108.4" stroke="rgb(0,0,0)"  stroke-width="2.0"/>
<line x1="47.3" y1="144.3" x2="47.6" y2="114.5" stroke="rgb(0,0,0)"  stroke-width="2.0"/>
<line x1="40.5" y1="108.4" x2="76.0" y2="87.8" stroke="rgb(0,0,0)"  stroke-width="2.0"/>
<line x1="76.0" y1="87.8" x2="111.8" y2="109.2" stroke="rgb(0,0,0)"  stroke-width="2.0"/>
<line x1="77.5" y1="97.1" x2="103.0" y2="112.3" stroke="rgb(0,0,0)"  stroke-width="2.0"/>
<line x1="111.8" y1="109.2" x2="111.5" y2="150.2" stroke="rgb(0,0,0)"  stroke-width="2.0"/>
<line x1="268.8" y1="275.0" x2="259.9" y2="247.9" stroke="rgb(0,0,0)"  stroke-width="2.0"/>
<line x1="266.3" y1="227.8" x2="289.5" y2="210.7" stroke="rgb(0,0,0)"  stroke-width="2.0"/>
<line x1="289.5" y1="210.7" x2="312.0" y2="227.3" stroke="rgb(0,0,0)"  stroke-width="2.0"/>
<line x1="290.0" y1="220.0" x2="306.3" y2="232.0" stroke="rgb(0,0,0)"  stroke-width="2.0"/>
<line x1="318.8" y1="247.8" x2="309.4" y2="274.7" stroke="rgb(0,0,0)"  stroke-width="2.0"/>
<line x1="309.4" y1="274.7" x2="268.8" y2="275.0" stroke="rgb(0,0,0)"  stroke-width="2.0"/>
<line x1="253.0" y1="107.4" x2="253.6" y2="150.5" stroke="rgb(0,0,0)"  stroke-width="2.0"/>
<line x1="253.6" y1="150.5" x2="289.3" y2="169.9" stroke="rgb(0,0,0)"  stroke-width="2.0"/>
<line x1="289.3" y1="169.9" x2="325.3" y2="150.5" stroke="rgb(0,0,0)"  stroke-width="2.0"/>
<line x1="291.2" y1="160.8" x2="316.6" y2="147.0" stroke="rgb(0,0,0)"  stroke-width="2.0"/>
<line x1="325.3" y1="150.5" x2="324.9" y2="109.1" stroke="rgb(0,0,0)"  stroke-width="2.0"/>
<line x1="324.9" y1="109.1" x2="289.4" y2="88.5" stroke="rgb(0,0,0)"  stroke-width="2.0"/>
<line x1="316.1" y1="112.3" x2="291.0" y2="97.7" stroke="rgb(0,0,0)"  stroke-width="2.0"/>
<line x1="289.4" y1="88.5" x2="253.0" y2="107.4" stroke="rgb(0,0,0)"  stroke-width="2.0"/>
<text x="272.410968" y="323.361471" fill="rgb(102,102,102)"  stroke="rgb(102,102,102)" stroke-width="1" font-size="16" >H</text>
<text x="284.410968" y="327.041471" fill="rgb(102,102,102)"  stroke="rgb(102,102,102)" stroke-width="1" font-size="13" >3</text>
<text x="290.910968" y="323.361471" fill="rgb(102,102,102)"  stroke="rgb(102,102,102)" stroke-width="1" font-size="16" >C</text>
<text x="249.844559" y="243.533836" fill="rgb(255,12,12)"  stroke="rgb(255,12,12)" stroke-width="1" font-size="16" >O</text>
<text x="317.149467" y="243.533836" fill="rgb(12,12,255)"  stroke="rgb(12,12,255)" stroke-width="1" font-size="16" >N</text>
<text x="330.009741" y="316.831181" fill="rgb(102,102,102)"  stroke="rgb(102,102,102)" stroke-width="1" font-size="16" >CH</text>
<text x="354.009741" y="320.511181" fill="rgb(102,102,102)"  stroke="rgb(102,102,102)" stroke-width="1" font-size="13" >2</text>
<text x="151.292594" y="55.356084" fill="rgb(255,12,12)"  stroke="rgb(255,12,12)" stroke-width="1" font-size="16" >O</text>
<text x="212.072644" y="55.356084" fill="rgb(255,12,12)"  stroke="rgb(255,12,12)" stroke-width="1" font-size="16" >O</text>
<text x="296.105308" y="72.494021" fill="rgb(255,12,12)"  stroke="rgb(255,12,12)" stroke-width="1" font-size="16" >O</text>
<text x="261.662067" y="49.488602" fill="rgb(102,102,102)"  stroke="rgb(102,102,102)" stroke-width="1" font-size="16" >H</text>
<text x="273.662067" y="53.168602" fill="rgb(102,102,102)"  stroke="rgb(102,102,102)" stroke-width="1" font-size="13" >3</text>
<text x="280.162067" y="49.488602" fill="rgb(102,102,102)"  stroke="rgb(102,102,102)" stroke-width="1" font-size="16" >C</text>
<text x="155.805630" y="157.621405" fill="rgb(102,102,102)"  stroke="rgb(102,102,102)" stroke-width="1" font-size="16" >H</text>
<text x="167.805630" y="161.301405" fill="rgb(102,102,102)"  stroke="rgb(102,102,102)" stroke-width="1" font-size="13" >2</text>
<text x="174.305630" y="157.621405" fill="rgb(102,102,102)"  stroke="rgb(102,102,102)" stroke-width="1" font-size="16" >C</text>
<text x="226.799445" y="68.269977" fill="rgb(102,102,102)"  stroke="rgb(102,102,102)" stroke-width="1" font-size="16" >H</text>
<text x="238.799445" y="71.949977" fill="rgb(102,102,102)"  stroke="rgb(102,102,102)" stroke-width="1" font-size="13" >3</text>
<text x="245.299445" y="68.269977" fill="rgb(102,102,102)"  stroke="rgb(102,102,102)" stroke-width="1" font-size="16" >C</text>
<text x="176.593394" y="48.000000" fill="rgb(191,191,191)"  stroke="rgb(191,191,191)" stroke-width="1" font-size="16" >H</text>
</svg>
</g>
<text font-size="18.000000" fill ="black" font-family="sans-serif"
x="10.000000" y="20.000000" ></text>
</svg>
