<?xml version="1.0"?>
<svg version="1.1" id="topsvg"
xmlns="http://www.w3.org/2000/svg" xmlns:xlink="http://www.w3.org/1999/xlink"
xmlns:cml="http://www.xml-cml.org/schema" x="0" y="0" width="200px" height="200px" viewBox="0 0 100 100">
<title> - Open Babel Depiction</title>
<rect x="0" y="0" width="100" height="100" fill="white"/>
<g transform="translate(0,0)">
<svg width="100" height="100" x="0" y="0" viewBox="0 0 218.487 200.763"
font-family="sans-serif" stroke="rgb(0,0,0)" stroke-width="2"  stroke-linecap="round">
<line x1="110.0" y1="120.4" x2="108.9" y2="147.8" stroke="rgb(0,0,0)"  stroke-width="2.0"/>
<polygon points="109.970806 120.386429 105.179458 78.561921 113.178029 78.410719 " stroke-width="2.000000" fill="rgb(0,0,0)"  stroke="rgb(0,0,0)" />
<polygon points="109.178744 78.486320 104.940108 52.737529 112.939765 52.663442 " stroke-width="2.000000" fill="rgb(0,0,0)"  stroke="rgb(0,0,0)" />
<line x1="74.8" y1="140.1" x2="110.0" y2="120.4" stroke="rgb(0,0,0)"  stroke-width="2.0"/>
<line x1="110.0" y1="120.4" x2="109.2" y2="78.5" stroke="rgb(0,0,0)"  stroke-width="2.0"/>
<line x1="109.2" y1="78.5" x2="74.5" y2="60.5" stroke="rgb(0,0,0)"  stroke-width="2.0"/>
<line x1="74.5" y1="60.5" x2="40.5" y2="80.2" stroke="rgb(0,0,0)"  stroke-width="2.0"/>
<line x1="40.5" y1="80.2" x2="40.0" y2="121.5" stroke="rgb(0,0,0)"  stroke-width="2.0"/>
<line x1="40.0" y1="121.5" x2="74.8" y2="140.1" stroke="rgb(0,0,0)"  stroke-width="2.0"/>
<line x1="110.0" y1="120.4" x2="143.5" y2="140.8" stroke="rgb(0,0,0)"  stroke-width="2.0"/>
<line x1="143.5" y1="140.8" x2="178.5" y2="121.3" stroke="rgb(0,0,0)"  stroke-width="2.0"/>
<line x1="178.5" y1="121.3" x2="178.5" y2="80.3" stroke="rgb(0,0,0)"  stroke-width="2.0"/>
<line x1="178.5" y1="80.3" x2="144.1" y2="60.0" stroke="rgb(0,0,0)"  stroke-width="2.0"/>
<line x1="144.1" y1="60.0" x2="109.2" y2="78.5" stroke="rgb(0,0,0)"  stroke-width="2.0"/>
<text x="102.389321" y="168.763138" fill="rgb(191,191,191)"  stroke="rgb(191,191,191)" stroke-width="1" font-size="16" >H</text>
<text x="82.822316" y="48.000000" fill="rgb(102,102,102)"  stroke="rgb(102,102,102)" stroke-width="1" font-size="16" >H</text>
<text x="94.822316" y="51.680000" fill="rgb(102,102,102)"  stroke="rgb(102,102,102)" stroke-width="1" font-size="13" >3</text>
<text x="101.322316" y="48.000000" fill="rgb(102,102,102)"  stroke="rgb(102,102,102)" stroke-width="1" font-size="16" >C</text>
</svg>
</g>
<text font-size="18.000000" fill ="black" font-family="sans-serif"
x="10.000000" y="20.000000" ></text>
</svg>
