<?xml version="1.0"?>
<svg version="1.1" id="topsvg"
xmlns="http://www.w3.org/2000/svg" xmlns:xlink="http://www.w3.org/1999/xlink"
xmlns:cml="http://www.xml-cml.org/schema" x="0" y="0" width="200px" height="200px" viewBox="0 0 100 100">
<title> - Open Babel Depiction</title>
<rect x="0" y="0" width="100" height="100" fill="white"/>
<g transform="translate(0,0)">
<svg width="100" height="100" x="0" y="0" viewBox="0 0 305.383 134.125"
font-family="sans-serif" stroke="rgb(0,0,0)" stroke-width="2"  stroke-linecap="round">
<line x1="53.0" y1="41.9" x2="95.6" y2="40.0" stroke="rgb(0,0,0)"  stroke-width="2.0"/>
<line x1="95.6" y1="40.0" x2="118.5" y2="80.7" stroke="rgb(0,0,0)"  stroke-width="2.0"/>
<line x1="188.7" y1="40.0" x2="206.6" y2="40.4" stroke="rgb(0,0,0)"  stroke-width="2.0"/>
<line x1="225.9" y1="52.0" x2="234.5" y2="67.7" stroke="rgb(0,0,0)"  stroke-width="2.0"/>
<line x1="237.1" y1="69.2" x2="227.8" y2="84.6" stroke="rgb(0,0,0)"  stroke-width="2.0"/>
<line x1="231.9" y1="66.1" x2="222.7" y2="81.4" stroke="rgb(0,0,0)"  stroke-width="2.0"/>
<line x1="234.5" y1="67.7" x2="252.4" y2="68.0" stroke="rgb(0,0,0)"  stroke-width="2.0"/>
<line x1="165.8" y1="80.7" x2="188.7" y2="40.0" stroke="rgb(0,0,0)"  stroke-width="2.0"/>
<line x1="118.5" y1="77.7" x2="165.8" y2="77.7" stroke="rgb(0,0,0)"  stroke-width="2.0"/>
<line x1="118.5" y1="83.7" x2="165.8" y2="83.7" stroke="rgb(0,0,0)"  stroke-width="2.0"/>
<text x="22.000000" y="50.481154" fill="rgb(165,40,40)"  stroke="rgb(165,40,40)" stroke-width="1" font-size="16" >Br</text>
<text x="213.579317" y="48.617971" fill="rgb(255,12,12)"  stroke="rgb(255,12,12)" stroke-width="1" font-size="16" >O</text>
<text x="212.510227" y="102.125000" fill="rgb(255,12,12)"  stroke="rgb(255,12,12)" stroke-width="1" font-size="16" >O</text>
<text x="261.383336" y="76.296897" fill="rgb(102,102,102)"  stroke="rgb(102,102,102)" stroke-width="1" font-size="16" >CH</text>
<text x="285.383336" y="79.976897" fill="rgb(102,102,102)"  stroke="rgb(102,102,102)" stroke-width="1" font-size="13" >3</text>
</svg>
</g>
<text font-size="18.000000" fill ="black" font-family="sans-serif"
x="10.000000" y="20.000000" ></text>
</svg>
