<?xml version="1.0"?>
<svg version="1.1" id="topsvg"
xmlns="http://www.w3.org/2000/svg" xmlns:xlink="http://www.w3.org/1999/xlink"
xmlns:cml="http://www.xml-cml.org/schema" x="0" y="0" width="200px" height="200px" viewBox="0 0 100 100">
<title> - Open Babel Depiction</title>
<rect x="0" y="0" width="100" height="100" fill="white"/>
<g transform="translate(0,0)">
<svg width="100" height="100" x="0" y="0" viewBox="0 0 183.014 334.871"
font-family="sans-serif" stroke="rgb(0,0,0)" stroke-width="2"  stroke-linecap="round">
<line x1="52.6" y1="261.5" x2="79.8" y2="254.6" stroke="rgb(0,0,0)"  stroke-width="2.0"/>
<line x1="79.8" y1="254.6" x2="72.4" y2="282.3" stroke="rgb(0,0,0)"  stroke-width="2.0"/>
<line x1="102.3" y1="190.1" x2="102.5" y2="148.1" stroke="rgb(0,0,0)"  stroke-width="2.0"/>
<line x1="102.2" y1="65.4" x2="109.1" y2="52.4" stroke="rgb(0,0,0)"  stroke-width="2.0"/>
<line x1="128.3" y1="40.5" x2="130.0" y2="40.4" stroke="rgb(0,0,0)"  stroke-width="2.0"/>
<line x1="66.7" y1="129.4" x2="66.7" y2="85.9" stroke="rgb(0,0,0)"  stroke-width="2.0"/>
<line x1="66.7" y1="85.9" x2="102.2" y2="65.4" stroke="rgb(0,0,0)"  stroke-width="2.0"/>
<line x1="75.5" y1="89.1" x2="100.6" y2="74.6" stroke="rgb(0,0,0)"  stroke-width="2.0"/>
<line x1="102.2" y1="65.4" x2="138.9" y2="85.9" stroke="rgb(0,0,0)"  stroke-width="2.0"/>
<line x1="138.9" y1="85.9" x2="139.0" y2="128.6" stroke="rgb(0,0,0)"  stroke-width="2.0"/>
<line x1="131.7" y1="91.9" x2="131.8" y2="122.6" stroke="rgb(0,0,0)"  stroke-width="2.0"/>
<line x1="139.0" y1="128.6" x2="102.5" y2="148.1" stroke="rgb(0,0,0)"  stroke-width="2.0"/>
<line x1="102.5" y1="148.1" x2="66.7" y2="129.4" stroke="rgb(0,0,0)"  stroke-width="2.0"/>
<line x1="100.5" y1="138.9" x2="75.3" y2="125.8" stroke="rgb(0,0,0)"  stroke-width="2.0"/>
<line x1="79.2" y1="206.7" x2="102.3" y2="190.1" stroke="rgb(0,0,0)"  stroke-width="2.0"/>
<line x1="84.8" y1="211.5" x2="101.6" y2="199.4" stroke="rgb(0,0,0)"  stroke-width="2.0"/>
<line x1="102.3" y1="190.1" x2="124.7" y2="208.2" stroke="rgb(0,0,0)"  stroke-width="2.0"/>
<line x1="130.8" y1="228.7" x2="122.3" y2="254.8" stroke="rgb(0,0,0)"  stroke-width="2.0"/>
<line x1="122.3" y1="254.8" x2="79.8" y2="254.6" stroke="rgb(0,0,0)"  stroke-width="2.0"/>
<line x1="79.8" y1="254.6" x2="71.6" y2="227.4" stroke="rgb(0,0,0)"  stroke-width="2.0"/>
<text x="14.000000" y="272.751166" fill="rgb(102,102,102)"  stroke="rgb(102,102,102)" stroke-width="1" font-size="16" >H</text>
<text x="26.000000" y="276.431166" fill="rgb(102,102,102)"  stroke="rgb(102,102,102)" stroke-width="1" font-size="13" >3</text>
<text x="32.500000" y="272.751166" fill="rgb(102,102,102)"  stroke="rgb(102,102,102)" stroke-width="1" font-size="16" >C</text>
<text x="61.828689" y="222.920012" fill="rgb(12,12,255)"  stroke="rgb(12,12,255)" stroke-width="1" font-size="16" >N</text>
<text x="128.863587" y="224.302977" fill="rgb(255,12,12)"  stroke="rgb(255,12,12)" stroke-width="1" font-size="16" >O</text>
<text x="42.983936" y="302.870910" fill="rgb(102,102,102)"  stroke="rgb(102,102,102)" stroke-width="1" font-size="16" >H</text>
<text x="54.983936" y="306.550910" fill="rgb(102,102,102)"  stroke="rgb(102,102,102)" stroke-width="1" font-size="13" >3</text>
<text x="61.483936" y="302.870910" fill="rgb(102,102,102)"  stroke="rgb(102,102,102)" stroke-width="1" font-size="16" >C</text>
<text x="109.257705" y="48.896983" fill="rgb(255,12,12)"  stroke="rgb(255,12,12)" stroke-width="1" font-size="16" >O</text>
<text x="139.014191" y="48.000000" fill="rgb(102,102,102)"  stroke="rgb(102,102,102)" stroke-width="1" font-size="16" >CH</text>
<text x="163.014191" y="51.680000" fill="rgb(102,102,102)"  stroke="rgb(102,102,102)" stroke-width="1" font-size="13" >3</text>
</svg>
</g>
<text font-size="18.000000" fill ="black" font-family="sans-serif"
x="10.000000" y="20.000000" ></text>
</svg>
