<?xml version="1.0"?>
<svg version="1.1" id="topsvg"
xmlns="http://www.w3.org/2000/svg" xmlns:xlink="http://www.w3.org/1999/xlink"
xmlns:cml="http://www.xml-cml.org/schema" x="0" y="0" width="200px" height="200px" viewBox="0 0 100 100">
<title> - Open Babel Depiction</title>
<rect x="0" y="0" width="100" height="100" fill="white"/>
<g transform="translate(0,0)">
<svg width="100" height="100" x="0" y="0" viewBox="0 0 233.432 297.155"
font-family="sans-serif" stroke="rgb(0,0,0)" stroke-width="2"  stroke-linecap="round">
<line x1="178.9" y1="225.8" x2="145.0" y2="210.6" stroke="rgb(0,0,0)"  stroke-width="2.0"/>
<line x1="192.1" y1="244.0" x2="192.1" y2="244.2" stroke="rgb(0,0,0)"  stroke-width="2.0"/>
<line x1="111.8" y1="116.3" x2="110.2" y2="116.3" stroke="rgb(0,0,0)"  stroke-width="1.0"/>
<line x1="112.3" y1="122.8" x2="109.5" y2="122.7" stroke="rgb(0,0,0)"  stroke-width="1.0"/>
<line x1="112.9" y1="129.3" x2="108.8" y2="129.2" stroke="rgb(0,0,0)"  stroke-width="1.0"/>
<line x1="113.5" y1="135.8" x2="108.1" y2="135.7" stroke="rgb(0,0,0)"  stroke-width="1.0"/>
<line x1="114.1" y1="142.3" x2="107.4" y2="142.2" stroke="rgb(0,0,0)"  stroke-width="1.0"/>
<line x1="114.7" y1="148.8" x2="106.7" y2="148.7" stroke="rgb(0,0,0)"  stroke-width="1.0"/>
<line x1="111.0" y1="108.1" x2="110.3" y2="73.6" stroke="rgb(0,0,0)"  stroke-width="2.0"/>
<line x1="140.0" y1="93.0" x2="139.2" y2="91.6" stroke="rgb(0,0,0)"  stroke-width="1.0"/>
<line x1="134.6" y1="96.8" x2="133.2" y2="94.2" stroke="rgb(0,0,0)"  stroke-width="1.0"/>
<line x1="129.2" y1="100.5" x2="127.2" y2="96.8" stroke="rgb(0,0,0)"  stroke-width="1.0"/>
<line x1="123.8" y1="104.2" x2="121.1" y2="99.4" stroke="rgb(0,0,0)"  stroke-width="1.0"/>
<line x1="118.4" y1="107.9" x2="115.1" y2="102.0" stroke="rgb(0,0,0)"  stroke-width="1.0"/>
<line x1="113.0" y1="111.6" x2="109.1" y2="104.6" stroke="rgb(0,0,0)"  stroke-width="1.0"/>
<line x1="146.8" y1="88.4" x2="153.4" y2="60.2" stroke="rgb(0,0,0)"  stroke-width="2.0"/>
<line x1="138.5" y1="166.1" x2="139.3" y2="164.7" stroke="rgb(0,0,0)"  stroke-width="1.0"/>
<line x1="132.5" y1="163.3" x2="134.0" y2="160.8" stroke="rgb(0,0,0)"  stroke-width="1.0"/>
<line x1="126.5" y1="160.5" x2="128.7" y2="157.0" stroke="rgb(0,0,0)"  stroke-width="1.0"/>
<line x1="120.6" y1="157.8" x2="123.3" y2="153.1" stroke="rgb(0,0,0)"  stroke-width="1.0"/>
<line x1="114.6" y1="155.0" x2="118.0" y2="149.2" stroke="rgb(0,0,0)"  stroke-width="1.0"/>
<line x1="108.6" y1="152.2" x2="112.7" y2="145.3" stroke="rgb(0,0,0)"  stroke-width="1.0"/>
<line x1="145.9" y1="169.6" x2="145.0" y2="210.6" stroke="rgb(0,0,0)"  stroke-width="2.0"/>
<line x1="111.3" y1="154.2" x2="109.7" y2="154.2" stroke="rgb(0,0,0)"  stroke-width="1.0"/>
<line x1="111.8" y1="158.6" x2="108.9" y2="158.6" stroke="rgb(0,0,0)"  stroke-width="1.0"/>
<line x1="112.3" y1="163.0" x2="108.2" y2="162.9" stroke="rgb(0,0,0)"  stroke-width="1.0"/>
<line x1="112.9" y1="167.5" x2="107.4" y2="167.3" stroke="rgb(0,0,0)"  stroke-width="1.0"/>
<line x1="113.4" y1="171.9" x2="106.7" y2="171.7" stroke="rgb(0,0,0)"  stroke-width="1.0"/>
<line x1="113.9" y1="176.3" x2="105.9" y2="176.0" stroke="rgb(0,0,0)"  stroke-width="1.0"/>
<line x1="168.9" y1="43.8" x2="169.0" y2="43.7" stroke="rgb(0,0,0)"  stroke-width="2.0"/>
<line x1="41.1" y1="109.3" x2="75.6" y2="89.3" stroke="rgb(0,0,0)"  stroke-width="2.0"/>
<line x1="75.6" y1="89.3" x2="111.0" y2="108.1" stroke="rgb(0,0,0)"  stroke-width="2.0"/>
<line x1="111.0" y1="108.1" x2="110.7" y2="148.7" stroke="rgb(0,0,0)"  stroke-width="2.0"/>
<line x1="110.7" y1="148.7" x2="75.8" y2="169.2" stroke="rgb(0,0,0)"  stroke-width="2.0"/>
<line x1="75.8" y1="169.2" x2="40.0" y2="149.9" stroke="rgb(0,0,0)"  stroke-width="2.0"/>
<line x1="73.9" y1="160.0" x2="48.7" y2="146.4" stroke="rgb(0,0,0)"  stroke-width="2.0"/>
<line x1="40.0" y1="149.9" x2="41.1" y2="109.3" stroke="rgb(0,0,0)"  stroke-width="2.0"/>
<line x1="146.8" y1="88.4" x2="111.0" y2="108.1" stroke="rgb(0,0,0)"  stroke-width="2.0"/>
<line x1="110.7" y1="148.7" x2="145.9" y2="169.6" stroke="rgb(0,0,0)"  stroke-width="2.0"/>
<line x1="145.9" y1="169.6" x2="181.1" y2="149.9" stroke="rgb(0,0,0)"  stroke-width="2.0"/>
<line x1="181.1" y1="149.9" x2="181.4" y2="108.1" stroke="rgb(0,0,0)"  stroke-width="2.0"/>
<line x1="181.4" y1="108.1" x2="146.8" y2="88.4" stroke="rgb(0,0,0)"  stroke-width="2.0"/>
<text x="184.751529" y="239.105998" fill="rgb(255,12,12)"  stroke="rgb(255,12,12)" stroke-width="1" font-size="16" >O</text>
<text x="150.414596" y="55.523943" fill="rgb(255,12,12)"  stroke="rgb(255,12,12)" stroke-width="1" font-size="16" >O</text>
<text x="103.499962" y="197.631172" fill="rgb(191,191,191)"  stroke="rgb(191,191,191)" stroke-width="1" font-size="16" >H</text>
<text x="84.010197" y="68.611879" fill="rgb(102,102,102)"  stroke="rgb(102,102,102)" stroke-width="1" font-size="16" >H</text>
<text x="96.010197" y="72.291879" fill="rgb(102,102,102)"  stroke="rgb(102,102,102)" stroke-width="1" font-size="13" >3</text>
<text x="102.510197" y="68.611879" fill="rgb(102,102,102)"  stroke="rgb(102,102,102)" stroke-width="1" font-size="16" >C</text>
<text x="187.432288" y="265.154985" fill="rgb(191,191,191)"  stroke="rgb(191,191,191)" stroke-width="1" font-size="16" >H</text>
<text x="175.497106" y="48.000000" fill="rgb(191,191,191)"  stroke="rgb(191,191,191)" stroke-width="1" font-size="16" >H</text>
</svg>
</g>
<text font-size="18.000000" fill ="black" font-family="sans-serif"
x="10.000000" y="20.000000" ></text>
</svg>
