<?xml version="1.0"?>
<svg version="1.1" id="topsvg"
xmlns="http://www.w3.org/2000/svg" xmlns:xlink="http://www.w3.org/1999/xlink"
xmlns:cml="http://www.xml-cml.org/schema" x="0" y="0" width="200px" height="200px" viewBox="0 0 100 100">
<title> - Open Babel Depiction</title>
<rect x="0" y="0" width="100" height="100" fill="white"/>
<g transform="translate(0,0)">
<svg width="100" height="100" x="0" y="0" viewBox="0 0 330.079 419.486"
font-family="sans-serif" stroke="rgb(0,0,0)" stroke-width="2"  stroke-linecap="round">
<line x1="225.1" y1="337.1" x2="195.5" y2="344.9" stroke="rgb(0,0,0)"  stroke-width="2.0"/>
<line x1="225.1" y1="337.1" x2="216.8" y2="367.0" stroke="rgb(0,0,0)"  stroke-width="2.0"/>
<line x1="247.8" y1="270.2" x2="248.1" y2="226.8" stroke="rgb(0,0,0)"  stroke-width="2.0"/>
<polygon points="211.101123 204.476760 175.467896 226.085349 171.995438 218.878267 " stroke-width="2.000000" fill="rgb(0,0,0)"  stroke="rgb(0,0,0)" />
<line x1="204.8" y1="157.9" x2="205.7" y2="156.6" stroke="rgb(0,0,0)"  stroke-width="1.0"/>
<line x1="198.8" y1="154.5" x2="200.5" y2="152.1" stroke="rgb(0,0,0)"  stroke-width="1.0"/>
<line x1="192.8" y1="151.1" x2="195.2" y2="147.7" stroke="rgb(0,0,0)"  stroke-width="1.0"/>
<line x1="186.9" y1="147.7" x2="190.0" y2="143.3" stroke="rgb(0,0,0)"  stroke-width="1.0"/>
<line x1="180.9" y1="144.4" x2="184.7" y2="138.8" stroke="rgb(0,0,0)"  stroke-width="1.0"/>
<line x1="174.9" y1="141.0" x2="179.5" y2="134.4" stroke="rgb(0,0,0)"  stroke-width="1.0"/>
<line x1="274.4" y1="113.8" x2="277.1" y2="113.7" stroke="rgb(0,0,0)"  stroke-width="2.0"/>
<line x1="255.4" y1="125.9" x2="248.1" y2="139.9" stroke="rgb(0,0,0)"  stroke-width="2.0"/>
<line x1="98.2" y1="96.8" x2="83.5" y2="91.1" stroke="rgb(0,0,0)"  stroke-width="2.0"/>
<line x1="98.2" y1="96.8" x2="98.8" y2="139.5" stroke="rgb(0,0,0)"  stroke-width="2.0"/>
<line x1="69.3" y1="73.6" x2="66.8" y2="58.1" stroke="rgb(0,0,0)"  stroke-width="2.0"/>
<line x1="64.9" y1="55.8" x2="77.2" y2="45.9" stroke="rgb(0,0,0)"  stroke-width="2.0"/>
<line x1="68.7" y1="60.4" x2="80.9" y2="50.5" stroke="rgb(0,0,0)"  stroke-width="2.0"/>
<line x1="66.8" y1="58.1" x2="52.1" y2="52.5" stroke="rgb(0,0,0)"  stroke-width="2.0"/>
<line x1="100.3" y1="137.0" x2="137.3" y2="159.2" stroke="rgb(0,0,0)"  stroke-width="2.0"/>
<line x1="97.3" y1="142.1" x2="134.2" y2="164.3" stroke="rgb(0,0,0)"  stroke-width="2.0"/>
<line x1="135.8" y1="161.8" x2="177.2" y2="137.7" stroke="rgb(0,0,0)"  stroke-width="2.0"/>
<line x1="148.7" y1="207.5" x2="175.0" y2="219.8" stroke="rgb(0,0,0)"  stroke-width="2.0"/>
<line x1="146.2" y1="212.9" x2="172.5" y2="225.2" stroke="rgb(0,0,0)"  stroke-width="2.0"/>
<line x1="223.7" y1="287.3" x2="247.8" y2="270.2" stroke="rgb(0,0,0)"  stroke-width="2.0"/>
<line x1="229.2" y1="292.2" x2="247.1" y2="279.6" stroke="rgb(0,0,0)"  stroke-width="2.0"/>
<line x1="247.8" y1="270.2" x2="271.5" y2="289.6" stroke="rgb(0,0,0)"  stroke-width="2.0"/>
<line x1="277.7" y1="310.2" x2="269.2" y2="337.6" stroke="rgb(0,0,0)"  stroke-width="2.0"/>
<line x1="269.2" y1="337.6" x2="225.1" y2="337.1" stroke="rgb(0,0,0)"  stroke-width="2.0"/>
<line x1="225.1" y1="337.1" x2="215.8" y2="308.1" stroke="rgb(0,0,0)"  stroke-width="2.0"/>
<line x1="212.2" y1="162.1" x2="211.1" y2="204.5" stroke="rgb(0,0,0)"  stroke-width="2.0"/>
<line x1="211.1" y1="204.5" x2="248.1" y2="226.8" stroke="rgb(0,0,0)"  stroke-width="2.0"/>
<line x1="248.1" y1="226.8" x2="286.3" y2="205.6" stroke="rgb(0,0,0)"  stroke-width="2.0"/>
<line x1="249.9" y1="217.6" x2="277.6" y2="202.2" stroke="rgb(0,0,0)"  stroke-width="2.0"/>
<line x1="286.3" y1="205.6" x2="286.1" y2="160.8" stroke="rgb(0,0,0)"  stroke-width="2.0"/>
<line x1="286.1" y1="160.8" x2="248.1" y2="139.9" stroke="rgb(0,0,0)"  stroke-width="2.0"/>
<line x1="277.3" y1="164.2" x2="249.9" y2="149.1" stroke="rgb(0,0,0)"  stroke-width="2.0"/>
<line x1="248.1" y1="139.9" x2="212.2" y2="162.1" stroke="rgb(0,0,0)"  stroke-width="2.0"/>
<text x="156.931054" y="356.238374" fill="rgb(102,102,102)"  stroke="rgb(102,102,102)" stroke-width="1" font-size="16" >H</text>
<text x="168.931054" y="359.918374" fill="rgb(102,102,102)"  stroke="rgb(102,102,102)" stroke-width="1" font-size="13" >3</text>
<text x="175.431054" y="356.238374" fill="rgb(102,102,102)"  stroke="rgb(102,102,102)" stroke-width="1" font-size="16" >C</text>
<text x="205.833970" y="303.671681" fill="rgb(12,12,255)"  stroke="rgb(12,12,255)" stroke-width="1" font-size="16" >N</text>
<text x="275.586647" y="305.827114" fill="rgb(255,12,12)"  stroke="rgb(255,12,12)" stroke-width="1" font-size="16" >O</text>
<text x="187.311160" y="387.486401" fill="rgb(102,102,102)"  stroke="rgb(102,102,102)" stroke-width="1" font-size="16" >H</text>
<text x="199.311160" y="391.166401" fill="rgb(102,102,102)"  stroke="rgb(102,102,102)" stroke-width="1" font-size="13" >3</text>
<text x="205.811160" y="387.486401" fill="rgb(102,102,102)"  stroke="rgb(102,102,102)" stroke-width="1" font-size="16" >C</text>
<text x="255.368688" y="122.405537" fill="rgb(255,12,12)"  stroke="rgb(255,12,12)" stroke-width="1" font-size="16" >O</text>
<text x="286.079052" y="121.095034" fill="rgb(102,102,102)"  stroke="rgb(102,102,102)" stroke-width="1" font-size="16" >CH</text>
<text x="310.079052" y="124.775034" fill="rgb(102,102,102)"  stroke="rgb(102,102,102)" stroke-width="1" font-size="13" >3</text>
<text x="65.334244" y="94.474003" fill="rgb(255,12,12)"  stroke="rgb(255,12,12)" stroke-width="1" font-size="16" >O</text>
<text x="83.161109" y="48.000000" fill="rgb(255,12,12)"  stroke="rgb(255,12,12)" stroke-width="1" font-size="16" >O</text>
<text x="14.000000" y="55.796919" fill="rgb(102,102,102)"  stroke="rgb(102,102,102)" stroke-width="1" font-size="16" >H</text>
<text x="26.000000" y="59.476919" fill="rgb(102,102,102)"  stroke="rgb(102,102,102)" stroke-width="1" font-size="13" >3</text>
<text x="32.500000" y="55.796919" fill="rgb(102,102,102)"  stroke="rgb(102,102,102)" stroke-width="1" font-size="16" >C</text>
<text x="109.681095" y="212.712420" fill="rgb(102,102,102)"  stroke="rgb(102,102,102)" stroke-width="1" font-size="16" >H</text>
<text x="121.681095" y="216.392420" fill="rgb(102,102,102)"  stroke="rgb(102,102,102)" stroke-width="1" font-size="13" >2</text>
<text x="128.181095" y="212.712420" fill="rgb(102,102,102)"  stroke="rgb(102,102,102)" stroke-width="1" font-size="16" >C</text>
</svg>
</g>
<text font-size="18.000000" fill ="black" font-family="sans-serif"
x="10.000000" y="20.000000" ></text>
</svg>
