<?xml version="1.0"?>
<svg version="1.1" id="topsvg"
xmlns="http://www.w3.org/2000/svg" xmlns:xlink="http://www.w3.org/1999/xlink"
xmlns:cml="http://www.xml-cml.org/schema" x="0" y="0" width="200px" height="200px" viewBox="0 0 100 100">
<title> - Open Babel Depiction</title>
<rect x="0" y="0" width="100" height="100" fill="white"/>
<g transform="translate(0,0)">
<svg width="100" height="100" x="0" y="0" viewBox="0 0 289.256 341.507"
font-family="sans-serif" stroke="rgb(0,0,0)" stroke-width="2"  stroke-linecap="round">
<line x1="165.6" y1="268.9" x2="192.1" y2="261.6" stroke="rgb(0,0,0)"  stroke-width="2.0"/>
<line x1="192.1" y1="261.6" x2="184.9" y2="288.9" stroke="rgb(0,0,0)"  stroke-width="2.0"/>
<line x1="183.0" y1="142.4" x2="145.2" y2="156.0" stroke="rgb(0,0,0)"  stroke-width="2.0"/>
<line x1="183.1" y1="147.5" x2="181.6" y2="147.3" stroke="rgb(0,0,0)"  stroke-width="1.0"/>
<line x1="183.3" y1="151.6" x2="180.4" y2="151.3" stroke="rgb(0,0,0)"  stroke-width="1.0"/>
<line x1="183.4" y1="155.7" x2="179.3" y2="155.2" stroke="rgb(0,0,0)"  stroke-width="1.0"/>
<line x1="183.5" y1="159.8" x2="178.1" y2="159.2" stroke="rgb(0,0,0)"  stroke-width="1.0"/>
<line x1="183.7" y1="163.9" x2="177.0" y2="163.1" stroke="rgb(0,0,0)"  stroke-width="1.0"/>
<line x1="183.8" y1="168.0" x2="175.9" y2="167.0" stroke="rgb(0,0,0)"  stroke-width="1.0"/>
<line x1="182.5" y1="109.0" x2="180.9" y2="109.0" stroke="rgb(0,0,0)"  stroke-width="1.0"/>
<line x1="183.4" y1="115.6" x2="180.5" y2="115.8" stroke="rgb(0,0,0)"  stroke-width="1.0"/>
<line x1="184.3" y1="122.3" x2="180.1" y2="122.5" stroke="rgb(0,0,0)"  stroke-width="1.0"/>
<line x1="185.2" y1="128.9" x2="179.7" y2="129.2" stroke="rgb(0,0,0)"  stroke-width="1.0"/>
<line x1="186.1" y1="135.6" x2="179.4" y2="135.9" stroke="rgb(0,0,0)"  stroke-width="1.0"/>
<line x1="187.0" y1="142.3" x2="179.0" y2="142.6" stroke="rgb(0,0,0)"  stroke-width="1.0"/>
<line x1="181.4" y1="100.7" x2="148.5" y2="77.8" stroke="rgb(0,0,0)"  stroke-width="2.0"/>
<line x1="216.5" y1="52.7" x2="219.1" y2="80.4" stroke="rgb(0,0,0)"  stroke-width="2.0"/>
<line x1="210.5" y1="53.2" x2="213.1" y2="81.0" stroke="rgb(0,0,0)"  stroke-width="2.0"/>
<line x1="214.0" y1="157.5" x2="213.5" y2="203.2" stroke="rgb(0,0,0)"  stroke-width="2.0"/>
<line x1="207.4" y1="155.2" x2="208.1" y2="153.8" stroke="rgb(0,0,0)"  stroke-width="1.0"/>
<line x1="202.2" y1="153.4" x2="203.4" y2="150.8" stroke="rgb(0,0,0)"  stroke-width="1.0"/>
<line x1="196.9" y1="151.5" x2="198.8" y2="147.8" stroke="rgb(0,0,0)"  stroke-width="1.0"/>
<line x1="191.7" y1="149.7" x2="194.1" y2="144.8" stroke="rgb(0,0,0)"  stroke-width="1.0"/>
<line x1="186.5" y1="147.9" x2="189.4" y2="141.8" stroke="rgb(0,0,0)"  stroke-width="1.0"/>
<line x1="181.2" y1="146.0" x2="184.7" y2="138.8" stroke="rgb(0,0,0)"  stroke-width="1.0"/>
<line x1="50.0" y1="90.5" x2="74.2" y2="77.2" stroke="rgb(0,0,0)"  stroke-width="2.0"/>
<line x1="52.8" y1="95.7" x2="77.0" y2="82.5" stroke="rgb(0,0,0)"  stroke-width="2.0"/>
<line x1="75.6" y1="79.9" x2="109.9" y2="98.9" stroke="rgb(0,0,0)"  stroke-width="2.0"/>
<line x1="109.9" y1="98.9" x2="148.5" y2="77.8" stroke="rgb(0,0,0)"  stroke-width="2.0"/>
<line x1="123.0" y1="142.8" x2="146.5" y2="153.2" stroke="rgb(0,0,0)"  stroke-width="2.0"/>
<line x1="120.5" y1="148.3" x2="144.0" y2="158.7" stroke="rgb(0,0,0)"  stroke-width="2.0"/>
<line x1="190.8" y1="217.1" x2="213.5" y2="203.2" stroke="rgb(0,0,0)"  stroke-width="2.0"/>
<line x1="196.3" y1="222.2" x2="212.1" y2="212.5" stroke="rgb(0,0,0)"  stroke-width="2.0"/>
<line x1="213.5" y1="203.2" x2="233.8" y2="218.2" stroke="rgb(0,0,0)"  stroke-width="2.0"/>
<line x1="240.5" y1="238.3" x2="233.3" y2="262.4" stroke="rgb(0,0,0)"  stroke-width="2.0"/>
<line x1="233.3" y1="262.4" x2="192.1" y2="261.6" stroke="rgb(0,0,0)"  stroke-width="2.0"/>
<line x1="192.1" y1="261.6" x2="183.7" y2="236.2" stroke="rgb(0,0,0)"  stroke-width="2.0"/>
<line x1="181.4" y1="100.7" x2="216.1" y2="80.7" stroke="rgb(0,0,0)"  stroke-width="2.0"/>
<line x1="216.1" y1="80.7" x2="248.8" y2="99.5" stroke="rgb(0,0,0)"  stroke-width="2.0"/>
<line x1="248.8" y1="99.5" x2="249.3" y2="140.7" stroke="rgb(0,0,0)"  stroke-width="2.0"/>
<line x1="249.3" y1="140.7" x2="214.0" y2="157.5" stroke="rgb(0,0,0)"  stroke-width="2.0"/>
<line x1="214.0" y1="157.5" x2="183.0" y2="142.4" stroke="rgb(0,0,0)"  stroke-width="2.0"/>
<line x1="183.0" y1="142.4" x2="181.4" y2="100.7" stroke="rgb(0,0,0)"  stroke-width="2.0"/>
<text x="127.035738" y="280.275455" fill="rgb(102,102,102)"  stroke="rgb(102,102,102)" stroke-width="1" font-size="16" >H</text>
<text x="139.035738" y="283.955455" fill="rgb(102,102,102)"  stroke="rgb(102,102,102)" stroke-width="1" font-size="13" >3</text>
<text x="145.535738" y="280.275455" fill="rgb(102,102,102)"  stroke="rgb(102,102,102)" stroke-width="1" font-size="16" >C</text>
<text x="173.642904" y="231.882288" fill="rgb(12,12,255)"  stroke="rgb(12,12,255)" stroke-width="1" font-size="16" >N</text>
<text x="238.266788" y="233.881763" fill="rgb(255,12,12)"  stroke="rgb(255,12,12)" stroke-width="1" font-size="16" >O</text>
<text x="155.583649" y="309.506764" fill="rgb(102,102,102)"  stroke="rgb(102,102,102)" stroke-width="1" font-size="16" >H</text>
<text x="167.583649" y="313.186764" fill="rgb(102,102,102)"  stroke="rgb(102,102,102)" stroke-width="1" font-size="13" >3</text>
<text x="174.083649" y="309.506764" fill="rgb(102,102,102)"  stroke="rgb(102,102,102)" stroke-width="1" font-size="16" >C</text>
<text x="206.288537" y="48.000000" fill="rgb(255,12,12)"  stroke="rgb(255,12,12)" stroke-width="1" font-size="16" >O</text>
<text x="14.000000" y="107.348901" fill="rgb(102,102,102)"  stroke="rgb(102,102,102)" stroke-width="1" font-size="16" >H</text>
<text x="26.000000" y="111.028901" fill="rgb(102,102,102)"  stroke="rgb(102,102,102)" stroke-width="1" font-size="13" >2</text>
<text x="32.500000" y="107.348901" fill="rgb(102,102,102)"  stroke="rgb(102,102,102)" stroke-width="1" font-size="16" >C</text>
<text x="172.310810" y="187.909856" fill="rgb(191,191,191)"  stroke="rgb(191,191,191)" stroke-width="1" font-size="16" >H</text>
<text x="83.856156" y="148.238031" fill="rgb(102,102,102)"  stroke="rgb(102,102,102)" stroke-width="1" font-size="16" >H</text>
<text x="95.856156" y="151.918031" fill="rgb(102,102,102)"  stroke="rgb(102,102,102)" stroke-width="1" font-size="13" >2</text>
<text x="102.356156" y="148.238031" fill="rgb(102,102,102)"  stroke="rgb(102,102,102)" stroke-width="1" font-size="16" >C</text>
</svg>
</g>
<text font-size="18.000000" fill ="black" font-family="sans-serif"
x="10.000000" y="20.000000" ></text>
</svg>
