<?xml version="1.0"?>
<svg version="1.1" id="topsvg"
xmlns="http://www.w3.org/2000/svg" xmlns:xlink="http://www.w3.org/1999/xlink"
xmlns:cml="http://www.xml-cml.org/schema" x="0" y="0" width="200px" height="200px" viewBox="0 0 100 100">
<title> - Open Babel Depiction</title>
<rect x="0" y="0" width="100" height="100" fill="white"/>
<g transform="translate(0,0)">
<svg width="100" height="100" x="0" y="0" viewBox="0 0 226.461 350.3"
font-family="sans-serif" stroke="rgb(0,0,0)" stroke-width="2"  stroke-linecap="round">
<line x1="97.4" y1="277.0" x2="123.8" y2="270.1" stroke="rgb(0,0,0)"  stroke-width="2.0"/>
<line x1="123.8" y1="270.1" x2="117.3" y2="297.6" stroke="rgb(0,0,0)"  stroke-width="2.0"/>
<line x1="147.4" y1="206.0" x2="147.3" y2="163.6" stroke="rgb(0,0,0)"  stroke-width="2.0"/>
<polygon points="112.106366 144.098159 77.539624 164.165552 74.235636 156.879698 " stroke-width="2.000000" fill="rgb(0,0,0)"  stroke="rgb(0,0,0)" />
<line x1="104.9" y1="99.3" x2="105.7" y2="97.9" stroke="rgb(0,0,0)"  stroke-width="1.0"/>
<line x1="98.6" y1="96.5" x2="100.0" y2="94.0" stroke="rgb(0,0,0)"  stroke-width="1.0"/>
<line x1="92.2" y1="93.7" x2="94.3" y2="90.1" stroke="rgb(0,0,0)"  stroke-width="1.0"/>
<line x1="85.9" y1="90.9" x2="88.6" y2="86.1" stroke="rgb(0,0,0)"  stroke-width="1.0"/>
<line x1="79.6" y1="88.0" x2="82.9" y2="82.2" stroke="rgb(0,0,0)"  stroke-width="1.0"/>
<line x1="73.3" y1="85.2" x2="77.2" y2="78.2" stroke="rgb(0,0,0)"  stroke-width="1.0"/>
<line x1="172.8" y1="56.7" x2="173.5" y2="56.7" stroke="rgb(0,0,0)"  stroke-width="2.0"/>
<line x1="153.8" y1="68.8" x2="147.5" y2="81.0" stroke="rgb(0,0,0)"  stroke-width="2.0"/>
<line x1="56.2" y1="142.4" x2="77.7" y2="158.1" stroke="rgb(0,0,0)"  stroke-width="2.0"/>
<line x1="52.7" y1="147.3" x2="74.1" y2="162.9" stroke="rgb(0,0,0)"  stroke-width="2.0"/>
<line x1="72.2" y1="81.7" x2="72.4" y2="53.0" stroke="rgb(0,0,0)"  stroke-width="2.0"/>
<line x1="78.2" y1="81.7" x2="78.4" y2="53.0" stroke="rgb(0,0,0)"  stroke-width="2.0"/>
<line x1="51.2" y1="96.1" x2="75.2" y2="81.7" stroke="rgb(0,0,0)"  stroke-width="2.0"/>
<line x1="124.0" y1="222.4" x2="147.4" y2="206.0" stroke="rgb(0,0,0)"  stroke-width="2.0"/>
<line x1="129.6" y1="227.3" x2="146.6" y2="215.4" stroke="rgb(0,0,0)"  stroke-width="2.0"/>
<line x1="147.4" y1="206.0" x2="169.4" y2="223.2" stroke="rgb(0,0,0)"  stroke-width="2.0"/>
<line x1="175.7" y1="243.6" x2="167.1" y2="270.4" stroke="rgb(0,0,0)"  stroke-width="2.0"/>
<line x1="167.1" y1="270.4" x2="123.8" y2="270.1" stroke="rgb(0,0,0)"  stroke-width="2.0"/>
<line x1="123.8" y1="270.1" x2="116.1" y2="243.0" stroke="rgb(0,0,0)"  stroke-width="2.0"/>
<line x1="112.8" y1="102.9" x2="112.1" y2="144.1" stroke="rgb(0,0,0)"  stroke-width="2.0"/>
<line x1="112.1" y1="144.1" x2="147.3" y2="163.6" stroke="rgb(0,0,0)"  stroke-width="2.0"/>
<line x1="147.3" y1="163.6" x2="183.7" y2="144.2" stroke="rgb(0,0,0)"  stroke-width="2.0"/>
<line x1="149.2" y1="154.4" x2="175.1" y2="140.7" stroke="rgb(0,0,0)"  stroke-width="2.0"/>
<line x1="183.7" y1="144.2" x2="183.9" y2="101.8" stroke="rgb(0,0,0)"  stroke-width="2.0"/>
<line x1="183.9" y1="101.8" x2="147.5" y2="81.0" stroke="rgb(0,0,0)"  stroke-width="2.0"/>
<line x1="175.1" y1="105.1" x2="149.1" y2="90.2" stroke="rgb(0,0,0)"  stroke-width="2.0"/>
<line x1="147.5" y1="81.0" x2="112.8" y2="102.9" stroke="rgb(0,0,0)"  stroke-width="2.0"/>
<text x="58.776761" y="288.286909" fill="rgb(102,102,102)"  stroke="rgb(102,102,102)" stroke-width="1" font-size="16" >H</text>
<text x="70.776761" y="291.966909" fill="rgb(102,102,102)"  stroke="rgb(102,102,102)" stroke-width="1" font-size="13" >3</text>
<text x="77.276761" y="288.286909" fill="rgb(102,102,102)"  stroke="rgb(102,102,102)" stroke-width="1" font-size="16" >C</text>
<text x="106.530930" y="238.522195" fill="rgb(12,12,255)"  stroke="rgb(12,12,255)" stroke-width="1" font-size="16" >N</text>
<text x="173.692066" y="239.208439" fill="rgb(255,12,12)"  stroke="rgb(255,12,12)" stroke-width="1" font-size="16" >O</text>
<text x="88.309290" y="318.300076" fill="rgb(102,102,102)"  stroke="rgb(102,102,102)" stroke-width="1" font-size="16" >H</text>
<text x="100.309290" y="321.980076" fill="rgb(102,102,102)"  stroke="rgb(102,102,102)" stroke-width="1" font-size="13" >3</text>
<text x="106.809290" y="318.300076" fill="rgb(102,102,102)"  stroke="rgb(102,102,102)" stroke-width="1" font-size="16" >C</text>
<text x="153.785646" y="65.268252" fill="rgb(255,12,12)"  stroke="rgb(255,12,12)" stroke-width="1" font-size="16" >O</text>
<text x="182.461050" y="64.077338" fill="rgb(102,102,102)"  stroke="rgb(102,102,102)" stroke-width="1" font-size="16" >CH</text>
<text x="206.461050" y="67.757338" fill="rgb(102,102,102)"  stroke="rgb(102,102,102)" stroke-width="1" font-size="13" >3</text>
<text x="17.919869" y="145.192995" fill="rgb(102,102,102)"  stroke="rgb(102,102,102)" stroke-width="1" font-size="16" >H</text>
<text x="29.919869" y="148.872995" fill="rgb(102,102,102)"  stroke="rgb(102,102,102)" stroke-width="1" font-size="13" >2</text>
<text x="36.419869" y="145.192995" fill="rgb(102,102,102)"  stroke="rgb(102,102,102)" stroke-width="1" font-size="16" >C</text>
<text x="69.521811" y="48.000000" fill="rgb(255,12,12)"  stroke="rgb(255,12,12)" stroke-width="1" font-size="16" >O</text>
<text x="14.000000" y="110.733927" fill="rgb(102,102,102)"  stroke="rgb(102,102,102)" stroke-width="1" font-size="16" >H</text>
<text x="26.000000" y="114.413927" fill="rgb(102,102,102)"  stroke="rgb(102,102,102)" stroke-width="1" font-size="13" >3</text>
<text x="32.500000" y="110.733927" fill="rgb(102,102,102)"  stroke="rgb(102,102,102)" stroke-width="1" font-size="16" >C</text>
</svg>
</g>
<text font-size="18.000000" fill ="black" font-family="sans-serif"
x="10.000000" y="20.000000" ></text>
</svg>
