<?xml version="1.0"?>
<svg version="1.1" id="topsvg"
xmlns="http://www.w3.org/2000/svg" xmlns:xlink="http://www.w3.org/1999/xlink"
xmlns:cml="http://www.xml-cml.org/schema" x="0" y="0" width="200px" height="200px" viewBox="0 0 100 100">
<title> - Open Babel Depiction</title>
<rect x="0" y="0" width="100" height="100" fill="white"/>
<g transform="translate(0,0)">
<svg width="100" height="100" x="0" y="0" viewBox="0 0 292.617 336.048"
font-family="sans-serif" stroke="rgb(0,0,0)" stroke-width="2"  stroke-linecap="round">
<line x1="83.1" y1="255.5" x2="108.6" y2="286.1" stroke="rgb(0,0,0)"  stroke-width="2.0"/>
<line x1="82.7" y1="140.1" x2="82.7" y2="178.8" stroke="rgb(0,0,0)"  stroke-width="2.0"/>
<line x1="152.5" y1="175.6" x2="175.2" y2="189.5" stroke="rgb(0,0,0)"  stroke-width="2.0"/>
<line x1="149.4" y1="180.7" x2="172.1" y2="194.6" stroke="rgb(0,0,0)"  stroke-width="2.0"/>
<line x1="117.5" y1="206.1" x2="115.9" y2="206.1" stroke="rgb(0,0,0)"  stroke-width="1.0"/>
<line x1="118.2" y1="212.2" x2="115.3" y2="212.3" stroke="rgb(0,0,0)"  stroke-width="1.0"/>
<line x1="118.9" y1="218.4" x2="114.8" y2="218.5" stroke="rgb(0,0,0)"  stroke-width="1.0"/>
<line x1="119.6" y1="224.6" x2="114.2" y2="224.7" stroke="rgb(0,0,0)"  stroke-width="1.0"/>
<line x1="120.3" y1="230.8" x2="113.6" y2="230.9" stroke="rgb(0,0,0)"  stroke-width="1.0"/>
<line x1="121.0" y1="237.0" x2="113.0" y2="237.1" stroke="rgb(0,0,0)"  stroke-width="1.0"/>
<line x1="116.6" y1="198.3" x2="116.6" y2="172.5" stroke="rgb(0,0,0)"  stroke-width="2.0"/>
<line x1="116.6" y1="198.3" x2="150.9" y2="178.2" stroke="rgb(0,0,0)"  stroke-width="2.0"/>
<line x1="117.0" y1="237.1" x2="150.7" y2="255.6" stroke="rgb(0,0,0)"  stroke-width="2.0"/>
<line x1="117.8" y1="243.2" x2="116.2" y2="243.2" stroke="rgb(0,0,0)"  stroke-width="1.0"/>
<line x1="118.4" y1="248.1" x2="115.5" y2="248.1" stroke="rgb(0,0,0)"  stroke-width="1.0"/>
<line x1="118.9" y1="253.0" x2="114.8" y2="253.0" stroke="rgb(0,0,0)"  stroke-width="1.0"/>
<line x1="119.5" y1="257.9" x2="114.1" y2="257.8" stroke="rgb(0,0,0)"  stroke-width="1.0"/>
<line x1="120.1" y1="262.8" x2="113.4" y2="262.7" stroke="rgb(0,0,0)"  stroke-width="1.0"/>
<line x1="120.7" y1="267.7" x2="112.7" y2="267.6" stroke="rgb(0,0,0)"  stroke-width="1.0"/>
<line x1="216.6" y1="254.2" x2="239.9" y2="240.7" stroke="rgb(0,0,0)"  stroke-width="2.0"/>
<line x1="219.6" y1="259.4" x2="242.9" y2="245.9" stroke="rgb(0,0,0)"  stroke-width="2.0"/>
<line x1="184.3" y1="237.7" x2="218.1" y2="256.8" stroke="rgb(0,0,0)"  stroke-width="2.0"/>
<line x1="184.3" y1="237.7" x2="150.7" y2="255.6" stroke="rgb(0,0,0)"  stroke-width="2.0"/>
<line x1="63.5" y1="79.9" x2="47.8" y2="58.6" stroke="rgb(0,0,0)"  stroke-width="2.0"/>
<line x1="63.8" y1="53.0" x2="63.5" y2="79.9" stroke="rgb(0,0,0)"  stroke-width="2.0"/>
<line x1="110.8" y1="105.3" x2="102.8" y2="79.8" stroke="rgb(0,0,0)"  stroke-width="2.0"/>
<line x1="102.8" y1="79.8" x2="63.5" y2="79.9" stroke="rgb(0,0,0)"  stroke-width="2.0"/>
<line x1="63.5" y1="79.9" x2="55.4" y2="104.7" stroke="rgb(0,0,0)"  stroke-width="2.0"/>
<line x1="61.6" y1="124.7" x2="82.7" y2="140.1" stroke="rgb(0,0,0)"  stroke-width="2.0"/>
<line x1="67.6" y1="120.1" x2="82.1" y2="130.8" stroke="rgb(0,0,0)"  stroke-width="2.0"/>
<line x1="82.7" y1="140.1" x2="104.0" y2="125.2" stroke="rgb(0,0,0)"  stroke-width="2.0"/>
<line x1="83.1" y1="255.5" x2="48.8" y2="237.7" stroke="rgb(0,0,0)"  stroke-width="2.0"/>
<line x1="81.1" y1="246.4" x2="57.4" y2="234.1" stroke="rgb(0,0,0)"  stroke-width="2.0"/>
<line x1="48.8" y1="237.7" x2="48.7" y2="198.0" stroke="rgb(0,0,0)"  stroke-width="2.0"/>
<line x1="48.7" y1="198.0" x2="82.7" y2="178.8" stroke="rgb(0,0,0)"  stroke-width="2.0"/>
<line x1="57.5" y1="201.3" x2="81.0" y2="188.0" stroke="rgb(0,0,0)"  stroke-width="2.0"/>
<line x1="82.7" y1="178.8" x2="116.6" y2="198.3" stroke="rgb(0,0,0)"  stroke-width="2.0"/>
<line x1="116.6" y1="198.3" x2="117.0" y2="237.1" stroke="rgb(0,0,0)"  stroke-width="2.0"/>
<line x1="117.0" y1="237.1" x2="83.1" y2="255.5" stroke="rgb(0,0,0)"  stroke-width="2.0"/>
<text x="45.280864" y="125.074583" fill="rgb(12,12,255)"  stroke="rgb(12,12,255)" stroke-width="1" font-size="16" >N</text>
<text x="108.639714" y="125.727714" fill="rgb(255,12,12)"  stroke="rgb(255,12,12)" stroke-width="1" font-size="16" >O</text>
<text x="180.731030" y="206.815129" fill="rgb(102,102,102)"  stroke="rgb(102,102,102)" stroke-width="1" font-size="16" >CH</text>
<text x="204.731030" y="210.495129" fill="rgb(102,102,102)"  stroke="rgb(102,102,102)" stroke-width="1" font-size="13" >2</text>
<text x="248.617378" y="244.728028" fill="rgb(102,102,102)"  stroke="rgb(102,102,102)" stroke-width="1" font-size="16" >CH</text>
<text x="272.617378" y="248.408028" fill="rgb(102,102,102)"  stroke="rgb(102,102,102)" stroke-width="1" font-size="13" >2</text>
<text x="120.825670" y="292.771921" fill="rgb(17,127,178)"  stroke="rgb(17,127,178)" stroke-width="1" font-size="13" >2-</text>
<text x="110.925670" y="304.047921" fill="rgb(17,127,178)"  stroke="rgb(17,127,178)" stroke-width="1" font-size="16" >Xx</text>
<text x="14.000000" y="56.153677" fill="rgb(102,102,102)"  stroke="rgb(102,102,102)" stroke-width="1" font-size="16" >H</text>
<text x="26.000000" y="59.833677" fill="rgb(102,102,102)"  stroke="rgb(102,102,102)" stroke-width="1" font-size="13" >3</text>
<text x="32.500000" y="56.153677" fill="rgb(102,102,102)"  stroke="rgb(102,102,102)" stroke-width="1" font-size="16" >C</text>
<text x="59.860151" y="48.000000" fill="rgb(102,102,102)"  stroke="rgb(102,102,102)" stroke-width="1" font-size="16" >CH</text>
<text x="83.860151" y="51.680000" fill="rgb(102,102,102)"  stroke="rgb(102,102,102)" stroke-width="1" font-size="13" >3</text>
<text x="90.559917" y="290.739741" fill="rgb(102,102,102)"  stroke="rgb(102,102,102)" stroke-width="1" font-size="16" >H</text>
<text x="102.559917" y="294.419741" fill="rgb(102,102,102)"  stroke="rgb(102,102,102)" stroke-width="1" font-size="13" >3</text>
<text x="109.059917" y="290.739741" fill="rgb(102,102,102)"  stroke="rgb(102,102,102)" stroke-width="1" font-size="16" >C</text>
<text x="110.599105" y="167.533269" fill="rgb(191,191,191)"  stroke="rgb(191,191,191)" stroke-width="1" font-size="16" >H</text>
</svg>
</g>
<text font-size="18.000000" fill ="black" font-family="sans-serif"
x="10.000000" y="20.000000" ></text>
</svg>
