<?xml version="1.0"?>
<svg version="1.1" id="topsvg"
xmlns="http://www.w3.org/2000/svg" xmlns:xlink="http://www.w3.org/1999/xlink"
xmlns:cml="http://www.xml-cml.org/schema" x="0" y="0" width="200px" height="200px" viewBox="0 0 100 100">
<title> - Open Babel Depiction</title>
<rect x="0" y="0" width="100" height="100" fill="white"/>
<g transform="translate(0,0)">
<svg width="100" height="100" x="0" y="0" viewBox="0 0 288.872 261.447"
font-family="sans-serif" stroke="rgb(0,0,0)" stroke-width="2"  stroke-linecap="round">
<line x1="214.3" y1="200.4" x2="236.0" y2="212.5" stroke="rgb(0,0,0)"  stroke-width="2.0"/>
<line x1="211.4" y1="205.6" x2="233.1" y2="217.7" stroke="rgb(0,0,0)"  stroke-width="2.0"/>
<polygon points="179.225826 139.482876 146.349233 159.551339 142.912730 152.327044 " stroke-width="2.000000" fill="rgb(0,0,0)"  stroke="rgb(0,0,0)" />
<line x1="173.5" y1="96.8" x2="174.3" y2="95.5" stroke="rgb(0,0,0)"  stroke-width="1.0"/>
<line x1="167.7" y1="94.0" x2="169.2" y2="91.5" stroke="rgb(0,0,0)"  stroke-width="1.0"/>
<line x1="161.8" y1="91.1" x2="164.0" y2="87.6" stroke="rgb(0,0,0)"  stroke-width="1.0"/>
<line x1="156.0" y1="88.3" x2="158.8" y2="83.7" stroke="rgb(0,0,0)"  stroke-width="1.0"/>
<line x1="150.1" y1="85.4" x2="153.6" y2="79.7" stroke="rgb(0,0,0)"  stroke-width="1.0"/>
<line x1="144.3" y1="82.6" x2="148.4" y2="75.8" stroke="rgb(0,0,0)"  stroke-width="1.0"/>
<line x1="215.4" y1="52.9" x2="216.5" y2="79.8" stroke="rgb(0,0,0)"  stroke-width="2.0"/>
<line x1="209.4" y1="53.1" x2="210.5" y2="80.0" stroke="rgb(0,0,0)"  stroke-width="2.0"/>
<line x1="214.3" y1="167.8" x2="212.7" y2="167.8" stroke="rgb(0,0,0)"  stroke-width="1.0"/>
<line x1="214.8" y1="174.9" x2="212.0" y2="174.8" stroke="rgb(0,0,0)"  stroke-width="1.0"/>
<line x1="215.3" y1="181.9" x2="211.2" y2="181.9" stroke="rgb(0,0,0)"  stroke-width="1.0"/>
<line x1="215.9" y1="189.0" x2="210.4" y2="188.9" stroke="rgb(0,0,0)"  stroke-width="1.0"/>
<line x1="216.4" y1="196.0" x2="209.6" y2="195.9" stroke="rgb(0,0,0)"  stroke-width="1.0"/>
<line x1="216.9" y1="203.1" x2="208.9" y2="202.9" stroke="rgb(0,0,0)"  stroke-width="1.0"/>
<line x1="49.7" y1="90.2" x2="73.5" y2="76.2" stroke="rgb(0,0,0)"  stroke-width="2.0"/>
<line x1="52.7" y1="95.3" x2="76.5" y2="81.3" stroke="rgb(0,0,0)"  stroke-width="2.0"/>
<line x1="75.0" y1="78.8" x2="109.4" y2="99.3" stroke="rgb(0,0,0)"  stroke-width="2.0"/>
<line x1="109.4" y1="99.3" x2="146.3" y2="79.2" stroke="rgb(0,0,0)"  stroke-width="2.0"/>
<line x1="122.4" y1="142.5" x2="145.9" y2="153.2" stroke="rgb(0,0,0)"  stroke-width="2.0"/>
<line x1="119.9" y1="147.9" x2="143.4" y2="158.7" stroke="rgb(0,0,0)"  stroke-width="2.0"/>
<line x1="179.2" y1="139.5" x2="180.8" y2="100.4" stroke="rgb(0,0,0)"  stroke-width="2.0"/>
<line x1="180.8" y1="100.4" x2="213.5" y2="79.9" stroke="rgb(0,0,0)"  stroke-width="2.0"/>
<line x1="213.5" y1="79.9" x2="248.2" y2="99.7" stroke="rgb(0,0,0)"  stroke-width="2.0"/>
<line x1="248.2" y1="99.7" x2="248.9" y2="140.6" stroke="rgb(0,0,0)"  stroke-width="2.0"/>
<line x1="248.9" y1="140.6" x2="213.7" y2="159.0" stroke="rgb(0,0,0)"  stroke-width="2.0"/>
<line x1="213.7" y1="159.0" x2="179.2" y2="139.5" stroke="rgb(0,0,0)"  stroke-width="2.0"/>
<text x="239.873505" y="229.446704" fill="rgb(255,12,12)"  stroke="rgb(255,12,12)" stroke-width="1" font-size="16" >O</text>
<text x="205.852749" y="48.000000" fill="rgb(255,12,12)"  stroke="rgb(255,12,12)" stroke-width="1" font-size="16" >O</text>
<text x="14.000000" y="107.339398" fill="rgb(102,102,102)"  stroke="rgb(102,102,102)" stroke-width="1" font-size="16" >H</text>
<text x="26.000000" y="111.019398" fill="rgb(102,102,102)"  stroke="rgb(102,102,102)" stroke-width="1" font-size="13" >2</text>
<text x="32.500000" y="107.339398" fill="rgb(102,102,102)"  stroke="rgb(102,102,102)" stroke-width="1" font-size="16" >C</text>
<text x="83.280476" y="147.779265" fill="rgb(102,102,102)"  stroke="rgb(102,102,102)" stroke-width="1" font-size="16" >H</text>
<text x="95.280476" y="151.459265" fill="rgb(102,102,102)"  stroke="rgb(102,102,102)" stroke-width="1" font-size="13" >2</text>
<text x="101.780476" y="147.779265" fill="rgb(102,102,102)"  stroke="rgb(102,102,102)" stroke-width="1" font-size="16" >C</text>
</svg>
</g>
<text font-size="18.000000" fill ="black" font-family="sans-serif"
x="10.000000" y="20.000000" ></text>
</svg>
