<?xml version="1.0"?>
<svg version="1.1" id="topsvg"
xmlns="http://www.w3.org/2000/svg" xmlns:xlink="http://www.w3.org/1999/xlink"
xmlns:cml="http://www.xml-cml.org/schema" x="0" y="0" width="200px" height="200px" viewBox="0 0 100 100">
<title> - Open Babel Depiction</title>
<rect x="0" y="0" width="100" height="100" fill="white"/>
<g transform="translate(0,0)">
<svg width="100" height="100" x="0" y="0" viewBox="0 0 289.691 344.783"
font-family="sans-serif" stroke="rgb(0,0,0)" stroke-width="2"  stroke-linecap="round">
<line x1="165.6" y1="272.5" x2="193.3" y2="266.2" stroke="rgb(0,0,0)"  stroke-width="2.0"/>
<line x1="193.3" y1="266.2" x2="185.5" y2="292.3" stroke="rgb(0,0,0)"  stroke-width="2.0"/>
<line x1="144.9" y1="157.7" x2="179.9" y2="140.0" stroke="rgb(0,0,0)"  stroke-width="2.0"/>
<polygon points="180.375779 100.965521 143.049973 83.773957 147.088089 76.867900 " stroke-width="2.000000" fill="rgb(0,0,0)"  stroke="rgb(0,0,0)" />
<line x1="145.1" y1="80.3" x2="177.1" y2="96.4" stroke="rgb(0,0,0)"  stroke-width="2.0"/>
<line x1="49.9" y1="91.6" x2="73.5" y2="78.2" stroke="rgb(0,0,0)"  stroke-width="2.0"/>
<line x1="52.8" y1="96.8" x2="76.5" y2="83.4" stroke="rgb(0,0,0)"  stroke-width="2.0"/>
<line x1="75.0" y1="80.8" x2="109.8" y2="100.0" stroke="rgb(0,0,0)"  stroke-width="2.0"/>
<line x1="109.8" y1="100.0" x2="145.1" y2="80.3" stroke="rgb(0,0,0)"  stroke-width="2.0"/>
<line x1="216.5" y1="53.0" x2="216.0" y2="80.6" stroke="rgb(0,0,0)"  stroke-width="2.0"/>
<line x1="210.5" y1="52.9" x2="210.0" y2="80.5" stroke="rgb(0,0,0)"  stroke-width="2.0"/>
<line x1="214.7" y1="168.3" x2="213.1" y2="168.3" stroke="rgb(0,0,0)"  stroke-width="1.0"/>
<line x1="215.3" y1="175.7" x2="212.5" y2="175.7" stroke="rgb(0,0,0)"  stroke-width="1.0"/>
<line x1="216.0" y1="183.1" x2="211.8" y2="183.1" stroke="rgb(0,0,0)"  stroke-width="1.0"/>
<line x1="216.6" y1="190.5" x2="211.2" y2="190.5" stroke="rgb(0,0,0)"  stroke-width="1.0"/>
<line x1="217.3" y1="197.8" x2="210.6" y2="197.8" stroke="rgb(0,0,0)"  stroke-width="1.0"/>
<line x1="217.9" y1="205.2" x2="209.9" y2="205.2" stroke="rgb(0,0,0)"  stroke-width="1.0"/>
<line x1="181.5" y1="145.4" x2="144.9" y2="157.7" stroke="rgb(0,0,0)"  stroke-width="2.0"/>
<line x1="125.6" y1="139.9" x2="146.7" y2="155.3" stroke="rgb(0,0,0)"  stroke-width="2.0"/>
<line x1="122.1" y1="144.8" x2="143.2" y2="160.1" stroke="rgb(0,0,0)"  stroke-width="2.0"/>
<line x1="178.2" y1="67.8" x2="177.1" y2="96.4" stroke="rgb(0,0,0)"  stroke-width="2.0"/>
<line x1="179.7" y1="169.0" x2="181.5" y2="145.4" stroke="rgb(0,0,0)"  stroke-width="2.0"/>
<line x1="191.2" y1="219.3" x2="213.9" y2="205.2" stroke="rgb(0,0,0)"  stroke-width="2.0"/>
<line x1="196.7" y1="224.4" x2="212.6" y2="214.5" stroke="rgb(0,0,0)"  stroke-width="2.0"/>
<line x1="213.9" y1="205.2" x2="234.7" y2="220.1" stroke="rgb(0,0,0)"  stroke-width="2.0"/>
<line x1="241.4" y1="240.1" x2="233.6" y2="265.2" stroke="rgb(0,0,0)"  stroke-width="2.0"/>
<line x1="233.6" y1="265.2" x2="193.3" y2="266.2" stroke="rgb(0,0,0)"  stroke-width="2.0"/>
<line x1="193.3" y1="266.2" x2="184.1" y2="238.6" stroke="rgb(0,0,0)"  stroke-width="2.0"/>
<line x1="179.9" y1="140.0" x2="180.4" y2="101.0" stroke="rgb(0,0,0)"  stroke-width="2.0"/>
<line x1="180.4" y1="101.0" x2="213.0" y2="80.6" stroke="rgb(0,0,0)"  stroke-width="2.0"/>
<line x1="213.0" y1="80.6" x2="249.5" y2="100.3" stroke="rgb(0,0,0)"  stroke-width="2.0"/>
<line x1="249.5" y1="100.3" x2="249.7" y2="142.3" stroke="rgb(0,0,0)"  stroke-width="2.0"/>
<line x1="249.7" y1="142.3" x2="213.9" y2="159.1" stroke="rgb(0,0,0)"  stroke-width="2.0"/>
<line x1="213.9" y1="159.1" x2="179.9" y2="140.0" stroke="rgb(0,0,0)"  stroke-width="2.0"/>
<text x="126.910837" y="283.389848" fill="rgb(102,102,102)"  stroke="rgb(102,102,102)" stroke-width="1" font-size="16" >H</text>
<text x="138.910837" y="287.069848" fill="rgb(102,102,102)"  stroke="rgb(102,102,102)" stroke-width="1" font-size="13" >3</text>
<text x="145.410837" y="283.389848" fill="rgb(102,102,102)"  stroke="rgb(102,102,102)" stroke-width="1" font-size="16" >C</text>
<text x="174.040614" y="234.304078" fill="rgb(12,12,255)"  stroke="rgb(12,12,255)" stroke-width="1" font-size="16" >N</text>
<text x="239.280824" y="235.650060" fill="rgb(255,12,12)"  stroke="rgb(255,12,12)" stroke-width="1" font-size="16" >O</text>
<text x="155.822842" y="312.783321" fill="rgb(102,102,102)"  stroke="rgb(102,102,102)" stroke-width="1" font-size="16" >H</text>
<text x="167.822842" y="316.463321" fill="rgb(102,102,102)"  stroke="rgb(102,102,102)" stroke-width="1" font-size="13" >3</text>
<text x="174.322842" y="312.783321" fill="rgb(102,102,102)"  stroke="rgb(102,102,102)" stroke-width="1" font-size="16" >C</text>
<text x="14.000000" y="108.553215" fill="rgb(102,102,102)"  stroke="rgb(102,102,102)" stroke-width="1" font-size="16" >H</text>
<text x="26.000000" y="112.233215" fill="rgb(102,102,102)"  stroke="rgb(102,102,102)" stroke-width="1" font-size="13" >2</text>
<text x="32.500000" y="108.553215" fill="rgb(102,102,102)"  stroke="rgb(102,102,102)" stroke-width="1" font-size="16" >C</text>
<text x="207.668875" y="48.000000" fill="rgb(255,12,12)"  stroke="rgb(255,12,12)" stroke-width="1" font-size="16" >O</text>
<text x="87.350680" y="142.729445" fill="rgb(102,102,102)"  stroke="rgb(102,102,102)" stroke-width="1" font-size="16" >H</text>
<text x="99.350680" y="146.409445" fill="rgb(102,102,102)"  stroke="rgb(102,102,102)" stroke-width="1" font-size="13" >2</text>
<text x="105.850680" y="142.729445" fill="rgb(102,102,102)"  stroke="rgb(102,102,102)" stroke-width="1" font-size="16" >C</text>
<text x="174.681332" y="62.808458" fill="rgb(102,102,102)"  stroke="rgb(102,102,102)" stroke-width="1" font-size="16" >CH</text>
<text x="198.681332" y="66.488458" fill="rgb(102,102,102)"  stroke="rgb(102,102,102)" stroke-width="1" font-size="13" >3</text>
<text x="172.694632" y="189.913284" fill="rgb(191,191,191)"  stroke="rgb(191,191,191)" stroke-width="1" font-size="16" >H</text>
</svg>
</g>
<text font-size="18.000000" fill ="black" font-family="sans-serif"
x="10.000000" y="20.000000" ></text>
</svg>
