<?xml version="1.0"?>
<svg version="1.1" id="topsvg"
xmlns="http://www.w3.org/2000/svg" xmlns:xlink="http://www.w3.org/1999/xlink"
xmlns:cml="http://www.xml-cml.org/schema" x="0" y="0" width="200px" height="200px" viewBox="0 0 100 100">
<title> - Open Babel Depiction</title>
<rect x="0" y="0" width="100" height="100" fill="white"/>
<g transform="translate(0,0)">
<svg width="100" height="100" x="0" y="0" viewBox="0 0 220.558 270.594"
font-family="sans-serif" stroke="rgb(0,0,0)" stroke-width="2"  stroke-linecap="round">
<line x1="146.1" y1="210.1" x2="168.3" y2="221.9" stroke="rgb(0,0,0)"  stroke-width="2.0"/>
<line x1="143.2" y1="215.4" x2="165.4" y2="227.2" stroke="rgb(0,0,0)"  stroke-width="2.0"/>
<line x1="139.0" y1="93.3" x2="138.3" y2="91.8" stroke="rgb(0,0,0)"  stroke-width="1.0"/>
<line x1="133.5" y1="96.6" x2="132.3" y2="94.0" stroke="rgb(0,0,0)"  stroke-width="1.0"/>
<line x1="128.1" y1="99.8" x2="126.3" y2="96.1" stroke="rgb(0,0,0)"  stroke-width="1.0"/>
<line x1="122.7" y1="103.1" x2="120.3" y2="98.2" stroke="rgb(0,0,0)"  stroke-width="1.0"/>
<line x1="117.2" y1="106.4" x2="114.4" y2="100.3" stroke="rgb(0,0,0)"  stroke-width="1.0"/>
<line x1="111.8" y1="109.6" x2="108.4" y2="102.4" stroke="rgb(0,0,0)"  stroke-width="1.0"/>
<line x1="145.8" y1="89.2" x2="152.3" y2="60.5" stroke="rgb(0,0,0)"  stroke-width="2.0"/>
<line x1="138.2" y1="164.3" x2="138.9" y2="162.9" stroke="rgb(0,0,0)"  stroke-width="1.0"/>
<line x1="132.6" y1="162.1" x2="134.0" y2="159.6" stroke="rgb(0,0,0)"  stroke-width="1.0"/>
<line x1="127.1" y1="160.0" x2="129.0" y2="156.3" stroke="rgb(0,0,0)"  stroke-width="1.0"/>
<line x1="121.6" y1="157.9" x2="124.1" y2="153.0" stroke="rgb(0,0,0)"  stroke-width="1.0"/>
<line x1="116.0" y1="155.7" x2="119.1" y2="149.8" stroke="rgb(0,0,0)"  stroke-width="1.0"/>
<line x1="110.5" y1="153.6" x2="114.2" y2="146.5" stroke="rgb(0,0,0)"  stroke-width="1.0"/>
<line x1="145.1" y1="166.9" x2="144.7" y2="212.7" stroke="rgb(0,0,0)"  stroke-width="2.0"/>
<line x1="111.3" y1="114.8" x2="109.7" y2="114.9" stroke="rgb(0,0,0)"  stroke-width="1.0"/>
<line x1="112.3" y1="121.8" x2="109.5" y2="121.9" stroke="rgb(0,0,0)"  stroke-width="1.0"/>
<line x1="113.3" y1="128.8" x2="109.2" y2="129.0" stroke="rgb(0,0,0)"  stroke-width="1.0"/>
<line x1="114.3" y1="135.8" x2="108.9" y2="136.1" stroke="rgb(0,0,0)"  stroke-width="1.0"/>
<line x1="115.3" y1="142.8" x2="108.6" y2="143.2" stroke="rgb(0,0,0)"  stroke-width="1.0"/>
<line x1="116.3" y1="149.9" x2="108.3" y2="150.3" stroke="rgb(0,0,0)"  stroke-width="1.0"/>
<line x1="110.1" y1="106.0" x2="109.4" y2="75.6" stroke="rgb(0,0,0)"  stroke-width="2.0"/>
<line x1="112.7" y1="155.4" x2="111.1" y2="155.3" stroke="rgb(0,0,0)"  stroke-width="1.0"/>
<line x1="113.0" y1="159.7" x2="110.1" y2="159.5" stroke="rgb(0,0,0)"  stroke-width="1.0"/>
<line x1="113.3" y1="164.0" x2="109.1" y2="163.7" stroke="rgb(0,0,0)"  stroke-width="1.0"/>
<line x1="113.6" y1="168.3" x2="108.2" y2="167.9" stroke="rgb(0,0,0)"  stroke-width="1.0"/>
<line x1="113.9" y1="172.6" x2="107.2" y2="172.0" stroke="rgb(0,0,0)"  stroke-width="1.0"/>
<line x1="114.2" y1="176.9" x2="106.2" y2="176.2" stroke="rgb(0,0,0)"  stroke-width="1.0"/>
<line x1="167.6" y1="44.0" x2="168.1" y2="43.8" stroke="rgb(0,0,0)"  stroke-width="2.0"/>
<line x1="40.0" y1="107.7" x2="74.7" y2="87.7" stroke="rgb(0,0,0)"  stroke-width="2.0"/>
<line x1="74.7" y1="87.7" x2="110.1" y2="106.0" stroke="rgb(0,0,0)"  stroke-width="2.0"/>
<line x1="110.1" y1="106.0" x2="112.3" y2="150.1" stroke="rgb(0,0,0)"  stroke-width="2.0"/>
<line x1="112.3" y1="150.1" x2="75.0" y2="168.7" stroke="rgb(0,0,0)"  stroke-width="2.0"/>
<line x1="75.0" y1="168.7" x2="40.0" y2="149.3" stroke="rgb(0,0,0)"  stroke-width="2.0"/>
<line x1="73.3" y1="159.5" x2="48.7" y2="145.9" stroke="rgb(0,0,0)"  stroke-width="2.0"/>
<line x1="40.0" y1="149.3" x2="40.0" y2="107.7" stroke="rgb(0,0,0)"  stroke-width="2.0"/>
<line x1="145.8" y1="89.2" x2="180.4" y2="107.9" stroke="rgb(0,0,0)"  stroke-width="2.0"/>
<line x1="180.4" y1="107.9" x2="180.3" y2="149.8" stroke="rgb(0,0,0)"  stroke-width="2.0"/>
<line x1="180.3" y1="149.8" x2="145.1" y2="166.9" stroke="rgb(0,0,0)"  stroke-width="2.0"/>
<line x1="145.1" y1="166.9" x2="112.3" y2="150.1" stroke="rgb(0,0,0)"  stroke-width="2.0"/>
<line x1="110.1" y1="106.0" x2="145.8" y2="89.2" stroke="rgb(0,0,0)"  stroke-width="2.0"/>
<text x="172.331857" y="238.593544" fill="rgb(255,12,12)"  stroke="rgb(255,12,12)" stroke-width="1" font-size="16" >O</text>
<text x="103.135772" y="197.613231" fill="rgb(191,191,191)"  stroke="rgb(191,191,191)" stroke-width="1" font-size="16" >H</text>
<text x="83.119323" y="70.650478" fill="rgb(102,102,102)"  stroke="rgb(102,102,102)" stroke-width="1" font-size="16" >H</text>
<text x="95.119323" y="74.330478" fill="rgb(102,102,102)"  stroke="rgb(102,102,102)" stroke-width="1" font-size="13" >3</text>
<text x="101.619323" y="70.650478" fill="rgb(102,102,102)"  stroke="rgb(102,102,102)" stroke-width="1" font-size="16" >C</text>
<text x="149.155006" y="55.859952" fill="rgb(255,12,12)"  stroke="rgb(255,12,12)" stroke-width="1" font-size="16" >O</text>
<text x="174.557975" y="48.000000" fill="rgb(191,191,191)"  stroke="rgb(191,191,191)" stroke-width="1" font-size="16" >H</text>
</svg>
</g>
<text font-size="18.000000" fill ="black" font-family="sans-serif"
x="10.000000" y="20.000000" ></text>
</svg>
