<?xml version="1.0"?>
<svg version="1.1" id="topsvg"
xmlns="http://www.w3.org/2000/svg" xmlns:xlink="http://www.w3.org/1999/xlink"
xmlns:cml="http://www.xml-cml.org/schema" x="0" y="0" width="200px" height="200px" viewBox="0 0 100 100">
<title> - Open Babel Depiction</title>
<rect x="0" y="0" width="100" height="100" fill="white"/>
<g transform="translate(0,0)">
<svg width="100" height="100" x="0" y="0" viewBox="0 0 293.553 355.912"
font-family="sans-serif" stroke="rgb(0,0,0)" stroke-width="2"  stroke-linecap="round">
<line x1="167.8" y1="282.5" x2="195.6" y2="275.4" stroke="rgb(0,0,0)"  stroke-width="2.0"/>
<line x1="195.6" y1="275.4" x2="187.9" y2="303.4" stroke="rgb(0,0,0)"  stroke-width="2.0"/>
<polygon points="182.603571 149.200883 148.699351 170.222055 145.186754 163.034450 " stroke-width="2.000000" fill="rgb(0,0,0)"  stroke="rgb(0,0,0)" />
<polygon points="183.018835 109.329965 144.953001 91.918627 148.960605 84.994819 " stroke-width="2.000000" fill="rgb(0,0,0)"  stroke="rgb(0,0,0)" />
<line x1="147.0" y1="88.5" x2="179.7" y2="104.7" stroke="rgb(0,0,0)"  stroke-width="2.0"/>
<line x1="49.8" y1="99.5" x2="74.8" y2="85.2" stroke="rgb(0,0,0)"  stroke-width="2.0"/>
<line x1="52.8" y1="104.7" x2="77.7" y2="90.4" stroke="rgb(0,0,0)"  stroke-width="2.0"/>
<line x1="76.2" y1="87.8" x2="111.4" y2="108.5" stroke="rgb(0,0,0)"  stroke-width="2.0"/>
<line x1="111.4" y1="108.5" x2="147.0" y2="88.5" stroke="rgb(0,0,0)"  stroke-width="2.0"/>
<line x1="218.1" y1="83.8" x2="219.7" y2="84.1" stroke="rgb(0,0,0)"  stroke-width="1.0"/>
<line x1="218.5" y1="79.2" x2="221.3" y2="79.8" stroke="rgb(0,0,0)"  stroke-width="1.0"/>
<line x1="218.9" y1="74.6" x2="222.9" y2="75.5" stroke="rgb(0,0,0)"  stroke-width="1.0"/>
<line x1="219.3" y1="70.0" x2="224.6" y2="71.2" stroke="rgb(0,0,0)"  stroke-width="1.0"/>
<line x1="219.6" y1="65.4" x2="226.2" y2="66.9" stroke="rgb(0,0,0)"  stroke-width="1.0"/>
<line x1="220.0" y1="60.8" x2="227.8" y2="62.6" stroke="rgb(0,0,0)"  stroke-width="1.0"/>
<line x1="218.2" y1="177.6" x2="216.6" y2="177.6" stroke="rgb(0,0,0)"  stroke-width="1.0"/>
<line x1="218.8" y1="185.1" x2="215.9" y2="185.1" stroke="rgb(0,0,0)"  stroke-width="1.0"/>
<line x1="219.5" y1="192.5" x2="215.3" y2="192.5" stroke="rgb(0,0,0)"  stroke-width="1.0"/>
<line x1="220.1" y1="200.0" x2="214.7" y2="200.0" stroke="rgb(0,0,0)"  stroke-width="1.0"/>
<line x1="220.8" y1="207.4" x2="214.0" y2="207.4" stroke="rgb(0,0,0)"  stroke-width="1.0"/>
<line x1="221.4" y1="214.8" x2="213.4" y2="214.9" stroke="rgb(0,0,0)"  stroke-width="1.0"/>
<line x1="179.9" y1="154.3" x2="146.9" y2="166.6" stroke="rgb(0,0,0)"  stroke-width="2.0"/>
<line x1="180.8" y1="178.3" x2="179.9" y2="154.3" stroke="rgb(0,0,0)"  stroke-width="2.0"/>
<line x1="180.8" y1="75.6" x2="179.7" y2="104.7" stroke="rgb(0,0,0)"  stroke-width="2.0"/>
<line x1="123.7" y1="152.6" x2="148.2" y2="163.9" stroke="rgb(0,0,0)"  stroke-width="2.0"/>
<line x1="121.1" y1="158.0" x2="145.7" y2="169.4" stroke="rgb(0,0,0)"  stroke-width="2.0"/>
<line x1="239.3" y1="44.1" x2="240.0" y2="43.9" stroke="rgb(0,0,0)"  stroke-width="2.0"/>
<line x1="194.1" y1="229.2" x2="217.4" y2="214.9" stroke="rgb(0,0,0)"  stroke-width="2.0"/>
<line x1="199.6" y1="234.3" x2="216.1" y2="224.1" stroke="rgb(0,0,0)"  stroke-width="2.0"/>
<line x1="217.4" y1="214.9" x2="238.2" y2="230.0" stroke="rgb(0,0,0)"  stroke-width="2.0"/>
<line x1="245.0" y1="250.1" x2="237.2" y2="275.9" stroke="rgb(0,0,0)"  stroke-width="2.0"/>
<line x1="237.2" y1="275.9" x2="195.6" y2="275.4" stroke="rgb(0,0,0)"  stroke-width="2.0"/>
<line x1="195.6" y1="275.4" x2="186.8" y2="248.6" stroke="rgb(0,0,0)"  stroke-width="2.0"/>
<line x1="182.6" y1="149.2" x2="183.0" y2="109.3" stroke="rgb(0,0,0)"  stroke-width="2.0"/>
<line x1="183.0" y1="109.3" x2="217.7" y2="89.5" stroke="rgb(0,0,0)"  stroke-width="2.0"/>
<line x1="217.7" y1="89.5" x2="253.6" y2="108.4" stroke="rgb(0,0,0)"  stroke-width="2.0"/>
<line x1="253.6" y1="108.4" x2="253.4" y2="150.9" stroke="rgb(0,0,0)"  stroke-width="2.0"/>
<line x1="253.4" y1="150.9" x2="217.4" y2="168.3" stroke="rgb(0,0,0)"  stroke-width="2.0"/>
<line x1="217.4" y1="168.3" x2="182.6" y2="149.2" stroke="rgb(0,0,0)"  stroke-width="2.0"/>
<text x="129.154845" y="293.740488" fill="rgb(102,102,102)"  stroke="rgb(102,102,102)" stroke-width="1" font-size="16" >H</text>
<text x="141.154845" y="297.420488" fill="rgb(102,102,102)"  stroke="rgb(102,102,102)" stroke-width="1" font-size="13" >3</text>
<text x="147.654845" y="293.740488" fill="rgb(102,102,102)"  stroke="rgb(102,102,102)" stroke-width="1" font-size="16" >C</text>
<text x="176.688824" y="244.255228" fill="rgb(12,12,255)"  stroke="rgb(12,12,255)" stroke-width="1" font-size="16" >N</text>
<text x="242.732422" y="245.616527" fill="rgb(255,12,12)"  stroke="rgb(255,12,12)" stroke-width="1" font-size="16" >O</text>
<text x="158.484637" y="323.911811" fill="rgb(102,102,102)"  stroke="rgb(102,102,102)" stroke-width="1" font-size="16" >H</text>
<text x="170.484637" y="327.591811" fill="rgb(102,102,102)"  stroke="rgb(102,102,102)" stroke-width="1" font-size="13" >3</text>
<text x="176.984637" y="323.911811" fill="rgb(102,102,102)"  stroke="rgb(102,102,102)" stroke-width="1" font-size="16" >C</text>
<text x="14.000000" y="116.499436" fill="rgb(102,102,102)"  stroke="rgb(102,102,102)" stroke-width="1" font-size="16" >H</text>
<text x="26.000000" y="120.179436" fill="rgb(102,102,102)"  stroke="rgb(102,102,102)" stroke-width="1" font-size="13" >2</text>
<text x="32.500000" y="116.499436" fill="rgb(102,102,102)"  stroke="rgb(102,102,102)" stroke-width="1" font-size="16" >C</text>
<text x="175.324775" y="199.318630" fill="rgb(191,191,191)"  stroke="rgb(191,191,191)" stroke-width="1" font-size="16" >H</text>
<text x="177.311025" y="70.647055" fill="rgb(102,102,102)"  stroke="rgb(102,102,102)" stroke-width="1" font-size="16" >CH</text>
<text x="201.311025" y="74.327055" fill="rgb(102,102,102)"  stroke="rgb(102,102,102)" stroke-width="1" font-size="13" >3</text>
<text x="84.592260" y="157.849906" fill="rgb(102,102,102)"  stroke="rgb(102,102,102)" stroke-width="1" font-size="16" >H</text>
<text x="96.592260" y="161.529906" fill="rgb(102,102,102)"  stroke="rgb(102,102,102)" stroke-width="1" font-size="13" >2</text>
<text x="103.092260" y="157.849906" fill="rgb(102,102,102)"  stroke="rgb(102,102,102)" stroke-width="1" font-size="16" >C</text>
<text x="220.943397" y="55.994534" fill="rgb(255,12,12)"  stroke="rgb(255,12,12)" stroke-width="1" font-size="16" >O</text>
<text x="246.392802" y="48.000000" fill="rgb(191,191,191)"  stroke="rgb(191,191,191)" stroke-width="1" font-size="16" >H</text>
</svg>
</g>
<text font-size="18.000000" fill ="black" font-family="sans-serif"
x="10.000000" y="20.000000" ></text>
</svg>
