<?xml version="1.0"?>
<svg version="1.1" id="topsvg"
xmlns="http://www.w3.org/2000/svg" xmlns:xlink="http://www.w3.org/1999/xlink"
xmlns:cml="http://www.xml-cml.org/schema" x="0" y="0" width="200px" height="200px" viewBox="0 0 100 100">
<title> - Open Babel Depiction</title>
<rect x="0" y="0" width="100" height="100" fill="white"/>
<g transform="translate(0,0)">
<svg width="100" height="100" x="0" y="0" viewBox="0 0 233.931 297.699"
font-family="sans-serif" stroke="rgb(0,0,0)" stroke-width="2"  stroke-linecap="round">
<line x1="145.9" y1="213.4" x2="178.2" y2="226.5" stroke="rgb(0,0,0)"  stroke-width="2.0"/>
<line x1="192.1" y1="244.3" x2="192.1" y2="244.8" stroke="rgb(0,0,0)"  stroke-width="2.0"/>
<line x1="140.2" y1="93.3" x2="139.4" y2="91.9" stroke="rgb(0,0,0)"  stroke-width="1.0"/>
<line x1="135.1" y1="96.7" x2="133.8" y2="94.2" stroke="rgb(0,0,0)"  stroke-width="1.0"/>
<line x1="130.1" y1="100.1" x2="128.1" y2="96.4" stroke="rgb(0,0,0)"  stroke-width="1.0"/>
<line x1="125.0" y1="103.5" x2="122.5" y2="98.7" stroke="rgb(0,0,0)"  stroke-width="1.0"/>
<line x1="120.0" y1="106.9" x2="116.8" y2="101.0" stroke="rgb(0,0,0)"  stroke-width="1.0"/>
<line x1="115.0" y1="110.4" x2="111.2" y2="103.3" stroke="rgb(0,0,0)"  stroke-width="1.0"/>
<line x1="146.5" y1="89.0" x2="153.4" y2="60.2" stroke="rgb(0,0,0)"  stroke-width="2.0"/>
<line x1="139.0" y1="164.8" x2="139.8" y2="163.4" stroke="rgb(0,0,0)"  stroke-width="1.0"/>
<line x1="133.5" y1="162.6" x2="134.9" y2="160.1" stroke="rgb(0,0,0)"  stroke-width="1.0"/>
<line x1="128.0" y1="160.4" x2="129.9" y2="156.8" stroke="rgb(0,0,0)"  stroke-width="1.0"/>
<line x1="122.5" y1="158.2" x2="125.0" y2="153.4" stroke="rgb(0,0,0)"  stroke-width="1.0"/>
<line x1="117.0" y1="156.1" x2="120.1" y2="150.1" stroke="rgb(0,0,0)"  stroke-width="1.0"/>
<line x1="111.4" y1="153.9" x2="115.2" y2="146.8" stroke="rgb(0,0,0)"  stroke-width="1.0"/>
<line x1="145.9" y1="167.6" x2="145.9" y2="213.4" stroke="rgb(0,0,0)"  stroke-width="2.0"/>
<line x1="113.9" y1="115.5" x2="112.3" y2="115.5" stroke="rgb(0,0,0)"  stroke-width="1.0"/>
<line x1="114.6" y1="122.5" x2="111.7" y2="122.5" stroke="rgb(0,0,0)"  stroke-width="1.0"/>
<line x1="115.3" y1="129.4" x2="111.1" y2="129.5" stroke="rgb(0,0,0)"  stroke-width="1.0"/>
<line x1="116.0" y1="136.4" x2="110.5" y2="136.4" stroke="rgb(0,0,0)"  stroke-width="1.0"/>
<line x1="116.6" y1="143.3" x2="109.9" y2="143.4" stroke="rgb(0,0,0)"  stroke-width="1.0"/>
<line x1="117.3" y1="150.3" x2="109.3" y2="150.3" stroke="rgb(0,0,0)"  stroke-width="1.0"/>
<line x1="113.1" y1="106.8" x2="111.5" y2="75.4" stroke="rgb(0,0,0)"  stroke-width="2.0"/>
<line x1="113.7" y1="155.7" x2="112.1" y2="155.6" stroke="rgb(0,0,0)"  stroke-width="1.0"/>
<line x1="114.0" y1="160.1" x2="111.1" y2="159.8" stroke="rgb(0,0,0)"  stroke-width="1.0"/>
<line x1="114.3" y1="164.4" x2="110.1" y2="164.0" stroke="rgb(0,0,0)"  stroke-width="1.0"/>
<line x1="114.6" y1="168.7" x2="109.2" y2="168.3" stroke="rgb(0,0,0)"  stroke-width="1.0"/>
<line x1="114.9" y1="173.0" x2="108.2" y2="172.5" stroke="rgb(0,0,0)"  stroke-width="1.0"/>
<line x1="115.2" y1="177.3" x2="107.2" y2="176.7" stroke="rgb(0,0,0)"  stroke-width="1.0"/>
<line x1="168.9" y1="43.8" x2="169.4" y2="43.7" stroke="rgb(0,0,0)"  stroke-width="2.0"/>
<line x1="40.0" y1="107.9" x2="75.1" y2="87.8" stroke="rgb(0,0,0)"  stroke-width="2.0"/>
<line x1="75.1" y1="87.8" x2="113.1" y2="106.8" stroke="rgb(0,0,0)"  stroke-width="2.0"/>
<line x1="113.1" y1="106.8" x2="113.3" y2="150.3" stroke="rgb(0,0,0)"  stroke-width="2.0"/>
<line x1="113.3" y1="150.3" x2="75.6" y2="168.5" stroke="rgb(0,0,0)"  stroke-width="2.0"/>
<line x1="75.6" y1="168.5" x2="40.6" y2="149.4" stroke="rgb(0,0,0)"  stroke-width="2.0"/>
<line x1="73.7" y1="159.3" x2="49.3" y2="145.9" stroke="rgb(0,0,0)"  stroke-width="2.0"/>
<line x1="40.6" y1="149.4" x2="40.0" y2="107.9" stroke="rgb(0,0,0)"  stroke-width="2.0"/>
<line x1="146.5" y1="89.0" x2="181.7" y2="108.0" stroke="rgb(0,0,0)"  stroke-width="2.0"/>
<line x1="181.7" y1="108.0" x2="181.5" y2="149.9" stroke="rgb(0,0,0)"  stroke-width="2.0"/>
<line x1="181.5" y1="149.9" x2="145.9" y2="167.6" stroke="rgb(0,0,0)"  stroke-width="2.0"/>
<line x1="145.9" y1="167.6" x2="113.3" y2="150.3" stroke="rgb(0,0,0)"  stroke-width="2.0"/>
<line x1="113.1" y1="106.8" x2="146.5" y2="89.0" stroke="rgb(0,0,0)"  stroke-width="2.0"/>
<text x="184.267992" y="239.416805" fill="rgb(255,12,12)"  stroke="rgb(255,12,12)" stroke-width="1" font-size="16" >O</text>
<text x="104.150779" y="198.174975" fill="rgb(191,191,191)"  stroke="rgb(191,191,191)" stroke-width="1" font-size="16" >H</text>
<text x="84.826516" y="70.392330" fill="rgb(102,102,102)"  stroke="rgb(102,102,102)" stroke-width="1" font-size="16" >H</text>
<text x="96.826516" y="74.072330" fill="rgb(102,102,102)"  stroke="rgb(102,102,102)" stroke-width="1" font-size="13" >3</text>
<text x="103.326516" y="70.392330" fill="rgb(102,102,102)"  stroke="rgb(102,102,102)" stroke-width="1" font-size="16" >C</text>
<text x="150.464738" y="55.520649" fill="rgb(255,12,12)"  stroke="rgb(255,12,12)" stroke-width="1" font-size="16" >O</text>
<text x="187.931196" y="265.699409" fill="rgb(191,191,191)"  stroke="rgb(191,191,191)" stroke-width="1" font-size="16" >H</text>
<text x="175.912931" y="48.000000" fill="rgb(191,191,191)"  stroke="rgb(191,191,191)" stroke-width="1" font-size="16" >H</text>
</svg>
</g>
<text font-size="18.000000" fill ="black" font-family="sans-serif"
x="10.000000" y="20.000000" ></text>
</svg>
