<?xml version="1.0"?>
<svg version="1.1" id="topsvg"
xmlns="http://www.w3.org/2000/svg" xmlns:xlink="http://www.w3.org/1999/xlink"
xmlns:cml="http://www.xml-cml.org/schema" x="0" y="0" width="200px" height="200px" viewBox="0 0 100 100">
<title> - Open Babel Depiction</title>
<rect x="0" y="0" width="100" height="100" fill="white"/>
<g transform="translate(0,0)">
<svg width="100" height="100" x="0" y="0" viewBox="0 0 289.77 342.518"
font-family="sans-serif" stroke="rgb(0,0,0)" stroke-width="2"  stroke-linecap="round">
<line x1="165.9" y1="270.0" x2="193.1" y2="263.2" stroke="rgb(0,0,0)"  stroke-width="2.0"/>
<line x1="193.1" y1="263.2" x2="185.7" y2="290.0" stroke="rgb(0,0,0)"  stroke-width="2.0"/>
<polygon points="179.770414 139.287907 147.045270 160.223782 143.450813 153.076763 " stroke-width="2.000000" fill="rgb(0,0,0)"  stroke="rgb(0,0,0)" />
<line x1="173.8" y1="97.5" x2="174.6" y2="96.1" stroke="rgb(0,0,0)"  stroke-width="1.0"/>
<line x1="168.0" y1="94.7" x2="169.5" y2="92.2" stroke="rgb(0,0,0)"  stroke-width="1.0"/>
<line x1="162.3" y1="91.9" x2="164.4" y2="88.3" stroke="rgb(0,0,0)"  stroke-width="1.0"/>
<line x1="156.5" y1="89.1" x2="159.3" y2="84.4" stroke="rgb(0,0,0)"  stroke-width="1.0"/>
<line x1="150.7" y1="86.3" x2="154.2" y2="80.6" stroke="rgb(0,0,0)"  stroke-width="1.0"/>
<line x1="144.9" y1="83.5" x2="149.1" y2="76.7" stroke="rgb(0,0,0)"  stroke-width="1.0"/>
<line x1="207.4" y1="80.6" x2="209.7" y2="52.7" stroke="rgb(0,0,0)"  stroke-width="2.0"/>
<line x1="213.3" y1="81.1" x2="215.7" y2="53.2" stroke="rgb(0,0,0)"  stroke-width="2.0"/>
<line x1="215.0" y1="167.4" x2="213.4" y2="167.4" stroke="rgb(0,0,0)"  stroke-width="1.0"/>
<line x1="215.7" y1="174.8" x2="212.8" y2="174.8" stroke="rgb(0,0,0)"  stroke-width="1.0"/>
<line x1="216.3" y1="182.1" x2="212.1" y2="182.1" stroke="rgb(0,0,0)"  stroke-width="1.0"/>
<line x1="216.9" y1="189.4" x2="211.5" y2="189.4" stroke="rgb(0,0,0)"  stroke-width="1.0"/>
<line x1="217.5" y1="196.8" x2="210.8" y2="196.8" stroke="rgb(0,0,0)"  stroke-width="1.0"/>
<line x1="218.1" y1="204.1" x2="210.1" y2="204.1" stroke="rgb(0,0,0)"  stroke-width="1.0"/>
<line x1="181.9" y1="144.4" x2="145.2" y2="156.7" stroke="rgb(0,0,0)"  stroke-width="2.0"/>
<line x1="126.0" y1="139.1" x2="147.0" y2="154.2" stroke="rgb(0,0,0)"  stroke-width="2.0"/>
<line x1="122.5" y1="144.0" x2="143.5" y2="159.1" stroke="rgb(0,0,0)"  stroke-width="2.0"/>
<line x1="49.9" y1="91.1" x2="74.3" y2="77.5" stroke="rgb(0,0,0)"  stroke-width="2.0"/>
<line x1="52.8" y1="96.4" x2="77.2" y2="82.7" stroke="rgb(0,0,0)"  stroke-width="2.0"/>
<line x1="75.8" y1="80.1" x2="110.3" y2="100.3" stroke="rgb(0,0,0)"  stroke-width="2.0"/>
<line x1="180.1" y1="167.8" x2="181.9" y2="144.4" stroke="rgb(0,0,0)"  stroke-width="2.0"/>
<line x1="147.0" y1="80.1" x2="110.3" y2="100.3" stroke="rgb(0,0,0)"  stroke-width="2.0"/>
<line x1="191.6" y1="218.0" x2="214.1" y2="204.1" stroke="rgb(0,0,0)"  stroke-width="2.0"/>
<line x1="197.1" y1="223.0" x2="212.8" y2="213.4" stroke="rgb(0,0,0)"  stroke-width="2.0"/>
<line x1="214.1" y1="204.1" x2="235.2" y2="218.7" stroke="rgb(0,0,0)"  stroke-width="2.0"/>
<line x1="241.9" y1="238.5" x2="233.9" y2="263.6" stroke="rgb(0,0,0)"  stroke-width="2.0"/>
<line x1="233.9" y1="263.6" x2="193.1" y2="263.2" stroke="rgb(0,0,0)"  stroke-width="2.0"/>
<line x1="193.1" y1="263.2" x2="184.5" y2="237.1" stroke="rgb(0,0,0)"  stroke-width="2.0"/>
<line x1="179.8" y1="139.3" x2="181.0" y2="101.0" stroke="rgb(0,0,0)"  stroke-width="2.0"/>
<line x1="181.0" y1="101.0" x2="210.3" y2="80.9" stroke="rgb(0,0,0)"  stroke-width="2.0"/>
<line x1="210.3" y1="80.9" x2="249.3" y2="100.1" stroke="rgb(0,0,0)"  stroke-width="2.0"/>
<line x1="249.3" y1="100.1" x2="249.8" y2="141.2" stroke="rgb(0,0,0)"  stroke-width="2.0"/>
<line x1="249.8" y1="141.2" x2="214.3" y2="158.2" stroke="rgb(0,0,0)"  stroke-width="2.0"/>
<line x1="214.3" y1="158.2" x2="179.8" y2="139.3" stroke="rgb(0,0,0)"  stroke-width="2.0"/>
<text x="127.323498" y="281.227696" fill="rgb(102,102,102)"  stroke="rgb(102,102,102)" stroke-width="1" font-size="16" >H</text>
<text x="139.323498" y="284.907696" fill="rgb(102,102,102)"  stroke="rgb(102,102,102)" stroke-width="1" font-size="13" >3</text>
<text x="145.823498" y="281.227696" fill="rgb(102,102,102)"  stroke="rgb(102,102,102)" stroke-width="1" font-size="16" >C</text>
<text x="174.480018" y="232.783054" fill="rgb(12,12,255)"  stroke="rgb(12,12,255)" stroke-width="1" font-size="16" >N</text>
<text x="239.855326" y="234.115922" fill="rgb(255,12,12)"  stroke="rgb(255,12,12)" stroke-width="1" font-size="16" >O</text>
<text x="156.266169" y="310.518424" fill="rgb(102,102,102)"  stroke="rgb(102,102,102)" stroke-width="1" font-size="16" >H</text>
<text x="168.266169" y="314.198424" fill="rgb(102,102,102)"  stroke="rgb(102,102,102)" stroke-width="1" font-size="13" >3</text>
<text x="174.766169" y="310.518424" fill="rgb(102,102,102)"  stroke="rgb(102,102,102)" stroke-width="1" font-size="16" >C</text>
<text x="207.834106" y="48.000000" fill="rgb(255,12,12)"  stroke="rgb(255,12,12)" stroke-width="1" font-size="16" >O</text>
<text x="87.715180" y="141.969924" fill="rgb(102,102,102)"  stroke="rgb(102,102,102)" stroke-width="1" font-size="16" >H</text>
<text x="99.715180" y="145.649924" fill="rgb(102,102,102)"  stroke="rgb(102,102,102)" stroke-width="1" font-size="13" >2</text>
<text x="106.215180" y="141.969924" fill="rgb(102,102,102)"  stroke="rgb(102,102,102)" stroke-width="1" font-size="16" >C</text>
<text x="14.000000" y="108.070816" fill="rgb(102,102,102)"  stroke="rgb(102,102,102)" stroke-width="1" font-size="16" >H</text>
<text x="26.000000" y="111.750816" fill="rgb(102,102,102)"  stroke="rgb(102,102,102)" stroke-width="1" font-size="13" >2</text>
<text x="32.500000" y="108.070816" fill="rgb(102,102,102)"  stroke="rgb(102,102,102)" stroke-width="1" font-size="16" >C</text>
<text x="173.147149" y="188.755225" fill="rgb(191,191,191)"  stroke="rgb(191,191,191)" stroke-width="1" font-size="16" >H</text>
</svg>
</g>
<text font-size="18.000000" fill ="black" font-family="sans-serif"
x="10.000000" y="20.000000" ></text>
</svg>
