<?xml version="1.0"?>
<svg version="1.1" id="topsvg"
xmlns="http://www.w3.org/2000/svg" xmlns:xlink="http://www.w3.org/1999/xlink"
xmlns:cml="http://www.xml-cml.org/schema" x="0" y="0" width="200px" height="200px" viewBox="0 0 100 100">
<title> - Open Babel Depiction</title>
<rect x="0" y="0" width="100" height="100" fill="white"/>
<g transform="translate(0,0)">
<svg width="100" height="100" x="0" y="0" viewBox="0 0 242.233 185.965"
font-family="sans-serif" stroke="rgb(0,0,0)" stroke-width="2"  stroke-linecap="round">
<line x1="69.9" y1="70.0" x2="99.4" y2="73.7" stroke="rgb(0,0,0)"  stroke-width="2.0"/>
<line x1="69.2" y1="76.0" x2="98.6" y2="79.7" stroke="rgb(0,0,0)"  stroke-width="2.0"/>
<line x1="99.0" y1="76.7" x2="111.9" y2="51.6" stroke="rgb(0,0,0)"  stroke-width="2.0"/>
<line x1="114.7" y1="104.3" x2="99.0" y2="76.7" stroke="rgb(0,0,0)"  stroke-width="2.0"/>
<line x1="49.0" y1="114.4" x2="62.4" y2="138.4" stroke="rgb(0,0,0)"  stroke-width="2.0"/>
<line x1="43.7" y1="117.3" x2="57.2" y2="141.3" stroke="rgb(0,0,0)"  stroke-width="2.0"/>
<line x1="59.8" y1="139.8" x2="95.1" y2="132.9" stroke="rgb(0,0,0)"  stroke-width="2.0"/>
<line x1="92.6" y1="131.2" x2="112.3" y2="102.6" stroke="rgb(0,0,0)"  stroke-width="2.0"/>
<line x1="97.6" y1="134.6" x2="117.2" y2="106.0" stroke="rgb(0,0,0)"  stroke-width="2.0"/>
<line x1="167.4" y1="125.0" x2="202.2" y2="146.0" stroke="rgb(0,0,0)"  stroke-width="2.0"/>
<line x1="202.2" y1="146.0" x2="182.8" y2="110.0" stroke="rgb(0,0,0)"  stroke-width="2.0"/>
<line x1="182.8" y1="110.0" x2="114.7" y2="104.3" stroke="rgb(0,0,0)"  stroke-width="2.0"/>
<line x1="114.7" y1="104.3" x2="128.2" y2="124.3" stroke="rgb(0,0,0)"  stroke-width="2.0"/>
<line x1="128.2" y1="124.3" x2="167.4" y2="125.0" stroke="rgb(0,0,0)"  stroke-width="2.0"/>
<text x="30.668463" y="79.367554" fill="rgb(102,102,102)"  stroke="rgb(102,102,102)" stroke-width="1" font-size="16" >H</text>
<text x="42.668463" y="83.047554" fill="rgb(102,102,102)"  stroke="rgb(102,102,102)" stroke-width="1" font-size="13" >2</text>
<text x="49.168463" y="79.367554" fill="rgb(102,102,102)"  stroke="rgb(102,102,102)" stroke-width="1" font-size="16" >C</text>
<text x="113.858702" y="48.000000" fill="rgb(102,102,102)"  stroke="rgb(102,102,102)" stroke-width="1" font-size="16" >CH</text>
<text x="137.858702" y="51.680000" fill="rgb(102,102,102)"  stroke="rgb(102,102,102)" stroke-width="1" font-size="13" >3</text>
<text x="14.000000" y="112.543276" fill="rgb(102,102,102)"  stroke="rgb(102,102,102)" stroke-width="1" font-size="16" >H</text>
<text x="26.000000" y="116.223276" fill="rgb(102,102,102)"  stroke="rgb(102,102,102)" stroke-width="1" font-size="13" >2</text>
<text x="32.500000" y="112.543276" fill="rgb(102,102,102)"  stroke="rgb(102,102,102)" stroke-width="1" font-size="16" >C</text>
</svg>
</g>
<text font-size="18.000000" fill ="black" font-family="sans-serif"
x="10.000000" y="20.000000" ></text>
</svg>
