<?xml version="1.0"?>
<svg version="1.1" id="topsvg"
xmlns="http://www.w3.org/2000/svg" xmlns:xlink="http://www.w3.org/1999/xlink"
xmlns:cml="http://www.xml-cml.org/schema" x="0" y="0" width="200px" height="200px" viewBox="0 0 100 100">
<title> - Open Babel Depiction</title>
<rect x="0" y="0" width="100" height="100" fill="white"/>
<g transform="translate(0,0)">
<svg width="100" height="100" x="0" y="0" viewBox="0 0 231.72 352.026"
font-family="sans-serif" stroke="rgb(0,0,0)" stroke-width="2"  stroke-linecap="round">
<line x1="167.6" y1="273.5" x2="159.6" y2="299.6" stroke="rgb(0,0,0)"  stroke-width="2.0"/>
<line x1="167.6" y1="273.5" x2="183.9" y2="295.0" stroke="rgb(0,0,0)"  stroke-width="2.0"/>
<line x1="146.7" y1="167.4" x2="146.5" y2="208.6" stroke="rgb(0,0,0)"  stroke-width="2.0"/>
<line x1="111.9" y1="147.8" x2="72.1" y2="164.7" stroke="rgb(0,0,0)"  stroke-width="2.0"/>
<polygon points="111.868217 147.817200 107.300681 106.579421 115.299924 106.469405 " stroke-width="2.000000" fill="rgb(0,0,0)"  stroke="rgb(0,0,0)" />
<line x1="51.1" y1="100.7" x2="74.8" y2="86.2" stroke="rgb(0,0,0)"  stroke-width="2.0"/>
<line x1="71.8" y1="86.1" x2="72.8" y2="58.8" stroke="rgb(0,0,0)"  stroke-width="2.0"/>
<line x1="77.8" y1="86.3" x2="78.8" y2="59.0" stroke="rgb(0,0,0)"  stroke-width="2.0"/>
<line x1="111.3" y1="106.5" x2="74.8" y2="86.2" stroke="rgb(0,0,0)"  stroke-width="2.0"/>
<line x1="110.6" y1="100.1" x2="112.2" y2="100.1" stroke="rgb(0,0,0)"  stroke-width="1.0"/>
<line x1="110.0" y1="95.0" x2="112.8" y2="95.0" stroke="rgb(0,0,0)"  stroke-width="1.0"/>
<line x1="109.4" y1="89.8" x2="113.5" y2="89.9" stroke="rgb(0,0,0)"  stroke-width="1.0"/>
<line x1="108.8" y1="84.7" x2="114.2" y2="84.8" stroke="rgb(0,0,0)"  stroke-width="1.0"/>
<line x1="108.2" y1="79.6" x2="114.9" y2="79.6" stroke="rgb(0,0,0)"  stroke-width="1.0"/>
<line x1="107.6" y1="74.4" x2="115.6" y2="74.5" stroke="rgb(0,0,0)"  stroke-width="1.0"/>
<line x1="152.5" y1="51.9" x2="152.0" y2="51.0" stroke="rgb(0,0,0)"  stroke-width="2.0"/>
<line x1="153.4" y1="74.4" x2="146.8" y2="86.8" stroke="rgb(0,0,0)"  stroke-width="2.0"/>
<line x1="55.4" y1="146.4" x2="74.1" y2="162.4" stroke="rgb(0,0,0)"  stroke-width="2.0"/>
<line x1="51.5" y1="151.0" x2="70.2" y2="167.0" stroke="rgb(0,0,0)"  stroke-width="2.0"/>
<line x1="125.7" y1="271.7" x2="117.1" y2="245.1" stroke="rgb(0,0,0)"  stroke-width="2.0"/>
<line x1="123.7" y1="225.1" x2="146.5" y2="208.6" stroke="rgb(0,0,0)"  stroke-width="2.0"/>
<line x1="146.5" y1="208.6" x2="168.9" y2="224.7" stroke="rgb(0,0,0)"  stroke-width="2.0"/>
<line x1="147.1" y1="217.9" x2="163.2" y2="229.5" stroke="rgb(0,0,0)"  stroke-width="2.0"/>
<line x1="176.2" y1="245.2" x2="167.6" y2="273.5" stroke="rgb(0,0,0)"  stroke-width="2.0"/>
<line x1="167.6" y1="273.5" x2="125.7" y2="271.7" stroke="rgb(0,0,0)"  stroke-width="2.0"/>
<line x1="111.3" y1="106.5" x2="111.9" y2="147.8" stroke="rgb(0,0,0)"  stroke-width="2.0"/>
<line x1="111.9" y1="147.8" x2="146.7" y2="167.4" stroke="rgb(0,0,0)"  stroke-width="2.0"/>
<line x1="146.7" y1="167.4" x2="182.6" y2="148.1" stroke="rgb(0,0,0)"  stroke-width="2.0"/>
<line x1="148.5" y1="158.2" x2="173.9" y2="144.6" stroke="rgb(0,0,0)"  stroke-width="2.0"/>
<line x1="182.6" y1="148.1" x2="182.6" y2="106.6" stroke="rgb(0,0,0)"  stroke-width="2.0"/>
<line x1="182.6" y1="106.6" x2="146.8" y2="86.8" stroke="rgb(0,0,0)"  stroke-width="2.0"/>
<line x1="173.9" y1="110.0" x2="148.6" y2="96.0" stroke="rgb(0,0,0)"  stroke-width="2.0"/>
<line x1="146.8" y1="86.8" x2="111.3" y2="106.5" stroke="rgb(0,0,0)"  stroke-width="2.0"/>
<text x="107.139264" y="240.717700" fill="rgb(255,12,12)"  stroke="rgb(255,12,12)" stroke-width="1" font-size="16" >O</text>
<text x="173.944929" y="240.717700" fill="rgb(12,12,255)"  stroke="rgb(12,12,255)" stroke-width="1" font-size="16" >N</text>
<text x="129.851836" y="320.025596" fill="rgb(102,102,102)"  stroke="rgb(102,102,102)" stroke-width="1" font-size="16" >H</text>
<text x="141.851836" y="323.705596" fill="rgb(102,102,102)"  stroke="rgb(102,102,102)" stroke-width="1" font-size="13" >3</text>
<text x="148.351836" y="320.025596" fill="rgb(102,102,102)"  stroke="rgb(102,102,102)" stroke-width="1" font-size="16" >C</text>
<text x="14.000000" y="115.543954" fill="rgb(102,102,102)"  stroke="rgb(102,102,102)" stroke-width="1" font-size="16" >H</text>
<text x="26.000000" y="119.223954" fill="rgb(102,102,102)"  stroke="rgb(102,102,102)" stroke-width="1" font-size="13" >3</text>
<text x="32.500000" y="115.543954" fill="rgb(102,102,102)"  stroke="rgb(102,102,102)" stroke-width="1" font-size="16" >C</text>
<text x="70.327592" y="53.933353" fill="rgb(255,12,12)"  stroke="rgb(255,12,12)" stroke-width="1" font-size="16" >O</text>
<text x="153.443219" y="70.892360" fill="rgb(255,12,12)"  stroke="rgb(255,12,12)" stroke-width="1" font-size="16" >O</text>
<text x="119.045236" y="48.000000" fill="rgb(102,102,102)"  stroke="rgb(102,102,102)" stroke-width="1" font-size="16" >H</text>
<text x="131.045236" y="51.680000" fill="rgb(102,102,102)"  stroke="rgb(102,102,102)" stroke-width="1" font-size="13" >3</text>
<text x="137.545236" y="48.000000" fill="rgb(102,102,102)"  stroke="rgb(102,102,102)" stroke-width="1" font-size="16" >C</text>
<text x="17.569748" y="148.231486" fill="rgb(102,102,102)"  stroke="rgb(102,102,102)" stroke-width="1" font-size="16" >H</text>
<text x="29.569748" y="151.911486" fill="rgb(102,102,102)"  stroke="rgb(102,102,102)" stroke-width="1" font-size="13" >2</text>
<text x="36.069748" y="148.231486" fill="rgb(102,102,102)"  stroke="rgb(102,102,102)" stroke-width="1" font-size="16" >C</text>
<text x="187.719688" y="313.332319" fill="rgb(102,102,102)"  stroke="rgb(102,102,102)" stroke-width="1" font-size="16" >CH</text>
<text x="211.719688" y="317.012319" fill="rgb(102,102,102)"  stroke="rgb(102,102,102)" stroke-width="1" font-size="13" >3</text>
<text x="107.697843" y="66.689793" fill="rgb(102,102,102)"  stroke="rgb(102,102,102)" stroke-width="1" font-size="16" >CH</text>
<text x="131.697843" y="70.369793" fill="rgb(102,102,102)"  stroke="rgb(102,102,102)" stroke-width="1" font-size="13" >3</text>
</svg>
</g>
<text font-size="18.000000" fill ="black" font-family="sans-serif"
x="10.000000" y="20.000000" ></text>
</svg>
