<?xml version="1.0"?>
<svg version="1.1" id="topsvg"
xmlns="http://www.w3.org/2000/svg" xmlns:xlink="http://www.w3.org/1999/xlink"
xmlns:cml="http://www.xml-cml.org/schema" x="0" y="0" width="200px" height="200px" viewBox="0 0 100 100">
<title> - Open Babel Depiction</title>
<rect x="0" y="0" width="100" height="100" fill="white"/>
<g transform="translate(0,0)">
<svg width="100" height="100" x="0" y="0" viewBox="0 0 176.27 357.058"
font-family="sans-serif" stroke="rgb(0,0,0)" stroke-width="2"  stroke-linecap="round">
<line x1="79.0" y1="276.2" x2="52.5" y2="283.5" stroke="rgb(0,0,0)"  stroke-width="2.0"/>
<line x1="79.0" y1="276.2" x2="72.9" y2="304.4" stroke="rgb(0,0,0)"  stroke-width="2.0"/>
<line x1="100.3" y1="169.4" x2="100.0" y2="211.3" stroke="rgb(0,0,0)"  stroke-width="2.0"/>
<line x1="99.3" y1="87.4" x2="106.1" y2="74.7" stroke="rgb(0,0,0)"  stroke-width="2.0"/>
<line x1="105.5" y1="52.2" x2="104.8" y2="51.1" stroke="rgb(0,0,0)"  stroke-width="2.0"/>
<line x1="63.5" y1="107.9" x2="63.4" y2="150.6" stroke="rgb(0,0,0)"  stroke-width="2.0"/>
<line x1="63.4" y1="150.6" x2="100.3" y2="169.4" stroke="rgb(0,0,0)"  stroke-width="2.0"/>
<line x1="72.0" y1="146.9" x2="98.2" y2="160.3" stroke="rgb(0,0,0)"  stroke-width="2.0"/>
<line x1="100.3" y1="169.4" x2="135.9" y2="150.8" stroke="rgb(0,0,0)"  stroke-width="2.0"/>
<line x1="135.9" y1="150.8" x2="136.3" y2="107.4" stroke="rgb(0,0,0)"  stroke-width="2.0"/>
<line x1="128.8" y1="144.7" x2="129.0" y2="113.3" stroke="rgb(0,0,0)"  stroke-width="2.0"/>
<line x1="136.3" y1="107.4" x2="99.3" y2="87.4" stroke="rgb(0,0,0)"  stroke-width="2.0"/>
<line x1="99.3" y1="87.4" x2="63.5" y2="107.9" stroke="rgb(0,0,0)"  stroke-width="2.0"/>
<line x1="97.7" y1="96.6" x2="72.3" y2="111.1" stroke="rgb(0,0,0)"  stroke-width="2.0"/>
<line x1="77.9" y1="228.2" x2="100.0" y2="211.3" stroke="rgb(0,0,0)"  stroke-width="2.0"/>
<line x1="83.7" y1="232.8" x2="99.6" y2="220.7" stroke="rgb(0,0,0)"  stroke-width="2.0"/>
<line x1="100.0" y1="211.3" x2="123.7" y2="229.3" stroke="rgb(0,0,0)"  stroke-width="2.0"/>
<line x1="130.4" y1="249.7" x2="122.8" y2="276.1" stroke="rgb(0,0,0)"  stroke-width="2.0"/>
<line x1="122.8" y1="276.1" x2="79.0" y2="276.2" stroke="rgb(0,0,0)"  stroke-width="2.0"/>
<line x1="79.0" y1="276.2" x2="70.7" y2="249.0" stroke="rgb(0,0,0)"  stroke-width="2.0"/>
<text x="14.000000" y="294.937084" fill="rgb(102,102,102)"  stroke="rgb(102,102,102)" stroke-width="1" font-size="16" >H</text>
<text x="26.000000" y="298.617084" fill="rgb(102,102,102)"  stroke="rgb(102,102,102)" stroke-width="1" font-size="13" >3</text>
<text x="32.500000" y="294.937084" fill="rgb(102,102,102)"  stroke="rgb(102,102,102)" stroke-width="1" font-size="16" >C</text>
<text x="60.936649" y="244.527734" fill="rgb(12,12,255)"  stroke="rgb(12,12,255)" stroke-width="1" font-size="16" >N</text>
<text x="128.038671" y="245.217785" fill="rgb(255,12,12)"  stroke="rgb(255,12,12)" stroke-width="1" font-size="16" >O</text>
<text x="44.107600" y="325.058375" fill="rgb(102,102,102)"  stroke="rgb(102,102,102)" stroke-width="1" font-size="16" >H</text>
<text x="56.107600" y="328.738375" fill="rgb(102,102,102)"  stroke="rgb(102,102,102)" stroke-width="1" font-size="13" >3</text>
<text x="62.607600" y="325.058375" fill="rgb(102,102,102)"  stroke="rgb(102,102,102)" stroke-width="1" font-size="16" >C</text>
<text x="106.296576" y="71.308403" fill="rgb(255,12,12)"  stroke="rgb(255,12,12)" stroke-width="1" font-size="16" >O</text>
<text x="71.928720" y="48.000000" fill="rgb(102,102,102)"  stroke="rgb(102,102,102)" stroke-width="1" font-size="16" >H</text>
<text x="83.928720" y="51.680000" fill="rgb(102,102,102)"  stroke="rgb(102,102,102)" stroke-width="1" font-size="13" >3</text>
<text x="90.428720" y="48.000000" fill="rgb(102,102,102)"  stroke="rgb(102,102,102)" stroke-width="1" font-size="16" >C</text>
</svg>
</g>
<text font-size="18.000000" fill ="black" font-family="sans-serif"
x="10.000000" y="20.000000" ></text>
</svg>
