<?xml version="1.0"?>
<svg version="1.1" id="topsvg"
xmlns="http://www.w3.org/2000/svg" xmlns:xlink="http://www.w3.org/1999/xlink"
xmlns:cml="http://www.xml-cml.org/schema" x="0" y="0" width="200px" height="200px" viewBox="0 0 100 100">
<title> - Open Babel Depiction</title>
<rect x="0" y="0" width="100" height="100" fill="white"/>
<g transform="translate(0,0)">
<svg width="100" height="100" x="0" y="0" viewBox="0 0 335.912 352.018"
font-family="sans-serif" stroke="rgb(0,0,0)" stroke-width="2"  stroke-linecap="round">
<line x1="205.4" y1="278.4" x2="232.5" y2="271.4" stroke="rgb(0,0,0)"  stroke-width="2.0"/>
<line x1="232.5" y1="271.4" x2="225.8" y2="299.4" stroke="rgb(0,0,0)"  stroke-width="2.0"/>
<line x1="256.0" y1="207.2" x2="255.1" y2="165.0" stroke="rgb(0,0,0)"  stroke-width="2.0"/>
<line x1="221.5" y1="148.2" x2="184.0" y2="160.5" stroke="rgb(0,0,0)"  stroke-width="2.0"/>
<polygon points="220.547645 142.858313 185.764290 164.071621 182.289559 156.865634 " stroke-width="2.000000" fill="rgb(0,0,0)"  stroke="rgb(0,0,0)" />
<polygon points="220.547645 103.407579 183.076006 81.732050 187.704460 75.206913 " stroke-width="2.000000" fill="rgb(0,0,0)"  stroke="rgb(0,0,0)" />
<line x1="185.4" y1="78.5" x2="148.1" y2="100.7" stroke="rgb(0,0,0)"  stroke-width="2.0"/>
<line x1="148.1" y1="100.7" x2="111.9" y2="80.8" stroke="rgb(0,0,0)"  stroke-width="2.0"/>
<line x1="76.4" y1="100.9" x2="83.1" y2="130.9" stroke="rgb(0,0,0)"  stroke-width="2.0"/>
<line x1="76.4" y1="100.9" x2="51.4" y2="87.1" stroke="rgb(0,0,0)"  stroke-width="2.0"/>
<line x1="76.4" y1="100.9" x2="111.9" y2="80.8" stroke="rgb(0,0,0)"  stroke-width="2.0"/>
<line x1="76.3" y1="152.4" x2="75.8" y2="152.9" stroke="rgb(0,0,0)"  stroke-width="2.0"/>
<line x1="186.8" y1="52.8" x2="188.4" y2="78.3" stroke="rgb(0,0,0)"  stroke-width="2.0"/>
<line x1="180.8" y1="53.2" x2="182.4" y2="78.7" stroke="rgb(0,0,0)"  stroke-width="2.0"/>
<line x1="221.4" y1="98.0" x2="185.4" y2="78.5" stroke="rgb(0,0,0)"  stroke-width="2.0"/>
<line x1="281.4" y1="56.8" x2="282.9" y2="56.7" stroke="rgb(0,0,0)"  stroke-width="2.0"/>
<line x1="262.5" y1="69.0" x2="255.9" y2="81.9" stroke="rgb(0,0,0)"  stroke-width="2.0"/>
<line x1="220.3" y1="173.3" x2="221.5" y2="148.2" stroke="rgb(0,0,0)"  stroke-width="2.0"/>
<line x1="220.5" y1="68.3" x2="221.4" y2="98.0" stroke="rgb(0,0,0)"  stroke-width="2.0"/>
<line x1="160.7" y1="146.3" x2="185.3" y2="157.7" stroke="rgb(0,0,0)"  stroke-width="2.0"/>
<line x1="158.2" y1="151.8" x2="182.8" y2="163.2" stroke="rgb(0,0,0)"  stroke-width="2.0"/>
<line x1="232.6" y1="223.4" x2="256.0" y2="207.2" stroke="rgb(0,0,0)"  stroke-width="2.0"/>
<line x1="238.1" y1="228.3" x2="255.1" y2="216.6" stroke="rgb(0,0,0)"  stroke-width="2.0"/>
<line x1="256.0" y1="207.2" x2="278.2" y2="225.2" stroke="rgb(0,0,0)"  stroke-width="2.0"/>
<line x1="284.4" y1="245.8" x2="276.2" y2="271.7" stroke="rgb(0,0,0)"  stroke-width="2.0"/>
<line x1="276.2" y1="271.7" x2="232.5" y2="271.4" stroke="rgb(0,0,0)"  stroke-width="2.0"/>
<line x1="232.5" y1="271.4" x2="224.6" y2="243.8" stroke="rgb(0,0,0)"  stroke-width="2.0"/>
<line x1="220.5" y1="103.4" x2="220.5" y2="142.9" stroke="rgb(0,0,0)"  stroke-width="2.0"/>
<line x1="220.5" y1="142.9" x2="255.1" y2="165.0" stroke="rgb(0,0,0)"  stroke-width="2.0"/>
<line x1="255.1" y1="165.0" x2="292.5" y2="144.4" stroke="rgb(0,0,0)"  stroke-width="2.0"/>
<line x1="256.9" y1="155.8" x2="283.8" y2="141.0" stroke="rgb(0,0,0)"  stroke-width="2.0"/>
<line x1="292.5" y1="144.4" x2="292.6" y2="100.8" stroke="rgb(0,0,0)"  stroke-width="2.0"/>
<line x1="292.6" y1="100.8" x2="255.9" y2="81.9" stroke="rgb(0,0,0)"  stroke-width="2.0"/>
<line x1="284.0" y1="104.5" x2="258.0" y2="91.1" stroke="rgb(0,0,0)"  stroke-width="2.0"/>
<line x1="255.9" y1="81.9" x2="220.5" y2="103.4" stroke="rgb(0,0,0)"  stroke-width="2.0"/>
<text x="166.841702" y="289.657390" fill="rgb(102,102,102)"  stroke="rgb(102,102,102)" stroke-width="1" font-size="16" >H</text>
<text x="178.841702" y="293.337390" fill="rgb(102,102,102)"  stroke="rgb(102,102,102)" stroke-width="1" font-size="13" >3</text>
<text x="185.341702" y="289.657390" fill="rgb(102,102,102)"  stroke="rgb(102,102,102)" stroke-width="1" font-size="16" >C</text>
<text x="215.067131" y="239.319430" fill="rgb(12,12,255)"  stroke="rgb(12,12,255)" stroke-width="1" font-size="16" >N</text>
<text x="282.306266" y="241.397375" fill="rgb(255,12,12)"  stroke="rgb(255,12,12)" stroke-width="1" font-size="16" >O</text>
<text x="196.845479" y="320.018485" fill="rgb(102,102,102)"  stroke="rgb(102,102,102)" stroke-width="1" font-size="16" >H</text>
<text x="208.845479" y="323.698485" fill="rgb(102,102,102)"  stroke="rgb(102,102,102)" stroke-width="1" font-size="13" >3</text>
<text x="215.345479" y="320.018485" fill="rgb(102,102,102)"  stroke="rgb(102,102,102)" stroke-width="1" font-size="16" >C</text>
<text x="79.896214" y="151.630671" fill="rgb(255,12,12)"  stroke="rgb(255,12,12)" stroke-width="1" font-size="16" >O</text>
<text x="14.000000" y="88.800299" fill="rgb(102,102,102)"  stroke="rgb(102,102,102)" stroke-width="1" font-size="16" >H</text>
<text x="26.000000" y="92.480299" fill="rgb(102,102,102)"  stroke="rgb(102,102,102)" stroke-width="1" font-size="13" >3</text>
<text x="32.500000" y="88.800299" fill="rgb(102,102,102)"  stroke="rgb(102,102,102)" stroke-width="1" font-size="16" >C</text>
<text x="176.941226" y="48.000000" fill="rgb(255,12,12)"  stroke="rgb(255,12,12)" stroke-width="1" font-size="16" >O</text>
<text x="262.461335" y="65.461890" fill="rgb(255,12,12)"  stroke="rgb(255,12,12)" stroke-width="1" font-size="16" >O</text>
<text x="291.911657" y="64.076593" fill="rgb(102,102,102)"  stroke="rgb(102,102,102)" stroke-width="1" font-size="16" >CH</text>
<text x="315.911657" y="67.756593" fill="rgb(102,102,102)"  stroke="rgb(102,102,102)" stroke-width="1" font-size="13" >3</text>
<text x="213.681834" y="194.261541" fill="rgb(191,191,191)"  stroke="rgb(191,191,191)" stroke-width="1" font-size="16" >H</text>
<text x="194.052896" y="63.337218" fill="rgb(102,102,102)"  stroke="rgb(102,102,102)" stroke-width="1" font-size="16" >H</text>
<text x="206.052896" y="67.017218" fill="rgb(102,102,102)"  stroke="rgb(102,102,102)" stroke-width="1" font-size="13" >3</text>
<text x="212.552896" y="63.337218" fill="rgb(102,102,102)"  stroke="rgb(102,102,102)" stroke-width="1" font-size="16" >C</text>
<text x="121.627143" y="151.592190" fill="rgb(102,102,102)"  stroke="rgb(102,102,102)" stroke-width="1" font-size="16" >H</text>
<text x="133.627143" y="155.272190" fill="rgb(102,102,102)"  stroke="rgb(102,102,102)" stroke-width="1" font-size="13" >2</text>
<text x="140.127143" y="151.592190" fill="rgb(102,102,102)"  stroke="rgb(102,102,102)" stroke-width="1" font-size="16" >C</text>
<text x="60.265674" y="169.672517" fill="rgb(191,191,191)"  stroke="rgb(191,191,191)" stroke-width="1" font-size="16" >H</text>
</svg>
</g>
<text font-size="18.000000" fill ="black" font-family="sans-serif"
x="10.000000" y="20.000000" ></text>
</svg>
