<?xml version="1.0"?>
<svg version="1.1" id="topsvg"
xmlns="http://www.w3.org/2000/svg" xmlns:xlink="http://www.w3.org/1999/xlink"
xmlns:cml="http://www.xml-cml.org/schema" x="0" y="0" width="200px" height="200px" viewBox="0 0 100 100">
<title> - Open Babel Depiction</title>
<rect x="0" y="0" width="100" height="100" fill="white"/>
<g transform="translate(0,0)">
<svg width="100" height="100" x="0" y="0" viewBox="0 0 200.468 318.07"
font-family="sans-serif" stroke="rgb(0,0,0)" stroke-width="2"  stroke-linecap="round">
<line x1="72.2" y1="183.0" x2="72.9" y2="204.0" stroke="rgb(0,0,0)"  stroke-width="2.0"/>
<line x1="66.2" y1="183.2" x2="66.9" y2="204.2" stroke="rgb(0,0,0)"  stroke-width="2.0"/>
<line x1="101.4" y1="257.3" x2="100.8" y2="265.1" stroke="rgb(0,0,0)"  stroke-width="2.0"/>
<polygon points="101.445534 257.293140 96.409873 220.399749 104.406732 220.175604 " stroke-width="2.000000" fill="rgb(0,0,0)"  stroke="rgb(0,0,0)" />
<line x1="99.5" y1="215.8" x2="101.1" y2="215.8" stroke="rgb(0,0,0)"  stroke-width="1.0"/>
<line x1="98.8" y1="212.3" x2="101.6" y2="212.2" stroke="rgb(0,0,0)"  stroke-width="1.0"/>
<line x1="98.0" y1="208.7" x2="102.2" y2="208.6" stroke="rgb(0,0,0)"  stroke-width="1.0"/>
<line x1="97.3" y1="205.1" x2="102.7" y2="205.0" stroke="rgb(0,0,0)"  stroke-width="1.0"/>
<line x1="96.6" y1="201.6" x2="103.3" y2="201.4" stroke="rgb(0,0,0)"  stroke-width="1.0"/>
<line x1="95.8" y1="198.0" x2="103.8" y2="197.8" stroke="rgb(0,0,0)"  stroke-width="1.0"/>
<line x1="100.2" y1="173.9" x2="106.0" y2="53.0" stroke="rgb(0,0,0)"  stroke-width="2.0"/>
<line x1="86.5" y1="186.7" x2="88.8" y2="186.8" stroke="rgb(0,0,0)"  stroke-width="2.0"/>
<line x1="40.0" y1="257.2" x2="70.1" y2="272.7" stroke="rgb(0,0,0)"  stroke-width="2.0"/>
<line x1="70.1" y1="272.7" x2="101.4" y2="257.3" stroke="rgb(0,0,0)"  stroke-width="2.0"/>
<line x1="101.4" y1="257.3" x2="100.4" y2="220.3" stroke="rgb(0,0,0)"  stroke-width="2.0"/>
<line x1="100.4" y1="220.3" x2="69.9" y2="204.1" stroke="rgb(0,0,0)"  stroke-width="2.0"/>
<line x1="69.9" y1="204.1" x2="40.4" y2="221.0" stroke="rgb(0,0,0)"  stroke-width="2.0"/>
<line x1="40.4" y1="221.0" x2="40.0" y2="257.2" stroke="rgb(0,0,0)"  stroke-width="2.0"/>
<line x1="160.5" y1="256.8" x2="160.5" y2="221.3" stroke="rgb(0,0,0)"  stroke-width="2.0"/>
<line x1="160.5" y1="221.3" x2="130.5" y2="205.1" stroke="rgb(0,0,0)"  stroke-width="2.0"/>
<line x1="130.5" y1="205.1" x2="100.4" y2="220.3" stroke="rgb(0,0,0)"  stroke-width="2.0"/>
<line x1="101.4" y1="257.3" x2="130.2" y2="273.0" stroke="rgb(0,0,0)"  stroke-width="2.0"/>
<line x1="130.2" y1="273.0" x2="160.5" y2="256.8" stroke="rgb(0,0,0)"  stroke-width="2.0"/>
<text x="62.816911" y="178.060993" fill="rgb(255,12,12)"  stroke="rgb(255,12,12)" stroke-width="1" font-size="16" >O</text>
<text x="73.826894" y="286.070340" fill="rgb(102,102,102)"  stroke="rgb(102,102,102)" stroke-width="1" font-size="16" >H</text>
<text x="85.826894" y="289.750340" fill="rgb(102,102,102)"  stroke="rgb(102,102,102)" stroke-width="1" font-size="13" >3</text>
<text x="92.326894" y="286.070340" fill="rgb(102,102,102)"  stroke="rgb(102,102,102)" stroke-width="1" font-size="16" >C</text>
<text x="102.624718" y="48.000000" fill="rgb(102,102,102)"  stroke="rgb(102,102,102)" stroke-width="1" font-size="16" >CH</text>
<text x="126.624718" y="51.680000" fill="rgb(102,102,102)"  stroke="rgb(102,102,102)" stroke-width="1" font-size="13" >3</text>
<text x="93.547818" y="194.875316" fill="rgb(12,12,255)"  stroke="rgb(12,12,255)" stroke-width="1" font-size="16" >N</text>
<text x="69.828693" y="194.610194" fill="rgb(191,191,191)"  stroke="rgb(191,191,191)" stroke-width="1" font-size="16" >H</text>
</svg>
</g>
<text font-size="18.000000" fill ="black" font-family="sans-serif"
x="10.000000" y="20.000000" ></text>
</svg>
