<?xml version="1.0"?>
<svg version="1.1" id="topsvg"
xmlns="http://www.w3.org/2000/svg" xmlns:xlink="http://www.w3.org/1999/xlink"
xmlns:cml="http://www.xml-cml.org/schema" x="0" y="0" width="200px" height="200px" viewBox="0 0 100 100">
<title> - Open Babel Depiction</title>
<rect x="0" y="0" width="100" height="100" fill="white"/>
<g transform="translate(0,0)">
<svg width="100" height="100" x="0" y="0" viewBox="0 0 294.729 262.509"
font-family="sans-serif" stroke="rgb(0,0,0)" stroke-width="2"  stroke-linecap="round">
<line x1="159.8" y1="211.1" x2="161.0" y2="211.1" stroke="rgb(0,0,0)"  stroke-width="2.0"/>
<line x1="179.7" y1="188.3" x2="177.3" y2="209.6" stroke="rgb(0,0,0)"  stroke-width="2.0"/>
<line x1="183.9" y1="188.8" x2="181.5" y2="210.1" stroke="rgb(0,0,0)"  stroke-width="2.0"/>
<line x1="175.5" y1="187.8" x2="173.1" y2="209.1" stroke="rgb(0,0,0)"  stroke-width="2.0"/>
<line x1="75.5" y1="172.9" x2="50.9" y2="156.8" stroke="rgb(0,0,0)"  stroke-width="2.0"/>
<polygon points="112.104466 151.028066 77.600188 176.333018 73.492837 169.467913 " stroke-width="2.000000" fill="rgb(0,0,0)"  stroke="rgb(0,0,0)" />
<line x1="183.6" y1="118.0" x2="182.0" y2="118.0" stroke="rgb(0,0,0)"  stroke-width="1.0"/>
<line x1="184.2" y1="124.3" x2="181.4" y2="124.3" stroke="rgb(0,0,0)"  stroke-width="1.0"/>
<line x1="184.9" y1="130.7" x2="180.7" y2="130.7" stroke="rgb(0,0,0)"  stroke-width="1.0"/>
<line x1="185.6" y1="137.1" x2="180.1" y2="137.1" stroke="rgb(0,0,0)"  stroke-width="1.0"/>
<line x1="186.2" y1="143.4" x2="179.5" y2="143.4" stroke="rgb(0,0,0)"  stroke-width="1.0"/>
<line x1="186.9" y1="149.8" x2="178.9" y2="149.8" stroke="rgb(0,0,0)"  stroke-width="1.0"/>
<line x1="182.7" y1="110.0" x2="183.2" y2="73.9" stroke="rgb(0,0,0)"  stroke-width="2.0"/>
<line x1="218.0" y1="89.5" x2="225.4" y2="60.1" stroke="rgb(0,0,0)"  stroke-width="2.0"/>
<line x1="211.4" y1="94.3" x2="210.5" y2="92.9" stroke="rgb(0,0,0)"  stroke-width="1.0"/>
<line x1="206.0" y1="98.1" x2="204.6" y2="95.6" stroke="rgb(0,0,0)"  stroke-width="1.0"/>
<line x1="200.7" y1="102.0" x2="198.6" y2="98.4" stroke="rgb(0,0,0)"  stroke-width="1.0"/>
<line x1="195.4" y1="105.8" x2="192.7" y2="101.1" stroke="rgb(0,0,0)"  stroke-width="1.0"/>
<line x1="190.1" y1="109.6" x2="186.7" y2="103.8" stroke="rgb(0,0,0)"  stroke-width="1.0"/>
<line x1="184.8" y1="113.5" x2="180.7" y2="106.6" stroke="rgb(0,0,0)"  stroke-width="1.0"/>
<line x1="223.6" y1="169.5" x2="224.1" y2="200.3" stroke="rgb(0,0,0)"  stroke-width="2.0"/>
<line x1="217.6" y1="169.6" x2="218.1" y2="200.4" stroke="rgb(0,0,0)"  stroke-width="2.0"/>
<line x1="183.1" y1="157.6" x2="181.5" y2="157.4" stroke="rgb(0,0,0)"  stroke-width="1.0"/>
<line x1="183.2" y1="163.8" x2="180.3" y2="163.5" stroke="rgb(0,0,0)"  stroke-width="1.0"/>
<line x1="183.3" y1="170.0" x2="179.2" y2="169.7" stroke="rgb(0,0,0)"  stroke-width="1.0"/>
<line x1="183.4" y1="176.2" x2="178.0" y2="175.8" stroke="rgb(0,0,0)"  stroke-width="1.0"/>
<line x1="183.6" y1="182.4" x2="176.9" y2="181.9" stroke="rgb(0,0,0)"  stroke-width="1.0"/>
<line x1="183.7" y1="188.6" x2="175.7" y2="188.0" stroke="rgb(0,0,0)"  stroke-width="1.0"/>
<line x1="153.9" y1="165.1" x2="154.7" y2="166.5" stroke="rgb(0,0,0)"  stroke-width="1.0"/>
<line x1="159.3" y1="161.3" x2="160.7" y2="163.8" stroke="rgb(0,0,0)"  stroke-width="1.0"/>
<line x1="164.7" y1="157.6" x2="166.7" y2="161.2" stroke="rgb(0,0,0)"  stroke-width="1.0"/>
<line x1="170.1" y1="153.8" x2="172.8" y2="158.6" stroke="rgb(0,0,0)"  stroke-width="1.0"/>
<line x1="175.5" y1="150.1" x2="178.8" y2="155.9" stroke="rgb(0,0,0)"  stroke-width="1.0"/>
<line x1="180.9" y1="146.3" x2="184.8" y2="153.3" stroke="rgb(0,0,0)"  stroke-width="1.0"/>
<line x1="147.1" y1="169.7" x2="146.9" y2="198.5" stroke="rgb(0,0,0)"  stroke-width="2.0"/>
<line x1="75.8" y1="200.6" x2="75.5" y2="172.9" stroke="rgb(0,0,0)"  stroke-width="2.0"/>
<line x1="241.0" y1="43.9" x2="242.2" y2="43.6" stroke="rgb(0,0,0)"  stroke-width="2.0"/>
<line x1="112.1" y1="151.0" x2="147.1" y2="169.7" stroke="rgb(0,0,0)"  stroke-width="2.0"/>
<line x1="147.1" y1="169.7" x2="182.9" y2="149.8" stroke="rgb(0,0,0)"  stroke-width="2.0"/>
<line x1="182.9" y1="149.8" x2="182.7" y2="110.0" stroke="rgb(0,0,0)"  stroke-width="2.0"/>
<line x1="182.7" y1="110.0" x2="149.2" y2="89.2" stroke="rgb(0,0,0)"  stroke-width="2.0"/>
<line x1="149.2" y1="89.2" x2="111.2" y2="108.9" stroke="rgb(0,0,0)"  stroke-width="2.0"/>
<line x1="111.2" y1="108.9" x2="112.1" y2="151.0" stroke="rgb(0,0,0)"  stroke-width="2.0"/>
<line x1="182.9" y1="149.8" x2="220.6" y2="169.6" stroke="rgb(0,0,0)"  stroke-width="2.0"/>
<line x1="220.6" y1="169.6" x2="253.6" y2="150.5" stroke="rgb(0,0,0)"  stroke-width="2.0"/>
<line x1="253.6" y1="150.5" x2="254.0" y2="109.1" stroke="rgb(0,0,0)"  stroke-width="2.0"/>
<line x1="254.0" y1="109.1" x2="218.0" y2="89.5" stroke="rgb(0,0,0)"  stroke-width="2.0"/>
<line x1="218.0" y1="89.5" x2="182.7" y2="110.0" stroke="rgb(0,0,0)"  stroke-width="2.0"/>
<text x="140.844636" y="219.526252" fill="rgb(255,12,12)"  stroke="rgb(255,12,12)" stroke-width="1" font-size="16" >O</text>
<text x="169.956859" y="218.669338" fill="rgb(102,102,102)"  stroke="rgb(102,102,102)" stroke-width="1" font-size="16" >CH</text>
<text x="193.956859" y="222.349338" fill="rgb(102,102,102)"  stroke="rgb(102,102,102)" stroke-width="1" font-size="13" >3</text>
<text x="157.856119" y="230.508810" fill="rgb(102,102,102)"  stroke="rgb(102,102,102)" stroke-width="1" font-size="16" >HC</text>
<text x="14.000000" y="157.640145" fill="rgb(102,102,102)"  stroke="rgb(102,102,102)" stroke-width="1" font-size="16" >H</text>
<text x="26.000000" y="161.320145" fill="rgb(102,102,102)"  stroke="rgb(102,102,102)" stroke-width="1" font-size="13" >3</text>
<text x="32.500000" y="157.640145" fill="rgb(102,102,102)"  stroke="rgb(102,102,102)" stroke-width="1" font-size="16" >C</text>
<text x="217.252938" y="221.380560" fill="rgb(102,102,102)"  stroke="rgb(102,102,102)" stroke-width="1" font-size="16" >CH</text>
<text x="241.252938" y="225.060560" fill="rgb(102,102,102)"  stroke="rgb(102,102,102)" stroke-width="1" font-size="13" >2</text>
<text x="71.979184" y="221.585658" fill="rgb(102,102,102)"  stroke="rgb(102,102,102)" stroke-width="1" font-size="16" >CH</text>
<text x="95.979184" y="225.265658" fill="rgb(102,102,102)"  stroke="rgb(102,102,102)" stroke-width="1" font-size="13" >3</text>
<text x="222.524071" y="55.484659" fill="rgb(255,12,12)"  stroke="rgb(255,12,12)" stroke-width="1" font-size="16" >O</text>
<text x="179.357636" y="68.889055" fill="rgb(102,102,102)"  stroke="rgb(102,102,102)" stroke-width="1" font-size="16" >CH</text>
<text x="203.357636" y="72.569055" fill="rgb(102,102,102)"  stroke="rgb(102,102,102)" stroke-width="1" font-size="13" >3</text>
<text x="248.728807" y="48.000000" fill="rgb(191,191,191)"  stroke="rgb(191,191,191)" stroke-width="1" font-size="16" >H</text>
</svg>
</g>
<text font-size="18.000000" fill ="black" font-family="sans-serif"
x="10.000000" y="20.000000" ></text>
</svg>
