<?xml version="1.0"?>
<svg version="1.1" id="topsvg"
xmlns="http://www.w3.org/2000/svg" xmlns:xlink="http://www.w3.org/1999/xlink"
xmlns:cml="http://www.xml-cml.org/schema" x="0" y="0" width="200px" height="200px" viewBox="0 0 100 100">
<title> - Open Babel Depiction</title>
<rect x="0" y="0" width="100" height="100" fill="white"/>
<g transform="translate(0,0)">
<svg width="100" height="100" x="0" y="0" viewBox="0 0 304.103 174.352"
font-family="sans-serif" stroke="rgb(0,0,0)" stroke-width="2"  stroke-linecap="round">
<line x1="117.1" y1="37.4" x2="163.8" y2="37.0" stroke="rgb(0,0,0)"  stroke-width="2.0"/>
<line x1="117.1" y1="43.4" x2="163.8" y2="43.0" stroke="rgb(0,0,0)"  stroke-width="2.0"/>
<line x1="163.8" y1="40.0" x2="187.5" y2="80.2" stroke="rgb(0,0,0)"  stroke-width="2.0"/>
<line x1="224.7" y1="92.3" x2="233.2" y2="108.0" stroke="rgb(0,0,0)"  stroke-width="2.0"/>
<line x1="205.4" y1="80.6" x2="187.5" y2="80.2" stroke="rgb(0,0,0)"  stroke-width="2.0"/>
<line x1="235.8" y1="109.5" x2="226.5" y2="124.8" stroke="rgb(0,0,0)"  stroke-width="2.0"/>
<line x1="230.7" y1="106.4" x2="221.4" y2="121.7" stroke="rgb(0,0,0)"  stroke-width="2.0"/>
<line x1="233.2" y1="108.0" x2="251.1" y2="108.4" stroke="rgb(0,0,0)"  stroke-width="2.0"/>
<line x1="96.2" y1="82.4" x2="117.1" y2="40.4" stroke="rgb(0,0,0)"  stroke-width="2.0"/>
<line x1="96.2" y1="82.4" x2="53.0" y2="84.2" stroke="rgb(0,0,0)"  stroke-width="2.0"/>
<text x="212.413664" y="88.891675" fill="rgb(255,12,12)"  stroke="rgb(255,12,12)" stroke-width="1" font-size="16" >O</text>
<text x="211.194169" y="142.351866" fill="rgb(255,12,12)"  stroke="rgb(255,12,12)" stroke-width="1" font-size="16" >O</text>
<text x="260.103048" y="116.677637" fill="rgb(102,102,102)"  stroke="rgb(102,102,102)" stroke-width="1" font-size="16" >CH</text>
<text x="284.103048" y="120.357637" fill="rgb(102,102,102)"  stroke="rgb(102,102,102)" stroke-width="1" font-size="13" >3</text>
<text x="22.000000" y="92.763185" fill="rgb(165,40,40)"  stroke="rgb(165,40,40)" stroke-width="1" font-size="16" >Br</text>
</svg>
</g>
<text font-size="18.000000" fill ="black" font-family="sans-serif"
x="10.000000" y="20.000000" ></text>
</svg>
