<?xml version="1.0"?>
<svg version="1.1" id="topsvg"
xmlns="http://www.w3.org/2000/svg" xmlns:xlink="http://www.w3.org/1999/xlink"
xmlns:cml="http://www.xml-cml.org/schema" x="0" y="0" width="200px" height="200px" viewBox="0 0 100 100">
<title> - Open Babel Depiction</title>
<rect x="0" y="0" width="100" height="100" fill="white"/>
<g transform="translate(0,0)">
<svg width="100" height="100" x="0" y="0" viewBox="0 0 218.962 181.203"
font-family="sans-serif" stroke="rgb(0,0,0)" stroke-width="2"  stroke-linecap="round">
<polygon points="108.224 78.986 104.882 52.7648 112.88 52.9659 " stroke-width="2" fill="rgb(0,0,0)"  stroke="rgb(0,0,0)" />
<line x1="40.0" y1="79.9" x2="40.1" y2="121.4" stroke="rgb(0,0,0)"  stroke-width="2.0"/>
<line x1="40.1" y1="121.4" x2="74.7" y2="139.9" stroke="rgb(0,0,0)"  stroke-width="2.0"/>
<line x1="74.7" y1="139.9" x2="109.3" y2="120.7" stroke="rgb(0,0,0)"  stroke-width="2.0"/>
<line x1="76.4" y1="130.7" x2="100.5" y2="117.3" stroke="rgb(0,0,0)"  stroke-width="2.0"/>
<line x1="109.3" y1="120.7" x2="108.2" y2="79.0" stroke="rgb(0,0,0)"  stroke-width="2.0"/>
<line x1="108.2" y1="79.0" x2="75.2" y2="61.4" stroke="rgb(0,0,0)"  stroke-width="2.0"/>
<line x1="75.2" y1="61.4" x2="40.0" y2="79.9" stroke="rgb(0,0,0)"  stroke-width="2.0"/>
<line x1="179.0" y1="121.6" x2="179.0" y2="80.3" stroke="rgb(0,0,0)"  stroke-width="2.0"/>
<line x1="179.0" y1="80.3" x2="144.4" y2="60.8" stroke="rgb(0,0,0)"  stroke-width="2.0"/>
<line x1="144.4" y1="60.8" x2="108.2" y2="79.0" stroke="rgb(0,0,0)"  stroke-width="2.0"/>
<line x1="109.3" y1="120.7" x2="143.4" y2="141.2" stroke="rgb(0,0,0)"  stroke-width="2.0"/>
<line x1="143.4" y1="141.2" x2="179.0" y2="121.6" stroke="rgb(0,0,0)"  stroke-width="2.0"/>
<text x="105.204256" y="48.000000" fill="rgb(102,102,102)"  stroke="rgb(102,102,102)" stroke-width="1" font-size="16" >CH</text>
<text x="129.204256" y="51.680000" fill="rgb(102,102,102)"  stroke="rgb(102,102,102)" stroke-width="1" font-size="13" >3</text>
</svg>
</g>
<text font-size="18.000000" fill ="black" font-family="sans-serif"
x="10.000000" y="20.000000" ></text>
</svg>
