<?xml version="1.0"?>
<svg version="1.1" id="topsvg"
xmlns="http://www.w3.org/2000/svg" xmlns:xlink="http://www.w3.org/1999/xlink"
xmlns:cml="http://www.xml-cml.org/schema" x="0" y="0" width="200px" height="200px" viewBox="0 0 100 100">
<title> - Open Babel Depiction</title>
<rect x="0" y="0" width="100" height="100" fill="white"/>
<g transform="translate(0,0)">
<svg width="100" height="100" x="0" y="0" viewBox="0 0 220.406 350.631"
font-family="sans-serif" stroke="rgb(0,0,0)" stroke-width="2"  stroke-linecap="round">
<line x1="98.8" y1="284.5" x2="123.5" y2="270.9" stroke="rgb(0,0,0)"  stroke-width="2.0"/>
<line x1="123.5" y1="270.9" x2="115.9" y2="298.1" stroke="rgb(0,0,0)"  stroke-width="2.0"/>
<line x1="138.6" y1="92.9" x2="137.9" y2="91.4" stroke="rgb(0,0,0)"  stroke-width="1.0"/>
<line x1="133.3" y1="96.3" x2="132.0" y2="93.7" stroke="rgb(0,0,0)"  stroke-width="1.0"/>
<line x1="128.0" y1="99.7" x2="126.1" y2="95.9" stroke="rgb(0,0,0)"  stroke-width="1.0"/>
<line x1="122.7" y1="103.1" x2="120.2" y2="98.2" stroke="rgb(0,0,0)"  stroke-width="1.0"/>
<line x1="117.4" y1="106.5" x2="114.3" y2="100.5" stroke="rgb(0,0,0)"  stroke-width="1.0"/>
<line x1="112.1" y1="109.8" x2="108.5" y2="102.7" stroke="rgb(0,0,0)"  stroke-width="1.0"/>
<line x1="145.3" y1="88.6" x2="152.1" y2="60.2" stroke="rgb(0,0,0)"  stroke-width="2.0"/>
<line x1="136.9" y1="163.6" x2="137.6" y2="162.2" stroke="rgb(0,0,0)"  stroke-width="1.0"/>
<line x1="131.1" y1="161.4" x2="132.4" y2="158.8" stroke="rgb(0,0,0)"  stroke-width="1.0"/>
<line x1="125.3" y1="159.2" x2="127.2" y2="155.5" stroke="rgb(0,0,0)"  stroke-width="1.0"/>
<line x1="119.5" y1="157.0" x2="121.9" y2="152.1" stroke="rgb(0,0,0)"  stroke-width="1.0"/>
<line x1="113.7" y1="154.8" x2="116.7" y2="148.8" stroke="rgb(0,0,0)"  stroke-width="1.0"/>
<line x1="107.9" y1="152.6" x2="111.5" y2="145.4" stroke="rgb(0,0,0)"  stroke-width="1.0"/>
<line x1="144.1" y1="166.3" x2="144.5" y2="211.7" stroke="rgb(0,0,0)"  stroke-width="2.0"/>
<line x1="110.9" y1="114.8" x2="109.3" y2="114.8" stroke="rgb(0,0,0)"  stroke-width="1.0"/>
<line x1="111.5" y1="121.7" x2="108.6" y2="121.6" stroke="rgb(0,0,0)"  stroke-width="1.0"/>
<line x1="112.0" y1="128.5" x2="107.9" y2="128.5" stroke="rgb(0,0,0)"  stroke-width="1.0"/>
<line x1="112.6" y1="135.4" x2="107.1" y2="135.3" stroke="rgb(0,0,0)"  stroke-width="1.0"/>
<line x1="113.1" y1="142.2" x2="106.4" y2="142.1" stroke="rgb(0,0,0)"  stroke-width="1.0"/>
<line x1="113.7" y1="149.1" x2="105.7" y2="149.0" stroke="rgb(0,0,0)"  stroke-width="1.0"/>
<line x1="110.3" y1="106.3" x2="109.9" y2="75.2" stroke="rgb(0,0,0)"  stroke-width="2.0"/>
<line x1="110.4" y1="154.3" x2="108.8" y2="154.3" stroke="rgb(0,0,0)"  stroke-width="1.0"/>
<line x1="111.0" y1="158.6" x2="108.1" y2="158.5" stroke="rgb(0,0,0)"  stroke-width="1.0"/>
<line x1="111.6" y1="162.8" x2="107.5" y2="162.8" stroke="rgb(0,0,0)"  stroke-width="1.0"/>
<line x1="112.2" y1="167.1" x2="106.8" y2="167.0" stroke="rgb(0,0,0)"  stroke-width="1.0"/>
<line x1="112.8" y1="171.3" x2="106.1" y2="171.3" stroke="rgb(0,0,0)"  stroke-width="1.0"/>
<line x1="113.4" y1="175.6" x2="105.4" y2="175.5" stroke="rgb(0,0,0)"  stroke-width="1.0"/>
<line x1="167.6" y1="43.8" x2="167.9" y2="43.7" stroke="rgb(0,0,0)"  stroke-width="2.0"/>
<line x1="121.8" y1="225.4" x2="144.5" y2="211.7" stroke="rgb(0,0,0)"  stroke-width="2.0"/>
<line x1="127.3" y1="230.5" x2="143.0" y2="221.0" stroke="rgb(0,0,0)"  stroke-width="2.0"/>
<line x1="144.5" y1="211.7" x2="165.4" y2="226.1" stroke="rgb(0,0,0)"  stroke-width="2.0"/>
<line x1="172.2" y1="245.8" x2="164.0" y2="271.3" stroke="rgb(0,0,0)"  stroke-width="2.0"/>
<line x1="164.0" y1="271.3" x2="123.5" y2="270.9" stroke="rgb(0,0,0)"  stroke-width="2.0"/>
<line x1="123.5" y1="270.9" x2="114.7" y2="244.4" stroke="rgb(0,0,0)"  stroke-width="2.0"/>
<line x1="40.0" y1="107.2" x2="74.9" y2="88.7" stroke="rgb(0,0,0)"  stroke-width="2.0"/>
<line x1="74.9" y1="88.7" x2="110.3" y2="106.3" stroke="rgb(0,0,0)"  stroke-width="2.0"/>
<line x1="110.3" y1="106.3" x2="109.7" y2="149.0" stroke="rgb(0,0,0)"  stroke-width="2.0"/>
<line x1="109.7" y1="149.0" x2="74.8" y2="168.2" stroke="rgb(0,0,0)"  stroke-width="2.0"/>
<line x1="74.8" y1="168.2" x2="40.5" y2="148.3" stroke="rgb(0,0,0)"  stroke-width="2.0"/>
<line x1="73.2" y1="159.0" x2="49.3" y2="145.1" stroke="rgb(0,0,0)"  stroke-width="2.0"/>
<line x1="40.5" y1="148.3" x2="40.0" y2="107.2" stroke="rgb(0,0,0)"  stroke-width="2.0"/>
<line x1="145.3" y1="88.6" x2="179.8" y2="107.2" stroke="rgb(0,0,0)"  stroke-width="2.0"/>
<line x1="179.8" y1="107.2" x2="179.9" y2="149.0" stroke="rgb(0,0,0)"  stroke-width="2.0"/>
<line x1="179.9" y1="149.0" x2="144.1" y2="166.3" stroke="rgb(0,0,0)"  stroke-width="2.0"/>
<line x1="144.1" y1="166.3" x2="109.7" y2="149.0" stroke="rgb(0,0,0)"  stroke-width="2.0"/>
<line x1="110.3" y1="106.3" x2="145.3" y2="88.6" stroke="rgb(0,0,0)"  stroke-width="2.0"/>
<text x="61.457823" y="298.724476" fill="rgb(102,102,102)"  stroke="rgb(102,102,102)" stroke-width="1" font-size="16" >H</text>
<text x="73.457823" y="302.404476" fill="rgb(102,102,102)"  stroke="rgb(102,102,102)" stroke-width="1" font-size="13" >3</text>
<text x="79.957823" y="298.724476" fill="rgb(102,102,102)"  stroke="rgb(102,102,102)" stroke-width="1" font-size="16" >C</text>
<text x="104.635659" y="240.070972" fill="rgb(12,12,255)"  stroke="rgb(12,12,255)" stroke-width="1" font-size="16" >N</text>
<text x="170.166043" y="241.409882" fill="rgb(255,12,12)"  stroke="rgb(255,12,12)" stroke-width="1" font-size="16" >O</text>
<text x="86.420872" y="318.631235" fill="rgb(102,102,102)"  stroke="rgb(102,102,102)" stroke-width="1" font-size="16" >H</text>
<text x="98.420872" y="322.311235" fill="rgb(102,102,102)"  stroke="rgb(102,102,102)" stroke-width="1" font-size="13" >3</text>
<text x="104.920872" y="318.631235" fill="rgb(102,102,102)"  stroke="rgb(102,102,102)" stroke-width="1" font-size="16" >C</text>
<text x="103.296749" y="196.608108" fill="rgb(191,191,191)"  stroke="rgb(191,191,191)" stroke-width="1" font-size="16" >H</text>
<text x="83.699510" y="70.228081" fill="rgb(102,102,102)"  stroke="rgb(102,102,102)" stroke-width="1" font-size="16" >H</text>
<text x="95.699510" y="73.908081" fill="rgb(102,102,102)"  stroke="rgb(102,102,102)" stroke-width="1" font-size="13" >3</text>
<text x="102.199510" y="70.228081" fill="rgb(102,102,102)"  stroke="rgb(102,102,102)" stroke-width="1" font-size="16" >C</text>
<text x="149.102705" y="55.516400" fill="rgb(255,12,12)"  stroke="rgb(255,12,12)" stroke-width="1" font-size="16" >O</text>
<text x="174.405924" y="48.000000" fill="rgb(191,191,191)"  stroke="rgb(191,191,191)" stroke-width="1" font-size="16" >H</text>
</svg>
</g>
<text font-size="18.000000" fill ="black" font-family="sans-serif"
x="10.000000" y="20.000000" ></text>
</svg>
