<?xml version="1.0"?>
<svg version="1.1" id="topsvg"
xmlns="http://www.w3.org/2000/svg" xmlns:xlink="http://www.w3.org/1999/xlink"
xmlns:cml="http://www.xml-cml.org/schema" x="0" y="0" width="200px" height="200px" viewBox="0 0 100 100">
<title> - Open Babel Depiction</title>
<rect x="0" y="0" width="100" height="100" fill="white"/>
<g transform="translate(0,0)">
<svg width="100" height="100" x="0" y="0" viewBox="0 0 256.796 222.448"
font-family="sans-serif" stroke="rgb(0,0,0)" stroke-width="2"  stroke-linecap="round">
<line x1="146.4" y1="121.9" x2="110.4" y2="101.8" stroke="rgb(0,0,0)"  stroke-width="2.0"/>
<line x1="72.6" y1="150.0" x2="76.3" y2="120.7" stroke="rgb(0,0,0)"  stroke-width="2.0"/>
<line x1="78.6" y1="150.8" x2="82.3" y2="121.4" stroke="rgb(0,0,0)"  stroke-width="2.0"/>
<line x1="152.7" y1="94.6" x2="146.4" y2="121.9" stroke="rgb(0,0,0)"  stroke-width="2.0"/>
<line x1="168.0" y1="78.1" x2="168.7" y2="78.0" stroke="rgb(0,0,0)"  stroke-width="2.0"/>
<line x1="79.3" y1="121.1" x2="40.8" y2="101.8" stroke="rgb(0,0,0)"  stroke-width="2.0"/>
<line x1="40.8" y1="101.8" x2="40.0" y2="60.1" stroke="rgb(0,0,0)"  stroke-width="2.0"/>
<line x1="40.0" y1="60.1" x2="75.1" y2="40.0" stroke="rgb(0,0,0)"  stroke-width="2.0"/>
<line x1="75.1" y1="40.0" x2="110.6" y2="60.2" stroke="rgb(0,0,0)"  stroke-width="2.0"/>
<line x1="110.6" y1="60.2" x2="110.4" y2="101.8" stroke="rgb(0,0,0)"  stroke-width="2.0"/>
<line x1="110.4" y1="101.8" x2="79.3" y2="121.1" stroke="rgb(0,0,0)"  stroke-width="2.0"/>
<line x1="146.4" y1="121.9" x2="181.1" y2="102.7" stroke="rgb(0,0,0)"  stroke-width="2.0"/>
<line x1="181.1" y1="102.7" x2="216.8" y2="121.8" stroke="rgb(0,0,0)"  stroke-width="2.0"/>
<line x1="216.8" y1="121.8" x2="216.8" y2="163.3" stroke="rgb(0,0,0)"  stroke-width="2.0"/>
<line x1="216.8" y1="163.3" x2="181.1" y2="182.4" stroke="rgb(0,0,0)"  stroke-width="2.0"/>
<line x1="181.1" y1="182.4" x2="145.7" y2="164.2" stroke="rgb(0,0,0)"  stroke-width="2.0"/>
<line x1="145.7" y1="164.2" x2="146.4" y2="121.9" stroke="rgb(0,0,0)"  stroke-width="2.0"/>
<text x="67.946339" y="171.281125" fill="rgb(255,12,12)"  stroke="rgb(255,12,12)" stroke-width="1" font-size="16" >O</text>
<text x="149.609885" y="89.958280" fill="rgb(255,12,12)"  stroke="rgb(255,12,12)" stroke-width="1" font-size="16" >O</text>
<text x="175.090933" y="82.144165" fill="rgb(191,191,191)"  stroke="rgb(191,191,191)" stroke-width="1" font-size="16" >H</text>
</svg>
</g>
<text font-size="18.000000" fill ="black" font-family="sans-serif"
x="10.000000" y="20.000000" ></text>
</svg>
