<?xml version="1.0"?>
<svg version="1.1" id="topsvg"
xmlns="http://www.w3.org/2000/svg" xmlns:xlink="http://www.w3.org/1999/xlink"
xmlns:cml="http://www.xml-cml.org/schema" x="0" y="0" width="200px" height="200px" viewBox="0 0 100 100">
<title> - Open Babel Depiction</title>
<rect x="0" y="0" width="100" height="100" fill="white"/>
<g transform="translate(0,0)">
<svg width="100" height="100" x="0" y="0" viewBox="0 0 370.869 320.219"
font-family="sans-serif" stroke="rgb(0,0,0)" stroke-width="2"  stroke-linecap="round">
<polygon points="133.709 175.166 137.164 214.422 129.165 214.311 " stroke-width="2" fill="rgb(0,0,0)"  stroke="rgb(0,0,0)" />
<line x1="133.2" y1="214.4" x2="155.9" y2="229.4" stroke="rgb(0,0,0)"  stroke-width="2.0"/>
<line x1="95.1" y1="105.8" x2="79.7" y2="100.0" stroke="rgb(0,0,0)"  stroke-width="2.0"/>
<line x1="72.1" y1="83.3" x2="73.4" y2="80.0" stroke="rgb(0,0,0)"  stroke-width="2.0"/>
<line x1="55.4" y1="90.8" x2="52.2" y2="89.6" stroke="rgb(0,0,0)"  stroke-width="2.0"/>
<line x1="63.0" y1="107.6" x2="61.7" y2="110.8" stroke="rgb(0,0,0)"  stroke-width="2.0"/>
<line x1="126.7" y1="84.4" x2="127.5" y2="52.9" stroke="rgb(0,0,0)"  stroke-width="2.0"/>
<line x1="132.7" y1="84.6" x2="133.5" y2="53.1" stroke="rgb(0,0,0)"  stroke-width="2.0"/>
<line x1="178.1" y1="152.7" x2="177.3" y2="154.1" stroke="rgb(0,0,0)"  stroke-width="1.0"/>
<line x1="184.4" y1="155.4" x2="183.0" y2="158.0" stroke="rgb(0,0,0)"  stroke-width="1.0"/>
<line x1="190.7" y1="158.2" x2="188.7" y2="161.9" stroke="rgb(0,0,0)"  stroke-width="1.0"/>
<line x1="197.0" y1="161.0" x2="194.4" y2="165.7" stroke="rgb(0,0,0)"  stroke-width="1.0"/>
<line x1="203.4" y1="163.8" x2="200.1" y2="169.6" stroke="rgb(0,0,0)"  stroke-width="1.0"/>
<line x1="209.7" y1="166.5" x2="205.8" y2="173.5" stroke="rgb(0,0,0)"  stroke-width="1.0"/>
<line x1="282.1" y1="215.4" x2="281.2" y2="155.7" stroke="rgb(0,0,0)"  stroke-width="2.0"/>
<line x1="277.9" y1="215.5" x2="277.0" y2="155.7" stroke="rgb(0,0,0)"  stroke-width="2.0"/>
<line x1="286.3" y1="215.4" x2="285.4" y2="155.6" stroke="rgb(0,0,0)"  stroke-width="2.0"/>
<line x1="280.8" y1="126.9" x2="296.4" y2="121.6" stroke="rgb(0,0,0)"  stroke-width="2.0"/>
<line x1="280.8" y1="126.9" x2="281.2" y2="155.7" stroke="rgb(0,0,0)"  stroke-width="2.0"/>
<line x1="318.5" y1="125.9" x2="321.1" y2="128.2" stroke="rgb(0,0,0)"  stroke-width="2.0"/>
<line x1="242.7" y1="277.6" x2="281.2" y2="255.8" stroke="rgb(0,0,0)"  stroke-width="2.0"/>
<line x1="245.7" y1="282.8" x2="284.2" y2="261.1" stroke="rgb(0,0,0)"  stroke-width="2.0"/>
<line x1="282.7" y1="258.4" x2="282.1" y2="215.4" stroke="rgb(0,0,0)"  stroke-width="2.0"/>
<line x1="206.7" y1="258.6" x2="155.9" y2="229.4" stroke="rgb(0,0,0)"  stroke-width="2.0"/>
<line x1="204.6" y1="262.3" x2="153.9" y2="233.0" stroke="rgb(0,0,0)"  stroke-width="2.0"/>
<line x1="208.8" y1="255.0" x2="158.0" y2="225.7" stroke="rgb(0,0,0)"  stroke-width="2.0"/>
<line x1="206.7" y1="258.6" x2="244.2" y2="280.2" stroke="rgb(0,0,0)"  stroke-width="2.0"/>
<line x1="204.5" y1="204.0" x2="204.7" y2="170.0" stroke="rgb(0,0,0)"  stroke-width="2.0"/>
<line x1="210.5" y1="204.0" x2="210.7" y2="170.1" stroke="rgb(0,0,0)"  stroke-width="2.0"/>
<line x1="94.7" y1="149.8" x2="95.1" y2="105.8" stroke="rgb(0,0,0)"  stroke-width="2.0"/>
<line x1="101.9" y1="143.9" x2="102.2" y2="111.9" stroke="rgb(0,0,0)"  stroke-width="2.0"/>
<line x1="95.1" y1="105.8" x2="129.7" y2="84.5" stroke="rgb(0,0,0)"  stroke-width="2.0"/>
<line x1="129.7" y1="84.5" x2="169.9" y2="106.0" stroke="rgb(0,0,0)"  stroke-width="2.0"/>
<line x1="169.9" y1="106.0" x2="170.2" y2="149.2" stroke="rgb(0,0,0)"  stroke-width="2.0"/>
<line x1="170.2" y1="149.2" x2="133.7" y2="175.2" stroke="rgb(0,0,0)"  stroke-width="2.0"/>
<line x1="133.7" y1="175.2" x2="94.7" y2="149.8" stroke="rgb(0,0,0)"  stroke-width="2.0"/>
<text x="61.550437" y="103.416057" fill="rgb(127,153,153)"  stroke="rgb(127,153,153)" stroke-width="1" font-size="16" >Si</text>
<text x="73.969115" y="75.865619" fill="rgb(102,102,102)"  stroke="rgb(102,102,102)" stroke-width="1" font-size="16" >CH</text>
<text x="97.969115" y="79.545619" fill="rgb(102,102,102)"  stroke="rgb(102,102,102)" stroke-width="1" font-size="13" >3</text>
<text x="14.000000" y="92.997378" fill="rgb(102,102,102)"  stroke="rgb(102,102,102)" stroke-width="1" font-size="16" >H</text>
<text x="26.000000" y="96.677378" fill="rgb(102,102,102)"  stroke="rgb(102,102,102)" stroke-width="1" font-size="13" >3</text>
<text x="32.500000" y="92.997378" fill="rgb(102,102,102)"  stroke="rgb(102,102,102)" stroke-width="1" font-size="16" >C</text>
<text x="31.131759" y="130.969439" fill="rgb(102,102,102)"  stroke="rgb(102,102,102)" stroke-width="1" font-size="16" >H</text>
<text x="43.131759" y="134.649439" fill="rgb(102,102,102)"  stroke="rgb(102,102,102)" stroke-width="1" font-size="13" >3</text>
<text x="49.631759" y="130.969439" fill="rgb(102,102,102)"  stroke="rgb(102,102,102)" stroke-width="1" font-size="16" >C</text>
<text x="124.819532" y="48.000000" fill="rgb(255,12,12)"  stroke="rgb(255,12,12)" stroke-width="1" font-size="16" >O</text>
<text x="302.655793" y="125.375696" fill="rgb(255,12,12)"  stroke="rgb(255,12,12)" stroke-width="1" font-size="16" >O</text>
<text x="326.868757" y="144.719620" fill="rgb(102,102,102)"  stroke="rgb(102,102,102)" stroke-width="1" font-size="16" >CH</text>
<text x="350.868757" y="148.399620" fill="rgb(102,102,102)"  stroke="rgb(102,102,102)" stroke-width="1" font-size="13" >3</text>
<text x="181.447039" y="225.014432" fill="rgb(102,102,102)"  stroke="rgb(102,102,102)" stroke-width="1" font-size="16" >H</text>
<text x="193.447039" y="228.694432" fill="rgb(102,102,102)"  stroke="rgb(102,102,102)" stroke-width="1" font-size="13" >2</text>
<text x="199.947039" y="225.014432" fill="rgb(102,102,102)"  stroke="rgb(102,102,102)" stroke-width="1" font-size="16" >C</text>
</svg>
</g>
<text font-size="18.000000" fill ="black" font-family="sans-serif"
x="10.000000" y="20.000000" ></text>
</svg>
