<?xml version="1.0"?>
<svg version="1.1" id="topsvg"
xmlns="http://www.w3.org/2000/svg" xmlns:xlink="http://www.w3.org/1999/xlink"
xmlns:cml="http://www.xml-cml.org/schema" x="0" y="0" width="200px" height="200px" viewBox="0 0 100 100">
<title> - Open Babel Depiction</title>
<rect x="0" y="0" width="100" height="100" fill="white"/>
<g transform="translate(0,0)">
<svg width="100" height="100" x="0" y="0" viewBox="0 0 318.215 310.56"
font-family="sans-serif" stroke="rgb(0,0,0)" stroke-width="2"  stroke-linecap="round">
<line x1="263.8" y1="237.6" x2="228.1" y2="221.2" stroke="rgb(0,0,0)"  stroke-width="2.0"/>
<line x1="276.8" y1="255.9" x2="277.0" y2="257.6" stroke="rgb(0,0,0)"  stroke-width="2.0"/>
<line x1="158.6" y1="210.2" x2="172.1" y2="196.2" stroke="rgb(0,0,0)"  stroke-width="2.0"/>
<line x1="162.9" y1="214.3" x2="176.5" y2="200.4" stroke="rgb(0,0,0)"  stroke-width="2.0"/>
<line x1="160.8" y1="231.3" x2="155.5" y2="227.7" stroke="rgb(0,0,0)"  stroke-width="2.0"/>
<line x1="164.2" y1="226.3" x2="158.8" y2="222.7" stroke="rgb(0,0,0)"  stroke-width="2.0"/>
<line x1="200.5" y1="189.3" x2="191.5" y2="194.9" stroke="rgb(0,0,0)"  stroke-width="2.0"/>
<line x1="77.7" y1="208.1" x2="77.7" y2="178.7" stroke="rgb(0,0,0)"  stroke-width="2.0"/>
<line x1="77.7" y1="178.7" x2="50.9" y2="161.5" stroke="rgb(0,0,0)"  stroke-width="2.0"/>
<polygon points="116.335867 154.971163 79.772589 182.100193 75.588534 175.281566 " stroke-width="2.000000" fill="rgb(0,0,0)"  stroke="rgb(0,0,0)" />
<line x1="220.4" y1="172.2" x2="221.1" y2="170.8" stroke="rgb(0,0,0)"  stroke-width="1.0"/>
<line x1="214.0" y1="169.8" x2="215.3" y2="167.2" stroke="rgb(0,0,0)"  stroke-width="1.0"/>
<line x1="207.7" y1="167.3" x2="209.6" y2="163.6" stroke="rgb(0,0,0)"  stroke-width="1.0"/>
<line x1="201.4" y1="164.9" x2="203.8" y2="160.0" stroke="rgb(0,0,0)"  stroke-width="1.0"/>
<line x1="195.0" y1="162.4" x2="198.0" y2="156.4" stroke="rgb(0,0,0)"  stroke-width="1.0"/>
<line x1="188.7" y1="160.0" x2="192.3" y2="152.8" stroke="rgb(0,0,0)"  stroke-width="1.0"/>
<line x1="228.3" y1="175.3" x2="228.1" y2="221.2" stroke="rgb(0,0,0)"  stroke-width="2.0"/>
<line x1="189.9" y1="147.3" x2="191.5" y2="147.3" stroke="rgb(0,0,0)"  stroke-width="1.0"/>
<line x1="189.4" y1="140.0" x2="192.3" y2="140.1" stroke="rgb(0,0,0)"  stroke-width="1.0"/>
<line x1="188.9" y1="132.7" x2="193.1" y2="132.8" stroke="rgb(0,0,0)"  stroke-width="1.0"/>
<line x1="188.4" y1="125.4" x2="193.9" y2="125.6" stroke="rgb(0,0,0)"  stroke-width="1.0"/>
<line x1="188.0" y1="118.2" x2="194.7" y2="118.3" stroke="rgb(0,0,0)"  stroke-width="1.0"/>
<line x1="187.5" y1="110.9" x2="195.5" y2="111.0" stroke="rgb(0,0,0)"  stroke-width="1.0"/>
<line x1="190.5" y1="156.4" x2="191.5" y2="194.9" stroke="rgb(0,0,0)"  stroke-width="2.0"/>
<line x1="190.5" y1="105.1" x2="192.1" y2="105.0" stroke="rgb(0,0,0)"  stroke-width="1.0"/>
<line x1="189.8" y1="100.4" x2="192.7" y2="100.3" stroke="rgb(0,0,0)"  stroke-width="1.0"/>
<line x1="189.0" y1="95.7" x2="193.2" y2="95.6" stroke="rgb(0,0,0)"  stroke-width="1.0"/>
<line x1="188.3" y1="91.0" x2="193.7" y2="90.9" stroke="rgb(0,0,0)"  stroke-width="1.0"/>
<line x1="187.5" y1="86.3" x2="194.2" y2="86.1" stroke="rgb(0,0,0)"  stroke-width="1.0"/>
<line x1="186.8" y1="81.6" x2="194.8" y2="81.4" stroke="rgb(0,0,0)"  stroke-width="1.0"/>
<line x1="153.1" y1="175.1" x2="152.1" y2="208.6" stroke="rgb(0,0,0)"  stroke-width="2.0"/>
<line x1="160.2" y1="170.6" x2="161.0" y2="172.0" stroke="rgb(0,0,0)"  stroke-width="1.0"/>
<line x1="165.9" y1="167.1" x2="167.2" y2="169.6" stroke="rgb(0,0,0)"  stroke-width="1.0"/>
<line x1="171.6" y1="163.5" x2="173.5" y2="167.2" stroke="rgb(0,0,0)"  stroke-width="1.0"/>
<line x1="177.3" y1="159.9" x2="179.7" y2="164.8" stroke="rgb(0,0,0)"  stroke-width="1.0"/>
<line x1="183.0" y1="156.4" x2="186.0" y2="162.4" stroke="rgb(0,0,0)"  stroke-width="1.0"/>
<line x1="188.7" y1="152.8" x2="192.3" y2="160.0" stroke="rgb(0,0,0)"  stroke-width="1.0"/>
<line x1="228.6" y1="92.4" x2="236.0" y2="60.7" stroke="rgb(0,0,0)"  stroke-width="2.0"/>
<line x1="221.6" y1="96.8" x2="220.8" y2="95.4" stroke="rgb(0,0,0)"  stroke-width="1.0"/>
<line x1="215.9" y1="100.3" x2="214.6" y2="97.8" stroke="rgb(0,0,0)"  stroke-width="1.0"/>
<line x1="210.2" y1="103.9" x2="208.4" y2="100.2" stroke="rgb(0,0,0)"  stroke-width="1.0"/>
<line x1="204.6" y1="107.4" x2="202.1" y2="102.6" stroke="rgb(0,0,0)"  stroke-width="1.0"/>
<line x1="198.9" y1="111.0" x2="195.9" y2="105.0" stroke="rgb(0,0,0)"  stroke-width="1.0"/>
<line x1="193.3" y1="114.5" x2="189.7" y2="107.4" stroke="rgb(0,0,0)"  stroke-width="1.0"/>
<line x1="251.4" y1="44.3" x2="253.1" y2="43.8" stroke="rgb(0,0,0)"  stroke-width="2.0"/>
<line x1="116.3" y1="155.0" x2="115.7" y2="111.6" stroke="rgb(0,0,0)"  stroke-width="2.0"/>
<line x1="115.7" y1="111.6" x2="153.1" y2="91.4" stroke="rgb(0,0,0)"  stroke-width="2.0"/>
<line x1="153.1" y1="91.4" x2="191.5" y2="111.0" stroke="rgb(0,0,0)"  stroke-width="2.0"/>
<line x1="191.5" y1="111.0" x2="190.5" y2="156.4" stroke="rgb(0,0,0)"  stroke-width="2.0"/>
<line x1="190.5" y1="156.4" x2="153.1" y2="175.1" stroke="rgb(0,0,0)"  stroke-width="2.0"/>
<line x1="153.1" y1="175.1" x2="116.3" y2="155.0" stroke="rgb(0,0,0)"  stroke-width="2.0"/>
<line x1="266.9" y1="111.5" x2="266.1" y2="156.3" stroke="rgb(0,0,0)"  stroke-width="2.0"/>
<line x1="266.1" y1="156.3" x2="228.3" y2="175.3" stroke="rgb(0,0,0)"  stroke-width="2.0"/>
<line x1="228.3" y1="175.3" x2="190.5" y2="156.4" stroke="rgb(0,0,0)"  stroke-width="2.0"/>
<line x1="191.5" y1="111.0" x2="228.6" y2="92.4" stroke="rgb(0,0,0)"  stroke-width="2.0"/>
<line x1="228.6" y1="92.4" x2="266.9" y2="111.5" stroke="rgb(0,0,0)"  stroke-width="2.0"/>
<text x="269.596412" y="250.958219" fill="rgb(255,12,12)"  stroke="rgb(255,12,12)" stroke-width="1" font-size="16" >O</text>
<text x="145.683904" y="229.579603" fill="rgb(255,12,12)"  stroke="rgb(255,12,12)" stroke-width="1" font-size="16" >O</text>
<text x="179.355929" y="196.972854" fill="rgb(102,102,102)"  stroke="rgb(102,102,102)" stroke-width="1" font-size="16" >CH</text>
<text x="203.355929" y="200.652854" fill="rgb(102,102,102)"  stroke="rgb(102,102,102)" stroke-width="1" font-size="13" >2</text>
<text x="163.455938" y="204.187672" fill="rgb(102,102,102)"  stroke="rgb(102,102,102)" stroke-width="1" font-size="16" >H</text>
<text x="175.455938" y="207.867672" fill="rgb(102,102,102)"  stroke="rgb(102,102,102)" stroke-width="1" font-size="13" >3</text>
<text x="181.955938" y="204.187672" fill="rgb(102,102,102)"  stroke="rgb(102,102,102)" stroke-width="1" font-size="16" >C</text>
<text x="163.962982" y="240.450425" fill="rgb(102,102,102)"  stroke="rgb(102,102,102)" stroke-width="1" font-size="16" >CH</text>
<text x="187.962982" y="244.130425" fill="rgb(102,102,102)"  stroke="rgb(102,102,102)" stroke-width="1" font-size="13" >2</text>
<text x="73.780609" y="229.096519" fill="rgb(102,102,102)"  stroke="rgb(102,102,102)" stroke-width="1" font-size="16" >CH</text>
<text x="97.780609" y="232.776519" fill="rgb(102,102,102)"  stroke="rgb(102,102,102)" stroke-width="1" font-size="13" >3</text>
<text x="14.000000" y="162.499513" fill="rgb(102,102,102)"  stroke="rgb(102,102,102)" stroke-width="1" font-size="16" >H</text>
<text x="26.000000" y="166.179513" fill="rgb(102,102,102)"  stroke="rgb(102,102,102)" stroke-width="1" font-size="13" >3</text>
<text x="32.500000" y="162.499513" fill="rgb(102,102,102)"  stroke="rgb(102,102,102)" stroke-width="1" font-size="16" >C</text>
<text x="164.436398" y="74.992683" fill="rgb(102,102,102)"  stroke="rgb(102,102,102)" stroke-width="1" font-size="16" >H</text>
<text x="176.436398" y="78.672683" fill="rgb(102,102,102)"  stroke="rgb(102,102,102)" stroke-width="1" font-size="13" >3</text>
<text x="182.936398" y="74.992683" fill="rgb(102,102,102)"  stroke="rgb(102,102,102)" stroke-width="1" font-size="16" >C</text>
<text x="233.002075" y="56.029487" fill="rgb(255,12,12)"  stroke="rgb(255,12,12)" stroke-width="1" font-size="16" >O</text>
<text x="272.214785" y="278.559759" fill="rgb(191,191,191)"  stroke="rgb(191,191,191)" stroke-width="1" font-size="16" >H</text>
<text x="259.540258" y="48.000000" fill="rgb(191,191,191)"  stroke="rgb(191,191,191)" stroke-width="1" font-size="16" >H</text>
</svg>
</g>
<text font-size="18.000000" fill ="black" font-family="sans-serif"
x="10.000000" y="20.000000" ></text>
</svg>
