<?xml version="1.0"?>
<svg version="1.1" id="topsvg"
xmlns="http://www.w3.org/2000/svg" xmlns:xlink="http://www.w3.org/1999/xlink"
xmlns:cml="http://www.xml-cml.org/schema" x="0" y="0" width="200px" height="200px" viewBox="0 0 100 100">
<title> - Open Babel Depiction</title>
<rect x="0" y="0" width="100" height="100" fill="white"/>
<g transform="translate(0,0)">
<svg width="100" height="100" x="0" y="0" viewBox="0 0 290.179 265.133"
font-family="sans-serif" stroke="rgb(0,0,0)" stroke-width="2"  stroke-linecap="round">
<line x1="218.2" y1="196.1" x2="238.4" y2="214.2" stroke="rgb(0,0,0)"  stroke-width="2.0"/>
<line x1="214.2" y1="200.5" x2="234.4" y2="218.7" stroke="rgb(0,0,0)"  stroke-width="2.0"/>
<polygon points="180.122131 140.879618 146.214706 160.052524 143.012948 152.721171 " stroke-width="2.000000" fill="rgb(0,0,0)"  stroke="rgb(0,0,0)" />
<polygon points="180.034173 100.994747 143.212475 82.985621 147.411843 76.176413 " stroke-width="2.000000" fill="rgb(0,0,0)"  stroke="rgb(0,0,0)" />
<line x1="145.3" y1="79.6" x2="181.1" y2="96.3" stroke="rgb(0,0,0)"  stroke-width="2.0"/>
<line x1="49.9" y1="90.4" x2="73.9" y2="77.0" stroke="rgb(0,0,0)"  stroke-width="2.0"/>
<line x1="52.8" y1="95.7" x2="76.8" y2="82.2" stroke="rgb(0,0,0)"  stroke-width="2.0"/>
<line x1="75.4" y1="79.6" x2="109.9" y2="98.8" stroke="rgb(0,0,0)"  stroke-width="2.0"/>
<line x1="109.9" y1="98.8" x2="145.3" y2="79.6" stroke="rgb(0,0,0)"  stroke-width="2.0"/>
<line x1="207.4" y1="80.4" x2="209.9" y2="52.7" stroke="rgb(0,0,0)"  stroke-width="2.0"/>
<line x1="213.4" y1="81.0" x2="215.9" y2="53.2" stroke="rgb(0,0,0)"  stroke-width="2.0"/>
<line x1="216.0" y1="167.0" x2="214.4" y2="167.1" stroke="rgb(0,0,0)"  stroke-width="1.0"/>
<line x1="216.8" y1="173.3" x2="213.9" y2="173.4" stroke="rgb(0,0,0)"  stroke-width="1.0"/>
<line x1="217.7" y1="179.5" x2="213.5" y2="179.6" stroke="rgb(0,0,0)"  stroke-width="1.0"/>
<line x1="218.5" y1="185.7" x2="213.1" y2="185.9" stroke="rgb(0,0,0)"  stroke-width="1.0"/>
<line x1="219.4" y1="191.9" x2="212.7" y2="192.2" stroke="rgb(0,0,0)"  stroke-width="1.0"/>
<line x1="220.2" y1="198.2" x2="212.2" y2="198.4" stroke="rgb(0,0,0)"  stroke-width="1.0"/>
<line x1="179.5" y1="67.6" x2="181.1" y2="96.3" stroke="rgb(0,0,0)"  stroke-width="2.0"/>
<line x1="122.5" y1="143.0" x2="145.9" y2="153.7" stroke="rgb(0,0,0)"  stroke-width="2.0"/>
<line x1="120.0" y1="148.4" x2="143.4" y2="159.1" stroke="rgb(0,0,0)"  stroke-width="2.0"/>
<line x1="180.1" y1="140.9" x2="180.0" y2="101.0" stroke="rgb(0,0,0)"  stroke-width="2.0"/>
<line x1="180.0" y1="101.0" x2="210.4" y2="80.7" stroke="rgb(0,0,0)"  stroke-width="2.0"/>
<line x1="210.4" y1="80.7" x2="249.5" y2="100.0" stroke="rgb(0,0,0)"  stroke-width="2.0"/>
<line x1="249.5" y1="100.0" x2="250.2" y2="141.1" stroke="rgb(0,0,0)"  stroke-width="2.0"/>
<line x1="250.2" y1="141.1" x2="214.9" y2="159.2" stroke="rgb(0,0,0)"  stroke-width="2.0"/>
<line x1="214.9" y1="159.2" x2="180.1" y2="140.9" stroke="rgb(0,0,0)"  stroke-width="2.0"/>
<text x="240.045181" y="233.132544" fill="rgb(255,12,12)"  stroke="rgb(255,12,12)" stroke-width="1" font-size="16" >O</text>
<text x="14.000000" y="107.395514" fill="rgb(102,102,102)"  stroke="rgb(102,102,102)" stroke-width="1" font-size="16" >H</text>
<text x="26.000000" y="111.075514" fill="rgb(102,102,102)"  stroke="rgb(102,102,102)" stroke-width="1" font-size="13" >2</text>
<text x="32.500000" y="107.395514" fill="rgb(102,102,102)"  stroke="rgb(102,102,102)" stroke-width="1" font-size="16" >C</text>
<text x="208.081844" y="48.000000" fill="rgb(255,12,12)"  stroke="rgb(255,12,12)" stroke-width="1" font-size="16" >O</text>
<text x="152.770779" y="62.662301" fill="rgb(102,102,102)"  stroke="rgb(102,102,102)" stroke-width="1" font-size="16" >H</text>
<text x="164.770779" y="66.342301" fill="rgb(102,102,102)"  stroke="rgb(102,102,102)" stroke-width="1" font-size="13" >3</text>
<text x="171.270779" y="62.662301" fill="rgb(102,102,102)"  stroke="rgb(102,102,102)" stroke-width="1" font-size="16" >C</text>
<text x="83.476013" y="148.255917" fill="rgb(102,102,102)"  stroke="rgb(102,102,102)" stroke-width="1" font-size="16" >H</text>
<text x="95.476013" y="151.935917" fill="rgb(102,102,102)"  stroke="rgb(102,102,102)" stroke-width="1" font-size="13" >2</text>
<text x="101.976013" y="148.255917" fill="rgb(102,102,102)"  stroke="rgb(102,102,102)" stroke-width="1" font-size="16" >C</text>
</svg>
</g>
<text font-size="18.000000" fill ="black" font-family="sans-serif"
x="10.000000" y="20.000000" ></text>
</svg>
