<?xml version="1.0"?>
<svg version="1.1" id="topsvg"
xmlns="http://www.w3.org/2000/svg" xmlns:xlink="http://www.w3.org/1999/xlink"
xmlns:cml="http://www.xml-cml.org/schema" x="0" y="0" width="200px" height="200px" viewBox="0 0 100 100">
<title> - Open Babel Depiction</title>
<rect x="0" y="0" width="100" height="100" fill="white"/>
<g transform="translate(0,0)">
<svg width="100" height="100" x="0" y="0" viewBox="0 0 390.34 286.57"
font-family="sans-serif" stroke="rgb(0,0,0)" stroke-width="2"  stroke-linecap="round">
<polygon points="119.385 152.519 122.118 189.237 114.123 188.961 " stroke-width="2" fill="rgb(0,0,0)"  stroke="rgb(0,0,0)" />
<line x1="118.1" y1="189.1" x2="137.9" y2="201.9" stroke="rgb(0,0,0)"  stroke-width="2.0"/>
<line x1="86.1" y1="96.9" x2="75.2" y2="92.8" stroke="rgb(0,0,0)"  stroke-width="2.0"/>
<line x1="67.6" y1="76.1" x2="67.1" y2="77.4" stroke="rgb(0,0,0)"  stroke-width="2.0"/>
<line x1="50.9" y1="83.7" x2="52.2" y2="84.2" stroke="rgb(0,0,0)"  stroke-width="2.0"/>
<line x1="58.5" y1="100.4" x2="58.9" y2="99.1" stroke="rgb(0,0,0)"  stroke-width="2.0"/>
<line x1="154.3" y1="48.2" x2="117.8" y2="78.1" stroke="rgb(0,0,0)"  stroke-width="2.0"/>
<line x1="157.2" y1="136.7" x2="156.4" y2="138.1" stroke="rgb(0,0,0)"  stroke-width="1.0"/>
<line x1="162.8" y1="139.0" x2="161.4" y2="141.5" stroke="rgb(0,0,0)"  stroke-width="1.0"/>
<line x1="168.3" y1="141.3" x2="166.3" y2="144.9" stroke="rgb(0,0,0)"  stroke-width="1.0"/>
<line x1="173.9" y1="143.6" x2="171.3" y2="148.3" stroke="rgb(0,0,0)"  stroke-width="1.0"/>
<line x1="179.5" y1="145.8" x2="176.3" y2="151.7" stroke="rgb(0,0,0)"  stroke-width="1.0"/>
<line x1="185.0" y1="148.1" x2="181.2" y2="155.2" stroke="rgb(0,0,0)"  stroke-width="1.0"/>
<line x1="237.9" y1="154.3" x2="217.4" y2="121.1" stroke="rgb(0,0,0)"  stroke-width="2.0"/>
<line x1="217.4" y1="121.1" x2="226.4" y2="113.7" stroke="rgb(0,0,0)"  stroke-width="2.0"/>
<line x1="248.6" y1="110.1" x2="247.3" y2="109.6" stroke="rgb(0,0,0)"  stroke-width="2.0"/>
<line x1="324.1" y1="141.6" x2="334.6" y2="138.1" stroke="rgb(0,0,0)"  stroke-width="2.0"/>
<line x1="330.1" y1="171.9" x2="341.3" y2="160.6" stroke="rgb(0,0,0)"  stroke-width="2.0"/>
<line x1="247.0" y1="227.5" x2="247.5" y2="188.1" stroke="rgb(0,0,0)"  stroke-width="2.0"/>
<line x1="212.9" y1="244.0" x2="245.4" y2="224.9" stroke="rgb(0,0,0)"  stroke-width="2.0"/>
<line x1="215.9" y1="249.2" x2="248.5" y2="230.1" stroke="rgb(0,0,0)"  stroke-width="2.0"/>
<line x1="181.9" y1="227.6" x2="137.9" y2="201.9" stroke="rgb(0,0,0)"  stroke-width="2.0"/>
<line x1="179.8" y1="231.2" x2="135.7" y2="205.5" stroke="rgb(0,0,0)"  stroke-width="2.0"/>
<line x1="184.0" y1="224.0" x2="140.0" y2="198.2" stroke="rgb(0,0,0)"  stroke-width="2.0"/>
<line x1="181.9" y1="227.6" x2="214.4" y2="246.6" stroke="rgb(0,0,0)"  stroke-width="2.0"/>
<line x1="186.1" y1="151.6" x2="186.2" y2="178.2" stroke="rgb(0,0,0)"  stroke-width="2.0"/>
<line x1="180.1" y1="151.6" x2="180.2" y2="178.2" stroke="rgb(0,0,0)"  stroke-width="2.0"/>
<line x1="237.9" y1="154.3" x2="298.8" y2="147.1" stroke="rgb(0,0,0)"  stroke-width="2.0"/>
<line x1="315.0" y1="158.1" x2="317.8" y2="168.7" stroke="rgb(0,0,0)"  stroke-width="2.0"/>
<line x1="308.7" y1="177.2" x2="237.9" y2="154.3" stroke="rgb(0,0,0)"  stroke-width="2.0"/>
<line x1="247.5" y1="188.1" x2="237.9" y2="154.3" stroke="rgb(0,0,0)"  stroke-width="2.0"/>
<line x1="308.1" y1="182.4" x2="247.5" y2="188.1" stroke="rgb(0,0,0)"  stroke-width="2.0"/>
<line x1="259.7" y1="166.9" x2="299.7" y2="150.5" stroke="rgb(0,0,0)"  stroke-width="2.0"/>
<line x1="247.5" y1="188.1" x2="259.7" y2="166.9" stroke="rgb(0,0,0)"  stroke-width="2.0"/>
<line x1="85.9" y1="134.1" x2="86.1" y2="96.9" stroke="rgb(0,0,0)"  stroke-width="2.0"/>
<line x1="93.2" y1="128.1" x2="93.2" y2="102.9" stroke="rgb(0,0,0)"  stroke-width="2.0"/>
<line x1="86.1" y1="96.9" x2="117.8" y2="78.1" stroke="rgb(0,0,0)"  stroke-width="2.0"/>
<line x1="117.8" y1="78.1" x2="149.9" y2="95.6" stroke="rgb(0,0,0)"  stroke-width="2.0"/>
<line x1="119.6" y1="87.3" x2="141.2" y2="99.0" stroke="rgb(0,0,0)"  stroke-width="2.0"/>
<line x1="149.9" y1="95.6" x2="150.2" y2="133.9" stroke="rgb(0,0,0)"  stroke-width="2.0"/>
<line x1="150.2" y1="133.9" x2="119.4" y2="152.5" stroke="rgb(0,0,0)"  stroke-width="2.0"/>
<line x1="119.4" y1="152.5" x2="85.9" y2="134.1" stroke="rgb(0,0,0)"  stroke-width="2.0"/>
<text x="57.031252" y="96.264508" fill="rgb(127,153,153)"  stroke="rgb(127,153,153)" stroke-width="1" font-size="16" >Si</text>
<text x="67.686731" y="73.235717" fill="rgb(102,102,102)"  stroke="rgb(102,102,102)" stroke-width="1" font-size="16" >CH</text>
<text x="91.686731" y="76.915717" fill="rgb(102,102,102)"  stroke="rgb(102,102,102)" stroke-width="1" font-size="13" >3</text>
<text x="14.000000" y="87.609029" fill="rgb(102,102,102)"  stroke="rgb(102,102,102)" stroke-width="1" font-size="16" >H</text>
<text x="26.000000" y="91.289029" fill="rgb(102,102,102)"  stroke="rgb(102,102,102)" stroke-width="1" font-size="13" >3</text>
<text x="32.500000" y="87.609029" fill="rgb(102,102,102)"  stroke="rgb(102,102,102)" stroke-width="1" font-size="16" >C</text>
<text x="28.373312" y="119.295760" fill="rgb(102,102,102)"  stroke="rgb(102,102,102)" stroke-width="1" font-size="16" >H</text>
<text x="40.373312" y="122.975760" fill="rgb(102,102,102)"  stroke="rgb(102,102,102)" stroke-width="1" font-size="13" >3</text>
<text x="46.873312" y="119.295760" fill="rgb(102,102,102)"  stroke="rgb(102,102,102)" stroke-width="1" font-size="16" >C</text>
<text x="158.399759" y="48.000000" fill="rgb(17,127,178)"  stroke="rgb(17,127,178)" stroke-width="1" font-size="16" >Xx</text>
<text x="230.411478" y="113.484435" fill="rgb(255,12,12)"  stroke="rgb(255,12,12)" stroke-width="1" font-size="16" >O</text>
<text x="255.432888" y="122.166978" fill="rgb(102,102,102)"  stroke="rgb(102,102,102)" stroke-width="1" font-size="16" >CH</text>
<text x="279.432888" y="125.846978" fill="rgb(102,102,102)"  stroke="rgb(102,102,102)" stroke-width="1" font-size="13" >3</text>
<text x="305.712673" y="153.573230" fill="rgb(17,127,178)"  stroke="rgb(17,127,178)" stroke-width="1" font-size="16" >Xx</text>
<text x="315.054587" y="189.243253" fill="rgb(17,127,178)"  stroke="rgb(17,127,178)" stroke-width="1" font-size="16" >Xx</text>
<text x="344.340026" y="159.276300" fill="rgb(17,127,178)"  stroke="rgb(17,127,178)" stroke-width="1" font-size="16" >Xx</text>
<text x="343.013645" y="142.132645" fill="rgb(102,102,102)"  stroke="rgb(102,102,102)" stroke-width="1" font-size="16" >CH</text>
<text x="367.013645" y="145.812645" fill="rgb(102,102,102)"  stroke="rgb(102,102,102)" stroke-width="1" font-size="13" >3</text>
<text x="179.189383" y="199.168268" fill="rgb(102,102,102)"  stroke="rgb(102,102,102)" stroke-width="1" font-size="16" >CH</text>
<text x="203.189383" y="202.848268" fill="rgb(102,102,102)"  stroke="rgb(102,102,102)" stroke-width="1" font-size="13" >2</text>
</svg>
</g>
<text font-size="18.000000" fill ="black" font-family="sans-serif"
x="10.000000" y="20.000000" ></text>
</svg>
