<?xml version="1.0"?>
<svg version="1.1" id="topsvg"
xmlns="http://www.w3.org/2000/svg" xmlns:xlink="http://www.w3.org/1999/xlink"
xmlns:cml="http://www.xml-cml.org/schema" x="0" y="0" width="200px" height="200px" viewBox="0 0 100 100">
<title> - Open Babel Depiction</title>
<rect x="0" y="0" width="100" height="100" fill="white"/>
<g transform="translate(0,0)">
<svg width="100" height="100" x="0" y="0" viewBox="0 0 256.379 350.593"
font-family="sans-serif" stroke="rgb(0,0,0)" stroke-width="2"  stroke-linecap="round">
<line x1="133.7" y1="285.7" x2="161.2" y2="270.1" stroke="rgb(0,0,0)"  stroke-width="2.0"/>
<line x1="161.2" y1="270.1" x2="153.3" y2="298.1" stroke="rgb(0,0,0)"  stroke-width="2.0"/>
<line x1="180.8" y1="208.4" x2="181.0" y2="166.4" stroke="rgb(0,0,0)"  stroke-width="2.0"/>
<line x1="49.8" y1="159.1" x2="74.8" y2="144.7" stroke="rgb(0,0,0)"  stroke-width="2.0"/>
<line x1="52.8" y1="164.3" x2="77.8" y2="149.9" stroke="rgb(0,0,0)"  stroke-width="2.0"/>
<line x1="76.3" y1="147.3" x2="111.0" y2="167.8" stroke="rgb(0,0,0)"  stroke-width="2.0"/>
<line x1="111.0" y1="167.8" x2="145.9" y2="146.9" stroke="rgb(0,0,0)"  stroke-width="2.0"/>
<line x1="145.1" y1="139.0" x2="146.7" y2="139.0" stroke="rgb(0,0,0)"  stroke-width="1.0"/>
<line x1="144.5" y1="132.6" x2="147.4" y2="132.6" stroke="rgb(0,0,0)"  stroke-width="1.0"/>
<line x1="143.9" y1="126.3" x2="148.0" y2="126.3" stroke="rgb(0,0,0)"  stroke-width="1.0"/>
<line x1="143.3" y1="119.9" x2="148.7" y2="119.9" stroke="rgb(0,0,0)"  stroke-width="1.0"/>
<line x1="142.6" y1="113.5" x2="149.4" y2="113.5" stroke="rgb(0,0,0)"  stroke-width="1.0"/>
<line x1="142.0" y1="107.2" x2="150.0" y2="107.2" stroke="rgb(0,0,0)"  stroke-width="1.0"/>
<line x1="145.9" y1="146.9" x2="145.6" y2="174.8" stroke="rgb(0,0,0)"  stroke-width="2.0"/>
<line x1="52.8" y1="90.1" x2="77.3" y2="104.9" stroke="rgb(0,0,0)"  stroke-width="2.0"/>
<line x1="49.7" y1="95.3" x2="74.2" y2="110.0" stroke="rgb(0,0,0)"  stroke-width="2.0"/>
<line x1="75.7" y1="107.4" x2="109.4" y2="86.4" stroke="rgb(0,0,0)"  stroke-width="2.0"/>
<line x1="106.4" y1="86.3" x2="107.0" y2="59.7" stroke="rgb(0,0,0)"  stroke-width="2.0"/>
<line x1="112.4" y1="86.5" x2="113.0" y2="59.8" stroke="rgb(0,0,0)"  stroke-width="2.0"/>
<line x1="146.0" y1="107.2" x2="109.4" y2="86.4" stroke="rgb(0,0,0)"  stroke-width="2.0"/>
<line x1="145.2" y1="100.8" x2="146.8" y2="100.8" stroke="rgb(0,0,0)"  stroke-width="1.0"/>
<line x1="144.5" y1="95.7" x2="147.4" y2="95.7" stroke="rgb(0,0,0)"  stroke-width="1.0"/>
<line x1="143.9" y1="90.7" x2="148.0" y2="90.6" stroke="rgb(0,0,0)"  stroke-width="1.0"/>
<line x1="143.2" y1="85.6" x2="148.6" y2="85.6" stroke="rgb(0,0,0)"  stroke-width="1.0"/>
<line x1="142.5" y1="80.5" x2="149.2" y2="80.5" stroke="rgb(0,0,0)"  stroke-width="1.0"/>
<line x1="141.9" y1="75.4" x2="149.9" y2="75.4" stroke="rgb(0,0,0)"  stroke-width="1.0"/>
<line x1="186.5" y1="52.3" x2="185.7" y2="51.0" stroke="rgb(0,0,0)"  stroke-width="2.0"/>
<line x1="187.3" y1="74.8" x2="180.6" y2="87.6" stroke="rgb(0,0,0)"  stroke-width="2.0"/>
<line x1="158.9" y1="224.0" x2="180.8" y2="208.4" stroke="rgb(0,0,0)"  stroke-width="2.0"/>
<line x1="164.7" y1="228.7" x2="180.1" y2="217.7" stroke="rgb(0,0,0)"  stroke-width="2.0"/>
<line x1="180.8" y1="208.4" x2="202.4" y2="224.1" stroke="rgb(0,0,0)"  stroke-width="2.0"/>
<line x1="209.3" y1="244.2" x2="201.6" y2="270.4" stroke="rgb(0,0,0)"  stroke-width="2.0"/>
<line x1="201.6" y1="270.4" x2="161.2" y2="270.1" stroke="rgb(0,0,0)"  stroke-width="2.0"/>
<line x1="161.2" y1="270.1" x2="152.3" y2="244.0" stroke="rgb(0,0,0)"  stroke-width="2.0"/>
<line x1="146.0" y1="107.2" x2="145.9" y2="146.9" stroke="rgb(0,0,0)"  stroke-width="2.0"/>
<line x1="145.9" y1="146.9" x2="181.0" y2="166.4" stroke="rgb(0,0,0)"  stroke-width="2.0"/>
<line x1="181.0" y1="166.4" x2="216.4" y2="147.8" stroke="rgb(0,0,0)"  stroke-width="2.0"/>
<line x1="182.9" y1="157.2" x2="207.7" y2="144.2" stroke="rgb(0,0,0)"  stroke-width="2.0"/>
<line x1="216.4" y1="147.8" x2="216.0" y2="106.6" stroke="rgb(0,0,0)"  stroke-width="2.0"/>
<line x1="216.0" y1="106.6" x2="180.6" y2="87.6" stroke="rgb(0,0,0)"  stroke-width="2.0"/>
<line x1="207.3" y1="110.1" x2="182.5" y2="96.8" stroke="rgb(0,0,0)"  stroke-width="2.0"/>
<line x1="180.6" y1="87.6" x2="146.0" y2="107.2" stroke="rgb(0,0,0)"  stroke-width="2.0"/>
<text x="96.396304" y="300.180962" fill="rgb(102,102,102)"  stroke="rgb(102,102,102)" stroke-width="1" font-size="16" >H</text>
<text x="108.396304" y="303.860962" fill="rgb(102,102,102)"  stroke="rgb(102,102,102)" stroke-width="1" font-size="13" >3</text>
<text x="114.896304" y="300.180962" fill="rgb(102,102,102)"  stroke="rgb(102,102,102)" stroke-width="1" font-size="16" >C</text>
<text x="142.142744" y="239.704593" fill="rgb(12,12,255)"  stroke="rgb(12,12,255)" stroke-width="1" font-size="16" >N</text>
<text x="206.943174" y="239.704593" fill="rgb(255,12,12)"  stroke="rgb(255,12,12)" stroke-width="1" font-size="16" >O</text>
<text x="123.734372" y="318.593268" fill="rgb(102,102,102)"  stroke="rgb(102,102,102)" stroke-width="1" font-size="16" >H</text>
<text x="135.734372" y="322.273268" fill="rgb(102,102,102)"  stroke="rgb(102,102,102)" stroke-width="1" font-size="13" >3</text>
<text x="142.234372" y="318.593268" fill="rgb(102,102,102)"  stroke="rgb(102,102,102)" stroke-width="1" font-size="16" >C</text>
<text x="14.000000" y="176.124686" fill="rgb(102,102,102)"  stroke="rgb(102,102,102)" stroke-width="1" font-size="16" >H</text>
<text x="26.000000" y="179.804686" fill="rgb(102,102,102)"  stroke="rgb(102,102,102)" stroke-width="1" font-size="13" >2</text>
<text x="32.500000" y="176.124686" fill="rgb(102,102,102)"  stroke="rgb(102,102,102)" stroke-width="1" font-size="16" >C</text>
<text x="14.112706" y="93.973036" fill="rgb(102,102,102)"  stroke="rgb(102,102,102)" stroke-width="1" font-size="16" >H</text>
<text x="26.112706" y="97.653036" fill="rgb(102,102,102)"  stroke="rgb(102,102,102)" stroke-width="1" font-size="13" >2</text>
<text x="32.612706" y="93.973036" fill="rgb(102,102,102)"  stroke="rgb(102,102,102)" stroke-width="1" font-size="16" >C</text>
<text x="104.345013" y="54.754111" fill="rgb(255,12,12)"  stroke="rgb(255,12,12)" stroke-width="1" font-size="16" >O</text>
<text x="187.428549" y="71.288900" fill="rgb(255,12,12)"  stroke="rgb(255,12,12)" stroke-width="1" font-size="16" >O</text>
<text x="152.820757" y="48.000000" fill="rgb(102,102,102)"  stroke="rgb(102,102,102)" stroke-width="1" font-size="16" >H</text>
<text x="164.820757" y="51.680000" fill="rgb(102,102,102)"  stroke="rgb(102,102,102)" stroke-width="1" font-size="13" >3</text>
<text x="171.320757" y="48.000000" fill="rgb(102,102,102)"  stroke="rgb(102,102,102)" stroke-width="1" font-size="16" >C</text>
<text x="139.443299" y="195.828987" fill="rgb(191,191,191)"  stroke="rgb(191,191,191)" stroke-width="1" font-size="16" >H</text>
<text x="119.781417" y="67.748284" fill="rgb(102,102,102)"  stroke="rgb(102,102,102)" stroke-width="1" font-size="16" >H</text>
<text x="131.781417" y="71.428284" fill="rgb(102,102,102)"  stroke="rgb(102,102,102)" stroke-width="1" font-size="13" >3</text>
<text x="138.281417" y="67.748284" fill="rgb(102,102,102)"  stroke="rgb(102,102,102)" stroke-width="1" font-size="16" >C</text>
</svg>
</g>
<text font-size="18.000000" fill ="black" font-family="sans-serif"
x="10.000000" y="20.000000" ></text>
</svg>
