<?xml version="1.0"?>
<svg version="1.1" id="topsvg"
xmlns="http://www.w3.org/2000/svg" xmlns:xlink="http://www.w3.org/1999/xlink"
xmlns:cml="http://www.xml-cml.org/schema" x="0" y="0" width="200px" height="200px" viewBox="0 0 100 100">
<title> - Open Babel Depiction</title>
<rect x="0" y="0" width="100" height="100" fill="white"/>
<g transform="translate(0,0)">
<svg width="100" height="100" x="0" y="0" viewBox="0 0 246.708 338.467"
font-family="sans-serif" stroke="rgb(0,0,0)" stroke-width="2"  stroke-linecap="round">
<line x1="67.4" y1="291.6" x2="93.4" y2="275.3" stroke="rgb(0,0,0)"  stroke-width="2.0"/>
<line x1="90.4" y1="275.2" x2="91.6" y2="233.8" stroke="rgb(0,0,0)"  stroke-width="2.0"/>
<line x1="96.4" y1="275.4" x2="97.6" y2="233.9" stroke="rgb(0,0,0)"  stroke-width="2.0"/>
<line x1="94.6" y1="233.9" x2="131.2" y2="212.0" stroke="rgb(0,0,0)"  stroke-width="2.0"/>
<polygon points="131.137048 168.271651 135.249372 211.954726 127.249398 211.975294 " stroke-width="2.000000" fill="rgb(0,0,0)"  stroke="rgb(0,0,0)" />
<line x1="94.2" y1="104.6" x2="79.3" y2="99.2" stroke="rgb(0,0,0)"  stroke-width="2.0"/>
<line x1="71.5" y1="82.6" x2="72.5" y2="79.9" stroke="rgb(0,0,0)"  stroke-width="2.0"/>
<line x1="54.9" y1="90.3" x2="52.2" y2="89.4" stroke="rgb(0,0,0)"  stroke-width="2.0"/>
<line x1="62.7" y1="107.0" x2="61.7" y2="109.6" stroke="rgb(0,0,0)"  stroke-width="2.0"/>
<line x1="134.0" y1="52.9" x2="135.1" y2="84.8" stroke="rgb(0,0,0)"  stroke-width="2.0"/>
<line x1="128.0" y1="53.1" x2="129.1" y2="85.0" stroke="rgb(0,0,0)"  stroke-width="2.0"/>
<line x1="177.2" y1="150.9" x2="176.4" y2="152.3" stroke="rgb(0,0,0)"  stroke-width="1.0"/>
<line x1="183.5" y1="153.7" x2="182.1" y2="156.3" stroke="rgb(0,0,0)"  stroke-width="1.0"/>
<line x1="189.8" y1="156.6" x2="187.7" y2="160.2" stroke="rgb(0,0,0)"  stroke-width="1.0"/>
<line x1="196.1" y1="159.4" x2="193.4" y2="164.2" stroke="rgb(0,0,0)"  stroke-width="1.0"/>
<line x1="202.4" y1="162.3" x2="199.1" y2="168.1" stroke="rgb(0,0,0)"  stroke-width="1.0"/>
<line x1="208.7" y1="165.1" x2="204.7" y2="172.1" stroke="rgb(0,0,0)"  stroke-width="1.0"/>
<line x1="205.7" y1="243.5" x2="206.1" y2="210.2" stroke="rgb(0,0,0)"  stroke-width="2.0"/>
<line x1="201.5" y1="243.4" x2="201.9" y2="210.1" stroke="rgb(0,0,0)"  stroke-width="2.0"/>
<line x1="209.9" y1="243.5" x2="210.3" y2="210.2" stroke="rgb(0,0,0)"  stroke-width="2.0"/>
<line x1="206.7" y1="168.6" x2="206.1" y2="210.2" stroke="rgb(0,0,0)"  stroke-width="2.0"/>
<line x1="93.9" y1="149.0" x2="131.1" y2="168.3" stroke="rgb(0,0,0)"  stroke-width="2.0"/>
<line x1="131.1" y1="168.3" x2="169.3" y2="147.4" stroke="rgb(0,0,0)"  stroke-width="2.0"/>
<line x1="169.3" y1="147.4" x2="169.3" y2="104.7" stroke="rgb(0,0,0)"  stroke-width="2.0"/>
<line x1="169.3" y1="104.7" x2="132.1" y2="84.9" stroke="rgb(0,0,0)"  stroke-width="2.0"/>
<line x1="132.1" y1="84.9" x2="94.2" y2="104.6" stroke="rgb(0,0,0)"  stroke-width="2.0"/>
<line x1="94.2" y1="104.6" x2="93.9" y2="149.0" stroke="rgb(0,0,0)"  stroke-width="2.0"/>
<line x1="101.3" y1="110.6" x2="101.1" y2="143.0" stroke="rgb(0,0,0)"  stroke-width="2.0"/>
<text x="30.375288" y="306.467434" fill="rgb(102,102,102)"  stroke="rgb(102,102,102)" stroke-width="1" font-size="16" >H</text>
<text x="42.375288" y="310.147434" fill="rgb(102,102,102)"  stroke="rgb(102,102,102)" stroke-width="1" font-size="13" >3</text>
<text x="48.875288" y="306.467434" fill="rgb(102,102,102)"  stroke="rgb(102,102,102)" stroke-width="1" font-size="16" >C</text>
<text x="61.081875" y="102.777283" fill="rgb(127,153,153)"  stroke="rgb(127,153,153)" stroke-width="1" font-size="16" >Si</text>
<text x="72.892646" y="75.695408" fill="rgb(102,102,102)"  stroke="rgb(102,102,102)" stroke-width="1" font-size="16" >CH</text>
<text x="96.892646" y="79.375408" fill="rgb(102,102,102)"  stroke="rgb(102,102,102)" stroke-width="1" font-size="13" >3</text>
<text x="14.000000" y="92.966513" fill="rgb(102,102,102)"  stroke="rgb(102,102,102)" stroke-width="1" font-size="16" >H</text>
<text x="26.000000" y="96.646513" fill="rgb(102,102,102)"  stroke="rgb(102,102,102)" stroke-width="1" font-size="13" >3</text>
<text x="32.500000" y="92.966513" fill="rgb(102,102,102)"  stroke="rgb(102,102,102)" stroke-width="1" font-size="16" >C</text>
<text x="31.271104" y="129.859158" fill="rgb(102,102,102)"  stroke="rgb(102,102,102)" stroke-width="1" font-size="16" >H</text>
<text x="43.271104" y="133.539158" fill="rgb(102,102,102)"  stroke="rgb(102,102,102)" stroke-width="1" font-size="13" >3</text>
<text x="49.771104" y="129.859158" fill="rgb(102,102,102)"  stroke="rgb(102,102,102)" stroke-width="1" font-size="16" >C</text>
<text x="124.589765" y="48.000000" fill="rgb(255,12,12)"  stroke="rgb(255,12,12)" stroke-width="1" font-size="16" >O</text>
<text x="187.587721" y="264.487935" fill="rgb(102,102,102)"  stroke="rgb(102,102,102)" stroke-width="1" font-size="16" >HC</text>
</svg>
</g>
<text font-size="18.000000" fill ="black" font-family="sans-serif"
x="10.000000" y="20.000000" ></text>
</svg>
