<?xml version="1.0"?>
<svg version="1.1" id="topsvg"
xmlns="http://www.w3.org/2000/svg" xmlns:xlink="http://www.w3.org/1999/xlink"
xmlns:cml="http://www.xml-cml.org/schema" x="0" y="0" width="200px" height="200px" viewBox="0 0 100 100">
<title> - Open Babel Depiction</title>
<rect x="0" y="0" width="100" height="100" fill="white"/>
<g transform="translate(0,0)">
<svg width="100" height="100" x="0" y="0" viewBox="0 0 256.262 367.044"
font-family="sans-serif" stroke="rgb(0,0,0)" stroke-width="2"  stroke-linecap="round">
<line x1="134.2" y1="300.8" x2="158.6" y2="286.6" stroke="rgb(0,0,0)"  stroke-width="2.0"/>
<line x1="158.6" y1="286.6" x2="151.2" y2="314.5" stroke="rgb(0,0,0)"  stroke-width="2.0"/>
<line x1="118.5" y1="247.6" x2="133.7" y2="247.7" stroke="rgb(0,0,0)"  stroke-width="2.0"/>
<line x1="145.8" y1="162.6" x2="110.5" y2="179.1" stroke="rgb(0,0,0)"  stroke-width="2.0"/>
<line x1="138.8" y1="119.0" x2="139.5" y2="117.6" stroke="rgb(0,0,0)"  stroke-width="1.0"/>
<line x1="133.0" y1="116.6" x2="134.4" y2="114.1" stroke="rgb(0,0,0)"  stroke-width="1.0"/>
<line x1="127.2" y1="114.2" x2="129.2" y2="110.6" stroke="rgb(0,0,0)"  stroke-width="1.0"/>
<line x1="121.5" y1="111.8" x2="124.0" y2="107.0" stroke="rgb(0,0,0)"  stroke-width="1.0"/>
<line x1="115.7" y1="109.4" x2="118.9" y2="103.5" stroke="rgb(0,0,0)"  stroke-width="1.0"/>
<line x1="109.9" y1="107.1" x2="113.7" y2="100.0" stroke="rgb(0,0,0)"  stroke-width="1.0"/>
<line x1="179.4" y1="101.7" x2="179.6" y2="74.0" stroke="rgb(0,0,0)"  stroke-width="2.0"/>
<line x1="191.1" y1="54.6" x2="191.1" y2="54.6" stroke="rgb(0,0,0)"  stroke-width="2.0"/>
<line x1="187.3" y1="177.3" x2="188.0" y2="178.7" stroke="rgb(0,0,0)"  stroke-width="1.0"/>
<line x1="192.7" y1="173.8" x2="194.0" y2="176.3" stroke="rgb(0,0,0)"  stroke-width="1.0"/>
<line x1="198.1" y1="170.3" x2="200.0" y2="174.0" stroke="rgb(0,0,0)"  stroke-width="1.0"/>
<line x1="203.6" y1="166.8" x2="206.0" y2="171.6" stroke="rgb(0,0,0)"  stroke-width="1.0"/>
<line x1="209.0" y1="163.3" x2="212.1" y2="169.3" stroke="rgb(0,0,0)"  stroke-width="1.0"/>
<line x1="214.4" y1="159.8" x2="218.1" y2="166.9" stroke="rgb(0,0,0)"  stroke-width="1.0"/>
<line x1="180.5" y1="181.6" x2="182.2" y2="221.8" stroke="rgb(0,0,0)"  stroke-width="2.0"/>
<line x1="49.7" y1="51.7" x2="74.4" y2="37.4" stroke="rgb(0,0,0)"  stroke-width="2.0"/>
<line x1="52.8" y1="56.8" x2="77.4" y2="42.6" stroke="rgb(0,0,0)"  stroke-width="2.0"/>
<line x1="75.9" y1="40.0" x2="110.2" y2="60.5" stroke="rgb(0,0,0)"  stroke-width="2.0"/>
<line x1="88.4" y1="165.6" x2="111.7" y2="176.3" stroke="rgb(0,0,0)"  stroke-width="2.0"/>
<line x1="85.9" y1="171.0" x2="109.2" y2="181.8" stroke="rgb(0,0,0)"  stroke-width="2.0"/>
<line x1="111.8" y1="103.5" x2="110.2" y2="60.5" stroke="rgb(0,0,0)"  stroke-width="2.0"/>
<line x1="157.2" y1="240.2" x2="182.2" y2="221.8" stroke="rgb(0,0,0)"  stroke-width="2.0"/>
<line x1="182.2" y1="221.8" x2="202.5" y2="239.9" stroke="rgb(0,0,0)"  stroke-width="2.0"/>
<line x1="208.0" y1="260.9" x2="199.2" y2="286.8" stroke="rgb(0,0,0)"  stroke-width="2.0"/>
<line x1="199.2" y1="286.8" x2="158.6" y2="286.6" stroke="rgb(0,0,0)"  stroke-width="2.0"/>
<line x1="158.6" y1="286.6" x2="150.5" y2="260.3" stroke="rgb(0,0,0)"  stroke-width="2.0"/>
<line x1="145.8" y1="162.6" x2="180.5" y2="181.6" stroke="rgb(0,0,0)"  stroke-width="2.0"/>
<line x1="180.5" y1="181.6" x2="216.3" y2="163.3" stroke="rgb(0,0,0)"  stroke-width="2.0"/>
<line x1="216.3" y1="163.3" x2="215.5" y2="122.0" stroke="rgb(0,0,0)"  stroke-width="2.0"/>
<line x1="215.5" y1="122.0" x2="179.4" y2="101.7" stroke="rgb(0,0,0)"  stroke-width="2.0"/>
<line x1="179.4" y1="101.7" x2="146.0" y2="122.0" stroke="rgb(0,0,0)"  stroke-width="2.0"/>
<line x1="146.0" y1="122.0" x2="145.8" y2="162.6" stroke="rgb(0,0,0)"  stroke-width="2.0"/>
<text x="96.995828" y="315.290449" fill="rgb(102,102,102)"  stroke="rgb(102,102,102)" stroke-width="1" font-size="16" >H</text>
<text x="108.995828" y="318.970449" fill="rgb(102,102,102)"  stroke="rgb(102,102,102)" stroke-width="1" font-size="13" >3</text>
<text x="115.495828" y="315.290449" fill="rgb(102,102,102)"  stroke="rgb(102,102,102)" stroke-width="1" font-size="16" >C</text>
<text x="140.726570" y="255.869594" fill="rgb(12,12,255)"  stroke="rgb(12,12,255)" stroke-width="1" font-size="16" >N</text>
<text x="206.160681" y="256.543702" fill="rgb(255,12,12)"  stroke="rgb(255,12,12)" stroke-width="1" font-size="16" >O</text>
<text x="121.921701" y="335.043687" fill="rgb(102,102,102)"  stroke="rgb(102,102,102)" stroke-width="1" font-size="16" >H</text>
<text x="133.921701" y="338.723687" fill="rgb(102,102,102)"  stroke="rgb(102,102,102)" stroke-width="1" font-size="13" >3</text>
<text x="140.421701" y="335.043687" fill="rgb(102,102,102)"  stroke="rgb(102,102,102)" stroke-width="1" font-size="16" >C</text>
<text x="79.525425" y="255.442569" fill="rgb(102,102,102)"  stroke="rgb(102,102,102)" stroke-width="1" font-size="16" >H</text>
<text x="91.525425" y="259.122569" fill="rgb(102,102,102)"  stroke="rgb(102,102,102)" stroke-width="1" font-size="13" >3</text>
<text x="98.025425" y="255.442569" fill="rgb(102,102,102)"  stroke="rgb(102,102,102)" stroke-width="1" font-size="16" >C</text>
<text x="173.782022" y="69.012826" fill="rgb(255,12,12)"  stroke="rgb(255,12,12)" stroke-width="1" font-size="16" >O</text>
<text x="14.000000" y="68.765742" fill="rgb(102,102,102)"  stroke="rgb(102,102,102)" stroke-width="1" font-size="16" >H</text>
<text x="26.000000" y="72.445742" fill="rgb(102,102,102)"  stroke="rgb(102,102,102)" stroke-width="1" font-size="13" >2</text>
<text x="32.500000" y="68.765742" fill="rgb(102,102,102)"  stroke="rgb(102,102,102)" stroke-width="1" font-size="16" >C</text>
<text x="49.370516" y="170.854129" fill="rgb(102,102,102)"  stroke="rgb(102,102,102)" stroke-width="1" font-size="16" >H</text>
<text x="61.370516" y="174.534129" fill="rgb(102,102,102)"  stroke="rgb(102,102,102)" stroke-width="1" font-size="13" >2</text>
<text x="67.870516" y="170.854129" fill="rgb(102,102,102)"  stroke="rgb(102,102,102)" stroke-width="1" font-size="16" >C</text>
<text x="196.473403" y="56.218206" fill="rgb(191,191,191)"  stroke="rgb(191,191,191)" stroke-width="1" font-size="16" >H</text>
</svg>
</g>
<text font-size="18.000000" fill ="black" font-family="sans-serif"
x="10.000000" y="20.000000" ></text>
</svg>
