<?xml version="1.0"?>
<svg version="1.1" id="topsvg"
xmlns="http://www.w3.org/2000/svg" xmlns:xlink="http://www.w3.org/1999/xlink"
xmlns:cml="http://www.xml-cml.org/schema" x="0" y="0" width="200px" height="200px" viewBox="0 0 100 100">
<title> - Open Babel Depiction</title>
<rect x="0" y="0" width="100" height="100" fill="white"/>
<g transform="translate(0,0)">
<svg width="100" height="100" x="0" y="0" viewBox="0 0 259.639 364.967"
font-family="sans-serif" stroke="rgb(0,0,0)" stroke-width="2"  stroke-linecap="round">
<line x1="93.7" y1="286.3" x2="94.0" y2="242.0" stroke="rgb(0,0,0)"  stroke-width="2.0"/>
<line x1="99.7" y1="286.3" x2="100.0" y2="242.0" stroke="rgb(0,0,0)"  stroke-width="2.0"/>
<line x1="97.0" y1="242.0" x2="135.2" y2="218.8" stroke="rgb(0,0,0)"  stroke-width="2.0"/>
<polygon points="136.066471 173.478586 139.178864 218.848711 131.180397 218.692096 " stroke-width="2.000000" fill="rgb(0,0,0)"  stroke="rgb(0,0,0)" />
<line x1="96.4" y1="107.1" x2="80.4" y2="101.4" stroke="rgb(0,0,0)"  stroke-width="2.0"/>
<line x1="72.6" y1="84.7" x2="73.9" y2="81.0" stroke="rgb(0,0,0)"  stroke-width="2.0"/>
<line x1="56.0" y1="92.6" x2="52.2" y2="91.2" stroke="rgb(0,0,0)"  stroke-width="2.0"/>
<line x1="63.8" y1="109.2" x2="62.5" y2="112.9" stroke="rgb(0,0,0)"  stroke-width="2.0"/>
<line x1="131.2" y1="85.5" x2="131.2" y2="53.0" stroke="rgb(0,0,0)"  stroke-width="2.0"/>
<line x1="137.2" y1="85.6" x2="137.2" y2="53.0" stroke="rgb(0,0,0)"  stroke-width="2.0"/>
<line x1="182.9" y1="155.9" x2="182.1" y2="157.3" stroke="rgb(0,0,0)"  stroke-width="1.0"/>
<line x1="189.4" y1="158.9" x2="188.0" y2="161.4" stroke="rgb(0,0,0)"  stroke-width="1.0"/>
<line x1="195.9" y1="161.9" x2="193.8" y2="165.5" stroke="rgb(0,0,0)"  stroke-width="1.0"/>
<line x1="202.4" y1="164.9" x2="199.7" y2="169.6" stroke="rgb(0,0,0)"  stroke-width="1.0"/>
<line x1="209.0" y1="167.9" x2="205.6" y2="173.7" stroke="rgb(0,0,0)"  stroke-width="1.0"/>
<line x1="215.5" y1="170.9" x2="211.5" y2="177.8" stroke="rgb(0,0,0)"  stroke-width="1.0"/>
<line x1="68.6" y1="302.5" x2="96.7" y2="286.3" stroke="rgb(0,0,0)"  stroke-width="2.0"/>
<line x1="212.9" y1="218.0" x2="212.1" y2="275.8" stroke="rgb(0,0,0)"  stroke-width="2.0"/>
<line x1="217.1" y1="218.0" x2="216.3" y2="275.8" stroke="rgb(0,0,0)"  stroke-width="2.0"/>
<line x1="208.7" y1="217.9" x2="207.9" y2="275.7" stroke="rgb(0,0,0)"  stroke-width="2.0"/>
<line x1="184.4" y1="292.9" x2="181.1" y2="290.7" stroke="rgb(0,0,0)"  stroke-width="2.0"/>
<line x1="187.6" y1="311.0" x2="185.4" y2="314.3" stroke="rgb(0,0,0)"  stroke-width="2.0"/>
<line x1="205.7" y1="307.8" x2="209.0" y2="310.0" stroke="rgb(0,0,0)"  stroke-width="2.0"/>
<line x1="202.5" y1="289.7" x2="212.1" y2="275.8" stroke="rgb(0,0,0)"  stroke-width="2.0"/>
<line x1="213.5" y1="174.4" x2="212.9" y2="218.0" stroke="rgb(0,0,0)"  stroke-width="2.0"/>
<line x1="96.1" y1="152.8" x2="96.4" y2="107.1" stroke="rgb(0,0,0)"  stroke-width="2.0"/>
<line x1="103.4" y1="146.8" x2="103.6" y2="113.1" stroke="rgb(0,0,0)"  stroke-width="2.0"/>
<line x1="96.4" y1="107.1" x2="134.2" y2="85.5" stroke="rgb(0,0,0)"  stroke-width="2.0"/>
<line x1="134.2" y1="85.5" x2="174.4" y2="107.2" stroke="rgb(0,0,0)"  stroke-width="2.0"/>
<line x1="174.4" y1="107.2" x2="174.7" y2="152.2" stroke="rgb(0,0,0)"  stroke-width="2.0"/>
<line x1="174.7" y1="152.2" x2="136.1" y2="173.5" stroke="rgb(0,0,0)"  stroke-width="2.0"/>
<line x1="136.1" y1="173.5" x2="96.1" y2="152.8" stroke="rgb(0,0,0)"  stroke-width="2.0"/>
<text x="62.193160" y="104.955577" fill="rgb(127,153,153)"  stroke="rgb(127,153,153)" stroke-width="1" font-size="16" >Si</text>
<text x="74.325920" y="76.762417" fill="rgb(102,102,102)"  stroke="rgb(102,102,102)" stroke-width="1" font-size="16" >CH</text>
<text x="98.325920" y="80.442417" fill="rgb(102,102,102)"  stroke="rgb(102,102,102)" stroke-width="1" font-size="13" >3</text>
<text x="14.000000" y="94.822817" fill="rgb(102,102,102)"  stroke="rgb(102,102,102)" stroke-width="1" font-size="16" >H</text>
<text x="26.000000" y="98.502817" fill="rgb(102,102,102)"  stroke="rgb(102,102,102)" stroke-width="1" font-size="13" >3</text>
<text x="32.500000" y="94.822817" fill="rgb(102,102,102)"  stroke="rgb(102,102,102)" stroke-width="1" font-size="16" >C</text>
<text x="32.060401" y="133.151734" fill="rgb(102,102,102)"  stroke="rgb(102,102,102)" stroke-width="1" font-size="16" >H</text>
<text x="44.060401" y="136.831734" fill="rgb(102,102,102)"  stroke="rgb(102,102,102)" stroke-width="1" font-size="13" >3</text>
<text x="50.560401" y="133.151734" fill="rgb(102,102,102)"  stroke="rgb(102,102,102)" stroke-width="1" font-size="16" >C</text>
<text x="128.235864" y="48.000000" fill="rgb(255,12,12)"  stroke="rgb(255,12,12)" stroke-width="1" font-size="16" >O</text>
<text x="31.371301" y="316.940580" fill="rgb(102,102,102)"  stroke="rgb(102,102,102)" stroke-width="1" font-size="16" >H</text>
<text x="43.371301" y="320.620580" fill="rgb(102,102,102)"  stroke="rgb(102,102,102)" stroke-width="1" font-size="13" >3</text>
<text x="49.871301" y="316.940580" fill="rgb(102,102,102)"  stroke="rgb(102,102,102)" stroke-width="1" font-size="16" >C</text>
<text x="189.038414" y="308.365784" fill="rgb(127,153,153)"  stroke="rgb(127,153,153)" stroke-width="1" font-size="16" >Si</text>
<text x="144.437559" y="291.264131" fill="rgb(102,102,102)"  stroke="rgb(102,102,102)" stroke-width="1" font-size="16" >H</text>
<text x="156.437559" y="294.944131" fill="rgb(102,102,102)"  stroke="rgb(102,102,102)" stroke-width="1" font-size="13" >3</text>
<text x="162.937559" y="291.264131" fill="rgb(102,102,102)"  stroke="rgb(102,102,102)" stroke-width="1" font-size="16" >C</text>
<text x="151.936760" y="332.966639" fill="rgb(102,102,102)"  stroke="rgb(102,102,102)" stroke-width="1" font-size="16" >H</text>
<text x="163.936760" y="336.646639" fill="rgb(102,102,102)"  stroke="rgb(102,102,102)" stroke-width="1" font-size="13" >3</text>
<text x="170.436760" y="332.966639" fill="rgb(102,102,102)"  stroke="rgb(102,102,102)" stroke-width="1" font-size="16" >C</text>
<text x="215.639268" y="325.467438" fill="rgb(102,102,102)"  stroke="rgb(102,102,102)" stroke-width="1" font-size="16" >CH</text>
<text x="239.639268" y="329.147438" fill="rgb(102,102,102)"  stroke="rgb(102,102,102)" stroke-width="1" font-size="13" >3</text>
</svg>
</g>
<text font-size="18.000000" fill ="black" font-family="sans-serif"
x="10.000000" y="20.000000" ></text>
</svg>
