<?xml version="1.0"?>
<svg version="1.1" id="topsvg"
xmlns="http://www.w3.org/2000/svg" xmlns:xlink="http://www.w3.org/1999/xlink"
xmlns:cml="http://www.xml-cml.org/schema" x="0" y="0" width="200px" height="200px" viewBox="0 0 100 100">
<title> - Open Babel Depiction</title>
<rect x="0" y="0" width="100" height="100" fill="white"/>
<g transform="translate(0,0)">
<svg width="100" height="100" x="0" y="0" viewBox="0 0 236.38 290.598"
font-family="sans-serif" stroke="rgb(0,0,0)" stroke-width="2"  stroke-linecap="round">
<line x1="77.0" y1="219.5" x2="53.0" y2="219.6" stroke="rgb(0,0,0)"  stroke-width="2.0"/>
<line x1="77.0" y1="219.5" x2="86.0" y2="201.5" stroke="rgb(0,0,0)"  stroke-width="2.0"/>
<line x1="87.5" y1="239.1" x2="77.0" y2="219.5" stroke="rgb(0,0,0)"  stroke-width="2.0"/>
<polygon points="86.383894 136.116431 72.730438 145.379016 69.978204 137.867345 " stroke-width="2.000000" fill="rgb(0,0,0)"  stroke="rgb(0,0,0)" />
<line x1="93.4" y1="94.2" x2="98.3" y2="118.0" stroke="rgb(0,0,0)"  stroke-width="2.0"/>
<line x1="180.8" y1="220.0" x2="144.6" y2="219.8" stroke="rgb(0,0,0)"  stroke-width="2.0"/>
<line x1="174.8" y1="212.7" x2="150.7" y2="212.6" stroke="rgb(0,0,0)"  stroke-width="2.0"/>
<line x1="144.6" y1="219.8" x2="128.6" y2="189.0" stroke="rgb(0,0,0)"  stroke-width="2.0"/>
<line x1="128.6" y1="189.0" x2="146.2" y2="159.1" stroke="rgb(0,0,0)"  stroke-width="2.0"/>
<line x1="137.8" y1="187.5" x2="149.4" y2="167.9" stroke="rgb(0,0,0)"  stroke-width="2.0"/>
<line x1="146.2" y1="159.1" x2="180.7" y2="159.0" stroke="rgb(0,0,0)"  stroke-width="2.0"/>
<line x1="180.7" y1="159.0" x2="196.4" y2="189.3" stroke="rgb(0,0,0)"  stroke-width="2.0"/>
<line x1="177.0" y1="167.6" x2="187.2" y2="187.3" stroke="rgb(0,0,0)"  stroke-width="2.0"/>
<line x1="196.4" y1="189.3" x2="180.8" y2="220.0" stroke="rgb(0,0,0)"  stroke-width="2.0"/>
<line x1="128.6" y1="189.0" x2="104.8" y2="189.5" stroke="rgb(0,0,0)"  stroke-width="2.0"/>
<line x1="93.8" y1="177.0" x2="99.0" y2="143.6" stroke="rgb(0,0,0)"  stroke-width="2.0"/>
<line x1="110.3" y1="130.2" x2="129.1" y2="129.0" stroke="rgb(0,0,0)"  stroke-width="2.0"/>
<line x1="113.9" y1="137.2" x2="123.6" y2="136.6" stroke="rgb(0,0,0)"  stroke-width="2.0"/>
<line x1="129.1" y1="129.0" x2="146.2" y2="159.1" stroke="rgb(0,0,0)"  stroke-width="2.0"/>
<line x1="50.5" y1="64.6" x2="74.3" y2="40.0" stroke="rgb(0,0,0)"  stroke-width="2.0"/>
<line x1="74.3" y1="40.0" x2="110.9" y2="40.1" stroke="rgb(0,0,0)"  stroke-width="2.0"/>
<line x1="110.9" y1="40.1" x2="135.3" y2="65.1" stroke="rgb(0,0,0)"  stroke-width="2.0"/>
<line x1="132.3" y1="79.1" x2="93.4" y2="94.2" stroke="rgb(0,0,0)"  stroke-width="2.0"/>
<line x1="93.4" y1="94.2" x2="53.6" y2="78.7" stroke="rgb(0,0,0)"  stroke-width="2.0"/>
<text x="14.000000" y="227.654751" fill="rgb(102,102,102)"  stroke="rgb(102,102,102)" stroke-width="1" font-size="16" >H</text>
<text x="26.000000" y="231.334751" fill="rgb(102,102,102)"  stroke="rgb(102,102,102)" stroke-width="1" font-size="13" >3</text>
<text x="32.500000" y="227.654751" fill="rgb(102,102,102)"  stroke="rgb(102,102,102)" stroke-width="1" font-size="16" >C</text>
<text x="85.825477" y="197.836125" fill="rgb(255,12,12)"  stroke="rgb(255,12,12)" stroke-width="1" font-size="16" >O</text>
<text x="89.633502" y="258.598218" fill="rgb(102,102,102)"  stroke="rgb(102,102,102)" stroke-width="1" font-size="16" >CH</text>
<text x="113.633502" y="262.278218" fill="rgb(102,102,102)"  stroke="rgb(102,102,102)" stroke-width="1" font-size="13" >3</text>
<text x="94.971419" y="138.771644" fill="rgb(35,142,142)"  stroke="rgb(35,142,142)" stroke-width="1" font-size="16" >Ru</text>
<text x="38.766795" y="154.967968" fill="rgb(30,239,30)"  stroke="rgb(30,239,30)" stroke-width="1" font-size="16" >Cl</text>
<text x="23.525091" y="81.993648" fill="rgb(17,127,178)"  stroke="rgb(17,127,178)" stroke-width="1" font-size="16" >Xx</text>
<text x="138.412348" y="82.375496" fill="rgb(17,127,178)"  stroke="rgb(17,127,178)" stroke-width="1" font-size="16" >Xx</text>
</svg>
</g>
<text font-size="18.000000" fill ="black" font-family="sans-serif"
x="10.000000" y="20.000000" ></text>
</svg>
