<?xml version="1.0"?>
<svg version="1.1" id="topsvg"
xmlns="http://www.w3.org/2000/svg" xmlns:xlink="http://www.w3.org/1999/xlink"
xmlns:cml="http://www.xml-cml.org/schema" x="0" y="0" width="200px" height="200px" viewBox="0 0 100 100">
<title> - Open Babel Depiction</title>
<rect x="0" y="0" width="100" height="100" fill="white"/>
<g transform="translate(0,0)">
<svg width="100" height="100" x="0" y="0" viewBox="0 0 219.086 187.621"
font-family="sans-serif" stroke="rgb(0,0,0)" stroke-width="2"  stroke-linecap="round">
<line x1="73.1" y1="127.4" x2="62.6" y2="138.3" stroke="rgb(0,0,0)"  stroke-width="2.0"/>
<line x1="103.8" y1="115.1" x2="79.6" y2="118.0" stroke="rgb(0,0,0)"  stroke-width="2.0"/>
<line x1="103.8" y1="115.1" x2="118.0" y2="86.6" stroke="rgb(0,0,0)"  stroke-width="2.0"/>
<line x1="79.2" y1="123.1" x2="126.8" y2="136.5" stroke="rgb(0,0,0)"  stroke-width="2.0"/>
<line x1="144.5" y1="63.1" x2="166.1" y2="63.2" stroke="rgb(0,0,0)"  stroke-width="2.0"/>
<polygon points="144.509693 63.059755 120.605728 89.609711 115.297093 83.624864 " stroke-width="2.000000" fill="rgb(0,0,0)"  stroke="rgb(0,0,0)" />
<line x1="92.4" y1="91.6" x2="86.9" y2="105.9" stroke="rgb(0,0,0)"  stroke-width="2.0"/>
<line x1="92.4" y1="91.6" x2="118.0" y2="86.6" stroke="rgb(0,0,0)"  stroke-width="2.0"/>
<line x1="40.0" y1="63.4" x2="64.3" y2="40.0" stroke="rgb(0,0,0)"  stroke-width="2.0"/>
<line x1="64.3" y1="40.0" x2="118.7" y2="40.0" stroke="rgb(0,0,0)"  stroke-width="2.0"/>
<line x1="118.7" y1="40.0" x2="144.5" y2="63.1" stroke="rgb(0,0,0)"  stroke-width="2.0"/>
<line x1="144.5" y1="63.1" x2="118.0" y2="86.6" stroke="rgb(0,0,0)"  stroke-width="2.0"/>
<line x1="118.0" y1="86.6" x2="64.7" y2="86.6" stroke="rgb(0,0,0)"  stroke-width="2.0"/>
<line x1="64.7" y1="86.6" x2="40.0" y2="63.4" stroke="rgb(0,0,0)"  stroke-width="2.0"/>
<text x="76.132598" y="126.003067" fill="rgb(17,127,178)"  stroke="rgb(17,127,178)" stroke-width="1" font-size="16" >Xx</text>
<text x="35.545640" y="155.620799" fill="rgb(17,127,178)"  stroke="rgb(17,127,178)" stroke-width="1" font-size="16" >Xx</text>
<text x="48.678030" y="127.623190" fill="rgb(17,127,178)"  stroke="rgb(17,127,178)" stroke-width="1" font-size="16" >Xx</text>
<text x="173.086412" y="71.336820" fill="rgb(17,127,178)"  stroke="rgb(17,127,178)" stroke-width="1" font-size="16" >Xx</text>
<text x="133.301819" y="147.956912" fill="rgb(239,142,160)"  stroke="rgb(239,142,160)" stroke-width="1" font-size="16" >Co</text>
</svg>
</g>
<text font-size="18.000000" fill ="black" font-family="sans-serif"
x="10.000000" y="20.000000" ></text>
</svg>
