<?xml version="1.0"?>
<svg version="1.1" id="topsvg"
xmlns="http://www.w3.org/2000/svg" xmlns:xlink="http://www.w3.org/1999/xlink"
xmlns:cml="http://www.xml-cml.org/schema" x="0" y="0" width="200px" height="200px" viewBox="0 0 100 100">
<title> - Open Babel Depiction</title>
<rect x="0" y="0" width="100" height="100" fill="white"/>
<g transform="translate(0,0)">
<svg width="100" height="100" x="0" y="0" viewBox="0 0 233.986 300.113"
font-family="sans-serif" stroke="rgb(0,0,0)" stroke-width="2"  stroke-linecap="round">
<line x1="111.6" y1="107.4" x2="111.4" y2="81.1" stroke="rgb(0,0,0)"  stroke-width="2.0"/>
<polygon points="111.613165 107.389072 117.305269 151.624385 109.311096 151.929654 " stroke-width="2.000000" fill="rgb(0,0,0)"  stroke="rgb(0,0,0)" />
<line x1="139.9" y1="168.0" x2="140.7" y2="166.6" stroke="rgb(0,0,0)"  stroke-width="1.0"/>
<line x1="134.2" y1="165.4" x2="135.6" y2="162.9" stroke="rgb(0,0,0)"  stroke-width="1.0"/>
<line x1="128.5" y1="162.9" x2="130.5" y2="159.3" stroke="rgb(0,0,0)"  stroke-width="1.0"/>
<line x1="122.7" y1="160.3" x2="125.5" y2="155.6" stroke="rgb(0,0,0)"  stroke-width="1.0"/>
<line x1="117.0" y1="157.8" x2="120.4" y2="152.0" stroke="rgb(0,0,0)"  stroke-width="1.0"/>
<line x1="111.3" y1="155.2" x2="115.3" y2="148.3" stroke="rgb(0,0,0)"  stroke-width="1.0"/>
<line x1="147.0" y1="171.2" x2="146.7" y2="213.2" stroke="rgb(0,0,0)"  stroke-width="2.0"/>
<line x1="113.7" y1="157.2" x2="112.1" y2="157.1" stroke="rgb(0,0,0)"  stroke-width="1.0"/>
<line x1="114.1" y1="161.5" x2="111.2" y2="161.3" stroke="rgb(0,0,0)"  stroke-width="1.0"/>
<line x1="114.4" y1="165.9" x2="110.3" y2="165.6" stroke="rgb(0,0,0)"  stroke-width="1.0"/>
<line x1="114.8" y1="170.2" x2="109.3" y2="169.8" stroke="rgb(0,0,0)"  stroke-width="1.0"/>
<line x1="115.1" y1="174.6" x2="108.4" y2="174.1" stroke="rgb(0,0,0)"  stroke-width="1.0"/>
<line x1="115.4" y1="178.9" x2="107.5" y2="178.3" stroke="rgb(0,0,0)"  stroke-width="1.0"/>
<line x1="146.7" y1="213.2" x2="179.9" y2="228.6" stroke="rgb(0,0,0)"  stroke-width="2.0"/>
<line x1="147.3" y1="90.9" x2="154.1" y2="60.5" stroke="rgb(0,0,0)"  stroke-width="2.0"/>
<line x1="140.5" y1="94.9" x2="139.8" y2="93.5" stroke="rgb(0,0,0)"  stroke-width="1.0"/>
<line x1="135.1" y1="98.1" x2="133.8" y2="95.5" stroke="rgb(0,0,0)"  stroke-width="1.0"/>
<line x1="129.6" y1="101.4" x2="127.9" y2="97.6" stroke="rgb(0,0,0)"  stroke-width="1.0"/>
<line x1="124.2" y1="104.6" x2="121.9" y2="99.6" stroke="rgb(0,0,0)"  stroke-width="1.0"/>
<line x1="118.7" y1="107.8" x2="115.9" y2="101.7" stroke="rgb(0,0,0)"  stroke-width="1.0"/>
<line x1="113.3" y1="111.0" x2="109.9" y2="103.8" stroke="rgb(0,0,0)"  stroke-width="1.0"/>
<line x1="169.4" y1="43.9" x2="169.5" y2="43.9" stroke="rgb(0,0,0)"  stroke-width="2.0"/>
<line x1="192.8" y1="247.1" x2="192.8" y2="247.2" stroke="rgb(0,0,0)"  stroke-width="2.0"/>
<line x1="40.4" y1="151.0" x2="40.0" y2="108.8" stroke="rgb(0,0,0)"  stroke-width="2.0"/>
<line x1="40.0" y1="108.8" x2="75.3" y2="88.5" stroke="rgb(0,0,0)"  stroke-width="2.0"/>
<line x1="75.3" y1="88.5" x2="111.6" y2="107.4" stroke="rgb(0,0,0)"  stroke-width="2.0"/>
<line x1="111.6" y1="107.4" x2="113.3" y2="151.8" stroke="rgb(0,0,0)"  stroke-width="2.0"/>
<line x1="113.3" y1="151.8" x2="75.6" y2="171.5" stroke="rgb(0,0,0)"  stroke-width="2.0"/>
<line x1="75.6" y1="171.5" x2="40.4" y2="151.0" stroke="rgb(0,0,0)"  stroke-width="2.0"/>
<line x1="74.0" y1="162.3" x2="49.3" y2="147.8" stroke="rgb(0,0,0)"  stroke-width="2.0"/>
<line x1="182.7" y1="109.2" x2="182.7" y2="151.3" stroke="rgb(0,0,0)"  stroke-width="2.0"/>
<line x1="182.7" y1="151.3" x2="147.0" y2="171.2" stroke="rgb(0,0,0)"  stroke-width="2.0"/>
<line x1="147.0" y1="171.2" x2="113.3" y2="151.8" stroke="rgb(0,0,0)"  stroke-width="2.0"/>
<line x1="111.6" y1="107.4" x2="147.3" y2="90.9" stroke="rgb(0,0,0)"  stroke-width="2.0"/>
<line x1="147.3" y1="90.9" x2="182.7" y2="109.2" stroke="rgb(0,0,0)"  stroke-width="2.0"/>
<text x="85.241875" y="76.083488" fill="rgb(102,102,102)"  stroke="rgb(102,102,102)" stroke-width="1" font-size="16" >H</text>
<text x="97.241875" y="79.763488" fill="rgb(102,102,102)"  stroke="rgb(102,102,102)" stroke-width="1" font-size="13" >3</text>
<text x="103.741875" y="76.083488" fill="rgb(102,102,102)"  stroke="rgb(102,102,102)" stroke-width="1" font-size="16" >C</text>
<text x="104.542344" y="199.833254" fill="rgb(191,191,191)"  stroke="rgb(191,191,191)" stroke-width="1" font-size="16" >H</text>
<text x="150.950860" y="55.791702" fill="rgb(255,12,12)"  stroke="rgb(255,12,12)" stroke-width="1" font-size="16" >O</text>
<text x="185.671824" y="242.117226" fill="rgb(255,12,12)"  stroke="rgb(255,12,12)" stroke-width="1" font-size="16" >O</text>
<text x="175.859553" y="48.000000" fill="rgb(191,191,191)"  stroke="rgb(191,191,191)" stroke-width="1" font-size="16" >H</text>
<text x="187.985658" y="268.112883" fill="rgb(191,191,191)"  stroke="rgb(191,191,191)" stroke-width="1" font-size="16" >H</text>
</svg>
</g>
<text font-size="18.000000" fill ="black" font-family="sans-serif"
x="10.000000" y="20.000000" ></text>
</svg>
