<?xml version="1.0"?>
<svg version="1.1" id="topsvg"
xmlns="http://www.w3.org/2000/svg" xmlns:xlink="http://www.w3.org/1999/xlink"
xmlns:cml="http://www.xml-cml.org/schema" x="0" y="0" width="200px" height="200px" viewBox="0 0 100 100">
<title> - Open Babel Depiction</title>
<rect x="0" y="0" width="100" height="100" fill="white"/>
<g transform="translate(0,0)">
<svg width="100" height="100" x="0" y="0" viewBox="0 0 252.411 272.842"
font-family="sans-serif" stroke="rgb(0,0,0)" stroke-width="2"  stroke-linecap="round">
<line x1="48.6" y1="223.0" x2="118.6" y2="142.8" stroke="rgb(0,0,0)"  stroke-width="2.0"/>
<line x1="91.5" y1="97.1" x2="49.2" y2="49.7" stroke="rgb(0,0,0)"  stroke-width="2.0"/>
<line x1="148.2" y1="97.9" x2="147.6" y2="99.4" stroke="rgb(0,0,0)"  stroke-width="1.0"/>
<line x1="150.3" y1="98.1" x2="149.2" y2="100.8" stroke="rgb(0,0,0)"  stroke-width="1.0"/>
<line x1="152.4" y1="98.4" x2="150.8" y2="102.2" stroke="rgb(0,0,0)"  stroke-width="1.0"/>
<line x1="154.6" y1="98.6" x2="152.4" y2="103.6" stroke="rgb(0,0,0)"  stroke-width="1.0"/>
<line x1="156.7" y1="98.8" x2="154.0" y2="104.9" stroke="rgb(0,0,0)"  stroke-width="1.0"/>
<line x1="158.8" y1="99.0" x2="155.6" y2="106.3" stroke="rgb(0,0,0)"  stroke-width="1.0"/>
<line x1="145.6" y1="97.7" x2="149.9" y2="78.6" stroke="rgb(0,0,0)"  stroke-width="2.0"/>
<line x1="157.2" y1="102.7" x2="203.8" y2="50.1" stroke="rgb(0,0,0)"  stroke-width="2.0"/>
<line x1="203.7" y1="223.2" x2="192.0" y2="210.3" stroke="rgb(0,0,0)"  stroke-width="2.0"/>
<line x1="174.7" y1="190.9" x2="145.0" y2="157.0" stroke="rgb(0,0,0)"  stroke-width="2.0"/>
<line x1="118.8" y1="151.0" x2="118.6" y2="159.4" stroke="rgb(0,0,0)"  stroke-width="2.0"/>
<line x1="123.0" y1="151.1" x2="122.8" y2="159.5" stroke="rgb(0,0,0)"  stroke-width="2.0"/>
<line x1="114.6" y1="150.9" x2="114.4" y2="159.3" stroke="rgb(0,0,0)"  stroke-width="2.0"/>
<line x1="120.1" y1="116.6" x2="118.5" y2="116.6" stroke="rgb(0,0,0)"  stroke-width="1.0"/>
<line x1="120.6" y1="121.9" x2="117.8" y2="121.8" stroke="rgb(0,0,0)"  stroke-width="1.0"/>
<line x1="121.1" y1="127.1" x2="117.0" y2="127.0" stroke="rgb(0,0,0)"  stroke-width="1.0"/>
<line x1="121.6" y1="132.4" x2="116.2" y2="132.2" stroke="rgb(0,0,0)"  stroke-width="1.0"/>
<line x1="122.1" y1="137.6" x2="115.4" y2="137.4" stroke="rgb(0,0,0)"  stroke-width="1.0"/>
<line x1="122.6" y1="142.9" x2="114.6" y2="142.6" stroke="rgb(0,0,0)"  stroke-width="1.0"/>
<line x1="119.5" y1="110.1" x2="119.2" y2="90.3" stroke="rgb(0,0,0)"  stroke-width="2.0"/>
<line x1="149.1" y1="177.8" x2="145.0" y2="157.0" stroke="rgb(0,0,0)"  stroke-width="2.0"/>
<line x1="165.2" y1="62.1" x2="159.4" y2="63.9" stroke="rgb(0,0,0)"  stroke-width="2.0"/>
<line x1="157.2" y1="102.7" x2="145.6" y2="97.7" stroke="rgb(0,0,0)"  stroke-width="2.0"/>
<line x1="145.6" y1="97.7" x2="119.5" y2="110.1" stroke="rgb(0,0,0)"  stroke-width="2.0"/>
<line x1="119.5" y1="110.1" x2="118.6" y2="142.8" stroke="rgb(0,0,0)"  stroke-width="2.0"/>
<line x1="118.6" y1="142.8" x2="118.8" y2="151.0" stroke="rgb(0,0,0)"  stroke-width="2.0"/>
<line x1="118.8" y1="151.0" x2="157.2" y2="102.7" stroke="rgb(0,0,0)"  stroke-width="2.0"/>
<line x1="171.3" y1="111.6" x2="171.3" y2="142.2" stroke="rgb(0,0,0)"  stroke-width="2.0"/>
<line x1="171.3" y1="142.2" x2="145.0" y2="157.0" stroke="rgb(0,0,0)"  stroke-width="2.0"/>
<line x1="145.0" y1="157.0" x2="118.8" y2="151.0" stroke="rgb(0,0,0)"  stroke-width="2.0"/>
<line x1="157.2" y1="102.7" x2="171.3" y2="111.6" stroke="rgb(0,0,0)"  stroke-width="2.0"/>
<line x1="119.5" y1="110.1" x2="91.5" y2="97.1" stroke="rgb(0,0,0)"  stroke-width="2.0"/>
<line x1="91.5" y1="97.1" x2="145.0" y2="157.0" stroke="rgb(0,0,0)"  stroke-width="2.0"/>
<line x1="66.5" y1="142.0" x2="93.1" y2="156.6" stroke="rgb(0,0,0)"  stroke-width="2.0"/>
<line x1="75.2" y1="138.6" x2="91.3" y2="147.4" stroke="rgb(0,0,0)"  stroke-width="2.0"/>
<line x1="93.1" y1="156.6" x2="118.6" y2="142.8" stroke="rgb(0,0,0)"  stroke-width="2.0"/>
<line x1="91.5" y1="97.1" x2="66.7" y2="111.1" stroke="rgb(0,0,0)"  stroke-width="2.0"/>
<line x1="66.7" y1="111.1" x2="66.5" y2="142.0" stroke="rgb(0,0,0)"  stroke-width="2.0"/>
<text x="14.000000" y="240.796548" fill="rgb(102,102,102)"  stroke="rgb(102,102,102)" stroke-width="1" font-size="16" >H</text>
<text x="26.000000" y="244.476548" fill="rgb(102,102,102)"  stroke="rgb(102,102,102)" stroke-width="1" font-size="13" >3</text>
<text x="32.500000" y="240.796548" fill="rgb(102,102,102)"  stroke="rgb(102,102,102)" stroke-width="1" font-size="16" >C</text>
<text x="14.542173" y="48.000000" fill="rgb(102,102,102)"  stroke="rgb(102,102,102)" stroke-width="1" font-size="16" >H</text>
<text x="26.542173" y="51.680000" fill="rgb(102,102,102)"  stroke="rgb(102,102,102)" stroke-width="1" font-size="13" >3</text>
<text x="33.042173" y="48.000000" fill="rgb(102,102,102)"  stroke="rgb(102,102,102)" stroke-width="1" font-size="16" >C</text>
<text x="208.382218" y="48.378498" fill="rgb(102,102,102)"  stroke="rgb(102,102,102)" stroke-width="1" font-size="16" >CH</text>
<text x="232.382218" y="52.058498" fill="rgb(102,102,102)"  stroke="rgb(102,102,102)" stroke-width="1" font-size="13" >3</text>
<text x="208.410861" y="240.841558" fill="rgb(102,102,102)"  stroke="rgb(102,102,102)" stroke-width="1" font-size="16" >CH</text>
<text x="232.410861" y="244.521558" fill="rgb(102,102,102)"  stroke="rgb(102,102,102)" stroke-width="1" font-size="13" >3</text>
<text x="171.252209" y="208.634465" fill="rgb(17,127,178)"  stroke="rgb(17,127,178)" stroke-width="1" font-size="16" >Xx</text>
<text x="112.338814" y="180.408759" fill="rgb(12,12,255)"  stroke="rgb(12,12,255)" stroke-width="1" font-size="16" >N</text>
<text x="93.063075" y="85.346480" fill="rgb(102,102,102)"  stroke="rgb(102,102,102)" stroke-width="1" font-size="16" >H</text>
<text x="105.063075" y="89.026480" fill="rgb(102,102,102)"  stroke="rgb(102,102,102)" stroke-width="1" font-size="13" >3</text>
<text x="111.563075" y="85.346480" fill="rgb(102,102,102)"  stroke="rgb(102,102,102)" stroke-width="1" font-size="16" >C</text>
<text x="145.556599" y="198.529597" fill="rgb(191,191,191)"  stroke="rgb(191,191,191)" stroke-width="1" font-size="16" >H</text>
<text x="146.814849" y="73.958811" fill="rgb(255,12,12)"  stroke="rgb(255,12,12)" stroke-width="1" font-size="16" >O</text>
<text x="165.772473" y="68.086980" fill="rgb(191,191,191)"  stroke="rgb(191,191,191)" stroke-width="1" font-size="16" >H</text>
</svg>
</g>
<text font-size="18.000000" fill ="black" font-family="sans-serif"
x="10.000000" y="20.000000" ></text>
</svg>
