<?xml version="1.0"?>
<svg version="1.1" id="topsvg"
xmlns="http://www.w3.org/2000/svg" xmlns:xlink="http://www.w3.org/1999/xlink"
xmlns:cml="http://www.xml-cml.org/schema" x="0" y="0" width="200px" height="200px" viewBox="0 0 100 100">
<title> - Open Babel Depiction</title>
<rect x="0" y="0" width="100" height="100" fill="white"/>
<g transform="translate(0,0)">
<svg width="100" height="100" x="0" y="0" viewBox="0 0 216.884 239.484"
font-family="sans-serif" stroke="rgb(0,0,0)" stroke-width="2"  stroke-linecap="round">
<line x1="108.8" y1="137.4" x2="74.6" y2="153.2" stroke="rgb(0,0,0)"  stroke-width="2.0"/>
<polygon points="108.811715 137.442766 104.654065 98.374262 112.654000 98.341987 " stroke-width="2.000000" fill="rgb(0,0,0)"  stroke="rgb(0,0,0)" />
<line x1="108.7" y1="98.4" x2="85.4" y2="85.2" stroke="rgb(0,0,0)"  stroke-width="2.0"/>
<line x1="107.8" y1="92.3" x2="109.4" y2="92.2" stroke="rgb(0,0,0)"  stroke-width="1.0"/>
<line x1="107.1" y1="87.4" x2="110.0" y2="87.4" stroke="rgb(0,0,0)"  stroke-width="1.0"/>
<line x1="106.4" y1="82.5" x2="110.6" y2="82.5" stroke="rgb(0,0,0)"  stroke-width="1.0"/>
<line x1="105.7" y1="77.6" x2="111.2" y2="77.6" stroke="rgb(0,0,0)"  stroke-width="1.0"/>
<line x1="105.0" y1="72.8" x2="111.8" y2="72.7" stroke="rgb(0,0,0)"  stroke-width="1.0"/>
<line x1="104.3" y1="67.9" x2="112.3" y2="67.8" stroke="rgb(0,0,0)"  stroke-width="1.0"/>
<line x1="139.3" y1="80.1" x2="139.4" y2="53.0" stroke="rgb(0,0,0)"  stroke-width="2.0"/>
<line x1="145.3" y1="80.1" x2="145.4" y2="53.0" stroke="rgb(0,0,0)"  stroke-width="2.0"/>
<line x1="145.4" y1="162.7" x2="143.9" y2="163.1" stroke="rgb(0,0,0)"  stroke-width="1.0"/>
<line x1="147.4" y1="167.0" x2="144.6" y2="167.8" stroke="rgb(0,0,0)"  stroke-width="1.0"/>
<line x1="149.3" y1="171.4" x2="145.3" y2="172.6" stroke="rgb(0,0,0)"  stroke-width="1.0"/>
<line x1="151.3" y1="175.7" x2="146.1" y2="177.3" stroke="rgb(0,0,0)"  stroke-width="1.0"/>
<line x1="153.3" y1="180.1" x2="146.8" y2="182.0" stroke="rgb(0,0,0)"  stroke-width="1.0"/>
<line x1="155.2" y1="184.4" x2="147.5" y2="186.7" stroke="rgb(0,0,0)"  stroke-width="1.0"/>
<line x1="53.1" y1="139.9" x2="75.8" y2="150.5" stroke="rgb(0,0,0)"  stroke-width="2.0"/>
<line x1="50.5" y1="145.3" x2="73.3" y2="155.9" stroke="rgb(0,0,0)"  stroke-width="2.0"/>
<line x1="108.7" y1="98.4" x2="108.8" y2="137.4" stroke="rgb(0,0,0)"  stroke-width="2.0"/>
<line x1="108.8" y1="137.4" x2="143.0" y2="157.2" stroke="rgb(0,0,0)"  stroke-width="2.0"/>
<line x1="143.0" y1="157.2" x2="176.9" y2="138.5" stroke="rgb(0,0,0)"  stroke-width="2.0"/>
<line x1="176.9" y1="138.5" x2="176.7" y2="98.2" stroke="rgb(0,0,0)"  stroke-width="2.0"/>
<line x1="176.7" y1="98.2" x2="142.3" y2="80.1" stroke="rgb(0,0,0)"  stroke-width="2.0"/>
<line x1="142.3" y1="80.1" x2="108.7" y2="98.4" stroke="rgb(0,0,0)"  stroke-width="2.0"/>
<text x="56.144776" y="86.722746" fill="rgb(17,127,178)"  stroke="rgb(17,127,178)" stroke-width="1" font-size="16" >Xx</text>
<text x="136.400725" y="48.000000" fill="rgb(255,12,12)"  stroke="rgb(255,12,12)" stroke-width="1" font-size="16" >O</text>
<text x="82.191324" y="60.798152" fill="rgb(102,102,102)"  stroke="rgb(102,102,102)" stroke-width="1" font-size="16" >H</text>
<text x="94.191324" y="64.478152" fill="rgb(102,102,102)"  stroke="rgb(102,102,102)" stroke-width="1" font-size="13" >3</text>
<text x="100.691324" y="60.798152" fill="rgb(102,102,102)"  stroke="rgb(102,102,102)" stroke-width="1" font-size="16" >C</text>
<text x="14.000000" y="145.111890" fill="rgb(102,102,102)"  stroke="rgb(102,102,102)" stroke-width="1" font-size="16" >H</text>
<text x="26.000000" y="148.791890" fill="rgb(102,102,102)"  stroke="rgb(102,102,102)" stroke-width="1" font-size="13" >2</text>
<text x="32.500000" y="145.111890" fill="rgb(102,102,102)"  stroke="rgb(102,102,102)" stroke-width="1" font-size="16" >C</text>
<text x="149.527167" y="207.484463" fill="rgb(17,127,178)"  stroke="rgb(17,127,178)" stroke-width="1" font-size="16" >Xx</text>
</svg>
</g>
<text font-size="18.000000" fill ="black" font-family="sans-serif"
x="10.000000" y="20.000000" ></text>
</svg>
