<?xml version="1.0"?>
<svg version="1.1" id="topsvg"
xmlns="http://www.w3.org/2000/svg" xmlns:xlink="http://www.w3.org/1999/xlink"
xmlns:cml="http://www.xml-cml.org/schema" x="0" y="0" width="200px" height="200px" viewBox="0 0 100 100">
<title> - Open Babel Depiction</title>
<rect x="0" y="0" width="100" height="100" fill="white"/>
<g transform="translate(0,0)">
<svg width="100" height="100" x="0" y="0" viewBox="0 0 332.261 332.2"
font-family="sans-serif" stroke="rgb(0,0,0)" stroke-width="2"  stroke-linecap="round">
<line x1="174.5" y1="193.8" x2="174.6" y2="248.0" stroke="rgb(0,0,0)"  stroke-width="2.0"/>
<line x1="178.7" y1="193.8" x2="178.8" y2="248.0" stroke="rgb(0,0,0)"  stroke-width="2.0"/>
<line x1="170.3" y1="193.8" x2="170.4" y2="248.0" stroke="rgb(0,0,0)"  stroke-width="2.0"/>
<line x1="174.6" y1="248.0" x2="174.6" y2="272.3" stroke="rgb(0,0,0)"  stroke-width="2.0"/>
<line x1="239.7" y1="273.2" x2="281.0" y2="249.1" stroke="rgb(0,0,0)"  stroke-width="2.0"/>
<line x1="237.6" y1="269.6" x2="278.9" y2="245.5" stroke="rgb(0,0,0)"  stroke-width="2.0"/>
<line x1="241.8" y1="276.8" x2="283.1" y2="252.7" stroke="rgb(0,0,0)"  stroke-width="2.0"/>
<line x1="176.2" y1="269.8" x2="208.0" y2="289.7" stroke="rgb(0,0,0)"  stroke-width="2.0"/>
<line x1="173.0" y1="274.9" x2="204.9" y2="294.7" stroke="rgb(0,0,0)"  stroke-width="2.0"/>
<line x1="206.5" y1="292.2" x2="239.7" y2="273.2" stroke="rgb(0,0,0)"  stroke-width="2.0"/>
<line x1="51.1" y1="266.5" x2="73.1" y2="252.8" stroke="rgb(0,0,0)"  stroke-width="2.0"/>
<line x1="70.1" y1="252.7" x2="70.7" y2="214.0" stroke="rgb(0,0,0)"  stroke-width="2.0"/>
<line x1="76.1" y1="252.8" x2="76.7" y2="214.1" stroke="rgb(0,0,0)"  stroke-width="2.0"/>
<line x1="73.7" y1="214.1" x2="93.5" y2="205.8" stroke="rgb(0,0,0)"  stroke-width="2.0"/>
<polygon points="107.408496 155.905047 110.142995 186.169998 102.150019 185.834851 " stroke-width="2.000000" fill="rgb(0,0,0)"  stroke="rgb(0,0,0)" />
<line x1="103.9" y1="78.5" x2="104.1" y2="53.0" stroke="rgb(0,0,0)"  stroke-width="2.0"/>
<line x1="109.9" y1="78.6" x2="110.1" y2="53.0" stroke="rgb(0,0,0)"  stroke-width="2.0"/>
<line x1="141.2" y1="137.5" x2="173.0" y2="154.4" stroke="rgb(0,0,0)"  stroke-width="2.0"/>
<line x1="173.0" y1="154.4" x2="174.5" y2="193.8" stroke="rgb(0,0,0)"  stroke-width="2.0"/>
<line x1="73.5" y1="137.6" x2="73.9" y2="97.4" stroke="rgb(0,0,0)"  stroke-width="2.0"/>
<line x1="73.9" y1="97.4" x2="106.9" y2="78.5" stroke="rgb(0,0,0)"  stroke-width="2.0"/>
<line x1="106.9" y1="78.5" x2="140.6" y2="97.8" stroke="rgb(0,0,0)"  stroke-width="2.0"/>
<line x1="140.6" y1="97.8" x2="141.2" y2="137.5" stroke="rgb(0,0,0)"  stroke-width="2.0"/>
<line x1="141.2" y1="137.5" x2="107.4" y2="155.9" stroke="rgb(0,0,0)"  stroke-width="2.0"/>
<line x1="107.4" y1="155.9" x2="73.5" y2="137.6" stroke="rgb(0,0,0)"  stroke-width="2.0"/>
<text x="286.260985" y="250.556953" fill="rgb(17,127,178)"  stroke="rgb(17,127,178)" stroke-width="1" font-size="16" >Xx</text>
<text x="14.000000" y="281.296427" fill="rgb(102,102,102)"  stroke="rgb(102,102,102)" stroke-width="1" font-size="16" >H</text>
<text x="26.000000" y="284.976427" fill="rgb(102,102,102)"  stroke="rgb(102,102,102)" stroke-width="1" font-size="13" >3</text>
<text x="32.500000" y="281.296427" fill="rgb(102,102,102)"  stroke="rgb(102,102,102)" stroke-width="1" font-size="16" >C</text>
<text x="93.524930" y="208.826506" fill="rgb(17,127,178)"  stroke="rgb(17,127,178)" stroke-width="1" font-size="16" >Xx</text>
<text x="101.150689" y="48.000000" fill="rgb(255,12,12)"  stroke="rgb(255,12,12)" stroke-width="1" font-size="16" >O</text>
</svg>
</g>
<text font-size="18.000000" fill ="black" font-family="sans-serif"
x="10.000000" y="20.000000" ></text>
</svg>
