<?xml version="1.0"?>
<svg version="1.1" id="topsvg"
xmlns="http://www.w3.org/2000/svg" xmlns:xlink="http://www.w3.org/1999/xlink"
xmlns:cml="http://www.xml-cml.org/schema" x="0" y="0" width="200px" height="200px" viewBox="0 0 100 100">
<title> - Open Babel Depiction</title>
<rect x="0" y="0" width="100" height="100" fill="white"/>
<g transform="translate(0,0)">
<svg width="100" height="100" x="0" y="0" viewBox="0 0 218.827 241.918"
font-family="sans-serif" stroke="rgb(0,0,0)" stroke-width="2"  stroke-linecap="round">
<line x1="109.3" y1="140.7" x2="75.5" y2="154.6" stroke="rgb(0,0,0)"  stroke-width="2.0"/>
<polygon points="109.340040 140.691426 105.235199 99.530637 113.235173 99.510263 " stroke-width="2.000000" fill="rgb(0,0,0)"  stroke="rgb(0,0,0)" />
<polygon points="109.235186 99.520450 105.363443 72.961575 113.363349 73.000222 " stroke-width="2.000000" fill="rgb(0,0,0)"  stroke="rgb(0,0,0)" />
<line x1="109.2" y1="99.5" x2="86.3" y2="86.3" stroke="rgb(0,0,0)"  stroke-width="2.0"/>
<line x1="147.1" y1="53.0" x2="147.2" y2="80.5" stroke="rgb(0,0,0)"  stroke-width="2.0"/>
<line x1="141.1" y1="53.0" x2="141.2" y2="80.5" stroke="rgb(0,0,0)"  stroke-width="2.0"/>
<line x1="146.6" y1="165.2" x2="145.1" y2="165.7" stroke="rgb(0,0,0)"  stroke-width="1.0"/>
<line x1="148.7" y1="169.5" x2="145.9" y2="170.4" stroke="rgb(0,0,0)"  stroke-width="1.0"/>
<line x1="150.7" y1="173.8" x2="146.7" y2="175.1" stroke="rgb(0,0,0)"  stroke-width="1.0"/>
<line x1="152.7" y1="178.2" x2="147.5" y2="179.8" stroke="rgb(0,0,0)"  stroke-width="1.0"/>
<line x1="154.8" y1="182.5" x2="148.3" y2="184.5" stroke="rgb(0,0,0)"  stroke-width="1.0"/>
<line x1="156.8" y1="186.8" x2="149.2" y2="189.2" stroke="rgb(0,0,0)"  stroke-width="1.0"/>
<line x1="53.1" y1="141.0" x2="76.7" y2="151.9" stroke="rgb(0,0,0)"  stroke-width="2.0"/>
<line x1="50.5" y1="146.4" x2="74.2" y2="157.4" stroke="rgb(0,0,0)"  stroke-width="2.0"/>
<line x1="109.2" y1="99.5" x2="144.2" y2="80.5" stroke="rgb(0,0,0)"  stroke-width="2.0"/>
<line x1="144.2" y1="80.5" x2="178.8" y2="99.2" stroke="rgb(0,0,0)"  stroke-width="2.0"/>
<line x1="178.8" y1="99.2" x2="178.7" y2="139.9" stroke="rgb(0,0,0)"  stroke-width="2.0"/>
<line x1="178.7" y1="139.9" x2="144.1" y2="159.8" stroke="rgb(0,0,0)"  stroke-width="2.0"/>
<line x1="144.1" y1="159.8" x2="109.3" y2="140.7" stroke="rgb(0,0,0)"  stroke-width="2.0"/>
<line x1="109.3" y1="140.7" x2="109.2" y2="99.5" stroke="rgb(0,0,0)"  stroke-width="2.0"/>
<text x="105.426545" y="67.909179" fill="rgb(102,102,102)"  stroke="rgb(102,102,102)" stroke-width="1" font-size="16" >CH</text>
<text x="129.426545" y="71.589179" fill="rgb(102,102,102)"  stroke="rgb(102,102,102)" stroke-width="1" font-size="13" >3</text>
<text x="138.070351" y="48.000000" fill="rgb(255,12,12)"  stroke="rgb(255,12,12)" stroke-width="1" font-size="16" >O</text>
<text x="14.000000" y="146.266675" fill="rgb(102,102,102)"  stroke="rgb(102,102,102)" stroke-width="1" font-size="16" >H</text>
<text x="26.000000" y="149.946675" fill="rgb(102,102,102)"  stroke="rgb(102,102,102)" stroke-width="1" font-size="13" >2</text>
<text x="32.500000" y="146.266675" fill="rgb(102,102,102)"  stroke="rgb(102,102,102)" stroke-width="1" font-size="16" >C</text>
<text x="151.342263" y="209.918378" fill="rgb(17,127,178)"  stroke="rgb(17,127,178)" stroke-width="1" font-size="16" >Xx</text>
<text x="57.057980" y="87.815737" fill="rgb(17,127,178)"  stroke="rgb(17,127,178)" stroke-width="1" font-size="16" >Xx</text>
</svg>
</g>
<text font-size="18.000000" fill ="black" font-family="sans-serif"
x="10.000000" y="20.000000" ></text>
</svg>
