<?xml version="1.0"?>
<svg version="1.1" id="topsvg"
xmlns="http://www.w3.org/2000/svg" xmlns:xlink="http://www.w3.org/1999/xlink"
xmlns:cml="http://www.xml-cml.org/schema" x="0" y="0" width="200px" height="200px" viewBox="0 0 100 100">
<title> - Open Babel Depiction</title>
<rect x="0" y="0" width="100" height="100" fill="white"/>
<g transform="translate(0,0)">
<svg width="100" height="100" x="0" y="0" viewBox="0 0 460.808 336.695"
font-family="sans-serif" stroke="rgb(0,0,0)" stroke-width="2"  stroke-linecap="round">
<line x1="98.7" y1="109.9" x2="81.8" y2="104.5" stroke="rgb(0,0,0)"  stroke-width="2.0"/>
<line x1="73.3" y1="88.2" x2="74.7" y2="83.6" stroke="rgb(0,0,0)"  stroke-width="2.0"/>
<line x1="57.0" y1="96.7" x2="52.4" y2="95.2" stroke="rgb(0,0,0)"  stroke-width="2.0"/>
<line x1="65.4" y1="113.0" x2="64.0" y2="117.6" stroke="rgb(0,0,0)"  stroke-width="2.0"/>
<line x1="140.8" y1="52.9" x2="141.3" y2="86.4" stroke="rgb(0,0,0)"  stroke-width="2.0"/>
<line x1="134.8" y1="53.0" x2="135.3" y2="86.5" stroke="rgb(0,0,0)"  stroke-width="2.0"/>
<line x1="170.6" y1="160.6" x2="169.8" y2="159.2" stroke="rgb(0,0,0)"  stroke-width="1.0"/>
<line x1="164.7" y1="164.9" x2="163.2" y2="162.5" stroke="rgb(0,0,0)"  stroke-width="1.0"/>
<line x1="158.8" y1="169.2" x2="156.6" y2="165.7" stroke="rgb(0,0,0)"  stroke-width="1.0"/>
<line x1="152.9" y1="173.5" x2="150.1" y2="168.9" stroke="rgb(0,0,0)"  stroke-width="1.0"/>
<line x1="147.0" y1="177.8" x2="143.5" y2="172.1" stroke="rgb(0,0,0)"  stroke-width="1.0"/>
<line x1="141.1" y1="182.2" x2="137.0" y2="175.3" stroke="rgb(0,0,0)"  stroke-width="1.0"/>
<line x1="178.0" y1="155.2" x2="218.5" y2="178.4" stroke="rgb(0,0,0)"  stroke-width="2.0"/>
<line x1="140.7" y1="225.0" x2="163.9" y2="241.0" stroke="rgb(0,0,0)"  stroke-width="2.0"/>
<line x1="375.6" y1="173.6" x2="393.4" y2="174.2" stroke="rgb(0,0,0)"  stroke-width="2.0"/>
<line x1="375.6" y1="173.6" x2="352.5" y2="214.9" stroke="rgb(0,0,0)"  stroke-width="2.0"/>
<line x1="412.5" y1="186.2" x2="414.7" y2="190.4" stroke="rgb(0,0,0)"  stroke-width="2.0"/>
<line x1="352.5" y1="214.9" x2="321.9" y2="269.9" stroke="rgb(0,0,0)"  stroke-width="2.0"/>
<line x1="356.2" y1="217.0" x2="325.6" y2="271.9" stroke="rgb(0,0,0)"  stroke-width="2.0"/>
<line x1="348.9" y1="212.9" x2="318.2" y2="267.8" stroke="rgb(0,0,0)"  stroke-width="2.0"/>
<line x1="258.7" y1="293.7" x2="307.3" y2="293.0" stroke="rgb(0,0,0)"  stroke-width="2.0"/>
<line x1="258.8" y1="299.7" x2="307.4" y2="299.0" stroke="rgb(0,0,0)"  stroke-width="2.0"/>
<line x1="307.3" y1="296.0" x2="321.9" y2="269.9" stroke="rgb(0,0,0)"  stroke-width="2.0"/>
<line x1="219.1" y1="273.4" x2="163.9" y2="241.0" stroke="rgb(0,0,0)"  stroke-width="2.0"/>
<line x1="217.0" y1="277.1" x2="161.8" y2="244.6" stroke="rgb(0,0,0)"  stroke-width="2.0"/>
<line x1="221.3" y1="269.8" x2="166.1" y2="237.4" stroke="rgb(0,0,0)"  stroke-width="2.0"/>
<line x1="219.1" y1="273.4" x2="258.8" y2="296.7" stroke="rgb(0,0,0)"  stroke-width="2.0"/>
<line x1="218.2" y1="168.3" x2="218.5" y2="178.4" stroke="rgb(0,0,0)"  stroke-width="2.0"/>
<line x1="222.4" y1="168.2" x2="222.7" y2="178.3" stroke="rgb(0,0,0)"  stroke-width="2.0"/>
<line x1="214.0" y1="168.4" x2="214.3" y2="178.6" stroke="rgb(0,0,0)"  stroke-width="2.0"/>
<line x1="217.1" y1="175.8" x2="259.6" y2="152.2" stroke="rgb(0,0,0)"  stroke-width="2.0"/>
<line x1="220.0" y1="181.0" x2="262.5" y2="157.5" stroke="rgb(0,0,0)"  stroke-width="2.0"/>
<line x1="138.3" y1="224.4" x2="140.7" y2="225.0" stroke="rgb(0,0,0)"  stroke-width="2.0"/>
<line x1="140.7" y1="225.0" x2="139.1" y2="178.7" stroke="rgb(0,0,0)"  stroke-width="2.0"/>
<line x1="139.1" y1="178.7" x2="138.3" y2="224.4" stroke="rgb(0,0,0)"  stroke-width="2.0"/>
<line x1="98.3" y1="156.1" x2="98.7" y2="109.9" stroke="rgb(0,0,0)"  stroke-width="2.0"/>
<line x1="98.7" y1="109.9" x2="138.3" y2="86.5" stroke="rgb(0,0,0)"  stroke-width="2.0"/>
<line x1="138.3" y1="86.5" x2="177.9" y2="108.9" stroke="rgb(0,0,0)"  stroke-width="2.0"/>
<line x1="177.9" y1="108.9" x2="178.0" y2="155.2" stroke="rgb(0,0,0)"  stroke-width="2.0"/>
<line x1="178.0" y1="155.2" x2="139.1" y2="178.7" stroke="rgb(0,0,0)"  stroke-width="2.0"/>
<line x1="139.1" y1="178.7" x2="98.3" y2="156.1" stroke="rgb(0,0,0)"  stroke-width="2.0"/>
<text x="63.368006" y="108.580944" fill="rgb(127,153,153)"  stroke="rgb(127,153,153)" stroke-width="1" font-size="16" >Si</text>
<text x="74.654271" y="79.216018" fill="rgb(102,102,102)"  stroke="rgb(102,102,102)" stroke-width="1" font-size="16" >CH</text>
<text x="98.654271" y="82.896018" fill="rgb(102,102,102)"  stroke="rgb(102,102,102)" stroke-width="1" font-size="13" >3</text>
<text x="14.000000" y="99.294679" fill="rgb(102,102,102)"  stroke="rgb(102,102,102)" stroke-width="1" font-size="16" >H</text>
<text x="26.000000" y="102.974679" fill="rgb(102,102,102)"  stroke="rgb(102,102,102)" stroke-width="1" font-size="13" >3</text>
<text x="32.500000" y="99.294679" fill="rgb(102,102,102)"  stroke="rgb(102,102,102)" stroke-width="1" font-size="16" >C</text>
<text x="34.081741" y="137.948949" fill="rgb(102,102,102)"  stroke="rgb(102,102,102)" stroke-width="1" font-size="16" >H</text>
<text x="46.081741" y="141.628949" fill="rgb(102,102,102)"  stroke="rgb(102,102,102)" stroke-width="1" font-size="13" >3</text>
<text x="52.581741" y="137.948949" fill="rgb(102,102,102)"  stroke="rgb(102,102,102)" stroke-width="1" font-size="16" >C</text>
<text x="131.550443" y="48.000000" fill="rgb(255,12,12)"  stroke="rgb(255,12,12)" stroke-width="1" font-size="16" >O</text>
<text x="400.347004" y="182.689343" fill="rgb(255,12,12)"  stroke="rgb(255,12,12)" stroke-width="1" font-size="16" >O</text>
<text x="416.807705" y="209.885933" fill="rgb(102,102,102)"  stroke="rgb(102,102,102)" stroke-width="1" font-size="16" >CH</text>
<text x="440.807705" y="213.565933" fill="rgb(102,102,102)"  stroke="rgb(102,102,102)" stroke-width="1" font-size="13" >3</text>
<text x="212.635090" y="189.292909" fill="rgb(17,127,178)"  stroke="rgb(17,127,178)" stroke-width="1" font-size="16" >Xx</text>
<text x="266.439987" y="156.530720" fill="rgb(178,178,0)"  stroke="rgb(178,178,0)" stroke-width="1" font-size="16" >S</text>
</svg>
</g>
<text font-size="18.000000" fill ="black" font-family="sans-serif"
x="10.000000" y="20.000000" ></text>
</svg>
