<?xml version="1.0"?>
<svg version="1.1" id="topsvg"
xmlns="http://www.w3.org/2000/svg" xmlns:xlink="http://www.w3.org/1999/xlink"
xmlns:cml="http://www.xml-cml.org/schema" x="0" y="0" width="200px" height="200px" viewBox="0 0 100 100">
<title> - Open Babel Depiction</title>
<rect x="0" y="0" width="100" height="100" fill="white"/>
<g transform="translate(0,0)">
<svg width="100" height="100" x="0" y="0" viewBox="0 0 254.526 287.019"
font-family="sans-serif" stroke="rgb(0,0,0)" stroke-width="2"  stroke-linecap="round">
<line x1="180.5" y1="222.2" x2="200.9" y2="237.0" stroke="rgb(0,0,0)"  stroke-width="2.0"/>
<line x1="177.0" y1="227.1" x2="197.4" y2="241.8" stroke="rgb(0,0,0)"  stroke-width="2.0"/>
<line x1="144.4" y1="163.1" x2="109.9" y2="177.5" stroke="rgb(0,0,0)"  stroke-width="2.0"/>
<polygon points="144.434795 163.138638 139.050346 117.433259 147.046688 117.191364 " stroke-width="2.000000" fill="rgb(0,0,0)"  stroke="rgb(0,0,0)" />
<polygon points="143.048517 117.312312 139.888186 92.390188 147.883625 92.660300 " stroke-width="2.000000" fill="rgb(0,0,0)"  stroke="rgb(0,0,0)" />
<line x1="143.0" y1="117.3" x2="111.1" y2="103.1" stroke="rgb(0,0,0)"  stroke-width="2.0"/>
<line x1="172.3" y1="101.4" x2="173.9" y2="74.2" stroke="rgb(0,0,0)"  stroke-width="2.0"/>
<line x1="178.3" y1="101.8" x2="179.9" y2="74.6" stroke="rgb(0,0,0)"  stroke-width="2.0"/>
<line x1="180.0" y1="188.4" x2="178.4" y2="188.4" stroke="rgb(0,0,0)"  stroke-width="1.0"/>
<line x1="180.5" y1="195.7" x2="177.6" y2="195.6" stroke="rgb(0,0,0)"  stroke-width="1.0"/>
<line x1="181.1" y1="202.9" x2="176.9" y2="202.9" stroke="rgb(0,0,0)"  stroke-width="1.0"/>
<line x1="181.7" y1="210.2" x2="176.2" y2="210.1" stroke="rgb(0,0,0)"  stroke-width="1.0"/>
<line x1="182.2" y1="217.4" x2="175.5" y2="217.4" stroke="rgb(0,0,0)"  stroke-width="1.0"/>
<line x1="182.8" y1="224.7" x2="174.8" y2="224.6" stroke="rgb(0,0,0)"  stroke-width="1.0"/>
<line x1="49.8" y1="51.4" x2="74.3" y2="37.4" stroke="rgb(0,0,0)"  stroke-width="2.0"/>
<line x1="52.8" y1="56.6" x2="77.3" y2="42.6" stroke="rgb(0,0,0)"  stroke-width="2.0"/>
<line x1="75.8" y1="40.0" x2="109.9" y2="59.9" stroke="rgb(0,0,0)"  stroke-width="2.0"/>
<line x1="111.1" y1="103.1" x2="109.9" y2="59.9" stroke="rgb(0,0,0)"  stroke-width="2.0"/>
<line x1="87.4" y1="163.7" x2="111.1" y2="174.8" stroke="rgb(0,0,0)"  stroke-width="2.0"/>
<line x1="84.8" y1="169.2" x2="108.6" y2="180.3" stroke="rgb(0,0,0)"  stroke-width="2.0"/>
<line x1="144.4" y1="163.1" x2="143.0" y2="117.3" stroke="rgb(0,0,0)"  stroke-width="2.0"/>
<line x1="143.0" y1="117.3" x2="175.3" y2="101.6" stroke="rgb(0,0,0)"  stroke-width="2.0"/>
<line x1="175.3" y1="101.6" x2="213.7" y2="120.7" stroke="rgb(0,0,0)"  stroke-width="2.0"/>
<line x1="213.7" y1="120.7" x2="214.5" y2="162.1" stroke="rgb(0,0,0)"  stroke-width="2.0"/>
<line x1="214.5" y1="162.1" x2="179.3" y2="179.3" stroke="rgb(0,0,0)"  stroke-width="2.0"/>
<line x1="179.3" y1="179.3" x2="144.4" y2="163.1" stroke="rgb(0,0,0)"  stroke-width="2.0"/>
<text x="203.715411" y="255.019400" fill="rgb(255,12,12)"  stroke="rgb(255,12,12)" stroke-width="1" font-size="16" >O</text>
<text x="140.298350" y="88.316688" fill="rgb(102,102,102)"  stroke="rgb(102,102,102)" stroke-width="1" font-size="16" >CH</text>
<text x="164.298350" y="91.996688" fill="rgb(102,102,102)"  stroke="rgb(102,102,102)" stroke-width="1" font-size="13" >3</text>
<text x="171.672731" y="69.430009" fill="rgb(255,12,12)"  stroke="rgb(255,12,12)" stroke-width="1" font-size="16" >O</text>
<text x="14.000000" y="68.502185" fill="rgb(102,102,102)"  stroke="rgb(102,102,102)" stroke-width="1" font-size="16" >H</text>
<text x="26.000000" y="72.182185" fill="rgb(102,102,102)"  stroke="rgb(102,102,102)" stroke-width="1" font-size="13" >2</text>
<text x="32.500000" y="68.502185" fill="rgb(102,102,102)"  stroke="rgb(102,102,102)" stroke-width="1" font-size="16" >C</text>
<text x="48.315849" y="168.958252" fill="rgb(102,102,102)"  stroke="rgb(102,102,102)" stroke-width="1" font-size="16" >H</text>
<text x="60.315849" y="172.638252" fill="rgb(102,102,102)"  stroke="rgb(102,102,102)" stroke-width="1" font-size="13" >2</text>
<text x="66.815849" y="168.958252" fill="rgb(102,102,102)"  stroke="rgb(102,102,102)" stroke-width="1" font-size="16" >C</text>
</svg>
</g>
<text font-size="18.000000" fill ="black" font-family="sans-serif"
x="10.000000" y="20.000000" ></text>
</svg>
