<?xml version="1.0"?>
<svg version="1.1" id="topsvg"
xmlns="http://www.w3.org/2000/svg" xmlns:xlink="http://www.w3.org/1999/xlink"
xmlns:cml="http://www.xml-cml.org/schema" x="0" y="0" width="200px" height="200px" viewBox="0 0 100 100">
<title> - Open Babel Depiction</title>
<rect x="0" y="0" width="100" height="100" fill="white"/>
<g transform="translate(0,0)">
<svg width="100" height="100" x="0" y="0" viewBox="0 0 251.337 337.923"
font-family="sans-serif" stroke="rgb(0,0,0)" stroke-width="2"  stroke-linecap="round">
<line x1="131.2" y1="273.1" x2="157.5" y2="258.3" stroke="rgb(0,0,0)"  stroke-width="2.0"/>
<line x1="157.5" y1="258.3" x2="149.5" y2="285.5" stroke="rgb(0,0,0)"  stroke-width="2.0"/>
<line x1="176.4" y1="197.4" x2="176.5" y2="158.5" stroke="rgb(0,0,0)"  stroke-width="2.0"/>
<line x1="49.2" y1="148.9" x2="72.6" y2="133.5" stroke="rgb(0,0,0)"  stroke-width="2.0"/>
<line x1="52.5" y1="153.9" x2="75.9" y2="138.5" stroke="rgb(0,0,0)"  stroke-width="2.0"/>
<line x1="170.2" y1="84.6" x2="169.4" y2="83.2" stroke="rgb(0,0,0)"  stroke-width="1.0"/>
<line x1="165.0" y1="88.2" x2="163.6" y2="85.7" stroke="rgb(0,0,0)"  stroke-width="1.0"/>
<line x1="159.9" y1="91.8" x2="157.8" y2="88.1" stroke="rgb(0,0,0)"  stroke-width="1.0"/>
<line x1="154.7" y1="95.4" x2="152.1" y2="90.6" stroke="rgb(0,0,0)"  stroke-width="1.0"/>
<line x1="149.6" y1="99.0" x2="146.3" y2="93.1" stroke="rgb(0,0,0)"  stroke-width="1.0"/>
<line x1="144.4" y1="102.6" x2="140.5" y2="95.6" stroke="rgb(0,0,0)"  stroke-width="1.0"/>
<line x1="176.6" y1="80.0" x2="183.4" y2="52.6" stroke="rgb(0,0,0)"  stroke-width="2.0"/>
<line x1="143.2" y1="106.9" x2="141.6" y2="106.9" stroke="rgb(0,0,0)"  stroke-width="1.0"/>
<line x1="143.8" y1="113.1" x2="140.9" y2="113.1" stroke="rgb(0,0,0)"  stroke-width="1.0"/>
<line x1="144.4" y1="119.4" x2="140.2" y2="119.4" stroke="rgb(0,0,0)"  stroke-width="1.0"/>
<line x1="145.0" y1="125.6" x2="139.5" y2="125.6" stroke="rgb(0,0,0)"  stroke-width="1.0"/>
<line x1="145.6" y1="131.9" x2="138.8" y2="131.8" stroke="rgb(0,0,0)"  stroke-width="1.0"/>
<line x1="146.2" y1="138.1" x2="138.2" y2="138.0" stroke="rgb(0,0,0)"  stroke-width="1.0"/>
<line x1="142.5" y1="99.1" x2="141.6" y2="65.9" stroke="rgb(0,0,0)"  stroke-width="2.0"/>
<line x1="142.9" y1="143.5" x2="141.3" y2="143.5" stroke="rgb(0,0,0)"  stroke-width="1.0"/>
<line x1="143.6" y1="147.8" x2="140.7" y2="147.8" stroke="rgb(0,0,0)"  stroke-width="1.0"/>
<line x1="144.2" y1="152.1" x2="140.0" y2="152.1" stroke="rgb(0,0,0)"  stroke-width="1.0"/>
<line x1="144.8" y1="156.4" x2="139.4" y2="156.4" stroke="rgb(0,0,0)"  stroke-width="1.0"/>
<line x1="145.5" y1="160.7" x2="138.7" y2="160.7" stroke="rgb(0,0,0)"  stroke-width="1.0"/>
<line x1="146.1" y1="165.0" x2="138.1" y2="165.0" stroke="rgb(0,0,0)"  stroke-width="1.0"/>
<line x1="155.1" y1="212.8" x2="176.4" y2="197.4" stroke="rgb(0,0,0)"  stroke-width="2.0"/>
<line x1="161.1" y1="217.4" x2="175.7" y2="206.7" stroke="rgb(0,0,0)"  stroke-width="2.0"/>
<line x1="176.4" y1="197.4" x2="198.0" y2="212.9" stroke="rgb(0,0,0)"  stroke-width="2.0"/>
<line x1="204.5" y1="232.8" x2="196.2" y2="257.9" stroke="rgb(0,0,0)"  stroke-width="2.0"/>
<line x1="196.2" y1="257.9" x2="157.5" y2="258.3" stroke="rgb(0,0,0)"  stroke-width="2.0"/>
<line x1="157.5" y1="258.3" x2="148.8" y2="232.7" stroke="rgb(0,0,0)"  stroke-width="2.0"/>
<line x1="74.3" y1="136.0" x2="108.5" y2="157.2" stroke="rgb(0,0,0)"  stroke-width="2.0"/>
<line x1="108.5" y1="157.2" x2="142.2" y2="138.1" stroke="rgb(0,0,0)"  stroke-width="2.0"/>
<line x1="142.2" y1="138.1" x2="142.5" y2="99.1" stroke="rgb(0,0,0)"  stroke-width="2.0"/>
<line x1="142.5" y1="99.1" x2="108.3" y2="80.9" stroke="rgb(0,0,0)"  stroke-width="2.0"/>
<line x1="108.3" y1="80.9" x2="74.0" y2="99.0" stroke="rgb(0,0,0)"  stroke-width="2.0"/>
<line x1="74.0" y1="99.0" x2="74.3" y2="136.0" stroke="rgb(0,0,0)"  stroke-width="2.0"/>
<line x1="176.6" y1="80.0" x2="142.5" y2="99.1" stroke="rgb(0,0,0)"  stroke-width="2.0"/>
<line x1="142.2" y1="138.1" x2="176.5" y2="158.5" stroke="rgb(0,0,0)"  stroke-width="2.0"/>
<line x1="176.5" y1="158.5" x2="211.3" y2="139.3" stroke="rgb(0,0,0)"  stroke-width="2.0"/>
<line x1="211.3" y1="139.3" x2="211.2" y2="98.9" stroke="rgb(0,0,0)"  stroke-width="2.0"/>
<line x1="211.2" y1="98.9" x2="176.6" y2="80.0" stroke="rgb(0,0,0)"  stroke-width="2.0"/>
<text x="93.905570" y="287.531809" fill="rgb(102,102,102)"  stroke="rgb(102,102,102)" stroke-width="1" font-size="16" >H</text>
<text x="105.905570" y="291.211809" fill="rgb(102,102,102)"  stroke="rgb(102,102,102)" stroke-width="1" font-size="13" >3</text>
<text x="112.405570" y="287.531809" fill="rgb(102,102,102)"  stroke="rgb(102,102,102)" stroke-width="1" font-size="16" >C</text>
<text x="138.700438" y="228.426219" fill="rgb(12,12,255)"  stroke="rgb(12,12,255)" stroke-width="1" font-size="16" >N</text>
<text x="202.574371" y="228.426219" fill="rgb(255,12,12)"  stroke="rgb(255,12,12)" stroke-width="1" font-size="16" >O</text>
<text x="119.778589" y="305.922877" fill="rgb(102,102,102)"  stroke="rgb(102,102,102)" stroke-width="1" font-size="16" >H</text>
<text x="131.778589" y="309.602877" fill="rgb(102,102,102)"  stroke="rgb(102,102,102)" stroke-width="1" font-size="13" >3</text>
<text x="138.278589" y="305.922877" fill="rgb(102,102,102)"  stroke="rgb(102,102,102)" stroke-width="1" font-size="16" >C</text>
<text x="34.000000" y="166.528896" fill="rgb(255,12,12)"  stroke="rgb(255,12,12)" stroke-width="1" font-size="16" >O</text>
<text x="115.283689" y="60.916978" fill="rgb(102,102,102)"  stroke="rgb(102,102,102)" stroke-width="1" font-size="16" >H</text>
<text x="127.283689" y="64.596978" fill="rgb(102,102,102)"  stroke="rgb(102,102,102)" stroke-width="1" font-size="13" >3</text>
<text x="133.783689" y="60.916978" fill="rgb(102,102,102)"  stroke="rgb(102,102,102)" stroke-width="1" font-size="16" >C</text>
<text x="180.513944" y="48.000000" fill="rgb(17,127,178)"  stroke="rgb(17,127,178)" stroke-width="1" font-size="16" >Xx</text>
<text x="136.067562" y="186.284579" fill="rgb(191,191,191)"  stroke="rgb(191,191,191)" stroke-width="1" font-size="16" >H</text>
</svg>
</g>
<text font-size="18.000000" fill ="black" font-family="sans-serif"
x="10.000000" y="20.000000" ></text>
</svg>
