<?xml version="1.0"?>
<svg version="1.1" id="topsvg"
xmlns="http://www.w3.org/2000/svg" xmlns:xlink="http://www.w3.org/1999/xlink"
xmlns:cml="http://www.xml-cml.org/schema" x="0" y="0" width="200px" height="200px" viewBox="0 0 100 100">
<title> - Open Babel Depiction</title>
<rect x="0" y="0" width="100" height="100" fill="white"/>
<g transform="translate(0,0)">
<svg width="100" height="100" x="0" y="0" viewBox="0 0 288.236 339.729"
font-family="sans-serif" stroke="rgb(0,0,0)" stroke-width="2"  stroke-linecap="round">
<line x1="167.4" y1="274.9" x2="194.5" y2="259.3" stroke="rgb(0,0,0)"  stroke-width="2.0"/>
<line x1="194.5" y1="259.3" x2="186.4" y2="287.2" stroke="rgb(0,0,0)"  stroke-width="2.0"/>
<line x1="178.4" y1="131.2" x2="180.0" y2="131.2" stroke="rgb(0,0,0)"  stroke-width="1.0"/>
<line x1="177.7" y1="124.9" x2="180.6" y2="124.9" stroke="rgb(0,0,0)"  stroke-width="1.0"/>
<line x1="177.1" y1="118.6" x2="181.2" y2="118.6" stroke="rgb(0,0,0)"  stroke-width="1.0"/>
<line x1="176.4" y1="112.3" x2="181.9" y2="112.3" stroke="rgb(0,0,0)"  stroke-width="1.0"/>
<line x1="175.8" y1="106.0" x2="182.5" y2="106.0" stroke="rgb(0,0,0)"  stroke-width="1.0"/>
<line x1="175.1" y1="99.7" x2="183.1" y2="99.7" stroke="rgb(0,0,0)"  stroke-width="1.0"/>
<line x1="151.1" y1="153.7" x2="151.9" y2="155.1" stroke="rgb(0,0,0)"  stroke-width="1.0"/>
<line x1="156.3" y1="150.0" x2="157.7" y2="152.6" stroke="rgb(0,0,0)"  stroke-width="1.0"/>
<line x1="161.6" y1="146.4" x2="163.6" y2="150.0" stroke="rgb(0,0,0)"  stroke-width="1.0"/>
<line x1="166.8" y1="142.8" x2="169.4" y2="147.5" stroke="rgb(0,0,0)"  stroke-width="1.0"/>
<line x1="172.0" y1="139.2" x2="175.3" y2="145.0" stroke="rgb(0,0,0)"  stroke-width="1.0"/>
<line x1="177.2" y1="135.5" x2="181.1" y2="142.5" stroke="rgb(0,0,0)"  stroke-width="1.0"/>
<line x1="144.6" y1="158.2" x2="144.4" y2="185.4" stroke="rgb(0,0,0)"  stroke-width="2.0"/>
<polygon points="109.249236 140.056562 75.872672 162.120603 72.150283 155.039373 " stroke-width="2.000000" fill="rgb(0,0,0)"  stroke="rgb(0,0,0)" />
<line x1="74.0" y1="158.6" x2="51.2" y2="145.1" stroke="rgb(0,0,0)"  stroke-width="2.0"/>
<line x1="75.1" y1="186.7" x2="74.0" y2="158.6" stroke="rgb(0,0,0)"  stroke-width="2.0"/>
<line x1="178.3" y1="93.4" x2="179.9" y2="93.4" stroke="rgb(0,0,0)"  stroke-width="1.0"/>
<line x1="177.6" y1="88.4" x2="180.5" y2="88.4" stroke="rgb(0,0,0)"  stroke-width="1.0"/>
<line x1="177.0" y1="83.4" x2="181.1" y2="83.4" stroke="rgb(0,0,0)"  stroke-width="1.0"/>
<line x1="176.3" y1="78.4" x2="181.7" y2="78.3" stroke="rgb(0,0,0)"  stroke-width="1.0"/>
<line x1="175.6" y1="73.3" x2="182.4" y2="73.3" stroke="rgb(0,0,0)"  stroke-width="1.0"/>
<line x1="175.0" y1="68.3" x2="183.0" y2="68.3" stroke="rgb(0,0,0)"  stroke-width="1.0"/>
<line x1="213.3" y1="79.6" x2="220.1" y2="52.6" stroke="rgb(0,0,0)"  stroke-width="2.0"/>
<line x1="206.9" y1="84.3" x2="206.1" y2="83.0" stroke="rgb(0,0,0)"  stroke-width="1.0"/>
<line x1="201.7" y1="88.1" x2="200.3" y2="85.6" stroke="rgb(0,0,0)"  stroke-width="1.0"/>
<line x1="196.6" y1="91.9" x2="194.5" y2="88.3" stroke="rgb(0,0,0)"  stroke-width="1.0"/>
<line x1="191.4" y1="95.6" x2="188.7" y2="90.9" stroke="rgb(0,0,0)"  stroke-width="1.0"/>
<line x1="186.3" y1="99.4" x2="182.9" y2="93.6" stroke="rgb(0,0,0)"  stroke-width="1.0"/>
<line x1="181.1" y1="103.2" x2="177.1" y2="96.3" stroke="rgb(0,0,0)"  stroke-width="1.0"/>
<line x1="157.4" y1="198.0" x2="157.0" y2="198.0" stroke="rgb(0,0,0)"  stroke-width="2.0"/>
<line x1="192.0" y1="214.7" x2="213.1" y2="199.1" stroke="rgb(0,0,0)"  stroke-width="2.0"/>
<line x1="198.0" y1="219.2" x2="212.5" y2="208.4" stroke="rgb(0,0,0)"  stroke-width="2.0"/>
<line x1="213.1" y1="199.1" x2="235.0" y2="214.8" stroke="rgb(0,0,0)"  stroke-width="2.0"/>
<line x1="241.7" y1="234.8" x2="233.8" y2="260.0" stroke="rgb(0,0,0)"  stroke-width="2.0"/>
<line x1="233.8" y1="260.0" x2="194.5" y2="259.3" stroke="rgb(0,0,0)"  stroke-width="2.0"/>
<line x1="194.5" y1="259.3" x2="185.9" y2="234.6" stroke="rgb(0,0,0)"  stroke-width="2.0"/>
<line x1="179.2" y1="139.0" x2="213.9" y2="159.3" stroke="rgb(0,0,0)"  stroke-width="2.0"/>
<line x1="213.9" y1="159.3" x2="213.1" y2="199.1" stroke="rgb(0,0,0)"  stroke-width="2.0"/>
<line x1="180.0" y1="209.5" x2="175.9" y2="175.8" stroke="rgb(0,0,0)"  stroke-width="2.0"/>
<line x1="175.9" y1="210.0" x2="171.7" y2="176.3" stroke="rgb(0,0,0)"  stroke-width="2.0"/>
<line x1="184.2" y1="208.9" x2="180.0" y2="175.3" stroke="rgb(0,0,0)"  stroke-width="2.0"/>
<line x1="175.9" y1="175.8" x2="179.2" y2="139.0" stroke="rgb(0,0,0)"  stroke-width="2.0"/>
<line x1="213.3" y1="79.6" x2="247.5" y2="99.7" stroke="rgb(0,0,0)"  stroke-width="2.0"/>
<line x1="247.5" y1="99.7" x2="248.2" y2="139.6" stroke="rgb(0,0,0)"  stroke-width="2.0"/>
<line x1="248.2" y1="139.6" x2="213.9" y2="159.3" stroke="rgb(0,0,0)"  stroke-width="2.0"/>
<line x1="179.2" y1="139.0" x2="179.1" y2="99.7" stroke="rgb(0,0,0)"  stroke-width="2.0"/>
<line x1="179.1" y1="99.7" x2="213.3" y2="79.6" stroke="rgb(0,0,0)"  stroke-width="2.0"/>
<line x1="109.2" y1="140.1" x2="144.6" y2="158.2" stroke="rgb(0,0,0)"  stroke-width="2.0"/>
<line x1="144.6" y1="158.2" x2="179.2" y2="139.0" stroke="rgb(0,0,0)"  stroke-width="2.0"/>
<line x1="179.1" y1="99.7" x2="144.3" y2="79.3" stroke="rgb(0,0,0)"  stroke-width="2.0"/>
<line x1="144.3" y1="79.3" x2="109.6" y2="98.8" stroke="rgb(0,0,0)"  stroke-width="2.0"/>
<line x1="109.6" y1="98.8" x2="109.2" y2="140.1" stroke="rgb(0,0,0)"  stroke-width="2.0"/>
<text x="130.177533" y="289.445364" fill="rgb(102,102,102)"  stroke="rgb(102,102,102)" stroke-width="1" font-size="16" >H</text>
<text x="142.177533" y="293.125364" fill="rgb(102,102,102)"  stroke="rgb(102,102,102)" stroke-width="1" font-size="13" >3</text>
<text x="148.677533" y="289.445364" fill="rgb(102,102,102)"  stroke="rgb(102,102,102)" stroke-width="1" font-size="16" >C</text>
<text x="175.636695" y="230.357113" fill="rgb(12,12,255)"  stroke="rgb(12,12,255)" stroke-width="1" font-size="16" >N</text>
<text x="239.529855" y="230.357113" fill="rgb(255,12,12)"  stroke="rgb(255,12,12)" stroke-width="1" font-size="16" >O</text>
<text x="156.717931" y="307.728808" fill="rgb(102,102,102)"  stroke="rgb(102,102,102)" stroke-width="1" font-size="16" >H</text>
<text x="168.717931" y="311.408808" fill="rgb(102,102,102)"  stroke="rgb(102,102,102)" stroke-width="1" font-size="13" >3</text>
<text x="175.217931" y="307.728808" fill="rgb(102,102,102)"  stroke="rgb(102,102,102)" stroke-width="1" font-size="16" >C</text>
<text x="71.662341" y="207.730263" fill="rgb(102,102,102)"  stroke="rgb(102,102,102)" stroke-width="1" font-size="16" >CH</text>
<text x="95.662341" y="211.410263" fill="rgb(102,102,102)"  stroke="rgb(102,102,102)" stroke-width="1" font-size="13" >3</text>
<text x="14.000000" y="146.503274" fill="rgb(102,102,102)"  stroke="rgb(102,102,102)" stroke-width="1" font-size="16" >H</text>
<text x="26.000000" y="150.183274" fill="rgb(102,102,102)"  stroke="rgb(102,102,102)" stroke-width="1" font-size="13" >3</text>
<text x="32.500000" y="146.503274" fill="rgb(102,102,102)"  stroke="rgb(102,102,102)" stroke-width="1" font-size="16" >C</text>
<text x="138.368322" y="206.398497" fill="rgb(255,12,12)"  stroke="rgb(255,12,12)" stroke-width="1" font-size="16" >O</text>
<text x="165.990988" y="205.567790" fill="rgb(102,102,102)"  stroke="rgb(102,102,102)" stroke-width="1" font-size="16" >CH</text>
<text x="189.990988" y="209.247790" fill="rgb(102,102,102)"  stroke="rgb(102,102,102)" stroke-width="1" font-size="13" >3</text>
<text x="217.232651" y="48.000000" fill="rgb(17,127,178)"  stroke="rgb(17,127,178)" stroke-width="1" font-size="16" >Xx</text>
<text x="152.891409" y="60.811333" fill="rgb(102,102,102)"  stroke="rgb(102,102,102)" stroke-width="1" font-size="16" >H</text>
<text x="164.891409" y="64.491333" fill="rgb(102,102,102)"  stroke="rgb(102,102,102)" stroke-width="1" font-size="13" >3</text>
<text x="171.391409" y="60.811333" fill="rgb(102,102,102)"  stroke="rgb(102,102,102)" stroke-width="1" font-size="16" >C</text>
</svg>
</g>
<text font-size="18.000000" fill ="black" font-family="sans-serif"
x="10.000000" y="20.000000" ></text>
</svg>
