<?xml version="1.0"?>
<svg version="1.1" id="topsvg"
xmlns="http://www.w3.org/2000/svg" xmlns:xlink="http://www.w3.org/1999/xlink"
xmlns:cml="http://www.xml-cml.org/schema" x="0" y="0" width="200px" height="200px" viewBox="0 0 100 100">
<title> - Open Babel Depiction</title>
<rect x="0" y="0" width="100" height="100" fill="white"/>
<g transform="translate(0,0)">
<svg width="100" height="100" x="0" y="0" viewBox="0 0 260.848 286.071"
font-family="sans-serif" stroke="rgb(0,0,0)" stroke-width="2"  stroke-linecap="round">
<line x1="74.1" y1="206.7" x2="85.6" y2="220.7" stroke="rgb(0,0,0)"  stroke-width="2.0"/>
<line x1="69.5" y1="210.5" x2="80.9" y2="224.5" stroke="rgb(0,0,0)"  stroke-width="2.0"/>
<line x1="83.3" y1="222.6" x2="110.3" y2="206.1" stroke="rgb(0,0,0)"  stroke-width="2.0"/>
<line x1="83.3" y1="222.6" x2="75.6" y2="235.0" stroke="rgb(0,0,0)"  stroke-width="2.0"/>
<line x1="90.1" y1="122.5" x2="74.3" y2="138.8" stroke="rgb(0,0,0)"  stroke-width="2.0"/>
<line x1="74.3" y1="138.8" x2="40.0" y2="104.4" stroke="rgb(0,0,0)"  stroke-width="2.0"/>
<line x1="220.1" y1="112.0" x2="199.2" y2="91.8" stroke="rgb(0,0,0)"  stroke-width="2.0"/>
<line x1="220.1" y1="112.0" x2="208.2" y2="131.7" stroke="rgb(0,0,0)"  stroke-width="2.0"/>
<line x1="165.8" y1="103.2" x2="40.0" y2="104.4" stroke="rgb(0,0,0)"  stroke-width="2.0"/>
<line x1="137.8" y1="73.9" x2="137.6" y2="53.0" stroke="rgb(0,0,0)"  stroke-width="2.0"/>
<line x1="124.6" y1="87.2" x2="137.8" y2="73.9" stroke="rgb(0,0,0)"  stroke-width="2.0"/>
<line x1="113.3" y1="169.0" x2="118.1" y2="186.7" stroke="rgb(0,0,0)"  stroke-width="2.0"/>
<line x1="122.6" y1="153.3" x2="152.4" y2="146.0" stroke="rgb(0,0,0)"  stroke-width="2.0"/>
<line x1="178.0" y1="142.9" x2="188.4" y2="142.9" stroke="rgb(0,0,0)"  stroke-width="2.0"/>
<line x1="163.4" y1="130.0" x2="163.7" y2="132.1" stroke="rgb(0,0,0)"  stroke-width="2.0"/>
<line x1="137.8" y1="73.9" x2="165.8" y2="103.2" stroke="rgb(0,0,0)"  stroke-width="2.0"/>
<line x1="165.8" y1="103.2" x2="199.2" y2="91.8" stroke="rgb(0,0,0)"  stroke-width="2.0"/>
<line x1="199.2" y1="91.8" x2="220.8" y2="94.0" stroke="rgb(0,0,0)"  stroke-width="2.0"/>
<line x1="220.8" y1="94.0" x2="194.8" y2="69.8" stroke="rgb(0,0,0)"  stroke-width="2.0"/>
<line x1="194.8" y1="69.8" x2="170.0" y2="82.9" stroke="rgb(0,0,0)"  stroke-width="2.0"/>
<line x1="170.0" y1="82.9" x2="137.8" y2="73.9" stroke="rgb(0,0,0)"  stroke-width="2.0"/>
<text x="57.569958" y="206.571297" fill="rgb(255,12,12)"  stroke="rgb(255,12,12)" stroke-width="1" font-size="16" >O</text>
<text x="115.426674" y="207.283416" fill="rgb(255,12,12)"  stroke="rgb(255,12,12)" stroke-width="1" font-size="16" >O</text>
<text x="95.168882" y="121.196451" fill="rgb(102,102,102)"  stroke="rgb(102,102,102)" stroke-width="1" font-size="16" >CH</text>
<text x="119.168882" y="124.876451" fill="rgb(102,102,102)"  stroke="rgb(102,102,102)" stroke-width="1" font-size="13" >3</text>
<text x="89.440208" y="104.353096" fill="rgb(102,102,102)"  stroke="rgb(102,102,102)" stroke-width="1" font-size="16" >H</text>
<text x="101.440208" y="108.033096" fill="rgb(102,102,102)"  stroke="rgb(102,102,102)" stroke-width="1" font-size="13" >3</text>
<text x="107.940208" y="104.353096" fill="rgb(102,102,102)"  stroke="rgb(102,102,102)" stroke-width="1" font-size="16" >C</text>
<text x="111.492536" y="48.000000" fill="rgb(102,102,102)"  stroke="rgb(102,102,102)" stroke-width="1" font-size="16" >H</text>
<text x="123.492536" y="51.680000" fill="rgb(102,102,102)"  stroke="rgb(102,102,102)" stroke-width="1" font-size="13" >3</text>
<text x="129.992536" y="48.000000" fill="rgb(102,102,102)"  stroke="rgb(102,102,102)" stroke-width="1" font-size="16" >C</text>
<text x="195.426776" y="150.855606" fill="rgb(255,12,12)"  stroke="rgb(255,12,12)" stroke-width="1" font-size="16" >O</text>
<text x="104.000089" y="164.427886" fill="rgb(255,12,12)"  stroke="rgb(255,12,12)" stroke-width="1" font-size="16" >O</text>
<text x="158.998992" y="150.855606" fill="rgb(12,12,255)"  stroke="rgb(12,12,255)" stroke-width="1" font-size="16" >N</text>
<text x="30.771926" y="254.070774" fill="rgb(191,165,165)"  stroke="rgb(191,165,165)" stroke-width="1" font-size="16" >H</text>
<text x="42.771926" y="257.750774" fill="rgb(191,165,165)"  stroke="rgb(191,165,165)" stroke-width="1" font-size="13" >2</text>
<text x="49.271926" y="254.070774" fill="rgb(191,165,165)"  stroke="rgb(191,165,165)" stroke-width="1" font-size="16" >Al</text>
<text x="156.124835" y="127.215604" fill="rgb(191,191,191)"  stroke="rgb(191,191,191)" stroke-width="1" font-size="16" >H</text>
</svg>
</g>
<text font-size="18.000000" fill ="black" font-family="sans-serif"
x="10.000000" y="20.000000" ></text>
</svg>
