<?xml version="1.0"?>
<svg version="1.1" id="topsvg"
xmlns="http://www.w3.org/2000/svg" xmlns:xlink="http://www.w3.org/1999/xlink"
xmlns:cml="http://www.xml-cml.org/schema" x="0" y="0" width="200px" height="200px" viewBox="0 0 100 100">
<title> - Open Babel Depiction</title>
<rect x="0" y="0" width="100" height="100" fill="white"/>
<g transform="translate(0,0)">
<svg width="100" height="100" x="0" y="0" viewBox="0 0 233.56 299.584"
font-family="sans-serif" stroke="rgb(0,0,0)" stroke-width="2"  stroke-linecap="round">
<line x1="139.9" y1="93.8" x2="139.2" y2="92.4" stroke="rgb(0,0,0)"  stroke-width="1.0"/>
<line x1="134.5" y1="97.4" x2="133.1" y2="94.8" stroke="rgb(0,0,0)"  stroke-width="1.0"/>
<line x1="129.1" y1="100.9" x2="127.1" y2="97.3" stroke="rgb(0,0,0)"  stroke-width="1.0"/>
<line x1="123.6" y1="104.5" x2="121.1" y2="99.7" stroke="rgb(0,0,0)"  stroke-width="1.0"/>
<line x1="118.2" y1="108.0" x2="115.1" y2="102.1" stroke="rgb(0,0,0)"  stroke-width="1.0"/>
<line x1="112.8" y1="111.6" x2="109.1" y2="104.5" stroke="rgb(0,0,0)"  stroke-width="1.0"/>
<line x1="146.7" y1="89.4" x2="153.5" y2="60.4" stroke="rgb(0,0,0)"  stroke-width="2.0"/>
<line x1="138.8" y1="166.1" x2="139.5" y2="164.7" stroke="rgb(0,0,0)"  stroke-width="1.0"/>
<line x1="132.8" y1="163.8" x2="134.2" y2="161.2" stroke="rgb(0,0,0)"  stroke-width="1.0"/>
<line x1="126.9" y1="161.5" x2="128.8" y2="157.8" stroke="rgb(0,0,0)"  stroke-width="1.0"/>
<line x1="121.0" y1="159.2" x2="123.5" y2="154.4" stroke="rgb(0,0,0)"  stroke-width="1.0"/>
<line x1="115.1" y1="156.9" x2="118.1" y2="150.9" stroke="rgb(0,0,0)"  stroke-width="1.0"/>
<line x1="109.2" y1="154.6" x2="112.8" y2="147.5" stroke="rgb(0,0,0)"  stroke-width="1.0"/>
<line x1="146.2" y1="169.0" x2="145.7" y2="212.1" stroke="rgb(0,0,0)"  stroke-width="2.0"/>
<line x1="111.7" y1="116.6" x2="110.1" y2="116.6" stroke="rgb(0,0,0)"  stroke-width="1.0"/>
<line x1="112.4" y1="123.5" x2="109.5" y2="123.5" stroke="rgb(0,0,0)"  stroke-width="1.0"/>
<line x1="113.0" y1="130.4" x2="108.9" y2="130.4" stroke="rgb(0,0,0)"  stroke-width="1.0"/>
<line x1="113.7" y1="137.3" x2="108.2" y2="137.3" stroke="rgb(0,0,0)"  stroke-width="1.0"/>
<line x1="114.3" y1="144.2" x2="107.6" y2="144.2" stroke="rgb(0,0,0)"  stroke-width="1.0"/>
<line x1="115.0" y1="151.0" x2="107.0" y2="151.0" stroke="rgb(0,0,0)"  stroke-width="1.0"/>
<line x1="110.9" y1="108.0" x2="110.8" y2="79.4" stroke="rgb(0,0,0)"  stroke-width="2.0"/>
<line x1="111.6" y1="156.4" x2="110.0" y2="156.3" stroke="rgb(0,0,0)"  stroke-width="1.0"/>
<line x1="112.1" y1="160.7" x2="109.2" y2="160.6" stroke="rgb(0,0,0)"  stroke-width="1.0"/>
<line x1="112.6" y1="165.0" x2="108.5" y2="164.8" stroke="rgb(0,0,0)"  stroke-width="1.0"/>
<line x1="113.1" y1="169.3" x2="107.7" y2="169.1" stroke="rgb(0,0,0)"  stroke-width="1.0"/>
<line x1="113.7" y1="173.6" x2="106.9" y2="173.3" stroke="rgb(0,0,0)"  stroke-width="1.0"/>
<line x1="114.2" y1="177.8" x2="106.2" y2="177.6" stroke="rgb(0,0,0)"  stroke-width="1.0"/>
<line x1="145.7" y1="212.1" x2="179.3" y2="227.6" stroke="rgb(0,0,0)"  stroke-width="2.0"/>
<line x1="192.3" y1="246.0" x2="192.4" y2="246.6" stroke="rgb(0,0,0)"  stroke-width="2.0"/>
<line x1="168.9" y1="43.9" x2="169.5" y2="43.8" stroke="rgb(0,0,0)"  stroke-width="2.0"/>
<line x1="40.1" y1="150.8" x2="40.0" y2="108.6" stroke="rgb(0,0,0)"  stroke-width="2.0"/>
<line x1="40.0" y1="108.6" x2="75.4" y2="89.5" stroke="rgb(0,0,0)"  stroke-width="2.0"/>
<line x1="75.4" y1="89.5" x2="110.9" y2="108.0" stroke="rgb(0,0,0)"  stroke-width="2.0"/>
<line x1="110.9" y1="108.0" x2="111.0" y2="151.0" stroke="rgb(0,0,0)"  stroke-width="2.0"/>
<line x1="111.0" y1="151.0" x2="74.7" y2="170.6" stroke="rgb(0,0,0)"  stroke-width="2.0"/>
<line x1="74.7" y1="170.6" x2="40.1" y2="150.8" stroke="rgb(0,0,0)"  stroke-width="2.0"/>
<line x1="73.0" y1="161.3" x2="48.9" y2="147.5" stroke="rgb(0,0,0)"  stroke-width="2.0"/>
<line x1="182.2" y1="150.9" x2="146.2" y2="169.0" stroke="rgb(0,0,0)"  stroke-width="2.0"/>
<line x1="146.2" y1="169.0" x2="111.0" y2="151.0" stroke="rgb(0,0,0)"  stroke-width="2.0"/>
<line x1="110.9" y1="108.0" x2="146.7" y2="89.4" stroke="rgb(0,0,0)"  stroke-width="2.0"/>
<line x1="146.7" y1="89.4" x2="182.1" y2="108.7" stroke="rgb(0,0,0)"  stroke-width="2.0"/>
<line x1="182.1" y1="108.7" x2="182.2" y2="150.9" stroke="rgb(0,0,0)"  stroke-width="2.0"/>
<text x="103.763185" y="198.857779" fill="rgb(191,191,191)"  stroke="rgb(191,191,191)" stroke-width="1" font-size="16" >H</text>
<text x="84.758901" y="74.368635" fill="rgb(102,102,102)"  stroke="rgb(102,102,102)" stroke-width="1" font-size="16" >H</text>
<text x="96.758901" y="78.048635" fill="rgb(102,102,102)"  stroke="rgb(102,102,102)" stroke-width="1" font-size="13" >3</text>
<text x="103.258901" y="74.368635" fill="rgb(102,102,102)"  stroke="rgb(102,102,102)" stroke-width="1" font-size="16" >C</text>
<text x="185.132081" y="241.086546" fill="rgb(255,12,12)"  stroke="rgb(255,12,12)" stroke-width="1" font-size="16" >O</text>
<text x="150.454843" y="55.694166" fill="rgb(255,12,12)"  stroke="rgb(255,12,12)" stroke-width="1" font-size="16" >O</text>
<text x="187.559652" y="267.584103" fill="rgb(191,191,191)"  stroke="rgb(191,191,191)" stroke-width="1" font-size="16" >H</text>
<text x="175.926511" y="48.000000" fill="rgb(191,191,191)"  stroke="rgb(191,191,191)" stroke-width="1" font-size="16" >H</text>
</svg>
</g>
<text font-size="18.000000" fill ="black" font-family="sans-serif"
x="10.000000" y="20.000000" ></text>
</svg>
