<?xml version="1.0"?>
<svg version="1.1" id="topsvg"
xmlns="http://www.w3.org/2000/svg" xmlns:xlink="http://www.w3.org/1999/xlink"
xmlns:cml="http://www.xml-cml.org/schema" x="0" y="0" width="200px" height="200px" viewBox="0 0 100 100">
<title> - Open Babel Depiction</title>
<rect x="0" y="0" width="100" height="100" fill="white"/>
<g transform="translate(0,0)">
<svg width="100" height="100" x="0" y="0" viewBox="0 0 309.923 302.744"
font-family="sans-serif" stroke="rgb(0,0,0)" stroke-width="2"  stroke-linecap="round">
<line x1="254.2" y1="230.9" x2="220.3" y2="217.0" stroke="rgb(0,0,0)"  stroke-width="2.0"/>
<line x1="268.0" y1="248.7" x2="268.2" y2="249.9" stroke="rgb(0,0,0)"  stroke-width="2.0"/>
<line x1="153.9" y1="203.9" x2="166.3" y2="190.9" stroke="rgb(0,0,0)"  stroke-width="2.0"/>
<line x1="158.2" y1="208.0" x2="170.6" y2="195.0" stroke="rgb(0,0,0)"  stroke-width="2.0"/>
<line x1="156.5" y1="224.9" x2="150.8" y2="221.3" stroke="rgb(0,0,0)"  stroke-width="2.0"/>
<line x1="159.7" y1="219.8" x2="154.0" y2="216.2" stroke="rgb(0,0,0)"  stroke-width="2.0"/>
<line x1="76.4" y1="201.9" x2="76.3" y2="173.8" stroke="rgb(0,0,0)"  stroke-width="2.0"/>
<line x1="76.3" y1="173.8" x2="51.0" y2="157.8" stroke="rgb(0,0,0)"  stroke-width="2.0"/>
<polygon points="112.958470 151.727995 78.345262 177.222910 74.220747 170.368104 " stroke-width="2.000000" fill="rgb(0,0,0)"  stroke="rgb(0,0,0)" />
<line x1="214.6" y1="94.5" x2="213.9" y2="93.1" stroke="rgb(0,0,0)"  stroke-width="1.0"/>
<line x1="209.1" y1="98.0" x2="207.8" y2="95.5" stroke="rgb(0,0,0)"  stroke-width="1.0"/>
<line x1="203.6" y1="101.5" x2="201.7" y2="97.8" stroke="rgb(0,0,0)"  stroke-width="1.0"/>
<line x1="198.1" y1="105.1" x2="195.7" y2="100.2" stroke="rgb(0,0,0)"  stroke-width="1.0"/>
<line x1="192.6" y1="108.6" x2="189.6" y2="102.6" stroke="rgb(0,0,0)"  stroke-width="1.0"/>
<line x1="187.1" y1="112.1" x2="183.5" y2="105.0" stroke="rgb(0,0,0)"  stroke-width="1.0"/>
<line x1="221.5" y1="90.1" x2="228.1" y2="60.8" stroke="rgb(0,0,0)"  stroke-width="2.0"/>
<line x1="213.5" y1="168.1" x2="214.2" y2="166.7" stroke="rgb(0,0,0)"  stroke-width="1.0"/>
<line x1="207.4" y1="165.7" x2="208.8" y2="163.2" stroke="rgb(0,0,0)"  stroke-width="1.0"/>
<line x1="201.4" y1="163.3" x2="203.3" y2="159.6" stroke="rgb(0,0,0)"  stroke-width="1.0"/>
<line x1="195.4" y1="160.9" x2="197.9" y2="156.1" stroke="rgb(0,0,0)"  stroke-width="1.0"/>
<line x1="189.3" y1="158.5" x2="192.4" y2="152.5" stroke="rgb(0,0,0)"  stroke-width="1.0"/>
<line x1="183.3" y1="156.1" x2="187.0" y2="149.0" stroke="rgb(0,0,0)"  stroke-width="1.0"/>
<line x1="221.0" y1="171.1" x2="220.3" y2="217.0" stroke="rgb(0,0,0)"  stroke-width="2.0"/>
<line x1="186.1" y1="117.4" x2="184.5" y2="117.3" stroke="rgb(0,0,0)"  stroke-width="1.0"/>
<line x1="186.7" y1="124.4" x2="183.8" y2="124.4" stroke="rgb(0,0,0)"  stroke-width="1.0"/>
<line x1="187.3" y1="131.4" x2="183.1" y2="131.4" stroke="rgb(0,0,0)"  stroke-width="1.0"/>
<line x1="187.9" y1="138.5" x2="182.5" y2="138.4" stroke="rgb(0,0,0)"  stroke-width="1.0"/>
<line x1="188.5" y1="145.5" x2="181.8" y2="145.5" stroke="rgb(0,0,0)"  stroke-width="1.0"/>
<line x1="189.1" y1="152.6" x2="181.1" y2="152.5" stroke="rgb(0,0,0)"  stroke-width="1.0"/>
<line x1="185.3" y1="108.6" x2="185.0" y2="76.1" stroke="rgb(0,0,0)"  stroke-width="2.0"/>
<line x1="185.9" y1="156.7" x2="184.3" y2="156.7" stroke="rgb(0,0,0)"  stroke-width="1.0"/>
<line x1="186.5" y1="160.0" x2="183.6" y2="160.0" stroke="rgb(0,0,0)"  stroke-width="1.0"/>
<line x1="187.1" y1="163.3" x2="183.0" y2="163.3" stroke="rgb(0,0,0)"  stroke-width="1.0"/>
<line x1="187.7" y1="166.6" x2="182.3" y2="166.5" stroke="rgb(0,0,0)"  stroke-width="1.0"/>
<line x1="188.3" y1="169.9" x2="181.6" y2="169.8" stroke="rgb(0,0,0)"  stroke-width="1.0"/>
<line x1="189.0" y1="173.2" x2="181.0" y2="173.1" stroke="rgb(0,0,0)"  stroke-width="1.0"/>
<line x1="148.8" y1="170.3" x2="147.6" y2="202.4" stroke="rgb(0,0,0)"  stroke-width="2.0"/>
<line x1="155.7" y1="166.1" x2="156.4" y2="167.5" stroke="rgb(0,0,0)"  stroke-width="1.0"/>
<line x1="161.3" y1="162.6" x2="162.5" y2="165.2" stroke="rgb(0,0,0)"  stroke-width="1.0"/>
<line x1="166.8" y1="159.2" x2="168.6" y2="163.0" stroke="rgb(0,0,0)"  stroke-width="1.0"/>
<line x1="172.3" y1="155.8" x2="174.7" y2="160.7" stroke="rgb(0,0,0)"  stroke-width="1.0"/>
<line x1="177.8" y1="152.4" x2="180.8" y2="158.4" stroke="rgb(0,0,0)"  stroke-width="1.0"/>
<line x1="183.4" y1="148.9" x2="186.9" y2="156.1" stroke="rgb(0,0,0)"  stroke-width="1.0"/>
<line x1="243.3" y1="44.2" x2="244.5" y2="43.9" stroke="rgb(0,0,0)"  stroke-width="2.0"/>
<line x1="113.0" y1="151.7" x2="112.8" y2="109.1" stroke="rgb(0,0,0)"  stroke-width="2.0"/>
<line x1="112.8" y1="109.1" x2="148.9" y2="88.7" stroke="rgb(0,0,0)"  stroke-width="2.0"/>
<line x1="148.9" y1="88.7" x2="185.3" y2="108.6" stroke="rgb(0,0,0)"  stroke-width="2.0"/>
<line x1="185.3" y1="108.6" x2="185.1" y2="152.5" stroke="rgb(0,0,0)"  stroke-width="2.0"/>
<line x1="185.1" y1="152.5" x2="148.8" y2="170.3" stroke="rgb(0,0,0)"  stroke-width="2.0"/>
<line x1="148.8" y1="170.3" x2="113.0" y2="151.7" stroke="rgb(0,0,0)"  stroke-width="2.0"/>
<line x1="221.5" y1="90.1" x2="257.3" y2="109.7" stroke="rgb(0,0,0)"  stroke-width="2.0"/>
<line x1="257.3" y1="109.7" x2="257.3" y2="152.2" stroke="rgb(0,0,0)"  stroke-width="2.0"/>
<line x1="257.3" y1="152.2" x2="221.0" y2="171.1" stroke="rgb(0,0,0)"  stroke-width="2.0"/>
<line x1="221.0" y1="171.1" x2="185.1" y2="152.5" stroke="rgb(0,0,0)"  stroke-width="2.0"/>
<line x1="185.3" y1="108.6" x2="221.5" y2="90.1" stroke="rgb(0,0,0)"  stroke-width="2.0"/>
<text x="260.248068" y="243.801517" fill="rgb(255,12,12)"  stroke="rgb(255,12,12)" stroke-width="1" font-size="16" >O</text>
<text x="141.116580" y="223.371127" fill="rgb(255,12,12)"  stroke="rgb(255,12,12)" stroke-width="1" font-size="16" >O</text>
<text x="173.406147" y="191.508913" fill="rgb(102,102,102)"  stroke="rgb(102,102,102)" stroke-width="1" font-size="16" >CH</text>
<text x="197.406147" y="195.188913" fill="rgb(102,102,102)"  stroke="rgb(102,102,102)" stroke-width="1" font-size="13" >2</text>
<text x="159.370065" y="233.760126" fill="rgb(102,102,102)"  stroke="rgb(102,102,102)" stroke-width="1" font-size="16" >CH</text>
<text x="183.370065" y="237.440126" fill="rgb(102,102,102)"  stroke="rgb(102,102,102)" stroke-width="1" font-size="13" >2</text>
<text x="72.482038" y="222.908583" fill="rgb(102,102,102)"  stroke="rgb(102,102,102)" stroke-width="1" font-size="16" >CH</text>
<text x="96.482038" y="226.588583" fill="rgb(102,102,102)"  stroke="rgb(102,102,102)" stroke-width="1" font-size="13" >3</text>
<text x="14.000000" y="158.847761" fill="rgb(102,102,102)"  stroke="rgb(102,102,102)" stroke-width="1" font-size="16" >H</text>
<text x="26.000000" y="162.527761" fill="rgb(102,102,102)"  stroke="rgb(102,102,102)" stroke-width="1" font-size="13" >3</text>
<text x="32.500000" y="158.847761" fill="rgb(102,102,102)"  stroke="rgb(102,102,102)" stroke-width="1" font-size="16" >C</text>
<text x="158.865706" y="191.337912" fill="rgb(102,102,102)"  stroke="rgb(102,102,102)" stroke-width="1" font-size="16" >H</text>
<text x="170.865706" y="195.017912" fill="rgb(102,102,102)"  stroke="rgb(102,102,102)" stroke-width="1" font-size="13" >3</text>
<text x="177.365706" y="191.337912" fill="rgb(102,102,102)"  stroke="rgb(102,102,102)" stroke-width="1" font-size="16" >C</text>
<text x="158.890936" y="71.082304" fill="rgb(102,102,102)"  stroke="rgb(102,102,102)" stroke-width="1" font-size="16" >H</text>
<text x="170.890936" y="74.762304" fill="rgb(102,102,102)"  stroke="rgb(102,102,102)" stroke-width="1" font-size="13" >3</text>
<text x="177.390936" y="71.082304" fill="rgb(102,102,102)"  stroke="rgb(102,102,102)" stroke-width="1" font-size="16" >C</text>
<text x="224.923789" y="56.104316" fill="rgb(255,12,12)"  stroke="rgb(255,12,12)" stroke-width="1" font-size="16" >O</text>
<text x="263.923183" y="270.743953" fill="rgb(191,191,191)"  stroke="rgb(191,191,191)" stroke-width="1" font-size="16" >H</text>
<text x="250.879467" y="48.000000" fill="rgb(191,191,191)"  stroke="rgb(191,191,191)" stroke-width="1" font-size="16" >H</text>
</svg>
</g>
<text font-size="18.000000" fill ="black" font-family="sans-serif"
x="10.000000" y="20.000000" ></text>
</svg>
