<?xml version="1.0"?>
<svg version="1.1" id="topsvg"
xmlns="http://www.w3.org/2000/svg" xmlns:xlink="http://www.w3.org/1999/xlink"
xmlns:cml="http://www.xml-cml.org/schema" x="0" y="0" width="200px" height="200px" viewBox="0 0 100 100">
<title> - Open Babel Depiction</title>
<rect x="0" y="0" width="100" height="100" fill="white"/>
<g transform="translate(0,0)">
<svg width="100" height="100" x="0" y="0" viewBox="0 0 219.365 354.771"
font-family="sans-serif" stroke="rgb(0,0,0)" stroke-width="2"  stroke-linecap="round">
<line x1="97.9" y1="289.8" x2="124.7" y2="274.7" stroke="rgb(0,0,0)"  stroke-width="2.0"/>
<line x1="124.7" y1="274.7" x2="116.7" y2="302.3" stroke="rgb(0,0,0)"  stroke-width="2.0"/>
<line x1="144.0" y1="212.7" x2="144.1" y2="173.4" stroke="rgb(0,0,0)"  stroke-width="2.0"/>
<line x1="77.5" y1="66.1" x2="78.0" y2="94.5" stroke="rgb(0,0,0)"  stroke-width="2.0"/>
<line x1="71.5" y1="66.1" x2="72.0" y2="94.6" stroke="rgb(0,0,0)"  stroke-width="2.0"/>
<line x1="144.2" y1="93.7" x2="143.9" y2="66.1" stroke="rgb(0,0,0)"  stroke-width="2.0"/>
<line x1="137.6" y1="98.3" x2="136.8" y2="96.9" stroke="rgb(0,0,0)"  stroke-width="1.0"/>
<line x1="132.3" y1="102.0" x2="130.9" y2="99.5" stroke="rgb(0,0,0)"  stroke-width="1.0"/>
<line x1="127.0" y1="105.7" x2="125.0" y2="102.0" stroke="rgb(0,0,0)"  stroke-width="1.0"/>
<line x1="121.7" y1="109.3" x2="119.1" y2="104.6" stroke="rgb(0,0,0)"  stroke-width="1.0"/>
<line x1="116.5" y1="113.0" x2="113.2" y2="107.1" stroke="rgb(0,0,0)"  stroke-width="1.0"/>
<line x1="111.2" y1="116.7" x2="107.3" y2="109.7" stroke="rgb(0,0,0)"  stroke-width="1.0"/>
<line x1="108.4" y1="144.7" x2="110.0" y2="144.7" stroke="rgb(0,0,0)"  stroke-width="1.0"/>
<line x1="107.7" y1="138.4" x2="110.6" y2="138.4" stroke="rgb(0,0,0)"  stroke-width="1.0"/>
<line x1="107.1" y1="132.1" x2="111.3" y2="132.1" stroke="rgb(0,0,0)"  stroke-width="1.0"/>
<line x1="106.5" y1="125.8" x2="111.9" y2="125.8" stroke="rgb(0,0,0)"  stroke-width="1.0"/>
<line x1="105.9" y1="119.5" x2="112.6" y2="119.5" stroke="rgb(0,0,0)"  stroke-width="1.0"/>
<line x1="105.2" y1="113.2" x2="113.2" y2="113.2" stroke="rgb(0,0,0)"  stroke-width="1.0"/>
<line x1="109.2" y1="152.6" x2="109.1" y2="180.4" stroke="rgb(0,0,0)"  stroke-width="2.0"/>
<line x1="108.5" y1="106.9" x2="110.1" y2="106.9" stroke="rgb(0,0,0)"  stroke-width="1.0"/>
<line x1="107.9" y1="101.9" x2="110.8" y2="101.9" stroke="rgb(0,0,0)"  stroke-width="1.0"/>
<line x1="107.4" y1="96.9" x2="111.5" y2="96.9" stroke="rgb(0,0,0)"  stroke-width="1.0"/>
<line x1="106.8" y1="91.8" x2="112.2" y2="91.9" stroke="rgb(0,0,0)"  stroke-width="1.0"/>
<line x1="106.2" y1="86.8" x2="112.9" y2="86.9" stroke="rgb(0,0,0)"  stroke-width="1.0"/>
<line x1="105.6" y1="81.8" x2="113.6" y2="81.9" stroke="rgb(0,0,0)"  stroke-width="1.0"/>
<line x1="155.0" y1="46.5" x2="154.9" y2="46.6" stroke="rgb(0,0,0)"  stroke-width="2.0"/>
<line x1="122.4" y1="228.4" x2="144.0" y2="212.7" stroke="rgb(0,0,0)"  stroke-width="2.0"/>
<line x1="128.3" y1="233.1" x2="143.4" y2="222.0" stroke="rgb(0,0,0)"  stroke-width="2.0"/>
<line x1="144.0" y1="212.7" x2="166.0" y2="228.6" stroke="rgb(0,0,0)"  stroke-width="2.0"/>
<line x1="172.7" y1="248.6" x2="164.7" y2="274.7" stroke="rgb(0,0,0)"  stroke-width="2.0"/>
<line x1="164.7" y1="274.7" x2="124.7" y2="274.7" stroke="rgb(0,0,0)"  stroke-width="2.0"/>
<line x1="124.7" y1="274.7" x2="115.9" y2="248.5" stroke="rgb(0,0,0)"  stroke-width="2.0"/>
<line x1="40.0" y1="153.8" x2="75.0" y2="172.0" stroke="rgb(0,0,0)"  stroke-width="2.0"/>
<line x1="75.0" y1="172.0" x2="109.2" y2="152.6" stroke="rgb(0,0,0)"  stroke-width="2.0"/>
<line x1="109.2" y1="152.6" x2="109.2" y2="113.2" stroke="rgb(0,0,0)"  stroke-width="2.0"/>
<line x1="109.2" y1="113.2" x2="75.0" y2="94.6" stroke="rgb(0,0,0)"  stroke-width="2.0"/>
<line x1="75.0" y1="94.6" x2="40.4" y2="113.5" stroke="rgb(0,0,0)"  stroke-width="2.0"/>
<line x1="40.4" y1="113.5" x2="40.0" y2="153.8" stroke="rgb(0,0,0)"  stroke-width="2.0"/>
<line x1="47.6" y1="119.6" x2="47.3" y2="147.8" stroke="rgb(0,0,0)"  stroke-width="2.0"/>
<line x1="144.2" y1="93.7" x2="109.2" y2="113.2" stroke="rgb(0,0,0)"  stroke-width="2.0"/>
<line x1="109.2" y1="152.6" x2="144.1" y2="173.4" stroke="rgb(0,0,0)"  stroke-width="2.0"/>
<line x1="144.1" y1="173.4" x2="179.4" y2="153.9" stroke="rgb(0,0,0)"  stroke-width="2.0"/>
<line x1="179.4" y1="153.9" x2="179.2" y2="112.9" stroke="rgb(0,0,0)"  stroke-width="2.0"/>
<line x1="179.2" y1="112.9" x2="144.2" y2="93.7" stroke="rgb(0,0,0)"  stroke-width="2.0"/>
<text x="60.578308" y="304.180694" fill="rgb(102,102,102)"  stroke="rgb(102,102,102)" stroke-width="1" font-size="16" >H</text>
<text x="72.578308" y="307.860694" fill="rgb(102,102,102)"  stroke="rgb(102,102,102)" stroke-width="1" font-size="13" >3</text>
<text x="79.078308" y="304.180694" fill="rgb(102,102,102)"  stroke="rgb(102,102,102)" stroke-width="1" font-size="16" >C</text>
<text x="105.740813" y="244.198882" fill="rgb(12,12,255)"  stroke="rgb(12,12,255)" stroke-width="1" font-size="16" >N</text>
<text x="170.563001" y="244.198882" fill="rgb(255,12,12)"  stroke="rgb(255,12,12)" stroke-width="1" font-size="16" >O</text>
<text x="87.111233" y="322.770506" fill="rgb(102,102,102)"  stroke="rgb(102,102,102)" stroke-width="1" font-size="16" >H</text>
<text x="99.111233" y="326.450506" fill="rgb(102,102,102)"  stroke="rgb(102,102,102)" stroke-width="1" font-size="13" >3</text>
<text x="105.611233" y="322.770506" fill="rgb(102,102,102)"  stroke="rgb(102,102,102)" stroke-width="1" font-size="16" >C</text>
<text x="68.319038" y="61.100149" fill="rgb(255,12,12)"  stroke="rgb(255,12,12)" stroke-width="1" font-size="16" >O</text>
<text x="105.819564" y="74.381247" fill="rgb(102,102,102)"  stroke="rgb(102,102,102)" stroke-width="1" font-size="16" >CH</text>
<text x="129.819564" y="78.061247" fill="rgb(102,102,102)"  stroke="rgb(102,102,102)" stroke-width="1" font-size="13" >3</text>
<text x="137.816620" y="61.100149" fill="rgb(255,12,12)"  stroke="rgb(255,12,12)" stroke-width="1" font-size="16" >O</text>
<text x="103.069159" y="201.431139" fill="rgb(191,191,191)"  stroke="rgb(191,191,191)" stroke-width="1" font-size="16" >H</text>
<text x="160.057336" y="48.000000" fill="rgb(191,191,191)"  stroke="rgb(191,191,191)" stroke-width="1" font-size="16" >H</text>
</svg>
</g>
<text font-size="18.000000" fill ="black" font-family="sans-serif"
x="10.000000" y="20.000000" ></text>
</svg>
