<?xml version="1.0"?>
<svg version="1.1" id="topsvg"
xmlns="http://www.w3.org/2000/svg" xmlns:xlink="http://www.w3.org/1999/xlink"
xmlns:cml="http://www.xml-cml.org/schema" x="0" y="0" width="200px" height="200px" viewBox="0 0 100 100">
<title> - Open Babel Depiction</title>
<rect x="0" y="0" width="100" height="100" fill="white"/>
<g transform="translate(0,0)">
<svg width="100" height="100" x="0" y="0" viewBox="0 0 287.311 243.245"
font-family="sans-serif" stroke="rgb(0,0,0)" stroke-width="2"  stroke-linecap="round">
<polygon points="178.339 138.058 145.876 158.305 142.375 151.112 " stroke-width="2" fill="rgb(0,0,0)"  stroke="rgb(0,0,0)" />
<line x1="172.5" y1="96.3" x2="173.3" y2="95.0" stroke="rgb(0,0,0)"  stroke-width="1.0"/>
<line x1="166.6" y1="93.6" x2="168.1" y2="91.1" stroke="rgb(0,0,0)"  stroke-width="1.0"/>
<line x1="160.7" y1="90.9" x2="162.9" y2="87.3" stroke="rgb(0,0,0)"  stroke-width="1.0"/>
<line x1="154.9" y1="88.2" x2="157.6" y2="83.5" stroke="rgb(0,0,0)"  stroke-width="1.0"/>
<line x1="149.0" y1="85.4" x2="152.4" y2="79.6" stroke="rgb(0,0,0)"  stroke-width="1.0"/>
<line x1="143.1" y1="82.7" x2="147.2" y2="75.8" stroke="rgb(0,0,0)"  stroke-width="1.0"/>
<line x1="208.0" y1="79.7" x2="208.1" y2="53.0" stroke="rgb(0,0,0)"  stroke-width="2.0"/>
<line x1="214.0" y1="79.7" x2="214.1" y2="53.0" stroke="rgb(0,0,0)"  stroke-width="2.0"/>
<line x1="49.7" y1="90.1" x2="73.7" y2="75.9" stroke="rgb(0,0,0)"  stroke-width="2.0"/>
<line x1="52.7" y1="95.2" x2="76.7" y2="81.1" stroke="rgb(0,0,0)"  stroke-width="2.0"/>
<line x1="75.2" y1="78.5" x2="109.3" y2="98.6" stroke="rgb(0,0,0)"  stroke-width="2.0"/>
<line x1="145.1" y1="79.3" x2="109.3" y2="98.6" stroke="rgb(0,0,0)"  stroke-width="2.0"/>
<line x1="121.9" y1="141.5" x2="145.4" y2="152.0" stroke="rgb(0,0,0)"  stroke-width="2.0"/>
<line x1="119.4" y1="146.9" x2="142.9" y2="157.4" stroke="rgb(0,0,0)"  stroke-width="2.0"/>
<line x1="217.2" y1="190.4" x2="212.2" y2="157.3" stroke="rgb(0,0,0)"  stroke-width="2.0"/>
<line x1="179.8" y1="99.8" x2="178.3" y2="138.1" stroke="rgb(0,0,0)"  stroke-width="2.0"/>
<line x1="178.3" y1="138.1" x2="212.2" y2="157.3" stroke="rgb(0,0,0)"  stroke-width="2.0"/>
<line x1="212.2" y1="157.3" x2="247.3" y2="139.3" stroke="rgb(0,0,0)"  stroke-width="2.0"/>
<line x1="247.3" y1="139.3" x2="247.3" y2="98.2" stroke="rgb(0,0,0)"  stroke-width="2.0"/>
<line x1="247.3" y1="98.2" x2="211.0" y2="79.7" stroke="rgb(0,0,0)"  stroke-width="2.0"/>
<line x1="211.0" y1="79.7" x2="179.8" y2="99.8" stroke="rgb(0,0,0)"  stroke-width="2.0"/>
<text x="205.188918" y="48.000000" fill="rgb(255,12,12)"  stroke="rgb(255,12,12)" stroke-width="1" font-size="16" >O</text>
<text x="14.000000" y="107.241515" fill="rgb(102,102,102)"  stroke="rgb(102,102,102)" stroke-width="1" font-size="16" >H</text>
<text x="26.000000" y="110.921515" fill="rgb(102,102,102)"  stroke="rgb(102,102,102)" stroke-width="1" font-size="13" >2</text>
<text x="32.500000" y="107.241515" fill="rgb(102,102,102)"  stroke="rgb(102,102,102)" stroke-width="1" font-size="16" >C</text>
<text x="82.786863" y="146.892035" fill="rgb(102,102,102)"  stroke="rgb(102,102,102)" stroke-width="1" font-size="16" >H</text>
<text x="94.786863" y="150.572035" fill="rgb(102,102,102)"  stroke="rgb(102,102,102)" stroke-width="1" font-size="13" >2</text>
<text x="101.286863" y="146.892035" fill="rgb(102,102,102)"  stroke="rgb(102,102,102)" stroke-width="1" font-size="16" >C</text>
<text x="213.087787" y="211.245050" fill="rgb(191,191,191)"  stroke="rgb(191,191,191)" stroke-width="1" font-size="16" >H</text>
</svg>
</g>
<text font-size="18.000000" fill ="black" font-family="sans-serif"
x="10.000000" y="20.000000" ></text>
</svg>
