<?xml version="1.0"?>
<svg version="1.1" id="topsvg"
xmlns="http://www.w3.org/2000/svg" xmlns:xlink="http://www.w3.org/1999/xlink"
xmlns:cml="http://www.xml-cml.org/schema" x="0" y="0" width="200px" height="200px" viewBox="0 0 100 100">
<title> - Open Babel Depiction</title>
<rect x="0" y="0" width="100" height="100" fill="white"/>
<g transform="translate(0,0)">
<svg width="100" height="100" x="0" y="0" viewBox="0 0 323.339 236.917"
font-family="sans-serif" stroke="rgb(0,0,0)" stroke-width="2"  stroke-linecap="round">
<line x1="52.2" y1="192.5" x2="78.7" y2="183.0" stroke="rgb(0,0,0)"  stroke-width="2.0"/>
<line x1="135.1" y1="175.3" x2="103.9" y2="177.6" stroke="rgb(0,0,0)"  stroke-width="2.0"/>
<line x1="143.9" y1="93.2" x2="126.8" y2="86.9" stroke="rgb(0,0,0)"  stroke-width="2.0"/>
<line x1="119.1" y1="70.2" x2="120.8" y2="65.4" stroke="rgb(0,0,0)"  stroke-width="2.0"/>
<line x1="102.4" y1="78.0" x2="97.5" y2="76.2" stroke="rgb(0,0,0)"  stroke-width="2.0"/>
<line x1="110.1" y1="94.7" x2="108.3" y2="99.5" stroke="rgb(0,0,0)"  stroke-width="2.0"/>
<line x1="183.8" y1="68.2" x2="192.5" y2="52.2" stroke="rgb(0,0,0)"  stroke-width="2.0"/>
<line x1="211.7" y1="40.5" x2="216.9" y2="40.3" stroke="rgb(0,0,0)"  stroke-width="2.0"/>
<line x1="258.6" y1="94.7" x2="260.4" y2="99.6" stroke="rgb(0,0,0)"  stroke-width="2.0"/>
<line x1="266.3" y1="78.0" x2="271.2" y2="76.2" stroke="rgb(0,0,0)"  stroke-width="2.0"/>
<line x1="249.6" y1="70.3" x2="247.8" y2="65.5" stroke="rgb(0,0,0)"  stroke-width="2.0"/>
<line x1="241.9" y1="87.0" x2="224.9" y2="93.4" stroke="rgb(0,0,0)"  stroke-width="2.0"/>
<line x1="158.6" y1="156.4" x2="103.3" y2="174.5" stroke="rgb(0,0,0)"  stroke-width="2.0"/>
<line x1="158.6" y1="156.4" x2="144.4" y2="140.9" stroke="rgb(0,0,0)"  stroke-width="2.0"/>
<line x1="143.9" y1="93.2" x2="144.4" y2="140.9" stroke="rgb(0,0,0)"  stroke-width="2.0"/>
<line x1="151.1" y1="99.1" x2="151.6" y2="134.8" stroke="rgb(0,0,0)"  stroke-width="2.0"/>
<line x1="144.4" y1="140.9" x2="184.6" y2="165.0" stroke="rgb(0,0,0)"  stroke-width="2.0"/>
<line x1="184.6" y1="165.0" x2="225.1" y2="140.8" stroke="rgb(0,0,0)"  stroke-width="2.0"/>
<line x1="186.0" y1="155.7" x2="216.2" y2="137.7" stroke="rgb(0,0,0)"  stroke-width="2.0"/>
<line x1="225.1" y1="140.8" x2="224.9" y2="93.4" stroke="rgb(0,0,0)"  stroke-width="2.0"/>
<line x1="224.9" y1="93.4" x2="183.8" y2="68.2" stroke="rgb(0,0,0)"  stroke-width="2.0"/>
<line x1="216.0" y1="96.4" x2="185.2" y2="77.5" stroke="rgb(0,0,0)"  stroke-width="2.0"/>
<line x1="183.8" y1="68.2" x2="143.9" y2="93.2" stroke="rgb(0,0,0)"  stroke-width="2.0"/>
<text x="14.000000" y="204.917431" fill="rgb(102,102,102)"  stroke="rgb(102,102,102)" stroke-width="1" font-size="16" >H</text>
<text x="26.000000" y="208.597431" fill="rgb(102,102,102)"  stroke="rgb(102,102,102)" stroke-width="1" font-size="13" >3</text>
<text x="32.500000" y="204.917431" fill="rgb(102,102,102)"  stroke="rgb(102,102,102)" stroke-width="1" font-size="16" >C</text>
<text x="72.901160" y="186.589396" fill="rgb(17,127,178)"  stroke="rgb(17,127,178)" stroke-width="1" font-size="16" >Xx</text>
<text x="144.096734" y="182.378564" fill="rgb(102,102,102)"  stroke="rgb(102,102,102)" stroke-width="1" font-size="16" >CH</text>
<text x="168.096734" y="186.058564" fill="rgb(102,102,102)"  stroke="rgb(102,102,102)" stroke-width="1" font-size="13" >3</text>
<text x="108.575393" y="90.451424" fill="rgb(127,153,153)"  stroke="rgb(127,153,153)" stroke-width="1" font-size="16" >Si</text>
<text x="121.317693" y="61.168987" fill="rgb(102,102,102)"  stroke="rgb(102,102,102)" stroke-width="1" font-size="16" >CH</text>
<text x="145.317693" y="64.848987" fill="rgb(102,102,102)"  stroke="rgb(102,102,102)" stroke-width="1" font-size="13" >3</text>
<text x="59.292956" y="79.712243" fill="rgb(102,102,102)"  stroke="rgb(102,102,102)" stroke-width="1" font-size="16" >H</text>
<text x="71.292956" y="83.392243" fill="rgb(102,102,102)"  stroke="rgb(102,102,102)" stroke-width="1" font-size="13" >3</text>
<text x="77.792956" y="79.712243" fill="rgb(102,102,102)"  stroke="rgb(102,102,102)" stroke-width="1" font-size="16" >C</text>
<text x="77.833093" y="119.736980" fill="rgb(102,102,102)"  stroke="rgb(102,102,102)" stroke-width="1" font-size="16" >H</text>
<text x="89.833093" y="123.416980" fill="rgb(102,102,102)"  stroke="rgb(102,102,102)" stroke-width="1" font-size="13" >3</text>
<text x="96.333093" y="119.736980" fill="rgb(102,102,102)"  stroke="rgb(102,102,102)" stroke-width="1" font-size="16" >C</text>
<text x="192.748363" y="48.779784" fill="rgb(255,12,12)"  stroke="rgb(255,12,12)" stroke-width="1" font-size="16" >O</text>
<text x="225.930354" y="48.000000" fill="rgb(102,102,102)"  stroke="rgb(102,102,102)" stroke-width="1" font-size="16" >CH</text>
<text x="249.930354" y="51.680000" fill="rgb(102,102,102)"  stroke="rgb(102,102,102)" stroke-width="1" font-size="13" >3</text>
<text x="248.097410" y="90.516926" fill="rgb(127,153,153)"  stroke="rgb(127,153,153)" stroke-width="1" font-size="16" >Si</text>
<text x="260.955118" y="119.758814" fill="rgb(102,102,102)"  stroke="rgb(102,102,102)" stroke-width="1" font-size="16" >CH</text>
<text x="284.955118" y="123.438814" fill="rgb(102,102,102)"  stroke="rgb(102,102,102)" stroke-width="1" font-size="13" >3</text>
<text x="279.339298" y="79.659218" fill="rgb(102,102,102)"  stroke="rgb(102,102,102)" stroke-width="1" font-size="16" >CH</text>
<text x="303.339298" y="83.339218" fill="rgb(102,102,102)"  stroke="rgb(102,102,102)" stroke-width="1" font-size="13" >3</text>
<text x="217.239702" y="61.275038" fill="rgb(102,102,102)"  stroke="rgb(102,102,102)" stroke-width="1" font-size="16" >H</text>
<text x="229.239702" y="64.955038" fill="rgb(102,102,102)"  stroke="rgb(102,102,102)" stroke-width="1" font-size="13" >3</text>
<text x="235.739702" y="61.275038" fill="rgb(102,102,102)"  stroke="rgb(102,102,102)" stroke-width="1" font-size="16" >C</text>
</svg>
</g>
<text font-size="18.000000" fill ="black" font-family="sans-serif"
x="10.000000" y="20.000000" ></text>
</svg>
