<?xml version="1.0"?>
<svg version="1.1" id="topsvg"
xmlns="http://www.w3.org/2000/svg" xmlns:xlink="http://www.w3.org/1999/xlink"
xmlns:cml="http://www.xml-cml.org/schema" x="0" y="0" width="200px" height="200px" viewBox="0 0 100 100">
<title> - Open Babel Depiction</title>
<rect x="0" y="0" width="100" height="100" fill="white"/>
<g transform="translate(0,0)">
<svg width="100" height="100" x="0" y="0" viewBox="0 0 254.434 362.314"
font-family="sans-serif" stroke="rgb(0,0,0)" stroke-width="2"  stroke-linecap="round">
<line x1="133.8" y1="296.5" x2="158.1" y2="283.0" stroke="rgb(0,0,0)"  stroke-width="2.0"/>
<line x1="158.1" y1="283.0" x2="150.5" y2="309.8" stroke="rgb(0,0,0)"  stroke-width="2.0"/>
<line x1="117.6" y1="244.2" x2="132.3" y2="244.2" stroke="rgb(0,0,0)"  stroke-width="2.0"/>
<polygon points="145.031592 161.837077 111.812651 180.657121 108.620130 173.321741 " stroke-width="2.000000" fill="rgb(0,0,0)"  stroke="rgb(0,0,0)" />
<line x1="138.7" y1="117.8" x2="139.6" y2="116.4" stroke="rgb(0,0,0)"  stroke-width="1.0"/>
<line x1="133.1" y1="115.1" x2="134.6" y2="112.6" stroke="rgb(0,0,0)"  stroke-width="1.0"/>
<line x1="127.4" y1="112.3" x2="129.6" y2="108.8" stroke="rgb(0,0,0)"  stroke-width="1.0"/>
<line x1="121.7" y1="109.6" x2="124.6" y2="105.0" stroke="rgb(0,0,0)"  stroke-width="1.0"/>
<line x1="116.0" y1="106.8" x2="119.5" y2="101.1" stroke="rgb(0,0,0)"  stroke-width="1.0"/>
<line x1="110.4" y1="104.1" x2="114.5" y2="97.3" stroke="rgb(0,0,0)"  stroke-width="1.0"/>
<line x1="172.1" y1="101.0" x2="174.0" y2="73.9" stroke="rgb(0,0,0)"  stroke-width="2.0"/>
<line x1="178.1" y1="101.4" x2="180.0" y2="74.3" stroke="rgb(0,0,0)"  stroke-width="2.0"/>
<line x1="185.4" y1="174.9" x2="186.2" y2="176.3" stroke="rgb(0,0,0)"  stroke-width="1.0"/>
<line x1="190.9" y1="171.5" x2="192.2" y2="174.1" stroke="rgb(0,0,0)"  stroke-width="1.0"/>
<line x1="196.3" y1="168.1" x2="198.2" y2="171.8" stroke="rgb(0,0,0)"  stroke-width="1.0"/>
<line x1="201.8" y1="164.6" x2="204.2" y2="169.5" stroke="rgb(0,0,0)"  stroke-width="1.0"/>
<line x1="207.2" y1="161.2" x2="210.2" y2="167.2" stroke="rgb(0,0,0)"  stroke-width="1.0"/>
<line x1="212.7" y1="157.8" x2="216.2" y2="165.0" stroke="rgb(0,0,0)"  stroke-width="1.0"/>
<line x1="178.6" y1="179.2" x2="179.2" y2="224.0" stroke="rgb(0,0,0)"  stroke-width="2.0"/>
<line x1="49.8" y1="51.5" x2="74.2" y2="37.4" stroke="rgb(0,0,0)"  stroke-width="2.0"/>
<line x1="52.8" y1="56.7" x2="77.2" y2="42.6" stroke="rgb(0,0,0)"  stroke-width="2.0"/>
<line x1="75.7" y1="40.0" x2="109.5" y2="60.3" stroke="rgb(0,0,0)"  stroke-width="2.0"/>
<line x1="88.0" y1="163.4" x2="111.5" y2="174.3" stroke="rgb(0,0,0)"  stroke-width="2.0"/>
<line x1="85.5" y1="168.8" x2="109.0" y2="179.7" stroke="rgb(0,0,0)"  stroke-width="2.0"/>
<line x1="112.4" y1="100.7" x2="109.5" y2="60.3" stroke="rgb(0,0,0)"  stroke-width="2.0"/>
<line x1="156.4" y1="237.6" x2="179.2" y2="224.0" stroke="rgb(0,0,0)"  stroke-width="2.0"/>
<line x1="179.2" y1="224.0" x2="199.3" y2="238.6" stroke="rgb(0,0,0)"  stroke-width="2.0"/>
<line x1="206.0" y1="258.7" x2="198.4" y2="283.3" stroke="rgb(0,0,0)"  stroke-width="2.0"/>
<line x1="198.4" y1="283.3" x2="158.1" y2="283.0" stroke="rgb(0,0,0)"  stroke-width="2.0"/>
<line x1="158.1" y1="283.0" x2="149.4" y2="256.6" stroke="rgb(0,0,0)"  stroke-width="2.0"/>
<line x1="145.0" y1="161.8" x2="178.6" y2="179.2" stroke="rgb(0,0,0)"  stroke-width="2.0"/>
<line x1="178.6" y1="179.2" x2="214.4" y2="161.4" stroke="rgb(0,0,0)"  stroke-width="2.0"/>
<line x1="214.4" y1="161.4" x2="214.0" y2="120.5" stroke="rgb(0,0,0)"  stroke-width="2.0"/>
<line x1="214.0" y1="120.5" x2="175.1" y2="101.2" stroke="rgb(0,0,0)"  stroke-width="2.0"/>
<line x1="175.1" y1="101.2" x2="145.8" y2="121.2" stroke="rgb(0,0,0)"  stroke-width="2.0"/>
<line x1="145.8" y1="121.2" x2="145.0" y2="161.8" stroke="rgb(0,0,0)"  stroke-width="2.0"/>
<text x="96.473750" y="310.861222" fill="rgb(102,102,102)"  stroke="rgb(102,102,102)" stroke-width="1" font-size="16" >H</text>
<text x="108.473750" y="314.541222" fill="rgb(102,102,102)"  stroke="rgb(102,102,102)" stroke-width="1" font-size="13" >3</text>
<text x="114.973750" y="310.861222" fill="rgb(102,102,102)"  stroke="rgb(102,102,102)" stroke-width="1" font-size="16" >C</text>
<text x="139.262762" y="252.275883" fill="rgb(12,12,255)"  stroke="rgb(12,12,255)" stroke-width="1" font-size="16" >N</text>
<text x="203.863884" y="254.273080" fill="rgb(255,12,12)"  stroke="rgb(255,12,12)" stroke-width="1" font-size="16" >O</text>
<text x="121.001909" y="330.314404" fill="rgb(102,102,102)"  stroke="rgb(102,102,102)" stroke-width="1" font-size="16" >H</text>
<text x="133.001909" y="333.994404" fill="rgb(102,102,102)"  stroke="rgb(102,102,102)" stroke-width="1" font-size="13" >3</text>
<text x="139.501909" y="330.314404" fill="rgb(102,102,102)"  stroke="rgb(102,102,102)" stroke-width="1" font-size="16" >C</text>
<text x="78.636067" y="252.109226" fill="rgb(102,102,102)"  stroke="rgb(102,102,102)" stroke-width="1" font-size="16" >H</text>
<text x="90.636067" y="255.789226" fill="rgb(102,102,102)"  stroke="rgb(102,102,102)" stroke-width="1" font-size="13" >3</text>
<text x="97.136067" y="252.109226" fill="rgb(102,102,102)"  stroke="rgb(102,102,102)" stroke-width="1" font-size="16" >C</text>
<text x="171.895293" y="69.125129" fill="rgb(255,12,12)"  stroke="rgb(255,12,12)" stroke-width="1" font-size="16" >O</text>
<text x="14.000000" y="68.619782" fill="rgb(102,102,102)"  stroke="rgb(102,102,102)" stroke-width="1" font-size="16" >H</text>
<text x="26.000000" y="72.299782" fill="rgb(102,102,102)"  stroke="rgb(102,102,102)" stroke-width="1" font-size="13" >2</text>
<text x="32.500000" y="68.619782" fill="rgb(102,102,102)"  stroke="rgb(102,102,102)" stroke-width="1" font-size="16" >C</text>
<text x="48.979171" y="168.619405" fill="rgb(102,102,102)"  stroke="rgb(102,102,102)" stroke-width="1" font-size="16" >H</text>
<text x="60.979171" y="172.299405" fill="rgb(102,102,102)"  stroke="rgb(102,102,102)" stroke-width="1" font-size="13" >2</text>
<text x="67.479171" y="168.619405" fill="rgb(102,102,102)"  stroke="rgb(102,102,102)" stroke-width="1" font-size="16" >C</text>
</svg>
</g>
<text font-size="18.000000" fill ="black" font-family="sans-serif"
x="10.000000" y="20.000000" ></text>
</svg>
