<?xml version="1.0"?>
<svg version="1.1" id="topsvg"
xmlns="http://www.w3.org/2000/svg" xmlns:xlink="http://www.w3.org/1999/xlink"
xmlns:cml="http://www.xml-cml.org/schema" x="0" y="0" width="200px" height="200px" viewBox="0 0 100 100">
<title> - Open Babel Depiction</title>
<rect x="0" y="0" width="100" height="100" fill="white"/>
<g transform="translate(0,0)">
<svg width="100" height="100" x="0" y="0" viewBox="0 0 288.423 355.027"
font-family="sans-serif" stroke="rgb(0,0,0)" stroke-width="2"  stroke-linecap="round">
<line x1="167.2" y1="290.4" x2="193.8" y2="275.4" stroke="rgb(0,0,0)"  stroke-width="2.0"/>
<line x1="193.8" y1="275.4" x2="186.0" y2="302.5" stroke="rgb(0,0,0)"  stroke-width="2.0"/>
<line x1="213.7" y1="213.5" x2="213.8" y2="172.6" stroke="rgb(0,0,0)"  stroke-width="2.0"/>
<line x1="178.6" y1="145.2" x2="180.2" y2="145.1" stroke="rgb(0,0,0)"  stroke-width="1.0"/>
<line x1="177.9" y1="138.8" x2="180.8" y2="138.8" stroke="rgb(0,0,0)"  stroke-width="1.0"/>
<line x1="177.2" y1="132.4" x2="181.4" y2="132.4" stroke="rgb(0,0,0)"  stroke-width="1.0"/>
<line x1="176.6" y1="126.1" x2="182.0" y2="126.0" stroke="rgb(0,0,0)"  stroke-width="1.0"/>
<line x1="175.9" y1="119.7" x2="182.6" y2="119.7" stroke="rgb(0,0,0)"  stroke-width="1.0"/>
<line x1="175.2" y1="113.3" x2="183.2" y2="113.3" stroke="rgb(0,0,0)"  stroke-width="1.0"/>
<line x1="179.4" y1="153.1" x2="178.8" y2="180.7" stroke="rgb(0,0,0)"  stroke-width="2.0"/>
<line x1="75.3" y1="173.0" x2="75.5" y2="201.8" stroke="rgb(0,0,0)"  stroke-width="2.0"/>
<line x1="75.3" y1="173.0" x2="51.2" y2="159.1" stroke="rgb(0,0,0)"  stroke-width="2.0"/>
<line x1="75.3" y1="173.0" x2="109.7" y2="153.3" stroke="rgb(0,0,0)"  stroke-width="2.0"/>
<line x1="178.4" y1="107.0" x2="180.0" y2="107.0" stroke="rgb(0,0,0)"  stroke-width="1.0"/>
<line x1="177.8" y1="102.0" x2="180.6" y2="102.0" stroke="rgb(0,0,0)"  stroke-width="1.0"/>
<line x1="177.1" y1="97.0" x2="181.3" y2="97.0" stroke="rgb(0,0,0)"  stroke-width="1.0"/>
<line x1="176.5" y1="92.0" x2="181.9" y2="92.0" stroke="rgb(0,0,0)"  stroke-width="1.0"/>
<line x1="175.8" y1="87.0" x2="182.5" y2="87.0" stroke="rgb(0,0,0)"  stroke-width="1.0"/>
<line x1="175.2" y1="82.0" x2="183.2" y2="82.0" stroke="rgb(0,0,0)"  stroke-width="1.0"/>
<line x1="207.3" y1="98.6" x2="206.5" y2="97.2" stroke="rgb(0,0,0)"  stroke-width="1.0"/>
<line x1="202.1" y1="102.2" x2="200.7" y2="99.7" stroke="rgb(0,0,0)"  stroke-width="1.0"/>
<line x1="196.8" y1="105.9" x2="194.8" y2="102.2" stroke="rgb(0,0,0)"  stroke-width="1.0"/>
<line x1="191.6" y1="109.5" x2="189.0" y2="104.8" stroke="rgb(0,0,0)"  stroke-width="1.0"/>
<line x1="186.4" y1="113.1" x2="183.1" y2="107.3" stroke="rgb(0,0,0)"  stroke-width="1.0"/>
<line x1="181.2" y1="116.8" x2="177.3" y2="109.8" stroke="rgb(0,0,0)"  stroke-width="1.0"/>
<line x1="213.8" y1="94.0" x2="213.4" y2="66.3" stroke="rgb(0,0,0)"  stroke-width="2.0"/>
<line x1="224.4" y1="46.7" x2="224.5" y2="46.7" stroke="rgb(0,0,0)"  stroke-width="2.0"/>
<line x1="192.4" y1="228.9" x2="213.7" y2="213.5" stroke="rgb(0,0,0)"  stroke-width="2.0"/>
<line x1="198.3" y1="233.5" x2="213.1" y2="222.9" stroke="rgb(0,0,0)"  stroke-width="2.0"/>
<line x1="213.7" y1="213.5" x2="235.4" y2="229.0" stroke="rgb(0,0,0)"  stroke-width="2.0"/>
<line x1="242.3" y1="249.0" x2="234.5" y2="275.4" stroke="rgb(0,0,0)"  stroke-width="2.0"/>
<line x1="234.5" y1="275.4" x2="193.8" y2="275.4" stroke="rgb(0,0,0)"  stroke-width="2.0"/>
<line x1="193.8" y1="275.4" x2="185.7" y2="248.9" stroke="rgb(0,0,0)"  stroke-width="2.0"/>
<line x1="213.8" y1="172.6" x2="248.4" y2="154.1" stroke="rgb(0,0,0)"  stroke-width="2.0"/>
<line x1="248.4" y1="154.1" x2="248.4" y2="113.0" stroke="rgb(0,0,0)"  stroke-width="2.0"/>
<line x1="248.4" y1="113.0" x2="213.8" y2="94.0" stroke="rgb(0,0,0)"  stroke-width="2.0"/>
<line x1="213.8" y1="94.0" x2="179.2" y2="113.3" stroke="rgb(0,0,0)"  stroke-width="2.0"/>
<line x1="179.2" y1="113.3" x2="179.4" y2="153.1" stroke="rgb(0,0,0)"  stroke-width="2.0"/>
<line x1="179.4" y1="153.1" x2="213.8" y2="172.6" stroke="rgb(0,0,0)"  stroke-width="2.0"/>
<line x1="109.7" y1="153.3" x2="144.0" y2="172.0" stroke="rgb(0,0,0)"  stroke-width="2.0"/>
<line x1="118.4" y1="149.8" x2="142.2" y2="162.8" stroke="rgb(0,0,0)"  stroke-width="2.0"/>
<line x1="144.0" y1="172.0" x2="179.4" y2="153.1" stroke="rgb(0,0,0)"  stroke-width="2.0"/>
<line x1="179.2" y1="113.3" x2="144.1" y2="94.7" stroke="rgb(0,0,0)"  stroke-width="2.0"/>
<line x1="144.1" y1="94.7" x2="109.4" y2="113.0" stroke="rgb(0,0,0)"  stroke-width="2.0"/>
<line x1="109.4" y1="113.0" x2="109.7" y2="153.3" stroke="rgb(0,0,0)"  stroke-width="2.0"/>
<text x="129.869361" y="304.780075" fill="rgb(102,102,102)"  stroke="rgb(102,102,102)" stroke-width="1" font-size="16" >H</text>
<text x="141.869361" y="308.460075" fill="rgb(102,102,102)"  stroke="rgb(102,102,102)" stroke-width="1" font-size="13" >3</text>
<text x="148.369361" y="304.780075" fill="rgb(102,102,102)"  stroke="rgb(102,102,102)" stroke-width="1" font-size="16" >C</text>
<text x="175.843649" y="244.494239" fill="rgb(12,12,255)"  stroke="rgb(12,12,255)" stroke-width="1" font-size="16" >N</text>
<text x="240.011782" y="244.494239" fill="rgb(255,12,12)"  stroke="rgb(255,12,12)" stroke-width="1" font-size="16" >O</text>
<text x="156.459332" y="323.027409" fill="rgb(102,102,102)"  stroke="rgb(102,102,102)" stroke-width="1" font-size="16" >H</text>
<text x="168.459332" y="326.707409" fill="rgb(102,102,102)"  stroke="rgb(102,102,102)" stroke-width="1" font-size="13" >3</text>
<text x="174.959332" y="323.027409" fill="rgb(102,102,102)"  stroke="rgb(102,102,102)" stroke-width="1" font-size="16" >C</text>
<text x="71.564422" y="222.770583" fill="rgb(102,102,102)"  stroke="rgb(102,102,102)" stroke-width="1" font-size="16" >CH</text>
<text x="95.564422" y="226.450583" fill="rgb(102,102,102)"  stroke="rgb(102,102,102)" stroke-width="1" font-size="13" >3</text>
<text x="14.000000" y="160.570484" fill="rgb(102,102,102)"  stroke="rgb(102,102,102)" stroke-width="1" font-size="16" >H</text>
<text x="26.000000" y="164.250484" fill="rgb(102,102,102)"  stroke="rgb(102,102,102)" stroke-width="1" font-size="13" >3</text>
<text x="32.500000" y="160.570484" fill="rgb(102,102,102)"  stroke="rgb(102,102,102)" stroke-width="1" font-size="16" >C</text>
<text x="175.168520" y="74.632988" fill="rgb(102,102,102)"  stroke="rgb(102,102,102)" stroke-width="1" font-size="16" >CH</text>
<text x="199.168520" y="78.312988" fill="rgb(102,102,102)"  stroke="rgb(102,102,102)" stroke-width="1" font-size="13" >3</text>
<text x="207.259605" y="61.348757" fill="rgb(255,12,12)"  stroke="rgb(255,12,12)" stroke-width="1" font-size="16" >O</text>
<text x="172.501755" y="201.716380" fill="rgb(191,191,191)"  stroke="rgb(191,191,191)" stroke-width="1" font-size="16" >H</text>
<text x="229.663471" y="48.000000" fill="rgb(191,191,191)"  stroke="rgb(191,191,191)" stroke-width="1" font-size="16" >H</text>
</svg>
</g>
<text font-size="18.000000" fill ="black" font-family="sans-serif"
x="10.000000" y="20.000000" ></text>
</svg>
