<?xml version="1.0"?>
<svg version="1.1" id="topsvg"
xmlns="http://www.w3.org/2000/svg" xmlns:xlink="http://www.w3.org/1999/xlink"
xmlns:cml="http://www.xml-cml.org/schema" x="0" y="0" width="200px" height="200px" viewBox="0 0 100 100">
<title> - Open Babel Depiction</title>
<rect x="0" y="0" width="100" height="100" fill="white"/>
<g transform="translate(0,0)">
<svg width="100" height="100" x="0" y="0" viewBox="0 0 402.183 292.122"
font-family="sans-serif" stroke="rgb(0,0,0)" stroke-width="2"  stroke-linecap="round">
<line x1="121.8" y1="155.2" x2="121.0" y2="193.4" stroke="rgb(0,0,0)"  stroke-width="2.0"/>
<line x1="121.0" y1="193.4" x2="142.1" y2="206.8" stroke="rgb(0,0,0)"  stroke-width="2.0"/>
<line x1="88.4" y1="98.3" x2="76.6" y2="94.7" stroke="rgb(0,0,0)"  stroke-width="2.0"/>
<line x1="68.0" y1="78.4" x2="67.8" y2="79.1" stroke="rgb(0,0,0)"  stroke-width="2.0"/>
<line x1="51.8" y1="87.1" x2="52.4" y2="87.3" stroke="rgb(0,0,0)"  stroke-width="2.0"/>
<line x1="60.4" y1="103.3" x2="60.6" y2="102.6" stroke="rgb(0,0,0)"  stroke-width="2.0"/>
<line x1="159.0" y1="48.1" x2="121.2" y2="78.3" stroke="rgb(0,0,0)"  stroke-width="2.0"/>
<line x1="162.3" y1="138.8" x2="161.5" y2="140.2" stroke="rgb(0,0,0)"  stroke-width="1.0"/>
<line x1="167.8" y1="141.1" x2="166.4" y2="143.6" stroke="rgb(0,0,0)"  stroke-width="1.0"/>
<line x1="173.2" y1="143.4" x2="171.2" y2="147.0" stroke="rgb(0,0,0)"  stroke-width="1.0"/>
<line x1="178.7" y1="145.7" x2="176.1" y2="150.5" stroke="rgb(0,0,0)"  stroke-width="1.0"/>
<line x1="184.2" y1="148.0" x2="180.9" y2="153.9" stroke="rgb(0,0,0)"  stroke-width="1.0"/>
<line x1="189.7" y1="150.3" x2="185.8" y2="157.3" stroke="rgb(0,0,0)"  stroke-width="1.0"/>
<line x1="247.1" y1="157.9" x2="224.6" y2="123.8" stroke="rgb(0,0,0)"  stroke-width="2.0"/>
<line x1="256.4" y1="112.6" x2="255.8" y2="112.3" stroke="rgb(0,0,0)"  stroke-width="2.0"/>
<line x1="234.2" y1="116.1" x2="224.6" y2="123.8" stroke="rgb(0,0,0)"  stroke-width="2.0"/>
<line x1="334.6" y1="144.4" x2="347.1" y2="140.7" stroke="rgb(0,0,0)"  stroke-width="2.0"/>
<line x1="341.3" y1="176.0" x2="353.2" y2="163.7" stroke="rgb(0,0,0)"  stroke-width="2.0"/>
<line x1="255.0" y1="233.1" x2="255.7" y2="191.9" stroke="rgb(0,0,0)"  stroke-width="2.0"/>
<line x1="219.5" y1="249.5" x2="253.5" y2="230.5" stroke="rgb(0,0,0)"  stroke-width="2.0"/>
<line x1="222.4" y1="254.7" x2="256.4" y2="235.7" stroke="rgb(0,0,0)"  stroke-width="2.0"/>
<line x1="187.8" y1="233.1" x2="142.1" y2="206.8" stroke="rgb(0,0,0)"  stroke-width="2.0"/>
<line x1="185.7" y1="236.7" x2="140.0" y2="210.4" stroke="rgb(0,0,0)"  stroke-width="2.0"/>
<line x1="189.9" y1="229.4" x2="144.2" y2="203.2" stroke="rgb(0,0,0)"  stroke-width="2.0"/>
<line x1="187.8" y1="233.1" x2="221.0" y2="252.1" stroke="rgb(0,0,0)"  stroke-width="2.0"/>
<line x1="190.7" y1="153.8" x2="191.1" y2="182.3" stroke="rgb(0,0,0)"  stroke-width="2.0"/>
<line x1="184.7" y1="153.8" x2="185.1" y2="182.3" stroke="rgb(0,0,0)"  stroke-width="2.0"/>
<line x1="247.1" y1="157.9" x2="268.2" y2="169.8" stroke="rgb(0,0,0)"  stroke-width="2.0"/>
<line x1="268.2" y1="169.8" x2="310.1" y2="153.1" stroke="rgb(0,0,0)"  stroke-width="2.0"/>
<line x1="309.3" y1="149.9" x2="247.1" y2="157.9" stroke="rgb(0,0,0)"  stroke-width="2.0"/>
<line x1="319.7" y1="182.3" x2="268.2" y2="169.8" stroke="rgb(0,0,0)"  stroke-width="2.0"/>
<line x1="325.6" y1="160.8" x2="328.9" y2="172.8" stroke="rgb(0,0,0)"  stroke-width="2.0"/>
<line x1="255.7" y1="191.9" x2="268.2" y2="169.8" stroke="rgb(0,0,0)"  stroke-width="2.0"/>
<line x1="247.1" y1="157.9" x2="255.7" y2="191.9" stroke="rgb(0,0,0)"  stroke-width="2.0"/>
<line x1="255.7" y1="191.9" x2="319.4" y2="186.5" stroke="rgb(0,0,0)"  stroke-width="2.0"/>
<line x1="88.1" y1="136.6" x2="88.4" y2="98.3" stroke="rgb(0,0,0)"  stroke-width="2.0"/>
<line x1="95.3" y1="130.6" x2="95.6" y2="104.3" stroke="rgb(0,0,0)"  stroke-width="2.0"/>
<line x1="88.4" y1="98.3" x2="121.2" y2="78.3" stroke="rgb(0,0,0)"  stroke-width="2.0"/>
<line x1="121.2" y1="78.3" x2="154.8" y2="97.2" stroke="rgb(0,0,0)"  stroke-width="2.0"/>
<line x1="122.9" y1="87.5" x2="146.0" y2="100.6" stroke="rgb(0,0,0)"  stroke-width="2.0"/>
<line x1="154.8" y1="97.2" x2="155.4" y2="135.9" stroke="rgb(0,0,0)"  stroke-width="2.0"/>
<line x1="155.4" y1="135.9" x2="121.8" y2="155.2" stroke="rgb(0,0,0)"  stroke-width="2.0"/>
<line x1="121.8" y1="155.2" x2="88.1" y2="136.6" stroke="rgb(0,0,0)"  stroke-width="2.0"/>
<text x="58.210325" y="98.873321" fill="rgb(127,153,153)"  stroke="rgb(127,153,153)" stroke-width="1" font-size="16" >Si</text>
<text x="67.593651" y="74.662996" fill="rgb(102,102,102)"  stroke="rgb(102,102,102)" stroke-width="1" font-size="16" >CH</text>
<text x="91.593651" y="78.342996" fill="rgb(102,102,102)"  stroke="rgb(102,102,102)" stroke-width="1" font-size="13" >3</text>
<text x="14.000000" y="91.489995" fill="rgb(102,102,102)"  stroke="rgb(102,102,102)" stroke-width="1" font-size="16" >H</text>
<text x="26.000000" y="95.169995" fill="rgb(102,102,102)"  stroke="rgb(102,102,102)" stroke-width="1" font-size="13" >3</text>
<text x="32.500000" y="91.489995" fill="rgb(102,102,102)"  stroke="rgb(102,102,102)" stroke-width="1" font-size="16" >C</text>
<text x="30.826998" y="123.083646" fill="rgb(102,102,102)"  stroke="rgb(102,102,102)" stroke-width="1" font-size="16" >H</text>
<text x="42.826998" y="126.763646" fill="rgb(102,102,102)"  stroke="rgb(102,102,102)" stroke-width="1" font-size="13" >3</text>
<text x="49.326998" y="123.083646" fill="rgb(102,102,102)"  stroke="rgb(102,102,102)" stroke-width="1" font-size="16" >C</text>
<text x="163.163918" y="48.000000" fill="rgb(17,127,178)"  stroke="rgb(17,127,178)" stroke-width="1" font-size="16" >Xx</text>
<text x="238.298186" y="115.930653" fill="rgb(255,12,12)"  stroke="rgb(255,12,12)" stroke-width="1" font-size="16" >O</text>
<text x="263.923819" y="125.014903" fill="rgb(102,102,102)"  stroke="rgb(102,102,102)" stroke-width="1" font-size="16" >CH</text>
<text x="287.923819" y="128.694903" fill="rgb(102,102,102)"  stroke="rgb(102,102,102)" stroke-width="1" font-size="13" >3</text>
<text x="316.158490" y="156.221291" fill="rgb(17,127,178)"  stroke="rgb(17,127,178)" stroke-width="1" font-size="16" >Xx</text>
<text x="326.333660" y="193.383443" fill="rgb(17,127,178)"  stroke="rgb(17,127,178)" stroke-width="1" font-size="16" >Xx</text>
<text x="356.183358" y="162.275770" fill="rgb(17,127,178)"  stroke="rgb(17,127,178)" stroke-width="1" font-size="16" >Xx</text>
<text x="184.299313" y="203.292844" fill="rgb(102,102,102)"  stroke="rgb(102,102,102)" stroke-width="1" font-size="16" >CH</text>
<text x="208.299313" y="206.972844" fill="rgb(102,102,102)"  stroke="rgb(102,102,102)" stroke-width="1" font-size="13" >2</text>
<text x="355.492759" y="144.891922" fill="rgb(102,102,102)"  stroke="rgb(102,102,102)" stroke-width="1" font-size="16" >CH</text>
<text x="379.492759" y="148.571922" fill="rgb(102,102,102)"  stroke="rgb(102,102,102)" stroke-width="1" font-size="13" >3</text>
</svg>
</g>
<text font-size="18.000000" fill ="black" font-family="sans-serif"
x="10.000000" y="20.000000" ></text>
</svg>
