<?xml version="1.0"?>
<svg version="1.1" id="topsvg"
xmlns="http://www.w3.org/2000/svg" xmlns:xlink="http://www.w3.org/1999/xlink"
xmlns:cml="http://www.xml-cml.org/schema" x="0" y="0" width="200px" height="200px" viewBox="0 0 100 100">
<title> - Open Babel Depiction</title>
<rect x="0" y="0" width="100" height="100" fill="white"/>
<g transform="translate(0,0)">
<svg width="100" height="100" x="0" y="0" viewBox="0 0 293.657 209.962"
font-family="sans-serif" stroke="rgb(0,0,0)" stroke-width="2"  stroke-linecap="round">
<line x1="155.9" y1="107.9" x2="152.7" y2="112.3" stroke="rgb(0,0,0)"  stroke-width="2.0"/>
<line x1="180.4" y1="98.4" x2="169.7" y2="157.2" stroke="rgb(0,0,0)"  stroke-width="2.0"/>
<line x1="184.3" y1="98.5" x2="183.5" y2="92.1" stroke="rgb(0,0,0)"  stroke-width="2.0"/>
<line x1="123.6" y1="123.9" x2="99.4" y2="73.6" stroke="rgb(0,0,0)"  stroke-width="2.0"/>
<line x1="102.4" y1="51.8" x2="111.7" y2="44.8" stroke="rgb(0,0,0)"  stroke-width="2.0"/>
<line x1="106.0" y1="56.6" x2="115.3" y2="49.7" stroke="rgb(0,0,0)"  stroke-width="2.0"/>
<line x1="61.5" y1="55.0" x2="81.2" y2="57.4" stroke="rgb(0,0,0)"  stroke-width="2.0"/>
<line x1="60.8" y1="61.0" x2="80.5" y2="63.4" stroke="rgb(0,0,0)"  stroke-width="2.0"/>
<line x1="61.1" y1="58.0" x2="49.9" y2="48.4" stroke="rgb(0,0,0)"  stroke-width="2.0"/>
<line x1="49.7" y1="72.1" x2="58.5" y2="56.5" stroke="rgb(0,0,0)"  stroke-width="2.0"/>
<line x1="54.9" y1="75.1" x2="63.7" y2="59.5" stroke="rgb(0,0,0)"  stroke-width="2.0"/>
<line x1="245.6" y1="95.6" x2="230.3" y2="76.2" stroke="rgb(0,0,0)"  stroke-width="2.0"/>
<line x1="147.9" y1="71.8" x2="106.5" y2="64.3" stroke="rgb(0,0,0)"  stroke-width="2.0"/>
<line x1="113.5" y1="47.2" x2="119.7" y2="50.7" stroke="rgb(0,0,0)"  stroke-width="2.0"/>
<line x1="227.7" y1="70.0" x2="230.3" y2="76.2" stroke="rgb(0,0,0)"  stroke-width="2.0"/>
<line x1="230.3" y1="76.2" x2="195.4" y2="83.1" stroke="rgb(0,0,0)"  stroke-width="2.0"/>
<line x1="170.6" y1="80.8" x2="147.9" y2="71.8" stroke="rgb(0,0,0)"  stroke-width="2.0"/>
<line x1="147.9" y1="71.8" x2="156.8" y2="86.4" stroke="rgb(0,0,0)"  stroke-width="2.0"/>
<line x1="175.6" y1="92.3" x2="227.7" y2="70.0" stroke="rgb(0,0,0)"  stroke-width="2.0"/>
<text x="145.615039" y="105.444556" fill="rgb(17,127,178)"  stroke="rgb(17,127,178)" stroke-width="1" font-size="16" >Xx</text>
<text x="176.667546" y="93.610188" fill="rgb(17,127,178)"  stroke="rgb(17,127,178)" stroke-width="1" font-size="16" >Xx</text>
<text x="141.407305" y="177.961935" fill="rgb(102,102,102)"  stroke="rgb(102,102,102)" stroke-width="1" font-size="16" >H</text>
<text x="153.407305" y="181.641935" fill="rgb(102,102,102)"  stroke="rgb(102,102,102)" stroke-width="1" font-size="13" >3</text>
<text x="159.907305" y="177.961935" fill="rgb(102,102,102)"  stroke="rgb(102,102,102)" stroke-width="1" font-size="16" >C</text>
<text x="125.282031" y="143.657630" fill="rgb(102,102,102)"  stroke="rgb(102,102,102)" stroke-width="1" font-size="16" >CH</text>
<text x="149.282031" y="147.337630" fill="rgb(102,102,102)"  stroke="rgb(102,102,102)" stroke-width="1" font-size="13" >3</text>
<text x="75.756975" y="69.938073" fill="rgb(17,127,178)"  stroke="rgb(17,127,178)" stroke-width="1" font-size="16" >Xx</text>
<text x="19.872440" y="92.906103" fill="rgb(102,102,102)"  stroke="rgb(102,102,102)" stroke-width="1" font-size="16" >H</text>
<text x="31.872440" y="96.586103" fill="rgb(102,102,102)"  stroke="rgb(102,102,102)" stroke-width="1" font-size="13" >2</text>
<text x="38.372440" y="92.906103" fill="rgb(102,102,102)"  stroke="rgb(102,102,102)" stroke-width="1" font-size="16" >C</text>
<text x="14.000000" y="48.000000" fill="rgb(102,102,102)"  stroke="rgb(102,102,102)" stroke-width="1" font-size="16" >H</text>
<text x="26.000000" y="51.680000" fill="rgb(102,102,102)"  stroke="rgb(102,102,102)" stroke-width="1" font-size="13" >3</text>
<text x="32.500000" y="48.000000" fill="rgb(102,102,102)"  stroke="rgb(102,102,102)" stroke-width="1" font-size="16" >C</text>
<text x="118.949189" y="130.818632" fill="rgb(102,102,102)"  stroke="rgb(102,102,102)" stroke-width="1" font-size="16" >H</text>
<text x="130.949189" y="134.498632" fill="rgb(102,102,102)"  stroke="rgb(102,102,102)" stroke-width="1" font-size="13" >3</text>
<text x="137.449189" y="130.818632" fill="rgb(102,102,102)"  stroke="rgb(102,102,102)" stroke-width="1" font-size="16" >C</text>
<text x="181.068526" y="112.951420" fill="rgb(102,102,102)"  stroke="rgb(102,102,102)" stroke-width="1" font-size="16" >CH</text>
<text x="205.068526" y="116.631420" fill="rgb(102,102,102)"  stroke="rgb(102,102,102)" stroke-width="1" font-size="13" >3</text>
<text x="249.656874" y="113.817596" fill="rgb(102,102,102)"  stroke="rgb(102,102,102)" stroke-width="1" font-size="16" >CH</text>
<text x="273.656874" y="117.497596" fill="rgb(102,102,102)"  stroke="rgb(102,102,102)" stroke-width="1" font-size="13" >3</text>
<text x="126.995811" y="65.124293" fill="rgb(102,102,102)"  stroke="rgb(102,102,102)" stroke-width="1" font-size="16" >CH</text>
<text x="150.995811" y="68.804293" fill="rgb(102,102,102)"  stroke="rgb(102,102,102)" stroke-width="1" font-size="13" >3</text>
</svg>
</g>
<text font-size="18.000000" fill ="black" font-family="sans-serif"
x="10.000000" y="20.000000" ></text>
</svg>
