<?xml version="1.0"?>
<svg version="1.1" id="topsvg"
xmlns="http://www.w3.org/2000/svg" xmlns:xlink="http://www.w3.org/1999/xlink"
xmlns:cml="http://www.xml-cml.org/schema" x="0" y="0" width="200px" height="200px" viewBox="0 0 100 100">
<title> - Open Babel Depiction</title>
<rect x="0" y="0" width="100" height="100" fill="white"/>
<g transform="translate(0,0)">
<svg width="100" height="100" x="0" y="0" viewBox="0 0 252.837 206.926"
font-family="sans-serif" stroke="rgb(0,0,0)" stroke-width="2"  stroke-linecap="round">
<line x1="47.6" y1="72.3" x2="70.9" y2="40.0" stroke="rgb(0,0,0)"  stroke-width="2.0"/>
<line x1="70.9" y1="37.0" x2="118.1" y2="37.2" stroke="rgb(0,0,0)"  stroke-width="2.0"/>
<line x1="70.9" y1="43.0" x2="118.0" y2="43.2" stroke="rgb(0,0,0)"  stroke-width="2.0"/>
<line x1="118.1" y1="40.2" x2="135.8" y2="71.3" stroke="rgb(0,0,0)"  stroke-width="2.0"/>
<line x1="165.3" y1="123.0" x2="135.8" y2="71.3" stroke="rgb(0,0,0)"  stroke-width="2.0"/>
<line x1="161.7" y1="125.1" x2="132.2" y2="73.4" stroke="rgb(0,0,0)"  stroke-width="2.0"/>
<line x1="169.0" y1="120.9" x2="139.5" y2="69.2" stroke="rgb(0,0,0)"  stroke-width="2.0"/>
<line x1="180.7" y1="153.1" x2="177.3" y2="157.0" stroke="rgb(0,0,0)"  stroke-width="2.0"/>
<line x1="199.0" y1="151.6" x2="202.9" y2="155.0" stroke="rgb(0,0,0)"  stroke-width="2.0"/>
<line x1="197.5" y1="133.3" x2="200.9" y2="129.3" stroke="rgb(0,0,0)"  stroke-width="2.0"/>
<line x1="179.2" y1="134.8" x2="165.3" y2="123.0" stroke="rgb(0,0,0)"  stroke-width="2.0"/>
<text x="22.000000" y="90.852339" fill="rgb(30,239,30)"  stroke="rgb(30,239,30)" stroke-width="1" font-size="16" >Cl</text>
<text x="183.085233" y="151.174240" fill="rgb(127,153,153)"  stroke="rgb(127,153,153)" stroke-width="1" font-size="16" >Si</text>
<text x="142.887514" y="174.926359" fill="rgb(102,102,102)"  stroke="rgb(102,102,102)" stroke-width="1" font-size="16" >H</text>
<text x="154.887514" y="178.606359" fill="rgb(102,102,102)"  stroke="rgb(102,102,102)" stroke-width="1" font-size="13" >3</text>
<text x="161.387514" y="174.926359" fill="rgb(102,102,102)"  stroke="rgb(102,102,102)" stroke-width="1" font-size="16" >C</text>
<text x="208.837352" y="171.375077" fill="rgb(102,102,102)"  stroke="rgb(102,102,102)" stroke-width="1" font-size="16" >CH</text>
<text x="232.837352" y="175.055077" fill="rgb(102,102,102)"  stroke="rgb(102,102,102)" stroke-width="1" font-size="13" >3</text>
<text x="205.286071" y="127.425239" fill="rgb(102,102,102)"  stroke="rgb(102,102,102)" stroke-width="1" font-size="16" >CH</text>
<text x="229.286071" y="131.105239" fill="rgb(102,102,102)"  stroke="rgb(102,102,102)" stroke-width="1" font-size="13" >3</text>
</svg>
</g>
<text font-size="18.000000" fill ="black" font-family="sans-serif"
x="10.000000" y="20.000000" ></text>
</svg>
