<?xml version="1.0"?>
<svg version="1.1" id="topsvg"
xmlns="http://www.w3.org/2000/svg" xmlns:xlink="http://www.w3.org/1999/xlink"
xmlns:cml="http://www.xml-cml.org/schema" x="0" y="0" width="200px" height="200px" viewBox="0 0 100 100">
<title> - Open Babel Depiction</title>
<rect x="0" y="0" width="100" height="100" fill="white"/>
<g transform="translate(0,0)">
<svg width="100" height="100" x="0" y="0" viewBox="0 0 239.871 263.876"
font-family="sans-serif" stroke="rgb(0,0,0)" stroke-width="2"  stroke-linecap="round">
<line x1="151.6" y1="173.5" x2="187.0" y2="191.6" stroke="rgb(0,0,0)"  stroke-width="2.0"/>
<line x1="199.2" y1="210.5" x2="199.2" y2="210.9" stroke="rgb(0,0,0)"  stroke-width="2.0"/>
<line x1="152.1" y1="135.6" x2="150.1" y2="171.6" stroke="rgb(0,0,0)"  stroke-width="2.0"/>
<line x1="150.1" y1="171.6" x2="151.6" y2="173.5" stroke="rgb(0,0,0)"  stroke-width="2.0"/>
<line x1="153.3" y1="168.9" x2="154.9" y2="170.8" stroke="rgb(0,0,0)"  stroke-width="2.0"/>
<line x1="146.9" y1="174.3" x2="148.4" y2="176.1" stroke="rgb(0,0,0)"  stroke-width="2.0"/>
<line x1="188.7" y1="68.3" x2="151.8" y2="40.0" stroke="rgb(0,0,0)"  stroke-width="2.0"/>
<line x1="151.8" y1="40.0" x2="116.2" y2="64.8" stroke="rgb(0,0,0)"  stroke-width="2.0"/>
<line x1="116.2" y1="64.8" x2="114.9" y2="112.3" stroke="rgb(0,0,0)"  stroke-width="2.0"/>
<line x1="114.9" y1="112.3" x2="152.1" y2="135.6" stroke="rgb(0,0,0)"  stroke-width="2.0"/>
<line x1="152.1" y1="135.6" x2="189.1" y2="111.6" stroke="rgb(0,0,0)"  stroke-width="2.0"/>
<line x1="189.1" y1="111.6" x2="188.7" y2="68.3" stroke="rgb(0,0,0)"  stroke-width="2.0"/>
<line x1="51.5" y1="117.2" x2="77.5" y2="130.8" stroke="rgb(0,0,0)"  stroke-width="2.0"/>
<line x1="77.5" y1="130.8" x2="114.9" y2="112.3" stroke="rgb(0,0,0)"  stroke-width="2.0"/>
<line x1="116.2" y1="64.8" x2="76.4" y2="46.3" stroke="rgb(0,0,0)"  stroke-width="2.0"/>
<line x1="76.4" y1="46.3" x2="40.5" y2="66.9" stroke="rgb(0,0,0)"  stroke-width="2.0"/>
<line x1="40.5" y1="66.9" x2="40.1" y2="98.2" stroke="rgb(0,0,0)"  stroke-width="2.0"/>
<text x="192.566597" y="205.544639" fill="rgb(255,12,12)"  stroke="rgb(255,12,12)" stroke-width="1" font-size="16" >O</text>
<text x="22.000000" y="119.216352" fill="rgb(17,127,178)"  stroke="rgb(17,127,178)" stroke-width="1" font-size="16" >Xx</text>
<text x="193.871225" y="231.876370" fill="rgb(191,191,191)"  stroke="rgb(191,191,191)" stroke-width="1" font-size="16" >H</text>
</svg>
</g>
<text font-size="18.000000" fill ="black" font-family="sans-serif"
x="10.000000" y="20.000000" ></text>
</svg>
