<?xml version="1.0"?>
<svg version="1.1" id="topsvg"
xmlns="http://www.w3.org/2000/svg" xmlns:xlink="http://www.w3.org/1999/xlink"
xmlns:cml="http://www.xml-cml.org/schema" x="0" y="0" width="200px" height="200px" viewBox="0 0 100 100">
<title> - Open Babel Depiction</title>
<rect x="0" y="0" width="100" height="100" fill="white"/>
<g transform="translate(0,0)">
<svg width="100" height="100" x="0" y="0" viewBox="0 0 287.635 302.519"
font-family="sans-serif" stroke="rgb(0,0,0)" stroke-width="2"  stroke-linecap="round">
<polygon points="178.362 139.736 145.859 159.528 142.44 152.295 " stroke-width="2" fill="rgb(0,0,0)"  stroke="rgb(0,0,0)" />
<line x1="171.4" y1="96.5" x2="172.2" y2="95.1" stroke="rgb(0,0,0)"  stroke-width="1.0"/>
<line x1="165.5" y1="93.8" x2="167.0" y2="91.3" stroke="rgb(0,0,0)"  stroke-width="1.0"/>
<line x1="159.7" y1="91.2" x2="161.7" y2="87.6" stroke="rgb(0,0,0)"  stroke-width="1.0"/>
<line x1="153.8" y1="88.6" x2="156.5" y2="83.9" stroke="rgb(0,0,0)"  stroke-width="1.0"/>
<line x1="148.0" y1="85.9" x2="151.3" y2="80.1" stroke="rgb(0,0,0)"  stroke-width="1.0"/>
<line x1="142.1" y1="83.3" x2="146.1" y2="76.4" stroke="rgb(0,0,0)"  stroke-width="1.0"/>
<line x1="206.2" y1="80.5" x2="208.7" y2="52.7" stroke="rgb(0,0,0)"  stroke-width="2.0"/>
<line x1="212.2" y1="81.0" x2="214.7" y2="53.2" stroke="rgb(0,0,0)"  stroke-width="2.0"/>
<line x1="213.6" y1="167.8" x2="212.0" y2="167.8" stroke="rgb(0,0,0)"  stroke-width="1.0"/>
<line x1="214.1" y1="174.4" x2="211.2" y2="174.4" stroke="rgb(0,0,0)"  stroke-width="1.0"/>
<line x1="214.6" y1="181.0" x2="210.5" y2="180.9" stroke="rgb(0,0,0)"  stroke-width="1.0"/>
<line x1="215.2" y1="187.6" x2="209.7" y2="187.5" stroke="rgb(0,0,0)"  stroke-width="1.0"/>
<line x1="215.7" y1="194.1" x2="209.0" y2="194.0" stroke="rgb(0,0,0)"  stroke-width="1.0"/>
<line x1="216.2" y1="200.7" x2="208.2" y2="200.6" stroke="rgb(0,0,0)"  stroke-width="1.0"/>
<line x1="49.5" y1="91.5" x2="73.2" y2="77.1" stroke="rgb(0,0,0)"  stroke-width="2.0"/>
<line x1="52.7" y1="96.6" x2="76.3" y2="82.2" stroke="rgb(0,0,0)"  stroke-width="2.0"/>
<line x1="74.7" y1="79.7" x2="109.1" y2="100.0" stroke="rgb(0,0,0)"  stroke-width="2.0"/>
<line x1="144.1" y1="79.9" x2="109.1" y2="100.0" stroke="rgb(0,0,0)"  stroke-width="2.0"/>
<line x1="122.0" y1="142.2" x2="145.4" y2="153.2" stroke="rgb(0,0,0)"  stroke-width="2.0"/>
<line x1="119.5" y1="147.7" x2="142.9" y2="158.6" stroke="rgb(0,0,0)"  stroke-width="2.0"/>
<line x1="190.3" y1="215.8" x2="212.2" y2="200.6" stroke="rgb(0,0,0)"  stroke-width="2.0"/>
<line x1="212.2" y1="200.6" x2="234.3" y2="216.4" stroke="rgb(0,0,0)"  stroke-width="2.0"/>
<line x1="240.8" y1="236.3" x2="232.3" y2="262.3" stroke="rgb(0,0,0)"  stroke-width="2.0"/>
<line x1="232.3" y1="262.3" x2="191.5" y2="262.5" stroke="rgb(0,0,0)"  stroke-width="2.0"/>
<line x1="191.5" y1="262.5" x2="183.4" y2="235.7" stroke="rgb(0,0,0)"  stroke-width="2.0"/>
<line x1="178.4" y1="139.7" x2="212.9" y2="159.6" stroke="rgb(0,0,0)"  stroke-width="2.0"/>
<line x1="212.9" y1="159.6" x2="247.6" y2="139.7" stroke="rgb(0,0,0)"  stroke-width="2.0"/>
<line x1="247.6" y1="139.7" x2="247.5" y2="99.8" stroke="rgb(0,0,0)"  stroke-width="2.0"/>
<line x1="247.5" y1="99.8" x2="209.2" y2="80.7" stroke="rgb(0,0,0)"  stroke-width="2.0"/>
<line x1="209.2" y1="80.7" x2="178.7" y2="99.7" stroke="rgb(0,0,0)"  stroke-width="2.0"/>
<line x1="178.7" y1="99.7" x2="178.4" y2="139.7" stroke="rgb(0,0,0)"  stroke-width="2.0"/>
<text x="173.587162" y="231.239566" fill="rgb(255,12,12)"  stroke="rgb(255,12,12)" stroke-width="1" font-size="16" >O</text>
<text x="238.885868" y="231.906258" fill="rgb(255,12,12)"  stroke="rgb(255,12,12)" stroke-width="1" font-size="16" >O</text>
<text x="206.903206" y="48.000000" fill="rgb(255,12,12)"  stroke="rgb(255,12,12)" stroke-width="1" font-size="16" >O</text>
<text x="14.000000" y="108.817059" fill="rgb(102,102,102)"  stroke="rgb(102,102,102)" stroke-width="1" font-size="16" >H</text>
<text x="26.000000" y="112.497059" fill="rgb(102,102,102)"  stroke="rgb(102,102,102)" stroke-width="1" font-size="13" >2</text>
<text x="32.500000" y="108.817059" fill="rgb(102,102,102)"  stroke="rgb(102,102,102)" stroke-width="1" font-size="16" >C</text>
<text x="82.957571" y="147.448114" fill="rgb(102,102,102)"  stroke="rgb(102,102,102)" stroke-width="1" font-size="16" >H</text>
<text x="94.957571" y="151.128114" fill="rgb(102,102,102)"  stroke="rgb(102,102,102)" stroke-width="1" font-size="13" >2</text>
<text x="101.457571" y="147.448114" fill="rgb(102,102,102)"  stroke="rgb(102,102,102)" stroke-width="1" font-size="16" >C</text>
</svg>
</g>
<text font-size="18.000000" fill ="black" font-family="sans-serif"
x="10.000000" y="20.000000" ></text>
</svg>
