<?xml version="1.0"?>
<svg version="1.1" id="topsvg"
xmlns="http://www.w3.org/2000/svg" xmlns:xlink="http://www.w3.org/1999/xlink"
xmlns:cml="http://www.xml-cml.org/schema" x="0" y="0" width="200px" height="200px" viewBox="0 0 100 100">
<title> - Open Babel Depiction</title>
<rect x="0" y="0" width="100" height="100" fill="white"/>
<g transform="translate(0,0)">
<svg width="100" height="100" x="0" y="0" viewBox="0 0 302.475 287.889"
font-family="sans-serif" stroke="rgb(0,0,0)" stroke-width="2"  stroke-linecap="round">
<line x1="248.1" y1="216.6" x2="214.9" y2="201.5" stroke="rgb(0,0,0)"  stroke-width="2.0"/>
<line x1="261.2" y1="234.9" x2="261.2" y2="235.0" stroke="rgb(0,0,0)"  stroke-width="2.0"/>
<polygon points="180.170124 141.489143 147.885700 160.592448 144.569103 153.312326 " stroke-width="2.000000" fill="rgb(0,0,0)"  stroke="rgb(0,0,0)" />
<line x1="173.6" y1="97.1" x2="174.4" y2="95.8" stroke="rgb(0,0,0)"  stroke-width="1.0"/>
<line x1="167.7" y1="94.4" x2="169.2" y2="91.9" stroke="rgb(0,0,0)"  stroke-width="1.0"/>
<line x1="161.8" y1="91.6" x2="163.9" y2="88.0" stroke="rgb(0,0,0)"  stroke-width="1.0"/>
<line x1="155.9" y1="88.9" x2="158.7" y2="84.2" stroke="rgb(0,0,0)"  stroke-width="1.0"/>
<line x1="150.0" y1="86.1" x2="153.4" y2="80.3" stroke="rgb(0,0,0)"  stroke-width="1.0"/>
<line x1="144.1" y1="83.3" x2="148.2" y2="76.5" stroke="rgb(0,0,0)"  stroke-width="1.0"/>
<line x1="219.3" y1="52.8" x2="220.8" y2="80.6" stroke="rgb(0,0,0)"  stroke-width="2.0"/>
<line x1="213.3" y1="53.1" x2="214.8" y2="80.9" stroke="rgb(0,0,0)"  stroke-width="2.0"/>
<line x1="216.4" y1="169.0" x2="214.8" y2="169.0" stroke="rgb(0,0,0)"  stroke-width="1.0"/>
<line x1="216.9" y1="175.5" x2="214.0" y2="175.5" stroke="rgb(0,0,0)"  stroke-width="1.0"/>
<line x1="217.4" y1="182.1" x2="213.2" y2="182.0" stroke="rgb(0,0,0)"  stroke-width="1.0"/>
<line x1="217.9" y1="188.6" x2="212.4" y2="188.5" stroke="rgb(0,0,0)"  stroke-width="1.0"/>
<line x1="218.4" y1="195.1" x2="211.6" y2="195.0" stroke="rgb(0,0,0)"  stroke-width="1.0"/>
<line x1="218.9" y1="201.6" x2="210.9" y2="201.4" stroke="rgb(0,0,0)"  stroke-width="1.0"/>
<line x1="49.8" y1="92.0" x2="74.8" y2="77.7" stroke="rgb(0,0,0)"  stroke-width="2.0"/>
<line x1="52.8" y1="97.2" x2="77.8" y2="82.9" stroke="rgb(0,0,0)"  stroke-width="2.0"/>
<line x1="76.3" y1="80.3" x2="110.9" y2="100.2" stroke="rgb(0,0,0)"  stroke-width="2.0"/>
<line x1="110.9" y1="100.2" x2="146.1" y2="79.9" stroke="rgb(0,0,0)"  stroke-width="2.0"/>
<line x1="122.7" y1="142.6" x2="147.5" y2="154.2" stroke="rgb(0,0,0)"  stroke-width="2.0"/>
<line x1="120.1" y1="148.1" x2="145.0" y2="159.7" stroke="rgb(0,0,0)"  stroke-width="2.0"/>
<line x1="180.2" y1="141.5" x2="180.9" y2="100.6" stroke="rgb(0,0,0)"  stroke-width="2.0"/>
<line x1="180.9" y1="100.6" x2="217.8" y2="80.8" stroke="rgb(0,0,0)"  stroke-width="2.0"/>
<line x1="217.8" y1="80.8" x2="250.4" y2="100.7" stroke="rgb(0,0,0)"  stroke-width="2.0"/>
<line x1="250.4" y1="100.7" x2="250.6" y2="141.7" stroke="rgb(0,0,0)"  stroke-width="2.0"/>
<line x1="250.6" y1="141.7" x2="215.8" y2="160.9" stroke="rgb(0,0,0)"  stroke-width="2.0"/>
<line x1="215.8" y1="160.9" x2="180.2" y2="141.5" stroke="rgb(0,0,0)"  stroke-width="2.0"/>
<text x="253.902560" y="229.915771" fill="rgb(255,12,12)"  stroke="rgb(255,12,12)" stroke-width="1" font-size="16" >O</text>
<text x="209.598092" y="48.000000" fill="rgb(255,12,12)"  stroke="rgb(255,12,12)" stroke-width="1" font-size="16" >O</text>
<text x="14.000000" y="109.113044" fill="rgb(102,102,102)"  stroke="rgb(102,102,102)" stroke-width="1" font-size="16" >H</text>
<text x="26.000000" y="112.793044" fill="rgb(102,102,102)"  stroke="rgb(102,102,102)" stroke-width="1" font-size="13" >2</text>
<text x="32.500000" y="109.113044" fill="rgb(102,102,102)"  stroke="rgb(102,102,102)" stroke-width="1" font-size="16" >C</text>
<text x="83.645138" y="147.826313" fill="rgb(102,102,102)"  stroke="rgb(102,102,102)" stroke-width="1" font-size="16" >H</text>
<text x="95.645138" y="151.506313" fill="rgb(102,102,102)"  stroke="rgb(102,102,102)" stroke-width="1" font-size="13" >2</text>
<text x="102.145138" y="147.826313" fill="rgb(102,102,102)"  stroke="rgb(102,102,102)" stroke-width="1" font-size="16" >C</text>
<text x="256.474835" y="255.888747" fill="rgb(191,191,191)"  stroke="rgb(191,191,191)" stroke-width="1" font-size="16" >H</text>
</svg>
</g>
<text font-size="18.000000" fill ="black" font-family="sans-serif"
x="10.000000" y="20.000000" ></text>
</svg>
