<?xml version="1.0"?>
<svg version="1.1" id="topsvg"
xmlns="http://www.w3.org/2000/svg" xmlns:xlink="http://www.w3.org/1999/xlink"
xmlns:cml="http://www.xml-cml.org/schema" x="0" y="0" width="200px" height="200px" viewBox="0 0 100 100">
<title> - Open Babel Depiction</title>
<rect x="0" y="0" width="100" height="100" fill="white"/>
<g transform="translate(0,0)">
<svg width="100" height="100" x="0" y="0" viewBox="0 0 323.516 315.571"
font-family="sans-serif" stroke="rgb(0,0,0)" stroke-width="2"  stroke-linecap="round">
<line x1="130.5" y1="211.6" x2="130.7" y2="168.4" stroke="rgb(0,0,0)"  stroke-width="2.0"/>
<line x1="130.5" y1="211.6" x2="155.4" y2="226.1" stroke="rgb(0,0,0)"  stroke-width="2.0"/>
<line x1="94.4" y1="104.1" x2="79.4" y2="98.5" stroke="rgb(0,0,0)"  stroke-width="2.0"/>
<line x1="71.7" y1="81.8" x2="72.8" y2="79.0" stroke="rgb(0,0,0)"  stroke-width="2.0"/>
<line x1="55.0" y1="89.5" x2="52.2" y2="88.4" stroke="rgb(0,0,0)"  stroke-width="2.0"/>
<line x1="62.6" y1="106.2" x2="61.6" y2="109.0" stroke="rgb(0,0,0)"  stroke-width="2.0"/>
<line x1="123.3" y1="83.1" x2="125.7" y2="52.7" stroke="rgb(0,0,0)"  stroke-width="2.0"/>
<line x1="129.3" y1="83.6" x2="131.7" y2="53.2" stroke="rgb(0,0,0)"  stroke-width="2.0"/>
<line x1="205.4" y1="166.9" x2="167.1" y2="145.7" stroke="rgb(0,0,0)"  stroke-width="2.0"/>
<line x1="201.8" y1="199.2" x2="202.4" y2="166.8" stroke="rgb(0,0,0)"  stroke-width="2.0"/>
<line x1="207.8" y1="199.3" x2="208.4" y2="166.9" stroke="rgb(0,0,0)"  stroke-width="2.0"/>
<line x1="278.7" y1="254.7" x2="282.1" y2="224.9" stroke="rgb(0,0,0)"  stroke-width="2.0"/>
<line x1="239.2" y1="272.9" x2="277.3" y2="252.0" stroke="rgb(0,0,0)"  stroke-width="2.0"/>
<line x1="242.1" y1="278.2" x2="280.2" y2="257.3" stroke="rgb(0,0,0)"  stroke-width="2.0"/>
<line x1="205.5" y1="255.1" x2="155.4" y2="226.1" stroke="rgb(0,0,0)"  stroke-width="2.0"/>
<line x1="203.4" y1="258.8" x2="153.3" y2="229.7" stroke="rgb(0,0,0)"  stroke-width="2.0"/>
<line x1="207.6" y1="251.5" x2="157.5" y2="222.4" stroke="rgb(0,0,0)"  stroke-width="2.0"/>
<line x1="205.5" y1="255.1" x2="240.7" y2="275.6" stroke="rgb(0,0,0)"  stroke-width="2.0"/>
<line x1="94.0" y1="148.1" x2="94.4" y2="104.1" stroke="rgb(0,0,0)"  stroke-width="2.0"/>
<line x1="101.2" y1="142.2" x2="101.5" y2="110.2" stroke="rgb(0,0,0)"  stroke-width="2.0"/>
<line x1="94.4" y1="104.1" x2="126.3" y2="83.4" stroke="rgb(0,0,0)"  stroke-width="2.0"/>
<line x1="126.3" y1="83.4" x2="167.2" y2="104.1" stroke="rgb(0,0,0)"  stroke-width="2.0"/>
<line x1="167.2" y1="104.1" x2="167.1" y2="145.7" stroke="rgb(0,0,0)"  stroke-width="2.0"/>
<line x1="167.1" y1="145.7" x2="130.7" y2="168.4" stroke="rgb(0,0,0)"  stroke-width="2.0"/>
<line x1="130.7" y1="168.4" x2="94.0" y2="148.1" stroke="rgb(0,0,0)"  stroke-width="2.0"/>
<text x="61.178848" y="101.995234" fill="rgb(127,153,153)"  stroke="rgb(127,153,153)" stroke-width="1" font-size="16" >Si</text>
<text x="73.284287" y="74.813486" fill="rgb(102,102,102)"  stroke="rgb(102,102,102)" stroke-width="1" font-size="16" >CH</text>
<text x="97.284287" y="78.493486" fill="rgb(102,102,102)"  stroke="rgb(102,102,102)" stroke-width="1" font-size="13" >3</text>
<text x="14.000000" y="91.889794" fill="rgb(102,102,102)"  stroke="rgb(102,102,102)" stroke-width="1" font-size="16" >H</text>
<text x="26.000000" y="95.569794" fill="rgb(102,102,102)"  stroke="rgb(102,102,102)" stroke-width="1" font-size="13" >3</text>
<text x="32.500000" y="91.889794" fill="rgb(102,102,102)"  stroke="rgb(102,102,102)" stroke-width="1" font-size="16" >C</text>
<text x="31.076308" y="129.174082" fill="rgb(102,102,102)"  stroke="rgb(102,102,102)" stroke-width="1" font-size="16" >H</text>
<text x="43.076308" y="132.854082" fill="rgb(102,102,102)"  stroke="rgb(102,102,102)" stroke-width="1" font-size="13" >3</text>
<text x="49.576308" y="129.174082" fill="rgb(102,102,102)"  stroke="rgb(102,102,102)" stroke-width="1" font-size="16" >C</text>
<text x="123.722384" y="48.000000" fill="rgb(255,12,12)"  stroke="rgb(255,12,12)" stroke-width="1" font-size="16" >O</text>
<text x="178.609926" y="220.250624" fill="rgb(102,102,102)"  stroke="rgb(102,102,102)" stroke-width="1" font-size="16" >H</text>
<text x="190.609926" y="223.930624" fill="rgb(102,102,102)"  stroke="rgb(102,102,102)" stroke-width="1" font-size="13" >2</text>
<text x="197.109926" y="220.250624" fill="rgb(102,102,102)"  stroke="rgb(102,102,102)" stroke-width="1" font-size="16" >C</text>
<text x="277.516445" y="220.012849" fill="rgb(30,239,30)"  stroke="rgb(30,239,30)" stroke-width="1" font-size="16" >Cl</text>
</svg>
</g>
<text font-size="18.000000" fill ="black" font-family="sans-serif"
x="10.000000" y="20.000000" ></text>
</svg>
