<?xml version="1.0"?>
<svg version="1.1" id="topsvg"
xmlns="http://www.w3.org/2000/svg" xmlns:xlink="http://www.w3.org/1999/xlink"
xmlns:cml="http://www.xml-cml.org/schema" x="0" y="0" width="200px" height="200px" viewBox="0 0 100 100">
<title> - Open Babel Depiction</title>
<rect x="0" y="0" width="100" height="100" fill="white"/>
<g transform="translate(0,0)">
<svg width="100" height="100" x="0" y="0" viewBox="0 0 289.057 340.282"
font-family="sans-serif" stroke="rgb(0,0,0)" stroke-width="2"  stroke-linecap="round">
<line x1="168.3" y1="274.4" x2="192.2" y2="261.7" stroke="rgb(0,0,0)"  stroke-width="2.0"/>
<line x1="192.2" y1="261.7" x2="184.9" y2="287.8" stroke="rgb(0,0,0)"  stroke-width="2.0"/>
<polygon points="179.090675 141.441133 146.267609 159.209101 143.235115 151.806130 " stroke-width="2.000000" fill="rgb(0,0,0)"  stroke="rgb(0,0,0)" />
<polygon points="179.725113 100.205288 142.928401 82.775033 147.046833 75.916570 " stroke-width="2.000000" fill="rgb(0,0,0)"  stroke="rgb(0,0,0)" />
<line x1="145.0" y1="79.3" x2="179.9" y2="95.3" stroke="rgb(0,0,0)"  stroke-width="2.0"/>
<line x1="75.1" y1="79.4" x2="109.7" y2="99.4" stroke="rgb(0,0,0)"  stroke-width="2.0"/>
<line x1="109.7" y1="99.4" x2="145.0" y2="79.3" stroke="rgb(0,0,0)"  stroke-width="2.0"/>
<line x1="49.9" y1="90.1" x2="73.6" y2="76.7" stroke="rgb(0,0,0)"  stroke-width="2.0"/>
<line x1="52.8" y1="95.3" x2="76.6" y2="82.0" stroke="rgb(0,0,0)"  stroke-width="2.0"/>
<line x1="206.8" y1="79.9" x2="208.8" y2="52.7" stroke="rgb(0,0,0)"  stroke-width="2.0"/>
<line x1="212.8" y1="80.4" x2="214.8" y2="53.2" stroke="rgb(0,0,0)"  stroke-width="2.0"/>
<line x1="220.6" y1="154.1" x2="221.3" y2="155.5" stroke="rgb(0,0,0)"  stroke-width="1.0"/>
<line x1="225.9" y1="150.6" x2="227.3" y2="153.1" stroke="rgb(0,0,0)"  stroke-width="1.0"/>
<line x1="231.3" y1="147.1" x2="233.2" y2="150.8" stroke="rgb(0,0,0)"  stroke-width="1.0"/>
<line x1="236.6" y1="143.6" x2="239.1" y2="148.5" stroke="rgb(0,0,0)"  stroke-width="1.0"/>
<line x1="241.9" y1="140.2" x2="245.0" y2="146.1" stroke="rgb(0,0,0)"  stroke-width="1.0"/>
<line x1="247.2" y1="136.7" x2="250.9" y2="143.8" stroke="rgb(0,0,0)"  stroke-width="1.0"/>
<line x1="214.0" y1="158.4" x2="213.5" y2="202.3" stroke="rgb(0,0,0)"  stroke-width="2.0"/>
<line x1="152.4" y1="222.2" x2="167.4" y2="222.7" stroke="rgb(0,0,0)"  stroke-width="2.0"/>
<line x1="179.3" y1="67.6" x2="179.9" y2="95.3" stroke="rgb(0,0,0)"  stroke-width="2.0"/>
<line x1="122.1" y1="141.9" x2="146.0" y2="152.8" stroke="rgb(0,0,0)"  stroke-width="2.0"/>
<line x1="119.6" y1="147.4" x2="143.5" y2="158.2" stroke="rgb(0,0,0)"  stroke-width="2.0"/>
<line x1="191.4" y1="216.2" x2="213.5" y2="202.3" stroke="rgb(0,0,0)"  stroke-width="2.0"/>
<line x1="213.5" y1="202.3" x2="234.4" y2="216.5" stroke="rgb(0,0,0)"  stroke-width="2.0"/>
<line x1="241.2" y1="236.2" x2="233.1" y2="261.4" stroke="rgb(0,0,0)"  stroke-width="2.0"/>
<line x1="233.1" y1="261.4" x2="192.2" y2="261.7" stroke="rgb(0,0,0)"  stroke-width="2.0"/>
<line x1="192.2" y1="261.7" x2="184.2" y2="235.6" stroke="rgb(0,0,0)"  stroke-width="2.0"/>
<line x1="179.1" y1="141.4" x2="214.0" y2="158.4" stroke="rgb(0,0,0)"  stroke-width="2.0"/>
<line x1="214.0" y1="158.4" x2="249.1" y2="140.2" stroke="rgb(0,0,0)"  stroke-width="2.0"/>
<line x1="249.1" y1="140.2" x2="248.6" y2="99.6" stroke="rgb(0,0,0)"  stroke-width="2.0"/>
<line x1="248.6" y1="99.6" x2="209.8" y2="80.2" stroke="rgb(0,0,0)"  stroke-width="2.0"/>
<line x1="209.8" y1="80.2" x2="179.7" y2="100.2" stroke="rgb(0,0,0)"  stroke-width="2.0"/>
<line x1="179.7" y1="100.2" x2="179.1" y2="141.4" stroke="rgb(0,0,0)"  stroke-width="2.0"/>
<text x="130.861438" y="288.526498" fill="rgb(102,102,102)"  stroke="rgb(102,102,102)" stroke-width="1" font-size="16" >H</text>
<text x="142.861438" y="292.206498" fill="rgb(102,102,102)"  stroke="rgb(102,102,102)" stroke-width="1" font-size="13" >3</text>
<text x="149.361438" y="288.526498" fill="rgb(102,102,102)"  stroke="rgb(102,102,102)" stroke-width="1" font-size="16" >C</text>
<text x="174.386097" y="231.148310" fill="rgb(12,12,255)"  stroke="rgb(12,12,255)" stroke-width="1" font-size="16" >N</text>
<text x="239.181110" y="231.809294" fill="rgb(255,12,12)"  stroke="rgb(255,12,12)" stroke-width="1" font-size="16" >O</text>
<text x="155.450573" y="308.281691" fill="rgb(102,102,102)"  stroke="rgb(102,102,102)" stroke-width="1" font-size="16" >H</text>
<text x="167.450573" y="311.961691" fill="rgb(102,102,102)"  stroke="rgb(102,102,102)" stroke-width="1" font-size="13" >3</text>
<text x="173.950573" y="308.281691" fill="rgb(102,102,102)"  stroke="rgb(102,102,102)" stroke-width="1" font-size="16" >C</text>
<text x="14.000000" y="107.098339" fill="rgb(102,102,102)"  stroke="rgb(102,102,102)" stroke-width="1" font-size="16" >H</text>
<text x="26.000000" y="110.778339" fill="rgb(102,102,102)"  stroke="rgb(102,102,102)" stroke-width="1" font-size="13" >2</text>
<text x="32.500000" y="107.098339" fill="rgb(102,102,102)"  stroke="rgb(102,102,102)" stroke-width="1" font-size="16" >C</text>
<text x="206.784931" y="48.000000" fill="rgb(255,12,12)"  stroke="rgb(255,12,12)" stroke-width="1" font-size="16" >O</text>
<text x="113.394472" y="229.799797" fill="rgb(102,102,102)"  stroke="rgb(102,102,102)" stroke-width="1" font-size="16" >H</text>
<text x="125.394472" y="233.479797" fill="rgb(102,102,102)"  stroke="rgb(102,102,102)" stroke-width="1" font-size="13" >3</text>
<text x="131.894472" y="229.799797" fill="rgb(102,102,102)"  stroke="rgb(102,102,102)" stroke-width="1" font-size="16" >C</text>
<text x="153.064129" y="62.629248" fill="rgb(102,102,102)"  stroke="rgb(102,102,102)" stroke-width="1" font-size="16" >H</text>
<text x="165.064129" y="66.309248" fill="rgb(102,102,102)"  stroke="rgb(102,102,102)" stroke-width="1" font-size="13" >3</text>
<text x="171.564129" y="62.629248" fill="rgb(102,102,102)"  stroke="rgb(102,102,102)" stroke-width="1" font-size="16" >C</text>
<text x="83.058227" y="147.240507" fill="rgb(102,102,102)"  stroke="rgb(102,102,102)" stroke-width="1" font-size="16" >H</text>
<text x="95.058227" y="150.920507" fill="rgb(102,102,102)"  stroke="rgb(102,102,102)" stroke-width="1" font-size="13" >2</text>
<text x="101.558227" y="147.240507" fill="rgb(102,102,102)"  stroke="rgb(102,102,102)" stroke-width="1" font-size="16" >C</text>
</svg>
</g>
<text font-size="18.000000" fill ="black" font-family="sans-serif"
x="10.000000" y="20.000000" ></text>
</svg>
