<?xml version="1.0"?>
<svg version="1.1" id="topsvg"
xmlns="http://www.w3.org/2000/svg" xmlns:xlink="http://www.w3.org/1999/xlink"
xmlns:cml="http://www.xml-cml.org/schema" x="0" y="0" width="200px" height="200px" viewBox="0 0 100 100">
<title> - Open Babel Depiction</title>
<rect x="0" y="0" width="100" height="100" fill="white"/>
<g transform="translate(0,0)">
<svg width="100" height="100" x="0" y="0" viewBox="0 0 408.645 367.982"
font-family="sans-serif" stroke="rgb(0,0,0)" stroke-width="2"  stroke-linecap="round">
<line x1="344.4" y1="288.7" x2="361.0" y2="311.3" stroke="rgb(0,0,0)"  stroke-width="2.0"/>
<line x1="344.4" y1="288.7" x2="336.0" y2="315.6" stroke="rgb(0,0,0)"  stroke-width="2.0"/>
<line x1="323.6" y1="182.8" x2="323.1" y2="224.6" stroke="rgb(0,0,0)"  stroke-width="2.0"/>
<line x1="288.0" y1="164.1" x2="252.6" y2="180.0" stroke="rgb(0,0,0)"  stroke-width="2.0"/>
<polygon points="287.963648 164.100173 283.161759 121.466412 291.160347 121.316101 " stroke-width="2.000000" fill="rgb(0,0,0)"  stroke="rgb(0,0,0)" />
<line x1="252.6" y1="101.7" x2="217.4" y2="123.3" stroke="rgb(0,0,0)"  stroke-width="2.0"/>
<line x1="125.4" y1="111.3" x2="146.7" y2="122.9" stroke="rgb(0,0,0)"  stroke-width="2.0"/>
<line x1="146.7" y1="122.9" x2="182.5" y2="102.6" stroke="rgb(0,0,0)"  stroke-width="2.0"/>
<line x1="182.5" y1="102.6" x2="217.4" y2="123.3" stroke="rgb(0,0,0)"  stroke-width="2.0"/>
<line x1="188.9" y1="74.4" x2="182.5" y2="102.6" stroke="rgb(0,0,0)"  stroke-width="2.0"/>
<line x1="204.1" y1="57.8" x2="204.5" y2="57.7" stroke="rgb(0,0,0)"  stroke-width="2.0"/>
<line x1="254.5" y1="74.6" x2="255.6" y2="101.6" stroke="rgb(0,0,0)"  stroke-width="2.0"/>
<line x1="248.5" y1="74.8" x2="249.6" y2="101.9" stroke="rgb(0,0,0)"  stroke-width="2.0"/>
<line x1="287.2" y1="121.4" x2="252.6" y2="101.7" stroke="rgb(0,0,0)"  stroke-width="2.0"/>
<line x1="286.5" y1="115.2" x2="288.1" y2="115.3" stroke="rgb(0,0,0)"  stroke-width="1.0"/>
<line x1="285.9" y1="110.3" x2="288.8" y2="110.3" stroke="rgb(0,0,0)"  stroke-width="1.0"/>
<line x1="285.4" y1="105.4" x2="289.5" y2="105.4" stroke="rgb(0,0,0)"  stroke-width="1.0"/>
<line x1="284.8" y1="100.4" x2="290.3" y2="100.5" stroke="rgb(0,0,0)"  stroke-width="1.0"/>
<line x1="284.3" y1="95.5" x2="291.0" y2="95.6" stroke="rgb(0,0,0)"  stroke-width="1.0"/>
<line x1="283.7" y1="90.6" x2="291.7" y2="90.7" stroke="rgb(0,0,0)"  stroke-width="1.0"/>
<line x1="328.5" y1="68.6" x2="327.8" y2="67.6" stroke="rgb(0,0,0)"  stroke-width="2.0"/>
<line x1="329.4" y1="91.1" x2="322.9" y2="103.7" stroke="rgb(0,0,0)"  stroke-width="2.0"/>
<line x1="51.9" y1="67.9" x2="75.9" y2="81.7" stroke="rgb(0,0,0)"  stroke-width="2.0"/>
<line x1="75.9" y1="81.7" x2="102.9" y2="98.3" stroke="rgb(0,0,0)"  stroke-width="2.0"/>
<line x1="75.9" y1="81.7" x2="51.1" y2="97.0" stroke="rgb(0,0,0)"  stroke-width="2.0"/>
<line x1="76.6" y1="53.0" x2="75.9" y2="81.7" stroke="rgb(0,0,0)"  stroke-width="2.0"/>
<line x1="86.2" y1="117.5" x2="102.1" y2="110.4" stroke="rgb(0,0,0)"  stroke-width="2.0"/>
<line x1="111.8" y1="73.8" x2="113.1" y2="92.1" stroke="rgb(0,0,0)"  stroke-width="2.0"/>
<line x1="228.9" y1="166.2" x2="253.8" y2="177.2" stroke="rgb(0,0,0)"  stroke-width="2.0"/>
<line x1="226.4" y1="171.7" x2="251.4" y2="182.7" stroke="rgb(0,0,0)"  stroke-width="2.0"/>
<line x1="302.8" y1="287.8" x2="293.3" y2="261.9" stroke="rgb(0,0,0)"  stroke-width="2.0"/>
<line x1="299.4" y1="242.0" x2="323.1" y2="224.6" stroke="rgb(0,0,0)"  stroke-width="2.0"/>
<line x1="323.1" y1="224.6" x2="344.4" y2="240.8" stroke="rgb(0,0,0)"  stroke-width="2.0"/>
<line x1="323.5" y1="233.9" x2="338.4" y2="245.3" stroke="rgb(0,0,0)"  stroke-width="2.0"/>
<line x1="351.6" y1="261.4" x2="344.4" y2="288.7" stroke="rgb(0,0,0)"  stroke-width="2.0"/>
<line x1="344.4" y1="288.7" x2="302.8" y2="287.8" stroke="rgb(0,0,0)"  stroke-width="2.0"/>
<line x1="287.2" y1="121.4" x2="288.0" y2="164.1" stroke="rgb(0,0,0)"  stroke-width="2.0"/>
<line x1="288.0" y1="164.1" x2="323.6" y2="182.8" stroke="rgb(0,0,0)"  stroke-width="2.0"/>
<line x1="323.6" y1="182.8" x2="358.9" y2="164.6" stroke="rgb(0,0,0)"  stroke-width="2.0"/>
<line x1="325.7" y1="173.7" x2="350.3" y2="160.9" stroke="rgb(0,0,0)"  stroke-width="2.0"/>
<line x1="358.9" y1="164.6" x2="358.9" y2="122.4" stroke="rgb(0,0,0)"  stroke-width="2.0"/>
<line x1="358.9" y1="122.4" x2="322.9" y2="103.7" stroke="rgb(0,0,0)"  stroke-width="2.0"/>
<line x1="350.3" y1="126.0" x2="324.9" y2="112.9" stroke="rgb(0,0,0)"  stroke-width="2.0"/>
<line x1="322.9" y1="103.7" x2="287.2" y2="121.4" stroke="rgb(0,0,0)"  stroke-width="2.0"/>
<text x="282.896834" y="257.686686" fill="rgb(255,12,12)"  stroke="rgb(255,12,12)" stroke-width="1" font-size="16" >O</text>
<text x="348.878274" y="256.783427" fill="rgb(12,12,255)"  stroke="rgb(12,12,255)" stroke-width="1" font-size="16" >N</text>
<text x="364.644812" y="329.759683" fill="rgb(102,102,102)"  stroke="rgb(102,102,102)" stroke-width="1" font-size="16" >CH</text>
<text x="388.644812" y="333.439683" fill="rgb(102,102,102)"  stroke="rgb(102,102,102)" stroke-width="1" font-size="13" >3</text>
<text x="306.149882" y="335.981832" fill="rgb(102,102,102)"  stroke="rgb(102,102,102)" stroke-width="1" font-size="16" >H</text>
<text x="318.149882" y="339.661832" fill="rgb(102,102,102)"  stroke="rgb(102,102,102)" stroke-width="1" font-size="13" >3</text>
<text x="324.649882" y="335.981832" fill="rgb(102,102,102)"  stroke="rgb(102,102,102)" stroke-width="1" font-size="16" >C</text>
<text x="108.007386" y="113.075460" fill="rgb(127,153,153)"  stroke="rgb(127,153,153)" stroke-width="1" font-size="16" >Si</text>
<text x="185.736634" y="69.691820" fill="rgb(255,12,12)"  stroke="rgb(255,12,12)" stroke-width="1" font-size="16" >O</text>
<text x="244.938190" y="69.691820" fill="rgb(255,12,12)"  stroke="rgb(255,12,12)" stroke-width="1" font-size="16" >O</text>
<text x="329.444601" y="87.571996" fill="rgb(255,12,12)"  stroke="rgb(255,12,12)" stroke-width="1" font-size="16" >O</text>
<text x="294.810173" y="64.636834" fill="rgb(102,102,102)"  stroke="rgb(102,102,102)" stroke-width="1" font-size="16" >H</text>
<text x="306.810173" y="68.316834" fill="rgb(102,102,102)"  stroke="rgb(102,102,102)" stroke-width="1" font-size="13" >3</text>
<text x="313.310173" y="64.636834" fill="rgb(102,102,102)"  stroke="rgb(102,102,102)" stroke-width="1" font-size="16" >C</text>
<text x="14.674724" y="69.351738" fill="rgb(102,102,102)"  stroke="rgb(102,102,102)" stroke-width="1" font-size="16" >H</text>
<text x="26.674724" y="73.031738" fill="rgb(102,102,102)"  stroke="rgb(102,102,102)" stroke-width="1" font-size="13" >3</text>
<text x="33.174724" y="69.351738" fill="rgb(102,102,102)"  stroke="rgb(102,102,102)" stroke-width="1" font-size="16" >C</text>
<text x="72.952000" y="48.000000" fill="rgb(102,102,102)"  stroke="rgb(102,102,102)" stroke-width="1" font-size="16" >CH</text>
<text x="96.952000" y="51.680000" fill="rgb(102,102,102)"  stroke="rgb(102,102,102)" stroke-width="1" font-size="13" >3</text>
<text x="14.000000" y="111.747778" fill="rgb(102,102,102)"  stroke="rgb(102,102,102)" stroke-width="1" font-size="16" >H</text>
<text x="26.000000" y="115.427778" fill="rgb(102,102,102)"  stroke="rgb(102,102,102)" stroke-width="1" font-size="13" >3</text>
<text x="32.500000" y="111.747778" fill="rgb(102,102,102)"  stroke="rgb(102,102,102)" stroke-width="1" font-size="16" >C</text>
<text x="48.332005" y="130.743424" fill="rgb(102,102,102)"  stroke="rgb(102,102,102)" stroke-width="1" font-size="16" >H</text>
<text x="60.332005" y="134.423424" fill="rgb(102,102,102)"  stroke="rgb(102,102,102)" stroke-width="1" font-size="13" >3</text>
<text x="66.832005" y="130.743424" fill="rgb(102,102,102)"  stroke="rgb(102,102,102)" stroke-width="1" font-size="16" >C</text>
<text x="84.843259" y="68.788561" fill="rgb(102,102,102)"  stroke="rgb(102,102,102)" stroke-width="1" font-size="16" >H</text>
<text x="96.843259" y="72.468561" fill="rgb(102,102,102)"  stroke="rgb(102,102,102)" stroke-width="1" font-size="13" >3</text>
<text x="103.343259" y="68.788561" fill="rgb(102,102,102)"  stroke="rgb(102,102,102)" stroke-width="1" font-size="16" >C</text>
<text x="189.781825" y="171.634940" fill="rgb(102,102,102)"  stroke="rgb(102,102,102)" stroke-width="1" font-size="16" >H</text>
<text x="201.781825" y="175.314940" fill="rgb(102,102,102)"  stroke="rgb(102,102,102)" stroke-width="1" font-size="13" >2</text>
<text x="208.281825" y="171.634940" fill="rgb(102,102,102)"  stroke="rgb(102,102,102)" stroke-width="1" font-size="16" >C</text>
<text x="283.993575" y="83.474682" fill="rgb(102,102,102)"  stroke="rgb(102,102,102)" stroke-width="1" font-size="16" >CH</text>
<text x="307.993575" y="87.154682" fill="rgb(102,102,102)"  stroke="rgb(102,102,102)" stroke-width="1" font-size="13" >3</text>
<text x="210.929943" y="61.831834" fill="rgb(191,191,191)"  stroke="rgb(191,191,191)" stroke-width="1" font-size="16" >H</text>
</svg>
</g>
<text font-size="18.000000" fill ="black" font-family="sans-serif"
x="10.000000" y="20.000000" ></text>
</svg>
