<?xml version="1.0"?>
<svg version="1.1" id="topsvg"
xmlns="http://www.w3.org/2000/svg" xmlns:xlink="http://www.w3.org/1999/xlink"
xmlns:cml="http://www.xml-cml.org/schema" x="0" y="0" width="200px" height="200px" viewBox="0 0 100 100">
<title> - Open Babel Depiction</title>
<rect x="0" y="0" width="100" height="100" fill="white"/>
<g transform="translate(0,0)">
<svg width="100" height="100" x="0" y="0" viewBox="0 0 408.796 367.592"
font-family="sans-serif" stroke="rgb(0,0,0)" stroke-width="2"  stroke-linecap="round">
<line x1="336.2" y1="315.1" x2="344.3" y2="286.0" stroke="rgb(0,0,0)"  stroke-width="2.0"/>
<line x1="344.3" y1="286.0" x2="361.3" y2="309.9" stroke="rgb(0,0,0)"  stroke-width="2.0"/>
<line x1="323.4" y1="183.8" x2="323.3" y2="223.9" stroke="rgb(0,0,0)"  stroke-width="2.0"/>
<line x1="288.6" y1="163.5" x2="253.6" y2="179.6" stroke="rgb(0,0,0)"  stroke-width="2.0"/>
<polygon points="288.621858 163.538259 283.927821 122.007429 291.926705 121.873864 " stroke-width="2.000000" fill="rgb(0,0,0)"  stroke="rgb(0,0,0)" />
<line x1="182.4" y1="102.2" x2="148.0" y2="121.9" stroke="rgb(0,0,0)"  stroke-width="2.0"/>
<line x1="182.4" y1="102.2" x2="189.2" y2="74.4" stroke="rgb(0,0,0)"  stroke-width="2.0"/>
<line x1="182.4" y1="102.2" x2="217.7" y2="122.5" stroke="rgb(0,0,0)"  stroke-width="2.0"/>
<line x1="148.0" y1="121.9" x2="126.3" y2="110.8" stroke="rgb(0,0,0)"  stroke-width="2.0"/>
<line x1="204.7" y1="58.1" x2="204.8" y2="58.1" stroke="rgb(0,0,0)"  stroke-width="2.0"/>
<line x1="252.6" y1="102.0" x2="217.7" y2="122.5" stroke="rgb(0,0,0)"  stroke-width="2.0"/>
<line x1="255.2" y1="74.7" x2="255.6" y2="101.9" stroke="rgb(0,0,0)"  stroke-width="2.0"/>
<line x1="249.2" y1="74.8" x2="249.6" y2="102.0" stroke="rgb(0,0,0)"  stroke-width="2.0"/>
<line x1="287.9" y1="121.9" x2="252.6" y2="102.0" stroke="rgb(0,0,0)"  stroke-width="2.0"/>
<line x1="287.2" y1="115.6" x2="288.8" y2="115.6" stroke="rgb(0,0,0)"  stroke-width="1.0"/>
<line x1="286.6" y1="110.5" x2="289.5" y2="110.5" stroke="rgb(0,0,0)"  stroke-width="1.0"/>
<line x1="286.0" y1="105.4" x2="290.1" y2="105.5" stroke="rgb(0,0,0)"  stroke-width="1.0"/>
<line x1="285.4" y1="100.3" x2="290.8" y2="100.4" stroke="rgb(0,0,0)"  stroke-width="1.0"/>
<line x1="284.8" y1="95.3" x2="291.5" y2="95.3" stroke="rgb(0,0,0)"  stroke-width="1.0"/>
<line x1="284.2" y1="90.2" x2="292.2" y2="90.2" stroke="rgb(0,0,0)"  stroke-width="1.0"/>
<line x1="328.8" y1="68.3" x2="328.3" y2="67.6" stroke="rgb(0,0,0)"  stroke-width="2.0"/>
<line x1="330.0" y1="90.8" x2="323.7" y2="103.2" stroke="rgb(0,0,0)"  stroke-width="2.0"/>
<line x1="75.9" y1="82.9" x2="51.2" y2="68.2" stroke="rgb(0,0,0)"  stroke-width="2.0"/>
<line x1="75.9" y1="82.9" x2="76.7" y2="53.0" stroke="rgb(0,0,0)"  stroke-width="2.0"/>
<line x1="75.9" y1="82.9" x2="103.4" y2="98.4" stroke="rgb(0,0,0)"  stroke-width="2.0"/>
<line x1="75.9" y1="82.9" x2="52.3" y2="96.5" stroke="rgb(0,0,0)"  stroke-width="2.0"/>
<line x1="87.1" y1="117.3" x2="102.9" y2="110.2" stroke="rgb(0,0,0)"  stroke-width="2.0"/>
<line x1="112.4" y1="72.9" x2="113.8" y2="91.9" stroke="rgb(0,0,0)"  stroke-width="2.0"/>
<line x1="230.2" y1="165.3" x2="254.8" y2="176.9" stroke="rgb(0,0,0)"  stroke-width="2.0"/>
<line x1="227.6" y1="170.8" x2="252.3" y2="182.4" stroke="rgb(0,0,0)"  stroke-width="2.0"/>
<line x1="302.9" y1="287.3" x2="293.5" y2="260.8" stroke="rgb(0,0,0)"  stroke-width="2.0"/>
<line x1="299.8" y1="240.9" x2="323.3" y2="223.9" stroke="rgb(0,0,0)"  stroke-width="2.0"/>
<line x1="323.3" y1="223.9" x2="344.8" y2="240.4" stroke="rgb(0,0,0)"  stroke-width="2.0"/>
<line x1="323.7" y1="233.2" x2="338.9" y2="244.9" stroke="rgb(0,0,0)"  stroke-width="2.0"/>
<line x1="351.7" y1="261.0" x2="344.3" y2="286.0" stroke="rgb(0,0,0)"  stroke-width="2.0"/>
<line x1="344.3" y1="286.0" x2="302.9" y2="287.3" stroke="rgb(0,0,0)"  stroke-width="2.0"/>
<line x1="287.9" y1="121.9" x2="288.6" y2="163.5" stroke="rgb(0,0,0)"  stroke-width="2.0"/>
<line x1="288.6" y1="163.5" x2="323.4" y2="183.8" stroke="rgb(0,0,0)"  stroke-width="2.0"/>
<line x1="323.4" y1="183.8" x2="359.5" y2="164.0" stroke="rgb(0,0,0)"  stroke-width="2.0"/>
<line x1="325.2" y1="174.6" x2="350.7" y2="160.6" stroke="rgb(0,0,0)"  stroke-width="2.0"/>
<line x1="359.5" y1="164.0" x2="359.2" y2="121.8" stroke="rgb(0,0,0)"  stroke-width="2.0"/>
<line x1="359.2" y1="121.8" x2="323.7" y2="103.2" stroke="rgb(0,0,0)"  stroke-width="2.0"/>
<line x1="350.5" y1="125.4" x2="325.6" y2="112.4" stroke="rgb(0,0,0)"  stroke-width="2.0"/>
<line x1="323.7" y1="103.2" x2="287.9" y2="121.9" stroke="rgb(0,0,0)"  stroke-width="2.0"/>
<text x="306.672090" y="335.591856" fill="rgb(102,102,102)"  stroke="rgb(102,102,102)" stroke-width="1" font-size="16" >H</text>
<text x="318.672090" y="339.271856" fill="rgb(102,102,102)"  stroke="rgb(102,102,102)" stroke-width="1" font-size="13" >3</text>
<text x="325.172090" y="335.591856" fill="rgb(102,102,102)"  stroke="rgb(102,102,102)" stroke-width="1" font-size="16" >C</text>
<text x="283.232993" y="256.526508" fill="rgb(255,12,12)"  stroke="rgb(255,12,12)" stroke-width="1" font-size="16" >O</text>
<text x="349.416031" y="256.526508" fill="rgb(12,12,255)"  stroke="rgb(12,12,255)" stroke-width="1" font-size="16" >N</text>
<text x="364.796403" y="328.522066" fill="rgb(102,102,102)"  stroke="rgb(102,102,102)" stroke-width="1" font-size="16" >CH</text>
<text x="388.796403" y="332.202066" fill="rgb(102,102,102)"  stroke="rgb(102,102,102)" stroke-width="1" font-size="13" >3</text>
<text x="108.703938" y="112.823462" fill="rgb(127,153,153)"  stroke="rgb(127,153,153)" stroke-width="1" font-size="16" >Si</text>
<text x="186.221255" y="69.758586" fill="rgb(255,12,12)"  stroke="rgb(255,12,12)" stroke-width="1" font-size="16" >O</text>
<text x="246.061404" y="69.758586" fill="rgb(255,12,12)"  stroke="rgb(255,12,12)" stroke-width="1" font-size="16" >O</text>
<text x="329.878533" y="87.228452" fill="rgb(255,12,12)"  stroke="rgb(255,12,12)" stroke-width="1" font-size="16" >O</text>
<text x="295.211276" y="64.654121" fill="rgb(102,102,102)"  stroke="rgb(102,102,102)" stroke-width="1" font-size="16" >H</text>
<text x="307.211276" y="68.334121" fill="rgb(102,102,102)"  stroke="rgb(102,102,102)" stroke-width="1" font-size="13" >3</text>
<text x="313.711276" y="64.654121" fill="rgb(102,102,102)"  stroke="rgb(102,102,102)" stroke-width="1" font-size="16" >C</text>
<text x="14.000000" y="69.564745" fill="rgb(102,102,102)"  stroke="rgb(102,102,102)" stroke-width="1" font-size="16" >H</text>
<text x="26.000000" y="73.244745" fill="rgb(102,102,102)"  stroke="rgb(102,102,102)" stroke-width="1" font-size="13" >3</text>
<text x="32.500000" y="69.564745" fill="rgb(102,102,102)"  stroke="rgb(102,102,102)" stroke-width="1" font-size="16" >C</text>
<text x="72.985826" y="48.000000" fill="rgb(102,102,102)"  stroke="rgb(102,102,102)" stroke-width="1" font-size="16" >CH</text>
<text x="96.985826" y="51.680000" fill="rgb(102,102,102)"  stroke="rgb(102,102,102)" stroke-width="1" font-size="13" >3</text>
<text x="15.060738" y="111.038515" fill="rgb(102,102,102)"  stroke="rgb(102,102,102)" stroke-width="1" font-size="16" >H</text>
<text x="27.060738" y="114.718515" fill="rgb(102,102,102)"  stroke="rgb(102,102,102)" stroke-width="1" font-size="13" >3</text>
<text x="33.560738" y="111.038515" fill="rgb(102,102,102)"  stroke="rgb(102,102,102)" stroke-width="1" font-size="16" >C</text>
<text x="49.246647" y="130.640626" fill="rgb(102,102,102)"  stroke="rgb(102,102,102)" stroke-width="1" font-size="16" >H</text>
<text x="61.246647" y="134.320626" fill="rgb(102,102,102)"  stroke="rgb(102,102,102)" stroke-width="1" font-size="13" >3</text>
<text x="67.746647" y="130.640626" fill="rgb(102,102,102)"  stroke="rgb(102,102,102)" stroke-width="1" font-size="16" >C</text>
<text x="85.532494" y="67.946716" fill="rgb(102,102,102)"  stroke="rgb(102,102,102)" stroke-width="1" font-size="16" >H</text>
<text x="97.532494" y="71.626716" fill="rgb(102,102,102)"  stroke="rgb(102,102,102)" stroke-width="1" font-size="13" >3</text>
<text x="104.032494" y="67.946716" fill="rgb(102,102,102)"  stroke="rgb(102,102,102)" stroke-width="1" font-size="16" >C</text>
<text x="191.127055" y="170.542135" fill="rgb(102,102,102)"  stroke="rgb(102,102,102)" stroke-width="1" font-size="16" >H</text>
<text x="203.127055" y="174.222135" fill="rgb(102,102,102)"  stroke="rgb(102,102,102)" stroke-width="1" font-size="13" >2</text>
<text x="209.627055" y="170.542135" fill="rgb(102,102,102)"  stroke="rgb(102,102,102)" stroke-width="1" font-size="16" >C</text>
<text x="284.325713" y="82.578975" fill="rgb(102,102,102)"  stroke="rgb(102,102,102)" stroke-width="1" font-size="16" >CH</text>
<text x="308.325713" y="86.258975" fill="rgb(102,102,102)"  stroke="rgb(102,102,102)" stroke-width="1" font-size="13" >3</text>
<text x="211.277820" y="62.392650" fill="rgb(191,191,191)"  stroke="rgb(191,191,191)" stroke-width="1" font-size="16" >H</text>
</svg>
</g>
<text font-size="18.000000" fill ="black" font-family="sans-serif"
x="10.000000" y="20.000000" ></text>
</svg>
