<?xml version="1.0"?>
<svg version="1.1" id="topsvg"
xmlns="http://www.w3.org/2000/svg" xmlns:xlink="http://www.w3.org/1999/xlink"
xmlns:cml="http://www.xml-cml.org/schema" x="0" y="0" width="200px" height="200px" viewBox="0 0 100 100">
<title> - Open Babel Depiction</title>
<rect x="0" y="0" width="100" height="100" fill="white"/>
<g transform="translate(0,0)">
<svg width="100" height="100" x="0" y="0" viewBox="0 0 306.45 133.63"
font-family="sans-serif" stroke="rgb(0,0,0)" stroke-width="2"  stroke-linecap="round">
<line x1="53.0" y1="41.9" x2="97.3" y2="40.6" stroke="rgb(0,0,0)"  stroke-width="2.0"/>
<line x1="97.3" y1="40.6" x2="120.1" y2="80.8" stroke="rgb(0,0,0)"  stroke-width="2.0"/>
<line x1="120.1" y1="77.8" x2="167.6" y2="77.8" stroke="rgb(0,0,0)"  stroke-width="2.0"/>
<line x1="120.1" y1="83.8" x2="167.6" y2="83.8" stroke="rgb(0,0,0)"  stroke-width="2.0"/>
<line x1="167.6" y1="80.8" x2="190.8" y2="40.0" stroke="rgb(0,0,0)"  stroke-width="2.0"/>
<line x1="227.6" y1="52.2" x2="235.9" y2="67.6" stroke="rgb(0,0,0)"  stroke-width="2.0"/>
<line x1="208.4" y1="40.4" x2="190.8" y2="40.0" stroke="rgb(0,0,0)"  stroke-width="2.0"/>
<line x1="238.5" y1="69.2" x2="229.3" y2="84.1" stroke="rgb(0,0,0)"  stroke-width="2.0"/>
<line x1="233.4" y1="66.0" x2="224.2" y2="81.0" stroke="rgb(0,0,0)"  stroke-width="2.0"/>
<line x1="235.9" y1="67.6" x2="253.5" y2="68.0" stroke="rgb(0,0,0)"  stroke-width="2.0"/>
<text x="22.000000" y="50.331892" fill="rgb(165,40,40)"  stroke="rgb(165,40,40)" stroke-width="1" font-size="16" >Br</text>
<text x="215.356477" y="48.781367" fill="rgb(255,12,12)"  stroke="rgb(255,12,12)" stroke-width="1" font-size="16" >O</text>
<text x="214.004346" y="101.630460" fill="rgb(255,12,12)"  stroke="rgb(255,12,12)" stroke-width="1" font-size="16" >O</text>
<text x="262.449893" y="76.376438" fill="rgb(102,102,102)"  stroke="rgb(102,102,102)" stroke-width="1" font-size="16" >CH</text>
<text x="286.449893" y="80.056438" fill="rgb(102,102,102)"  stroke="rgb(102,102,102)" stroke-width="1" font-size="13" >3</text>
</svg>
</g>
<text font-size="18.000000" fill ="black" font-family="sans-serif"
x="10.000000" y="20.000000" ></text>
</svg>
