<?xml version="1.0"?>
<svg version="1.1" id="topsvg"
xmlns="http://www.w3.org/2000/svg" xmlns:xlink="http://www.w3.org/1999/xlink"
xmlns:cml="http://www.xml-cml.org/schema" x="0" y="0" width="200px" height="200px" viewBox="0 0 100 100">
<title> - Open Babel Depiction</title>
<rect x="0" y="0" width="100" height="100" fill="white"/>
<g transform="translate(0,0)">
<svg width="100" height="100" x="0" y="0" viewBox="0 0 370.016 350.984"
font-family="sans-serif" stroke="rgb(0,0,0)" stroke-width="2"  stroke-linecap="round">
<line x1="298.2" y1="298.6" x2="307.1" y2="271.4" stroke="rgb(0,0,0)"  stroke-width="2.0"/>
<line x1="322.7" y1="294.0" x2="307.1" y2="271.4" stroke="rgb(0,0,0)"  stroke-width="2.0"/>
<line x1="285.5" y1="167.1" x2="285.6" y2="208.4" stroke="rgb(0,0,0)"  stroke-width="2.0"/>
<line x1="249.5" y1="148.2" x2="216.3" y2="164.5" stroke="rgb(0,0,0)"  stroke-width="2.0"/>
<polygon points="249.488480 148.214616 246.531965 106.935434 254.529403 107.137848 " stroke-width="2.000000" fill="rgb(0,0,0)"  stroke="rgb(0,0,0)" />
<line x1="110.8" y1="107.5" x2="144.7" y2="90.6" stroke="rgb(0,0,0)"  stroke-width="2.0"/>
<line x1="146.3" y1="88.1" x2="180.9" y2="108.4" stroke="rgb(0,0,0)"  stroke-width="2.0"/>
<line x1="143.2" y1="93.2" x2="177.9" y2="113.5" stroke="rgb(0,0,0)"  stroke-width="2.0"/>
<line x1="179.4" y1="110.9" x2="214.3" y2="86.7" stroke="rgb(0,0,0)"  stroke-width="2.0"/>
<line x1="211.3" y1="86.6" x2="211.7" y2="59.7" stroke="rgb(0,0,0)"  stroke-width="2.0"/>
<line x1="217.3" y1="86.7" x2="217.7" y2="59.8" stroke="rgb(0,0,0)"  stroke-width="2.0"/>
<line x1="250.5" y1="107.0" x2="214.3" y2="86.7" stroke="rgb(0,0,0)"  stroke-width="2.0"/>
<line x1="249.8" y1="100.7" x2="251.4" y2="100.7" stroke="rgb(0,0,0)"  stroke-width="1.0"/>
<line x1="249.1" y1="95.6" x2="252.0" y2="95.6" stroke="rgb(0,0,0)"  stroke-width="1.0"/>
<line x1="248.5" y1="90.5" x2="252.7" y2="90.6" stroke="rgb(0,0,0)"  stroke-width="1.0"/>
<line x1="247.9" y1="85.5" x2="253.4" y2="85.5" stroke="rgb(0,0,0)"  stroke-width="1.0"/>
<line x1="247.3" y1="80.4" x2="254.0" y2="80.4" stroke="rgb(0,0,0)"  stroke-width="1.0"/>
<line x1="246.7" y1="75.3" x2="254.7" y2="75.4" stroke="rgb(0,0,0)"  stroke-width="1.0"/>
<line x1="291.3" y1="52.0" x2="290.6" y2="50.9" stroke="rgb(0,0,0)"  stroke-width="2.0"/>
<line x1="292.3" y1="74.5" x2="285.8" y2="87.2" stroke="rgb(0,0,0)"  stroke-width="2.0"/>
<line x1="192.8" y1="150.2" x2="217.6" y2="161.7" stroke="rgb(0,0,0)"  stroke-width="2.0"/>
<line x1="190.2" y1="155.6" x2="215.0" y2="167.2" stroke="rgb(0,0,0)"  stroke-width="2.0"/>
<line x1="110.3" y1="149.0" x2="75.7" y2="169.0" stroke="rgb(0,0,0)"  stroke-width="2.0"/>
<line x1="101.5" y1="145.8" x2="77.3" y2="159.7" stroke="rgb(0,0,0)"  stroke-width="2.0"/>
<line x1="75.7" y1="169.0" x2="40.0" y2="149.3" stroke="rgb(0,0,0)"  stroke-width="2.0"/>
<line x1="40.0" y1="149.3" x2="40.5" y2="106.8" stroke="rgb(0,0,0)"  stroke-width="2.0"/>
<line x1="47.3" y1="143.4" x2="47.7" y2="112.9" stroke="rgb(0,0,0)"  stroke-width="2.0"/>
<line x1="40.5" y1="106.8" x2="75.7" y2="87.2" stroke="rgb(0,0,0)"  stroke-width="2.0"/>
<line x1="75.7" y1="87.2" x2="110.8" y2="107.5" stroke="rgb(0,0,0)"  stroke-width="2.0"/>
<line x1="77.3" y1="96.4" x2="102.0" y2="110.7" stroke="rgb(0,0,0)"  stroke-width="2.0"/>
<line x1="110.8" y1="107.5" x2="110.3" y2="149.0" stroke="rgb(0,0,0)"  stroke-width="2.0"/>
<line x1="265.2" y1="271.5" x2="256.0" y2="245.8" stroke="rgb(0,0,0)"  stroke-width="2.0"/>
<line x1="262.1" y1="225.8" x2="285.6" y2="208.4" stroke="rgb(0,0,0)"  stroke-width="2.0"/>
<line x1="285.6" y1="208.4" x2="307.4" y2="224.6" stroke="rgb(0,0,0)"  stroke-width="2.0"/>
<line x1="286.1" y1="217.8" x2="301.5" y2="229.2" stroke="rgb(0,0,0)"  stroke-width="2.0"/>
<line x1="314.6" y1="245.1" x2="307.1" y2="271.4" stroke="rgb(0,0,0)"  stroke-width="2.0"/>
<line x1="307.1" y1="271.4" x2="265.2" y2="271.5" stroke="rgb(0,0,0)"  stroke-width="2.0"/>
<line x1="250.5" y1="107.0" x2="249.5" y2="148.2" stroke="rgb(0,0,0)"  stroke-width="2.0"/>
<line x1="249.5" y1="148.2" x2="285.5" y2="167.1" stroke="rgb(0,0,0)"  stroke-width="2.0"/>
<line x1="285.5" y1="167.1" x2="320.9" y2="148.8" stroke="rgb(0,0,0)"  stroke-width="2.0"/>
<line x1="287.5" y1="158.0" x2="312.3" y2="145.2" stroke="rgb(0,0,0)"  stroke-width="2.0"/>
<line x1="320.9" y1="148.8" x2="321.0" y2="106.9" stroke="rgb(0,0,0)"  stroke-width="2.0"/>
<line x1="321.0" y1="106.9" x2="285.8" y2="87.2" stroke="rgb(0,0,0)"  stroke-width="2.0"/>
<line x1="312.3" y1="110.2" x2="287.5" y2="96.4" stroke="rgb(0,0,0)"  stroke-width="2.0"/>
<line x1="285.8" y1="87.2" x2="250.5" y2="107.0" stroke="rgb(0,0,0)"  stroke-width="2.0"/>
<text x="268.191396" y="318.983978" fill="rgb(102,102,102)"  stroke="rgb(102,102,102)" stroke-width="1" font-size="16" >H</text>
<text x="280.191396" y="322.663978" fill="rgb(102,102,102)"  stroke="rgb(102,102,102)" stroke-width="1" font-size="13" >3</text>
<text x="286.691396" y="318.983978" fill="rgb(102,102,102)"  stroke="rgb(102,102,102)" stroke-width="1" font-size="16" >C</text>
<text x="245.660193" y="241.511655" fill="rgb(255,12,12)"  stroke="rgb(255,12,12)" stroke-width="1" font-size="16" >O</text>
<text x="312.110253" y="240.614050" fill="rgb(12,12,255)"  stroke="rgb(12,12,255)" stroke-width="1" font-size="16" >N</text>
<text x="326.016480" y="312.678916" fill="rgb(102,102,102)"  stroke="rgb(102,102,102)" stroke-width="1" font-size="16" >CH</text>
<text x="350.016480" y="316.358916" fill="rgb(102,102,102)"  stroke="rgb(102,102,102)" stroke-width="1" font-size="13" >3</text>
<text x="208.842014" y="54.736131" fill="rgb(255,12,12)"  stroke="rgb(255,12,12)" stroke-width="1" font-size="16" >O</text>
<text x="292.300191" y="70.963958" fill="rgb(255,12,12)"  stroke="rgb(255,12,12)" stroke-width="1" font-size="16" >O</text>
<text x="257.570191" y="48.000000" fill="rgb(102,102,102)"  stroke="rgb(102,102,102)" stroke-width="1" font-size="16" >H</text>
<text x="269.570191" y="51.680000" fill="rgb(102,102,102)"  stroke="rgb(102,102,102)" stroke-width="1" font-size="13" >3</text>
<text x="276.070191" y="48.000000" fill="rgb(102,102,102)"  stroke="rgb(102,102,102)" stroke-width="1" font-size="16" >C</text>
<text x="246.762588" y="67.741856" fill="rgb(102,102,102)"  stroke="rgb(102,102,102)" stroke-width="1" font-size="16" >CH</text>
<text x="270.762588" y="71.421856" fill="rgb(102,102,102)"  stroke="rgb(102,102,102)" stroke-width="1" font-size="13" >3</text>
<text x="153.723556" y="155.393403" fill="rgb(102,102,102)"  stroke="rgb(102,102,102)" stroke-width="1" font-size="16" >H</text>
<text x="165.723556" y="159.073403" fill="rgb(102,102,102)"  stroke="rgb(102,102,102)" stroke-width="1" font-size="13" >2</text>
<text x="172.223556" y="155.393403" fill="rgb(102,102,102)"  stroke="rgb(102,102,102)" stroke-width="1" font-size="16" >C</text>
</svg>
</g>
<text font-size="18.000000" fill ="black" font-family="sans-serif"
x="10.000000" y="20.000000" ></text>
</svg>
