<?xml version="1.0"?>
<svg version="1.1" id="topsvg"
xmlns="http://www.w3.org/2000/svg" xmlns:xlink="http://www.w3.org/1999/xlink"
xmlns:cml="http://www.xml-cml.org/schema" x="0" y="0" width="200px" height="200px" viewBox="0 0 100 100">
<title> - Open Babel Depiction</title>
<rect x="0" y="0" width="100" height="100" fill="white"/>
<g transform="translate(0,0)">
<svg width="100" height="100" x="0" y="0" viewBox="0 0 255.216 347.129"
font-family="sans-serif" stroke="rgb(0,0,0)" stroke-width="2"  stroke-linecap="round">
<line x1="156.9" y1="269.1" x2="131.0" y2="275.1" stroke="rgb(0,0,0)"  stroke-width="2.0"/>
<line x1="156.9" y1="269.1" x2="150.4" y2="294.5" stroke="rgb(0,0,0)"  stroke-width="2.0"/>
<line x1="179.4" y1="205.4" x2="179.3" y2="165.1" stroke="rgb(0,0,0)"  stroke-width="2.0"/>
<polygon points="145.093004 145.162330 123.323725 166.217614 118.570163 159.783047 " stroke-width="2.000000" fill="rgb(0,0,0)"  stroke="rgb(0,0,0)" />
<line x1="138.4" y1="102.2" x2="139.3" y2="100.8" stroke="rgb(0,0,0)"  stroke-width="1.0"/>
<line x1="132.7" y1="99.4" x2="134.2" y2="97.0" stroke="rgb(0,0,0)"  stroke-width="1.0"/>
<line x1="127.0" y1="96.7" x2="129.1" y2="93.1" stroke="rgb(0,0,0)"  stroke-width="1.0"/>
<line x1="121.2" y1="93.9" x2="124.1" y2="89.2" stroke="rgb(0,0,0)"  stroke-width="1.0"/>
<line x1="115.5" y1="91.1" x2="119.0" y2="85.4" stroke="rgb(0,0,0)"  stroke-width="1.0"/>
<line x1="109.8" y1="88.3" x2="113.9" y2="81.5" stroke="rgb(0,0,0)"  stroke-width="1.0"/>
<line x1="184.9" y1="51.5" x2="184.5" y2="51.0" stroke="rgb(0,0,0)"  stroke-width="2.0"/>
<line x1="185.8" y1="74.0" x2="179.5" y2="86.1" stroke="rgb(0,0,0)"  stroke-width="2.0"/>
<line x1="52.7" y1="88.4" x2="76.3" y2="102.1" stroke="rgb(0,0,0)"  stroke-width="2.0"/>
<line x1="49.7" y1="93.6" x2="73.2" y2="107.3" stroke="rgb(0,0,0)"  stroke-width="2.0"/>
<line x1="74.8" y1="104.7" x2="111.8" y2="84.9" stroke="rgb(0,0,0)"  stroke-width="2.0"/>
<line x1="75.9" y1="144.9" x2="100.1" y2="161.9" stroke="rgb(0,0,0)"  stroke-width="2.0"/>
<line x1="72.4" y1="149.8" x2="96.7" y2="166.8" stroke="rgb(0,0,0)"  stroke-width="2.0"/>
<line x1="156.5" y1="221.7" x2="179.4" y2="205.4" stroke="rgb(0,0,0)"  stroke-width="2.0"/>
<line x1="162.2" y1="226.5" x2="178.7" y2="214.7" stroke="rgb(0,0,0)"  stroke-width="2.0"/>
<line x1="179.4" y1="205.4" x2="200.9" y2="222.9" stroke="rgb(0,0,0)"  stroke-width="2.0"/>
<line x1="207.0" y1="243.5" x2="199.2" y2="268.1" stroke="rgb(0,0,0)"  stroke-width="2.0"/>
<line x1="199.2" y1="268.1" x2="156.9" y2="269.1" stroke="rgb(0,0,0)"  stroke-width="2.0"/>
<line x1="156.9" y1="269.1" x2="148.9" y2="242.2" stroke="rgb(0,0,0)"  stroke-width="2.0"/>
<line x1="145.6" y1="105.7" x2="145.1" y2="145.2" stroke="rgb(0,0,0)"  stroke-width="2.0"/>
<line x1="145.1" y1="145.2" x2="179.3" y2="165.1" stroke="rgb(0,0,0)"  stroke-width="2.0"/>
<line x1="179.3" y1="165.1" x2="215.0" y2="146.3" stroke="rgb(0,0,0)"  stroke-width="2.0"/>
<line x1="181.3" y1="155.9" x2="206.4" y2="142.7" stroke="rgb(0,0,0)"  stroke-width="2.0"/>
<line x1="215.0" y1="146.3" x2="215.2" y2="104.6" stroke="rgb(0,0,0)"  stroke-width="2.0"/>
<line x1="215.2" y1="104.6" x2="179.5" y2="86.1" stroke="rgb(0,0,0)"  stroke-width="2.0"/>
<line x1="206.6" y1="108.2" x2="181.5" y2="95.3" stroke="rgb(0,0,0)"  stroke-width="2.0"/>
<line x1="179.5" y1="86.1" x2="145.6" y2="105.7" stroke="rgb(0,0,0)"  stroke-width="2.0"/>
<text x="92.362468" y="286.071091" fill="rgb(102,102,102)"  stroke="rgb(102,102,102)" stroke-width="1" font-size="16" >H</text>
<text x="104.362468" y="289.751091" fill="rgb(102,102,102)"  stroke="rgb(102,102,102)" stroke-width="1" font-size="13" >3</text>
<text x="110.862468" y="286.071091" fill="rgb(102,102,102)"  stroke="rgb(102,102,102)" stroke-width="1" font-size="16" >C</text>
<text x="139.266319" y="237.724149" fill="rgb(12,12,255)"  stroke="rgb(12,12,255)" stroke-width="1" font-size="16" >N</text>
<text x="204.939448" y="239.065342" fill="rgb(255,12,12)"  stroke="rgb(255,12,12)" stroke-width="1" font-size="16" >O</text>
<text x="97.054108" y="179.786211" fill="rgb(17,127,178)"  stroke="rgb(17,127,178)" stroke-width="1" font-size="16" >Xx</text>
<text x="185.840113" y="70.498979" fill="rgb(255,12,12)"  stroke="rgb(255,12,12)" stroke-width="1" font-size="16" >O</text>
<text x="151.534943" y="48.000000" fill="rgb(102,102,102)"  stroke="rgb(102,102,102)" stroke-width="1" font-size="16" >H</text>
<text x="163.534943" y="51.680000" fill="rgb(102,102,102)"  stroke="rgb(102,102,102)" stroke-width="1" font-size="13" >3</text>
<text x="170.034943" y="48.000000" fill="rgb(102,102,102)"  stroke="rgb(102,102,102)" stroke-width="1" font-size="16" >C</text>
<text x="14.000000" y="92.411353" fill="rgb(102,102,102)"  stroke="rgb(102,102,102)" stroke-width="1" font-size="16" >H</text>
<text x="26.000000" y="96.091353" fill="rgb(102,102,102)"  stroke="rgb(102,102,102)" stroke-width="1" font-size="13" >2</text>
<text x="32.500000" y="92.411353" fill="rgb(102,102,102)"  stroke="rgb(102,102,102)" stroke-width="1" font-size="16" >C</text>
<text x="121.220782" y="315.129384" fill="rgb(102,102,102)"  stroke="rgb(102,102,102)" stroke-width="1" font-size="16" >H</text>
<text x="133.220782" y="318.809384" fill="rgb(102,102,102)"  stroke="rgb(102,102,102)" stroke-width="1" font-size="13" >3</text>
<text x="139.720782" y="315.129384" fill="rgb(102,102,102)"  stroke="rgb(102,102,102)" stroke-width="1" font-size="16" >C</text>
<text x="57.512207" y="147.928211" fill="rgb(178,178,0)"  stroke="rgb(178,178,0)" stroke-width="1" font-size="16" >S</text>
</svg>
</g>
<text font-size="18.000000" fill ="black" font-family="sans-serif"
x="10.000000" y="20.000000" ></text>
</svg>
