<?xml version="1.0"?>
<svg version="1.1" id="topsvg"
xmlns="http://www.w3.org/2000/svg" xmlns:xlink="http://www.w3.org/1999/xlink"
xmlns:cml="http://www.xml-cml.org/schema" x="0" y="0" width="200px" height="200px" viewBox="0 0 100 100">
<title> - Open Babel Depiction</title>
<rect x="0" y="0" width="100" height="100" fill="white"/>
<g transform="translate(0,0)">
<svg width="100" height="100" x="0" y="0" viewBox="0 0 292.698 355.228"
font-family="sans-serif" stroke="rgb(0,0,0)" stroke-width="2"  stroke-linecap="round">
<line x1="167.1" y1="282.4" x2="193.2" y2="275.6" stroke="rgb(0,0,0)"  stroke-width="2.0"/>
<line x1="193.2" y1="275.6" x2="187.0" y2="302.6" stroke="rgb(0,0,0)"  stroke-width="2.0"/>
<line x1="182.4" y1="148.9" x2="147.4" y2="166.0" stroke="rgb(0,0,0)"  stroke-width="2.0"/>
<polygon points="182.355114 148.915028 177.620303 107.961421 185.619017 107.818029 " stroke-width="2.000000" fill="rgb(0,0,0)"  stroke="rgb(0,0,0)" />
<line x1="146.3" y1="90.0" x2="111.0" y2="107.7" stroke="rgb(0,0,0)"  stroke-width="2.0"/>
<line x1="49.7" y1="99.6" x2="74.1" y2="85.2" stroke="rgb(0,0,0)"  stroke-width="2.0"/>
<line x1="52.7" y1="104.7" x2="77.2" y2="90.4" stroke="rgb(0,0,0)"  stroke-width="2.0"/>
<line x1="75.7" y1="87.8" x2="111.0" y2="107.7" stroke="rgb(0,0,0)"  stroke-width="2.0"/>
<line x1="181.6" y1="107.9" x2="181.7" y2="79.7" stroke="rgb(0,0,0)"  stroke-width="2.0"/>
<line x1="181.6" y1="107.9" x2="146.3" y2="90.0" stroke="rgb(0,0,0)"  stroke-width="2.0"/>
<line x1="217.5" y1="87.5" x2="223.7" y2="60.4" stroke="rgb(0,0,0)"  stroke-width="2.0"/>
<polygon points="217.469647 87.527693 183.595164 111.367855 179.644156 104.411596 " stroke-width="2.000000" fill="rgb(0,0,0)"  stroke="rgb(0,0,0)" />
<line x1="239.0" y1="43.9" x2="239.4" y2="43.8" stroke="rgb(0,0,0)"  stroke-width="2.0"/>
<line x1="218.0" y1="177.2" x2="216.4" y2="177.3" stroke="rgb(0,0,0)"  stroke-width="1.0"/>
<line x1="218.9" y1="183.7" x2="216.0" y2="183.8" stroke="rgb(0,0,0)"  stroke-width="1.0"/>
<line x1="219.8" y1="190.2" x2="215.6" y2="190.3" stroke="rgb(0,0,0)"  stroke-width="1.0"/>
<line x1="220.6" y1="196.7" x2="215.2" y2="196.9" stroke="rgb(0,0,0)"  stroke-width="1.0"/>
<line x1="221.5" y1="203.2" x2="214.8" y2="203.4" stroke="rgb(0,0,0)"  stroke-width="1.0"/>
<line x1="222.4" y1="209.7" x2="214.4" y2="210.0" stroke="rgb(0,0,0)"  stroke-width="1.0"/>
<line x1="182.7" y1="154.2" x2="147.4" y2="166.0" stroke="rgb(0,0,0)"  stroke-width="2.0"/>
<line x1="122.8" y1="152.1" x2="148.6" y2="163.2" stroke="rgb(0,0,0)"  stroke-width="2.0"/>
<line x1="120.4" y1="157.6" x2="146.2" y2="168.7" stroke="rgb(0,0,0)"  stroke-width="2.0"/>
<line x1="181.6" y1="178.6" x2="182.7" y2="154.2" stroke="rgb(0,0,0)"  stroke-width="2.0"/>
<line x1="193.9" y1="227.3" x2="218.4" y2="209.8" stroke="rgb(0,0,0)"  stroke-width="2.0"/>
<line x1="199.3" y1="232.3" x2="217.7" y2="219.2" stroke="rgb(0,0,0)"  stroke-width="2.0"/>
<line x1="218.4" y1="209.8" x2="239.2" y2="228.9" stroke="rgb(0,0,0)"  stroke-width="2.0"/>
<line x1="244.6" y1="250.0" x2="236.2" y2="275.0" stroke="rgb(0,0,0)"  stroke-width="2.0"/>
<line x1="236.2" y1="275.0" x2="193.2" y2="275.6" stroke="rgb(0,0,0)"  stroke-width="2.0"/>
<line x1="193.2" y1="275.6" x2="185.4" y2="248.4" stroke="rgb(0,0,0)"  stroke-width="2.0"/>
<line x1="182.4" y1="148.9" x2="181.6" y2="107.9" stroke="rgb(0,0,0)"  stroke-width="2.0"/>
<line x1="181.6" y1="107.9" x2="217.5" y2="87.5" stroke="rgb(0,0,0)"  stroke-width="2.0"/>
<line x1="217.5" y1="87.5" x2="252.0" y2="109.0" stroke="rgb(0,0,0)"  stroke-width="2.0"/>
<line x1="252.0" y1="109.0" x2="252.7" y2="150.7" stroke="rgb(0,0,0)"  stroke-width="2.0"/>
<line x1="252.7" y1="150.7" x2="216.9" y2="169.1" stroke="rgb(0,0,0)"  stroke-width="2.0"/>
<line x1="216.9" y1="169.1" x2="182.4" y2="148.9" stroke="rgb(0,0,0)"  stroke-width="2.0"/>
<text x="128.554413" y="293.723028" fill="rgb(102,102,102)"  stroke="rgb(102,102,102)" stroke-width="1" font-size="16" >H</text>
<text x="140.554413" y="297.403028" fill="rgb(102,102,102)"  stroke="rgb(102,102,102)" stroke-width="1" font-size="13" >3</text>
<text x="147.054413" y="293.723028" fill="rgb(102,102,102)"  stroke="rgb(102,102,102)" stroke-width="1" font-size="16" >C</text>
<text x="175.831341" y="243.904844" fill="rgb(12,12,255)"  stroke="rgb(12,12,255)" stroke-width="1" font-size="16" >N</text>
<text x="242.782073" y="245.714984" fill="rgb(255,12,12)"  stroke="rgb(255,12,12)" stroke-width="1" font-size="16" >O</text>
<text x="158.032275" y="323.228029" fill="rgb(102,102,102)"  stroke="rgb(102,102,102)" stroke-width="1" font-size="16" >H</text>
<text x="170.032275" y="326.908029" fill="rgb(102,102,102)"  stroke="rgb(102,102,102)" stroke-width="1" font-size="13" >3</text>
<text x="176.532275" y="323.228029" fill="rgb(102,102,102)"  stroke="rgb(102,102,102)" stroke-width="1" font-size="16" >C</text>
<text x="14.000000" y="116.736447" fill="rgb(102,102,102)"  stroke="rgb(102,102,102)" stroke-width="1" font-size="16" >H</text>
<text x="26.000000" y="120.416447" fill="rgb(102,102,102)"  stroke="rgb(102,102,102)" stroke-width="1" font-size="13" >2</text>
<text x="32.500000" y="116.736447" fill="rgb(102,102,102)"  stroke="rgb(102,102,102)" stroke-width="1" font-size="16" >C</text>
<text x="177.722786" y="74.720588" fill="rgb(102,102,102)"  stroke="rgb(102,102,102)" stroke-width="1" font-size="16" >CH</text>
<text x="201.722786" y="78.400588" fill="rgb(102,102,102)"  stroke="rgb(102,102,102)" stroke-width="1" font-size="13" >3</text>
<text x="220.615329" y="55.720909" fill="rgb(255,12,12)"  stroke="rgb(255,12,12)" stroke-width="1" font-size="16" >O</text>
<text x="83.642874" y="157.759036" fill="rgb(102,102,102)"  stroke="rgb(102,102,102)" stroke-width="1" font-size="16" >H</text>
<text x="95.642874" y="161.439036" fill="rgb(102,102,102)"  stroke="rgb(102,102,102)" stroke-width="1" font-size="13" >2</text>
<text x="102.142874" y="157.759036" fill="rgb(102,102,102)"  stroke="rgb(102,102,102)" stroke-width="1" font-size="16" >C</text>
<text x="174.927628" y="199.574070" fill="rgb(191,191,191)"  stroke="rgb(191,191,191)" stroke-width="1" font-size="16" >H</text>
<text x="245.783593" y="48.000000" fill="rgb(191,191,191)"  stroke="rgb(191,191,191)" stroke-width="1" font-size="16" >H</text>
</svg>
</g>
<text font-size="18.000000" fill ="black" font-family="sans-serif"
x="10.000000" y="20.000000" ></text>
</svg>
