<?xml version="1.0"?>
<svg version="1.1" id="topsvg"
xmlns="http://www.w3.org/2000/svg" xmlns:xlink="http://www.w3.org/1999/xlink"
xmlns:cml="http://www.xml-cml.org/schema" x="0" y="0" width="200px" height="200px" viewBox="0 0 100 100">
<title> - Open Babel Depiction</title>
<rect x="0" y="0" width="100" height="100" fill="white"/>
<g transform="translate(0,0)">
<svg width="100" height="100" x="0" y="0" viewBox="0 0 323.652 269.665"
font-family="sans-serif" stroke="rgb(0,0,0)" stroke-width="2"  stroke-linecap="round">
<polygon points="133.109 168.081 145.655 206.566 137.841 208.282 " stroke-width="2" fill="rgb(0,0,0)"  stroke="rgb(0,0,0)" />
<line x1="71.5" y1="81.4" x2="72.4" y2="78.8" stroke="rgb(0,0,0)"  stroke-width="2.0"/>
<line x1="54.8" y1="89.0" x2="52.2" y2="88.1" stroke="rgb(0,0,0)"  stroke-width="2.0"/>
<line x1="62.4" y1="105.8" x2="61.4" y2="108.3" stroke="rgb(0,0,0)"  stroke-width="2.0"/>
<line x1="79.1" y1="98.1" x2="93.9" y2="103.6" stroke="rgb(0,0,0)"  stroke-width="2.0"/>
<line x1="132.6" y1="53.0" x2="133.0" y2="83.0" stroke="rgb(0,0,0)"  stroke-width="2.0"/>
<line x1="126.6" y1="53.0" x2="127.0" y2="83.1" stroke="rgb(0,0,0)"  stroke-width="2.0"/>
<polygon points="168.727730 103.014599 200.573412 85.642453 203.606770 93.045070 " stroke-width="2.000000" fill="rgb(0,0,0)"  stroke="rgb(0,0,0)" />
<polygon points="244.272254 106.762081 200.563406 93.040954 203.616776 85.646569 " stroke-width="2.000000" fill="rgb(0,0,0)"  stroke="rgb(0,0,0)" />
<line x1="244.3" y1="106.8" x2="258.9" y2="133.0" stroke="rgb(0,0,0)"  stroke-width="2.0"/>
<line x1="167.1" y1="137.6" x2="168.7" y2="137.7" stroke="rgb(0,0,0)"  stroke-width="1.0"/>
<line x1="166.7" y1="130.7" x2="169.5" y2="130.8" stroke="rgb(0,0,0)"  stroke-width="1.0"/>
<line x1="166.2" y1="123.8" x2="170.3" y2="123.8" stroke="rgb(0,0,0)"  stroke-width="1.0"/>
<line x1="165.7" y1="116.8" x2="171.1" y2="116.9" stroke="rgb(0,0,0)"  stroke-width="1.0"/>
<line x1="165.2" y1="109.9" x2="171.9" y2="110.0" stroke="rgb(0,0,0)"  stroke-width="1.0"/>
<line x1="164.7" y1="102.9" x2="172.7" y2="103.1" stroke="rgb(0,0,0)"  stroke-width="1.0"/>
<line x1="167.7" y1="146.3" x2="204.6" y2="167.3" stroke="rgb(0,0,0)"  stroke-width="2.0"/>
<line x1="203.1" y1="164.7" x2="229.9" y2="149.2" stroke="rgb(0,0,0)"  stroke-width="2.0"/>
<line x1="206.1" y1="169.9" x2="232.9" y2="154.4" stroke="rgb(0,0,0)"  stroke-width="2.0"/>
<line x1="202.1" y1="89.3" x2="244.3" y2="106.8" stroke="rgb(0,0,0)"  stroke-width="2.0"/>
<line x1="244.3" y1="106.8" x2="216.0" y2="95.8" stroke="rgb(0,0,0)"  stroke-width="2.0"/>
<line x1="216.0" y1="95.8" x2="168.7" y2="103.0" stroke="rgb(0,0,0)"  stroke-width="2.0"/>
<line x1="168.7" y1="103.0" x2="202.1" y2="89.3" stroke="rgb(0,0,0)"  stroke-width="2.0"/>
<line x1="93.9" y1="103.6" x2="94.7" y2="145.8" stroke="rgb(0,0,0)"  stroke-width="2.0"/>
<line x1="101.2" y1="109.4" x2="101.8" y2="139.6" stroke="rgb(0,0,0)"  stroke-width="2.0"/>
<line x1="94.7" y1="145.8" x2="133.1" y2="168.1" stroke="rgb(0,0,0)"  stroke-width="2.0"/>
<line x1="133.1" y1="168.1" x2="167.7" y2="146.3" stroke="rgb(0,0,0)"  stroke-width="2.0"/>
<line x1="167.7" y1="146.3" x2="168.7" y2="103.0" stroke="rgb(0,0,0)"  stroke-width="2.0"/>
<line x1="168.7" y1="103.0" x2="130.0" y2="83.1" stroke="rgb(0,0,0)"  stroke-width="2.0"/>
<line x1="130.0" y1="83.1" x2="93.9" y2="103.6" stroke="rgb(0,0,0)"  stroke-width="2.0"/>
<line x1="133.1" y1="168.1" x2="141.7" y2="207.4" stroke="rgb(0,0,0)"  stroke-width="2.0"/>
<line x1="141.7" y1="207.4" x2="177.3" y2="229.6" stroke="rgb(0,0,0)"  stroke-width="2.0"/>
<line x1="177.3" y1="229.6" x2="222.0" y2="229.7" stroke="rgb(0,0,0)"  stroke-width="2.0"/>
<line x1="177.3" y1="225.4" x2="222.0" y2="225.5" stroke="rgb(0,0,0)"  stroke-width="2.0"/>
<line x1="177.3" y1="233.8" x2="222.0" y2="233.9" stroke="rgb(0,0,0)"  stroke-width="2.0"/>
<line x1="222.0" y1="229.7" x2="262.1" y2="218.8" stroke="rgb(0,0,0)"  stroke-width="2.0"/>
<line x1="262.1" y1="218.8" x2="283.7" y2="181.6" stroke="rgb(0,0,0)"  stroke-width="2.0"/>
<line x1="258.9" y1="210.0" x2="274.4" y2="183.2" stroke="rgb(0,0,0)"  stroke-width="2.0"/>
<line x1="283.7" y1="181.6" x2="275.4" y2="137.6" stroke="rgb(0,0,0)"  stroke-width="2.0"/>
<line x1="275.4" y1="137.6" x2="253.5" y2="101.0" stroke="rgb(0,0,0)"  stroke-width="2.0"/>
<line x1="266.2" y1="136.2" x2="250.4" y2="109.8" stroke="rgb(0,0,0)"  stroke-width="2.0"/>
<line x1="253.5" y1="101.0" x2="216.0" y2="95.8" stroke="rgb(0,0,0)"  stroke-width="2.0"/>
<text x="60.933590" y="101.568301" fill="rgb(127,153,153)"  stroke="rgb(127,153,153)" stroke-width="1" font-size="16" >Si</text>
<text x="72.960403" y="74.637585" fill="rgb(102,102,102)"  stroke="rgb(102,102,102)" stroke-width="1" font-size="16" >CH</text>
<text x="96.960403" y="78.317585" fill="rgb(102,102,102)"  stroke="rgb(102,102,102)" stroke-width="1" font-size="13" >3</text>
<text x="14.000000" y="91.544361" fill="rgb(102,102,102)"  stroke="rgb(102,102,102)" stroke-width="1" font-size="16" >H</text>
<text x="26.000000" y="95.224361" fill="rgb(102,102,102)"  stroke="rgb(102,102,102)" stroke-width="1" font-size="13" >3</text>
<text x="32.500000" y="91.544361" fill="rgb(102,102,102)"  stroke="rgb(102,102,102)" stroke-width="1" font-size="16" >C</text>
<text x="30.909650" y="128.501890" fill="rgb(102,102,102)"  stroke="rgb(102,102,102)" stroke-width="1" font-size="16" >H</text>
<text x="42.909650" y="132.181890" fill="rgb(102,102,102)"  stroke="rgb(102,102,102)" stroke-width="1" font-size="13" >3</text>
<text x="49.409650" y="128.501890" fill="rgb(102,102,102)"  stroke="rgb(102,102,102)" stroke-width="1" font-size="16" >C</text>
<text x="123.517114" y="48.000000" fill="rgb(255,12,12)"  stroke="rgb(255,12,12)" stroke-width="1" font-size="16" >O</text>
<text x="238.688770" y="153.349075" fill="rgb(102,102,102)"  stroke="rgb(102,102,102)" stroke-width="1" font-size="16" >CH</text>
<text x="262.688770" y="157.029075" fill="rgb(102,102,102)"  stroke="rgb(102,102,102)" stroke-width="1" font-size="13" >2</text>
<text x="261.288615" y="152.317368" fill="rgb(102,102,102)"  stroke="rgb(102,102,102)" stroke-width="1" font-size="16" >CH</text>
<text x="285.288615" y="155.997368" fill="rgb(102,102,102)"  stroke="rgb(102,102,102)" stroke-width="1" font-size="13" >3</text>
</svg>
</g>
<text font-size="18.000000" fill ="black" font-family="sans-serif"
x="10.000000" y="20.000000" ></text>
</svg>
