<?xml version="1.0"?>
<svg version="1.1" id="topsvg"
xmlns="http://www.w3.org/2000/svg" xmlns:xlink="http://www.w3.org/1999/xlink"
xmlns:cml="http://www.xml-cml.org/schema" x="0" y="0" width="200px" height="200px" viewBox="0 0 100 100">
<title> - Open Babel Depiction</title>
<rect x="0" y="0" width="100" height="100" fill="white"/>
<g transform="translate(0,0)">
<svg width="100" height="100" x="0" y="0" viewBox="0 0 310.33 340.119"
font-family="sans-serif" stroke="rgb(0,0,0)" stroke-width="2"  stroke-linecap="round">
<line x1="195.8" y1="281.0" x2="212.2" y2="259.1" stroke="rgb(0,0,0)"  stroke-width="2.0"/>
<line x1="212.2" y1="259.1" x2="212.2" y2="287.1" stroke="rgb(0,0,0)"  stroke-width="2.0"/>
<line x1="231.5" y1="197.2" x2="231.4" y2="157.5" stroke="rgb(0,0,0)"  stroke-width="2.0"/>
<polygon points="197.353214 138.100488 175.924727 158.781566 171.192660 152.331175 " stroke-width="2.000000" fill="rgb(0,0,0)"  stroke="rgb(0,0,0)" />
<polygon points="197.754203 99.947773 161.588198 81.503649 165.907220 74.769701 " stroke-width="2.000000" fill="rgb(0,0,0)"  stroke="rgb(0,0,0)" />
<line x1="163.7" y1="78.1" x2="128.4" y2="99.2" stroke="rgb(0,0,0)"  stroke-width="2.0"/>
<line x1="50.1" y1="98.8" x2="92.7" y2="76.3" stroke="rgb(0,0,0)"  stroke-width="2.0"/>
<line x1="52.9" y1="104.1" x2="95.5" y2="81.6" stroke="rgb(0,0,0)"  stroke-width="2.0"/>
<line x1="94.1" y1="79.0" x2="128.4" y2="99.2" stroke="rgb(0,0,0)"  stroke-width="2.0"/>
<line x1="165.5" y1="52.8" x2="166.7" y2="78.0" stroke="rgb(0,0,0)"  stroke-width="2.0"/>
<line x1="159.5" y1="53.1" x2="160.8" y2="78.3" stroke="rgb(0,0,0)"  stroke-width="2.0"/>
<line x1="195.2" y1="95.1" x2="163.7" y2="78.1" stroke="rgb(0,0,0)"  stroke-width="2.0"/>
<line x1="256.6" y1="55.6" x2="257.3" y2="55.5" stroke="rgb(0,0,0)"  stroke-width="2.0"/>
<line x1="237.8" y1="67.9" x2="231.6" y2="80.1" stroke="rgb(0,0,0)"  stroke-width="2.0"/>
<line x1="196.7" y1="67.5" x2="195.2" y2="95.1" stroke="rgb(0,0,0)"  stroke-width="2.0"/>
<line x1="130.1" y1="146.6" x2="151.2" y2="156.1" stroke="rgb(0,0,0)"  stroke-width="2.0"/>
<line x1="127.7" y1="152.1" x2="148.8" y2="161.6" stroke="rgb(0,0,0)"  stroke-width="2.0"/>
<line x1="209.5" y1="213.6" x2="231.5" y2="197.2" stroke="rgb(0,0,0)"  stroke-width="2.0"/>
<line x1="215.4" y1="218.3" x2="231.0" y2="206.5" stroke="rgb(0,0,0)"  stroke-width="2.0"/>
<line x1="231.5" y1="197.2" x2="252.5" y2="214.2" stroke="rgb(0,0,0)"  stroke-width="2.0"/>
<line x1="259.1" y1="234.9" x2="252.2" y2="259.5" stroke="rgb(0,0,0)"  stroke-width="2.0"/>
<line x1="252.2" y1="259.5" x2="212.2" y2="259.1" stroke="rgb(0,0,0)"  stroke-width="2.0"/>
<line x1="212.2" y1="259.1" x2="203.1" y2="234.0" stroke="rgb(0,0,0)"  stroke-width="2.0"/>
<line x1="197.8" y1="99.9" x2="197.4" y2="138.1" stroke="rgb(0,0,0)"  stroke-width="2.0"/>
<line x1="197.4" y1="138.1" x2="231.4" y2="157.5" stroke="rgb(0,0,0)"  stroke-width="2.0"/>
<line x1="231.4" y1="157.5" x2="266.5" y2="138.8" stroke="rgb(0,0,0)"  stroke-width="2.0"/>
<line x1="233.3" y1="148.3" x2="257.8" y2="135.3" stroke="rgb(0,0,0)"  stroke-width="2.0"/>
<line x1="266.5" y1="138.8" x2="266.5" y2="98.1" stroke="rgb(0,0,0)"  stroke-width="2.0"/>
<line x1="266.5" y1="98.1" x2="231.6" y2="80.1" stroke="rgb(0,0,0)"  stroke-width="2.0"/>
<line x1="257.8" y1="101.8" x2="233.6" y2="89.3" stroke="rgb(0,0,0)"  stroke-width="2.0"/>
<line x1="231.6" y1="80.1" x2="197.8" y2="99.9" stroke="rgb(0,0,0)"  stroke-width="2.0"/>
<text x="161.940679" y="299.342234" fill="rgb(102,102,102)"  stroke="rgb(102,102,102)" stroke-width="1" font-size="16" >H</text>
<text x="173.940679" y="303.022234" fill="rgb(102,102,102)"  stroke="rgb(102,102,102)" stroke-width="1" font-size="13" >3</text>
<text x="180.440679" y="299.342234" fill="rgb(102,102,102)"  stroke="rgb(102,102,102)" stroke-width="1" font-size="16" >C</text>
<text x="192.700536" y="229.754698" fill="rgb(12,12,255)"  stroke="rgb(12,12,255)" stroke-width="1" font-size="16" >N</text>
<text x="256.577996" y="230.412319" fill="rgb(255,12,12)"  stroke="rgb(255,12,12)" stroke-width="1" font-size="16" >O</text>
<text x="208.205827" y="308.118534" fill="rgb(102,102,102)"  stroke="rgb(102,102,102)" stroke-width="1" font-size="16" >CH</text>
<text x="232.205827" y="311.798534" fill="rgb(102,102,102)"  stroke="rgb(102,102,102)" stroke-width="1" font-size="13" >3</text>
<text x="149.839004" y="172.154044" fill="rgb(17,127,178)"  stroke="rgb(17,127,178)" stroke-width="1" font-size="16" >Xx</text>
<text x="22.000000" y="115.526455" fill="rgb(17,127,178)"  stroke="rgb(17,127,178)" stroke-width="1" font-size="16" >Xx</text>
<text x="155.822964" y="48.000000" fill="rgb(255,12,12)"  stroke="rgb(255,12,12)" stroke-width="1" font-size="16" >O</text>
<text x="237.637975" y="64.266765" fill="rgb(255,12,12)"  stroke="rgb(255,12,12)" stroke-width="1" font-size="16" >O</text>
<text x="266.330439" y="62.812513" fill="rgb(102,102,102)"  stroke="rgb(102,102,102)" stroke-width="1" font-size="16" >CH</text>
<text x="290.330439" y="66.492513" fill="rgb(102,102,102)"  stroke="rgb(102,102,102)" stroke-width="1" font-size="13" >3</text>
<text x="193.385293" y="62.569247" fill="rgb(102,102,102)"  stroke="rgb(102,102,102)" stroke-width="1" font-size="16" >CH</text>
<text x="217.385293" y="66.249247" fill="rgb(102,102,102)"  stroke="rgb(102,102,102)" stroke-width="1" font-size="13" >3</text>
<text x="111.043248" y="152.048483" fill="rgb(178,178,0)"  stroke="rgb(178,178,0)" stroke-width="1" font-size="16" >S</text>
</svg>
</g>
<text font-size="18.000000" fill ="black" font-family="sans-serif"
x="10.000000" y="20.000000" ></text>
</svg>
