<?xml version="1.0"?>
<svg version="1.1" id="topsvg"
xmlns="http://www.w3.org/2000/svg" xmlns:xlink="http://www.w3.org/1999/xlink"
xmlns:cml="http://www.xml-cml.org/schema" x="0" y="0" width="200px" height="200px" viewBox="0 0 100 100">
<title> - Open Babel Depiction</title>
<rect x="0" y="0" width="100" height="100" fill="white"/>
<g transform="translate(0,0)">
<svg width="100" height="100" x="0" y="0" viewBox="0 0 270.272 205.226"
font-family="sans-serif" stroke="rgb(0,0,0)" stroke-width="2"  stroke-linecap="round">
<line x1="47.9" y1="65.1" x2="67.0" y2="40.0" stroke="rgb(0,0,0)"  stroke-width="2.0"/>
<line x1="67.0" y1="37.0" x2="108.4" y2="37.3" stroke="rgb(0,0,0)"  stroke-width="2.0"/>
<line x1="67.0" y1="43.0" x2="108.3" y2="43.3" stroke="rgb(0,0,0)"  stroke-width="2.0"/>
<line x1="108.3" y1="40.3" x2="128.2" y2="74.8" stroke="rgb(0,0,0)"  stroke-width="2.0"/>
<line x1="128.2" y1="74.8" x2="154.6" y2="120.8" stroke="rgb(0,0,0)"  stroke-width="2.0"/>
<line x1="131.8" y1="72.7" x2="158.2" y2="118.7" stroke="rgb(0,0,0)"  stroke-width="2.0"/>
<line x1="124.5" y1="76.9" x2="151.0" y2="122.9" stroke="rgb(0,0,0)"  stroke-width="2.0"/>
<line x1="204.5" y1="143.1" x2="167.4" y2="143.1" stroke="rgb(0,0,0)"  stroke-width="2.0"/>
<line x1="224.0" y1="154.4" x2="223.8" y2="154.0" stroke="rgb(0,0,0)"  stroke-width="2.0"/>
<line x1="167.4" y1="143.1" x2="154.6" y2="120.8" stroke="rgb(0,0,0)"  stroke-width="2.0"/>
<text x="22.000000" y="83.388794" fill="rgb(30,239,30)"  stroke="rgb(30,239,30)" stroke-width="1" font-size="16" >Cl</text>
<text x="211.525756" y="151.099512" fill="rgb(255,12,12)"  stroke="rgb(255,12,12)" stroke-width="1" font-size="16" >O</text>
<text x="224.272356" y="173.225735" fill="rgb(191,191,191)"  stroke="rgb(191,191,191)" stroke-width="1" font-size="16" >H</text>
</svg>
</g>
<text font-size="18.000000" fill ="black" font-family="sans-serif"
x="10.000000" y="20.000000" ></text>
</svg>
