<?xml version="1.0"?>
<svg version="1.1" id="topsvg"
xmlns="http://www.w3.org/2000/svg" xmlns:xlink="http://www.w3.org/1999/xlink"
xmlns:cml="http://www.xml-cml.org/schema" x="0" y="0" width="200px" height="200px" viewBox="0 0 100 100">
<title> - Open Babel Depiction</title>
<rect x="0" y="0" width="100" height="100" fill="white"/>
<g transform="translate(0,0)">
<svg width="100" height="100" x="0" y="0" viewBox="0 0 217.81 218.728"
font-family="sans-serif" stroke="rgb(0,0,0)" stroke-width="2"  stroke-linecap="round">
<line x1="77.3" y1="131.9" x2="78.0" y2="158.8" stroke="rgb(0,0,0)"  stroke-width="2.0"/>
<line x1="71.3" y1="132.1" x2="72.0" y2="158.9" stroke="rgb(0,0,0)"  stroke-width="2.0"/>
<line x1="75.0" y1="158.9" x2="51.3" y2="172.3" stroke="rgb(0,0,0)"  stroke-width="2.0"/>
<line x1="108.6" y1="99.1" x2="85.2" y2="112.5" stroke="rgb(0,0,0)"  stroke-width="2.0"/>
<line x1="108.4" y1="59.6" x2="143.3" y2="40.0" stroke="rgb(0,0,0)"  stroke-width="2.0"/>
<line x1="143.3" y1="40.0" x2="177.5" y2="59.4" stroke="rgb(0,0,0)"  stroke-width="2.0"/>
<line x1="177.5" y1="59.4" x2="177.8" y2="100.3" stroke="rgb(0,0,0)"  stroke-width="2.0"/>
<line x1="177.8" y1="100.3" x2="143.0" y2="119.9" stroke="rgb(0,0,0)"  stroke-width="2.0"/>
<line x1="143.0" y1="119.9" x2="108.6" y2="99.1" stroke="rgb(0,0,0)"  stroke-width="2.0"/>
<line x1="108.6" y1="99.1" x2="108.4" y2="59.6" stroke="rgb(0,0,0)"  stroke-width="2.0"/>
<text x="67.943904" y="127.002090" fill="rgb(12,12,255)"  stroke="rgb(12,12,255)" stroke-width="1" font-size="16" >N</text>
<text x="14.000000" y="186.727722" fill="rgb(102,102,102)"  stroke="rgb(102,102,102)" stroke-width="1" font-size="16" >H</text>
<text x="26.000000" y="190.407722" fill="rgb(102,102,102)"  stroke="rgb(102,102,102)" stroke-width="1" font-size="13" >3</text>
<text x="32.500000" y="186.727722" fill="rgb(102,102,102)"  stroke="rgb(102,102,102)" stroke-width="1" font-size="16" >C</text>
</svg>
</g>
<text font-size="18.000000" fill ="black" font-family="sans-serif"
x="10.000000" y="20.000000" ></text>
</svg>
