<?xml version="1.0"?>
<svg version="1.1" id="topsvg"
xmlns="http://www.w3.org/2000/svg" xmlns:xlink="http://www.w3.org/1999/xlink"
xmlns:cml="http://www.xml-cml.org/schema" x="0" y="0" width="200px" height="200px" viewBox="0 0 100 100">
<title> - Open Babel Depiction</title>
<rect x="0" y="0" width="100" height="100" fill="white"/>
<g transform="translate(0,0)">
<svg width="100" height="100" x="0" y="0" viewBox="0 0 232.541 343.821"
font-family="sans-serif" stroke="rgb(0,0,0)" stroke-width="2"  stroke-linecap="round">
<line x1="166.7" y1="268.0" x2="184.3" y2="289.7" stroke="rgb(0,0,0)"  stroke-width="2.0"/>
<line x1="166.7" y1="268.0" x2="154.4" y2="292.2" stroke="rgb(0,0,0)"  stroke-width="2.0"/>
<line x1="146.8" y1="161.1" x2="147.1" y2="203.2" stroke="rgb(0,0,0)"  stroke-width="2.0"/>
<polygon points="111.496460 142.143212 107.940421 101.233839 115.939949 101.320699 " stroke-width="2.000000" fill="rgb(0,0,0)"  stroke="rgb(0,0,0)" />
<line x1="71.7" y1="81.0" x2="72.1" y2="53.0" stroke="rgb(0,0,0)"  stroke-width="2.0"/>
<line x1="77.7" y1="81.0" x2="78.1" y2="53.0" stroke="rgb(0,0,0)"  stroke-width="2.0"/>
<line x1="111.1" y1="94.8" x2="112.7" y2="94.8" stroke="rgb(0,0,0)"  stroke-width="1.0"/>
<line x1="110.4" y1="89.6" x2="113.3" y2="89.6" stroke="rgb(0,0,0)"  stroke-width="1.0"/>
<line x1="109.7" y1="84.4" x2="113.9" y2="84.4" stroke="rgb(0,0,0)"  stroke-width="1.0"/>
<line x1="109.0" y1="79.2" x2="114.5" y2="79.2" stroke="rgb(0,0,0)"  stroke-width="1.0"/>
<line x1="108.4" y1="74.1" x2="115.1" y2="74.0" stroke="rgb(0,0,0)"  stroke-width="1.0"/>
<line x1="107.7" y1="68.9" x2="115.7" y2="68.8" stroke="rgb(0,0,0)"  stroke-width="1.0"/>
<line x1="172.7" y1="55.9" x2="173.7" y2="55.9" stroke="rgb(0,0,0)"  stroke-width="2.0"/>
<line x1="153.5" y1="67.7" x2="146.8" y2="80.1" stroke="rgb(0,0,0)"  stroke-width="2.0"/>
<line x1="126.2" y1="267.0" x2="116.9" y2="240.8" stroke="rgb(0,0,0)"  stroke-width="2.0"/>
<line x1="123.1" y1="220.8" x2="147.1" y2="203.2" stroke="rgb(0,0,0)"  stroke-width="2.0"/>
<line x1="147.1" y1="203.2" x2="168.5" y2="219.6" stroke="rgb(0,0,0)"  stroke-width="2.0"/>
<line x1="147.5" y1="212.5" x2="162.6" y2="224.1" stroke="rgb(0,0,0)"  stroke-width="2.0"/>
<line x1="175.3" y1="240.1" x2="166.7" y2="268.0" stroke="rgb(0,0,0)"  stroke-width="2.0"/>
<line x1="166.7" y1="268.0" x2="126.2" y2="267.0" stroke="rgb(0,0,0)"  stroke-width="2.0"/>
<line x1="76.7" y1="158.4" x2="111.5" y2="142.1" stroke="rgb(0,0,0)"  stroke-width="2.0"/>
<line x1="111.5" y1="142.1" x2="111.9" y2="101.3" stroke="rgb(0,0,0)"  stroke-width="2.0"/>
<line x1="111.9" y1="101.3" x2="74.7" y2="81.0" stroke="rgb(0,0,0)"  stroke-width="2.0"/>
<line x1="74.7" y1="81.0" x2="41.0" y2="101.3" stroke="rgb(0,0,0)"  stroke-width="2.0"/>
<line x1="41.0" y1="101.3" x2="40.0" y2="141.7" stroke="rgb(0,0,0)"  stroke-width="2.0"/>
<line x1="40.0" y1="141.7" x2="76.7" y2="158.4" stroke="rgb(0,0,0)"  stroke-width="2.0"/>
<line x1="48.4" y1="137.7" x2="74.2" y2="149.3" stroke="rgb(0,0,0)"  stroke-width="2.0"/>
<line x1="111.5" y1="142.1" x2="146.8" y2="161.1" stroke="rgb(0,0,0)"  stroke-width="2.0"/>
<line x1="146.8" y1="161.1" x2="182.9" y2="142.6" stroke="rgb(0,0,0)"  stroke-width="2.0"/>
<line x1="148.9" y1="152.0" x2="174.2" y2="139.0" stroke="rgb(0,0,0)"  stroke-width="2.0"/>
<line x1="182.9" y1="142.6" x2="182.9" y2="100.4" stroke="rgb(0,0,0)"  stroke-width="2.0"/>
<line x1="182.9" y1="100.4" x2="146.8" y2="80.1" stroke="rgb(0,0,0)"  stroke-width="2.0"/>
<line x1="174.1" y1="103.7" x2="148.5" y2="89.3" stroke="rgb(0,0,0)"  stroke-width="2.0"/>
<line x1="146.8" y1="80.1" x2="111.9" y2="101.3" stroke="rgb(0,0,0)"  stroke-width="2.0"/>
<text x="106.608477" y="236.550438" fill="rgb(255,12,12)"  stroke="rgb(255,12,12)" stroke-width="1" font-size="16" >O</text>
<text x="173.102214" y="235.641344" fill="rgb(12,12,255)"  stroke="rgb(12,12,255)" stroke-width="1" font-size="16" >N</text>
<text x="188.541114" y="307.770923" fill="rgb(102,102,102)"  stroke="rgb(102,102,102)" stroke-width="1" font-size="16" >CH</text>
<text x="212.541114" y="311.450923" fill="rgb(102,102,102)"  stroke="rgb(102,102,102)" stroke-width="1" font-size="13" >3</text>
<text x="122.512281" y="311.821262" fill="rgb(102,102,102)"  stroke="rgb(102,102,102)" stroke-width="1" font-size="16" >H</text>
<text x="134.512281" y="315.501262" fill="rgb(102,102,102)"  stroke="rgb(102,102,102)" stroke-width="1" font-size="13" >3</text>
<text x="141.012281" y="311.821262" fill="rgb(102,102,102)"  stroke="rgb(102,102,102)" stroke-width="1" font-size="16" >C</text>
<text x="69.262568" y="48.000000" fill="rgb(255,12,12)"  stroke="rgb(255,12,12)" stroke-width="1" font-size="16" >O</text>
<text x="153.659506" y="64.268996" fill="rgb(255,12,12)"  stroke="rgb(255,12,12)" stroke-width="1" font-size="16" >O</text>
<text x="182.705055" y="63.508712" fill="rgb(102,102,102)"  stroke="rgb(102,102,102)" stroke-width="1" font-size="16" >CH</text>
<text x="206.705055" y="67.188712" fill="rgb(102,102,102)"  stroke="rgb(102,102,102)" stroke-width="1" font-size="13" >3</text>
<text x="85.537045" y="60.876127" fill="rgb(102,102,102)"  stroke="rgb(102,102,102)" stroke-width="1" font-size="16" >H</text>
<text x="97.537045" y="64.556127" fill="rgb(102,102,102)"  stroke="rgb(102,102,102)" stroke-width="1" font-size="13" >3</text>
<text x="104.037045" y="60.876127" fill="rgb(102,102,102)"  stroke="rgb(102,102,102)" stroke-width="1" font-size="16" >C</text>
</svg>
</g>
<text font-size="18.000000" fill ="black" font-family="sans-serif"
x="10.000000" y="20.000000" ></text>
</svg>
