<?xml version="1.0"?>
<svg version="1.1" id="topsvg"
xmlns="http://www.w3.org/2000/svg" xmlns:xlink="http://www.w3.org/1999/xlink"
xmlns:cml="http://www.xml-cml.org/schema" x="0" y="0" width="200px" height="200px" viewBox="0 0 100 100">
<title> - Open Babel Depiction</title>
<rect x="0" y="0" width="100" height="100" fill="white"/>
<g transform="translate(0,0)">
<svg width="100" height="100" x="0" y="0" viewBox="0 0 409.642 300.528"
font-family="sans-serif" stroke="rgb(0,0,0)" stroke-width="2"  stroke-linecap="round">
<line x1="125.2" y1="159.3" x2="124.3" y2="199.8" stroke="rgb(0,0,0)"  stroke-width="2.0"/>
<line x1="124.3" y1="199.8" x2="146.6" y2="213.9" stroke="rgb(0,0,0)"  stroke-width="2.0"/>
<line x1="68.7" y1="80.2" x2="68.7" y2="80.1" stroke="rgb(0,0,0)"  stroke-width="2.0"/>
<line x1="52.5" y1="88.7" x2="52.4" y2="88.7" stroke="rgb(0,0,0)"  stroke-width="2.0"/>
<line x1="61.0" y1="105.0" x2="61.0" y2="105.0" stroke="rgb(0,0,0)"  stroke-width="2.0"/>
<line x1="77.3" y1="96.4" x2="89.7" y2="100.3" stroke="rgb(0,0,0)"  stroke-width="2.0"/>
<line x1="164.1" y1="48.1" x2="124.0" y2="80.2" stroke="rgb(0,0,0)"  stroke-width="2.0"/>
<line x1="225.3" y1="257.9" x2="260.4" y2="237.8" stroke="rgb(0,0,0)"  stroke-width="2.0"/>
<line x1="228.3" y1="263.1" x2="263.4" y2="243.0" stroke="rgb(0,0,0)"  stroke-width="2.0"/>
<line x1="261.9" y1="240.4" x2="262.9" y2="198.8" stroke="rgb(0,0,0)"  stroke-width="2.0"/>
<line x1="252.8" y1="161.8" x2="231.0" y2="127.4" stroke="rgb(0,0,0)"  stroke-width="2.0"/>
<line x1="231.0" y1="127.4" x2="252.4" y2="102.3" stroke="rgb(0,0,0)"  stroke-width="2.0"/>
<line x1="273.6" y1="94.8" x2="272.9" y2="94.7" stroke="rgb(0,0,0)"  stroke-width="2.0"/>
<line x1="341.1" y1="179.8" x2="361.9" y2="151.3" stroke="rgb(0,0,0)"  stroke-width="2.0"/>
<line x1="193.8" y1="241.4" x2="146.6" y2="213.9" stroke="rgb(0,0,0)"  stroke-width="2.0"/>
<line x1="191.7" y1="245.0" x2="144.5" y2="217.6" stroke="rgb(0,0,0)"  stroke-width="2.0"/>
<line x1="195.9" y1="237.8" x2="148.7" y2="210.3" stroke="rgb(0,0,0)"  stroke-width="2.0"/>
<line x1="193.8" y1="241.4" x2="226.8" y2="260.5" stroke="rgb(0,0,0)"  stroke-width="2.0"/>
<line x1="200.6" y1="172.7" x2="204.7" y2="193.6" stroke="rgb(0,0,0)"  stroke-width="2.0"/>
<line x1="194.7" y1="173.8" x2="198.8" y2="194.7" stroke="rgb(0,0,0)"  stroke-width="2.0"/>
<line x1="183.8" y1="154.2" x2="157.0" y2="139.6" stroke="rgb(0,0,0)"  stroke-width="2.0"/>
<line x1="89.7" y1="100.3" x2="89.8" y2="140.6" stroke="rgb(0,0,0)"  stroke-width="2.0"/>
<line x1="89.8" y1="140.6" x2="125.2" y2="159.3" stroke="rgb(0,0,0)"  stroke-width="2.0"/>
<line x1="98.4" y1="137.1" x2="123.2" y2="150.1" stroke="rgb(0,0,0)"  stroke-width="2.0"/>
<line x1="125.2" y1="159.3" x2="157.0" y2="139.6" stroke="rgb(0,0,0)"  stroke-width="2.0"/>
<line x1="157.0" y1="139.6" x2="159.0" y2="99.7" stroke="rgb(0,0,0)"  stroke-width="2.0"/>
<line x1="150.1" y1="133.2" x2="151.5" y2="105.4" stroke="rgb(0,0,0)"  stroke-width="2.0"/>
<line x1="159.0" y1="99.7" x2="124.0" y2="80.2" stroke="rgb(0,0,0)"  stroke-width="2.0"/>
<line x1="124.0" y1="80.2" x2="89.7" y2="100.3" stroke="rgb(0,0,0)"  stroke-width="2.0"/>
<line x1="122.4" y1="89.5" x2="98.5" y2="103.5" stroke="rgb(0,0,0)"  stroke-width="2.0"/>
<line x1="252.8" y1="161.8" x2="276.9" y2="155.2" stroke="rgb(0,0,0)"  stroke-width="2.0"/>
<line x1="283.3" y1="163.2" x2="275.9" y2="177.1" stroke="rgb(0,0,0)"  stroke-width="2.0"/>
<line x1="275.9" y1="177.1" x2="252.8" y2="161.8" stroke="rgb(0,0,0)"  stroke-width="2.0"/>
<line x1="320.5" y1="191.8" x2="262.9" y2="198.8" stroke="rgb(0,0,0)"  stroke-width="2.0"/>
<line x1="262.9" y1="198.8" x2="275.9" y2="177.1" stroke="rgb(0,0,0)"  stroke-width="2.0"/>
<line x1="275.9" y1="177.1" x2="320.7" y2="187.3" stroke="rgb(0,0,0)"  stroke-width="2.0"/>
<line x1="262.9" y1="198.8" x2="252.8" y2="161.8" stroke="rgb(0,0,0)"  stroke-width="2.0"/>
<text x="58.865940" y="100.575488" fill="rgb(127,153,153)"  stroke="rgb(127,153,153)" stroke-width="1" font-size="16" >Si</text>
<text x="68.597323" y="75.709547" fill="rgb(102,102,102)"  stroke="rgb(102,102,102)" stroke-width="1" font-size="16" >CH</text>
<text x="92.597323" y="79.389547" fill="rgb(102,102,102)"  stroke="rgb(102,102,102)" stroke-width="1" font-size="13" >3</text>
<text x="14.000000" y="92.841501" fill="rgb(102,102,102)"  stroke="rgb(102,102,102)" stroke-width="1" font-size="16" >H</text>
<text x="26.000000" y="96.521501" fill="rgb(102,102,102)"  stroke="rgb(102,102,102)" stroke-width="1" font-size="13" >3</text>
<text x="32.500000" y="92.841501" fill="rgb(102,102,102)"  stroke="rgb(102,102,102)" stroke-width="1" font-size="16" >C</text>
<text x="31.131953" y="125.441428" fill="rgb(102,102,102)"  stroke="rgb(102,102,102)" stroke-width="1" font-size="16" >H</text>
<text x="43.131953" y="129.121428" fill="rgb(102,102,102)"  stroke="rgb(102,102,102)" stroke-width="1" font-size="13" >3</text>
<text x="49.631953" y="125.441428" fill="rgb(102,102,102)"  stroke="rgb(102,102,102)" stroke-width="1" font-size="16" >C</text>
<text x="168.279722" y="48.000000" fill="rgb(17,127,178)"  stroke="rgb(17,127,178)" stroke-width="1" font-size="16" >Xx</text>
<text x="254.811840" y="100.463514" fill="rgb(255,12,12)"  stroke="rgb(255,12,12)" stroke-width="1" font-size="16" >O</text>
<text x="283.427592" y="159.739186" fill="rgb(17,127,178)"  stroke="rgb(17,127,178)" stroke-width="1" font-size="16" >Xx</text>
<text x="327.373304" y="198.234651" fill="rgb(17,127,178)"  stroke="rgb(17,127,178)" stroke-width="1" font-size="16" >Xx</text>
<text x="365.642318" y="148.836088" fill="rgb(102,102,102)"  stroke="rgb(102,102,102)" stroke-width="1" font-size="16" >CH</text>
<text x="389.642318" y="152.516088" fill="rgb(102,102,102)"  stroke="rgb(102,102,102)" stroke-width="1" font-size="13" >3</text>
<text x="189.200548" y="168.473123" fill="rgb(17,127,178)"  stroke="rgb(17,127,178)" stroke-width="1" font-size="16" >Xx</text>
<text x="198.259989" y="214.929126" fill="rgb(178,178,0)"  stroke="rgb(178,178,0)" stroke-width="1" font-size="16" >S</text>
<text x="279.646532" y="105.064846" fill="rgb(191,191,191)"  stroke="rgb(191,191,191)" stroke-width="1" font-size="16" >H</text>
</svg>
</g>
<text font-size="18.000000" fill ="black" font-family="sans-serif"
x="10.000000" y="20.000000" ></text>
</svg>
