<?xml version="1.0"?>
<svg version="1.1" id="topsvg"
xmlns="http://www.w3.org/2000/svg" xmlns:xlink="http://www.w3.org/1999/xlink"
xmlns:cml="http://www.xml-cml.org/schema" x="0" y="0" width="200px" height="200px" viewBox="0 0 100 100">
<title> - Open Babel Depiction</title>
<rect x="0" y="0" width="100" height="100" fill="white"/>
<g transform="translate(0,0)">
<svg width="100" height="100" x="0" y="0" viewBox="0 0 232.271 352.469"
font-family="sans-serif" stroke="rgb(0,0,0)" stroke-width="2"  stroke-linecap="round">
<line x1="160.0" y1="300.0" x2="168.6" y2="271.6" stroke="rgb(0,0,0)"  stroke-width="2.0"/>
<line x1="168.6" y1="271.6" x2="184.8" y2="294.8" stroke="rgb(0,0,0)"  stroke-width="2.0"/>
<line x1="147.5" y1="166.8" x2="147.4" y2="208.4" stroke="rgb(0,0,0)"  stroke-width="2.0"/>
<line x1="111.6" y1="147.0" x2="77.1" y2="163.1" stroke="rgb(0,0,0)"  stroke-width="2.0"/>
<polygon points="111.628218 146.976643 107.715373 105.936197 115.715355 105.953188 " stroke-width="2.000000" fill="rgb(0,0,0)"  stroke="rgb(0,0,0)" />
<line x1="111.7" y1="105.9" x2="76.8" y2="85.8" stroke="rgb(0,0,0)"  stroke-width="2.0"/>
<line x1="111.0" y1="99.5" x2="112.6" y2="99.6" stroke="rgb(0,0,0)"  stroke-width="1.0"/>
<line x1="110.5" y1="94.4" x2="113.3" y2="94.5" stroke="rgb(0,0,0)"  stroke-width="1.0"/>
<line x1="109.9" y1="89.3" x2="114.0" y2="89.4" stroke="rgb(0,0,0)"  stroke-width="1.0"/>
<line x1="109.3" y1="84.2" x2="114.8" y2="84.3" stroke="rgb(0,0,0)"  stroke-width="1.0"/>
<line x1="108.8" y1="79.0" x2="115.5" y2="79.1" stroke="rgb(0,0,0)"  stroke-width="1.0"/>
<line x1="108.2" y1="73.9" x2="116.2" y2="74.0" stroke="rgb(0,0,0)"  stroke-width="1.0"/>
<line x1="76.8" y1="85.8" x2="51.3" y2="100.2" stroke="rgb(0,0,0)"  stroke-width="2.0"/>
<line x1="78.6" y1="58.1" x2="79.8" y2="85.6" stroke="rgb(0,0,0)"  stroke-width="2.0"/>
<line x1="72.6" y1="58.4" x2="73.8" y2="85.9" stroke="rgb(0,0,0)"  stroke-width="2.0"/>
<line x1="152.7" y1="52.0" x2="152.0" y2="51.0" stroke="rgb(0,0,0)"  stroke-width="2.0"/>
<line x1="153.7" y1="74.5" x2="147.1" y2="87.1" stroke="rgb(0,0,0)"  stroke-width="2.0"/>
<line x1="54.0" y1="149.5" x2="78.3" y2="160.3" stroke="rgb(0,0,0)"  stroke-width="2.0"/>
<line x1="51.5" y1="154.9" x2="75.9" y2="165.8" stroke="rgb(0,0,0)"  stroke-width="2.0"/>
<line x1="126.6" y1="271.4" x2="117.6" y2="245.7" stroke="rgb(0,0,0)"  stroke-width="2.0"/>
<line x1="123.7" y1="225.7" x2="147.4" y2="208.4" stroke="rgb(0,0,0)"  stroke-width="2.0"/>
<line x1="147.4" y1="208.4" x2="168.9" y2="224.5" stroke="rgb(0,0,0)"  stroke-width="2.0"/>
<line x1="147.8" y1="217.7" x2="163.0" y2="229.1" stroke="rgb(0,0,0)"  stroke-width="2.0"/>
<line x1="176.1" y1="245.0" x2="168.6" y2="271.6" stroke="rgb(0,0,0)"  stroke-width="2.0"/>
<line x1="168.6" y1="271.6" x2="126.6" y2="271.4" stroke="rgb(0,0,0)"  stroke-width="2.0"/>
<line x1="111.7" y1="105.9" x2="111.6" y2="147.0" stroke="rgb(0,0,0)"  stroke-width="2.0"/>
<line x1="111.6" y1="147.0" x2="147.5" y2="166.8" stroke="rgb(0,0,0)"  stroke-width="2.0"/>
<line x1="147.5" y1="166.8" x2="183.7" y2="147.8" stroke="rgb(0,0,0)"  stroke-width="2.0"/>
<line x1="149.5" y1="157.6" x2="175.0" y2="144.2" stroke="rgb(0,0,0)"  stroke-width="2.0"/>
<line x1="183.7" y1="147.8" x2="183.7" y2="106.0" stroke="rgb(0,0,0)"  stroke-width="2.0"/>
<line x1="183.7" y1="106.0" x2="147.1" y2="87.1" stroke="rgb(0,0,0)"  stroke-width="2.0"/>
<line x1="175.0" y1="109.6" x2="149.1" y2="96.3" stroke="rgb(0,0,0)"  stroke-width="2.0"/>
<line x1="147.1" y1="87.1" x2="111.7" y2="105.9" stroke="rgb(0,0,0)"  stroke-width="2.0"/>
<text x="130.230414" y="320.468818" fill="rgb(102,102,102)"  stroke="rgb(102,102,102)" stroke-width="1" font-size="16" >H</text>
<text x="142.230414" y="324.148818" fill="rgb(102,102,102)"  stroke="rgb(102,102,102)" stroke-width="1" font-size="13" >3</text>
<text x="148.730414" y="320.468818" fill="rgb(102,102,102)"  stroke="rgb(102,102,102)" stroke-width="1" font-size="16" >C</text>
<text x="107.234965" y="241.408716" fill="rgb(255,12,12)"  stroke="rgb(255,12,12)" stroke-width="1" font-size="16" >O</text>
<text x="188.270557" y="313.483555" fill="rgb(102,102,102)"  stroke="rgb(102,102,102)" stroke-width="1" font-size="16" >CH</text>
<text x="212.270557" y="317.163555" fill="rgb(102,102,102)"  stroke="rgb(102,102,102)" stroke-width="1" font-size="13" >3</text>
<text x="14.000000" y="114.603731" fill="rgb(102,102,102)"  stroke="rgb(102,102,102)" stroke-width="1" font-size="16" >H</text>
<text x="26.000000" y="118.283731" fill="rgb(102,102,102)"  stroke="rgb(102,102,102)" stroke-width="1" font-size="13" >3</text>
<text x="32.500000" y="114.603731" fill="rgb(102,102,102)"  stroke="rgb(102,102,102)" stroke-width="1" font-size="16" >C</text>
<text x="69.065202" y="53.291371" fill="rgb(255,12,12)"  stroke="rgb(255,12,12)" stroke-width="1" font-size="16" >O</text>
<text x="153.678111" y="70.990093" fill="rgb(255,12,12)"  stroke="rgb(255,12,12)" stroke-width="1" font-size="16" >O</text>
<text x="119.081227" y="48.000000" fill="rgb(102,102,102)"  stroke="rgb(102,102,102)" stroke-width="1" font-size="16" >H</text>
<text x="131.081227" y="51.680000" fill="rgb(102,102,102)"  stroke="rgb(102,102,102)" stroke-width="1" font-size="13" >3</text>
<text x="137.581227" y="48.000000" fill="rgb(102,102,102)"  stroke="rgb(102,102,102)" stroke-width="1" font-size="16" >C</text>
<text x="173.574535" y="240.499134" fill="rgb(12,12,255)"  stroke="rgb(12,12,255)" stroke-width="1" font-size="16" >N</text>
<text x="14.904135" y="154.889497" fill="rgb(102,102,102)"  stroke="rgb(102,102,102)" stroke-width="1" font-size="16" >H</text>
<text x="26.904135" y="158.569497" fill="rgb(102,102,102)"  stroke="rgb(102,102,102)" stroke-width="1" font-size="13" >2</text>
<text x="33.404135" y="154.889497" fill="rgb(102,102,102)"  stroke="rgb(102,102,102)" stroke-width="1" font-size="16" >C</text>
<text x="108.439761" y="66.243382" fill="rgb(102,102,102)"  stroke="rgb(102,102,102)" stroke-width="1" font-size="16" >CH</text>
<text x="132.439761" y="69.923382" fill="rgb(102,102,102)"  stroke="rgb(102,102,102)" stroke-width="1" font-size="13" >3</text>
</svg>
</g>
<text font-size="18.000000" fill ="black" font-family="sans-serif"
x="10.000000" y="20.000000" ></text>
</svg>
