<?xml version="1.0"?>
<svg version="1.1" id="topsvg"
xmlns="http://www.w3.org/2000/svg" xmlns:xlink="http://www.w3.org/1999/xlink"
xmlns:cml="http://www.xml-cml.org/schema" x="0" y="0" width="200px" height="200px" viewBox="0 0 100 100">
<title> - Open Babel Depiction</title>
<rect x="0" y="0" width="100" height="100" fill="white"/>
<g transform="translate(0,0)">
<svg width="100" height="100" x="0" y="0" viewBox="0 0 395.72 290.895"
font-family="sans-serif" stroke="rgb(0,0,0)" stroke-width="2"  stroke-linecap="round">
<polygon points="120.673 154.265 124.515 193.322 116.515 193.289 " stroke-width="2" fill="rgb(0,0,0)"  stroke="rgb(0,0,0)" />
<line x1="120.5" y1="193.3" x2="141.0" y2="206.5" stroke="rgb(0,0,0)"  stroke-width="2.0"/>
<line x1="68.0" y1="77.0" x2="67.7" y2="77.9" stroke="rgb(0,0,0)"  stroke-width="2.0"/>
<line x1="51.3" y1="84.7" x2="52.2" y2="85.0" stroke="rgb(0,0,0)"  stroke-width="2.0"/>
<line x1="59.0" y1="101.4" x2="59.3" y2="100.5" stroke="rgb(0,0,0)"  stroke-width="2.0"/>
<line x1="75.7" y1="93.7" x2="87.0" y2="97.9" stroke="rgb(0,0,0)"  stroke-width="2.0"/>
<line x1="156.7" y1="48.4" x2="120.3" y2="79.1" stroke="rgb(0,0,0)"  stroke-width="2.0"/>
<line x1="160.2" y1="139.1" x2="159.4" y2="140.4" stroke="rgb(0,0,0)"  stroke-width="1.0"/>
<line x1="165.8" y1="141.5" x2="164.3" y2="144.0" stroke="rgb(0,0,0)"  stroke-width="1.0"/>
<line x1="171.3" y1="144.0" x2="169.3" y2="147.6" stroke="rgb(0,0,0)"  stroke-width="1.0"/>
<line x1="176.9" y1="146.5" x2="174.2" y2="151.2" stroke="rgb(0,0,0)"  stroke-width="1.0"/>
<line x1="182.5" y1="149.0" x2="179.1" y2="154.8" stroke="rgb(0,0,0)"  stroke-width="1.0"/>
<line x1="188.1" y1="151.5" x2="184.1" y2="158.4" stroke="rgb(0,0,0)"  stroke-width="1.0"/>
<line x1="216.5" y1="248.3" x2="249.9" y2="228.8" stroke="rgb(0,0,0)"  stroke-width="2.0"/>
<line x1="219.5" y1="253.5" x2="253.0" y2="234.0" stroke="rgb(0,0,0)"  stroke-width="2.0"/>
<line x1="251.5" y1="231.4" x2="252.7" y2="191.6" stroke="rgb(0,0,0)"  stroke-width="2.0"/>
<line x1="242.9" y1="157.0" x2="221.7" y2="123.2" stroke="rgb(0,0,0)"  stroke-width="2.0"/>
<line x1="221.7" y1="123.2" x2="241.3" y2="100.0" stroke="rgb(0,0,0)"  stroke-width="2.0"/>
<line x1="262.5" y1="92.4" x2="260.9" y2="92.1" stroke="rgb(0,0,0)"  stroke-width="2.0"/>
<line x1="329.3" y1="143.9" x2="339.7" y2="140.6" stroke="rgb(0,0,0)"  stroke-width="2.0"/>
<line x1="335.9" y1="175.0" x2="347.0" y2="162.8" stroke="rgb(0,0,0)"  stroke-width="2.0"/>
<line x1="185.8" y1="232.3" x2="141.0" y2="206.5" stroke="rgb(0,0,0)"  stroke-width="2.0"/>
<line x1="183.7" y1="235.9" x2="138.9" y2="210.1" stroke="rgb(0,0,0)"  stroke-width="2.0"/>
<line x1="187.9" y1="228.7" x2="143.1" y2="202.8" stroke="rgb(0,0,0)"  stroke-width="2.0"/>
<line x1="185.8" y1="232.3" x2="218.0" y2="250.9" stroke="rgb(0,0,0)"  stroke-width="2.0"/>
<line x1="183.0" y1="182.0" x2="183.1" y2="154.9" stroke="rgb(0,0,0)"  stroke-width="2.0"/>
<line x1="189.0" y1="182.0" x2="189.1" y2="154.9" stroke="rgb(0,0,0)"  stroke-width="2.0"/>
<line x1="242.9" y1="157.0" x2="304.0" y2="149.5" stroke="rgb(0,0,0)"  stroke-width="2.0"/>
<line x1="305.0" y1="152.9" x2="264.8" y2="169.8" stroke="rgb(0,0,0)"  stroke-width="2.0"/>
<line x1="264.8" y1="169.8" x2="242.9" y2="157.0" stroke="rgb(0,0,0)"  stroke-width="2.0"/>
<line x1="252.7" y1="191.6" x2="242.9" y2="157.0" stroke="rgb(0,0,0)"  stroke-width="2.0"/>
<line x1="264.8" y1="169.8" x2="252.7" y2="191.6" stroke="rgb(0,0,0)"  stroke-width="2.0"/>
<line x1="323.7" y1="172.2" x2="320.4" y2="160.4" stroke="rgb(0,0,0)"  stroke-width="2.0"/>
<line x1="264.8" y1="169.8" x2="314.6" y2="181.7" stroke="rgb(0,0,0)"  stroke-width="2.0"/>
<line x1="314.3" y1="185.9" x2="252.7" y2="191.6" stroke="rgb(0,0,0)"  stroke-width="2.0"/>
<line x1="87.3" y1="136.6" x2="87.0" y2="97.9" stroke="rgb(0,0,0)"  stroke-width="2.0"/>
<line x1="94.5" y1="130.5" x2="94.3" y2="103.9" stroke="rgb(0,0,0)"  stroke-width="2.0"/>
<line x1="87.0" y1="97.9" x2="120.3" y2="79.1" stroke="rgb(0,0,0)"  stroke-width="2.0"/>
<line x1="120.3" y1="79.1" x2="153.6" y2="97.5" stroke="rgb(0,0,0)"  stroke-width="2.0"/>
<line x1="122.1" y1="88.3" x2="144.9" y2="100.9" stroke="rgb(0,0,0)"  stroke-width="2.0"/>
<line x1="153.6" y1="97.5" x2="153.2" y2="136.0" stroke="rgb(0,0,0)"  stroke-width="2.0"/>
<line x1="153.2" y1="136.0" x2="120.7" y2="154.3" stroke="rgb(0,0,0)"  stroke-width="2.0"/>
<line x1="120.7" y1="154.3" x2="87.3" y2="136.6" stroke="rgb(0,0,0)"  stroke-width="2.0"/>
<text x="57.515235" y="97.210409" fill="rgb(127,153,153)"  stroke="rgb(127,153,153)" stroke-width="1" font-size="16" >Si</text>
<text x="68.252548" y="73.695173" fill="rgb(102,102,102)"  stroke="rgb(102,102,102)" stroke-width="1" font-size="16" >CH</text>
<text x="92.252548" y="77.375173" fill="rgb(102,102,102)"  stroke="rgb(102,102,102)" stroke-width="1" font-size="13" >3</text>
<text x="14.000000" y="88.473097" fill="rgb(102,102,102)"  stroke="rgb(102,102,102)" stroke-width="1" font-size="16" >H</text>
<text x="26.000000" y="92.153097" fill="rgb(102,102,102)"  stroke="rgb(102,102,102)" stroke-width="1" font-size="13" >3</text>
<text x="32.500000" y="88.473097" fill="rgb(102,102,102)"  stroke="rgb(102,102,102)" stroke-width="1" font-size="16" >C</text>
<text x="28.777923" y="120.725644" fill="rgb(102,102,102)"  stroke="rgb(102,102,102)" stroke-width="1" font-size="16" >H</text>
<text x="40.777923" y="124.405644" fill="rgb(102,102,102)"  stroke="rgb(102,102,102)" stroke-width="1" font-size="13" >3</text>
<text x="47.277923" y="120.725644" fill="rgb(102,102,102)"  stroke="rgb(102,102,102)" stroke-width="1" font-size="16" >C</text>
<text x="160.657161" y="48.000000" fill="rgb(17,127,178)"  stroke="rgb(17,127,178)" stroke-width="1" font-size="16" >Xx</text>
<text x="243.720579" y="98.093422" fill="rgb(255,12,12)"  stroke="rgb(255,12,12)" stroke-width="1" font-size="16" >O</text>
<text x="310.944952" y="155.880595" fill="rgb(17,127,178)"  stroke="rgb(17,127,178)" stroke-width="1" font-size="16" >Xx</text>
<text x="321.220011" y="192.703737" fill="rgb(17,127,178)"  stroke="rgb(17,127,178)" stroke-width="1" font-size="16" >Xx</text>
<text x="349.719754" y="161.098398" fill="rgb(17,127,178)"  stroke="rgb(17,127,178)" stroke-width="1" font-size="16" >Xx</text>
<text x="348.074817" y="144.629706" fill="rgb(102,102,102)"  stroke="rgb(102,102,102)" stroke-width="1" font-size="16" >CH</text>
<text x="372.074817" y="148.309706" fill="rgb(102,102,102)"  stroke="rgb(102,102,102)" stroke-width="1" font-size="13" >3</text>
<text x="182.030765" y="202.993848" fill="rgb(102,102,102)"  stroke="rgb(102,102,102)" stroke-width="1" font-size="16" >CH</text>
<text x="206.030765" y="206.673848" fill="rgb(102,102,102)"  stroke="rgb(102,102,102)" stroke-width="1" font-size="13" >2</text>
<text x="267.664778" y="102.420686" fill="rgb(191,191,191)"  stroke="rgb(191,191,191)" stroke-width="1" font-size="16" >H</text>
</svg>
</g>
<text font-size="18.000000" fill ="black" font-family="sans-serif"
x="10.000000" y="20.000000" ></text>
</svg>
