<?xml version="1.0"?>
<svg version="1.1" id="topsvg"
xmlns="http://www.w3.org/2000/svg" xmlns:xlink="http://www.w3.org/1999/xlink"
xmlns:cml="http://www.xml-cml.org/schema" x="0" y="0" width="200px" height="200px" viewBox="0 0 100 100">
<title> - Open Babel Depiction</title>
<rect x="0" y="0" width="100" height="100" fill="white"/>
<g transform="translate(0,0)">
<svg width="100" height="100" x="0" y="0" viewBox="0 0 390.484 285.289"
font-family="sans-serif" stroke="rgb(0,0,0)" stroke-width="2"  stroke-linecap="round">
<polygon points="119.391 152.283 122.973 188.204 114.974 188.11 " stroke-width="2" fill="rgb(0,0,0)"  stroke="rgb(0,0,0)" />
<line x1="119.0" y1="188.2" x2="139.2" y2="201.2" stroke="rgb(0,0,0)"  stroke-width="2.0"/>
<line x1="86.6" y1="95.8" x2="75.5" y2="91.9" stroke="rgb(0,0,0)"  stroke-width="2.0"/>
<line x1="67.7" y1="75.3" x2="67.2" y2="76.5" stroke="rgb(0,0,0)"  stroke-width="2.0"/>
<line x1="51.0" y1="83.1" x2="52.2" y2="83.6" stroke="rgb(0,0,0)"  stroke-width="2.0"/>
<line x1="58.9" y1="99.7" x2="59.3" y2="98.5" stroke="rgb(0,0,0)"  stroke-width="2.0"/>
<line x1="154.8" y1="48.2" x2="118.8" y2="77.2" stroke="rgb(0,0,0)"  stroke-width="2.0"/>
<line x1="158.2" y1="135.5" x2="157.4" y2="136.9" stroke="rgb(0,0,0)"  stroke-width="1.0"/>
<line x1="163.8" y1="137.9" x2="162.4" y2="140.4" stroke="rgb(0,0,0)"  stroke-width="1.0"/>
<line x1="169.4" y1="140.2" x2="167.4" y2="143.9" stroke="rgb(0,0,0)"  stroke-width="1.0"/>
<line x1="175.0" y1="142.6" x2="172.3" y2="147.4" stroke="rgb(0,0,0)"  stroke-width="1.0"/>
<line x1="180.6" y1="144.9" x2="177.3" y2="150.8" stroke="rgb(0,0,0)"  stroke-width="1.0"/>
<line x1="186.2" y1="147.3" x2="182.3" y2="154.3" stroke="rgb(0,0,0)"  stroke-width="1.0"/>
<line x1="213.7" y1="242.7" x2="246.5" y2="223.6" stroke="rgb(0,0,0)"  stroke-width="2.0"/>
<line x1="216.7" y1="247.9" x2="249.5" y2="228.8" stroke="rgb(0,0,0)"  stroke-width="2.0"/>
<line x1="248.0" y1="226.2" x2="248.3" y2="190.1" stroke="rgb(0,0,0)"  stroke-width="2.0"/>
<line x1="239.8" y1="153.6" x2="218.5" y2="120.5" stroke="rgb(0,0,0)"  stroke-width="2.0"/>
<line x1="218.5" y1="120.5" x2="227.6" y2="113.1" stroke="rgb(0,0,0)"  stroke-width="2.0"/>
<line x1="249.8" y1="109.5" x2="248.6" y2="109.0" stroke="rgb(0,0,0)"  stroke-width="2.0"/>
<line x1="324.9" y1="140.5" x2="334.7" y2="137.4" stroke="rgb(0,0,0)"  stroke-width="2.0"/>
<line x1="330.6" y1="170.8" x2="341.6" y2="159.0" stroke="rgb(0,0,0)"  stroke-width="2.0"/>
<line x1="183.2" y1="226.7" x2="139.2" y2="201.2" stroke="rgb(0,0,0)"  stroke-width="2.0"/>
<line x1="181.1" y1="230.4" x2="137.0" y2="204.8" stroke="rgb(0,0,0)"  stroke-width="2.0"/>
<line x1="185.3" y1="223.1" x2="141.3" y2="197.5" stroke="rgb(0,0,0)"  stroke-width="2.0"/>
<line x1="183.2" y1="226.7" x2="215.2" y2="245.3" stroke="rgb(0,0,0)"  stroke-width="2.0"/>
<line x1="181.2" y1="177.1" x2="181.3" y2="150.8" stroke="rgb(0,0,0)"  stroke-width="2.0"/>
<line x1="187.2" y1="177.2" x2="187.3" y2="150.8" stroke="rgb(0,0,0)"  stroke-width="2.0"/>
<line x1="248.3" y1="190.1" x2="308.8" y2="182.0" stroke="rgb(0,0,0)"  stroke-width="2.0"/>
<line x1="309.3" y1="176.2" x2="239.8" y2="153.6" stroke="rgb(0,0,0)"  stroke-width="2.0"/>
<line x1="239.8" y1="153.6" x2="248.3" y2="190.1" stroke="rgb(0,0,0)"  stroke-width="2.0"/>
<line x1="315.8" y1="157.1" x2="318.5" y2="167.6" stroke="rgb(0,0,0)"  stroke-width="2.0"/>
<line x1="239.8" y1="153.6" x2="299.6" y2="146.1" stroke="rgb(0,0,0)"  stroke-width="2.0"/>
<line x1="261.3" y1="166.5" x2="300.6" y2="149.6" stroke="rgb(0,0,0)"  stroke-width="2.0"/>
<line x1="248.3" y1="190.1" x2="261.3" y2="166.5" stroke="rgb(0,0,0)"  stroke-width="2.0"/>
<line x1="86.5" y1="133.4" x2="119.4" y2="152.3" stroke="rgb(0,0,0)"  stroke-width="2.0"/>
<line x1="119.4" y1="152.3" x2="151.1" y2="132.6" stroke="rgb(0,0,0)"  stroke-width="2.0"/>
<line x1="151.1" y1="132.6" x2="151.8" y2="95.2" stroke="rgb(0,0,0)"  stroke-width="2.0"/>
<line x1="151.8" y1="95.2" x2="118.8" y2="77.2" stroke="rgb(0,0,0)"  stroke-width="2.0"/>
<line x1="143.1" y1="98.7" x2="120.6" y2="86.4" stroke="rgb(0,0,0)"  stroke-width="2.0"/>
<line x1="118.8" y1="77.2" x2="86.6" y2="95.8" stroke="rgb(0,0,0)"  stroke-width="2.0"/>
<line x1="86.6" y1="95.8" x2="86.5" y2="133.4" stroke="rgb(0,0,0)"  stroke-width="2.0"/>
<line x1="93.7" y1="101.8" x2="93.7" y2="127.5" stroke="rgb(0,0,0)"  stroke-width="2.0"/>
<text x="57.275455" y="95.507638" fill="rgb(127,153,153)"  stroke="rgb(127,153,153)" stroke-width="1" font-size="16" >Si</text>
<text x="67.606659" y="72.232184" fill="rgb(102,102,102)"  stroke="rgb(102,102,102)" stroke-width="1" font-size="16" >CH</text>
<text x="91.606659" y="75.912184" fill="rgb(102,102,102)"  stroke="rgb(102,102,102)" stroke-width="1" font-size="13" >3</text>
<text x="14.000000" y="87.176435" fill="rgb(102,102,102)"  stroke="rgb(102,102,102)" stroke-width="1" font-size="16" >H</text>
<text x="26.000000" y="90.856435" fill="rgb(102,102,102)"  stroke="rgb(102,102,102)" stroke-width="1" font-size="13" >3</text>
<text x="32.500000" y="87.176435" fill="rgb(102,102,102)"  stroke="rgb(102,102,102)" stroke-width="1" font-size="16" >C</text>
<text x="28.941779" y="118.783093" fill="rgb(102,102,102)"  stroke="rgb(102,102,102)" stroke-width="1" font-size="16" >H</text>
<text x="40.941779" y="122.463093" fill="rgb(102,102,102)"  stroke="rgb(102,102,102)" stroke-width="1" font-size="13" >3</text>
<text x="47.441779" y="118.783093" fill="rgb(102,102,102)"  stroke="rgb(102,102,102)" stroke-width="1" font-size="16" >C</text>
<text x="158.911196" y="48.000000" fill="rgb(17,127,178)"  stroke="rgb(17,127,178)" stroke-width="1" font-size="16" >Xx</text>
<text x="231.615163" y="112.886974" fill="rgb(255,12,12)"  stroke="rgb(255,12,12)" stroke-width="1" font-size="16" >O</text>
<text x="256.739815" y="121.626086" fill="rgb(102,102,102)"  stroke="rgb(102,102,102)" stroke-width="1" font-size="16" >CH</text>
<text x="280.739815" y="125.306086" fill="rgb(102,102,102)"  stroke="rgb(102,102,102)" stroke-width="1" font-size="13" >3</text>
<text x="306.536664" y="152.466372" fill="rgb(17,127,178)"  stroke="rgb(17,127,178)" stroke-width="1" font-size="16" >Xx</text>
<text x="315.686155" y="188.236161" fill="rgb(17,127,178)"  stroke="rgb(17,127,178)" stroke-width="1" font-size="16" >Xx</text>
<text x="344.484432" y="157.559037" fill="rgb(17,127,178)"  stroke="rgb(17,127,178)" stroke-width="1" font-size="16" >Xx</text>
<text x="343.114868" y="141.455339" fill="rgb(102,102,102)"  stroke="rgb(102,102,102)" stroke-width="1" font-size="16" >CH</text>
<text x="367.114868" y="145.135339" fill="rgb(102,102,102)"  stroke="rgb(102,102,102)" stroke-width="1" font-size="13" >3</text>
<text x="158.147129" y="198.154496" fill="rgb(102,102,102)"  stroke="rgb(102,102,102)" stroke-width="1" font-size="16" >H</text>
<text x="170.147129" y="201.834496" fill="rgb(102,102,102)"  stroke="rgb(102,102,102)" stroke-width="1" font-size="13" >2</text>
<text x="176.647129" y="198.154496" fill="rgb(102,102,102)"  stroke="rgb(102,102,102)" stroke-width="1" font-size="16" >C</text>
</svg>
</g>
<text font-size="18.000000" fill ="black" font-family="sans-serif"
x="10.000000" y="20.000000" ></text>
</svg>
