<?xml version="1.0"?>
<svg version="1.1" id="topsvg"
xmlns="http://www.w3.org/2000/svg" xmlns:xlink="http://www.w3.org/1999/xlink"
xmlns:cml="http://www.xml-cml.org/schema" x="0" y="0" width="200px" height="200px" viewBox="0 0 100 100">
<title> - Open Babel Depiction</title>
<rect x="0" y="0" width="100" height="100" fill="white"/>
<g transform="translate(0,0)">
<svg width="100" height="100" x="0" y="0" viewBox="0 0 259.632 356.117"
font-family="sans-serif" stroke="rgb(0,0,0)" stroke-width="2"  stroke-linecap="round">
<line x1="133.1" y1="282.6" x2="161.9" y2="275.4" stroke="rgb(0,0,0)"  stroke-width="2.0"/>
<line x1="161.9" y1="275.4" x2="153.8" y2="303.6" stroke="rgb(0,0,0)"  stroke-width="2.0"/>
<line x1="183.6" y1="211.2" x2="183.8" y2="170.9" stroke="rgb(0,0,0)"  stroke-width="2.0"/>
<polygon points="147.786194 149.871274 113.966579 169.627618 110.657864 162.343910 " stroke-width="2.000000" fill="rgb(0,0,0)"  stroke="rgb(0,0,0)" />
<line x1="138.1" y1="103.4" x2="138.8" y2="102.0" stroke="rgb(0,0,0)"  stroke-width="1.0"/>
<line x1="132.8" y1="101.2" x2="134.2" y2="98.7" stroke="rgb(0,0,0)"  stroke-width="1.0"/>
<line x1="127.5" y1="99.0" x2="129.5" y2="95.4" stroke="rgb(0,0,0)"  stroke-width="1.0"/>
<line x1="122.3" y1="96.9" x2="124.9" y2="92.1" stroke="rgb(0,0,0)"  stroke-width="1.0"/>
<line x1="117.0" y1="94.7" x2="120.2" y2="88.8" stroke="rgb(0,0,0)"  stroke-width="1.0"/>
<line x1="111.7" y1="92.5" x2="115.6" y2="85.5" stroke="rgb(0,0,0)"  stroke-width="1.0"/>
<line x1="188.9" y1="52.3" x2="188.1" y2="51.0" stroke="rgb(0,0,0)"  stroke-width="2.0"/>
<line x1="189.9" y1="74.8" x2="183.1" y2="87.8" stroke="rgb(0,0,0)"  stroke-width="2.0"/>
<line x1="76.0" y1="108.7" x2="113.6" y2="89.0" stroke="rgb(0,0,0)"  stroke-width="2.0"/>
<line x1="52.7" y1="91.3" x2="77.5" y2="106.1" stroke="rgb(0,0,0)"  stroke-width="2.0"/>
<line x1="49.6" y1="96.5" x2="74.4" y2="111.3" stroke="rgb(0,0,0)"  stroke-width="2.0"/>
<line x1="88.8" y1="152.2" x2="113.5" y2="163.2" stroke="rgb(0,0,0)"  stroke-width="2.0"/>
<line x1="86.4" y1="157.7" x2="111.1" y2="168.7" stroke="rgb(0,0,0)"  stroke-width="2.0"/>
<line x1="160.3" y1="228.2" x2="183.6" y2="211.2" stroke="rgb(0,0,0)"  stroke-width="2.0"/>
<line x1="165.9" y1="233.0" x2="183.0" y2="220.5" stroke="rgb(0,0,0)"  stroke-width="2.0"/>
<line x1="183.6" y1="211.2" x2="205.5" y2="229.2" stroke="rgb(0,0,0)"  stroke-width="2.0"/>
<line x1="211.5" y1="249.8" x2="203.0" y2="275.9" stroke="rgb(0,0,0)"  stroke-width="2.0"/>
<line x1="203.0" y1="275.9" x2="161.9" y2="275.4" stroke="rgb(0,0,0)"  stroke-width="2.0"/>
<line x1="161.9" y1="275.4" x2="152.9" y2="248.8" stroke="rgb(0,0,0)"  stroke-width="2.0"/>
<line x1="147.8" y1="149.9" x2="183.8" y2="170.9" stroke="rgb(0,0,0)"  stroke-width="2.0"/>
<line x1="183.8" y1="170.9" x2="219.4" y2="150.6" stroke="rgb(0,0,0)"  stroke-width="2.0"/>
<line x1="185.5" y1="161.6" x2="210.6" y2="147.3" stroke="rgb(0,0,0)"  stroke-width="2.0"/>
<line x1="219.4" y1="150.6" x2="219.6" y2="107.7" stroke="rgb(0,0,0)"  stroke-width="2.0"/>
<line x1="219.6" y1="107.7" x2="183.1" y2="87.8" stroke="rgb(0,0,0)"  stroke-width="2.0"/>
<line x1="210.9" y1="111.2" x2="184.9" y2="97.0" stroke="rgb(0,0,0)"  stroke-width="2.0"/>
<line x1="183.1" y1="87.8" x2="144.7" y2="106.1" stroke="rgb(0,0,0)"  stroke-width="2.0"/>
<line x1="144.7" y1="106.1" x2="147.8" y2="149.9" stroke="rgb(0,0,0)"  stroke-width="2.0"/>
<text x="94.450937" y="293.691433" fill="rgb(102,102,102)"  stroke="rgb(102,102,102)" stroke-width="1" font-size="16" >H</text>
<text x="106.450937" y="297.371433" fill="rgb(102,102,102)"  stroke="rgb(102,102,102)" stroke-width="1" font-size="13" >3</text>
<text x="112.950937" y="293.691433" fill="rgb(102,102,102)"  stroke="rgb(102,102,102)" stroke-width="1" font-size="16" >C</text>
<text x="142.763834" y="244.524977" fill="rgb(12,12,255)"  stroke="rgb(12,12,255)" stroke-width="1" font-size="16" >N</text>
<text x="209.538857" y="245.441860" fill="rgb(255,12,12)"  stroke="rgb(255,12,12)" stroke-width="1" font-size="16" >O</text>
<text x="124.274481" y="324.117027" fill="rgb(102,102,102)"  stroke="rgb(102,102,102)" stroke-width="1" font-size="16" >H</text>
<text x="136.274481" y="327.797027" fill="rgb(102,102,102)"  stroke="rgb(102,102,102)" stroke-width="1" font-size="13" >3</text>
<text x="142.774481" y="324.117027" fill="rgb(102,102,102)"  stroke="rgb(102,102,102)" stroke-width="1" font-size="16" >C</text>
<text x="189.903206" y="71.319753" fill="rgb(255,12,12)"  stroke="rgb(255,12,12)" stroke-width="1" font-size="16" >O</text>
<text x="155.108806" y="48.000000" fill="rgb(102,102,102)"  stroke="rgb(102,102,102)" stroke-width="1" font-size="16" >H</text>
<text x="167.108806" y="51.680000" fill="rgb(102,102,102)"  stroke="rgb(102,102,102)" stroke-width="1" font-size="13" >3</text>
<text x="173.608806" y="48.000000" fill="rgb(102,102,102)"  stroke="rgb(102,102,102)" stroke-width="1" font-size="16" >C</text>
<text x="14.000000" y="95.271933" fill="rgb(102,102,102)"  stroke="rgb(102,102,102)" stroke-width="1" font-size="16" >H</text>
<text x="26.000000" y="98.951933" fill="rgb(102,102,102)"  stroke="rgb(102,102,102)" stroke-width="1" font-size="13" >2</text>
<text x="32.500000" y="95.271933" fill="rgb(102,102,102)"  stroke="rgb(102,102,102)" stroke-width="1" font-size="16" >C</text>
<text x="49.711478" y="157.608913" fill="rgb(102,102,102)"  stroke="rgb(102,102,102)" stroke-width="1" font-size="16" >H</text>
<text x="61.711478" y="161.288913" fill="rgb(102,102,102)"  stroke="rgb(102,102,102)" stroke-width="1" font-size="13" >2</text>
<text x="68.211478" y="157.608913" fill="rgb(102,102,102)"  stroke="rgb(102,102,102)" stroke-width="1" font-size="16" >C</text>
</svg>
</g>
<text font-size="18.000000" fill ="black" font-family="sans-serif"
x="10.000000" y="20.000000" ></text>
</svg>
