<?xml version="1.0"?>
<svg version="1.1" id="topsvg"
xmlns="http://www.w3.org/2000/svg" xmlns:xlink="http://www.w3.org/1999/xlink"
xmlns:cml="http://www.xml-cml.org/schema" x="0" y="0" width="200px" height="200px" viewBox="0 0 100 100">
<title> - Open Babel Depiction</title>
<rect x="0" y="0" width="100" height="100" fill="white"/>
<g transform="translate(0,0)">
<svg width="100" height="100" x="0" y="0" viewBox="0 0 292.464 354.161"
font-family="sans-serif" stroke="rgb(0,0,0)" stroke-width="2"  stroke-linecap="round">
<line x1="167.2" y1="281.3" x2="194.2" y2="274.1" stroke="rgb(0,0,0)"  stroke-width="2.0"/>
<line x1="194.2" y1="274.1" x2="187.0" y2="301.6" stroke="rgb(0,0,0)"  stroke-width="2.0"/>
<line x1="181.7" y1="148.6" x2="146.9" y2="166.1" stroke="rgb(0,0,0)"  stroke-width="2.0"/>
<polygon points="181.736737 148.634659 177.536233 107.990919 185.536136 107.951464 " stroke-width="2.000000" fill="rgb(0,0,0)"  stroke="rgb(0,0,0)" />
<line x1="181.5" y1="108.0" x2="146.3" y2="88.0" stroke="rgb(0,0,0)"  stroke-width="2.0"/>
<line x1="146.3" y1="88.0" x2="111.6" y2="108.8" stroke="rgb(0,0,0)"  stroke-width="2.0"/>
<line x1="76.1" y1="88.2" x2="111.6" y2="108.8" stroke="rgb(0,0,0)"  stroke-width="2.0"/>
<line x1="49.9" y1="99.3" x2="74.7" y2="85.6" stroke="rgb(0,0,0)"  stroke-width="2.0"/>
<line x1="52.8" y1="104.6" x2="77.6" y2="90.8" stroke="rgb(0,0,0)"  stroke-width="2.0"/>
<line x1="181.6" y1="79.9" x2="181.5" y2="108.0" stroke="rgb(0,0,0)"  stroke-width="2.0"/>
<line x1="209.8" y1="93.7" x2="209.0" y2="92.3" stroke="rgb(0,0,0)"  stroke-width="1.0"/>
<line x1="204.5" y1="97.3" x2="203.1" y2="94.7" stroke="rgb(0,0,0)"  stroke-width="1.0"/>
<line x1="199.2" y1="100.8" x2="197.3" y2="97.2" stroke="rgb(0,0,0)"  stroke-width="1.0"/>
<line x1="194.0" y1="104.4" x2="191.4" y2="99.6" stroke="rgb(0,0,0)"  stroke-width="1.0"/>
<line x1="188.7" y1="107.9" x2="185.5" y2="102.0" stroke="rgb(0,0,0)"  stroke-width="1.0"/>
<line x1="183.4" y1="111.5" x2="179.6" y2="104.4" stroke="rgb(0,0,0)"  stroke-width="1.0"/>
<line x1="216.3" y1="89.3" x2="222.8" y2="60.5" stroke="rgb(0,0,0)"  stroke-width="2.0"/>
<line x1="217.4" y1="176.9" x2="215.8" y2="176.9" stroke="rgb(0,0,0)"  stroke-width="1.0"/>
<line x1="218.3" y1="183.4" x2="215.4" y2="183.5" stroke="rgb(0,0,0)"  stroke-width="1.0"/>
<line x1="219.2" y1="189.9" x2="215.0" y2="190.0" stroke="rgb(0,0,0)"  stroke-width="1.0"/>
<line x1="220.1" y1="196.4" x2="214.7" y2="196.6" stroke="rgb(0,0,0)"  stroke-width="1.0"/>
<line x1="221.0" y1="202.9" x2="214.3" y2="203.1" stroke="rgb(0,0,0)"  stroke-width="1.0"/>
<line x1="221.9" y1="209.4" x2="213.9" y2="209.7" stroke="rgb(0,0,0)"  stroke-width="1.0"/>
<line x1="180.3" y1="153.6" x2="146.9" y2="166.1" stroke="rgb(0,0,0)"  stroke-width="2.0"/>
<line x1="123.2" y1="152.0" x2="148.1" y2="163.4" stroke="rgb(0,0,0)"  stroke-width="2.0"/>
<line x1="120.7" y1="157.5" x2="145.6" y2="168.8" stroke="rgb(0,0,0)"  stroke-width="2.0"/>
<line x1="180.3" y1="178.2" x2="180.3" y2="153.6" stroke="rgb(0,0,0)"  stroke-width="2.0"/>
<line x1="238.1" y1="43.9" x2="238.4" y2="43.9" stroke="rgb(0,0,0)"  stroke-width="2.0"/>
<line x1="193.9" y1="227.1" x2="217.9" y2="209.6" stroke="rgb(0,0,0)"  stroke-width="2.0"/>
<line x1="199.4" y1="232.0" x2="217.3" y2="218.9" stroke="rgb(0,0,0)"  stroke-width="2.0"/>
<line x1="217.9" y1="209.6" x2="238.7" y2="228.0" stroke="rgb(0,0,0)"  stroke-width="2.0"/>
<line x1="244.5" y1="249.0" x2="236.3" y2="274.6" stroke="rgb(0,0,0)"  stroke-width="2.0"/>
<line x1="236.3" y1="274.6" x2="194.2" y2="274.1" stroke="rgb(0,0,0)"  stroke-width="2.0"/>
<line x1="194.2" y1="274.1" x2="186.0" y2="248.1" stroke="rgb(0,0,0)"  stroke-width="2.0"/>
<line x1="181.7" y1="148.6" x2="181.5" y2="108.0" stroke="rgb(0,0,0)"  stroke-width="2.0"/>
<line x1="181.5" y1="108.0" x2="216.3" y2="89.3" stroke="rgb(0,0,0)"  stroke-width="2.0"/>
<line x1="216.3" y1="89.3" x2="252.5" y2="107.9" stroke="rgb(0,0,0)"  stroke-width="2.0"/>
<line x1="252.5" y1="107.9" x2="252.2" y2="150.4" stroke="rgb(0,0,0)"  stroke-width="2.0"/>
<line x1="252.2" y1="150.4" x2="216.3" y2="168.7" stroke="rgb(0,0,0)"  stroke-width="2.0"/>
<line x1="216.3" y1="168.7" x2="181.7" y2="148.6" stroke="rgb(0,0,0)"  stroke-width="2.0"/>
<text x="128.672929" y="292.609563" fill="rgb(102,102,102)"  stroke="rgb(102,102,102)" stroke-width="1" font-size="16" >H</text>
<text x="140.672929" y="296.289563" fill="rgb(102,102,102)"  stroke="rgb(102,102,102)" stroke-width="1" font-size="13" >3</text>
<text x="147.172929" y="292.609563" fill="rgb(102,102,102)"  stroke="rgb(102,102,102)" stroke-width="1" font-size="16" >C</text>
<text x="176.132423" y="243.734266" fill="rgb(12,12,255)"  stroke="rgb(12,12,255)" stroke-width="1" font-size="16" >N</text>
<text x="242.409755" y="244.642174" fill="rgb(255,12,12)"  stroke="rgb(255,12,12)" stroke-width="1" font-size="16" >O</text>
<text x="14.000000" y="116.239499" fill="rgb(102,102,102)"  stroke="rgb(102,102,102)" stroke-width="1" font-size="16" >H</text>
<text x="26.000000" y="119.919499" fill="rgb(102,102,102)"  stroke="rgb(102,102,102)" stroke-width="1" font-size="13" >2</text>
<text x="32.500000" y="116.239499" fill="rgb(102,102,102)"  stroke="rgb(102,102,102)" stroke-width="1" font-size="16" >C</text>
<text x="177.679823" y="74.865966" fill="rgb(102,102,102)"  stroke="rgb(102,102,102)" stroke-width="1" font-size="16" >CH</text>
<text x="201.679823" y="78.545966" fill="rgb(102,102,102)"  stroke="rgb(102,102,102)" stroke-width="1" font-size="13" >3</text>
<text x="157.750397" y="322.161313" fill="rgb(102,102,102)"  stroke="rgb(102,102,102)" stroke-width="1" font-size="16" >H</text>
<text x="169.750397" y="325.841313" fill="rgb(102,102,102)"  stroke="rgb(102,102,102)" stroke-width="1" font-size="13" >3</text>
<text x="176.250397" y="322.161313" fill="rgb(102,102,102)"  stroke="rgb(102,102,102)" stroke-width="1" font-size="16" >C</text>
<text x="84.150172" y="157.382667" fill="rgb(102,102,102)"  stroke="rgb(102,102,102)" stroke-width="1" font-size="16" >H</text>
<text x="96.150172" y="161.062667" fill="rgb(102,102,102)"  stroke="rgb(102,102,102)" stroke-width="1" font-size="13" >2</text>
<text x="102.650172" y="157.382667" fill="rgb(102,102,102)"  stroke="rgb(102,102,102)" stroke-width="1" font-size="16" >C</text>
<text x="174.316605" y="199.246742" fill="rgb(191,191,191)"  stroke="rgb(191,191,191)" stroke-width="1" font-size="16" >H</text>
<text x="219.712038" y="55.799884" fill="rgb(255,12,12)"  stroke="rgb(255,12,12)" stroke-width="1" font-size="16" >O</text>
<text x="244.816390" y="48.000000" fill="rgb(191,191,191)"  stroke="rgb(191,191,191)" stroke-width="1" font-size="16" >H</text>
</svg>
</g>
<text font-size="18.000000" fill ="black" font-family="sans-serif"
x="10.000000" y="20.000000" ></text>
</svg>
