<?xml version="1.0"?>
<svg version="1.1" id="topsvg"
xmlns="http://www.w3.org/2000/svg" xmlns:xlink="http://www.w3.org/1999/xlink"
xmlns:cml="http://www.xml-cml.org/schema" x="0" y="0" width="200px" height="200px" viewBox="0 0 100 100">
<title> - Open Babel Depiction</title>
<rect x="0" y="0" width="100" height="100" fill="white"/>
<g transform="translate(0,0)">
<svg width="100" height="100" x="0" y="0" viewBox="0 0 378.54 305.627"
font-family="sans-serif" stroke="rgb(0,0,0)" stroke-width="2"  stroke-linecap="round">
<polygon points="128.904 163.006 132.551 203.67 124.551 203.601 " stroke-width="2" fill="rgb(0,0,0)"  stroke="rgb(0,0,0)" />
<line x1="128.6" y1="203.6" x2="150.6" y2="218.1" stroke="rgb(0,0,0)"  stroke-width="2.0"/>
<line x1="92.1" y1="101.8" x2="78.3" y2="96.7" stroke="rgb(0,0,0)"  stroke-width="2.0"/>
<line x1="70.5" y1="80.0" x2="71.1" y2="78.3" stroke="rgb(0,0,0)"  stroke-width="2.0"/>
<line x1="53.9" y1="87.7" x2="52.2" y2="87.1" stroke="rgb(0,0,0)"  stroke-width="2.0"/>
<line x1="61.6" y1="104.4" x2="61.0" y2="106.1" stroke="rgb(0,0,0)"  stroke-width="2.0"/>
<line x1="169.6" y1="48.1" x2="128.2" y2="81.1" stroke="rgb(0,0,0)"  stroke-width="2.0"/>
<line x1="171.3" y1="145.8" x2="170.5" y2="147.2" stroke="rgb(0,0,0)"  stroke-width="1.0"/>
<line x1="177.3" y1="148.4" x2="175.9" y2="150.9" stroke="rgb(0,0,0)"  stroke-width="1.0"/>
<line x1="183.3" y1="151.0" x2="181.3" y2="154.6" stroke="rgb(0,0,0)"  stroke-width="1.0"/>
<line x1="189.4" y1="153.6" x2="186.7" y2="158.3" stroke="rgb(0,0,0)"  stroke-width="1.0"/>
<line x1="195.4" y1="156.1" x2="192.1" y2="162.0" stroke="rgb(0,0,0)"  stroke-width="1.0"/>
<line x1="201.4" y1="158.7" x2="197.5" y2="165.7" stroke="rgb(0,0,0)"  stroke-width="1.0"/>
<line x1="271.0" y1="204.1" x2="270.5" y2="146.3" stroke="rgb(0,0,0)"  stroke-width="2.0"/>
<line x1="266.8" y1="204.2" x2="266.3" y2="146.3" stroke="rgb(0,0,0)"  stroke-width="2.0"/>
<line x1="275.2" y1="204.1" x2="274.7" y2="146.2" stroke="rgb(0,0,0)"  stroke-width="2.0"/>
<line x1="304.8" y1="102.4" x2="270.3" y2="118.2" stroke="rgb(0,0,0)"  stroke-width="2.0"/>
<line x1="327.2" y1="104.6" x2="328.0" y2="105.1" stroke="rgb(0,0,0)"  stroke-width="2.0"/>
<line x1="270.3" y1="118.2" x2="270.5" y2="146.3" stroke="rgb(0,0,0)"  stroke-width="2.0"/>
<line x1="233.3" y1="263.0" x2="269.9" y2="242.4" stroke="rgb(0,0,0)"  stroke-width="2.0"/>
<line x1="236.3" y1="268.2" x2="272.8" y2="247.6" stroke="rgb(0,0,0)"  stroke-width="2.0"/>
<line x1="271.4" y1="245.0" x2="271.0" y2="204.1" stroke="rgb(0,0,0)"  stroke-width="2.0"/>
<line x1="199.3" y1="245.6" x2="150.6" y2="218.1" stroke="rgb(0,0,0)"  stroke-width="2.0"/>
<line x1="197.2" y1="249.3" x2="148.5" y2="221.8" stroke="rgb(0,0,0)"  stroke-width="2.0"/>
<line x1="201.4" y1="242.0" x2="152.6" y2="214.5" stroke="rgb(0,0,0)"  stroke-width="2.0"/>
<line x1="199.3" y1="245.6" x2="234.8" y2="265.6" stroke="rgb(0,0,0)"  stroke-width="2.0"/>
<line x1="196.0" y1="193.0" x2="196.5" y2="162.2" stroke="rgb(0,0,0)"  stroke-width="2.0"/>
<line x1="202.0" y1="193.1" x2="202.5" y2="162.3" stroke="rgb(0,0,0)"  stroke-width="2.0"/>
<line x1="91.9" y1="142.9" x2="92.1" y2="101.8" stroke="rgb(0,0,0)"  stroke-width="2.0"/>
<line x1="99.1" y1="137.0" x2="99.3" y2="107.8" stroke="rgb(0,0,0)"  stroke-width="2.0"/>
<line x1="92.1" y1="101.8" x2="128.2" y2="81.1" stroke="rgb(0,0,0)"  stroke-width="2.0"/>
<line x1="128.2" y1="81.1" x2="164.1" y2="100.6" stroke="rgb(0,0,0)"  stroke-width="2.0"/>
<line x1="130.0" y1="90.3" x2="155.4" y2="104.1" stroke="rgb(0,0,0)"  stroke-width="2.0"/>
<line x1="164.1" y1="100.6" x2="163.8" y2="142.6" stroke="rgb(0,0,0)"  stroke-width="2.0"/>
<line x1="163.8" y1="142.6" x2="128.9" y2="163.0" stroke="rgb(0,0,0)"  stroke-width="2.0"/>
<line x1="128.9" y1="163.0" x2="91.9" y2="142.9" stroke="rgb(0,0,0)"  stroke-width="2.0"/>
<text x="60.065383" y="100.191841" fill="rgb(127,153,153)"  stroke="rgb(127,153,153)" stroke-width="1" font-size="16" >Si</text>
<text x="71.623708" y="74.129234" fill="rgb(102,102,102)"  stroke="rgb(102,102,102)" stroke-width="1" font-size="16" >CH</text>
<text x="95.623708" y="77.809234" fill="rgb(102,102,102)"  stroke="rgb(102,102,102)" stroke-width="1" font-size="13" >3</text>
<text x="14.000000" y="90.633516" fill="rgb(102,102,102)"  stroke="rgb(102,102,102)" stroke-width="1" font-size="16" >H</text>
<text x="26.000000" y="94.313516" fill="rgb(102,102,102)"  stroke="rgb(102,102,102)" stroke-width="1" font-size="13" >3</text>
<text x="32.500000" y="90.633516" fill="rgb(102,102,102)"  stroke="rgb(102,102,102)" stroke-width="1" font-size="16" >C</text>
<text x="30.504282" y="126.257224" fill="rgb(102,102,102)"  stroke="rgb(102,102,102)" stroke-width="1" font-size="16" >H</text>
<text x="42.504282" y="129.937224" fill="rgb(102,102,102)"  stroke="rgb(102,102,102)" stroke-width="1" font-size="13" >3</text>
<text x="49.004282" y="126.257224" fill="rgb(102,102,102)"  stroke="rgb(102,102,102)" stroke-width="1" font-size="16" >C</text>
<text x="173.776968" y="48.000000" fill="rgb(17,127,178)"  stroke="rgb(17,127,178)" stroke-width="1" font-size="16" >Xx</text>
<text x="310.613980" y="105.052900" fill="rgb(255,12,12)"  stroke="rgb(255,12,12)" stroke-width="1" font-size="16" >O</text>
<text x="172.793676" y="214.058891" fill="rgb(102,102,102)"  stroke="rgb(102,102,102)" stroke-width="1" font-size="16" >H</text>
<text x="184.793676" y="217.738891" fill="rgb(102,102,102)"  stroke="rgb(102,102,102)" stroke-width="1" font-size="13" >2</text>
<text x="191.293676" y="214.058891" fill="rgb(102,102,102)"  stroke="rgb(102,102,102)" stroke-width="1" font-size="16" >C</text>
<text x="332.540106" y="120.685467" fill="rgb(191,191,191)"  stroke="rgb(191,191,191)" stroke-width="1" font-size="16" >H</text>
</svg>
</g>
<text font-size="18.000000" fill ="black" font-family="sans-serif"
x="10.000000" y="20.000000" ></text>
</svg>
