<?xml version="1.0"?>
<svg version="1.1" id="topsvg"
xmlns="http://www.w3.org/2000/svg" xmlns:xlink="http://www.w3.org/1999/xlink"
xmlns:cml="http://www.xml-cml.org/schema" x="0" y="0" width="200px" height="200px" viewBox="0 0 100 100">
<title> - Open Babel Depiction</title>
<rect x="0" y="0" width="100" height="100" fill="white"/>
<g transform="translate(0,0)">
<svg width="100" height="100" x="0" y="0" viewBox="0 0 253.453 207.115"
font-family="sans-serif" stroke="rgb(0,0,0)" stroke-width="2"  stroke-linecap="round">
<line x1="47.8" y1="72.4" x2="71.2" y2="41.0" stroke="rgb(0,0,0)"  stroke-width="2.0"/>
<line x1="71.2" y1="38.0" x2="118.4" y2="37.0" stroke="rgb(0,0,0)"  stroke-width="2.0"/>
<line x1="71.3" y1="44.0" x2="118.5" y2="43.0" stroke="rgb(0,0,0)"  stroke-width="2.0"/>
<line x1="118.5" y1="40.0" x2="136.4" y2="71.6" stroke="rgb(0,0,0)"  stroke-width="2.0"/>
<line x1="165.6" y1="123.1" x2="136.4" y2="71.6" stroke="rgb(0,0,0)"  stroke-width="2.0"/>
<line x1="161.9" y1="125.2" x2="132.8" y2="73.7" stroke="rgb(0,0,0)"  stroke-width="2.0"/>
<line x1="169.2" y1="121.0" x2="140.1" y2="69.6" stroke="rgb(0,0,0)"  stroke-width="2.0"/>
<line x1="181.2" y1="153.1" x2="177.8" y2="157.2" stroke="rgb(0,0,0)"  stroke-width="2.0"/>
<line x1="199.5" y1="151.5" x2="203.5" y2="154.9" stroke="rgb(0,0,0)"  stroke-width="2.0"/>
<line x1="197.9" y1="133.2" x2="201.3" y2="129.2" stroke="rgb(0,0,0)"  stroke-width="2.0"/>
<line x1="179.6" y1="134.8" x2="165.6" y2="123.1" stroke="rgb(0,0,0)"  stroke-width="2.0"/>
<text x="22.000000" y="90.862309" fill="rgb(30,239,30)"  stroke="rgb(30,239,30)" stroke-width="1" font-size="16" >Cl</text>
<text x="183.524262" y="151.186461" fill="rgb(127,153,153)"  stroke="rgb(127,153,153)" stroke-width="1" font-size="16" >Si</text>
<text x="143.418295" y="175.114844" fill="rgb(102,102,102)"  stroke="rgb(102,102,102)" stroke-width="1" font-size="16" >H</text>
<text x="155.418295" y="178.794844" fill="rgb(102,102,102)"  stroke="rgb(102,102,102)" stroke-width="1" font-size="13" >3</text>
<text x="161.918295" y="175.114844" fill="rgb(102,102,102)"  stroke="rgb(102,102,102)" stroke-width="1" font-size="16" >C</text>
<text x="209.452644" y="171.292429" fill="rgb(102,102,102)"  stroke="rgb(102,102,102)" stroke-width="1" font-size="16" >CH</text>
<text x="233.452644" y="174.972429" fill="rgb(102,102,102)"  stroke="rgb(102,102,102)" stroke-width="1" font-size="13" >3</text>
<text x="205.630229" y="127.258079" fill="rgb(102,102,102)"  stroke="rgb(102,102,102)" stroke-width="1" font-size="16" >CH</text>
<text x="229.630229" y="130.938079" fill="rgb(102,102,102)"  stroke="rgb(102,102,102)" stroke-width="1" font-size="13" >3</text>
</svg>
</g>
<text font-size="18.000000" fill ="black" font-family="sans-serif"
x="10.000000" y="20.000000" ></text>
</svg>
