<?xml version="1.0"?>
<svg version="1.1" id="topsvg"
xmlns="http://www.w3.org/2000/svg" xmlns:xlink="http://www.w3.org/1999/xlink"
xmlns:cml="http://www.xml-cml.org/schema" x="0" y="0" width="200px" height="200px" viewBox="0 0 100 100">
<title> - Open Babel Depiction</title>
<rect x="0" y="0" width="100" height="100" fill="white"/>
<g transform="translate(0,0)">
<svg width="100" height="100" x="0" y="0" viewBox="0 0 401.178 256.768"
font-family="sans-serif" stroke="rgb(0,0,0)" stroke-width="2"  stroke-linecap="round">
<polygon points="122.83 160.502 135.924 196.114 128.167 198.068 " stroke-width="2" fill="rgb(0,0,0)"  stroke="rgb(0,0,0)" />
<line x1="89.0" y1="98.5" x2="76.8" y2="94.3" stroke="rgb(0,0,0)"  stroke-width="2.0"/>
<line x1="68.7" y1="77.8" x2="68.7" y2="77.9" stroke="rgb(0,0,0)"  stroke-width="2.0"/>
<line x1="52.2" y1="85.9" x2="52.3" y2="85.9" stroke="rgb(0,0,0)"  stroke-width="2.0"/>
<line x1="60.3" y1="102.4" x2="60.4" y2="102.3" stroke="rgb(0,0,0)"  stroke-width="2.0"/>
<line x1="123.7" y1="53.1" x2="123.8" y2="80.7" stroke="rgb(0,0,0)"  stroke-width="2.0"/>
<line x1="117.7" y1="53.1" x2="117.8" y2="80.7" stroke="rgb(0,0,0)"  stroke-width="2.0"/>
<polygon points="157.229132 100.764169 185.467753 83.109666 188.863224 90.353337 " stroke-width="2.000000" fill="rgb(0,0,0)"  stroke="rgb(0,0,0)" />
<polygon points="200.848310 92.774748 157.949796 104.698714 156.508469 96.829624 " stroke-width="2.000000" fill="rgb(0,0,0)"  stroke="rgb(0,0,0)" />
<line x1="270.0" y1="68.4" x2="271.3" y2="65.5" stroke="rgb(0,0,0)"  stroke-width="2.0"/>
<line x1="337.5" y1="110.7" x2="348.8" y2="107.3" stroke="rgb(0,0,0)"  stroke-width="2.0"/>
<line x1="287.5" y1="46.6" x2="286.8" y2="47.0" stroke="rgb(0,0,0)"  stroke-width="2.0"/>
<line x1="188.2" y1="156.6" x2="211.8" y2="142.8" stroke="rgb(0,0,0)"  stroke-width="2.0"/>
<line x1="191.3" y1="161.8" x2="214.9" y2="147.9" stroke="rgb(0,0,0)"  stroke-width="2.0"/>
<line x1="155.9" y1="139.5" x2="189.7" y2="159.2" stroke="rgb(0,0,0)"  stroke-width="2.0"/>
<line x1="155.4" y1="131.7" x2="157.0" y2="131.8" stroke="rgb(0,0,0)"  stroke-width="1.0"/>
<line x1="155.0" y1="125.5" x2="157.8" y2="125.6" stroke="rgb(0,0,0)"  stroke-width="1.0"/>
<line x1="154.5" y1="119.3" x2="158.7" y2="119.4" stroke="rgb(0,0,0)"  stroke-width="1.0"/>
<line x1="154.1" y1="113.1" x2="159.5" y2="113.3" stroke="rgb(0,0,0)"  stroke-width="1.0"/>
<line x1="153.7" y1="106.9" x2="160.4" y2="107.1" stroke="rgb(0,0,0)"  stroke-width="1.0"/>
<line x1="153.2" y1="100.6" x2="161.2" y2="100.9" stroke="rgb(0,0,0)"  stroke-width="1.0"/>
<line x1="187.2" y1="86.7" x2="200.8" y2="92.8" stroke="rgb(0,0,0)"  stroke-width="2.0"/>
<line x1="200.8" y1="92.8" x2="157.2" y2="100.8" stroke="rgb(0,0,0)"  stroke-width="2.0"/>
<line x1="157.2" y1="100.8" x2="187.2" y2="86.7" stroke="rgb(0,0,0)"  stroke-width="2.0"/>
<line x1="253.5" y1="86.8" x2="231.5" y2="99.8" stroke="rgb(0,0,0)"  stroke-width="2.0"/>
<line x1="231.5" y1="99.8" x2="252.2" y2="131.3" stroke="rgb(0,0,0)"  stroke-width="2.0"/>
<line x1="252.2" y1="131.3" x2="261.6" y2="92.8" stroke="rgb(0,0,0)"  stroke-width="2.0"/>
<line x1="312.2" y1="112.5" x2="231.5" y2="99.8" stroke="rgb(0,0,0)"  stroke-width="2.0"/>
<line x1="252.2" y1="131.3" x2="312.4" y2="117.5" stroke="rgb(0,0,0)"  stroke-width="2.0"/>
<line x1="276.0" y1="86.7" x2="313.7" y2="108.1" stroke="rgb(0,0,0)"  stroke-width="2.0"/>
<line x1="89.0" y1="98.5" x2="120.8" y2="80.7" stroke="rgb(0,0,0)"  stroke-width="2.0"/>
<line x1="120.8" y1="80.7" x2="157.2" y2="100.8" stroke="rgb(0,0,0)"  stroke-width="2.0"/>
<line x1="157.2" y1="100.8" x2="155.9" y2="139.5" stroke="rgb(0,0,0)"  stroke-width="2.0"/>
<line x1="155.9" y1="139.5" x2="122.8" y2="160.5" stroke="rgb(0,0,0)"  stroke-width="2.0"/>
<line x1="122.8" y1="160.5" x2="87.9" y2="139.5" stroke="rgb(0,0,0)"  stroke-width="2.0"/>
<line x1="87.9" y1="139.5" x2="89.0" y2="98.5" stroke="rgb(0,0,0)"  stroke-width="2.0"/>
<line x1="95.3" y1="133.7" x2="96.1" y2="104.7" stroke="rgb(0,0,0)"  stroke-width="2.0"/>
<line x1="122.8" y1="160.5" x2="132.0" y2="197.1" stroke="rgb(0,0,0)"  stroke-width="2.0"/>
<line x1="132.0" y1="197.1" x2="164.0" y2="216.6" stroke="rgb(0,0,0)"  stroke-width="2.0"/>
<line x1="164.0" y1="216.6" x2="206.0" y2="216.8" stroke="rgb(0,0,0)"  stroke-width="2.0"/>
<line x1="164.1" y1="212.4" x2="206.0" y2="212.6" stroke="rgb(0,0,0)"  stroke-width="2.0"/>
<line x1="164.0" y1="220.8" x2="206.0" y2="221.0" stroke="rgb(0,0,0)"  stroke-width="2.0"/>
<line x1="206.0" y1="216.8" x2="241.5" y2="205.9" stroke="rgb(0,0,0)"  stroke-width="2.0"/>
<line x1="241.5" y1="205.9" x2="261.0" y2="171.0" stroke="rgb(0,0,0)"  stroke-width="2.0"/>
<line x1="238.1" y1="197.2" x2="251.8" y2="172.7" stroke="rgb(0,0,0)"  stroke-width="2.0"/>
<line x1="261.0" y1="171.0" x2="252.2" y2="131.3" stroke="rgb(0,0,0)"  stroke-width="2.0"/>
<line x1="231.5" y1="99.8" x2="200.8" y2="92.8" stroke="rgb(0,0,0)"  stroke-width="2.0"/>
<text x="58.522830" y="98.090013" fill="rgb(127,153,153)"  stroke="rgb(127,153,153)" stroke-width="1" font-size="16" >Si</text>
<text x="68.895785" y="73.564591" fill="rgb(102,102,102)"  stroke="rgb(102,102,102)" stroke-width="1" font-size="16" >CH</text>
<text x="92.895785" y="77.244591" fill="rgb(102,102,102)"  stroke="rgb(102,102,102)" stroke-width="1" font-size="13" >3</text>
<text x="14.000000" y="89.717058" fill="rgb(102,102,102)"  stroke="rgb(102,102,102)" stroke-width="1" font-size="16" >H</text>
<text x="26.000000" y="93.397058" fill="rgb(102,102,102)"  stroke="rgb(102,102,102)" stroke-width="1" font-size="13" >3</text>
<text x="32.500000" y="89.717058" fill="rgb(102,102,102)"  stroke="rgb(102,102,102)" stroke-width="1" font-size="16" >C</text>
<text x="30.152468" y="122.615434" fill="rgb(102,102,102)"  stroke="rgb(102,102,102)" stroke-width="1" font-size="16" >H</text>
<text x="42.152468" y="126.295434" fill="rgb(102,102,102)"  stroke="rgb(102,102,102)" stroke-width="1" font-size="13" >3</text>
<text x="48.652468" y="122.615434" fill="rgb(102,102,102)"  stroke="rgb(102,102,102)" stroke-width="1" font-size="16" >C</text>
<text x="114.656089" y="48.137347" fill="rgb(255,12,12)"  stroke="rgb(255,12,12)" stroke-width="1" font-size="16" >O</text>
<text x="246.691114" y="88.221796" fill="rgb(239,142,160)"  stroke="rgb(239,142,160)" stroke-width="1" font-size="16" >Co</text>
<text x="319.038060" y="122.561014" fill="rgb(17,127,178)"  stroke="rgb(17,127,178)" stroke-width="1" font-size="16" >Xx</text>
<text x="357.178332" y="111.428173" fill="rgb(102,102,102)"  stroke="rgb(102,102,102)" stroke-width="1" font-size="16" >CH</text>
<text x="381.178332" y="115.108173" fill="rgb(102,102,102)"  stroke="rgb(102,102,102)" stroke-width="1" font-size="13" >3</text>
<text x="264.614346" y="61.610262" fill="rgb(17,127,178)"  stroke="rgb(17,127,178)" stroke-width="1" font-size="16" >Xx</text>
<text x="293.750159" y="48.000000" fill="rgb(102,102,102)"  stroke="rgb(102,102,102)" stroke-width="1" font-size="16" >CH</text>
<text x="317.750159" y="51.680000" fill="rgb(102,102,102)"  stroke="rgb(102,102,102)" stroke-width="1" font-size="13" >3</text>
<text x="220.557427" y="146.765097" fill="rgb(102,102,102)"  stroke="rgb(102,102,102)" stroke-width="1" font-size="16" >CH</text>
<text x="244.557427" y="150.445097" fill="rgb(102,102,102)"  stroke="rgb(102,102,102)" stroke-width="1" font-size="13" >2</text>
</svg>
</g>
<text font-size="18.000000" fill ="black" font-family="sans-serif"
x="10.000000" y="20.000000" ></text>
</svg>
