<?xml version="1.0"?>
<svg version="1.1" id="topsvg"
xmlns="http://www.w3.org/2000/svg" xmlns:xlink="http://www.w3.org/1999/xlink"
xmlns:cml="http://www.xml-cml.org/schema" x="0" y="0" width="200px" height="200px" viewBox="0 0 100 100">
<title> - Open Babel Depiction</title>
<rect x="0" y="0" width="100" height="100" fill="white"/>
<g transform="translate(0,0)">
<svg width="100" height="100" x="0" y="0" viewBox="0 0 247.473 298.017"
font-family="sans-serif" stroke="rgb(0,0,0)" stroke-width="2"  stroke-linecap="round">
<line x1="131.9" y1="214.4" x2="131.4" y2="170.6" stroke="rgb(0,0,0)"  stroke-width="2.0"/>
<line x1="131.9" y1="214.4" x2="168.0" y2="235.5" stroke="rgb(0,0,0)"  stroke-width="2.0"/>
<line x1="71.7" y1="83.3" x2="72.7" y2="80.6" stroke="rgb(0,0,0)"  stroke-width="2.0"/>
<line x1="54.9" y1="90.8" x2="52.1" y2="89.7" stroke="rgb(0,0,0)"  stroke-width="2.0"/>
<line x1="62.4" y1="107.6" x2="61.3" y2="110.3" stroke="rgb(0,0,0)"  stroke-width="2.0"/>
<line x1="79.2" y1="100.1" x2="94.0" y2="105.8" stroke="rgb(0,0,0)"  stroke-width="2.0"/>
<line x1="127.3" y1="84.6" x2="127.8" y2="53.0" stroke="rgb(0,0,0)"  stroke-width="2.0"/>
<line x1="133.3" y1="84.7" x2="133.8" y2="53.0" stroke="rgb(0,0,0)"  stroke-width="2.0"/>
<line x1="169.9" y1="148.3" x2="207.4" y2="170.0" stroke="rgb(0,0,0)"  stroke-width="2.0"/>
<line x1="210.4" y1="170.0" x2="210.5" y2="203.1" stroke="rgb(0,0,0)"  stroke-width="2.0"/>
<line x1="204.4" y1="170.0" x2="204.5" y2="203.1" stroke="rgb(0,0,0)"  stroke-width="2.0"/>
<line x1="168.0" y1="235.5" x2="195.5" y2="251.5" stroke="rgb(0,0,0)"  stroke-width="2.0"/>
<line x1="170.2" y1="231.8" x2="197.6" y2="247.8" stroke="rgb(0,0,0)"  stroke-width="2.0"/>
<line x1="165.9" y1="239.1" x2="193.3" y2="255.1" stroke="rgb(0,0,0)"  stroke-width="2.0"/>
<line x1="94.0" y1="105.8" x2="94.0" y2="149.5" stroke="rgb(0,0,0)"  stroke-width="2.0"/>
<line x1="101.2" y1="111.8" x2="101.2" y2="143.5" stroke="rgb(0,0,0)"  stroke-width="2.0"/>
<line x1="94.0" y1="149.5" x2="131.4" y2="170.6" stroke="rgb(0,0,0)"  stroke-width="2.0"/>
<line x1="131.4" y1="170.6" x2="169.9" y2="148.3" stroke="rgb(0,0,0)"  stroke-width="2.0"/>
<line x1="169.9" y1="148.3" x2="169.2" y2="105.7" stroke="rgb(0,0,0)"  stroke-width="2.0"/>
<line x1="169.2" y1="105.7" x2="130.3" y2="84.7" stroke="rgb(0,0,0)"  stroke-width="2.0"/>
<line x1="130.3" y1="84.7" x2="94.0" y2="105.8" stroke="rgb(0,0,0)"  stroke-width="2.0"/>
<text x="61.011328" y="103.439738" fill="rgb(127,153,153)"  stroke="rgb(127,153,153)" stroke-width="1" font-size="16" >Si</text>
<text x="73.347354" y="76.431302" fill="rgb(102,102,102)"  stroke="rgb(102,102,102)" stroke-width="1" font-size="16" >CH</text>
<text x="97.347354" y="80.111302" fill="rgb(102,102,102)"  stroke="rgb(102,102,102)" stroke-width="1" font-size="13" >3</text>
<text x="14.000000" y="93.103711" fill="rgb(102,102,102)"  stroke="rgb(102,102,102)" stroke-width="1" font-size="16" >H</text>
<text x="26.000000" y="96.783711" fill="rgb(102,102,102)"  stroke="rgb(102,102,102)" stroke-width="1" font-size="13" >3</text>
<text x="32.500000" y="93.103711" fill="rgb(102,102,102)"  stroke="rgb(102,102,102)" stroke-width="1" font-size="16" >C</text>
<text x="30.672409" y="130.451065" fill="rgb(102,102,102)"  stroke="rgb(102,102,102)" stroke-width="1" font-size="16" >H</text>
<text x="42.672409" y="134.131065" fill="rgb(102,102,102)"  stroke="rgb(102,102,102)" stroke-width="1" font-size="13" >3</text>
<text x="49.172409" y="130.451065" fill="rgb(102,102,102)"  stroke="rgb(102,102,102)" stroke-width="1" font-size="16" >C</text>
<text x="124.991156" y="48.000000" fill="rgb(255,12,12)"  stroke="rgb(255,12,12)" stroke-width="1" font-size="16" >O</text>
<text x="203.473123" y="224.053702" fill="rgb(102,102,102)"  stroke="rgb(102,102,102)" stroke-width="1" font-size="16" >CH</text>
<text x="227.473123" y="227.733702" fill="rgb(102,102,102)"  stroke="rgb(102,102,102)" stroke-width="1" font-size="13" >2</text>
<text x="200.689390" y="266.016696" fill="rgb(102,102,102)"  stroke="rgb(102,102,102)" stroke-width="1" font-size="16" >CH</text>
</svg>
</g>
<text font-size="18.000000" fill ="black" font-family="sans-serif"
x="10.000000" y="20.000000" ></text>
</svg>
