<?xml version="1.0"?>
<svg version="1.1" id="topsvg"
xmlns="http://www.w3.org/2000/svg" xmlns:xlink="http://www.w3.org/1999/xlink"
xmlns:cml="http://www.xml-cml.org/schema" x="0" y="0" width="200px" height="200px" viewBox="0 0 100 100">
<title> - Open Babel Depiction</title>
<rect x="0" y="0" width="100" height="100" fill="white"/>
<g transform="translate(0,0)">
<svg width="100" height="100" x="0" y="0" viewBox="0 0 305.117 356.507"
font-family="sans-serif" stroke="rgb(0,0,0)" stroke-width="2"  stroke-linecap="round">
<line x1="232.5" y1="304.1" x2="241.5" y2="275.2" stroke="rgb(0,0,0)"  stroke-width="2.0"/>
<line x1="241.5" y1="275.2" x2="257.7" y2="298.6" stroke="rgb(0,0,0)"  stroke-width="2.0"/>
<line x1="219.5" y1="169.4" x2="219.1" y2="211.3" stroke="rgb(0,0,0)"  stroke-width="2.0"/>
<line x1="183.8" y1="150.2" x2="148.2" y2="166.5" stroke="rgb(0,0,0)"  stroke-width="2.0"/>
<polygon points="183.776151 150.177433 178.937900 106.889923 186.936403 106.735173 " stroke-width="2.000000" fill="rgb(0,0,0)"  stroke="rgb(0,0,0)" />
<line x1="49.7" y1="100.1" x2="75.2" y2="85.3" stroke="rgb(0,0,0)"  stroke-width="2.0"/>
<line x1="52.7" y1="105.3" x2="78.2" y2="90.5" stroke="rgb(0,0,0)"  stroke-width="2.0"/>
<line x1="76.7" y1="87.9" x2="112.2" y2="108.3" stroke="rgb(0,0,0)"  stroke-width="2.0"/>
<line x1="112.2" y1="108.3" x2="146.6" y2="87.2" stroke="rgb(0,0,0)"  stroke-width="2.0"/>
<line x1="146.6" y1="87.2" x2="154.0" y2="59.5" stroke="rgb(0,0,0)"  stroke-width="2.0"/>
<line x1="182.9" y1="106.8" x2="146.6" y2="87.2" stroke="rgb(0,0,0)"  stroke-width="2.0"/>
<line x1="182.2" y1="100.5" x2="183.8" y2="100.6" stroke="rgb(0,0,0)"  stroke-width="1.0"/>
<line x1="181.6" y1="95.5" x2="184.5" y2="95.6" stroke="rgb(0,0,0)"  stroke-width="1.0"/>
<line x1="181.0" y1="90.5" x2="185.2" y2="90.6" stroke="rgb(0,0,0)"  stroke-width="1.0"/>
<line x1="180.5" y1="85.5" x2="185.9" y2="85.5" stroke="rgb(0,0,0)"  stroke-width="1.0"/>
<line x1="179.9" y1="80.5" x2="186.6" y2="80.5" stroke="rgb(0,0,0)"  stroke-width="1.0"/>
<line x1="179.3" y1="75.4" x2="187.3" y2="75.5" stroke="rgb(0,0,0)"  stroke-width="1.0"/>
<line x1="225.0" y1="52.9" x2="224.1" y2="51.5" stroke="rgb(0,0,0)"  stroke-width="2.0"/>
<line x1="225.8" y1="75.4" x2="219.0" y2="88.4" stroke="rgb(0,0,0)"  stroke-width="2.0"/>
<line x1="124.2" y1="152.3" x2="149.4" y2="163.8" stroke="rgb(0,0,0)"  stroke-width="2.0"/>
<line x1="121.7" y1="157.7" x2="146.9" y2="169.2" stroke="rgb(0,0,0)"  stroke-width="2.0"/>
<line x1="170.0" y1="43.6" x2="170.8" y2="43.4" stroke="rgb(0,0,0)"  stroke-width="2.0"/>
<line x1="198.4" y1="275.4" x2="189.0" y2="249.5" stroke="rgb(0,0,0)"  stroke-width="2.0"/>
<line x1="194.9" y1="229.4" x2="219.1" y2="211.3" stroke="rgb(0,0,0)"  stroke-width="2.0"/>
<line x1="219.1" y1="211.3" x2="240.9" y2="228.1" stroke="rgb(0,0,0)"  stroke-width="2.0"/>
<line x1="219.5" y1="220.6" x2="235.0" y2="232.6" stroke="rgb(0,0,0)"  stroke-width="2.0"/>
<line x1="248.4" y1="248.9" x2="241.5" y2="275.2" stroke="rgb(0,0,0)"  stroke-width="2.0"/>
<line x1="241.5" y1="275.2" x2="198.4" y2="275.4" stroke="rgb(0,0,0)"  stroke-width="2.0"/>
<line x1="182.9" y1="106.8" x2="183.8" y2="150.2" stroke="rgb(0,0,0)"  stroke-width="2.0"/>
<line x1="183.8" y1="150.2" x2="219.5" y2="169.4" stroke="rgb(0,0,0)"  stroke-width="2.0"/>
<line x1="219.5" y1="169.4" x2="255.7" y2="150.7" stroke="rgb(0,0,0)"  stroke-width="2.0"/>
<line x1="221.5" y1="160.2" x2="247.1" y2="147.0" stroke="rgb(0,0,0)"  stroke-width="2.0"/>
<line x1="255.7" y1="150.7" x2="255.7" y2="107.8" stroke="rgb(0,0,0)"  stroke-width="2.0"/>
<line x1="255.7" y1="107.8" x2="219.0" y2="88.4" stroke="rgb(0,0,0)"  stroke-width="2.0"/>
<line x1="247.1" y1="111.4" x2="220.9" y2="97.6" stroke="rgb(0,0,0)"  stroke-width="2.0"/>
<line x1="219.0" y1="88.4" x2="182.9" y2="106.8" stroke="rgb(0,0,0)"  stroke-width="2.0"/>
<text x="202.672278" y="324.506868" fill="rgb(102,102,102)"  stroke="rgb(102,102,102)" stroke-width="1" font-size="16" >H</text>
<text x="214.672278" y="328.186868" fill="rgb(102,102,102)"  stroke="rgb(102,102,102)" stroke-width="1" font-size="13" >3</text>
<text x="221.172278" y="324.506868" fill="rgb(102,102,102)"  stroke="rgb(102,102,102)" stroke-width="1" font-size="16" >C</text>
<text x="178.523773" y="245.247787" fill="rgb(255,12,12)"  stroke="rgb(255,12,12)" stroke-width="1" font-size="16" >O</text>
<text x="245.627063" y="244.328488" fill="rgb(12,12,255)"  stroke="rgb(12,12,255)" stroke-width="1" font-size="16" >N</text>
<text x="261.117500" y="317.313077" fill="rgb(102,102,102)"  stroke="rgb(102,102,102)" stroke-width="1" font-size="16" >CH</text>
<text x="285.117500" y="320.993077" fill="rgb(102,102,102)"  stroke="rgb(102,102,102)" stroke-width="1" font-size="13" >3</text>
<text x="14.000000" y="117.260320" fill="rgb(102,102,102)"  stroke="rgb(102,102,102)" stroke-width="1" font-size="16" >H</text>
<text x="26.000000" y="120.940320" fill="rgb(102,102,102)"  stroke="rgb(102,102,102)" stroke-width="1" font-size="13" >2</text>
<text x="32.500000" y="117.260320" fill="rgb(102,102,102)"  stroke="rgb(102,102,102)" stroke-width="1" font-size="16" >C</text>
<text x="225.895362" y="71.940540" fill="rgb(255,12,12)"  stroke="rgb(255,12,12)" stroke-width="1" font-size="16" >O</text>
<text x="191.161657" y="48.495646" fill="rgb(102,102,102)"  stroke="rgb(102,102,102)" stroke-width="1" font-size="16" >H</text>
<text x="203.161657" y="52.175646" fill="rgb(102,102,102)"  stroke="rgb(102,102,102)" stroke-width="1" font-size="13" >3</text>
<text x="209.661657" y="48.495646" fill="rgb(102,102,102)"  stroke="rgb(102,102,102)" stroke-width="1" font-size="16" >C</text>
<text x="85.162604" y="157.576566" fill="rgb(102,102,102)"  stroke="rgb(102,102,102)" stroke-width="1" font-size="16" >H</text>
<text x="97.162604" y="161.256566" fill="rgb(102,102,102)"  stroke="rgb(102,102,102)" stroke-width="1" font-size="13" >2</text>
<text x="103.662604" y="157.576566" fill="rgb(102,102,102)"  stroke="rgb(102,102,102)" stroke-width="1" font-size="16" >C</text>
<text x="151.404452" y="54.969505" fill="rgb(255,12,12)"  stroke="rgb(255,12,12)" stroke-width="1" font-size="16" >O</text>
<text x="179.488177" y="68.066747" fill="rgb(102,102,102)"  stroke="rgb(102,102,102)" stroke-width="1" font-size="16" >CH</text>
<text x="203.488177" y="71.746747" fill="rgb(102,102,102)"  stroke="rgb(102,102,102)" stroke-width="1" font-size="13" >3</text>
<text x="177.344191" y="48.000000" fill="rgb(191,191,191)"  stroke="rgb(191,191,191)" stroke-width="1" font-size="16" >H</text>
</svg>
</g>
<text font-size="18.000000" fill ="black" font-family="sans-serif"
x="10.000000" y="20.000000" ></text>
</svg>
