<?xml version="1.0"?>
<svg version="1.1" id="topsvg"
xmlns="http://www.w3.org/2000/svg" xmlns:xlink="http://www.w3.org/1999/xlink"
xmlns:cml="http://www.xml-cml.org/schema" x="0" y="0" width="200px" height="200px" viewBox="0 0 100 100">
<title> - Open Babel Depiction</title>
<rect x="0" y="0" width="100" height="100" fill="white"/>
<g transform="translate(0,0)">
<svg width="100" height="100" x="0" y="0" viewBox="0 0 330.663 354.948"
font-family="sans-serif" stroke="rgb(0,0,0)" stroke-width="2"  stroke-linecap="round">
<line x1="233.1" y1="274.6" x2="205.1" y2="282.5" stroke="rgb(0,0,0)"  stroke-width="2.0"/>
<line x1="233.1" y1="274.6" x2="225.3" y2="302.4" stroke="rgb(0,0,0)"  stroke-width="2.0"/>
<line x1="254.0" y1="210.8" x2="253.7" y2="170.2" stroke="rgb(0,0,0)"  stroke-width="2.0"/>
<line x1="218.5" y1="149.4" x2="183.4" y2="165.2" stroke="rgb(0,0,0)"  stroke-width="2.0"/>
<polygon points="218.457952 149.375143 214.694999 107.902589 222.694868 107.948327 " stroke-width="2.000000" fill="rgb(0,0,0)"  stroke="rgb(0,0,0)" />
<line x1="147.1" y1="106.4" x2="181.4" y2="86.9" stroke="rgb(0,0,0)"  stroke-width="2.0"/>
<line x1="178.4" y1="86.9" x2="178.7" y2="58.7" stroke="rgb(0,0,0)"  stroke-width="2.0"/>
<line x1="184.4" y1="86.9" x2="184.7" y2="58.8" stroke="rgb(0,0,0)"  stroke-width="2.0"/>
<line x1="75.5" y1="107.1" x2="82.1" y2="136.0" stroke="rgb(0,0,0)"  stroke-width="2.0"/>
<line x1="75.5" y1="107.1" x2="51.2" y2="92.7" stroke="rgb(0,0,0)"  stroke-width="2.0"/>
<line x1="75.5" y1="107.1" x2="111.3" y2="85.9" stroke="rgb(0,0,0)"  stroke-width="2.0"/>
<line x1="75.4" y1="157.5" x2="74.8" y2="157.9" stroke="rgb(0,0,0)"  stroke-width="2.0"/>
<line x1="111.3" y1="85.9" x2="147.1" y2="106.4" stroke="rgb(0,0,0)"  stroke-width="2.0"/>
<line x1="218.7" y1="107.9" x2="181.4" y2="86.9" stroke="rgb(0,0,0)"  stroke-width="2.0"/>
<line x1="218.1" y1="101.4" x2="219.7" y2="101.5" stroke="rgb(0,0,0)"  stroke-width="1.0"/>
<line x1="217.6" y1="96.3" x2="220.5" y2="96.3" stroke="rgb(0,0,0)"  stroke-width="1.0"/>
<line x1="217.1" y1="91.1" x2="221.2" y2="91.2" stroke="rgb(0,0,0)"  stroke-width="1.0"/>
<line x1="216.6" y1="85.9" x2="222.0" y2="86.0" stroke="rgb(0,0,0)"  stroke-width="1.0"/>
<line x1="216.1" y1="80.7" x2="222.8" y2="80.9" stroke="rgb(0,0,0)"  stroke-width="1.0"/>
<line x1="215.6" y1="75.5" x2="223.6" y2="75.7" stroke="rgb(0,0,0)"  stroke-width="1.0"/>
<line x1="260.2" y1="52.3" x2="259.4" y2="51.0" stroke="rgb(0,0,0)"  stroke-width="2.0"/>
<line x1="261.2" y1="74.8" x2="254.5" y2="87.7" stroke="rgb(0,0,0)"  stroke-width="2.0"/>
<line x1="159.0" y1="151.0" x2="184.6" y2="162.5" stroke="rgb(0,0,0)"  stroke-width="2.0"/>
<line x1="156.6" y1="156.5" x2="182.1" y2="167.9" stroke="rgb(0,0,0)"  stroke-width="2.0"/>
<line x1="230.8" y1="227.0" x2="254.0" y2="210.8" stroke="rgb(0,0,0)"  stroke-width="2.0"/>
<line x1="236.3" y1="231.9" x2="253.2" y2="220.1" stroke="rgb(0,0,0)"  stroke-width="2.0"/>
<line x1="254.0" y1="210.8" x2="275.9" y2="227.9" stroke="rgb(0,0,0)"  stroke-width="2.0"/>
<line x1="282.5" y1="248.5" x2="274.9" y2="275.1" stroke="rgb(0,0,0)"  stroke-width="2.0"/>
<line x1="274.9" y1="275.1" x2="233.1" y2="274.6" stroke="rgb(0,0,0)"  stroke-width="2.0"/>
<line x1="233.1" y1="274.6" x2="223.6" y2="247.3" stroke="rgb(0,0,0)"  stroke-width="2.0"/>
<line x1="218.7" y1="107.9" x2="218.5" y2="149.4" stroke="rgb(0,0,0)"  stroke-width="2.0"/>
<line x1="218.5" y1="149.4" x2="253.7" y2="170.2" stroke="rgb(0,0,0)"  stroke-width="2.0"/>
<line x1="253.7" y1="170.2" x2="289.7" y2="150.3" stroke="rgb(0,0,0)"  stroke-width="2.0"/>
<line x1="255.4" y1="161.0" x2="281.0" y2="146.9" stroke="rgb(0,0,0)"  stroke-width="2.0"/>
<line x1="289.7" y1="150.3" x2="290.7" y2="108.4" stroke="rgb(0,0,0)"  stroke-width="2.0"/>
<line x1="290.7" y1="108.4" x2="254.5" y2="87.7" stroke="rgb(0,0,0)"  stroke-width="2.0"/>
<line x1="281.9" y1="111.7" x2="256.1" y2="96.9" stroke="rgb(0,0,0)"  stroke-width="2.0"/>
<line x1="254.5" y1="87.7" x2="218.7" y2="107.9" stroke="rgb(0,0,0)"  stroke-width="2.0"/>
<text x="166.580144" y="293.981093" fill="rgb(102,102,102)"  stroke="rgb(102,102,102)" stroke-width="1" font-size="16" >H</text>
<text x="178.580144" y="297.661093" fill="rgb(102,102,102)"  stroke="rgb(102,102,102)" stroke-width="1" font-size="13" >3</text>
<text x="185.080144" y="293.981093" fill="rgb(102,102,102)"  stroke="rgb(102,102,102)" stroke-width="1" font-size="16" >C</text>
<text x="213.339743" y="243.041133" fill="rgb(12,12,255)"  stroke="rgb(12,12,255)" stroke-width="1" font-size="16" >N</text>
<text x="280.088561" y="243.955991" fill="rgb(255,12,12)"  stroke="rgb(255,12,12)" stroke-width="1" font-size="16" >O</text>
<text x="195.847336" y="322.947925" fill="rgb(102,102,102)"  stroke="rgb(102,102,102)" stroke-width="1" font-size="16" >H</text>
<text x="207.847336" y="326.627925" fill="rgb(102,102,102)"  stroke="rgb(102,102,102)" stroke-width="1" font-size="13" >3</text>
<text x="214.347336" y="322.947925" fill="rgb(102,102,102)"  stroke="rgb(102,102,102)" stroke-width="1" font-size="16" >C</text>
<text x="78.924493" y="156.631132" fill="rgb(255,12,12)"  stroke="rgb(255,12,12)" stroke-width="1" font-size="16" >O</text>
<text x="14.000000" y="94.081843" fill="rgb(102,102,102)"  stroke="rgb(102,102,102)" stroke-width="1" font-size="16" >H</text>
<text x="26.000000" y="97.761843" fill="rgb(102,102,102)"  stroke="rgb(102,102,102)" stroke-width="1" font-size="13" >3</text>
<text x="32.500000" y="94.081843" fill="rgb(102,102,102)"  stroke="rgb(102,102,102)" stroke-width="1" font-size="16" >C</text>
<text x="175.849850" y="53.761953" fill="rgb(255,12,12)"  stroke="rgb(255,12,12)" stroke-width="1" font-size="16" >O</text>
<text x="261.215480" y="71.226924" fill="rgb(255,12,12)"  stroke="rgb(255,12,12)" stroke-width="1" font-size="16" >O</text>
<text x="226.387614" y="48.000000" fill="rgb(102,102,102)"  stroke="rgb(102,102,102)" stroke-width="1" font-size="16" >H</text>
<text x="238.387614" y="51.680000" fill="rgb(102,102,102)"  stroke="rgb(102,102,102)" stroke-width="1" font-size="13" >3</text>
<text x="244.887614" y="48.000000" fill="rgb(102,102,102)"  stroke="rgb(102,102,102)" stroke-width="1" font-size="16" >C</text>
<text x="216.025887" y="67.708027" fill="rgb(102,102,102)"  stroke="rgb(102,102,102)" stroke-width="1" font-size="16" >CH</text>
<text x="240.025887" y="71.388027" fill="rgb(102,102,102)"  stroke="rgb(102,102,102)" stroke-width="1" font-size="13" >3</text>
<text x="119.941670" y="156.487841" fill="rgb(102,102,102)"  stroke="rgb(102,102,102)" stroke-width="1" font-size="16" >H</text>
<text x="131.941670" y="160.167841" fill="rgb(102,102,102)"  stroke="rgb(102,102,102)" stroke-width="1" font-size="13" >2</text>
<text x="138.441670" y="156.487841" fill="rgb(102,102,102)"  stroke="rgb(102,102,102)" stroke-width="1" font-size="16" >C</text>
<text x="59.293622" y="174.771225" fill="rgb(191,191,191)"  stroke="rgb(191,191,191)" stroke-width="1" font-size="16" >H</text>
</svg>
</g>
<text font-size="18.000000" fill ="black" font-family="sans-serif"
x="10.000000" y="20.000000" ></text>
</svg>
