<?xml version="1.0"?>
<svg version="1.1" id="topsvg"
xmlns="http://www.w3.org/2000/svg" xmlns:xlink="http://www.w3.org/1999/xlink"
xmlns:cml="http://www.xml-cml.org/schema" x="0" y="0" width="200px" height="200px" viewBox="0 0 100 100">
<title> - Open Babel Depiction</title>
<rect x="0" y="0" width="100" height="100" fill="white"/>
<g transform="translate(0,0)">
<svg width="100" height="100" x="0" y="0" viewBox="0 0 309.258 348.103"
font-family="sans-serif" stroke="rgb(0,0,0)" stroke-width="2"  stroke-linecap="round">
<line x1="204.2" y1="266.0" x2="174.0" y2="273.4" stroke="rgb(0,0,0)"  stroke-width="2.0"/>
<line x1="204.2" y1="266.0" x2="196.3" y2="295.6" stroke="rgb(0,0,0)"  stroke-width="2.0"/>
<line x1="182.6" y1="137.9" x2="182.0" y2="136.4" stroke="rgb(0,0,0)"  stroke-width="1.0"/>
<line x1="176.3" y1="140.9" x2="175.4" y2="138.2" stroke="rgb(0,0,0)"  stroke-width="1.0"/>
<line x1="170.1" y1="143.8" x2="168.7" y2="139.9" stroke="rgb(0,0,0)"  stroke-width="1.0"/>
<line x1="163.9" y1="146.8" x2="162.1" y2="141.6" stroke="rgb(0,0,0)"  stroke-width="1.0"/>
<line x1="157.7" y1="149.7" x2="155.4" y2="143.4" stroke="rgb(0,0,0)"  stroke-width="1.0"/>
<line x1="151.5" y1="152.6" x2="148.8" y2="145.1" stroke="rgb(0,0,0)"  stroke-width="1.0"/>
<line x1="191.9" y1="98.1" x2="190.3" y2="98.1" stroke="rgb(0,0,0)"  stroke-width="1.0"/>
<line x1="192.4" y1="105.4" x2="189.5" y2="105.3" stroke="rgb(0,0,0)"  stroke-width="1.0"/>
<line x1="192.9" y1="112.6" x2="188.7" y2="112.5" stroke="rgb(0,0,0)"  stroke-width="1.0"/>
<line x1="193.3" y1="119.9" x2="187.9" y2="119.7" stroke="rgb(0,0,0)"  stroke-width="1.0"/>
<line x1="193.8" y1="127.1" x2="187.1" y2="127.0" stroke="rgb(0,0,0)"  stroke-width="1.0"/>
<line x1="194.3" y1="134.4" x2="186.3" y2="134.2" stroke="rgb(0,0,0)"  stroke-width="1.0"/>
<line x1="191.3" y1="89.1" x2="153.2" y2="69.0" stroke="rgb(0,0,0)"  stroke-width="2.0"/>
<line x1="253.3" y1="41.0" x2="256.3" y2="40.8" stroke="rgb(0,0,0)"  stroke-width="2.0"/>
<line x1="234.6" y1="53.5" x2="227.5" y2="67.8" stroke="rgb(0,0,0)"  stroke-width="2.0"/>
<line x1="219.7" y1="150.4" x2="220.4" y2="148.9" stroke="rgb(0,0,0)"  stroke-width="1.0"/>
<line x1="213.5" y1="147.9" x2="214.8" y2="145.3" stroke="rgb(0,0,0)"  stroke-width="1.0"/>
<line x1="207.2" y1="145.4" x2="209.1" y2="141.7" stroke="rgb(0,0,0)"  stroke-width="1.0"/>
<line x1="201.0" y1="142.8" x2="203.5" y2="138.0" stroke="rgb(0,0,0)"  stroke-width="1.0"/>
<line x1="194.7" y1="140.3" x2="197.8" y2="134.4" stroke="rgb(0,0,0)"  stroke-width="1.0"/>
<line x1="188.5" y1="137.8" x2="192.1" y2="130.7" stroke="rgb(0,0,0)"  stroke-width="1.0"/>
<line x1="227.5" y1="153.5" x2="227.1" y2="201.3" stroke="rgb(0,0,0)"  stroke-width="2.0"/>
<line x1="130.7" y1="131.0" x2="151.9" y2="146.4" stroke="rgb(0,0,0)"  stroke-width="2.0"/>
<line x1="127.2" y1="135.9" x2="148.4" y2="151.3" stroke="rgb(0,0,0)"  stroke-width="2.0"/>
<line x1="49.7" y1="79.2" x2="76.2" y2="63.5" stroke="rgb(0,0,0)"  stroke-width="2.0"/>
<line x1="52.7" y1="84.4" x2="79.3" y2="68.7" stroke="rgb(0,0,0)"  stroke-width="2.0"/>
<line x1="77.8" y1="66.1" x2="114.7" y2="88.4" stroke="rgb(0,0,0)"  stroke-width="2.0"/>
<line x1="152.9" y1="65.3" x2="153.2" y2="69.0" stroke="rgb(0,0,0)"  stroke-width="2.0"/>
<line x1="157.1" y1="65.1" x2="157.3" y2="68.7" stroke="rgb(0,0,0)"  stroke-width="2.0"/>
<line x1="148.7" y1="65.6" x2="149.0" y2="69.2" stroke="rgb(0,0,0)"  stroke-width="2.0"/>
<line x1="153.2" y1="69.0" x2="114.7" y2="88.4" stroke="rgb(0,0,0)"  stroke-width="2.0"/>
<line x1="150.1" y1="148.9" x2="190.3" y2="134.3" stroke="rgb(0,0,0)"  stroke-width="2.0"/>
<line x1="190.3" y1="134.3" x2="162.8" y2="154.1" stroke="rgb(0,0,0)"  stroke-width="2.0"/>
<line x1="150.2" y1="148.9" x2="150.1" y2="148.9" stroke="rgb(0,0,0)"  stroke-width="2.0"/>
<line x1="202.9" y1="216.4" x2="227.1" y2="201.3" stroke="rgb(0,0,0)"  stroke-width="2.0"/>
<line x1="208.2" y1="221.6" x2="225.8" y2="210.6" stroke="rgb(0,0,0)"  stroke-width="2.0"/>
<line x1="227.1" y1="201.3" x2="250.3" y2="217.8" stroke="rgb(0,0,0)"  stroke-width="2.0"/>
<line x1="257.0" y1="237.7" x2="248.2" y2="265.3" stroke="rgb(0,0,0)"  stroke-width="2.0"/>
<line x1="248.2" y1="265.3" x2="204.2" y2="266.0" stroke="rgb(0,0,0)"  stroke-width="2.0"/>
<line x1="204.2" y1="266.0" x2="194.9" y2="236.2" stroke="rgb(0,0,0)"  stroke-width="2.0"/>
<line x1="191.3" y1="89.1" x2="227.5" y2="67.8" stroke="rgb(0,0,0)"  stroke-width="2.0"/>
<line x1="227.5" y1="67.8" x2="265.9" y2="87.3" stroke="rgb(0,0,0)"  stroke-width="2.0"/>
<line x1="229.6" y1="77.0" x2="257.3" y2="91.0" stroke="rgb(0,0,0)"  stroke-width="2.0"/>
<line x1="265.9" y1="87.3" x2="264.9" y2="133.3" stroke="rgb(0,0,0)"  stroke-width="2.0"/>
<line x1="264.9" y1="133.3" x2="227.5" y2="153.5" stroke="rgb(0,0,0)"  stroke-width="2.0"/>
<line x1="227.5" y1="153.5" x2="190.3" y2="134.3" stroke="rgb(0,0,0)"  stroke-width="2.0"/>
<line x1="190.3" y1="134.3" x2="191.3" y2="89.1" stroke="rgb(0,0,0)"  stroke-width="2.0"/>
<text x="135.388811" y="284.550028" fill="rgb(102,102,102)"  stroke="rgb(102,102,102)" stroke-width="1" font-size="16" >H</text>
<text x="147.388811" y="288.230028" fill="rgb(102,102,102)"  stroke="rgb(102,102,102)" stroke-width="1" font-size="13" >3</text>
<text x="153.888811" y="284.550028" fill="rgb(102,102,102)"  stroke="rgb(102,102,102)" stroke-width="1" font-size="16" >C</text>
<text x="185.033670" y="231.835815" fill="rgb(12,12,255)"  stroke="rgb(12,12,255)" stroke-width="1" font-size="16" >N</text>
<text x="254.925955" y="233.276744" fill="rgb(255,12,12)"  stroke="rgb(255,12,12)" stroke-width="1" font-size="16" >O</text>
<text x="166.892091" y="316.102595" fill="rgb(102,102,102)"  stroke="rgb(102,102,102)" stroke-width="1" font-size="16" >H</text>
<text x="178.892091" y="319.782595" fill="rgb(102,102,102)"  stroke="rgb(102,102,102)" stroke-width="1" font-size="13" >3</text>
<text x="185.392091" y="316.102595" fill="rgb(102,102,102)"  stroke="rgb(102,102,102)" stroke-width="1" font-size="16" >C</text>
<text x="234.323865" y="49.855522" fill="rgb(255,12,12)"  stroke="rgb(255,12,12)" stroke-width="1" font-size="16" >O</text>
<text x="265.258407" y="48.000000" fill="rgb(102,102,102)"  stroke="rgb(102,102,102)" stroke-width="1" font-size="16" >CH</text>
<text x="289.258407" y="51.680000" fill="rgb(102,102,102)"  stroke="rgb(102,102,102)" stroke-width="1" font-size="13" >3</text>
<text x="140.296755" y="169.713528" fill="rgb(17,127,178)"  stroke="rgb(17,127,178)" stroke-width="1" font-size="16" >Xx</text>
<text x="92.442181" y="133.817880" fill="rgb(102,102,102)"  stroke="rgb(102,102,102)" stroke-width="1" font-size="16" >H</text>
<text x="104.442181" y="137.497880" fill="rgb(102,102,102)"  stroke="rgb(102,102,102)" stroke-width="1" font-size="13" >2</text>
<text x="110.942181" y="133.817880" fill="rgb(102,102,102)"  stroke="rgb(102,102,102)" stroke-width="1" font-size="16" >C</text>
<text x="14.000000" y="96.365334" fill="rgb(102,102,102)"  stroke="rgb(102,102,102)" stroke-width="1" font-size="16" >H</text>
<text x="26.000000" y="100.045334" fill="rgb(102,102,102)"  stroke="rgb(102,102,102)" stroke-width="1" font-size="13" >2</text>
<text x="32.500000" y="96.365334" fill="rgb(102,102,102)"  stroke="rgb(102,102,102)" stroke-width="1" font-size="16" >C</text>
<text x="134.125699" y="60.353716" fill="rgb(17,127,178)"  stroke="rgb(17,127,178)" stroke-width="1" font-size="16" >Xx</text>
</svg>
</g>
<text font-size="18.000000" fill ="black" font-family="sans-serif"
x="10.000000" y="20.000000" ></text>
</svg>
