<?xml version="1.0"?>
<svg version="1.1" id="topsvg"
xmlns="http://www.w3.org/2000/svg" xmlns:xlink="http://www.w3.org/1999/xlink"
xmlns:cml="http://www.xml-cml.org/schema" x="0" y="0" width="200px" height="200px" viewBox="0 0 100 100">
<title> - Open Babel Depiction</title>
<rect x="0" y="0" width="100" height="100" fill="white"/>
<g transform="translate(0,0)">
<svg width="100" height="100" x="0" y="0" viewBox="0 0 270.423 333.752"
font-family="sans-serif" stroke="rgb(0,0,0)" stroke-width="2"  stroke-linecap="round">
<line x1="151.6" y1="262.9" x2="177.1" y2="256.3" stroke="rgb(0,0,0)"  stroke-width="2.0"/>
<line x1="177.1" y1="256.3" x2="170.1" y2="281.2" stroke="rgb(0,0,0)"  stroke-width="2.0"/>
<line x1="196.9" y1="197.8" x2="196.9" y2="160.7" stroke="rgb(0,0,0)"  stroke-width="2.0"/>
<line x1="196.8" y1="83.9" x2="202.6" y2="73.0" stroke="rgb(0,0,0)"  stroke-width="2.0"/>
<line x1="201.8" y1="50.5" x2="202.1" y2="51.0" stroke="rgb(0,0,0)"  stroke-width="2.0"/>
<line x1="52.3" y1="162.8" x2="67.8" y2="157.3" stroke="rgb(0,0,0)"  stroke-width="2.0"/>
<line x1="93.0" y1="152.1" x2="113.8" y2="150.7" stroke="rgb(0,0,0)"  stroke-width="2.0"/>
<line x1="92.9" y1="150.9" x2="158.4" y2="140.4" stroke="rgb(0,0,0)"  stroke-width="2.0"/>
<line x1="158.4" y1="140.4" x2="163.8" y2="102.3" stroke="rgb(0,0,0)"  stroke-width="2.0"/>
<line x1="163.8" y1="102.3" x2="196.8" y2="83.9" stroke="rgb(0,0,0)"  stroke-width="2.0"/>
<line x1="172.5" y1="105.7" x2="195.0" y2="93.1" stroke="rgb(0,0,0)"  stroke-width="2.0"/>
<line x1="196.8" y1="83.9" x2="230.4" y2="102.3" stroke="rgb(0,0,0)"  stroke-width="2.0"/>
<line x1="230.4" y1="102.3" x2="230.4" y2="141.7" stroke="rgb(0,0,0)"  stroke-width="2.0"/>
<line x1="223.2" y1="108.3" x2="223.2" y2="135.7" stroke="rgb(0,0,0)"  stroke-width="2.0"/>
<line x1="230.4" y1="141.7" x2="196.9" y2="160.7" stroke="rgb(0,0,0)"  stroke-width="2.0"/>
<line x1="196.9" y1="160.7" x2="158.4" y2="140.4" stroke="rgb(0,0,0)"  stroke-width="2.0"/>
<line x1="195.0" y1="151.5" x2="167.0" y2="136.8" stroke="rgb(0,0,0)"  stroke-width="2.0"/>
<line x1="175.5" y1="212.9" x2="196.9" y2="197.8" stroke="rgb(0,0,0)"  stroke-width="2.0"/>
<line x1="181.4" y1="217.6" x2="196.1" y2="207.1" stroke="rgb(0,0,0)"  stroke-width="2.0"/>
<line x1="196.9" y1="197.8" x2="215.8" y2="213.7" stroke="rgb(0,0,0)"  stroke-width="2.0"/>
<line x1="222.0" y1="234.4" x2="215.1" y2="256.9" stroke="rgb(0,0,0)"  stroke-width="2.0"/>
<line x1="215.1" y1="256.9" x2="177.1" y2="256.3" stroke="rgb(0,0,0)"  stroke-width="2.0"/>
<line x1="177.1" y1="256.3" x2="169.2" y2="232.6" stroke="rgb(0,0,0)"  stroke-width="2.0"/>
<text x="113.027595" y="274.187857" fill="rgb(102,102,102)"  stroke="rgb(102,102,102)" stroke-width="1" font-size="16" >H</text>
<text x="125.027595" y="277.867857" fill="rgb(102,102,102)"  stroke="rgb(102,102,102)" stroke-width="1" font-size="13" >3</text>
<text x="131.527595" y="274.187857" fill="rgb(102,102,102)"  stroke="rgb(102,102,102)" stroke-width="1" font-size="16" >C</text>
<text x="159.011239" y="228.320041" fill="rgb(12,12,255)"  stroke="rgb(12,12,255)" stroke-width="1" font-size="16" >N</text>
<text x="219.782670" y="230.009827" fill="rgb(255,12,12)"  stroke="rgb(255,12,12)" stroke-width="1" font-size="16" >O</text>
<text x="140.528495" y="301.752187" fill="rgb(102,102,102)"  stroke="rgb(102,102,102)" stroke-width="1" font-size="16" >H</text>
<text x="152.528495" y="305.432187" fill="rgb(102,102,102)"  stroke="rgb(102,102,102)" stroke-width="1" font-size="13" >3</text>
<text x="159.028495" y="301.752187" fill="rgb(102,102,102)"  stroke="rgb(102,102,102)" stroke-width="1" font-size="16" >C</text>
<text x="202.684362" y="69.528290" fill="rgb(255,12,12)"  stroke="rgb(255,12,12)" stroke-width="1" font-size="16" >O</text>
<text x="169.259944" y="48.000000" fill="rgb(102,102,102)"  stroke="rgb(102,102,102)" stroke-width="1" font-size="16" >H</text>
<text x="181.259944" y="51.680000" fill="rgb(102,102,102)"  stroke="rgb(102,102,102)" stroke-width="1" font-size="13" >3</text>
<text x="187.759944" y="48.000000" fill="rgb(102,102,102)"  stroke="rgb(102,102,102)" stroke-width="1" font-size="16" >C</text>
<text x="14.000000" y="175.145038" fill="rgb(102,102,102)"  stroke="rgb(102,102,102)" stroke-width="1" font-size="16" >H</text>
<text x="26.000000" y="178.825038" fill="rgb(102,102,102)"  stroke="rgb(102,102,102)" stroke-width="1" font-size="13" >3</text>
<text x="32.500000" y="175.145038" fill="rgb(102,102,102)"  stroke="rgb(102,102,102)" stroke-width="1" font-size="16" >C</text>
<text x="62.049977" y="160.931546" fill="rgb(17,127,178)"  stroke="rgb(17,127,178)" stroke-width="1" font-size="16" >Xx</text>
<text x="122.737314" y="157.782860" fill="rgb(102,102,102)"  stroke="rgb(102,102,102)" stroke-width="1" font-size="16" >CH</text>
<text x="146.737314" y="161.462860" fill="rgb(102,102,102)"  stroke="rgb(102,102,102)" stroke-width="1" font-size="13" >3</text>
</svg>
</g>
<text font-size="18.000000" fill ="black" font-family="sans-serif"
x="10.000000" y="20.000000" ></text>
</svg>
