<?xml version="1.0"?>
<svg version="1.1" id="topsvg"
xmlns="http://www.w3.org/2000/svg" xmlns:xlink="http://www.w3.org/1999/xlink"
xmlns:cml="http://www.xml-cml.org/schema" x="0" y="0" width="200px" height="200px" viewBox="0 0 100 100">
<title> - Open Babel Depiction</title>
<rect x="0" y="0" width="100" height="100" fill="white"/>
<g transform="translate(0,0)">
<svg width="100" height="100" x="0" y="0" viewBox="0 0 319.007 350.635"
font-family="sans-serif" stroke="rgb(0,0,0)" stroke-width="2"  stroke-linecap="round">
<line x1="241.3" y1="275.5" x2="266.7" y2="283.9" stroke="rgb(0,0,0)"  stroke-width="2.0"/>
<line x1="255.7" y1="299.5" x2="241.3" y2="275.5" stroke="rgb(0,0,0)"  stroke-width="2.0"/>
<line x1="147.4" y1="166.7" x2="183.6" y2="150.3" stroke="rgb(0,0,0)"  stroke-width="2.0"/>
<line x1="174.8" y1="104.5" x2="175.6" y2="103.1" stroke="rgb(0,0,0)"  stroke-width="1.0"/>
<line x1="169.2" y1="102.0" x2="170.7" y2="99.5" stroke="rgb(0,0,0)"  stroke-width="1.0"/>
<line x1="163.6" y1="99.4" x2="165.7" y2="95.8" stroke="rgb(0,0,0)"  stroke-width="1.0"/>
<line x1="158.0" y1="96.9" x2="160.8" y2="92.2" stroke="rgb(0,0,0)"  stroke-width="1.0"/>
<line x1="152.4" y1="94.3" x2="155.8" y2="88.5" stroke="rgb(0,0,0)"  stroke-width="1.0"/>
<line x1="146.8" y1="91.8" x2="150.8" y2="84.9" stroke="rgb(0,0,0)"  stroke-width="1.0"/>
<line x1="225.0" y1="52.5" x2="224.0" y2="51.0" stroke="rgb(0,0,0)"  stroke-width="2.0"/>
<line x1="225.9" y1="75.0" x2="219.0" y2="88.1" stroke="rgb(0,0,0)"  stroke-width="2.0"/>
<line x1="219.5" y1="179.1" x2="217.9" y2="179.1" stroke="rgb(0,0,0)"  stroke-width="1.0"/>
<line x1="220.1" y1="186.4" x2="217.3" y2="186.4" stroke="rgb(0,0,0)"  stroke-width="1.0"/>
<line x1="220.7" y1="193.8" x2="216.6" y2="193.8" stroke="rgb(0,0,0)"  stroke-width="1.0"/>
<line x1="221.3" y1="201.1" x2="215.9" y2="201.1" stroke="rgb(0,0,0)"  stroke-width="1.0"/>
<line x1="221.9" y1="208.5" x2="215.2" y2="208.5" stroke="rgb(0,0,0)"  stroke-width="1.0"/>
<line x1="222.5" y1="215.8" x2="214.5" y2="215.8" stroke="rgb(0,0,0)"  stroke-width="1.0"/>
<line x1="49.7" y1="99.9" x2="74.8" y2="85.2" stroke="rgb(0,0,0)"  stroke-width="2.0"/>
<line x1="52.7" y1="105.0" x2="77.8" y2="90.4" stroke="rgb(0,0,0)"  stroke-width="2.0"/>
<line x1="76.3" y1="87.8" x2="111.6" y2="108.6" stroke="rgb(0,0,0)"  stroke-width="2.0"/>
<line x1="111.6" y1="108.6" x2="148.8" y2="88.3" stroke="rgb(0,0,0)"  stroke-width="2.0"/>
<line x1="124.4" y1="153.2" x2="148.7" y2="164.0" stroke="rgb(0,0,0)"  stroke-width="2.0"/>
<line x1="121.9" y1="158.6" x2="146.2" y2="169.4" stroke="rgb(0,0,0)"  stroke-width="2.0"/>
<line x1="196.5" y1="276.4" x2="188.1" y2="250.2" stroke="rgb(0,0,0)"  stroke-width="2.0"/>
<line x1="195.2" y1="230.8" x2="218.5" y2="215.8" stroke="rgb(0,0,0)"  stroke-width="2.0"/>
<line x1="218.5" y1="215.8" x2="240.5" y2="230.5" stroke="rgb(0,0,0)"  stroke-width="2.0"/>
<line x1="219.5" y1="225.1" x2="234.8" y2="235.4" stroke="rgb(0,0,0)"  stroke-width="2.0"/>
<line x1="248.0" y1="250.3" x2="241.3" y2="275.5" stroke="rgb(0,0,0)"  stroke-width="2.0"/>
<line x1="241.3" y1="275.5" x2="196.5" y2="276.4" stroke="rgb(0,0,0)"  stroke-width="2.0"/>
<line x1="183.6" y1="150.3" x2="181.8" y2="107.7" stroke="rgb(0,0,0)"  stroke-width="2.0"/>
<line x1="181.8" y1="107.7" x2="219.0" y2="88.1" stroke="rgb(0,0,0)"  stroke-width="2.0"/>
<line x1="219.0" y1="88.1" x2="255.3" y2="108.8" stroke="rgb(0,0,0)"  stroke-width="2.0"/>
<line x1="220.6" y1="97.3" x2="246.5" y2="112.1" stroke="rgb(0,0,0)"  stroke-width="2.0"/>
<line x1="255.3" y1="108.8" x2="255.3" y2="151.4" stroke="rgb(0,0,0)"  stroke-width="2.0"/>
<line x1="255.3" y1="151.4" x2="218.8" y2="169.9" stroke="rgb(0,0,0)"  stroke-width="2.0"/>
<line x1="218.8" y1="169.9" x2="183.6" y2="150.3" stroke="rgb(0,0,0)"  stroke-width="2.0"/>
<text x="178.214521" y="245.764429" fill="rgb(255,12,12)"  stroke="rgb(255,12,12)" stroke-width="1" font-size="16" >O</text>
<text x="275.006696" y="295.940019" fill="rgb(102,102,102)"  stroke="rgb(102,102,102)" stroke-width="1" font-size="16" >CH</text>
<text x="299.006696" y="299.620019" fill="rgb(102,102,102)"  stroke="rgb(102,102,102)" stroke-width="1" font-size="13" >3</text>
<text x="258.426960" y="318.634663" fill="rgb(102,102,102)"  stroke="rgb(102,102,102)" stroke-width="1" font-size="16" >CH</text>
<text x="282.426960" y="322.314663" fill="rgb(102,102,102)"  stroke="rgb(102,102,102)" stroke-width="1" font-size="13" >3</text>
<text x="225.905236" y="71.484022" fill="rgb(255,12,12)"  stroke="rgb(255,12,12)" stroke-width="1" font-size="16" >O</text>
<text x="191.034894" y="48.000000" fill="rgb(102,102,102)"  stroke="rgb(102,102,102)" stroke-width="1" font-size="16" >H</text>
<text x="203.034894" y="51.680000" fill="rgb(102,102,102)"  stroke="rgb(102,102,102)" stroke-width="1" font-size="13" >3</text>
<text x="209.534894" y="48.000000" fill="rgb(102,102,102)"  stroke="rgb(102,102,102)" stroke-width="1" font-size="16" >C</text>
<text x="14.000000" y="117.001166" fill="rgb(102,102,102)"  stroke="rgb(102,102,102)" stroke-width="1" font-size="16" >H</text>
<text x="26.000000" y="120.681166" fill="rgb(102,102,102)"  stroke="rgb(102,102,102)" stroke-width="1" font-size="13" >2</text>
<text x="32.500000" y="117.001166" fill="rgb(102,102,102)"  stroke="rgb(102,102,102)" stroke-width="1" font-size="16" >C</text>
<text x="245.383994" y="245.764429" fill="rgb(12,12,255)"  stroke="rgb(12,12,255)" stroke-width="1" font-size="16" >N</text>
<text x="85.274799" y="158.613107" fill="rgb(102,102,102)"  stroke="rgb(102,102,102)" stroke-width="1" font-size="16" >H</text>
<text x="97.274799" y="162.293107" fill="rgb(102,102,102)"  stroke="rgb(102,102,102)" stroke-width="1" font-size="13" >2</text>
<text x="103.774799" y="158.613107" fill="rgb(102,102,102)"  stroke="rgb(102,102,102)" stroke-width="1" font-size="16" >C</text>
</svg>
</g>
<text font-size="18.000000" fill ="black" font-family="sans-serif"
x="10.000000" y="20.000000" ></text>
</svg>
