<?xml version="1.0"?>
<svg version="1.1" id="topsvg"
xmlns="http://www.w3.org/2000/svg" xmlns:xlink="http://www.w3.org/1999/xlink"
xmlns:cml="http://www.xml-cml.org/schema" x="0" y="0" width="200px" height="200px" viewBox="0 0 100 100">
<title> - Open Babel Depiction</title>
<rect x="0" y="0" width="100" height="100" fill="white"/>
<g transform="translate(0,0)">
<svg width="100" height="100" x="0" y="0" viewBox="0 0 319.965 328.272"
font-family="sans-serif" stroke="rgb(0,0,0)" stroke-width="2"  stroke-linecap="round">
<line x1="267.1" y1="249.5" x2="240.0" y2="253.4" stroke="rgb(0,0,0)"  stroke-width="2.0"/>
<line x1="255.5" y1="277.3" x2="240.0" y2="253.4" stroke="rgb(0,0,0)"  stroke-width="2.0"/>
<line x1="218.9" y1="148.3" x2="218.7" y2="190.1" stroke="rgb(0,0,0)"  stroke-width="2.0"/>
<polygon points="183.302525 128.592876 150.100785 147.843400 146.831223 140.542033 " stroke-width="2.000000" fill="rgb(0,0,0)"  stroke="rgb(0,0,0)" />
<line x1="176.1" y1="82.6" x2="176.9" y2="81.3" stroke="rgb(0,0,0)"  stroke-width="1.0"/>
<line x1="170.1" y1="79.9" x2="171.6" y2="77.4" stroke="rgb(0,0,0)"  stroke-width="1.0"/>
<line x1="164.2" y1="77.1" x2="166.3" y2="73.5" stroke="rgb(0,0,0)"  stroke-width="1.0"/>
<line x1="158.3" y1="74.3" x2="161.1" y2="69.6" stroke="rgb(0,0,0)"  stroke-width="1.0"/>
<line x1="152.4" y1="71.5" x2="155.8" y2="65.7" stroke="rgb(0,0,0)"  stroke-width="1.0"/>
<line x1="146.4" y1="68.7" x2="150.5" y2="61.9" stroke="rgb(0,0,0)"  stroke-width="1.0"/>
<line x1="244.6" y1="40.6" x2="246.1" y2="40.6" stroke="rgb(0,0,0)"  stroke-width="2.0"/>
<line x1="225.6" y1="52.7" x2="218.8" y2="65.6" stroke="rgb(0,0,0)"  stroke-width="2.0"/>
<line x1="112.7" y1="86.7" x2="148.5" y2="65.3" stroke="rgb(0,0,0)"  stroke-width="2.0"/>
<line x1="77.1" y1="65.9" x2="112.7" y2="86.7" stroke="rgb(0,0,0)"  stroke-width="2.0"/>
<line x1="49.7" y1="78.5" x2="75.6" y2="63.3" stroke="rgb(0,0,0)"  stroke-width="2.0"/>
<line x1="52.7" y1="83.7" x2="78.6" y2="68.5" stroke="rgb(0,0,0)"  stroke-width="2.0"/>
<line x1="125.2" y1="130.1" x2="149.7" y2="141.5" stroke="rgb(0,0,0)"  stroke-width="2.0"/>
<line x1="122.7" y1="135.5" x2="147.2" y2="146.9" stroke="rgb(0,0,0)"  stroke-width="2.0"/>
<line x1="196.7" y1="253.8" x2="188.4" y2="226.7" stroke="rgb(0,0,0)"  stroke-width="2.0"/>
<line x1="195.3" y1="206.7" x2="218.7" y2="190.1" stroke="rgb(0,0,0)"  stroke-width="2.0"/>
<line x1="218.7" y1="190.1" x2="240.6" y2="206.7" stroke="rgb(0,0,0)"  stroke-width="2.0"/>
<line x1="219.1" y1="199.5" x2="234.8" y2="211.3" stroke="rgb(0,0,0)"  stroke-width="2.0"/>
<line x1="247.8" y1="227.4" x2="240.0" y2="253.4" stroke="rgb(0,0,0)"  stroke-width="2.0"/>
<line x1="240.0" y1="253.4" x2="196.7" y2="253.8" stroke="rgb(0,0,0)"  stroke-width="2.0"/>
<line x1="183.3" y1="128.6" x2="218.9" y2="148.3" stroke="rgb(0,0,0)"  stroke-width="2.0"/>
<line x1="218.9" y1="148.3" x2="254.6" y2="127.5" stroke="rgb(0,0,0)"  stroke-width="2.0"/>
<line x1="254.6" y1="127.5" x2="255.2" y2="85.6" stroke="rgb(0,0,0)"  stroke-width="2.0"/>
<line x1="255.2" y1="85.6" x2="218.8" y2="65.6" stroke="rgb(0,0,0)"  stroke-width="2.0"/>
<line x1="246.4" y1="89.0" x2="220.6" y2="74.8" stroke="rgb(0,0,0)"  stroke-width="2.0"/>
<line x1="218.8" y1="65.6" x2="183.5" y2="86.1" stroke="rgb(0,0,0)"  stroke-width="2.0"/>
<line x1="183.5" y1="86.1" x2="183.3" y2="128.6" stroke="rgb(0,0,0)"  stroke-width="2.0"/>
<text x="178.652564" y="222.226687" fill="rgb(255,12,12)"  stroke="rgb(255,12,12)" stroke-width="1" font-size="16" >O</text>
<text x="245.471237" y="222.915482" fill="rgb(12,12,255)"  stroke="rgb(12,12,255)" stroke-width="1" font-size="16" >N</text>
<text x="275.965329" y="255.561634" fill="rgb(102,102,102)"  stroke="rgb(102,102,102)" stroke-width="1" font-size="16" >CH</text>
<text x="299.965329" y="259.241634" fill="rgb(102,102,102)"  stroke="rgb(102,102,102)" stroke-width="1" font-size="13" >3</text>
<text x="258.514006" y="296.272202" fill="rgb(102,102,102)"  stroke="rgb(102,102,102)" stroke-width="1" font-size="16" >CH</text>
<text x="282.514006" y="299.952202" fill="rgb(102,102,102)"  stroke="rgb(102,102,102)" stroke-width="1" font-size="13" >3</text>
<text x="225.576068" y="49.190239" fill="rgb(255,12,12)"  stroke="rgb(255,12,12)" stroke-width="1" font-size="16" >O</text>
<text x="255.103091" y="48.000000" fill="rgb(102,102,102)"  stroke="rgb(102,102,102)" stroke-width="1" font-size="16" >CH</text>
<text x="279.103091" y="51.680000" fill="rgb(102,102,102)"  stroke="rgb(102,102,102)" stroke-width="1" font-size="13" >3</text>
<text x="14.000000" y="95.645362" fill="rgb(102,102,102)"  stroke="rgb(102,102,102)" stroke-width="1" font-size="16" >H</text>
<text x="26.000000" y="99.325362" fill="rgb(102,102,102)"  stroke="rgb(102,102,102)" stroke-width="1" font-size="13" >2</text>
<text x="32.500000" y="95.645362" fill="rgb(102,102,102)"  stroke="rgb(102,102,102)" stroke-width="1" font-size="16" >C</text>
<text x="86.127909" y="135.339268" fill="rgb(102,102,102)"  stroke="rgb(102,102,102)" stroke-width="1" font-size="16" >H</text>
<text x="98.127909" y="139.019268" fill="rgb(102,102,102)"  stroke="rgb(102,102,102)" stroke-width="1" font-size="13" >2</text>
<text x="104.627909" y="135.339268" fill="rgb(102,102,102)"  stroke="rgb(102,102,102)" stroke-width="1" font-size="16" >C</text>
</svg>
</g>
<text font-size="18.000000" fill ="black" font-family="sans-serif"
x="10.000000" y="20.000000" ></text>
</svg>
