<?xml version="1.0"?>
<svg version="1.1" id="topsvg"
xmlns="http://www.w3.org/2000/svg" xmlns:xlink="http://www.w3.org/1999/xlink"
xmlns:cml="http://www.xml-cml.org/schema" x="0" y="0" width="200px" height="200px" viewBox="0 0 100 100">
<title> - Open Babel Depiction</title>
<rect x="0" y="0" width="100" height="100" fill="white"/>
<g transform="translate(0,0)">
<svg width="100" height="100" x="0" y="0" viewBox="0 0 392.708 290.202"
font-family="sans-serif" stroke="rgb(0,0,0)" stroke-width="2"  stroke-linecap="round">
<polygon points="119.948 154.16 124.555 192.431 116.556 192.558 " stroke-width="2" fill="rgb(0,0,0)"  stroke="rgb(0,0,0)" />
<line x1="120.6" y1="192.5" x2="140.3" y2="205.1" stroke="rgb(0,0,0)"  stroke-width="2.0"/>
<line x1="87.4" y1="97.4" x2="75.9" y2="93.2" stroke="rgb(0,0,0)"  stroke-width="2.0"/>
<line x1="68.2" y1="76.5" x2="67.9" y2="77.3" stroke="rgb(0,0,0)"  stroke-width="2.0"/>
<line x1="51.5" y1="84.3" x2="52.2" y2="84.5" stroke="rgb(0,0,0)"  stroke-width="2.0"/>
<line x1="59.2" y1="100.9" x2="59.5" y2="100.2" stroke="rgb(0,0,0)"  stroke-width="2.0"/>
<line x1="141.1" y1="50.4" x2="120.3" y2="78.2" stroke="rgb(0,0,0)"  stroke-width="2.0"/>
<line x1="160.4" y1="138.4" x2="159.7" y2="139.8" stroke="rgb(0,0,0)"  stroke-width="1.0"/>
<line x1="166.1" y1="140.9" x2="164.6" y2="143.4" stroke="rgb(0,0,0)"  stroke-width="1.0"/>
<line x1="171.7" y1="143.3" x2="169.6" y2="146.9" stroke="rgb(0,0,0)"  stroke-width="1.0"/>
<line x1="177.3" y1="145.7" x2="174.6" y2="150.5" stroke="rgb(0,0,0)"  stroke-width="1.0"/>
<line x1="182.9" y1="148.1" x2="179.6" y2="154.0" stroke="rgb(0,0,0)"  stroke-width="1.0"/>
<line x1="188.5" y1="150.5" x2="184.6" y2="157.5" stroke="rgb(0,0,0)"  stroke-width="1.0"/>
<line x1="242.5" y1="156.5" x2="222.4" y2="122.5" stroke="rgb(0,0,0)"  stroke-width="2.0"/>
<line x1="254.0" y1="110.8" x2="253.3" y2="110.5" stroke="rgb(0,0,0)"  stroke-width="2.0"/>
<line x1="231.8" y1="114.7" x2="222.4" y2="122.5" stroke="rgb(0,0,0)"  stroke-width="2.0"/>
<line x1="327.0" y1="172.0" x2="345.1" y2="146.7" stroke="rgb(0,0,0)"  stroke-width="2.0"/>
<line x1="252.4" y1="231.4" x2="253.2" y2="192.1" stroke="rgb(0,0,0)"  stroke-width="2.0"/>
<line x1="217.5" y1="247.6" x2="250.9" y2="228.8" stroke="rgb(0,0,0)"  stroke-width="2.0"/>
<line x1="220.4" y1="252.8" x2="253.8" y2="234.0" stroke="rgb(0,0,0)"  stroke-width="2.0"/>
<line x1="186.1" y1="231.3" x2="140.3" y2="205.1" stroke="rgb(0,0,0)"  stroke-width="2.0"/>
<line x1="184.0" y1="235.0" x2="138.2" y2="208.7" stroke="rgb(0,0,0)"  stroke-width="2.0"/>
<line x1="188.2" y1="227.7" x2="142.4" y2="201.4" stroke="rgb(0,0,0)"  stroke-width="2.0"/>
<line x1="186.1" y1="231.3" x2="218.9" y2="250.2" stroke="rgb(0,0,0)"  stroke-width="2.0"/>
<line x1="183.5" y1="180.6" x2="183.5" y2="154.0" stroke="rgb(0,0,0)"  stroke-width="2.0"/>
<line x1="189.5" y1="180.6" x2="189.5" y2="154.0" stroke="rgb(0,0,0)"  stroke-width="2.0"/>
<line x1="253.2" y1="192.1" x2="242.5" y2="156.5" stroke="rgb(0,0,0)"  stroke-width="2.0"/>
<line x1="242.5" y1="156.5" x2="307.2" y2="178.4" stroke="rgb(0,0,0)"  stroke-width="2.0"/>
<line x1="306.6" y1="184.4" x2="253.2" y2="192.1" stroke="rgb(0,0,0)"  stroke-width="2.0"/>
<line x1="296.8" y1="147.7" x2="242.5" y2="156.5" stroke="rgb(0,0,0)"  stroke-width="2.0"/>
<line x1="316.1" y1="170.0" x2="313.0" y2="158.2" stroke="rgb(0,0,0)"  stroke-width="2.0"/>
<line x1="253.2" y1="192.1" x2="265.1" y2="169.7" stroke="rgb(0,0,0)"  stroke-width="2.0"/>
<line x1="265.1" y1="169.7" x2="298.2" y2="151.8" stroke="rgb(0,0,0)"  stroke-width="2.0"/>
<line x1="87.3" y1="135.9" x2="87.4" y2="97.4" stroke="rgb(0,0,0)"  stroke-width="2.0"/>
<line x1="94.5" y1="129.9" x2="94.5" y2="103.5" stroke="rgb(0,0,0)"  stroke-width="2.0"/>
<line x1="87.4" y1="97.4" x2="120.3" y2="78.2" stroke="rgb(0,0,0)"  stroke-width="2.0"/>
<line x1="120.3" y1="78.2" x2="153.6" y2="96.7" stroke="rgb(0,0,0)"  stroke-width="2.0"/>
<line x1="122.0" y1="87.4" x2="144.9" y2="100.1" stroke="rgb(0,0,0)"  stroke-width="2.0"/>
<line x1="153.6" y1="96.7" x2="153.4" y2="135.4" stroke="rgb(0,0,0)"  stroke-width="2.0"/>
<line x1="153.4" y1="135.4" x2="119.9" y2="154.2" stroke="rgb(0,0,0)"  stroke-width="2.0"/>
<line x1="119.9" y1="154.2" x2="87.3" y2="135.9" stroke="rgb(0,0,0)"  stroke-width="2.0"/>
<text x="57.678601" y="96.742048" fill="rgb(127,153,153)"  stroke="rgb(127,153,153)" stroke-width="1" font-size="16" >Si</text>
<text x="68.376142" y="73.063447" fill="rgb(102,102,102)"  stroke="rgb(102,102,102)" stroke-width="1" font-size="16" >CH</text>
<text x="92.376142" y="76.743447" fill="rgb(102,102,102)"  stroke="rgb(102,102,102)" stroke-width="1" font-size="13" >3</text>
<text x="14.000000" y="88.044507" fill="rgb(102,102,102)"  stroke="rgb(102,102,102)" stroke-width="1" font-size="16" >H</text>
<text x="26.000000" y="91.724507" fill="rgb(102,102,102)"  stroke="rgb(102,102,102)" stroke-width="1" font-size="13" >3</text>
<text x="32.500000" y="88.044507" fill="rgb(102,102,102)"  stroke="rgb(102,102,102)" stroke-width="1" font-size="16" >C</text>
<text x="28.981060" y="120.420649" fill="rgb(102,102,102)"  stroke="rgb(102,102,102)" stroke-width="1" font-size="16" >H</text>
<text x="40.981060" y="124.100649" fill="rgb(102,102,102)"  stroke="rgb(102,102,102)" stroke-width="1" font-size="13" >3</text>
<text x="47.481060" y="120.420649" fill="rgb(102,102,102)"  stroke="rgb(102,102,102)" stroke-width="1" font-size="16" >C</text>
<text x="142.885744" y="48.000000" fill="rgb(17,127,178)"  stroke="rgb(17,127,178)" stroke-width="1" font-size="16" >Xx</text>
<text x="235.776388" y="114.333884" fill="rgb(255,12,12)"  stroke="rgb(255,12,12)" stroke-width="1" font-size="16" >O</text>
<text x="261.477692" y="122.963317" fill="rgb(102,102,102)"  stroke="rgb(102,102,102)" stroke-width="1" font-size="16" >CH</text>
<text x="285.477692" y="126.643317" fill="rgb(102,102,102)"  stroke="rgb(102,102,102)" stroke-width="1" font-size="13" >3</text>
<text x="303.598540" y="153.656959" fill="rgb(17,127,178)"  stroke="rgb(17,127,178)" stroke-width="1" font-size="16" >Xx</text>
<text x="313.463993" y="190.573580" fill="rgb(17,127,178)"  stroke="rgb(17,127,178)" stroke-width="1" font-size="16" >Xx</text>
<text x="348.707871" y="144.109339" fill="rgb(102,102,102)"  stroke="rgb(102,102,102)" stroke-width="1" font-size="16" >CH</text>
<text x="372.707871" y="147.789339" fill="rgb(102,102,102)"  stroke="rgb(102,102,102)" stroke-width="1" font-size="13" >3</text>
<text x="182.485960" y="201.632170" fill="rgb(102,102,102)"  stroke="rgb(102,102,102)" stroke-width="1" font-size="16" >CH</text>
<text x="206.485960" y="205.312170" fill="rgb(102,102,102)"  stroke="rgb(102,102,102)" stroke-width="1" font-size="13" >2</text>
</svg>
</g>
<text font-size="18.000000" fill ="black" font-family="sans-serif"
x="10.000000" y="20.000000" ></text>
</svg>
