<?xml version="1.0"?>
<svg version="1.1" id="topsvg"
xmlns="http://www.w3.org/2000/svg" xmlns:xlink="http://www.w3.org/1999/xlink"
xmlns:cml="http://www.xml-cml.org/schema" x="0" y="0" width="200px" height="200px" viewBox="0 0 100 100">
<title> - Open Babel Depiction</title>
<rect x="0" y="0" width="100" height="100" fill="white"/>
<g transform="translate(0,0)">
<svg width="100" height="100" x="0" y="0" viewBox="0 0 278.676 173.06"
font-family="sans-serif" stroke="rgb(0,0,0)" stroke-width="2"  stroke-linecap="round">
<line x1="110.1" y1="59.0" x2="111.0" y2="57.7" stroke="rgb(0,0,0)"  stroke-width="1.0"/>
<line x1="104.4" y1="55.9" x2="106.0" y2="53.5" stroke="rgb(0,0,0)"  stroke-width="1.0"/>
<line x1="98.7" y1="52.7" x2="101.0" y2="49.3" stroke="rgb(0,0,0)"  stroke-width="1.0"/>
<line x1="93.0" y1="49.6" x2="96.1" y2="45.1" stroke="rgb(0,0,0)"  stroke-width="1.0"/>
<line x1="87.3" y1="46.4" x2="91.1" y2="40.9" stroke="rgb(0,0,0)"  stroke-width="1.0"/>
<line x1="81.6" y1="43.3" x2="86.1" y2="36.7" stroke="rgb(0,0,0)"  stroke-width="1.0"/>
<polygon points="198.530357 108.990204 227.484849 121.686663 223.371035 128.547897 " stroke-width="2.000000" fill="rgb(0,0,0)"  stroke="rgb(0,0,0)" />
<line x1="51.5" y1="57.4" x2="83.8" y2="40.0" stroke="rgb(0,0,0)"  stroke-width="2.0"/>
<line x1="95.3" y1="128.3" x2="119.9" y2="109.6" stroke="rgb(0,0,0)"  stroke-width="2.0"/>
<line x1="119.9" y1="109.6" x2="98.6" y2="116.0" stroke="rgb(0,0,0)"  stroke-width="2.0"/>
<line x1="98.6" y1="116.0" x2="95.3" y2="128.3" stroke="rgb(0,0,0)"  stroke-width="2.0"/>
<line x1="117.2" y1="62.9" x2="119.9" y2="109.6" stroke="rgb(0,0,0)"  stroke-width="2.0"/>
<line x1="119.9" y1="109.6" x2="159.3" y2="132.0" stroke="rgb(0,0,0)"  stroke-width="2.0"/>
<line x1="159.3" y1="132.0" x2="198.5" y2="109.0" stroke="rgb(0,0,0)"  stroke-width="2.0"/>
<line x1="198.5" y1="109.0" x2="199.1" y2="63.4" stroke="rgb(0,0,0)"  stroke-width="2.0"/>
<line x1="199.1" y1="63.4" x2="159.4" y2="40.2" stroke="rgb(0,0,0)"  stroke-width="2.0"/>
<line x1="159.4" y1="40.2" x2="117.2" y2="62.9" stroke="rgb(0,0,0)"  stroke-width="2.0"/>
<text x="234.676006" y="141.060466" fill="rgb(102,102,102)"  stroke="rgb(102,102,102)" stroke-width="1" font-size="16" >CH</text>
<text x="258.676006" y="144.740466" fill="rgb(102,102,102)"  stroke="rgb(102,102,102)" stroke-width="1" font-size="13" >3</text>
<text x="14.000000" y="71.522794" fill="rgb(102,102,102)"  stroke="rgb(102,102,102)" stroke-width="1" font-size="16" >H</text>
<text x="26.000000" y="75.202794" fill="rgb(102,102,102)"  stroke="rgb(102,102,102)" stroke-width="1" font-size="13" >3</text>
<text x="32.500000" y="71.522794" fill="rgb(102,102,102)"  stroke="rgb(102,102,102)" stroke-width="1" font-size="16" >C</text>
</svg>
</g>
<text font-size="18.000000" fill ="black" font-family="sans-serif"
x="10.000000" y="20.000000" ></text>
</svg>
