<?xml version="1.0"?>
<svg version="1.1" id="topsvg"
xmlns="http://www.w3.org/2000/svg" xmlns:xlink="http://www.w3.org/1999/xlink"
xmlns:cml="http://www.xml-cml.org/schema" x="0" y="0" width="200px" height="200px" viewBox="0 0 100 100">
<title> - Open Babel Depiction</title>
<rect x="0" y="0" width="100" height="100" fill="white"/>
<g transform="translate(0,0)">
<svg width="100" height="100" x="0" y="0" viewBox="0 0 288.497 339.888"
font-family="sans-serif" stroke="rgb(0,0,0)" stroke-width="2"  stroke-linecap="round">
<line x1="168.2" y1="274.7" x2="192.8" y2="262.5" stroke="rgb(0,0,0)"  stroke-width="2.0"/>
<line x1="192.8" y1="262.5" x2="185.1" y2="287.5" stroke="rgb(0,0,0)"  stroke-width="2.0"/>
<line x1="152.0" y1="222.3" x2="165.9" y2="222.4" stroke="rgb(0,0,0)"  stroke-width="2.0"/>
<polygon points="179.503915 139.195183 146.271971 158.719711 142.957179 151.438767 " stroke-width="2.000000" fill="rgb(0,0,0)"  stroke="rgb(0,0,0)" />
<line x1="176.1" y1="100.3" x2="176.1" y2="71.9" stroke="rgb(0,0,0)"  stroke-width="2.0"/>
<line x1="182.1" y1="100.3" x2="182.1" y2="71.9" stroke="rgb(0,0,0)"  stroke-width="2.0"/>
<line x1="216.5" y1="52.7" x2="218.7" y2="80.3" stroke="rgb(0,0,0)"  stroke-width="2.0"/>
<line x1="210.6" y1="53.2" x2="212.7" y2="80.7" stroke="rgb(0,0,0)"  stroke-width="2.0"/>
<line x1="220.1" y1="153.3" x2="220.9" y2="154.8" stroke="rgb(0,0,0)"  stroke-width="1.0"/>
<line x1="225.4" y1="149.9" x2="226.7" y2="152.5" stroke="rgb(0,0,0)"  stroke-width="1.0"/>
<line x1="230.8" y1="146.5" x2="232.6" y2="150.2" stroke="rgb(0,0,0)"  stroke-width="1.0"/>
<line x1="236.1" y1="143.1" x2="238.5" y2="148.0" stroke="rgb(0,0,0)"  stroke-width="1.0"/>
<line x1="241.4" y1="139.7" x2="244.4" y2="145.7" stroke="rgb(0,0,0)"  stroke-width="1.0"/>
<line x1="246.7" y1="136.3" x2="250.3" y2="143.5" stroke="rgb(0,0,0)"  stroke-width="1.0"/>
<line x1="213.5" y1="157.6" x2="214.6" y2="197.8" stroke="rgb(0,0,0)"  stroke-width="2.0"/>
<line x1="49.7" y1="90.2" x2="73.4" y2="76.2" stroke="rgb(0,0,0)"  stroke-width="2.0"/>
<line x1="52.7" y1="95.3" x2="76.5" y2="81.3" stroke="rgb(0,0,0)"  stroke-width="2.0"/>
<line x1="74.9" y1="78.8" x2="109.7" y2="99.6" stroke="rgb(0,0,0)"  stroke-width="2.0"/>
<line x1="144.5" y1="80.5" x2="109.7" y2="99.6" stroke="rgb(0,0,0)"  stroke-width="2.0"/>
<line x1="144.5" y1="80.5" x2="179.1" y2="100.3" stroke="rgb(0,0,0)"  stroke-width="2.0"/>
<line x1="122.5" y1="141.8" x2="145.9" y2="152.3" stroke="rgb(0,0,0)"  stroke-width="2.0"/>
<line x1="120.0" y1="147.2" x2="143.4" y2="157.8" stroke="rgb(0,0,0)"  stroke-width="2.0"/>
<line x1="189.6" y1="215.1" x2="214.6" y2="197.8" stroke="rgb(0,0,0)"  stroke-width="2.0"/>
<line x1="214.6" y1="197.8" x2="234.6" y2="214.9" stroke="rgb(0,0,0)"  stroke-width="2.0"/>
<line x1="240.5" y1="235.8" x2="232.5" y2="261.4" stroke="rgb(0,0,0)"  stroke-width="2.0"/>
<line x1="232.5" y1="261.4" x2="192.8" y2="262.5" stroke="rgb(0,0,0)"  stroke-width="2.0"/>
<line x1="192.8" y1="262.5" x2="183.1" y2="234.8" stroke="rgb(0,0,0)"  stroke-width="2.0"/>
<line x1="179.5" y1="139.2" x2="213.5" y2="157.6" stroke="rgb(0,0,0)"  stroke-width="2.0"/>
<line x1="213.5" y1="157.6" x2="248.5" y2="139.9" stroke="rgb(0,0,0)"  stroke-width="2.0"/>
<line x1="248.5" y1="139.9" x2="247.6" y2="99.2" stroke="rgb(0,0,0)"  stroke-width="2.0"/>
<line x1="247.6" y1="99.2" x2="215.7" y2="80.5" stroke="rgb(0,0,0)"  stroke-width="2.0"/>
<line x1="215.7" y1="80.5" x2="179.1" y2="100.3" stroke="rgb(0,0,0)"  stroke-width="2.0"/>
<line x1="179.1" y1="100.3" x2="179.5" y2="139.2" stroke="rgb(0,0,0)"  stroke-width="2.0"/>
<text x="130.607786" y="288.550991" fill="rgb(102,102,102)"  stroke="rgb(102,102,102)" stroke-width="1" font-size="16" >H</text>
<text x="142.607786" y="292.230991" fill="rgb(102,102,102)"  stroke="rgb(102,102,102)" stroke-width="1" font-size="13" >3</text>
<text x="149.107786" y="288.550991" fill="rgb(102,102,102)"  stroke="rgb(102,102,102)" stroke-width="1" font-size="16" >C</text>
<text x="172.873256" y="230.484931" fill="rgb(12,12,255)"  stroke="rgb(12,12,255)" stroke-width="1" font-size="16" >N</text>
<text x="238.424383" y="231.372130" fill="rgb(255,12,12)"  stroke="rgb(255,12,12)" stroke-width="1" font-size="16" >O</text>
<text x="155.334430" y="307.887638" fill="rgb(102,102,102)"  stroke="rgb(102,102,102)" stroke-width="1" font-size="16" >H</text>
<text x="167.334430" y="311.567638" fill="rgb(102,102,102)"  stroke="rgb(102,102,102)" stroke-width="1" font-size="13" >3</text>
<text x="173.834430" y="307.887638" fill="rgb(102,102,102)"  stroke="rgb(102,102,102)" stroke-width="1" font-size="16" >C</text>
<text x="113.008123" y="230.265804" fill="rgb(102,102,102)"  stroke="rgb(102,102,102)" stroke-width="1" font-size="16" >H</text>
<text x="125.008123" y="233.945804" fill="rgb(102,102,102)"  stroke="rgb(102,102,102)" stroke-width="1" font-size="13" >3</text>
<text x="131.508123" y="230.265804" fill="rgb(102,102,102)"  stroke="rgb(102,102,102)" stroke-width="1" font-size="16" >C</text>
<text x="175.124451" y="66.885031" fill="rgb(102,102,102)"  stroke="rgb(102,102,102)" stroke-width="1" font-size="16" >CH</text>
<text x="199.124451" y="70.565031" fill="rgb(102,102,102)"  stroke="rgb(102,102,102)" stroke-width="1" font-size="13" >2</text>
<text x="206.536018" y="48.000000" fill="rgb(255,12,12)"  stroke="rgb(255,12,12)" stroke-width="1" font-size="16" >O</text>
<text x="14.000000" y="107.332722" fill="rgb(102,102,102)"  stroke="rgb(102,102,102)" stroke-width="1" font-size="16" >H</text>
<text x="26.000000" y="111.012722" fill="rgb(102,102,102)"  stroke="rgb(102,102,102)" stroke-width="1" font-size="13" >2</text>
<text x="32.500000" y="107.332722" fill="rgb(102,102,102)"  stroke="rgb(102,102,102)" stroke-width="1" font-size="16" >C</text>
<text x="83.404561" y="147.149754" fill="rgb(102,102,102)"  stroke="rgb(102,102,102)" stroke-width="1" font-size="16" >H</text>
<text x="95.404561" y="150.829754" fill="rgb(102,102,102)"  stroke="rgb(102,102,102)" stroke-width="1" font-size="13" >2</text>
<text x="101.904561" y="147.149754" fill="rgb(102,102,102)"  stroke="rgb(102,102,102)" stroke-width="1" font-size="16" >C</text>
</svg>
</g>
<text font-size="18.000000" fill ="black" font-family="sans-serif"
x="10.000000" y="20.000000" ></text>
</svg>
