<?xml version="1.0"?>
<svg version="1.1" id="topsvg"
xmlns="http://www.w3.org/2000/svg" xmlns:xlink="http://www.w3.org/1999/xlink"
xmlns:cml="http://www.xml-cml.org/schema" x="0" y="0" width="200px" height="200px" viewBox="0 0 100 100">
<title> - Open Babel Depiction</title>
<rect x="0" y="0" width="100" height="100" fill="white"/>
<g transform="translate(0,0)">
<svg width="100" height="100" x="0" y="0" viewBox="0 0 288.996 260.742"
font-family="sans-serif" stroke="rgb(0,0,0)" stroke-width="2"  stroke-linecap="round">
<line x1="214.8" y1="200.0" x2="236.4" y2="211.8" stroke="rgb(0,0,0)"  stroke-width="2.0"/>
<line x1="211.9" y1="205.2" x2="233.5" y2="217.1" stroke="rgb(0,0,0)"  stroke-width="2.0"/>
<polygon points="179.456760 140.590619 146.731165 159.320844 143.516250 151.995250 " stroke-width="2.000000" fill="rgb(0,0,0)"  stroke="rgb(0,0,0)" />
<line x1="215.7" y1="53.0" x2="216.1" y2="80.3" stroke="rgb(0,0,0)"  stroke-width="2.0"/>
<line x1="209.7" y1="53.0" x2="210.1" y2="80.4" stroke="rgb(0,0,0)"  stroke-width="2.0"/>
<line x1="214.5" y1="167.5" x2="212.9" y2="167.4" stroke="rgb(0,0,0)"  stroke-width="1.0"/>
<line x1="215.1" y1="174.5" x2="212.2" y2="174.5" stroke="rgb(0,0,0)"  stroke-width="1.0"/>
<line x1="215.6" y1="181.5" x2="211.5" y2="181.5" stroke="rgb(0,0,0)"  stroke-width="1.0"/>
<line x1="216.2" y1="188.6" x2="210.8" y2="188.5" stroke="rgb(0,0,0)"  stroke-width="1.0"/>
<line x1="216.8" y1="195.6" x2="210.1" y2="195.5" stroke="rgb(0,0,0)"  stroke-width="1.0"/>
<line x1="217.4" y1="202.6" x2="209.4" y2="202.6" stroke="rgb(0,0,0)"  stroke-width="1.0"/>
<line x1="170.5" y1="94.7" x2="171.3" y2="93.4" stroke="rgb(0,0,0)"  stroke-width="1.0"/>
<line x1="165.6" y1="92.3" x2="167.1" y2="89.9" stroke="rgb(0,0,0)"  stroke-width="1.0"/>
<line x1="160.7" y1="90.0" x2="162.9" y2="86.5" stroke="rgb(0,0,0)"  stroke-width="1.0"/>
<line x1="155.8" y1="87.6" x2="158.7" y2="83.0" stroke="rgb(0,0,0)"  stroke-width="1.0"/>
<line x1="150.9" y1="85.2" x2="154.5" y2="79.6" stroke="rgb(0,0,0)"  stroke-width="1.0"/>
<line x1="145.9" y1="82.9" x2="150.2" y2="76.1" stroke="rgb(0,0,0)"  stroke-width="1.0"/>
<line x1="49.6" y1="90.7" x2="73.5" y2="76.5" stroke="rgb(0,0,0)"  stroke-width="2.0"/>
<line x1="52.7" y1="95.8" x2="76.6" y2="81.6" stroke="rgb(0,0,0)"  stroke-width="2.0"/>
<line x1="75.0" y1="79.0" x2="109.6" y2="99.6" stroke="rgb(0,0,0)"  stroke-width="2.0"/>
<line x1="109.6" y1="99.6" x2="148.1" y2="79.5" stroke="rgb(0,0,0)"  stroke-width="2.0"/>
<line x1="121.8" y1="142.3" x2="146.3" y2="152.9" stroke="rgb(0,0,0)"  stroke-width="2.0"/>
<line x1="119.4" y1="147.8" x2="143.9" y2="158.4" stroke="rgb(0,0,0)"  stroke-width="2.0"/>
<line x1="179.5" y1="140.6" x2="176.6" y2="97.7" stroke="rgb(0,0,0)"  stroke-width="2.0"/>
<line x1="176.6" y1="97.7" x2="213.1" y2="80.3" stroke="rgb(0,0,0)"  stroke-width="2.0"/>
<line x1="213.1" y1="80.3" x2="248.3" y2="100.3" stroke="rgb(0,0,0)"  stroke-width="2.0"/>
<line x1="248.3" y1="100.3" x2="249.0" y2="140.8" stroke="rgb(0,0,0)"  stroke-width="2.0"/>
<line x1="249.0" y1="140.8" x2="213.7" y2="158.7" stroke="rgb(0,0,0)"  stroke-width="2.0"/>
<line x1="213.7" y1="158.7" x2="179.5" y2="140.6" stroke="rgb(0,0,0)"  stroke-width="2.0"/>
<text x="240.325168" y="228.742155" fill="rgb(255,12,12)"  stroke="rgb(255,12,12)" stroke-width="1" font-size="16" >O</text>
<text x="206.493113" y="48.000000" fill="rgb(255,12,12)"  stroke="rgb(255,12,12)" stroke-width="1" font-size="16" >O</text>
<text x="14.000000" y="107.886595" fill="rgb(102,102,102)"  stroke="rgb(102,102,102)" stroke-width="1" font-size="16" >H</text>
<text x="26.000000" y="111.566595" fill="rgb(102,102,102)"  stroke="rgb(102,102,102)" stroke-width="1" font-size="13" >2</text>
<text x="32.500000" y="107.886595" fill="rgb(102,102,102)"  stroke="rgb(102,102,102)" stroke-width="1" font-size="16" >C</text>
<text x="82.633955" y="147.942270" fill="rgb(102,102,102)"  stroke="rgb(102,102,102)" stroke-width="1" font-size="16" >H</text>
<text x="94.633955" y="151.622270" fill="rgb(102,102,102)"  stroke="rgb(102,102,102)" stroke-width="1" font-size="13" >2</text>
<text x="101.133955" y="147.942270" fill="rgb(102,102,102)"  stroke="rgb(102,102,102)" stroke-width="1" font-size="16" >C</text>
</svg>
</g>
<text font-size="18.000000" fill ="black" font-family="sans-serif"
x="10.000000" y="20.000000" ></text>
</svg>
