<?xml version="1.0"?>
<svg version="1.1" id="topsvg"
xmlns="http://www.w3.org/2000/svg" xmlns:xlink="http://www.w3.org/1999/xlink"
xmlns:cml="http://www.xml-cml.org/schema" x="0" y="0" width="200px" height="200px" viewBox="0 0 100 100">
<title> - Open Babel Depiction</title>
<rect x="0" y="0" width="100" height="100" fill="white"/>
<g transform="translate(0,0)">
<svg width="100" height="100" x="0" y="0" viewBox="0 0 234.916 304.639"
font-family="sans-serif" stroke="rgb(0,0,0)" stroke-width="2"  stroke-linecap="round">
<line x1="180.6" y1="233.1" x2="146.9" y2="217.8" stroke="rgb(0,0,0)"  stroke-width="2.0"/>
<line x1="193.6" y1="251.5" x2="193.7" y2="251.7" stroke="rgb(0,0,0)"  stroke-width="2.0"/>
<line x1="112.1" y1="112.8" x2="111.7" y2="86.7" stroke="rgb(0,0,0)"  stroke-width="2.0"/>
<polygon points="112.090599 112.823925 116.204237 155.836084 108.204265 155.857218 " stroke-width="2.000000" fill="rgb(0,0,0)"  stroke="rgb(0,0,0)" />
<line x1="147.3" y1="176.9" x2="146.9" y2="217.8" stroke="rgb(0,0,0)"  stroke-width="2.0"/>
<line x1="139.9" y1="173.4" x2="140.7" y2="172.0" stroke="rgb(0,0,0)"  stroke-width="1.0"/>
<line x1="133.9" y1="170.5" x2="135.4" y2="168.1" stroke="rgb(0,0,0)"  stroke-width="1.0"/>
<line x1="128.0" y1="167.7" x2="130.1" y2="164.2" stroke="rgb(0,0,0)"  stroke-width="1.0"/>
<line x1="122.0" y1="164.9" x2="124.8" y2="160.2" stroke="rgb(0,0,0)"  stroke-width="1.0"/>
<line x1="116.1" y1="162.1" x2="119.5" y2="156.3" stroke="rgb(0,0,0)"  stroke-width="1.0"/>
<line x1="110.1" y1="159.3" x2="114.3" y2="152.4" stroke="rgb(0,0,0)"  stroke-width="1.0"/>
<line x1="112.8" y1="161.3" x2="111.2" y2="161.3" stroke="rgb(0,0,0)"  stroke-width="1.0"/>
<line x1="113.3" y1="165.7" x2="110.5" y2="165.6" stroke="rgb(0,0,0)"  stroke-width="1.0"/>
<line x1="113.8" y1="170.1" x2="109.7" y2="170.0" stroke="rgb(0,0,0)"  stroke-width="1.0"/>
<line x1="114.3" y1="174.5" x2="108.9" y2="174.3" stroke="rgb(0,0,0)"  stroke-width="1.0"/>
<line x1="114.8" y1="178.9" x2="108.1" y2="178.7" stroke="rgb(0,0,0)"  stroke-width="1.0"/>
<line x1="115.3" y1="183.3" x2="107.3" y2="183.0" stroke="rgb(0,0,0)"  stroke-width="1.0"/>
<line x1="148.2" y1="94.7" x2="147.3" y2="66.9" stroke="rgb(0,0,0)"  stroke-width="2.0"/>
<line x1="141.3" y1="99.1" x2="140.6" y2="97.6" stroke="rgb(0,0,0)"  stroke-width="1.0"/>
<line x1="135.8" y1="102.5" x2="134.6" y2="100.0" stroke="rgb(0,0,0)"  stroke-width="1.0"/>
<line x1="130.4" y1="106.0" x2="128.5" y2="102.3" stroke="rgb(0,0,0)"  stroke-width="1.0"/>
<line x1="124.9" y1="109.5" x2="122.4" y2="104.6" stroke="rgb(0,0,0)"  stroke-width="1.0"/>
<line x1="119.4" y1="112.9" x2="116.4" y2="106.9" stroke="rgb(0,0,0)"  stroke-width="1.0"/>
<line x1="113.9" y1="116.4" x2="110.3" y2="109.2" stroke="rgb(0,0,0)"  stroke-width="1.0"/>
<line x1="157.8" y1="47.0" x2="158.1" y2="46.9" stroke="rgb(0,0,0)"  stroke-width="2.0"/>
<line x1="51.0" y1="190.6" x2="76.3" y2="174.6" stroke="rgb(0,0,0)"  stroke-width="2.0"/>
<line x1="76.3" y1="174.6" x2="41.8" y2="155.0" stroke="rgb(0,0,0)"  stroke-width="2.0"/>
<line x1="41.8" y1="155.0" x2="40.6" y2="184.5" stroke="rgb(0,0,0)"  stroke-width="2.0"/>
<line x1="76.3" y1="174.6" x2="112.2" y2="155.8" stroke="rgb(0,0,0)"  stroke-width="2.0"/>
<line x1="112.2" y1="155.8" x2="112.1" y2="112.8" stroke="rgb(0,0,0)"  stroke-width="2.0"/>
<line x1="112.1" y1="112.8" x2="76.2" y2="94.3" stroke="rgb(0,0,0)"  stroke-width="2.0"/>
<line x1="76.2" y1="94.3" x2="41.1" y2="114.1" stroke="rgb(0,0,0)"  stroke-width="2.0"/>
<line x1="41.1" y1="114.1" x2="41.8" y2="155.0" stroke="rgb(0,0,0)"  stroke-width="2.0"/>
<line x1="183.7" y1="115.0" x2="148.2" y2="94.7" stroke="rgb(0,0,0)"  stroke-width="2.0"/>
<line x1="148.2" y1="94.7" x2="112.1" y2="112.8" stroke="rgb(0,0,0)"  stroke-width="2.0"/>
<line x1="112.2" y1="155.8" x2="147.3" y2="176.9" stroke="rgb(0,0,0)"  stroke-width="2.0"/>
<line x1="147.3" y1="176.9" x2="183.7" y2="156.8" stroke="rgb(0,0,0)"  stroke-width="2.0"/>
<line x1="183.7" y1="156.8" x2="183.7" y2="115.0" stroke="rgb(0,0,0)"  stroke-width="2.0"/>
<text x="186.396620" y="246.512305" fill="rgb(255,12,12)"  stroke="rgb(255,12,12)" stroke-width="1" font-size="16" >O</text>
<text x="34.000000" y="205.535317" fill="rgb(255,12,12)"  stroke="rgb(255,12,12)" stroke-width="1" font-size="16" >O</text>
<text x="85.530456" y="81.741139" fill="rgb(102,102,102)"  stroke="rgb(102,102,102)" stroke-width="1" font-size="16" >H</text>
<text x="97.530456" y="85.421139" fill="rgb(102,102,102)"  stroke="rgb(102,102,102)" stroke-width="1" font-size="13" >3</text>
<text x="104.030456" y="81.741139" fill="rgb(102,102,102)"  stroke="rgb(102,102,102)" stroke-width="1" font-size="16" >C</text>
<text x="140.816722" y="61.887202" fill="rgb(255,12,12)"  stroke="rgb(255,12,12)" stroke-width="1" font-size="16" >O</text>
<text x="104.902664" y="204.615277" fill="rgb(191,191,191)"  stroke="rgb(191,191,191)" stroke-width="1" font-size="16" >H</text>
<text x="188.915908" y="272.638755" fill="rgb(191,191,191)"  stroke="rgb(191,191,191)" stroke-width="1" font-size="16" >H</text>
<text x="163.089825" y="48.000000" fill="rgb(191,191,191)"  stroke="rgb(191,191,191)" stroke-width="1" font-size="16" >H</text>
</svg>
</g>
<text font-size="18.000000" fill ="black" font-family="sans-serif"
x="10.000000" y="20.000000" ></text>
</svg>
