<?xml version="1.0"?>
<svg version="1.1" id="topsvg"
xmlns="http://www.w3.org/2000/svg" xmlns:xlink="http://www.w3.org/1999/xlink"
xmlns:cml="http://www.xml-cml.org/schema" x="0" y="0" width="200px" height="200px" viewBox="0 0 100 100">
<title> - Open Babel Depiction</title>
<rect x="0" y="0" width="100" height="100" fill="white"/>
<g transform="translate(0,0)">
<svg width="100" height="100" x="0" y="0" viewBox="0 0 410.601 363.121"
font-family="sans-serif" stroke="rgb(0,0,0)" stroke-width="2"  stroke-linecap="round">
<line x1="338.9" y1="308.5" x2="345.6" y2="290.6" stroke="rgb(0,0,0)"  stroke-width="2.0"/>
<line x1="345.6" y1="290.6" x2="362.7" y2="312.8" stroke="rgb(0,0,0)"  stroke-width="2.0"/>
<line x1="325.1" y1="183.9" x2="324.8" y2="225.5" stroke="rgb(0,0,0)"  stroke-width="2.0"/>
<line x1="289.7" y1="164.7" x2="254.2" y2="180.6" stroke="rgb(0,0,0)"  stroke-width="2.0"/>
<polygon points="289.699480 164.660839 285.885683 123.248936 293.885602 123.284914 " stroke-width="2.000000" fill="rgb(0,0,0)"  stroke="rgb(0,0,0)" />
<line x1="231.1" y1="166.5" x2="255.4" y2="177.9" stroke="rgb(0,0,0)"  stroke-width="2.0"/>
<line x1="228.6" y1="171.9" x2="252.9" y2="183.3" stroke="rgb(0,0,0)"  stroke-width="2.0"/>
<line x1="218.8" y1="122.8" x2="252.6" y2="102.9" stroke="rgb(0,0,0)"  stroke-width="2.0"/>
<line x1="218.8" y1="122.8" x2="182.2" y2="102.6" stroke="rgb(0,0,0)"  stroke-width="2.0"/>
<line x1="249.6" y1="102.8" x2="250.5" y2="74.1" stroke="rgb(0,0,0)"  stroke-width="2.0"/>
<line x1="255.6" y1="103.0" x2="256.5" y2="74.3" stroke="rgb(0,0,0)"  stroke-width="2.0"/>
<line x1="182.2" y1="102.6" x2="189.7" y2="73.8" stroke="rgb(0,0,0)"  stroke-width="2.0"/>
<line x1="147.2" y1="121.9" x2="125.8" y2="110.2" stroke="rgb(0,0,0)"  stroke-width="2.0"/>
<line x1="147.2" y1="121.9" x2="182.2" y2="102.6" stroke="rgb(0,0,0)"  stroke-width="2.0"/>
<line x1="205.5" y1="57.7" x2="206.1" y2="57.6" stroke="rgb(0,0,0)"  stroke-width="2.0"/>
<line x1="289.9" y1="123.3" x2="252.6" y2="102.9" stroke="rgb(0,0,0)"  stroke-width="2.0"/>
<line x1="289.1" y1="116.8" x2="290.7" y2="116.8" stroke="rgb(0,0,0)"  stroke-width="1.0"/>
<line x1="288.4" y1="111.6" x2="291.3" y2="111.6" stroke="rgb(0,0,0)"  stroke-width="1.0"/>
<line x1="287.8" y1="106.5" x2="291.9" y2="106.5" stroke="rgb(0,0,0)"  stroke-width="1.0"/>
<line x1="287.1" y1="101.3" x2="292.5" y2="101.3" stroke="rgb(0,0,0)"  stroke-width="1.0"/>
<line x1="286.4" y1="96.1" x2="293.2" y2="96.1" stroke="rgb(0,0,0)"  stroke-width="1.0"/>
<line x1="285.8" y1="91.0" x2="293.8" y2="90.9" stroke="rgb(0,0,0)"  stroke-width="1.0"/>
<line x1="330.6" y1="67.9" x2="329.9" y2="66.8" stroke="rgb(0,0,0)"  stroke-width="2.0"/>
<line x1="331.6" y1="90.4" x2="324.9" y2="103.2" stroke="rgb(0,0,0)"  stroke-width="2.0"/>
<line x1="51.3" y1="66.8" x2="76.0" y2="81.0" stroke="rgb(0,0,0)"  stroke-width="2.0"/>
<line x1="76.0" y1="81.0" x2="103.2" y2="97.3" stroke="rgb(0,0,0)"  stroke-width="2.0"/>
<line x1="76.0" y1="81.0" x2="51.0" y2="97.0" stroke="rgb(0,0,0)"  stroke-width="2.0"/>
<line x1="76.5" y1="53.0" x2="76.0" y2="81.0" stroke="rgb(0,0,0)"  stroke-width="2.0"/>
<line x1="86.5" y1="117.9" x2="102.8" y2="109.7" stroke="rgb(0,0,0)"  stroke-width="2.0"/>
<line x1="112.0" y1="73.5" x2="113.4" y2="91.0" stroke="rgb(0,0,0)"  stroke-width="2.0"/>
<line x1="304.1" y1="289.2" x2="295.4" y2="262.3" stroke="rgb(0,0,0)"  stroke-width="2.0"/>
<line x1="301.9" y1="242.2" x2="324.8" y2="225.5" stroke="rgb(0,0,0)"  stroke-width="2.0"/>
<line x1="324.8" y1="225.5" x2="347.3" y2="241.8" stroke="rgb(0,0,0)"  stroke-width="2.0"/>
<line x1="325.4" y1="234.9" x2="341.6" y2="246.6" stroke="rgb(0,0,0)"  stroke-width="2.0"/>
<line x1="354.5" y1="262.3" x2="345.6" y2="290.6" stroke="rgb(0,0,0)"  stroke-width="2.0"/>
<line x1="345.6" y1="290.6" x2="304.1" y2="289.2" stroke="rgb(0,0,0)"  stroke-width="2.0"/>
<line x1="289.9" y1="123.3" x2="289.7" y2="164.7" stroke="rgb(0,0,0)"  stroke-width="2.0"/>
<line x1="289.7" y1="164.7" x2="325.1" y2="183.9" stroke="rgb(0,0,0)"  stroke-width="2.0"/>
<line x1="325.1" y1="183.9" x2="360.8" y2="164.9" stroke="rgb(0,0,0)"  stroke-width="2.0"/>
<line x1="327.0" y1="174.8" x2="352.1" y2="161.3" stroke="rgb(0,0,0)"  stroke-width="2.0"/>
<line x1="360.8" y1="164.9" x2="360.7" y2="122.9" stroke="rgb(0,0,0)"  stroke-width="2.0"/>
<line x1="360.7" y1="122.9" x2="324.9" y2="103.2" stroke="rgb(0,0,0)"  stroke-width="2.0"/>
<line x1="352.0" y1="126.3" x2="326.7" y2="112.4" stroke="rgb(0,0,0)"  stroke-width="2.0"/>
<line x1="324.9" y1="103.2" x2="289.9" y2="123.3" stroke="rgb(0,0,0)"  stroke-width="2.0"/>
<text x="308.334822" y="328.616244" fill="rgb(102,102,102)"  stroke="rgb(102,102,102)" stroke-width="1" font-size="16" >H</text>
<text x="320.334822" y="332.296244" fill="rgb(102,102,102)"  stroke="rgb(102,102,102)" stroke-width="1" font-size="13" >3</text>
<text x="326.834822" y="328.616244" fill="rgb(102,102,102)"  stroke="rgb(102,102,102)" stroke-width="1" font-size="16" >C</text>
<text x="285.443390" y="257.877001" fill="rgb(255,12,12)"  stroke="rgb(255,12,12)" stroke-width="1" font-size="16" >O</text>
<text x="352.440207" y="257.877001" fill="rgb(12,12,255)"  stroke="rgb(12,12,255)" stroke-width="1" font-size="16" >N</text>
<text x="366.601038" y="331.121233" fill="rgb(102,102,102)"  stroke="rgb(102,102,102)" stroke-width="1" font-size="16" >CH</text>
<text x="390.601038" y="334.801233" fill="rgb(102,102,102)"  stroke="rgb(102,102,102)" stroke-width="1" font-size="13" >3</text>
<text x="192.084175" y="171.642417" fill="rgb(102,102,102)"  stroke="rgb(102,102,102)" stroke-width="1" font-size="16" >H</text>
<text x="204.084175" y="175.322417" fill="rgb(102,102,102)"  stroke="rgb(102,102,102)" stroke-width="1" font-size="13" >2</text>
<text x="210.584175" y="171.642417" fill="rgb(102,102,102)"  stroke="rgb(102,102,102)" stroke-width="1" font-size="16" >C</text>
<text x="108.380374" y="111.919650" fill="rgb(127,153,153)"  stroke="rgb(127,153,153)" stroke-width="1" font-size="16" >Si</text>
<text x="186.998697" y="69.192480" fill="rgb(255,12,12)"  stroke="rgb(255,12,12)" stroke-width="1" font-size="16" >O</text>
<text x="247.843918" y="69.192480" fill="rgb(255,12,12)"  stroke="rgb(255,12,12)" stroke-width="1" font-size="16" >O</text>
<text x="331.592677" y="86.916302" fill="rgb(255,12,12)"  stroke="rgb(255,12,12)" stroke-width="1" font-size="16" >O</text>
<text x="296.910430" y="63.810176" fill="rgb(102,102,102)"  stroke="rgb(102,102,102)" stroke-width="1" font-size="16" >H</text>
<text x="308.910430" y="67.490176" fill="rgb(102,102,102)"  stroke="rgb(102,102,102)" stroke-width="1" font-size="13" >3</text>
<text x="315.410430" y="63.810176" fill="rgb(102,102,102)"  stroke="rgb(102,102,102)" stroke-width="1" font-size="16" >C</text>
<text x="14.000000" y="68.297254" fill="rgb(102,102,102)"  stroke="rgb(102,102,102)" stroke-width="1" font-size="16" >H</text>
<text x="26.000000" y="71.977254" fill="rgb(102,102,102)"  stroke="rgb(102,102,102)" stroke-width="1" font-size="13" >3</text>
<text x="32.500000" y="68.297254" fill="rgb(102,102,102)"  stroke="rgb(102,102,102)" stroke-width="1" font-size="16" >C</text>
<text x="72.696034" y="48.000000" fill="rgb(102,102,102)"  stroke="rgb(102,102,102)" stroke-width="1" font-size="16" >CH</text>
<text x="96.696034" y="51.680000" fill="rgb(102,102,102)"  stroke="rgb(102,102,102)" stroke-width="1" font-size="13" >3</text>
<text x="14.076655" y="112.023682" fill="rgb(102,102,102)"  stroke="rgb(102,102,102)" stroke-width="1" font-size="16" >H</text>
<text x="26.076655" y="115.703682" fill="rgb(102,102,102)"  stroke="rgb(102,102,102)" stroke-width="1" font-size="13" >3</text>
<text x="32.576655" y="112.023682" fill="rgb(102,102,102)"  stroke="rgb(102,102,102)" stroke-width="1" font-size="16" >C</text>
<text x="48.820714" y="131.680316" fill="rgb(102,102,102)"  stroke="rgb(102,102,102)" stroke-width="1" font-size="16" >H</text>
<text x="60.820714" y="135.360316" fill="rgb(102,102,102)"  stroke="rgb(102,102,102)" stroke-width="1" font-size="13" >3</text>
<text x="67.320714" y="131.680316" fill="rgb(102,102,102)"  stroke="rgb(102,102,102)" stroke-width="1" font-size="16" >C</text>
<text x="84.960996" y="68.508056" fill="rgb(102,102,102)"  stroke="rgb(102,102,102)" stroke-width="1" font-size="16" >H</text>
<text x="96.960996" y="72.188056" fill="rgb(102,102,102)"  stroke="rgb(102,102,102)" stroke-width="1" font-size="13" >3</text>
<text x="103.460996" y="68.508056" fill="rgb(102,102,102)"  stroke="rgb(102,102,102)" stroke-width="1" font-size="16" >C</text>
<text x="263.735070" y="83.034254" fill="rgb(102,102,102)"  stroke="rgb(102,102,102)" stroke-width="1" font-size="16" >H</text>
<text x="275.735070" y="86.714254" fill="rgb(102,102,102)"  stroke="rgb(102,102,102)" stroke-width="1" font-size="13" >3</text>
<text x="282.235070" y="83.034254" fill="rgb(102,102,102)"  stroke="rgb(102,102,102)" stroke-width="1" font-size="16" >C</text>
<text x="212.593386" y="62.115544" fill="rgb(191,191,191)"  stroke="rgb(191,191,191)" stroke-width="1" font-size="16" >H</text>
</svg>
</g>
<text font-size="18.000000" fill ="black" font-family="sans-serif"
x="10.000000" y="20.000000" ></text>
</svg>
