<?xml version="1.0"?>
<svg version="1.1" id="topsvg"
xmlns="http://www.w3.org/2000/svg" xmlns:xlink="http://www.w3.org/1999/xlink"
xmlns:cml="http://www.xml-cml.org/schema" x="0" y="0" width="200px" height="200px" viewBox="0 0 100 100">
<title> - Open Babel Depiction</title>
<rect x="0" y="0" width="100" height="100" fill="white"/>
<g transform="translate(0,0)">
<svg width="100" height="100" x="0" y="0" viewBox="0 0 317.5 335.608"
font-family="sans-serif" stroke="rgb(0,0,0)" stroke-width="2"  stroke-linecap="round">
<line x1="73.8" y1="178.7" x2="74.1" y2="139.0" stroke="rgb(0,0,0)"  stroke-width="2.0"/>
<line x1="108.3" y1="197.5" x2="141.7" y2="181.8" stroke="rgb(0,0,0)"  stroke-width="2.0"/>
<polygon points="108.264992 197.525101 111.510433 237.895939 103.511832 237.746301 " stroke-width="2.000000" fill="rgb(0,0,0)"  stroke="rgb(0,0,0)" />
<line x1="143.0" y1="179.1" x2="167.1" y2="190.8" stroke="rgb(0,0,0)"  stroke-width="2.0"/>
<line x1="140.4" y1="184.5" x2="164.5" y2="196.2" stroke="rgb(0,0,0)"  stroke-width="2.0"/>
<line x1="108.2" y1="243.9" x2="106.6" y2="243.9" stroke="rgb(0,0,0)"  stroke-width="1.0"/>
<line x1="108.8" y1="248.8" x2="105.9" y2="248.8" stroke="rgb(0,0,0)"  stroke-width="1.0"/>
<line x1="109.3" y1="253.7" x2="105.2" y2="253.6" stroke="rgb(0,0,0)"  stroke-width="1.0"/>
<line x1="109.9" y1="258.6" x2="104.5" y2="258.5" stroke="rgb(0,0,0)"  stroke-width="1.0"/>
<line x1="110.5" y1="263.4" x2="103.7" y2="263.3" stroke="rgb(0,0,0)"  stroke-width="1.0"/>
<line x1="111.0" y1="268.3" x2="103.0" y2="268.2" stroke="rgb(0,0,0)"  stroke-width="1.0"/>
<line x1="141.1" y1="257.3" x2="175.3" y2="237.0" stroke="rgb(0,0,0)"  stroke-width="2.0"/>
<line x1="242.9" y1="237.9" x2="249.8" y2="211.1" stroke="rgb(0,0,0)"  stroke-width="2.0"/>
<line x1="242.9" y1="237.9" x2="209.3" y2="257.1" stroke="rgb(0,0,0)"  stroke-width="2.0"/>
<line x1="265.5" y1="194.9" x2="265.0" y2="195.1" stroke="rgb(0,0,0)"  stroke-width="2.0"/>
<line x1="266.2" y1="251.7" x2="242.9" y2="237.9" stroke="rgb(0,0,0)"  stroke-width="2.0"/>
<line x1="209.3" y1="257.1" x2="175.3" y2="237.0" stroke="rgb(0,0,0)"  stroke-width="2.0"/>
<line x1="94.3" y1="78.9" x2="101.3" y2="52.6" stroke="rgb(0,0,0)"  stroke-width="2.0"/>
<line x1="120.2" y1="71.9" x2="94.3" y2="78.9" stroke="rgb(0,0,0)"  stroke-width="2.0"/>
<line x1="98.8" y1="285.8" x2="73.3" y2="256.4" stroke="rgb(0,0,0)"  stroke-width="2.0"/>
<line x1="73.3" y1="256.4" x2="107.5" y2="237.8" stroke="rgb(0,0,0)"  stroke-width="2.0"/>
<line x1="107.5" y1="237.8" x2="141.1" y2="257.3" stroke="rgb(0,0,0)"  stroke-width="2.0"/>
<line x1="141.1" y1="257.3" x2="118.4" y2="283.0" stroke="rgb(0,0,0)"  stroke-width="2.0"/>
<line x1="131.7" y1="257.0" x2="113.6" y2="277.5" stroke="rgb(0,0,0)"  stroke-width="2.0"/>
<line x1="102.3" y1="103.9" x2="94.3" y2="78.9" stroke="rgb(0,0,0)"  stroke-width="2.0"/>
<line x1="94.3" y1="78.9" x2="54.6" y2="78.8" stroke="rgb(0,0,0)"  stroke-width="2.0"/>
<line x1="54.6" y1="78.8" x2="46.5" y2="103.3" stroke="rgb(0,0,0)"  stroke-width="2.0"/>
<line x1="52.9" y1="123.4" x2="74.1" y2="139.0" stroke="rgb(0,0,0)"  stroke-width="2.0"/>
<line x1="74.1" y1="139.0" x2="95.7" y2="123.8" stroke="rgb(0,0,0)"  stroke-width="2.0"/>
<line x1="74.8" y1="129.6" x2="89.8" y2="119.1" stroke="rgb(0,0,0)"  stroke-width="2.0"/>
<line x1="40.0" y1="237.4" x2="73.3" y2="256.4" stroke="rgb(0,0,0)"  stroke-width="2.0"/>
<line x1="48.8" y1="234.1" x2="71.6" y2="247.1" stroke="rgb(0,0,0)"  stroke-width="2.0"/>
<line x1="107.5" y1="237.8" x2="108.3" y2="197.5" stroke="rgb(0,0,0)"  stroke-width="2.0"/>
<line x1="108.3" y1="197.5" x2="73.8" y2="178.7" stroke="rgb(0,0,0)"  stroke-width="2.0"/>
<line x1="73.8" y1="178.7" x2="40.0" y2="197.1" stroke="rgb(0,0,0)"  stroke-width="2.0"/>
<line x1="72.0" y1="187.9" x2="48.7" y2="200.5" stroke="rgb(0,0,0)"  stroke-width="2.0"/>
<line x1="40.0" y1="197.1" x2="40.0" y2="237.4" stroke="rgb(0,0,0)"  stroke-width="2.0"/>
<text x="95.261597" y="303.608254" fill="rgb(17,127,178)"  stroke="rgb(17,127,178)" stroke-width="1" font-size="16" >Xx</text>
<text x="36.392913" y="123.666999" fill="rgb(255,12,12)"  stroke="rgb(255,12,12)" stroke-width="1" font-size="16" >O</text>
<text x="100.284469" y="124.318417" fill="rgb(12,12,255)"  stroke="rgb(12,12,255)" stroke-width="1" font-size="16" >N</text>
<text x="246.977109" y="206.465455" fill="rgb(255,12,12)"  stroke="rgb(255,12,12)" stroke-width="1" font-size="16" >O</text>
<text x="273.373786" y="266.288272" fill="rgb(102,102,102)"  stroke="rgb(102,102,102)" stroke-width="1" font-size="16" >CH</text>
<text x="297.373786" y="269.968272" fill="rgb(102,102,102)"  stroke="rgb(102,102,102)" stroke-width="1" font-size="13" >3</text>
<text x="100.556109" y="48.000000" fill="rgb(102,102,102)"  stroke="rgb(102,102,102)" stroke-width="1" font-size="16" >CH</text>
<text x="124.556109" y="51.680000" fill="rgb(102,102,102)"  stroke="rgb(102,102,102)" stroke-width="1" font-size="13" >3</text>
<text x="128.732590" y="76.517951" fill="rgb(102,102,102)"  stroke="rgb(102,102,102)" stroke-width="1" font-size="16" >CH</text>
<text x="152.732590" y="80.197951" fill="rgb(102,102,102)"  stroke="rgb(102,102,102)" stroke-width="1" font-size="13" >3</text>
<text x="173.507112" y="207.119500" fill="rgb(102,102,102)"  stroke="rgb(102,102,102)" stroke-width="1" font-size="16" >CH</text>
<text x="197.507112" y="210.799500" fill="rgb(102,102,102)"  stroke="rgb(102,102,102)" stroke-width="1" font-size="13" >2</text>
<text x="80.794047" y="291.241807" fill="rgb(102,102,102)"  stroke="rgb(102,102,102)" stroke-width="1" font-size="16" >H</text>
<text x="92.794047" y="294.921807" fill="rgb(102,102,102)"  stroke="rgb(102,102,102)" stroke-width="1" font-size="13" >3</text>
<text x="99.294047" y="291.241807" fill="rgb(102,102,102)"  stroke="rgb(102,102,102)" stroke-width="1" font-size="16" >C</text>
<text x="271.499867" y="199.559892" fill="rgb(191,191,191)"  stroke="rgb(191,191,191)" stroke-width="1" font-size="16" >H</text>
</svg>
</g>
<text font-size="18.000000" fill ="black" font-family="sans-serif"
x="10.000000" y="20.000000" ></text>
</svg>
