<?xml version="1.0"?>
<svg version="1.1" id="topsvg"
xmlns="http://www.w3.org/2000/svg" xmlns:xlink="http://www.w3.org/1999/xlink"
xmlns:cml="http://www.xml-cml.org/schema" x="0" y="0" width="200px" height="200px" viewBox="0 0 100 100">
<title> - Open Babel Depiction</title>
<rect x="0" y="0" width="100" height="100" fill="white"/>
<g transform="translate(0,0)">
<svg width="100" height="100" x="0" y="0" viewBox="0 0 301.111 304.849"
font-family="sans-serif" stroke="rgb(0,0,0)" stroke-width="2"  stroke-linecap="round">
<line x1="249.9" y1="231.9" x2="218.0" y2="213.3" stroke="rgb(0,0,0)"  stroke-width="2.0"/>
<line x1="261.1" y1="251.4" x2="261.1" y2="251.8" stroke="rgb(0,0,0)"  stroke-width="2.0"/>
<line x1="183.4" y1="153.7" x2="148.1" y2="167.6" stroke="rgb(0,0,0)"  stroke-width="2.0"/>
<polygon points="183.380015 153.732646 180.404750 109.954672 188.402555 110.142081 " stroke-width="2.000000" fill="rgb(0,0,0)"  stroke="rgb(0,0,0)" />
<polygon points="184.403652 110.048376 179.604640 83.021036 187.601162 82.785149 " stroke-width="2.000000" fill="rgb(0,0,0)"  stroke="rgb(0,0,0)" />
<line x1="184.4" y1="110.0" x2="147.7" y2="89.8" stroke="rgb(0,0,0)"  stroke-width="2.0"/>
<line x1="219.8" y1="179.5" x2="218.2" y2="179.4" stroke="rgb(0,0,0)"  stroke-width="1.0"/>
<line x1="220.2" y1="186.3" x2="217.4" y2="186.2" stroke="rgb(0,0,0)"  stroke-width="1.0"/>
<line x1="220.7" y1="193.1" x2="216.5" y2="192.9" stroke="rgb(0,0,0)"  stroke-width="1.0"/>
<line x1="221.1" y1="199.9" x2="215.7" y2="199.7" stroke="rgb(0,0,0)"  stroke-width="1.0"/>
<line x1="221.6" y1="206.6" x2="214.8" y2="206.4" stroke="rgb(0,0,0)"  stroke-width="1.0"/>
<line x1="222.0" y1="213.4" x2="214.0" y2="213.2" stroke="rgb(0,0,0)"  stroke-width="1.0"/>
<line x1="213.4" y1="94.5" x2="212.6" y2="93.1" stroke="rgb(0,0,0)"  stroke-width="1.0"/>
<line x1="208.0" y1="98.3" x2="206.5" y2="95.8" stroke="rgb(0,0,0)"  stroke-width="1.0"/>
<line x1="202.6" y1="102.1" x2="200.5" y2="98.5" stroke="rgb(0,0,0)"  stroke-width="1.0"/>
<line x1="197.2" y1="105.9" x2="194.5" y2="101.2" stroke="rgb(0,0,0)"  stroke-width="1.0"/>
<line x1="191.8" y1="109.7" x2="188.5" y2="103.9" stroke="rgb(0,0,0)"  stroke-width="1.0"/>
<line x1="186.4" y1="113.5" x2="182.4" y2="106.6" stroke="rgb(0,0,0)"  stroke-width="1.0"/>
<line x1="220.1" y1="89.7" x2="225.8" y2="61.2" stroke="rgb(0,0,0)"  stroke-width="2.0"/>
<line x1="50.0" y1="101.7" x2="75.6" y2="87.9" stroke="rgb(0,0,0)"  stroke-width="2.0"/>
<line x1="52.9" y1="106.9" x2="78.4" y2="93.1" stroke="rgb(0,0,0)"  stroke-width="2.0"/>
<line x1="77.0" y1="90.5" x2="112.8" y2="110.6" stroke="rgb(0,0,0)"  stroke-width="2.0"/>
<line x1="147.7" y1="89.8" x2="112.8" y2="110.6" stroke="rgb(0,0,0)"  stroke-width="2.0"/>
<line x1="124.4" y1="153.8" x2="149.3" y2="164.8" stroke="rgb(0,0,0)"  stroke-width="2.0"/>
<line x1="122.0" y1="159.3" x2="146.9" y2="170.3" stroke="rgb(0,0,0)"  stroke-width="2.0"/>
<line x1="240.6" y1="44.3" x2="241.0" y2="44.2" stroke="rgb(0,0,0)"  stroke-width="2.0"/>
<line x1="184.4" y1="110.0" x2="220.1" y2="89.7" stroke="rgb(0,0,0)"  stroke-width="2.0"/>
<line x1="220.1" y1="89.7" x2="255.4" y2="109.6" stroke="rgb(0,0,0)"  stroke-width="2.0"/>
<line x1="255.4" y1="109.6" x2="255.6" y2="152.2" stroke="rgb(0,0,0)"  stroke-width="2.0"/>
<line x1="255.6" y1="152.2" x2="219.3" y2="171.0" stroke="rgb(0,0,0)"  stroke-width="2.0"/>
<line x1="219.3" y1="171.0" x2="183.4" y2="153.7" stroke="rgb(0,0,0)"  stroke-width="2.0"/>
<line x1="183.4" y1="153.7" x2="184.4" y2="110.0" stroke="rgb(0,0,0)"  stroke-width="2.0"/>
<text x="255.111117" y="246.441360" fill="rgb(255,12,12)"  stroke="rgb(255,12,12)" stroke-width="1" font-size="16" >O</text>
<text x="157.208501" y="77.533027" fill="rgb(102,102,102)"  stroke="rgb(102,102,102)" stroke-width="1" font-size="16" >H</text>
<text x="169.208501" y="81.213027" fill="rgb(102,102,102)"  stroke="rgb(102,102,102)" stroke-width="1" font-size="13" >3</text>
<text x="175.708501" y="77.533027" fill="rgb(102,102,102)"  stroke="rgb(102,102,102)" stroke-width="1" font-size="16" >C</text>
<text x="14.000000" y="118.473077" fill="rgb(102,102,102)"  stroke="rgb(102,102,102)" stroke-width="1" font-size="16" >H</text>
<text x="26.000000" y="122.153077" fill="rgb(102,102,102)"  stroke="rgb(102,102,102)" stroke-width="1" font-size="13" >2</text>
<text x="32.500000" y="118.473077" fill="rgb(102,102,102)"  stroke="rgb(102,102,102)" stroke-width="1" font-size="16" >C</text>
<text x="85.349703" y="159.236168" fill="rgb(102,102,102)"  stroke="rgb(102,102,102)" stroke-width="1" font-size="16" >H</text>
<text x="97.349703" y="162.916168" fill="rgb(102,102,102)"  stroke="rgb(102,102,102)" stroke-width="1" font-size="13" >2</text>
<text x="103.849703" y="159.236168" fill="rgb(102,102,102)"  stroke="rgb(102,102,102)" stroke-width="1" font-size="16" >C</text>
<text x="222.311162" y="56.485845" fill="rgb(255,12,12)"  stroke="rgb(255,12,12)" stroke-width="1" font-size="16" >O</text>
<text x="255.002219" y="272.849026" fill="rgb(191,191,191)"  stroke="rgb(191,191,191)" stroke-width="1" font-size="16" >H</text>
<text x="247.319494" y="48.000000" fill="rgb(191,191,191)"  stroke="rgb(191,191,191)" stroke-width="1" font-size="16" >H</text>
</svg>
</g>
<text font-size="18.000000" fill ="black" font-family="sans-serif"
x="10.000000" y="20.000000" ></text>
</svg>
