<?xml version="1.0"?>
<svg version="1.1" id="topsvg"
xmlns="http://www.w3.org/2000/svg" xmlns:xlink="http://www.w3.org/1999/xlink"
xmlns:cml="http://www.xml-cml.org/schema" x="0" y="0" width="200px" height="200px" viewBox="0 0 100 100">
<title> - Open Babel Depiction</title>
<rect x="0" y="0" width="100" height="100" fill="white"/>
<g transform="translate(0,0)">
<svg width="100" height="100" x="0" y="0" viewBox="0 0 315.687 279.354"
font-family="sans-serif" stroke="rgb(0,0,0)" stroke-width="2"  stroke-linecap="round">
<line x1="98.1" y1="106.6" x2="81.3" y2="100.6" stroke="rgb(0,0,0)"  stroke-width="2.0"/>
<line x1="73.4" y1="83.9" x2="75.1" y2="79.4" stroke="rgb(0,0,0)"  stroke-width="2.0"/>
<line x1="56.8" y1="91.8" x2="52.2" y2="90.1" stroke="rgb(0,0,0)"  stroke-width="2.0"/>
<line x1="64.7" y1="108.4" x2="63.0" y2="113.0" stroke="rgb(0,0,0)"  stroke-width="2.0"/>
<line x1="139.6" y1="52.8" x2="141.7" y2="86.1" stroke="rgb(0,0,0)"  stroke-width="2.0"/>
<line x1="133.6" y1="53.2" x2="135.8" y2="86.5" stroke="rgb(0,0,0)"  stroke-width="2.0"/>
<line x1="174.1" y1="142.7" x2="175.7" y2="142.7" stroke="rgb(0,0,0)"  stroke-width="1.0"/>
<line x1="173.5" y1="135.5" x2="176.4" y2="135.5" stroke="rgb(0,0,0)"  stroke-width="1.0"/>
<line x1="173.0" y1="128.2" x2="177.1" y2="128.3" stroke="rgb(0,0,0)"  stroke-width="1.0"/>
<line x1="172.4" y1="121.0" x2="177.9" y2="121.0" stroke="rgb(0,0,0)"  stroke-width="1.0"/>
<line x1="171.9" y1="113.7" x2="178.6" y2="113.8" stroke="rgb(0,0,0)"  stroke-width="1.0"/>
<line x1="171.3" y1="106.5" x2="179.3" y2="106.6" stroke="rgb(0,0,0)"  stroke-width="1.0"/>
<polygon points="257.150441 107.852377 209.234254 95.815808 211.805098 88.240139 " stroke-width="2.000000" fill="rgb(0,0,0)"  stroke="rgb(0,0,0)" />
<line x1="257.2" y1="107.9" x2="270.5" y2="138.9" stroke="rgb(0,0,0)"  stroke-width="2.0"/>
<line x1="147.9" y1="217.0" x2="173.8" y2="232.6" stroke="rgb(0,0,0)"  stroke-width="2.0"/>
<polygon points="147.863925 217.046317 132.924643 173.991443 140.683603 172.042458 " stroke-width="2.000000" fill="rgb(0,0,0)"  stroke="rgb(0,0,0)" />
<line x1="174.8" y1="151.8" x2="212.9" y2="173.6" stroke="rgb(0,0,0)"  stroke-width="2.0"/>
<line x1="211.4" y1="171.0" x2="240.7" y2="153.9" stroke="rgb(0,0,0)"  stroke-width="2.0"/>
<line x1="214.4" y1="176.2" x2="243.7" y2="159.1" stroke="rgb(0,0,0)"  stroke-width="2.0"/>
<line x1="145.1" y1="216.3" x2="147.9" y2="217.0" stroke="rgb(0,0,0)"  stroke-width="2.0"/>
<line x1="147.9" y1="217.0" x2="136.8" y2="173.0" stroke="rgb(0,0,0)"  stroke-width="2.0"/>
<line x1="136.8" y1="173.0" x2="145.1" y2="216.3" stroke="rgb(0,0,0)"  stroke-width="2.0"/>
<line x1="210.5" y1="92.0" x2="175.3" y2="106.5" stroke="rgb(0,0,0)"  stroke-width="2.0"/>
<line x1="175.3" y1="106.5" x2="226.1" y2="98.7" stroke="rgb(0,0,0)"  stroke-width="2.0"/>
<line x1="226.1" y1="98.7" x2="257.2" y2="107.9" stroke="rgb(0,0,0)"  stroke-width="2.0"/>
<line x1="257.2" y1="107.9" x2="210.5" y2="92.0" stroke="rgb(0,0,0)"  stroke-width="2.0"/>
<line x1="97.6" y1="152.1" x2="98.1" y2="106.6" stroke="rgb(0,0,0)"  stroke-width="2.0"/>
<line x1="104.8" y1="146.2" x2="105.2" y2="112.7" stroke="rgb(0,0,0)"  stroke-width="2.0"/>
<line x1="98.1" y1="106.6" x2="138.8" y2="86.3" stroke="rgb(0,0,0)"  stroke-width="2.0"/>
<line x1="138.8" y1="86.3" x2="175.3" y2="106.5" stroke="rgb(0,0,0)"  stroke-width="2.0"/>
<line x1="175.3" y1="106.5" x2="174.8" y2="151.8" stroke="rgb(0,0,0)"  stroke-width="2.0"/>
<line x1="174.8" y1="151.8" x2="136.8" y2="173.0" stroke="rgb(0,0,0)"  stroke-width="2.0"/>
<line x1="136.8" y1="173.0" x2="97.6" y2="152.1" stroke="rgb(0,0,0)"  stroke-width="2.0"/>
<text x="63.047409" y="104.169227" fill="rgb(127,153,153)"  stroke="rgb(127,153,153)" stroke-width="1" font-size="16" >Si</text>
<text x="75.459175" y="75.118732" fill="rgb(102,102,102)"  stroke="rgb(102,102,102)" stroke-width="1" font-size="16" >CH</text>
<text x="99.459175" y="78.798732" fill="rgb(102,102,102)"  stroke="rgb(102,102,102)" stroke-width="1" font-size="13" >3</text>
<text x="14.000000" y="93.757461" fill="rgb(102,102,102)"  stroke="rgb(102,102,102)" stroke-width="1" font-size="16" >H</text>
<text x="26.000000" y="97.437461" fill="rgb(102,102,102)"  stroke="rgb(102,102,102)" stroke-width="1" font-size="13" >3</text>
<text x="32.500000" y="93.757461" fill="rgb(102,102,102)"  stroke="rgb(102,102,102)" stroke-width="1" font-size="16" >C</text>
<text x="32.635642" y="133.216636" fill="rgb(102,102,102)"  stroke="rgb(102,102,102)" stroke-width="1" font-size="16" >H</text>
<text x="44.635642" y="136.896636" fill="rgb(102,102,102)"  stroke="rgb(102,102,102)" stroke-width="1" font-size="13" >3</text>
<text x="51.135642" y="133.216636" fill="rgb(102,102,102)"  stroke="rgb(102,102,102)" stroke-width="1" font-size="16" >C</text>
<text x="129.767267" y="48.000000" fill="rgb(255,12,12)"  stroke="rgb(255,12,12)" stroke-width="1" font-size="16" >O</text>
<text x="180.919198" y="247.354159" fill="rgb(102,102,102)"  stroke="rgb(102,102,102)" stroke-width="1" font-size="16" >CH</text>
<text x="204.919198" y="251.034159" fill="rgb(102,102,102)"  stroke="rgb(102,102,102)" stroke-width="1" font-size="13" >3</text>
<text x="271.687336" y="158.823286" fill="rgb(102,102,102)"  stroke="rgb(102,102,102)" stroke-width="1" font-size="16" >CH</text>
<text x="295.687336" y="162.503286" fill="rgb(102,102,102)"  stroke="rgb(102,102,102)" stroke-width="1" font-size="13" >3</text>
<text x="249.419610" y="157.959239" fill="rgb(102,102,102)"  stroke="rgb(102,102,102)" stroke-width="1" font-size="16" >CH</text>
<text x="273.419610" y="161.639239" fill="rgb(102,102,102)"  stroke="rgb(102,102,102)" stroke-width="1" font-size="13" >2</text>
</svg>
</g>
<text font-size="18.000000" fill ="black" font-family="sans-serif"
x="10.000000" y="20.000000" ></text>
</svg>
