<?xml version="1.0"?>
<svg version="1.1" id="topsvg"
xmlns="http://www.w3.org/2000/svg" xmlns:xlink="http://www.w3.org/1999/xlink"
xmlns:cml="http://www.xml-cml.org/schema" x="0" y="0" width="200px" height="200px" viewBox="0 0 100 100">
<title> - Open Babel Depiction</title>
<rect x="0" y="0" width="100" height="100" fill="white"/>
<g transform="translate(0,0)">
<svg width="100" height="100" x="0" y="0" viewBox="0 0 387.568 343.595"
font-family="sans-serif" stroke="rgb(0,0,0)" stroke-width="2"  stroke-linecap="round">
<line x1="334.8" y1="266.0" x2="307.4" y2="271.1" stroke="rgb(0,0,0)"  stroke-width="2.0"/>
<line x1="323.2" y1="293.1" x2="307.4" y2="271.1" stroke="rgb(0,0,0)"  stroke-width="2.0"/>
<line x1="286.2" y1="167.6" x2="286.4" y2="208.8" stroke="rgb(0,0,0)"  stroke-width="2.0"/>
<line x1="251.2" y1="147.0" x2="216.6" y2="163.2" stroke="rgb(0,0,0)"  stroke-width="2.0"/>
<polygon points="251.237437 146.969591 247.497664 105.767775 255.497505 105.818317 " stroke-width="2.000000" fill="rgb(0,0,0)"  stroke="rgb(0,0,0)" />
<line x1="192.9" y1="148.8" x2="217.9" y2="160.5" stroke="rgb(0,0,0)"  stroke-width="2.0"/>
<line x1="190.4" y1="154.2" x2="215.4" y2="165.9" stroke="rgb(0,0,0)"  stroke-width="2.0"/>
<line x1="181.0" y1="106.4" x2="214.9" y2="85.8" stroke="rgb(0,0,0)"  stroke-width="2.0"/>
<line x1="211.9" y1="85.7" x2="212.4" y2="57.9" stroke="rgb(0,0,0)"  stroke-width="2.0"/>
<line x1="217.9" y1="85.8" x2="218.4" y2="58.0" stroke="rgb(0,0,0)"  stroke-width="2.0"/>
<line x1="111.0" y1="106.2" x2="146.3" y2="85.5" stroke="rgb(0,0,0)"  stroke-width="2.0"/>
<line x1="147.8" y1="83.0" x2="182.5" y2="103.8" stroke="rgb(0,0,0)"  stroke-width="2.0"/>
<line x1="144.7" y1="88.1" x2="179.4" y2="108.9" stroke="rgb(0,0,0)"  stroke-width="2.0"/>
<line x1="251.5" y1="105.8" x2="214.9" y2="85.8" stroke="rgb(0,0,0)"  stroke-width="2.0"/>
<line x1="250.7" y1="99.4" x2="252.3" y2="99.4" stroke="rgb(0,0,0)"  stroke-width="1.0"/>
<line x1="250.1" y1="94.3" x2="253.0" y2="94.4" stroke="rgb(0,0,0)"  stroke-width="1.0"/>
<line x1="249.5" y1="89.3" x2="253.6" y2="89.3" stroke="rgb(0,0,0)"  stroke-width="1.0"/>
<line x1="248.8" y1="84.2" x2="254.3" y2="84.2" stroke="rgb(0,0,0)"  stroke-width="1.0"/>
<line x1="248.2" y1="79.1" x2="254.9" y2="79.1" stroke="rgb(0,0,0)"  stroke-width="1.0"/>
<line x1="247.6" y1="74.0" x2="255.6" y2="74.0" stroke="rgb(0,0,0)"  stroke-width="1.0"/>
<line x1="291.7" y1="51.9" x2="291.1" y2="51.0" stroke="rgb(0,0,0)"  stroke-width="2.0"/>
<line x1="292.7" y1="74.4" x2="286.2" y2="86.9" stroke="rgb(0,0,0)"  stroke-width="2.0"/>
<line x1="111.3" y1="147.1" x2="75.5" y2="167.7" stroke="rgb(0,0,0)"  stroke-width="2.0"/>
<line x1="102.5" y1="143.9" x2="77.1" y2="158.5" stroke="rgb(0,0,0)"  stroke-width="2.0"/>
<line x1="75.5" y1="167.7" x2="40.0" y2="147.1" stroke="rgb(0,0,0)"  stroke-width="2.0"/>
<line x1="40.0" y1="147.1" x2="40.6" y2="106.2" stroke="rgb(0,0,0)"  stroke-width="2.0"/>
<line x1="47.3" y1="141.2" x2="47.7" y2="112.3" stroke="rgb(0,0,0)"  stroke-width="2.0"/>
<line x1="40.6" y1="106.2" x2="75.5" y2="85.9" stroke="rgb(0,0,0)"  stroke-width="2.0"/>
<line x1="75.5" y1="85.9" x2="111.0" y2="106.2" stroke="rgb(0,0,0)"  stroke-width="2.0"/>
<line x1="77.1" y1="95.1" x2="102.2" y2="109.5" stroke="rgb(0,0,0)"  stroke-width="2.0"/>
<line x1="111.0" y1="106.2" x2="111.3" y2="147.1" stroke="rgb(0,0,0)"  stroke-width="2.0"/>
<line x1="265.5" y1="270.5" x2="257.5" y2="243.9" stroke="rgb(0,0,0)"  stroke-width="2.0"/>
<line x1="264.4" y1="224.1" x2="286.4" y2="208.8" stroke="rgb(0,0,0)"  stroke-width="2.0"/>
<line x1="286.4" y1="208.8" x2="308.5" y2="224.0" stroke="rgb(0,0,0)"  stroke-width="2.0"/>
<line x1="287.3" y1="218.1" x2="302.8" y2="228.8" stroke="rgb(0,0,0)"  stroke-width="2.0"/>
<line x1="315.7" y1="243.9" x2="307.4" y2="271.1" stroke="rgb(0,0,0)"  stroke-width="2.0"/>
<line x1="307.4" y1="271.1" x2="265.5" y2="270.5" stroke="rgb(0,0,0)"  stroke-width="2.0"/>
<line x1="251.5" y1="105.8" x2="251.2" y2="147.0" stroke="rgb(0,0,0)"  stroke-width="2.0"/>
<line x1="251.2" y1="147.0" x2="286.2" y2="167.6" stroke="rgb(0,0,0)"  stroke-width="2.0"/>
<line x1="286.2" y1="167.6" x2="321.9" y2="147.2" stroke="rgb(0,0,0)"  stroke-width="2.0"/>
<line x1="287.9" y1="158.4" x2="313.1" y2="143.9" stroke="rgb(0,0,0)"  stroke-width="2.0"/>
<line x1="321.9" y1="147.2" x2="321.9" y2="105.5" stroke="rgb(0,0,0)"  stroke-width="2.0"/>
<line x1="321.9" y1="105.5" x2="286.2" y2="86.9" stroke="rgb(0,0,0)"  stroke-width="2.0"/>
<line x1="313.3" y1="109.1" x2="288.2" y2="96.0" stroke="rgb(0,0,0)"  stroke-width="2.0"/>
<line x1="286.2" y1="86.9" x2="251.5" y2="105.8" stroke="rgb(0,0,0)"  stroke-width="2.0"/>
<text x="247.673614" y="239.466191" fill="rgb(255,12,12)"  stroke="rgb(255,12,12)" stroke-width="1" font-size="16" >O</text>
<text x="313.463950" y="239.466191" fill="rgb(12,12,255)"  stroke="rgb(12,12,255)" stroke-width="1" font-size="16" >N</text>
<text x="343.568060" y="271.613434" fill="rgb(102,102,102)"  stroke="rgb(102,102,102)" stroke-width="1" font-size="16" >CH</text>
<text x="367.568060" y="275.293434" fill="rgb(102,102,102)"  stroke="rgb(102,102,102)" stroke-width="1" font-size="13" >3</text>
<text x="326.829164" y="311.594924" fill="rgb(102,102,102)"  stroke="rgb(102,102,102)" stroke-width="1" font-size="16" >CH</text>
<text x="350.829164" y="315.274924" fill="rgb(102,102,102)"  stroke="rgb(102,102,102)" stroke-width="1" font-size="13" >3</text>
<text x="153.870179" y="154.010295" fill="rgb(102,102,102)"  stroke="rgb(102,102,102)" stroke-width="1" font-size="16" >H</text>
<text x="165.870179" y="157.690295" fill="rgb(102,102,102)"  stroke="rgb(102,102,102)" stroke-width="1" font-size="13" >2</text>
<text x="172.370179" y="154.010295" fill="rgb(102,102,102)"  stroke="rgb(102,102,102)" stroke-width="1" font-size="16" >C</text>
<text x="209.692011" y="52.948231" fill="rgb(255,12,12)"  stroke="rgb(255,12,12)" stroke-width="1" font-size="16" >O</text>
<text x="292.673792" y="70.836113" fill="rgb(255,12,12)"  stroke="rgb(255,12,12)" stroke-width="1" font-size="16" >O</text>
<text x="258.086537" y="48.000000" fill="rgb(102,102,102)"  stroke="rgb(102,102,102)" stroke-width="1" font-size="16" >H</text>
<text x="270.086537" y="51.680000" fill="rgb(102,102,102)"  stroke="rgb(102,102,102)" stroke-width="1" font-size="13" >3</text>
<text x="276.586537" y="48.000000" fill="rgb(102,102,102)"  stroke="rgb(102,102,102)" stroke-width="1" font-size="16" >C</text>
<text x="247.638498" y="66.343141" fill="rgb(102,102,102)"  stroke="rgb(102,102,102)" stroke-width="1" font-size="16" >CH</text>
<text x="271.638498" y="70.023141" fill="rgb(102,102,102)"  stroke="rgb(102,102,102)" stroke-width="1" font-size="13" >3</text>
</svg>
</g>
<text font-size="18.000000" fill ="black" font-family="sans-serif"
x="10.000000" y="20.000000" ></text>
</svg>
