<?xml version="1.0"?>
<svg version="1.1" id="topsvg"
xmlns="http://www.w3.org/2000/svg" xmlns:xlink="http://www.w3.org/1999/xlink"
xmlns:cml="http://www.xml-cml.org/schema" x="0" y="0" width="200px" height="200px" viewBox="0 0 100 100">
<title> - Open Babel Depiction</title>
<rect x="0" y="0" width="100" height="100" fill="white"/>
<g transform="translate(0,0)">
<svg width="100" height="100" x="0" y="0" viewBox="0 0 288.752 258.036"
font-family="sans-serif" stroke="rgb(0,0,0)" stroke-width="2"  stroke-linecap="round">
<line x1="122.2" y1="142.6" x2="145.3" y2="153.7" stroke="rgb(0,0,0)"  stroke-width="2.0"/>
<line x1="119.6" y1="148.1" x2="142.7" y2="159.1" stroke="rgb(0,0,0)"  stroke-width="2.0"/>
<polygon points="178.952438 140.552613 145.608197 160.009130 142.313975 152.718856 " stroke-width="2.000000" fill="rgb(0,0,0)"  stroke="rgb(0,0,0)" />
<line x1="171.7" y1="96.3" x2="172.5" y2="94.9" stroke="rgb(0,0,0)"  stroke-width="1.0"/>
<line x1="165.8" y1="93.8" x2="167.2" y2="91.3" stroke="rgb(0,0,0)"  stroke-width="1.0"/>
<line x1="159.9" y1="91.2" x2="161.9" y2="87.6" stroke="rgb(0,0,0)"  stroke-width="1.0"/>
<line x1="154.0" y1="88.7" x2="156.7" y2="83.9" stroke="rgb(0,0,0)"  stroke-width="1.0"/>
<line x1="148.1" y1="86.1" x2="151.4" y2="80.2" stroke="rgb(0,0,0)"  stroke-width="1.0"/>
<line x1="142.2" y1="83.5" x2="146.1" y2="76.6" stroke="rgb(0,0,0)"  stroke-width="1.0"/>
<line x1="206.5" y1="80.5" x2="209.2" y2="52.7" stroke="rgb(0,0,0)"  stroke-width="2.0"/>
<line x1="212.5" y1="81.0" x2="215.2" y2="53.2" stroke="rgb(0,0,0)"  stroke-width="2.0"/>
<line x1="214.2" y1="168.4" x2="212.6" y2="168.3" stroke="rgb(0,0,0)"  stroke-width="1.0"/>
<line x1="214.7" y1="174.8" x2="211.8" y2="174.8" stroke="rgb(0,0,0)"  stroke-width="1.0"/>
<line x1="215.2" y1="181.2" x2="211.1" y2="181.2" stroke="rgb(0,0,0)"  stroke-width="1.0"/>
<line x1="215.7" y1="187.7" x2="210.3" y2="187.6" stroke="rgb(0,0,0)"  stroke-width="1.0"/>
<line x1="216.3" y1="194.1" x2="209.6" y2="194.0" stroke="rgb(0,0,0)"  stroke-width="1.0"/>
<line x1="216.8" y1="200.6" x2="208.8" y2="200.4" stroke="rgb(0,0,0)"  stroke-width="1.0"/>
<line x1="109.4" y1="100.1" x2="144.2" y2="80.0" stroke="rgb(0,0,0)"  stroke-width="2.0"/>
<line x1="75.2" y1="79.8" x2="109.4" y2="100.1" stroke="rgb(0,0,0)"  stroke-width="2.0"/>
<line x1="49.6" y1="91.7" x2="73.7" y2="77.2" stroke="rgb(0,0,0)"  stroke-width="2.0"/>
<line x1="52.7" y1="96.8" x2="76.8" y2="82.4" stroke="rgb(0,0,0)"  stroke-width="2.0"/>
<line x1="214.1" y1="197.8" x2="238.4" y2="209.6" stroke="rgb(0,0,0)"  stroke-width="2.0"/>
<line x1="211.5" y1="203.2" x2="235.8" y2="215.0" stroke="rgb(0,0,0)"  stroke-width="2.0"/>
<line x1="179.0" y1="99.5" x2="209.5" y2="80.7" stroke="rgb(0,0,0)"  stroke-width="2.0"/>
<line x1="209.5" y1="80.7" x2="248.0" y2="99.7" stroke="rgb(0,0,0)"  stroke-width="2.0"/>
<line x1="248.0" y1="99.7" x2="248.7" y2="141.1" stroke="rgb(0,0,0)"  stroke-width="2.0"/>
<line x1="248.7" y1="141.1" x2="213.5" y2="160.3" stroke="rgb(0,0,0)"  stroke-width="2.0"/>
<line x1="213.5" y1="160.3" x2="179.0" y2="140.6" stroke="rgb(0,0,0)"  stroke-width="2.0"/>
<line x1="179.0" y1="140.6" x2="179.0" y2="99.5" stroke="rgb(0,0,0)"  stroke-width="2.0"/>
<text x="83.161161" y="147.754998" fill="rgb(102,102,102)"  stroke="rgb(102,102,102)" stroke-width="1" font-size="16" >H</text>
<text x="95.161161" y="151.434998" fill="rgb(102,102,102)"  stroke="rgb(102,102,102)" stroke-width="1" font-size="13" >2</text>
<text x="101.661161" y="147.754998" fill="rgb(102,102,102)"  stroke="rgb(102,102,102)" stroke-width="1" font-size="16" >C</text>
<text x="207.412047" y="48.000000" fill="rgb(255,12,12)"  stroke="rgb(255,12,12)" stroke-width="1" font-size="16" >O</text>
<text x="14.000000" y="108.932437" fill="rgb(102,102,102)"  stroke="rgb(102,102,102)" stroke-width="1" font-size="16" >H</text>
<text x="26.000000" y="112.612437" fill="rgb(102,102,102)"  stroke="rgb(102,102,102)" stroke-width="1" font-size="13" >2</text>
<text x="32.500000" y="108.932437" fill="rgb(102,102,102)"  stroke="rgb(102,102,102)" stroke-width="1" font-size="16" >C</text>
<text x="242.751691" y="226.035553" fill="rgb(255,12,12)"  stroke="rgb(255,12,12)" stroke-width="1" font-size="16" >O</text>
</svg>
</g>
<text font-size="18.000000" fill ="black" font-family="sans-serif"
x="10.000000" y="20.000000" ></text>
</svg>
