<?xml version="1.0"?>
<svg version="1.1" id="topsvg"
xmlns="http://www.w3.org/2000/svg" xmlns:xlink="http://www.w3.org/1999/xlink"
xmlns:cml="http://www.xml-cml.org/schema" x="0" y="0" width="200px" height="200px" viewBox="0 0 100 100">
<title> - Open Babel Depiction</title>
<rect x="0" y="0" width="100" height="100" fill="white"/>
<g transform="translate(0,0)">
<svg width="100" height="100" x="0" y="0" viewBox="0 0 353.331 254.216"
font-family="sans-serif" stroke="rgb(0,0,0)" stroke-width="2"  stroke-linecap="round">
<line x1="120.5" y1="156.0" x2="130.6" y2="194.7" stroke="rgb(0,0,0)"  stroke-width="2.0"/>
<line x1="68.2" y1="77.9" x2="67.9" y2="78.7" stroke="rgb(0,0,0)"  stroke-width="2.0"/>
<line x1="51.4" y1="85.4" x2="52.1" y2="85.7" stroke="rgb(0,0,0)"  stroke-width="2.0"/>
<line x1="58.9" y1="102.2" x2="59.2" y2="101.5" stroke="rgb(0,0,0)"  stroke-width="2.0"/>
<line x1="75.7" y1="94.7" x2="87.1" y2="99.0" stroke="rgb(0,0,0)"  stroke-width="2.0"/>
<line x1="120.3" y1="80.6" x2="157.8" y2="48.4" stroke="rgb(0,0,0)"  stroke-width="2.0"/>
<polygon points="198.787598 91.635949 154.440722 102.296073 153.260311 94.383638 " stroke-width="2.000000" fill="rgb(0,0,0)"  stroke="rgb(0,0,0)" />
<line x1="198.8" y1="91.6" x2="229.6" y2="98.6" stroke="rgb(0,0,0)"  stroke-width="2.0"/>
<line x1="236.3" y1="201.3" x2="256.1" y2="167.9" stroke="rgb(0,0,0)"  stroke-width="2.0"/>
<line x1="241.5" y1="204.4" x2="261.2" y2="170.9" stroke="rgb(0,0,0)"  stroke-width="2.0"/>
<line x1="258.6" y1="169.4" x2="248.7" y2="132.6" stroke="rgb(0,0,0)"  stroke-width="2.0"/>
<line x1="215.8" y1="210.3" x2="238.9" y2="202.9" stroke="rgb(0,0,0)"  stroke-width="2.0"/>
<line x1="151.9" y1="207.5" x2="130.6" y2="194.7" stroke="rgb(0,0,0)"  stroke-width="2.0"/>
<line x1="153.1" y1="130.0" x2="154.7" y2="130.0" stroke="rgb(0,0,0)"  stroke-width="1.0"/>
<line x1="152.4" y1="123.6" x2="155.3" y2="123.6" stroke="rgb(0,0,0)"  stroke-width="1.0"/>
<line x1="151.8" y1="117.3" x2="156.0" y2="117.3" stroke="rgb(0,0,0)"  stroke-width="1.0"/>
<line x1="151.1" y1="111.0" x2="156.6" y2="111.0" stroke="rgb(0,0,0)"  stroke-width="1.0"/>
<line x1="150.5" y1="104.7" x2="157.2" y2="104.7" stroke="rgb(0,0,0)"  stroke-width="1.0"/>
<line x1="149.9" y1="98.3" x2="157.9" y2="98.3" stroke="rgb(0,0,0)"  stroke-width="1.0"/>
<line x1="153.9" y1="137.9" x2="187.5" y2="157.1" stroke="rgb(0,0,0)"  stroke-width="2.0"/>
<line x1="255.3" y1="69.2" x2="255.0" y2="68.8" stroke="rgb(0,0,0)"  stroke-width="2.0"/>
<line x1="186.0" y1="154.5" x2="209.1" y2="141.0" stroke="rgb(0,0,0)"  stroke-width="2.0"/>
<line x1="189.0" y1="159.7" x2="212.1" y2="146.2" stroke="rgb(0,0,0)"  stroke-width="2.0"/>
<line x1="185.0" y1="85.8" x2="198.8" y2="91.6" stroke="rgb(0,0,0)"  stroke-width="2.0"/>
<line x1="198.8" y1="91.6" x2="153.9" y2="98.3" stroke="rgb(0,0,0)"  stroke-width="2.0"/>
<line x1="153.9" y1="98.3" x2="185.0" y2="85.8" stroke="rgb(0,0,0)"  stroke-width="2.0"/>
<line x1="250.6" y1="86.3" x2="229.6" y2="98.6" stroke="rgb(0,0,0)"  stroke-width="2.0"/>
<line x1="229.6" y1="98.6" x2="300.5" y2="110.4" stroke="rgb(0,0,0)"  stroke-width="2.0"/>
<line x1="302.4" y1="105.5" x2="272.9" y2="86.8" stroke="rgb(0,0,0)"  stroke-width="2.0"/>
<line x1="248.7" y1="132.6" x2="229.6" y2="98.6" stroke="rgb(0,0,0)"  stroke-width="2.0"/>
<line x1="300.9" y1="116.3" x2="248.7" y2="132.6" stroke="rgb(0,0,0)"  stroke-width="2.0"/>
<line x1="248.7" y1="132.6" x2="258.7" y2="92.4" stroke="rgb(0,0,0)"  stroke-width="2.0"/>
<line x1="87.1" y1="99.0" x2="86.8" y2="138.4" stroke="rgb(0,0,0)"  stroke-width="2.0"/>
<line x1="86.8" y1="138.4" x2="120.5" y2="156.0" stroke="rgb(0,0,0)"  stroke-width="2.0"/>
<line x1="95.4" y1="134.8" x2="118.6" y2="146.8" stroke="rgb(0,0,0)"  stroke-width="2.0"/>
<line x1="120.5" y1="156.0" x2="153.9" y2="137.9" stroke="rgb(0,0,0)"  stroke-width="2.0"/>
<line x1="153.9" y1="137.9" x2="153.9" y2="98.3" stroke="rgb(0,0,0)"  stroke-width="2.0"/>
<line x1="153.9" y1="98.3" x2="120.3" y2="80.6" stroke="rgb(0,0,0)"  stroke-width="2.0"/>
<line x1="120.3" y1="80.6" x2="87.1" y2="99.0" stroke="rgb(0,0,0)"  stroke-width="2.0"/>
<line x1="118.5" y1="89.8" x2="95.8" y2="102.4" stroke="rgb(0,0,0)"  stroke-width="2.0"/>
<text x="57.537992" y="98.063895" fill="rgb(127,153,153)"  stroke="rgb(127,153,153)" stroke-width="1" font-size="16" >Si</text>
<text x="68.516842" y="74.523384" fill="rgb(102,102,102)"  stroke="rgb(102,102,102)" stroke-width="1" font-size="16" >CH</text>
<text x="92.516842" y="78.203384" fill="rgb(102,102,102)"  stroke="rgb(102,102,102)" stroke-width="1" font-size="13" >3</text>
<text x="14.000000" y="89.085044" fill="rgb(102,102,102)"  stroke="rgb(102,102,102)" stroke-width="1" font-size="16" >H</text>
<text x="26.000000" y="92.765044" fill="rgb(102,102,102)"  stroke="rgb(102,102,102)" stroke-width="1" font-size="13" >3</text>
<text x="32.500000" y="89.085044" fill="rgb(102,102,102)"  stroke="rgb(102,102,102)" stroke-width="1" font-size="16" >C</text>
<text x="28.561660" y="121.601886" fill="rgb(102,102,102)"  stroke="rgb(102,102,102)" stroke-width="1" font-size="16" >H</text>
<text x="40.561660" y="125.281886" fill="rgb(102,102,102)"  stroke="rgb(102,102,102)" stroke-width="1" font-size="13" >3</text>
<text x="47.061660" y="121.601886" fill="rgb(102,102,102)"  stroke="rgb(102,102,102)" stroke-width="1" font-size="16" >C</text>
<text x="161.724403" y="48.000000" fill="rgb(17,127,178)"  stroke="rgb(17,127,178)" stroke-width="1" font-size="16" >Xx</text>
<text x="255.883927" y="87.800192" fill="rgb(239,142,160)"  stroke="rgb(239,142,160)" stroke-width="1" font-size="16" >Co</text>
<text x="307.330927" y="120.480789" fill="rgb(17,127,178)"  stroke="rgb(17,127,178)" stroke-width="1" font-size="16" >Xx</text>
<text x="177.382835" y="222.215904" fill="rgb(102,102,102)"  stroke="rgb(102,102,102)" stroke-width="1" font-size="16" >H</text>
<text x="189.382835" y="225.895904" fill="rgb(102,102,102)"  stroke="rgb(102,102,102)" stroke-width="1" font-size="13" >3</text>
<text x="195.882835" y="222.215904" fill="rgb(102,102,102)"  stroke="rgb(102,102,102)" stroke-width="1" font-size="16" >C</text>
<text x="159.025874" y="222.203307" fill="rgb(102,102,102)"  stroke="rgb(102,102,102)" stroke-width="1" font-size="16" >CH</text>
<text x="183.025874" y="225.883307" fill="rgb(102,102,102)"  stroke="rgb(102,102,102)" stroke-width="1" font-size="13" >3</text>
<text x="230.365264" y="66.204595" fill="rgb(17,127,178)"  stroke="rgb(17,127,178)" stroke-width="1" font-size="16" >Xx</text>
<text x="217.841881" y="145.049182" fill="rgb(102,102,102)"  stroke="rgb(102,102,102)" stroke-width="1" font-size="16" >CH</text>
<text x="241.841881" y="148.729182" fill="rgb(102,102,102)"  stroke="rgb(102,102,102)" stroke-width="1" font-size="13" >2</text>
</svg>
</g>
<text font-size="18.000000" fill ="black" font-family="sans-serif"
x="10.000000" y="20.000000" ></text>
</svg>
