<?xml version="1.0"?>
<svg version="1.1" id="topsvg"
xmlns="http://www.w3.org/2000/svg" xmlns:xlink="http://www.w3.org/1999/xlink"
xmlns:cml="http://www.xml-cml.org/schema" x="0" y="0" width="200px" height="200px" viewBox="0 0 100 100">
<title> - Open Babel Depiction</title>
<rect x="0" y="0" width="100" height="100" fill="white"/>
<g transform="translate(0,0)">
<svg width="100" height="100" x="0" y="0" viewBox="0 0 385.303 284.495"
font-family="sans-serif" stroke="rgb(0,0,0)" stroke-width="2"  stroke-linecap="round">
<polygon points="118.56 152.321 122.58 189.447 114.58 189.451 " stroke-width="2" fill="rgb(0,0,0)"  stroke="rgb(0,0,0)" />
<line x1="118.6" y1="189.4" x2="138.4" y2="202.0" stroke="rgb(0,0,0)"  stroke-width="2.0"/>
<line x1="86.0" y1="96.5" x2="75.2" y2="92.4" stroke="rgb(0,0,0)"  stroke-width="2.0"/>
<line x1="67.6" y1="75.7" x2="67.0" y2="77.0" stroke="rgb(0,0,0)"  stroke-width="2.0"/>
<line x1="50.8" y1="83.3" x2="52.2" y2="83.8" stroke="rgb(0,0,0)"  stroke-width="2.0"/>
<line x1="58.4" y1="100.0" x2="58.9" y2="98.7" stroke="rgb(0,0,0)"  stroke-width="2.0"/>
<line x1="153.8" y1="48.3" x2="118.0" y2="77.9" stroke="rgb(0,0,0)"  stroke-width="2.0"/>
<line x1="157.1" y1="136.2" x2="156.4" y2="137.6" stroke="rgb(0,0,0)"  stroke-width="1.0"/>
<line x1="162.7" y1="138.4" x2="161.4" y2="141.0" stroke="rgb(0,0,0)"  stroke-width="1.0"/>
<line x1="168.4" y1="140.7" x2="166.4" y2="144.4" stroke="rgb(0,0,0)"  stroke-width="1.0"/>
<line x1="174.0" y1="142.9" x2="171.5" y2="147.7" stroke="rgb(0,0,0)"  stroke-width="1.0"/>
<line x1="179.7" y1="145.2" x2="176.5" y2="151.1" stroke="rgb(0,0,0)"  stroke-width="1.0"/>
<line x1="185.3" y1="147.4" x2="181.6" y2="154.5" stroke="rgb(0,0,0)"  stroke-width="1.0"/>
<line x1="238.3" y1="152.9" x2="219.0" y2="121.0" stroke="rgb(0,0,0)"  stroke-width="2.0"/>
<line x1="219.0" y1="121.0" x2="237.4" y2="98.6" stroke="rgb(0,0,0)"  stroke-width="2.0"/>
<line x1="258.5" y1="90.6" x2="256.3" y2="90.3" stroke="rgb(0,0,0)"  stroke-width="2.0"/>
<line x1="320.4" y1="168.7" x2="337.7" y2="144.5" stroke="rgb(0,0,0)"  stroke-width="2.0"/>
<line x1="247.1" y1="227.2" x2="248.0" y2="188.9" stroke="rgb(0,0,0)"  stroke-width="2.0"/>
<line x1="212.3" y1="241.8" x2="245.8" y2="224.6" stroke="rgb(0,0,0)"  stroke-width="2.0"/>
<line x1="215.0" y1="247.2" x2="248.5" y2="229.9" stroke="rgb(0,0,0)"  stroke-width="2.0"/>
<line x1="182.5" y1="226.9" x2="138.4" y2="202.0" stroke="rgb(0,0,0)"  stroke-width="2.0"/>
<line x1="180.4" y1="230.5" x2="136.3" y2="205.7" stroke="rgb(0,0,0)"  stroke-width="2.0"/>
<line x1="184.5" y1="223.2" x2="140.5" y2="198.4" stroke="rgb(0,0,0)"  stroke-width="2.0"/>
<line x1="182.5" y1="226.9" x2="213.6" y2="244.5" stroke="rgb(0,0,0)"  stroke-width="2.0"/>
<line x1="180.1" y1="177.5" x2="180.4" y2="150.9" stroke="rgb(0,0,0)"  stroke-width="2.0"/>
<line x1="186.1" y1="177.6" x2="186.4" y2="151.0" stroke="rgb(0,0,0)"  stroke-width="2.0"/>
<line x1="248.0" y1="188.9" x2="238.3" y2="152.9" stroke="rgb(0,0,0)"  stroke-width="2.0"/>
<line x1="238.3" y1="152.9" x2="300.6" y2="175.0" stroke="rgb(0,0,0)"  stroke-width="2.0"/>
<line x1="300.0" y1="181.2" x2="248.0" y2="188.9" stroke="rgb(0,0,0)"  stroke-width="2.0"/>
<line x1="290.3" y1="145.2" x2="238.3" y2="152.9" stroke="rgb(0,0,0)"  stroke-width="2.0"/>
<line x1="309.5" y1="166.8" x2="306.5" y2="155.8" stroke="rgb(0,0,0)"  stroke-width="2.0"/>
<line x1="248.0" y1="188.9" x2="259.7" y2="166.7" stroke="rgb(0,0,0)"  stroke-width="2.0"/>
<line x1="259.7" y1="166.7" x2="291.7" y2="149.4" stroke="rgb(0,0,0)"  stroke-width="2.0"/>
<line x1="85.8" y1="133.8" x2="118.6" y2="152.3" stroke="rgb(0,0,0)"  stroke-width="2.0"/>
<line x1="118.6" y1="152.3" x2="150.0" y2="133.4" stroke="rgb(0,0,0)"  stroke-width="2.0"/>
<line x1="150.0" y1="133.4" x2="150.8" y2="95.6" stroke="rgb(0,0,0)"  stroke-width="2.0"/>
<line x1="150.8" y1="95.6" x2="118.0" y2="77.9" stroke="rgb(0,0,0)"  stroke-width="2.0"/>
<line x1="142.1" y1="99.1" x2="119.8" y2="87.1" stroke="rgb(0,0,0)"  stroke-width="2.0"/>
<line x1="118.0" y1="77.9" x2="86.0" y2="96.5" stroke="rgb(0,0,0)"  stroke-width="2.0"/>
<line x1="86.0" y1="96.5" x2="85.8" y2="133.8" stroke="rgb(0,0,0)"  stroke-width="2.0"/>
<line x1="93.2" y1="102.5" x2="93.0" y2="127.8" stroke="rgb(0,0,0)"  stroke-width="2.0"/>
<text x="56.998611" y="95.868346" fill="rgb(127,153,153)"  stroke="rgb(127,153,153)" stroke-width="1" font-size="16" >Si</text>
<text x="67.605288" y="72.869735" fill="rgb(102,102,102)"  stroke="rgb(102,102,102)" stroke-width="1" font-size="16" >CH</text>
<text x="91.605288" y="76.549735" fill="rgb(102,102,102)"  stroke="rgb(102,102,102)" stroke-width="1" font-size="13" >3</text>
<text x="14.000000" y="87.261670" fill="rgb(102,102,102)"  stroke="rgb(102,102,102)" stroke-width="1" font-size="16" >H</text>
<text x="26.000000" y="90.941670" fill="rgb(102,102,102)"  stroke="rgb(102,102,102)" stroke-width="1" font-size="13" >3</text>
<text x="32.500000" y="87.261670" fill="rgb(102,102,102)"  stroke="rgb(102,102,102)" stroke-width="1" font-size="16" >C</text>
<text x="28.391935" y="118.864502" fill="rgb(102,102,102)"  stroke="rgb(102,102,102)" stroke-width="1" font-size="16" >H</text>
<text x="40.391935" y="122.544502" fill="rgb(102,102,102)"  stroke="rgb(102,102,102)" stroke-width="1" font-size="13" >3</text>
<text x="46.891935" y="118.864502" fill="rgb(102,102,102)"  stroke="rgb(102,102,102)" stroke-width="1" font-size="16" >C</text>
<text x="157.860021" y="48.000000" fill="rgb(17,127,178)"  stroke="rgb(17,127,178)" stroke-width="1" font-size="16" >Xx</text>
<text x="239.646776" y="96.511698" fill="rgb(255,12,12)"  stroke="rgb(255,12,12)" stroke-width="1" font-size="16" >O</text>
<text x="297.177682" y="151.243286" fill="rgb(17,127,178)"  stroke="rgb(17,127,178)" stroke-width="1" font-size="16" >Xx</text>
<text x="306.818142" y="187.317661" fill="rgb(17,127,178)"  stroke="rgb(17,127,178)" stroke-width="1" font-size="16" >Xx</text>
<text x="156.946953" y="198.512480" fill="rgb(102,102,102)"  stroke="rgb(102,102,102)" stroke-width="1" font-size="16" >H</text>
<text x="168.946953" y="202.192480" fill="rgb(102,102,102)"  stroke="rgb(102,102,102)" stroke-width="1" font-size="13" >2</text>
<text x="175.446953" y="198.512480" fill="rgb(102,102,102)"  stroke="rgb(102,102,102)" stroke-width="1" font-size="16" >C</text>
<text x="341.302515" y="141.912224" fill="rgb(102,102,102)"  stroke="rgb(102,102,102)" stroke-width="1" font-size="16" >CH</text>
<text x="365.302515" y="145.592224" fill="rgb(102,102,102)"  stroke="rgb(102,102,102)" stroke-width="1" font-size="13" >3</text>
<text x="263.148774" y="100.386544" fill="rgb(191,191,191)"  stroke="rgb(191,191,191)" stroke-width="1" font-size="16" >H</text>
</svg>
</g>
<text font-size="18.000000" fill ="black" font-family="sans-serif"
x="10.000000" y="20.000000" ></text>
</svg>
