<?xml version="1.0"?>
<svg version="1.1" id="topsvg"
xmlns="http://www.w3.org/2000/svg" xmlns:xlink="http://www.w3.org/1999/xlink"
xmlns:cml="http://www.xml-cml.org/schema" x="0" y="0" width="200px" height="200px" viewBox="0 0 100 100">
<title> - Open Babel Depiction</title>
<rect x="0" y="0" width="100" height="100" fill="white"/>
<g transform="translate(0,0)">
<svg width="100" height="100" x="0" y="0" viewBox="0 0 285.587 337.33"
font-family="sans-serif" stroke="rgb(0,0,0)" stroke-width="2"  stroke-linecap="round">
<line x1="163.1" y1="265.0" x2="190.7" y2="257.7" stroke="rgb(0,0,0)"  stroke-width="2.0"/>
<line x1="190.7" y1="257.7" x2="182.3" y2="284.9" stroke="rgb(0,0,0)"  stroke-width="2.0"/>
<line x1="176.7" y1="137.7" x2="143.0" y2="153.4" stroke="rgb(0,0,0)"  stroke-width="2.0"/>
<line x1="177.4" y1="143.0" x2="175.8" y2="143.0" stroke="rgb(0,0,0)"  stroke-width="1.0"/>
<line x1="178.0" y1="147.3" x2="175.1" y2="147.2" stroke="rgb(0,0,0)"  stroke-width="1.0"/>
<line x1="178.5" y1="151.6" x2="174.4" y2="151.5" stroke="rgb(0,0,0)"  stroke-width="1.0"/>
<line x1="179.1" y1="155.9" x2="173.6" y2="155.7" stroke="rgb(0,0,0)"  stroke-width="1.0"/>
<line x1="179.6" y1="160.1" x2="172.9" y2="160.0" stroke="rgb(0,0,0)"  stroke-width="1.0"/>
<line x1="180.2" y1="164.4" x2="172.2" y2="164.2" stroke="rgb(0,0,0)"  stroke-width="1.0"/>
<line x1="143.1" y1="78.3" x2="108.9" y2="98.4" stroke="rgb(0,0,0)"  stroke-width="2.0"/>
<line x1="143.1" y1="78.3" x2="176.6" y2="99.7" stroke="rgb(0,0,0)"  stroke-width="2.0"/>
<line x1="49.8" y1="89.4" x2="73.5" y2="75.8" stroke="rgb(0,0,0)"  stroke-width="2.0"/>
<line x1="52.8" y1="94.6" x2="76.5" y2="81.0" stroke="rgb(0,0,0)"  stroke-width="2.0"/>
<line x1="75.0" y1="78.4" x2="108.9" y2="98.4" stroke="rgb(0,0,0)"  stroke-width="2.0"/>
<line x1="210.7" y1="78.2" x2="232.1" y2="50.3" stroke="rgb(0,0,0)"  stroke-width="2.0"/>
<line x1="211.1" y1="156.9" x2="210.1" y2="197.8" stroke="rgb(0,0,0)"  stroke-width="2.0"/>
<line x1="203.8" y1="153.8" x2="204.6" y2="152.4" stroke="rgb(0,0,0)"  stroke-width="1.0"/>
<line x1="198.0" y1="151.2" x2="199.4" y2="148.7" stroke="rgb(0,0,0)"  stroke-width="1.0"/>
<line x1="192.2" y1="148.7" x2="194.2" y2="145.1" stroke="rgb(0,0,0)"  stroke-width="1.0"/>
<line x1="186.4" y1="146.2" x2="189.1" y2="141.5" stroke="rgb(0,0,0)"  stroke-width="1.0"/>
<line x1="180.6" y1="143.7" x2="183.9" y2="137.8" stroke="rgb(0,0,0)"  stroke-width="1.0"/>
<line x1="174.8" y1="141.2" x2="178.7" y2="134.2" stroke="rgb(0,0,0)"  stroke-width="1.0"/>
<line x1="120.9" y1="140.0" x2="144.2" y2="150.7" stroke="rgb(0,0,0)"  stroke-width="2.0"/>
<line x1="118.4" y1="145.4" x2="141.7" y2="156.1" stroke="rgb(0,0,0)"  stroke-width="2.0"/>
<line x1="189.0" y1="212.9" x2="210.1" y2="197.8" stroke="rgb(0,0,0)"  stroke-width="2.0"/>
<line x1="194.9" y1="217.6" x2="209.4" y2="207.2" stroke="rgb(0,0,0)"  stroke-width="2.0"/>
<line x1="210.1" y1="197.8" x2="231.6" y2="213.9" stroke="rgb(0,0,0)"  stroke-width="2.0"/>
<line x1="237.8" y1="234.0" x2="229.5" y2="258.8" stroke="rgb(0,0,0)"  stroke-width="2.0"/>
<line x1="229.5" y1="258.8" x2="190.7" y2="257.7" stroke="rgb(0,0,0)"  stroke-width="2.0"/>
<line x1="190.7" y1="257.7" x2="182.6" y2="232.7" stroke="rgb(0,0,0)"  stroke-width="2.0"/>
<line x1="176.6" y1="99.7" x2="210.7" y2="78.2" stroke="rgb(0,0,0)"  stroke-width="2.0"/>
<line x1="185.6" y1="102.6" x2="209.5" y2="87.4" stroke="rgb(0,0,0)"  stroke-width="2.0"/>
<line x1="210.7" y1="78.2" x2="245.5" y2="97.7" stroke="rgb(0,0,0)"  stroke-width="2.0"/>
<line x1="245.5" y1="97.7" x2="245.6" y2="138.3" stroke="rgb(0,0,0)"  stroke-width="2.0"/>
<line x1="245.6" y1="138.3" x2="211.1" y2="156.9" stroke="rgb(0,0,0)"  stroke-width="2.0"/>
<line x1="211.1" y1="156.9" x2="176.7" y2="137.7" stroke="rgb(0,0,0)"  stroke-width="2.0"/>
<line x1="176.7" y1="137.7" x2="176.6" y2="99.7" stroke="rgb(0,0,0)"  stroke-width="2.0"/>
<text x="124.494260" y="276.345314" fill="rgb(102,102,102)"  stroke="rgb(102,102,102)" stroke-width="1" font-size="16" >H</text>
<text x="136.494260" y="280.025314" fill="rgb(102,102,102)"  stroke="rgb(102,102,102)" stroke-width="1" font-size="13" >3</text>
<text x="142.994260" y="276.345314" fill="rgb(102,102,102)"  stroke="rgb(102,102,102)" stroke-width="1" font-size="16" >C</text>
<text x="172.532320" y="228.366677" fill="rgb(12,12,255)"  stroke="rgb(12,12,255)" stroke-width="1" font-size="16" >N</text>
<text x="235.959963" y="229.689898" fill="rgb(255,12,12)"  stroke="rgb(255,12,12)" stroke-width="1" font-size="16" >O</text>
<text x="152.434792" y="305.329662" fill="rgb(102,102,102)"  stroke="rgb(102,102,102)" stroke-width="1" font-size="16" >H</text>
<text x="164.434792" y="309.009662" fill="rgb(102,102,102)"  stroke="rgb(102,102,102)" stroke-width="1" font-size="13" >3</text>
<text x="170.934792" y="305.329662" fill="rgb(102,102,102)"  stroke="rgb(102,102,102)" stroke-width="1" font-size="16" >C</text>
<text x="14.000000" y="106.437886" fill="rgb(102,102,102)"  stroke="rgb(102,102,102)" stroke-width="1" font-size="16" >H</text>
<text x="26.000000" y="110.117886" fill="rgb(102,102,102)"  stroke="rgb(102,102,102)" stroke-width="1" font-size="13" >2</text>
<text x="32.500000" y="106.437886" fill="rgb(102,102,102)"  stroke="rgb(102,102,102)" stroke-width="1" font-size="16" >C</text>
<text x="233.977767" y="48.000000" fill="rgb(17,127,178)"  stroke="rgb(17,127,178)" stroke-width="1" font-size="16" >Xx</text>
<text x="81.858590" y="145.277861" fill="rgb(102,102,102)"  stroke="rgb(102,102,102)" stroke-width="1" font-size="16" >H</text>
<text x="93.858590" y="148.957861" fill="rgb(102,102,102)"  stroke="rgb(102,102,102)" stroke-width="1" font-size="13" >2</text>
<text x="100.358590" y="145.277861" fill="rgb(102,102,102)"  stroke="rgb(102,102,102)" stroke-width="1" font-size="16" >C</text>
<text x="169.891149" y="185.422606" fill="rgb(191,191,191)"  stroke="rgb(191,191,191)" stroke-width="1" font-size="16" >H</text>
</svg>
</g>
<text font-size="18.000000" fill ="black" font-family="sans-serif"
x="10.000000" y="20.000000" ></text>
</svg>
