<?xml version="1.0"?>
<svg version="1.1" id="topsvg"
xmlns="http://www.w3.org/2000/svg" xmlns:xlink="http://www.w3.org/1999/xlink"
xmlns:cml="http://www.xml-cml.org/schema" x="0" y="0" width="200px" height="200px" viewBox="0 0 100 100">
<title> - Open Babel Depiction</title>
<rect x="0" y="0" width="100" height="100" fill="white"/>
<g transform="translate(0,0)">
<svg width="100" height="100" x="0" y="0" viewBox="0 0 305.256 267.769"
font-family="sans-serif" stroke="rgb(0,0,0)" stroke-width="2"  stroke-linecap="round">
<line x1="195.9" y1="217.4" x2="214.0" y2="193.6" stroke="rgb(0,0,0)"  stroke-width="2.0"/>
<line x1="214.0" y1="193.6" x2="244.1" y2="196.4" stroke="rgb(0,0,0)"  stroke-width="2.0"/>
<line x1="202.0" y1="166.1" x2="214.0" y2="193.6" stroke="rgb(0,0,0)"  stroke-width="2.0"/>
<line x1="114.2" y1="124.6" x2="121.0" y2="138.2" stroke="rgb(0,0,0)"  stroke-width="2.0"/>
<line x1="52.5" y1="44.7" x2="77.5" y2="61.5" stroke="rgb(0,0,0)"  stroke-width="2.0"/>
<line x1="49.1" y1="49.7" x2="74.2" y2="66.5" stroke="rgb(0,0,0)"  stroke-width="2.0"/>
<line x1="150.5" y1="61.2" x2="164.8" y2="56.4" stroke="rgb(0,0,0)"  stroke-width="2.0"/>
<line x1="186.9" y1="60.8" x2="188.6" y2="62.3" stroke="rgb(0,0,0)"  stroke-width="2.0"/>
<line x1="189.7" y1="87.3" x2="219.5" y2="64.3" stroke="rgb(0,0,0)"  stroke-width="2.0"/>
<line x1="216.0" y1="116.6" x2="246.6" y2="112.0" stroke="rgb(0,0,0)"  stroke-width="2.0"/>
<line x1="216.9" y1="122.6" x2="247.5" y2="118.0" stroke="rgb(0,0,0)"  stroke-width="2.0"/>
<line x1="139.8" y1="150.6" x2="142.0" y2="150.7" stroke="rgb(0,0,0)"  stroke-width="2.0"/>
<line x1="241.8" y1="61.2" x2="253.2" y2="65.9" stroke="rgb(0,0,0)"  stroke-width="2.0"/>
<line x1="151.3" y1="101.8" x2="189.7" y2="87.3" stroke="rgb(0,0,0)"  stroke-width="2.0"/>
<line x1="189.7" y1="87.3" x2="216.4" y2="119.6" stroke="rgb(0,0,0)"  stroke-width="2.0"/>
<line x1="216.4" y1="119.6" x2="203.2" y2="142.9" stroke="rgb(0,0,0)"  stroke-width="2.0"/>
<line x1="184.1" y1="151.5" x2="154.9" y2="145.3" stroke="rgb(0,0,0)"  stroke-width="2.0"/>
<line x1="154.9" y1="145.3" x2="151.3" y2="101.8" stroke="rgb(0,0,0)"  stroke-width="2.0"/>
<line x1="77.2" y1="103.6" x2="75.9" y2="64.0" stroke="rgb(0,0,0)"  stroke-width="2.0"/>
<line x1="75.9" y1="64.0" x2="114.0" y2="40.8" stroke="rgb(0,0,0)"  stroke-width="2.0"/>
<line x1="114.0" y1="40.8" x2="150.5" y2="61.2" stroke="rgb(0,0,0)"  stroke-width="2.0"/>
<line x1="115.7" y1="50.0" x2="141.7" y2="64.6" stroke="rgb(0,0,0)"  stroke-width="2.0"/>
<line x1="150.5" y1="61.2" x2="151.3" y2="101.8" stroke="rgb(0,0,0)"  stroke-width="2.0"/>
<line x1="151.3" y1="101.8" x2="114.2" y2="124.6" stroke="rgb(0,0,0)"  stroke-width="2.0"/>
<line x1="114.2" y1="124.6" x2="77.2" y2="103.6" stroke="rgb(0,0,0)"  stroke-width="2.0"/>
<line x1="112.6" y1="115.4" x2="86.0" y2="100.3" stroke="rgb(0,0,0)"  stroke-width="2.0"/>
<text x="162.041457" y="235.768624" fill="rgb(102,102,102)"  stroke="rgb(102,102,102)" stroke-width="1" font-size="16" >H</text>
<text x="174.041457" y="239.448624" fill="rgb(102,102,102)"  stroke="rgb(102,102,102)" stroke-width="1" font-size="13" >3</text>
<text x="180.541457" y="235.768624" fill="rgb(102,102,102)"  stroke="rgb(102,102,102)" stroke-width="1" font-size="16" >C</text>
<text x="190.798338" y="162.228284" fill="rgb(12,12,255)"  stroke="rgb(12,12,255)" stroke-width="1" font-size="16" >N</text>
<text x="253.087836" y="205.615422" fill="rgb(102,102,102)"  stroke="rgb(102,102,102)" stroke-width="1" font-size="16" >CH</text>
<text x="277.087836" y="209.295422" fill="rgb(102,102,102)"  stroke="rgb(102,102,102)" stroke-width="1" font-size="13" >3</text>
<text x="34.000000" y="48.000000" fill="rgb(255,12,12)"  stroke="rgb(255,12,12)" stroke-width="1" font-size="16" >O</text>
<text x="171.160157" y="60.236531" fill="rgb(255,12,12)"  stroke="rgb(255,12,12)" stroke-width="1" font-size="16" >O</text>
<text x="194.311352" y="78.851949" fill="rgb(102,102,102)"  stroke="rgb(102,102,102)" stroke-width="1" font-size="16" >CH</text>
<text x="218.311352" y="82.531949" fill="rgb(102,102,102)"  stroke="rgb(102,102,102)" stroke-width="1" font-size="13" >3</text>
<text x="253.941994" y="121.078265" fill="rgb(255,12,12)"  stroke="rgb(255,12,12)" stroke-width="1" font-size="16" >O</text>
<text x="120.841897" y="157.830120" fill="rgb(255,12,12)"  stroke="rgb(255,12,12)" stroke-width="1" font-size="16" >O</text>
<text x="150.966477" y="159.517821" fill="rgb(102,102,102)"  stroke="rgb(102,102,102)" stroke-width="1" font-size="16" >CH</text>
<text x="174.966477" y="163.197821" fill="rgb(102,102,102)"  stroke="rgb(102,102,102)" stroke-width="1" font-size="13" >3</text>
<text x="223.788792" y="64.319131" fill="rgb(178,178,0)"  stroke="rgb(178,178,0)" stroke-width="1" font-size="16" >S</text>
<text x="259.255855" y="78.826591" fill="rgb(191,191,191)"  stroke="rgb(191,191,191)" stroke-width="1" font-size="16" >H</text>
</svg>
</g>
<text font-size="18.000000" fill ="black" font-family="sans-serif"
x="10.000000" y="20.000000" ></text>
</svg>
