<?xml version="1.0"?>
<svg version="1.1" id="topsvg"
xmlns="http://www.w3.org/2000/svg" xmlns:xlink="http://www.w3.org/1999/xlink"
xmlns:cml="http://www.xml-cml.org/schema" x="0" y="0" width="200px" height="200px" viewBox="0 0 100 100">
<title> - Open Babel Depiction</title>
<rect x="0" y="0" width="100" height="100" fill="white"/>
<g transform="translate(0,0)">
<svg width="100" height="100" x="0" y="0" viewBox="0 0 287.599 266.171"
font-family="sans-serif" stroke="rgb(0,0,0)" stroke-width="2"  stroke-linecap="round">
<line x1="214.1" y1="201.3" x2="234.8" y2="216.2" stroke="rgb(0,0,0)"  stroke-width="2.0"/>
<line x1="210.6" y1="206.2" x2="231.4" y2="221.0" stroke="rgb(0,0,0)"  stroke-width="2.0"/>
<polygon points="178.960508 141.413902 144.813024 159.966663 141.737634 152.581409 " stroke-width="2.000000" fill="rgb(0,0,0)"  stroke="rgb(0,0,0)" />
<line x1="173.2" y1="100.0" x2="174.1" y2="73.0" stroke="rgb(0,0,0)"  stroke-width="2.0"/>
<line x1="179.2" y1="100.2" x2="180.1" y2="73.2" stroke="rgb(0,0,0)"  stroke-width="2.0"/>
<line x1="214.9" y1="52.9" x2="215.5" y2="80.6" stroke="rgb(0,0,0)"  stroke-width="2.0"/>
<line x1="208.9" y1="53.1" x2="209.5" y2="80.7" stroke="rgb(0,0,0)"  stroke-width="2.0"/>
<line x1="213.7" y1="168.2" x2="212.1" y2="168.2" stroke="rgb(0,0,0)"  stroke-width="1.0"/>
<line x1="214.2" y1="175.3" x2="211.3" y2="175.3" stroke="rgb(0,0,0)"  stroke-width="1.0"/>
<line x1="214.8" y1="182.4" x2="210.6" y2="182.4" stroke="rgb(0,0,0)"  stroke-width="1.0"/>
<line x1="215.3" y1="189.6" x2="209.9" y2="189.5" stroke="rgb(0,0,0)"  stroke-width="1.0"/>
<line x1="215.8" y1="196.7" x2="209.1" y2="196.6" stroke="rgb(0,0,0)"  stroke-width="1.0"/>
<line x1="216.4" y1="203.8" x2="208.4" y2="203.7" stroke="rgb(0,0,0)"  stroke-width="1.0"/>
<line x1="50.0" y1="91.5" x2="73.5" y2="78.8" stroke="rgb(0,0,0)"  stroke-width="2.0"/>
<line x1="52.9" y1="96.8" x2="76.4" y2="84.0" stroke="rgb(0,0,0)"  stroke-width="2.0"/>
<line x1="74.9" y1="81.4" x2="108.7" y2="100.3" stroke="rgb(0,0,0)"  stroke-width="2.0"/>
<line x1="108.7" y1="100.3" x2="147.1" y2="79.1" stroke="rgb(0,0,0)"  stroke-width="2.0"/>
<line x1="147.1" y1="79.1" x2="176.2" y2="100.1" stroke="rgb(0,0,0)"  stroke-width="2.0"/>
<line x1="121.6" y1="143.2" x2="144.5" y2="153.5" stroke="rgb(0,0,0)"  stroke-width="2.0"/>
<line x1="119.2" y1="148.6" x2="142.0" y2="159.0" stroke="rgb(0,0,0)"  stroke-width="2.0"/>
<line x1="179.0" y1="141.4" x2="176.2" y2="100.1" stroke="rgb(0,0,0)"  stroke-width="2.0"/>
<line x1="176.2" y1="100.1" x2="212.5" y2="80.6" stroke="rgb(0,0,0)"  stroke-width="2.0"/>
<line x1="212.5" y1="80.6" x2="247.6" y2="99.9" stroke="rgb(0,0,0)"  stroke-width="2.0"/>
<line x1="247.6" y1="99.9" x2="247.5" y2="141.4" stroke="rgb(0,0,0)"  stroke-width="2.0"/>
<line x1="247.5" y1="141.4" x2="213.0" y2="159.3" stroke="rgb(0,0,0)"  stroke-width="2.0"/>
<line x1="213.0" y1="159.3" x2="179.0" y2="141.4" stroke="rgb(0,0,0)"  stroke-width="2.0"/>
<text x="237.667270" y="234.171417" fill="rgb(255,12,12)"  stroke="rgb(255,12,12)" stroke-width="1" font-size="16" >O</text>
<text x="205.598057" y="48.000000" fill="rgb(255,12,12)"  stroke="rgb(255,12,12)" stroke-width="1" font-size="16" >O</text>
<text x="14.000000" y="108.308683" fill="rgb(102,102,102)"  stroke="rgb(102,102,102)" stroke-width="1" font-size="16" >H</text>
<text x="26.000000" y="111.988683" fill="rgb(102,102,102)"  stroke="rgb(102,102,102)" stroke-width="1" font-size="13" >2</text>
<text x="32.500000" y="108.308683" fill="rgb(102,102,102)"  stroke="rgb(102,102,102)" stroke-width="1" font-size="16" >C</text>
<text x="173.539671" y="68.076824" fill="rgb(102,102,102)"  stroke="rgb(102,102,102)" stroke-width="1" font-size="16" >CH</text>
<text x="197.539671" y="71.756824" fill="rgb(102,102,102)"  stroke="rgb(102,102,102)" stroke-width="1" font-size="13" >2</text>
<text x="82.559969" y="148.532722" fill="rgb(102,102,102)"  stroke="rgb(102,102,102)" stroke-width="1" font-size="16" >H</text>
<text x="94.559969" y="152.212722" fill="rgb(102,102,102)"  stroke="rgb(102,102,102)" stroke-width="1" font-size="13" >2</text>
<text x="101.059969" y="148.532722" fill="rgb(102,102,102)"  stroke="rgb(102,102,102)" stroke-width="1" font-size="16" >C</text>
</svg>
</g>
<text font-size="18.000000" fill ="black" font-family="sans-serif"
x="10.000000" y="20.000000" ></text>
</svg>
