<?xml version="1.0"?>
<svg version="1.1" id="topsvg"
xmlns="http://www.w3.org/2000/svg" xmlns:xlink="http://www.w3.org/1999/xlink"
xmlns:cml="http://www.xml-cml.org/schema" x="0" y="0" width="200px" height="200px" viewBox="0 0 100 100">
<title> - Open Babel Depiction</title>
<rect x="0" y="0" width="100" height="100" fill="white"/>
<g transform="translate(0,0)">
<svg width="100" height="100" x="0" y="0" viewBox="0 0 220.344 350.931"
font-family="sans-serif" stroke="rgb(0,0,0)" stroke-width="2"  stroke-linecap="round">
<line x1="98.7" y1="285.0" x2="123.2" y2="271.8" stroke="rgb(0,0,0)"  stroke-width="2.0"/>
<line x1="123.2" y1="271.8" x2="115.4" y2="298.4" stroke="rgb(0,0,0)"  stroke-width="2.0"/>
<line x1="109.9" y1="106.5" x2="110.0" y2="78.6" stroke="rgb(0,0,0)"  stroke-width="2.0"/>
<line x1="138.5" y1="91.8" x2="137.8" y2="90.4" stroke="rgb(0,0,0)"  stroke-width="1.0"/>
<line x1="133.2" y1="95.4" x2="131.8" y2="92.9" stroke="rgb(0,0,0)"  stroke-width="1.0"/>
<line x1="127.8" y1="99.0" x2="125.9" y2="95.4" stroke="rgb(0,0,0)"  stroke-width="1.0"/>
<line x1="122.5" y1="102.7" x2="119.9" y2="97.9" stroke="rgb(0,0,0)"  stroke-width="1.0"/>
<line x1="117.2" y1="106.3" x2="114.0" y2="100.4" stroke="rgb(0,0,0)"  stroke-width="1.0"/>
<line x1="111.8" y1="110.0" x2="108.0" y2="102.9" stroke="rgb(0,0,0)"  stroke-width="1.0"/>
<line x1="145.2" y1="87.2" x2="152.0" y2="59.8" stroke="rgb(0,0,0)"  stroke-width="2.0"/>
<line x1="137.6" y1="164.5" x2="138.3" y2="163.1" stroke="rgb(0,0,0)"  stroke-width="1.0"/>
<line x1="131.6" y1="161.9" x2="133.0" y2="159.4" stroke="rgb(0,0,0)"  stroke-width="1.0"/>
<line x1="125.7" y1="159.3" x2="127.7" y2="155.7" stroke="rgb(0,0,0)"  stroke-width="1.0"/>
<line x1="119.8" y1="156.7" x2="122.4" y2="151.9" stroke="rgb(0,0,0)"  stroke-width="1.0"/>
<line x1="113.8" y1="154.1" x2="117.1" y2="148.2" stroke="rgb(0,0,0)"  stroke-width="1.0"/>
<line x1="107.9" y1="151.5" x2="111.8" y2="144.5" stroke="rgb(0,0,0)"  stroke-width="1.0"/>
<line x1="145.0" y1="167.8" x2="144.0" y2="208.7" stroke="rgb(0,0,0)"  stroke-width="2.0"/>
<line x1="109.1" y1="139.7" x2="110.7" y2="139.7" stroke="rgb(0,0,0)"  stroke-width="1.0"/>
<line x1="108.4" y1="133.0" x2="111.3" y2="133.0" stroke="rgb(0,0,0)"  stroke-width="1.0"/>
<line x1="107.8" y1="126.4" x2="112.0" y2="126.4" stroke="rgb(0,0,0)"  stroke-width="1.0"/>
<line x1="107.2" y1="119.7" x2="112.6" y2="119.7" stroke="rgb(0,0,0)"  stroke-width="1.0"/>
<line x1="106.5" y1="113.1" x2="113.3" y2="113.1" stroke="rgb(0,0,0)"  stroke-width="1.0"/>
<line x1="105.9" y1="106.4" x2="113.9" y2="106.5" stroke="rgb(0,0,0)"  stroke-width="1.0"/>
<line x1="109.8" y1="148.0" x2="109.5" y2="175.3" stroke="rgb(0,0,0)"  stroke-width="2.0"/>
<line x1="167.7" y1="43.6" x2="167.7" y2="43.6" stroke="rgb(0,0,0)"  stroke-width="2.0"/>
<line x1="122.6" y1="224.5" x2="144.0" y2="208.7" stroke="rgb(0,0,0)"  stroke-width="2.0"/>
<line x1="128.4" y1="229.1" x2="143.4" y2="218.1" stroke="rgb(0,0,0)"  stroke-width="2.0"/>
<line x1="144.0" y1="208.7" x2="165.8" y2="225.1" stroke="rgb(0,0,0)"  stroke-width="2.0"/>
<line x1="172.3" y1="245.3" x2="164.1" y2="271.9" stroke="rgb(0,0,0)"  stroke-width="2.0"/>
<line x1="164.1" y1="271.9" x2="123.2" y2="271.8" stroke="rgb(0,0,0)"  stroke-width="2.0"/>
<line x1="123.2" y1="271.8" x2="115.5" y2="244.7" stroke="rgb(0,0,0)"  stroke-width="2.0"/>
<line x1="40.0" y1="106.8" x2="75.1" y2="86.3" stroke="rgb(0,0,0)"  stroke-width="2.0"/>
<line x1="75.1" y1="86.3" x2="109.9" y2="106.5" stroke="rgb(0,0,0)"  stroke-width="2.0"/>
<line x1="109.9" y1="106.5" x2="109.8" y2="148.0" stroke="rgb(0,0,0)"  stroke-width="2.0"/>
<line x1="109.8" y1="148.0" x2="74.8" y2="167.2" stroke="rgb(0,0,0)"  stroke-width="2.0"/>
<line x1="74.8" y1="167.2" x2="40.0" y2="148.9" stroke="rgb(0,0,0)"  stroke-width="2.0"/>
<line x1="72.8" y1="158.1" x2="48.7" y2="145.3" stroke="rgb(0,0,0)"  stroke-width="2.0"/>
<line x1="40.0" y1="148.9" x2="40.0" y2="106.8" stroke="rgb(0,0,0)"  stroke-width="2.0"/>
<line x1="109.9" y1="106.5" x2="145.2" y2="87.2" stroke="rgb(0,0,0)"  stroke-width="2.0"/>
<line x1="145.2" y1="87.2" x2="180.3" y2="107.4" stroke="rgb(0,0,0)"  stroke-width="2.0"/>
<line x1="180.3" y1="107.4" x2="180.1" y2="149.0" stroke="rgb(0,0,0)"  stroke-width="2.0"/>
<line x1="180.1" y1="149.0" x2="145.0" y2="167.8" stroke="rgb(0,0,0)"  stroke-width="2.0"/>
<line x1="145.0" y1="167.8" x2="109.8" y2="148.0" stroke="rgb(0,0,0)"  stroke-width="2.0"/>
<text x="61.280112" y="299.159166" fill="rgb(102,102,102)"  stroke="rgb(102,102,102)" stroke-width="1" font-size="16" >H</text>
<text x="73.280112" y="302.839166" fill="rgb(102,102,102)"  stroke="rgb(102,102,102)" stroke-width="1" font-size="13" >3</text>
<text x="79.780112" y="299.159166" fill="rgb(102,102,102)"  stroke="rgb(102,102,102)" stroke-width="1" font-size="16" >C</text>
<text x="105.971672" y="240.226676" fill="rgb(12,12,255)"  stroke="rgb(12,12,255)" stroke-width="1" font-size="16" >N</text>
<text x="170.134856" y="240.902643" fill="rgb(255,12,12)"  stroke="rgb(255,12,12)" stroke-width="1" font-size="16" >O</text>
<text x="85.810727" y="318.931191" fill="rgb(102,102,102)"  stroke="rgb(102,102,102)" stroke-width="1" font-size="16" >H</text>
<text x="97.810727" y="322.611191" fill="rgb(102,102,102)"  stroke="rgb(102,102,102)" stroke-width="1" font-size="13" >3</text>
<text x="104.310727" y="318.931191" fill="rgb(102,102,102)"  stroke="rgb(102,102,102)" stroke-width="1" font-size="16" >C</text>
<text x="105.994738" y="73.641132" fill="rgb(102,102,102)"  stroke="rgb(102,102,102)" stroke-width="1" font-size="16" >CH</text>
<text x="129.994738" y="77.321132" fill="rgb(102,102,102)"  stroke="rgb(102,102,102)" stroke-width="1" font-size="13" >3</text>
<text x="149.195984" y="55.164710" fill="rgb(255,12,12)"  stroke="rgb(255,12,12)" stroke-width="1" font-size="16" >O</text>
<text x="103.267805" y="196.326397" fill="rgb(191,191,191)"  stroke="rgb(191,191,191)" stroke-width="1" font-size="16" >H</text>
<text x="174.212115" y="48.000000" fill="rgb(191,191,191)"  stroke="rgb(191,191,191)" stroke-width="1" font-size="16" >H</text>
</svg>
</g>
<text font-size="18.000000" fill ="black" font-family="sans-serif"
x="10.000000" y="20.000000" ></text>
</svg>
