<?xml version="1.0"?>
<svg version="1.1" id="topsvg"
xmlns="http://www.w3.org/2000/svg" xmlns:xlink="http://www.w3.org/1999/xlink"
xmlns:cml="http://www.xml-cml.org/schema" x="0" y="0" width="200px" height="200px" viewBox="0 0 100 100">
<title> - Open Babel Depiction</title>
<rect x="0" y="0" width="100" height="100" fill="white"/>
<g transform="translate(0,0)">
<svg width="100" height="100" x="0" y="0" viewBox="0 0 300.356 314.969"
font-family="sans-serif" stroke="rgb(0,0,0)" stroke-width="2"  stroke-linecap="round">
<polygon points="187.54 146.658 152.209 166.148 149.058 158.794 " stroke-width="2" fill="rgb(0,0,0)"  stroke="rgb(0,0,0)" />
<line x1="180.5" y1="99.6" x2="181.3" y2="98.2" stroke="rgb(0,0,0)"  stroke-width="1.0"/>
<line x1="174.2" y1="96.9" x2="175.6" y2="94.4" stroke="rgb(0,0,0)"  stroke-width="1.0"/>
<line x1="167.9" y1="94.2" x2="169.8" y2="90.5" stroke="rgb(0,0,0)"  stroke-width="1.0"/>
<line x1="161.5" y1="91.5" x2="164.1" y2="86.7" stroke="rgb(0,0,0)"  stroke-width="1.0"/>
<line x1="155.2" y1="88.8" x2="158.4" y2="82.9" stroke="rgb(0,0,0)"  stroke-width="1.0"/>
<line x1="148.8" y1="86.0" x2="152.6" y2="79.0" stroke="rgb(0,0,0)"  stroke-width="1.0"/>
<line x1="216.1" y1="82.2" x2="218.0" y2="52.8" stroke="rgb(0,0,0)"  stroke-width="2.0"/>
<line x1="222.1" y1="82.6" x2="224.0" y2="53.2" stroke="rgb(0,0,0)"  stroke-width="2.0"/>
<line x1="230.6" y1="160.0" x2="231.3" y2="161.5" stroke="rgb(0,0,0)"  stroke-width="1.0"/>
<line x1="236.2" y1="156.5" x2="237.5" y2="159.1" stroke="rgb(0,0,0)"  stroke-width="1.0"/>
<line x1="241.8" y1="153.1" x2="243.7" y2="156.8" stroke="rgb(0,0,0)"  stroke-width="1.0"/>
<line x1="247.4" y1="149.6" x2="249.8" y2="154.4" stroke="rgb(0,0,0)"  stroke-width="1.0"/>
<line x1="253.0" y1="146.1" x2="256.0" y2="152.1" stroke="rgb(0,0,0)"  stroke-width="1.0"/>
<line x1="258.6" y1="142.6" x2="262.1" y2="149.7" stroke="rgb(0,0,0)"  stroke-width="1.0"/>
<line x1="223.6" y1="164.4" x2="223.4" y2="209.2" stroke="rgb(0,0,0)"  stroke-width="2.0"/>
<line x1="49.8" y1="93.6" x2="75.5" y2="78.9" stroke="rgb(0,0,0)"  stroke-width="2.0"/>
<line x1="52.8" y1="98.8" x2="78.5" y2="84.1" stroke="rgb(0,0,0)"  stroke-width="2.0"/>
<line x1="77.0" y1="81.5" x2="113.6" y2="102.4" stroke="rgb(0,0,0)"  stroke-width="2.0"/>
<line x1="150.7" y1="82.5" x2="113.6" y2="102.4" stroke="rgb(0,0,0)"  stroke-width="2.0"/>
<line x1="153.6" y1="80.3" x2="153.7" y2="82.4" stroke="rgb(0,0,0)"  stroke-width="2.0"/>
<line x1="147.6" y1="80.7" x2="147.7" y2="82.7" stroke="rgb(0,0,0)"  stroke-width="2.0"/>
<line x1="115.2" y1="152.0" x2="151.3" y2="159.5" stroke="rgb(0,0,0)"  stroke-width="2.0"/>
<line x1="114.0" y1="157.8" x2="150.0" y2="165.4" stroke="rgb(0,0,0)"  stroke-width="2.0"/>
<line x1="222.9" y1="210.8" x2="223.4" y2="209.2" stroke="rgb(0,0,0)"  stroke-width="2.0"/>
<line x1="251.7" y1="247.9" x2="243.3" y2="274.1" stroke="rgb(0,0,0)"  stroke-width="2.0"/>
<line x1="243.3" y1="274.1" x2="200.5" y2="275.0" stroke="rgb(0,0,0)"  stroke-width="2.0"/>
<line x1="200.5" y1="275.0" x2="190.8" y2="247.1" stroke="rgb(0,0,0)"  stroke-width="2.0"/>
<line x1="197.2" y1="227.4" x2="223.4" y2="209.2" stroke="rgb(0,0,0)"  stroke-width="2.0"/>
<line x1="223.4" y1="209.2" x2="245.6" y2="227.3" stroke="rgb(0,0,0)"  stroke-width="2.0"/>
<line x1="187.5" y1="146.7" x2="223.6" y2="164.4" stroke="rgb(0,0,0)"  stroke-width="2.0"/>
<line x1="223.6" y1="164.4" x2="260.4" y2="146.2" stroke="rgb(0,0,0)"  stroke-width="2.0"/>
<line x1="260.4" y1="146.2" x2="259.9" y2="102.6" stroke="rgb(0,0,0)"  stroke-width="2.0"/>
<line x1="259.9" y1="102.6" x2="219.1" y2="82.4" stroke="rgb(0,0,0)"  stroke-width="2.0"/>
<line x1="219.1" y1="82.4" x2="188.5" y2="103.0" stroke="rgb(0,0,0)"  stroke-width="2.0"/>
<line x1="188.5" y1="103.0" x2="187.5" y2="146.7" stroke="rgb(0,0,0)"  stroke-width="2.0"/>
<text x="249.722899" y="243.497132" fill="rgb(255,12,12)"  stroke="rgb(255,12,12)" stroke-width="1" font-size="16" >O</text>
<text x="180.557254" y="242.793725" fill="rgb(255,12,12)"  stroke="rgb(255,12,12)" stroke-width="1" font-size="16" >O</text>
<text x="215.847671" y="48.000000" fill="rgb(255,12,12)"  stroke="rgb(255,12,12)" stroke-width="1" font-size="16" >O</text>
<text x="14.000000" y="110.597714" fill="rgb(102,102,102)"  stroke="rgb(102,102,102)" stroke-width="1" font-size="16" >H</text>
<text x="26.000000" y="114.277714" fill="rgb(102,102,102)"  stroke="rgb(102,102,102)" stroke-width="1" font-size="13" >2</text>
<text x="32.500000" y="110.597714" fill="rgb(102,102,102)"  stroke="rgb(102,102,102)" stroke-width="1" font-size="16" >C</text>
<text x="131.857230" y="75.525018" fill="rgb(17,127,178)"  stroke="rgb(17,127,178)" stroke-width="1" font-size="16" >Xx</text>
<text x="95.866393" y="160.215879" fill="rgb(178,178,0)"  stroke="rgb(178,178,0)" stroke-width="1" font-size="16" >S</text>
<text x="201.025666" y="231.176330" fill="rgb(17,127,178)"  stroke="rgb(17,127,178)" stroke-width="1" font-size="16" >Xx</text>
</svg>
</g>
<text font-size="18.000000" fill ="black" font-family="sans-serif"
x="10.000000" y="20.000000" ></text>
</svg>
