<?xml version="1.0"?>
<svg version="1.1" id="topsvg"
xmlns="http://www.w3.org/2000/svg" xmlns:xlink="http://www.w3.org/1999/xlink"
xmlns:cml="http://www.xml-cml.org/schema" x="0" y="0" width="200px" height="200px" viewBox="0 0 100 100">
<title> - Open Babel Depiction</title>
<rect x="0" y="0" width="100" height="100" fill="white"/>
<g transform="translate(0,0)">
<svg width="100" height="100" x="0" y="0" viewBox="0 0 279.745 172.509"
font-family="sans-serif" stroke="rgb(0,0,0)" stroke-width="2"  stroke-linecap="round">
<polygon points="199.66 108.326 228.583 121.104 224.451 127.954 " stroke-width="2" fill="rgb(0,0,0)"  stroke="rgb(0,0,0)" />
<line x1="111.1" y1="58.2" x2="111.9" y2="56.8" stroke="rgb(0,0,0)"  stroke-width="1.0"/>
<line x1="105.0" y1="55.5" x2="106.4" y2="53.0" stroke="rgb(0,0,0)"  stroke-width="1.0"/>
<line x1="98.9" y1="52.8" x2="101.0" y2="49.2" stroke="rgb(0,0,0)"  stroke-width="1.0"/>
<line x1="92.9" y1="50.1" x2="95.5" y2="45.4" stroke="rgb(0,0,0)"  stroke-width="1.0"/>
<line x1="86.8" y1="47.4" x2="90.1" y2="41.5" stroke="rgb(0,0,0)"  stroke-width="1.0"/>
<line x1="80.7" y1="44.6" x2="84.7" y2="37.7" stroke="rgb(0,0,0)"  stroke-width="1.0"/>
<line x1="82.7" y1="41.2" x2="51.6" y2="56.9" stroke="rgb(0,0,0)"  stroke-width="2.0"/>
<line x1="95.7" y1="127.8" x2="120.5" y2="109.0" stroke="rgb(0,0,0)"  stroke-width="2.0"/>
<line x1="120.5" y1="109.0" x2="99.0" y2="115.4" stroke="rgb(0,0,0)"  stroke-width="2.0"/>
<line x1="99.0" y1="115.4" x2="95.7" y2="127.8" stroke="rgb(0,0,0)"  stroke-width="2.0"/>
<line x1="160.2" y1="132.2" x2="199.7" y2="108.3" stroke="rgb(0,0,0)"  stroke-width="2.0"/>
<line x1="199.7" y1="108.3" x2="199.8" y2="62.5" stroke="rgb(0,0,0)"  stroke-width="2.0"/>
<line x1="199.8" y1="62.5" x2="159.8" y2="40.0" stroke="rgb(0,0,0)"  stroke-width="2.0"/>
<line x1="159.8" y1="40.0" x2="118.7" y2="61.6" stroke="rgb(0,0,0)"  stroke-width="2.0"/>
<line x1="118.7" y1="61.6" x2="120.5" y2="109.0" stroke="rgb(0,0,0)"  stroke-width="2.0"/>
<line x1="120.5" y1="109.0" x2="160.2" y2="132.2" stroke="rgb(0,0,0)"  stroke-width="2.0"/>
<text x="235.745266" y="140.509484" fill="rgb(102,102,102)"  stroke="rgb(102,102,102)" stroke-width="1" font-size="16" >CH</text>
<text x="259.745266" y="144.189484" fill="rgb(102,102,102)"  stroke="rgb(102,102,102)" stroke-width="1" font-size="13" >3</text>
<text x="14.000000" y="70.761045" fill="rgb(102,102,102)"  stroke="rgb(102,102,102)" stroke-width="1" font-size="16" >H</text>
<text x="26.000000" y="74.441045" fill="rgb(102,102,102)"  stroke="rgb(102,102,102)" stroke-width="1" font-size="13" >3</text>
<text x="32.500000" y="70.761045" fill="rgb(102,102,102)"  stroke="rgb(102,102,102)" stroke-width="1" font-size="16" >C</text>
</svg>
</g>
<text font-size="18.000000" fill ="black" font-family="sans-serif"
x="10.000000" y="20.000000" ></text>
</svg>
