<?xml version="1.0"?>
<svg version="1.1" id="topsvg"
xmlns="http://www.w3.org/2000/svg" xmlns:xlink="http://www.w3.org/1999/xlink"
xmlns:cml="http://www.xml-cml.org/schema" x="0" y="0" width="200px" height="200px" viewBox="0 0 100 100">
<title> - Open Babel Depiction</title>
<rect x="0" y="0" width="100" height="100" fill="white"/>
<g transform="translate(0,0)">
<svg width="100" height="100" x="0" y="0" viewBox="0 0 303.544 306.859"
font-family="sans-serif" stroke="rgb(0,0,0)" stroke-width="2"  stroke-linecap="round">
<line x1="211.6" y1="217.2" x2="221.1" y2="211.3" stroke="rgb(0,0,0)"  stroke-width="2.0"/>
<line x1="209.4" y1="213.7" x2="218.8" y2="207.7" stroke="rgb(0,0,0)"  stroke-width="2.0"/>
<line x1="213.8" y1="220.8" x2="223.3" y2="214.9" stroke="rgb(0,0,0)"  stroke-width="2.0"/>
<line x1="221.1" y1="211.3" x2="252.8" y2="233.0" stroke="rgb(0,0,0)"  stroke-width="2.0"/>
<line x1="262.6" y1="253.3" x2="262.5" y2="253.9" stroke="rgb(0,0,0)"  stroke-width="2.0"/>
<line x1="184.9" y1="151.6" x2="148.7" y2="168.7" stroke="rgb(0,0,0)"  stroke-width="2.0"/>
<polygon points="184.897686 151.601732 180.549024 110.685321 188.548734 110.617182 " stroke-width="2.000000" fill="rgb(0,0,0)"  stroke="rgb(0,0,0)" />
<polygon points="184.548879 110.651252 180.591207 82.295737 188.591199 82.307681 " stroke-width="2.000000" fill="rgb(0,0,0)"  stroke="rgb(0,0,0)" />
<line x1="184.5" y1="110.7" x2="149.8" y2="89.3" stroke="rgb(0,0,0)"  stroke-width="2.0"/>
<line x1="213.5" y1="95.5" x2="212.8" y2="94.1" stroke="rgb(0,0,0)"  stroke-width="1.0"/>
<line x1="208.1" y1="99.3" x2="206.7" y2="96.7" stroke="rgb(0,0,0)"  stroke-width="1.0"/>
<line x1="202.7" y1="103.0" x2="200.7" y2="99.3" stroke="rgb(0,0,0)"  stroke-width="1.0"/>
<line x1="197.3" y1="106.7" x2="194.7" y2="101.9" stroke="rgb(0,0,0)"  stroke-width="1.0"/>
<line x1="191.9" y1="110.4" x2="188.6" y2="104.5" stroke="rgb(0,0,0)"  stroke-width="1.0"/>
<line x1="186.5" y1="114.2" x2="182.6" y2="107.2" stroke="rgb(0,0,0)"  stroke-width="1.0"/>
<line x1="220.3" y1="90.9" x2="227.2" y2="60.5" stroke="rgb(0,0,0)"  stroke-width="2.0"/>
<line x1="221.2" y1="178.9" x2="219.6" y2="179.0" stroke="rgb(0,0,0)"  stroke-width="1.0"/>
<line x1="222.0" y1="185.4" x2="219.1" y2="185.5" stroke="rgb(0,0,0)"  stroke-width="1.0"/>
<line x1="222.8" y1="191.9" x2="218.6" y2="191.9" stroke="rgb(0,0,0)"  stroke-width="1.0"/>
<line x1="223.5" y1="198.3" x2="218.1" y2="198.4" stroke="rgb(0,0,0)"  stroke-width="1.0"/>
<line x1="224.3" y1="204.8" x2="217.6" y2="204.9" stroke="rgb(0,0,0)"  stroke-width="1.0"/>
<line x1="225.1" y1="211.2" x2="217.1" y2="211.4" stroke="rgb(0,0,0)"  stroke-width="1.0"/>
<line x1="49.7" y1="100.8" x2="75.0" y2="86.0" stroke="rgb(0,0,0)"  stroke-width="2.0"/>
<line x1="52.7" y1="106.0" x2="78.1" y2="91.2" stroke="rgb(0,0,0)"  stroke-width="2.0"/>
<line x1="76.5" y1="88.6" x2="112.2" y2="109.8" stroke="rgb(0,0,0)"  stroke-width="2.0"/>
<line x1="112.2" y1="109.8" x2="149.8" y2="89.3" stroke="rgb(0,0,0)"  stroke-width="2.0"/>
<line x1="113.8" y1="158.1" x2="149.3" y2="165.8" stroke="rgb(0,0,0)"  stroke-width="2.0"/>
<line x1="112.5" y1="163.9" x2="148.0" y2="171.7" stroke="rgb(0,0,0)"  stroke-width="2.0"/>
<line x1="242.5" y1="44.0" x2="243.1" y2="43.8" stroke="rgb(0,0,0)"  stroke-width="2.0"/>
<line x1="184.9" y1="151.6" x2="184.5" y2="110.7" stroke="rgb(0,0,0)"  stroke-width="2.0"/>
<line x1="184.5" y1="110.7" x2="220.3" y2="90.9" stroke="rgb(0,0,0)"  stroke-width="2.0"/>
<line x1="220.3" y1="90.9" x2="257.0" y2="109.5" stroke="rgb(0,0,0)"  stroke-width="2.0"/>
<line x1="257.0" y1="109.5" x2="257.0" y2="152.5" stroke="rgb(0,0,0)"  stroke-width="2.0"/>
<line x1="257.0" y1="152.5" x2="220.2" y2="170.9" stroke="rgb(0,0,0)"  stroke-width="2.0"/>
<line x1="220.2" y1="170.9" x2="184.9" y2="151.6" stroke="rgb(0,0,0)"  stroke-width="2.0"/>
<text x="182.588504" y="232.115118" fill="rgb(17,127,178)"  stroke="rgb(17,127,178)" stroke-width="1" font-size="16" >Xx</text>
<text x="257.544032" y="248.294815" fill="rgb(255,12,12)"  stroke="rgb(255,12,12)" stroke-width="1" font-size="16" >O</text>
<text x="180.612049" y="76.338502" fill="rgb(102,102,102)"  stroke="rgb(102,102,102)" stroke-width="1" font-size="16" >CH</text>
<text x="204.612049" y="80.018502" fill="rgb(102,102,102)"  stroke="rgb(102,102,102)" stroke-width="1" font-size="13" >3</text>
<text x="14.000000" y="117.923426" fill="rgb(102,102,102)"  stroke="rgb(102,102,102)" stroke-width="1" font-size="16" >H</text>
<text x="26.000000" y="121.603426" fill="rgb(102,102,102)"  stroke="rgb(102,102,102)" stroke-width="1" font-size="13" >2</text>
<text x="32.500000" y="117.923426" fill="rgb(102,102,102)"  stroke="rgb(102,102,102)" stroke-width="1" font-size="16" >C</text>
<text x="94.425991" y="166.218077" fill="rgb(178,178,0)"  stroke="rgb(178,178,0)" stroke-width="1" font-size="16" >S</text>
<text x="224.094273" y="55.863261" fill="rgb(255,12,12)"  stroke="rgb(255,12,12)" stroke-width="1" font-size="16" >O</text>
<text x="255.544571" y="274.859070" fill="rgb(191,191,191)"  stroke="rgb(191,191,191)" stroke-width="1" font-size="16" >H</text>
<text x="249.548938" y="48.000000" fill="rgb(191,191,191)"  stroke="rgb(191,191,191)" stroke-width="1" font-size="16" >H</text>
</svg>
</g>
<text font-size="18.000000" fill ="black" font-family="sans-serif"
x="10.000000" y="20.000000" ></text>
</svg>
