<?xml version="1.0"?>
<svg version="1.1" id="topsvg"
xmlns="http://www.w3.org/2000/svg" xmlns:xlink="http://www.w3.org/1999/xlink"
xmlns:cml="http://www.xml-cml.org/schema" x="0" y="0" width="200px" height="200px" viewBox="0 0 100 100">
<title> - Open Babel Depiction</title>
<rect x="0" y="0" width="100" height="100" fill="white"/>
<g transform="translate(0,0)">
<svg width="100" height="100" x="0" y="0" viewBox="0 0 234.544 298.623"
font-family="sans-serif" stroke="rgb(0,0,0)" stroke-width="2"  stroke-linecap="round">
<line x1="180.1" y1="227.2" x2="145.9" y2="211.7" stroke="rgb(0,0,0)"  stroke-width="2.0"/>
<line x1="193.3" y1="245.5" x2="193.3" y2="245.7" stroke="rgb(0,0,0)"  stroke-width="2.0"/>
<line x1="110.7" y1="105.7" x2="110.9" y2="80.4" stroke="rgb(0,0,0)"  stroke-width="2.0"/>
<polygon points="110.655810 105.746795 115.227604 149.573519 107.228284 149.677821 " stroke-width="2.000000" fill="rgb(0,0,0)"  stroke="rgb(0,0,0)" />
<line x1="139.1" y1="166.5" x2="139.9" y2="165.1" stroke="rgb(0,0,0)"  stroke-width="1.0"/>
<line x1="133.2" y1="163.8" x2="134.6" y2="161.3" stroke="rgb(0,0,0)"  stroke-width="1.0"/>
<line x1="127.2" y1="161.2" x2="129.2" y2="157.5" stroke="rgb(0,0,0)"  stroke-width="1.0"/>
<line x1="121.2" y1="158.5" x2="123.9" y2="153.7" stroke="rgb(0,0,0)"  stroke-width="1.0"/>
<line x1="115.2" y1="155.8" x2="118.6" y2="150.0" stroke="rgb(0,0,0)"  stroke-width="1.0"/>
<line x1="109.2" y1="153.1" x2="113.2" y2="146.2" stroke="rgb(0,0,0)"  stroke-width="1.0"/>
<line x1="146.6" y1="169.9" x2="145.9" y2="211.7" stroke="rgb(0,0,0)"  stroke-width="2.0"/>
<line x1="111.9" y1="155.1" x2="110.3" y2="155.1" stroke="rgb(0,0,0)"  stroke-width="1.0"/>
<line x1="112.5" y1="159.6" x2="109.6" y2="159.5" stroke="rgb(0,0,0)"  stroke-width="1.0"/>
<line x1="113.0" y1="164.0" x2="108.8" y2="163.9" stroke="rgb(0,0,0)"  stroke-width="1.0"/>
<line x1="113.5" y1="168.4" x2="108.1" y2="168.3" stroke="rgb(0,0,0)"  stroke-width="1.0"/>
<line x1="114.1" y1="172.8" x2="107.4" y2="172.7" stroke="rgb(0,0,0)"  stroke-width="1.0"/>
<line x1="114.6" y1="177.2" x2="106.6" y2="177.1" stroke="rgb(0,0,0)"  stroke-width="1.0"/>
<line x1="146.9" y1="88.3" x2="153.9" y2="59.9" stroke="rgb(0,0,0)"  stroke-width="2.0"/>
<line x1="140.0" y1="92.5" x2="139.3" y2="91.1" stroke="rgb(0,0,0)"  stroke-width="1.0"/>
<line x1="134.5" y1="95.9" x2="133.3" y2="93.3" stroke="rgb(0,0,0)"  stroke-width="1.0"/>
<line x1="129.0" y1="99.3" x2="127.2" y2="95.5" stroke="rgb(0,0,0)"  stroke-width="1.0"/>
<line x1="123.4" y1="102.6" x2="121.1" y2="97.7" stroke="rgb(0,0,0)"  stroke-width="1.0"/>
<line x1="117.9" y1="106.0" x2="115.0" y2="99.9" stroke="rgb(0,0,0)"  stroke-width="1.0"/>
<line x1="112.4" y1="109.4" x2="108.9" y2="102.1" stroke="rgb(0,0,0)"  stroke-width="1.0"/>
<line x1="169.5" y1="43.7" x2="169.6" y2="43.6" stroke="rgb(0,0,0)"  stroke-width="2.0"/>
<line x1="51.4" y1="183.9" x2="75.6" y2="168.8" stroke="rgb(0,0,0)"  stroke-width="2.0"/>
<line x1="75.6" y1="168.8" x2="41.0" y2="148.8" stroke="rgb(0,0,0)"  stroke-width="2.0"/>
<line x1="41.0" y1="148.8" x2="40.6" y2="177.7" stroke="rgb(0,0,0)"  stroke-width="2.0"/>
<line x1="75.6" y1="168.8" x2="111.2" y2="149.6" stroke="rgb(0,0,0)"  stroke-width="2.0"/>
<line x1="111.2" y1="149.6" x2="110.7" y2="105.7" stroke="rgb(0,0,0)"  stroke-width="2.0"/>
<line x1="110.7" y1="105.7" x2="75.4" y2="88.0" stroke="rgb(0,0,0)"  stroke-width="2.0"/>
<line x1="75.4" y1="88.0" x2="40.0" y2="108.4" stroke="rgb(0,0,0)"  stroke-width="2.0"/>
<line x1="40.0" y1="108.4" x2="41.0" y2="148.8" stroke="rgb(0,0,0)"  stroke-width="2.0"/>
<line x1="182.6" y1="108.6" x2="146.9" y2="88.3" stroke="rgb(0,0,0)"  stroke-width="2.0"/>
<line x1="146.9" y1="88.3" x2="110.7" y2="105.7" stroke="rgb(0,0,0)"  stroke-width="2.0"/>
<line x1="111.2" y1="149.6" x2="146.6" y2="169.9" stroke="rgb(0,0,0)"  stroke-width="2.0"/>
<line x1="146.6" y1="169.9" x2="182.7" y2="150.9" stroke="rgb(0,0,0)"  stroke-width="2.0"/>
<line x1="182.7" y1="150.9" x2="182.6" y2="108.6" stroke="rgb(0,0,0)"  stroke-width="2.0"/>
<text x="185.974357" y="240.571559" fill="rgb(255,12,12)"  stroke="rgb(255,12,12)" stroke-width="1" font-size="16" >O</text>
<text x="34.342740" y="198.716742" fill="rgb(255,12,12)"  stroke="rgb(255,12,12)" stroke-width="1" font-size="16" >O</text>
<text x="106.971563" y="75.357165" fill="rgb(102,102,102)"  stroke="rgb(102,102,102)" stroke-width="1" font-size="16" >CH</text>
<text x="130.971563" y="79.037165" fill="rgb(102,102,102)"  stroke="rgb(102,102,102)" stroke-width="1" font-size="13" >3</text>
<text x="150.982445" y="55.321692" fill="rgb(255,12,12)"  stroke="rgb(255,12,12)" stroke-width="1" font-size="16" >O</text>
<text x="104.326563" y="198.716742" fill="rgb(191,191,191)"  stroke="rgb(191,191,191)" stroke-width="1" font-size="16" >H</text>
<text x="188.543561" y="266.622532" fill="rgb(191,191,191)"  stroke="rgb(191,191,191)" stroke-width="1" font-size="16" >H</text>
<text x="176.115846" y="48.000000" fill="rgb(191,191,191)"  stroke="rgb(191,191,191)" stroke-width="1" font-size="16" >H</text>
</svg>
</g>
<text font-size="18.000000" fill ="black" font-family="sans-serif"
x="10.000000" y="20.000000" ></text>
</svg>
