<?xml version="1.0"?>
<svg version="1.1" id="topsvg"
xmlns="http://www.w3.org/2000/svg" xmlns:xlink="http://www.w3.org/1999/xlink"
xmlns:cml="http://www.xml-cml.org/schema" x="0" y="0" width="200px" height="200px" viewBox="0 0 100 100">
<title> - Open Babel Depiction</title>
<rect x="0" y="0" width="100" height="100" fill="white"/>
<g transform="translate(0,0)">
<svg width="100" height="100" x="0" y="0" viewBox="0 0 372.242 320.102"
font-family="sans-serif" stroke="rgb(0,0,0)" stroke-width="2"  stroke-linecap="round">
<polygon points="133.38 170.413 137.354 214.611 129.354 214.607 " stroke-width="2" fill="rgb(0,0,0)"  stroke="rgb(0,0,0)" />
<line x1="133.4" y1="214.6" x2="156.1" y2="229.0" stroke="rgb(0,0,0)"  stroke-width="2.0"/>
<line x1="94.9" y1="105.4" x2="79.7" y2="99.9" stroke="rgb(0,0,0)"  stroke-width="2.0"/>
<line x1="71.9" y1="83.2" x2="73.0" y2="80.2" stroke="rgb(0,0,0)"  stroke-width="2.0"/>
<line x1="55.2" y1="91.0" x2="52.2" y2="89.9" stroke="rgb(0,0,0)"  stroke-width="2.0"/>
<line x1="63.0" y1="107.7" x2="61.9" y2="110.7" stroke="rgb(0,0,0)"  stroke-width="2.0"/>
<line x1="135.6" y1="53.0" x2="135.7" y2="83.8" stroke="rgb(0,0,0)"  stroke-width="2.0"/>
<line x1="129.6" y1="53.0" x2="129.7" y2="83.8" stroke="rgb(0,0,0)"  stroke-width="2.0"/>
<line x1="178.1" y1="152.7" x2="177.3" y2="154.1" stroke="rgb(0,0,0)"  stroke-width="1.0"/>
<line x1="184.5" y1="155.4" x2="183.1" y2="158.0" stroke="rgb(0,0,0)"  stroke-width="1.0"/>
<line x1="190.9" y1="158.2" x2="188.9" y2="161.8" stroke="rgb(0,0,0)"  stroke-width="1.0"/>
<line x1="197.3" y1="160.9" x2="194.7" y2="165.7" stroke="rgb(0,0,0)"  stroke-width="1.0"/>
<line x1="203.7" y1="163.6" x2="200.6" y2="169.6" stroke="rgb(0,0,0)"  stroke-width="1.0"/>
<line x1="210.2" y1="166.4" x2="206.4" y2="173.4" stroke="rgb(0,0,0)"  stroke-width="1.0"/>
<line x1="320.0" y1="125.9" x2="322.4" y2="128.0" stroke="rgb(0,0,0)"  stroke-width="2.0"/>
<line x1="297.9" y1="121.6" x2="282.6" y2="126.9" stroke="rgb(0,0,0)"  stroke-width="2.0"/>
<line x1="282.6" y1="126.9" x2="283.0" y2="169.8" stroke="rgb(0,0,0)"  stroke-width="2.0"/>
<line x1="283.0" y1="169.8" x2="283.5" y2="229.5" stroke="rgb(0,0,0)"  stroke-width="2.0"/>
<line x1="287.2" y1="169.8" x2="287.7" y2="229.4" stroke="rgb(0,0,0)"  stroke-width="2.0"/>
<line x1="278.8" y1="169.9" x2="279.3" y2="229.5" stroke="rgb(0,0,0)"  stroke-width="2.0"/>
<line x1="244.4" y1="277.5" x2="282.3" y2="256.2" stroke="rgb(0,0,0)"  stroke-width="2.0"/>
<line x1="247.3" y1="282.7" x2="285.3" y2="261.4" stroke="rgb(0,0,0)"  stroke-width="2.0"/>
<line x1="283.8" y1="258.8" x2="283.5" y2="229.5" stroke="rgb(0,0,0)"  stroke-width="2.0"/>
<line x1="207.4" y1="258.2" x2="156.1" y2="229.0" stroke="rgb(0,0,0)"  stroke-width="2.0"/>
<line x1="205.4" y1="261.9" x2="154.0" y2="232.6" stroke="rgb(0,0,0)"  stroke-width="2.0"/>
<line x1="209.5" y1="254.6" x2="158.2" y2="225.3" stroke="rgb(0,0,0)"  stroke-width="2.0"/>
<line x1="207.4" y1="258.2" x2="245.8" y2="280.1" stroke="rgb(0,0,0)"  stroke-width="2.0"/>
<line x1="204.7" y1="203.1" x2="205.3" y2="169.8" stroke="rgb(0,0,0)"  stroke-width="2.0"/>
<line x1="210.7" y1="203.2" x2="211.3" y2="169.9" stroke="rgb(0,0,0)"  stroke-width="2.0"/>
<line x1="94.8" y1="149.2" x2="133.4" y2="170.4" stroke="rgb(0,0,0)"  stroke-width="2.0"/>
<line x1="133.4" y1="170.4" x2="170.1" y2="149.3" stroke="rgb(0,0,0)"  stroke-width="2.0"/>
<line x1="170.1" y1="149.3" x2="170.7" y2="105.1" stroke="rgb(0,0,0)"  stroke-width="2.0"/>
<line x1="170.7" y1="105.1" x2="132.7" y2="83.8" stroke="rgb(0,0,0)"  stroke-width="2.0"/>
<line x1="132.7" y1="83.8" x2="94.9" y2="105.4" stroke="rgb(0,0,0)"  stroke-width="2.0"/>
<line x1="94.9" y1="105.4" x2="94.8" y2="149.2" stroke="rgb(0,0,0)"  stroke-width="2.0"/>
<line x1="102.1" y1="111.5" x2="102.0" y2="143.2" stroke="rgb(0,0,0)"  stroke-width="2.0"/>
<text x="61.455115" y="103.453665" fill="rgb(127,153,153)"  stroke="rgb(127,153,153)" stroke-width="1" font-size="16" >Si</text>
<text x="73.444371" y="75.995628" fill="rgb(102,102,102)"  stroke="rgb(102,102,102)" stroke-width="1" font-size="16" >CH</text>
<text x="97.444371" y="79.675628" fill="rgb(102,102,102)"  stroke="rgb(102,102,102)" stroke-width="1" font-size="13" >3</text>
<text x="14.000000" y="93.464409" fill="rgb(102,102,102)"  stroke="rgb(102,102,102)" stroke-width="1" font-size="16" >H</text>
<text x="26.000000" y="97.144409" fill="rgb(102,102,102)"  stroke="rgb(102,102,102)" stroke-width="1" font-size="13" >3</text>
<text x="32.500000" y="93.464409" fill="rgb(102,102,102)"  stroke="rgb(102,102,102)" stroke-width="1" font-size="16" >C</text>
<text x="31.465859" y="130.908780" fill="rgb(102,102,102)"  stroke="rgb(102,102,102)" stroke-width="1" font-size="16" >H</text>
<text x="43.465859" y="134.588780" fill="rgb(102,102,102)"  stroke="rgb(102,102,102)" stroke-width="1" font-size="13" >3</text>
<text x="49.965859" y="130.908780" fill="rgb(102,102,102)"  stroke="rgb(102,102,102)" stroke-width="1" font-size="16" >C</text>
<text x="126.550355" y="48.000000" fill="rgb(255,12,12)"  stroke="rgb(255,12,12)" stroke-width="1" font-size="16" >O</text>
<text x="304.186149" y="125.351727" fill="rgb(255,12,12)"  stroke="rgb(255,12,12)" stroke-width="1" font-size="16" >O</text>
<text x="328.241982" y="144.512166" fill="rgb(102,102,102)"  stroke="rgb(102,102,102)" stroke-width="1" font-size="16" >CH</text>
<text x="352.241982" y="148.192166" fill="rgb(102,102,102)"  stroke="rgb(102,102,102)" stroke-width="1" font-size="13" >3</text>
<text x="181.500453" y="224.098985" fill="rgb(102,102,102)"  stroke="rgb(102,102,102)" stroke-width="1" font-size="16" >H</text>
<text x="193.500453" y="227.778985" fill="rgb(102,102,102)"  stroke="rgb(102,102,102)" stroke-width="1" font-size="13" >2</text>
<text x="200.000453" y="224.098985" fill="rgb(102,102,102)"  stroke="rgb(102,102,102)" stroke-width="1" font-size="16" >C</text>
</svg>
</g>
<text font-size="18.000000" fill ="black" font-family="sans-serif"
x="10.000000" y="20.000000" ></text>
</svg>
