<?xml version="1.0"?>
<svg version="1.1" id="topsvg"
xmlns="http://www.w3.org/2000/svg" xmlns:xlink="http://www.w3.org/1999/xlink"
xmlns:cml="http://www.xml-cml.org/schema" x="0" y="0" width="200px" height="200px" viewBox="0 0 100 100">
<title> - Open Babel Depiction</title>
<rect x="0" y="0" width="100" height="100" fill="white"/>
<g transform="translate(0,0)">
<svg width="100" height="100" x="0" y="0" viewBox="0 0 336.226 252.732"
font-family="sans-serif" stroke="rgb(0,0,0)" stroke-width="2"  stroke-linecap="round">
<polygon points="122.17 154.845 135.205 191.156 127.436 193.064 " stroke-width="2" fill="rgb(0,0,0)"  stroke="rgb(0,0,0)" />
<line x1="68.7" y1="77.2" x2="68.6" y2="77.4" stroke="rgb(0,0,0)"  stroke-width="2.0"/>
<line x1="52.0" y1="84.9" x2="52.2" y2="85.0" stroke="rgb(0,0,0)"  stroke-width="2.0"/>
<line x1="59.7" y1="101.6" x2="59.8" y2="101.4" stroke="rgb(0,0,0)"  stroke-width="2.0"/>
<line x1="76.4" y1="93.9" x2="88.4" y2="98.3" stroke="rgb(0,0,0)"  stroke-width="2.0"/>
<line x1="118.8" y1="78.8" x2="118.4" y2="53.0" stroke="rgb(0,0,0)"  stroke-width="2.0"/>
<line x1="124.8" y1="78.7" x2="124.4" y2="53.0" stroke="rgb(0,0,0)"  stroke-width="2.0"/>
<polygon points="154.873402 98.369488 190.641165 83.952836 192.846112 91.642973 " stroke-width="2.000000" fill="rgb(0,0,0)"  stroke="rgb(0,0,0)" />
<line x1="161.9" y1="139.7" x2="161.1" y2="141.1" stroke="rgb(0,0,0)"  stroke-width="1.0"/>
<line x1="167.5" y1="142.2" x2="166.1" y2="144.7" stroke="rgb(0,0,0)"  stroke-width="1.0"/>
<line x1="173.2" y1="144.8" x2="171.1" y2="148.4" stroke="rgb(0,0,0)"  stroke-width="1.0"/>
<line x1="178.8" y1="147.3" x2="176.1" y2="152.0" stroke="rgb(0,0,0)"  stroke-width="1.0"/>
<line x1="184.5" y1="149.9" x2="181.1" y2="155.7" stroke="rgb(0,0,0)"  stroke-width="1.0"/>
<line x1="190.2" y1="152.4" x2="186.1" y2="159.3" stroke="rgb(0,0,0)"  stroke-width="1.0"/>
<line x1="186.6" y1="153.3" x2="209.5" y2="140.0" stroke="rgb(0,0,0)"  stroke-width="2.0"/>
<line x1="189.7" y1="158.5" x2="212.5" y2="145.2" stroke="rgb(0,0,0)"  stroke-width="2.0"/>
<line x1="277.2" y1="145.4" x2="296.2" y2="179.4" stroke="rgb(0,0,0)"  stroke-width="2.0"/>
<line x1="296.2" y1="179.4" x2="276.8" y2="212.0" stroke="rgb(0,0,0)"  stroke-width="2.0"/>
<line x1="287.0" y1="180.9" x2="273.7" y2="203.2" stroke="rgb(0,0,0)"  stroke-width="2.0"/>
<line x1="276.8" y1="212.0" x2="238.4" y2="212.7" stroke="rgb(0,0,0)"  stroke-width="2.0"/>
<line x1="238.4" y1="212.7" x2="219.0" y2="178.5" stroke="rgb(0,0,0)"  stroke-width="2.0"/>
<line x1="241.7" y1="204.0" x2="228.2" y2="180.1" stroke="rgb(0,0,0)"  stroke-width="2.0"/>
<line x1="219.0" y1="178.5" x2="238.1" y2="145.6" stroke="rgb(0,0,0)"  stroke-width="2.0"/>
<line x1="238.1" y1="145.6" x2="277.2" y2="145.4" stroke="rgb(0,0,0)"  stroke-width="2.0"/>
<line x1="244.1" y1="152.7" x2="271.2" y2="152.6" stroke="rgb(0,0,0)"  stroke-width="2.0"/>
<line x1="88.4" y1="98.3" x2="121.8" y2="78.8" stroke="rgb(0,0,0)"  stroke-width="2.0"/>
<line x1="121.8" y1="78.8" x2="154.9" y2="98.4" stroke="rgb(0,0,0)"  stroke-width="2.0"/>
<line x1="154.9" y1="98.4" x2="154.8" y2="136.5" stroke="rgb(0,0,0)"  stroke-width="2.0"/>
<line x1="154.8" y1="136.5" x2="122.2" y2="154.8" stroke="rgb(0,0,0)"  stroke-width="2.0"/>
<line x1="122.2" y1="154.8" x2="88.9" y2="136.0" stroke="rgb(0,0,0)"  stroke-width="2.0"/>
<line x1="88.9" y1="136.0" x2="88.4" y2="98.3" stroke="rgb(0,0,0)"  stroke-width="2.0"/>
<line x1="96.0" y1="130.0" x2="95.7" y2="104.2" stroke="rgb(0,0,0)"  stroke-width="2.0"/>
<line x1="131.3" y1="192.1" x2="219.0" y2="178.5" stroke="rgb(0,0,0)"  stroke-width="2.0"/>
<line x1="238.1" y1="145.6" x2="191.7" y2="87.8" stroke="rgb(0,0,0)"  stroke-width="2.0"/>
<line x1="191.7" y1="87.8" x2="154.9" y2="98.4" stroke="rgb(0,0,0)"  stroke-width="2.0"/>
<line x1="122.2" y1="154.8" x2="131.3" y2="192.1" stroke="rgb(0,0,0)"  stroke-width="2.0"/>
<text x="58.213752" y="97.423508" fill="rgb(127,153,153)"  stroke="rgb(127,153,153)" stroke-width="1" font-size="16" >Si</text>
<text x="69.126187" y="73.207176" fill="rgb(102,102,102)"  stroke="rgb(102,102,102)" stroke-width="1" font-size="16" >CH</text>
<text x="93.126187" y="76.887176" fill="rgb(102,102,102)"  stroke="rgb(102,102,102)" stroke-width="1" font-size="13" >3</text>
<text x="14.000000" y="88.511072" fill="rgb(102,102,102)"  stroke="rgb(102,102,102)" stroke-width="1" font-size="16" >H</text>
<text x="26.000000" y="92.191072" fill="rgb(102,102,102)"  stroke="rgb(102,102,102)" stroke-width="1" font-size="13" >3</text>
<text x="32.500000" y="88.511072" fill="rgb(102,102,102)"  stroke="rgb(102,102,102)" stroke-width="1" font-size="16" >C</text>
<text x="29.303896" y="121.637260" fill="rgb(102,102,102)"  stroke="rgb(102,102,102)" stroke-width="1" font-size="16" >H</text>
<text x="41.303896" y="125.317260" fill="rgb(102,102,102)"  stroke="rgb(102,102,102)" stroke-width="1" font-size="13" >3</text>
<text x="47.803896" y="121.637260" fill="rgb(102,102,102)"  stroke="rgb(102,102,102)" stroke-width="1" font-size="16" >C</text>
<text x="115.293078" y="48.000000" fill="rgb(255,12,12)"  stroke="rgb(255,12,12)" stroke-width="1" font-size="16" >O</text>
<text x="218.243057" y="144.068008" fill="rgb(102,102,102)"  stroke="rgb(102,102,102)" stroke-width="1" font-size="16" >CH</text>
<text x="242.243057" y="147.748008" fill="rgb(102,102,102)"  stroke="rgb(102,102,102)" stroke-width="1" font-size="13" >2</text>
</svg>
</g>
<text font-size="18.000000" fill ="black" font-family="sans-serif"
x="10.000000" y="20.000000" ></text>
</svg>
