<?xml version="1.0"?>
<svg version="1.1" id="topsvg"
xmlns="http://www.w3.org/2000/svg" xmlns:xlink="http://www.w3.org/1999/xlink"
xmlns:cml="http://www.xml-cml.org/schema" x="0" y="0" width="200px" height="200px" viewBox="0 0 100 100">
<title> - Open Babel Depiction</title>
<rect x="0" y="0" width="100" height="100" fill="white"/>
<g transform="translate(0,0)">
<svg width="100" height="100" x="0" y="0" viewBox="0 0 388.44 348.958"
font-family="sans-serif" stroke="rgb(0,0,0)" stroke-width="2"  stroke-linecap="round">
<line x1="322.3" y1="298.1" x2="305.1" y2="272.0" stroke="rgb(0,0,0)"  stroke-width="2.0"/>
<line x1="305.1" y1="272.0" x2="335.6" y2="267.6" stroke="rgb(0,0,0)"  stroke-width="2.0"/>
<polygon points="246.626073 140.699478 211.188099 160.924443 207.922959 153.621097 " stroke-width="2.000000" fill="rgb(0,0,0)"  stroke="rgb(0,0,0)" />
<line x1="284.2" y1="162.1" x2="284.2" y2="206.1" stroke="rgb(0,0,0)"  stroke-width="2.0"/>
<line x1="239.1" y1="92.9" x2="239.9" y2="91.5" stroke="rgb(0,0,0)"  stroke-width="1.0"/>
<line x1="232.8" y1="90.0" x2="234.3" y2="87.6" stroke="rgb(0,0,0)"  stroke-width="1.0"/>
<line x1="226.6" y1="87.2" x2="228.6" y2="83.6" stroke="rgb(0,0,0)"  stroke-width="1.0"/>
<line x1="220.3" y1="84.3" x2="223.0" y2="79.6" stroke="rgb(0,0,0)"  stroke-width="1.0"/>
<line x1="214.0" y1="81.5" x2="217.4" y2="75.6" stroke="rgb(0,0,0)"  stroke-width="1.0"/>
<line x1="207.8" y1="78.6" x2="211.7" y2="71.7" stroke="rgb(0,0,0)"  stroke-width="1.0"/>
<line x1="310.3" y1="49.2" x2="313.2" y2="49.1" stroke="rgb(0,0,0)"  stroke-width="2.0"/>
<line x1="291.1" y1="61.0" x2="283.6" y2="75.1" stroke="rgb(0,0,0)"  stroke-width="2.0"/>
<line x1="136.5" y1="73.7" x2="173.8" y2="95.2" stroke="rgb(0,0,0)"  stroke-width="2.0"/>
<line x1="133.5" y1="78.9" x2="170.8" y2="100.4" stroke="rgb(0,0,0)"  stroke-width="2.0"/>
<line x1="172.3" y1="97.8" x2="209.7" y2="75.2" stroke="rgb(0,0,0)"  stroke-width="2.0"/>
<line x1="97.7" y1="97.4" x2="135.0" y2="76.3" stroke="rgb(0,0,0)"  stroke-width="2.0"/>
<line x1="97.7" y1="97.4" x2="82.9" y2="91.4" stroke="rgb(0,0,0)"  stroke-width="2.0"/>
<line x1="69.1" y1="73.6" x2="66.8" y2="57.8" stroke="rgb(0,0,0)"  stroke-width="2.0"/>
<line x1="65.0" y1="55.5" x2="77.6" y2="45.6" stroke="rgb(0,0,0)"  stroke-width="2.0"/>
<line x1="68.7" y1="60.2" x2="81.3" y2="50.4" stroke="rgb(0,0,0)"  stroke-width="2.0"/>
<line x1="66.8" y1="57.8" x2="52.1" y2="51.8" stroke="rgb(0,0,0)"  stroke-width="2.0"/>
<line x1="183.9" y1="142.3" x2="210.8" y2="154.5" stroke="rgb(0,0,0)"  stroke-width="2.0"/>
<line x1="181.4" y1="147.8" x2="208.3" y2="160.0" stroke="rgb(0,0,0)"  stroke-width="2.0"/>
<line x1="261.2" y1="271.6" x2="252.0" y2="242.6" stroke="rgb(0,0,0)"  stroke-width="2.0"/>
<line x1="258.8" y1="223.0" x2="284.2" y2="206.1" stroke="rgb(0,0,0)"  stroke-width="2.0"/>
<line x1="284.2" y1="206.1" x2="307.4" y2="223.2" stroke="rgb(0,0,0)"  stroke-width="2.0"/>
<line x1="284.7" y1="215.5" x2="301.8" y2="228.0" stroke="rgb(0,0,0)"  stroke-width="2.0"/>
<line x1="314.6" y1="244.0" x2="305.1" y2="272.0" stroke="rgb(0,0,0)"  stroke-width="2.0"/>
<line x1="305.1" y1="272.0" x2="261.2" y2="271.6" stroke="rgb(0,0,0)"  stroke-width="2.0"/>
<line x1="246.6" y1="140.7" x2="284.2" y2="162.1" stroke="rgb(0,0,0)"  stroke-width="2.0"/>
<line x1="284.2" y1="162.1" x2="322.1" y2="141.1" stroke="rgb(0,0,0)"  stroke-width="2.0"/>
<line x1="286.0" y1="152.9" x2="313.4" y2="137.8" stroke="rgb(0,0,0)"  stroke-width="2.0"/>
<line x1="322.1" y1="141.1" x2="322.1" y2="96.1" stroke="rgb(0,0,0)"  stroke-width="2.0"/>
<line x1="322.1" y1="96.1" x2="283.6" y2="75.1" stroke="rgb(0,0,0)"  stroke-width="2.0"/>
<line x1="313.4" y1="99.5" x2="285.4" y2="84.3" stroke="rgb(0,0,0)"  stroke-width="2.0"/>
<line x1="283.6" y1="75.1" x2="246.9" y2="96.5" stroke="rgb(0,0,0)"  stroke-width="2.0"/>
<line x1="246.9" y1="96.5" x2="246.6" y2="140.7" stroke="rgb(0,0,0)"  stroke-width="2.0"/>
<text x="325.411451" y="316.957639" fill="rgb(102,102,102)"  stroke="rgb(102,102,102)" stroke-width="1" font-size="16" >CH</text>
<text x="349.411451" y="320.637639" fill="rgb(102,102,102)"  stroke="rgb(102,102,102)" stroke-width="1" font-size="13" >3</text>
<text x="242.007422" y="238.229430" fill="rgb(255,12,12)"  stroke="rgb(255,12,12)" stroke-width="1" font-size="16" >O</text>
<text x="312.838484" y="239.674490" fill="rgb(12,12,255)"  stroke="rgb(12,12,255)" stroke-width="1" font-size="16" >N</text>
<text x="344.440476" y="273.770934" fill="rgb(102,102,102)"  stroke="rgb(102,102,102)" stroke-width="1" font-size="16" >CH</text>
<text x="368.440476" y="277.450934" fill="rgb(102,102,102)"  stroke="rgb(102,102,102)" stroke-width="1" font-size="13" >3</text>
<text x="291.281330" y="57.588358" fill="rgb(255,12,12)"  stroke="rgb(255,12,12)" stroke-width="1" font-size="16" >O</text>
<text x="322.225950" y="56.670354" fill="rgb(102,102,102)"  stroke="rgb(102,102,102)" stroke-width="1" font-size="16" >CH</text>
<text x="346.225950" y="60.350354" fill="rgb(102,102,102)"  stroke="rgb(102,102,102)" stroke-width="1" font-size="13" >3</text>
<text x="64.870400" y="94.499626" fill="rgb(255,12,12)"  stroke="rgb(255,12,12)" stroke-width="1" font-size="16" >O</text>
<text x="83.673544" y="48.000000" fill="rgb(255,12,12)"  stroke="rgb(255,12,12)" stroke-width="1" font-size="16" >O</text>
<text x="14.000000" y="54.964663" fill="rgb(102,102,102)"  stroke="rgb(102,102,102)" stroke-width="1" font-size="16" >H</text>
<text x="26.000000" y="58.644663" fill="rgb(102,102,102)"  stroke="rgb(102,102,102)" stroke-width="1" font-size="13" >3</text>
<text x="32.500000" y="54.964663" fill="rgb(102,102,102)"  stroke="rgb(102,102,102)" stroke-width="1" font-size="16" >C</text>
<text x="144.828525" y="147.642470" fill="rgb(102,102,102)"  stroke="rgb(102,102,102)" stroke-width="1" font-size="16" >H</text>
<text x="156.828525" y="151.322470" fill="rgb(102,102,102)"  stroke="rgb(102,102,102)" stroke-width="1" font-size="13" >2</text>
<text x="163.328525" y="147.642470" fill="rgb(102,102,102)"  stroke="rgb(102,102,102)" stroke-width="1" font-size="16" >C</text>
</svg>
</g>
<text font-size="18.000000" fill ="black" font-family="sans-serif"
x="10.000000" y="20.000000" ></text>
</svg>
