<?xml version="1.0"?>
<svg version="1.1" id="topsvg"
xmlns="http://www.w3.org/2000/svg" xmlns:xlink="http://www.w3.org/1999/xlink"
xmlns:cml="http://www.xml-cml.org/schema" x="0" y="0" width="200px" height="200px" viewBox="0 0 100 100">
<title> - Open Babel Depiction</title>
<rect x="0" y="0" width="100" height="100" fill="white"/>
<g transform="translate(0,0)">
<svg width="100" height="100" x="0" y="0" viewBox="0 0 362.887 355.092"
font-family="sans-serif" stroke="rgb(0,0,0)" stroke-width="2"  stroke-linecap="round">
<line x1="250.4" y1="243.1" x2="252.0" y2="243.2" stroke="rgb(0,0,0)"  stroke-width="1.0"/>
<line x1="249.7" y1="236.6" x2="252.6" y2="236.6" stroke="rgb(0,0,0)"  stroke-width="1.0"/>
<line x1="249.1" y1="230.1" x2="253.3" y2="230.1" stroke="rgb(0,0,0)"  stroke-width="1.0"/>
<line x1="248.5" y1="223.5" x2="253.9" y2="223.5" stroke="rgb(0,0,0)"  stroke-width="1.0"/>
<line x1="247.8" y1="217.0" x2="254.6" y2="217.0" stroke="rgb(0,0,0)"  stroke-width="1.0"/>
<line x1="247.2" y1="210.4" x2="255.2" y2="210.5" stroke="rgb(0,0,0)"  stroke-width="1.0"/>
<line x1="251.1" y1="251.3" x2="250.9" y2="280.0" stroke="rgb(0,0,0)"  stroke-width="2.0"/>
<line x1="212.4" y1="198.7" x2="198.8" y2="158.2" stroke="rgb(0,0,0)"  stroke-width="2.0"/>
<polygon points="212.392056 198.664393 252.385601 206.628282 250.061163 214.283149 " stroke-width="2.000000" fill="rgb(0,0,0)"  stroke="rgb(0,0,0)" />
<line x1="159.4" y1="150.2" x2="198.8" y2="158.2" stroke="rgb(0,0,0)"  stroke-width="2.0"/>
<line x1="45.4" y1="116.6" x2="44.9" y2="115.2" stroke="rgb(0,0,0)"  stroke-width="2.0"/>
<line x1="63.2" y1="130.5" x2="77.5" y2="132.5" stroke="rgb(0,0,0)"  stroke-width="2.0"/>
<line x1="106.0" y1="102.7" x2="88.6" y2="73.7" stroke="rgb(0,0,0)"  stroke-width="2.0"/>
<line x1="88.2" y1="51.2" x2="88.1" y2="51.4" stroke="rgb(0,0,0)"  stroke-width="2.0"/>
<line x1="250.4" y1="204.8" x2="252.0" y2="204.8" stroke="rgb(0,0,0)"  stroke-width="1.0"/>
<line x1="249.7" y1="200.3" x2="252.5" y2="200.3" stroke="rgb(0,0,0)"  stroke-width="1.0"/>
<line x1="249.0" y1="195.8" x2="253.1" y2="195.8" stroke="rgb(0,0,0)"  stroke-width="1.0"/>
<line x1="248.3" y1="191.3" x2="253.7" y2="191.3" stroke="rgb(0,0,0)"  stroke-width="1.0"/>
<line x1="247.6" y1="186.8" x2="254.3" y2="186.7" stroke="rgb(0,0,0)"  stroke-width="1.0"/>
<line x1="246.9" y1="182.3" x2="254.9" y2="182.2" stroke="rgb(0,0,0)"  stroke-width="1.0"/>
<line x1="284.3" y1="191.2" x2="284.4" y2="161.3" stroke="rgb(0,0,0)"  stroke-width="2.0"/>
<line x1="290.3" y1="191.2" x2="290.4" y2="161.3" stroke="rgb(0,0,0)"  stroke-width="2.0"/>
<line x1="288.1" y1="302.1" x2="288.5" y2="271.5" stroke="rgb(0,0,0)"  stroke-width="2.0"/>
<line x1="294.1" y1="302.1" x2="294.5" y2="271.5" stroke="rgb(0,0,0)"  stroke-width="2.0"/>
<line x1="131.2" y1="180.4" x2="90.7" y2="171.8" stroke="rgb(0,0,0)"  stroke-width="2.0"/>
<line x1="126.9" y1="172.1" x2="98.1" y2="166.0" stroke="rgb(0,0,0)"  stroke-width="2.0"/>
<line x1="90.7" y1="171.8" x2="77.5" y2="132.5" stroke="rgb(0,0,0)"  stroke-width="2.0"/>
<line x1="77.5" y1="132.5" x2="106.0" y2="102.7" stroke="rgb(0,0,0)"  stroke-width="2.0"/>
<line x1="86.9" y1="133.1" x2="107.1" y2="112.1" stroke="rgb(0,0,0)"  stroke-width="2.0"/>
<line x1="106.0" y1="102.7" x2="146.5" y2="110.0" stroke="rgb(0,0,0)"  stroke-width="2.0"/>
<line x1="146.5" y1="110.0" x2="159.4" y2="150.2" stroke="rgb(0,0,0)"  stroke-width="2.0"/>
<line x1="141.5" y1="117.9" x2="150.7" y2="146.7" stroke="rgb(0,0,0)"  stroke-width="2.0"/>
<line x1="159.4" y1="150.2" x2="131.2" y2="180.4" stroke="rgb(0,0,0)"  stroke-width="2.0"/>
<line x1="211.5" y1="264.8" x2="251.1" y2="251.3" stroke="rgb(0,0,0)"  stroke-width="2.0"/>
<line x1="251.1" y1="251.3" x2="251.2" y2="210.5" stroke="rgb(0,0,0)"  stroke-width="2.0"/>
<line x1="251.2" y1="210.5" x2="212.4" y2="198.7" stroke="rgb(0,0,0)"  stroke-width="2.0"/>
<line x1="212.4" y1="198.7" x2="187.3" y2="231.0" stroke="rgb(0,0,0)"  stroke-width="2.0"/>
<line x1="187.3" y1="231.0" x2="211.5" y2="264.8" stroke="rgb(0,0,0)"  stroke-width="2.0"/>
<line x1="287.3" y1="191.2" x2="322.5" y2="210.2" stroke="rgb(0,0,0)"  stroke-width="2.0"/>
<line x1="322.5" y1="210.2" x2="322.9" y2="252.2" stroke="rgb(0,0,0)"  stroke-width="2.0"/>
<line x1="315.4" y1="216.3" x2="315.6" y2="246.3" stroke="rgb(0,0,0)"  stroke-width="2.0"/>
<line x1="322.9" y1="252.2" x2="291.5" y2="271.5" stroke="rgb(0,0,0)"  stroke-width="2.0"/>
<line x1="291.5" y1="271.5" x2="251.1" y2="251.3" stroke="rgb(0,0,0)"  stroke-width="2.0"/>
<line x1="251.2" y1="210.5" x2="287.3" y2="191.2" stroke="rgb(0,0,0)"  stroke-width="2.0"/>
<text x="44.303311" y="136.670088" fill="rgb(255,12,12)"  stroke="rgb(255,12,12)" stroke-width="1" font-size="16" >O</text>
<text x="14.000000" y="111.167605" fill="rgb(102,102,102)"  stroke="rgb(102,102,102)" stroke-width="1" font-size="16" >H</text>
<text x="26.000000" y="114.847605" fill="rgb(102,102,102)"  stroke="rgb(102,102,102)" stroke-width="1" font-size="13" >3</text>
<text x="32.500000" y="111.167605" fill="rgb(102,102,102)"  stroke="rgb(102,102,102)" stroke-width="1" font-size="16" >C</text>
<text x="75.889864" y="70.529211" fill="rgb(255,12,12)"  stroke="rgb(255,12,12)" stroke-width="1" font-size="16" >O</text>
<text x="281.400492" y="156.330544" fill="rgb(255,12,12)"  stroke="rgb(255,12,12)" stroke-width="1" font-size="16" >O</text>
<text x="264.937614" y="323.092360" fill="rgb(102,102,102)"  stroke="rgb(102,102,102)" stroke-width="1" font-size="16" >H</text>
<text x="276.937614" y="326.772360" fill="rgb(102,102,102)"  stroke="rgb(102,102,102)" stroke-width="1" font-size="13" >2</text>
<text x="283.437614" y="323.092360" fill="rgb(102,102,102)"  stroke="rgb(102,102,102)" stroke-width="1" font-size="16" >C</text>
<text x="244.728295" y="176.398072" fill="rgb(191,191,191)"  stroke="rgb(191,191,191)" stroke-width="1" font-size="16" >H</text>
<text x="244.728295" y="300.950968" fill="rgb(191,191,191)"  stroke="rgb(191,191,191)" stroke-width="1" font-size="16" >H</text>
<text x="88.407315" y="48.000000" fill="rgb(191,191,191)"  stroke="rgb(191,191,191)" stroke-width="1" font-size="16" >H</text>
</svg>
</g>
<text font-size="18.000000" fill ="black" font-family="sans-serif"
x="10.000000" y="20.000000" ></text>
</svg>
