<?xml version="1.0"?>
<svg version="1.1" id="topsvg"
xmlns="http://www.w3.org/2000/svg" xmlns:xlink="http://www.w3.org/1999/xlink"
xmlns:cml="http://www.xml-cml.org/schema" x="0" y="0" width="200px" height="200px" viewBox="0 0 100 100">
<title> - Open Babel Depiction</title>
<rect x="0" y="0" width="100" height="100" fill="white"/>
<g transform="translate(0,0)">
<svg width="100" height="100" x="0" y="0" viewBox="0 0 222.908 344.856"
font-family="sans-serif" stroke="rgb(0,0,0)" stroke-width="2"  stroke-linecap="round">
<line x1="150.7" y1="292.3" x2="158.0" y2="265.1" stroke="rgb(0,0,0)"  stroke-width="2.0"/>
<line x1="158.0" y1="265.1" x2="175.1" y2="287.9" stroke="rgb(0,0,0)"  stroke-width="2.0"/>
<line x1="102.1" y1="132.8" x2="103.7" y2="132.8" stroke="rgb(0,0,0)"  stroke-width="1.0"/>
<line x1="101.5" y1="126.4" x2="104.4" y2="126.4" stroke="rgb(0,0,0)"  stroke-width="1.0"/>
<line x1="100.9" y1="119.9" x2="105.0" y2="120.0" stroke="rgb(0,0,0)"  stroke-width="1.0"/>
<line x1="100.3" y1="113.5" x2="105.7" y2="113.5" stroke="rgb(0,0,0)"  stroke-width="1.0"/>
<line x1="99.7" y1="107.1" x2="106.4" y2="107.1" stroke="rgb(0,0,0)"  stroke-width="1.0"/>
<line x1="99.1" y1="100.6" x2="107.1" y2="100.7" stroke="rgb(0,0,0)"  stroke-width="1.0"/>
<line x1="102.9" y1="140.9" x2="102.5" y2="168.8" stroke="rgb(0,0,0)"  stroke-width="2.0"/>
<line x1="58.9" y1="60.1" x2="70.0" y2="88.0" stroke="rgb(0,0,0)"  stroke-width="2.0"/>
<line x1="53.4" y1="62.3" x2="64.4" y2="90.2" stroke="rgb(0,0,0)"  stroke-width="2.0"/>
<line x1="162.4" y1="54.0" x2="162.4" y2="53.0" stroke="rgb(0,0,0)"  stroke-width="2.0"/>
<line x1="150.9" y1="73.4" x2="138.7" y2="80.3" stroke="rgb(0,0,0)"  stroke-width="2.0"/>
<line x1="130.5" y1="158.0" x2="131.4" y2="156.6" stroke="rgb(0,0,0)"  stroke-width="1.0"/>
<line x1="124.6" y1="155.3" x2="126.1" y2="152.8" stroke="rgb(0,0,0)"  stroke-width="1.0"/>
<line x1="118.7" y1="152.5" x2="120.8" y2="148.9" stroke="rgb(0,0,0)"  stroke-width="1.0"/>
<line x1="112.7" y1="149.8" x2="115.5" y2="145.1" stroke="rgb(0,0,0)"  stroke-width="1.0"/>
<line x1="106.8" y1="147.0" x2="110.2" y2="141.2" stroke="rgb(0,0,0)"  stroke-width="1.0"/>
<line x1="100.8" y1="144.3" x2="104.9" y2="137.4" stroke="rgb(0,0,0)"  stroke-width="1.0"/>
<line x1="138.0" y1="161.4" x2="138.2" y2="201.9" stroke="rgb(0,0,0)"  stroke-width="2.0"/>
<polygon points="103.061640 100.635569 136.700099 76.807361 140.669096 83.753371 " stroke-width="2.000000" fill="rgb(0,0,0)"  stroke="rgb(0,0,0)" />
<line x1="126.1" y1="60.8" x2="138.7" y2="80.3" stroke="rgb(0,0,0)"  stroke-width="2.0"/>
<line x1="138.7" y1="80.3" x2="103.1" y2="100.6" stroke="rgb(0,0,0)"  stroke-width="2.0"/>
<line x1="103.1" y1="100.6" x2="115.1" y2="62.2" stroke="rgb(0,0,0)"  stroke-width="2.0"/>
<line x1="118.2" y1="264.6" x2="109.3" y2="238.3" stroke="rgb(0,0,0)"  stroke-width="2.0"/>
<line x1="115.6" y1="218.4" x2="138.2" y2="201.9" stroke="rgb(0,0,0)"  stroke-width="2.0"/>
<line x1="138.2" y1="201.9" x2="160.2" y2="218.1" stroke="rgb(0,0,0)"  stroke-width="2.0"/>
<line x1="138.8" y1="211.2" x2="154.4" y2="222.7" stroke="rgb(0,0,0)"  stroke-width="2.0"/>
<line x1="167.0" y1="238.4" x2="158.0" y2="265.1" stroke="rgb(0,0,0)"  stroke-width="2.0"/>
<line x1="158.0" y1="265.1" x2="118.2" y2="264.6" stroke="rgb(0,0,0)"  stroke-width="2.0"/>
<line x1="64.1" y1="153.9" x2="40.0" y2="121.0" stroke="rgb(0,0,0)"  stroke-width="2.0"/>
<line x1="66.3" y1="144.8" x2="49.4" y2="121.6" stroke="rgb(0,0,0)"  stroke-width="2.0"/>
<line x1="40.0" y1="121.0" x2="67.2" y2="89.1" stroke="rgb(0,0,0)"  stroke-width="2.0"/>
<line x1="67.2" y1="89.1" x2="103.1" y2="100.6" stroke="rgb(0,0,0)"  stroke-width="2.0"/>
<line x1="103.1" y1="100.6" x2="102.9" y2="140.9" stroke="rgb(0,0,0)"  stroke-width="2.0"/>
<line x1="102.9" y1="140.9" x2="64.1" y2="153.9" stroke="rgb(0,0,0)"  stroke-width="2.0"/>
<line x1="138.7" y1="80.3" x2="173.5" y2="100.0" stroke="rgb(0,0,0)"  stroke-width="2.0"/>
<line x1="173.5" y1="100.0" x2="173.8" y2="141.6" stroke="rgb(0,0,0)"  stroke-width="2.0"/>
<line x1="173.8" y1="141.6" x2="138.0" y2="161.4" stroke="rgb(0,0,0)"  stroke-width="2.0"/>
<line x1="138.0" y1="161.4" x2="102.9" y2="140.9" stroke="rgb(0,0,0)"  stroke-width="2.0"/>
<text x="121.269159" y="312.855644" fill="rgb(102,102,102)"  stroke="rgb(102,102,102)" stroke-width="1" font-size="16" >H</text>
<text x="133.269159" y="316.535644" fill="rgb(102,102,102)"  stroke="rgb(102,102,102)" stroke-width="1" font-size="13" >3</text>
<text x="139.769159" y="312.855644" fill="rgb(102,102,102)"  stroke="rgb(102,102,102)" stroke-width="1" font-size="16" >C</text>
<text x="99.100947" y="234.028594" fill="rgb(255,12,12)"  stroke="rgb(255,12,12)" stroke-width="1" font-size="16" >O</text>
<text x="165.089020" y="234.028594" fill="rgb(12,12,255)"  stroke="rgb(12,12,255)" stroke-width="1" font-size="16" >N</text>
<text x="178.908344" y="306.342845" fill="rgb(102,102,102)"  stroke="rgb(102,102,102)" stroke-width="1" font-size="16" >CH</text>
<text x="202.908344" y="310.022845" fill="rgb(102,102,102)"  stroke="rgb(102,102,102)" stroke-width="1" font-size="13" >3</text>
<text x="45.359534" y="57.155243" fill="rgb(255,12,12)"  stroke="rgb(255,12,12)" stroke-width="1" font-size="16" >O</text>
<text x="107.046127" y="57.834111" fill="rgb(17,127,178)"  stroke="rgb(17,127,178)" stroke-width="1" font-size="16" >Xx</text>
<text x="156.271858" y="75.046509" fill="rgb(255,12,12)"  stroke="rgb(255,12,12)" stroke-width="1" font-size="16" >O</text>
<text x="158.604530" y="48.000000" fill="rgb(102,102,102)"  stroke="rgb(102,102,102)" stroke-width="1" font-size="16" >CH</text>
<text x="182.604530" y="51.680000" fill="rgb(102,102,102)"  stroke="rgb(102,102,102)" stroke-width="1" font-size="13" >3</text>
<text x="96.380068" y="189.810256" fill="rgb(191,191,191)"  stroke="rgb(191,191,191)" stroke-width="1" font-size="16" >H</text>
</svg>
</g>
<text font-size="18.000000" fill ="black" font-family="sans-serif"
x="10.000000" y="20.000000" ></text>
</svg>
