<?xml version="1.0"?>
<svg version="1.1" id="topsvg"
xmlns="http://www.w3.org/2000/svg" xmlns:xlink="http://www.w3.org/1999/xlink"
xmlns:cml="http://www.xml-cml.org/schema" x="0" y="0" width="200px" height="200px" viewBox="0 0 100 100">
<title> - Open Babel Depiction</title>
<rect x="0" y="0" width="100" height="100" fill="white"/>
<g transform="translate(0,0)">
<svg width="100" height="100" x="0" y="0" viewBox="0 0 184.334 162.811"
font-family="sans-serif" stroke="rgb(0,0,0)" stroke-width="2"  stroke-linecap="round">
<line x1="74.6" y1="100.4" x2="52.1" y2="115.5" stroke="rgb(0,0,0)"  stroke-width="2.0"/>
<line x1="74.6" y1="59.9" x2="51.4" y2="47.1" stroke="rgb(0,0,0)"  stroke-width="2.0"/>
<line x1="74.6" y1="59.9" x2="74.6" y2="100.4" stroke="rgb(0,0,0)"  stroke-width="2.0"/>
<line x1="81.8" y1="65.9" x2="81.8" y2="94.4" stroke="rgb(0,0,0)"  stroke-width="2.0"/>
<line x1="74.6" y1="100.4" x2="109.7" y2="119.6" stroke="rgb(0,0,0)"  stroke-width="2.0"/>
<line x1="109.7" y1="119.6" x2="143.9" y2="99.9" stroke="rgb(0,0,0)"  stroke-width="2.0"/>
<line x1="111.3" y1="110.4" x2="135.1" y2="96.6" stroke="rgb(0,0,0)"  stroke-width="2.0"/>
<line x1="143.9" y1="99.9" x2="144.3" y2="59.6" stroke="rgb(0,0,0)"  stroke-width="2.0"/>
<line x1="144.3" y1="59.6" x2="109.8" y2="40.0" stroke="rgb(0,0,0)"  stroke-width="2.0"/>
<line x1="135.6" y1="62.9" x2="111.5" y2="49.2" stroke="rgb(0,0,0)"  stroke-width="2.0"/>
<line x1="109.8" y1="40.0" x2="74.6" y2="59.9" stroke="rgb(0,0,0)"  stroke-width="2.0"/>
<text x="35.334365" y="130.810563" fill="rgb(191,191,191)"  stroke="rgb(191,191,191)" stroke-width="1" font-size="16" >D</text>
<text x="34.000000" y="48.775051" fill="rgb(191,191,191)"  stroke="rgb(191,191,191)" stroke-width="1" font-size="16" >D</text>
</svg>
</g>
<text font-size="18.000000" fill ="black" font-family="sans-serif"
x="10.000000" y="20.000000" ></text>
</svg>
