<?xml version="1.0"?>
<svg version="1.1" id="topsvg"
xmlns="http://www.w3.org/2000/svg" xmlns:xlink="http://www.w3.org/1999/xlink"
xmlns:cml="http://www.xml-cml.org/schema" x="0" y="0" width="200px" height="200px" viewBox="0 0 100 100">
<title> - Open Babel Depiction</title>
<rect x="0" y="0" width="100" height="100" fill="white"/>
<g transform="translate(0,0)">
<svg width="100" height="100" x="0" y="0" viewBox="0 0 425.375 321.791"
font-family="sans-serif" stroke="rgb(0,0,0)" stroke-width="2"  stroke-linecap="round">
<line x1="118.7" y1="272.7" x2="142.9" y2="258.9" stroke="rgb(0,0,0)"  stroke-width="2.0"/>
<line x1="121.7" y1="277.9" x2="145.9" y2="264.1" stroke="rgb(0,0,0)"  stroke-width="2.0"/>
<line x1="144.4" y1="261.5" x2="143.5" y2="221.2" stroke="rgb(0,0,0)"  stroke-width="2.0"/>
<line x1="170.6" y1="207.8" x2="169.8" y2="206.4" stroke="rgb(0,0,0)"  stroke-width="1.0"/>
<line x1="165.5" y1="211.2" x2="164.2" y2="208.6" stroke="rgb(0,0,0)"  stroke-width="1.0"/>
<line x1="160.5" y1="214.6" x2="158.5" y2="210.9" stroke="rgb(0,0,0)"  stroke-width="1.0"/>
<line x1="155.4" y1="217.9" x2="152.9" y2="213.1" stroke="rgb(0,0,0)"  stroke-width="1.0"/>
<line x1="150.4" y1="221.3" x2="147.2" y2="215.4" stroke="rgb(0,0,0)"  stroke-width="1.0"/>
<line x1="145.3" y1="224.7" x2="141.6" y2="217.6" stroke="rgb(0,0,0)"  stroke-width="1.0"/>
<polygon points="179.014914 161.417887 142.537379 145.289441 146.489934 138.334061 " stroke-width="2.000000" fill="rgb(0,0,0)"  stroke="rgb(0,0,0)" />
<line x1="144.5" y1="141.8" x2="117.8" y2="155.8" stroke="rgb(0,0,0)"  stroke-width="2.0"/>
<line x1="74.0" y1="181.1" x2="117.8" y2="155.8" stroke="rgb(0,0,0)"  stroke-width="2.0"/>
<line x1="71.9" y1="177.5" x2="115.7" y2="152.2" stroke="rgb(0,0,0)"  stroke-width="2.0"/>
<line x1="76.1" y1="184.8" x2="119.9" y2="159.5" stroke="rgb(0,0,0)"  stroke-width="2.0"/>
<line x1="218.3" y1="116.6" x2="212.9" y2="141.9" stroke="rgb(0,0,0)"  stroke-width="2.0"/>
<line x1="247.4" y1="161.9" x2="281.9" y2="142.2" stroke="rgb(0,0,0)"  stroke-width="2.0"/>
<polygon points="281.884512 142.182130 278.124397 101.946777 286.124255 101.994487 " stroke-width="2.000000" fill="rgb(0,0,0)"  stroke="rgb(0,0,0)" />
<line x1="281.9" y1="142.2" x2="308.1" y2="157.1" stroke="rgb(0,0,0)"  stroke-width="2.0"/>
<line x1="282.1" y1="102.0" x2="316.8" y2="81.7" stroke="rgb(0,0,0)"  stroke-width="2.0"/>
<line x1="313.8" y1="81.7" x2="314.0" y2="53.0" stroke="rgb(0,0,0)"  stroke-width="2.0"/>
<line x1="319.8" y1="81.7" x2="320.0" y2="53.0" stroke="rgb(0,0,0)"  stroke-width="2.0"/>
<line x1="351.2" y1="181.9" x2="308.1" y2="157.1" stroke="rgb(0,0,0)"  stroke-width="2.0"/>
<line x1="349.1" y1="185.6" x2="306.0" y2="160.7" stroke="rgb(0,0,0)"  stroke-width="2.0"/>
<line x1="353.3" y1="178.3" x2="310.2" y2="153.5" stroke="rgb(0,0,0)"  stroke-width="2.0"/>
<line x1="51.1" y1="195.0" x2="74.0" y2="181.1" stroke="rgb(0,0,0)"  stroke-width="2.0"/>
<line x1="374.1" y1="195.2" x2="351.2" y2="181.9" stroke="rgb(0,0,0)"  stroke-width="2.0"/>
<line x1="179.0" y1="161.4" x2="176.9" y2="203.6" stroke="rgb(0,0,0)"  stroke-width="2.0"/>
<line x1="176.9" y1="203.6" x2="212.8" y2="220.5" stroke="rgb(0,0,0)"  stroke-width="2.0"/>
<line x1="212.8" y1="220.5" x2="247.8" y2="202.2" stroke="rgb(0,0,0)"  stroke-width="2.0"/>
<line x1="214.8" y1="211.3" x2="239.2" y2="198.6" stroke="rgb(0,0,0)"  stroke-width="2.0"/>
<line x1="247.8" y1="202.2" x2="247.4" y2="161.9" stroke="rgb(0,0,0)"  stroke-width="2.0"/>
<line x1="247.4" y1="161.9" x2="212.9" y2="141.9" stroke="rgb(0,0,0)"  stroke-width="2.0"/>
<line x1="238.6" y1="165.1" x2="214.4" y2="151.1" stroke="rgb(0,0,0)"  stroke-width="2.0"/>
<line x1="212.9" y1="141.9" x2="179.0" y2="161.4" stroke="rgb(0,0,0)"  stroke-width="2.0"/>
<text x="82.909254" y="289.791251" fill="rgb(102,102,102)"  stroke="rgb(102,102,102)" stroke-width="1" font-size="16" >H</text>
<text x="94.909254" y="293.471251" fill="rgb(102,102,102)"  stroke="rgb(102,102,102)" stroke-width="1" font-size="13" >2</text>
<text x="101.409254" y="289.791251" fill="rgb(102,102,102)"  stroke="rgb(102,102,102)" stroke-width="1" font-size="16" >C</text>
<text x="215.006366" y="111.883816" fill="rgb(17,127,178)"  stroke="rgb(17,127,178)" stroke-width="1" font-size="16" >Xx</text>
<text x="313.137187" y="48.000000" fill="rgb(102,102,102)"  stroke="rgb(102,102,102)" stroke-width="1" font-size="16" >CH</text>
<text x="337.137187" y="51.680000" fill="rgb(102,102,102)"  stroke="rgb(102,102,102)" stroke-width="1" font-size="13" >2</text>
<text x="34.000000" y="209.706659" fill="rgb(191,191,191)"  stroke="rgb(191,191,191)" stroke-width="1" font-size="16" >H</text>
<text x="379.374961" y="209.706659" fill="rgb(191,191,191)"  stroke="rgb(191,191,191)" stroke-width="1" font-size="16" >H</text>
</svg>
</g>
<text font-size="18.000000" fill ="black" font-family="sans-serif"
x="10.000000" y="20.000000" ></text>
</svg>
