<?xml version="1.0"?>
<svg version="1.1" id="topsvg"
xmlns="http://www.w3.org/2000/svg" xmlns:xlink="http://www.w3.org/1999/xlink"
xmlns:cml="http://www.xml-cml.org/schema" x="0" y="0" width="200px" height="200px" viewBox="0 0 100 100">
<title> - Open Babel Depiction</title>
<rect x="0" y="0" width="100" height="100" fill="white"/>
<g transform="translate(0,0)">
<svg width="100" height="100" x="0" y="0" viewBox="0 0 199.308 389.759"
font-family="sans-serif" stroke="rgb(0,0,0)" stroke-width="2"  stroke-linecap="round">
<line x1="133.9" y1="167.1" x2="146.6" y2="159.5" stroke="rgb(0,0,0)"  stroke-width="2.0"/>
<line x1="137.0" y1="172.2" x2="149.7" y2="164.6" stroke="rgb(0,0,0)"  stroke-width="2.0"/>
<line x1="99.5" y1="52.9" x2="100.3" y2="81.9" stroke="rgb(0,0,0)"  stroke-width="2.0"/>
<line x1="93.5" y1="53.1" x2="94.3" y2="82.1" stroke="rgb(0,0,0)"  stroke-width="2.0"/>
<line x1="97.3" y1="82.0" x2="56.6" y2="108.8" stroke="rgb(0,0,0)"  stroke-width="2.0"/>
<line x1="50.0" y1="128.3" x2="64.8" y2="171.4" stroke="rgb(0,0,0)"  stroke-width="2.0"/>
<line x1="64.8" y1="171.4" x2="135.5" y2="169.6" stroke="rgb(0,0,0)"  stroke-width="2.0"/>
<line x1="135.5" y1="169.6" x2="142.9" y2="128.8" stroke="rgb(0,0,0)"  stroke-width="2.0"/>
<line x1="134.6" y1="108.5" x2="97.3" y2="82.0" stroke="rgb(0,0,0)"  stroke-width="2.0"/>
<line x1="40.0" y1="292.4" x2="45.0" y2="318.0" stroke="rgb(0,0,0)"  stroke-width="2.0"/>
<line x1="45.0" y1="318.0" x2="68.7" y2="342.8" stroke="rgb(0,0,0)"  stroke-width="2.0"/>
<line x1="68.7" y1="342.8" x2="89.1" y2="349.7" stroke="rgb(0,0,0)"  stroke-width="2.0"/>
<line x1="89.1" y1="349.7" x2="106.5" y2="349.8" stroke="rgb(0,0,0)"  stroke-width="2.0"/>
<line x1="106.5" y1="349.8" x2="132.2" y2="336.9" stroke="rgb(0,0,0)"  stroke-width="2.0"/>
<line x1="132.2" y1="336.9" x2="142.5" y2="325.7" stroke="rgb(0,0,0)"  stroke-width="2.0"/>
<line x1="142.5" y1="325.7" x2="152.2" y2="291.5" stroke="rgb(0,0,0)"  stroke-width="2.0"/>
<line x1="152.2" y1="291.5" x2="147.0" y2="265.9" stroke="rgb(0,0,0)"  stroke-width="2.0"/>
<line x1="147.0" y1="265.9" x2="135.9" y2="211.7" stroke="rgb(0,0,0)"  stroke-width="2.0"/>
<line x1="142.9" y1="266.7" x2="131.8" y2="212.6" stroke="rgb(0,0,0)"  stroke-width="2.0"/>
<line x1="151.1" y1="265.1" x2="140.1" y2="210.9" stroke="rgb(0,0,0)"  stroke-width="2.0"/>
<line x1="135.9" y1="211.7" x2="135.5" y2="169.6" stroke="rgb(0,0,0)"  stroke-width="2.0"/>
<line x1="64.8" y1="171.4" x2="57.0" y2="211.1" stroke="rgb(0,0,0)"  stroke-width="2.0"/>
<line x1="57.0" y1="211.1" x2="46.2" y2="266.3" stroke="rgb(0,0,0)"  stroke-width="2.0"/>
<line x1="61.1" y1="211.9" x2="50.3" y2="267.1" stroke="rgb(0,0,0)"  stroke-width="2.0"/>
<line x1="52.9" y1="210.3" x2="42.1" y2="265.5" stroke="rgb(0,0,0)"  stroke-width="2.0"/>
<line x1="46.2" y1="266.3" x2="40.0" y2="292.4" stroke="rgb(0,0,0)"  stroke-width="2.0"/>
<text x="39.791536" y="123.984296" fill="rgb(255,12,12)"  stroke="rgb(255,12,12)" stroke-width="1" font-size="16" >O</text>
<text x="139.211992" y="123.984296" fill="rgb(255,12,12)"  stroke="rgb(255,12,12)" stroke-width="1" font-size="16" >O</text>
<text x="90.212619" y="48.000000" fill="rgb(178,178,0)"  stroke="rgb(178,178,0)" stroke-width="1" font-size="16" >S</text>
<text x="153.307853" y="163.376111" fill="rgb(191,191,191)"  stroke="rgb(191,191,191)" stroke-width="1" font-size="16" >H</text>
</svg>
</g>
<text font-size="18.000000" fill ="black" font-family="sans-serif"
x="10.000000" y="20.000000" ></text>
</svg>
