<?xml version="1.0"?>
<svg version="1.1" id="topsvg"
xmlns="http://www.w3.org/2000/svg" xmlns:xlink="http://www.w3.org/1999/xlink"
xmlns:cml="http://www.xml-cml.org/schema" x="0" y="0" width="200px" height="200px" viewBox="0 0 100 100">
<title> - Open Babel Depiction</title>
<rect x="0" y="0" width="100" height="100" fill="white"/>
<g transform="translate(0,0)">
<svg width="100" height="100" x="0" y="0" viewBox="0 0 184.06 199.735"
font-family="sans-serif" stroke="rgb(0,0,0)" stroke-width="2"  stroke-linecap="round">
<line x1="51.2" y1="86.4" x2="75.1" y2="100.3" stroke="rgb(0,0,0)"  stroke-width="2.0"/>
<line x1="109.3" y1="53.0" x2="109.7" y2="79.8" stroke="rgb(0,0,0)"  stroke-width="2.0"/>
<line x1="75.2" y1="140.1" x2="75.1" y2="100.3" stroke="rgb(0,0,0)"  stroke-width="2.0"/>
<line x1="82.4" y1="134.1" x2="82.3" y2="106.3" stroke="rgb(0,0,0)"  stroke-width="2.0"/>
<line x1="75.1" y1="100.3" x2="109.7" y2="79.8" stroke="rgb(0,0,0)"  stroke-width="2.0"/>
<line x1="109.7" y1="79.8" x2="144.1" y2="99.1" stroke="rgb(0,0,0)"  stroke-width="2.0"/>
<line x1="111.4" y1="89.0" x2="135.3" y2="102.4" stroke="rgb(0,0,0)"  stroke-width="2.0"/>
<line x1="144.1" y1="99.1" x2="143.9" y2="140.0" stroke="rgb(0,0,0)"  stroke-width="2.0"/>
<line x1="143.9" y1="140.0" x2="109.6" y2="159.7" stroke="rgb(0,0,0)"  stroke-width="2.0"/>
<line x1="135.2" y1="136.7" x2="111.2" y2="150.5" stroke="rgb(0,0,0)"  stroke-width="2.0"/>
<line x1="109.6" y1="159.7" x2="75.2" y2="140.1" stroke="rgb(0,0,0)"  stroke-width="2.0"/>
<text x="22.000000" y="87.895944" fill="rgb(17,127,178)"  stroke="rgb(17,127,178)" stroke-width="1" font-size="16" >Xx</text>
<text x="91.151923" y="48.000000" fill="rgb(17,127,178)"  stroke="rgb(17,127,178)" stroke-width="1" font-size="16" >Xx</text>
</svg>
</g>
<text font-size="18.000000" fill ="black" font-family="sans-serif"
x="10.000000" y="20.000000" ></text>
</svg>
