<?xml version="1.0"?>
<svg version="1.1" id="topsvg"
xmlns="http://www.w3.org/2000/svg" xmlns:xlink="http://www.w3.org/1999/xlink"
xmlns:cml="http://www.xml-cml.org/schema" x="0" y="0" width="200px" height="200px" viewBox="0 0 100 100">
<title> - Open Babel Depiction</title>
<rect x="0" y="0" width="100" height="100" fill="white"/>
<g transform="translate(0,0)">
<svg width="100" height="100" x="0" y="0" viewBox="0 0 172.909 298.516"
font-family="sans-serif" stroke="rgb(0,0,0)" stroke-width="2"  stroke-linecap="round">
<line x1="73.9" y1="181.8" x2="73.3" y2="142.1" stroke="rgb(0,0,0)"  stroke-width="2.0"/>
<line x1="93.4" y1="80.5" x2="93.6" y2="53.0" stroke="rgb(0,0,0)"  stroke-width="2.0"/>
<line x1="93.4" y1="80.5" x2="120.3" y2="73.4" stroke="rgb(0,0,0)"  stroke-width="2.0"/>
<line x1="40.2" y1="199.4" x2="73.9" y2="181.8" stroke="rgb(0,0,0)"  stroke-width="2.0"/>
<line x1="73.9" y1="181.8" x2="109.7" y2="199.5" stroke="rgb(0,0,0)"  stroke-width="2.0"/>
<line x1="76.1" y1="190.9" x2="101.2" y2="203.3" stroke="rgb(0,0,0)"  stroke-width="2.0"/>
<line x1="109.7" y1="199.5" x2="109.6" y2="240.2" stroke="rgb(0,0,0)"  stroke-width="2.0"/>
<line x1="109.6" y1="240.2" x2="74.8" y2="258.5" stroke="rgb(0,0,0)"  stroke-width="2.0"/>
<line x1="100.9" y1="236.6" x2="76.7" y2="249.4" stroke="rgb(0,0,0)"  stroke-width="2.0"/>
<line x1="74.8" y1="258.5" x2="40.2" y2="240.6" stroke="rgb(0,0,0)"  stroke-width="2.0"/>
<line x1="40.2" y1="240.6" x2="40.2" y2="199.4" stroke="rgb(0,0,0)"  stroke-width="2.0"/>
<line x1="47.4" y1="234.6" x2="47.4" y2="205.4" stroke="rgb(0,0,0)"  stroke-width="2.0"/>
<line x1="50.7" y1="126.4" x2="73.3" y2="142.1" stroke="rgb(0,0,0)"  stroke-width="2.0"/>
<line x1="73.3" y1="142.1" x2="94.6" y2="126.6" stroke="rgb(0,0,0)"  stroke-width="2.0"/>
<line x1="73.9" y1="132.7" x2="88.7" y2="122.0" stroke="rgb(0,0,0)"  stroke-width="2.0"/>
<line x1="101.3" y1="106.5" x2="93.4" y2="80.5" stroke="rgb(0,0,0)"  stroke-width="2.0"/>
<line x1="93.4" y1="80.5" x2="53.5" y2="80.4" stroke="rgb(0,0,0)"  stroke-width="2.0"/>
<line x1="53.5" y1="80.4" x2="44.3" y2="106.7" stroke="rgb(0,0,0)"  stroke-width="2.0"/>
<text x="34.000000" y="126.979967" fill="rgb(255,12,12)"  stroke="rgb(255,12,12)" stroke-width="1" font-size="16" >O</text>
<text x="99.040309" y="126.979967" fill="rgb(12,12,255)"  stroke="rgb(12,12,255)" stroke-width="1" font-size="16" >N</text>
<text x="89.674937" y="48.000000" fill="rgb(102,102,102)"  stroke="rgb(102,102,102)" stroke-width="1" font-size="16" >CH</text>
<text x="113.674937" y="51.680000" fill="rgb(102,102,102)"  stroke="rgb(102,102,102)" stroke-width="1" font-size="13" >3</text>
<text x="128.909075" y="78.108079" fill="rgb(102,102,102)"  stroke="rgb(102,102,102)" stroke-width="1" font-size="16" >CH</text>
<text x="152.909075" y="81.788079" fill="rgb(102,102,102)"  stroke="rgb(102,102,102)" stroke-width="1" font-size="13" >3</text>
</svg>
</g>
<text font-size="18.000000" fill ="black" font-family="sans-serif"
x="10.000000" y="20.000000" ></text>
</svg>
