<?xml version="1.0"?>
<svg version="1.1" id="topsvg"
xmlns="http://www.w3.org/2000/svg" xmlns:xlink="http://www.w3.org/1999/xlink"
xmlns:cml="http://www.xml-cml.org/schema" x="0" y="0" width="200px" height="200px" viewBox="0 0 100 100">
<title> - Open Babel Depiction</title>
<rect x="0" y="0" width="100" height="100" fill="white"/>
<g transform="translate(0,0)">
<svg width="100" height="100" x="0" y="0" viewBox="0 0 184.143 199.581"
font-family="sans-serif" stroke="rgb(0,0,0)" stroke-width="2"  stroke-linecap="round">
<line x1="74.9" y1="100.2" x2="51.3" y2="86.9" stroke="rgb(0,0,0)"  stroke-width="2.0"/>
<line x1="108.9" y1="79.9" x2="109.1" y2="53.0" stroke="rgb(0,0,0)"  stroke-width="2.0"/>
<line x1="74.9" y1="100.2" x2="108.9" y2="79.9" stroke="rgb(0,0,0)"  stroke-width="2.0"/>
<line x1="108.9" y1="79.9" x2="144.1" y2="99.0" stroke="rgb(0,0,0)"  stroke-width="2.0"/>
<line x1="110.8" y1="89.1" x2="135.4" y2="102.5" stroke="rgb(0,0,0)"  stroke-width="2.0"/>
<line x1="144.1" y1="99.0" x2="143.5" y2="140.3" stroke="rgb(0,0,0)"  stroke-width="2.0"/>
<line x1="143.5" y1="140.3" x2="109.2" y2="159.6" stroke="rgb(0,0,0)"  stroke-width="2.0"/>
<line x1="134.7" y1="136.9" x2="110.9" y2="150.4" stroke="rgb(0,0,0)"  stroke-width="2.0"/>
<line x1="109.2" y1="159.6" x2="74.9" y2="140.7" stroke="rgb(0,0,0)"  stroke-width="2.0"/>
<line x1="74.9" y1="140.7" x2="74.9" y2="100.2" stroke="rgb(0,0,0)"  stroke-width="2.0"/>
<line x1="82.1" y1="134.8" x2="82.1" y2="106.3" stroke="rgb(0,0,0)"  stroke-width="2.0"/>
<text x="22.000000" y="88.539929" fill="rgb(17,127,178)"  stroke="rgb(17,127,178)" stroke-width="1" font-size="16" >Xx</text>
<text x="103.119662" y="48.000000" fill="rgb(17,127,178)"  stroke="rgb(17,127,178)" stroke-width="1" font-size="16" >Xx</text>
</svg>
</g>
<text font-size="18.000000" fill ="black" font-family="sans-serif"
x="10.000000" y="20.000000" ></text>
</svg>
