<?xml version="1.0"?>
<svg version="1.1" id="topsvg"
xmlns="http://www.w3.org/2000/svg" xmlns:xlink="http://www.w3.org/1999/xlink"
xmlns:cml="http://www.xml-cml.org/schema" x="0" y="0" width="200px" height="200px" viewBox="0 0 100 100">
<title> - Open Babel Depiction</title>
<rect x="0" y="0" width="100" height="100" fill="white"/>
<g transform="translate(0,0)">
<svg width="100" height="100" x="0" y="0" viewBox="0 0 324.714 221.208"
font-family="sans-serif" stroke="rgb(0,0,0)" stroke-width="2"  stroke-linecap="round">
<line x1="244.9" y1="76.4" x2="269.7" y2="119.8" stroke="rgb(0,0,0)"  stroke-width="2.0"/>
<line x1="248.5" y1="74.3" x2="273.3" y2="117.7" stroke="rgb(0,0,0)"  stroke-width="2.0"/>
<line x1="241.2" y1="78.5" x2="266.1" y2="121.8" stroke="rgb(0,0,0)"  stroke-width="2.0"/>
<line x1="262.6" y1="179.6" x2="282.1" y2="144.5" stroke="rgb(0,0,0)"  stroke-width="2.0"/>
<line x1="267.8" y1="182.6" x2="287.3" y2="147.4" stroke="rgb(0,0,0)"  stroke-width="2.0"/>
<line x1="284.7" y1="145.9" x2="269.7" y2="119.8" stroke="rgb(0,0,0)"  stroke-width="2.0"/>
<line x1="226.4" y1="181.1" x2="171.0" y2="181.2" stroke="rgb(0,0,0)"  stroke-width="2.0"/>
<line x1="226.4" y1="185.3" x2="171.0" y2="185.4" stroke="rgb(0,0,0)"  stroke-width="2.0"/>
<line x1="226.4" y1="176.9" x2="171.0" y2="177.0" stroke="rgb(0,0,0)"  stroke-width="2.0"/>
<line x1="226.4" y1="181.1" x2="265.2" y2="181.1" stroke="rgb(0,0,0)"  stroke-width="2.0"/>
<line x1="75.0" y1="99.6" x2="74.9" y2="59.6" stroke="rgb(0,0,0)"  stroke-width="2.0"/>
<line x1="73.4" y1="57.0" x2="96.5" y2="43.8" stroke="rgb(0,0,0)"  stroke-width="2.0"/>
<line x1="76.4" y1="62.2" x2="99.5" y2="49.0" stroke="rgb(0,0,0)"  stroke-width="2.0"/>
<polygon points="109.675395 120.406180 142.524768 100.327922 145.965146 107.550374 " stroke-width="2.000000" fill="rgb(0,0,0)"  stroke="rgb(0,0,0)" />
<line x1="145.5" y1="101.2" x2="169.8" y2="112.5" stroke="rgb(0,0,0)"  stroke-width="2.0"/>
<line x1="143.0" y1="106.7" x2="167.3" y2="118.0" stroke="rgb(0,0,0)"  stroke-width="2.0"/>
<line x1="116.7" y1="163.3" x2="115.9" y2="164.7" stroke="rgb(0,0,0)"  stroke-width="1.0"/>
<line x1="122.4" y1="165.6" x2="121.1" y2="168.1" stroke="rgb(0,0,0)"  stroke-width="1.0"/>
<line x1="128.2" y1="167.9" x2="126.2" y2="171.6" stroke="rgb(0,0,0)"  stroke-width="1.0"/>
<line x1="133.9" y1="170.3" x2="131.4" y2="175.1" stroke="rgb(0,0,0)"  stroke-width="1.0"/>
<line x1="139.7" y1="172.6" x2="136.5" y2="178.6" stroke="rgb(0,0,0)"  stroke-width="1.0"/>
<line x1="145.4" y1="175.0" x2="141.7" y2="182.0" stroke="rgb(0,0,0)"  stroke-width="1.0"/>
<line x1="143.6" y1="178.5" x2="171.0" y2="181.2" stroke="rgb(0,0,0)"  stroke-width="2.0"/>
<line x1="231.9" y1="53.9" x2="244.9" y2="76.4" stroke="rgb(0,0,0)"  stroke-width="2.0"/>
<line x1="40.1" y1="120.0" x2="40.0" y2="160.9" stroke="rgb(0,0,0)"  stroke-width="2.0"/>
<line x1="40.0" y1="160.9" x2="75.0" y2="181.2" stroke="rgb(0,0,0)"  stroke-width="2.0"/>
<line x1="48.8" y1="157.7" x2="73.4" y2="172.0" stroke="rgb(0,0,0)"  stroke-width="2.0"/>
<line x1="75.0" y1="181.2" x2="109.5" y2="160.3" stroke="rgb(0,0,0)"  stroke-width="2.0"/>
<line x1="109.5" y1="160.3" x2="109.7" y2="120.4" stroke="rgb(0,0,0)"  stroke-width="2.0"/>
<line x1="109.7" y1="120.4" x2="75.0" y2="99.6" stroke="rgb(0,0,0)"  stroke-width="2.0"/>
<line x1="75.0" y1="99.6" x2="40.1" y2="120.0" stroke="rgb(0,0,0)"  stroke-width="2.0"/>
<line x1="73.4" y1="108.9" x2="48.9" y2="123.2" stroke="rgb(0,0,0)"  stroke-width="2.0"/>
<text x="103.333889" y="48.000000" fill="rgb(255,12,12)"  stroke="rgb(255,12,12)" stroke-width="1" font-size="16" >O</text>
<text x="176.375311" y="128.726343" fill="rgb(102,102,102)"  stroke="rgb(102,102,102)" stroke-width="1" font-size="16" >CH</text>
<text x="200.375311" y="132.406343" fill="rgb(102,102,102)"  stroke="rgb(102,102,102)" stroke-width="1" font-size="13" >2</text>
<text x="219.352827" y="50.660018" fill="rgb(147,0,147)"  stroke="rgb(147,0,147)" stroke-width="1" font-size="16" >I</text>
</svg>
</g>
<text font-size="18.000000" fill ="black" font-family="sans-serif"
x="10.000000" y="20.000000" ></text>
</svg>
