<?xml version="1.0"?>
<svg version="1.1" id="topsvg"
xmlns="http://www.w3.org/2000/svg" xmlns:xlink="http://www.w3.org/1999/xlink"
xmlns:cml="http://www.xml-cml.org/schema" x="0" y="0" width="200px" height="200px" viewBox="0 0 100 100">
<title> - Open Babel Depiction</title>
<rect x="0" y="0" width="100" height="100" fill="white"/>
<g transform="translate(0,0)">
<svg width="100" height="100" x="0" y="0" viewBox="0 0 162.466 209.495"
font-family="sans-serif" stroke="rgb(0,0,0)" stroke-width="2"  stroke-linecap="round">
<line x1="73.0" y1="93.7" x2="72.8" y2="56.0" stroke="rgb(0,0,0)"  stroke-width="2.0"/>
<line x1="71.9" y1="53.1" x2="109.2" y2="41.1" stroke="rgb(0,0,0)"  stroke-width="2.0"/>
<line x1="73.7" y1="58.8" x2="111.0" y2="46.8" stroke="rgb(0,0,0)"  stroke-width="2.0"/>
<line x1="40.1" y1="112.3" x2="73.0" y2="93.7" stroke="rgb(0,0,0)"  stroke-width="2.0"/>
<line x1="73.0" y1="93.7" x2="106.3" y2="112.4" stroke="rgb(0,0,0)"  stroke-width="2.0"/>
<line x1="74.7" y1="102.9" x2="97.6" y2="115.7" stroke="rgb(0,0,0)"  stroke-width="2.0"/>
<line x1="106.3" y1="112.4" x2="106.5" y2="151.6" stroke="rgb(0,0,0)"  stroke-width="2.0"/>
<line x1="106.5" y1="151.6" x2="72.8" y2="169.5" stroke="rgb(0,0,0)"  stroke-width="2.0"/>
<line x1="97.8" y1="148.0" x2="74.7" y2="160.3" stroke="rgb(0,0,0)"  stroke-width="2.0"/>
<line x1="72.8" y1="169.5" x2="40.0" y2="151.7" stroke="rgb(0,0,0)"  stroke-width="2.0"/>
<line x1="40.0" y1="151.7" x2="40.1" y2="112.3" stroke="rgb(0,0,0)"  stroke-width="2.0"/>
<line x1="47.2" y1="145.7" x2="47.3" y2="118.3" stroke="rgb(0,0,0)"  stroke-width="2.0"/>
<text x="116.465986" y="48.000000" fill="rgb(17,127,178)"  stroke="rgb(17,127,178)" stroke-width="1" font-size="16" >Xx</text>
</svg>
</g>
<text font-size="18.000000" fill ="black" font-family="sans-serif"
x="10.000000" y="20.000000" ></text>
</svg>
