<?xml version="1.0"?>
<svg version="1.1" id="topsvg"
xmlns="http://www.w3.org/2000/svg" xmlns:xlink="http://www.w3.org/1999/xlink"
xmlns:cml="http://www.xml-cml.org/schema" x="0" y="0" width="200px" height="200px" viewBox="0 0 100 100">
<title> - Open Babel Depiction</title>
<rect x="0" y="0" width="100" height="100" fill="white"/>
<g transform="translate(0,0)">
<svg width="100" height="100" x="0" y="0" viewBox="0 0 265.608 221.175"
font-family="sans-serif" stroke="rgb(0,0,0)" stroke-width="2"  stroke-linecap="round">
<line x1="212.6" y1="181.2" x2="183.7" y2="181.2" stroke="rgb(0,0,0)"  stroke-width="2.0"/>
<line x1="212.6" y1="185.4" x2="183.7" y2="185.4" stroke="rgb(0,0,0)"  stroke-width="2.0"/>
<line x1="212.6" y1="177.0" x2="183.7" y2="177.0" stroke="rgb(0,0,0)"  stroke-width="2.0"/>
<line x1="74.6" y1="99.6" x2="74.8" y2="59.5" stroke="rgb(0,0,0)"  stroke-width="2.0"/>
<line x1="73.3" y1="56.9" x2="96.4" y2="43.8" stroke="rgb(0,0,0)"  stroke-width="2.0"/>
<line x1="76.3" y1="62.1" x2="99.4" y2="49.0" stroke="rgb(0,0,0)"  stroke-width="2.0"/>
<polygon points="109.645690 121.008256 142.592219 100.591746 146.081915 107.790497 " stroke-width="2.000000" fill="rgb(0,0,0)"  stroke="rgb(0,0,0)" />
<line x1="145.6" y1="101.5" x2="168.9" y2="112.3" stroke="rgb(0,0,0)"  stroke-width="2.0"/>
<line x1="143.1" y1="106.9" x2="166.4" y2="117.8" stroke="rgb(0,0,0)"  stroke-width="2.0"/>
<line x1="116.0" y1="163.1" x2="115.2" y2="164.5" stroke="rgb(0,0,0)"  stroke-width="1.0"/>
<line x1="121.8" y1="165.6" x2="120.5" y2="168.1" stroke="rgb(0,0,0)"  stroke-width="1.0"/>
<line x1="127.7" y1="168.0" x2="125.7" y2="171.7" stroke="rgb(0,0,0)"  stroke-width="1.0"/>
<line x1="133.6" y1="170.5" x2="131.0" y2="175.3" stroke="rgb(0,0,0)"  stroke-width="1.0"/>
<line x1="139.4" y1="173.0" x2="136.2" y2="178.9" stroke="rgb(0,0,0)"  stroke-width="1.0"/>
<line x1="145.3" y1="175.5" x2="141.4" y2="182.5" stroke="rgb(0,0,0)"  stroke-width="1.0"/>
<line x1="143.4" y1="179.0" x2="183.7" y2="181.2" stroke="rgb(0,0,0)"  stroke-width="2.0"/>
<line x1="40.0" y1="120.0" x2="40.1" y2="160.9" stroke="rgb(0,0,0)"  stroke-width="2.0"/>
<line x1="40.1" y1="160.9" x2="74.8" y2="181.2" stroke="rgb(0,0,0)"  stroke-width="2.0"/>
<line x1="49.0" y1="157.7" x2="73.3" y2="171.9" stroke="rgb(0,0,0)"  stroke-width="2.0"/>
<line x1="74.8" y1="181.2" x2="108.7" y2="159.9" stroke="rgb(0,0,0)"  stroke-width="2.0"/>
<line x1="108.7" y1="159.9" x2="109.6" y2="121.0" stroke="rgb(0,0,0)"  stroke-width="2.0"/>
<line x1="109.6" y1="121.0" x2="74.6" y2="99.6" stroke="rgb(0,0,0)"  stroke-width="2.0"/>
<line x1="74.6" y1="99.6" x2="40.0" y2="120.0" stroke="rgb(0,0,0)"  stroke-width="2.0"/>
<line x1="73.1" y1="108.8" x2="48.8" y2="123.2" stroke="rgb(0,0,0)"  stroke-width="2.0"/>
<text x="219.608258" y="189.174855" fill="rgb(102,102,102)"  stroke="rgb(102,102,102)" stroke-width="1" font-size="16" >CH</text>
<text x="103.221773" y="48.000000" fill="rgb(255,12,12)"  stroke="rgb(255,12,12)" stroke-width="1" font-size="16" >O</text>
<text x="175.438945" y="128.554826" fill="rgb(102,102,102)"  stroke="rgb(102,102,102)" stroke-width="1" font-size="16" >CH</text>
<text x="199.438945" y="132.234826" fill="rgb(102,102,102)"  stroke="rgb(102,102,102)" stroke-width="1" font-size="13" >2</text>
</svg>
</g>
<text font-size="18.000000" fill ="black" font-family="sans-serif"
x="10.000000" y="20.000000" ></text>
</svg>
