<?xml version="1.0"?>
<svg version="1.1" id="topsvg"
xmlns="http://www.w3.org/2000/svg" xmlns:xlink="http://www.w3.org/1999/xlink"
xmlns:cml="http://www.xml-cml.org/schema" x="0" y="0" width="200px" height="200px" viewBox="0 0 100 100">
<title> - Open Babel Depiction</title>
<rect x="0" y="0" width="100" height="100" fill="white"/>
<g transform="translate(0,0)">
<svg width="100" height="100" x="0" y="0" viewBox="0 0 246.795 338.374"
font-family="sans-serif" stroke="rgb(0,0,0)" stroke-width="2"  stroke-linecap="round">
<line x1="94.1" y1="233.8" x2="131.2" y2="215.3" stroke="rgb(0,0,0)"  stroke-width="2.0"/>
<line x1="90.9" y1="277.1" x2="91.1" y2="233.7" stroke="rgb(0,0,0)"  stroke-width="2.0"/>
<line x1="96.9" y1="277.2" x2="97.1" y2="233.8" stroke="rgb(0,0,0)"  stroke-width="2.0"/>
<line x1="67.4" y1="292.0" x2="93.9" y2="277.2" stroke="rgb(0,0,0)"  stroke-width="2.0"/>
<polygon points="168.353049 146.373372 208.241534 165.380543 204.160540 172.261349 " stroke-width="2.000000" fill="rgb(0,0,0)"  stroke="rgb(0,0,0)" />
<line x1="206.2" y1="168.8" x2="206.8" y2="211.4" stroke="rgb(0,0,0)"  stroke-width="2.0"/>
<line x1="94.6" y1="105.0" x2="79.7" y2="100.1" stroke="rgb(0,0,0)"  stroke-width="2.0"/>
<line x1="71.3" y1="83.8" x2="72.1" y2="81.2" stroke="rgb(0,0,0)"  stroke-width="2.0"/>
<line x1="54.9" y1="92.2" x2="52.4" y2="91.4" stroke="rgb(0,0,0)"  stroke-width="2.0"/>
<line x1="63.3" y1="108.5" x2="62.5" y2="111.1" stroke="rgb(0,0,0)"  stroke-width="2.0"/>
<line x1="132.6" y1="53.1" x2="132.0" y2="82.3" stroke="rgb(0,0,0)"  stroke-width="2.0"/>
<line x1="126.6" y1="52.9" x2="126.0" y2="82.1" stroke="rgb(0,0,0)"  stroke-width="2.0"/>
<line x1="206.8" y1="211.4" x2="206.5" y2="243.4" stroke="rgb(0,0,0)"  stroke-width="2.0"/>
<line x1="211.0" y1="211.4" x2="210.7" y2="243.5" stroke="rgb(0,0,0)"  stroke-width="2.0"/>
<line x1="202.6" y1="211.3" x2="202.3" y2="243.4" stroke="rgb(0,0,0)"  stroke-width="2.0"/>
<line x1="131.9" y1="176.4" x2="130.3" y2="176.4" stroke="rgb(0,0,0)"  stroke-width="1.0"/>
<line x1="132.5" y1="184.2" x2="129.7" y2="184.2" stroke="rgb(0,0,0)"  stroke-width="1.0"/>
<line x1="133.2" y1="192.0" x2="129.0" y2="192.0" stroke="rgb(0,0,0)"  stroke-width="1.0"/>
<line x1="133.9" y1="199.8" x2="128.4" y2="199.8" stroke="rgb(0,0,0)"  stroke-width="1.0"/>
<line x1="134.5" y1="207.5" x2="127.8" y2="207.6" stroke="rgb(0,0,0)"  stroke-width="1.0"/>
<line x1="135.2" y1="215.3" x2="127.2" y2="215.3" stroke="rgb(0,0,0)"  stroke-width="1.0"/>
<line x1="94.6" y1="105.0" x2="94.6" y2="147.5" stroke="rgb(0,0,0)"  stroke-width="2.0"/>
<line x1="101.8" y1="111.0" x2="101.8" y2="141.5" stroke="rgb(0,0,0)"  stroke-width="2.0"/>
<line x1="94.6" y1="147.5" x2="131.1" y2="166.7" stroke="rgb(0,0,0)"  stroke-width="2.0"/>
<line x1="131.1" y1="166.7" x2="168.4" y2="146.4" stroke="rgb(0,0,0)"  stroke-width="2.0"/>
<line x1="168.4" y1="146.4" x2="168.3" y2="104.3" stroke="rgb(0,0,0)"  stroke-width="2.0"/>
<line x1="168.3" y1="104.3" x2="129.0" y2="82.2" stroke="rgb(0,0,0)"  stroke-width="2.0"/>
<line x1="129.0" y1="82.2" x2="94.6" y2="105.0" stroke="rgb(0,0,0)"  stroke-width="2.0"/>
<text x="30.083601" y="306.373878" fill="rgb(102,102,102)"  stroke="rgb(102,102,102)" stroke-width="1" font-size="16" >H</text>
<text x="42.083601" y="310.053878" fill="rgb(102,102,102)"  stroke="rgb(102,102,102)" stroke-width="1" font-size="13" >3</text>
<text x="48.583601" y="306.373878" fill="rgb(102,102,102)"  stroke="rgb(102,102,102)" stroke-width="1" font-size="16" >C</text>
<text x="61.324611" y="104.167735" fill="rgb(127,153,153)"  stroke="rgb(127,153,153)" stroke-width="1" font-size="16" >Si</text>
<text x="72.117056" y="76.843124" fill="rgb(102,102,102)"  stroke="rgb(102,102,102)" stroke-width="1" font-size="16" >CH</text>
<text x="96.117056" y="80.523124" fill="rgb(102,102,102)"  stroke="rgb(102,102,102)" stroke-width="1" font-size="13" >3</text>
<text x="14.000000" y="95.375290" fill="rgb(102,102,102)"  stroke="rgb(102,102,102)" stroke-width="1" font-size="16" >H</text>
<text x="26.000000" y="99.055290" fill="rgb(102,102,102)"  stroke="rgb(102,102,102)" stroke-width="1" font-size="13" >3</text>
<text x="32.500000" y="95.375290" fill="rgb(102,102,102)"  stroke="rgb(102,102,102)" stroke-width="1" font-size="16" >C</text>
<text x="32.532166" y="131.492347" fill="rgb(102,102,102)"  stroke="rgb(102,102,102)" stroke-width="1" font-size="16" >H</text>
<text x="44.532166" y="135.172347" fill="rgb(102,102,102)"  stroke="rgb(102,102,102)" stroke-width="1" font-size="13" >3</text>
<text x="51.032166" y="131.492347" fill="rgb(102,102,102)"  stroke="rgb(102,102,102)" stroke-width="1" font-size="16" >C</text>
<text x="123.876414" y="48.000000" fill="rgb(255,12,12)"  stroke="rgb(255,12,12)" stroke-width="1" font-size="16" >O</text>
<text x="188.335952" y="264.432509" fill="rgb(102,102,102)"  stroke="rgb(102,102,102)" stroke-width="1" font-size="16" >HC</text>
</svg>
</g>
<text font-size="18.000000" fill ="black" font-family="sans-serif"
x="10.000000" y="20.000000" ></text>
</svg>
