<?xml version="1.0"?>
<svg version="1.1" id="topsvg"
xmlns="http://www.w3.org/2000/svg" xmlns:xlink="http://www.w3.org/1999/xlink"
xmlns:cml="http://www.xml-cml.org/schema" x="0" y="0" width="200px" height="200px" viewBox="0 0 100 100">
<title> - Open Babel Depiction</title>
<rect x="0" y="0" width="100" height="100" fill="white"/>
<g transform="translate(0,0)">
<svg width="100" height="100" x="0" y="0" viewBox="0 0 461.817 362.562"
font-family="sans-serif" stroke="rgb(0,0,0)" stroke-width="2"  stroke-linecap="round">
<line x1="241.1" y1="284.3" x2="220.6" y2="293.4" stroke="rgb(0,0,0)"  stroke-width="2.0"/>
<line x1="220.6" y1="293.4" x2="228.5" y2="206.9" stroke="rgb(0,0,0)"  stroke-width="2.0"/>
<line x1="220.6" y1="293.4" x2="207.2" y2="312.0" stroke="rgb(0,0,0)"  stroke-width="2.0"/>
<line x1="220.6" y1="293.4" x2="199.2" y2="285.4" stroke="rgb(0,0,0)"  stroke-width="2.0"/>
<line x1="241.0" y1="187.4" x2="299.4" y2="153.7" stroke="rgb(0,0,0)"  stroke-width="2.0"/>
<line x1="163.4" y1="156.1" x2="218.4" y2="187.5" stroke="rgb(0,0,0)"  stroke-width="2.0"/>
<line x1="163.4" y1="156.1" x2="132.8" y2="169.7" stroke="rgb(0,0,0)"  stroke-width="2.0"/>
<line x1="163.4" y1="156.1" x2="166.9" y2="100.8" stroke="rgb(0,0,0)"  stroke-width="2.0"/>
<polygon points="163.397748 156.102986 182.640359 141.177663 186.438552 148.218525 " stroke-width="2.000000" fill="rgb(0,0,0)"  stroke="rgb(0,0,0)" />
<line x1="129.3" y1="203.1" x2="146.8" y2="215.7" stroke="rgb(0,0,0)"  stroke-width="2.0"/>
<line x1="98.7" y1="216.7" x2="96.5" y2="238.2" stroke="rgb(0,0,0)"  stroke-width="2.0"/>
<line x1="71.6" y1="197.0" x2="51.9" y2="205.8" stroke="rgb(0,0,0)"  stroke-width="2.0"/>
<line x1="75.1" y1="163.7" x2="57.6" y2="151.0" stroke="rgb(0,0,0)"  stroke-width="2.0"/>
<line x1="105.7" y1="150.1" x2="107.9" y2="128.6" stroke="rgb(0,0,0)"  stroke-width="2.0"/>
<line x1="299.4" y1="153.7" x2="329.8" y2="167.8" stroke="rgb(0,0,0)"  stroke-width="2.0"/>
<line x1="291.3" y1="73.5" x2="274.3" y2="58.2" stroke="rgb(0,0,0)"  stroke-width="2.0"/>
<line x1="291.3" y1="73.5" x2="299.5" y2="52.2" stroke="rgb(0,0,0)"  stroke-width="2.0"/>
<line x1="308.4" y1="73.5" x2="325.4" y2="58.3" stroke="rgb(0,0,0)"  stroke-width="2.0"/>
<line x1="308.4" y1="73.5" x2="300.2" y2="52.1" stroke="rgb(0,0,0)"  stroke-width="2.0"/>
<line x1="357.2" y1="148.6" x2="355.3" y2="127.1" stroke="rgb(0,0,0)"  stroke-width="2.0"/>
<line x1="387.6" y1="162.8" x2="405.3" y2="150.4" stroke="rgb(0,0,0)"  stroke-width="2.0"/>
<line x1="390.5" y1="196.2" x2="410.0" y2="205.3" stroke="rgb(0,0,0)"  stroke-width="2.0"/>
<line x1="363.0" y1="215.4" x2="364.9" y2="236.9" stroke="rgb(0,0,0)"  stroke-width="2.0"/>
<line x1="332.7" y1="201.2" x2="315.0" y2="213.6" stroke="rgb(0,0,0)"  stroke-width="2.0"/>
<line x1="155.1" y1="91.8" x2="166.9" y2="100.8" stroke="rgb(0,0,0)"  stroke-width="2.0"/>
<line x1="157.7" y1="88.5" x2="169.4" y2="97.5" stroke="rgb(0,0,0)"  stroke-width="2.0"/>
<line x1="152.6" y1="95.2" x2="164.3" y2="104.2" stroke="rgb(0,0,0)"  stroke-width="2.0"/>
<line x1="155.1" y1="91.8" x2="139.0" y2="79.5" stroke="rgb(0,0,0)"  stroke-width="2.0"/>
<line x1="129.3" y1="203.1" x2="132.8" y2="169.7" stroke="rgb(0,0,0)"  stroke-width="2.0"/>
<line x1="122.8" y1="196.4" x2="125.0" y2="175.0" stroke="rgb(0,0,0)"  stroke-width="2.0"/>
<line x1="132.8" y1="169.7" x2="105.7" y2="150.1" stroke="rgb(0,0,0)"  stroke-width="2.0"/>
<line x1="105.7" y1="150.1" x2="75.1" y2="163.7" stroke="rgb(0,0,0)"  stroke-width="2.0"/>
<line x1="103.1" y1="159.1" x2="83.5" y2="167.8" stroke="rgb(0,0,0)"  stroke-width="2.0"/>
<line x1="75.1" y1="163.7" x2="71.6" y2="197.0" stroke="rgb(0,0,0)"  stroke-width="2.0"/>
<line x1="71.6" y1="197.0" x2="98.7" y2="216.7" stroke="rgb(0,0,0)"  stroke-width="2.0"/>
<line x1="80.7" y1="194.7" x2="98.1" y2="207.4" stroke="rgb(0,0,0)"  stroke-width="2.0"/>
<line x1="98.7" y1="216.7" x2="129.3" y2="203.1" stroke="rgb(0,0,0)"  stroke-width="2.0"/>
<line x1="357.2" y1="148.6" x2="329.8" y2="167.8" stroke="rgb(0,0,0)"  stroke-width="2.0"/>
<line x1="356.4" y1="157.9" x2="338.8" y2="170.3" stroke="rgb(0,0,0)"  stroke-width="2.0"/>
<line x1="329.8" y1="167.8" x2="332.7" y2="201.2" stroke="rgb(0,0,0)"  stroke-width="2.0"/>
<line x1="332.7" y1="201.2" x2="363.0" y2="215.4" stroke="rgb(0,0,0)"  stroke-width="2.0"/>
<line x1="341.1" y1="197.2" x2="360.6" y2="206.3" stroke="rgb(0,0,0)"  stroke-width="2.0"/>
<line x1="363.0" y1="215.4" x2="390.5" y2="196.2" stroke="rgb(0,0,0)"  stroke-width="2.0"/>
<line x1="390.5" y1="196.2" x2="387.6" y2="162.8" stroke="rgb(0,0,0)"  stroke-width="2.0"/>
<line x1="382.8" y1="190.8" x2="380.9" y2="169.4" stroke="rgb(0,0,0)"  stroke-width="2.0"/>
<line x1="387.6" y1="162.8" x2="357.2" y2="148.6" stroke="rgb(0,0,0)"  stroke-width="2.0"/>
<line x1="291.3" y1="73.5" x2="299.4" y2="153.7" stroke="rgb(0,0,0)"  stroke-width="2.0"/>
<line x1="299.4" y1="153.7" x2="308.4" y2="73.5" stroke="rgb(0,0,0)"  stroke-width="2.0"/>
<line x1="308.4" y1="73.5" x2="291.3" y2="73.5" stroke="rgb(0,0,0)"  stroke-width="2.0"/>
<text x="247.012406" y="287.034969" fill="rgb(147,0,147)"  stroke="rgb(147,0,147)" stroke-width="1" font-size="16" >I</text>
<text x="223.734174" y="201.940584" fill="rgb(12,12,255)"  stroke="rgb(12,12,255)" stroke-width="1" font-size="16" >N</text>
<text x="193.663806" y="330.562280" fill="rgb(191,191,191)"  stroke="rgb(191,191,191)" stroke-width="1" font-size="16" >H</text>
<text x="180.977555" y="288.898032" fill="rgb(191,191,191)"  stroke="rgb(191,191,191)" stroke-width="1" font-size="16" >H</text>
<text x="188.952535" y="147.080759" fill="rgb(191,191,191)"  stroke="rgb(191,191,191)" stroke-width="1" font-size="16" >H</text>
<text x="151.292532" y="231.384347" fill="rgb(191,191,191)"  stroke="rgb(191,191,191)" stroke-width="1" font-size="16" >H</text>
<text x="89.104436" y="259.109133" fill="rgb(191,191,191)"  stroke="rgb(191,191,191)" stroke-width="1" font-size="16" >H</text>
<text x="34.000000" y="219.113599" fill="rgb(191,191,191)"  stroke="rgb(191,191,191)" stroke-width="1" font-size="16" >H</text>
<text x="41.083659" y="151.393280" fill="rgb(191,191,191)"  stroke="rgb(191,191,191)" stroke-width="1" font-size="16" >H</text>
<text x="103.275106" y="123.671845" fill="rgb(191,191,191)"  stroke="rgb(191,191,191)" stroke-width="1" font-size="16" >H</text>
<text x="258.663249" y="57.456049" fill="rgb(191,191,191)"  stroke="rgb(191,191,191)" stroke-width="1" font-size="16" >H</text>
<text x="298.142755" y="48.033508" fill="rgb(191,191,191)"  stroke="rgb(191,191,191)" stroke-width="1" font-size="16" >H</text>
<text x="329.097743" y="57.596784" fill="rgb(191,191,191)"  stroke="rgb(191,191,191)" stroke-width="1" font-size="16" >H</text>
<text x="289.581379" y="48.000000" fill="rgb(191,191,191)"  stroke="rgb(191,191,191)" stroke-width="1" font-size="16" >H</text>
<text x="348.204189" y="122.160619" fill="rgb(191,191,191)"  stroke="rgb(191,191,191)" stroke-width="1" font-size="16" >H</text>
<text x="409.906414" y="150.961022" fill="rgb(191,191,191)"  stroke="rgb(191,191,191)" stroke-width="1" font-size="16" >H</text>
<text x="415.817282" y="218.791919" fill="rgb(191,191,191)"  stroke="rgb(191,191,191)" stroke-width="1" font-size="16" >H</text>
<text x="360.025925" y="257.825764" fill="rgb(191,191,191)"  stroke="rgb(191,191,191)" stroke-width="1" font-size="16" >H</text>
<text x="298.327051" y="229.028712" fill="rgb(191,191,191)"  stroke="rgb(191,191,191)" stroke-width="1" font-size="16" >H</text>
<text x="122.642916" y="79.605050" fill="rgb(191,191,191)"  stroke="rgb(191,191,191)" stroke-width="1" font-size="16" >H</text>
</svg>
</g>
<text font-size="18.000000" fill ="black" font-family="sans-serif"
x="10.000000" y="20.000000" ></text>
</svg>
