<?xml version="1.0"?>
<svg version="1.1" id="topsvg"
xmlns="http://www.w3.org/2000/svg" xmlns:xlink="http://www.w3.org/1999/xlink"
xmlns:cml="http://www.xml-cml.org/schema" x="0" y="0" width="200px" height="200px" viewBox="0 0 100 100">
<title> - Open Babel Depiction</title>
<rect x="0" y="0" width="100" height="100" fill="white"/>
<g transform="translate(0,0)">
<svg width="100" height="100" x="0" y="0" viewBox="0 0 447.565 345.395"
font-family="sans-serif" stroke="rgb(0,0,0)" stroke-width="2"  stroke-linecap="round">
<line x1="370.8" y1="305.1" x2="347.9" y2="304.5" stroke="rgb(0,0,0)"  stroke-width="2.0"/>
<line x1="179.6" y1="223.3" x2="168.6" y2="240.1" stroke="rgb(0,0,0)"  stroke-width="2.0"/>
<line x1="179.6" y1="223.3" x2="159.8" y2="220.1" stroke="rgb(0,0,0)"  stroke-width="2.0"/>
<polygon points="168.652187 181.102399 205.889641 152.553727 210.198142 159.294411 " stroke-width="2.000000" fill="rgb(0,0,0)"  stroke="rgb(0,0,0)" />
<line x1="168.7" y1="181.1" x2="187.3" y2="188.4" stroke="rgb(0,0,0)"  stroke-width="2.0"/>
<line x1="128.6" y1="157.1" x2="112.2" y2="166.4" stroke="rgb(0,0,0)"  stroke-width="2.0"/>
<line x1="128.6" y1="110.7" x2="111.9" y2="104.4" stroke="rgb(0,0,0)"  stroke-width="2.0"/>
<line x1="104.4" y1="87.6" x2="110.7" y2="70.9" stroke="rgb(0,0,0)"  stroke-width="2.0"/>
<line x1="87.6" y1="95.1" x2="70.9" y2="88.8" stroke="rgb(0,0,0)"  stroke-width="2.0"/>
<line x1="95.1" y1="111.9" x2="88.8" y2="128.6" stroke="rgb(0,0,0)"  stroke-width="2.0"/>
<line x1="110.7" y1="70.9" x2="130.5" y2="67.7" stroke="rgb(0,0,0)"  stroke-width="2.0"/>
<line x1="110.7" y1="70.9" x2="98.1" y2="55.4" stroke="rgb(0,0,0)"  stroke-width="2.0"/>
<line x1="110.7" y1="70.9" x2="117.8" y2="52.2" stroke="rgb(0,0,0)"  stroke-width="2.0"/>
<line x1="70.9" y1="88.8" x2="67.7" y2="69.0" stroke="rgb(0,0,0)"  stroke-width="2.0"/>
<line x1="70.9" y1="88.8" x2="55.4" y2="101.4" stroke="rgb(0,0,0)"  stroke-width="2.0"/>
<line x1="70.9" y1="88.8" x2="52.2" y2="81.7" stroke="rgb(0,0,0)"  stroke-width="2.0"/>
<line x1="88.8" y1="128.6" x2="69.0" y2="131.8" stroke="rgb(0,0,0)"  stroke-width="2.0"/>
<line x1="88.8" y1="128.6" x2="101.4" y2="144.1" stroke="rgb(0,0,0)"  stroke-width="2.0"/>
<line x1="88.8" y1="128.6" x2="81.7" y2="147.3" stroke="rgb(0,0,0)"  stroke-width="2.0"/>
<line x1="171.6" y1="53.5" x2="174.4" y2="88.3" stroke="rgb(0,0,0)"  stroke-width="2.0"/>
<line x1="165.6" y1="54.0" x2="168.5" y2="88.8" stroke="rgb(0,0,0)"  stroke-width="2.0"/>
<line x1="209.8" y1="119.0" x2="208.2" y2="119.0" stroke="rgb(0,0,0)"  stroke-width="1.0"/>
<line x1="210.3" y1="126.4" x2="207.4" y2="126.4" stroke="rgb(0,0,0)"  stroke-width="1.0"/>
<line x1="210.7" y1="133.8" x2="206.5" y2="133.7" stroke="rgb(0,0,0)"  stroke-width="1.0"/>
<line x1="211.1" y1="141.2" x2="205.7" y2="141.1" stroke="rgb(0,0,0)"  stroke-width="1.0"/>
<line x1="211.6" y1="148.6" x2="204.9" y2="148.5" stroke="rgb(0,0,0)"  stroke-width="1.0"/>
<line x1="212.0" y1="156.0" x2="204.0" y2="155.8" stroke="rgb(0,0,0)"  stroke-width="1.0"/>
<line x1="209.2" y1="109.8" x2="211.8" y2="89.9" stroke="rgb(0,0,0)"  stroke-width="2.0"/>
<line x1="252.5" y1="98.3" x2="258.7" y2="79.2" stroke="rgb(0,0,0)"  stroke-width="2.0"/>
<line x1="252.5" y1="98.3" x2="272.2" y2="94.6" stroke="rgb(0,0,0)"  stroke-width="2.0"/>
<line x1="354.6" y1="167.4" x2="364.3" y2="151.3" stroke="rgb(0,0,0)"  stroke-width="2.0"/>
<line x1="375.7" y1="207.5" x2="394.6" y2="207.4" stroke="rgb(0,0,0)"  stroke-width="2.0"/>
<line x1="354.9" y1="247.7" x2="364.6" y2="263.9" stroke="rgb(0,0,0)"  stroke-width="2.0"/>
<line x1="308.9" y1="247.2" x2="325.1" y2="251.6" stroke="rgb(0,0,0)"  stroke-width="2.0"/>
<line x1="208.0" y1="155.9" x2="247.9" y2="180.2" stroke="rgb(0,0,0)"  stroke-width="2.0"/>
<polygon points="208.043891 155.924069 212.296032 178.013189 204.296552 178.104407 " stroke-width="2.000000" fill="rgb(0,0,0)"  stroke="rgb(0,0,0)" />
<line x1="246.4" y1="177.6" x2="287.3" y2="153.0" stroke="rgb(0,0,0)"  stroke-width="2.0"/>
<line x1="249.5" y1="182.7" x2="290.3" y2="158.2" stroke="rgb(0,0,0)"  stroke-width="2.0"/>
<line x1="247.9" y1="180.2" x2="247.9" y2="199.0" stroke="rgb(0,0,0)"  stroke-width="2.0"/>
<line x1="288.8" y1="155.6" x2="305.3" y2="164.7" stroke="rgb(0,0,0)"  stroke-width="2.0"/>
<line x1="288.8" y1="155.6" x2="288.5" y2="136.7" stroke="rgb(0,0,0)"  stroke-width="2.0"/>
<line x1="325.1" y1="251.6" x2="332.5" y2="291.5" stroke="rgb(0,0,0)"  stroke-width="2.0"/>
<line x1="325.1" y1="251.6" x2="339.9" y2="237.9" stroke="rgb(0,0,0)"  stroke-width="2.0"/>
<line x1="325.1" y1="251.6" x2="344.2" y2="257.9" stroke="rgb(0,0,0)"  stroke-width="2.0"/>
<line x1="354.9" y1="247.7" x2="308.9" y2="247.2" stroke="rgb(0,0,0)"  stroke-width="2.0"/>
<line x1="308.9" y1="247.2" x2="284.7" y2="207.5" stroke="rgb(0,0,0)"  stroke-width="2.0"/>
<line x1="311.9" y1="238.4" x2="293.9" y2="208.9" stroke="rgb(0,0,0)"  stroke-width="2.0"/>
<line x1="284.7" y1="207.5" x2="308.9" y2="167.6" stroke="rgb(0,0,0)"  stroke-width="2.0"/>
<line x1="308.9" y1="167.6" x2="354.6" y2="167.4" stroke="rgb(0,0,0)"  stroke-width="2.0"/>
<line x1="314.9" y1="174.8" x2="348.6" y2="174.7" stroke="rgb(0,0,0)"  stroke-width="2.0"/>
<line x1="354.6" y1="167.4" x2="375.7" y2="207.5" stroke="rgb(0,0,0)"  stroke-width="2.0"/>
<line x1="375.7" y1="207.5" x2="354.9" y2="247.7" stroke="rgb(0,0,0)"  stroke-width="2.0"/>
<line x1="366.5" y1="209.5" x2="351.2" y2="239.0" stroke="rgb(0,0,0)"  stroke-width="2.0"/>
<line x1="128.6" y1="110.7" x2="171.4" y2="88.5" stroke="rgb(0,0,0)"  stroke-width="2.0"/>
<line x1="171.4" y1="88.5" x2="209.2" y2="109.8" stroke="rgb(0,0,0)"  stroke-width="2.0"/>
<line x1="209.2" y1="109.8" x2="208.0" y2="155.9" stroke="rgb(0,0,0)"  stroke-width="2.0"/>
<line x1="208.0" y1="155.9" x2="168.7" y2="181.1" stroke="rgb(0,0,0)"  stroke-width="2.0"/>
<line x1="168.7" y1="181.1" x2="128.6" y2="157.1" stroke="rgb(0,0,0)"  stroke-width="2.0"/>
<line x1="128.6" y1="157.1" x2="128.6" y2="110.7" stroke="rgb(0,0,0)"  stroke-width="2.0"/>
<line x1="135.8" y1="151.1" x2="135.8" y2="116.7" stroke="rgb(0,0,0)"  stroke-width="2.0"/>
<line x1="179.6" y1="223.3" x2="168.7" y2="181.1" stroke="rgb(0,0,0)"  stroke-width="2.0"/>
<line x1="209.2" y1="109.8" x2="252.5" y2="98.3" stroke="rgb(0,0,0)"  stroke-width="2.0"/>
<line x1="252.5" y1="98.3" x2="308.9" y2="167.6" stroke="rgb(0,0,0)"  stroke-width="2.0"/>
<line x1="284.7" y1="207.5" x2="179.6" y2="223.3" stroke="rgb(0,0,0)"  stroke-width="2.0"/>
<text x="377.804320" y="313.394542" fill="rgb(17,127,178)"  stroke="rgb(17,127,178)" stroke-width="1" font-size="16" >Xx</text>
<text x="322.864984" y="312.242774" fill="rgb(35,142,142)"  stroke="rgb(35,142,142)" stroke-width="1" font-size="16" >Ru</text>
<text x="93.749900" y="107.746812" fill="rgb(127,153,153)"  stroke="rgb(127,153,153)" stroke-width="1" font-size="16" >Si</text>
<text x="161.589967" y="48.799753" fill="rgb(255,12,12)"  stroke="rgb(255,12,12)" stroke-width="1" font-size="16" >O</text>
<text x="155.408091" y="258.918690" fill="rgb(191,191,191)"  stroke="rgb(191,191,191)" stroke-width="1" font-size="16" >H</text>
<text x="141.021797" y="225.925012" fill="rgb(191,191,191)"  stroke="rgb(191,191,191)" stroke-width="1" font-size="16" >H</text>
<text x="193.407175" y="201.175893" fill="rgb(191,191,191)"  stroke="rgb(191,191,191)" stroke-width="1" font-size="16" >H</text>
<text x="94.842999" y="180.786819" fill="rgb(191,191,191)"  stroke="rgb(191,191,191)" stroke-width="1" font-size="16" >H</text>
<text x="137.337992" y="73.610629" fill="rgb(191,191,191)"  stroke="rgb(191,191,191)" stroke-width="1" font-size="16" >H</text>
<text x="83.844077" y="53.277136" fill="rgb(191,191,191)"  stroke="rgb(191,191,191)" stroke-width="1" font-size="16" >H</text>
<text x="116.461038" y="48.000000" fill="rgb(191,191,191)"  stroke="rgb(191,191,191)" stroke-width="1" font-size="16" >H</text>
<text x="59.607541" y="64.158720" fill="rgb(191,191,191)"  stroke="rgb(191,191,191)" stroke-width="1" font-size="16" >H</text>
<text x="39.277136" y="117.652635" fill="rgb(191,191,191)"  stroke="rgb(191,191,191)" stroke-width="1" font-size="16" >H</text>
<text x="34.000000" y="85.035674" fill="rgb(191,191,191)"  stroke="rgb(191,191,191)" stroke-width="1" font-size="16" >H</text>
<text x="50.158720" y="141.886083" fill="rgb(191,191,191)"  stroke="rgb(191,191,191)" stroke-width="1" font-size="16" >H</text>
<text x="103.649547" y="162.222664" fill="rgb(191,191,191)"  stroke="rgb(191,191,191)" stroke-width="1" font-size="16" >H</text>
<text x="71.035674" y="167.496712" fill="rgb(191,191,191)"  stroke="rgb(191,191,191)" stroke-width="1" font-size="16" >H</text>
<text x="207.401311" y="85.017147" fill="rgb(191,191,191)"  stroke="rgb(191,191,191)" stroke-width="1" font-size="16" >H</text>
<text x="256.735893" y="74.827242" fill="rgb(191,191,191)"  stroke="rgb(191,191,191)" stroke-width="1" font-size="16" >H</text>
<text x="279.014731" y="100.200106" fill="rgb(191,191,191)"  stroke="rgb(191,191,191)" stroke-width="1" font-size="16" >H</text>
<text x="365.032972" y="148.126628" fill="rgb(191,191,191)"  stroke="rgb(191,191,191)" stroke-width="1" font-size="16" >H</text>
<text x="401.565327" y="215.383092" fill="rgb(191,191,191)"  stroke="rgb(191,191,191)" stroke-width="1" font-size="16" >H</text>
<text x="365.304703" y="282.991570" fill="rgb(191,191,191)"  stroke="rgb(191,191,191)" stroke-width="1" font-size="16" >H</text>
<text x="202.420609" y="196.960978" fill="rgb(191,191,191)"  stroke="rgb(191,191,191)" stroke-width="1" font-size="16" >H</text>
<text x="241.877158" y="220.030306" fill="rgb(191,191,191)"  stroke="rgb(191,191,191)" stroke-width="1" font-size="16" >H</text>
<text x="310.680634" y="179.017481" fill="rgb(191,191,191)"  stroke="rgb(191,191,191)" stroke-width="1" font-size="16" >H</text>
<text x="282.226096" y="131.723968" fill="rgb(191,191,191)"  stroke="rgb(191,191,191)" stroke-width="1" font-size="16" >H</text>
<text x="343.396407" y="237.115381" fill="rgb(191,191,191)"  stroke="rgb(191,191,191)" stroke-width="1" font-size="16" >H</text>
<text x="350.498462" y="269.976282" fill="rgb(191,191,191)"  stroke="rgb(191,191,191)" stroke-width="1" font-size="16" >H</text>
</svg>
</g>
<text font-size="18.000000" fill ="black" font-family="sans-serif"
x="10.000000" y="20.000000" ></text>
</svg>
