<?xml version="1.0"?>
<svg version="1.1" id="topsvg"
xmlns="http://www.w3.org/2000/svg" xmlns:xlink="http://www.w3.org/1999/xlink"
xmlns:cml="http://www.xml-cml.org/schema" x="0" y="0" width="200px" height="200px" viewBox="0 0 100 100">
<title> - Open Babel Depiction</title>
<rect x="0" y="0" width="100" height="100" fill="white"/>
<g transform="translate(0,0)">
<svg width="100" height="100" x="0" y="0" viewBox="0 0 495.167 361.818"
font-family="sans-serif" stroke="rgb(0,0,0)" stroke-width="2"  stroke-linecap="round">
<line x1="167.9" y1="178.3" x2="166.8" y2="222.5" stroke="rgb(0,0,0)"  stroke-width="2.0"/>
<line x1="174.9" y1="172.8" x2="175.8" y2="174.1" stroke="rgb(0,0,0)"  stroke-width="1.0"/>
<line x1="180.5" y1="168.3" x2="182.1" y2="170.7" stroke="rgb(0,0,0)"  stroke-width="1.0"/>
<line x1="186.1" y1="163.9" x2="188.4" y2="167.4" stroke="rgb(0,0,0)"  stroke-width="1.0"/>
<line x1="191.7" y1="159.4" x2="194.7" y2="164.0" stroke="rgb(0,0,0)"  stroke-width="1.0"/>
<line x1="197.4" y1="155.0" x2="201.0" y2="160.6" stroke="rgb(0,0,0)"  stroke-width="1.0"/>
<line x1="203.0" y1="150.6" x2="207.4" y2="157.3" stroke="rgb(0,0,0)"  stroke-width="1.0"/>
<line x1="167.9" y1="178.3" x2="151.4" y2="187.6" stroke="rgb(0,0,0)"  stroke-width="2.0"/>
<line x1="166.8" y1="222.5" x2="192.0" y2="238.0" stroke="rgb(0,0,0)"  stroke-width="2.0"/>
<line x1="166.8" y1="222.5" x2="150.2" y2="231.5" stroke="rgb(0,0,0)"  stroke-width="2.0"/>
<line x1="166.8" y1="222.5" x2="166.3" y2="241.4" stroke="rgb(0,0,0)"  stroke-width="2.0"/>
<line x1="127.0" y1="155.0" x2="111.7" y2="163.9" stroke="rgb(0,0,0)"  stroke-width="2.0"/>
<line x1="127.3" y1="109.0" x2="111.2" y2="103.9" stroke="rgb(0,0,0)"  stroke-width="2.0"/>
<line x1="102.8" y1="87.6" x2="107.9" y2="71.6" stroke="rgb(0,0,0)"  stroke-width="2.0"/>
<line x1="86.4" y1="96.1" x2="70.4" y2="91.0" stroke="rgb(0,0,0)"  stroke-width="2.0"/>
<line x1="94.9" y1="112.4" x2="89.8" y2="128.4" stroke="rgb(0,0,0)"  stroke-width="2.0"/>
<line x1="107.9" y1="71.6" x2="126.3" y2="67.5" stroke="rgb(0,0,0)"  stroke-width="2.0"/>
<line x1="107.9" y1="71.6" x2="95.1" y2="57.6" stroke="rgb(0,0,0)"  stroke-width="2.0"/>
<line x1="107.9" y1="71.6" x2="113.6" y2="53.6" stroke="rgb(0,0,0)"  stroke-width="2.0"/>
<line x1="70.4" y1="91.0" x2="66.4" y2="72.5" stroke="rgb(0,0,0)"  stroke-width="2.0"/>
<line x1="70.4" y1="91.0" x2="56.4" y2="103.7" stroke="rgb(0,0,0)"  stroke-width="2.0"/>
<line x1="70.4" y1="91.0" x2="52.4" y2="85.3" stroke="rgb(0,0,0)"  stroke-width="2.0"/>
<line x1="89.8" y1="128.4" x2="71.4" y2="132.5" stroke="rgb(0,0,0)"  stroke-width="2.0"/>
<line x1="89.8" y1="128.4" x2="102.6" y2="142.4" stroke="rgb(0,0,0)"  stroke-width="2.0"/>
<line x1="89.8" y1="128.4" x2="84.1" y2="146.4" stroke="rgb(0,0,0)"  stroke-width="2.0"/>
<line x1="214.0" y1="48.2" x2="166.6" y2="86.4" stroke="rgb(0,0,0)"  stroke-width="2.0"/>
<line x1="206.7" y1="108.0" x2="222.1" y2="99.1" stroke="rgb(0,0,0)"  stroke-width="2.0"/>
<line x1="205.2" y1="153.9" x2="247.0" y2="174.0" stroke="rgb(0,0,0)"  stroke-width="2.0"/>
<polygon points="205.161608 153.921729 210.551601 174.992122 202.568739 175.515491 " stroke-width="2.000000" fill="rgb(0,0,0)"  stroke="rgb(0,0,0)" />
<line x1="314.6" y1="179.8" x2="290.1" y2="139.2" stroke="rgb(0,0,0)"  stroke-width="2.0"/>
<line x1="290.1" y1="139.2" x2="271.4" y2="135.9" stroke="rgb(0,0,0)"  stroke-width="2.0"/>
<line x1="290.1" y1="139.2" x2="285.3" y2="120.9" stroke="rgb(0,0,0)"  stroke-width="2.0"/>
<line x1="325.3" y1="125.0" x2="341.1" y2="130.9" stroke="rgb(0,0,0)"  stroke-width="2.0"/>
<line x1="303.1" y1="128.5" x2="290.1" y2="139.2" stroke="rgb(0,0,0)"  stroke-width="2.0"/>
<line x1="341.1" y1="130.9" x2="344.1" y2="149.6" stroke="rgb(0,0,0)"  stroke-width="2.0"/>
<line x1="341.1" y1="130.9" x2="355.7" y2="119.0" stroke="rgb(0,0,0)"  stroke-width="2.0"/>
<line x1="341.1" y1="130.9" x2="358.7" y2="137.7" stroke="rgb(0,0,0)"  stroke-width="2.0"/>
<line x1="418.6" y1="203.8" x2="444.6" y2="185.1" stroke="rgb(0,0,0)"  stroke-width="2.0"/>
<line x1="325.9" y1="269.7" x2="326.6" y2="221.8" stroke="rgb(0,0,0)"  stroke-width="2.0"/>
<line x1="325.9" y1="269.7" x2="341.0" y2="279.1" stroke="rgb(0,0,0)"  stroke-width="2.0"/>
<line x1="283.2" y1="288.4" x2="324.5" y2="267.1" stroke="rgb(0,0,0)"  stroke-width="2.0"/>
<line x1="286.0" y1="293.7" x2="327.3" y2="272.4" stroke="rgb(0,0,0)"  stroke-width="2.0"/>
<line x1="284.6" y1="291.0" x2="284.2" y2="308.8" stroke="rgb(0,0,0)"  stroke-width="2.0"/>
<line x1="246.0" y1="269.0" x2="192.0" y2="238.0" stroke="rgb(0,0,0)"  stroke-width="2.0"/>
<line x1="244.0" y1="272.6" x2="189.9" y2="241.7" stroke="rgb(0,0,0)"  stroke-width="2.0"/>
<line x1="248.1" y1="265.3" x2="194.1" y2="234.4" stroke="rgb(0,0,0)"  stroke-width="2.0"/>
<line x1="246.0" y1="269.0" x2="284.6" y2="291.0" stroke="rgb(0,0,0)"  stroke-width="2.0"/>
<line x1="250.0" y1="174.0" x2="249.6" y2="224.4" stroke="rgb(0,0,0)"  stroke-width="2.0"/>
<line x1="244.0" y1="174.0" x2="243.6" y2="224.4" stroke="rgb(0,0,0)"  stroke-width="2.0"/>
<line x1="247.0" y1="174.0" x2="262.1" y2="164.6" stroke="rgb(0,0,0)"  stroke-width="2.0"/>
<line x1="246.6" y1="224.4" x2="231.2" y2="233.2" stroke="rgb(0,0,0)"  stroke-width="2.0"/>
<line x1="246.6" y1="224.4" x2="262.0" y2="233.4" stroke="rgb(0,0,0)"  stroke-width="2.0"/>
<line x1="326.6" y1="221.8" x2="341.0" y2="195.0" stroke="rgb(0,0,0)"  stroke-width="2.0"/>
<line x1="341.0" y1="195.0" x2="314.6" y2="179.8" stroke="rgb(0,0,0)"  stroke-width="2.0"/>
<line x1="314.6" y1="179.8" x2="326.6" y2="221.8" stroke="rgb(0,0,0)"  stroke-width="2.0"/>
<line x1="341.0" y1="195.0" x2="384.7" y2="173.2" stroke="rgb(0,0,0)"  stroke-width="2.0"/>
<line x1="383.4" y1="169.3" x2="314.6" y2="179.8" stroke="rgb(0,0,0)"  stroke-width="2.0"/>
<line x1="395.5" y1="208.3" x2="341.0" y2="195.0" stroke="rgb(0,0,0)"  stroke-width="2.0"/>
<line x1="399.6" y1="180.0" x2="404.7" y2="198.9" stroke="rgb(0,0,0)"  stroke-width="2.0"/>
<line x1="326.6" y1="221.8" x2="395.2" y2="213.1" stroke="rgb(0,0,0)"  stroke-width="2.0"/>
<line x1="127.0" y1="155.0" x2="167.9" y2="178.3" stroke="rgb(0,0,0)"  stroke-width="2.0"/>
<line x1="167.9" y1="178.3" x2="205.2" y2="153.9" stroke="rgb(0,0,0)"  stroke-width="2.0"/>
<line x1="205.2" y1="153.9" x2="206.7" y2="108.0" stroke="rgb(0,0,0)"  stroke-width="2.0"/>
<line x1="206.7" y1="108.0" x2="166.6" y2="86.4" stroke="rgb(0,0,0)"  stroke-width="2.0"/>
<line x1="198.0" y1="111.5" x2="168.5" y2="95.6" stroke="rgb(0,0,0)"  stroke-width="2.0"/>
<line x1="166.6" y1="86.4" x2="127.3" y2="109.0" stroke="rgb(0,0,0)"  stroke-width="2.0"/>
<line x1="127.3" y1="109.0" x2="127.0" y2="155.0" stroke="rgb(0,0,0)"  stroke-width="2.0"/>
<line x1="134.4" y1="115.0" x2="134.3" y2="149.1" stroke="rgb(0,0,0)"  stroke-width="2.0"/>
<text x="92.838040" y="107.998042" fill="rgb(127,153,153)"  stroke="rgb(127,153,153)" stroke-width="1" font-size="16" >Si</text>
<text x="218.067551" y="48.000000" fill="rgb(17,127,178)"  stroke="rgb(17,127,178)" stroke-width="1" font-size="16" >Xx</text>
<text x="307.193867" y="128.329386" fill="rgb(255,12,12)"  stroke="rgb(255,12,12)" stroke-width="1" font-size="16" >O</text>
<text x="390.284595" y="175.394451" fill="rgb(17,127,178)"  stroke="rgb(17,127,178)" stroke-width="1" font-size="16" >Xx</text>
<text x="402.081426" y="219.432775" fill="rgb(17,127,178)"  stroke="rgb(17,127,178)" stroke-width="1" font-size="16" >Xx</text>
<text x="449.167365" y="185.548195" fill="rgb(17,127,178)"  stroke="rgb(17,127,178)" stroke-width="1" font-size="16" >Xx</text>
<text x="134.091167" y="201.996962" fill="rgb(191,191,191)"  stroke="rgb(191,191,191)" stroke-width="1" font-size="16" >H</text>
<text x="132.752244" y="245.674463" fill="rgb(191,191,191)"  stroke="rgb(191,191,191)" stroke-width="1" font-size="16" >H</text>
<text x="159.906428" y="262.364773" fill="rgb(191,191,191)"  stroke="rgb(191,191,191)" stroke-width="1" font-size="16" >H</text>
<text x="94.400613" y="178.421191" fill="rgb(191,191,191)"  stroke="rgb(191,191,191)" stroke-width="1" font-size="16" >H</text>
<text x="133.017643" y="72.723845" fill="rgb(191,191,191)"  stroke="rgb(191,191,191)" stroke-width="1" font-size="16" >H</text>
<text x="80.340436" y="56.009679" fill="rgb(191,191,191)"  stroke="rgb(191,191,191)" stroke-width="1" font-size="16" >H</text>
<text x="111.505423" y="49.160002" fill="rgb(191,191,191)"  stroke="rgb(191,191,191)" stroke-width="1" font-size="16" >H</text>
<text x="57.563843" y="67.818439" fill="rgb(191,191,191)"  stroke="rgb(191,191,191)" stroke-width="1" font-size="16" >H</text>
<text x="40.849677" y="120.495646" fill="rgb(191,191,191)"  stroke="rgb(191,191,191)" stroke-width="1" font-size="16" >H</text>
<text x="34.000000" y="89.330659" fill="rgb(191,191,191)"  stroke="rgb(191,191,191)" stroke-width="1" font-size="16" >H</text>
<text x="52.658437" y="143.272239" fill="rgb(191,191,191)"  stroke="rgb(191,191,191)" stroke-width="1" font-size="16" >H</text>
<text x="105.335644" y="159.986405" fill="rgb(191,191,191)"  stroke="rgb(191,191,191)" stroke-width="1" font-size="16" >H</text>
<text x="74.170657" y="166.836082" fill="rgb(191,191,191)"  stroke="rgb(191,191,191)" stroke-width="1" font-size="16" >H</text>
<text x="227.380369" y="100.668261" fill="rgb(191,191,191)"  stroke="rgb(191,191,191)" stroke-width="1" font-size="16" >H</text>
<text x="201.249015" y="193.760650" fill="rgb(191,191,191)"  stroke="rgb(191,191,191)" stroke-width="1" font-size="16" >H</text>
<text x="252.632030" y="141.688791" fill="rgb(191,191,191)"  stroke="rgb(191,191,191)" stroke-width="1" font-size="16" >H</text>
<text x="276.005024" y="116.285048" fill="rgb(191,191,191)"  stroke="rgb(191,191,191)" stroke-width="1" font-size="16" >H</text>
<text x="340.136132" y="170.444314" fill="rgb(191,191,191)"  stroke="rgb(191,191,191)" stroke-width="1" font-size="16" >H</text>
<text x="359.805470" y="118.795900" fill="rgb(191,191,191)"  stroke="rgb(191,191,191)" stroke-width="1" font-size="16" >H</text>
<text x="364.877869" y="150.297854" fill="rgb(191,191,191)"  stroke="rgb(191,191,191)" stroke-width="1" font-size="16" >H</text>
<text x="346.073314" y="293.914439" fill="rgb(191,191,191)"  stroke="rgb(191,191,191)" stroke-width="1" font-size="16" >H</text>
<text x="277.946313" y="329.817840" fill="rgb(191,191,191)"  stroke="rgb(191,191,191)" stroke-width="1" font-size="16" >H</text>
<text x="267.100742" y="165.738702" fill="rgb(191,191,191)"  stroke="rgb(191,191,191)" stroke-width="1" font-size="16" >H</text>
<text x="213.865899" y="247.600842" fill="rgb(191,191,191)"  stroke="rgb(191,191,191)" stroke-width="1" font-size="16" >H</text>
<text x="267.166346" y="247.985521" fill="rgb(191,191,191)"  stroke="rgb(191,191,191)" stroke-width="1" font-size="16" >H</text>
</svg>
</g>
<text font-size="18.000000" fill ="black" font-family="sans-serif"
x="10.000000" y="20.000000" ></text>
</svg>
