<?xml version="1.0"?>
<svg version="1.1" id="topsvg"
xmlns="http://www.w3.org/2000/svg" xmlns:xlink="http://www.w3.org/1999/xlink"
xmlns:cml="http://www.xml-cml.org/schema" x="0" y="0" width="200px" height="200px" viewBox="0 0 100 100">
<title> - Open Babel Depiction</title>
<rect x="0" y="0" width="100" height="100" fill="white"/>
<g transform="translate(0,0)">
<svg width="100" height="100" x="0" y="0" viewBox="0 0 346.323 444.814"
font-family="sans-serif" stroke="rgb(0,0,0)" stroke-width="2"  stroke-linecap="round">
<line x1="208.9" y1="325.1" x2="161.5" y2="337.2" stroke="rgb(0,0,0)"  stroke-width="2.0"/>
<line x1="208.9" y1="325.1" x2="195.6" y2="372.2" stroke="rgb(0,0,0)"  stroke-width="2.0"/>
<line x1="161.5" y1="337.2" x2="146.9" y2="322.3" stroke="rgb(0,0,0)"  stroke-width="2.0"/>
<line x1="161.5" y1="337.2" x2="155.9" y2="357.4" stroke="rgb(0,0,0)"  stroke-width="2.0"/>
<line x1="161.5" y1="337.2" x2="141.3" y2="342.4" stroke="rgb(0,0,0)"  stroke-width="2.0"/>
<line x1="258.3" y1="325.5" x2="270.5" y2="342.5" stroke="rgb(0,0,0)"  stroke-width="2.0"/>
<line x1="258.3" y1="325.5" x2="248.6" y2="344.1" stroke="rgb(0,0,0)"  stroke-width="2.0"/>
<line x1="234.1" y1="249.7" x2="234.0" y2="270.7" stroke="rgb(0,0,0)"  stroke-width="2.0"/>
<line x1="193.8" y1="178.4" x2="152.4" y2="197.8" stroke="rgb(0,0,0)"  stroke-width="2.0"/>
<polygon points="193.809108 178.371125 188.906130 128.791248 196.904806 128.645678 " stroke-width="2.000000" fill="rgb(0,0,0)"  stroke="rgb(0,0,0)" />
<line x1="193.8" y1="178.4" x2="176.0" y2="167.3" stroke="rgb(0,0,0)"  stroke-width="2.0"/>
<line x1="152.4" y1="197.8" x2="152.5" y2="217.6" stroke="rgb(0,0,0)"  stroke-width="2.0"/>
<line x1="68.5" y1="107.1" x2="110.5" y2="129.6" stroke="rgb(0,0,0)"  stroke-width="2.0"/>
<line x1="68.5" y1="107.1" x2="51.6" y2="117.3" stroke="rgb(0,0,0)"  stroke-width="2.0"/>
<line x1="110.5" y1="129.6" x2="152.1" y2="107.1" stroke="rgb(0,0,0)"  stroke-width="2.0"/>
<line x1="110.5" y1="129.6" x2="110.6" y2="150.5" stroke="rgb(0,0,0)"  stroke-width="2.0"/>
<line x1="110.5" y1="129.6" x2="128.5" y2="140.3" stroke="rgb(0,0,0)"  stroke-width="2.0"/>
<line x1="71.4" y1="56.9" x2="71.5" y2="107.1" stroke="rgb(0,0,0)"  stroke-width="2.0"/>
<line x1="65.4" y1="57.0" x2="65.5" y2="107.1" stroke="rgb(0,0,0)"  stroke-width="2.0"/>
<line x1="68.4" y1="56.9" x2="85.4" y2="47.0" stroke="rgb(0,0,0)"  stroke-width="2.0"/>
<line x1="68.4" y1="56.9" x2="51.3" y2="47.1" stroke="rgb(0,0,0)"  stroke-width="2.0"/>
<line x1="152.1" y1="107.1" x2="152.0" y2="86.1" stroke="rgb(0,0,0)"  stroke-width="2.0"/>
<line x1="152.1" y1="107.1" x2="170.0" y2="96.2" stroke="rgb(0,0,0)"  stroke-width="2.0"/>
<polygon points="192.905468 128.718463 150.197231 110.609760 153.943636 103.541206 " stroke-width="2.000000" fill="rgb(0,0,0)"  stroke="rgb(0,0,0)" />
<line x1="192.9" y1="128.7" x2="193.3" y2="73.9" stroke="rgb(0,0,0)"  stroke-width="2.0"/>
<line x1="237.7" y1="71.4" x2="239.2" y2="105.8" stroke="rgb(0,0,0)"  stroke-width="2.0"/>
<line x1="231.7" y1="71.7" x2="233.2" y2="106.0" stroke="rgb(0,0,0)"  stroke-width="2.0"/>
<line x1="276.7" y1="130.5" x2="295.0" y2="120.2" stroke="rgb(0,0,0)"  stroke-width="2.0"/>
<line x1="276.7" y1="130.5" x2="294.8" y2="141.1" stroke="rgb(0,0,0)"  stroke-width="2.0"/>
<line x1="276.7" y1="179.3" x2="295.0" y2="189.5" stroke="rgb(0,0,0)"  stroke-width="2.0"/>
<line x1="276.7" y1="179.3" x2="277.1" y2="200.2" stroke="rgb(0,0,0)"  stroke-width="2.0"/>
<line x1="235.4" y1="204.4" x2="234.1" y2="249.7" stroke="rgb(0,0,0)"  stroke-width="2.0"/>
<line x1="235.4" y1="204.4" x2="216.9" y2="214.3" stroke="rgb(0,0,0)"  stroke-width="2.0"/>
<line x1="147.1" y1="264.0" x2="182.6" y2="275.2" stroke="rgb(0,0,0)"  stroke-width="2.0"/>
<line x1="147.1" y1="264.0" x2="142.5" y2="243.5" stroke="rgb(0,0,0)"  stroke-width="2.0"/>
<line x1="147.1" y1="264.0" x2="131.7" y2="278.1" stroke="rgb(0,0,0)"  stroke-width="2.0"/>
<line x1="147.1" y1="264.0" x2="127.1" y2="257.7" stroke="rgb(0,0,0)"  stroke-width="2.0"/>
<line x1="195.6" y1="372.2" x2="175.3" y2="377.3" stroke="rgb(0,0,0)"  stroke-width="2.0"/>
<line x1="195.6" y1="372.2" x2="210.1" y2="387.2" stroke="rgb(0,0,0)"  stroke-width="2.0"/>
<line x1="195.6" y1="372.2" x2="189.8" y2="392.3" stroke="rgb(0,0,0)"  stroke-width="2.0"/>
<line x1="111.1" y1="175.6" x2="153.7" y2="195.1" stroke="rgb(0,0,0)"  stroke-width="2.0"/>
<line x1="108.6" y1="181.0" x2="151.1" y2="200.6" stroke="rgb(0,0,0)"  stroke-width="2.0"/>
<line x1="109.9" y1="178.3" x2="108.1" y2="158.6" stroke="rgb(0,0,0)"  stroke-width="2.0"/>
<line x1="109.9" y1="178.3" x2="93.8" y2="189.7" stroke="rgb(0,0,0)"  stroke-width="2.0"/>
<line x1="193.3" y1="73.9" x2="211.5" y2="63.6" stroke="rgb(0,0,0)"  stroke-width="2.0"/>
<line x1="193.3" y1="73.9" x2="175.3" y2="63.3" stroke="rgb(0,0,0)"  stroke-width="2.0"/>
<line x1="193.3" y1="73.9" x2="193.5" y2="53.0" stroke="rgb(0,0,0)"  stroke-width="2.0"/>
<line x1="205.4" y1="271.3" x2="234.1" y2="249.7" stroke="rgb(0,0,0)"  stroke-width="2.0"/>
<line x1="234.1" y1="249.7" x2="263.0" y2="271.9" stroke="rgb(0,0,0)"  stroke-width="2.0"/>
<line x1="269.3" y1="292.2" x2="258.3" y2="325.5" stroke="rgb(0,0,0)"  stroke-width="2.0"/>
<line x1="258.3" y1="325.5" x2="208.9" y2="325.1" stroke="rgb(0,0,0)"  stroke-width="2.0"/>
<line x1="208.9" y1="325.1" x2="198.8" y2="291.5" stroke="rgb(0,0,0)"  stroke-width="2.0"/>
<line x1="193.8" y1="178.4" x2="235.4" y2="204.4" stroke="rgb(0,0,0)"  stroke-width="2.0"/>
<line x1="235.4" y1="204.4" x2="276.7" y2="179.3" stroke="rgb(0,0,0)"  stroke-width="2.0"/>
<line x1="276.7" y1="179.3" x2="276.7" y2="130.5" stroke="rgb(0,0,0)"  stroke-width="2.0"/>
<line x1="276.7" y1="130.5" x2="236.2" y2="105.9" stroke="rgb(0,0,0)"  stroke-width="2.0"/>
<line x1="236.2" y1="105.9" x2="192.9" y2="128.7" stroke="rgb(0,0,0)"  stroke-width="2.0"/>
<line x1="192.9" y1="128.7" x2="193.8" y2="178.4" stroke="rgb(0,0,0)"  stroke-width="2.0"/>
<text x="189.020303" y="287.071543" fill="rgb(12,12,255)"  stroke="rgb(12,12,255)" stroke-width="1" font-size="16" >N</text>
<text x="267.323122" y="287.870552" fill="rgb(255,12,12)"  stroke="rgb(255,12,12)" stroke-width="1" font-size="16" >O</text>
<text x="228.171713" y="66.545238" fill="rgb(255,12,12)"  stroke="rgb(255,12,12)" stroke-width="1" font-size="16" >O</text>
<text x="131.827793" y="320.962814" fill="rgb(191,191,191)"  stroke="rgb(191,191,191)" stroke-width="1" font-size="16" >H</text>
<text x="146.400183" y="377.888989" fill="rgb(191,191,191)"  stroke="rgb(191,191,191)" stroke-width="1" font-size="16" >H</text>
<text x="122.680415" y="353.630207" fill="rgb(191,191,191)"  stroke="rgb(191,191,191)" stroke-width="1" font-size="16" >H</text>
<text x="272.047418" y="361.068595" fill="rgb(191,191,191)"  stroke="rgb(191,191,191)" stroke-width="1" font-size="16" >H</text>
<text x="236.659591" y="363.614641" fill="rgb(191,191,191)"  stroke="rgb(191,191,191)" stroke-width="1" font-size="16" >H</text>
<text x="227.933913" y="291.675353" fill="rgb(191,191,191)"  stroke="rgb(191,191,191)" stroke-width="1" font-size="16" >H</text>
<text x="159.006759" y="168.447339" fill="rgb(191,191,191)"  stroke="rgb(191,191,191)" stroke-width="1" font-size="16" >H</text>
<text x="146.530181" y="238.550810" fill="rgb(191,191,191)"  stroke="rgb(191,191,191)" stroke-width="1" font-size="16" >H</text>
<text x="34.431211" y="131.975144" fill="rgb(191,191,191)"  stroke="rgb(191,191,191)" stroke-width="1" font-size="16" >H</text>
<text x="104.645655" y="171.500692" fill="rgb(191,191,191)"  stroke="rgb(191,191,191)" stroke-width="1" font-size="16" >H</text>
<text x="133.714340" y="154.889562" fill="rgb(191,191,191)"  stroke="rgb(191,191,191)" stroke-width="1" font-size="16" >H</text>
<text x="90.675692" y="48.526331" fill="rgb(191,191,191)"  stroke="rgb(191,191,191)" stroke-width="1" font-size="16" >H</text>
<text x="34.000000" y="48.646816" fill="rgb(191,191,191)"  stroke="rgb(191,191,191)" stroke-width="1" font-size="16" >H</text>
<text x="145.915071" y="81.149335" fill="rgb(191,191,191)"  stroke="rgb(191,191,191)" stroke-width="1" font-size="16" >H</text>
<text x="175.097900" y="97.516323" fill="rgb(191,191,191)"  stroke="rgb(191,191,191)" stroke-width="1" font-size="16" >H</text>
<text x="300.282217" y="121.867054" fill="rgb(191,191,191)"  stroke="rgb(191,191,191)" stroke-width="1" font-size="16" >H</text>
<text x="300.006369" y="155.618816" fill="rgb(191,191,191)"  stroke="rgb(191,191,191)" stroke-width="1" font-size="16" >H</text>
<text x="300.323435" y="203.895408" fill="rgb(191,191,191)"  stroke="rgb(191,191,191)" stroke-width="1" font-size="16" >H</text>
<text x="271.337188" y="221.200914" fill="rgb(191,191,191)"  stroke="rgb(191,191,191)" stroke-width="1" font-size="16" >H</text>
<text x="199.480337" y="228.461744" fill="rgb(191,191,191)"  stroke="rgb(191,191,191)" stroke-width="1" font-size="16" >H</text>
<text x="133.727023" y="238.848853" fill="rgb(191,191,191)"  stroke="rgb(191,191,191)" stroke-width="1" font-size="16" >H</text>
<text x="116.072743" y="294.896752" fill="rgb(191,191,191)"  stroke="rgb(191,191,191)" stroke-width="1" font-size="16" >H</text>
<text x="108.719964" y="261.775953" fill="rgb(191,191,191)"  stroke="rgb(191,191,191)" stroke-width="1" font-size="16" >H</text>
<text x="156.663636" y="388.475850" fill="rgb(191,191,191)"  stroke="rgb(191,191,191)" stroke-width="1" font-size="16" >H</text>
<text x="213.193477" y="404.513089" fill="rgb(191,191,191)"  stroke="rgb(191,191,191)" stroke-width="1" font-size="16" >H</text>
<text x="180.297796" y="412.813898" fill="rgb(191,191,191)"  stroke="rgb(191,191,191)" stroke-width="1" font-size="16" >H</text>
<text x="100.869390" y="153.700562" fill="rgb(191,191,191)"  stroke="rgb(191,191,191)" stroke-width="1" font-size="16" >H</text>
<text x="77.190840" y="205.192211" fill="rgb(191,191,191)"  stroke="rgb(191,191,191)" stroke-width="1" font-size="16" >H</text>
<text x="216.830233" y="65.185021" fill="rgb(191,191,191)"  stroke="rgb(191,191,191)" stroke-width="1" font-size="16" >H</text>
<text x="158.068242" y="64.741127" fill="rgb(191,191,191)"  stroke="rgb(191,191,191)" stroke-width="1" font-size="16" >H</text>
<text x="187.577649" y="48.000000" fill="rgb(191,191,191)"  stroke="rgb(191,191,191)" stroke-width="1" font-size="16" >H</text>
</svg>
</g>
<text font-size="18.000000" fill ="black" font-family="sans-serif"
x="10.000000" y="20.000000" ></text>
</svg>
