<?xml version="1.0"?>
<svg version="1.1" id="topsvg"
xmlns="http://www.w3.org/2000/svg" xmlns:xlink="http://www.w3.org/1999/xlink"
xmlns:cml="http://www.xml-cml.org/schema" x="0" y="0" width="200px" height="200px" viewBox="0 0 100 100">
<title> - Open Babel Depiction</title>
<rect x="0" y="0" width="100" height="100" fill="white"/>
<g transform="translate(0,0)">
<svg width="100" height="100" x="0" y="0" viewBox="0 0 409.67 324.106"
font-family="sans-serif" stroke="rgb(0,0,0)" stroke-width="2"  stroke-linecap="round">
<line x1="111.0" y1="252.5" x2="130.9" y2="219.8" stroke="rgb(0,0,0)"  stroke-width="2.0"/>
<line x1="116.2" y1="255.6" x2="136.1" y2="222.9" stroke="rgb(0,0,0)"  stroke-width="2.0"/>
<line x1="133.5" y1="221.3" x2="173.3" y2="221.9" stroke="rgb(0,0,0)"  stroke-width="2.0"/>
<line x1="188.9" y1="191.0" x2="173.3" y2="221.9" stroke="rgb(0,0,0)"  stroke-width="2.0"/>
<line x1="73.8" y1="254.6" x2="113.6" y2="254.0" stroke="rgb(0,0,0)"  stroke-width="2.0"/>
<line x1="113.6" y1="254.0" x2="123.3" y2="271.0" stroke="rgb(0,0,0)"  stroke-width="2.0"/>
<line x1="133.5" y1="221.3" x2="124.0" y2="204.2" stroke="rgb(0,0,0)"  stroke-width="2.0"/>
<line x1="188.9" y1="191.0" x2="173.1" y2="204.4" stroke="rgb(0,0,0)"  stroke-width="2.0"/>
<line x1="147.9" y1="203.6" x2="131.6" y2="216.6" stroke="rgb(0,0,0)"  stroke-width="2.0"/>
<line x1="147.9" y1="203.6" x2="132.2" y2="190.1" stroke="rgb(0,0,0)"  stroke-width="2.0"/>
<line x1="177.4" y1="152.9" x2="170.2" y2="133.4" stroke="rgb(0,0,0)"  stroke-width="2.0"/>
<line x1="177.4" y1="152.9" x2="192.0" y2="138.2" stroke="rgb(0,0,0)"  stroke-width="2.0"/>
<line x1="276.8" y1="108.6" x2="260.8" y2="97.5" stroke="rgb(0,0,0)"  stroke-width="2.0"/>
<line x1="307.6" y1="72.2" x2="304.7" y2="52.9" stroke="rgb(0,0,0)"  stroke-width="2.0"/>
<line x1="339.6" y1="92.5" x2="357.7" y2="85.0" stroke="rgb(0,0,0)"  stroke-width="2.0"/>
<line x1="293.8" y1="197.2" x2="307.3" y2="213.0" stroke="rgb(0,0,0)"  stroke-width="2.0"/>
<line x1="293.8" y1="197.2" x2="314.4" y2="195.1" stroke="rgb(0,0,0)"  stroke-width="2.0"/>
<line x1="257.2" y1="210.5" x2="256.5" y2="189.7" stroke="rgb(0,0,0)"  stroke-width="2.0"/>
<line x1="173.3" y1="221.9" x2="184.1" y2="239.7" stroke="rgb(0,0,0)"  stroke-width="2.0"/>
<line x1="173.3" y1="221.9" x2="194.1" y2="221.1" stroke="rgb(0,0,0)"  stroke-width="2.0"/>
<line x1="73.8" y1="254.6" x2="63.1" y2="236.8" stroke="rgb(0,0,0)"  stroke-width="2.0"/>
<line x1="73.8" y1="254.6" x2="63.6" y2="272.8" stroke="rgb(0,0,0)"  stroke-width="2.0"/>
<line x1="73.8" y1="254.6" x2="53.0" y2="254.9" stroke="rgb(0,0,0)"  stroke-width="2.0"/>
<line x1="284.8" y1="161.9" x2="301.2" y2="149.0" stroke="rgb(0,0,0)"  stroke-width="2.0"/>
<line x1="284.8" y1="161.9" x2="275.3" y2="143.4" stroke="rgb(0,0,0)"  stroke-width="2.0"/>
<line x1="147.9" y1="203.6" x2="177.4" y2="152.9" stroke="rgb(0,0,0)"  stroke-width="2.0"/>
<line x1="177.4" y1="152.9" x2="227.2" y2="170.7" stroke="rgb(0,0,0)"  stroke-width="2.0"/>
<line x1="251.9" y1="171.5" x2="284.8" y2="161.9" stroke="rgb(0,0,0)"  stroke-width="2.0"/>
<line x1="284.8" y1="161.9" x2="257.2" y2="210.5" stroke="rgb(0,0,0)"  stroke-width="2.0"/>
<line x1="257.2" y1="210.5" x2="188.9" y2="191.0" stroke="rgb(0,0,0)"  stroke-width="2.0"/>
<line x1="188.9" y1="191.0" x2="147.9" y2="203.6" stroke="rgb(0,0,0)"  stroke-width="2.0"/>
<line x1="276.8" y1="108.6" x2="307.6" y2="72.2" stroke="rgb(0,0,0)"  stroke-width="2.0"/>
<line x1="307.6" y1="72.2" x2="339.6" y2="92.5" stroke="rgb(0,0,0)"  stroke-width="2.0"/>
<line x1="308.8" y1="81.5" x2="330.6" y2="95.4" stroke="rgb(0,0,0)"  stroke-width="2.0"/>
<line x1="339.6" y1="92.5" x2="331.3" y2="129.4" stroke="rgb(0,0,0)"  stroke-width="2.0"/>
<line x1="331.3" y1="129.4" x2="311.8" y2="164.6" stroke="rgb(0,0,0)"  stroke-width="2.0"/>
<line x1="334.9" y1="131.4" x2="315.5" y2="166.6" stroke="rgb(0,0,0)"  stroke-width="2.0"/>
<line x1="327.6" y1="127.3" x2="308.1" y2="162.6" stroke="rgb(0,0,0)"  stroke-width="2.0"/>
<line x1="311.8" y1="164.6" x2="293.8" y2="197.2" stroke="rgb(0,0,0)"  stroke-width="2.0"/>
<line x1="293.8" y1="197.2" x2="257.2" y2="210.5" stroke="rgb(0,0,0)"  stroke-width="2.0"/>
<line x1="251.8" y1="153.2" x2="276.8" y2="108.6" stroke="rgb(0,0,0)"  stroke-width="2.0"/>
<line x1="257.2" y1="158.1" x2="280.2" y2="117.4" stroke="rgb(0,0,0)"  stroke-width="2.0"/>
<text x="221.399103" y="183.087184" fill="rgb(17,127,178)"  stroke="rgb(17,127,178)" stroke-width="1" font-size="16" >Xx</text>
<text x="123.773681" y="290.315552" fill="rgb(191,191,191)"  stroke="rgb(191,191,191)" stroke-width="1" font-size="16" >H</text>
<text x="111.748306" y="200.819747" fill="rgb(191,191,191)"  stroke="rgb(191,191,191)" stroke-width="1" font-size="16" >H</text>
<text x="157.149719" y="220.773144" fill="rgb(191,191,191)"  stroke="rgb(191,191,191)" stroke-width="1" font-size="16" >H</text>
<text x="115.450334" y="232.671797" fill="rgb(191,191,191)"  stroke="rgb(191,191,191)" stroke-width="1" font-size="16" >H</text>
<text x="116.323746" y="189.565753" fill="rgb(191,191,191)"  stroke="rgb(191,191,191)" stroke-width="1" font-size="16" >H</text>
<text x="159.774364" y="129.175187" fill="rgb(191,191,191)"  stroke="rgb(191,191,191)" stroke-width="1" font-size="16" >H</text>
<text x="195.167015" y="136.932785" fill="rgb(191,191,191)"  stroke="rgb(191,191,191)" stroke-width="1" font-size="16" >H</text>
<text x="244.083101" y="98.056053" fill="rgb(191,191,191)"  stroke="rgb(191,191,191)" stroke-width="1" font-size="16" >H</text>
<text x="296.730227" y="48.000000" fill="rgb(191,191,191)"  stroke="rgb(191,191,191)" stroke-width="1" font-size="16" >H</text>
<text x="363.670405" y="88.078153" fill="rgb(191,191,191)"  stroke="rgb(191,191,191)" stroke-width="1" font-size="16" >H</text>
<text x="309.719159" y="230.909605" fill="rgb(191,191,191)"  stroke="rgb(191,191,191)" stroke-width="1" font-size="16" >H</text>
<text x="321.381927" y="201.820362" fill="rgb(191,191,191)"  stroke="rgb(191,191,191)" stroke-width="1" font-size="16" >H</text>
<text x="250.004167" y="184.754763" fill="rgb(191,191,191)"  stroke="rgb(191,191,191)" stroke-width="1" font-size="16" >H</text>
<text x="184.847587" y="258.823827" fill="rgb(191,191,191)"  stroke="rgb(191,191,191)" stroke-width="1" font-size="16" >H</text>
<text x="201.093506" y="228.612449" fill="rgb(191,191,191)"  stroke="rgb(191,191,191)" stroke-width="1" font-size="16" >H</text>
<text x="50.460413" y="233.616664" fill="rgb(191,191,191)"  stroke="rgb(191,191,191)" stroke-width="1" font-size="16" >H</text>
<text x="51.308489" y="292.106117" fill="rgb(191,191,191)"  stroke="rgb(191,191,191)" stroke-width="1" font-size="16" >H</text>
<text x="34.000000" y="263.106209" fill="rgb(191,191,191)"  stroke="rgb(191,191,191)" stroke-width="1" font-size="16" >H</text>
<text x="305.360377" y="148.948740" fill="rgb(191,191,191)"  stroke="rgb(191,191,191)" stroke-width="1" font-size="16" >H</text>
<text x="263.387862" y="139.846675" fill="rgb(191,191,191)"  stroke="rgb(191,191,191)" stroke-width="1" font-size="16" >H</text>
</svg>
</g>
<text font-size="18.000000" fill ="black" font-family="sans-serif"
x="10.000000" y="20.000000" ></text>
</svg>
