<?xml version="1.0"?>
<svg version="1.1" id="topsvg"
xmlns="http://www.w3.org/2000/svg" xmlns:xlink="http://www.w3.org/1999/xlink"
xmlns:cml="http://www.xml-cml.org/schema" x="0" y="0" width="200px" height="200px" viewBox="0 0 100 100">
<title> - Open Babel Depiction</title>
<rect x="0" y="0" width="100" height="100" fill="white"/>
<g transform="translate(0,0)">
<svg width="100" height="100" x="0" y="0" viewBox="0 0 305.21 421.555"
font-family="sans-serif" stroke="rgb(0,0,0)" stroke-width="2"  stroke-linecap="round">
<line x1="157.3" y1="249.0" x2="170.9" y2="293.7" stroke="rgb(0,0,0)"  stroke-width="2.0"/>
<line x1="170.9" y1="293.7" x2="217.3" y2="303.0" stroke="rgb(0,0,0)"  stroke-width="2.0"/>
<line x1="155.1" y1="172.8" x2="170.2" y2="127.0" stroke="rgb(0,0,0)"  stroke-width="2.0"/>
<line x1="170.2" y1="127.0" x2="216.7" y2="117.9" stroke="rgb(0,0,0)"  stroke-width="2.0"/>
<line x1="231.7" y1="72.4" x2="216.7" y2="117.9" stroke="rgb(0,0,0)"  stroke-width="2.0"/>
<line x1="196.2" y1="210.0" x2="201.6" y2="209.9" stroke="rgb(0,0,0)"  stroke-width="2.0"/>
<line x1="217.3" y1="303.0" x2="231.9" y2="349.1" stroke="rgb(0,0,0)"  stroke-width="2.0"/>
<line x1="170.9" y1="293.7" x2="156.8" y2="309.4" stroke="rgb(0,0,0)"  stroke-width="2.0"/>
<line x1="170.9" y1="293.7" x2="177.5" y2="313.8" stroke="rgb(0,0,0)"  stroke-width="2.0"/>
<line x1="63.2" y1="234.5" x2="49.2" y2="248.6" stroke="rgb(0,0,0)"  stroke-width="2.0"/>
<line x1="63.2" y1="186.2" x2="49.2" y2="172.1" stroke="rgb(0,0,0)"  stroke-width="2.0"/>
<line x1="170.2" y1="127.0" x2="156.3" y2="111.2" stroke="rgb(0,0,0)"  stroke-width="2.0"/>
<line x1="170.2" y1="127.0" x2="177.0" y2="107.1" stroke="rgb(0,0,0)"  stroke-width="2.0"/>
<line x1="216.7" y1="117.9" x2="230.7" y2="133.7" stroke="rgb(0,0,0)"  stroke-width="2.0"/>
<line x1="216.7" y1="117.9" x2="237.4" y2="113.7" stroke="rgb(0,0,0)"  stroke-width="2.0"/>
<line x1="231.7" y1="72.4" x2="252.4" y2="68.1" stroke="rgb(0,0,0)"  stroke-width="2.0"/>
<line x1="231.7" y1="72.4" x2="217.7" y2="56.6" stroke="rgb(0,0,0)"  stroke-width="2.0"/>
<line x1="231.7" y1="72.4" x2="238.3" y2="52.3" stroke="rgb(0,0,0)"  stroke-width="2.0"/>
<line x1="217.3" y1="303.0" x2="231.3" y2="287.3" stroke="rgb(0,0,0)"  stroke-width="2.0"/>
<line x1="217.3" y1="303.0" x2="237.9" y2="307.4" stroke="rgb(0,0,0)"  stroke-width="2.0"/>
<line x1="231.9" y1="349.1" x2="217.7" y2="364.7" stroke="rgb(0,0,0)"  stroke-width="2.0"/>
<line x1="231.9" y1="349.1" x2="252.5" y2="353.6" stroke="rgb(0,0,0)"  stroke-width="2.0"/>
<line x1="231.9" y1="349.1" x2="238.3" y2="369.2" stroke="rgb(0,0,0)"  stroke-width="2.0"/>
<line x1="111.9" y1="186.8" x2="111.8" y2="234.1" stroke="rgb(0,0,0)"  stroke-width="2.0"/>
<line x1="111.8" y1="234.1" x2="157.3" y2="249.0" stroke="rgb(0,0,0)"  stroke-width="2.0"/>
<line x1="119.8" y1="229.2" x2="153.8" y2="240.3" stroke="rgb(0,0,0)"  stroke-width="2.0"/>
<line x1="157.3" y1="249.0" x2="176.0" y2="221.2" stroke="rgb(0,0,0)"  stroke-width="2.0"/>
<line x1="175.4" y1="200.0" x2="155.1" y2="172.8" stroke="rgb(0,0,0)"  stroke-width="2.0"/>
<line x1="155.1" y1="172.8" x2="111.9" y2="186.8" stroke="rgb(0,0,0)"  stroke-width="2.0"/>
<line x1="151.6" y1="181.5" x2="119.8" y2="191.8" stroke="rgb(0,0,0)"  stroke-width="2.0"/>
<line x1="63.2" y1="234.5" x2="111.8" y2="234.1" stroke="rgb(0,0,0)"  stroke-width="2.0"/>
<line x1="111.9" y1="186.8" x2="63.2" y2="186.2" stroke="rgb(0,0,0)"  stroke-width="2.0"/>
<line x1="63.2" y1="186.2" x2="63.2" y2="234.5" stroke="rgb(0,0,0)"  stroke-width="2.0"/>
<line x1="70.4" y1="192.2" x2="70.4" y2="228.5" stroke="rgb(0,0,0)"  stroke-width="2.0"/>
<text x="177.199869" y="218.369465" fill="rgb(12,12,255)"  stroke="rgb(12,12,255)" stroke-width="1" font-size="16" >N</text>
<text x="208.553137" y="217.553853" fill="rgb(191,191,191)"  stroke="rgb(191,191,191)" stroke-width="1" font-size="16" >H</text>
<text x="142.050096" y="327.020294" fill="rgb(191,191,191)"  stroke="rgb(191,191,191)" stroke-width="1" font-size="16" >H</text>
<text x="175.626251" y="334.114332" fill="rgb(191,191,191)"  stroke="rgb(191,191,191)" stroke-width="1" font-size="16" >H</text>
<text x="34.000000" y="265.843028" fill="rgb(191,191,191)"  stroke="rgb(191,191,191)" stroke-width="1" font-size="16" >H</text>
<text x="34.053378" y="170.843045" fill="rgb(191,191,191)"  stroke="rgb(191,191,191)" stroke-width="1" font-size="16" >H</text>
<text x="141.657631" y="109.452941" fill="rgb(191,191,191)"  stroke="rgb(191,191,191)" stroke-width="1" font-size="16" >H</text>
<text x="175.160037" y="102.752159" fill="rgb(191,191,191)"  stroke="rgb(191,191,191)" stroke-width="1" font-size="16" >H</text>
<text x="233.249204" y="151.482671" fill="rgb(191,191,191)"  stroke="rgb(191,191,191)" stroke-width="1" font-size="16" >H</text>
<text x="244.097740" y="119.077724" fill="rgb(191,191,191)"  stroke="rgb(191,191,191)" stroke-width="1" font-size="16" >H</text>
<text x="259.113119" y="73.440585" fill="rgb(191,191,191)"  stroke="rgb(191,191,191)" stroke-width="1" font-size="16" >H</text>
<text x="203.043594" y="54.931170" fill="rgb(191,191,191)"  stroke="rgb(191,191,191)" stroke-width="1" font-size="16" >H</text>
<text x="236.421565" y="48.000000" fill="rgb(191,191,191)"  stroke="rgb(191,191,191)" stroke-width="1" font-size="16" >H</text>
<text x="233.983315" y="285.568844" fill="rgb(191,191,191)"  stroke="rgb(191,191,191)" stroke-width="1" font-size="16" >H</text>
<text x="244.589038" y="318.115231" fill="rgb(191,191,191)"  stroke="rgb(191,191,191)" stroke-width="1" font-size="16" >H</text>
<text x="202.940463" y="382.257633" fill="rgb(191,191,191)"  stroke="rgb(191,191,191)" stroke-width="1" font-size="16" >H</text>
<text x="259.210119" y="364.365850" fill="rgb(191,191,191)"  stroke="rgb(191,191,191)" stroke-width="1" font-size="16" >H</text>
<text x="236.240203" y="389.555392" fill="rgb(191,191,191)"  stroke="rgb(191,191,191)" stroke-width="1" font-size="16" >H</text>
</svg>
</g>
<text font-size="18.000000" fill ="black" font-family="sans-serif"
x="10.000000" y="20.000000" ></text>
</svg>
