<?xml version="1.0"?>
<svg version="1.1" id="topsvg"
xmlns="http://www.w3.org/2000/svg" xmlns:xlink="http://www.w3.org/1999/xlink"
xmlns:cml="http://www.xml-cml.org/schema" x="0" y="0" width="200px" height="200px" viewBox="0 0 100 100">
<title> - Open Babel Depiction</title>
<rect x="0" y="0" width="100" height="100" fill="white"/>
<g transform="translate(0,0)">
<svg width="100" height="100" x="0" y="0" viewBox="0 0 531.286 486.17"
font-family="sans-serif" stroke="rgb(0,0,0)" stroke-width="2"  stroke-linecap="round">
<line x1="428.7" y1="367.2" x2="457.2" y2="406.1" stroke="rgb(0,0,0)"  stroke-width="2.0"/>
<line x1="428.7" y1="367.2" x2="414.2" y2="413.5" stroke="rgb(0,0,0)"  stroke-width="2.0"/>
<line x1="379.6" y1="366.1" x2="367.2" y2="383.4" stroke="rgb(0,0,0)"  stroke-width="2.0"/>
<line x1="379.6" y1="366.1" x2="358.5" y2="363.2" stroke="rgb(0,0,0)"  stroke-width="2.0"/>
<line x1="457.2" y1="406.1" x2="448.6" y2="425.6" stroke="rgb(0,0,0)"  stroke-width="2.0"/>
<line x1="457.2" y1="406.1" x2="478.4" y2="403.8" stroke="rgb(0,0,0)"  stroke-width="2.0"/>
<line x1="457.2" y1="406.1" x2="469.8" y2="423.3" stroke="rgb(0,0,0)"  stroke-width="2.0"/>
<line x1="414.2" y1="413.5" x2="393.4" y2="418.1" stroke="rgb(0,0,0)"  stroke-width="2.0"/>
<line x1="414.2" y1="413.5" x2="428.6" y2="429.1" stroke="rgb(0,0,0)"  stroke-width="2.0"/>
<line x1="414.2" y1="413.5" x2="407.9" y2="433.8" stroke="rgb(0,0,0)"  stroke-width="2.0"/>
<line x1="404.2" y1="242.5" x2="403.6" y2="291.7" stroke="rgb(0,0,0)"  stroke-width="2.0"/>
<line x1="362.2" y1="220.4" x2="320.5" y2="239.1" stroke="rgb(0,0,0)"  stroke-width="2.0"/>
<polygon points="362.178668 220.436845 357.234108 170.211036 365.232696 170.060725 " stroke-width="2.000000" fill="rgb(0,0,0)"  stroke="rgb(0,0,0)" />
<line x1="362.2" y1="220.4" x2="380.3" y2="209.3" stroke="rgb(0,0,0)"  stroke-width="2.0"/>
<line x1="320.5" y1="239.1" x2="320.5" y2="259.2" stroke="rgb(0,0,0)"  stroke-width="2.0"/>
<line x1="320.5" y1="147.0" x2="279.1" y2="172.4" stroke="rgb(0,0,0)"  stroke-width="2.0"/>
<line x1="279.1" y1="172.4" x2="279.2" y2="193.7" stroke="rgb(0,0,0)"  stroke-width="2.0"/>
<line x1="279.1" y1="172.4" x2="260.6" y2="183.0" stroke="rgb(0,0,0)"  stroke-width="2.0"/>
<line x1="168.7" y1="157.1" x2="195.9" y2="171.9" stroke="rgb(0,0,0)"  stroke-width="2.0"/>
<line x1="195.9" y1="171.9" x2="238.0" y2="148.0" stroke="rgb(0,0,0)"  stroke-width="2.0"/>
<line x1="195.9" y1="171.9" x2="196.0" y2="193.2" stroke="rgb(0,0,0)"  stroke-width="2.0"/>
<line x1="195.9" y1="171.9" x2="214.3" y2="182.6" stroke="rgb(0,0,0)"  stroke-width="2.0"/>
<line x1="238.0" y1="148.0" x2="279.1" y2="172.4" stroke="rgb(0,0,0)"  stroke-width="2.0"/>
<line x1="238.0" y1="148.0" x2="237.8" y2="169.3" stroke="rgb(0,0,0)"  stroke-width="2.0"/>
<line x1="246.0" y1="112.5" x2="238.0" y2="148.0" stroke="rgb(0,0,0)"  stroke-width="2.0"/>
<line x1="261.3" y1="96.0" x2="266.1" y2="94.4" stroke="rgb(0,0,0)"  stroke-width="2.0"/>
<line x1="322.1" y1="112.7" x2="323.5" y2="146.9" stroke="rgb(0,0,0)"  stroke-width="2.0"/>
<line x1="316.1" y1="112.9" x2="317.5" y2="147.1" stroke="rgb(0,0,0)"  stroke-width="2.0"/>
<polygon points="361.233402 170.135881 318.555432 150.471733 322.509558 143.517246 " stroke-width="2.000000" fill="rgb(0,0,0)"  stroke="rgb(0,0,0)" />
<line x1="361.2" y1="170.1" x2="362.2" y2="116.1" stroke="rgb(0,0,0)"  stroke-width="2.0"/>
<line x1="411.1" y1="109.9" x2="400.9" y2="93.9" stroke="rgb(0,0,0)"  stroke-width="2.0"/>
<line x1="412.1" y1="132.4" x2="403.3" y2="149.3" stroke="rgb(0,0,0)"  stroke-width="2.0"/>
<line x1="400.9" y1="93.9" x2="410.7" y2="75.0" stroke="rgb(0,0,0)"  stroke-width="2.0"/>
<line x1="400.9" y1="93.9" x2="379.6" y2="94.8" stroke="rgb(0,0,0)"  stroke-width="2.0"/>
<line x1="400.9" y1="93.9" x2="389.4" y2="75.9" stroke="rgb(0,0,0)"  stroke-width="2.0"/>
<line x1="445.7" y1="171.4" x2="462.9" y2="160.9" stroke="rgb(0,0,0)"  stroke-width="2.0"/>
<line x1="445.8" y1="221.0" x2="462.9" y2="231.4" stroke="rgb(0,0,0)"  stroke-width="2.0"/>
<line x1="70.9" y1="99.4" x2="112.4" y2="123.4" stroke="rgb(0,0,0)"  stroke-width="2.0"/>
<line x1="70.9" y1="99.4" x2="70.9" y2="78.1" stroke="rgb(0,0,0)"  stroke-width="2.0"/>
<line x1="70.9" y1="99.4" x2="52.5" y2="110.1" stroke="rgb(0,0,0)"  stroke-width="2.0"/>
<line x1="70.9" y1="99.4" x2="52.5" y2="88.8" stroke="rgb(0,0,0)"  stroke-width="2.0"/>
<line x1="112.4" y1="123.4" x2="146.2" y2="144.1" stroke="rgb(0,0,0)"  stroke-width="2.0"/>
<line x1="112.4" y1="123.4" x2="70.1" y2="149.4" stroke="rgb(0,0,0)"  stroke-width="2.0"/>
<line x1="113.7" y1="74.3" x2="112.4" y2="123.4" stroke="rgb(0,0,0)"  stroke-width="2.0"/>
<line x1="113.7" y1="74.3" x2="132.4" y2="64.1" stroke="rgb(0,0,0)"  stroke-width="2.0"/>
<line x1="113.7" y1="74.3" x2="95.5" y2="63.2" stroke="rgb(0,0,0)"  stroke-width="2.0"/>
<line x1="113.7" y1="74.3" x2="114.2" y2="53.0" stroke="rgb(0,0,0)"  stroke-width="2.0"/>
<line x1="70.1" y1="149.4" x2="51.4" y2="139.2" stroke="rgb(0,0,0)"  stroke-width="2.0"/>
<line x1="70.1" y1="149.4" x2="70.7" y2="170.6" stroke="rgb(0,0,0)"  stroke-width="2.0"/>
<line x1="70.1" y1="149.4" x2="52.0" y2="160.5" stroke="rgb(0,0,0)"  stroke-width="2.0"/>
<line x1="110.6" y1="171.7" x2="145.4" y2="156.2" stroke="rgb(0,0,0)"  stroke-width="2.0"/>
<line x1="110.6" y1="171.7" x2="93.3" y2="159.2" stroke="rgb(0,0,0)"  stroke-width="2.0"/>
<line x1="110.6" y1="171.7" x2="108.3" y2="192.9" stroke="rgb(0,0,0)"  stroke-width="2.0"/>
<line x1="110.6" y1="171.7" x2="91.1" y2="180.4" stroke="rgb(0,0,0)"  stroke-width="2.0"/>
<line x1="153.6" y1="98.8" x2="156.4" y2="138.0" stroke="rgb(0,0,0)"  stroke-width="2.0"/>
<line x1="153.6" y1="98.8" x2="171.2" y2="86.8" stroke="rgb(0,0,0)"  stroke-width="2.0"/>
<line x1="153.6" y1="98.8" x2="134.4" y2="89.5" stroke="rgb(0,0,0)"  stroke-width="2.0"/>
<line x1="153.6" y1="98.8" x2="152.1" y2="77.5" stroke="rgb(0,0,0)"  stroke-width="2.0"/>
<line x1="278.4" y1="217.1" x2="321.7" y2="236.4" stroke="rgb(0,0,0)"  stroke-width="2.0"/>
<line x1="275.9" y1="222.6" x2="319.3" y2="241.9" stroke="rgb(0,0,0)"  stroke-width="2.0"/>
<line x1="277.2" y1="219.9" x2="275.1" y2="199.9" stroke="rgb(0,0,0)"  stroke-width="2.0"/>
<line x1="277.2" y1="219.9" x2="260.9" y2="231.7" stroke="rgb(0,0,0)"  stroke-width="2.0"/>
<line x1="362.2" y1="116.1" x2="380.8" y2="105.8" stroke="rgb(0,0,0)"  stroke-width="2.0"/>
<line x1="362.2" y1="116.1" x2="344.0" y2="105.1" stroke="rgb(0,0,0)"  stroke-width="2.0"/>
<line x1="362.2" y1="116.1" x2="362.6" y2="94.8" stroke="rgb(0,0,0)"  stroke-width="2.0"/>
<line x1="379.6" y1="366.1" x2="367.7" y2="333.5" stroke="rgb(0,0,0)"  stroke-width="2.0"/>
<line x1="373.8" y1="313.5" x2="403.6" y2="291.7" stroke="rgb(0,0,0)"  stroke-width="2.0"/>
<line x1="403.6" y1="291.7" x2="428.6" y2="310.8" stroke="rgb(0,0,0)"  stroke-width="2.0"/>
<line x1="404.0" y1="301.0" x2="423.2" y2="315.7" stroke="rgb(0,0,0)"  stroke-width="2.0"/>
<line x1="437.7" y1="332.8" x2="428.7" y2="367.2" stroke="rgb(0,0,0)"  stroke-width="2.0"/>
<line x1="428.7" y1="367.2" x2="379.6" y2="366.1" stroke="rgb(0,0,0)"  stroke-width="2.0"/>
<line x1="361.2" y1="170.1" x2="362.2" y2="220.4" stroke="rgb(0,0,0)"  stroke-width="2.0"/>
<line x1="362.2" y1="220.4" x2="404.2" y2="242.5" stroke="rgb(0,0,0)"  stroke-width="2.0"/>
<line x1="404.2" y1="242.5" x2="445.8" y2="221.0" stroke="rgb(0,0,0)"  stroke-width="2.0"/>
<line x1="406.2" y1="233.3" x2="437.1" y2="217.4" stroke="rgb(0,0,0)"  stroke-width="2.0"/>
<line x1="445.8" y1="221.0" x2="445.7" y2="171.4" stroke="rgb(0,0,0)"  stroke-width="2.0"/>
<line x1="445.7" y1="171.4" x2="403.3" y2="149.3" stroke="rgb(0,0,0)"  stroke-width="2.0"/>
<line x1="437.1" y1="175.0" x2="405.3" y2="158.5" stroke="rgb(0,0,0)"  stroke-width="2.0"/>
<line x1="403.3" y1="149.3" x2="361.2" y2="170.1" stroke="rgb(0,0,0)"  stroke-width="2.0"/>
<text x="357.277740" y="329.237439" fill="rgb(255,12,12)"  stroke="rgb(255,12,12)" stroke-width="1" font-size="16" >O</text>
<text x="434.988211" y="328.173614" fill="rgb(12,12,255)"  stroke="rgb(12,12,255)" stroke-width="1" font-size="16" >N</text>
<text x="151.299490" y="158.919746" fill="rgb(127,153,153)"  stroke="rgb(127,153,153)" stroke-width="1" font-size="16" >Si</text>
<text x="242.846091" y="107.824118" fill="rgb(255,12,12)"  stroke="rgb(255,12,12)" stroke-width="1" font-size="16" >O</text>
<text x="312.571468" y="107.824118" fill="rgb(255,12,12)"  stroke="rgb(255,12,12)" stroke-width="1" font-size="16" >O</text>
<text x="412.099959" y="128.882720" fill="rgb(255,12,12)"  stroke="rgb(255,12,12)" stroke-width="1" font-size="16" >O</text>
<text x="272.517828" y="98.566920" fill="rgb(191,191,191)"  stroke="rgb(191,191,191)" stroke-width="1" font-size="16" >H</text>
<text x="353.653687" y="401.974850" fill="rgb(191,191,191)"  stroke="rgb(191,191,191)" stroke-width="1" font-size="16" >H</text>
<text x="339.657342" y="369.451294" fill="rgb(191,191,191)"  stroke="rgb(191,191,191)" stroke-width="1" font-size="16" >H</text>
<text x="437.372204" y="445.495534" fill="rgb(191,191,191)"  stroke="rgb(191,191,191)" stroke-width="1" font-size="16" >H</text>
<text x="485.285971" y="410.411749" fill="rgb(191,191,191)"  stroke="rgb(191,191,191)" stroke-width="1" font-size="16" >H</text>
<text x="471.456250" y="441.784965" fill="rgb(191,191,191)"  stroke="rgb(191,191,191)" stroke-width="1" font-size="16" >H</text>
<text x="374.760353" y="428.938961" fill="rgb(191,191,191)"  stroke="rgb(191,191,191)" stroke-width="1" font-size="16" >H</text>
<text x="431.434652" y="446.681122" fill="rgb(191,191,191)"  stroke="rgb(191,191,191)" stroke-width="1" font-size="16" >H</text>
<text x="397.975443" y="454.169550" fill="rgb(191,191,191)"  stroke="rgb(191,191,191)" stroke-width="1" font-size="16" >H</text>
<text x="385.353740" y="210.428728" fill="rgb(191,191,191)"  stroke="rgb(191,191,191)" stroke-width="1" font-size="16" >H</text>
<text x="314.554925" y="280.205374" fill="rgb(191,191,191)"  stroke="rgb(191,191,191)" stroke-width="1" font-size="16" >H</text>
<text x="273.309288" y="214.700048" fill="rgb(191,191,191)"  stroke="rgb(191,191,191)" stroke-width="1" font-size="16" >H</text>
<text x="243.329939" y="197.486595" fill="rgb(191,191,191)"  stroke="rgb(191,191,191)" stroke-width="1" font-size="16" >H</text>
<text x="190.145113" y="214.229017" fill="rgb(191,191,191)"  stroke="rgb(191,191,191)" stroke-width="1" font-size="16" >H</text>
<text x="219.557302" y="197.079650" fill="rgb(191,191,191)"  stroke="rgb(191,191,191)" stroke-width="1" font-size="16" >H</text>
<text x="231.666319" y="190.331413" fill="rgb(191,191,191)"  stroke="rgb(191,191,191)" stroke-width="1" font-size="16" >H</text>
<text x="410.674049" y="71.445799" fill="rgb(191,191,191)"  stroke="rgb(191,191,191)" stroke-width="1" font-size="16" >H</text>
<text x="360.613407" y="103.389379" fill="rgb(191,191,191)"  stroke="rgb(191,191,191)" stroke-width="1" font-size="16" >H</text>
<text x="376.420176" y="72.967837" fill="rgb(191,191,191)"  stroke="rgb(191,191,191)" stroke-width="1" font-size="16" >H</text>
<text x="467.982798" y="162.175306" fill="rgb(191,191,191)"  stroke="rgb(191,191,191)" stroke-width="1" font-size="16" >H</text>
<text x="468.014841" y="246.185414" fill="rgb(191,191,191)"  stroke="rgb(191,191,191)" stroke-width="1" font-size="16" >H</text>
<text x="64.959862" y="73.137665" fill="rgb(191,191,191)"  stroke="rgb(191,191,191)" stroke-width="1" font-size="16" >H</text>
<text x="35.224039" y="124.540905" fill="rgb(191,191,191)"  stroke="rgb(191,191,191)" stroke-width="1" font-size="16" >H</text>
<text x="35.252878" y="90.254989" fill="rgb(191,191,191)"  stroke="rgb(191,191,191)" stroke-width="1" font-size="16" >H</text>
<text x="137.770972" y="65.883149" fill="rgb(191,191,191)"  stroke="rgb(191,191,191)" stroke-width="1" font-size="16" >H</text>
<text x="78.405068" y="64.393154" fill="rgb(191,191,191)"  stroke="rgb(191,191,191)" stroke-width="1" font-size="16" >H</text>
<text x="108.515793" y="48.000000" fill="rgb(191,191,191)"  stroke="rgb(191,191,191)" stroke-width="1" font-size="16" >H</text>
<text x="34.000000" y="141.004554" fill="rgb(191,191,191)"  stroke="rgb(191,191,191)" stroke-width="1" font-size="16" >H</text>
<text x="65.043174" y="191.629151" fill="rgb(191,191,191)"  stroke="rgb(191,191,191)" stroke-width="1" font-size="16" >H</text>
<text x="34.906814" y="175.277653" fill="rgb(191,191,191)"  stroke="rgb(191,191,191)" stroke-width="1" font-size="16" >H</text>
<text x="76.831761" y="159.576626" fill="rgb(191,191,191)"  stroke="rgb(191,191,191)" stroke-width="1" font-size="16" >H</text>
<text x="100.988913" y="213.825277" fill="rgb(191,191,191)"  stroke="rgb(191,191,191)" stroke-width="1" font-size="16" >H</text>
<text x="73.249364" y="193.676693" fill="rgb(191,191,191)"  stroke="rgb(191,191,191)" stroke-width="1" font-size="16" >H</text>
<text x="175.969328" y="87.544158" fill="rgb(191,191,191)"  stroke="rgb(191,191,191)" stroke-width="1" font-size="16" >H</text>
<text x="116.734800" y="91.777027" fill="rgb(191,191,191)"  stroke="rgb(191,191,191)" stroke-width="1" font-size="16" >H</text>
<text x="145.128025" y="72.560892" fill="rgb(191,191,191)"  stroke="rgb(191,191,191)" stroke-width="1" font-size="16" >H</text>
<text x="267.682552" y="195.003270" fill="rgb(191,191,191)"  stroke="rgb(191,191,191)" stroke-width="1" font-size="16" >H</text>
<text x="244.429011" y="247.348572" fill="rgb(191,191,191)"  stroke="rgb(191,191,191)" stroke-width="1" font-size="16" >H</text>
<text x="386.212490" y="107.455624" fill="rgb(191,191,191)"  stroke="rgb(191,191,191)" stroke-width="1" font-size="16" >H</text>
<text x="326.836973" y="106.378982" fill="rgb(191,191,191)"  stroke="rgb(191,191,191)" stroke-width="1" font-size="16" >H</text>
<text x="356.835548" y="89.777549" fill="rgb(191,191,191)"  stroke="rgb(191,191,191)" stroke-width="1" font-size="16" >H</text>
</svg>
</g>
<text font-size="18.000000" fill ="black" font-family="sans-serif"
x="10.000000" y="20.000000" ></text>
</svg>
