<?xml version="1.0"?>
<svg version="1.1" id="topsvg"
xmlns="http://www.w3.org/2000/svg" xmlns:xlink="http://www.w3.org/1999/xlink"
xmlns:cml="http://www.xml-cml.org/schema" x="0" y="0" width="200px" height="200px" viewBox="0 0 100 100">
<title> - Open Babel Depiction</title>
<rect x="0" y="0" width="100" height="100" fill="white"/>
<g transform="translate(0,0)">
<svg width="100" height="100" x="0" y="0" viewBox="0 0 389.976 334.879"
font-family="sans-serif" stroke="rgb(0,0,0)" stroke-width="2"  stroke-linecap="round">
<line x1="208.3" y1="249.5" x2="226.8" y2="248.9" stroke="rgb(0,0,0)"  stroke-width="2.0"/>
<line x1="233.4" y1="222.9" x2="229.0" y2="262.6" stroke="rgb(0,0,0)"  stroke-width="2.0"/>
<line x1="237.6" y1="223.4" x2="233.1" y2="263.1" stroke="rgb(0,0,0)"  stroke-width="2.0"/>
<line x1="229.3" y1="222.5" x2="224.8" y2="262.2" stroke="rgb(0,0,0)"  stroke-width="2.0"/>
<line x1="112.5" y1="205.0" x2="71.2" y2="178.0" stroke="rgb(0,0,0)"  stroke-width="2.0"/>
<line x1="154.9" y1="179.6" x2="112.5" y2="205.0" stroke="rgb(0,0,0)"  stroke-width="2.0"/>
<line x1="237.8" y1="141.2" x2="236.2" y2="141.2" stroke="rgb(0,0,0)"  stroke-width="1.0"/>
<line x1="238.5" y1="148.6" x2="235.6" y2="148.6" stroke="rgb(0,0,0)"  stroke-width="1.0"/>
<line x1="239.1" y1="156.0" x2="235.0" y2="156.0" stroke="rgb(0,0,0)"  stroke-width="1.0"/>
<line x1="239.8" y1="163.4" x2="234.4" y2="163.4" stroke="rgb(0,0,0)"  stroke-width="1.0"/>
<line x1="240.5" y1="170.8" x2="233.8" y2="170.8" stroke="rgb(0,0,0)"  stroke-width="1.0"/>
<line x1="241.1" y1="178.2" x2="233.1" y2="178.2" stroke="rgb(0,0,0)"  stroke-width="1.0"/>
<line x1="237.0" y1="132.0" x2="237.7" y2="74.9" stroke="rgb(0,0,0)"  stroke-width="2.0"/>
<line x1="277.9" y1="108.2" x2="287.0" y2="72.0" stroke="rgb(0,0,0)"  stroke-width="2.0"/>
<line x1="270.1" y1="113.6" x2="269.3" y2="112.2" stroke="rgb(0,0,0)"  stroke-width="1.0"/>
<line x1="263.9" y1="118.0" x2="262.5" y2="115.5" stroke="rgb(0,0,0)"  stroke-width="1.0"/>
<line x1="257.7" y1="122.3" x2="255.6" y2="118.7" stroke="rgb(0,0,0)"  stroke-width="1.0"/>
<line x1="251.4" y1="126.7" x2="248.7" y2="122.0" stroke="rgb(0,0,0)"  stroke-width="1.0"/>
<line x1="245.2" y1="131.1" x2="241.8" y2="125.3" stroke="rgb(0,0,0)"  stroke-width="1.0"/>
<line x1="239.0" y1="135.4" x2="235.0" y2="128.5" stroke="rgb(0,0,0)"  stroke-width="1.0"/>
<line x1="284.0" y1="201.1" x2="284.7" y2="252.0" stroke="rgb(0,0,0)"  stroke-width="2.0"/>
<line x1="278.0" y1="201.2" x2="278.7" y2="252.1" stroke="rgb(0,0,0)"  stroke-width="2.0"/>
<line x1="237.1" y1="178.2" x2="233.4" y2="222.9" stroke="rgb(0,0,0)"  stroke-width="2.0"/>
<polygon points="237.141998 178.190155 197.563311 204.844069 193.666611 197.857244 " stroke-width="2.000000" fill="rgb(0,0,0)"  stroke="rgb(0,0,0)" />
<line x1="163.4" y1="183.3" x2="162.7" y2="184.7" stroke="rgb(0,0,0)"  stroke-width="1.0"/>
<line x1="170.2" y1="186.2" x2="168.9" y2="188.7" stroke="rgb(0,0,0)"  stroke-width="1.0"/>
<line x1="177.1" y1="189.1" x2="175.1" y2="192.8" stroke="rgb(0,0,0)"  stroke-width="1.0"/>
<line x1="183.9" y1="192.0" x2="181.3" y2="196.8" stroke="rgb(0,0,0)"  stroke-width="1.0"/>
<line x1="190.7" y1="194.9" x2="187.5" y2="200.8" stroke="rgb(0,0,0)"  stroke-width="1.0"/>
<line x1="197.5" y1="197.8" x2="193.7" y2="204.9" stroke="rgb(0,0,0)"  stroke-width="1.0"/>
<line x1="195.6" y1="201.4" x2="195.4" y2="236.9" stroke="rgb(0,0,0)"  stroke-width="2.0"/>
<line x1="113.0" y1="252.3" x2="112.5" y2="205.0" stroke="rgb(0,0,0)"  stroke-width="2.0"/>
<line x1="302.6" y1="55.8" x2="308.1" y2="54.2" stroke="rgb(0,0,0)"  stroke-width="2.0"/>
<line x1="226.8" y1="248.9" x2="238.3" y2="267.5" stroke="rgb(0,0,0)"  stroke-width="2.0"/>
<line x1="226.8" y1="248.9" x2="237.1" y2="229.6" stroke="rgb(0,0,0)"  stroke-width="2.0"/>
<line x1="226.8" y1="248.9" x2="248.7" y2="248.2" stroke="rgb(0,0,0)"  stroke-width="2.0"/>
<line x1="229.0" y1="262.6" x2="226.8" y2="282.0" stroke="rgb(0,0,0)"  stroke-width="2.0"/>
<line x1="112.5" y1="205.0" x2="131.6" y2="215.7" stroke="rgb(0,0,0)"  stroke-width="2.0"/>
<line x1="71.2" y1="178.0" x2="72.4" y2="156.1" stroke="rgb(0,0,0)"  stroke-width="2.0"/>
<line x1="71.2" y1="178.0" x2="51.6" y2="187.9" stroke="rgb(0,0,0)"  stroke-width="2.0"/>
<line x1="71.2" y1="178.0" x2="52.8" y2="166.0" stroke="rgb(0,0,0)"  stroke-width="2.0"/>
<line x1="154.9" y1="179.6" x2="135.7" y2="169.0" stroke="rgb(0,0,0)"  stroke-width="2.0"/>
<line x1="153.9" y1="130.7" x2="135.1" y2="119.5" stroke="rgb(0,0,0)"  stroke-width="2.0"/>
<line x1="153.9" y1="130.7" x2="154.5" y2="108.7" stroke="rgb(0,0,0)"  stroke-width="2.0"/>
<line x1="198.0" y1="107.8" x2="198.9" y2="85.9" stroke="rgb(0,0,0)"  stroke-width="2.0"/>
<line x1="198.0" y1="107.8" x2="217.4" y2="97.5" stroke="rgb(0,0,0)"  stroke-width="2.0"/>
<line x1="277.9" y1="108.2" x2="278.2" y2="130.1" stroke="rgb(0,0,0)"  stroke-width="2.0"/>
<line x1="319.7" y1="130.9" x2="338.6" y2="119.8" stroke="rgb(0,0,0)"  stroke-width="2.0"/>
<line x1="319.7" y1="130.9" x2="338.7" y2="141.8" stroke="rgb(0,0,0)"  stroke-width="2.0"/>
<line x1="319.3" y1="179.0" x2="338.2" y2="190.0" stroke="rgb(0,0,0)"  stroke-width="2.0"/>
<line x1="319.3" y1="179.0" x2="319.3" y2="200.9" stroke="rgb(0,0,0)"  stroke-width="2.0"/>
<line x1="281.7" y1="252.0" x2="263.9" y2="262.6" stroke="rgb(0,0,0)"  stroke-width="2.0"/>
<line x1="281.7" y1="252.0" x2="299.8" y2="262.1" stroke="rgb(0,0,0)"  stroke-width="2.0"/>
<polygon points="195.614961 201.350656 191.402092 177.992582 199.401760 177.919735 " stroke-width="2.000000" fill="rgb(0,0,0)"  stroke="rgb(0,0,0)" />
<line x1="113.0" y1="252.3" x2="94.1" y2="263.4" stroke="rgb(0,0,0)"  stroke-width="2.0"/>
<line x1="113.0" y1="252.3" x2="132.1" y2="263.0" stroke="rgb(0,0,0)"  stroke-width="2.0"/>
<line x1="113.0" y1="252.3" x2="113.2" y2="274.2" stroke="rgb(0,0,0)"  stroke-width="2.0"/>
<line x1="237.7" y1="74.9" x2="256.8" y2="64.2" stroke="rgb(0,0,0)"  stroke-width="2.0"/>
<line x1="237.7" y1="74.9" x2="218.8" y2="63.7" stroke="rgb(0,0,0)"  stroke-width="2.0"/>
<line x1="237.7" y1="74.9" x2="238.0" y2="53.0" stroke="rgb(0,0,0)"  stroke-width="2.0"/>
<line x1="154.9" y1="179.6" x2="195.6" y2="201.4" stroke="rgb(0,0,0)"  stroke-width="2.0"/>
<line x1="195.6" y1="201.4" x2="237.1" y2="178.2" stroke="rgb(0,0,0)"  stroke-width="2.0"/>
<line x1="237.1" y1="178.2" x2="237.0" y2="132.0" stroke="rgb(0,0,0)"  stroke-width="2.0"/>
<line x1="237.0" y1="132.0" x2="198.0" y2="107.8" stroke="rgb(0,0,0)"  stroke-width="2.0"/>
<line x1="198.0" y1="107.8" x2="153.9" y2="130.7" stroke="rgb(0,0,0)"  stroke-width="2.0"/>
<line x1="153.9" y1="130.7" x2="154.9" y2="179.6" stroke="rgb(0,0,0)"  stroke-width="2.0"/>
<line x1="237.1" y1="178.2" x2="281.0" y2="201.2" stroke="rgb(0,0,0)"  stroke-width="2.0"/>
<line x1="281.0" y1="201.2" x2="319.3" y2="179.0" stroke="rgb(0,0,0)"  stroke-width="2.0"/>
<line x1="319.3" y1="179.0" x2="319.7" y2="130.9" stroke="rgb(0,0,0)"  stroke-width="2.0"/>
<line x1="319.7" y1="130.9" x2="277.9" y2="108.2" stroke="rgb(0,0,0)"  stroke-width="2.0"/>
<line x1="277.9" y1="108.2" x2="237.0" y2="132.0" stroke="rgb(0,0,0)"  stroke-width="2.0"/>
<text x="189.272302" y="257.887523" fill="rgb(255,12,12)"  stroke="rgb(255,12,12)" stroke-width="1" font-size="16" >O</text>
<text x="284.146489" y="67.346137" fill="rgb(255,12,12)"  stroke="rgb(255,12,12)" stroke-width="1" font-size="16" >O</text>
<text x="314.584420" y="58.652383" fill="rgb(191,191,191)"  stroke="rgb(191,191,191)" stroke-width="1" font-size="16" >H</text>
<text x="239.170217" y="286.565942" fill="rgb(191,191,191)"  stroke="rgb(191,191,191)" stroke-width="1" font-size="16" >H</text>
<text x="237.259601" y="226.115323" fill="rgb(191,191,191)"  stroke="rgb(191,191,191)" stroke-width="1" font-size="16" >H</text>
<text x="255.665499" y="255.789085" fill="rgb(191,191,191)"  stroke="rgb(191,191,191)" stroke-width="1" font-size="16" >H</text>
<text x="219.341363" y="302.879009" fill="rgb(191,191,191)"  stroke="rgb(191,191,191)" stroke-width="1" font-size="16" >H</text>
<text x="136.922970" y="230.083682" fill="rgb(191,191,191)"  stroke="rgb(191,191,191)" stroke-width="1" font-size="16" >H</text>
<text x="67.116401" y="151.139951" fill="rgb(191,191,191)"  stroke="rgb(191,191,191)" stroke-width="1" font-size="16" >H</text>
<text x="34.000000" y="201.748565" fill="rgb(191,191,191)"  stroke="rgb(191,191,191)" stroke-width="1" font-size="16" >H</text>
<text x="35.948752" y="166.884376" fill="rgb(191,191,191)"  stroke="rgb(191,191,191)" stroke-width="1" font-size="16" >H</text>
<text x="118.369567" y="170.705491" fill="rgb(191,191,191)"  stroke="rgb(191,191,191)" stroke-width="1" font-size="16" >H</text>
<text x="117.893354" y="120.822259" fill="rgb(191,191,191)"  stroke="rgb(191,191,191)" stroke-width="1" font-size="16" >H</text>
<text x="148.922625" y="103.751092" fill="rgb(191,191,191)"  stroke="rgb(191,191,191)" stroke-width="1" font-size="16" >H</text>
<text x="193.385861" y="80.892830" fill="rgb(191,191,191)"  stroke="rgb(191,191,191)" stroke-width="1" font-size="16" >H</text>
<text x="222.872571" y="99.413221" fill="rgb(191,191,191)"  stroke="rgb(191,191,191)" stroke-width="1" font-size="16" >H</text>
<text x="272.436547" y="151.068729" fill="rgb(191,191,191)"  stroke="rgb(191,191,191)" stroke-width="1" font-size="16" >H</text>
<text x="343.840944" y="121.168689" fill="rgb(191,191,191)"  stroke="rgb(191,191,191)" stroke-width="1" font-size="16" >H</text>
<text x="343.976445" y="156.353129" fill="rgb(191,191,191)"  stroke="rgb(191,191,191)" stroke-width="1" font-size="16" >H</text>
<text x="343.468557" y="204.542058" fill="rgb(191,191,191)"  stroke="rgb(191,191,191)" stroke-width="1" font-size="16" >H</text>
<text x="313.257891" y="221.885438" fill="rgb(191,191,191)"  stroke="rgb(191,191,191)" stroke-width="1" font-size="16" >H</text>
<text x="246.773744" y="277.288701" fill="rgb(191,191,191)"  stroke="rgb(191,191,191)" stroke-width="1" font-size="16" >H</text>
<text x="305.100876" y="276.469247" fill="rgb(191,191,191)"  stroke="rgb(191,191,191)" stroke-width="1" font-size="16" >H</text>
<text x="189.296999" y="174.433495" fill="rgb(191,191,191)"  stroke="rgb(191,191,191)" stroke-width="1" font-size="16" >H</text>
<text x="76.905993" y="278.059505" fill="rgb(191,191,191)"  stroke="rgb(191,191,191)" stroke-width="1" font-size="16" >H</text>
<text x="137.383379" y="277.416351" fill="rgb(191,191,191)"  stroke="rgb(191,191,191)" stroke-width="1" font-size="16" >H</text>
<text x="107.330349" y="295.196246" fill="rgb(191,191,191)"  stroke="rgb(191,191,191)" stroke-width="1" font-size="16" >H</text>
<text x="262.138440" y="65.833191" fill="rgb(191,191,191)"  stroke="rgb(191,191,191)" stroke-width="1" font-size="16" >H</text>
<text x="201.662291" y="65.082730" fill="rgb(191,191,191)"  stroke="rgb(191,191,191)" stroke-width="1" font-size="16" >H</text>
<text x="232.117006" y="48.000000" fill="rgb(191,191,191)"  stroke="rgb(191,191,191)" stroke-width="1" font-size="16" >H</text>
</svg>
</g>
<text font-size="18.000000" fill ="black" font-family="sans-serif"
x="10.000000" y="20.000000" ></text>
</svg>
