<?xml version="1.0"?>
<svg version="1.1" id="topsvg"
xmlns="http://www.w3.org/2000/svg" xmlns:xlink="http://www.w3.org/1999/xlink"
xmlns:cml="http://www.xml-cml.org/schema" x="0" y="0" width="200px" height="200px" viewBox="0 0 100 100">
<title> - Open Babel Depiction</title>
<rect x="0" y="0" width="100" height="100" fill="white"/>
<g transform="translate(0,0)">
<svg width="100" height="100" x="0" y="0" viewBox="0 0 339.79 453.467"
font-family="sans-serif" stroke="rgb(0,0,0)" stroke-width="2"  stroke-linecap="round">
<line x1="204.3" y1="336.8" x2="159.3" y2="347.3" stroke="rgb(0,0,0)"  stroke-width="2.0"/>
<line x1="204.3" y1="336.8" x2="193.0" y2="381.2" stroke="rgb(0,0,0)"  stroke-width="2.0"/>
<line x1="230.5" y1="262.5" x2="230.4" y2="215.4" stroke="rgb(0,0,0)"  stroke-width="2.0"/>
<line x1="190.5" y1="192.2" x2="158.9" y2="215.6" stroke="rgb(0,0,0)"  stroke-width="2.0"/>
<polygon points="190.513518 192.218933 187.092511 146.076741 195.091881 146.177171 " stroke-width="2.000000" fill="rgb(0,0,0)"  stroke="rgb(0,0,0)" />
<line x1="191.1" y1="146.1" x2="151.7" y2="121.9" stroke="rgb(0,0,0)"  stroke-width="2.0"/>
<line x1="238.1" y1="84.8" x2="228.4" y2="69.5" stroke="rgb(0,0,0)"  stroke-width="2.0"/>
<line x1="239.0" y1="107.3" x2="230.7" y2="123.4" stroke="rgb(0,0,0)"  stroke-width="2.0"/>
<line x1="69.4" y1="118.7" x2="110.0" y2="142.4" stroke="rgb(0,0,0)"  stroke-width="2.0"/>
<line x1="66.4" y1="123.9" x2="106.9" y2="147.6" stroke="rgb(0,0,0)"  stroke-width="2.0"/>
<line x1="108.4" y1="145.0" x2="151.7" y2="121.9" stroke="rgb(0,0,0)"  stroke-width="2.0"/>
<line x1="107.7" y1="191.1" x2="139.5" y2="213.4" stroke="rgb(0,0,0)"  stroke-width="2.0"/>
<line x1="104.3" y1="196.0" x2="136.1" y2="218.3" stroke="rgb(0,0,0)"  stroke-width="2.0"/>
<line x1="159.3" y1="347.3" x2="145.5" y2="332.5" stroke="rgb(0,0,0)"  stroke-width="2.0"/>
<line x1="159.3" y1="347.3" x2="153.4" y2="366.7" stroke="rgb(0,0,0)"  stroke-width="2.0"/>
<line x1="159.3" y1="347.3" x2="139.6" y2="351.9" stroke="rgb(0,0,0)"  stroke-width="2.0"/>
<line x1="253.6" y1="335.7" x2="265.8" y2="351.9" stroke="rgb(0,0,0)"  stroke-width="2.0"/>
<line x1="253.6" y1="335.7" x2="244.7" y2="353.9" stroke="rgb(0,0,0)"  stroke-width="2.0"/>
<line x1="190.5" y1="192.2" x2="172.5" y2="183.0" stroke="rgb(0,0,0)"  stroke-width="2.0"/>
<polygon points="191.092196 146.126956 173.488795 160.395367 169.627538 153.388892 " stroke-width="2.000000" fill="rgb(0,0,0)"  stroke="rgb(0,0,0)" />
<line x1="228.4" y1="69.5" x2="237.8" y2="51.5" stroke="rgb(0,0,0)"  stroke-width="2.0"/>
<line x1="228.4" y1="69.5" x2="208.1" y2="70.4" stroke="rgb(0,0,0)"  stroke-width="2.0"/>
<line x1="228.4" y1="69.5" x2="217.5" y2="52.4" stroke="rgb(0,0,0)"  stroke-width="2.0"/>
<line x1="272.3" y1="144.9" x2="288.7" y2="135.0" stroke="rgb(0,0,0)"  stroke-width="2.0"/>
<line x1="272.1" y1="193.5" x2="288.5" y2="203.4" stroke="rgb(0,0,0)"  stroke-width="2.0"/>
<line x1="67.9" y1="121.3" x2="68.0" y2="102.2" stroke="rgb(0,0,0)"  stroke-width="2.0"/>
<line x1="67.9" y1="121.3" x2="51.3" y2="130.8" stroke="rgb(0,0,0)"  stroke-width="2.0"/>
<line x1="108.4" y1="145.0" x2="108.1" y2="164.1" stroke="rgb(0,0,0)"  stroke-width="2.0"/>
<line x1="151.7" y1="121.9" x2="152.3" y2="101.7" stroke="rgb(0,0,0)"  stroke-width="2.0"/>
<line x1="151.7" y1="121.9" x2="134.5" y2="111.2" stroke="rgb(0,0,0)"  stroke-width="2.0"/>
<line x1="193.0" y1="381.2" x2="173.5" y2="386.7" stroke="rgb(0,0,0)"  stroke-width="2.0"/>
<line x1="193.0" y1="381.2" x2="207.5" y2="395.4" stroke="rgb(0,0,0)"  stroke-width="2.0"/>
<line x1="193.0" y1="381.2" x2="188.0" y2="400.9" stroke="rgb(0,0,0)"  stroke-width="2.0"/>
<line x1="203.9" y1="281.5" x2="230.5" y2="262.5" stroke="rgb(0,0,0)"  stroke-width="2.0"/>
<line x1="208.9" y1="286.7" x2="229.8" y2="271.8" stroke="rgb(0,0,0)"  stroke-width="2.0"/>
<line x1="230.5" y1="262.5" x2="257.3" y2="284.2" stroke="rgb(0,0,0)"  stroke-width="2.0"/>
<line x1="263.4" y1="304.8" x2="253.6" y2="335.7" stroke="rgb(0,0,0)"  stroke-width="2.0"/>
<line x1="253.6" y1="335.7" x2="204.3" y2="336.8" stroke="rgb(0,0,0)"  stroke-width="2.0"/>
<line x1="204.3" y1="336.8" x2="194.4" y2="303.4" stroke="rgb(0,0,0)"  stroke-width="2.0"/>
<line x1="191.1" y1="146.1" x2="190.5" y2="192.2" stroke="rgb(0,0,0)"  stroke-width="2.0"/>
<line x1="190.5" y1="192.2" x2="230.4" y2="215.4" stroke="rgb(0,0,0)"  stroke-width="2.0"/>
<line x1="230.4" y1="215.4" x2="272.1" y2="193.5" stroke="rgb(0,0,0)"  stroke-width="2.0"/>
<line x1="232.4" y1="206.3" x2="263.5" y2="189.9" stroke="rgb(0,0,0)"  stroke-width="2.0"/>
<line x1="272.1" y1="193.5" x2="272.3" y2="144.9" stroke="rgb(0,0,0)"  stroke-width="2.0"/>
<line x1="272.3" y1="144.9" x2="230.7" y2="123.4" stroke="rgb(0,0,0)"  stroke-width="2.0"/>
<line x1="263.7" y1="148.5" x2="232.7" y2="132.5" stroke="rgb(0,0,0)"  stroke-width="2.0"/>
<line x1="230.7" y1="123.4" x2="191.1" y2="146.1" stroke="rgb(0,0,0)"  stroke-width="2.0"/>
<text x="184.715744" y="298.886563" fill="rgb(12,12,255)"  stroke="rgb(12,12,255)" stroke-width="1" font-size="16" >N</text>
<text x="261.343850" y="300.451482" fill="rgb(255,12,12)"  stroke="rgb(255,12,12)" stroke-width="1" font-size="16" >O</text>
<text x="136.462951" y="231.283960" fill="rgb(17,127,178)"  stroke="rgb(17,127,178)" stroke-width="1" font-size="16" >Xx</text>
<text x="239.058543" y="103.766455" fill="rgb(255,12,12)"  stroke="rgb(255,12,12)" stroke-width="1" font-size="16" >O</text>
<text x="89.324175" y="194.111707" fill="rgb(178,178,0)"  stroke="rgb(178,178,0)" stroke-width="1" font-size="16" >S</text>
<text x="130.570833" y="330.998430" fill="rgb(191,191,191)"  stroke="rgb(191,191,191)" stroke-width="1" font-size="16" >H</text>
<text x="143.656354" y="387.153077" fill="rgb(191,191,191)"  stroke="rgb(191,191,191)" stroke-width="1" font-size="16" >H</text>
<text x="120.903143" y="362.853219" fill="rgb(191,191,191)"  stroke="rgb(191,191,191)" stroke-width="1" font-size="16" >H</text>
<text x="267.569351" y="370.289421" fill="rgb(191,191,191)"  stroke="rgb(191,191,191)" stroke-width="1" font-size="16" >H</text>
<text x="233.064871" y="373.600954" fill="rgb(191,191,191)"  stroke="rgb(191,191,191)" stroke-width="1" font-size="16" >H</text>
<text x="154.887243" y="185.037511" fill="rgb(191,191,191)"  stroke="rgb(191,191,191)" stroke-width="1" font-size="16" >H</text>
<text x="155.936928" y="170.194379" fill="rgb(191,191,191)"  stroke="rgb(191,191,191)" stroke-width="1" font-size="16" >H</text>
<text x="237.764896" y="48.000000" fill="rgb(191,191,191)"  stroke="rgb(191,191,191)" stroke-width="1" font-size="16" >H</text>
<text x="189.108004" y="78.936742" fill="rgb(191,191,191)"  stroke="rgb(191,191,191)" stroke-width="1" font-size="16" >H</text>
<text x="204.505782" y="49.422336" fill="rgb(191,191,191)"  stroke="rgb(191,191,191)" stroke-width="1" font-size="16" >H</text>
<text x="293.790160" y="136.228481" fill="rgb(191,191,191)"  stroke="rgb(191,191,191)" stroke-width="1" font-size="16" >H</text>
<text x="293.583879" y="218.187239" fill="rgb(191,191,191)"  stroke="rgb(191,191,191)" stroke-width="1" font-size="16" >H</text>
<text x="62.058996" y="97.227222" fill="rgb(191,191,191)"  stroke="rgb(191,191,191)" stroke-width="1" font-size="16" >H</text>
<text x="34.000000" y="145.241001" fill="rgb(191,191,191)"  stroke="rgb(191,191,191)" stroke-width="1" font-size="16" >H</text>
<text x="101.818796" y="185.133067" fill="rgb(191,191,191)"  stroke="rgb(191,191,191)" stroke-width="1" font-size="16" >H</text>
<text x="146.731456" y="96.666569" fill="rgb(191,191,191)"  stroke="rgb(191,191,191)" stroke-width="1" font-size="16" >H</text>
<text x="117.436876" y="112.384042" fill="rgb(191,191,191)"  stroke="rgb(191,191,191)" stroke-width="1" font-size="16" >H</text>
<text x="154.954690" y="398.233286" fill="rgb(191,191,191)"  stroke="rgb(191,191,191)" stroke-width="1" font-size="16" >H</text>
<text x="210.836754" y="412.437868" fill="rgb(191,191,191)"  stroke="rgb(191,191,191)" stroke-width="1" font-size="16" >H</text>
<text x="178.795212" y="421.467340" fill="rgb(191,191,191)"  stroke="rgb(191,191,191)" stroke-width="1" font-size="16" >H</text>
</svg>
</g>
<text font-size="18.000000" fill ="black" font-family="sans-serif"
x="10.000000" y="20.000000" ></text>
</svg>
