<?xml version="1.0"?>
<svg version="1.1" id="topsvg"
xmlns="http://www.w3.org/2000/svg" xmlns:xlink="http://www.w3.org/1999/xlink"
xmlns:cml="http://www.xml-cml.org/schema" x="0" y="0" width="200px" height="200px" viewBox="0 0 100 100">
<title> - Open Babel Depiction</title>
<rect x="0" y="0" width="100" height="100" fill="white"/>
<g transform="translate(0,0)">
<svg width="100" height="100" x="0" y="0" viewBox="0 0 216.683 253.372"
font-family="sans-serif" stroke="rgb(0,0,0)" stroke-width="2"  stroke-linecap="round">
<line x1="111.0" y1="53.0" x2="111.3" y2="87.9" stroke="rgb(0,0,0)"  stroke-width="2.0"/>
<line x1="105.0" y1="53.0" x2="105.3" y2="88.0" stroke="rgb(0,0,0)"  stroke-width="2.0"/>
<line x1="67.1" y1="157.8" x2="51.3" y2="166.9" stroke="rgb(0,0,0)"  stroke-width="2.0"/>
<line x1="67.8" y1="110.3" x2="52.1" y2="100.8" stroke="rgb(0,0,0)"  stroke-width="2.0"/>
<line x1="148.8" y1="110.4" x2="164.5" y2="100.9" stroke="rgb(0,0,0)"  stroke-width="2.0"/>
<line x1="149.5" y1="157.7" x2="165.4" y2="166.8" stroke="rgb(0,0,0)"  stroke-width="2.0"/>
<line x1="108.3" y1="180.9" x2="108.2" y2="200.4" stroke="rgb(0,0,0)"  stroke-width="2.0"/>
<line x1="108.3" y1="180.9" x2="91.5" y2="190.7" stroke="rgb(0,0,0)"  stroke-width="2.0"/>
<line x1="67.8" y1="110.3" x2="108.3" y2="87.9" stroke="rgb(0,0,0)"  stroke-width="2.0"/>
<line x1="108.3" y1="87.9" x2="148.8" y2="110.4" stroke="rgb(0,0,0)"  stroke-width="2.0"/>
<line x1="148.8" y1="110.4" x2="149.5" y2="157.7" stroke="rgb(0,0,0)"  stroke-width="2.0"/>
<line x1="141.7" y1="116.5" x2="142.2" y2="151.8" stroke="rgb(0,0,0)"  stroke-width="2.0"/>
<line x1="149.5" y1="157.7" x2="108.3" y2="180.9" stroke="rgb(0,0,0)"  stroke-width="2.0"/>
<line x1="108.3" y1="180.9" x2="67.1" y2="157.8" stroke="rgb(0,0,0)"  stroke-width="2.0"/>
<line x1="67.1" y1="157.8" x2="67.8" y2="110.3" stroke="rgb(0,0,0)"  stroke-width="2.0"/>
<line x1="74.4" y1="151.9" x2="74.9" y2="116.4" stroke="rgb(0,0,0)"  stroke-width="2.0"/>
<text x="89.949716" y="48.000000" fill="rgb(17,127,178)"  stroke="rgb(17,127,178)" stroke-width="1" font-size="16" >Xx</text>
<text x="34.000000" y="181.362870" fill="rgb(191,191,191)"  stroke="rgb(191,191,191)" stroke-width="1" font-size="16" >H</text>
<text x="34.977442" y="102.149025" fill="rgb(191,191,191)"  stroke="rgb(191,191,191)" stroke-width="1" font-size="16" >H</text>
<text x="169.642981" y="102.254662" fill="rgb(191,191,191)"  stroke="rgb(191,191,191)" stroke-width="1" font-size="16" >H</text>
<text x="170.682848" y="181.310636" fill="rgb(191,191,191)"  stroke="rgb(191,191,191)" stroke-width="1" font-size="16" >H</text>
<text x="102.241608" y="221.371517" fill="rgb(191,191,191)"  stroke="rgb(191,191,191)" stroke-width="1" font-size="16" >H</text>
<text x="74.232269" y="205.287793" fill="rgb(191,191,191)"  stroke="rgb(191,191,191)" stroke-width="1" font-size="16" >H</text>
</svg>
</g>
<text font-size="18.000000" fill ="black" font-family="sans-serif"
x="10.000000" y="20.000000" ></text>
</svg>
