<?xml version="1.0"?>
<svg version="1.1" id="topsvg"
xmlns="http://www.w3.org/2000/svg" xmlns:xlink="http://www.w3.org/1999/xlink"
xmlns:cml="http://www.xml-cml.org/schema" x="0" y="0" width="200px" height="200px" viewBox="0 0 100 100">
<title> - Open Babel Depiction</title>
<rect x="0" y="0" width="100" height="100" fill="white"/>
<g transform="translate(0,0)">
<svg width="100" height="100" x="0" y="0" viewBox="0 0 388.051 327.23"
font-family="sans-serif" stroke="rgb(0,0,0)" stroke-width="2"  stroke-linecap="round">
<line x1="276.5" y1="234.7" x2="316.1" y2="251.4" stroke="rgb(0,0,0)"  stroke-width="2.0"/>
<line x1="276.5" y1="234.7" x2="258.8" y2="246.5" stroke="rgb(0,0,0)"  stroke-width="2.0"/>
<line x1="276.5" y1="234.7" x2="257.8" y2="224.7" stroke="rgb(0,0,0)"  stroke-width="2.0"/>
<line x1="329.7" y1="269.4" x2="330.4" y2="274.3" stroke="rgb(0,0,0)"  stroke-width="2.0"/>
<line x1="194.4" y1="178.6" x2="235.4" y2="159.1" stroke="rgb(0,0,0)"  stroke-width="2.0"/>
<line x1="194.4" y1="178.6" x2="194.9" y2="198.6" stroke="rgb(0,0,0)"  stroke-width="2.0"/>
<line x1="235.4" y1="159.1" x2="217.1" y2="148.3" stroke="rgb(0,0,0)"  stroke-width="2.0"/>
<line x1="233.6" y1="119.0" x2="232.0" y2="119.1" stroke="rgb(0,0,0)"  stroke-width="1.0"/>
<line x1="234.8" y1="127.0" x2="231.9" y2="127.2" stroke="rgb(0,0,0)"  stroke-width="1.0"/>
<line x1="235.9" y1="135.0" x2="231.8" y2="135.2" stroke="rgb(0,0,0)"  stroke-width="1.0"/>
<line x1="237.1" y1="142.9" x2="231.6" y2="143.3" stroke="rgb(0,0,0)"  stroke-width="1.0"/>
<line x1="238.2" y1="150.9" x2="231.5" y2="151.3" stroke="rgb(0,0,0)"  stroke-width="1.0"/>
<line x1="239.4" y1="158.8" x2="231.4" y2="159.4" stroke="rgb(0,0,0)"  stroke-width="1.0"/>
<line x1="232.2" y1="109.1" x2="196.4" y2="88.8" stroke="rgb(0,0,0)"  stroke-width="2.0"/>
<line x1="232.2" y1="109.1" x2="214.2" y2="120.3" stroke="rgb(0,0,0)"  stroke-width="2.0"/>
<line x1="278.0" y1="53.0" x2="278.5" y2="88.2" stroke="rgb(0,0,0)"  stroke-width="2.0"/>
<line x1="272.0" y1="53.0" x2="272.5" y2="88.3" stroke="rgb(0,0,0)"  stroke-width="2.0"/>
<line x1="318.0" y1="112.1" x2="336.2" y2="101.3" stroke="rgb(0,0,0)"  stroke-width="2.0"/>
<line x1="318.0" y1="112.1" x2="336.5" y2="122.5" stroke="rgb(0,0,0)"  stroke-width="2.0"/>
<line x1="318.7" y1="160.5" x2="336.9" y2="171.4" stroke="rgb(0,0,0)"  stroke-width="2.0"/>
<line x1="318.7" y1="160.5" x2="318.0" y2="181.7" stroke="rgb(0,0,0)"  stroke-width="2.0"/>
<line x1="267.8" y1="178.1" x2="268.6" y2="176.8" stroke="rgb(0,0,0)"  stroke-width="1.0"/>
<line x1="261.0" y1="175.0" x2="262.4" y2="172.5" stroke="rgb(0,0,0)"  stroke-width="1.0"/>
<line x1="254.1" y1="171.9" x2="256.1" y2="168.3" stroke="rgb(0,0,0)"  stroke-width="1.0"/>
<line x1="247.2" y1="168.8" x2="249.8" y2="164.1" stroke="rgb(0,0,0)"  stroke-width="1.0"/>
<line x1="240.3" y1="165.7" x2="243.6" y2="159.8" stroke="rgb(0,0,0)"  stroke-width="1.0"/>
<line x1="233.4" y1="162.6" x2="237.3" y2="155.6" stroke="rgb(0,0,0)"  stroke-width="1.0"/>
<line x1="276.5" y1="182.0" x2="276.5" y2="234.7" stroke="rgb(0,0,0)"  stroke-width="2.0"/>
<line x1="276.5" y1="182.0" x2="258.2" y2="192.8" stroke="rgb(0,0,0)"  stroke-width="2.0"/>
<line x1="67.0" y1="109.0" x2="109.1" y2="85.0" stroke="rgb(0,0,0)"  stroke-width="2.0"/>
<line x1="70.0" y1="114.2" x2="112.0" y2="90.2" stroke="rgb(0,0,0)"  stroke-width="2.0"/>
<line x1="68.5" y1="111.6" x2="51.2" y2="101.5" stroke="rgb(0,0,0)"  stroke-width="2.0"/>
<line x1="68.5" y1="111.6" x2="68.4" y2="131.6" stroke="rgb(0,0,0)"  stroke-width="2.0"/>
<line x1="110.6" y1="87.6" x2="151.8" y2="111.3" stroke="rgb(0,0,0)"  stroke-width="2.0"/>
<line x1="110.6" y1="87.6" x2="110.6" y2="67.6" stroke="rgb(0,0,0)"  stroke-width="2.0"/>
<line x1="151.8" y1="111.3" x2="196.4" y2="88.8" stroke="rgb(0,0,0)"  stroke-width="2.0"/>
<line x1="151.8" y1="111.3" x2="151.2" y2="132.5" stroke="rgb(0,0,0)"  stroke-width="2.0"/>
<line x1="151.8" y1="111.3" x2="169.7" y2="122.7" stroke="rgb(0,0,0)"  stroke-width="2.0"/>
<line x1="196.4" y1="88.8" x2="196.9" y2="67.6" stroke="rgb(0,0,0)"  stroke-width="2.0"/>
<line x1="196.4" y1="88.8" x2="178.5" y2="77.5" stroke="rgb(0,0,0)"  stroke-width="2.0"/>
<line x1="152.2" y1="157.8" x2="195.5" y2="175.9" stroke="rgb(0,0,0)"  stroke-width="2.0"/>
<line x1="149.9" y1="163.3" x2="193.2" y2="181.4" stroke="rgb(0,0,0)"  stroke-width="2.0"/>
<line x1="151.1" y1="160.6" x2="148.5" y2="140.7" stroke="rgb(0,0,0)"  stroke-width="2.0"/>
<line x1="151.1" y1="160.6" x2="135.2" y2="172.7" stroke="rgb(0,0,0)"  stroke-width="2.0"/>
<line x1="232.2" y1="109.1" x2="275.5" y2="88.3" stroke="rgb(0,0,0)"  stroke-width="2.0"/>
<line x1="275.5" y1="88.3" x2="318.0" y2="112.1" stroke="rgb(0,0,0)"  stroke-width="2.0"/>
<line x1="318.0" y1="112.1" x2="318.7" y2="160.5" stroke="rgb(0,0,0)"  stroke-width="2.0"/>
<line x1="318.7" y1="160.5" x2="276.5" y2="182.0" stroke="rgb(0,0,0)"  stroke-width="2.0"/>
<line x1="276.5" y1="182.0" x2="235.4" y2="159.1" stroke="rgb(0,0,0)"  stroke-width="2.0"/>
<line x1="235.4" y1="159.1" x2="232.2" y2="109.1" stroke="rgb(0,0,0)"  stroke-width="2.0"/>
<text x="322.095261" y="264.455215" fill="rgb(255,12,12)"  stroke="rgb(255,12,12)" stroke-width="1" font-size="16" >O</text>
<text x="268.780176" y="48.000000" fill="rgb(255,12,12)"  stroke="rgb(255,12,12)" stroke-width="1" font-size="16" >O</text>
<text x="325.977723" y="295.230277" fill="rgb(191,191,191)"  stroke="rgb(191,191,191)" stroke-width="1" font-size="16" >H</text>
<text x="241.989914" y="261.692079" fill="rgb(191,191,191)"  stroke="rgb(191,191,191)" stroke-width="1" font-size="16" >H</text>
<text x="240.323718" y="226.593222" fill="rgb(191,191,191)"  stroke="rgb(191,191,191)" stroke-width="1" font-size="16" >H</text>
<text x="189.212106" y="219.627817" fill="rgb(191,191,191)"  stroke="rgb(191,191,191)" stroke-width="1" font-size="16" >H</text>
<text x="199.874483" y="149.762702" fill="rgb(191,191,191)"  stroke="rgb(191,191,191)" stroke-width="1" font-size="16" >H</text>
<text x="197.197695" y="135.240249" fill="rgb(191,191,191)"  stroke="rgb(191,191,191)" stroke-width="1" font-size="16" >H</text>
<text x="341.382843" y="102.600710" fill="rgb(191,191,191)"  stroke="rgb(191,191,191)" stroke-width="1" font-size="16" >H</text>
<text x="341.862554" y="136.788117" fill="rgb(191,191,191)"  stroke="rgb(191,191,191)" stroke-width="1" font-size="16" >H</text>
<text x="342.051241" y="186.105610" fill="rgb(191,191,191)"  stroke="rgb(191,191,191)" stroke-width="1" font-size="16" >H</text>
<text x="311.538420" y="202.658839" fill="rgb(191,191,191)"  stroke="rgb(191,191,191)" stroke-width="1" font-size="16" >H</text>
<text x="240.947342" y="207.369601" fill="rgb(191,191,191)"  stroke="rgb(191,191,191)" stroke-width="1" font-size="16" >H</text>
<text x="34.000000" y="102.894933" fill="rgb(191,191,191)"  stroke="rgb(191,191,191)" stroke-width="1" font-size="16" >H</text>
<text x="62.290159" y="152.570610" fill="rgb(191,191,191)"  stroke="rgb(191,191,191)" stroke-width="1" font-size="16" >H</text>
<text x="104.619861" y="62.605602" fill="rgb(191,191,191)"  stroke="rgb(191,191,191)" stroke-width="1" font-size="16" >H</text>
<text x="144.867617" y="153.526834" fill="rgb(191,191,191)"  stroke="rgb(191,191,191)" stroke-width="1" font-size="16" >H</text>
<text x="174.692851" y="137.661191" fill="rgb(191,191,191)"  stroke="rgb(191,191,191)" stroke-width="1" font-size="16" >H</text>
<text x="191.249278" y="62.621592" fill="rgb(191,191,191)"  stroke="rgb(191,191,191)" stroke-width="1" font-size="16" >H</text>
<text x="161.507194" y="78.538405" fill="rgb(191,191,191)"  stroke="rgb(191,191,191)" stroke-width="1" font-size="16" >H</text>
<text x="140.860431" y="135.844685" fill="rgb(191,191,191)"  stroke="rgb(191,191,191)" stroke-width="1" font-size="16" >H</text>
<text x="118.860883" y="188.606503" fill="rgb(191,191,191)"  stroke="rgb(191,191,191)" stroke-width="1" font-size="16" >H</text>
</svg>
</g>
<text font-size="18.000000" fill ="black" font-family="sans-serif"
x="10.000000" y="20.000000" ></text>
</svg>
