<?xml version="1.0"?>
<svg version="1.1" id="topsvg"
xmlns="http://www.w3.org/2000/svg" xmlns:xlink="http://www.w3.org/1999/xlink"
xmlns:cml="http://www.xml-cml.org/schema" x="0" y="0" width="200px" height="200px" viewBox="0 0 100 100">
<title> - Open Babel Depiction</title>
<rect x="0" y="0" width="100" height="100" fill="white"/>
<g transform="translate(0,0)">
<svg width="100" height="100" x="0" y="0" viewBox="0 0 425.7 314.469"
font-family="sans-serif" stroke="rgb(0,0,0)" stroke-width="2"  stroke-linecap="round">
<line x1="179.8" y1="187.7" x2="185.3" y2="232.9" stroke="rgb(0,0,0)"  stroke-width="2.0"/>
<line x1="179.8" y1="187.7" x2="196.5" y2="235.6" stroke="rgb(0,0,0)"  stroke-width="2.0"/>
<line x1="211.6" y1="169.5" x2="210.7" y2="168.1" stroke="rgb(0,0,0)"  stroke-width="1.0"/>
<line x1="205.6" y1="173.8" x2="204.1" y2="171.4" stroke="rgb(0,0,0)"  stroke-width="1.0"/>
<line x1="199.7" y1="178.1" x2="197.5" y2="174.6" stroke="rgb(0,0,0)"  stroke-width="1.0"/>
<line x1="193.7" y1="182.5" x2="190.9" y2="177.8" stroke="rgb(0,0,0)"  stroke-width="1.0"/>
<line x1="187.8" y1="186.8" x2="184.3" y2="181.0" stroke="rgb(0,0,0)"  stroke-width="1.0"/>
<line x1="181.8" y1="191.1" x2="177.7" y2="184.2" stroke="rgb(0,0,0)"  stroke-width="1.0"/>
<line x1="138.3" y1="115.9" x2="118.7" y2="110.0" stroke="rgb(0,0,0)"  stroke-width="2.0"/>
<line x1="110.0" y1="93.8" x2="115.9" y2="74.3" stroke="rgb(0,0,0)"  stroke-width="2.0"/>
<line x1="93.8" y1="102.5" x2="74.3" y2="96.7" stroke="rgb(0,0,0)"  stroke-width="2.0"/>
<line x1="102.5" y1="118.7" x2="96.7" y2="138.3" stroke="rgb(0,0,0)"  stroke-width="2.0"/>
<line x1="173.7" y1="93.7" x2="174.0" y2="58.6" stroke="rgb(0,0,0)"  stroke-width="2.0"/>
<line x1="179.7" y1="93.7" x2="180.0" y2="58.7" stroke="rgb(0,0,0)"  stroke-width="2.0"/>
<line x1="351.5" y1="205.2" x2="338.3" y2="158.4" stroke="rgb(0,0,0)"  stroke-width="2.0"/>
<line x1="325.4" y1="245.7" x2="348.8" y2="203.7" stroke="rgb(0,0,0)"  stroke-width="2.0"/>
<line x1="330.6" y1="248.6" x2="354.1" y2="206.7" stroke="rgb(0,0,0)"  stroke-width="2.0"/>
<line x1="281.2" y1="259.4" x2="232.0" y2="260.0" stroke="rgb(0,0,0)"  stroke-width="2.0"/>
<line x1="281.2" y1="263.6" x2="232.1" y2="264.2" stroke="rgb(0,0,0)"  stroke-width="2.0"/>
<line x1="281.1" y1="255.2" x2="232.0" y2="255.8" stroke="rgb(0,0,0)"  stroke-width="2.0"/>
<line x1="281.2" y1="259.4" x2="328.0" y2="247.2" stroke="rgb(0,0,0)"  stroke-width="2.0"/>
<line x1="232.0" y1="260.0" x2="185.3" y2="232.9" stroke="rgb(0,0,0)"  stroke-width="2.0"/>
<line x1="231.3" y1="113.5" x2="231.5" y2="115.1" stroke="rgb(0,0,0)"  stroke-width="1.0"/>
<line x1="239.8" y1="111.5" x2="240.3" y2="114.3" stroke="rgb(0,0,0)"  stroke-width="1.0"/>
<line x1="248.4" y1="109.5" x2="249.1" y2="113.6" stroke="rgb(0,0,0)"  stroke-width="1.0"/>
<line x1="257.0" y1="107.5" x2="257.8" y2="112.8" stroke="rgb(0,0,0)"  stroke-width="1.0"/>
<line x1="265.5" y1="105.4" x2="266.6" y2="112.1" stroke="rgb(0,0,0)"  stroke-width="1.0"/>
<line x1="274.1" y1="103.4" x2="275.4" y2="111.3" stroke="rgb(0,0,0)"  stroke-width="1.0"/>
<line x1="274.7" y1="107.4" x2="317.5" y2="113.3" stroke="rgb(0,0,0)"  stroke-width="2.0"/>
<line x1="219.0" y1="164.1" x2="263.2" y2="189.7" stroke="rgb(0,0,0)"  stroke-width="2.0"/>
<line x1="320.0" y1="111.6" x2="349.0" y2="152.5" stroke="rgb(0,0,0)"  stroke-width="2.0"/>
<line x1="315.1" y1="115.1" x2="344.1" y2="156.0" stroke="rgb(0,0,0)"  stroke-width="2.0"/>
<line x1="261.6" y1="187.1" x2="303.4" y2="161.9" stroke="rgb(0,0,0)"  stroke-width="2.0"/>
<line x1="264.7" y1="192.2" x2="306.5" y2="167.1" stroke="rgb(0,0,0)"  stroke-width="2.0"/>
<line x1="331.0" y1="163.4" x2="306.3" y2="120.0" stroke="rgb(0,0,0)"  stroke-width="2.0"/>
<line x1="185.3" y1="232.9" x2="166.4" y2="245.5" stroke="rgb(0,0,0)"  stroke-width="2.0"/>
<line x1="185.3" y1="232.9" x2="186.0" y2="255.7" stroke="rgb(0,0,0)"  stroke-width="2.0"/>
<line x1="136.9" y1="165.1" x2="118.4" y2="175.9" stroke="rgb(0,0,0)"  stroke-width="2.0"/>
<line x1="115.9" y1="74.3" x2="138.0" y2="69.0" stroke="rgb(0,0,0)"  stroke-width="2.0"/>
<line x1="115.9" y1="74.3" x2="100.2" y2="57.7" stroke="rgb(0,0,0)"  stroke-width="2.0"/>
<line x1="115.9" y1="74.3" x2="122.4" y2="52.5" stroke="rgb(0,0,0)"  stroke-width="2.0"/>
<line x1="74.3" y1="96.7" x2="69.0" y2="74.5" stroke="rgb(0,0,0)"  stroke-width="2.0"/>
<line x1="74.3" y1="96.7" x2="57.7" y2="112.3" stroke="rgb(0,0,0)"  stroke-width="2.0"/>
<line x1="74.3" y1="96.7" x2="52.5" y2="90.2" stroke="rgb(0,0,0)"  stroke-width="2.0"/>
<line x1="96.7" y1="138.3" x2="74.5" y2="143.5" stroke="rgb(0,0,0)"  stroke-width="2.0"/>
<line x1="96.7" y1="138.3" x2="112.3" y2="154.8" stroke="rgb(0,0,0)"  stroke-width="2.0"/>
<line x1="96.7" y1="138.3" x2="90.2" y2="160.1" stroke="rgb(0,0,0)"  stroke-width="2.0"/>
<line x1="259.5" y1="101.0" x2="259.7" y2="78.2" stroke="rgb(0,0,0)"  stroke-width="2.0"/>
<line x1="259.5" y1="101.0" x2="278.4" y2="88.3" stroke="rgb(0,0,0)"  stroke-width="2.0"/>
<line x1="306.3" y1="120.0" x2="285.2" y2="111.5" stroke="rgb(0,0,0)"  stroke-width="2.0"/>
<line x1="351.5" y1="205.2" x2="372.8" y2="207.7" stroke="rgb(0,0,0)"  stroke-width="2.0"/>
<line x1="338.3" y1="158.4" x2="354.2" y2="142.1" stroke="rgb(0,0,0)"  stroke-width="2.0"/>
<line x1="338.3" y1="158.4" x2="316.3" y2="152.8" stroke="rgb(0,0,0)"  stroke-width="2.0"/>
<line x1="338.3" y1="158.4" x2="332.2" y2="136.5" stroke="rgb(0,0,0)"  stroke-width="2.0"/>
<line x1="328.0" y1="247.2" x2="341.1" y2="264.2" stroke="rgb(0,0,0)"  stroke-width="2.0"/>
<line x1="274.7" y1="107.4" x2="272.2" y2="130.0" stroke="rgb(0,0,0)"  stroke-width="2.0"/>
<line x1="219.0" y1="164.1" x2="199.4" y2="152.6" stroke="rgb(0,0,0)"  stroke-width="2.0"/>
<line x1="196.5" y1="235.6" x2="181.6" y2="252.9" stroke="rgb(0,0,0)"  stroke-width="2.0"/>
<line x1="196.5" y1="235.6" x2="218.8" y2="239.9" stroke="rgb(0,0,0)"  stroke-width="2.0"/>
<line x1="196.5" y1="235.6" x2="203.9" y2="257.1" stroke="rgb(0,0,0)"  stroke-width="2.0"/>
<line x1="317.5" y1="113.3" x2="328.7" y2="95.0" stroke="rgb(0,0,0)"  stroke-width="2.0"/>
<line x1="346.5" y1="154.3" x2="337.6" y2="173.8" stroke="rgb(0,0,0)"  stroke-width="2.0"/>
<line x1="346.5" y1="154.3" x2="367.9" y2="152.2" stroke="rgb(0,0,0)"  stroke-width="2.0"/>
<line x1="263.2" y1="189.7" x2="263.4" y2="211.2" stroke="rgb(0,0,0)"  stroke-width="2.0"/>
<line x1="305.0" y1="164.5" x2="323.8" y2="174.9" stroke="rgb(0,0,0)"  stroke-width="2.0"/>
<line x1="305.0" y1="164.5" x2="304.6" y2="143.0" stroke="rgb(0,0,0)"  stroke-width="2.0"/>
<line x1="331.0" y1="163.4" x2="319.5" y2="183.0" stroke="rgb(0,0,0)"  stroke-width="2.0"/>
<line x1="331.0" y1="163.4" x2="353.7" y2="163.5" stroke="rgb(0,0,0)"  stroke-width="2.0"/>
<line x1="331.0" y1="163.4" x2="342.3" y2="183.1" stroke="rgb(0,0,0)"  stroke-width="2.0"/>
<line x1="259.5" y1="101.0" x2="306.3" y2="120.0" stroke="rgb(0,0,0)"  stroke-width="2.0"/>
<line x1="306.3" y1="120.0" x2="274.7" y2="107.4" stroke="rgb(0,0,0)"  stroke-width="2.0"/>
<line x1="274.7" y1="107.4" x2="220.6" y2="116.1" stroke="rgb(0,0,0)"  stroke-width="2.0"/>
<line x1="220.6" y1="116.1" x2="259.5" y2="101.0" stroke="rgb(0,0,0)"  stroke-width="2.0"/>
<line x1="136.9" y1="165.1" x2="179.8" y2="187.7" stroke="rgb(0,0,0)"  stroke-width="2.0"/>
<line x1="179.8" y1="187.7" x2="219.0" y2="164.1" stroke="rgb(0,0,0)"  stroke-width="2.0"/>
<line x1="219.0" y1="164.1" x2="220.6" y2="116.1" stroke="rgb(0,0,0)"  stroke-width="2.0"/>
<line x1="220.6" y1="116.1" x2="176.7" y2="93.7" stroke="rgb(0,0,0)"  stroke-width="2.0"/>
<line x1="176.7" y1="93.7" x2="138.3" y2="115.9" stroke="rgb(0,0,0)"  stroke-width="2.0"/>
<line x1="138.3" y1="115.9" x2="136.9" y2="165.1" stroke="rgb(0,0,0)"  stroke-width="2.0"/>
<line x1="145.3" y1="122.1" x2="144.3" y2="159.3" stroke="rgb(0,0,0)"  stroke-width="2.0"/>
<text x="100.271310" y="114.270328" fill="rgb(127,153,153)"  stroke="rgb(127,153,153)" stroke-width="1" font-size="16" >Si</text>
<text x="171.121605" y="53.652740" fill="rgb(255,12,12)"  stroke="rgb(255,12,12)" stroke-width="1" font-size="16" >O</text>
<text x="149.510278" y="260.638389" fill="rgb(191,191,191)"  stroke="rgb(191,191,191)" stroke-width="1" font-size="16" >H</text>
<text x="180.375849" y="276.672130" fill="rgb(191,191,191)"  stroke="rgb(191,191,191)" stroke-width="1" font-size="16" >H</text>
<text x="101.127853" y="190.486503" fill="rgb(191,191,191)"  stroke="rgb(191,191,191)" stroke-width="1" font-size="16" >H</text>
<text x="144.649458" y="74.009030" fill="rgb(191,191,191)"  stroke="rgb(191,191,191)" stroke-width="1" font-size="16" >H</text>
<text x="85.317146" y="56.246496" fill="rgb(191,191,191)"  stroke="rgb(191,191,191)" stroke-width="1" font-size="16" >H</text>
<text x="120.110904" y="48.000000" fill="rgb(191,191,191)"  stroke="rgb(191,191,191)" stroke-width="1" font-size="16" >H</text>
<text x="60.006679" y="69.896313" fill="rgb(191,191,191)"  stroke="rgb(191,191,191)" stroke-width="1" font-size="16" >H</text>
<text x="42.249830" y="129.230326" fill="rgb(191,191,191)"  stroke="rgb(191,191,191)" stroke-width="1" font-size="16" >H</text>
<text x="34.000000" y="94.437359" fill="rgb(191,191,191)"  stroke="rgb(191,191,191)" stroke-width="1" font-size="16" >H</text>
<text x="55.897295" y="154.534960" fill="rgb(191,191,191)"  stroke="rgb(191,191,191)" stroke-width="1" font-size="16" >H</text>
<text x="115.231308" y="172.291809" fill="rgb(191,191,191)"  stroke="rgb(191,191,191)" stroke-width="1" font-size="16" >H</text>
<text x="80.438341" y="180.541639" fill="rgb(191,191,191)"  stroke="rgb(191,191,191)" stroke-width="1" font-size="16" >H</text>
<text x="253.764969" y="73.207065" fill="rgb(191,191,191)"  stroke="rgb(191,191,191)" stroke-width="1" font-size="16" >H</text>
<text x="283.223344" y="89.133738" fill="rgb(191,191,191)"  stroke="rgb(191,191,191)" stroke-width="1" font-size="16" >H</text>
<text x="267.115038" y="114.616934" fill="rgb(191,191,191)"  stroke="rgb(191,191,191)" stroke-width="1" font-size="16" >H</text>
<text x="379.699789" y="217.269238" fill="rgb(191,191,191)"  stroke="rgb(191,191,191)" stroke-width="1" font-size="16" >H</text>
<text x="357.313938" y="140.826223" fill="rgb(191,191,191)"  stroke="rgb(191,191,191)" stroke-width="1" font-size="16" >H</text>
<text x="297.680636" y="157.550457" fill="rgb(191,191,191)"  stroke="rgb(191,191,191)" stroke-width="1" font-size="16" >H</text>
<text x="322.669417" y="131.973688" fill="rgb(191,191,191)"  stroke="rgb(191,191,191)" stroke-width="1" font-size="16" >H</text>
<text x="343.098258" y="282.468602" fill="rgb(191,191,191)"  stroke="rgb(191,191,191)" stroke-width="1" font-size="16" >H</text>
<text x="264.757105" y="150.896036" fill="rgb(191,191,191)"  stroke="rgb(191,191,191)" stroke-width="1" font-size="16" >H</text>
<text x="182.181355" y="153.985667" fill="rgb(191,191,191)"  stroke="rgb(191,191,191)" stroke-width="1" font-size="16" >H</text>
<text x="167.098733" y="270.717387" fill="rgb(191,191,191)"  stroke="rgb(191,191,191)" stroke-width="1" font-size="16" >H</text>
<text x="225.588296" y="250.350704" fill="rgb(191,191,191)"  stroke="rgb(191,191,191)" stroke-width="1" font-size="16" >H</text>
<text x="202.222870" y="277.418528" fill="rgb(191,191,191)"  stroke="rgb(191,191,191)" stroke-width="1" font-size="16" >H</text>
<text x="329.420999" y="91.875675" fill="rgb(191,191,191)"  stroke="rgb(191,191,191)" stroke-width="1" font-size="16" >H</text>
<text x="326.173777" y="193.602752" fill="rgb(191,191,191)"  stroke="rgb(191,191,191)" stroke-width="1" font-size="16" >H</text>
<text x="374.882403" y="159.024045" fill="rgb(191,191,191)"  stroke="rgb(191,191,191)" stroke-width="1" font-size="16" >H</text>
<text x="257.493553" y="232.159025" fill="rgb(191,191,191)"  stroke="rgb(191,191,191)" stroke-width="1" font-size="16" >H</text>
<text x="329.173279" y="189.209135" fill="rgb(191,191,191)"  stroke="rgb(191,191,191)" stroke-width="1" font-size="16" >H</text>
<text x="298.369136" y="138.029824" fill="rgb(191,191,191)"  stroke="rgb(191,191,191)" stroke-width="1" font-size="16" >H</text>
<text x="306.950955" y="202.228296" fill="rgb(191,191,191)"  stroke="rgb(191,191,191)" stroke-width="1" font-size="16" >H</text>
<text x="360.743683" y="171.533456" fill="rgb(191,191,191)"  stroke="rgb(191,191,191)" stroke-width="1" font-size="16" >H</text>
<text x="342.708156" y="202.409499" fill="rgb(191,191,191)"  stroke="rgb(191,191,191)" stroke-width="1" font-size="16" >H</text>
</svg>
</g>
<text font-size="18.000000" fill ="black" font-family="sans-serif"
x="10.000000" y="20.000000" ></text>
</svg>
