<?xml version="1.0"?>
<svg version="1.1" id="topsvg"
xmlns="http://www.w3.org/2000/svg" xmlns:xlink="http://www.w3.org/1999/xlink"
xmlns:cml="http://www.xml-cml.org/schema" x="0" y="0" width="200px" height="200px" viewBox="0 0 100 100">
<title> - Open Babel Depiction</title>
<rect x="0" y="0" width="100" height="100" fill="white"/>
<g transform="translate(0,0)">
<svg width="100" height="100" x="0" y="0" viewBox="0 0 410.712 209.075"
font-family="sans-serif" stroke="rgb(0,0,0)" stroke-width="2"  stroke-linecap="round">
<line x1="247.1" y1="105.9" x2="246.8" y2="125.7" stroke="rgb(0,0,0)"  stroke-width="2.0"/>
<line x1="246.8" y1="125.7" x2="257.6" y2="132.5" stroke="rgb(0,0,0)"  stroke-width="2.0"/>
<line x1="229.7" y1="76.8" x2="229.7" y2="76.8" stroke="rgb(0,0,0)"  stroke-width="2.0"/>
<line x1="221.3" y1="60.5" x2="221.3" y2="60.5" stroke="rgb(0,0,0)"  stroke-width="2.0"/>
<line x1="205.0" y1="68.9" x2="205.0" y2="68.9" stroke="rgb(0,0,0)"  stroke-width="2.0"/>
<line x1="213.4" y1="85.2" x2="213.4" y2="85.2" stroke="rgb(0,0,0)"  stroke-width="2.0"/>
<line x1="261.1" y1="55.2" x2="246.7" y2="67.0" stroke="rgb(0,0,0)"  stroke-width="2.0"/>
<line x1="249.9" y1="103.2" x2="250.7" y2="104.6" stroke="rgb(0,0,0)"  stroke-width="1.0"/>
<line x1="252.1" y1="101.1" x2="253.6" y2="103.6" stroke="rgb(0,0,0)"  stroke-width="1.0"/>
<line x1="254.4" y1="99.0" x2="256.5" y2="102.6" stroke="rgb(0,0,0)"  stroke-width="1.0"/>
<line x1="256.6" y1="96.9" x2="259.5" y2="101.5" stroke="rgb(0,0,0)"  stroke-width="1.0"/>
<line x1="258.9" y1="94.8" x2="262.4" y2="100.5" stroke="rgb(0,0,0)"  stroke-width="1.0"/>
<line x1="261.1" y1="92.7" x2="265.3" y2="99.5" stroke="rgb(0,0,0)"  stroke-width="1.0"/>
<line x1="263.2" y1="96.1" x2="280.7" y2="105.0" stroke="rgb(0,0,0)"  stroke-width="2.0"/>
<line x1="299.5" y1="89.5" x2="305.6" y2="82.5" stroke="rgb(0,0,0)"  stroke-width="2.0"/>
<line x1="326.9" y1="75.1" x2="313.7" y2="72.6" stroke="rgb(0,0,0)"  stroke-width="2.0"/>
<line x1="310.2" y1="107.1" x2="299.5" y2="89.5" stroke="rgb(0,0,0)"  stroke-width="2.0"/>
<line x1="367.0" y1="89.4" x2="52.4" y2="44.8" stroke="rgb(0,0,0)"  stroke-width="2.0"/>
<line x1="367.8" y1="83.5" x2="53.3" y2="38.9" stroke="rgb(0,0,0)"  stroke-width="2.0"/>
<line x1="367.4" y1="86.5" x2="40.0" y2="40.0" stroke="rgb(0,0,0)"  stroke-width="2.0"/>
<line x1="nan" y1="nan" x2="nan" y2="nan" stroke="rgb(0,0,0)"  stroke-width="2.0"/>
<line x1="nan" y1="nan" x2="nan" y2="nan" stroke="rgb(0,0,0)"  stroke-width="2.0"/>
<line x1="363.5" y1="152.2" x2="51.4" y2="47.0" stroke="rgb(0,0,0)"  stroke-width="2.0"/>
<line x1="365.4" y1="146.5" x2="53.3" y2="41.3" stroke="rgb(0,0,0)"  stroke-width="2.0"/>
<line x1="364.4" y1="149.3" x2="40.0" y2="40.0" stroke="rgb(0,0,0)"  stroke-width="2.0"/>
<line x1="364.4" y1="149.3" x2="368.8" y2="119.0" stroke="rgb(0,0,0)"  stroke-width="2.0"/>
<line x1="nan" y1="nan" x2="nan" y2="nan" stroke="rgb(0,0,0)"  stroke-width="2.0"/>
<line x1="nan" y1="nan" x2="nan" y2="nan" stroke="rgb(0,0,0)"  stroke-width="2.0"/>
<line x1="314.9" y1="145.8" x2="315.2" y2="125.1" stroke="rgb(0,0,0)"  stroke-width="2.0"/>
<line x1="296.4" y1="153.1" x2="313.4" y2="143.2" stroke="rgb(0,0,0)"  stroke-width="2.0"/>
<line x1="299.4" y1="158.3" x2="316.4" y2="148.4" stroke="rgb(0,0,0)"  stroke-width="2.0"/>
<line x1="280.9" y1="145.9" x2="257.6" y2="132.5" stroke="rgb(0,0,0)"  stroke-width="2.0"/>
<line x1="278.8" y1="149.6" x2="255.5" y2="136.2" stroke="rgb(0,0,0)"  stroke-width="2.0"/>
<line x1="283.0" y1="142.3" x2="259.7" y2="128.9" stroke="rgb(0,0,0)"  stroke-width="2.0"/>
<line x1="280.9" y1="145.9" x2="297.9" y2="155.7" stroke="rgb(0,0,0)"  stroke-width="2.0"/>
<line x1="283.7" y1="105.0" x2="284.0" y2="126.3" stroke="rgb(0,0,0)"  stroke-width="2.0"/>
<line x1="277.7" y1="105.0" x2="278.0" y2="126.4" stroke="rgb(0,0,0)"  stroke-width="2.0"/>
<line x1="247.1" y1="105.9" x2="246.3" y2="106.3" stroke="rgb(0,0,0)"  stroke-width="2.0"/>
<line x1="246.8" y1="125.7" x2="246.1" y2="126.2" stroke="rgb(0,0,0)"  stroke-width="2.0"/>
<line x1="246.8" y1="125.7" x2="246.8" y2="126.6" stroke="rgb(0,0,0)"  stroke-width="2.0"/>
<line x1="229.6" y1="96.4" x2="229.3" y2="96.6" stroke="rgb(0,0,0)"  stroke-width="2.0"/>
<line x1="221.3" y1="60.5" x2="222.1" y2="60.3" stroke="rgb(0,0,0)"  stroke-width="2.0"/>
<line x1="221.3" y1="60.5" x2="220.7" y2="59.9" stroke="rgb(0,0,0)"  stroke-width="2.0"/>
<line x1="221.3" y1="60.5" x2="221.6" y2="59.7" stroke="rgb(0,0,0)"  stroke-width="2.0"/>
<line x1="205.0" y1="68.9" x2="204.9" y2="68.1" stroke="rgb(0,0,0)"  stroke-width="2.0"/>
<line x1="205.0" y1="68.9" x2="204.4" y2="69.4" stroke="rgb(0,0,0)"  stroke-width="2.0"/>
<line x1="205.0" y1="68.9" x2="204.2" y2="68.6" stroke="rgb(0,0,0)"  stroke-width="2.0"/>
<line x1="213.4" y1="85.2" x2="212.6" y2="85.3" stroke="rgb(0,0,0)"  stroke-width="2.0"/>
<line x1="213.4" y1="85.2" x2="214.0" y2="85.8" stroke="rgb(0,0,0)"  stroke-width="2.0"/>
<line x1="213.4" y1="85.2" x2="213.1" y2="86.0" stroke="rgb(0,0,0)"  stroke-width="2.0"/>
<line x1="263.9" y1="76.3" x2="264.2" y2="76.1" stroke="rgb(0,0,0)"  stroke-width="2.0"/>
<polygon points="263.221754 96.078411 269.178361 87.921386 273.242476 94.812174 " stroke-width="2.000000" fill="rgb(0,0,0)"  stroke="rgb(0,0,0)" />
<line x1="299.5" y1="89.5" x2="298.6" y2="89.5" stroke="rgb(0,0,0)"  stroke-width="2.0"/>
<line x1="299.5" y1="89.5" x2="299.0" y2="90.3" stroke="rgb(0,0,0)"  stroke-width="2.0"/>
<line x1="40.0" y1="40.0" x2="nan" y2="nan" stroke="rgb(0,0,0)"  stroke-width="2.0"/>
<line x1="40.0" y1="40.0" x2="nan" y2="nan" stroke="rgb(0,0,0)"  stroke-width="2.0"/>
<line x1="314.9" y1="145.8" x2="315.2" y2="146.0" stroke="rgb(0,0,0)"  stroke-width="2.0"/>
<line x1="297.9" y1="155.7" x2="297.9" y2="156.1" stroke="rgb(0,0,0)"  stroke-width="2.0"/>
<line x1="280.7" y1="105.0" x2="281.0" y2="104.8" stroke="rgb(0,0,0)"  stroke-width="2.0"/>
<line x1="281.0" y1="126.3" x2="280.7" y2="126.5" stroke="rgb(0,0,0)"  stroke-width="2.0"/>
<line x1="281.0" y1="126.3" x2="281.3" y2="126.5" stroke="rgb(0,0,0)"  stroke-width="2.0"/>
<line x1="310.2" y1="107.1" x2="321.6" y2="113.7" stroke="rgb(0,0,0)"  stroke-width="2.0"/>
<line x1="321.6" y1="113.7" x2="367.4" y2="86.5" stroke="rgb(0,0,0)"  stroke-width="2.0"/>
<line x1="367.4" y1="86.5" x2="310.2" y2="107.1" stroke="rgb(0,0,0)"  stroke-width="2.0"/>
<line x1="364.4" y1="149.3" x2="321.6" y2="113.7" stroke="rgb(0,0,0)"  stroke-width="2.0"/>
<line x1="367.4" y1="86.5" x2="364.4" y2="149.3" stroke="rgb(0,0,0)"  stroke-width="2.0"/>
<line x1="315.2" y1="125.1" x2="321.6" y2="113.7" stroke="rgb(0,0,0)"  stroke-width="2.0"/>
<line x1="310.2" y1="107.1" x2="315.2" y2="125.1" stroke="rgb(0,0,0)"  stroke-width="2.0"/>
<line x1="364.4" y1="149.3" x2="315.2" y2="125.1" stroke="rgb(0,0,0)"  stroke-width="2.0"/>
<line x1="229.6" y1="96.4" x2="229.7" y2="76.8" stroke="rgb(0,0,0)"  stroke-width="2.0"/>
<line x1="236.8" y1="90.4" x2="236.9" y2="82.8" stroke="rgb(0,0,0)"  stroke-width="2.0"/>
<line x1="229.7" y1="76.8" x2="246.7" y2="67.0" stroke="rgb(0,0,0)"  stroke-width="2.0"/>
<line x1="246.7" y1="67.0" x2="263.9" y2="76.3" stroke="rgb(0,0,0)"  stroke-width="2.0"/>
<line x1="248.5" y1="76.2" x2="255.2" y2="79.8" stroke="rgb(0,0,0)"  stroke-width="2.0"/>
<line x1="263.9" y1="76.3" x2="263.2" y2="96.1" stroke="rgb(0,0,0)"  stroke-width="2.0"/>
<line x1="263.2" y1="96.1" x2="247.1" y2="105.9" stroke="rgb(0,0,0)"  stroke-width="2.0"/>
<line x1="247.1" y1="105.9" x2="229.6" y2="96.4" stroke="rgb(0,0,0)"  stroke-width="2.0"/>
<text x="211.349415" y="80.836926" fill="rgb(127,153,153)"  stroke="rgb(127,153,153)" stroke-width="1" font-size="16" >Si</text>
<text x="265.156072" y="54.932987" fill="rgb(17,127,178)"  stroke="rgb(17,127,178)" stroke-width="1" font-size="16" >Xx</text>
<text x="308.105923" y="80.635107" fill="rgb(255,12,12)"  stroke="rgb(255,12,12)" stroke-width="1" font-size="16" >O</text>
<text x="34.000000" y="48.000000" fill="rgb(255,12,12)"  stroke="rgb(255,12,12)" stroke-width="1" font-size="16" >O</text>
<text x="34.000000" y="48.000000" fill="rgb(255,12,12)"  stroke="rgb(255,12,12)" stroke-width="1" font-size="16" >O</text>
<text x="34.000000" y="48.000000" fill="rgb(255,12,12)"  stroke="rgb(255,12,12)" stroke-width="1" font-size="16" >O</text>
<text x="34.000000" y="48.000000" fill="rgb(255,12,12)"  stroke="rgb(255,12,12)" stroke-width="1" font-size="16" >O</text>
<text x="364.712167" y="114.086545" fill="rgb(17,127,178)"  stroke="rgb(17,127,178)" stroke-width="1" font-size="16" >Xx</text>
<text x="320.431090" y="82.998714" fill="rgb(191,191,191)"  stroke="rgb(191,191,191)" stroke-width="1" font-size="16" >H</text>
<text x="229.118606" y="120.897433" fill="rgb(191,191,191)"  stroke="rgb(191,191,191)" stroke-width="1" font-size="16" >H</text>
<text x="228.683575" y="140.379998" fill="rgb(191,191,191)"  stroke="rgb(191,191,191)" stroke-width="1" font-size="16" >H</text>
<text x="240.412699" y="147.584602" fill="rgb(191,191,191)"  stroke="rgb(191,191,191)" stroke-width="1" font-size="16" >H</text>
<text x="212.145803" y="111.237226" fill="rgb(191,191,191)"  stroke="rgb(191,191,191)" stroke-width="1" font-size="16" >H</text>
<text x="228.839192" y="65.599972" fill="rgb(191,191,191)"  stroke="rgb(191,191,191)" stroke-width="1" font-size="16" >H</text>
<text x="206.013127" y="58.263023" fill="rgb(191,191,191)"  stroke="rgb(191,191,191)" stroke-width="1" font-size="16" >H</text>
<text x="219.544154" y="55.342180" fill="rgb(191,191,191)"  stroke="rgb(191,191,191)" stroke-width="1" font-size="16" >H</text>
<text x="196.110753" y="63.347238" fill="rgb(191,191,191)"  stroke="rgb(191,191,191)" stroke-width="1" font-size="16" >H</text>
<text x="188.774502" y="86.173527" fill="rgb(191,191,191)"  stroke="rgb(191,191,191)" stroke-width="1" font-size="16" >H</text>
<text x="185.853246" y="72.642590" fill="rgb(191,191,191)"  stroke="rgb(191,191,191)" stroke-width="1" font-size="16" >H</text>
<text x="193.858155" y="96.074299" fill="rgb(191,191,191)"  stroke="rgb(191,191,191)" stroke-width="1" font-size="16" >H</text>
<text x="216.683746" y="103.412723" fill="rgb(191,191,191)"  stroke="rgb(191,191,191)" stroke-width="1" font-size="16" >H</text>
<text x="203.152530" y="106.332692" fill="rgb(191,191,191)"  stroke="rgb(191,191,191)" stroke-width="1" font-size="16" >H</text>
<text x="269.479579" y="77.664858" fill="rgb(191,191,191)"  stroke="rgb(191,191,191)" stroke-width="1" font-size="16" >H</text>
<text x="269.145133" y="97.046126" fill="rgb(191,191,191)"  stroke="rgb(191,191,191)" stroke-width="1" font-size="16" >H</text>
<text x="279.685862" y="96.423412" fill="rgb(191,191,191)"  stroke="rgb(191,191,191)" stroke-width="1" font-size="16" >H</text>
<text x="286.242623" y="109.341984" fill="rgb(191,191,191)"  stroke="rgb(191,191,191)" stroke-width="1" font-size="16" >H</text>
<text x="34.000000" y="48.000000" fill="rgb(191,191,191)"  stroke="rgb(191,191,191)" stroke-width="1" font-size="16" >H</text>
<text x="34.000000" y="48.000000" fill="rgb(191,191,191)"  stroke="rgb(191,191,191)" stroke-width="1" font-size="16" >H</text>
<text x="320.453019" y="160.525089" fill="rgb(191,191,191)"  stroke="rgb(191,191,191)" stroke-width="1" font-size="16" >H</text>
<text x="291.953925" y="177.074601" fill="rgb(191,191,191)"  stroke="rgb(191,191,191)" stroke-width="1" font-size="16" >H</text>
<text x="286.082968" y="105.946209" fill="rgb(191,191,191)"  stroke="rgb(191,191,191)" stroke-width="1" font-size="16" >H</text>
<text x="263.508629" y="141.151158" fill="rgb(191,191,191)"  stroke="rgb(191,191,191)" stroke-width="1" font-size="16" >H</text>
<text x="286.631794" y="140.880720" fill="rgb(191,191,191)"  stroke="rgb(191,191,191)" stroke-width="1" font-size="16" >H</text>
</svg>
</g>
<text font-size="18.000000" fill ="black" font-family="sans-serif"
x="10.000000" y="20.000000" ></text>
</svg>
