<?xml version="1.0"?>
<svg version="1.1" id="topsvg"
xmlns="http://www.w3.org/2000/svg" xmlns:xlink="http://www.w3.org/1999/xlink"
xmlns:cml="http://www.xml-cml.org/schema" x="0" y="0" width="200px" height="200px" viewBox="0 0 100 100">
<title> - Open Babel Depiction</title>
<rect x="0" y="0" width="100" height="100" fill="white"/>
<g transform="translate(0,0)">
<svg width="100" height="100" x="0" y="0" viewBox="0 0 401.277 441.597"
font-family="sans-serif" stroke="rgb(0,0,0)" stroke-width="2"  stroke-linecap="round">
<line x1="251.7" y1="320.6" x2="205.3" y2="334.0" stroke="rgb(0,0,0)"  stroke-width="2.0"/>
<line x1="251.7" y1="320.6" x2="240.4" y2="367.9" stroke="rgb(0,0,0)"  stroke-width="2.0"/>
<line x1="237.9" y1="174.9" x2="195.5" y2="193.1" stroke="rgb(0,0,0)"  stroke-width="2.0"/>
<polygon points="237.890971 174.891435 235.932854 125.980908 243.925868 126.315166 " stroke-width="2.000000" fill="rgb(0,0,0)"  stroke="rgb(0,0,0)" />
<line x1="239.9" y1="126.1" x2="198.0" y2="99.7" stroke="rgb(0,0,0)"  stroke-width="2.0"/>
<line x1="307.3" y1="71.4" x2="326.7" y2="70.6" stroke="rgb(0,0,0)"  stroke-width="2.0"/>
<line x1="288.3" y1="83.4" x2="279.3" y2="100.6" stroke="rgb(0,0,0)"  stroke-width="2.0"/>
<line x1="153.5" y1="123.6" x2="198.0" y2="99.7" stroke="rgb(0,0,0)"  stroke-width="2.0"/>
<line x1="111.2" y1="101.0" x2="153.5" y2="123.6" stroke="rgb(0,0,0)"  stroke-width="2.0"/>
<line x1="67.6" y1="123.5" x2="109.6" y2="98.4" stroke="rgb(0,0,0)"  stroke-width="2.0"/>
<line x1="70.7" y1="128.7" x2="112.7" y2="103.6" stroke="rgb(0,0,0)"  stroke-width="2.0"/>
<line x1="154.9" y1="172.2" x2="196.7" y2="190.4" stroke="rgb(0,0,0)"  stroke-width="2.0"/>
<line x1="152.5" y1="177.7" x2="194.3" y2="195.9" stroke="rgb(0,0,0)"  stroke-width="2.0"/>
<line x1="279.5" y1="195.4" x2="278.6" y2="247.5" stroke="rgb(0,0,0)"  stroke-width="2.0"/>
<line x1="205.3" y1="334.0" x2="189.7" y2="319.1" stroke="rgb(0,0,0)"  stroke-width="2.0"/>
<line x1="205.3" y1="334.0" x2="200.1" y2="355.0" stroke="rgb(0,0,0)"  stroke-width="2.0"/>
<line x1="205.3" y1="334.0" x2="184.5" y2="340.1" stroke="rgb(0,0,0)"  stroke-width="2.0"/>
<line x1="303.2" y1="321.6" x2="315.8" y2="339.1" stroke="rgb(0,0,0)"  stroke-width="2.0"/>
<line x1="303.2" y1="321.6" x2="293.1" y2="340.8" stroke="rgb(0,0,0)"  stroke-width="2.0"/>
<line x1="240.4" y1="367.9" x2="219.7" y2="374.1" stroke="rgb(0,0,0)"  stroke-width="2.0"/>
<line x1="240.4" y1="367.9" x2="256.1" y2="382.8" stroke="rgb(0,0,0)"  stroke-width="2.0"/>
<line x1="240.4" y1="367.9" x2="235.4" y2="389.0" stroke="rgb(0,0,0)"  stroke-width="2.0"/>
<line x1="237.9" y1="174.9" x2="220.1" y2="162.6" stroke="rgb(0,0,0)"  stroke-width="2.0"/>
<line x1="195.5" y1="193.1" x2="195.4" y2="213.5" stroke="rgb(0,0,0)"  stroke-width="2.0"/>
<polygon points="239.929361 126.148037 221.238654 140.455113 217.526280 133.368628 " stroke-width="2.000000" fill="rgb(0,0,0)"  stroke="rgb(0,0,0)" />
<line x1="326.7" y1="70.6" x2="338.2" y2="88.9" stroke="rgb(0,0,0)"  stroke-width="2.0"/>
<line x1="326.7" y1="70.6" x2="336.7" y2="51.5" stroke="rgb(0,0,0)"  stroke-width="2.0"/>
<line x1="326.7" y1="70.6" x2="348.3" y2="69.8" stroke="rgb(0,0,0)"  stroke-width="2.0"/>
<line x1="322.1" y1="124.7" x2="339.8" y2="114.5" stroke="rgb(0,0,0)"  stroke-width="2.0"/>
<line x1="321.4" y1="173.9" x2="339.8" y2="185.3" stroke="rgb(0,0,0)"  stroke-width="2.0"/>
<line x1="321.4" y1="173.9" x2="320.6" y2="195.5" stroke="rgb(0,0,0)"  stroke-width="2.0"/>
<line x1="153.5" y1="123.6" x2="153.5" y2="145.2" stroke="rgb(0,0,0)"  stroke-width="2.0"/>
<line x1="153.5" y1="123.6" x2="135.0" y2="134.8" stroke="rgb(0,0,0)"  stroke-width="2.0"/>
<line x1="198.0" y1="99.7" x2="198.8" y2="78.0" stroke="rgb(0,0,0)"  stroke-width="2.0"/>
<line x1="198.0" y1="99.7" x2="179.7" y2="88.2" stroke="rgb(0,0,0)"  stroke-width="2.0"/>
<line x1="111.2" y1="101.0" x2="110.7" y2="80.6" stroke="rgb(0,0,0)"  stroke-width="2.0"/>
<line x1="69.2" y1="126.1" x2="51.4" y2="116.1" stroke="rgb(0,0,0)"  stroke-width="2.0"/>
<line x1="69.2" y1="126.1" x2="69.4" y2="146.5" stroke="rgb(0,0,0)"  stroke-width="2.0"/>
<line x1="153.7" y1="174.9" x2="151.4" y2="154.7" stroke="rgb(0,0,0)"  stroke-width="2.0"/>
<line x1="153.7" y1="174.9" x2="137.3" y2="187.1" stroke="rgb(0,0,0)"  stroke-width="2.0"/>
<line x1="279.5" y1="195.4" x2="279.4" y2="173.8" stroke="rgb(0,0,0)"  stroke-width="2.0"/>
<line x1="251.8" y1="265.7" x2="278.6" y2="247.5" stroke="rgb(0,0,0)"  stroke-width="2.0"/>
<line x1="256.8" y1="271.0" x2="277.7" y2="256.8" stroke="rgb(0,0,0)"  stroke-width="2.0"/>
<line x1="278.6" y1="247.5" x2="306.9" y2="268.1" stroke="rgb(0,0,0)"  stroke-width="2.0"/>
<line x1="313.5" y1="288.1" x2="303.2" y2="321.6" stroke="rgb(0,0,0)"  stroke-width="2.0"/>
<line x1="303.2" y1="321.6" x2="251.7" y2="320.6" stroke="rgb(0,0,0)"  stroke-width="2.0"/>
<line x1="251.7" y1="320.6" x2="242.1" y2="287.1" stroke="rgb(0,0,0)"  stroke-width="2.0"/>
<line x1="237.9" y1="174.9" x2="279.5" y2="195.4" stroke="rgb(0,0,0)"  stroke-width="2.0"/>
<line x1="279.5" y1="195.4" x2="321.4" y2="173.9" stroke="rgb(0,0,0)"  stroke-width="2.0"/>
<line x1="321.4" y1="173.9" x2="322.1" y2="124.7" stroke="rgb(0,0,0)"  stroke-width="2.0"/>
<line x1="322.1" y1="124.7" x2="279.3" y2="100.6" stroke="rgb(0,0,0)"  stroke-width="2.0"/>
<line x1="313.4" y1="128.0" x2="281.0" y2="109.8" stroke="rgb(0,0,0)"  stroke-width="2.0"/>
<line x1="279.3" y1="100.6" x2="239.9" y2="126.1" stroke="rgb(0,0,0)"  stroke-width="2.0"/>
<line x1="239.9" y1="126.1" x2="237.9" y2="174.9" stroke="rgb(0,0,0)"  stroke-width="2.0"/>
<text x="232.557492" y="282.630165" fill="rgb(12,12,255)"  stroke="rgb(12,12,255)" stroke-width="1" font-size="16" >N</text>
<text x="311.394639" y="283.710835" fill="rgb(255,12,12)"  stroke="rgb(255,12,12)" stroke-width="1" font-size="16" >O</text>
<text x="288.354365" y="79.939814" fill="rgb(255,12,12)"  stroke="rgb(255,12,12)" stroke-width="1" font-size="16" >O</text>
<text x="174.305841" y="318.061614" fill="rgb(191,191,191)"  stroke="rgb(191,191,191)" stroke-width="1" font-size="16" >H</text>
<text x="190.995309" y="375.656325" fill="rgb(191,191,191)"  stroke="rgb(191,191,191)" stroke-width="1" font-size="16" >H</text>
<text x="166.024414" y="351.676804" fill="rgb(191,191,191)"  stroke="rgb(191,191,191)" stroke-width="1" font-size="16" >H</text>
<text x="317.415626" y="357.681902" fill="rgb(191,191,191)"  stroke="rgb(191,191,191)" stroke-width="1" font-size="16" >H</text>
<text x="281.083965" y="360.269311" fill="rgb(191,191,191)"  stroke="rgb(191,191,191)" stroke-width="1" font-size="16" >H</text>
<text x="201.261653" y="385.805915" fill="rgb(191,191,191)"  stroke="rgb(191,191,191)" stroke-width="1" font-size="16" >H</text>
<text x="259.591088" y="399.711531" fill="rgb(191,191,191)"  stroke="rgb(191,191,191)" stroke-width="1" font-size="16" >H</text>
<text x="226.412165" y="409.596981" fill="rgb(191,191,191)"  stroke="rgb(191,191,191)" stroke-width="1" font-size="16" >H</text>
<text x="203.378725" y="163.254355" fill="rgb(191,191,191)"  stroke="rgb(191,191,191)" stroke-width="1" font-size="16" >H</text>
<text x="189.377816" y="234.540245" fill="rgb(191,191,191)"  stroke="rgb(191,191,191)" stroke-width="1" font-size="16" >H</text>
<text x="203.262355" y="150.213460" fill="rgb(191,191,191)"  stroke="rgb(191,191,191)" stroke-width="1" font-size="16" >H</text>
<text x="339.176510" y="107.916314" fill="rgb(191,191,191)"  stroke="rgb(191,191,191)" stroke-width="1" font-size="16" >H</text>
<text x="336.783935" y="48.000000" fill="rgb(191,191,191)"  stroke="rgb(191,191,191)" stroke-width="1" font-size="16" >H</text>
<text x="355.276572" y="77.267480" fill="rgb(191,191,191)"  stroke="rgb(191,191,191)" stroke-width="1" font-size="16" >H</text>
<text x="345.055970" y="115.992860" fill="rgb(191,191,191)"  stroke="rgb(191,191,191)" stroke-width="1" font-size="16" >H</text>
<text x="344.868267" y="200.109647" fill="rgb(191,191,191)"  stroke="rgb(191,191,191)" stroke-width="1" font-size="16" >H</text>
<text x="314.063118" y="216.468391" fill="rgb(191,191,191)"  stroke="rgb(191,191,191)" stroke-width="1" font-size="16" >H</text>
<text x="147.536676" y="166.241312" fill="rgb(191,191,191)"  stroke="rgb(191,191,191)" stroke-width="1" font-size="16" >H</text>
<text x="117.806420" y="149.445716" fill="rgb(191,191,191)"  stroke="rgb(191,191,191)" stroke-width="1" font-size="16" >H</text>
<text x="193.252991" y="73.056584" fill="rgb(191,191,191)"  stroke="rgb(191,191,191)" stroke-width="1" font-size="16" >H</text>
<text x="162.633958" y="89.376863" fill="rgb(191,191,191)"  stroke="rgb(191,191,191)" stroke-width="1" font-size="16" >H</text>
<text x="104.376609" y="75.636216" fill="rgb(191,191,191)"  stroke="rgb(191,191,191)" stroke-width="1" font-size="16" >H</text>
<text x="34.000000" y="117.808787" fill="rgb(191,191,191)"  stroke="rgb(191,191,191)" stroke-width="1" font-size="16" >H</text>
<text x="63.634585" y="167.473873" fill="rgb(191,191,191)"  stroke="rgb(191,191,191)" stroke-width="1" font-size="16" >H</text>
<text x="143.982473" y="149.766062" fill="rgb(191,191,191)"  stroke="rgb(191,191,191)" stroke-width="1" font-size="16" >H</text>
<text x="120.861050" y="202.777657" fill="rgb(191,191,191)"  stroke="rgb(191,191,191)" stroke-width="1" font-size="16" >H</text>
<text x="273.245116" y="168.814850" fill="rgb(191,191,191)"  stroke="rgb(191,191,191)" stroke-width="1" font-size="16" >H</text>
</svg>
</g>
<text font-size="18.000000" fill ="black" font-family="sans-serif"
x="10.000000" y="20.000000" ></text>
</svg>
