<?xml version="1.0"?>
<svg version="1.1" id="topsvg"
xmlns="http://www.w3.org/2000/svg" xmlns:xlink="http://www.w3.org/1999/xlink"
xmlns:cml="http://www.xml-cml.org/schema" x="0" y="0" width="200px" height="200px" viewBox="0 0 100 100">
<title> - Open Babel Depiction</title>
<rect x="0" y="0" width="100" height="100" fill="white"/>
<g transform="translate(0,0)">
<svg width="100" height="100" x="0" y="0" viewBox="0 0 324.634 298.589"
font-family="sans-serif" stroke="rgb(0,0,0)" stroke-width="2"  stroke-linecap="round">
<line x1="159.3" y1="202.0" x2="141.7" y2="212.6" stroke="rgb(0,0,0)"  stroke-width="2.0"/>
<line x1="159.2" y1="151.8" x2="134.0" y2="135.5" stroke="rgb(0,0,0)"  stroke-width="2.0"/>
<line x1="111.3" y1="133.8" x2="71.7" y2="151.9" stroke="rgb(0,0,0)"  stroke-width="2.0"/>
<line x1="202.3" y1="126.3" x2="211.3" y2="108.9" stroke="rgb(0,0,0)"  stroke-width="2.0"/>
<line x1="230.2" y1="96.8" x2="249.8" y2="95.8" stroke="rgb(0,0,0)"  stroke-width="2.0"/>
<line x1="249.8" y1="95.8" x2="261.6" y2="114.2" stroke="rgb(0,0,0)"  stroke-width="2.0"/>
<line x1="249.8" y1="95.8" x2="259.8" y2="76.4" stroke="rgb(0,0,0)"  stroke-width="2.0"/>
<line x1="249.8" y1="95.8" x2="271.6" y2="94.8" stroke="rgb(0,0,0)"  stroke-width="2.0"/>
<line x1="246.2" y1="150.6" x2="264.0" y2="140.1" stroke="rgb(0,0,0)"  stroke-width="2.0"/>
<line x1="246.2" y1="202.0" x2="263.8" y2="212.6" stroke="rgb(0,0,0)"  stroke-width="2.0"/>
<line x1="202.6" y1="225.0" x2="202.6" y2="245.6" stroke="rgb(0,0,0)"  stroke-width="2.0"/>
<line x1="71.7" y1="151.9" x2="53.9" y2="139.2" stroke="rgb(0,0,0)"  stroke-width="2.0"/>
<line x1="71.7" y1="151.9" x2="69.6" y2="173.6" stroke="rgb(0,0,0)"  stroke-width="2.0"/>
<line x1="71.7" y1="151.9" x2="51.8" y2="161.0" stroke="rgb(0,0,0)"  stroke-width="2.0"/>
<line x1="152.2" y1="90.1" x2="131.0" y2="118.1" stroke="rgb(0,0,0)"  stroke-width="2.0"/>
<line x1="152.2" y1="90.1" x2="173.9" y2="92.9" stroke="rgb(0,0,0)"  stroke-width="2.0"/>
<line x1="152.2" y1="90.1" x2="143.8" y2="70.0" stroke="rgb(0,0,0)"  stroke-width="2.0"/>
<line x1="152.2" y1="90.1" x2="165.4" y2="72.7" stroke="rgb(0,0,0)"  stroke-width="2.0"/>
<line x1="116.2" y1="74.6" x2="121.5" y2="115.5" stroke="rgb(0,0,0)"  stroke-width="2.0"/>
<line x1="116.2" y1="74.6" x2="133.6" y2="61.3" stroke="rgb(0,0,0)"  stroke-width="2.0"/>
<line x1="116.2" y1="74.6" x2="96.1" y2="66.1" stroke="rgb(0,0,0)"  stroke-width="2.0"/>
<line x1="116.2" y1="74.6" x2="113.5" y2="52.9" stroke="rgb(0,0,0)"  stroke-width="2.0"/>
<line x1="159.2" y1="151.8" x2="202.3" y2="126.3" stroke="rgb(0,0,0)"  stroke-width="2.0"/>
<line x1="202.3" y1="126.3" x2="246.2" y2="150.6" stroke="rgb(0,0,0)"  stroke-width="2.0"/>
<line x1="204.1" y1="135.5" x2="237.5" y2="154.0" stroke="rgb(0,0,0)"  stroke-width="2.0"/>
<line x1="246.2" y1="150.6" x2="246.2" y2="202.0" stroke="rgb(0,0,0)"  stroke-width="2.0"/>
<line x1="246.2" y1="202.0" x2="202.6" y2="225.0" stroke="rgb(0,0,0)"  stroke-width="2.0"/>
<line x1="237.5" y1="198.4" x2="204.5" y2="215.8" stroke="rgb(0,0,0)"  stroke-width="2.0"/>
<line x1="202.6" y1="225.0" x2="159.3" y2="202.0" stroke="rgb(0,0,0)"  stroke-width="2.0"/>
<line x1="159.3" y1="202.0" x2="159.2" y2="151.8" stroke="rgb(0,0,0)"  stroke-width="2.0"/>
<line x1="166.5" y1="195.9" x2="166.5" y2="157.8" stroke="rgb(0,0,0)"  stroke-width="2.0"/>
<text x="105.115339" y="136.443036" fill="rgb(127,153,153)"  stroke="rgb(127,153,153)" stroke-width="1" font-size="16" >Si</text>
<text x="211.257545" y="105.359913" fill="rgb(255,12,12)"  stroke="rgb(255,12,12)" stroke-width="1" font-size="16" >O</text>
<text x="124.528496" y="227.303902" fill="rgb(191,191,191)"  stroke="rgb(191,191,191)" stroke-width="1" font-size="16" >H</text>
<text x="262.638055" y="133.174730" fill="rgb(191,191,191)"  stroke="rgb(191,191,191)" stroke-width="1" font-size="16" >H</text>
<text x="259.806391" y="72.852813" fill="rgb(191,191,191)"  stroke="rgb(191,191,191)" stroke-width="1" font-size="16" >H</text>
<text x="278.634181" y="102.195880" fill="rgb(191,191,191)"  stroke="rgb(191,191,191)" stroke-width="1" font-size="16" >H</text>
<text x="269.187701" y="141.474207" fill="rgb(191,191,191)"  stroke="rgb(191,191,191)" stroke-width="1" font-size="16" >H</text>
<text x="268.959604" y="227.329970" fill="rgb(191,191,191)"  stroke="rgb(191,191,191)" stroke-width="1" font-size="16" >H</text>
<text x="196.551796" y="266.588746" fill="rgb(191,191,191)"  stroke="rgb(191,191,191)" stroke-width="1" font-size="16" >H</text>
<text x="37.330218" y="139.642913" fill="rgb(191,191,191)"  stroke="rgb(191,191,191)" stroke-width="1" font-size="16" >H</text>
<text x="62.388318" y="194.588255" fill="rgb(191,191,191)"  stroke="rgb(191,191,191)" stroke-width="1" font-size="16" >H</text>
<text x="34.000000" y="174.349522" fill="rgb(191,191,191)"  stroke="rgb(191,191,191)" stroke-width="1" font-size="16" >H</text>
<text x="180.806577" y="102.538026" fill="rgb(191,191,191)"  stroke="rgb(191,191,191)" stroke-width="1" font-size="16" >H</text>
<text x="132.723700" y="66.000123" fill="rgb(191,191,191)"  stroke="rgb(191,191,191)" stroke-width="1" font-size="16" >H</text>
<text x="167.313002" y="70.389363" fill="rgb(191,191,191)"  stroke="rgb(191,191,191)" stroke-width="1" font-size="16" >H</text>
<text x="137.966676" y="61.464248" fill="rgb(191,191,191)"  stroke="rgb(191,191,191)" stroke-width="1" font-size="16" >H</text>
<text x="78.065109" y="69.125054" fill="rgb(191,191,191)"  stroke="rgb(191,191,191)" stroke-width="1" font-size="16" >H</text>
<text x="105.801721" y="48.000000" fill="rgb(191,191,191)"  stroke="rgb(191,191,191)" stroke-width="1" font-size="16" >H</text>
</svg>
</g>
<text font-size="18.000000" fill ="black" font-family="sans-serif"
x="10.000000" y="20.000000" ></text>
</svg>
