<?xml version="1.0"?>
<svg version="1.1" id="topsvg"
xmlns="http://www.w3.org/2000/svg" xmlns:xlink="http://www.w3.org/1999/xlink"
xmlns:cml="http://www.xml-cml.org/schema" x="0" y="0" width="200px" height="200px" viewBox="0 0 100 100">
<title> - Open Babel Depiction</title>
<rect x="0" y="0" width="100" height="100" fill="white"/>
<g transform="translate(0,0)">
<svg width="100" height="100" x="0" y="0" viewBox="0 0 254.478 469.111"
font-family="sans-serif" stroke="rgb(0,0,0)" stroke-width="2"  stroke-linecap="round">
<line x1="119.9" y1="343.7" x2="73.0" y2="359.5" stroke="rgb(0,0,0)"  stroke-width="2.0"/>
<line x1="119.9" y1="343.7" x2="110.1" y2="312.5" stroke="rgb(0,0,0)"  stroke-width="2.0"/>
<line x1="119.9" y1="343.7" x2="139.4" y2="353.6" stroke="rgb(0,0,0)"  stroke-width="2.0"/>
<line x1="119.9" y1="343.7" x2="136.6" y2="329.6" stroke="rgb(0,0,0)"  stroke-width="2.0"/>
<line x1="73.0" y1="359.5" x2="56.6" y2="345.0" stroke="rgb(0,0,0)"  stroke-width="2.0"/>
<line x1="73.0" y1="359.5" x2="68.7" y2="380.9" stroke="rgb(0,0,0)"  stroke-width="2.0"/>
<line x1="73.0" y1="359.5" x2="52.3" y2="366.4" stroke="rgb(0,0,0)"  stroke-width="2.0"/>
<line x1="114.8" y1="289.9" x2="143.5" y2="268.5" stroke="rgb(0,0,0)"  stroke-width="2.0"/>
<line x1="118.4" y1="294.7" x2="147.1" y2="273.3" stroke="rgb(0,0,0)"  stroke-width="2.0"/>
<line x1="169.3" y1="345.2" x2="179.8" y2="311.7" stroke="rgb(0,0,0)"  stroke-width="2.0"/>
<line x1="169.3" y1="345.2" x2="121.7" y2="346.5" stroke="rgb(0,0,0)"  stroke-width="2.0"/>
<line x1="169.3" y1="345.2" x2="182.5" y2="362.6" stroke="rgb(0,0,0)"  stroke-width="2.0"/>
<line x1="169.3" y1="345.2" x2="159.8" y2="364.8" stroke="rgb(0,0,0)"  stroke-width="2.0"/>
<line x1="121.7" y1="346.5" x2="107.8" y2="395.6" stroke="rgb(0,0,0)"  stroke-width="2.0"/>
<line x1="121.7" y1="346.5" x2="108.3" y2="329.3" stroke="rgb(0,0,0)"  stroke-width="2.0"/>
<line x1="121.7" y1="346.5" x2="100.3" y2="350.7" stroke="rgb(0,0,0)"  stroke-width="2.0"/>
<line x1="107.8" y1="395.6" x2="86.7" y2="401.0" stroke="rgb(0,0,0)"  stroke-width="2.0"/>
<line x1="107.8" y1="395.6" x2="123.0" y2="411.2" stroke="rgb(0,0,0)"  stroke-width="2.0"/>
<line x1="107.8" y1="395.6" x2="101.9" y2="416.6" stroke="rgb(0,0,0)"  stroke-width="2.0"/>
<line x1="145.3" y1="270.9" x2="173.2" y2="291.5" stroke="rgb(0,0,0)"  stroke-width="2.0"/>
<line x1="143.4" y1="221.7" x2="145.3" y2="270.9" stroke="rgb(0,0,0)"  stroke-width="2.0"/>
<line x1="101.8" y1="200.0" x2="84.2" y2="210.9" stroke="rgb(0,0,0)"  stroke-width="2.0"/>
<line x1="101.0" y1="150.2" x2="83.1" y2="139.9" stroke="rgb(0,0,0)"  stroke-width="2.0"/>
<line x1="142.6" y1="127.3" x2="151.5" y2="109.9" stroke="rgb(0,0,0)"  stroke-width="2.0"/>
<line x1="150.5" y1="87.4" x2="139.9" y2="71.0" stroke="rgb(0,0,0)"  stroke-width="2.0"/>
<line x1="139.9" y1="71.0" x2="149.8" y2="51.6" stroke="rgb(0,0,0)"  stroke-width="2.0"/>
<line x1="139.9" y1="71.0" x2="118.0" y2="72.0" stroke="rgb(0,0,0)"  stroke-width="2.0"/>
<line x1="139.9" y1="71.0" x2="128.0" y2="52.6" stroke="rgb(0,0,0)"  stroke-width="2.0"/>
<line x1="185.6" y1="149.3" x2="203.2" y2="138.5" stroke="rgb(0,0,0)"  stroke-width="2.0"/>
<line x1="185.6" y1="199.0" x2="203.3" y2="209.5" stroke="rgb(0,0,0)"  stroke-width="2.0"/>
<line x1="101.0" y1="150.2" x2="101.8" y2="200.0" stroke="rgb(0,0,0)"  stroke-width="2.0"/>
<line x1="101.8" y1="200.0" x2="143.4" y2="221.7" stroke="rgb(0,0,0)"  stroke-width="2.0"/>
<line x1="110.4" y1="196.4" x2="141.4" y2="212.5" stroke="rgb(0,0,0)"  stroke-width="2.0"/>
<line x1="143.4" y1="221.7" x2="185.6" y2="199.0" stroke="rgb(0,0,0)"  stroke-width="2.0"/>
<line x1="185.6" y1="199.0" x2="185.6" y2="149.3" stroke="rgb(0,0,0)"  stroke-width="2.0"/>
<line x1="178.4" y1="193.0" x2="178.4" y2="155.3" stroke="rgb(0,0,0)"  stroke-width="2.0"/>
<line x1="185.6" y1="149.3" x2="142.6" y2="127.3" stroke="rgb(0,0,0)"  stroke-width="2.0"/>
<line x1="142.6" y1="127.3" x2="101.0" y2="150.2" stroke="rgb(0,0,0)"  stroke-width="2.0"/>
<line x1="140.8" y1="136.5" x2="109.7" y2="153.7" stroke="rgb(0,0,0)"  stroke-width="2.0"/>
<text x="100.147644" y="308.062012" fill="rgb(12,12,255)"  stroke="rgb(12,12,255)" stroke-width="1" font-size="16" >N</text>
<text x="177.634605" y="307.254618" fill="rgb(255,12,12)"  stroke="rgb(255,12,12)" stroke-width="1" font-size="16" >O</text>
<text x="151.491994" y="106.350439" fill="rgb(255,12,12)"  stroke="rgb(255,12,12)" stroke-width="1" font-size="16" >O</text>
<text x="144.993780" y="367.470527" fill="rgb(191,191,191)"  stroke="rgb(191,191,191)" stroke-width="1" font-size="16" >H</text>
<text x="140.504283" y="329.158416" fill="rgb(191,191,191)"  stroke="rgb(191,191,191)" stroke-width="1" font-size="16" >H</text>
<text x="40.895399" y="344.424008" fill="rgb(191,191,191)"  stroke="rgb(191,191,191)" stroke-width="1" font-size="16" >H</text>
<text x="60.123078" y="401.612191" fill="rgb(191,191,191)"  stroke="rgb(191,191,191)" stroke-width="1" font-size="16" >H</text>
<text x="34.000000" y="378.568928" fill="rgb(191,191,191)"  stroke="rgb(191,191,191)" stroke-width="1" font-size="16" >H</text>
<text x="184.308622" y="380.939018" fill="rgb(191,191,191)"  stroke="rgb(191,191,191)" stroke-width="1" font-size="16" >H</text>
<text x="148.213586" y="384.565776" fill="rgb(191,191,191)"  stroke="rgb(191,191,191)" stroke-width="1" font-size="16" >H</text>
<text x="94.307066" y="326.999941" fill="rgb(191,191,191)"  stroke="rgb(191,191,191)" stroke-width="1" font-size="16" >H</text>
<text x="81.518999" y="361.167650" fill="rgb(191,191,191)"  stroke="rgb(191,191,191)" stroke-width="1" font-size="16" >H</text>
<text x="68.050507" y="412.144115" fill="rgb(191,191,191)"  stroke="rgb(191,191,191)" stroke-width="1" font-size="16" >H</text>
<text x="126.111197" y="428.562196" fill="rgb(191,191,191)"  stroke="rgb(191,191,191)" stroke-width="1" font-size="16" >H</text>
<text x="92.343928" y="437.111449" fill="rgb(191,191,191)"  stroke="rgb(191,191,191)" stroke-width="1" font-size="16" >H</text>
<text x="67.191024" y="225.701391" fill="rgb(191,191,191)"  stroke="rgb(191,191,191)" stroke-width="1" font-size="16" >H</text>
<text x="65.885521" y="141.393910" fill="rgb(191,191,191)"  stroke="rgb(191,191,191)" stroke-width="1" font-size="16" >H</text>
<text x="149.779539" y="48.000000" fill="rgb(191,191,191)"  stroke="rgb(191,191,191)" stroke-width="1" font-size="16" >H</text>
<text x="99.063523" y="80.683148" fill="rgb(191,191,191)"  stroke="rgb(191,191,191)" stroke-width="1" font-size="16" >H</text>
<text x="114.986750" y="49.702688" fill="rgb(191,191,191)"  stroke="rgb(191,191,191)" stroke-width="1" font-size="16" >H</text>
<text x="208.292759" y="139.749823" fill="rgb(191,191,191)"  stroke="rgb(191,191,191)" stroke-width="1" font-size="16" >H</text>
<text x="208.478329" y="224.216829" fill="rgb(191,191,191)"  stroke="rgb(191,191,191)" stroke-width="1" font-size="16" >H</text>
</svg>
</g>
<text font-size="18.000000" fill ="black" font-family="sans-serif"
x="10.000000" y="20.000000" ></text>
</svg>
