<?xml version="1.0"?>
<svg version="1.1" id="topsvg"
xmlns="http://www.w3.org/2000/svg" xmlns:xlink="http://www.w3.org/1999/xlink"
xmlns:cml="http://www.xml-cml.org/schema" x="0" y="0" width="200px" height="200px" viewBox="0 0 100 100">
<title> - Open Babel Depiction</title>
<rect x="0" y="0" width="100" height="100" fill="white"/>
<g transform="translate(0,0)">
<svg width="100" height="100" x="0" y="0" viewBox="0 0 301.747 432.354"
font-family="sans-serif" stroke="rgb(0,0,0)" stroke-width="2"  stroke-linecap="round">
<line x1="124.9" y1="336.9" x2="166.0" y2="314.8" stroke="rgb(0,0,0)"  stroke-width="2.0"/>
<line x1="166.0" y1="314.8" x2="153.6" y2="360.0" stroke="rgb(0,0,0)"  stroke-width="2.0"/>
<line x1="150.1" y1="121.4" x2="150.6" y2="73.5" stroke="rgb(0,0,0)"  stroke-width="2.0"/>
<line x1="183.7" y1="105.8" x2="183.0" y2="104.4" stroke="rgb(0,0,0)"  stroke-width="1.0"/>
<line x1="177.3" y1="109.6" x2="176.1" y2="107.0" stroke="rgb(0,0,0)"  stroke-width="1.0"/>
<line x1="171.0" y1="113.5" x2="169.2" y2="109.7" stroke="rgb(0,0,0)"  stroke-width="1.0"/>
<line x1="164.6" y1="117.3" x2="162.2" y2="112.4" stroke="rgb(0,0,0)"  stroke-width="1.0"/>
<line x1="158.3" y1="121.2" x2="155.3" y2="115.1" stroke="rgb(0,0,0)"  stroke-width="1.0"/>
<line x1="151.9" y1="125.0" x2="148.4" y2="117.8" stroke="rgb(0,0,0)"  stroke-width="1.0"/>
<line x1="191.7" y1="101.0" x2="200.0" y2="65.1" stroke="rgb(0,0,0)"  stroke-width="2.0"/>
<line x1="190.9" y1="190.9" x2="191.0" y2="241.9" stroke="rgb(0,0,0)"  stroke-width="2.0"/>
<line x1="182.6" y1="188.0" x2="183.2" y2="186.6" stroke="rgb(0,0,0)"  stroke-width="1.0"/>
<line x1="175.9" y1="185.8" x2="177.1" y2="183.1" stroke="rgb(0,0,0)"  stroke-width="1.0"/>
<line x1="169.2" y1="183.5" x2="170.9" y2="179.7" stroke="rgb(0,0,0)"  stroke-width="1.0"/>
<line x1="162.6" y1="181.2" x2="164.8" y2="176.3" stroke="rgb(0,0,0)"  stroke-width="1.0"/>
<line x1="155.9" y1="179.0" x2="158.7" y2="172.8" stroke="rgb(0,0,0)"  stroke-width="1.0"/>
<line x1="149.3" y1="176.7" x2="152.5" y2="169.4" stroke="rgb(0,0,0)"  stroke-width="1.0"/>
<line x1="149.9" y1="162.7" x2="151.5" y2="162.7" stroke="rgb(0,0,0)"  stroke-width="1.0"/>
<line x1="149.2" y1="154.5" x2="152.1" y2="154.4" stroke="rgb(0,0,0)"  stroke-width="1.0"/>
<line x1="148.4" y1="146.2" x2="152.6" y2="146.2" stroke="rgb(0,0,0)"  stroke-width="1.0"/>
<line x1="147.7" y1="138.0" x2="153.1" y2="137.9" stroke="rgb(0,0,0)"  stroke-width="1.0"/>
<line x1="146.9" y1="129.7" x2="153.6" y2="129.6" stroke="rgb(0,0,0)"  stroke-width="1.0"/>
<line x1="146.1" y1="121.5" x2="154.1" y2="121.3" stroke="rgb(0,0,0)"  stroke-width="1.0"/>
<line x1="150.9" y1="173.0" x2="150.0" y2="204.1" stroke="rgb(0,0,0)"  stroke-width="2.0"/>
<line x1="215.4" y1="48.7" x2="219.6" y2="47.4" stroke="rgb(0,0,0)"  stroke-width="2.0"/>
<line x1="124.9" y1="336.9" x2="107.4" y2="326.0" stroke="rgb(0,0,0)"  stroke-width="2.0"/>
<line x1="124.9" y1="336.9" x2="124.2" y2="357.4" stroke="rgb(0,0,0)"  stroke-width="2.0"/>
<line x1="124.9" y1="336.9" x2="106.8" y2="346.6" stroke="rgb(0,0,0)"  stroke-width="2.0"/>
<line x1="213.9" y1="314.4" x2="226.1" y2="330.9" stroke="rgb(0,0,0)"  stroke-width="2.0"/>
<line x1="213.9" y1="314.4" x2="204.7" y2="332.8" stroke="rgb(0,0,0)"  stroke-width="2.0"/>
<line x1="69.2" y1="122.1" x2="51.3" y2="112.1" stroke="rgb(0,0,0)"  stroke-width="2.0"/>
<line x1="69.2" y1="122.1" x2="69.0" y2="101.6" stroke="rgb(0,0,0)"  stroke-width="2.0"/>
<line x1="69.5" y1="170.5" x2="52.7" y2="180.3" stroke="rgb(0,0,0)"  stroke-width="2.0"/>
<line x1="109.9" y1="97.8" x2="109.8" y2="77.3" stroke="rgb(0,0,0)"  stroke-width="2.0"/>
<line x1="109.9" y1="97.8" x2="127.7" y2="87.6" stroke="rgb(0,0,0)"  stroke-width="2.0"/>
<line x1="150.6" y1="73.5" x2="168.5" y2="63.4" stroke="rgb(0,0,0)"  stroke-width="2.0"/>
<line x1="150.6" y1="73.5" x2="132.9" y2="63.1" stroke="rgb(0,0,0)"  stroke-width="2.0"/>
<line x1="150.6" y1="73.5" x2="150.8" y2="53.0" stroke="rgb(0,0,0)"  stroke-width="2.0"/>
<line x1="191.7" y1="101.0" x2="175.6" y2="88.2" stroke="rgb(0,0,0)"  stroke-width="2.0"/>
<line x1="232.5" y1="122.2" x2="250.1" y2="111.6" stroke="rgb(0,0,0)"  stroke-width="2.0"/>
<line x1="232.5" y1="122.2" x2="250.4" y2="132.3" stroke="rgb(0,0,0)"  stroke-width="2.0"/>
<line x1="232.5" y1="171.5" x2="249.8" y2="182.5" stroke="rgb(0,0,0)"  stroke-width="2.0"/>
<line x1="232.5" y1="171.5" x2="231.1" y2="192.0" stroke="rgb(0,0,0)"  stroke-width="2.0"/>
<line x1="190.9" y1="190.9" x2="190.7" y2="170.3" stroke="rgb(0,0,0)"  stroke-width="2.0"/>
<line x1="109.6" y1="193.5" x2="109.0" y2="212.8" stroke="rgb(0,0,0)"  stroke-width="2.0"/>
<line x1="153.6" y1="360.0" x2="133.7" y2="365.2" stroke="rgb(0,0,0)"  stroke-width="2.0"/>
<line x1="153.6" y1="360.0" x2="168.1" y2="374.6" stroke="rgb(0,0,0)"  stroke-width="2.0"/>
<line x1="153.6" y1="360.0" x2="148.2" y2="379.8" stroke="rgb(0,0,0)"  stroke-width="2.0"/>
<line x1="164.7" y1="259.9" x2="191.0" y2="241.9" stroke="rgb(0,0,0)"  stroke-width="2.0"/>
<line x1="169.8" y1="265.2" x2="190.2" y2="251.2" stroke="rgb(0,0,0)"  stroke-width="2.0"/>
<line x1="191.0" y1="241.9" x2="217.4" y2="262.0" stroke="rgb(0,0,0)"  stroke-width="2.0"/>
<line x1="223.9" y1="282.3" x2="213.9" y2="314.4" stroke="rgb(0,0,0)"  stroke-width="2.0"/>
<line x1="213.9" y1="314.4" x2="166.0" y2="314.8" stroke="rgb(0,0,0)"  stroke-width="2.0"/>
<line x1="166.0" y1="314.8" x2="155.6" y2="281.2" stroke="rgb(0,0,0)"  stroke-width="2.0"/>
<line x1="69.2" y1="122.1" x2="109.9" y2="97.8" stroke="rgb(0,0,0)"  stroke-width="2.0"/>
<line x1="109.9" y1="97.8" x2="150.1" y2="121.4" stroke="rgb(0,0,0)"  stroke-width="2.0"/>
<line x1="150.1" y1="121.4" x2="150.9" y2="173.0" stroke="rgb(0,0,0)"  stroke-width="2.0"/>
<line x1="150.9" y1="173.0" x2="109.6" y2="193.5" stroke="rgb(0,0,0)"  stroke-width="2.0"/>
<line x1="109.6" y1="193.5" x2="69.5" y2="170.5" stroke="rgb(0,0,0)"  stroke-width="2.0"/>
<line x1="107.9" y1="184.2" x2="78.2" y2="167.2" stroke="rgb(0,0,0)"  stroke-width="2.0"/>
<line x1="69.5" y1="170.5" x2="69.2" y2="122.1" stroke="rgb(0,0,0)"  stroke-width="2.0"/>
<line x1="150.1" y1="121.4" x2="191.7" y2="101.0" stroke="rgb(0,0,0)"  stroke-width="2.0"/>
<line x1="191.7" y1="101.0" x2="232.5" y2="122.2" stroke="rgb(0,0,0)"  stroke-width="2.0"/>
<line x1="232.5" y1="122.2" x2="232.5" y2="171.5" stroke="rgb(0,0,0)"  stroke-width="2.0"/>
<line x1="232.5" y1="171.5" x2="190.9" y2="190.9" stroke="rgb(0,0,0)"  stroke-width="2.0"/>
<line x1="190.9" y1="190.9" x2="150.9" y2="173.0" stroke="rgb(0,0,0)"  stroke-width="2.0"/>
<text x="145.781061" y="276.822294" fill="rgb(12,12,255)"  stroke="rgb(12,12,255)" stroke-width="1" font-size="16" >N</text>
<text x="221.783998" y="277.878761" fill="rgb(255,12,12)"  stroke="rgb(255,12,12)" stroke-width="1" font-size="16" >O</text>
<text x="143.671261" y="225.099292" fill="rgb(191,191,191)"  stroke="rgb(191,191,191)" stroke-width="1" font-size="16" >H</text>
<text x="196.977397" y="60.428350" fill="rgb(255,12,12)"  stroke="rgb(255,12,12)" stroke-width="1" font-size="16" >O</text>
<text x="226.072565" y="51.594153" fill="rgb(191,191,191)"  stroke="rgb(191,191,191)" stroke-width="1" font-size="16" >H</text>
<text x="90.374614" y="327.184018" fill="rgb(191,191,191)"  stroke="rgb(191,191,191)" stroke-width="1" font-size="16" >H</text>
<text x="117.830562" y="378.386493" fill="rgb(191,191,191)"  stroke="rgb(191,191,191)" stroke-width="1" font-size="16" >H</text>
<text x="89.321706" y="360.711105" fill="rgb(191,191,191)"  stroke="rgb(191,191,191)" stroke-width="1" font-size="16" >H</text>
<text x="227.862968" y="349.388435" fill="rgb(191,191,191)"  stroke="rgb(191,191,191)" stroke-width="1" font-size="16" >H</text>
<text x="192.912084" y="352.457088" fill="rgb(191,191,191)"  stroke="rgb(191,191,191)" stroke-width="1" font-size="16" >H</text>
<text x="34.000000" y="113.669950" fill="rgb(191,191,191)"  stroke="rgb(191,191,191)" stroke-width="1" font-size="16" >H</text>
<text x="62.796870" y="96.607925" fill="rgb(191,191,191)"  stroke="rgb(191,191,191)" stroke-width="1" font-size="16" >H</text>
<text x="35.517953" y="194.813822" fill="rgb(191,191,191)"  stroke="rgb(191,191,191)" stroke-width="1" font-size="16" >H</text>
<text x="103.759453" y="72.294328" fill="rgb(191,191,191)"  stroke="rgb(191,191,191)" stroke-width="1" font-size="16" >H</text>
<text x="132.971055" y="89.094600" fill="rgb(191,191,191)"  stroke="rgb(191,191,191)" stroke-width="1" font-size="16" >H</text>
<text x="173.811116" y="65.054509" fill="rgb(191,191,191)"  stroke="rgb(191,191,191)" stroke-width="1" font-size="16" >H</text>
<text x="115.714635" y="64.487510" fill="rgb(191,191,191)"  stroke="rgb(191,191,191)" stroke-width="1" font-size="16" >H</text>
<text x="144.926554" y="48.000000" fill="rgb(191,191,191)"  stroke="rgb(191,191,191)" stroke-width="1" font-size="16" >H</text>
<text x="159.404653" y="88.126248" fill="rgb(191,191,191)"  stroke="rgb(191,191,191)" stroke-width="1" font-size="16" >H</text>
<text x="255.215236" y="112.861116" fill="rgb(191,191,191)"  stroke="rgb(191,191,191)" stroke-width="1" font-size="16" >H</text>
<text x="255.746773" y="146.728603" fill="rgb(191,191,191)"  stroke="rgb(191,191,191)" stroke-width="1" font-size="16" >H</text>
<text x="254.746166" y="197.537125" fill="rgb(191,191,191)"  stroke="rgb(191,191,191)" stroke-width="1" font-size="16" >H</text>
<text x="224.262166" y="212.966686" fill="rgb(191,191,191)"  stroke="rgb(191,191,191)" stroke-width="1" font-size="16" >H</text>
<text x="184.611109" y="165.342597" fill="rgb(191,191,191)"  stroke="rgb(191,191,191)" stroke-width="1" font-size="16" >H</text>
<text x="102.603393" y="233.815329" fill="rgb(191,191,191)"  stroke="rgb(191,191,191)" stroke-width="1" font-size="16" >H</text>
<text x="115.167755" y="376.489642" fill="rgb(191,191,191)"  stroke="rgb(191,191,191)" stroke-width="1" font-size="16" >H</text>
<text x="171.193640" y="391.872191" fill="rgb(191,191,191)"  stroke="rgb(191,191,191)" stroke-width="1" font-size="16" >H</text>
<text x="138.740138" y="400.354196" fill="rgb(191,191,191)"  stroke="rgb(191,191,191)" stroke-width="1" font-size="16" >H</text>
</svg>
</g>
<text font-size="18.000000" fill ="black" font-family="sans-serif"
x="10.000000" y="20.000000" ></text>
</svg>
