<?xml version="1.0"?>
<svg version="1.1" id="topsvg"
xmlns="http://www.w3.org/2000/svg" xmlns:xlink="http://www.w3.org/1999/xlink"
xmlns:cml="http://www.xml-cml.org/schema" x="0" y="0" width="200px" height="200px" viewBox="0 0 100 100">
<title> - Open Babel Depiction</title>
<rect x="0" y="0" width="100" height="100" fill="white"/>
<g transform="translate(0,0)">
<svg width="100" height="100" x="0" y="0" viewBox="0 0 531.452 485.353"
font-family="sans-serif" stroke="rgb(0,0,0)" stroke-width="2"  stroke-linecap="round">
<line x1="414.9" y1="412.2" x2="427.8" y2="364.5" stroke="rgb(0,0,0)"  stroke-width="2.0"/>
<line x1="427.8" y1="364.5" x2="457.4" y2="404.4" stroke="rgb(0,0,0)"  stroke-width="2.0"/>
<line x1="404.2" y1="241.8" x2="404.0" y2="290.3" stroke="rgb(0,0,0)"  stroke-width="2.0"/>
<line x1="362.1" y1="218.8" x2="320.8" y2="238.3" stroke="rgb(0,0,0)"  stroke-width="2.0"/>
<polygon points="362.119963 218.780805 357.998107 169.831670 365.998082 169.811757 " stroke-width="2.000000" fill="rgb(0,0,0)"  stroke="rgb(0,0,0)" />
<polygon points="361.998095 169.821714 319.449614 149.750964 323.465496 142.831955 " stroke-width="2.000000" fill="rgb(0,0,0)"  stroke="rgb(0,0,0)" />
<line x1="362.0" y1="169.8" x2="361.1" y2="115.2" stroke="rgb(0,0,0)"  stroke-width="2.0"/>
<line x1="321.5" y1="146.3" x2="279.2" y2="171.8" stroke="rgb(0,0,0)"  stroke-width="2.0"/>
<line x1="279.2" y1="171.8" x2="237.8" y2="147.6" stroke="rgb(0,0,0)"  stroke-width="2.0"/>
<line x1="237.8" y1="147.6" x2="196.2" y2="170.2" stroke="rgb(0,0,0)"  stroke-width="2.0"/>
<line x1="196.2" y1="170.2" x2="168.8" y2="155.6" stroke="rgb(0,0,0)"  stroke-width="2.0"/>
<line x1="246.3" y1="112.3" x2="237.8" y2="147.6" stroke="rgb(0,0,0)"  stroke-width="2.0"/>
<line x1="261.8" y1="96.0" x2="266.7" y2="94.5" stroke="rgb(0,0,0)"  stroke-width="2.0"/>
<line x1="323.2" y1="112.9" x2="324.5" y2="146.2" stroke="rgb(0,0,0)"  stroke-width="2.0"/>
<line x1="317.2" y1="113.1" x2="318.5" y2="146.4" stroke="rgb(0,0,0)"  stroke-width="2.0"/>
<line x1="412.2" y1="108.2" x2="402.1" y2="92.0" stroke="rgb(0,0,0)"  stroke-width="2.0"/>
<line x1="413.0" y1="130.7" x2="404.0" y2="147.5" stroke="rgb(0,0,0)"  stroke-width="2.0"/>
<line x1="111.8" y1="123.5" x2="70.0" y2="98.4" stroke="rgb(0,0,0)"  stroke-width="2.0"/>
<line x1="111.8" y1="123.5" x2="146.0" y2="143.0" stroke="rgb(0,0,0)"  stroke-width="2.0"/>
<line x1="111.8" y1="123.5" x2="71.0" y2="148.7" stroke="rgb(0,0,0)"  stroke-width="2.0"/>
<line x1="113.3" y1="74.3" x2="111.8" y2="123.5" stroke="rgb(0,0,0)"  stroke-width="2.0"/>
<line x1="111.2" y1="170.4" x2="145.5" y2="154.8" stroke="rgb(0,0,0)"  stroke-width="2.0"/>
<line x1="155.3" y1="98.0" x2="156.8" y2="136.5" stroke="rgb(0,0,0)"  stroke-width="2.0"/>
<line x1="279.3" y1="215.5" x2="322.1" y2="235.6" stroke="rgb(0,0,0)"  stroke-width="2.0"/>
<line x1="276.8" y1="221.0" x2="319.5" y2="241.0" stroke="rgb(0,0,0)"  stroke-width="2.0"/>
<line x1="414.9" y1="412.2" x2="394.3" y2="417.7" stroke="rgb(0,0,0)"  stroke-width="2.0"/>
<line x1="414.9" y1="412.2" x2="429.9" y2="427.3" stroke="rgb(0,0,0)"  stroke-width="2.0"/>
<line x1="414.9" y1="412.2" x2="409.3" y2="432.8" stroke="rgb(0,0,0)"  stroke-width="2.0"/>
<line x1="379.1" y1="364.9" x2="366.8" y2="382.3" stroke="rgb(0,0,0)"  stroke-width="2.0"/>
<line x1="379.1" y1="364.9" x2="358.1" y2="361.8" stroke="rgb(0,0,0)"  stroke-width="2.0"/>
<line x1="457.4" y1="404.4" x2="448.9" y2="423.9" stroke="rgb(0,0,0)"  stroke-width="2.0"/>
<line x1="457.4" y1="404.4" x2="478.5" y2="402.0" stroke="rgb(0,0,0)"  stroke-width="2.0"/>
<line x1="457.4" y1="404.4" x2="470.1" y2="421.5" stroke="rgb(0,0,0)"  stroke-width="2.0"/>
<line x1="362.1" y1="218.8" x2="380.4" y2="207.9" stroke="rgb(0,0,0)"  stroke-width="2.0"/>
<line x1="320.8" y1="238.3" x2="320.8" y2="258.4" stroke="rgb(0,0,0)"  stroke-width="2.0"/>
<line x1="279.2" y1="171.8" x2="279.4" y2="193.1" stroke="rgb(0,0,0)"  stroke-width="2.0"/>
<line x1="279.2" y1="171.8" x2="260.8" y2="182.5" stroke="rgb(0,0,0)"  stroke-width="2.0"/>
<line x1="237.8" y1="147.6" x2="237.4" y2="168.9" stroke="rgb(0,0,0)"  stroke-width="2.0"/>
<line x1="196.2" y1="170.2" x2="196.3" y2="191.5" stroke="rgb(0,0,0)"  stroke-width="2.0"/>
<line x1="196.2" y1="170.2" x2="177.9" y2="181.2" stroke="rgb(0,0,0)"  stroke-width="2.0"/>
<line x1="402.1" y1="92.0" x2="412.1" y2="73.2" stroke="rgb(0,0,0)"  stroke-width="2.0"/>
<line x1="402.1" y1="92.0" x2="380.8" y2="92.8" stroke="rgb(0,0,0)"  stroke-width="2.0"/>
<line x1="402.1" y1="92.0" x2="390.8" y2="74.0" stroke="rgb(0,0,0)"  stroke-width="2.0"/>
<line x1="446.1" y1="170.9" x2="463.4" y2="160.6" stroke="rgb(0,0,0)"  stroke-width="2.0"/>
<line x1="446.5" y1="219.6" x2="463.7" y2="230.0" stroke="rgb(0,0,0)"  stroke-width="2.0"/>
<line x1="70.0" y1="98.4" x2="70.5" y2="77.0" stroke="rgb(0,0,0)"  stroke-width="2.0"/>
<line x1="70.0" y1="98.4" x2="51.4" y2="108.7" stroke="rgb(0,0,0)"  stroke-width="2.0"/>
<line x1="70.0" y1="98.4" x2="51.8" y2="87.3" stroke="rgb(0,0,0)"  stroke-width="2.0"/>
<line x1="113.3" y1="74.3" x2="132.1" y2="64.2" stroke="rgb(0,0,0)"  stroke-width="2.0"/>
<line x1="113.3" y1="74.3" x2="95.2" y2="63.1" stroke="rgb(0,0,0)"  stroke-width="2.0"/>
<line x1="113.3" y1="74.3" x2="114.0" y2="53.0" stroke="rgb(0,0,0)"  stroke-width="2.0"/>
<line x1="111.2" y1="170.4" x2="93.9" y2="158.0" stroke="rgb(0,0,0)"  stroke-width="2.0"/>
<line x1="111.2" y1="170.4" x2="109.1" y2="191.6" stroke="rgb(0,0,0)"  stroke-width="2.0"/>
<line x1="111.2" y1="170.4" x2="91.8" y2="179.2" stroke="rgb(0,0,0)"  stroke-width="2.0"/>
<line x1="155.3" y1="98.0" x2="173.3" y2="86.6" stroke="rgb(0,0,0)"  stroke-width="2.0"/>
<line x1="155.3" y1="98.0" x2="136.5" y2="88.1" stroke="rgb(0,0,0)"  stroke-width="2.0"/>
<line x1="155.3" y1="98.0" x2="154.5" y2="76.7" stroke="rgb(0,0,0)"  stroke-width="2.0"/>
<line x1="278.1" y1="218.3" x2="276.4" y2="198.2" stroke="rgb(0,0,0)"  stroke-width="2.0"/>
<line x1="278.1" y1="218.3" x2="261.6" y2="229.7" stroke="rgb(0,0,0)"  stroke-width="2.0"/>
<line x1="71.0" y1="148.7" x2="52.2" y2="138.5" stroke="rgb(0,0,0)"  stroke-width="2.0"/>
<line x1="71.0" y1="148.7" x2="71.6" y2="170.0" stroke="rgb(0,0,0)"  stroke-width="2.0"/>
<line x1="71.0" y1="148.7" x2="52.8" y2="159.8" stroke="rgb(0,0,0)"  stroke-width="2.0"/>
<line x1="361.1" y1="115.2" x2="379.4" y2="104.3" stroke="rgb(0,0,0)"  stroke-width="2.0"/>
<line x1="361.1" y1="115.2" x2="342.5" y2="104.9" stroke="rgb(0,0,0)"  stroke-width="2.0"/>
<line x1="361.1" y1="115.2" x2="360.8" y2="93.9" stroke="rgb(0,0,0)"  stroke-width="2.0"/>
<line x1="379.1" y1="364.9" x2="368.1" y2="331.8" stroke="rgb(0,0,0)"  stroke-width="2.0"/>
<line x1="374.4" y1="311.9" x2="404.0" y2="290.3" stroke="rgb(0,0,0)"  stroke-width="2.0"/>
<line x1="404.0" y1="290.3" x2="430.0" y2="309.3" stroke="rgb(0,0,0)"  stroke-width="2.0"/>
<line x1="404.6" y1="299.7" x2="424.7" y2="314.4" stroke="rgb(0,0,0)"  stroke-width="2.0"/>
<line x1="438.7" y1="331.1" x2="427.8" y2="364.5" stroke="rgb(0,0,0)"  stroke-width="2.0"/>
<line x1="427.8" y1="364.5" x2="379.1" y2="364.9" stroke="rgb(0,0,0)"  stroke-width="2.0"/>
<line x1="362.0" y1="169.8" x2="362.1" y2="218.8" stroke="rgb(0,0,0)"  stroke-width="2.0"/>
<line x1="362.1" y1="218.8" x2="404.2" y2="241.8" stroke="rgb(0,0,0)"  stroke-width="2.0"/>
<line x1="404.2" y1="241.8" x2="446.5" y2="219.6" stroke="rgb(0,0,0)"  stroke-width="2.0"/>
<line x1="406.2" y1="232.7" x2="437.8" y2="216.0" stroke="rgb(0,0,0)"  stroke-width="2.0"/>
<line x1="446.5" y1="219.6" x2="446.1" y2="170.9" stroke="rgb(0,0,0)"  stroke-width="2.0"/>
<line x1="446.1" y1="170.9" x2="404.0" y2="147.5" stroke="rgb(0,0,0)"  stroke-width="2.0"/>
<line x1="437.4" y1="174.3" x2="405.8" y2="156.7" stroke="rgb(0,0,0)"  stroke-width="2.0"/>
<line x1="404.0" y1="147.5" x2="362.0" y2="169.8" stroke="rgb(0,0,0)"  stroke-width="2.0"/>
<text x="357.938370" y="327.508379" fill="rgb(255,12,12)"  stroke="rgb(255,12,12)" stroke-width="1" font-size="16" >O</text>
<text x="436.729603" y="326.703405" fill="rgb(12,12,255)"  stroke="rgb(12,12,255)" stroke-width="1" font-size="16" >N</text>
<text x="151.323051" y="157.469664" fill="rgb(127,153,153)"  stroke="rgb(127,153,153)" stroke-width="1" font-size="16" >Si</text>
<text x="243.375507" y="107.625422" fill="rgb(255,12,12)"  stroke="rgb(255,12,12)" stroke-width="1" font-size="16" >O</text>
<text x="313.722532" y="108.026305" fill="rgb(255,12,12)"  stroke="rgb(255,12,12)" stroke-width="1" font-size="16" >O</text>
<text x="413.093516" y="127.223811" fill="rgb(255,12,12)"  stroke="rgb(255,12,12)" stroke-width="1" font-size="16" >O</text>
<text x="273.217270" y="98.838057" fill="rgb(191,191,191)"  stroke="rgb(191,191,191)" stroke-width="1" font-size="16" >H</text>
<text x="375.718536" y="429.030835" fill="rgb(191,191,191)"  stroke="rgb(191,191,191)" stroke-width="1" font-size="16" >H</text>
<text x="433.093058" y="444.550173" fill="rgb(191,191,191)"  stroke="rgb(191,191,191)" stroke-width="1" font-size="16" >H</text>
<text x="399.925750" y="453.353102" fill="rgb(191,191,191)"  stroke="rgb(191,191,191)" stroke-width="1" font-size="16" >H</text>
<text x="353.212895" y="400.869390" fill="rgb(191,191,191)"  stroke="rgb(191,191,191)" stroke-width="1" font-size="16" >H</text>
<text x="339.197639" y="367.860114" fill="rgb(191,191,191)"  stroke="rgb(191,191,191)" stroke-width="1" font-size="16" >H</text>
<text x="437.701608" y="443.860420" fill="rgb(191,191,191)"  stroke="rgb(191,191,191)" stroke-width="1" font-size="16" >H</text>
<text x="485.452223" y="408.468833" fill="rgb(191,191,191)"  stroke="rgb(191,191,191)" stroke-width="1" font-size="16" >H</text>
<text x="471.793587" y="439.949042" fill="rgb(191,191,191)"  stroke="rgb(191,191,191)" stroke-width="1" font-size="16" >H</text>
<text x="385.621174" y="209.252529" fill="rgb(191,191,191)"  stroke="rgb(191,191,191)" stroke-width="1" font-size="16" >H</text>
<text x="314.827705" y="279.376686" fill="rgb(191,191,191)"  stroke="rgb(191,191,191)" stroke-width="1" font-size="16" >H</text>
<text x="273.472951" y="214.092694" fill="rgb(191,191,191)"  stroke="rgb(191,191,191)" stroke-width="1" font-size="16" >H</text>
<text x="243.525331" y="196.981241" fill="rgb(191,191,191)"  stroke="rgb(191,191,191)" stroke-width="1" font-size="16" >H</text>
<text x="231.251814" y="189.918031" fill="rgb(191,191,191)"  stroke="rgb(191,191,191)" stroke-width="1" font-size="16" >H</text>
<text x="190.313382" y="212.515522" fill="rgb(191,191,191)"  stroke="rgb(191,191,191)" stroke-width="1" font-size="16" >H</text>
<text x="160.790345" y="195.909710" fill="rgb(191,191,191)"  stroke="rgb(191,191,191)" stroke-width="1" font-size="16" >H</text>
<text x="412.203420" y="69.727470" fill="rgb(191,191,191)"  stroke="rgb(191,191,191)" stroke-width="1" font-size="16" >H</text>
<text x="361.801454" y="101.228699" fill="rgb(191,191,191)"  stroke="rgb(191,191,191)" stroke-width="1" font-size="16" >H</text>
<text x="377.908816" y="70.928290" fill="rgb(191,191,191)"  stroke="rgb(191,191,191)" stroke-width="1" font-size="16" >H</text>
<text x="468.583079" y="162.013733" fill="rgb(191,191,191)"  stroke="rgb(191,191,191)" stroke-width="1" font-size="16" >H</text>
<text x="468.846760" y="244.652672" fill="rgb(191,191,191)"  stroke="rgb(191,191,191)" stroke-width="1" font-size="16" >H</text>
<text x="64.702726" y="72.042942" fill="rgb(191,191,191)"  stroke="rgb(191,191,191)" stroke-width="1" font-size="16" >H</text>
<text x="34.000000" y="122.935262" fill="rgb(191,191,191)"  stroke="rgb(191,191,191)" stroke-width="1" font-size="16" >H</text>
<text x="34.660016" y="88.625988" fill="rgb(191,191,191)"  stroke="rgb(191,191,191)" stroke-width="1" font-size="16" >H</text>
<text x="137.547036" y="66.068604" fill="rgb(191,191,191)"  stroke="rgb(191,191,191)" stroke-width="1" font-size="16" >H</text>
<text x="78.139062" y="64.230606" fill="rgb(191,191,191)"  stroke="rgb(191,191,191)" stroke-width="1" font-size="16" >H</text>
<text x="108.373633" y="48.000000" fill="rgb(191,191,191)"  stroke="rgb(191,191,191)" stroke-width="1" font-size="16" >H</text>
<text x="77.276193" y="158.467500" fill="rgb(191,191,191)"  stroke="rgb(191,191,191)" stroke-width="1" font-size="16" >H</text>
<text x="101.859813" y="212.581558" fill="rgb(191,191,191)"  stroke="rgb(191,191,191)" stroke-width="1" font-size="16" >H</text>
<text x="73.946620" y="192.621209" fill="rgb(191,191,191)"  stroke="rgb(191,191,191)" stroke-width="1" font-size="16" >H</text>
<text x="178.337691" y="87.713384" fill="rgb(191,191,191)"  stroke="rgb(191,191,191)" stroke-width="1" font-size="16" >H</text>
<text x="118.946632" y="90.034533" fill="rgb(191,191,191)"  stroke="rgb(191,191,191)" stroke-width="1" font-size="16" >H</text>
<text x="147.972103" y="71.729237" fill="rgb(191,191,191)"  stroke="rgb(191,191,191)" stroke-width="1" font-size="16" >H</text>
<text x="269.244860" y="193.274877" fill="rgb(191,191,191)"  stroke="rgb(191,191,191)" stroke-width="1" font-size="16" >H</text>
<text x="244.912945" y="245.180363" fill="rgb(191,191,191)"  stroke="rgb(191,191,191)" stroke-width="1" font-size="16" >H</text>
<text x="34.775947" y="140.355272" fill="rgb(191,191,191)"  stroke="rgb(191,191,191)" stroke-width="1" font-size="16" >H</text>
<text x="65.934398" y="190.969861" fill="rgb(191,191,191)"  stroke="rgb(191,191,191)" stroke-width="1" font-size="16" >H</text>
<text x="35.743999" y="174.657237" fill="rgb(191,191,191)"  stroke="rgb(191,191,191)" stroke-width="1" font-size="16" >H</text>
<text x="384.565961" y="105.616472" fill="rgb(191,191,191)"  stroke="rgb(191,191,191)" stroke-width="1" font-size="16" >H</text>
<text x="325.137152" y="106.566383" fill="rgb(191,191,191)"  stroke="rgb(191,191,191)" stroke-width="1" font-size="16" >H</text>
<text x="354.577341" y="88.935808" fill="rgb(191,191,191)"  stroke="rgb(191,191,191)" stroke-width="1" font-size="16" >H</text>
</svg>
</g>
<text font-size="18.000000" fill ="black" font-family="sans-serif"
x="10.000000" y="20.000000" ></text>
</svg>
