<?xml version="1.0"?>
<svg version="1.1" id="topsvg"
xmlns="http://www.w3.org/2000/svg" xmlns:xlink="http://www.w3.org/1999/xlink"
xmlns:cml="http://www.xml-cml.org/schema" x="0" y="0" width="200px" height="200px" viewBox="0 0 100 100">
<title> - Open Babel Depiction</title>
<rect x="0" y="0" width="100" height="100" fill="white"/>
<g transform="translate(0,0)">
<svg width="100" height="100" x="0" y="0" viewBox="0 0 422.146 429.356"
font-family="sans-serif" stroke="rgb(0,0,0)" stroke-width="2"  stroke-linecap="round">
<line x1="301.6" y1="319.1" x2="348.8" y2="310.6" stroke="rgb(0,0,0)"  stroke-width="2.0"/>
<line x1="251.5" y1="317.5" x2="238.9" y2="334.2" stroke="rgb(0,0,0)"  stroke-width="2.0"/>
<line x1="251.5" y1="317.5" x2="230.9" y2="314.0" stroke="rgb(0,0,0)"  stroke-width="2.0"/>
<line x1="348.8" y1="310.6" x2="362.3" y2="326.6" stroke="rgb(0,0,0)"  stroke-width="2.0"/>
<line x1="348.8" y1="310.6" x2="355.8" y2="290.9" stroke="rgb(0,0,0)"  stroke-width="2.0"/>
<line x1="348.8" y1="310.6" x2="369.4" y2="306.8" stroke="rgb(0,0,0)"  stroke-width="2.0"/>
<line x1="327.7" y1="359.1" x2="301.6" y2="319.1" stroke="rgb(0,0,0)"  stroke-width="2.0"/>
<line x1="327.7" y1="359.1" x2="318.2" y2="377.8" stroke="rgb(0,0,0)"  stroke-width="2.0"/>
<line x1="327.7" y1="359.1" x2="348.6" y2="358.0" stroke="rgb(0,0,0)"  stroke-width="2.0"/>
<line x1="327.7" y1="359.1" x2="339.1" y2="376.6" stroke="rgb(0,0,0)"  stroke-width="2.0"/>
<line x1="152.0" y1="168.7" x2="195.0" y2="187.9" stroke="rgb(0,0,0)"  stroke-width="2.0"/>
<line x1="149.6" y1="174.2" x2="192.5" y2="193.4" stroke="rgb(0,0,0)"  stroke-width="2.0"/>
<line x1="150.8" y1="171.4" x2="148.8" y2="151.8" stroke="rgb(0,0,0)"  stroke-width="2.0"/>
<line x1="150.8" y1="171.4" x2="134.8" y2="183.0" stroke="rgb(0,0,0)"  stroke-width="2.0"/>
<line x1="193.8" y1="190.6" x2="193.9" y2="210.4" stroke="rgb(0,0,0)"  stroke-width="2.0"/>
<line x1="235.6" y1="171.1" x2="193.8" y2="190.6" stroke="rgb(0,0,0)"  stroke-width="2.0"/>
<line x1="234.9" y1="161.4" x2="236.5" y2="161.4" stroke="rgb(0,0,0)"  stroke-width="1.0"/>
<line x1="234.4" y1="153.6" x2="237.3" y2="153.6" stroke="rgb(0,0,0)"  stroke-width="1.0"/>
<line x1="233.9" y1="145.8" x2="238.0" y2="145.9" stroke="rgb(0,0,0)"  stroke-width="1.0"/>
<line x1="233.3" y1="138.1" x2="238.8" y2="138.1" stroke="rgb(0,0,0)"  stroke-width="1.0"/>
<line x1="232.8" y1="130.3" x2="239.5" y2="130.4" stroke="rgb(0,0,0)"  stroke-width="1.0"/>
<line x1="232.3" y1="122.5" x2="240.3" y2="122.6" stroke="rgb(0,0,0)"  stroke-width="1.0"/>
<line x1="235.6" y1="171.1" x2="234.7" y2="206.6" stroke="rgb(0,0,0)"  stroke-width="2.0"/>
<line x1="236.3" y1="122.6" x2="194.4" y2="99.3" stroke="rgb(0,0,0)"  stroke-width="2.0"/>
<line x1="194.4" y1="99.3" x2="152.0" y2="122.1" stroke="rgb(0,0,0)"  stroke-width="2.0"/>
<line x1="194.4" y1="99.3" x2="194.5" y2="78.3" stroke="rgb(0,0,0)"  stroke-width="2.0"/>
<line x1="194.4" y1="99.3" x2="176.4" y2="88.5" stroke="rgb(0,0,0)"  stroke-width="2.0"/>
<line x1="152.0" y1="122.1" x2="151.8" y2="143.0" stroke="rgb(0,0,0)"  stroke-width="2.0"/>
<line x1="152.0" y1="122.1" x2="133.9" y2="132.5" stroke="rgb(0,0,0)"  stroke-width="2.0"/>
<line x1="111.1" y1="99.0" x2="152.0" y2="122.1" stroke="rgb(0,0,0)"  stroke-width="2.0"/>
<line x1="111.1" y1="99.0" x2="111.0" y2="79.3" stroke="rgb(0,0,0)"  stroke-width="2.0"/>
<line x1="66.8" y1="120.9" x2="109.6" y2="96.4" stroke="rgb(0,0,0)"  stroke-width="2.0"/>
<line x1="69.8" y1="126.1" x2="112.6" y2="101.6" stroke="rgb(0,0,0)"  stroke-width="2.0"/>
<line x1="68.3" y1="123.5" x2="51.2" y2="113.6" stroke="rgb(0,0,0)"  stroke-width="2.0"/>
<line x1="68.3" y1="123.5" x2="68.2" y2="143.3" stroke="rgb(0,0,0)"  stroke-width="2.0"/>
<line x1="235.0" y1="73.9" x2="236.3" y2="122.6" stroke="rgb(0,0,0)"  stroke-width="2.0"/>
<line x1="235.0" y1="73.9" x2="252.8" y2="63.0" stroke="rgb(0,0,0)"  stroke-width="2.0"/>
<line x1="235.0" y1="73.9" x2="216.6" y2="63.9" stroke="rgb(0,0,0)"  stroke-width="2.0"/>
<line x1="235.0" y1="73.9" x2="234.4" y2="53.0" stroke="rgb(0,0,0)"  stroke-width="2.0"/>
<line x1="277.2" y1="100.2" x2="277.1" y2="69.2" stroke="rgb(0,0,0)"  stroke-width="2.0"/>
<line x1="277.2" y1="100.2" x2="259.2" y2="89.6" stroke="rgb(0,0,0)"  stroke-width="2.0"/>
<line x1="288.3" y1="49.7" x2="292.5" y2="47.3" stroke="rgb(0,0,0)"  stroke-width="2.0"/>
<line x1="318.1" y1="123.7" x2="336.2" y2="113.1" stroke="rgb(0,0,0)"  stroke-width="2.0"/>
<line x1="318.1" y1="123.7" x2="318.0" y2="102.8" stroke="rgb(0,0,0)"  stroke-width="2.0"/>
<line x1="318.9" y1="172.2" x2="337.1" y2="182.6" stroke="rgb(0,0,0)"  stroke-width="2.0"/>
<line x1="318.9" y1="172.2" x2="318.8" y2="193.1" stroke="rgb(0,0,0)"  stroke-width="2.0"/>
<line x1="277.1" y1="195.8" x2="275.8" y2="244.7" stroke="rgb(0,0,0)"  stroke-width="2.0"/>
<line x1="268.4" y1="191.5" x2="269.2" y2="190.1" stroke="rgb(0,0,0)"  stroke-width="1.0"/>
<line x1="261.4" y1="188.1" x2="262.9" y2="185.6" stroke="rgb(0,0,0)"  stroke-width="1.0"/>
<line x1="254.5" y1="184.7" x2="256.6" y2="181.1" stroke="rgb(0,0,0)"  stroke-width="1.0"/>
<line x1="247.5" y1="181.3" x2="250.3" y2="176.6" stroke="rgb(0,0,0)"  stroke-width="1.0"/>
<line x1="240.5" y1="177.9" x2="243.9" y2="172.1" stroke="rgb(0,0,0)"  stroke-width="1.0"/>
<line x1="233.5" y1="174.5" x2="237.6" y2="167.6" stroke="rgb(0,0,0)"  stroke-width="1.0"/>
<line x1="277.1" y1="195.8" x2="277.4" y2="174.8" stroke="rgb(0,0,0)"  stroke-width="2.0"/>
<line x1="251.5" y1="317.5" x2="240.8" y2="284.3" stroke="rgb(0,0,0)"  stroke-width="2.0"/>
<line x1="247.5" y1="264.5" x2="275.8" y2="244.7" stroke="rgb(0,0,0)"  stroke-width="2.0"/>
<line x1="275.8" y1="244.7" x2="302.0" y2="264.0" stroke="rgb(0,0,0)"  stroke-width="2.0"/>
<line x1="276.4" y1="254.0" x2="296.8" y2="269.1" stroke="rgb(0,0,0)"  stroke-width="2.0"/>
<line x1="311.3" y1="286.0" x2="301.6" y2="319.1" stroke="rgb(0,0,0)"  stroke-width="2.0"/>
<line x1="301.6" y1="319.1" x2="251.5" y2="317.5" stroke="rgb(0,0,0)"  stroke-width="2.0"/>
<line x1="236.3" y1="122.6" x2="277.2" y2="100.2" stroke="rgb(0,0,0)"  stroke-width="2.0"/>
<line x1="277.2" y1="100.2" x2="318.1" y2="123.7" stroke="rgb(0,0,0)"  stroke-width="2.0"/>
<line x1="318.1" y1="123.7" x2="318.9" y2="172.2" stroke="rgb(0,0,0)"  stroke-width="2.0"/>
<line x1="318.9" y1="172.2" x2="277.1" y2="195.8" stroke="rgb(0,0,0)"  stroke-width="2.0"/>
<line x1="277.1" y1="195.8" x2="235.6" y2="171.1" stroke="rgb(0,0,0)"  stroke-width="2.0"/>
<line x1="235.6" y1="171.1" x2="236.3" y2="122.6" stroke="rgb(0,0,0)"  stroke-width="2.0"/>
<text x="230.862108" y="279.949333" fill="rgb(255,12,12)"  stroke="rgb(255,12,12)" stroke-width="1" font-size="16" >O</text>
<text x="308.944031" y="281.557472" fill="rgb(12,12,255)"  stroke="rgb(12,12,255)" stroke-width="1" font-size="16" >N</text>
<text x="271.109966" y="64.217771" fill="rgb(255,12,12)"  stroke="rgb(255,12,12)" stroke-width="1" font-size="16" >O</text>
<text x="228.445143" y="227.626167" fill="rgb(191,191,191)"  stroke="rgb(191,191,191)" stroke-width="1" font-size="16" >H</text>
<text x="297.709267" y="48.758077" fill="rgb(191,191,191)"  stroke="rgb(191,191,191)" stroke-width="1" font-size="16" >H</text>
<text x="225.101992" y="352.591499" fill="rgb(191,191,191)"  stroke="rgb(191,191,191)" stroke-width="1" font-size="16" >H</text>
<text x="212.065607" y="319.845114" fill="rgb(191,191,191)"  stroke="rgb(191,191,191)" stroke-width="1" font-size="16" >H</text>
<text x="364.695989" y="344.477856" fill="rgb(191,191,191)"  stroke="rgb(191,191,191)" stroke-width="1" font-size="16" >H</text>
<text x="354.203443" y="286.635635" fill="rgb(191,191,191)"  stroke="rgb(191,191,191)" stroke-width="1" font-size="16" >H</text>
<text x="376.146439" y="312.527610" fill="rgb(191,191,191)"  stroke="rgb(191,191,191)" stroke-width="1" font-size="16" >H</text>
<text x="306.317722" y="397.356100" fill="rgb(191,191,191)"  stroke="rgb(191,191,191)" stroke-width="1" font-size="16" >H</text>
<text x="355.564175" y="365.256776" fill="rgb(191,191,191)"  stroke="rgb(191,191,191)" stroke-width="1" font-size="16" >H</text>
<text x="340.209153" y="395.522759" fill="rgb(191,191,191)"  stroke="rgb(191,191,191)" stroke-width="1" font-size="16" >H</text>
<text x="141.462954" y="146.851327" fill="rgb(191,191,191)"  stroke="rgb(191,191,191)" stroke-width="1" font-size="16" >H</text>
<text x="118.286100" y="198.594041" fill="rgb(191,191,191)"  stroke="rgb(191,191,191)" stroke-width="1" font-size="16" >H</text>
<text x="188.032348" y="231.381661" fill="rgb(191,191,191)"  stroke="rgb(191,191,191)" stroke-width="1" font-size="16" >H</text>
<text x="188.603285" y="73.314694" fill="rgb(191,191,191)"  stroke="rgb(191,191,191)" stroke-width="1" font-size="16" >H</text>
<text x="159.288863" y="89.744980" fill="rgb(191,191,191)"  stroke="rgb(191,191,191)" stroke-width="1" font-size="16" >H</text>
<text x="145.678369" y="163.998456" fill="rgb(191,191,191)"  stroke="rgb(191,191,191)" stroke-width="1" font-size="16" >H</text>
<text x="116.617696" y="147.057498" fill="rgb(191,191,191)"  stroke="rgb(191,191,191)" stroke-width="1" font-size="16" >H</text>
<text x="104.970590" y="74.310661" fill="rgb(191,191,191)"  stroke="rgb(191,191,191)" stroke-width="1" font-size="16" >H</text>
<text x="34.000000" y="115.043815" fill="rgb(191,191,191)"  stroke="rgb(191,191,191)" stroke-width="1" font-size="16" >H</text>
<text x="62.147174" y="164.258549" fill="rgb(191,191,191)"  stroke="rgb(191,191,191)" stroke-width="1" font-size="16" >H</text>
<text x="257.921331" y="64.182880" fill="rgb(191,191,191)"  stroke="rgb(191,191,191)" stroke-width="1" font-size="16" >H</text>
<text x="199.159268" y="65.743440" fill="rgb(191,191,191)"  stroke="rgb(191,191,191)" stroke-width="1" font-size="16" >H</text>
<text x="228.089894" y="48.000000" fill="rgb(191,191,191)"  stroke="rgb(191,191,191)" stroke-width="1" font-size="16" >H</text>
<text x="242.023918" y="90.950291" fill="rgb(191,191,191)"  stroke="rgb(191,191,191)" stroke-width="1" font-size="16" >H</text>
<text x="341.360541" y="114.447503" fill="rgb(191,191,191)"  stroke="rgb(191,191,191)" stroke-width="1" font-size="16" >H</text>
<text x="311.925588" y="97.750780" fill="rgb(191,191,191)"  stroke="rgb(191,191,191)" stroke-width="1" font-size="16" >H</text>
<text x="342.356509" y="197.068372" fill="rgb(191,191,191)"  stroke="rgb(191,191,191)" stroke-width="1" font-size="16" >H</text>
<text x="312.801024" y="214.133032" fill="rgb(191,191,191)"  stroke="rgb(191,191,191)" stroke-width="1" font-size="16" >H</text>
<text x="271.525481" y="169.837868" fill="rgb(191,191,191)"  stroke="rgb(191,191,191)" stroke-width="1" font-size="16" >H</text>
</svg>
</g>
<text font-size="18.000000" fill ="black" font-family="sans-serif"
x="10.000000" y="20.000000" ></text>
</svg>
