<?xml version="1.0"?>
<svg version="1.1" id="topsvg"
xmlns="http://www.w3.org/2000/svg" xmlns:xlink="http://www.w3.org/1999/xlink"
xmlns:cml="http://www.xml-cml.org/schema" x="0" y="0" width="200px" height="200px" viewBox="0 0 100 100">
<title> - Open Babel Depiction</title>
<rect x="0" y="0" width="100" height="100" fill="white"/>
<g transform="translate(0,0)">
<svg width="100" height="100" x="0" y="0" viewBox="0 0 358.461 449.575"
font-family="sans-serif" stroke="rgb(0,0,0)" stroke-width="2"  stroke-linecap="round">
<line x1="163.4" y1="341.0" x2="211.1" y2="329.2" stroke="rgb(0,0,0)"  stroke-width="2.0"/>
<line x1="211.1" y1="329.2" x2="198.3" y2="376.4" stroke="rgb(0,0,0)"  stroke-width="2.0"/>
<line x1="195.8" y1="182.4" x2="153.3" y2="199.7" stroke="rgb(0,0,0)"  stroke-width="2.0"/>
<polygon points="195.800621 182.412377 192.807356 131.739959 200.805775 131.898992 " stroke-width="2.000000" fill="rgb(0,0,0)"  stroke="rgb(0,0,0)" />
<line x1="228.7" y1="199.4" x2="229.4" y2="198.0" stroke="rgb(0,0,0)"  stroke-width="1.0"/>
<line x1="221.7" y1="196.7" x2="223.0" y2="194.1" stroke="rgb(0,0,0)"  stroke-width="1.0"/>
<line x1="214.8" y1="194.0" x2="216.6" y2="190.3" stroke="rgb(0,0,0)"  stroke-width="1.0"/>
<line x1="207.9" y1="191.4" x2="210.3" y2="186.5" stroke="rgb(0,0,0)"  stroke-width="1.0"/>
<line x1="201.0" y1="188.7" x2="203.9" y2="182.6" stroke="rgb(0,0,0)"  stroke-width="1.0"/>
<line x1="194.0" y1="186.0" x2="197.6" y2="178.8" stroke="rgb(0,0,0)"  stroke-width="1.0"/>
<line x1="196.8" y1="131.8" x2="156.8" y2="106.0" stroke="rgb(0,0,0)"  stroke-width="2.0"/>
<line x1="265.0" y1="77.7" x2="284.1" y2="76.9" stroke="rgb(0,0,0)"  stroke-width="2.0"/>
<line x1="246.0" y1="89.7" x2="237.1" y2="106.7" stroke="rgb(0,0,0)"  stroke-width="2.0"/>
<line x1="237.3" y1="202.8" x2="234.6" y2="251.5" stroke="rgb(0,0,0)"  stroke-width="2.0"/>
<line x1="71.9" y1="56.8" x2="72.2" y2="107.4" stroke="rgb(0,0,0)"  stroke-width="2.0"/>
<line x1="65.9" y1="56.8" x2="66.2" y2="107.4" stroke="rgb(0,0,0)"  stroke-width="2.0"/>
<line x1="69.2" y1="107.4" x2="111.3" y2="131.7" stroke="rgb(0,0,0)"  stroke-width="2.0"/>
<line x1="111.3" y1="131.7" x2="156.8" y2="106.0" stroke="rgb(0,0,0)"  stroke-width="2.0"/>
<line x1="112.5" y1="177.5" x2="154.5" y2="197.0" stroke="rgb(0,0,0)"  stroke-width="2.0"/>
<line x1="110.0" y1="182.9" x2="152.0" y2="202.4" stroke="rgb(0,0,0)"  stroke-width="2.0"/>
<line x1="163.4" y1="341.0" x2="148.6" y2="325.6" stroke="rgb(0,0,0)"  stroke-width="2.0"/>
<line x1="163.4" y1="341.0" x2="157.5" y2="361.6" stroke="rgb(0,0,0)"  stroke-width="2.0"/>
<line x1="163.4" y1="341.0" x2="142.6" y2="346.2" stroke="rgb(0,0,0)"  stroke-width="2.0"/>
<line x1="260.7" y1="329.2" x2="273.5" y2="346.3" stroke="rgb(0,0,0)"  stroke-width="2.0"/>
<line x1="260.7" y1="329.2" x2="251.1" y2="348.3" stroke="rgb(0,0,0)"  stroke-width="2.0"/>
<line x1="198.3" y1="376.4" x2="177.6" y2="381.9" stroke="rgb(0,0,0)"  stroke-width="2.0"/>
<line x1="198.3" y1="376.4" x2="213.4" y2="391.6" stroke="rgb(0,0,0)"  stroke-width="2.0"/>
<line x1="198.3" y1="376.4" x2="192.7" y2="397.0" stroke="rgb(0,0,0)"  stroke-width="2.0"/>
<line x1="195.8" y1="182.4" x2="178.2" y2="170.3" stroke="rgb(0,0,0)"  stroke-width="2.0"/>
<line x1="153.3" y1="199.7" x2="152.8" y2="219.9" stroke="rgb(0,0,0)"  stroke-width="2.0"/>
<polygon points="196.806566 131.819476 178.337434 146.163356 174.583451 139.098824 " stroke-width="2.000000" fill="rgb(0,0,0)"  stroke="rgb(0,0,0)" />
<line x1="284.1" y1="76.9" x2="295.6" y2="94.9" stroke="rgb(0,0,0)"  stroke-width="2.0"/>
<line x1="284.1" y1="76.9" x2="294.0" y2="57.9" stroke="rgb(0,0,0)"  stroke-width="2.0"/>
<line x1="284.1" y1="76.9" x2="305.5" y2="76.0" stroke="rgb(0,0,0)"  stroke-width="2.0"/>
<line x1="279.5" y1="130.7" x2="296.9" y2="120.5" stroke="rgb(0,0,0)"  stroke-width="2.0"/>
<line x1="279.8" y1="181.1" x2="298.1" y2="192.2" stroke="rgb(0,0,0)"  stroke-width="2.0"/>
<line x1="279.8" y1="181.1" x2="279.0" y2="202.4" stroke="rgb(0,0,0)"  stroke-width="2.0"/>
<line x1="237.3" y1="202.8" x2="218.8" y2="213.6" stroke="rgb(0,0,0)"  stroke-width="2.0"/>
<line x1="68.9" y1="56.8" x2="86.2" y2="46.6" stroke="rgb(0,0,0)"  stroke-width="2.0"/>
<line x1="68.9" y1="56.8" x2="51.3" y2="46.9" stroke="rgb(0,0,0)"  stroke-width="2.0"/>
<line x1="69.2" y1="107.4" x2="51.8" y2="117.6" stroke="rgb(0,0,0)"  stroke-width="2.0"/>
<line x1="111.3" y1="131.7" x2="111.2" y2="153.1" stroke="rgb(0,0,0)"  stroke-width="2.0"/>
<line x1="111.3" y1="131.7" x2="129.8" y2="142.5" stroke="rgb(0,0,0)"  stroke-width="2.0"/>
<line x1="156.8" y1="106.0" x2="157.4" y2="84.6" stroke="rgb(0,0,0)"  stroke-width="2.0"/>
<line x1="156.8" y1="106.0" x2="138.5" y2="94.9" stroke="rgb(0,0,0)"  stroke-width="2.0"/>
<line x1="111.3" y1="180.2" x2="109.5" y2="160.1" stroke="rgb(0,0,0)"  stroke-width="2.0"/>
<line x1="111.3" y1="180.2" x2="94.8" y2="191.8" stroke="rgb(0,0,0)"  stroke-width="2.0"/>
<line x1="208.7" y1="272.5" x2="234.6" y2="251.5" stroke="rgb(0,0,0)"  stroke-width="2.0"/>
<line x1="214.0" y1="277.4" x2="234.4" y2="260.8" stroke="rgb(0,0,0)"  stroke-width="2.0"/>
<line x1="234.6" y1="251.5" x2="264.2" y2="276.1" stroke="rgb(0,0,0)"  stroke-width="2.0"/>
<line x1="270.5" y1="296.9" x2="260.7" y2="329.2" stroke="rgb(0,0,0)"  stroke-width="2.0"/>
<line x1="260.7" y1="329.2" x2="211.1" y2="329.2" stroke="rgb(0,0,0)"  stroke-width="2.0"/>
<line x1="211.1" y1="329.2" x2="200.0" y2="295.2" stroke="rgb(0,0,0)"  stroke-width="2.0"/>
<line x1="195.8" y1="182.4" x2="196.8" y2="131.8" stroke="rgb(0,0,0)"  stroke-width="2.0"/>
<line x1="196.8" y1="131.8" x2="237.1" y2="106.7" stroke="rgb(0,0,0)"  stroke-width="2.0"/>
<line x1="237.1" y1="106.7" x2="279.5" y2="130.7" stroke="rgb(0,0,0)"  stroke-width="2.0"/>
<line x1="238.8" y1="115.9" x2="270.8" y2="134.0" stroke="rgb(0,0,0)"  stroke-width="2.0"/>
<line x1="279.5" y1="130.7" x2="279.8" y2="181.1" stroke="rgb(0,0,0)"  stroke-width="2.0"/>
<line x1="279.8" y1="181.1" x2="237.3" y2="202.8" stroke="rgb(0,0,0)"  stroke-width="2.0"/>
<line x1="237.3" y1="202.8" x2="195.8" y2="182.4" stroke="rgb(0,0,0)"  stroke-width="2.0"/>
<text x="189.913107" y="290.836491" fill="rgb(12,12,255)"  stroke="rgb(12,12,255)" stroke-width="1" font-size="16" >N</text>
<text x="268.225725" y="292.453073" fill="rgb(255,12,12)"  stroke="rgb(255,12,12)" stroke-width="1" font-size="16" >O</text>
<text x="245.992102" y="86.218382" fill="rgb(255,12,12)"  stroke="rgb(255,12,12)" stroke-width="1" font-size="16" >O</text>
<text x="133.537961" y="324.246827" fill="rgb(191,191,191)"  stroke="rgb(191,191,191)" stroke-width="1" font-size="16" >H</text>
<text x="147.889698" y="382.054596" fill="rgb(191,191,191)"  stroke="rgb(191,191,191)" stroke-width="1" font-size="16" >H</text>
<text x="124.026164" y="357.293701" fill="rgb(191,191,191)"  stroke="rgb(191,191,191)" stroke-width="1" font-size="16" >H</text>
<text x="275.219422" y="364.779106" fill="rgb(191,191,191)"  stroke="rgb(191,191,191)" stroke-width="1" font-size="16" >H</text>
<text x="239.262895" y="367.886139" fill="rgb(191,191,191)"  stroke="rgb(191,191,191)" stroke-width="1" font-size="16" >H</text>
<text x="159.063086" y="393.173912" fill="rgb(191,191,191)"  stroke="rgb(191,191,191)" stroke-width="1" font-size="16" >H</text>
<text x="216.542121" y="408.790282" fill="rgb(191,191,191)"  stroke="rgb(191,191,191)" stroke-width="1" font-size="16" >H</text>
<text x="183.294546" y="417.574865" fill="rgb(191,191,191)"  stroke="rgb(191,191,191)" stroke-width="1" font-size="16" >H</text>
<text x="161.464369" y="170.928359" fill="rgb(191,191,191)"  stroke="rgb(191,191,191)" stroke-width="1" font-size="16" >H</text>
<text x="146.463044" y="240.854174" fill="rgb(191,191,191)"  stroke="rgb(191,191,191)" stroke-width="1" font-size="16" >H</text>
<text x="160.439217" y="155.956213" fill="rgb(191,191,191)"  stroke="rgb(191,191,191)" stroke-width="1" font-size="16" >H</text>
<text x="296.520298" y="113.921650" fill="rgb(191,191,191)"  stroke="rgb(191,191,191)" stroke-width="1" font-size="16" >H</text>
<text x="294.042407" y="54.410554" fill="rgb(191,191,191)"  stroke="rgb(191,191,191)" stroke-width="1" font-size="16" >H</text>
<text x="312.460726" y="83.450797" fill="rgb(191,191,191)"  stroke="rgb(191,191,191)" stroke-width="1" font-size="16" >H</text>
<text x="302.128835" y="121.920502" fill="rgb(191,191,191)"  stroke="rgb(191,191,191)" stroke-width="1" font-size="16" >H</text>
<text x="303.193907" y="206.953294" fill="rgb(191,191,191)"  stroke="rgb(191,191,191)" stroke-width="1" font-size="16" >H</text>
<text x="272.526192" y="223.439654" fill="rgb(191,191,191)"  stroke="rgb(191,191,191)" stroke-width="1" font-size="16" >H</text>
<text x="201.627192" y="228.120428" fill="rgb(191,191,191)"  stroke="rgb(191,191,191)" stroke-width="1" font-size="16" >H</text>
<text x="91.445598" y="48.000000" fill="rgb(191,191,191)"  stroke="rgb(191,191,191)" stroke-width="1" font-size="16" >H</text>
<text x="34.000000" y="48.448794" fill="rgb(191,191,191)"  stroke="rgb(191,191,191)" stroke-width="1" font-size="16" >H</text>
<text x="34.584450" y="132.094751" fill="rgb(191,191,191)"  stroke="rgb(191,191,191)" stroke-width="1" font-size="16" >H</text>
<text x="105.164209" y="174.114450" fill="rgb(191,191,191)"  stroke="rgb(191,191,191)" stroke-width="1" font-size="16" >H</text>
<text x="134.987884" y="157.111029" fill="rgb(191,191,191)"  stroke="rgb(191,191,191)" stroke-width="1" font-size="16" >H</text>
<text x="151.830395" y="79.586940" fill="rgb(191,191,191)"  stroke="rgb(191,191,191)" stroke-width="1" font-size="16" >H</text>
<text x="121.368098" y="96.207091" fill="rgb(191,191,191)"  stroke="rgb(191,191,191)" stroke-width="1" font-size="16" >H</text>
<text x="102.328140" y="155.188566" fill="rgb(191,191,191)"  stroke="rgb(191,191,191)" stroke-width="1" font-size="16" >H</text>
<text x="78.154464" y="207.302206" fill="rgb(191,191,191)"  stroke="rgb(191,191,191)" stroke-width="1" font-size="16" >H</text>
</svg>
</g>
<text font-size="18.000000" fill ="black" font-family="sans-serif"
x="10.000000" y="20.000000" ></text>
</svg>
