<?xml version="1.0"?>
<svg version="1.1" id="topsvg"
xmlns="http://www.w3.org/2000/svg" xmlns:xlink="http://www.w3.org/1999/xlink"
xmlns:cml="http://www.xml-cml.org/schema" x="0" y="0" width="200px" height="200px" viewBox="0 0 100 100">
<title> - Open Babel Depiction</title>
<rect x="0" y="0" width="100" height="100" fill="white"/>
<g transform="translate(0,0)">
<svg width="100" height="100" x="0" y="0" viewBox="0 0 413.327 384.936"
font-family="sans-serif" stroke="rgb(0,0,0)" stroke-width="2"  stroke-linecap="round">
<line x1="176.2" y1="238.0" x2="176.4" y2="188.8" stroke="rgb(0,0,0)"  stroke-width="2.0"/>
<line x1="176.2" y1="238.0" x2="204.6" y2="254.5" stroke="rgb(0,0,0)"  stroke-width="2.0"/>
<line x1="135.0" y1="115.6" x2="116.3" y2="108.6" stroke="rgb(0,0,0)"  stroke-width="2.0"/>
<line x1="108.6" y1="91.9" x2="115.6" y2="73.1" stroke="rgb(0,0,0)"  stroke-width="2.0"/>
<line x1="91.9" y1="99.5" x2="73.1" y2="92.6" stroke="rgb(0,0,0)"  stroke-width="2.0"/>
<line x1="99.5" y1="116.3" x2="92.6" y2="135.0" stroke="rgb(0,0,0)"  stroke-width="2.0"/>
<line x1="168.4" y1="91.7" x2="171.3" y2="55.3" stroke="rgb(0,0,0)"  stroke-width="2.0"/>
<line x1="174.4" y1="92.2" x2="177.3" y2="55.8" stroke="rgb(0,0,0)"  stroke-width="2.0"/>
<line x1="261.5" y1="187.1" x2="217.8" y2="163.0" stroke="rgb(0,0,0)"  stroke-width="2.0"/>
<line x1="257.6" y1="238.7" x2="258.5" y2="187.0" stroke="rgb(0,0,0)"  stroke-width="2.0"/>
<line x1="263.6" y1="238.8" x2="264.5" y2="187.1" stroke="rgb(0,0,0)"  stroke-width="2.0"/>
<line x1="345.0" y1="287.0" x2="349.0" y2="251.4" stroke="rgb(0,0,0)"  stroke-width="2.0"/>
<line x1="300.2" y1="308.2" x2="343.6" y2="284.4" stroke="rgb(0,0,0)"  stroke-width="2.0"/>
<line x1="303.1" y1="313.5" x2="346.5" y2="289.7" stroke="rgb(0,0,0)"  stroke-width="2.0"/>
<line x1="261.6" y1="287.6" x2="204.6" y2="254.5" stroke="rgb(0,0,0)"  stroke-width="2.0"/>
<line x1="259.5" y1="291.2" x2="202.5" y2="258.1" stroke="rgb(0,0,0)"  stroke-width="2.0"/>
<line x1="263.7" y1="284.0" x2="206.7" y2="250.9" stroke="rgb(0,0,0)"  stroke-width="2.0"/>
<line x1="261.6" y1="287.6" x2="301.7" y2="310.9" stroke="rgb(0,0,0)"  stroke-width="2.0"/>
<line x1="176.2" y1="238.0" x2="156.9" y2="249.1" stroke="rgb(0,0,0)"  stroke-width="2.0"/>
<line x1="176.2" y1="238.0" x2="176.2" y2="260.4" stroke="rgb(0,0,0)"  stroke-width="2.0"/>
<line x1="176.4" y1="188.8" x2="157.1" y2="200.1" stroke="rgb(0,0,0)"  stroke-width="2.0"/>
<line x1="134.6" y1="165.7" x2="116.4" y2="176.4" stroke="rgb(0,0,0)"  stroke-width="2.0"/>
<line x1="115.6" y1="73.1" x2="137.6" y2="69.4" stroke="rgb(0,0,0)"  stroke-width="2.0"/>
<line x1="115.6" y1="73.1" x2="101.3" y2="55.9" stroke="rgb(0,0,0)"  stroke-width="2.0"/>
<line x1="115.6" y1="73.1" x2="123.4" y2="52.2" stroke="rgb(0,0,0)"  stroke-width="2.0"/>
<line x1="73.1" y1="92.6" x2="69.4" y2="70.5" stroke="rgb(0,0,0)"  stroke-width="2.0"/>
<line x1="73.1" y1="92.6" x2="55.9" y2="106.8" stroke="rgb(0,0,0)"  stroke-width="2.0"/>
<line x1="73.1" y1="92.6" x2="52.2" y2="84.8" stroke="rgb(0,0,0)"  stroke-width="2.0"/>
<line x1="92.6" y1="135.0" x2="70.5" y2="138.8" stroke="rgb(0,0,0)"  stroke-width="2.0"/>
<line x1="92.6" y1="135.0" x2="106.8" y2="152.2" stroke="rgb(0,0,0)"  stroke-width="2.0"/>
<line x1="92.6" y1="135.0" x2="84.8" y2="156.0" stroke="rgb(0,0,0)"  stroke-width="2.0"/>
<line x1="218.0" y1="115.5" x2="237.0" y2="103.9" stroke="rgb(0,0,0)"  stroke-width="2.0"/>
<line x1="218.0" y1="115.5" x2="217.1" y2="93.2" stroke="rgb(0,0,0)"  stroke-width="2.0"/>
<line x1="217.8" y1="163.0" x2="198.3" y2="152.1" stroke="rgb(0,0,0)"  stroke-width="2.0"/>
<line x1="261.5" y1="187.1" x2="279.8" y2="176.5" stroke="rgb(0,0,0)"  stroke-width="2.0"/>
<line x1="260.6" y1="238.7" x2="242.1" y2="249.0" stroke="rgb(0,0,0)"  stroke-width="2.0"/>
<line x1="260.6" y1="238.7" x2="278.6" y2="249.6" stroke="rgb(0,0,0)"  stroke-width="2.0"/>
<line x1="345.0" y1="287.0" x2="362.5" y2="298.8" stroke="rgb(0,0,0)"  stroke-width="2.0"/>
<line x1="301.7" y1="310.9" x2="301.4" y2="331.9" stroke="rgb(0,0,0)"  stroke-width="2.0"/>
<line x1="134.6" y1="165.7" x2="135.0" y2="115.6" stroke="rgb(0,0,0)"  stroke-width="2.0"/>
<line x1="141.9" y1="159.8" x2="142.2" y2="121.6" stroke="rgb(0,0,0)"  stroke-width="2.0"/>
<line x1="135.0" y1="115.6" x2="171.4" y2="92.0" stroke="rgb(0,0,0)"  stroke-width="2.0"/>
<line x1="171.4" y1="92.0" x2="218.0" y2="115.5" stroke="rgb(0,0,0)"  stroke-width="2.0"/>
<line x1="218.0" y1="115.5" x2="217.8" y2="163.0" stroke="rgb(0,0,0)"  stroke-width="2.0"/>
<line x1="217.8" y1="163.0" x2="176.4" y2="188.8" stroke="rgb(0,0,0)"  stroke-width="2.0"/>
<line x1="176.4" y1="188.8" x2="134.6" y2="165.7" stroke="rgb(0,0,0)"  stroke-width="2.0"/>
<text x="98.071110" y="112.074842" fill="rgb(127,153,153)"  stroke="rgb(127,153,153)" stroke-width="1" font-size="16" >Si</text>
<text x="169.297585" y="50.583433" fill="rgb(255,12,12)"  stroke="rgb(255,12,12)" stroke-width="1" font-size="16" >O</text>
<text x="344.442922" y="246.476878" fill="rgb(30,239,30)"  stroke="rgb(30,239,30)" stroke-width="1" font-size="16" >Cl</text>
<text x="139.582650" y="263.616045" fill="rgb(191,191,191)"  stroke="rgb(191,191,191)" stroke-width="1" font-size="16" >H</text>
<text x="170.138750" y="281.368448" fill="rgb(191,191,191)"  stroke="rgb(191,191,191)" stroke-width="1" font-size="16" >H</text>
<text x="139.927103" y="214.681093" fill="rgb(191,191,191)"  stroke="rgb(191,191,191)" stroke-width="1" font-size="16" >H</text>
<text x="99.197921" y="190.913799" fill="rgb(191,191,191)"  stroke="rgb(191,191,191)" stroke-width="1" font-size="16" >H</text>
<text x="144.418228" y="75.223019" fill="rgb(191,191,191)"  stroke="rgb(191,191,191)" stroke-width="1" font-size="16" >H</text>
<text x="87.053669" y="53.896425" fill="rgb(191,191,191)"  stroke="rgb(191,191,191)" stroke-width="1" font-size="16" >H</text>
<text x="121.892406" y="48.000000" fill="rgb(191,191,191)"  stroke="rgb(191,191,191)" stroke-width="1" font-size="16" >H</text>
<text x="61.223804" y="65.727518" fill="rgb(191,191,191)"  stroke="rgb(191,191,191)" stroke-width="1" font-size="16" >H</text>
<text x="39.895211" y="123.091335" fill="rgb(191,191,191)"  stroke="rgb(191,191,191)" stroke-width="1" font-size="16" >H</text>
<text x="34.000000" y="88.252392" fill="rgb(191,191,191)"  stroke="rgb(191,191,191)" stroke-width="1" font-size="16" >H</text>
<text x="51.727642" y="148.925414" fill="rgb(191,191,191)"  stroke="rgb(191,191,191)" stroke-width="1" font-size="16" >H</text>
<text x="109.093457" y="170.248630" fill="rgb(191,191,191)"  stroke="rgb(191,191,191)" stroke-width="1" font-size="16" >H</text>
<text x="74.255068" y="176.147106" fill="rgb(191,191,191)"  stroke="rgb(191,191,191)" stroke-width="1" font-size="16" >H</text>
<text x="242.133205" y="105.094597" fill="rgb(191,191,191)"  stroke="rgb(191,191,191)" stroke-width="1" font-size="16" >H</text>
<text x="210.568545" y="88.234935" fill="rgb(191,191,191)"  stroke="rgb(191,191,191)" stroke-width="1" font-size="16" >H</text>
<text x="180.952702" y="153.751364" fill="rgb(191,191,191)"  stroke="rgb(191,191,191)" stroke-width="1" font-size="16" >H</text>
<text x="285.028039" y="178.039372" fill="rgb(191,191,191)"  stroke="rgb(191,191,191)" stroke-width="1" font-size="16" >H</text>
<text x="224.762699" y="263.246852" fill="rgb(191,191,191)"  stroke="rgb(191,191,191)" stroke-width="1" font-size="16" >H</text>
<text x="283.780047" y="264.322158" fill="rgb(191,191,191)"  stroke="rgb(191,191,191)" stroke-width="1" font-size="16" >H</text>
<text x="367.327347" y="313.997303" fill="rgb(191,191,191)"  stroke="rgb(191,191,191)" stroke-width="1" font-size="16" >H</text>
<text x="295.260405" y="352.936117" fill="rgb(191,191,191)"  stroke="rgb(191,191,191)" stroke-width="1" font-size="16" >H</text>
</svg>
</g>
<text font-size="18.000000" fill ="black" font-family="sans-serif"
x="10.000000" y="20.000000" ></text>
</svg>
