<?xml version="1.0"?>
<svg version="1.1" id="topsvg"
xmlns="http://www.w3.org/2000/svg" xmlns:xlink="http://www.w3.org/1999/xlink"
xmlns:cml="http://www.xml-cml.org/schema" x="0" y="0" width="200px" height="200px" viewBox="0 0 100 100">
<title> - Open Babel Depiction</title>
<rect x="0" y="0" width="100" height="100" fill="white"/>
<g transform="translate(0,0)">
<svg width="100" height="100" x="0" y="0" viewBox="0 0 434.96 432.317"
font-family="sans-serif" stroke="rgb(0,0,0)" stroke-width="2"  stroke-linecap="round">
<line x1="250.3" y1="326.1" x2="296.6" y2="312.2" stroke="rgb(0,0,0)"  stroke-width="2.0"/>
<line x1="296.6" y1="312.2" x2="284.8" y2="359.6" stroke="rgb(0,0,0)"  stroke-width="2.0"/>
<line x1="317.3" y1="239.5" x2="317.2" y2="192.2" stroke="rgb(0,0,0)"  stroke-width="2.0"/>
<line x1="276.1" y1="123.1" x2="235.2" y2="98.8" stroke="rgb(0,0,0)"  stroke-width="2.0"/>
<polygon points="275.715805 169.893767 272.145006 123.105187 280.144669 123.178599 " stroke-width="2.000000" fill="rgb(0,0,0)"  stroke="rgb(0,0,0)" />
<line x1="235.2" y1="98.8" x2="193.9" y2="122.7" stroke="rgb(0,0,0)"  stroke-width="2.0"/>
<line x1="193.9" y1="122.7" x2="152.5" y2="100.7" stroke="rgb(0,0,0)"  stroke-width="2.0"/>
<line x1="112.1" y1="124.6" x2="120.2" y2="159.8" stroke="rgb(0,0,0)"  stroke-width="2.0"/>
<line x1="112.1" y1="124.6" x2="69.8" y2="102.1" stroke="rgb(0,0,0)"  stroke-width="2.0"/>
<line x1="112.1" y1="124.6" x2="152.5" y2="100.7" stroke="rgb(0,0,0)"  stroke-width="2.0"/>
<line x1="113.6" y1="181.3" x2="110.2" y2="184.4" stroke="rgb(0,0,0)"  stroke-width="2.0"/>
<line x1="236.2" y1="66.1" x2="238.2" y2="98.6" stroke="rgb(0,0,0)"  stroke-width="2.0"/>
<line x1="230.2" y1="66.5" x2="232.2" y2="98.9" stroke="rgb(0,0,0)"  stroke-width="2.0"/>
<line x1="273.5" y1="118.3" x2="235.2" y2="98.8" stroke="rgb(0,0,0)"  stroke-width="2.0"/>
<line x1="342.7" y1="71.0" x2="361.2" y2="70.0" stroke="rgb(0,0,0)"  stroke-width="2.0"/>
<line x1="323.8" y1="83.2" x2="315.4" y2="99.7" stroke="rgb(0,0,0)"  stroke-width="2.0"/>
<line x1="273.9" y1="73.4" x2="273.5" y2="118.3" stroke="rgb(0,0,0)"  stroke-width="2.0"/>
<line x1="187.8" y1="197.3" x2="231.5" y2="194.6" stroke="rgb(0,0,0)"  stroke-width="2.0"/>
<line x1="188.2" y1="203.3" x2="231.9" y2="200.6" stroke="rgb(0,0,0)"  stroke-width="2.0"/>
<line x1="250.3" y1="326.1" x2="235.2" y2="311.8" stroke="rgb(0,0,0)"  stroke-width="2.0"/>
<line x1="250.3" y1="326.1" x2="245.5" y2="346.3" stroke="rgb(0,0,0)"  stroke-width="2.0"/>
<line x1="250.3" y1="326.1" x2="230.4" y2="332.0" stroke="rgb(0,0,0)"  stroke-width="2.0"/>
<line x1="343.9" y1="313.0" x2="356.4" y2="329.5" stroke="rgb(0,0,0)"  stroke-width="2.0"/>
<line x1="343.9" y1="313.0" x2="334.5" y2="331.5" stroke="rgb(0,0,0)"  stroke-width="2.0"/>
<line x1="284.8" y1="359.6" x2="264.9" y2="365.3" stroke="rgb(0,0,0)"  stroke-width="2.0"/>
<line x1="284.8" y1="359.6" x2="299.7" y2="374.0" stroke="rgb(0,0,0)"  stroke-width="2.0"/>
<line x1="284.8" y1="359.6" x2="279.8" y2="379.7" stroke="rgb(0,0,0)"  stroke-width="2.0"/>
<line x1="272.6" y1="126.1" x2="271.8" y2="124.7" stroke="rgb(0,0,0)"  stroke-width="1.0"/>
<line x1="269.8" y1="128.4" x2="268.3" y2="125.9" stroke="rgb(0,0,0)"  stroke-width="1.0"/>
<line x1="266.9" y1="130.7" x2="264.9" y2="127.1" stroke="rgb(0,0,0)"  stroke-width="1.0"/>
<line x1="264.1" y1="133.1" x2="261.4" y2="128.3" stroke="rgb(0,0,0)"  stroke-width="1.0"/>
<line x1="261.2" y1="135.4" x2="257.9" y2="129.5" stroke="rgb(0,0,0)"  stroke-width="1.0"/>
<line x1="258.4" y1="137.7" x2="254.5" y2="130.7" stroke="rgb(0,0,0)"  stroke-width="1.0"/>
<line x1="193.9" y1="122.7" x2="194.2" y2="143.5" stroke="rgb(0,0,0)"  stroke-width="2.0"/>
<line x1="193.9" y1="122.7" x2="176.1" y2="133.6" stroke="rgb(0,0,0)"  stroke-width="2.0"/>
<line x1="152.5" y1="100.7" x2="152.1" y2="79.9" stroke="rgb(0,0,0)"  stroke-width="2.0"/>
<line x1="152.5" y1="100.7" x2="134.4" y2="90.6" stroke="rgb(0,0,0)"  stroke-width="2.0"/>
<line x1="112.1" y1="124.6" x2="95.6" y2="137.2" stroke="rgb(0,0,0)"  stroke-width="2.0"/>
<line x1="69.8" y1="102.1" x2="69.1" y2="81.3" stroke="rgb(0,0,0)"  stroke-width="2.0"/>
<line x1="69.8" y1="102.1" x2="52.2" y2="113.1" stroke="rgb(0,0,0)"  stroke-width="2.0"/>
<line x1="69.8" y1="102.1" x2="51.5" y2="92.3" stroke="rgb(0,0,0)"  stroke-width="2.0"/>
<line x1="273.5" y1="118.3" x2="284.2" y2="136.1" stroke="rgb(0,0,0)"  stroke-width="2.0"/>
<line x1="273.5" y1="118.3" x2="293.5" y2="112.8" stroke="rgb(0,0,0)"  stroke-width="2.0"/>
<line x1="361.2" y1="70.0" x2="372.5" y2="87.5" stroke="rgb(0,0,0)"  stroke-width="2.0"/>
<line x1="361.2" y1="70.0" x2="370.7" y2="51.6" stroke="rgb(0,0,0)"  stroke-width="2.0"/>
<line x1="361.2" y1="70.0" x2="382.0" y2="69.0" stroke="rgb(0,0,0)"  stroke-width="2.0"/>
<line x1="358.1" y1="120.5" x2="374.7" y2="110.1" stroke="rgb(0,0,0)"  stroke-width="2.0"/>
<line x1="358.1" y1="169.0" x2="375.0" y2="178.8" stroke="rgb(0,0,0)"  stroke-width="2.0"/>
<line x1="233.1" y1="199.0" x2="231.7" y2="197.6" stroke="rgb(0,0,0)"  stroke-width="2.0"/>
<line x1="234.4" y1="189.9" x2="241.1" y2="197.0" stroke="rgb(0,0,0)"  stroke-width="2.0"/>
<line x1="231.7" y1="197.6" x2="275.7" y2="169.9" stroke="rgb(0,0,0)"  stroke-width="2.0"/>
<line x1="275.7" y1="169.9" x2="244.3" y2="192.2" stroke="rgb(0,0,0)"  stroke-width="2.0"/>
<line x1="292.5" y1="258.6" x2="317.3" y2="239.5" stroke="rgb(0,0,0)"  stroke-width="2.0"/>
<line x1="298.0" y1="263.5" x2="316.9" y2="248.9" stroke="rgb(0,0,0)"  stroke-width="2.0"/>
<line x1="317.3" y1="239.5" x2="345.4" y2="260.3" stroke="rgb(0,0,0)"  stroke-width="2.0"/>
<line x1="352.5" y1="280.5" x2="343.9" y2="313.0" stroke="rgb(0,0,0)"  stroke-width="2.0"/>
<line x1="343.9" y1="313.0" x2="296.6" y2="312.2" stroke="rgb(0,0,0)"  stroke-width="2.0"/>
<line x1="296.6" y1="312.2" x2="284.8" y2="280.2" stroke="rgb(0,0,0)"  stroke-width="2.0"/>
<line x1="276.1" y1="123.1" x2="275.7" y2="169.9" stroke="rgb(0,0,0)"  stroke-width="2.0"/>
<line x1="275.7" y1="169.9" x2="317.2" y2="192.2" stroke="rgb(0,0,0)"  stroke-width="2.0"/>
<line x1="317.2" y1="192.2" x2="358.1" y2="169.0" stroke="rgb(0,0,0)"  stroke-width="2.0"/>
<line x1="318.9" y1="183.0" x2="349.4" y2="165.7" stroke="rgb(0,0,0)"  stroke-width="2.0"/>
<line x1="358.1" y1="169.0" x2="358.1" y2="120.5" stroke="rgb(0,0,0)"  stroke-width="2.0"/>
<line x1="358.1" y1="120.5" x2="315.4" y2="99.7" stroke="rgb(0,0,0)"  stroke-width="2.0"/>
<line x1="349.5" y1="124.3" x2="317.6" y2="108.8" stroke="rgb(0,0,0)"  stroke-width="2.0"/>
<line x1="315.4" y1="99.7" x2="276.1" y2="123.1" stroke="rgb(0,0,0)"  stroke-width="2.0"/>
<text x="274.346827" y="275.974909" fill="rgb(12,12,255)"  stroke="rgb(12,12,255)" stroke-width="1" font-size="16" >N</text>
<text x="349.824921" y="275.974909" fill="rgb(255,12,12)"  stroke="rgb(255,12,12)" stroke-width="1" font-size="16" >O</text>
<text x="215.727448" y="207.711494" fill="rgb(17,127,178)"  stroke="rgb(17,127,178)" stroke-width="1" font-size="16" >Xx</text>
<text x="117.100274" y="180.445877" fill="rgb(255,12,12)"  stroke="rgb(255,12,12)" stroke-width="1" font-size="16" >O</text>
<text x="226.386723" y="61.332701" fill="rgb(255,12,12)"  stroke="rgb(255,12,12)" stroke-width="1" font-size="16" >O</text>
<text x="323.742296" y="79.626501" fill="rgb(255,12,12)"  stroke="rgb(255,12,12)" stroke-width="1" font-size="16" >O</text>
<text x="268.056461" y="68.408575" fill="rgb(17,127,178)"  stroke="rgb(17,127,178)" stroke-width="1" font-size="16" >Xx</text>
<text x="168.991069" y="209.143704" fill="rgb(178,178,0)"  stroke="rgb(178,178,0)" stroke-width="1" font-size="16" >S</text>
<text x="94.695968" y="201.288632" fill="rgb(191,191,191)"  stroke="rgb(191,191,191)" stroke-width="1" font-size="16" >H</text>
<text x="219.751178" y="310.914483" fill="rgb(191,191,191)"  stroke="rgb(191,191,191)" stroke-width="1" font-size="16" >H</text>
<text x="236.500195" y="366.928903" fill="rgb(191,191,191)"  stroke="rgb(191,191,191)" stroke-width="1" font-size="16" >H</text>
<text x="211.955716" y="343.756718" fill="rgb(191,191,191)"  stroke="rgb(191,191,191)" stroke-width="1" font-size="16" >H</text>
<text x="358.239847" y="347.889910" fill="rgb(191,191,191)"  stroke="rgb(191,191,191)" stroke-width="1" font-size="16" >H</text>
<text x="322.605233" y="351.077759" fill="rgb(191,191,191)"  stroke="rgb(191,191,191)" stroke-width="1" font-size="16" >H</text>
<text x="246.361728" y="376.864728" fill="rgb(191,191,191)"  stroke="rgb(191,191,191)" stroke-width="1" font-size="16" >H</text>
<text x="303.087236" y="391.019640" fill="rgb(191,191,191)"  stroke="rgb(191,191,191)" stroke-width="1" font-size="16" >H</text>
<text x="270.638311" y="400.317428" fill="rgb(191,191,191)"  stroke="rgb(191,191,191)" stroke-width="1" font-size="16" >H</text>
<text x="240.725372" y="147.691112" fill="rgb(191,191,191)"  stroke="rgb(191,191,191)" stroke-width="1" font-size="16" >H</text>
<text x="188.456398" y="164.490581" fill="rgb(191,191,191)"  stroke="rgb(191,191,191)" stroke-width="1" font-size="16" >H</text>
<text x="159.060437" y="148.359052" fill="rgb(191,191,191)"  stroke="rgb(191,191,191)" stroke-width="1" font-size="16" >H</text>
<text x="145.761637" y="74.921848" fill="rgb(191,191,191)"  stroke="rgb(191,191,191)" stroke-width="1" font-size="16" >H</text>
<text x="117.001233" y="92.286305" fill="rgb(191,191,191)"  stroke="rgb(191,191,191)" stroke-width="1" font-size="16" >H</text>
<text x="79.322374" y="153.130895" fill="rgb(191,191,191)"  stroke="rgb(191,191,191)" stroke-width="1" font-size="16" >H</text>
<text x="62.637597" y="76.330748" fill="rgb(191,191,191)"  stroke="rgb(191,191,191)" stroke-width="1" font-size="16" >H</text>
<text x="35.155446" y="127.933812" fill="rgb(191,191,191)"  stroke="rgb(191,191,191)" stroke-width="1" font-size="16" >H</text>
<text x="34.000000" y="94.198867" fill="rgb(191,191,191)"  stroke="rgb(191,191,191)" stroke-width="1" font-size="16" >H</text>
<text x="284.964181" y="155.193443" fill="rgb(191,191,191)"  stroke="rgb(191,191,191)" stroke-width="1" font-size="16" >H</text>
<text x="300.038818" y="117.404645" fill="rgb(191,191,191)"  stroke="rgb(191,191,191)" stroke-width="1" font-size="16" >H</text>
<text x="373.571369" y="106.391183" fill="rgb(191,191,191)"  stroke="rgb(191,191,191)" stroke-width="1" font-size="16" >H</text>
<text x="370.636316" y="48.000000" fill="rgb(191,191,191)"  stroke="rgb(191,191,191)" stroke-width="1" font-size="16" >H</text>
<text x="388.959925" y="76.348315" fill="rgb(191,191,191)"  stroke="rgb(191,191,191)" stroke-width="1" font-size="16" >H</text>
<text x="379.682589" y="111.204294" fill="rgb(191,191,191)"  stroke="rgb(191,191,191)" stroke-width="1" font-size="16" >H</text>
<text x="380.261407" y="193.359315" fill="rgb(191,191,191)"  stroke="rgb(191,191,191)" stroke-width="1" font-size="16" >H</text>
</svg>
</g>
<text font-size="18.000000" fill ="black" font-family="sans-serif"
x="10.000000" y="20.000000" ></text>
</svg>
