<?xml version="1.0"?>
<svg version="1.1" id="topsvg"
xmlns="http://www.w3.org/2000/svg" xmlns:xlink="http://www.w3.org/1999/xlink"
xmlns:cml="http://www.xml-cml.org/schema" x="0" y="0" width="200px" height="200px" viewBox="0 0 100 100">
<title> - Open Babel Depiction</title>
<rect x="0" y="0" width="100" height="100" fill="white"/>
<g transform="translate(0,0)">
<svg width="100" height="100" x="0" y="0" viewBox="0 0 227.447 284.765"
font-family="sans-serif" stroke="rgb(0,0,0)" stroke-width="2"  stroke-linecap="round">
<line x1="114.0" y1="171.5" x2="122.4" y2="209.6" stroke="rgb(0,0,0)"  stroke-width="2.0"/>
<line x1="114.0" y1="171.5" x2="133.8" y2="180.7" stroke="rgb(0,0,0)"  stroke-width="2.0"/>
<line x1="70.4" y1="148.9" x2="51.7" y2="160.2" stroke="rgb(0,0,0)"  stroke-width="2.0"/>
<line x1="70.4" y1="148.9" x2="51.3" y2="138.2" stroke="rgb(0,0,0)"  stroke-width="2.0"/>
<line x1="70.3" y1="97.9" x2="51.5" y2="86.6" stroke="rgb(0,0,0)"  stroke-width="2.0"/>
<line x1="70.3" y1="97.9" x2="70.8" y2="76.0" stroke="rgb(0,0,0)"  stroke-width="2.0"/>
<line x1="113.8" y1="74.9" x2="113.8" y2="53.0" stroke="rgb(0,0,0)"  stroke-width="2.0"/>
<line x1="113.8" y1="74.9" x2="132.5" y2="63.6" stroke="rgb(0,0,0)"  stroke-width="2.0"/>
<line x1="157.1" y1="97.8" x2="175.8" y2="86.5" stroke="rgb(0,0,0)"  stroke-width="2.0"/>
<line x1="157.1" y1="97.8" x2="176.1" y2="108.5" stroke="rgb(0,0,0)"  stroke-width="2.0"/>
<line x1="157.1" y1="148.9" x2="175.8" y2="160.2" stroke="rgb(0,0,0)"  stroke-width="2.0"/>
<line x1="157.1" y1="148.9" x2="156.4" y2="170.7" stroke="rgb(0,0,0)"  stroke-width="2.0"/>
<line x1="115.6" y1="231.1" x2="110.3" y2="236.0" stroke="rgb(0,0,0)"  stroke-width="2.0"/>
<line x1="137.6" y1="226.2" x2="144.5" y2="228.4" stroke="rgb(0,0,0)"  stroke-width="2.0"/>
<line x1="70.4" y1="148.9" x2="70.3" y2="97.9" stroke="rgb(0,0,0)"  stroke-width="2.0"/>
<line x1="70.3" y1="97.9" x2="113.8" y2="74.9" stroke="rgb(0,0,0)"  stroke-width="2.0"/>
<line x1="113.8" y1="74.9" x2="157.1" y2="97.8" stroke="rgb(0,0,0)"  stroke-width="2.0"/>
<line x1="157.1" y1="97.8" x2="157.1" y2="148.9" stroke="rgb(0,0,0)"  stroke-width="2.0"/>
<line x1="157.1" y1="148.9" x2="114.0" y2="171.5" stroke="rgb(0,0,0)"  stroke-width="2.0"/>
<line x1="114.0" y1="171.5" x2="70.4" y2="148.9" stroke="rgb(0,0,0)"  stroke-width="2.0"/>
<text x="119.206805" y="230.331945" fill="rgb(12,12,255)"  stroke="rgb(12,12,255)" stroke-width="1" font-size="16" >N</text>
<text x="94.699141" y="252.764732" fill="rgb(191,191,191)"  stroke="rgb(191,191,191)" stroke-width="1" font-size="16" >H</text>
<text x="150.886969" y="240.338264" fill="rgb(191,191,191)"  stroke="rgb(191,191,191)" stroke-width="1" font-size="16" >H</text>
<text x="139.590772" y="194.205614" fill="rgb(191,191,191)"  stroke="rgb(191,191,191)" stroke-width="1" font-size="16" >H</text>
<text x="34.644939" y="174.991006" fill="rgb(191,191,191)"  stroke="rgb(191,191,191)" stroke-width="1" font-size="16" >H</text>
<text x="34.000000" y="139.841855" fill="rgb(191,191,191)"  stroke="rgb(191,191,191)" stroke-width="1" font-size="16" >H</text>
<text x="34.368071" y="87.924302" fill="rgb(191,191,191)"  stroke="rgb(191,191,191)" stroke-width="1" font-size="16" >H</text>
<text x="65.201345" y="71.025609" fill="rgb(191,191,191)"  stroke="rgb(191,191,191)" stroke-width="1" font-size="16" >H</text>
<text x="107.803119" y="48.000000" fill="rgb(191,191,191)"  stroke="rgb(191,191,191)" stroke-width="1" font-size="16" >H</text>
<text x="137.652699" y="64.875892" fill="rgb(191,191,191)"  stroke="rgb(191,191,191)" stroke-width="1" font-size="16" >H</text>
<text x="180.977586" y="87.810298" fill="rgb(191,191,191)"  stroke="rgb(191,191,191)" stroke-width="1" font-size="16" >H</text>
<text x="181.446633" y="122.943162" fill="rgb(191,191,191)"  stroke="rgb(191,191,191)" stroke-width="1" font-size="16" >H</text>
<text x="180.905927" y="174.873744" fill="rgb(191,191,191)"  stroke="rgb(191,191,191)" stroke-width="1" font-size="16" >H</text>
<text x="150.049851" y="191.687748" fill="rgb(191,191,191)"  stroke="rgb(191,191,191)" stroke-width="1" font-size="16" >H</text>
</svg>
</g>
<text font-size="18.000000" fill ="black" font-family="sans-serif"
x="10.000000" y="20.000000" ></text>
</svg>
