<?xml version="1.0"?>
<svg version="1.1" id="topsvg"
xmlns="http://www.w3.org/2000/svg" xmlns:xlink="http://www.w3.org/1999/xlink"
xmlns:cml="http://www.xml-cml.org/schema" x="0" y="0" width="200px" height="200px" viewBox="0 0 100 100">
<title> - Open Babel Depiction</title>
<rect x="0" y="0" width="100" height="100" fill="white"/>
<g transform="translate(0,0)">
<svg width="100" height="100" x="0" y="0" viewBox="0 0 357.349 446.383"
font-family="sans-serif" stroke="rgb(0,0,0)" stroke-width="2"  stroke-linecap="round">
<line x1="163.5" y1="337.7" x2="210.4" y2="325.9" stroke="rgb(0,0,0)"  stroke-width="2.0"/>
<line x1="163.5" y1="337.7" x2="148.6" y2="322.3" stroke="rgb(0,0,0)"  stroke-width="2.0"/>
<line x1="163.5" y1="337.7" x2="157.7" y2="358.3" stroke="rgb(0,0,0)"  stroke-width="2.0"/>
<line x1="163.5" y1="337.7" x2="142.8" y2="342.9" stroke="rgb(0,0,0)"  stroke-width="2.0"/>
<line x1="210.4" y1="325.9" x2="197.3" y2="373.2" stroke="rgb(0,0,0)"  stroke-width="2.0"/>
<line x1="258.6" y1="325.9" x2="271.1" y2="343.3" stroke="rgb(0,0,0)"  stroke-width="2.0"/>
<line x1="258.6" y1="325.9" x2="248.9" y2="344.9" stroke="rgb(0,0,0)"  stroke-width="2.0"/>
<line x1="197.3" y1="373.2" x2="176.6" y2="378.6" stroke="rgb(0,0,0)"  stroke-width="2.0"/>
<line x1="197.3" y1="373.2" x2="212.3" y2="388.5" stroke="rgb(0,0,0)"  stroke-width="2.0"/>
<line x1="197.3" y1="373.2" x2="191.6" y2="393.9" stroke="rgb(0,0,0)"  stroke-width="2.0"/>
<line x1="235.7" y1="251.0" x2="235.8" y2="204.0" stroke="rgb(0,0,0)"  stroke-width="2.0"/>
<line x1="194.8" y1="179.5" x2="153.1" y2="198.2" stroke="rgb(0,0,0)"  stroke-width="2.0"/>
<line x1="194.1" y1="169.8" x2="195.7" y2="169.8" stroke="rgb(0,0,0)"  stroke-width="1.0"/>
<line x1="193.5" y1="162.0" x2="196.4" y2="162.0" stroke="rgb(0,0,0)"  stroke-width="1.0"/>
<line x1="193.0" y1="154.2" x2="197.1" y2="154.2" stroke="rgb(0,0,0)"  stroke-width="1.0"/>
<line x1="192.4" y1="146.4" x2="197.8" y2="146.4" stroke="rgb(0,0,0)"  stroke-width="1.0"/>
<line x1="191.8" y1="138.6" x2="198.6" y2="138.7" stroke="rgb(0,0,0)"  stroke-width="1.0"/>
<line x1="191.3" y1="130.8" x2="199.3" y2="130.9" stroke="rgb(0,0,0)"  stroke-width="1.0"/>
<line x1="194.8" y1="179.5" x2="193.5" y2="200.9" stroke="rgb(0,0,0)"  stroke-width="2.0"/>
<line x1="153.1" y1="198.2" x2="153.0" y2="218.4" stroke="rgb(0,0,0)"  stroke-width="2.0"/>
<line x1="195.3" y1="130.8" x2="154.8" y2="106.6" stroke="rgb(0,0,0)"  stroke-width="2.0"/>
<polygon points="195.291323 130.847337 191.205172 107.809602 199.205116 107.779695 " stroke-width="2.000000" fill="rgb(0,0,0)"  stroke="rgb(0,0,0)" />
<line x1="263.8" y1="77.7" x2="283.0" y2="77.1" stroke="rgb(0,0,0)"  stroke-width="2.0"/>
<line x1="244.6" y1="89.5" x2="235.5" y2="106.3" stroke="rgb(0,0,0)"  stroke-width="2.0"/>
<line x1="283.0" y1="77.1" x2="294.2" y2="95.3" stroke="rgb(0,0,0)"  stroke-width="2.0"/>
<line x1="283.0" y1="77.1" x2="293.1" y2="58.3" stroke="rgb(0,0,0)"  stroke-width="2.0"/>
<line x1="283.0" y1="77.1" x2="304.4" y2="76.5" stroke="rgb(0,0,0)"  stroke-width="2.0"/>
<line x1="278.2" y1="130.2" x2="295.6" y2="119.9" stroke="rgb(0,0,0)"  stroke-width="2.0"/>
<line x1="278.2" y1="180.1" x2="295.7" y2="190.3" stroke="rgb(0,0,0)"  stroke-width="2.0"/>
<line x1="65.8" y1="106.8" x2="66.4" y2="56.9" stroke="rgb(0,0,0)"  stroke-width="2.0"/>
<line x1="71.8" y1="106.9" x2="72.4" y2="56.9" stroke="rgb(0,0,0)"  stroke-width="2.0"/>
<line x1="68.8" y1="106.9" x2="51.3" y2="116.9" stroke="rgb(0,0,0)"  stroke-width="2.0"/>
<line x1="69.4" y1="56.9" x2="87.0" y2="47.0" stroke="rgb(0,0,0)"  stroke-width="2.0"/>
<line x1="69.4" y1="56.9" x2="52.0" y2="46.6" stroke="rgb(0,0,0)"  stroke-width="2.0"/>
<line x1="154.8" y1="106.6" x2="110.9" y2="131.2" stroke="rgb(0,0,0)"  stroke-width="2.0"/>
<line x1="154.8" y1="106.6" x2="155.1" y2="85.2" stroke="rgb(0,0,0)"  stroke-width="2.0"/>
<line x1="154.8" y1="106.6" x2="136.4" y2="95.7" stroke="rgb(0,0,0)"  stroke-width="2.0"/>
<line x1="110.9" y1="131.2" x2="68.8" y2="106.9" stroke="rgb(0,0,0)"  stroke-width="2.0"/>
<line x1="110.9" y1="131.2" x2="110.8" y2="152.6" stroke="rgb(0,0,0)"  stroke-width="2.0"/>
<line x1="110.9" y1="131.2" x2="92.4" y2="141.8" stroke="rgb(0,0,0)"  stroke-width="2.0"/>
<line x1="112.2" y1="176.2" x2="154.4" y2="195.5" stroke="rgb(0,0,0)"  stroke-width="2.0"/>
<line x1="109.7" y1="181.7" x2="151.9" y2="201.0" stroke="rgb(0,0,0)"  stroke-width="2.0"/>
<line x1="111.0" y1="178.9" x2="109.1" y2="158.9" stroke="rgb(0,0,0)"  stroke-width="2.0"/>
<line x1="111.0" y1="178.9" x2="94.5" y2="190.6" stroke="rgb(0,0,0)"  stroke-width="2.0"/>
<line x1="208.5" y1="270.5" x2="235.7" y2="251.0" stroke="rgb(0,0,0)"  stroke-width="2.0"/>
<line x1="213.5" y1="275.8" x2="235.0" y2="260.4" stroke="rgb(0,0,0)"  stroke-width="2.0"/>
<line x1="235.7" y1="251.0" x2="263.4" y2="273.5" stroke="rgb(0,0,0)"  stroke-width="2.0"/>
<line x1="269.3" y1="294.1" x2="258.6" y2="325.9" stroke="rgb(0,0,0)"  stroke-width="2.0"/>
<line x1="258.6" y1="325.9" x2="210.4" y2="325.9" stroke="rgb(0,0,0)"  stroke-width="2.0"/>
<line x1="210.4" y1="325.9" x2="199.2" y2="292.5" stroke="rgb(0,0,0)"  stroke-width="2.0"/>
<line x1="195.3" y1="130.8" x2="194.8" y2="179.5" stroke="rgb(0,0,0)"  stroke-width="2.0"/>
<line x1="194.8" y1="179.5" x2="235.8" y2="204.0" stroke="rgb(0,0,0)"  stroke-width="2.0"/>
<line x1="235.8" y1="204.0" x2="278.2" y2="180.1" stroke="rgb(0,0,0)"  stroke-width="2.0"/>
<line x1="237.5" y1="194.8" x2="269.5" y2="176.8" stroke="rgb(0,0,0)"  stroke-width="2.0"/>
<line x1="278.2" y1="180.1" x2="278.2" y2="130.2" stroke="rgb(0,0,0)"  stroke-width="2.0"/>
<line x1="278.2" y1="130.2" x2="235.5" y2="106.3" stroke="rgb(0,0,0)"  stroke-width="2.0"/>
<line x1="269.4" y1="133.5" x2="237.3" y2="115.5" stroke="rgb(0,0,0)"  stroke-width="2.0"/>
<line x1="235.5" y1="106.3" x2="195.3" y2="130.8" stroke="rgb(0,0,0)"  stroke-width="2.0"/>
<text x="189.066230" y="288.135121" fill="rgb(12,12,255)"  stroke="rgb(12,12,255)" stroke-width="1" font-size="16" >N</text>
<text x="267.475598" y="289.736493" fill="rgb(255,12,12)"  stroke="rgb(255,12,12)" stroke-width="1" font-size="16" >O</text>
<text x="244.815214" y="86.040634" fill="rgb(255,12,12)"  stroke="rgb(255,12,12)" stroke-width="1" font-size="16" >O</text>
<text x="133.574495" y="320.963256" fill="rgb(191,191,191)"  stroke="rgb(191,191,191)" stroke-width="1" font-size="16" >H</text>
<text x="148.105825" y="378.757365" fill="rgb(191,191,191)"  stroke="rgb(191,191,191)" stroke-width="1" font-size="16" >H</text>
<text x="124.155981" y="354.055070" fill="rgb(191,191,191)"  stroke="rgb(191,191,191)" stroke-width="1" font-size="16" >H</text>
<text x="272.710607" y="361.833624" fill="rgb(191,191,191)"  stroke="rgb(191,191,191)" stroke-width="1" font-size="16" >H</text>
<text x="236.927329" y="364.505794" fill="rgb(191,191,191)"  stroke="rgb(191,191,191)" stroke-width="1" font-size="16" >H</text>
<text x="158.016326" y="389.864073" fill="rgb(191,191,191)"  stroke="rgb(191,191,191)" stroke-width="1" font-size="16" >H</text>
<text x="215.456719" y="405.739526" fill="rgb(191,191,191)"  stroke="rgb(191,191,191)" stroke-width="1" font-size="16" >H</text>
<text x="182.155890" y="414.383078" fill="rgb(191,191,191)"  stroke="rgb(191,191,191)" stroke-width="1" font-size="16" >H</text>
<text x="186.799227" y="221.842161" fill="rgb(191,191,191)"  stroke="rgb(191,191,191)" stroke-width="1" font-size="16" >H</text>
<text x="146.996440" y="239.428317" fill="rgb(191,191,191)"  stroke="rgb(191,191,191)" stroke-width="1" font-size="16" >H</text>
<text x="189.162698" y="104.440339" fill="rgb(191,191,191)"  stroke="rgb(191,191,191)" stroke-width="1" font-size="16" >H</text>
<text x="295.010843" y="114.405506" fill="rgb(191,191,191)"  stroke="rgb(191,191,191)" stroke-width="1" font-size="16" >H</text>
<text x="293.293709" y="54.833165" fill="rgb(191,191,191)"  stroke="rgb(191,191,191)" stroke-width="1" font-size="16" >H</text>
<text x="311.349344" y="84.124132" fill="rgb(191,191,191)"  stroke="rgb(191,191,191)" stroke-width="1" font-size="16" >H</text>
<text x="300.798936" y="121.351218" fill="rgb(191,191,191)"  stroke="rgb(191,191,191)" stroke-width="1" font-size="16" >H</text>
<text x="300.882542" y="204.802658" fill="rgb(191,191,191)"  stroke="rgb(191,191,191)" stroke-width="1" font-size="16" >H</text>
<text x="34.000000" y="131.316385" fill="rgb(191,191,191)"  stroke="rgb(191,191,191)" stroke-width="1" font-size="16" >H</text>
<text x="92.295744" y="48.633475" fill="rgb(191,191,191)"  stroke="rgb(191,191,191)" stroke-width="1" font-size="16" >H</text>
<text x="34.819980" y="48.000000" fill="rgb(191,191,191)"  stroke="rgb(191,191,191)" stroke-width="1" font-size="16" >H</text>
<text x="149.321324" y="80.213954" fill="rgb(191,191,191)"  stroke="rgb(191,191,191)" stroke-width="1" font-size="16" >H</text>
<text x="119.265043" y="96.996208" fill="rgb(191,191,191)"  stroke="rgb(191,191,191)" stroke-width="1" font-size="16" >H</text>
<text x="104.724067" y="173.572680" fill="rgb(191,191,191)"  stroke="rgb(191,191,191)" stroke-width="1" font-size="16" >H</text>
<text x="75.098677" y="156.279144" fill="rgb(191,191,191)"  stroke="rgb(191,191,191)" stroke-width="1" font-size="16" >H</text>
<text x="101.871823" y="153.912457" fill="rgb(191,191,191)"  stroke="rgb(191,191,191)" stroke-width="1" font-size="16" >H</text>
<text x="77.934842" y="206.169291" fill="rgb(191,191,191)"  stroke="rgb(191,191,191)" stroke-width="1" font-size="16" >H</text>
</svg>
</g>
<text font-size="18.000000" fill ="black" font-family="sans-serif"
x="10.000000" y="20.000000" ></text>
</svg>
