<?xml version="1.0"?>
<svg version="1.1" id="topsvg"
xmlns="http://www.w3.org/2000/svg" xmlns:xlink="http://www.w3.org/1999/xlink"
xmlns:cml="http://www.xml-cml.org/schema" x="0" y="0" width="200px" height="200px" viewBox="0 0 100 100">
<title> - Open Babel Depiction</title>
<rect x="0" y="0" width="100" height="100" fill="white"/>
<g transform="translate(0,0)">
<svg width="100" height="100" x="0" y="0" viewBox="0 0 349.823 247.649"
font-family="sans-serif" stroke="rgb(0,0,0)" stroke-width="2"  stroke-linecap="round">
<line x1="68.7" y1="149.4" x2="51.2" y2="159.7" stroke="rgb(0,0,0)"  stroke-width="2.0"/>
<line x1="70.0" y1="99.1" x2="52.4" y2="88.7" stroke="rgb(0,0,0)"  stroke-width="2.0"/>
<line x1="152.9" y1="98.9" x2="195.2" y2="74.5" stroke="rgb(0,0,0)"  stroke-width="2.0"/>
<line x1="195.2" y1="74.5" x2="195.5" y2="53.0" stroke="rgb(0,0,0)"  stroke-width="2.0"/>
<line x1="195.2" y1="74.5" x2="214.1" y2="64.0" stroke="rgb(0,0,0)"  stroke-width="2.0"/>
<line x1="279.3" y1="74.8" x2="237.1" y2="99.7" stroke="rgb(0,0,0)"  stroke-width="2.0"/>
<line x1="279.3" y1="74.8" x2="298.1" y2="85.4" stroke="rgb(0,0,0)"  stroke-width="2.0"/>
<line x1="279.3" y1="74.8" x2="279.1" y2="53.2" stroke="rgb(0,0,0)"  stroke-width="2.0"/>
<line x1="279.3" y1="74.8" x2="297.9" y2="63.8" stroke="rgb(0,0,0)"  stroke-width="2.0"/>
<line x1="237.1" y1="99.7" x2="195.2" y2="74.5" stroke="rgb(0,0,0)"  stroke-width="2.0"/>
<line x1="237.1" y1="99.7" x2="237.0" y2="121.3" stroke="rgb(0,0,0)"  stroke-width="2.0"/>
<line x1="237.1" y1="99.7" x2="218.3" y2="110.3" stroke="rgb(0,0,0)"  stroke-width="2.0"/>
<line x1="194.7" y1="172.5" x2="238.0" y2="149.3" stroke="rgb(0,0,0)"  stroke-width="2.0"/>
<line x1="194.7" y1="172.5" x2="153.0" y2="148.6" stroke="rgb(0,0,0)"  stroke-width="2.0"/>
<line x1="194.7" y1="172.5" x2="194.4" y2="194.1" stroke="rgb(0,0,0)"  stroke-width="2.0"/>
<line x1="194.7" y1="172.5" x2="175.9" y2="183.2" stroke="rgb(0,0,0)"  stroke-width="2.0"/>
<line x1="238.0" y1="149.3" x2="279.8" y2="173.1" stroke="rgb(0,0,0)"  stroke-width="2.0"/>
<line x1="238.0" y1="149.3" x2="238.3" y2="127.7" stroke="rgb(0,0,0)"  stroke-width="2.0"/>
<line x1="238.0" y1="149.3" x2="256.7" y2="138.6" stroke="rgb(0,0,0)"  stroke-width="2.0"/>
<line x1="279.8" y1="173.1" x2="279.9" y2="194.6" stroke="rgb(0,0,0)"  stroke-width="2.0"/>
<line x1="279.8" y1="173.1" x2="298.4" y2="162.2" stroke="rgb(0,0,0)"  stroke-width="2.0"/>
<line x1="279.8" y1="173.1" x2="298.5" y2="183.8" stroke="rgb(0,0,0)"  stroke-width="2.0"/>
<line x1="110.6" y1="171.2" x2="110.7" y2="191.6" stroke="rgb(0,0,0)"  stroke-width="2.0"/>
<line x1="110.6" y1="75.2" x2="110.4" y2="54.9" stroke="rgb(0,0,0)"  stroke-width="2.0"/>
<line x1="70.0" y1="99.1" x2="110.6" y2="75.2" stroke="rgb(0,0,0)"  stroke-width="2.0"/>
<line x1="110.6" y1="75.2" x2="152.9" y2="98.9" stroke="rgb(0,0,0)"  stroke-width="2.0"/>
<line x1="112.3" y1="84.4" x2="144.2" y2="102.2" stroke="rgb(0,0,0)"  stroke-width="2.0"/>
<line x1="152.9" y1="98.9" x2="153.0" y2="148.6" stroke="rgb(0,0,0)"  stroke-width="2.0"/>
<line x1="153.0" y1="148.6" x2="110.6" y2="171.2" stroke="rgb(0,0,0)"  stroke-width="2.0"/>
<line x1="144.4" y1="145.1" x2="112.5" y2="162.1" stroke="rgb(0,0,0)"  stroke-width="2.0"/>
<line x1="110.6" y1="171.2" x2="68.7" y2="149.4" stroke="rgb(0,0,0)"  stroke-width="2.0"/>
<line x1="68.7" y1="149.4" x2="70.0" y2="99.1" stroke="rgb(0,0,0)"  stroke-width="2.0"/>
<line x1="76.1" y1="143.5" x2="77.0" y2="105.2" stroke="rgb(0,0,0)"  stroke-width="2.0"/>
<text x="34.000000" y="174.274444" fill="rgb(191,191,191)"  stroke="rgb(191,191,191)" stroke-width="1" font-size="16" >H</text>
<text x="35.246342" y="90.146372" fill="rgb(191,191,191)"  stroke="rgb(191,191,191)" stroke-width="1" font-size="16" >H</text>
<text x="189.589307" y="48.000000" fill="rgb(191,191,191)"  stroke="rgb(191,191,191)" stroke-width="1" font-size="16" >H</text>
<text x="219.404644" y="65.694179" fill="rgb(191,191,191)"  stroke="rgb(191,191,191)" stroke-width="1" font-size="16" >H</text>
<text x="303.410019" y="99.761931" fill="rgb(191,191,191)"  stroke="rgb(191,191,191)" stroke-width="1" font-size="16" >H</text>
<text x="272.987655" y="48.232478" fill="rgb(191,191,191)"  stroke="rgb(191,191,191)" stroke-width="1" font-size="16" >H</text>
<text x="303.074217" y="65.216307" fill="rgb(191,191,191)"  stroke="rgb(191,191,191)" stroke-width="1" font-size="16" >H</text>
<text x="230.922005" y="142.269936" fill="rgb(191,191,191)"  stroke="rgb(191,191,191)" stroke-width="1" font-size="16" >H</text>
<text x="200.958140" y="124.656479" fill="rgb(191,191,191)"  stroke="rgb(191,191,191)" stroke-width="1" font-size="16" >H</text>
<text x="188.168606" y="215.084065" fill="rgb(191,191,191)"  stroke="rgb(191,191,191)" stroke-width="1" font-size="16" >H</text>
<text x="158.640638" y="197.612678" fill="rgb(191,191,191)"  stroke="rgb(191,191,191)" stroke-width="1" font-size="16" >H</text>
<text x="232.423427" y="122.722389" fill="rgb(191,191,191)"  stroke="rgb(191,191,191)" stroke-width="1" font-size="16" >H</text>
<text x="261.970768" y="140.096910" fill="rgb(191,191,191)"  stroke="rgb(191,191,191)" stroke-width="1" font-size="16" >H</text>
<text x="274.001519" y="215.649117" fill="rgb(191,191,191)"  stroke="rgb(191,191,191)" stroke-width="1" font-size="16" >H</text>
<text x="303.629582" y="163.657936" fill="rgb(191,191,191)"  stroke="rgb(191,191,191)" stroke-width="1" font-size="16" >H</text>
<text x="303.823314" y="198.206789" fill="rgb(191,191,191)"  stroke="rgb(191,191,191)" stroke-width="1" font-size="16" >H</text>
<text x="104.715367" y="212.555864" fill="rgb(191,191,191)"  stroke="rgb(191,191,191)" stroke-width="1" font-size="16" >H</text>
<text x="104.292386" y="49.895344" fill="rgb(191,191,191)"  stroke="rgb(191,191,191)" stroke-width="1" font-size="16" >H</text>
</svg>
</g>
<text font-size="18.000000" fill ="black" font-family="sans-serif"
x="10.000000" y="20.000000" ></text>
</svg>
