<?xml version="1.0"?>
<svg version="1.1" id="topsvg"
xmlns="http://www.w3.org/2000/svg" xmlns:xlink="http://www.w3.org/1999/xlink"
xmlns:cml="http://www.xml-cml.org/schema" x="0" y="0" width="200px" height="200px" viewBox="0 0 100 100">
<title> - Open Babel Depiction</title>
<rect x="0" y="0" width="100" height="100" fill="white"/>
<g transform="translate(0,0)">
<svg width="100" height="100" x="0" y="0" viewBox="0 0 370.633 310.636"
font-family="sans-serif" stroke="rgb(0,0,0)" stroke-width="2"  stroke-linecap="round">
<line x1="135.7" y1="229.4" x2="123.1" y2="249.4" stroke="rgb(0,0,0)"  stroke-width="2.0"/>
<line x1="135.7" y1="229.4" x2="113.9" y2="220.3" stroke="rgb(0,0,0)"  stroke-width="2.0"/>
<line x1="138.9" y1="215.4" x2="121.5" y2="199.5" stroke="rgb(0,0,0)"  stroke-width="2.0"/>
<line x1="138.9" y1="215.4" x2="116.4" y2="222.4" stroke="rgb(0,0,0)"  stroke-width="2.0"/>
<line x1="207.6" y1="131.4" x2="207.9" y2="107.8" stroke="rgb(0,0,0)"  stroke-width="2.0"/>
<line x1="207.6" y1="131.4" x2="187.6" y2="118.9" stroke="rgb(0,0,0)"  stroke-width="2.0"/>
<line x1="253.2" y1="155.6" x2="273.5" y2="143.6" stroke="rgb(0,0,0)"  stroke-width="2.0"/>
<line x1="253.2" y1="155.6" x2="273.6" y2="167.5" stroke="rgb(0,0,0)"  stroke-width="2.0"/>
<line x1="252.5" y1="207.5" x2="298.9" y2="234.1" stroke="rgb(0,0,0)"  stroke-width="2.0"/>
<line x1="256.3" y1="204.4" x2="257.1" y2="205.8" stroke="rgb(0,0,0)"  stroke-width="1.0"/>
<line x1="259.4" y1="201.9" x2="260.8" y2="204.4" stroke="rgb(0,0,0)"  stroke-width="1.0"/>
<line x1="262.5" y1="199.4" x2="264.6" y2="203.0" stroke="rgb(0,0,0)"  stroke-width="1.0"/>
<line x1="265.6" y1="196.9" x2="268.3" y2="201.6" stroke="rgb(0,0,0)"  stroke-width="1.0"/>
<line x1="268.7" y1="194.4" x2="272.0" y2="200.2" stroke="rgb(0,0,0)"  stroke-width="1.0"/>
<line x1="271.8" y1="191.9" x2="275.7" y2="198.9" stroke="rgb(0,0,0)"  stroke-width="1.0"/>
<line x1="298.9" y1="234.1" x2="299.0" y2="257.6" stroke="rgb(0,0,0)"  stroke-width="2.0"/>
<line x1="298.9" y1="234.1" x2="319.2" y2="222.2" stroke="rgb(0,0,0)"  stroke-width="2.0"/>
<line x1="298.9" y1="234.1" x2="319.3" y2="245.8" stroke="rgb(0,0,0)"  stroke-width="2.0"/>
<line x1="161.1" y1="154.8" x2="122.0" y2="129.5" stroke="rgb(0,0,0)"  stroke-width="2.0"/>
<polygon points="161.077063 154.824064 158.418425 130.133338 166.406541 130.569230 " stroke-width="2.000000" fill="rgb(0,0,0)"  stroke="rgb(0,0,0)" />
<line x1="208.4" y1="231.9" x2="208.5" y2="255.5" stroke="rgb(0,0,0)"  stroke-width="2.0"/>
<line x1="208.4" y1="231.9" x2="228.8" y2="243.9" stroke="rgb(0,0,0)"  stroke-width="2.0"/>
<line x1="72.3" y1="155.9" x2="122.0" y2="129.5" stroke="rgb(0,0,0)"  stroke-width="2.0"/>
<line x1="72.3" y1="155.9" x2="52.3" y2="143.5" stroke="rgb(0,0,0)"  stroke-width="2.0"/>
<line x1="72.3" y1="155.9" x2="71.5" y2="179.5" stroke="rgb(0,0,0)"  stroke-width="2.0"/>
<line x1="72.3" y1="155.9" x2="51.5" y2="167.0" stroke="rgb(0,0,0)"  stroke-width="2.0"/>
<line x1="122.0" y1="129.5" x2="101.4" y2="118.0" stroke="rgb(0,0,0)"  stroke-width="2.0"/>
<line x1="118.8" y1="76.5" x2="122.0" y2="129.5" stroke="rgb(0,0,0)"  stroke-width="2.0"/>
<line x1="118.8" y1="76.5" x2="138.5" y2="63.5" stroke="rgb(0,0,0)"  stroke-width="2.0"/>
<line x1="118.8" y1="76.5" x2="97.7" y2="66.0" stroke="rgb(0,0,0)"  stroke-width="2.0"/>
<line x1="118.8" y1="76.5" x2="117.4" y2="53.0" stroke="rgb(0,0,0)"  stroke-width="2.0"/>
<line x1="135.7" y1="229.4" x2="163.7" y2="207.2" stroke="rgb(0,0,0)"  stroke-width="2.0"/>
<line x1="163.7" y1="207.2" x2="138.9" y2="215.4" stroke="rgb(0,0,0)"  stroke-width="2.0"/>
<line x1="138.9" y1="215.4" x2="135.7" y2="229.4" stroke="rgb(0,0,0)"  stroke-width="2.0"/>
<line x1="207.6" y1="131.4" x2="161.1" y2="154.8" stroke="rgb(0,0,0)"  stroke-width="2.0"/>
<line x1="161.1" y1="154.8" x2="163.7" y2="207.2" stroke="rgb(0,0,0)"  stroke-width="2.0"/>
<line x1="163.7" y1="207.2" x2="208.4" y2="231.9" stroke="rgb(0,0,0)"  stroke-width="2.0"/>
<line x1="208.4" y1="231.9" x2="252.5" y2="207.5" stroke="rgb(0,0,0)"  stroke-width="2.0"/>
<line x1="252.5" y1="207.5" x2="253.2" y2="155.6" stroke="rgb(0,0,0)"  stroke-width="2.0"/>
<line x1="253.2" y1="155.6" x2="207.6" y2="131.4" stroke="rgb(0,0,0)"  stroke-width="2.0"/>
<text x="110.116327" y="268.342135" fill="rgb(191,191,191)"  stroke="rgb(191,191,191)" stroke-width="1" font-size="16" >H</text>
<text x="95.887251" y="223.333536" fill="rgb(191,191,191)"  stroke="rgb(191,191,191)" stroke-width="1" font-size="16" >H</text>
<text x="105.839399" y="198.762567" fill="rgb(191,191,191)"  stroke="rgb(191,191,191)" stroke-width="1" font-size="16" >H</text>
<text x="97.965886" y="234.297651" fill="rgb(191,191,191)"  stroke="rgb(191,191,191)" stroke-width="1" font-size="16" >H</text>
<text x="202.048057" y="102.827414" fill="rgb(191,191,191)"  stroke="rgb(191,191,191)" stroke-width="1" font-size="16" >H</text>
<text x="170.605286" y="120.034271" fill="rgb(191,191,191)"  stroke="rgb(191,191,191)" stroke-width="1" font-size="16" >H</text>
<text x="278.731906" y="145.029172" fill="rgb(191,191,191)"  stroke="rgb(191,191,191)" stroke-width="1" font-size="16" >H</text>
<text x="278.872078" y="182.006992" fill="rgb(191,191,191)"  stroke="rgb(191,191,191)" stroke-width="1" font-size="16" >H</text>
<text x="278.232761" y="197.398463" fill="rgb(191,191,191)"  stroke="rgb(191,191,191)" stroke-width="1" font-size="16" >H</text>
<text x="293.032778" y="278.636164" fill="rgb(191,191,191)"  stroke="rgb(191,191,191)" stroke-width="1" font-size="16" >H</text>
<text x="324.475549" y="223.627553" fill="rgb(191,191,191)"  stroke="rgb(191,191,191)" stroke-width="1" font-size="16" >H</text>
<text x="324.632814" y="260.208792" fill="rgb(191,191,191)"  stroke="rgb(191,191,191)" stroke-width="1" font-size="16" >H</text>
<text x="157.070228" y="126.297526" fill="rgb(191,191,191)"  stroke="rgb(191,191,191)" stroke-width="1" font-size="16" >H</text>
<text x="202.468571" y="276.513084" fill="rgb(191,191,191)"  stroke="rgb(191,191,191)" stroke-width="1" font-size="16" >H</text>
<text x="233.966043" y="258.482294" fill="rgb(191,191,191)"  stroke="rgb(191,191,191)" stroke-width="1" font-size="16" >H</text>
<text x="35.258121" y="144.567633" fill="rgb(191,191,191)"  stroke="rgb(191,191,191)" stroke-width="1" font-size="16" >H</text>
<text x="65.032514" y="200.499321" fill="rgb(191,191,191)"  stroke="rgb(191,191,191)" stroke-width="1" font-size="16" >H</text>
<text x="34.000000" y="181.128359" fill="rgb(191,191,191)"  stroke="rgb(191,191,191)" stroke-width="1" font-size="16" >H</text>
<text x="84.078690" y="119.593245" fill="rgb(191,191,191)"  stroke="rgb(191,191,191)" stroke-width="1" font-size="16" >H</text>
<text x="143.367648" y="64.372668" fill="rgb(191,191,191)"  stroke="rgb(191,191,191)" stroke-width="1" font-size="16" >H</text>
<text x="80.119711" y="68.143613" fill="rgb(191,191,191)"  stroke="rgb(191,191,191)" stroke-width="1" font-size="16" >H</text>
<text x="110.656499" y="48.000000" fill="rgb(191,191,191)"  stroke="rgb(191,191,191)" stroke-width="1" font-size="16" >H</text>
</svg>
</g>
<text font-size="18.000000" fill ="black" font-family="sans-serif"
x="10.000000" y="20.000000" ></text>
</svg>
