<?xml version="1.0"?>
<svg version="1.1" id="topsvg"
xmlns="http://www.w3.org/2000/svg" xmlns:xlink="http://www.w3.org/1999/xlink"
xmlns:cml="http://www.xml-cml.org/schema" x="0" y="0" width="200px" height="200px" viewBox="0 0 100 100">
<title> - Open Babel Depiction</title>
<rect x="0" y="0" width="100" height="100" fill="white"/>
<g transform="translate(0,0)">
<svg width="100" height="100" x="0" y="0" viewBox="0 0 386.985 439.213"
font-family="sans-serif" stroke="rgb(0,0,0)" stroke-width="2"  stroke-linecap="round">
<line x1="250.7" y1="322.0" x2="202.3" y2="332.4" stroke="rgb(0,0,0)"  stroke-width="2.0"/>
<line x1="250.7" y1="322.0" x2="236.7" y2="366.9" stroke="rgb(0,0,0)"  stroke-width="2.0"/>
<line x1="234.6" y1="174.1" x2="192.4" y2="193.4" stroke="rgb(0,0,0)"  stroke-width="2.0"/>
<line x1="192.7" y1="101.5" x2="151.1" y2="124.8" stroke="rgb(0,0,0)"  stroke-width="2.0"/>
<line x1="192.7" y1="101.5" x2="234.4" y2="125.9" stroke="rgb(0,0,0)"  stroke-width="2.0"/>
<line x1="109.9" y1="103.0" x2="151.1" y2="124.8" stroke="rgb(0,0,0)"  stroke-width="2.0"/>
<line x1="66.5" y1="123.3" x2="108.5" y2="100.3" stroke="rgb(0,0,0)"  stroke-width="2.0"/>
<line x1="69.4" y1="128.6" x2="111.3" y2="105.6" stroke="rgb(0,0,0)"  stroke-width="2.0"/>
<line x1="274.7" y1="103.4" x2="274.1" y2="68.3" stroke="rgb(0,0,0)"  stroke-width="2.0"/>
<line x1="285.0" y1="48.6" x2="288.2" y2="46.7" stroke="rgb(0,0,0)"  stroke-width="2.0"/>
<polygon points="275.552280 197.697778 232.610243 177.529906 236.609491 170.601269 " stroke-width="2.000000" fill="rgb(0,0,0)"  stroke="rgb(0,0,0)" />
<line x1="275.6" y1="197.7" x2="272.8" y2="244.4" stroke="rgb(0,0,0)"  stroke-width="2.0"/>
<line x1="152.1" y1="171.6" x2="193.7" y2="190.7" stroke="rgb(0,0,0)"  stroke-width="2.0"/>
<line x1="149.6" y1="177.1" x2="191.2" y2="196.2" stroke="rgb(0,0,0)"  stroke-width="2.0"/>
<line x1="202.3" y1="332.4" x2="188.3" y2="316.9" stroke="rgb(0,0,0)"  stroke-width="2.0"/>
<line x1="202.3" y1="332.4" x2="195.9" y2="352.3" stroke="rgb(0,0,0)"  stroke-width="2.0"/>
<line x1="202.3" y1="332.4" x2="181.9" y2="336.8" stroke="rgb(0,0,0)"  stroke-width="2.0"/>
<line x1="299.1" y1="321.2" x2="311.8" y2="337.8" stroke="rgb(0,0,0)"  stroke-width="2.0"/>
<line x1="299.1" y1="321.2" x2="290.0" y2="340.0" stroke="rgb(0,0,0)"  stroke-width="2.0"/>
<line x1="236.7" y1="366.9" x2="216.3" y2="371.4" stroke="rgb(0,0,0)"  stroke-width="2.0"/>
<line x1="236.7" y1="366.9" x2="250.8" y2="382.2" stroke="rgb(0,0,0)"  stroke-width="2.0"/>
<line x1="236.7" y1="366.9" x2="230.4" y2="386.8" stroke="rgb(0,0,0)"  stroke-width="2.0"/>
<line x1="234.6" y1="174.1" x2="217.0" y2="162.8" stroke="rgb(0,0,0)"  stroke-width="2.0"/>
<line x1="192.4" y1="193.4" x2="192.4" y2="213.1" stroke="rgb(0,0,0)"  stroke-width="2.0"/>
<line x1="192.7" y1="101.5" x2="192.9" y2="80.6" stroke="rgb(0,0,0)"  stroke-width="2.0"/>
<line x1="192.7" y1="101.5" x2="210.8" y2="91.2" stroke="rgb(0,0,0)"  stroke-width="2.0"/>
<line x1="151.1" y1="124.8" x2="151.3" y2="145.7" stroke="rgb(0,0,0)"  stroke-width="2.0"/>
<line x1="151.1" y1="124.8" x2="133.3" y2="135.7" stroke="rgb(0,0,0)"  stroke-width="2.0"/>
<line x1="109.9" y1="103.0" x2="109.8" y2="83.3" stroke="rgb(0,0,0)"  stroke-width="2.0"/>
<line x1="67.9" y1="125.9" x2="51.1" y2="115.7" stroke="rgb(0,0,0)"  stroke-width="2.0"/>
<line x1="67.9" y1="125.9" x2="67.5" y2="145.6" stroke="rgb(0,0,0)"  stroke-width="2.0"/>
<line x1="317.5" y1="125.8" x2="335.3" y2="115.0" stroke="rgb(0,0,0)"  stroke-width="2.0"/>
<line x1="317.5" y1="125.8" x2="335.7" y2="136.1" stroke="rgb(0,0,0)"  stroke-width="2.0"/>
<line x1="317.5" y1="175.1" x2="335.4" y2="185.8" stroke="rgb(0,0,0)"  stroke-width="2.0"/>
<line x1="317.5" y1="175.1" x2="317.0" y2="196.0" stroke="rgb(0,0,0)"  stroke-width="2.0"/>
<line x1="275.6" y1="197.7" x2="293.1" y2="208.9" stroke="rgb(0,0,0)"  stroke-width="2.0"/>
<line x1="150.8" y1="174.3" x2="149.0" y2="154.7" stroke="rgb(0,0,0)"  stroke-width="2.0"/>
<line x1="150.8" y1="174.3" x2="134.8" y2="185.7" stroke="rgb(0,0,0)"  stroke-width="2.0"/>
<line x1="247.5" y1="265.0" x2="272.8" y2="244.4" stroke="rgb(0,0,0)"  stroke-width="2.0"/>
<line x1="252.9" y1="269.9" x2="272.7" y2="253.8" stroke="rgb(0,0,0)"  stroke-width="2.0"/>
<line x1="272.8" y1="244.4" x2="302.0" y2="268.5" stroke="rgb(0,0,0)"  stroke-width="2.0"/>
<line x1="308.4" y1="289.2" x2="299.1" y2="321.2" stroke="rgb(0,0,0)"  stroke-width="2.0"/>
<line x1="299.1" y1="321.2" x2="250.7" y2="322.0" stroke="rgb(0,0,0)"  stroke-width="2.0"/>
<line x1="250.7" y1="322.0" x2="239.1" y2="287.5" stroke="rgb(0,0,0)"  stroke-width="2.0"/>
<line x1="234.4" y1="125.9" x2="274.7" y2="103.4" stroke="rgb(0,0,0)"  stroke-width="2.0"/>
<line x1="243.1" y1="129.3" x2="273.0" y2="112.6" stroke="rgb(0,0,0)"  stroke-width="2.0"/>
<line x1="274.7" y1="103.4" x2="317.5" y2="125.8" stroke="rgb(0,0,0)"  stroke-width="2.0"/>
<line x1="317.5" y1="125.8" x2="317.5" y2="175.1" stroke="rgb(0,0,0)"  stroke-width="2.0"/>
<line x1="317.5" y1="175.1" x2="275.6" y2="197.7" stroke="rgb(0,0,0)"  stroke-width="2.0"/>
<line x1="275.6" y1="197.7" x2="234.6" y2="174.1" stroke="rgb(0,0,0)"  stroke-width="2.0"/>
<line x1="234.6" y1="174.1" x2="234.4" y2="125.9" stroke="rgb(0,0,0)"  stroke-width="2.0"/>
<text x="229.002418" y="283.160076" fill="rgb(12,12,255)"  stroke="rgb(12,12,255)" stroke-width="1" font-size="16" >N</text>
<text x="305.999354" y="284.746108" fill="rgb(255,12,12)"  stroke="rgb(255,12,12)" stroke-width="1" font-size="16" >O</text>
<text x="267.899768" y="63.277823" fill="rgb(255,12,12)"  stroke="rgb(255,12,12)" stroke-width="1" font-size="16" >O</text>
<text x="293.323762" y="48.000000" fill="rgb(191,191,191)"  stroke="rgb(191,191,191)" stroke-width="1" font-size="16" >H</text>
<text x="173.580420" y="315.298811" fill="rgb(191,191,191)"  stroke="rgb(191,191,191)" stroke-width="1" font-size="16" >H</text>
<text x="185.960399" y="372.648129" fill="rgb(191,191,191)"  stroke="rgb(191,191,191)" stroke-width="1" font-size="16" >H</text>
<text x="163.215087" y="347.547262" fill="rgb(191,191,191)"  stroke="rgb(191,191,191)" stroke-width="1" font-size="16" >H</text>
<text x="313.663684" y="356.123040" fill="rgb(191,191,191)"  stroke="rgb(191,191,191)" stroke-width="1" font-size="16" >H</text>
<text x="278.326486" y="359.677096" fill="rgb(191,191,191)"  stroke="rgb(191,191,191)" stroke-width="1" font-size="16" >H</text>
<text x="197.596170" y="382.285161" fill="rgb(191,191,191)"  stroke="rgb(191,191,191)" stroke-width="1" font-size="16" >H</text>
<text x="253.586415" y="399.815149" fill="rgb(191,191,191)"  stroke="rgb(191,191,191)" stroke-width="1" font-size="16" >H</text>
<text x="220.530821" y="407.213147" fill="rgb(191,191,191)"  stroke="rgb(191,191,191)" stroke-width="1" font-size="16" >H</text>
<text x="200.049901" y="163.852102" fill="rgb(191,191,191)"  stroke="rgb(191,191,191)" stroke-width="1" font-size="16" >H</text>
<text x="186.451076" y="234.103891" fill="rgb(191,191,191)"  stroke="rgb(191,191,191)" stroke-width="1" font-size="16" >H</text>
<text x="187.000935" y="75.644726" fill="rgb(191,191,191)"  stroke="rgb(191,191,191)" stroke-width="1" font-size="16" >H</text>
<text x="216.141723" y="92.806987" fill="rgb(191,191,191)"  stroke="rgb(191,191,191)" stroke-width="1" font-size="16" >H</text>
<text x="145.463625" y="166.671649" fill="rgb(191,191,191)"  stroke="rgb(191,191,191)" stroke-width="1" font-size="16" >H</text>
<text x="116.153569" y="150.422811" fill="rgb(191,191,191)"  stroke="rgb(191,191,191)" stroke-width="1" font-size="16" >H</text>
<text x="103.682081" y="78.280948" fill="rgb(191,191,191)"  stroke="rgb(191,191,191)" stroke-width="1" font-size="16" >H</text>
<text x="34.000000" y="116.974979" fill="rgb(191,191,191)"  stroke="rgb(191,191,191)" stroke-width="1" font-size="16" >H</text>
<text x="61.182374" y="166.605361" fill="rgb(191,191,191)"  stroke="rgb(191,191,191)" stroke-width="1" font-size="16" >H</text>
<text x="340.473657" y="116.323150" fill="rgb(191,191,191)"  stroke="rgb(191,191,191)" stroke-width="1" font-size="16" >H</text>
<text x="340.985149" y="150.485025" fill="rgb(191,191,191)"  stroke="rgb(191,191,191)" stroke-width="1" font-size="16" >H</text>
<text x="340.560192" y="200.513604" fill="rgb(191,191,191)"  stroke="rgb(191,191,191)" stroke-width="1" font-size="16" >H</text>
<text x="310.720210" y="217.003528" fill="rgb(191,191,191)"  stroke="rgb(191,191,191)" stroke-width="1" font-size="16" >H</text>
<text x="298.103865" y="223.924398" fill="rgb(191,191,191)"  stroke="rgb(191,191,191)" stroke-width="1" font-size="16" >H</text>
<text x="141.777273" y="149.803382" fill="rgb(191,191,191)"  stroke="rgb(191,191,191)" stroke-width="1" font-size="16" >H</text>
<text x="118.174833" y="201.232762" fill="rgb(191,191,191)"  stroke="rgb(191,191,191)" stroke-width="1" font-size="16" >H</text>
</svg>
</g>
<text font-size="18.000000" fill ="black" font-family="sans-serif"
x="10.000000" y="20.000000" ></text>
</svg>
