<?xml version="1.0"?>
<svg version="1.1" id="topsvg"
xmlns="http://www.w3.org/2000/svg" xmlns:xlink="http://www.w3.org/1999/xlink"
xmlns:cml="http://www.xml-cml.org/schema" x="0" y="0" width="200px" height="200px" viewBox="0 0 100 100">
<title> - Open Babel Depiction</title>
<rect x="0" y="0" width="100" height="100" fill="white"/>
<g transform="translate(0,0)">
<svg width="100" height="100" x="0" y="0" viewBox="0 0 517.228 363.38"
font-family="sans-serif" stroke="rgb(0,0,0)" stroke-width="2"  stroke-linecap="round">
<line x1="166.2" y1="177.1" x2="166.9" y2="223.0" stroke="rgb(0,0,0)"  stroke-width="2.0"/>
<line x1="173.8" y1="171.9" x2="174.6" y2="173.3" stroke="rgb(0,0,0)"  stroke-width="1.0"/>
<line x1="179.9" y1="167.8" x2="181.3" y2="170.3" stroke="rgb(0,0,0)"  stroke-width="1.0"/>
<line x1="186.0" y1="163.6" x2="188.0" y2="167.3" stroke="rgb(0,0,0)"  stroke-width="1.0"/>
<line x1="192.1" y1="159.5" x2="194.8" y2="164.2" stroke="rgb(0,0,0)"  stroke-width="1.0"/>
<line x1="198.2" y1="155.3" x2="201.5" y2="161.2" stroke="rgb(0,0,0)"  stroke-width="1.0"/>
<line x1="204.3" y1="151.2" x2="208.2" y2="158.2" stroke="rgb(0,0,0)"  stroke-width="1.0"/>
<line x1="166.2" y1="177.1" x2="149.6" y2="187.0" stroke="rgb(0,0,0)"  stroke-width="2.0"/>
<line x1="166.9" y1="223.0" x2="190.6" y2="238.1" stroke="rgb(0,0,0)"  stroke-width="2.0"/>
<line x1="166.9" y1="223.0" x2="150.0" y2="232.5" stroke="rgb(0,0,0)"  stroke-width="2.0"/>
<line x1="166.9" y1="223.0" x2="166.3" y2="242.4" stroke="rgb(0,0,0)"  stroke-width="2.0"/>
<line x1="127.0" y1="155.2" x2="111.3" y2="164.4" stroke="rgb(0,0,0)"  stroke-width="2.0"/>
<line x1="127.1" y1="109.2" x2="110.9" y2="103.2" stroke="rgb(0,0,0)"  stroke-width="2.0"/>
<line x1="103.2" y1="86.5" x2="109.2" y2="70.4" stroke="rgb(0,0,0)"  stroke-width="2.0"/>
<line x1="86.5" y1="94.2" x2="70.4" y2="88.3" stroke="rgb(0,0,0)"  stroke-width="2.0"/>
<line x1="94.2" y1="110.9" x2="88.3" y2="127.1" stroke="rgb(0,0,0)"  stroke-width="2.0"/>
<line x1="109.2" y1="70.4" x2="128.2" y2="67.1" stroke="rgb(0,0,0)"  stroke-width="2.0"/>
<line x1="109.2" y1="70.4" x2="96.8" y2="55.5" stroke="rgb(0,0,0)"  stroke-width="2.0"/>
<line x1="109.2" y1="70.4" x2="115.8" y2="52.2" stroke="rgb(0,0,0)"  stroke-width="2.0"/>
<line x1="70.4" y1="88.3" x2="67.1" y2="69.3" stroke="rgb(0,0,0)"  stroke-width="2.0"/>
<line x1="70.4" y1="88.3" x2="55.5" y2="100.7" stroke="rgb(0,0,0)"  stroke-width="2.0"/>
<line x1="70.4" y1="88.3" x2="52.2" y2="81.6" stroke="rgb(0,0,0)"  stroke-width="2.0"/>
<line x1="88.3" y1="127.1" x2="69.3" y2="130.4" stroke="rgb(0,0,0)"  stroke-width="2.0"/>
<line x1="88.3" y1="127.1" x2="100.7" y2="142.0" stroke="rgb(0,0,0)"  stroke-width="2.0"/>
<line x1="88.3" y1="127.1" x2="81.6" y2="145.3" stroke="rgb(0,0,0)"  stroke-width="2.0"/>
<line x1="193.0" y1="50.7" x2="166.5" y2="86.1" stroke="rgb(0,0,0)"  stroke-width="2.0"/>
<line x1="206.5" y1="108.3" x2="222.2" y2="99.1" stroke="rgb(0,0,0)"  stroke-width="2.0"/>
<line x1="206.3" y1="154.7" x2="245.9" y2="177.0" stroke="rgb(0,0,0)"  stroke-width="2.0"/>
<polygon points="206.270089 154.665066 222.985617 140.309179 227.009518 147.223529 " stroke-width="2.000000" fill="rgb(0,0,0)"  stroke="rgb(0,0,0)" />
<line x1="313.0" y1="179.9" x2="289.0" y2="139.2" stroke="rgb(0,0,0)"  stroke-width="2.0"/>
<line x1="289.0" y1="139.2" x2="269.9" y2="136.0" stroke="rgb(0,0,0)"  stroke-width="2.0"/>
<line x1="289.0" y1="139.2" x2="283.9" y2="120.6" stroke="rgb(0,0,0)"  stroke-width="2.0"/>
<line x1="324.3" y1="124.3" x2="340.5" y2="130.1" stroke="rgb(0,0,0)"  stroke-width="2.0"/>
<line x1="302.2" y1="128.2" x2="289.0" y2="139.2" stroke="rgb(0,0,0)"  stroke-width="2.0"/>
<line x1="340.5" y1="130.1" x2="343.9" y2="149.2" stroke="rgb(0,0,0)"  stroke-width="2.0"/>
<line x1="340.5" y1="130.1" x2="355.3" y2="117.7" stroke="rgb(0,0,0)"  stroke-width="2.0"/>
<line x1="340.5" y1="130.1" x2="358.7" y2="136.8" stroke="rgb(0,0,0)"  stroke-width="2.0"/>
<line x1="412.8" y1="200.6" x2="445.0" y2="155.5" stroke="rgb(0,0,0)"  stroke-width="2.0"/>
<line x1="340.0" y1="195.7" x2="326.3" y2="182.1" stroke="rgb(0,0,0)"  stroke-width="2.0"/>
<line x1="340.0" y1="195.7" x2="342.8" y2="176.5" stroke="rgb(0,0,0)"  stroke-width="2.0"/>
<line x1="324.8" y1="269.6" x2="325.8" y2="222.5" stroke="rgb(0,0,0)"  stroke-width="2.0"/>
<line x1="324.8" y1="269.6" x2="340.4" y2="279.0" stroke="rgb(0,0,0)"  stroke-width="2.0"/>
<line x1="283.3" y1="289.6" x2="323.3" y2="267.0" stroke="rgb(0,0,0)"  stroke-width="2.0"/>
<line x1="286.2" y1="294.8" x2="326.3" y2="272.2" stroke="rgb(0,0,0)"  stroke-width="2.0"/>
<line x1="284.8" y1="292.2" x2="284.7" y2="310.4" stroke="rgb(0,0,0)"  stroke-width="2.0"/>
<line x1="245.4" y1="269.6" x2="190.6" y2="238.1" stroke="rgb(0,0,0)"  stroke-width="2.0"/>
<line x1="243.3" y1="273.2" x2="188.5" y2="241.8" stroke="rgb(0,0,0)"  stroke-width="2.0"/>
<line x1="247.5" y1="266.0" x2="192.7" y2="234.5" stroke="rgb(0,0,0)"  stroke-width="2.0"/>
<line x1="245.4" y1="269.6" x2="284.8" y2="292.2" stroke="rgb(0,0,0)"  stroke-width="2.0"/>
<line x1="445.0" y1="155.5" x2="464.3" y2="157.4" stroke="rgb(0,0,0)"  stroke-width="2.0"/>
<line x1="445.0" y1="155.5" x2="437.0" y2="137.9" stroke="rgb(0,0,0)"  stroke-width="2.0"/>
<line x1="445.0" y1="155.5" x2="456.3" y2="139.8" stroke="rgb(0,0,0)"  stroke-width="2.0"/>
<line x1="242.9" y1="224.4" x2="242.9" y2="177.0" stroke="rgb(0,0,0)"  stroke-width="2.0"/>
<line x1="248.9" y1="224.4" x2="248.9" y2="177.0" stroke="rgb(0,0,0)"  stroke-width="2.0"/>
<line x1="245.9" y1="224.4" x2="230.1" y2="233.5" stroke="rgb(0,0,0)"  stroke-width="2.0"/>
<line x1="245.9" y1="224.4" x2="261.6" y2="233.5" stroke="rgb(0,0,0)"  stroke-width="2.0"/>
<line x1="245.9" y1="177.0" x2="261.7" y2="167.8" stroke="rgb(0,0,0)"  stroke-width="2.0"/>
<line x1="325.8" y1="222.5" x2="313.0" y2="179.9" stroke="rgb(0,0,0)"  stroke-width="2.0"/>
<line x1="313.0" y1="179.9" x2="392.9" y2="207.0" stroke="rgb(0,0,0)"  stroke-width="2.0"/>
<line x1="392.3" y1="213.0" x2="325.8" y2="222.5" stroke="rgb(0,0,0)"  stroke-width="2.0"/>
<line x1="380.6" y1="169.0" x2="313.0" y2="179.9" stroke="rgb(0,0,0)"  stroke-width="2.0"/>
<line x1="401.9" y1="198.6" x2="396.7" y2="179.5" stroke="rgb(0,0,0)"  stroke-width="2.0"/>
<line x1="325.8" y1="222.5" x2="340.0" y2="195.7" stroke="rgb(0,0,0)"  stroke-width="2.0"/>
<line x1="340.0" y1="195.7" x2="381.9" y2="173.1" stroke="rgb(0,0,0)"  stroke-width="2.0"/>
<line x1="127.0" y1="155.2" x2="166.2" y2="177.1" stroke="rgb(0,0,0)"  stroke-width="2.0"/>
<line x1="166.2" y1="177.1" x2="206.3" y2="154.7" stroke="rgb(0,0,0)"  stroke-width="2.0"/>
<line x1="206.3" y1="154.7" x2="206.5" y2="108.3" stroke="rgb(0,0,0)"  stroke-width="2.0"/>
<line x1="206.5" y1="108.3" x2="166.5" y2="86.1" stroke="rgb(0,0,0)"  stroke-width="2.0"/>
<line x1="197.7" y1="111.7" x2="168.3" y2="95.3" stroke="rgb(0,0,0)"  stroke-width="2.0"/>
<line x1="166.5" y1="86.1" x2="127.1" y2="109.2" stroke="rgb(0,0,0)"  stroke-width="2.0"/>
<line x1="127.1" y1="109.2" x2="127.0" y2="155.2" stroke="rgb(0,0,0)"  stroke-width="2.0"/>
<line x1="134.3" y1="115.2" x2="134.2" y2="149.3" stroke="rgb(0,0,0)"  stroke-width="2.0"/>
<text x="92.728897" y="106.728897" fill="rgb(127,153,153)"  stroke="rgb(127,153,153)" stroke-width="1" font-size="16" >Si</text>
<text x="194.823664" y="48.326423" fill="rgb(17,127,178)"  stroke="rgb(17,127,178)" stroke-width="1" font-size="16" >Xx</text>
<text x="306.124762" y="127.807345" fill="rgb(255,12,12)"  stroke="rgb(255,12,12)" stroke-width="1" font-size="16" >O</text>
<text x="387.388920" y="174.924055" fill="rgb(17,127,178)"  stroke="rgb(17,127,178)" stroke-width="1" font-size="16" >Xx</text>
<text x="399.209656" y="219.157363" fill="rgb(17,127,178)"  stroke="rgb(17,127,178)" stroke-width="1" font-size="16" >Xx</text>
<text x="132.392286" y="201.705834" fill="rgb(191,191,191)"  stroke="rgb(191,191,191)" stroke-width="1" font-size="16" >H</text>
<text x="132.649193" y="246.824715" fill="rgb(191,191,191)"  stroke="rgb(191,191,191)" stroke-width="1" font-size="16" >H</text>
<text x="159.950831" y="263.372536" fill="rgb(191,191,191)"  stroke="rgb(191,191,191)" stroke-width="1" font-size="16" >H</text>
<text x="94.067835" y="179.004339" fill="rgb(191,191,191)"  stroke="rgb(191,191,191)" stroke-width="1" font-size="16" >H</text>
<text x="135.015758" y="72.835333" fill="rgb(191,191,191)"  stroke="rgb(191,191,191)" stroke-width="1" font-size="16" >H</text>
<text x="82.434490" y="53.521985" fill="rgb(191,191,191)"  stroke="rgb(191,191,191)" stroke-width="1" font-size="16" >H</text>
<text x="114.300002" y="48.000000" fill="rgb(191,191,191)"  stroke="rgb(191,191,191)" stroke-width="1" font-size="16" >H</text>
<text x="58.835333" y="64.442036" fill="rgb(191,191,191)"  stroke="rgb(191,191,191)" stroke-width="1" font-size="16" >H</text>
<text x="39.521985" y="117.023304" fill="rgb(191,191,191)"  stroke="rgb(191,191,191)" stroke-width="1" font-size="16" >H</text>
<text x="34.000000" y="85.157792" fill="rgb(191,191,191)"  stroke="rgb(191,191,191)" stroke-width="1" font-size="16" >H</text>
<text x="50.442036" y="140.622462" fill="rgb(191,191,191)"  stroke="rgb(191,191,191)" stroke-width="1" font-size="16" >H</text>
<text x="103.023304" y="159.935809" fill="rgb(191,191,191)"  stroke="rgb(191,191,191)" stroke-width="1" font-size="16" >H</text>
<text x="71.157792" y="165.457794" fill="rgb(191,191,191)"  stroke="rgb(191,191,191)" stroke-width="1" font-size="16" >H</text>
<text x="227.405493" y="100.563134" fill="rgb(191,191,191)"  stroke="rgb(191,191,191)" stroke-width="1" font-size="16" >H</text>
<text x="228.221550" y="146.398331" fill="rgb(191,191,191)"  stroke="rgb(191,191,191)" stroke-width="1" font-size="16" >H</text>
<text x="251.089278" y="141.777031" fill="rgb(191,191,191)"  stroke="rgb(191,191,191)" stroke-width="1" font-size="16" >H</text>
<text x="274.522202" y="116.013812" fill="rgb(191,191,191)"  stroke="rgb(191,191,191)" stroke-width="1" font-size="16" >H</text>
<text x="340.136202" y="169.997489" fill="rgb(191,191,191)"  stroke="rgb(191,191,191)" stroke-width="1" font-size="16" >H</text>
<text x="359.298427" y="117.361817" fill="rgb(191,191,191)"  stroke="rgb(191,191,191)" stroke-width="1" font-size="16" >H</text>
<text x="364.911086" y="149.212217" fill="rgb(191,191,191)"  stroke="rgb(191,191,191)" stroke-width="1" font-size="16" >H</text>
<text x="311.063418" y="180.905450" fill="rgb(191,191,191)"  stroke="rgb(191,191,191)" stroke-width="1" font-size="16" >H</text>
<text x="338.649165" y="171.677962" fill="rgb(191,191,191)"  stroke="rgb(191,191,191)" stroke-width="1" font-size="16" >H</text>
<text x="345.555424" y="293.666383" fill="rgb(191,191,191)"  stroke="rgb(191,191,191)" stroke-width="1" font-size="16" >H</text>
<text x="278.626666" y="331.380303" fill="rgb(191,191,191)"  stroke="rgb(191,191,191)" stroke-width="1" font-size="16" >H</text>
<text x="471.228192" y="166.630498" fill="rgb(191,191,191)"  stroke="rgb(191,191,191)" stroke-width="1" font-size="16" >H</text>
<text x="425.674080" y="134.036580" fill="rgb(191,191,191)"  stroke="rgb(191,191,191)" stroke-width="1" font-size="16" >H</text>
<text x="457.859970" y="137.182933" fill="rgb(191,191,191)"  stroke="rgb(191,191,191)" stroke-width="1" font-size="16" >H</text>
<text x="212.840388" y="247.961150" fill="rgb(191,191,191)"  stroke="rgb(191,191,191)" stroke-width="1" font-size="16" >H</text>
<text x="266.863357" y="248.045778" fill="rgb(191,191,191)"  stroke="rgb(191,191,191)" stroke-width="1" font-size="16" >H</text>
<text x="266.881491" y="169.229791" fill="rgb(191,191,191)"  stroke="rgb(191,191,191)" stroke-width="1" font-size="16" >H</text>
</svg>
</g>
<text font-size="18.000000" fill ="black" font-family="sans-serif"
x="10.000000" y="20.000000" ></text>
</svg>
