<?xml version="1.0"?>
<svg version="1.1" id="topsvg"
xmlns="http://www.w3.org/2000/svg" xmlns:xlink="http://www.w3.org/1999/xlink"
xmlns:cml="http://www.xml-cml.org/schema" x="0" y="0" width="200px" height="200px" viewBox="0 0 100 100">
<title> - Open Babel Depiction</title>
<rect x="0" y="0" width="100" height="100" fill="white"/>
<g transform="translate(0,0)">
<svg width="100" height="100" x="0" y="0" viewBox="0 0 392.879 524.913"
font-family="sans-serif" stroke="rgb(0,0,0)" stroke-width="2"  stroke-linecap="round">
<line x1="200.4" y1="416.8" x2="178.0" y2="432.8" stroke="rgb(0,0,0)"  stroke-width="2.0"/>
<line x1="200.4" y1="416.8" x2="197.7" y2="446.0" stroke="rgb(0,0,0)"  stroke-width="2.0"/>
<line x1="155.6" y1="435.0" x2="138.5" y2="427.2" stroke="rgb(0,0,0)"  stroke-width="2.0"/>
<line x1="168.7" y1="453.3" x2="170.5" y2="472.0" stroke="rgb(0,0,0)"  stroke-width="2.0"/>
<line x1="198.0" y1="390.7" x2="200.4" y2="416.8" stroke="rgb(0,0,0)"  stroke-width="2.0"/>
<line x1="210.2" y1="345.5" x2="254.7" y2="319.7" stroke="rgb(0,0,0)"  stroke-width="2.0"/>
<line x1="210.2" y1="345.5" x2="198.0" y2="390.7" stroke="rgb(0,0,0)"  stroke-width="2.0"/>
<line x1="254.7" y1="319.7" x2="240.5" y2="368.1" stroke="rgb(0,0,0)"  stroke-width="2.0"/>
<line x1="189.3" y1="273.3" x2="226.6" y2="273.8" stroke="rgb(0,0,0)"  stroke-width="2.0"/>
<line x1="238.7" y1="172.2" x2="196.2" y2="191.4" stroke="rgb(0,0,0)"  stroke-width="2.0"/>
<polygon points="238.651203 172.212883 234.742042 123.616596 242.742028 123.631552 " stroke-width="2.000000" fill="rgb(0,0,0)"  stroke="rgb(0,0,0)" />
<line x1="271.8" y1="191.8" x2="272.6" y2="190.4" stroke="rgb(0,0,0)"  stroke-width="1.0"/>
<line x1="264.8" y1="188.5" x2="266.2" y2="186.0" stroke="rgb(0,0,0)"  stroke-width="1.0"/>
<line x1="257.8" y1="185.3" x2="259.8" y2="181.7" stroke="rgb(0,0,0)"  stroke-width="1.0"/>
<line x1="250.7" y1="182.1" x2="253.4" y2="177.4" stroke="rgb(0,0,0)"  stroke-width="1.0"/>
<line x1="243.7" y1="178.9" x2="247.0" y2="173.1" stroke="rgb(0,0,0)"  stroke-width="1.0"/>
<line x1="236.7" y1="175.7" x2="240.6" y2="168.7" stroke="rgb(0,0,0)"  stroke-width="1.0"/>
<polygon points="238.742035 123.624074 233.792295 74.782080 241.790785 74.626672 " stroke-width="2.000000" fill="rgb(0,0,0)"  stroke="rgb(0,0,0)" />
<line x1="238.7" y1="123.6" x2="196.2" y2="98.4" stroke="rgb(0,0,0)"  stroke-width="2.0"/>
<line x1="283.3" y1="63.1" x2="283.6" y2="99.8" stroke="rgb(0,0,0)"  stroke-width="2.0"/>
<line x1="277.3" y1="63.1" x2="277.6" y2="99.8" stroke="rgb(0,0,0)"  stroke-width="2.0"/>
<line x1="280.6" y1="195.8" x2="279.8" y2="245.7" stroke="rgb(0,0,0)"  stroke-width="2.0"/>
<line x1="67.2" y1="121.1" x2="110.4" y2="97.2" stroke="rgb(0,0,0)"  stroke-width="2.0"/>
<line x1="70.1" y1="126.3" x2="113.3" y2="102.4" stroke="rgb(0,0,0)"  stroke-width="2.0"/>
<line x1="111.8" y1="99.8" x2="153.6" y2="122.8" stroke="rgb(0,0,0)"  stroke-width="2.0"/>
<line x1="153.6" y1="122.8" x2="196.2" y2="98.4" stroke="rgb(0,0,0)"  stroke-width="2.0"/>
<line x1="155.0" y1="169.1" x2="197.4" y2="188.7" stroke="rgb(0,0,0)"  stroke-width="2.0"/>
<line x1="152.5" y1="174.5" x2="194.9" y2="194.2" stroke="rgb(0,0,0)"  stroke-width="2.0"/>
<line x1="200.4" y1="416.8" x2="189.5" y2="435.6" stroke="rgb(0,0,0)"  stroke-width="2.0"/>
<line x1="197.7" y1="446.0" x2="177.9" y2="455.1" stroke="rgb(0,0,0)"  stroke-width="2.0"/>
<line x1="197.7" y1="446.0" x2="215.4" y2="458.6" stroke="rgb(0,0,0)"  stroke-width="2.0"/>
<line x1="197.7" y1="446.0" x2="195.6" y2="467.7" stroke="rgb(0,0,0)"  stroke-width="2.0"/>
<line x1="198.0" y1="390.7" x2="176.4" y2="388.8" stroke="rgb(0,0,0)"  stroke-width="2.0"/>
<line x1="198.0" y1="390.7" x2="185.6" y2="372.9" stroke="rgb(0,0,0)"  stroke-width="2.0"/>
<line x1="210.2" y1="345.5" x2="193.0" y2="332.2" stroke="rgb(0,0,0)"  stroke-width="2.0"/>
<line x1="210.2" y1="345.5" x2="189.7" y2="352.4" stroke="rgb(0,0,0)"  stroke-width="2.0"/>
<line x1="304.1" y1="322.3" x2="316.6" y2="340.1" stroke="rgb(0,0,0)"  stroke-width="2.0"/>
<line x1="304.1" y1="322.3" x2="293.6" y2="341.3" stroke="rgb(0,0,0)"  stroke-width="2.0"/>
<line x1="240.5" y1="368.1" x2="219.4" y2="373.2" stroke="rgb(0,0,0)"  stroke-width="2.0"/>
<line x1="240.5" y1="368.1" x2="255.4" y2="383.8" stroke="rgb(0,0,0)"  stroke-width="2.0"/>
<line x1="240.5" y1="368.1" x2="234.3" y2="388.9" stroke="rgb(0,0,0)"  stroke-width="2.0"/>
<line x1="189.3" y1="273.3" x2="178.7" y2="254.4" stroke="rgb(0,0,0)"  stroke-width="2.0"/>
<line x1="189.3" y1="273.3" x2="178.2" y2="292.0" stroke="rgb(0,0,0)"  stroke-width="2.0"/>
<line x1="189.3" y1="273.3" x2="167.6" y2="273.0" stroke="rgb(0,0,0)"  stroke-width="2.0"/>
<line x1="279.8" y1="245.7" x2="279.4" y2="267.4" stroke="rgb(0,0,0)"  stroke-width="2.0"/>
<line x1="238.7" y1="172.2" x2="220.4" y2="160.4" stroke="rgb(0,0,0)"  stroke-width="2.0"/>
<line x1="196.2" y1="191.4" x2="196.1" y2="211.9" stroke="rgb(0,0,0)"  stroke-width="2.0"/>
<line x1="237.8" y1="74.7" x2="256.4" y2="63.5" stroke="rgb(0,0,0)"  stroke-width="2.0"/>
<line x1="237.8" y1="74.7" x2="218.8" y2="64.2" stroke="rgb(0,0,0)"  stroke-width="2.0"/>
<line x1="237.8" y1="74.7" x2="237.4" y2="53.0" stroke="rgb(0,0,0)"  stroke-width="2.0"/>
<line x1="322.7" y1="122.6" x2="341.3" y2="111.4" stroke="rgb(0,0,0)"  stroke-width="2.0"/>
<line x1="322.7" y1="122.6" x2="341.6" y2="133.3" stroke="rgb(0,0,0)"  stroke-width="2.0"/>
<line x1="322.7" y1="173.1" x2="341.4" y2="184.3" stroke="rgb(0,0,0)"  stroke-width="2.0"/>
<line x1="322.7" y1="173.1" x2="322.2" y2="194.8" stroke="rgb(0,0,0)"  stroke-width="2.0"/>
<line x1="280.6" y1="195.8" x2="280.8" y2="174.1" stroke="rgb(0,0,0)"  stroke-width="2.0"/>
<line x1="68.7" y1="123.7" x2="51.1" y2="113.1" stroke="rgb(0,0,0)"  stroke-width="2.0"/>
<line x1="68.7" y1="123.7" x2="68.3" y2="144.2" stroke="rgb(0,0,0)"  stroke-width="2.0"/>
<line x1="111.8" y1="99.8" x2="111.8" y2="79.3" stroke="rgb(0,0,0)"  stroke-width="2.0"/>
<line x1="153.6" y1="122.8" x2="153.8" y2="144.5" stroke="rgb(0,0,0)"  stroke-width="2.0"/>
<line x1="153.6" y1="122.8" x2="172.5" y2="133.5" stroke="rgb(0,0,0)"  stroke-width="2.0"/>
<line x1="196.2" y1="98.4" x2="196.3" y2="76.6" stroke="rgb(0,0,0)"  stroke-width="2.0"/>
<line x1="196.2" y1="98.4" x2="177.4" y2="87.4" stroke="rgb(0,0,0)"  stroke-width="2.0"/>
<line x1="153.8" y1="171.8" x2="151.9" y2="151.4" stroke="rgb(0,0,0)"  stroke-width="2.0"/>
<line x1="153.8" y1="171.8" x2="137.0" y2="183.6" stroke="rgb(0,0,0)"  stroke-width="2.0"/>
<line x1="250.2" y1="266.5" x2="279.8" y2="245.7" stroke="rgb(0,0,0)"  stroke-width="2.0"/>
<line x1="279.8" y1="245.7" x2="307.9" y2="267.0" stroke="rgb(0,0,0)"  stroke-width="2.0"/>
<line x1="314.6" y1="287.3" x2="304.1" y2="322.3" stroke="rgb(0,0,0)"  stroke-width="2.0"/>
<line x1="304.1" y1="322.3" x2="254.7" y2="319.7" stroke="rgb(0,0,0)"  stroke-width="2.0"/>
<line x1="254.7" y1="319.7" x2="243.7" y2="286.4" stroke="rgb(0,0,0)"  stroke-width="2.0"/>
<line x1="238.7" y1="172.2" x2="280.6" y2="195.8" stroke="rgb(0,0,0)"  stroke-width="2.0"/>
<line x1="280.6" y1="195.8" x2="322.7" y2="173.1" stroke="rgb(0,0,0)"  stroke-width="2.0"/>
<line x1="322.7" y1="173.1" x2="322.7" y2="122.6" stroke="rgb(0,0,0)"  stroke-width="2.0"/>
<line x1="322.7" y1="122.6" x2="280.6" y2="99.8" stroke="rgb(0,0,0)"  stroke-width="2.0"/>
<line x1="280.6" y1="99.8" x2="238.7" y2="123.6" stroke="rgb(0,0,0)"  stroke-width="2.0"/>
<line x1="238.7" y1="123.6" x2="238.7" y2="172.2" stroke="rgb(0,0,0)"  stroke-width="2.0"/>
<text x="161.402972" y="448.353165" fill="rgb(255,127,0)"  stroke="rgb(255,127,0)" stroke-width="1" font-size="16" >P</text>
<text x="233.611430" y="282.029437" fill="rgb(12,12,255)"  stroke="rgb(12,12,255)" stroke-width="1" font-size="16" >N</text>
<text x="312.311157" y="282.840440" fill="rgb(255,12,12)"  stroke="rgb(255,12,12)" stroke-width="1" font-size="16" >O</text>
<text x="274.177798" y="58.101791" fill="rgb(255,12,12)"  stroke="rgb(255,12,12)" stroke-width="1" font-size="16" >O</text>
<text x="120.658184" y="429.803906" fill="rgb(191,191,191)"  stroke="rgb(191,191,191)" stroke-width="1" font-size="16" >H</text>
<text x="165.711020" y="492.912911" fill="rgb(191,191,191)"  stroke="rgb(191,191,191)" stroke-width="1" font-size="16" >H</text>
<text x="177.062905" y="454.919154" fill="rgb(191,191,191)"  stroke="rgb(191,191,191)" stroke-width="1" font-size="16" >H</text>
<text x="160.115418" y="468.538941" fill="rgb(191,191,191)"  stroke="rgb(191,191,191)" stroke-width="1" font-size="16" >H</text>
<text x="219.979639" y="474.090543" fill="rgb(191,191,191)"  stroke="rgb(191,191,191)" stroke-width="1" font-size="16" >H</text>
<text x="188.444919" y="488.596054" fill="rgb(191,191,191)"  stroke="rgb(191,191,191)" stroke-width="1" font-size="16" >H</text>
<text x="157.440787" y="395.675568" fill="rgb(191,191,191)"  stroke="rgb(191,191,191)" stroke-width="1" font-size="16" >H</text>
<text x="172.134635" y="370.246726" fill="rgb(191,191,191)"  stroke="rgb(191,191,191)" stroke-width="1" font-size="16" >H</text>
<text x="176.697294" y="332.315777" fill="rgb(191,191,191)"  stroke="rgb(191,191,191)" stroke-width="1" font-size="16" >H</text>
<text x="171.350276" y="364.576910" fill="rgb(191,191,191)"  stroke="rgb(191,191,191)" stroke-width="1" font-size="16" >H</text>
<text x="318.104605" y="358.678720" fill="rgb(191,191,191)"  stroke="rgb(191,191,191)" stroke-width="1" font-size="16" >H</text>
<text x="281.325810" y="360.685615" fill="rgb(191,191,191)"  stroke="rgb(191,191,191)" stroke-width="1" font-size="16" >H</text>
<text x="200.733809" y="384.282753" fill="rgb(191,191,191)"  stroke="rgb(191,191,191)" stroke-width="1" font-size="16" >H</text>
<text x="258.416337" y="401.231828" fill="rgb(191,191,191)"  stroke="rgb(191,191,191)" stroke-width="1" font-size="16" >H</text>
<text x="224.682296" y="409.408802" fill="rgb(191,191,191)"  stroke="rgb(191,191,191)" stroke-width="1" font-size="16" >H</text>
<text x="166.380571" y="251.016355" fill="rgb(191,191,191)"  stroke="rgb(191,191,191)" stroke-width="1" font-size="16" >H</text>
<text x="165.531532" y="311.131448" fill="rgb(191,191,191)"  stroke="rgb(191,191,191)" stroke-width="1" font-size="16" >H</text>
<text x="148.602319" y="280.828805" fill="rgb(191,191,191)"  stroke="rgb(191,191,191)" stroke-width="1" font-size="16" >H</text>
<text x="273.198381" y="288.376467" fill="rgb(191,191,191)"  stroke="rgb(191,191,191)" stroke-width="1" font-size="16" >H</text>
<text x="203.499412" y="161.370868" fill="rgb(191,191,191)"  stroke="rgb(191,191,191)" stroke-width="1" font-size="16" >H</text>
<text x="190.006304" y="232.924472" fill="rgb(191,191,191)"  stroke="rgb(191,191,191)" stroke-width="1" font-size="16" >H</text>
<text x="261.509263" y="64.768231" fill="rgb(191,191,191)"  stroke="rgb(191,191,191)" stroke-width="1" font-size="16" >H</text>
<text x="201.399521" y="65.936145" fill="rgb(191,191,191)"  stroke="rgb(191,191,191)" stroke-width="1" font-size="16" >H</text>
<text x="231.117244" y="48.000000" fill="rgb(191,191,191)"  stroke="rgb(191,191,191)" stroke-width="1" font-size="16" >H</text>
<text x="346.493592" y="112.777905" fill="rgb(191,191,191)"  stroke="rgb(191,191,191)" stroke-width="1" font-size="16" >H</text>
<text x="346.879249" y="147.692422" fill="rgb(191,191,191)"  stroke="rgb(191,191,191)" stroke-width="1" font-size="16" >H</text>
<text x="346.524128" y="198.936858" fill="rgb(191,191,191)"  stroke="rgb(191,191,191)" stroke-width="1" font-size="16" >H</text>
<text x="315.934985" y="215.836088" fill="rgb(191,191,191)"  stroke="rgb(191,191,191)" stroke-width="1" font-size="16" >H</text>
<text x="274.910061" y="169.064783" fill="rgb(191,191,191)"  stroke="rgb(191,191,191)" stroke-width="1" font-size="16" >H</text>
<text x="34.000000" y="114.450260" fill="rgb(191,191,191)"  stroke="rgb(191,191,191)" stroke-width="1" font-size="16" >H</text>
<text x="62.096021" y="165.174846" fill="rgb(191,191,191)"  stroke="rgb(191,191,191)" stroke-width="1" font-size="16" >H</text>
<text x="105.793524" y="74.318652" fill="rgb(191,191,191)"  stroke="rgb(191,191,191)" stroke-width="1" font-size="16" >H</text>
<text x="147.933594" y="165.460937" fill="rgb(191,191,191)"  stroke="rgb(191,191,191)" stroke-width="1" font-size="16" >H</text>
<text x="177.732282" y="148.015519" fill="rgb(191,191,191)"  stroke="rgb(191,191,191)" stroke-width="1" font-size="16" >H</text>
<text x="190.432871" y="71.643285" fill="rgb(191,191,191)"  stroke="rgb(191,191,191)" stroke-width="1" font-size="16" >H</text>
<text x="160.202139" y="88.839694" fill="rgb(191,191,191)"  stroke="rgb(191,191,191)" stroke-width="1" font-size="16" >H</text>
<text x="144.767157" y="146.430081" fill="rgb(191,191,191)"  stroke="rgb(191,191,191)" stroke-width="1" font-size="16" >H</text>
<text x="120.367181" y="199.032469" fill="rgb(191,191,191)"  stroke="rgb(191,191,191)" stroke-width="1" font-size="16" >H</text>
</svg>
</g>
<text font-size="18.000000" fill ="black" font-family="sans-serif"
x="10.000000" y="20.000000" ></text>
</svg>
