<?xml version="1.0"?>
<svg version="1.1" id="topsvg"
xmlns="http://www.w3.org/2000/svg" xmlns:xlink="http://www.w3.org/1999/xlink"
xmlns:cml="http://www.xml-cml.org/schema" x="0" y="0" width="200px" height="200px" viewBox="0 0 100 100">
<title> - Open Babel Depiction</title>
<rect x="0" y="0" width="100" height="100" fill="white"/>
<g transform="translate(0,0)">
<svg width="100" height="100" x="0" y="0" viewBox="0 0 386.882 304.114"
font-family="sans-serif" stroke="rgb(0,0,0)" stroke-width="2"  stroke-linecap="round">
<line x1="278.0" y1="226.8" x2="305.8" y2="253.0" stroke="rgb(0,0,0)"  stroke-width="2.0"/>
<line x1="273.9" y1="231.2" x2="301.7" y2="257.4" stroke="rgb(0,0,0)"  stroke-width="2.0"/>
<line x1="234.7" y1="162.5" x2="193.5" y2="180.7" stroke="rgb(0,0,0)"  stroke-width="2.0"/>
<line x1="234.1" y1="152.6" x2="235.7" y2="152.6" stroke="rgb(0,0,0)"  stroke-width="1.0"/>
<line x1="233.7" y1="144.6" x2="236.6" y2="144.7" stroke="rgb(0,0,0)"  stroke-width="1.0"/>
<line x1="233.2" y1="136.7" x2="237.4" y2="136.8" stroke="rgb(0,0,0)"  stroke-width="1.0"/>
<line x1="232.7" y1="128.8" x2="238.2" y2="128.9" stroke="rgb(0,0,0)"  stroke-width="1.0"/>
<line x1="232.2" y1="120.8" x2="239.0" y2="120.9" stroke="rgb(0,0,0)"  stroke-width="1.0"/>
<line x1="231.8" y1="112.9" x2="239.8" y2="113.0" stroke="rgb(0,0,0)"  stroke-width="1.0"/>
<polygon points="276.792462 185.423045 232.828714 166.037203 236.654632 159.011368 " stroke-width="2.000000" fill="rgb(0,0,0)"  stroke="rgb(0,0,0)" />
<line x1="235.8" y1="112.9" x2="196.9" y2="88.2" stroke="rgb(0,0,0)"  stroke-width="2.0"/>
<line x1="278.5" y1="52.8" x2="280.5" y2="89.3" stroke="rgb(0,0,0)"  stroke-width="2.0"/>
<line x1="272.5" y1="53.1" x2="274.5" y2="89.7" stroke="rgb(0,0,0)"  stroke-width="2.0"/>
<line x1="276.8" y1="185.4" x2="276.8" y2="182.7" stroke="rgb(0,0,0)"  stroke-width="2.0"/>
<line x1="276.8" y1="185.4" x2="275.9" y2="229.0" stroke="rgb(0,0,0)"  stroke-width="2.0"/>
<line x1="66.7" y1="109.7" x2="108.1" y2="84.8" stroke="rgb(0,0,0)"  stroke-width="2.0"/>
<line x1="69.8" y1="114.9" x2="111.2" y2="89.9" stroke="rgb(0,0,0)"  stroke-width="2.0"/>
<line x1="109.6" y1="87.3" x2="151.5" y2="112.3" stroke="rgb(0,0,0)"  stroke-width="2.0"/>
<line x1="151.5" y1="112.3" x2="196.9" y2="88.2" stroke="rgb(0,0,0)"  stroke-width="2.0"/>
<line x1="151.3" y1="168.6" x2="194.1" y2="177.8" stroke="rgb(0,0,0)"  stroke-width="2.0"/>
<line x1="150.0" y1="174.5" x2="192.9" y2="183.7" stroke="rgb(0,0,0)"  stroke-width="2.0"/>
<line x1="275.9" y1="229.0" x2="258.2" y2="236.4" stroke="rgb(0,0,0)"  stroke-width="2.0"/>
<line x1="234.7" y1="162.5" x2="233.9" y2="182.9" stroke="rgb(0,0,0)"  stroke-width="2.0"/>
<line x1="193.5" y1="180.7" x2="195.5" y2="199.9" stroke="rgb(0,0,0)"  stroke-width="2.0"/>
<polygon points="235.772024 112.939448 217.923419 127.026753 214.149056 119.973089 " stroke-width="2.000000" fill="rgb(0,0,0)"  stroke="rgb(0,0,0)" />
<line x1="317.1" y1="112.4" x2="334.7" y2="102.0" stroke="rgb(0,0,0)"  stroke-width="2.0"/>
<line x1="317.1" y1="112.4" x2="334.9" y2="122.4" stroke="rgb(0,0,0)"  stroke-width="2.0"/>
<line x1="317.9" y1="162.2" x2="335.6" y2="172.4" stroke="rgb(0,0,0)"  stroke-width="2.0"/>
<line x1="317.9" y1="162.2" x2="317.8" y2="182.6" stroke="rgb(0,0,0)"  stroke-width="2.0"/>
<line x1="68.2" y1="112.3" x2="51.4" y2="103.0" stroke="rgb(0,0,0)"  stroke-width="2.0"/>
<line x1="68.2" y1="112.3" x2="68.6" y2="131.5" stroke="rgb(0,0,0)"  stroke-width="2.0"/>
<line x1="109.6" y1="87.3" x2="109.6" y2="68.1" stroke="rgb(0,0,0)"  stroke-width="2.0"/>
<line x1="151.5" y1="112.3" x2="151.0" y2="132.7" stroke="rgb(0,0,0)"  stroke-width="2.0"/>
<line x1="151.5" y1="112.3" x2="168.8" y2="123.0" stroke="rgb(0,0,0)"  stroke-width="2.0"/>
<line x1="196.9" y1="88.2" x2="197.7" y2="67.8" stroke="rgb(0,0,0)"  stroke-width="2.0"/>
<line x1="196.9" y1="88.2" x2="179.6" y2="77.3" stroke="rgb(0,0,0)"  stroke-width="2.0"/>
<line x1="234.7" y1="162.5" x2="235.8" y2="112.9" stroke="rgb(0,0,0)"  stroke-width="2.0"/>
<line x1="235.8" y1="112.9" x2="277.5" y2="89.5" stroke="rgb(0,0,0)"  stroke-width="2.0"/>
<line x1="277.5" y1="89.5" x2="317.1" y2="112.4" stroke="rgb(0,0,0)"  stroke-width="2.0"/>
<line x1="317.1" y1="112.4" x2="317.9" y2="162.2" stroke="rgb(0,0,0)"  stroke-width="2.0"/>
<line x1="317.9" y1="162.2" x2="276.8" y2="185.4" stroke="rgb(0,0,0)"  stroke-width="2.0"/>
<line x1="276.8" y1="185.4" x2="234.7" y2="162.5" stroke="rgb(0,0,0)"  stroke-width="2.0"/>
<text x="307.207547" y="272.113722" fill="rgb(255,12,12)"  stroke="rgb(255,12,12)" stroke-width="1" font-size="16" >O</text>
<text x="268.787962" y="48.000000" fill="rgb(255,12,12)"  stroke="rgb(255,12,12)" stroke-width="1" font-size="16" >O</text>
<text x="270.598881" y="177.711761" fill="rgb(147,0,147)"  stroke="rgb(147,0,147)" stroke-width="1" font-size="16" >I</text>
<text x="131.919949" y="176.865625" fill="rgb(178,178,0)"  stroke="rgb(178,178,0)" stroke-width="1" font-size="16" >S</text>
<text x="240.218984" y="249.454647" fill="rgb(191,191,191)"  stroke="rgb(191,191,191)" stroke-width="1" font-size="16" >H</text>
<text x="227.362210" y="203.904128" fill="rgb(191,191,191)"  stroke="rgb(191,191,191)" stroke-width="1" font-size="16" >H</text>
<text x="190.822153" y="220.791353" fill="rgb(191,191,191)"  stroke="rgb(191,191,191)" stroke-width="1" font-size="16" >H</text>
<text x="200.315627" y="136.701348" fill="rgb(191,191,191)"  stroke="rgb(191,191,191)" stroke-width="1" font-size="16" >H</text>
<text x="339.947379" y="103.452596" fill="rgb(191,191,191)"  stroke="rgb(191,191,191)" stroke-width="1" font-size="16" >H</text>
<text x="340.262778" y="136.747299" fill="rgb(191,191,191)"  stroke="rgb(191,191,191)" stroke-width="1" font-size="16" >H</text>
<text x="340.882135" y="186.842155" fill="rgb(191,191,191)"  stroke="rgb(191,191,191)" stroke-width="1" font-size="16" >H</text>
<text x="311.787152" y="203.626435" fill="rgb(191,191,191)"  stroke="rgb(191,191,191)" stroke-width="1" font-size="16" >H</text>
<text x="34.000000" y="104.756859" fill="rgb(191,191,191)"  stroke="rgb(191,191,191)" stroke-width="1" font-size="16" >H</text>
<text x="62.846321" y="152.533804" fill="rgb(191,191,191)"  stroke="rgb(191,191,191)" stroke-width="1" font-size="16" >H</text>
<text x="103.529639" y="63.099435" fill="rgb(191,191,191)"  stroke="rgb(191,191,191)" stroke-width="1" font-size="16" >H</text>
<text x="144.660290" y="153.688292" fill="rgb(191,191,191)"  stroke="rgb(191,191,191)" stroke-width="1" font-size="16" >H</text>
<text x="173.903484" y="137.846256" fill="rgb(191,191,191)"  stroke="rgb(191,191,191)" stroke-width="1" font-size="16" >H</text>
<text x="192.188176" y="62.769208" fill="rgb(191,191,191)"  stroke="rgb(191,191,191)" stroke-width="1" font-size="16" >H</text>
<text x="162.581810" y="78.385807" fill="rgb(191,191,191)"  stroke="rgb(191,191,191)" stroke-width="1" font-size="16" >H</text>
</svg>
</g>
<text font-size="18.000000" fill ="black" font-family="sans-serif"
x="10.000000" y="20.000000" ></text>
</svg>
