<?xml version="1.0"?>
<svg version="1.1" id="topsvg"
xmlns="http://www.w3.org/2000/svg" xmlns:xlink="http://www.w3.org/1999/xlink"
xmlns:cml="http://www.xml-cml.org/schema" x="0" y="0" width="200px" height="200px" viewBox="0 0 100 100">
<title> - Open Babel Depiction</title>
<rect x="0" y="0" width="100" height="100" fill="white"/>
<g transform="translate(0,0)">
<svg width="100" height="100" x="0" y="0" viewBox="0 0 477.328 457.182"
font-family="sans-serif" stroke="rgb(0,0,0)" stroke-width="2"  stroke-linecap="round">
<line x1="364.0" y1="384.9" x2="376.1" y2="339.6" stroke="rgb(0,0,0)"  stroke-width="2.0"/>
<line x1="364.0" y1="384.9" x2="344.3" y2="390.2" stroke="rgb(0,0,0)"  stroke-width="2.0"/>
<line x1="364.0" y1="384.9" x2="378.4" y2="399.3" stroke="rgb(0,0,0)"  stroke-width="2.0"/>
<line x1="364.0" y1="384.9" x2="358.7" y2="404.6" stroke="rgb(0,0,0)"  stroke-width="2.0"/>
<line x1="378.4" y1="337.6" x2="407.9" y2="371.8" stroke="rgb(0,0,0)"  stroke-width="2.0"/>
<line x1="373.9" y1="341.5" x2="403.4" y2="375.7" stroke="rgb(0,0,0)"  stroke-width="2.0"/>
<line x1="329.5" y1="337.0" x2="317.1" y2="353.3" stroke="rgb(0,0,0)"  stroke-width="2.0"/>
<line x1="329.5" y1="337.0" x2="309.3" y2="333.8" stroke="rgb(0,0,0)"  stroke-width="2.0"/>
<line x1="405.7" y1="373.8" x2="399.3" y2="391.9" stroke="rgb(0,0,0)"  stroke-width="2.0"/>
<line x1="405.7" y1="373.8" x2="424.6" y2="370.1" stroke="rgb(0,0,0)"  stroke-width="2.0"/>
<line x1="353.2" y1="218.0" x2="353.1" y2="264.6" stroke="rgb(0,0,0)"  stroke-width="2.0"/>
<line x1="312.4" y1="194.2" x2="271.8" y2="212.8" stroke="rgb(0,0,0)"  stroke-width="2.0"/>
<polygon points="312.432309 194.206496 308.338601 147.231538 316.338585 147.215580 " stroke-width="2.000000" fill="rgb(0,0,0)"  stroke="rgb(0,0,0)" />
<line x1="312.4" y1="194.2" x2="330.1" y2="184.0" stroke="rgb(0,0,0)"  stroke-width="2.0"/>
<line x1="271.8" y1="212.8" x2="271.6" y2="232.1" stroke="rgb(0,0,0)"  stroke-width="2.0"/>
<line x1="231.8" y1="190.4" x2="273.1" y2="210.1" stroke="rgb(0,0,0)"  stroke-width="2.0"/>
<line x1="229.2" y1="195.8" x2="270.5" y2="215.5" stroke="rgb(0,0,0)"  stroke-width="2.0"/>
<line x1="230.5" y1="193.1" x2="229.0" y2="173.9" stroke="rgb(0,0,0)"  stroke-width="2.0"/>
<line x1="230.5" y1="193.1" x2="214.6" y2="204.0" stroke="rgb(0,0,0)"  stroke-width="2.0"/>
<line x1="231.5" y1="147.1" x2="270.1" y2="123.4" stroke="rgb(0,0,0)"  stroke-width="2.0"/>
<line x1="231.5" y1="147.1" x2="231.8" y2="166.3" stroke="rgb(0,0,0)"  stroke-width="2.0"/>
<line x1="267.1" y1="123.3" x2="267.8" y2="89.7" stroke="rgb(0,0,0)"  stroke-width="2.0"/>
<line x1="273.1" y1="123.5" x2="273.8" y2="89.8" stroke="rgb(0,0,0)"  stroke-width="2.0"/>
<line x1="149.9" y1="146.6" x2="190.2" y2="123.4" stroke="rgb(0,0,0)"  stroke-width="2.0"/>
<line x1="150.2" y1="195.0" x2="166.7" y2="205.0" stroke="rgb(0,0,0)"  stroke-width="2.0"/>
<line x1="109.0" y1="216.3" x2="108.9" y2="235.6" stroke="rgb(0,0,0)"  stroke-width="2.0"/>
<line x1="67.6" y1="194.6" x2="51.1" y2="204.6" stroke="rgb(0,0,0)"  stroke-width="2.0"/>
<line x1="67.6" y1="146.3" x2="51.1" y2="136.3" stroke="rgb(0,0,0)"  stroke-width="2.0"/>
<line x1="108.9" y1="124.6" x2="109.0" y2="105.3" stroke="rgb(0,0,0)"  stroke-width="2.0"/>
<line x1="191.7" y1="120.8" x2="233.0" y2="144.5" stroke="rgb(0,0,0)"  stroke-width="2.0"/>
<line x1="188.7" y1="126.0" x2="230.0" y2="149.7" stroke="rgb(0,0,0)"  stroke-width="2.0"/>
<line x1="190.2" y1="123.4" x2="190.1" y2="104.2" stroke="rgb(0,0,0)"  stroke-width="2.0"/>
<polygon points="312.338593 147.223559 268.114864 126.888679 272.043018 119.919490 " stroke-width="2.000000" fill="rgb(0,0,0)"  stroke="rgb(0,0,0)" />
<line x1="312.3" y1="147.2" x2="312.9" y2="92.0" stroke="rgb(0,0,0)"  stroke-width="2.0"/>
<line x1="360.7" y1="85.0" x2="350.9" y2="69.6" stroke="rgb(0,0,0)"  stroke-width="2.0"/>
<line x1="361.7" y1="107.5" x2="353.3" y2="123.7" stroke="rgb(0,0,0)"  stroke-width="2.0"/>
<line x1="350.9" y1="69.6" x2="360.4" y2="51.5" stroke="rgb(0,0,0)"  stroke-width="2.0"/>
<line x1="350.9" y1="69.6" x2="330.5" y2="70.5" stroke="rgb(0,0,0)"  stroke-width="2.0"/>
<line x1="350.9" y1="69.6" x2="340.0" y2="52.4" stroke="rgb(0,0,0)"  stroke-width="2.0"/>
<line x1="394.5" y1="146.3" x2="411.1" y2="136.4" stroke="rgb(0,0,0)"  stroke-width="2.0"/>
<line x1="394.8" y1="194.7" x2="411.4" y2="204.4" stroke="rgb(0,0,0)"  stroke-width="2.0"/>
<line x1="312.9" y1="92.0" x2="330.7" y2="81.9" stroke="rgb(0,0,0)"  stroke-width="2.0"/>
<line x1="312.9" y1="92.0" x2="295.3" y2="81.6" stroke="rgb(0,0,0)"  stroke-width="2.0"/>
<line x1="312.9" y1="92.0" x2="313.1" y2="71.6" stroke="rgb(0,0,0)"  stroke-width="2.0"/>
<line x1="150.2" y1="195.0" x2="109.0" y2="216.3" stroke="rgb(0,0,0)"  stroke-width="2.0"/>
<line x1="141.6" y1="191.4" x2="111.0" y2="207.2" stroke="rgb(0,0,0)"  stroke-width="2.0"/>
<line x1="109.0" y1="216.3" x2="67.6" y2="194.6" stroke="rgb(0,0,0)"  stroke-width="2.0"/>
<line x1="67.6" y1="194.6" x2="67.6" y2="146.3" stroke="rgb(0,0,0)"  stroke-width="2.0"/>
<line x1="74.8" y1="188.6" x2="74.8" y2="152.3" stroke="rgb(0,0,0)"  stroke-width="2.0"/>
<line x1="67.6" y1="146.3" x2="108.9" y2="124.6" stroke="rgb(0,0,0)"  stroke-width="2.0"/>
<line x1="108.9" y1="124.6" x2="149.9" y2="146.6" stroke="rgb(0,0,0)"  stroke-width="2.0"/>
<line x1="110.7" y1="133.7" x2="141.2" y2="150.1" stroke="rgb(0,0,0)"  stroke-width="2.0"/>
<line x1="149.9" y1="146.6" x2="150.2" y2="195.0" stroke="rgb(0,0,0)"  stroke-width="2.0"/>
<line x1="329.5" y1="337.0" x2="318.5" y2="304.8" stroke="rgb(0,0,0)"  stroke-width="2.0"/>
<line x1="324.9" y1="284.9" x2="353.1" y2="264.6" stroke="rgb(0,0,0)"  stroke-width="2.0"/>
<line x1="353.1" y1="264.6" x2="378.8" y2="283.3" stroke="rgb(0,0,0)"  stroke-width="2.0"/>
<line x1="353.8" y1="274.0" x2="373.6" y2="288.4" stroke="rgb(0,0,0)"  stroke-width="2.0"/>
<line x1="387.5" y1="304.9" x2="376.1" y2="339.6" stroke="rgb(0,0,0)"  stroke-width="2.0"/>
<line x1="376.1" y1="339.6" x2="329.5" y2="337.0" stroke="rgb(0,0,0)"  stroke-width="2.0"/>
<line x1="312.3" y1="147.2" x2="312.4" y2="194.2" stroke="rgb(0,0,0)"  stroke-width="2.0"/>
<line x1="312.4" y1="194.2" x2="353.2" y2="218.0" stroke="rgb(0,0,0)"  stroke-width="2.0"/>
<line x1="353.2" y1="218.0" x2="394.8" y2="194.7" stroke="rgb(0,0,0)"  stroke-width="2.0"/>
<line x1="354.9" y1="208.8" x2="386.0" y2="191.3" stroke="rgb(0,0,0)"  stroke-width="2.0"/>
<line x1="394.8" y1="194.7" x2="394.5" y2="146.3" stroke="rgb(0,0,0)"  stroke-width="2.0"/>
<line x1="394.5" y1="146.3" x2="353.3" y2="123.7" stroke="rgb(0,0,0)"  stroke-width="2.0"/>
<line x1="385.8" y1="149.7" x2="355.1" y2="132.9" stroke="rgb(0,0,0)"  stroke-width="2.0"/>
<line x1="353.3" y1="123.7" x2="312.3" y2="147.2" stroke="rgb(0,0,0)"  stroke-width="2.0"/>
<text x="308.325372" y="300.495800" fill="rgb(255,12,12)"  stroke="rgb(255,12,12)" stroke-width="1" font-size="16" >O</text>
<text x="265.019224" y="84.749154" fill="rgb(255,12,12)"  stroke="rgb(255,12,12)" stroke-width="1" font-size="16" >O</text>
<text x="361.724728" y="103.995289" fill="rgb(255,12,12)"  stroke="rgb(255,12,12)" stroke-width="1" font-size="16" >O</text>
<text x="385.487973" y="300.495800" fill="rgb(12,12,255)"  stroke="rgb(12,12,255)" stroke-width="1" font-size="16" >N</text>
<text x="325.700312" y="401.537229" fill="rgb(191,191,191)"  stroke="rgb(191,191,191)" stroke-width="1" font-size="16" >H</text>
<text x="381.614380" y="416.544279" fill="rgb(191,191,191)"  stroke="rgb(191,191,191)" stroke-width="1" font-size="16" >H</text>
<text x="349.326106" y="425.181767" fill="rgb(191,191,191)"  stroke="rgb(191,191,191)" stroke-width="1" font-size="16" >H</text>
<text x="303.283453" y="371.679323" fill="rgb(191,191,191)"  stroke="rgb(191,191,191)" stroke-width="1" font-size="16" >H</text>
<text x="290.478728" y="339.703435" fill="rgb(191,191,191)"  stroke="rgb(191,191,191)" stroke-width="1" font-size="16" >H</text>
<text x="389.064799" y="412.205230" fill="rgb(191,191,191)"  stroke="rgb(191,191,191)" stroke-width="1" font-size="16" >H</text>
<text x="431.327575" y="375.709109" fill="rgb(191,191,191)"  stroke="rgb(191,191,191)" stroke-width="1" font-size="16" >H</text>
<text x="335.406162" y="185.540674" fill="rgb(191,191,191)"  stroke="rgb(191,191,191)" stroke-width="1" font-size="16" >H</text>
<text x="265.531538" y="253.075522" fill="rgb(191,191,191)"  stroke="rgb(191,191,191)" stroke-width="1" font-size="16" >H</text>
<text x="221.975482" y="168.949824" fill="rgb(191,191,191)"  stroke="rgb(191,191,191)" stroke-width="1" font-size="16" >H</text>
<text x="197.893603" y="219.331527" fill="rgb(191,191,191)"  stroke="rgb(191,191,191)" stroke-width="1" font-size="16" >H</text>
<text x="226.049003" y="187.321277" fill="rgb(191,191,191)"  stroke="rgb(191,191,191)" stroke-width="1" font-size="16" >H</text>
<text x="171.778087" y="219.675152" fill="rgb(191,191,191)"  stroke="rgb(191,191,191)" stroke-width="1" font-size="16" >H</text>
<text x="102.893729" y="256.564879" fill="rgb(191,191,191)"  stroke="rgb(191,191,191)" stroke-width="1" font-size="16" >H</text>
<text x="34.006248" y="219.322155" fill="rgb(191,191,191)"  stroke="rgb(191,191,191)" stroke-width="1" font-size="16" >H</text>
<text x="34.000000" y="137.611205" fill="rgb(191,191,191)"  stroke="rgb(191,191,191)" stroke-width="1" font-size="16" >H</text>
<text x="103.015560" y="100.324747" fill="rgb(191,191,191)"  stroke="rgb(191,191,191)" stroke-width="1" font-size="16" >H</text>
<text x="184.114232" y="99.206403" fill="rgb(191,191,191)"  stroke="rgb(191,191,191)" stroke-width="1" font-size="16" >H</text>
<text x="360.375219" y="48.000000" fill="rgb(191,191,191)"  stroke="rgb(191,191,191)" stroke-width="1" font-size="16" >H</text>
<text x="311.546077" y="79.107453" fill="rgb(191,191,191)"  stroke="rgb(191,191,191)" stroke-width="1" font-size="16" >H</text>
<text x="326.981096" y="49.458845" fill="rgb(191,191,191)"  stroke="rgb(191,191,191)" stroke-width="1" font-size="16" >H</text>
<text x="416.226810" y="137.770523" fill="rgb(191,191,191)"  stroke="rgb(191,191,191)" stroke-width="1" font-size="16" >H</text>
<text x="416.657903" y="218.894185" fill="rgb(191,191,191)"  stroke="rgb(191,191,191)" stroke-width="1" font-size="16" >H</text>
<text x="336.021563" y="83.558961" fill="rgb(191,191,191)"  stroke="rgb(191,191,191)" stroke-width="1" font-size="16" >H</text>
<text x="278.130088" y="82.965426" fill="rgb(191,191,191)"  stroke="rgb(191,191,191)" stroke-width="1" font-size="16" >H</text>
<text x="307.244514" y="66.552637" fill="rgb(191,191,191)"  stroke="rgb(191,191,191)" stroke-width="1" font-size="16" >H</text>
</svg>
</g>
<text font-size="18.000000" fill ="black" font-family="sans-serif"
x="10.000000" y="20.000000" ></text>
</svg>
