<?xml version="1.0"?>
<svg version="1.1" id="topsvg"
xmlns="http://www.w3.org/2000/svg" xmlns:xlink="http://www.w3.org/1999/xlink"
xmlns:cml="http://www.xml-cml.org/schema" x="0" y="0" width="200px" height="200px" viewBox="0 0 100 100">
<title> - Open Babel Depiction</title>
<rect x="0" y="0" width="100" height="100" fill="white"/>
<g transform="translate(0,0)">
<svg width="100" height="100" x="0" y="0" viewBox="0 0 497.253 443.429"
font-family="sans-serif" stroke="rgb(0,0,0)" stroke-width="2"  stroke-linecap="round">
<line x1="400.9" y1="372.0" x2="373.3" y2="330.1" stroke="rgb(0,0,0)"  stroke-width="2.0"/>
<line x1="400.9" y1="372.0" x2="391.0" y2="391.8" stroke="rgb(0,0,0)"  stroke-width="2.0"/>
<line x1="400.9" y1="372.0" x2="423.0" y2="370.7" stroke="rgb(0,0,0)"  stroke-width="2.0"/>
<line x1="400.9" y1="372.0" x2="413.1" y2="390.5" stroke="rgb(0,0,0)"  stroke-width="2.0"/>
<line x1="373.3" y1="330.1" x2="422.5" y2="323.0" stroke="rgb(0,0,0)"  stroke-width="2.0"/>
<line x1="323.5" y1="329.6" x2="310.3" y2="347.4" stroke="rgb(0,0,0)"  stroke-width="2.0"/>
<line x1="323.5" y1="329.6" x2="333.4" y2="349.4" stroke="rgb(0,0,0)"  stroke-width="2.0"/>
<line x1="422.5" y1="323.0" x2="436.2" y2="340.4" stroke="rgb(0,0,0)"  stroke-width="2.0"/>
<line x1="422.5" y1="323.0" x2="430.7" y2="302.4" stroke="rgb(0,0,0)"  stroke-width="2.0"/>
<line x1="422.5" y1="323.0" x2="444.4" y2="319.8" stroke="rgb(0,0,0)"  stroke-width="2.0"/>
<line x1="307.0" y1="181.1" x2="264.9" y2="199.9" stroke="rgb(0,0,0)"  stroke-width="2.0"/>
<line x1="306.2" y1="171.1" x2="307.8" y2="171.1" stroke="rgb(0,0,0)"  stroke-width="1.0"/>
<line x1="305.7" y1="163.1" x2="308.5" y2="163.1" stroke="rgb(0,0,0)"  stroke-width="1.0"/>
<line x1="305.1" y1="155.0" x2="309.2" y2="155.1" stroke="rgb(0,0,0)"  stroke-width="1.0"/>
<line x1="304.5" y1="147.0" x2="309.9" y2="147.0" stroke="rgb(0,0,0)"  stroke-width="1.0"/>
<line x1="303.9" y1="139.0" x2="310.6" y2="139.0" stroke="rgb(0,0,0)"  stroke-width="1.0"/>
<line x1="303.3" y1="130.9" x2="311.3" y2="131.0" stroke="rgb(0,0,0)"  stroke-width="1.0"/>
<line x1="307.0" y1="181.1" x2="305.9" y2="203.3" stroke="rgb(0,0,0)"  stroke-width="2.0"/>
<line x1="349.6" y1="205.4" x2="349.6" y2="255.4" stroke="rgb(0,0,0)"  stroke-width="2.0"/>
<line x1="264.9" y1="199.9" x2="264.9" y2="220.8" stroke="rgb(0,0,0)"  stroke-width="2.0"/>
<line x1="307.3" y1="131.0" x2="265.1" y2="106.8" stroke="rgb(0,0,0)"  stroke-width="2.0"/>
<polygon points="307.327093 130.973796 288.902068 146.175086 284.916139 139.238778 " stroke-width="2.000000" fill="rgb(0,0,0)"  stroke="rgb(0,0,0)" />
<line x1="377.4" y1="77.4" x2="397.3" y2="76.7" stroke="rgb(0,0,0)"  stroke-width="2.0"/>
<line x1="358.3" y1="89.2" x2="348.9" y2="106.7" stroke="rgb(0,0,0)"  stroke-width="2.0"/>
<line x1="397.3" y1="76.7" x2="408.9" y2="95.6" stroke="rgb(0,0,0)"  stroke-width="2.0"/>
<line x1="397.3" y1="76.7" x2="407.7" y2="57.2" stroke="rgb(0,0,0)"  stroke-width="2.0"/>
<line x1="397.3" y1="76.7" x2="419.4" y2="76.0" stroke="rgb(0,0,0)"  stroke-width="2.0"/>
<line x1="392.6" y1="130.5" x2="410.5" y2="119.8" stroke="rgb(0,0,0)"  stroke-width="2.0"/>
<line x1="392.6" y1="181.6" x2="410.6" y2="192.3" stroke="rgb(0,0,0)"  stroke-width="2.0"/>
<line x1="181.9" y1="105.5" x2="224.1" y2="129.8" stroke="rgb(0,0,0)"  stroke-width="2.0"/>
<line x1="178.9" y1="110.7" x2="221.1" y2="135.0" stroke="rgb(0,0,0)"  stroke-width="2.0"/>
<line x1="180.4" y1="108.1" x2="180.5" y2="87.2" stroke="rgb(0,0,0)"  stroke-width="2.0"/>
<line x1="222.6" y1="132.4" x2="265.1" y2="106.8" stroke="rgb(0,0,0)"  stroke-width="2.0"/>
<line x1="222.6" y1="132.4" x2="222.8" y2="153.3" stroke="rgb(0,0,0)"  stroke-width="2.0"/>
<line x1="138.1" y1="132.0" x2="180.4" y2="108.1" stroke="rgb(0,0,0)"  stroke-width="2.0"/>
<line x1="138.1" y1="132.0" x2="119.7" y2="124.5" stroke="rgb(0,0,0)"  stroke-width="2.0"/>
<line x1="138.1" y1="132.0" x2="139.5" y2="154.1" stroke="rgb(0,0,0)"  stroke-width="2.0"/>
<line x1="138.1" y1="132.0" x2="120.1" y2="144.9" stroke="rgb(0,0,0)"  stroke-width="2.0"/>
<line x1="105.8" y1="106.8" x2="103.0" y2="87.1" stroke="rgb(0,0,0)"  stroke-width="2.0"/>
<line x1="101.2" y1="84.8" x2="116.8" y2="72.5" stroke="rgb(0,0,0)"  stroke-width="2.0"/>
<line x1="104.9" y1="89.5" x2="120.5" y2="77.3" stroke="rgb(0,0,0)"  stroke-width="2.0"/>
<line x1="103.0" y1="87.1" x2="72.6" y2="74.8" stroke="rgb(0,0,0)"  stroke-width="2.0"/>
<line x1="72.6" y1="74.8" x2="69.5" y2="52.9" stroke="rgb(0,0,0)"  stroke-width="2.0"/>
<line x1="72.6" y1="74.8" x2="55.1" y2="88.4" stroke="rgb(0,0,0)"  stroke-width="2.0"/>
<line x1="72.6" y1="74.8" x2="52.1" y2="66.5" stroke="rgb(0,0,0)"  stroke-width="2.0"/>
<line x1="265.1" y1="106.8" x2="264.9" y2="84.6" stroke="rgb(0,0,0)"  stroke-width="2.0"/>
<line x1="265.1" y1="106.8" x2="245.8" y2="96.0" stroke="rgb(0,0,0)"  stroke-width="2.0"/>
<line x1="222.2" y1="177.2" x2="266.2" y2="197.2" stroke="rgb(0,0,0)"  stroke-width="2.0"/>
<line x1="219.7" y1="182.7" x2="263.7" y2="202.7" stroke="rgb(0,0,0)"  stroke-width="2.0"/>
<line x1="221.0" y1="179.9" x2="219.0" y2="159.1" stroke="rgb(0,0,0)"  stroke-width="2.0"/>
<line x1="221.0" y1="179.9" x2="204.0" y2="192.1" stroke="rgb(0,0,0)"  stroke-width="2.0"/>
<line x1="323.5" y1="329.6" x2="312.5" y2="295.1" stroke="rgb(0,0,0)"  stroke-width="2.0"/>
<line x1="319.4" y1="275.5" x2="349.6" y2="255.4" stroke="rgb(0,0,0)"  stroke-width="2.0"/>
<line x1="349.6" y1="255.4" x2="375.9" y2="274.8" stroke="rgb(0,0,0)"  stroke-width="2.0"/>
<line x1="350.1" y1="264.7" x2="370.7" y2="279.9" stroke="rgb(0,0,0)"  stroke-width="2.0"/>
<line x1="384.7" y1="296.6" x2="373.3" y2="330.1" stroke="rgb(0,0,0)"  stroke-width="2.0"/>
<line x1="373.3" y1="330.1" x2="323.5" y2="329.6" stroke="rgb(0,0,0)"  stroke-width="2.0"/>
<line x1="307.0" y1="181.1" x2="349.6" y2="205.4" stroke="rgb(0,0,0)"  stroke-width="2.0"/>
<line x1="349.6" y1="205.4" x2="392.6" y2="181.6" stroke="rgb(0,0,0)"  stroke-width="2.0"/>
<line x1="351.4" y1="196.2" x2="383.9" y2="178.2" stroke="rgb(0,0,0)"  stroke-width="2.0"/>
<line x1="392.6" y1="181.6" x2="392.6" y2="130.5" stroke="rgb(0,0,0)"  stroke-width="2.0"/>
<line x1="392.6" y1="130.5" x2="348.9" y2="106.7" stroke="rgb(0,0,0)"  stroke-width="2.0"/>
<line x1="383.8" y1="134.0" x2="350.7" y2="115.9" stroke="rgb(0,0,0)"  stroke-width="2.0"/>
<line x1="348.9" y1="106.7" x2="307.3" y2="131.0" stroke="rgb(0,0,0)"  stroke-width="2.0"/>
<line x1="307.3" y1="131.0" x2="307.0" y2="181.1" stroke="rgb(0,0,0)"  stroke-width="2.0"/>
<text x="302.539245" y="290.693148" fill="rgb(255,12,12)"  stroke="rgb(255,12,12)" stroke-width="1" font-size="16" >O</text>
<text x="382.886182" y="292.332345" fill="rgb(12,12,255)"  stroke="rgb(12,12,255)" stroke-width="1" font-size="16" >N</text>
<text x="358.432909" y="85.783657" fill="rgb(255,12,12)"  stroke="rgb(255,12,12)" stroke-width="1" font-size="16" >O</text>
<text x="101.604561" y="127.653809" fill="rgb(255,12,12)"  stroke="rgb(255,12,12)" stroke-width="1" font-size="16" >O</text>
<text x="122.933833" y="74.907141" fill="rgb(255,12,12)"  stroke="rgb(255,12,12)" stroke-width="1" font-size="16" >O</text>
<text x="379.144608" y="411.428718" fill="rgb(191,191,191)"  stroke="rgb(191,191,191)" stroke-width="1" font-size="16" >H</text>
<text x="429.966288" y="377.908945" fill="rgb(191,191,191)"  stroke="rgb(191,191,191)" stroke-width="1" font-size="16" >H</text>
<text x="414.231310" y="409.339481" fill="rgb(191,191,191)"  stroke="rgb(191,191,191)" stroke-width="1" font-size="16" >H</text>
<text x="296.603315" y="365.843271" fill="rgb(191,191,191)"  stroke="rgb(191,191,191)" stroke-width="1" font-size="16" >H</text>
<text x="333.151826" y="369.042826" fill="rgb(191,191,191)"  stroke="rgb(191,191,191)" stroke-width="1" font-size="16" >H</text>
<text x="438.208263" y="358.626205" fill="rgb(191,191,191)"  stroke="rgb(191,191,191)" stroke-width="1" font-size="16" >H</text>
<text x="429.509678" y="298.370109" fill="rgb(191,191,191)"  stroke="rgb(191,191,191)" stroke-width="1" font-size="16" >H</text>
<text x="451.252855" y="325.986802" fill="rgb(191,191,191)"  stroke="rgb(191,191,191)" stroke-width="1" font-size="16" >H</text>
<text x="299.264136" y="224.241609" fill="rgb(191,191,191)"  stroke="rgb(191,191,191)" stroke-width="1" font-size="16" >H</text>
<text x="258.806518" y="241.835877" fill="rgb(191,191,191)"  stroke="rgb(191,191,191)" stroke-width="1" font-size="16" >H</text>
<text x="270.852482" y="156.485939" fill="rgb(191,191,191)"  stroke="rgb(191,191,191)" stroke-width="1" font-size="16" >H</text>
<text x="409.796608" y="114.609217" fill="rgb(191,191,191)"  stroke="rgb(191,191,191)" stroke-width="1" font-size="16" >H</text>
<text x="407.868334" y="53.761827" fill="rgb(191,191,191)"  stroke="rgb(191,191,191)" stroke-width="1" font-size="16" >H</text>
<text x="426.398817" y="83.628721" fill="rgb(191,191,191)"  stroke="rgb(191,191,191)" stroke-width="1" font-size="16" >H</text>
<text x="415.696404" y="121.202140" fill="rgb(191,191,191)"  stroke="rgb(191,191,191)" stroke-width="1" font-size="16" >H</text>
<text x="415.837657" y="206.847724" fill="rgb(191,191,191)"  stroke="rgb(191,191,191)" stroke-width="1" font-size="16" >H</text>
<text x="174.563614" y="82.209616" fill="rgb(191,191,191)"  stroke="rgb(191,191,191)" stroke-width="1" font-size="16" >H</text>
<text x="216.956076" y="174.346289" fill="rgb(191,191,191)"  stroke="rgb(191,191,191)" stroke-width="1" font-size="16" >H</text>
<text x="134.319519" y="175.045987" fill="rgb(191,191,191)"  stroke="rgb(191,191,191)" stroke-width="1" font-size="16" >H</text>
<text x="103.562400" y="160.546155" fill="rgb(191,191,191)"  stroke="rgb(191,191,191)" stroke-width="1" font-size="16" >H</text>
<text x="61.705387" y="48.000000" fill="rgb(191,191,191)"  stroke="rgb(191,191,191)" stroke-width="1" font-size="16" >H</text>
<text x="38.881457" y="104.438968" fill="rgb(191,191,191)"  stroke="rgb(191,191,191)" stroke-width="1" font-size="16" >H</text>
<text x="34.000000" y="69.631489" fill="rgb(191,191,191)"  stroke="rgb(191,191,191)" stroke-width="1" font-size="16" >H</text>
<text x="258.740819" y="79.634204" fill="rgb(191,191,191)"  stroke="rgb(191,191,191)" stroke-width="1" font-size="16" >H</text>
<text x="228.427170" y="97.675227" fill="rgb(191,191,191)"  stroke="rgb(191,191,191)" stroke-width="1" font-size="16" >H</text>
<text x="211.729698" y="154.193034" fill="rgb(191,191,191)"  stroke="rgb(191,191,191)" stroke-width="1" font-size="16" >H</text>
<text x="187.401254" y="207.632830" fill="rgb(191,191,191)"  stroke="rgb(191,191,191)" stroke-width="1" font-size="16" >H</text>
</svg>
</g>
<text font-size="18.000000" fill ="black" font-family="sans-serif"
x="10.000000" y="20.000000" ></text>
</svg>
