<?xml version="1.0"?>
<svg version="1.1" id="topsvg"
xmlns="http://www.w3.org/2000/svg" xmlns:xlink="http://www.w3.org/1999/xlink"
xmlns:cml="http://www.xml-cml.org/schema" x="0" y="0" width="200px" height="200px" viewBox="0 0 100 100">
<title> - Open Babel Depiction</title>
<rect x="0" y="0" width="100" height="100" fill="white"/>
<g transform="translate(0,0)">
<svg width="100" height="100" x="0" y="0" viewBox="0 0 309.516 317.705"
font-family="sans-serif" stroke="rgb(0,0,0)" stroke-width="2"  stroke-linecap="round">
<line x1="184.9" y1="252.0" x2="198.4" y2="245.0" stroke="rgb(0,0,0)"  stroke-width="2.0"/>
<line x1="182.9" y1="248.2" x2="196.5" y2="241.3" stroke="rgb(0,0,0)"  stroke-width="2.0"/>
<line x1="186.8" y1="255.7" x2="200.3" y2="248.7" stroke="rgb(0,0,0)"  stroke-width="2.0"/>
<line x1="200.4" y1="242.8" x2="227.0" y2="266.8" stroke="rgb(0,0,0)"  stroke-width="2.0"/>
<line x1="196.4" y1="247.2" x2="222.9" y2="271.2" stroke="rgb(0,0,0)"  stroke-width="2.0"/>
<line x1="111.1" y1="194.5" x2="109.3" y2="221.1" stroke="rgb(0,0,0)"  stroke-width="2.0"/>
<line x1="154.7" y1="74.6" x2="154.8" y2="124.9" stroke="rgb(0,0,0)"  stroke-width="2.0"/>
<line x1="188.7" y1="106.8" x2="187.9" y2="105.4" stroke="rgb(0,0,0)"  stroke-width="1.0"/>
<line x1="182.3" y1="111.1" x2="180.9" y2="108.6" stroke="rgb(0,0,0)"  stroke-width="1.0"/>
<line x1="175.9" y1="115.5" x2="173.9" y2="111.8" stroke="rgb(0,0,0)"  stroke-width="1.0"/>
<line x1="169.5" y1="119.8" x2="166.8" y2="115.0" stroke="rgb(0,0,0)"  stroke-width="1.0"/>
<line x1="163.1" y1="124.1" x2="159.8" y2="118.2" stroke="rgb(0,0,0)"  stroke-width="1.0"/>
<line x1="156.7" y1="128.4" x2="152.8" y2="121.4" stroke="rgb(0,0,0)"  stroke-width="1.0"/>
<line x1="196.6" y1="101.4" x2="205.3" y2="65.0" stroke="rgb(0,0,0)"  stroke-width="2.0"/>
<line x1="196.7" y1="197.2" x2="198.4" y2="245.0" stroke="rgb(0,0,0)"  stroke-width="2.0"/>
<polygon points="155.054852 174.802246 150.773646 124.952866 158.773519 124.907748 " stroke-width="2.000000" fill="rgb(0,0,0)"  stroke="rgb(0,0,0)" />
<line x1="220.8" y1="48.6" x2="225.9" y2="47.1" stroke="rgb(0,0,0)"  stroke-width="2.0"/>
<line x1="109.3" y1="221.1" x2="89.8" y2="230.5" stroke="rgb(0,0,0)"  stroke-width="2.0"/>
<line x1="109.3" y1="221.1" x2="127.1" y2="233.2" stroke="rgb(0,0,0)"  stroke-width="2.0"/>
<line x1="109.3" y1="221.1" x2="107.7" y2="242.6" stroke="rgb(0,0,0)"  stroke-width="2.0"/>
<line x1="69.6" y1="123.5" x2="51.1" y2="112.4" stroke="rgb(0,0,0)"  stroke-width="2.0"/>
<line x1="69.6" y1="123.5" x2="70.2" y2="101.9" stroke="rgb(0,0,0)"  stroke-width="2.0"/>
<line x1="69.6" y1="174.2" x2="52.3" y2="184.9" stroke="rgb(0,0,0)"  stroke-width="2.0"/>
<line x1="112.8" y1="100.6" x2="113.3" y2="79.0" stroke="rgb(0,0,0)"  stroke-width="2.0"/>
<line x1="112.8" y1="100.6" x2="131.7" y2="90.0" stroke="rgb(0,0,0)"  stroke-width="2.0"/>
<line x1="154.7" y1="74.6" x2="173.4" y2="63.8" stroke="rgb(0,0,0)"  stroke-width="2.0"/>
<line x1="154.7" y1="74.6" x2="136.0" y2="63.8" stroke="rgb(0,0,0)"  stroke-width="2.0"/>
<line x1="154.7" y1="74.6" x2="154.6" y2="53.0" stroke="rgb(0,0,0)"  stroke-width="2.0"/>
<line x1="196.6" y1="101.4" x2="196.9" y2="123.0" stroke="rgb(0,0,0)"  stroke-width="2.0"/>
<line x1="239.4" y1="123.9" x2="257.9" y2="112.7" stroke="rgb(0,0,0)"  stroke-width="2.0"/>
<line x1="239.4" y1="123.9" x2="258.2" y2="134.5" stroke="rgb(0,0,0)"  stroke-width="2.0"/>
<line x1="239.4" y1="174.6" x2="257.8" y2="185.8" stroke="rgb(0,0,0)"  stroke-width="2.0"/>
<line x1="239.4" y1="174.6" x2="238.7" y2="196.2" stroke="rgb(0,0,0)"  stroke-width="2.0"/>
<line x1="196.7" y1="197.2" x2="215.4" y2="208.0" stroke="rgb(0,0,0)"  stroke-width="2.0"/>
<line x1="155.1" y1="174.8" x2="136.9" y2="163.1" stroke="rgb(0,0,0)"  stroke-width="2.0"/>
<line x1="111.1" y1="194.5" x2="155.1" y2="174.8" stroke="rgb(0,0,0)"  stroke-width="2.0"/>
<line x1="155.1" y1="174.8" x2="154.8" y2="124.9" stroke="rgb(0,0,0)"  stroke-width="2.0"/>
<line x1="154.8" y1="124.9" x2="112.8" y2="100.6" stroke="rgb(0,0,0)"  stroke-width="2.0"/>
<line x1="112.8" y1="100.6" x2="69.6" y2="123.5" stroke="rgb(0,0,0)"  stroke-width="2.0"/>
<line x1="69.6" y1="123.5" x2="69.6" y2="174.2" stroke="rgb(0,0,0)"  stroke-width="2.0"/>
<line x1="69.6" y1="174.2" x2="111.1" y2="194.5" stroke="rgb(0,0,0)"  stroke-width="2.0"/>
<line x1="78.1" y1="170.3" x2="108.9" y2="185.4" stroke="rgb(0,0,0)"  stroke-width="2.0"/>
<line x1="196.6" y1="101.4" x2="239.4" y2="123.9" stroke="rgb(0,0,0)"  stroke-width="2.0"/>
<line x1="239.4" y1="123.9" x2="239.4" y2="174.6" stroke="rgb(0,0,0)"  stroke-width="2.0"/>
<line x1="239.4" y1="174.6" x2="196.7" y2="197.2" stroke="rgb(0,0,0)"  stroke-width="2.0"/>
<line x1="196.7" y1="197.2" x2="155.1" y2="174.8" stroke="rgb(0,0,0)"  stroke-width="2.0"/>
<line x1="154.8" y1="124.9" x2="196.6" y2="101.4" stroke="rgb(0,0,0)"  stroke-width="2.0"/>
<text x="155.285622" y="265.912445" fill="rgb(17,127,178)"  stroke="rgb(17,127,178)" stroke-width="1" font-size="16" >Xx</text>
<text x="228.605541" y="285.704744" fill="rgb(255,12,12)"  stroke="rgb(255,12,12)" stroke-width="1" font-size="16" >O</text>
<text x="202.305254" y="60.340222" fill="rgb(255,12,12)"  stroke="rgb(255,12,12)" stroke-width="1" font-size="16" >O</text>
<text x="232.355797" y="51.365471" fill="rgb(191,191,191)"  stroke="rgb(191,191,191)" stroke-width="1" font-size="16" >H</text>
<text x="72.144399" y="244.196055" fill="rgb(191,191,191)"  stroke="rgb(191,191,191)" stroke-width="1" font-size="16" >H</text>
<text x="131.911257" y="248.429784" fill="rgb(191,191,191)"  stroke="rgb(191,191,191)" stroke-width="1" font-size="16" >H</text>
<text x="100.805656" y="263.566125" fill="rgb(191,191,191)"  stroke="rgb(191,191,191)" stroke-width="1" font-size="16" >H</text>
<text x="34.000000" y="113.677080" fill="rgb(191,191,191)"  stroke="rgb(191,191,191)" stroke-width="1" font-size="16" >H</text>
<text x="64.563338" y="96.933720" fill="rgb(191,191,191)"  stroke="rgb(191,191,191)" stroke-width="1" font-size="16" >H</text>
<text x="35.270552" y="199.799700" fill="rgb(191,191,191)"  stroke="rgb(191,191,191)" stroke-width="1" font-size="16" >H</text>
<text x="107.500548" y="73.976735" fill="rgb(191,191,191)"  stroke="rgb(191,191,191)" stroke-width="1" font-size="16" >H</text>
<text x="136.987394" y="91.595347" fill="rgb(191,191,191)"  stroke="rgb(191,191,191)" stroke-width="1" font-size="16" >H</text>
<text x="178.605870" y="65.240610" fill="rgb(191,191,191)"  stroke="rgb(191,191,191)" stroke-width="1" font-size="16" >H</text>
<text x="118.689351" y="65.352208" fill="rgb(191,191,191)"  stroke="rgb(191,191,191)" stroke-width="1" font-size="16" >H</text>
<text x="148.615395" y="48.000000" fill="rgb(191,191,191)"  stroke="rgb(191,191,191)" stroke-width="1" font-size="16" >H</text>
<text x="191.119098" y="144.006418" fill="rgb(191,191,191)"  stroke="rgb(191,191,191)" stroke-width="1" font-size="16" >H</text>
<text x="263.019138" y="114.027870" fill="rgb(191,191,191)"  stroke="rgb(191,191,191)" stroke-width="1" font-size="16" >H</text>
<text x="263.515665" y="148.920059" fill="rgb(191,191,191)"  stroke="rgb(191,191,191)" stroke-width="1" font-size="16" >H</text>
<text x="262.969836" y="200.490421" fill="rgb(191,191,191)"  stroke="rgb(191,191,191)" stroke-width="1" font-size="16" >H</text>
<text x="232.364874" y="217.196770" fill="rgb(191,191,191)"  stroke="rgb(191,191,191)" stroke-width="1" font-size="16" >H</text>
<text x="220.628426" y="222.470041" fill="rgb(191,191,191)"  stroke="rgb(191,191,191)" stroke-width="1" font-size="16" >H</text>
<text x="119.965018" y="164.081966" fill="rgb(191,191,191)"  stroke="rgb(191,191,191)" stroke-width="1" font-size="16" >H</text>
</svg>
</g>
<text font-size="18.000000" fill ="black" font-family="sans-serif"
x="10.000000" y="20.000000" ></text>
</svg>
