<?xml version="1.0"?>
<svg version="1.1" id="topsvg"
xmlns="http://www.w3.org/2000/svg" xmlns:xlink="http://www.w3.org/1999/xlink"
xmlns:cml="http://www.xml-cml.org/schema" x="0" y="0" width="200px" height="200px" viewBox="0 0 100 100">
<title> - Open Babel Depiction</title>
<rect x="0" y="0" width="100" height="100" fill="white"/>
<g transform="translate(0,0)">
<svg width="100" height="100" x="0" y="0" viewBox="0 0 498.438 370.148"
font-family="sans-serif" stroke="rgb(0,0,0)" stroke-width="2"  stroke-linecap="round">
<line x1="171.2" y1="179.9" x2="170.4" y2="227.0" stroke="rgb(0,0,0)"  stroke-width="2.0"/>
<line x1="178.1" y1="174.4" x2="179.0" y2="175.7" stroke="rgb(0,0,0)"  stroke-width="1.0"/>
<line x1="183.6" y1="169.9" x2="185.2" y2="172.3" stroke="rgb(0,0,0)"  stroke-width="1.0"/>
<line x1="189.1" y1="165.5" x2="191.4" y2="169.0" stroke="rgb(0,0,0)"  stroke-width="1.0"/>
<line x1="194.7" y1="161.1" x2="197.7" y2="165.7" stroke="rgb(0,0,0)"  stroke-width="1.0"/>
<line x1="200.2" y1="156.7" x2="203.9" y2="162.3" stroke="rgb(0,0,0)"  stroke-width="1.0"/>
<line x1="205.7" y1="152.3" x2="210.1" y2="159.0" stroke="rgb(0,0,0)"  stroke-width="1.0"/>
<line x1="170.4" y1="227.0" x2="195.8" y2="243.2" stroke="rgb(0,0,0)"  stroke-width="2.0"/>
<line x1="130.2" y1="110.9" x2="113.2" y2="105.6" stroke="rgb(0,0,0)"  stroke-width="2.0"/>
<line x1="104.8" y1="89.2" x2="110.1" y2="72.2" stroke="rgb(0,0,0)"  stroke-width="2.0"/>
<line x1="88.4" y1="97.7" x2="71.5" y2="92.4" stroke="rgb(0,0,0)"  stroke-width="2.0"/>
<line x1="96.9" y1="114.0" x2="91.6" y2="131.0" stroke="rgb(0,0,0)"  stroke-width="2.0"/>
<line x1="165.4" y1="87.7" x2="166.3" y2="52.9" stroke="rgb(0,0,0)"  stroke-width="2.0"/>
<line x1="171.4" y1="87.8" x2="172.3" y2="53.1" stroke="rgb(0,0,0)"  stroke-width="2.0"/>
<line x1="207.9" y1="155.6" x2="238.7" y2="177.0" stroke="rgb(0,0,0)"  stroke-width="2.0"/>
<line x1="338.8" y1="298.5" x2="361.2" y2="257.5" stroke="rgb(0,0,0)"  stroke-width="2.0"/>
<line x1="361.2" y1="257.5" x2="375.6" y2="212.4" stroke="rgb(0,0,0)"  stroke-width="2.0"/>
<line x1="375.6" y1="212.4" x2="374.3" y2="164.4" stroke="rgb(0,0,0)"  stroke-width="2.0"/>
<line x1="413.2" y1="162.8" x2="426.7" y2="174.5" stroke="rgb(0,0,0)"  stroke-width="2.0"/>
<line x1="391.1" y1="158.6" x2="374.3" y2="164.4" stroke="rgb(0,0,0)"  stroke-width="2.0"/>
<line x1="291.5" y1="296.4" x2="338.8" y2="295.5" stroke="rgb(0,0,0)"  stroke-width="2.0"/>
<line x1="291.6" y1="302.4" x2="338.9" y2="301.5" stroke="rgb(0,0,0)"  stroke-width="2.0"/>
<line x1="251.5" y1="275.9" x2="195.8" y2="243.2" stroke="rgb(0,0,0)"  stroke-width="2.0"/>
<line x1="249.4" y1="279.5" x2="193.7" y2="246.8" stroke="rgb(0,0,0)"  stroke-width="2.0"/>
<line x1="253.7" y1="272.3" x2="197.9" y2="239.5" stroke="rgb(0,0,0)"  stroke-width="2.0"/>
<line x1="251.5" y1="275.9" x2="291.5" y2="299.4" stroke="rgb(0,0,0)"  stroke-width="2.0"/>
<line x1="260.7" y1="177.3" x2="292.2" y2="166.0" stroke="rgb(0,0,0)"  stroke-width="2.0"/>
<line x1="262.7" y1="182.9" x2="294.2" y2="171.7" stroke="rgb(0,0,0)"  stroke-width="2.0"/>
<line x1="171.2" y1="179.9" x2="154.0" y2="190.0" stroke="rgb(0,0,0)"  stroke-width="2.0"/>
<line x1="170.4" y1="227.0" x2="152.8" y2="236.4" stroke="rgb(0,0,0)"  stroke-width="2.0"/>
<line x1="170.4" y1="227.0" x2="169.7" y2="246.9" stroke="rgb(0,0,0)"  stroke-width="2.0"/>
<line x1="129.7" y1="157.9" x2="112.6" y2="168.1" stroke="rgb(0,0,0)"  stroke-width="2.0"/>
<line x1="129.7" y1="157.9" x2="112.4" y2="147.9" stroke="rgb(0,0,0)"  stroke-width="2.0"/>
<line x1="130.2" y1="110.9" x2="114.1" y2="122.6" stroke="rgb(0,0,0)"  stroke-width="2.0"/>
<line x1="110.1" y1="72.2" x2="129.6" y2="67.9" stroke="rgb(0,0,0)"  stroke-width="2.0"/>
<line x1="110.1" y1="72.2" x2="96.6" y2="57.5" stroke="rgb(0,0,0)"  stroke-width="2.0"/>
<line x1="110.1" y1="72.2" x2="116.1" y2="53.2" stroke="rgb(0,0,0)"  stroke-width="2.0"/>
<line x1="71.5" y1="92.4" x2="67.1" y2="72.9" stroke="rgb(0,0,0)"  stroke-width="2.0"/>
<line x1="71.5" y1="92.4" x2="56.7" y2="105.9" stroke="rgb(0,0,0)"  stroke-width="2.0"/>
<line x1="71.5" y1="92.4" x2="52.4" y2="86.3" stroke="rgb(0,0,0)"  stroke-width="2.0"/>
<line x1="91.6" y1="131.0" x2="72.1" y2="135.4" stroke="rgb(0,0,0)"  stroke-width="2.0"/>
<line x1="91.6" y1="131.0" x2="105.1" y2="145.8" stroke="rgb(0,0,0)"  stroke-width="2.0"/>
<line x1="91.6" y1="131.0" x2="85.6" y2="150.1" stroke="rgb(0,0,0)"  stroke-width="2.0"/>
<line x1="210.4" y1="110.2" x2="227.8" y2="100.4" stroke="rgb(0,0,0)"  stroke-width="2.0"/>
<line x1="210.4" y1="110.2" x2="210.2" y2="90.3" stroke="rgb(0,0,0)"  stroke-width="2.0"/>
<polygon points="207.939324 155.622633 211.672574 177.767330 203.673156 177.670866 " stroke-width="2.000000" fill="rgb(0,0,0)"  stroke="rgb(0,0,0)" />
<line x1="338.8" y1="298.5" x2="348.6" y2="314.5" stroke="rgb(0,0,0)"  stroke-width="2.0"/>
<line x1="361.2" y1="257.5" x2="379.5" y2="265.4" stroke="rgb(0,0,0)"  stroke-width="2.0"/>
<line x1="361.2" y1="257.5" x2="379.3" y2="249.3" stroke="rgb(0,0,0)"  stroke-width="2.0"/>
<line x1="426.7" y1="174.5" x2="422.9" y2="194.1" stroke="rgb(0,0,0)"  stroke-width="2.0"/>
<line x1="426.7" y1="174.5" x2="445.6" y2="167.9" stroke="rgb(0,0,0)"  stroke-width="2.0"/>
<line x1="426.7" y1="174.5" x2="441.8" y2="187.5" stroke="rgb(0,0,0)"  stroke-width="2.0"/>
<line x1="374.3" y1="164.4" x2="357.8" y2="153.1" stroke="rgb(0,0,0)"  stroke-width="2.0"/>
<line x1="374.3" y1="164.4" x2="377.0" y2="144.6" stroke="rgb(0,0,0)"  stroke-width="2.0"/>
<line x1="364.5" y1="258.1" x2="345.0" y2="262.5" stroke="rgb(0,0,0)"  stroke-width="2.0"/>
<line x1="364.5" y1="258.1" x2="365.3" y2="278.1" stroke="rgb(0,0,0)"  stroke-width="2.0"/>
<line x1="291.5" y1="299.4" x2="286.8" y2="317.6" stroke="rgb(0,0,0)"  stroke-width="2.0"/>
<line x1="375.6" y1="212.4" x2="389.3" y2="241.6" stroke="rgb(0,0,0)"  stroke-width="2.0"/>
<line x1="389.3" y1="241.6" x2="445.8" y2="227.2" stroke="rgb(0,0,0)"  stroke-width="2.0"/>
<line x1="445.6" y1="222.2" x2="375.6" y2="212.4" stroke="rgb(0,0,0)"  stroke-width="2.0"/>
<line x1="434.3" y1="264.0" x2="389.3" y2="241.6" stroke="rgb(0,0,0)"  stroke-width="2.0"/>
<line x1="455.0" y1="236.5" x2="449.4" y2="257.2" stroke="rgb(0,0,0)"  stroke-width="2.0"/>
<line x1="364.5" y1="258.1" x2="389.3" y2="241.6" stroke="rgb(0,0,0)"  stroke-width="2.0"/>
<line x1="433.1" y1="267.9" x2="364.5" y2="258.1" stroke="rgb(0,0,0)"  stroke-width="2.0"/>
<line x1="129.7" y1="157.9" x2="171.2" y2="179.9" stroke="rgb(0,0,0)"  stroke-width="2.0"/>
<line x1="171.2" y1="179.9" x2="207.9" y2="155.6" stroke="rgb(0,0,0)"  stroke-width="2.0"/>
<line x1="207.9" y1="155.6" x2="210.4" y2="110.2" stroke="rgb(0,0,0)"  stroke-width="2.0"/>
<line x1="210.4" y1="110.2" x2="168.4" y2="87.8" stroke="rgb(0,0,0)"  stroke-width="2.0"/>
<line x1="168.4" y1="87.8" x2="130.2" y2="110.9" stroke="rgb(0,0,0)"  stroke-width="2.0"/>
<line x1="130.2" y1="110.9" x2="129.7" y2="157.9" stroke="rgb(0,0,0)"  stroke-width="2.0"/>
<text x="94.845826" y="109.645882" fill="rgb(127,153,153)"  stroke="rgb(127,153,153)" stroke-width="1" font-size="16" >Si</text>
<text x="163.646070" y="48.000000" fill="rgb(255,12,12)"  stroke="rgb(255,12,12)" stroke-width="1" font-size="16" >O</text>
<text x="397.385036" y="162.306428" fill="rgb(255,12,12)"  stroke="rgb(255,12,12)" stroke-width="1" font-size="16" >O</text>
<text x="452.437562" y="231.960510" fill="rgb(17,127,178)"  stroke="rgb(17,127,178)" stroke-width="1" font-size="16" >Xx</text>
<text x="439.987553" y="277.750278" fill="rgb(17,127,178)"  stroke="rgb(17,127,178)" stroke-width="1" font-size="16" >Xx</text>
<text x="237.422912" y="192.446606" fill="rgb(17,127,178)"  stroke="rgb(17,127,178)" stroke-width="1" font-size="16" >Xx</text>
<text x="299.406337" y="172.515496" fill="rgb(178,178,0)"  stroke="rgb(178,178,0)" stroke-width="1" font-size="16" >S</text>
<text x="136.782420" y="204.650622" fill="rgb(191,191,191)"  stroke="rgb(191,191,191)" stroke-width="1" font-size="16" >H</text>
<text x="135.372379" y="250.568070" fill="rgb(191,191,191)"  stroke="rgb(191,191,191)" stroke-width="1" font-size="16" >H</text>
<text x="163.179062" y="267.915269" fill="rgb(191,191,191)"  stroke="rgb(191,191,191)" stroke-width="1" font-size="16" >H</text>
<text x="95.379087" y="182.751939" fill="rgb(191,191,191)"  stroke="rgb(191,191,191)" stroke-width="1" font-size="16" >H</text>
<text x="95.152922" y="149.435657" fill="rgb(191,191,191)"  stroke="rgb(191,191,191)" stroke-width="1" font-size="16" >H</text>
<text x="97.533501" y="138.278259" fill="rgb(191,191,191)"  stroke="rgb(191,191,191)" stroke-width="1" font-size="16" >H</text>
<text x="136.326419" y="73.119118" fill="rgb(191,191,191)"  stroke="rgb(191,191,191)" stroke-width="1" font-size="16" >H</text>
<text x="81.848493" y="55.925183" fill="rgb(191,191,191)"  stroke="rgb(191,191,191)" stroke-width="1" font-size="16" >H</text>
<text x="114.050918" y="48.795728" fill="rgb(191,191,191)"  stroke="rgb(191,191,191)" stroke-width="1" font-size="16" >H</text>
<text x="58.326184" y="68.161312" fill="rgb(191,191,191)"  stroke="rgb(191,191,191)" stroke-width="1" font-size="16" >H</text>
<text x="41.125415" y="122.637080" fill="rgb(191,191,191)"  stroke="rgb(191,191,191)" stroke-width="1" font-size="16" >H</text>
<text x="34.000000" y="90.433762" fill="rgb(191,191,191)"  stroke="rgb(191,191,191)" stroke-width="1" font-size="16" >H</text>
<text x="53.365018" y="146.168594" fill="rgb(191,191,191)"  stroke="rgb(191,191,191)" stroke-width="1" font-size="16" >H</text>
<text x="107.842426" y="163.364169" fill="rgb(191,191,191)"  stroke="rgb(191,191,191)" stroke-width="1" font-size="16" >H</text>
<text x="75.639787" y="170.492654" fill="rgb(191,191,191)"  stroke="rgb(191,191,191)" stroke-width="1" font-size="16" >H</text>
<text x="233.132071" y="102.065340" fill="rgb(191,191,191)"  stroke="rgb(191,191,191)" stroke-width="1" font-size="16" >H</text>
<text x="204.041693" y="85.262472" fill="rgb(191,191,191)"  stroke="rgb(191,191,191)" stroke-width="1" font-size="16" >H</text>
<text x="201.541624" y="196.602431" fill="rgb(191,191,191)"  stroke="rgb(191,191,191)" stroke-width="1" font-size="16" >H</text>
<text x="349.344209" y="333.657601" fill="rgb(191,191,191)"  stroke="rgb(191,191,191)" stroke-width="1" font-size="16" >H</text>
<text x="385.485935" y="278.532916" fill="rgb(191,191,191)"  stroke="rgb(191,191,191)" stroke-width="1" font-size="16" >H</text>
<text x="385.173478" y="251.854311" fill="rgb(191,191,191)"  stroke="rgb(191,191,191)" stroke-width="1" font-size="16" >H</text>
<text x="414.493621" y="214.858504" fill="rgb(191,191,191)"  stroke="rgb(191,191,191)" stroke-width="1" font-size="16" >H</text>
<text x="451.857246" y="171.644672" fill="rgb(191,191,191)"  stroke="rgb(191,191,191)" stroke-width="1" font-size="16" >H</text>
<text x="445.650192" y="204.037538" fill="rgb(191,191,191)"  stroke="rgb(191,191,191)" stroke-width="1" font-size="16" >H</text>
<text x="341.123861" y="153.677172" fill="rgb(191,191,191)"  stroke="rgb(191,191,191)" stroke-width="1" font-size="16" >H</text>
<text x="372.706013" y="139.734998" fill="rgb(191,191,191)"  stroke="rgb(191,191,191)" stroke-width="1" font-size="16" >H</text>
<text x="326.350011" y="273.367570" fill="rgb(191,191,191)"  stroke="rgb(191,191,191)" stroke-width="1" font-size="16" >H</text>
<text x="359.843863" y="299.041848" fill="rgb(191,191,191)"  stroke="rgb(191,191,191)" stroke-width="1" font-size="16" >H</text>
<text x="277.467927" y="338.148350" fill="rgb(191,191,191)"  stroke="rgb(191,191,191)" stroke-width="1" font-size="16" >H</text>
</svg>
</g>
<text font-size="18.000000" fill ="black" font-family="sans-serif"
x="10.000000" y="20.000000" ></text>
</svg>
