<?xml version="1.0"?>
<svg version="1.1" id="topsvg"
xmlns="http://www.w3.org/2000/svg" xmlns:xlink="http://www.w3.org/1999/xlink"
xmlns:cml="http://www.xml-cml.org/schema" x="0" y="0" width="200px" height="200px" viewBox="0 0 100 100">
<title> - Open Babel Depiction</title>
<rect x="0" y="0" width="100" height="100" fill="white"/>
<g transform="translate(0,0)">
<svg width="100" height="100" x="0" y="0" viewBox="0 0 329.251 390.025"
font-family="sans-serif" stroke="rgb(0,0,0)" stroke-width="2"  stroke-linecap="round">
<line x1="114.9" y1="286.0" x2="70.4" y2="285.7" stroke="rgb(0,0,0)"  stroke-width="2.0"/>
<line x1="114.9" y1="286.0" x2="127.2" y2="262.1" stroke="rgb(0,0,0)"  stroke-width="2.0"/>
<line x1="114.9" y1="286.0" x2="132.3" y2="285.9" stroke="rgb(0,0,0)"  stroke-width="2.0"/>
<line x1="70.4" y1="285.7" x2="61.8" y2="270.6" stroke="rgb(0,0,0)"  stroke-width="2.0"/>
<line x1="70.4" y1="285.7" x2="61.6" y2="300.8" stroke="rgb(0,0,0)"  stroke-width="2.0"/>
<line x1="70.4" y1="285.7" x2="53.0" y2="285.7" stroke="rgb(0,0,0)"  stroke-width="2.0"/>
<line x1="134.8" y1="323.2" x2="114.9" y2="286.0" stroke="rgb(0,0,0)"  stroke-width="2.0"/>
<line x1="134.8" y1="323.2" x2="125.6" y2="338.0" stroke="rgb(0,0,0)"  stroke-width="2.0"/>
<line x1="134.8" y1="323.2" x2="152.1" y2="323.8" stroke="rgb(0,0,0)"  stroke-width="2.0"/>
<line x1="134.8" y1="323.2" x2="142.9" y2="338.6" stroke="rgb(0,0,0)"  stroke-width="2.0"/>
<line x1="178.2" y1="176.1" x2="186.1" y2="161.9" stroke="rgb(0,0,0)"  stroke-width="2.0"/>
<line x1="240.9" y1="212.7" x2="249.5" y2="198.8" stroke="rgb(0,0,0)"  stroke-width="2.0"/>
<line x1="259.9" y1="248.9" x2="276.3" y2="248.8" stroke="rgb(0,0,0)"  stroke-width="2.0"/>
<line x1="240.7" y1="286.1" x2="249.3" y2="300.0" stroke="rgb(0,0,0)"  stroke-width="2.0"/>
<line x1="197.7" y1="286.8" x2="189.6" y2="301.0" stroke="rgb(0,0,0)"  stroke-width="2.0"/>
<line x1="102.9" y1="193.6" x2="132.1" y2="182.6" stroke="rgb(0,0,0)"  stroke-width="2.0"/>
<line x1="135.3" y1="133.8" x2="141.7" y2="165.3" stroke="rgb(0,0,0)"  stroke-width="2.0"/>
<line x1="135.3" y1="133.8" x2="150.6" y2="142.1" stroke="rgb(0,0,0)"  stroke-width="2.0"/>
<line x1="111.9" y1="68.1" x2="105.3" y2="52.0" stroke="rgb(0,0,0)"  stroke-width="2.0"/>
<line x1="111.9" y1="68.1" x2="121.7" y2="53.8" stroke="rgb(0,0,0)"  stroke-width="2.0"/>
<line x1="154.9" y1="68.9" x2="161.5" y2="52.9" stroke="rgb(0,0,0)"  stroke-width="2.0"/>
<line x1="154.9" y1="68.9" x2="145.3" y2="54.4" stroke="rgb(0,0,0)"  stroke-width="2.0"/>
<line x1="240.7" y1="286.1" x2="197.7" y2="286.8" stroke="rgb(0,0,0)"  stroke-width="2.0"/>
<line x1="234.6" y1="279.0" x2="203.6" y2="279.5" stroke="rgb(0,0,0)"  stroke-width="2.0"/>
<line x1="197.7" y1="286.8" x2="176.7" y2="249.7" stroke="rgb(0,0,0)"  stroke-width="2.0"/>
<line x1="176.7" y1="249.7" x2="197.9" y2="212.1" stroke="rgb(0,0,0)"  stroke-width="2.0"/>
<line x1="185.9" y1="248.0" x2="201.2" y2="220.9" stroke="rgb(0,0,0)"  stroke-width="2.0"/>
<line x1="197.9" y1="212.1" x2="240.9" y2="212.7" stroke="rgb(0,0,0)"  stroke-width="2.0"/>
<line x1="240.9" y1="212.7" x2="259.9" y2="248.9" stroke="rgb(0,0,0)"  stroke-width="2.0"/>
<line x1="237.3" y1="221.3" x2="250.8" y2="246.9" stroke="rgb(0,0,0)"  stroke-width="2.0"/>
<line x1="259.9" y1="248.9" x2="240.7" y2="286.1" stroke="rgb(0,0,0)"  stroke-width="2.0"/>
<line x1="176.7" y1="249.7" x2="146.2" y2="250.3" stroke="rgb(0,0,0)"  stroke-width="2.0"/>
<line x1="135.2" y1="237.7" x2="142.3" y2="190.9" stroke="rgb(0,0,0)"  stroke-width="2.0"/>
<line x1="155.5" y1="177.4" x2="178.2" y2="176.1" stroke="rgb(0,0,0)"  stroke-width="2.0"/>
<line x1="158.5" y1="184.5" x2="172.6" y2="183.7" stroke="rgb(0,0,0)"  stroke-width="2.0"/>
<line x1="178.2" y1="176.1" x2="197.9" y2="212.1" stroke="rgb(0,0,0)"  stroke-width="2.0"/>
<line x1="80.9" y1="99.9" x2="111.9" y2="68.1" stroke="rgb(0,0,0)"  stroke-width="2.0"/>
<line x1="111.9" y1="68.1" x2="154.9" y2="68.9" stroke="rgb(0,0,0)"  stroke-width="2.0"/>
<line x1="154.9" y1="68.9" x2="187.6" y2="100.6" stroke="rgb(0,0,0)"  stroke-width="2.0"/>
<line x1="184.8" y1="114.4" x2="135.3" y2="133.8" stroke="rgb(0,0,0)"  stroke-width="2.0"/>
<line x1="135.3" y1="133.8" x2="83.9" y2="113.9" stroke="rgb(0,0,0)"  stroke-width="2.0"/>
<text x="127.195988" y="258.533909" fill="rgb(255,12,12)"  stroke="rgb(255,12,12)" stroke-width="1" font-size="16" >O</text>
<text x="138.279859" y="186.037094" fill="rgb(35,142,142)"  stroke="rgb(35,142,142)" stroke-width="1" font-size="16" >Ru</text>
<text x="72.712547" y="206.122706" fill="rgb(30,239,30)"  stroke="rgb(30,239,30)" stroke-width="1" font-size="16" >Cl</text>
<text x="53.780204" y="117.233010" fill="rgb(17,127,178)"  stroke="rgb(17,127,178)" stroke-width="1" font-size="16" >Xx</text>
<text x="190.921148" y="117.693181" fill="rgb(17,127,178)"  stroke="rgb(17,127,178)" stroke-width="1" font-size="16" >Xx</text>
<text x="139.291099" y="293.771077" fill="rgb(191,191,191)"  stroke="rgb(191,191,191)" stroke-width="1" font-size="16" >H</text>
<text x="49.330511" y="267.345332" fill="rgb(191,191,191)"  stroke="rgb(191,191,191)" stroke-width="1" font-size="16" >H</text>
<text x="49.063499" y="319.989461" fill="rgb(191,191,191)"  stroke="rgb(191,191,191)" stroke-width="1" font-size="16" >H</text>
<text x="34.000000" y="293.589281" fill="rgb(191,191,191)"  stroke="rgb(191,191,191)" stroke-width="1" font-size="16" >H</text>
<text x="112.680718" y="357.001980" fill="rgb(191,191,191)"  stroke="rgb(191,191,191)" stroke-width="1" font-size="16" >H</text>
<text x="159.132423" y="332.229441" fill="rgb(191,191,191)"  stroke="rgb(191,191,191)" stroke-width="1" font-size="16" >H</text>
<text x="143.057684" y="358.024582" fill="rgb(191,191,191)"  stroke="rgb(191,191,191)" stroke-width="1" font-size="16" >H</text>
<text x="186.464307" y="158.523414" fill="rgb(191,191,191)"  stroke="rgb(191,191,191)" stroke-width="1" font-size="16" >H</text>
<text x="250.254800" y="195.680801" fill="rgb(191,191,191)"  stroke="rgb(191,191,191)" stroke-width="1" font-size="16" >H</text>
<text x="283.250765" y="256.767080" fill="rgb(191,191,191)"  stroke="rgb(191,191,191)" stroke-width="1" font-size="16" >H</text>
<text x="250.135497" y="319.066278" fill="rgb(191,191,191)"  stroke="rgb(191,191,191)" stroke-width="1" font-size="16" >H</text>
<text x="177.181352" y="320.256474" fill="rgb(191,191,191)"  stroke="rgb(191,191,191)" stroke-width="1" font-size="16" >H</text>
<text x="156.022008" y="156.344703" fill="rgb(191,191,191)"  stroke="rgb(191,191,191)" stroke-width="1" font-size="16" >H</text>
<text x="94.330689" y="48.000000" fill="rgb(191,191,191)"  stroke="rgb(191,191,191)" stroke-width="1" font-size="16" >H</text>
<text x="123.034565" y="51.028039" fill="rgb(191,191,191)"  stroke="rgb(191,191,191)" stroke-width="1" font-size="16" >H</text>
<text x="160.527138" y="48.852169" fill="rgb(191,191,191)"  stroke="rgb(191,191,191)" stroke-width="1" font-size="16" >H</text>
<text x="132.220941" y="51.474007" fill="rgb(191,191,191)"  stroke="rgb(191,191,191)" stroke-width="1" font-size="16" >H</text>
</svg>
</g>
<text font-size="18.000000" fill ="black" font-family="sans-serif"
x="10.000000" y="20.000000" ></text>
</svg>
