<?xml version="1.0"?>
<svg version="1.1" id="topsvg"
xmlns="http://www.w3.org/2000/svg" xmlns:xlink="http://www.w3.org/1999/xlink"
xmlns:cml="http://www.xml-cml.org/schema" x="0" y="0" width="200px" height="200px" viewBox="0 0 100 100">
<title> - Open Babel Depiction</title>
<rect x="0" y="0" width="100" height="100" fill="white"/>
<g transform="translate(0,0)">
<svg width="100" height="100" x="0" y="0" viewBox="0 0 455.855 444.098"
font-family="sans-serif" stroke="rgb(0,0,0)" stroke-width="2"  stroke-linecap="round">
<line x1="276.1" y1="297.2" x2="276.7" y2="228.6" stroke="rgb(0,0,0)"  stroke-width="2.0"/>
<line x1="271.9" y1="297.2" x2="272.5" y2="228.5" stroke="rgb(0,0,0)"  stroke-width="2.0"/>
<line x1="280.3" y1="297.3" x2="280.9" y2="228.6" stroke="rgb(0,0,0)"  stroke-width="2.0"/>
<line x1="276.1" y1="297.2" x2="275.7" y2="345.3" stroke="rgb(0,0,0)"  stroke-width="2.0"/>
<line x1="361.1" y1="345.3" x2="404.6" y2="319.7" stroke="rgb(0,0,0)"  stroke-width="2.0"/>
<line x1="358.9" y1="341.7" x2="402.5" y2="316.0" stroke="rgb(0,0,0)"  stroke-width="2.0"/>
<line x1="363.2" y1="348.9" x2="406.8" y2="323.3" stroke="rgb(0,0,0)"  stroke-width="2.0"/>
<line x1="277.1" y1="342.7" x2="320.4" y2="367.5" stroke="rgb(0,0,0)"  stroke-width="2.0"/>
<line x1="274.2" y1="347.9" x2="317.4" y2="372.7" stroke="rgb(0,0,0)"  stroke-width="2.0"/>
<line x1="318.9" y1="370.1" x2="361.1" y2="345.3" stroke="rgb(0,0,0)"  stroke-width="2.0"/>
<line x1="104.0" y1="346.0" x2="147.3" y2="319.4" stroke="rgb(0,0,0)"  stroke-width="2.0"/>
<line x1="144.3" y1="319.4" x2="145.3" y2="270.9" stroke="rgb(0,0,0)"  stroke-width="2.0"/>
<line x1="150.3" y1="319.5" x2="151.3" y2="271.1" stroke="rgb(0,0,0)"  stroke-width="2.0"/>
<line x1="148.3" y1="271.0" x2="190.7" y2="246.2" stroke="rgb(0,0,0)"  stroke-width="2.0"/>
<line x1="191.3" y1="197.3" x2="190.7" y2="246.2" stroke="rgb(0,0,0)"  stroke-width="2.0"/>
<line x1="199.5" y1="191.4" x2="200.3" y2="192.8" stroke="rgb(0,0,0)"  stroke-width="1.0"/>
<line x1="206.0" y1="186.7" x2="207.5" y2="189.2" stroke="rgb(0,0,0)"  stroke-width="1.0"/>
<line x1="212.5" y1="182.0" x2="214.7" y2="185.6" stroke="rgb(0,0,0)"  stroke-width="1.0"/>
<line x1="219.0" y1="177.3" x2="221.9" y2="182.0" stroke="rgb(0,0,0)"  stroke-width="1.0"/>
<line x1="225.6" y1="172.6" x2="229.0" y2="178.4" stroke="rgb(0,0,0)"  stroke-width="1.0"/>
<line x1="232.1" y1="167.9" x2="236.2" y2="174.8" stroke="rgb(0,0,0)"  stroke-width="1.0"/>
<line x1="149.6" y1="123.3" x2="147.8" y2="122.1" stroke="rgb(0,0,0)"  stroke-width="2.0"/>
<line x1="109.1" y1="92.9" x2="114.8" y2="73.8" stroke="rgb(0,0,0)"  stroke-width="2.0"/>
<line x1="92.9" y1="101.7" x2="73.8" y2="96.0" stroke="rgb(0,0,0)"  stroke-width="2.0"/>
<line x1="101.7" y1="117.9" x2="96.0" y2="137.0" stroke="rgb(0,0,0)"  stroke-width="2.0"/>
<line x1="117.9" y1="109.1" x2="124.5" y2="111.1" stroke="rgb(0,0,0)"  stroke-width="2.0"/>
<line x1="193.0" y1="60.8" x2="193.7" y2="97.5" stroke="rgb(0,0,0)"  stroke-width="2.0"/>
<line x1="187.0" y1="60.9" x2="187.7" y2="97.6" stroke="rgb(0,0,0)"  stroke-width="2.0"/>
<line x1="234.2" y1="171.3" x2="277.2" y2="196.1" stroke="rgb(0,0,0)"  stroke-width="2.0"/>
<line x1="277.2" y1="196.1" x2="276.7" y2="228.6" stroke="rgb(0,0,0)"  stroke-width="2.0"/>
<line x1="275.7" y1="345.3" x2="257.4" y2="355.8" stroke="rgb(0,0,0)"  stroke-width="2.0"/>
<line x1="318.9" y1="370.1" x2="319.0" y2="391.1" stroke="rgb(0,0,0)"  stroke-width="2.0"/>
<line x1="104.0" y1="346.0" x2="84.4" y2="335.4" stroke="rgb(0,0,0)"  stroke-width="2.0"/>
<line x1="104.0" y1="346.0" x2="104.6" y2="368.3" stroke="rgb(0,0,0)"  stroke-width="2.0"/>
<line x1="104.0" y1="346.0" x2="85.0" y2="357.6" stroke="rgb(0,0,0)"  stroke-width="2.0"/>
<line x1="147.3" y1="319.4" x2="165.5" y2="329.9" stroke="rgb(0,0,0)"  stroke-width="2.0"/>
<line x1="148.3" y1="271.0" x2="130.2" y2="260.4" stroke="rgb(0,0,0)"  stroke-width="2.0"/>
<line x1="191.3" y1="197.3" x2="172.0" y2="208.5" stroke="rgb(0,0,0)"  stroke-width="2.0"/>
<line x1="190.7" y1="246.2" x2="209.9" y2="257.4" stroke="rgb(0,0,0)"  stroke-width="2.0"/>
<line x1="190.7" y1="246.2" x2="210.0" y2="235.2" stroke="rgb(0,0,0)"  stroke-width="2.0"/>
<line x1="147.5" y1="172.8" x2="128.0" y2="183.6" stroke="rgb(0,0,0)"  stroke-width="2.0"/>
<line x1="147.5" y1="172.8" x2="128.5" y2="161.1" stroke="rgb(0,0,0)"  stroke-width="2.0"/>
<line x1="149.6" y1="123.3" x2="129.8" y2="133.3" stroke="rgb(0,0,0)"  stroke-width="2.0"/>
<line x1="114.8" y1="73.8" x2="136.5" y2="68.6" stroke="rgb(0,0,0)"  stroke-width="2.0"/>
<line x1="114.8" y1="73.8" x2="99.5" y2="57.6" stroke="rgb(0,0,0)"  stroke-width="2.0"/>
<line x1="114.8" y1="73.8" x2="121.2" y2="52.5" stroke="rgb(0,0,0)"  stroke-width="2.0"/>
<line x1="73.8" y1="96.0" x2="68.6" y2="74.3" stroke="rgb(0,0,0)"  stroke-width="2.0"/>
<line x1="73.8" y1="96.0" x2="57.6" y2="111.3" stroke="rgb(0,0,0)"  stroke-width="2.0"/>
<line x1="73.8" y1="96.0" x2="52.5" y2="89.6" stroke="rgb(0,0,0)"  stroke-width="2.0"/>
<line x1="96.0" y1="137.0" x2="74.3" y2="142.2" stroke="rgb(0,0,0)"  stroke-width="2.0"/>
<line x1="96.0" y1="137.0" x2="111.3" y2="153.2" stroke="rgb(0,0,0)"  stroke-width="2.0"/>
<line x1="96.0" y1="137.0" x2="89.6" y2="158.4" stroke="rgb(0,0,0)"  stroke-width="2.0"/>
<line x1="233.9" y1="122.3" x2="253.2" y2="111.1" stroke="rgb(0,0,0)"  stroke-width="2.0"/>
<line x1="233.9" y1="122.3" x2="253.3" y2="133.3" stroke="rgb(0,0,0)"  stroke-width="2.0"/>
<polygon points="234.154317 171.332793 238.437866 194.919686 230.438443 195.015753 " stroke-width="2.000000" fill="rgb(0,0,0)"  stroke="rgb(0,0,0)" />
<line x1="277.2" y1="196.1" x2="296.6" y2="185.0" stroke="rgb(0,0,0)"  stroke-width="2.0"/>
<line x1="277.2" y1="196.1" x2="296.4" y2="207.4" stroke="rgb(0,0,0)"  stroke-width="2.0"/>
<line x1="191.3" y1="197.3" x2="147.5" y2="172.8" stroke="rgb(0,0,0)"  stroke-width="2.0"/>
<line x1="147.5" y1="172.8" x2="149.6" y2="123.3" stroke="rgb(0,0,0)"  stroke-width="2.0"/>
<line x1="149.6" y1="123.3" x2="190.7" y2="97.6" stroke="rgb(0,0,0)"  stroke-width="2.0"/>
<line x1="190.7" y1="97.6" x2="233.9" y2="122.3" stroke="rgb(0,0,0)"  stroke-width="2.0"/>
<line x1="233.9" y1="122.3" x2="234.2" y2="171.3" stroke="rgb(0,0,0)"  stroke-width="2.0"/>
<line x1="234.2" y1="171.3" x2="191.3" y2="197.3" stroke="rgb(0,0,0)"  stroke-width="2.0"/>
<text x="409.855353" y="321.066855" fill="rgb(17,127,178)"  stroke="rgb(17,127,178)" stroke-width="1" font-size="16" >Xx</text>
<text x="99.407378" y="113.404759" fill="rgb(127,153,153)"  stroke="rgb(127,153,153)" stroke-width="1" font-size="16" >Si</text>
<text x="131.003115" y="122.821166" fill="rgb(17,127,178)"  stroke="rgb(17,127,178)" stroke-width="1" font-size="16" >Xx</text>
<text x="183.726419" y="55.821587" fill="rgb(255,12,12)"  stroke="rgb(255,12,12)" stroke-width="1" font-size="16" >O</text>
<text x="240.147317" y="370.249712" fill="rgb(191,191,191)"  stroke="rgb(191,191,191)" stroke-width="1" font-size="16" >H</text>
<text x="313.126292" y="412.098116" fill="rgb(191,191,191)"  stroke="rgb(191,191,191)" stroke-width="1" font-size="16" >H</text>
<text x="66.982289" y="337.168423" fill="rgb(191,191,191)"  stroke="rgb(191,191,191)" stroke-width="1" font-size="16" >H</text>
<text x="98.921419" y="389.260850" fill="rgb(191,191,191)"  stroke="rgb(191,191,191)" stroke-width="1" font-size="16" >H</text>
<text x="67.914065" y="372.434669" fill="rgb(191,191,191)"  stroke="rgb(191,191,191)" stroke-width="1" font-size="16" >H</text>
<text x="170.814947" y="344.369472" fill="rgb(191,191,191)"  stroke="rgb(191,191,191)" stroke-width="1" font-size="16" >H</text>
<text x="112.966847" y="261.766162" fill="rgb(191,191,191)"  stroke="rgb(191,191,191)" stroke-width="1" font-size="16" >H</text>
<text x="154.756616" y="222.964750" fill="rgb(191,191,191)"  stroke="rgb(191,191,191)" stroke-width="1" font-size="16" >H</text>
<text x="215.149435" y="271.971137" fill="rgb(191,191,191)"  stroke="rgb(191,191,191)" stroke-width="1" font-size="16" >H</text>
<text x="215.362409" y="236.837647" fill="rgb(191,191,191)"  stroke="rgb(191,191,191)" stroke-width="1" font-size="16" >H</text>
<text x="110.660491" y="197.974238" fill="rgb(191,191,191)"  stroke="rgb(191,191,191)" stroke-width="1" font-size="16" >H</text>
<text x="111.452649" y="162.269412" fill="rgb(191,191,191)"  stroke="rgb(191,191,191)" stroke-width="1" font-size="16" >H</text>
<text x="112.157317" y="147.212055" fill="rgb(191,191,191)"  stroke="rgb(191,191,191)" stroke-width="1" font-size="16" >H</text>
<text x="143.141271" y="73.630607" fill="rgb(191,191,191)"  stroke="rgb(191,191,191)" stroke-width="1" font-size="16" >H</text>
<text x="84.582326" y="56.178416" fill="rgb(191,191,191)"  stroke="rgb(191,191,191)" stroke-width="1" font-size="16" >H</text>
<text x="118.899812" y="48.000000" fill="rgb(191,191,191)"  stroke="rgb(191,191,191)" stroke-width="1" font-size="16" >H</text>
<text x="59.632238" y="69.667019" fill="rgb(191,191,191)"  stroke="rgb(191,191,191)" stroke-width="1" font-size="16" >H</text>
<text x="42.176107" y="128.224791" fill="rgb(191,191,191)"  stroke="rgb(191,191,191)" stroke-width="1" font-size="16" >H</text>
<text x="34.000000" y="93.906754" fill="rgb(191,191,191)"  stroke="rgb(191,191,191)" stroke-width="1" font-size="16" >H</text>
<text x="55.669405" y="153.175623" fill="rgb(191,191,191)"  stroke="rgb(191,191,191)" stroke-width="1" font-size="16" >H</text>
<text x="114.226677" y="170.633426" fill="rgb(191,191,191)"  stroke="rgb(191,191,191)" stroke-width="1" font-size="16" >H</text>
<text x="79.908408" y="178.808553" fill="rgb(191,191,191)"  stroke="rgb(191,191,191)" stroke-width="1" font-size="16" >H</text>
<text x="258.406303" y="112.519794" fill="rgb(191,191,191)"  stroke="rgb(191,191,191)" stroke-width="1" font-size="16" >H</text>
<text x="258.564424" y="147.797533" fill="rgb(191,191,191)"  stroke="rgb(191,191,191)" stroke-width="1" font-size="16" >H</text>
<text x="228.577955" y="214.608803" fill="rgb(191,191,191)"  stroke="rgb(191,191,191)" stroke-width="1" font-size="16" >H</text>
<text x="301.890903" y="186.624598" fill="rgb(191,191,191)"  stroke="rgb(191,191,191)" stroke-width="1" font-size="16" >H</text>
<text x="301.570799" y="222.041820" fill="rgb(191,191,191)"  stroke="rgb(191,191,191)" stroke-width="1" font-size="16" >H</text>
</svg>
</g>
<text font-size="18.000000" fill ="black" font-family="sans-serif"
x="10.000000" y="20.000000" ></text>
</svg>
