<?xml version="1.0"?>
<svg version="1.1" id="topsvg"
xmlns="http://www.w3.org/2000/svg" xmlns:xlink="http://www.w3.org/1999/xlink"
xmlns:cml="http://www.xml-cml.org/schema" x="0" y="0" width="200px" height="200px" viewBox="0 0 100 100">
<title> - Open Babel Depiction</title>
<rect x="0" y="0" width="100" height="100" fill="white"/>
<g transform="translate(0,0)">
<svg width="100" height="100" x="0" y="0" viewBox="0 0 432.753 389.758"
font-family="sans-serif" stroke="rgb(0,0,0)" stroke-width="2"  stroke-linecap="round">
<line x1="180.8" y1="189.8" x2="180.2" y2="239.7" stroke="rgb(0,0,0)"  stroke-width="2.0"/>
<polygon points="180.767281 189.819640 221.827140 162.616731 225.689357 169.622677 " stroke-width="2.000000" fill="rgb(0,0,0)"  stroke="rgb(0,0,0)" />
<line x1="180.2" y1="239.7" x2="207.6" y2="257.3" stroke="rgb(0,0,0)"  stroke-width="2.0"/>
<line x1="109.5" y1="93.3" x2="115.4" y2="74.0" stroke="rgb(0,0,0)"  stroke-width="2.0"/>
<line x1="93.3" y1="101.9" x2="74.0" y2="96.0" stroke="rgb(0,0,0)"  stroke-width="2.0"/>
<line x1="101.9" y1="118.1" x2="96.0" y2="137.4" stroke="rgb(0,0,0)"  stroke-width="2.0"/>
<line x1="118.1" y1="109.5" x2="137.4" y2="115.4" stroke="rgb(0,0,0)"  stroke-width="2.0"/>
<line x1="184.2" y1="54.3" x2="188.4" y2="91.2" stroke="rgb(0,0,0)"  stroke-width="2.0"/>
<line x1="178.2" y1="55.0" x2="182.4" y2="91.9" stroke="rgb(0,0,0)"  stroke-width="2.0"/>
<line x1="223.8" y1="166.1" x2="266.2" y2="191.0" stroke="rgb(0,0,0)"  stroke-width="2.0"/>
<line x1="361.9" y1="316.5" x2="385.2" y2="283.7" stroke="rgb(0,0,0)"  stroke-width="2.0"/>
<line x1="310.0" y1="313.7" x2="361.9" y2="313.5" stroke="rgb(0,0,0)"  stroke-width="2.0"/>
<line x1="310.0" y1="319.7" x2="361.9" y2="319.5" stroke="rgb(0,0,0)"  stroke-width="2.0"/>
<line x1="267.3" y1="291.9" x2="207.6" y2="257.3" stroke="rgb(0,0,0)"  stroke-width="2.0"/>
<line x1="265.2" y1="295.6" x2="205.5" y2="260.9" stroke="rgb(0,0,0)"  stroke-width="2.0"/>
<line x1="269.5" y1="288.3" x2="209.7" y2="253.7" stroke="rgb(0,0,0)"  stroke-width="2.0"/>
<line x1="267.3" y1="291.9" x2="310.0" y2="316.7" stroke="rgb(0,0,0)"  stroke-width="2.0"/>
<line x1="265.7" y1="180.8" x2="266.2" y2="191.0" stroke="rgb(0,0,0)"  stroke-width="2.0"/>
<line x1="269.9" y1="180.6" x2="270.4" y2="190.8" stroke="rgb(0,0,0)"  stroke-width="2.0"/>
<line x1="261.5" y1="181.1" x2="262.0" y2="191.2" stroke="rgb(0,0,0)"  stroke-width="2.0"/>
<line x1="265.4" y1="188.1" x2="311.0" y2="174.7" stroke="rgb(0,0,0)"  stroke-width="2.0"/>
<line x1="267.1" y1="193.9" x2="312.7" y2="180.4" stroke="rgb(0,0,0)"  stroke-width="2.0"/>
<line x1="246.3" y1="186.1" x2="266.2" y2="191.0" stroke="rgb(0,0,0)"  stroke-width="2.0"/>
<line x1="180.8" y1="189.8" x2="200.1" y2="201.4" stroke="rgb(0,0,0)"  stroke-width="2.0"/>
<line x1="180.2" y1="239.7" x2="160.4" y2="250.3" stroke="rgb(0,0,0)"  stroke-width="2.0"/>
<line x1="180.2" y1="239.7" x2="179.3" y2="262.1" stroke="rgb(0,0,0)"  stroke-width="2.0"/>
<line x1="137.4" y1="115.4" x2="119.4" y2="128.8" stroke="rgb(0,0,0)"  stroke-width="2.0"/>
<line x1="137.7" y1="165.5" x2="118.3" y2="176.9" stroke="rgb(0,0,0)"  stroke-width="2.0"/>
<line x1="137.7" y1="165.5" x2="137.9" y2="188.0" stroke="rgb(0,0,0)"  stroke-width="2.0"/>
<line x1="115.4" y1="74.0" x2="137.3" y2="68.9" stroke="rgb(0,0,0)"  stroke-width="2.0"/>
<line x1="115.4" y1="74.0" x2="100.0" y2="57.5" stroke="rgb(0,0,0)"  stroke-width="2.0"/>
<line x1="115.4" y1="74.0" x2="121.9" y2="52.4" stroke="rgb(0,0,0)"  stroke-width="2.0"/>
<line x1="74.0" y1="96.0" x2="68.9" y2="74.1" stroke="rgb(0,0,0)"  stroke-width="2.0"/>
<line x1="74.0" y1="96.0" x2="57.5" y2="111.4" stroke="rgb(0,0,0)"  stroke-width="2.0"/>
<line x1="74.0" y1="96.0" x2="52.4" y2="89.5" stroke="rgb(0,0,0)"  stroke-width="2.0"/>
<line x1="96.0" y1="137.4" x2="74.1" y2="142.5" stroke="rgb(0,0,0)"  stroke-width="2.0"/>
<line x1="96.0" y1="137.4" x2="111.4" y2="153.9" stroke="rgb(0,0,0)"  stroke-width="2.0"/>
<line x1="96.0" y1="137.4" x2="89.5" y2="158.9" stroke="rgb(0,0,0)"  stroke-width="2.0"/>
<line x1="223.6" y1="116.0" x2="243.3" y2="105.1" stroke="rgb(0,0,0)"  stroke-width="2.0"/>
<line x1="223.6" y1="116.0" x2="243.0" y2="127.4" stroke="rgb(0,0,0)"  stroke-width="2.0"/>
<polygon points="223.758248 166.119704 227.445879 189.953009 219.446568 189.848051 " stroke-width="2.000000" fill="rgb(0,0,0)"  stroke="rgb(0,0,0)" />
<line x1="361.9" y1="316.5" x2="371.7" y2="335.4" stroke="rgb(0,0,0)"  stroke-width="2.0"/>
<line x1="310.0" y1="316.7" x2="304.5" y2="337.2" stroke="rgb(0,0,0)"  stroke-width="2.0"/>
<line x1="137.4" y1="115.4" x2="137.7" y2="165.5" stroke="rgb(0,0,0)"  stroke-width="2.0"/>
<line x1="137.7" y1="165.5" x2="180.8" y2="189.8" stroke="rgb(0,0,0)"  stroke-width="2.0"/>
<line x1="180.8" y1="189.8" x2="223.8" y2="166.1" stroke="rgb(0,0,0)"  stroke-width="2.0"/>
<line x1="223.8" y1="166.1" x2="223.6" y2="116.0" stroke="rgb(0,0,0)"  stroke-width="2.0"/>
<line x1="223.6" y1="116.0" x2="185.4" y2="91.6" stroke="rgb(0,0,0)"  stroke-width="2.0"/>
<line x1="185.4" y1="91.6" x2="137.4" y2="115.4" stroke="rgb(0,0,0)"  stroke-width="2.0"/>
<text x="99.686521" y="113.685531" fill="rgb(127,153,153)"  stroke="rgb(127,153,153)" stroke-width="1" font-size="16" >Si</text>
<text x="173.702376" y="49.734849" fill="rgb(255,12,12)"  stroke="rgb(255,12,12)" stroke-width="1" font-size="16" >O</text>
<text x="386.752991" y="281.154242" fill="rgb(30,239,30)"  stroke="rgb(30,239,30)" stroke-width="1" font-size="16" >Cl</text>
<text x="260.380978" y="201.810545" fill="rgb(17,127,178)"  stroke="rgb(17,127,178)" stroke-width="1" font-size="16" >Xx</text>
<text x="318.290564" y="181.856021" fill="rgb(178,178,0)"  stroke="rgb(178,178,0)" stroke-width="1" font-size="16" >S</text>
<text x="215.713947" y="190.995624" fill="rgb(17,127,178)"  stroke="rgb(17,127,178)" stroke-width="1" font-size="16" >Xx</text>
<text x="205.223376" y="216.052875" fill="rgb(191,191,191)"  stroke="rgb(191,191,191)" stroke-width="1" font-size="16" >H</text>
<text x="142.923120" y="264.500189" fill="rgb(191,191,191)"  stroke="rgb(191,191,191)" stroke-width="1" font-size="16" >H</text>
<text x="172.817469" y="283.135396" fill="rgb(191,191,191)"  stroke="rgb(191,191,191)" stroke-width="1" font-size="16" >H</text>
<text x="102.952373" y="144.561654" fill="rgb(191,191,191)"  stroke="rgb(191,191,191)" stroke-width="1" font-size="16" >H</text>
<text x="101.085962" y="191.502953" fill="rgb(191,191,191)"  stroke="rgb(191,191,191)" stroke-width="1" font-size="16" >H</text>
<text x="132.003430" y="209.014685" fill="rgb(191,191,191)"  stroke="rgb(191,191,191)" stroke-width="1" font-size="16" >H</text>
<text x="143.940918" y="73.941478" fill="rgb(191,191,191)"  stroke="rgb(191,191,191)" stroke-width="1" font-size="16" >H</text>
<text x="85.130825" y="56.012546" fill="rgb(191,191,191)"  stroke="rgb(191,191,191)" stroke-width="1" font-size="16" >H</text>
<text x="119.711508" y="48.000000" fill="rgb(191,191,191)"  stroke="rgb(191,191,191)" stroke-width="1" font-size="16" >H</text>
<text x="59.939160" y="69.435217" fill="rgb(191,191,191)"  stroke="rgb(191,191,191)" stroke-width="1" font-size="16" >H</text>
<text x="42.015854" y="128.247025" fill="rgb(191,191,191)"  stroke="rgb(191,191,191)" stroke-width="1" font-size="16" >H</text>
<text x="34.000000" y="93.667108" fill="rgb(191,191,191)"  stroke="rgb(191,191,191)" stroke-width="1" font-size="16" >H</text>
<text x="55.436441" y="153.437217" fill="rgb(191,191,191)"  stroke="rgb(191,191,191)" stroke-width="1" font-size="16" >H</text>
<text x="114.248772" y="171.358809" fill="rgb(191,191,191)"  stroke="rgb(191,191,191)" stroke-width="1" font-size="16" >H</text>
<text x="79.669088" y="179.375670" fill="rgb(191,191,191)"  stroke="rgb(191,191,191)" stroke-width="1" font-size="16" >H</text>
<text x="248.690489" y="106.866466" fill="rgb(191,191,191)"  stroke="rgb(191,191,191)" stroke-width="1" font-size="16" >H</text>
<text x="248.171096" y="141.985223" fill="rgb(191,191,191)"  stroke="rgb(191,191,191)" stroke-width="1" font-size="16" >H</text>
<text x="217.292540" y="209.613474" fill="rgb(191,191,191)"  stroke="rgb(191,191,191)" stroke-width="1" font-size="16" >H</text>
<text x="371.644474" y="354.908251" fill="rgb(191,191,191)"  stroke="rgb(191,191,191)" stroke-width="1" font-size="16" >H</text>
<text x="295.186883" y="357.758245" fill="rgb(191,191,191)"  stroke="rgb(191,191,191)" stroke-width="1" font-size="16" >H</text>
</svg>
</g>
<text font-size="18.000000" fill ="black" font-family="sans-serif"
x="10.000000" y="20.000000" ></text>
</svg>
