<?xml version="1.0"?>
<svg version="1.1" id="topsvg"
xmlns="http://www.w3.org/2000/svg" xmlns:xlink="http://www.w3.org/1999/xlink"
xmlns:cml="http://www.xml-cml.org/schema" x="0" y="0" width="200px" height="200px" viewBox="0 0 100 100">
<title> - Open Babel Depiction</title>
<rect x="0" y="0" width="100" height="100" fill="white"/>
<g transform="translate(0,0)">
<svg width="100" height="100" x="0" y="0" viewBox="0 0 336.148 416.18"
font-family="sans-serif" stroke="rgb(0,0,0)" stroke-width="2"  stroke-linecap="round">
<line x1="92.2" y1="340.4" x2="136.2" y2="314.7" stroke="rgb(0,0,0)"  stroke-width="2.0"/>
<line x1="92.2" y1="340.4" x2="72.4" y2="329.2" stroke="rgb(0,0,0)"  stroke-width="2.0"/>
<line x1="92.2" y1="340.4" x2="92.3" y2="363.2" stroke="rgb(0,0,0)"  stroke-width="2.0"/>
<line x1="92.2" y1="340.4" x2="72.6" y2="351.9" stroke="rgb(0,0,0)"  stroke-width="2.0"/>
<line x1="133.2" y1="314.7" x2="134.1" y2="266.2" stroke="rgb(0,0,0)"  stroke-width="2.0"/>
<line x1="139.2" y1="314.8" x2="140.1" y2="266.4" stroke="rgb(0,0,0)"  stroke-width="2.0"/>
<line x1="136.2" y1="314.7" x2="154.7" y2="325.6" stroke="rgb(0,0,0)"  stroke-width="2.0"/>
<line x1="137.1" y1="266.3" x2="179.3" y2="241.3" stroke="rgb(0,0,0)"  stroke-width="2.0"/>
<line x1="137.1" y1="266.3" x2="118.5" y2="255.5" stroke="rgb(0,0,0)"  stroke-width="2.0"/>
<line x1="179.5" y1="192.1" x2="179.3" y2="241.3" stroke="rgb(0,0,0)"  stroke-width="2.0"/>
<line x1="187.7" y1="186.5" x2="188.5" y2="187.9" stroke="rgb(0,0,0)"  stroke-width="1.0"/>
<line x1="194.2" y1="182.0" x2="195.6" y2="184.5" stroke="rgb(0,0,0)"  stroke-width="1.0"/>
<line x1="200.7" y1="177.4" x2="202.8" y2="181.0" stroke="rgb(0,0,0)"  stroke-width="1.0"/>
<line x1="207.2" y1="172.9" x2="209.9" y2="177.6" stroke="rgb(0,0,0)"  stroke-width="1.0"/>
<line x1="213.7" y1="168.4" x2="217.1" y2="174.2" stroke="rgb(0,0,0)"  stroke-width="1.0"/>
<line x1="220.2" y1="163.9" x2="224.2" y2="170.8" stroke="rgb(0,0,0)"  stroke-width="1.0"/>
<line x1="179.5" y1="192.1" x2="159.9" y2="203.6" stroke="rgb(0,0,0)"  stroke-width="2.0"/>
<line x1="179.3" y1="241.3" x2="199.0" y2="252.6" stroke="rgb(0,0,0)"  stroke-width="2.0"/>
<line x1="179.3" y1="241.3" x2="199.0" y2="229.9" stroke="rgb(0,0,0)"  stroke-width="2.0"/>
<line x1="136.2" y1="167.7" x2="117.6" y2="178.4" stroke="rgb(0,0,0)"  stroke-width="2.0"/>
<line x1="136.8" y1="116.3" x2="117.5" y2="109.6" stroke="rgb(0,0,0)"  stroke-width="2.0"/>
<line x1="109.6" y1="93.0" x2="116.3" y2="73.7" stroke="rgb(0,0,0)"  stroke-width="2.0"/>
<line x1="93.0" y1="101.0" x2="73.7" y2="94.3" stroke="rgb(0,0,0)"  stroke-width="2.0"/>
<line x1="101.0" y1="117.5" x2="94.3" y2="136.8" stroke="rgb(0,0,0)"  stroke-width="2.0"/>
<line x1="116.3" y1="73.7" x2="138.6" y2="69.5" stroke="rgb(0,0,0)"  stroke-width="2.0"/>
<line x1="116.3" y1="73.7" x2="101.4" y2="56.5" stroke="rgb(0,0,0)"  stroke-width="2.0"/>
<line x1="116.3" y1="73.7" x2="123.8" y2="52.3" stroke="rgb(0,0,0)"  stroke-width="2.0"/>
<line x1="73.7" y1="94.3" x2="69.5" y2="71.9" stroke="rgb(0,0,0)"  stroke-width="2.0"/>
<line x1="73.7" y1="94.3" x2="56.5" y2="109.1" stroke="rgb(0,0,0)"  stroke-width="2.0"/>
<line x1="73.7" y1="94.3" x2="52.3" y2="86.8" stroke="rgb(0,0,0)"  stroke-width="2.0"/>
<line x1="94.3" y1="136.8" x2="71.9" y2="141.0" stroke="rgb(0,0,0)"  stroke-width="2.0"/>
<line x1="94.3" y1="136.8" x2="109.1" y2="154.0" stroke="rgb(0,0,0)"  stroke-width="2.0"/>
<line x1="94.3" y1="136.8" x2="86.8" y2="158.3" stroke="rgb(0,0,0)"  stroke-width="2.0"/>
<line x1="182.0" y1="56.9" x2="182.3" y2="92.9" stroke="rgb(0,0,0)"  stroke-width="2.0"/>
<line x1="176.0" y1="57.0" x2="176.3" y2="93.0" stroke="rgb(0,0,0)"  stroke-width="2.0"/>
<line x1="222.4" y1="116.8" x2="242.0" y2="105.3" stroke="rgb(0,0,0)"  stroke-width="2.0"/>
<line x1="222.4" y1="116.8" x2="242.1" y2="128.2" stroke="rgb(0,0,0)"  stroke-width="2.0"/>
<line x1="222.2" y1="167.3" x2="265.2" y2="191.6" stroke="rgb(0,0,0)"  stroke-width="2.0"/>
<polygon points="222.240192 167.335692 226.376620 191.255125 218.376750 191.300731 " stroke-width="2.000000" fill="rgb(0,0,0)"  stroke="rgb(0,0,0)" />
<line x1="264.1" y1="292.0" x2="264.7" y2="240.3" stroke="rgb(0,0,0)"  stroke-width="2.0"/>
<line x1="259.9" y1="292.0" x2="260.5" y2="240.2" stroke="rgb(0,0,0)"  stroke-width="2.0"/>
<line x1="268.3" y1="292.0" x2="268.9" y2="240.3" stroke="rgb(0,0,0)"  stroke-width="2.0"/>
<line x1="264.1" y1="292.0" x2="263.9" y2="312.2" stroke="rgb(0,0,0)"  stroke-width="2.0"/>
<line x1="265.2" y1="191.6" x2="264.7" y2="240.3" stroke="rgb(0,0,0)"  stroke-width="2.0"/>
<line x1="265.2" y1="191.6" x2="284.9" y2="180.3" stroke="rgb(0,0,0)"  stroke-width="2.0"/>
<line x1="265.2" y1="191.6" x2="284.8" y2="203.1" stroke="rgb(0,0,0)"  stroke-width="2.0"/>
<line x1="136.2" y1="167.7" x2="179.5" y2="192.1" stroke="rgb(0,0,0)"  stroke-width="2.0"/>
<line x1="179.5" y1="192.1" x2="222.2" y2="167.3" stroke="rgb(0,0,0)"  stroke-width="2.0"/>
<line x1="222.2" y1="167.3" x2="222.4" y2="116.8" stroke="rgb(0,0,0)"  stroke-width="2.0"/>
<line x1="222.4" y1="116.8" x2="179.3" y2="92.9" stroke="rgb(0,0,0)"  stroke-width="2.0"/>
<line x1="179.3" y1="92.9" x2="136.8" y2="116.3" stroke="rgb(0,0,0)"  stroke-width="2.0"/>
<line x1="136.8" y1="116.3" x2="136.2" y2="167.7" stroke="rgb(0,0,0)"  stroke-width="2.0"/>
<line x1="143.9" y1="122.4" x2="143.4" y2="161.8" stroke="rgb(0,0,0)"  stroke-width="2.0"/>
<text x="99.267557" y="113.264218" fill="rgb(127,153,153)"  stroke="rgb(127,153,153)" stroke-width="1" font-size="16" >Si</text>
<text x="172.937774" y="51.950853" fill="rgb(255,12,12)"  stroke="rgb(255,12,12)" stroke-width="1" font-size="16" >O</text>
<text x="55.146916" y="330.744816" fill="rgb(191,191,191)"  stroke="rgb(191,191,191)" stroke-width="1" font-size="16" >H</text>
<text x="86.383034" y="384.179853" fill="rgb(191,191,191)"  stroke="rgb(191,191,191)" stroke-width="1" font-size="16" >H</text>
<text x="55.340618" y="366.479497" fill="rgb(191,191,191)"  stroke="rgb(191,191,191)" stroke-width="1" font-size="16" >H</text>
<text x="159.886267" y="340.179440" fill="rgb(191,191,191)"  stroke="rgb(191,191,191)" stroke-width="1" font-size="16" >H</text>
<text x="101.311448" y="256.961050" fill="rgb(191,191,191)"  stroke="rgb(191,191,191)" stroke-width="1" font-size="16" >H</text>
<text x="142.616731" y="218.087061" fill="rgb(191,191,191)"  stroke="rgb(191,191,191)" stroke-width="1" font-size="16" >H</text>
<text x="204.277423" y="267.010177" fill="rgb(191,191,191)"  stroke="rgb(191,191,191)" stroke-width="1" font-size="16" >H</text>
<text x="204.227328" y="231.409083" fill="rgb(191,191,191)"  stroke="rgb(191,191,191)" stroke-width="1" font-size="16" >H</text>
<text x="100.312880" y="192.919159" fill="rgb(191,191,191)"  stroke="rgb(191,191,191)" stroke-width="1" font-size="16" >H</text>
<text x="145.385334" y="75.074865" fill="rgb(191,191,191)"  stroke="rgb(191,191,191)" stroke-width="1" font-size="16" >H</text>
<text x="86.954121" y="54.666021" fill="rgb(191,191,191)"  stroke="rgb(191,191,191)" stroke-width="1" font-size="16" >H</text>
<text x="122.060940" y="48.000000" fill="rgb(191,191,191)"  stroke="rgb(191,191,191)" stroke-width="1" font-size="16" >H</text>
<text x="61.071525" y="67.146442" fill="rgb(191,191,191)"  stroke="rgb(191,191,191)" stroke-width="1" font-size="16" >H</text>
<text x="40.666021" y="125.577654" fill="rgb(191,191,191)"  stroke="rgb(191,191,191)" stroke-width="1" font-size="16" >H</text>
<text x="34.000000" y="90.470835" fill="rgb(191,191,191)"  stroke="rgb(191,191,191)" stroke-width="1" font-size="16" >H</text>
<text x="53.146442" y="151.456910" fill="rgb(191,191,191)"  stroke="rgb(191,191,191)" stroke-width="1" font-size="16" >H</text>
<text x="111.577654" y="171.869094" fill="rgb(191,191,191)"  stroke="rgb(191,191,191)" stroke-width="1" font-size="16" >H</text>
<text x="76.467495" y="178.528435" fill="rgb(191,191,191)"  stroke="rgb(191,191,191)" stroke-width="1" font-size="16" >H</text>
<text x="247.252551" y="106.768521" fill="rgb(191,191,191)"  stroke="rgb(191,191,191)" stroke-width="1" font-size="16" >H</text>
<text x="247.396158" y="142.660167" fill="rgb(191,191,191)"  stroke="rgb(191,191,191)" stroke-width="1" font-size="16" >H</text>
<text x="216.443913" y="211.070373" fill="rgb(191,191,191)"  stroke="rgb(191,191,191)" stroke-width="1" font-size="16" >H</text>
<text x="257.792612" y="333.192809" fill="rgb(191,191,191)"  stroke="rgb(191,191,191)" stroke-width="1" font-size="16" >H</text>
<text x="290.147527" y="181.784633" fill="rgb(191,191,191)"  stroke="rgb(191,191,191)" stroke-width="1" font-size="16" >H</text>
<text x="290.023958" y="217.669600" fill="rgb(191,191,191)"  stroke="rgb(191,191,191)" stroke-width="1" font-size="16" >H</text>
</svg>
</g>
<text font-size="18.000000" fill ="black" font-family="sans-serif"
x="10.000000" y="20.000000" ></text>
</svg>
