<?xml version="1.0"?>
<svg version="1.1" id="topsvg"
xmlns="http://www.w3.org/2000/svg" xmlns:xlink="http://www.w3.org/1999/xlink"
xmlns:cml="http://www.xml-cml.org/schema" x="0" y="0" width="200px" height="200px" viewBox="0 0 100 100">
<title> - Open Babel Depiction</title>
<rect x="0" y="0" width="100" height="100" fill="white"/>
<g transform="translate(0,0)">
<svg width="100" height="100" x="0" y="0" viewBox="0 0 335.704 348.267"
font-family="sans-serif" stroke="rgb(0,0,0)" stroke-width="2"  stroke-linecap="round">
<line x1="179.3" y1="240.6" x2="178.4" y2="190.8" stroke="rgb(0,0,0)"  stroke-width="2.0"/>
<line x1="179.3" y1="240.6" x2="219.7" y2="264.5" stroke="rgb(0,0,0)"  stroke-width="2.0"/>
<line x1="109.0" y1="92.2" x2="116.2" y2="73.3" stroke="rgb(0,0,0)"  stroke-width="2.0"/>
<line x1="92.2" y1="99.7" x2="73.2" y2="92.5" stroke="rgb(0,0,0)"  stroke-width="2.0"/>
<line x1="99.7" y1="116.5" x2="92.5" y2="135.4" stroke="rgb(0,0,0)"  stroke-width="2.0"/>
<line x1="116.5" y1="109.0" x2="135.4" y2="116.2" stroke="rgb(0,0,0)"  stroke-width="2.0"/>
<line x1="181.2" y1="53.5" x2="182.1" y2="91.9" stroke="rgb(0,0,0)"  stroke-width="2.0"/>
<line x1="175.2" y1="53.7" x2="176.1" y2="92.0" stroke="rgb(0,0,0)"  stroke-width="2.0"/>
<line x1="222.4" y1="165.0" x2="265.6" y2="190.2" stroke="rgb(0,0,0)"  stroke-width="2.0"/>
<line x1="268.6" y1="190.2" x2="268.9" y2="243.1" stroke="rgb(0,0,0)"  stroke-width="2.0"/>
<line x1="262.6" y1="190.2" x2="262.9" y2="243.1" stroke="rgb(0,0,0)"  stroke-width="2.0"/>
<line x1="219.7" y1="264.5" x2="265.4" y2="291.5" stroke="rgb(0,0,0)"  stroke-width="2.0"/>
<line x1="221.8" y1="260.8" x2="267.5" y2="287.8" stroke="rgb(0,0,0)"  stroke-width="2.0"/>
<line x1="217.6" y1="268.1" x2="263.3" y2="295.1" stroke="rgb(0,0,0)"  stroke-width="2.0"/>
<line x1="179.3" y1="240.6" x2="159.8" y2="252.0" stroke="rgb(0,0,0)"  stroke-width="2.0"/>
<line x1="179.3" y1="240.6" x2="179.2" y2="263.2" stroke="rgb(0,0,0)"  stroke-width="2.0"/>
<line x1="178.4" y1="190.8" x2="198.1" y2="201.8" stroke="rgb(0,0,0)"  stroke-width="2.0"/>
<line x1="135.4" y1="166.5" x2="117.0" y2="177.2" stroke="rgb(0,0,0)"  stroke-width="2.0"/>
<line x1="116.2" y1="73.3" x2="138.5" y2="69.7" stroke="rgb(0,0,0)"  stroke-width="2.0"/>
<line x1="116.2" y1="73.3" x2="101.9" y2="55.7" stroke="rgb(0,0,0)"  stroke-width="2.0"/>
<line x1="116.2" y1="73.3" x2="124.2" y2="52.1" stroke="rgb(0,0,0)"  stroke-width="2.0"/>
<line x1="73.2" y1="92.5" x2="69.7" y2="70.2" stroke="rgb(0,0,0)"  stroke-width="2.0"/>
<line x1="73.2" y1="92.5" x2="55.7" y2="106.7" stroke="rgb(0,0,0)"  stroke-width="2.0"/>
<line x1="73.2" y1="92.5" x2="52.1" y2="84.4" stroke="rgb(0,0,0)"  stroke-width="2.0"/>
<line x1="92.5" y1="135.4" x2="70.2" y2="139.0" stroke="rgb(0,0,0)"  stroke-width="2.0"/>
<line x1="92.5" y1="135.4" x2="106.7" y2="152.9" stroke="rgb(0,0,0)"  stroke-width="2.0"/>
<line x1="92.5" y1="135.4" x2="84.4" y2="156.5" stroke="rgb(0,0,0)"  stroke-width="2.0"/>
<line x1="221.9" y1="116.0" x2="241.3" y2="104.5" stroke="rgb(0,0,0)"  stroke-width="2.0"/>
<line x1="221.9" y1="116.0" x2="241.5" y2="127.1" stroke="rgb(0,0,0)"  stroke-width="2.0"/>
<line x1="222.4" y1="165.0" x2="202.7" y2="153.8" stroke="rgb(0,0,0)"  stroke-width="2.0"/>
<line x1="265.6" y1="190.2" x2="284.0" y2="179.5" stroke="rgb(0,0,0)"  stroke-width="2.0"/>
<line x1="265.9" y1="243.1" x2="247.5" y2="253.9" stroke="rgb(0,0,0)"  stroke-width="2.0"/>
<line x1="265.9" y1="243.1" x2="284.4" y2="253.6" stroke="rgb(0,0,0)"  stroke-width="2.0"/>
<line x1="265.4" y1="291.5" x2="282.7" y2="301.7" stroke="rgb(0,0,0)"  stroke-width="2.0"/>
<line x1="135.4" y1="116.2" x2="135.4" y2="166.5" stroke="rgb(0,0,0)"  stroke-width="2.0"/>
<line x1="142.6" y1="122.2" x2="142.6" y2="160.5" stroke="rgb(0,0,0)"  stroke-width="2.0"/>
<line x1="135.4" y1="166.5" x2="178.4" y2="190.8" stroke="rgb(0,0,0)"  stroke-width="2.0"/>
<line x1="178.4" y1="190.8" x2="222.4" y2="165.0" stroke="rgb(0,0,0)"  stroke-width="2.0"/>
<line x1="222.4" y1="165.0" x2="221.9" y2="116.0" stroke="rgb(0,0,0)"  stroke-width="2.0"/>
<line x1="221.9" y1="116.0" x2="179.1" y2="91.9" stroke="rgb(0,0,0)"  stroke-width="2.0"/>
<line x1="179.1" y1="91.9" x2="135.4" y2="116.2" stroke="rgb(0,0,0)"  stroke-width="2.0"/>
<text x="98.325327" y="112.326512" fill="rgb(127,153,153)"  stroke="rgb(127,153,153)" stroke-width="1" font-size="16" >Si</text>
<text x="171.898487" y="48.595258" fill="rgb(255,12,12)"  stroke="rgb(255,12,12)" stroke-width="1" font-size="16" >O</text>
<text x="142.538429" y="266.495059" fill="rgb(191,191,191)"  stroke="rgb(191,191,191)" stroke-width="1" font-size="16" >H</text>
<text x="173.182044" y="284.178866" fill="rgb(191,191,191)"  stroke="rgb(191,191,191)" stroke-width="1" font-size="16" >H</text>
<text x="203.477337" y="216.167597" fill="rgb(191,191,191)"  stroke="rgb(191,191,191)" stroke-width="1" font-size="16" >H</text>
<text x="99.764430" y="191.786406" fill="rgb(191,191,191)"  stroke="rgb(191,191,191)" stroke-width="1" font-size="16" >H</text>
<text x="145.322656" y="75.613105" fill="rgb(191,191,191)"  stroke="rgb(191,191,191)" stroke-width="1" font-size="16" >H</text>
<text x="87.730525" y="53.637728" fill="rgb(191,191,191)"  stroke="rgb(191,191,191)" stroke-width="1" font-size="16" >H</text>
<text x="122.870335" y="48.000000" fill="rgb(191,191,191)"  stroke="rgb(191,191,191)" stroke-width="1" font-size="16" >H</text>
<text x="61.615202" y="65.325330" fill="rgb(191,191,191)"  stroke="rgb(191,191,191)" stroke-width="1" font-size="16" >H</text>
<text x="39.634445" y="122.915408" fill="rgb(191,191,191)"  stroke="rgb(191,191,191)" stroke-width="1" font-size="16" >H</text>
<text x="34.000000" y="87.775071" fill="rgb(191,191,191)"  stroke="rgb(191,191,191)" stroke-width="1" font-size="16" >H</text>
<text x="51.327997" y="149.039920" fill="rgb(191,191,191)"  stroke="rgb(191,191,191)" stroke-width="1" font-size="16" >H</text>
<text x="108.920128" y="171.015296" fill="rgb(191,191,191)"  stroke="rgb(191,191,191)" stroke-width="1" font-size="16" >H</text>
<text x="73.780318" y="176.653024" fill="rgb(191,191,191)"  stroke="rgb(191,191,191)" stroke-width="1" font-size="16" >H</text>
<text x="246.503367" y="105.929370" fill="rgb(191,191,191)"  stroke="rgb(191,191,191)" stroke-width="1" font-size="16" >H</text>
<text x="246.873631" y="141.518016" fill="rgb(191,191,191)"  stroke="rgb(191,191,191)" stroke-width="1" font-size="16" >H</text>
<text x="185.397809" y="155.432982" fill="rgb(191,191,191)"  stroke="rgb(191,191,191)" stroke-width="1" font-size="16" >H</text>
<text x="289.268440" y="180.994541" fill="rgb(191,191,191)"  stroke="rgb(191,191,191)" stroke-width="1" font-size="16" >H</text>
<text x="230.252270" y="268.428001" fill="rgb(191,191,191)"  stroke="rgb(191,191,191)" stroke-width="1" font-size="16" >H</text>
<text x="289.704280" y="268.065489" fill="rgb(191,191,191)"  stroke="rgb(191,191,191)" stroke-width="1" font-size="16" >H</text>
<text x="287.867525" y="316.266997" fill="rgb(191,191,191)"  stroke="rgb(191,191,191)" stroke-width="1" font-size="16" >H</text>
</svg>
</g>
<text font-size="18.000000" fill ="black" font-family="sans-serif"
x="10.000000" y="20.000000" ></text>
</svg>
