<?xml version="1.0"?>
<svg version="1.1" id="topsvg"
xmlns="http://www.w3.org/2000/svg" xmlns:xlink="http://www.w3.org/1999/xlink"
xmlns:cml="http://www.xml-cml.org/schema" x="0" y="0" width="200px" height="200px" viewBox="0 0 100 100">
<title> - Open Babel Depiction</title>
<rect x="0" y="0" width="100" height="100" fill="white"/>
<g transform="translate(0,0)">
<svg width="100" height="100" x="0" y="0" viewBox="0 0 408.792 349.412"
font-family="sans-serif" stroke="rgb(0,0,0)" stroke-width="2"  stroke-linecap="round">
<line x1="241.6" y1="254.3" x2="222.6" y2="213.0" stroke="rgb(0,0,0)"  stroke-width="2.0"/>
<line x1="237.8" y1="256.0" x2="218.8" y2="214.8" stroke="rgb(0,0,0)"  stroke-width="2.0"/>
<line x1="245.4" y1="252.5" x2="226.4" y2="211.3" stroke="rgb(0,0,0)"  stroke-width="2.0"/>
<line x1="241.6" y1="254.3" x2="277.0" y2="278.6" stroke="rgb(0,0,0)"  stroke-width="2.0"/>
<line x1="121.4" y1="142.1" x2="158.4" y2="118.2" stroke="rgb(0,0,0)"  stroke-width="2.0"/>
<line x1="121.4" y1="142.1" x2="124.8" y2="160.8" stroke="rgb(0,0,0)"  stroke-width="2.0"/>
<line x1="121.4" y1="142.1" x2="107.7" y2="155.3" stroke="rgb(0,0,0)"  stroke-width="2.0"/>
<line x1="158.4" y1="115.2" x2="203.6" y2="115.3" stroke="rgb(0,0,0)"  stroke-width="2.0"/>
<line x1="158.4" y1="121.2" x2="203.6" y2="121.3" stroke="rgb(0,0,0)"  stroke-width="2.0"/>
<line x1="158.4" y1="118.2" x2="153.3" y2="101.1" stroke="rgb(0,0,0)"  stroke-width="2.0"/>
<line x1="52.7" y1="127.3" x2="121.4" y2="142.1" stroke="rgb(0,0,0)"  stroke-width="2.0"/>
<line x1="236.2" y1="91.7" x2="243.5" y2="61.0" stroke="rgb(0,0,0)"  stroke-width="2.0"/>
<line x1="259.0" y1="44.6" x2="261.9" y2="43.7" stroke="rgb(0,0,0)"  stroke-width="2.0"/>
<line x1="289.8" y1="91.6" x2="295.6" y2="73.5" stroke="rgb(0,0,0)"  stroke-width="2.0"/>
<line x1="289.8" y1="91.6" x2="307.8" y2="85.6" stroke="rgb(0,0,0)"  stroke-width="2.0"/>
<line x1="323.3" y1="112.5" x2="356.0" y2="114.7" stroke="rgb(0,0,0)"  stroke-width="2.0"/>
<line x1="322.9" y1="118.4" x2="355.6" y2="120.7" stroke="rgb(0,0,0)"  stroke-width="2.0"/>
<line x1="289.8" y1="143.5" x2="295.9" y2="160.3" stroke="rgb(0,0,0)"  stroke-width="2.0"/>
<line x1="204.5" y1="173.9" x2="236.7" y2="143.7" stroke="rgb(0,0,0)"  stroke-width="2.0"/>
<line x1="204.5" y1="173.9" x2="222.6" y2="213.0" stroke="rgb(0,0,0)"  stroke-width="2.0"/>
<line x1="204.5" y1="173.9" x2="187.6" y2="174.0" stroke="rgb(0,0,0)"  stroke-width="2.0"/>
<polygon points="204.542833 173.854550 226.368447 174.043838 224.834186 181.895337 " stroke-width="2.000000" fill="rgb(0,0,0)"  stroke="rgb(0,0,0)" />
<line x1="275.0" y1="276.4" x2="307.8" y2="246.7" stroke="rgb(0,0,0)"  stroke-width="2.0"/>
<line x1="279.1" y1="280.8" x2="311.9" y2="251.1" stroke="rgb(0,0,0)"  stroke-width="2.0"/>
<line x1="277.0" y1="278.6" x2="278.3" y2="296.4" stroke="rgb(0,0,0)"  stroke-width="2.0"/>
<line x1="309.8" y1="248.9" x2="284.4" y2="198.2" stroke="rgb(0,0,0)"  stroke-width="2.0"/>
<line x1="309.8" y1="248.9" x2="327.4" y2="252.2" stroke="rgb(0,0,0)"  stroke-width="2.0"/>
<line x1="267.2" y1="156.7" x2="284.4" y2="198.2" stroke="rgb(0,0,0)"  stroke-width="2.0"/>
<line x1="271.1" y1="155.1" x2="288.3" y2="196.6" stroke="rgb(0,0,0)"  stroke-width="2.0"/>
<line x1="263.3" y1="158.3" x2="280.5" y2="199.8" stroke="rgb(0,0,0)"  stroke-width="2.0"/>
<line x1="267.2" y1="156.7" x2="260.8" y2="141.2" stroke="rgb(0,0,0)"  stroke-width="2.0"/>
<line x1="253.7" y1="130.1" x2="236.2" y2="91.7" stroke="rgb(0,0,0)"  stroke-width="2.0"/>
<line x1="253.7" y1="130.1" x2="242.7" y2="145.6" stroke="rgb(0,0,0)"  stroke-width="2.0"/>
<line x1="253.7" y1="130.1" x2="272.7" y2="131.9" stroke="rgb(0,0,0)"  stroke-width="2.0"/>
<line x1="253.7" y1="130.1" x2="261.6" y2="147.4" stroke="rgb(0,0,0)"  stroke-width="2.0"/>
<line x1="168.2" y1="185.4" x2="166.2" y2="188.8" stroke="rgb(0,0,0)"  stroke-width="2.0"/>
<line x1="236.2" y1="91.7" x2="203.6" y2="118.3" stroke="rgb(0,0,0)"  stroke-width="2.0"/>
<line x1="203.6" y1="118.3" x2="236.7" y2="143.7" stroke="rgb(0,0,0)"  stroke-width="2.0"/>
<line x1="236.7" y1="143.7" x2="289.8" y2="143.5" stroke="rgb(0,0,0)"  stroke-width="2.0"/>
<line x1="242.7" y1="136.5" x2="283.7" y2="136.3" stroke="rgb(0,0,0)"  stroke-width="2.0"/>
<line x1="289.8" y1="143.5" x2="323.1" y2="115.4" stroke="rgb(0,0,0)"  stroke-width="2.0"/>
<line x1="323.1" y1="115.4" x2="289.8" y2="91.6" stroke="rgb(0,0,0)"  stroke-width="2.0"/>
<line x1="289.8" y1="91.6" x2="236.2" y2="91.7" stroke="rgb(0,0,0)"  stroke-width="2.0"/>
<text x="22.000000" y="132.522230" fill="rgb(17,127,178)"  stroke="rgb(17,127,178)" stroke-width="1" font-size="16" >Xx</text>
<text x="240.554024" y="56.308853" fill="rgb(255,12,12)"  stroke="rgb(255,12,12)" stroke-width="1" font-size="16" >O</text>
<text x="362.792342" y="126.631803" fill="rgb(255,12,12)"  stroke="rgb(255,12,12)" stroke-width="1" font-size="16" >O</text>
<text x="168.614798" y="182.052095" fill="rgb(255,12,12)"  stroke="rgb(255,12,12)" stroke-width="1" font-size="16" >O</text>
<text x="141.819891" y="208.074130" fill="rgb(17,127,178)"  stroke="rgb(17,127,178)" stroke-width="1" font-size="16" >Xx</text>
<text x="268.371921" y="48.000000" fill="rgb(191,191,191)"  stroke="rgb(191,191,191)" stroke-width="1" font-size="16" >H</text>
<text x="121.138202" y="181.603129" fill="rgb(191,191,191)"  stroke="rgb(191,191,191)" stroke-width="1" font-size="16" >H</text>
<text x="92.389449" y="172.372400" fill="rgb(191,191,191)"  stroke="rgb(191,191,191)" stroke-width="1" font-size="16" >H</text>
<text x="143.673273" y="96.587038" fill="rgb(191,191,191)"  stroke="rgb(191,191,191)" stroke-width="1" font-size="16" >H</text>
<text x="293.525957" y="69.068451" fill="rgb(191,191,191)"  stroke="rgb(191,191,191)" stroke-width="1" font-size="16" >H</text>
<text x="314.169387" y="89.505356" fill="rgb(191,191,191)"  stroke="rgb(191,191,191)" stroke-width="1" font-size="16" >H</text>
<text x="294.402936" y="180.456771" fill="rgb(191,191,191)"  stroke="rgb(191,191,191)" stroke-width="1" font-size="16" >H</text>
<text x="229.973405" y="187.996397" fill="rgb(191,191,191)"  stroke="rgb(191,191,191)" stroke-width="1" font-size="16" >H</text>
<text x="273.133948" y="317.412175" fill="rgb(191,191,191)"  stroke="rgb(191,191,191)" stroke-width="1" font-size="16" >H</text>
<text x="334.214196" y="262.536629" fill="rgb(191,191,191)"  stroke="rgb(191,191,191)" stroke-width="1" font-size="16" >H</text>
<text x="249.814684" y="137.170518" fill="rgb(191,191,191)"  stroke="rgb(191,191,191)" stroke-width="1" font-size="16" >H</text>
<text x="229.132343" y="164.150347" fill="rgb(191,191,191)"  stroke="rgb(191,191,191)" stroke-width="1" font-size="16" >H</text>
<text x="279.611022" y="141.148352" fill="rgb(191,191,191)"  stroke="rgb(191,191,191)" stroke-width="1" font-size="16" >H</text>
<text x="261.008888" y="167.221270" fill="rgb(191,191,191)"  stroke="rgb(191,191,191)" stroke-width="1" font-size="16" >H</text>
</svg>
</g>
<text font-size="18.000000" fill ="black" font-family="sans-serif"
x="10.000000" y="20.000000" ></text>
</svg>
