<?xml version="1.0"?>
<svg version="1.1" id="topsvg"
xmlns="http://www.w3.org/2000/svg" xmlns:xlink="http://www.w3.org/1999/xlink"
xmlns:cml="http://www.xml-cml.org/schema" x="0" y="0" width="200px" height="200px" viewBox="0 0 100 100">
<title> - Open Babel Depiction</title>
<rect x="0" y="0" width="100" height="100" fill="white"/>
<g transform="translate(0,0)">
<svg width="100" height="100" x="0" y="0" viewBox="0 0 386.719 295.154"
font-family="sans-serif" stroke="rgb(0,0,0)" stroke-width="2"  stroke-linecap="round">
<line x1="276.5" y1="230.9" x2="304.4" y2="246.3" stroke="rgb(0,0,0)"  stroke-width="2.0"/>
<line x1="273.7" y1="236.2" x2="301.5" y2="251.5" stroke="rgb(0,0,0)"  stroke-width="2.0"/>
<line x1="275.1" y1="233.6" x2="257.9" y2="243.6" stroke="rgb(0,0,0)"  stroke-width="2.0"/>
<line x1="234.7" y1="159.7" x2="193.9" y2="177.7" stroke="rgb(0,0,0)"  stroke-width="2.0"/>
<polygon points="234.723553 159.742053 277.404250 177.717950 273.673858 184.794968 " stroke-width="2.000000" fill="rgb(0,0,0)"  stroke="rgb(0,0,0)" />
<line x1="234.7" y1="159.7" x2="234.0" y2="180.9" stroke="rgb(0,0,0)"  stroke-width="2.0"/>
<line x1="193.9" y1="177.7" x2="193.9" y2="197.6" stroke="rgb(0,0,0)"  stroke-width="2.0"/>
<line x1="277.3" y1="53.0" x2="277.8" y2="87.9" stroke="rgb(0,0,0)"  stroke-width="2.0"/>
<line x1="271.3" y1="53.0" x2="271.8" y2="88.0" stroke="rgb(0,0,0)"  stroke-width="2.0"/>
<line x1="316.7" y1="111.8" x2="334.9" y2="101.0" stroke="rgb(0,0,0)"  stroke-width="2.0"/>
<line x1="316.7" y1="111.8" x2="335.2" y2="122.1" stroke="rgb(0,0,0)"  stroke-width="2.0"/>
<line x1="317.5" y1="160.0" x2="335.6" y2="170.9" stroke="rgb(0,0,0)"  stroke-width="2.0"/>
<line x1="317.5" y1="160.0" x2="316.7" y2="181.1" stroke="rgb(0,0,0)"  stroke-width="2.0"/>
<line x1="275.5" y1="181.3" x2="275.1" y2="233.6" stroke="rgb(0,0,0)"  stroke-width="2.0"/>
<polygon points="275.539054 181.256459 257.964752 196.418785 253.860887 189.551596 " stroke-width="2.000000" fill="rgb(0,0,0)"  stroke="rgb(0,0,0)" />
<polygon points="231.336613 108.657298 238.714790 159.477432 230.732316 160.006674 " stroke-width="2.000000" fill="rgb(0,0,0)"  stroke="rgb(0,0,0)" />
<line x1="231.3" y1="108.7" x2="197.4" y2="87.0" stroke="rgb(0,0,0)"  stroke-width="2.0"/>
<line x1="231.3" y1="108.7" x2="232.6" y2="87.6" stroke="rgb(0,0,0)"  stroke-width="2.0"/>
<line x1="67.2" y1="108.7" x2="108.9" y2="83.9" stroke="rgb(0,0,0)"  stroke-width="2.0"/>
<line x1="70.2" y1="113.9" x2="112.0" y2="89.0" stroke="rgb(0,0,0)"  stroke-width="2.0"/>
<line x1="68.7" y1="111.3" x2="51.3" y2="101.6" stroke="rgb(0,0,0)"  stroke-width="2.0"/>
<line x1="68.7" y1="111.3" x2="69.0" y2="131.2" stroke="rgb(0,0,0)"  stroke-width="2.0"/>
<line x1="110.4" y1="86.5" x2="151.5" y2="110.9" stroke="rgb(0,0,0)"  stroke-width="2.0"/>
<line x1="110.4" y1="86.5" x2="110.4" y2="66.6" stroke="rgb(0,0,0)"  stroke-width="2.0"/>
<line x1="151.5" y1="110.9" x2="197.4" y2="87.0" stroke="rgb(0,0,0)"  stroke-width="2.0"/>
<line x1="151.5" y1="110.9" x2="150.9" y2="132.0" stroke="rgb(0,0,0)"  stroke-width="2.0"/>
<line x1="151.5" y1="110.9" x2="169.4" y2="122.1" stroke="rgb(0,0,0)"  stroke-width="2.0"/>
<line x1="197.4" y1="87.0" x2="198.3" y2="65.9" stroke="rgb(0,0,0)"  stroke-width="2.0"/>
<line x1="197.4" y1="87.0" x2="179.6" y2="75.7" stroke="rgb(0,0,0)"  stroke-width="2.0"/>
<line x1="151.6" y1="156.2" x2="195.0" y2="174.9" stroke="rgb(0,0,0)"  stroke-width="2.0"/>
<line x1="149.2" y1="161.7" x2="192.7" y2="180.4" stroke="rgb(0,0,0)"  stroke-width="2.0"/>
<line x1="150.4" y1="159.0" x2="148.1" y2="139.2" stroke="rgb(0,0,0)"  stroke-width="2.0"/>
<line x1="150.4" y1="159.0" x2="134.5" y2="170.9" stroke="rgb(0,0,0)"  stroke-width="2.0"/>
<line x1="234.7" y1="159.7" x2="231.3" y2="108.7" stroke="rgb(0,0,0)"  stroke-width="2.0"/>
<line x1="231.3" y1="108.7" x2="274.8" y2="88.0" stroke="rgb(0,0,0)"  stroke-width="2.0"/>
<line x1="274.8" y1="88.0" x2="316.7" y2="111.8" stroke="rgb(0,0,0)"  stroke-width="2.0"/>
<line x1="316.7" y1="111.8" x2="317.5" y2="160.0" stroke="rgb(0,0,0)"  stroke-width="2.0"/>
<line x1="317.5" y1="160.0" x2="275.5" y2="181.3" stroke="rgb(0,0,0)"  stroke-width="2.0"/>
<line x1="275.5" y1="181.3" x2="234.7" y2="159.7" stroke="rgb(0,0,0)"  stroke-width="2.0"/>
<text x="308.323028" y="263.153628" fill="rgb(255,12,12)"  stroke="rgb(255,12,12)" stroke-width="1" font-size="16" >O</text>
<text x="268.049693" y="48.000000" fill="rgb(255,12,12)"  stroke="rgb(255,12,12)" stroke-width="1" font-size="16" >O</text>
<text x="240.692656" y="258.178461" fill="rgb(191,191,191)"  stroke="rgb(191,191,191)" stroke-width="1" font-size="16" >H</text>
<text x="227.502086" y="201.844268" fill="rgb(191,191,191)"  stroke="rgb(191,191,191)" stroke-width="1" font-size="16" >H</text>
<text x="187.965458" y="218.590806" fill="rgb(191,191,191)"  stroke="rgb(191,191,191)" stroke-width="1" font-size="16" >H</text>
<text x="340.062039" y="102.401532" fill="rgb(191,191,191)"  stroke="rgb(191,191,191)" stroke-width="1" font-size="16" >H</text>
<text x="340.498961" y="136.452720" fill="rgb(191,191,191)"  stroke="rgb(191,191,191)" stroke-width="1" font-size="16" >H</text>
<text x="340.719017" y="185.649463" fill="rgb(191,191,191)"  stroke="rgb(191,191,191)" stroke-width="1" font-size="16" >H</text>
<text x="310.233365" y="202.121729" fill="rgb(191,191,191)"  stroke="rgb(191,191,191)" stroke-width="1" font-size="16" >H</text>
<text x="240.246166" y="206.762029" fill="rgb(191,191,191)"  stroke="rgb(191,191,191)" stroke-width="1" font-size="16" >H</text>
<text x="227.447869" y="82.596543" fill="rgb(191,191,191)"  stroke="rgb(191,191,191)" stroke-width="1" font-size="16" >H</text>
<text x="34.000000" y="103.205213" fill="rgb(191,191,191)"  stroke="rgb(191,191,191)" stroke-width="1" font-size="16" >H</text>
<text x="63.146184" y="152.197847" fill="rgb(191,191,191)"  stroke="rgb(191,191,191)" stroke-width="1" font-size="16" >H</text>
<text x="104.430498" y="61.554140" fill="rgb(191,191,191)"  stroke="rgb(191,191,191)" stroke-width="1" font-size="16" >H</text>
<text x="144.582644" y="153.007906" fill="rgb(191,191,191)"  stroke="rgb(191,191,191)" stroke-width="1" font-size="16" >H</text>
<text x="174.462346" y="137.004454" fill="rgb(191,191,191)"  stroke="rgb(191,191,191)" stroke-width="1" font-size="16" >H</text>
<text x="192.886408" y="60.922676" fill="rgb(191,191,191)"  stroke="rgb(191,191,191)" stroke-width="1" font-size="16" >H</text>
<text x="162.611244" y="76.680559" fill="rgb(191,191,191)"  stroke="rgb(191,191,191)" stroke-width="1" font-size="16" >H</text>
<text x="140.576997" y="134.280869" fill="rgb(191,191,191)"  stroke="rgb(191,191,191)" stroke-width="1" font-size="16" >H</text>
<text x="118.029287" y="186.638118" fill="rgb(191,191,191)"  stroke="rgb(191,191,191)" stroke-width="1" font-size="16" >H</text>
</svg>
</g>
<text font-size="18.000000" fill ="black" font-family="sans-serif"
x="10.000000" y="20.000000" ></text>
</svg>
