<?xml version="1.0"?>
<svg version="1.1" id="topsvg"
xmlns="http://www.w3.org/2000/svg" xmlns:xlink="http://www.w3.org/1999/xlink"
xmlns:cml="http://www.xml-cml.org/schema" x="0" y="0" width="200px" height="200px" viewBox="0 0 100 100">
<title> - Open Babel Depiction</title>
<rect x="0" y="0" width="100" height="100" fill="white"/>
<g transform="translate(0,0)">
<svg width="100" height="100" x="0" y="0" viewBox="0 0 384.141 439.242"
font-family="sans-serif" stroke="rgb(0,0,0)" stroke-width="2"  stroke-linecap="round">
<line x1="206.0" y1="345.0" x2="250.6" y2="319.2" stroke="rgb(0,0,0)"  stroke-width="2.0"/>
<line x1="250.6" y1="319.2" x2="237.4" y2="366.8" stroke="rgb(0,0,0)"  stroke-width="2.0"/>
<line x1="273.8" y1="246.3" x2="273.5" y2="198.8" stroke="rgb(0,0,0)"  stroke-width="2.0"/>
<polygon points="232.678548 175.340873 275.526861 195.321531 271.544583 202.259936 " stroke-width="2.000000" fill="rgb(0,0,0)"  stroke="rgb(0,0,0)" />
<line x1="234.0" y1="137.9" x2="232.4" y2="137.9" stroke="rgb(0,0,0)"  stroke-width="1.0"/>
<line x1="234.5" y1="145.4" x2="231.6" y2="145.4" stroke="rgb(0,0,0)"  stroke-width="1.0"/>
<line x1="235.0" y1="152.9" x2="230.9" y2="152.9" stroke="rgb(0,0,0)"  stroke-width="1.0"/>
<line x1="235.6" y1="160.4" x2="230.1" y2="160.3" stroke="rgb(0,0,0)"  stroke-width="1.0"/>
<line x1="236.1" y1="167.9" x2="229.4" y2="167.8" stroke="rgb(0,0,0)"  stroke-width="1.0"/>
<line x1="236.7" y1="175.4" x2="228.7" y2="175.3" stroke="rgb(0,0,0)"  stroke-width="1.0"/>
<line x1="232.7" y1="175.3" x2="232.9" y2="210.0" stroke="rgb(0,0,0)"  stroke-width="2.0"/>
<line x1="110.9" y1="200.2" x2="150.6" y2="177.7" stroke="rgb(0,0,0)"  stroke-width="2.0"/>
<line x1="110.9" y1="200.2" x2="111.2" y2="248.2" stroke="rgb(0,0,0)"  stroke-width="2.0"/>
<line x1="110.9" y1="200.2" x2="69.4" y2="175.4" stroke="rgb(0,0,0)"  stroke-width="2.0"/>
<line x1="233.3" y1="128.6" x2="232.1" y2="73.6" stroke="rgb(0,0,0)"  stroke-width="2.0"/>
<line x1="266.3" y1="111.0" x2="265.5" y2="109.6" stroke="rgb(0,0,0)"  stroke-width="1.0"/>
<line x1="260.0" y1="115.3" x2="258.6" y2="112.7" stroke="rgb(0,0,0)"  stroke-width="1.0"/>
<line x1="253.8" y1="119.5" x2="251.8" y2="115.8" stroke="rgb(0,0,0)"  stroke-width="1.0"/>
<line x1="247.6" y1="123.7" x2="245.0" y2="118.9" stroke="rgb(0,0,0)"  stroke-width="1.0"/>
<line x1="241.4" y1="127.9" x2="238.1" y2="122.0" stroke="rgb(0,0,0)"  stroke-width="1.0"/>
<line x1="235.2" y1="132.1" x2="231.3" y2="125.1" stroke="rgb(0,0,0)"  stroke-width="1.0"/>
<line x1="274.0" y1="105.8" x2="274.0" y2="71.2" stroke="rgb(0,0,0)"  stroke-width="2.0"/>
<line x1="285.2" y1="51.7" x2="289.1" y2="49.5" stroke="rgb(0,0,0)"  stroke-width="2.0"/>
<line x1="206.0" y1="345.0" x2="188.1" y2="334.6" stroke="rgb(0,0,0)"  stroke-width="2.0"/>
<line x1="206.0" y1="345.0" x2="206.0" y2="365.6" stroke="rgb(0,0,0)"  stroke-width="2.0"/>
<line x1="206.0" y1="345.0" x2="188.1" y2="355.3" stroke="rgb(0,0,0)"  stroke-width="2.0"/>
<line x1="298.2" y1="319.5" x2="310.4" y2="336.2" stroke="rgb(0,0,0)"  stroke-width="2.0"/>
<line x1="298.2" y1="319.5" x2="288.8" y2="337.9" stroke="rgb(0,0,0)"  stroke-width="2.0"/>
<line x1="237.4" y1="366.8" x2="217.4" y2="372.0" stroke="rgb(0,0,0)"  stroke-width="2.0"/>
<line x1="237.4" y1="366.8" x2="251.9" y2="381.5" stroke="rgb(0,0,0)"  stroke-width="2.0"/>
<line x1="237.4" y1="366.8" x2="231.9" y2="386.7" stroke="rgb(0,0,0)"  stroke-width="2.0"/>
<line x1="273.5" y1="198.8" x2="255.7" y2="209.2" stroke="rgb(0,0,0)"  stroke-width="2.0"/>
<line x1="192.5" y1="199.3" x2="193.1" y2="218.8" stroke="rgb(0,0,0)"  stroke-width="2.0"/>
<line x1="110.9" y1="200.2" x2="93.0" y2="210.5" stroke="rgb(0,0,0)"  stroke-width="2.0"/>
<line x1="111.2" y1="248.2" x2="93.4" y2="258.6" stroke="rgb(0,0,0)"  stroke-width="2.0"/>
<line x1="111.2" y1="248.2" x2="129.1" y2="258.4" stroke="rgb(0,0,0)"  stroke-width="2.0"/>
<line x1="111.2" y1="248.2" x2="111.3" y2="268.8" stroke="rgb(0,0,0)"  stroke-width="2.0"/>
<line x1="69.4" y1="175.4" x2="69.7" y2="154.8" stroke="rgb(0,0,0)"  stroke-width="2.0"/>
<line x1="69.4" y1="175.4" x2="51.4" y2="185.5" stroke="rgb(0,0,0)"  stroke-width="2.0"/>
<line x1="69.4" y1="175.4" x2="51.7" y2="164.9" stroke="rgb(0,0,0)"  stroke-width="2.0"/>
<line x1="151.6" y1="128.3" x2="134.0" y2="117.5" stroke="rgb(0,0,0)"  stroke-width="2.0"/>
<line x1="151.6" y1="128.3" x2="152.2" y2="107.6" stroke="rgb(0,0,0)"  stroke-width="2.0"/>
<line x1="192.2" y1="106.6" x2="192.2" y2="85.9" stroke="rgb(0,0,0)"  stroke-width="2.0"/>
<line x1="192.2" y1="106.6" x2="209.9" y2="96.0" stroke="rgb(0,0,0)"  stroke-width="2.0"/>
<line x1="274.0" y1="105.8" x2="256.2" y2="95.4" stroke="rgb(0,0,0)"  stroke-width="2.0"/>
<line x1="315.0" y1="128.7" x2="332.8" y2="118.2" stroke="rgb(0,0,0)"  stroke-width="2.0"/>
<line x1="315.0" y1="128.7" x2="332.9" y2="139.0" stroke="rgb(0,0,0)"  stroke-width="2.0"/>
<line x1="314.8" y1="177.2" x2="332.4" y2="187.9" stroke="rgb(0,0,0)"  stroke-width="2.0"/>
<line x1="314.8" y1="177.2" x2="314.1" y2="197.8" stroke="rgb(0,0,0)"  stroke-width="2.0"/>
<line x1="232.1" y1="73.6" x2="249.8" y2="62.9" stroke="rgb(0,0,0)"  stroke-width="2.0"/>
<line x1="232.1" y1="73.6" x2="214.0" y2="63.7" stroke="rgb(0,0,0)"  stroke-width="2.0"/>
<line x1="232.1" y1="73.6" x2="231.6" y2="53.0" stroke="rgb(0,0,0)"  stroke-width="2.0"/>
<line x1="248.5" y1="265.5" x2="273.8" y2="246.3" stroke="rgb(0,0,0)"  stroke-width="2.0"/>
<line x1="253.9" y1="270.5" x2="273.4" y2="255.7" stroke="rgb(0,0,0)"  stroke-width="2.0"/>
<line x1="273.8" y1="246.3" x2="301.4" y2="267.2" stroke="rgb(0,0,0)"  stroke-width="2.0"/>
<line x1="308.0" y1="287.4" x2="298.2" y2="319.5" stroke="rgb(0,0,0)"  stroke-width="2.0"/>
<line x1="298.2" y1="319.5" x2="250.6" y2="319.2" stroke="rgb(0,0,0)"  stroke-width="2.0"/>
<line x1="250.6" y1="319.2" x2="240.2" y2="287.3" stroke="rgb(0,0,0)"  stroke-width="2.0"/>
<line x1="273.5" y1="198.8" x2="314.8" y2="177.2" stroke="rgb(0,0,0)"  stroke-width="2.0"/>
<line x1="314.8" y1="177.2" x2="315.0" y2="128.7" stroke="rgb(0,0,0)"  stroke-width="2.0"/>
<line x1="315.0" y1="128.7" x2="274.0" y2="105.8" stroke="rgb(0,0,0)"  stroke-width="2.0"/>
<line x1="274.0" y1="105.8" x2="233.3" y2="128.6" stroke="rgb(0,0,0)"  stroke-width="2.0"/>
<line x1="233.3" y1="128.6" x2="232.7" y2="175.3" stroke="rgb(0,0,0)"  stroke-width="2.0"/>
<line x1="232.7" y1="175.3" x2="273.5" y2="198.8" stroke="rgb(0,0,0)"  stroke-width="2.0"/>
<line x1="150.6" y1="177.7" x2="192.5" y2="199.3" stroke="rgb(0,0,0)"  stroke-width="2.0"/>
<line x1="159.2" y1="174.0" x2="190.5" y2="190.2" stroke="rgb(0,0,0)"  stroke-width="2.0"/>
<line x1="192.5" y1="199.3" x2="232.7" y2="175.3" stroke="rgb(0,0,0)"  stroke-width="2.0"/>
<line x1="233.3" y1="128.6" x2="192.2" y2="106.6" stroke="rgb(0,0,0)"  stroke-width="2.0"/>
<line x1="192.2" y1="106.6" x2="151.6" y2="128.3" stroke="rgb(0,0,0)"  stroke-width="2.0"/>
<line x1="151.6" y1="128.3" x2="150.6" y2="177.7" stroke="rgb(0,0,0)"  stroke-width="2.0"/>
<text x="230.119749" y="282.984692" fill="rgb(12,12,255)"  stroke="rgb(12,12,255)" stroke-width="1" font-size="16" >N</text>
<text x="305.782114" y="282.984692" fill="rgb(255,12,12)"  stroke="rgb(255,12,12)" stroke-width="1" font-size="16" >O</text>
<text x="267.950931" y="66.245703" fill="rgb(255,12,12)"  stroke="rgb(255,12,12)" stroke-width="1" font-size="16" >O</text>
<text x="226.967936" y="230.967209" fill="rgb(191,191,191)"  stroke="rgb(191,191,191)" stroke-width="1" font-size="16" >H</text>
<text x="294.354436" y="50.958471" fill="rgb(191,191,191)"  stroke="rgb(191,191,191)" stroke-width="1" font-size="16" >H</text>
<text x="170.841040" y="336.134352" fill="rgb(191,191,191)"  stroke="rgb(191,191,191)" stroke-width="1" font-size="16" >H</text>
<text x="199.988559" y="386.620177" fill="rgb(191,191,191)"  stroke="rgb(191,191,191)" stroke-width="1" font-size="16" >H</text>
<text x="170.840797" y="369.791429" fill="rgb(191,191,191)"  stroke="rgb(191,191,191)" stroke-width="1" font-size="16" >H</text>
<text x="312.097051" y="354.629982" fill="rgb(191,191,191)"  stroke="rgb(191,191,191)" stroke-width="1" font-size="16" >H</text>
<text x="276.871054" y="357.491026" fill="rgb(191,191,191)"  stroke="rgb(191,191,191)" stroke-width="1" font-size="16" >H</text>
<text x="198.865456" y="383.254460" fill="rgb(191,191,191)"  stroke="rgb(191,191,191)" stroke-width="1" font-size="16" >H</text>
<text x="255.052944" y="398.790308" fill="rgb(191,191,191)"  stroke="rgb(191,191,191)" stroke-width="1" font-size="16" >H</text>
<text x="222.474387" y="407.242315" fill="rgb(191,191,191)"  stroke="rgb(191,191,191)" stroke-width="1" font-size="16" >H</text>
<text x="238.453545" y="223.732567" fill="rgb(191,191,191)"  stroke="rgb(191,191,191)" stroke-width="1" font-size="16" >H</text>
<text x="187.518762" y="239.765387" fill="rgb(191,191,191)"  stroke="rgb(191,191,191)" stroke-width="1" font-size="16" >H</text>
<text x="75.699365" y="224.936565" fill="rgb(191,191,191)"  stroke="rgb(191,191,191)" stroke-width="1" font-size="16" >H</text>
<text x="76.148270" y="273.184516" fill="rgb(191,191,191)"  stroke="rgb(191,191,191)" stroke-width="1" font-size="16" >H</text>
<text x="134.443065" y="272.847994" fill="rgb(191,191,191)"  stroke="rgb(191,191,191)" stroke-width="1" font-size="16" >H</text>
<text x="105.392813" y="289.844513" fill="rgb(191,191,191)"  stroke="rgb(191,191,191)" stroke-width="1" font-size="16" >H</text>
<text x="63.884698" y="149.788069" fill="rgb(191,191,191)"  stroke="rgb(191,191,191)" stroke-width="1" font-size="16" >H</text>
<text x="34.000000" y="199.841052" fill="rgb(191,191,191)"  stroke="rgb(191,191,191)" stroke-width="1" font-size="16" >H</text>
<text x="34.493297" y="166.187591" fill="rgb(191,191,191)"  stroke="rgb(191,191,191)" stroke-width="1" font-size="16" >H</text>
<text x="116.913484" y="118.653762" fill="rgb(191,191,191)"  stroke="rgb(191,191,191)" stroke-width="1" font-size="16" >H</text>
<text x="146.613865" y="102.626550" fill="rgb(191,191,191)"  stroke="rgb(191,191,191)" stroke-width="1" font-size="16" >H</text>
<text x="186.216712" y="80.947876" fill="rgb(191,191,191)"  stroke="rgb(191,191,191)" stroke-width="1" font-size="16" >H</text>
<text x="215.074031" y="97.317948" fill="rgb(191,191,191)"  stroke="rgb(191,191,191)" stroke-width="1" font-size="16" >H</text>
<text x="238.965621" y="96.781747" fill="rgb(191,191,191)"  stroke="rgb(191,191,191)" stroke-width="1" font-size="16" >H</text>
<text x="338.043761" y="119.671213" fill="rgb(191,191,191)"  stroke="rgb(191,191,191)" stroke-width="1" font-size="16" >H</text>
<text x="338.141206" y="153.464723" fill="rgb(191,191,191)"  stroke="rgb(191,191,191)" stroke-width="1" font-size="16" >H</text>
<text x="337.546068" y="202.643299" fill="rgb(191,191,191)"  stroke="rgb(191,191,191)" stroke-width="1" font-size="16" >H</text>
<text x="307.720582" y="218.805581" fill="rgb(191,191,191)"  stroke="rgb(191,191,191)" stroke-width="1" font-size="16" >H</text>
<text x="254.870251" y="64.198955" fill="rgb(191,191,191)"  stroke="rgb(191,191,191)" stroke-width="1" font-size="16" >H</text>
<text x="196.587919" y="65.450365" fill="rgb(191,191,191)"  stroke="rgb(191,191,191)" stroke-width="1" font-size="16" >H</text>
<text x="225.367834" y="48.000000" fill="rgb(191,191,191)"  stroke="rgb(191,191,191)" stroke-width="1" font-size="16" >H</text>
</svg>
</g>
<text font-size="18.000000" fill ="black" font-family="sans-serif"
x="10.000000" y="20.000000" ></text>
</svg>
