<?xml version="1.0"?>
<svg version="1.1" id="topsvg"
xmlns="http://www.w3.org/2000/svg" xmlns:xlink="http://www.w3.org/1999/xlink"
xmlns:cml="http://www.xml-cml.org/schema" x="0" y="0" width="200px" height="200px" viewBox="0 0 100 100">
<title> - Open Babel Depiction</title>
<rect x="0" y="0" width="100" height="100" fill="white"/>
<g transform="translate(0,0)">
<svg width="100" height="100" x="0" y="0" viewBox="0 0 388.019 439.612"
font-family="sans-serif" stroke="rgb(0,0,0)" stroke-width="2"  stroke-linecap="round">
<line x1="203.3" y1="331.7" x2="248.8" y2="319.8" stroke="rgb(0,0,0)"  stroke-width="2.0"/>
<line x1="248.8" y1="319.8" x2="238.0" y2="366.4" stroke="rgb(0,0,0)"  stroke-width="2.0"/>
<line x1="236.0" y1="170.8" x2="195.0" y2="190.8" stroke="rgb(0,0,0)"  stroke-width="2.0"/>
<polygon points="236.021162 170.794024 231.157013 122.625671 239.155728 122.482279 " stroke-width="2.000000" fill="rgb(0,0,0)"  stroke="rgb(0,0,0)" />
<line x1="268.1" y1="190.5" x2="268.9" y2="189.1" stroke="rgb(0,0,0)"  stroke-width="1.0"/>
<line x1="261.3" y1="187.2" x2="262.8" y2="184.7" stroke="rgb(0,0,0)"  stroke-width="1.0"/>
<line x1="254.5" y1="184.0" x2="256.6" y2="180.4" stroke="rgb(0,0,0)"  stroke-width="1.0"/>
<line x1="247.7" y1="180.7" x2="250.4" y2="176.0" stroke="rgb(0,0,0)"  stroke-width="1.0"/>
<line x1="240.8" y1="177.5" x2="244.2" y2="171.7" stroke="rgb(0,0,0)"  stroke-width="1.0"/>
<line x1="234.0" y1="174.2" x2="238.0" y2="167.3" stroke="rgb(0,0,0)"  stroke-width="1.0"/>
<line x1="193.6" y1="101.5" x2="152.1" y2="122.4" stroke="rgb(0,0,0)"  stroke-width="2.0"/>
<line x1="67.1" y1="121.0" x2="109.1" y2="96.4" stroke="rgb(0,0,0)"  stroke-width="2.0"/>
<line x1="70.1" y1="126.1" x2="112.1" y2="101.5" stroke="rgb(0,0,0)"  stroke-width="2.0"/>
<line x1="110.6" y1="99.0" x2="152.1" y2="122.4" stroke="rgb(0,0,0)"  stroke-width="2.0"/>
<line x1="235.2" y1="122.6" x2="235.3" y2="74.1" stroke="rgb(0,0,0)"  stroke-width="2.0"/>
<line x1="235.2" y1="122.6" x2="193.6" y2="101.5" stroke="rgb(0,0,0)"  stroke-width="2.0"/>
<line x1="277.3" y1="98.6" x2="285.2" y2="64.5" stroke="rgb(0,0,0)"  stroke-width="2.0"/>
<polygon points="277.310968 98.611057 237.131874 126.032105 233.180867 119.075846 " stroke-width="2.000000" fill="rgb(0,0,0)"  stroke="rgb(0,0,0)" />
<line x1="300.5" y1="48.0" x2="305.2" y2="46.5" stroke="rgb(0,0,0)"  stroke-width="2.0"/>
<line x1="276.7" y1="194.5" x2="278.4" y2="242.4" stroke="rgb(0,0,0)"  stroke-width="2.0"/>
<line x1="236.5" y1="177.0" x2="195.0" y2="190.8" stroke="rgb(0,0,0)"  stroke-width="2.0"/>
<line x1="151.7" y1="169.0" x2="196.1" y2="188.1" stroke="rgb(0,0,0)"  stroke-width="2.0"/>
<line x1="149.3" y1="174.5" x2="193.8" y2="193.6" stroke="rgb(0,0,0)"  stroke-width="2.0"/>
<line x1="235.0" y1="208.0" x2="236.5" y2="177.0" stroke="rgb(0,0,0)"  stroke-width="2.0"/>
<line x1="203.3" y1="331.7" x2="188.5" y2="316.6" stroke="rgb(0,0,0)"  stroke-width="2.0"/>
<line x1="203.3" y1="331.7" x2="197.7" y2="352.0" stroke="rgb(0,0,0)"  stroke-width="2.0"/>
<line x1="203.3" y1="331.7" x2="182.9" y2="337.0" stroke="rgb(0,0,0)"  stroke-width="2.0"/>
<line x1="299.3" y1="319.0" x2="311.7" y2="336.1" stroke="rgb(0,0,0)"  stroke-width="2.0"/>
<line x1="299.3" y1="319.0" x2="289.8" y2="337.9" stroke="rgb(0,0,0)"  stroke-width="2.0"/>
<line x1="238.0" y1="366.4" x2="217.8" y2="372.5" stroke="rgb(0,0,0)"  stroke-width="2.0"/>
<line x1="238.0" y1="366.4" x2="253.4" y2="380.8" stroke="rgb(0,0,0)"  stroke-width="2.0"/>
<line x1="238.0" y1="366.4" x2="233.2" y2="387.0" stroke="rgb(0,0,0)"  stroke-width="2.0"/>
<line x1="236.0" y1="170.8" x2="218.0" y2="159.8" stroke="rgb(0,0,0)"  stroke-width="2.0"/>
<line x1="193.6" y1="101.5" x2="193.6" y2="80.4" stroke="rgb(0,0,0)"  stroke-width="2.0"/>
<line x1="193.6" y1="101.5" x2="211.6" y2="90.5" stroke="rgb(0,0,0)"  stroke-width="2.0"/>
<line x1="152.1" y1="122.4" x2="151.6" y2="143.5" stroke="rgb(0,0,0)"  stroke-width="2.0"/>
<line x1="152.1" y1="122.4" x2="133.7" y2="132.8" stroke="rgb(0,0,0)"  stroke-width="2.0"/>
<line x1="68.6" y1="123.5" x2="51.3" y2="113.7" stroke="rgb(0,0,0)"  stroke-width="2.0"/>
<line x1="68.6" y1="123.5" x2="68.8" y2="143.5" stroke="rgb(0,0,0)"  stroke-width="2.0"/>
<line x1="110.6" y1="99.0" x2="110.4" y2="79.0" stroke="rgb(0,0,0)"  stroke-width="2.0"/>
<line x1="235.3" y1="74.1" x2="253.6" y2="63.6" stroke="rgb(0,0,0)"  stroke-width="2.0"/>
<line x1="235.3" y1="74.1" x2="217.0" y2="63.5" stroke="rgb(0,0,0)"  stroke-width="2.0"/>
<line x1="235.3" y1="74.1" x2="235.3" y2="53.0" stroke="rgb(0,0,0)"  stroke-width="2.0"/>
<line x1="277.3" y1="98.6" x2="260.4" y2="86.0" stroke="rgb(0,0,0)"  stroke-width="2.0"/>
<line x1="318.0" y1="123.8" x2="336.3" y2="113.4" stroke="rgb(0,0,0)"  stroke-width="2.0"/>
<line x1="318.0" y1="123.8" x2="318.4" y2="102.7" stroke="rgb(0,0,0)"  stroke-width="2.0"/>
<line x1="318.7" y1="172.9" x2="336.9" y2="183.8" stroke="rgb(0,0,0)"  stroke-width="2.0"/>
<line x1="318.7" y1="172.9" x2="318.0" y2="194.0" stroke="rgb(0,0,0)"  stroke-width="2.0"/>
<line x1="276.7" y1="194.5" x2="258.5" y2="205.4" stroke="rgb(0,0,0)"  stroke-width="2.0"/>
<line x1="236.5" y1="177.0" x2="249.2" y2="160.2" stroke="rgb(0,0,0)"  stroke-width="2.0"/>
<line x1="236.5" y1="177.0" x2="256.3" y2="184.2" stroke="rgb(0,0,0)"  stroke-width="2.0"/>
<line x1="150.5" y1="171.8" x2="148.2" y2="152.0" stroke="rgb(0,0,0)"  stroke-width="2.0"/>
<line x1="150.5" y1="171.8" x2="134.6" y2="183.7" stroke="rgb(0,0,0)"  stroke-width="2.0"/>
<line x1="249.6" y1="263.0" x2="278.4" y2="242.4" stroke="rgb(0,0,0)"  stroke-width="2.0"/>
<line x1="254.4" y1="268.4" x2="277.7" y2="251.7" stroke="rgb(0,0,0)"  stroke-width="2.0"/>
<line x1="278.4" y1="242.4" x2="304.5" y2="266.4" stroke="rgb(0,0,0)"  stroke-width="2.0"/>
<line x1="310.0" y1="287.5" x2="299.3" y2="319.0" stroke="rgb(0,0,0)"  stroke-width="2.0"/>
<line x1="299.3" y1="319.0" x2="248.8" y2="319.8" stroke="rgb(0,0,0)"  stroke-width="2.0"/>
<line x1="248.8" y1="319.8" x2="239.0" y2="285.6" stroke="rgb(0,0,0)"  stroke-width="2.0"/>
<line x1="236.0" y1="170.8" x2="235.2" y2="122.6" stroke="rgb(0,0,0)"  stroke-width="2.0"/>
<line x1="235.2" y1="122.6" x2="277.3" y2="98.6" stroke="rgb(0,0,0)"  stroke-width="2.0"/>
<line x1="277.3" y1="98.6" x2="318.0" y2="123.8" stroke="rgb(0,0,0)"  stroke-width="2.0"/>
<line x1="318.0" y1="123.8" x2="318.7" y2="172.9" stroke="rgb(0,0,0)"  stroke-width="2.0"/>
<line x1="318.7" y1="172.9" x2="276.7" y2="194.5" stroke="rgb(0,0,0)"  stroke-width="2.0"/>
<line x1="276.7" y1="194.5" x2="236.0" y2="170.8" stroke="rgb(0,0,0)"  stroke-width="2.0"/>
<text x="229.405277" y="281.081946" fill="rgb(12,12,255)"  stroke="rgb(12,12,255)" stroke-width="1" font-size="16" >N</text>
<text x="308.130024" y="283.210418" fill="rgb(255,12,12)"  stroke="rgb(255,12,12)" stroke-width="1" font-size="16" >O</text>
<text x="282.065017" y="59.803818" fill="rgb(255,12,12)"  stroke="rgb(255,12,12)" stroke-width="1" font-size="16" >O</text>
<text x="228.342637" y="228.955122" fill="rgb(191,191,191)"  stroke="rgb(191,191,191)" stroke-width="1" font-size="16" >H</text>
<text x="311.659395" y="50.725103" fill="rgb(191,191,191)"  stroke="rgb(191,191,191)" stroke-width="1" font-size="16" >H</text>
<text x="173.351904" y="315.353628" fill="rgb(191,191,191)"  stroke="rgb(191,191,191)" stroke-width="1" font-size="16" >H</text>
<text x="188.270181" y="372.581843" fill="rgb(191,191,191)"  stroke="rgb(191,191,191)" stroke-width="1" font-size="16" >H</text>
<text x="164.290680" y="348.274271" fill="rgb(191,191,191)"  stroke="rgb(191,191,191)" stroke-width="1" font-size="16" >H</text>
<text x="313.389078" y="354.605880" fill="rgb(191,191,191)"  stroke="rgb(191,191,191)" stroke-width="1" font-size="16" >H</text>
<text x="278.038636" y="357.566800" fill="rgb(191,191,191)"  stroke="rgb(191,191,191)" stroke-width="1" font-size="16" >H</text>
<text x="199.324081" y="384.284658" fill="rgb(191,191,191)"  stroke="rgb(191,191,191)" stroke-width="1" font-size="16" >H</text>
<text x="256.927221" y="397.682482" fill="rgb(191,191,191)"  stroke="rgb(191,191,191)" stroke-width="1" font-size="16" >H</text>
<text x="224.258032" y="407.612165" fill="rgb(191,191,191)"  stroke="rgb(191,191,191)" stroke-width="1" font-size="16" >H</text>
<text x="200.900907" y="160.964687" fill="rgb(191,191,191)"  stroke="rgb(191,191,191)" stroke-width="1" font-size="16" >H</text>
<text x="187.617219" y="75.382867" fill="rgb(191,191,191)"  stroke="rgb(191,191,191)" stroke-width="1" font-size="16" >H</text>
<text x="216.665024" y="91.662789" fill="rgb(191,191,191)"  stroke="rgb(191,191,191)" stroke-width="1" font-size="16" >H</text>
<text x="145.245866" y="164.487907" fill="rgb(191,191,191)"  stroke="rgb(191,191,191)" stroke-width="1" font-size="16" >H</text>
<text x="116.381204" y="147.219682" fill="rgb(191,191,191)"  stroke="rgb(191,191,191)" stroke-width="1" font-size="16" >H</text>
<text x="34.000000" y="115.277514" fill="rgb(191,191,191)"  stroke="rgb(191,191,191)" stroke-width="1" font-size="16" >H</text>
<text x="62.854986" y="164.481125" fill="rgb(191,191,191)"  stroke="rgb(191,191,191)" stroke-width="1" font-size="16" >H</text>
<text x="104.288606" y="74.024609" fill="rgb(191,191,191)"  stroke="rgb(191,191,191)" stroke-width="1" font-size="16" >H</text>
<text x="258.890660" y="65.146471" fill="rgb(191,191,191)"  stroke="rgb(191,191,191)" stroke-width="1" font-size="16" >H</text>
<text x="199.750136" y="64.998327" fill="rgb(191,191,191)"  stroke="rgb(191,191,191)" stroke-width="1" font-size="16" >H</text>
<text x="229.363164" y="48.000000" fill="rgb(191,191,191)"  stroke="rgb(191,191,191)" stroke-width="1" font-size="16" >H</text>
<text x="243.924375" y="86.218680" fill="rgb(191,191,191)"  stroke="rgb(191,191,191)" stroke-width="1" font-size="16" >H</text>
<text x="341.654884" y="114.968730" fill="rgb(191,191,191)"  stroke="rgb(191,191,191)" stroke-width="1" font-size="16" >H</text>
<text x="312.622059" y="97.672925" fill="rgb(191,191,191)"  stroke="rgb(191,191,191)" stroke-width="1" font-size="16" >H</text>
<text x="342.018780" y="198.475243" fill="rgb(191,191,191)"  stroke="rgb(191,191,191)" stroke-width="1" font-size="16" >H</text>
<text x="311.616173" y="215.042690" fill="rgb(191,191,191)"  stroke="rgb(191,191,191)" stroke-width="1" font-size="16" >H</text>
<text x="241.365498" y="220.046595" fill="rgb(191,191,191)"  stroke="rgb(191,191,191)" stroke-width="1" font-size="16" >H</text>
<text x="251.087747" y="157.793014" fill="rgb(191,191,191)"  stroke="rgb(191,191,191)" stroke-width="1" font-size="16" >H</text>
<text x="262.555122" y="196.660524" fill="rgb(191,191,191)"  stroke="rgb(191,191,191)" stroke-width="1" font-size="16" >H</text>
<text x="140.629502" y="147.084990" fill="rgb(191,191,191)"  stroke="rgb(191,191,191)" stroke-width="1" font-size="16" >H</text>
<text x="118.147470" y="199.507922" fill="rgb(191,191,191)"  stroke="rgb(191,191,191)" stroke-width="1" font-size="16" >H</text>
</svg>
</g>
<text font-size="18.000000" fill ="black" font-family="sans-serif"
x="10.000000" y="20.000000" ></text>
</svg>
