<?xml version="1.0"?>
<svg version="1.1" id="topsvg"
xmlns="http://www.w3.org/2000/svg" xmlns:xlink="http://www.w3.org/1999/xlink"
xmlns:cml="http://www.xml-cml.org/schema" x="0" y="0" width="200px" height="200px" viewBox="0 0 100 100">
<title> - Open Babel Depiction</title>
<rect x="0" y="0" width="100" height="100" fill="white"/>
<g transform="translate(0,0)">
<svg width="100" height="100" x="0" y="0" viewBox="0 0 384.141 439.244"
font-family="sans-serif" stroke="rgb(0,0,0)" stroke-width="2"  stroke-linecap="round">
<line x1="206.0" y1="345.0" x2="250.6" y2="319.2" stroke="rgb(0,0,0)"  stroke-width="2.0"/>
<line x1="206.0" y1="345.0" x2="188.1" y2="334.6" stroke="rgb(0,0,0)"  stroke-width="2.0"/>
<line x1="206.0" y1="345.0" x2="206.0" y2="365.6" stroke="rgb(0,0,0)"  stroke-width="2.0"/>
<line x1="206.0" y1="345.0" x2="188.1" y2="355.3" stroke="rgb(0,0,0)"  stroke-width="2.0"/>
<line x1="250.6" y1="319.2" x2="237.4" y2="366.8" stroke="rgb(0,0,0)"  stroke-width="2.0"/>
<line x1="298.2" y1="319.5" x2="310.4" y2="336.2" stroke="rgb(0,0,0)"  stroke-width="2.0"/>
<line x1="298.2" y1="319.5" x2="288.8" y2="337.9" stroke="rgb(0,0,0)"  stroke-width="2.0"/>
<line x1="237.4" y1="366.8" x2="217.4" y2="372.0" stroke="rgb(0,0,0)"  stroke-width="2.0"/>
<line x1="237.4" y1="366.8" x2="251.9" y2="381.5" stroke="rgb(0,0,0)"  stroke-width="2.0"/>
<line x1="237.4" y1="366.8" x2="231.9" y2="386.7" stroke="rgb(0,0,0)"  stroke-width="2.0"/>
<line x1="273.8" y1="246.3" x2="273.5" y2="198.8" stroke="rgb(0,0,0)"  stroke-width="2.0"/>
<line x1="273.5" y1="198.8" x2="255.7" y2="209.2" stroke="rgb(0,0,0)"  stroke-width="2.0"/>
<polygon points="232.678955 175.342378 275.527280 195.323043 271.545002 202.261448 " stroke-width="2.000000" fill="rgb(0,0,0)"  stroke="rgb(0,0,0)" />
<line x1="232.7" y1="175.3" x2="232.9" y2="210.0" stroke="rgb(0,0,0)"  stroke-width="2.0"/>
<line x1="192.5" y1="199.3" x2="193.1" y2="218.8" stroke="rgb(0,0,0)"  stroke-width="2.0"/>
<line x1="110.9" y1="200.2" x2="150.6" y2="177.7" stroke="rgb(0,0,0)"  stroke-width="2.0"/>
<line x1="110.9" y1="200.2" x2="111.2" y2="248.2" stroke="rgb(0,0,0)"  stroke-width="2.0"/>
<line x1="110.9" y1="200.2" x2="69.4" y2="175.4" stroke="rgb(0,0,0)"  stroke-width="2.0"/>
<line x1="110.9" y1="200.2" x2="93.0" y2="210.5" stroke="rgb(0,0,0)"  stroke-width="2.0"/>
<line x1="111.2" y1="248.2" x2="93.4" y2="258.6" stroke="rgb(0,0,0)"  stroke-width="2.0"/>
<line x1="111.2" y1="248.2" x2="129.1" y2="258.4" stroke="rgb(0,0,0)"  stroke-width="2.0"/>
<line x1="111.2" y1="248.2" x2="111.3" y2="268.8" stroke="rgb(0,0,0)"  stroke-width="2.0"/>
<line x1="69.4" y1="175.4" x2="69.7" y2="154.8" stroke="rgb(0,0,0)"  stroke-width="2.0"/>
<line x1="69.4" y1="175.4" x2="51.4" y2="185.5" stroke="rgb(0,0,0)"  stroke-width="2.0"/>
<line x1="69.4" y1="175.4" x2="51.7" y2="164.9" stroke="rgb(0,0,0)"  stroke-width="2.0"/>
<line x1="151.6" y1="128.3" x2="134.0" y2="117.5" stroke="rgb(0,0,0)"  stroke-width="2.0"/>
<line x1="151.6" y1="128.3" x2="152.2" y2="107.6" stroke="rgb(0,0,0)"  stroke-width="2.0"/>
<line x1="192.2" y1="106.6" x2="192.2" y2="85.9" stroke="rgb(0,0,0)"  stroke-width="2.0"/>
<line x1="192.2" y1="106.6" x2="209.9" y2="96.0" stroke="rgb(0,0,0)"  stroke-width="2.0"/>
<line x1="234.0" y1="137.9" x2="232.4" y2="137.9" stroke="rgb(0,0,0)"  stroke-width="1.0"/>
<line x1="234.5" y1="145.4" x2="231.6" y2="145.4" stroke="rgb(0,0,0)"  stroke-width="1.0"/>
<line x1="235.0" y1="152.9" x2="230.9" y2="152.9" stroke="rgb(0,0,0)"  stroke-width="1.0"/>
<line x1="235.6" y1="160.4" x2="230.1" y2="160.3" stroke="rgb(0,0,0)"  stroke-width="1.0"/>
<line x1="236.1" y1="167.9" x2="229.4" y2="167.8" stroke="rgb(0,0,0)"  stroke-width="1.0"/>
<line x1="236.7" y1="175.4" x2="228.7" y2="175.3" stroke="rgb(0,0,0)"  stroke-width="1.0"/>
<line x1="233.3" y1="128.6" x2="232.1" y2="73.7" stroke="rgb(0,0,0)"  stroke-width="2.0"/>
<line x1="266.3" y1="111.0" x2="265.5" y2="109.7" stroke="rgb(0,0,0)"  stroke-width="1.0"/>
<line x1="260.0" y1="115.3" x2="258.6" y2="112.7" stroke="rgb(0,0,0)"  stroke-width="1.0"/>
<line x1="253.8" y1="119.5" x2="251.8" y2="115.8" stroke="rgb(0,0,0)"  stroke-width="1.0"/>
<line x1="247.6" y1="123.7" x2="245.0" y2="118.9" stroke="rgb(0,0,0)"  stroke-width="1.0"/>
<line x1="241.4" y1="127.9" x2="238.1" y2="122.0" stroke="rgb(0,0,0)"  stroke-width="1.0"/>
<line x1="235.2" y1="132.1" x2="231.3" y2="125.1" stroke="rgb(0,0,0)"  stroke-width="1.0"/>
<line x1="274.0" y1="105.8" x2="274.0" y2="71.2" stroke="rgb(0,0,0)"  stroke-width="2.0"/>
<line x1="274.0" y1="105.8" x2="256.2" y2="95.4" stroke="rgb(0,0,0)"  stroke-width="2.0"/>
<line x1="315.0" y1="128.7" x2="332.8" y2="118.2" stroke="rgb(0,0,0)"  stroke-width="2.0"/>
<line x1="315.0" y1="128.7" x2="332.9" y2="139.0" stroke="rgb(0,0,0)"  stroke-width="2.0"/>
<line x1="314.8" y1="177.2" x2="332.4" y2="187.9" stroke="rgb(0,0,0)"  stroke-width="2.0"/>
<line x1="314.8" y1="177.2" x2="314.1" y2="197.8" stroke="rgb(0,0,0)"  stroke-width="2.0"/>
<line x1="285.2" y1="51.7" x2="289.1" y2="49.5" stroke="rgb(0,0,0)"  stroke-width="2.0"/>
<line x1="232.1" y1="73.7" x2="249.8" y2="62.9" stroke="rgb(0,0,0)"  stroke-width="2.0"/>
<line x1="232.1" y1="73.7" x2="214.0" y2="63.7" stroke="rgb(0,0,0)"  stroke-width="2.0"/>
<line x1="232.1" y1="73.7" x2="231.6" y2="53.0" stroke="rgb(0,0,0)"  stroke-width="2.0"/>
<line x1="248.5" y1="265.5" x2="273.8" y2="246.3" stroke="rgb(0,0,0)"  stroke-width="2.0"/>
<line x1="253.9" y1="270.5" x2="273.4" y2="255.7" stroke="rgb(0,0,0)"  stroke-width="2.0"/>
<line x1="273.8" y1="246.3" x2="301.4" y2="267.2" stroke="rgb(0,0,0)"  stroke-width="2.0"/>
<line x1="308.0" y1="287.4" x2="298.2" y2="319.5" stroke="rgb(0,0,0)"  stroke-width="2.0"/>
<line x1="298.2" y1="319.5" x2="250.6" y2="319.2" stroke="rgb(0,0,0)"  stroke-width="2.0"/>
<line x1="250.6" y1="319.2" x2="240.2" y2="287.3" stroke="rgb(0,0,0)"  stroke-width="2.0"/>
<line x1="273.5" y1="198.8" x2="314.8" y2="177.2" stroke="rgb(0,0,0)"  stroke-width="2.0"/>
<line x1="314.8" y1="177.2" x2="315.0" y2="128.7" stroke="rgb(0,0,0)"  stroke-width="2.0"/>
<line x1="315.0" y1="128.7" x2="274.0" y2="105.8" stroke="rgb(0,0,0)"  stroke-width="2.0"/>
<line x1="274.0" y1="105.8" x2="233.3" y2="128.6" stroke="rgb(0,0,0)"  stroke-width="2.0"/>
<line x1="233.3" y1="128.6" x2="232.7" y2="175.3" stroke="rgb(0,0,0)"  stroke-width="2.0"/>
<line x1="232.7" y1="175.3" x2="273.5" y2="198.8" stroke="rgb(0,0,0)"  stroke-width="2.0"/>
<line x1="150.6" y1="177.7" x2="151.6" y2="128.3" stroke="rgb(0,0,0)"  stroke-width="2.0"/>
<line x1="151.6" y1="128.3" x2="192.2" y2="106.6" stroke="rgb(0,0,0)"  stroke-width="2.0"/>
<line x1="192.2" y1="106.6" x2="233.3" y2="128.6" stroke="rgb(0,0,0)"  stroke-width="2.0"/>
<line x1="232.7" y1="175.3" x2="192.5" y2="199.3" stroke="rgb(0,0,0)"  stroke-width="2.0"/>
<line x1="192.5" y1="199.3" x2="150.6" y2="177.7" stroke="rgb(0,0,0)"  stroke-width="2.0"/>
<line x1="190.5" y1="190.2" x2="159.2" y2="174.0" stroke="rgb(0,0,0)"  stroke-width="2.0"/>
<text x="230.120156" y="282.986226" fill="rgb(12,12,255)"  stroke="rgb(12,12,255)" stroke-width="1" font-size="16" >N</text>
<text x="305.782544" y="282.986226" fill="rgb(255,12,12)"  stroke="rgb(255,12,12)" stroke-width="1" font-size="16" >O</text>
<text x="267.951350" y="66.247174" fill="rgb(255,12,12)"  stroke="rgb(255,12,12)" stroke-width="1" font-size="16" >O</text>
<text x="226.968343" y="230.968728" fill="rgb(191,191,191)"  stroke="rgb(191,191,191)" stroke-width="1" font-size="16" >H</text>
<text x="294.354862" y="50.959936" fill="rgb(191,191,191)"  stroke="rgb(191,191,191)" stroke-width="1" font-size="16" >H</text>
<text x="170.842792" y="336.136113" fill="rgb(191,191,191)"  stroke="rgb(191,191,191)" stroke-width="1" font-size="16" >H</text>
<text x="199.989200" y="386.621742" fill="rgb(191,191,191)"  stroke="rgb(191,191,191)" stroke-width="1" font-size="16" >H</text>
<text x="170.839647" y="369.793199" fill="rgb(191,191,191)"  stroke="rgb(191,191,191)" stroke-width="1" font-size="16" >H</text>
<text x="312.098752" y="354.631783" fill="rgb(191,191,191)"  stroke="rgb(191,191,191)" stroke-width="1" font-size="16" >H</text>
<text x="276.872050" y="357.491062" fill="rgb(191,191,191)"  stroke="rgb(191,191,191)" stroke-width="1" font-size="16" >H</text>
<text x="198.866248" y="383.256034" fill="rgb(191,191,191)"  stroke="rgb(191,191,191)" stroke-width="1" font-size="16" >H</text>
<text x="255.054709" y="398.791767" fill="rgb(191,191,191)"  stroke="rgb(191,191,191)" stroke-width="1" font-size="16" >H</text>
<text x="222.473392" y="407.243785" fill="rgb(191,191,191)"  stroke="rgb(191,191,191)" stroke-width="1" font-size="16" >H</text>
<text x="238.452644" y="223.734027" fill="rgb(191,191,191)"  stroke="rgb(191,191,191)" stroke-width="1" font-size="16" >H</text>
<text x="187.520350" y="239.766753" fill="rgb(191,191,191)"  stroke="rgb(191,191,191)" stroke-width="1" font-size="16" >H</text>
<text x="75.700186" y="224.938762" fill="rgb(191,191,191)"  stroke="rgb(191,191,191)" stroke-width="1" font-size="16" >H</text>
<text x="76.149996" y="273.184780" fill="rgb(191,191,191)"  stroke="rgb(191,191,191)" stroke-width="1" font-size="16" >H</text>
<text x="134.442811" y="272.848209" fill="rgb(191,191,191)"  stroke="rgb(191,191,191)" stroke-width="1" font-size="16" >H</text>
<text x="105.393914" y="289.846610" fill="rgb(191,191,191)"  stroke="rgb(191,191,191)" stroke-width="1" font-size="16" >H</text>
<text x="63.885605" y="149.789094" fill="rgb(191,191,191)"  stroke="rgb(191,191,191)" stroke-width="1" font-size="16" >H</text>
<text x="34.000000" y="199.843787" fill="rgb(191,191,191)"  stroke="rgb(191,191,191)" stroke-width="1" font-size="16" >H</text>
<text x="34.493847" y="166.189846" fill="rgb(191,191,191)"  stroke="rgb(191,191,191)" stroke-width="1" font-size="16" >H</text>
<text x="116.912816" y="118.654717" fill="rgb(191,191,191)"  stroke="rgb(191,191,191)" stroke-width="1" font-size="16" >H</text>
<text x="146.612836" y="102.628282" fill="rgb(191,191,191)"  stroke="rgb(191,191,191)" stroke-width="1" font-size="16" >H</text>
<text x="186.218104" y="80.949344" fill="rgb(191,191,191)"  stroke="rgb(191,191,191)" stroke-width="1" font-size="16" >H</text>
<text x="215.075124" y="97.318641" fill="rgb(191,191,191)"  stroke="rgb(191,191,191)" stroke-width="1" font-size="16" >H</text>
<text x="238.965364" y="96.783902" fill="rgb(191,191,191)"  stroke="rgb(191,191,191)" stroke-width="1" font-size="16" >H</text>
<text x="338.043018" y="119.673866" fill="rgb(191,191,191)"  stroke="rgb(191,191,191)" stroke-width="1" font-size="16" >H</text>
<text x="338.140529" y="153.466210" fill="rgb(191,191,191)"  stroke="rgb(191,191,191)" stroke-width="1" font-size="16" >H</text>
<text x="337.546026" y="202.643302" fill="rgb(191,191,191)"  stroke="rgb(191,191,191)" stroke-width="1" font-size="16" >H</text>
<text x="307.720185" y="218.808140" fill="rgb(191,191,191)"  stroke="rgb(191,191,191)" stroke-width="1" font-size="16" >H</text>
<text x="254.869123" y="64.199439" fill="rgb(191,191,191)"  stroke="rgb(191,191,191)" stroke-width="1" font-size="16" >H</text>
<text x="196.588890" y="65.451356" fill="rgb(191,191,191)"  stroke="rgb(191,191,191)" stroke-width="1" font-size="16" >H</text>
<text x="225.367272" y="48.000000" fill="rgb(191,191,191)"  stroke="rgb(191,191,191)" stroke-width="1" font-size="16" >H</text>
</svg>
</g>
<text font-size="18.000000" fill ="black" font-family="sans-serif"
x="10.000000" y="20.000000" ></text>
</svg>
