<?xml version="1.0"?>
<svg version="1.1" id="topsvg"
xmlns="http://www.w3.org/2000/svg" xmlns:xlink="http://www.w3.org/1999/xlink"
xmlns:cml="http://www.xml-cml.org/schema" x="0" y="0" width="200px" height="200px" viewBox="0 0 100 100">
<title> - Open Babel Depiction</title>
<rect x="0" y="0" width="100" height="100" fill="white"/>
<g transform="translate(0,0)">
<svg width="100" height="100" x="0" y="0" viewBox="0 0 351.148 438.078"
font-family="sans-serif" stroke="rgb(0,0,0)" stroke-width="2"  stroke-linecap="round">
<line x1="135.6" y1="321.2" x2="135.9" y2="270.9" stroke="rgb(0,0,0)"  stroke-width="2.0"/>
<line x1="141.6" y1="321.3" x2="141.9" y2="270.9" stroke="rgb(0,0,0)"  stroke-width="2.0"/>
<line x1="138.9" y1="270.9" x2="182.3" y2="244.6" stroke="rgb(0,0,0)"  stroke-width="2.0"/>
<line x1="183.3" y1="193.1" x2="182.3" y2="244.6" stroke="rgb(0,0,0)"  stroke-width="2.0"/>
<line x1="138.3" y1="117.8" x2="118.5" y2="110.7" stroke="rgb(0,0,0)"  stroke-width="2.0"/>
<line x1="110.7" y1="94.0" x2="117.8" y2="74.3" stroke="rgb(0,0,0)"  stroke-width="2.0"/>
<line x1="94.0" y1="101.9" x2="74.3" y2="94.8" stroke="rgb(0,0,0)"  stroke-width="2.0"/>
<line x1="101.9" y1="118.5" x2="94.8" y2="138.3" stroke="rgb(0,0,0)"  stroke-width="2.0"/>
<line x1="178.2" y1="93.3" x2="178.2" y2="54.6" stroke="rgb(0,0,0)"  stroke-width="2.0"/>
<line x1="184.2" y1="93.3" x2="184.2" y2="54.6" stroke="rgb(0,0,0)"  stroke-width="2.0"/>
<line x1="227.2" y1="169.0" x2="271.2" y2="194.1" stroke="rgb(0,0,0)"  stroke-width="2.0"/>
<line x1="191.7" y1="187.6" x2="192.5" y2="189.0" stroke="rgb(0,0,0)"  stroke-width="1.0"/>
<line x1="198.4" y1="183.2" x2="199.8" y2="185.7" stroke="rgb(0,0,0)"  stroke-width="1.0"/>
<line x1="205.1" y1="178.8" x2="207.1" y2="182.4" stroke="rgb(0,0,0)"  stroke-width="1.0"/>
<line x1="211.8" y1="174.3" x2="214.5" y2="179.1" stroke="rgb(0,0,0)"  stroke-width="1.0"/>
<line x1="218.6" y1="169.9" x2="221.8" y2="175.8" stroke="rgb(0,0,0)"  stroke-width="1.0"/>
<line x1="225.3" y1="165.5" x2="229.1" y2="172.5" stroke="rgb(0,0,0)"  stroke-width="1.0"/>
<line x1="94.0" y1="346.9" x2="138.6" y2="321.3" stroke="rgb(0,0,0)"  stroke-width="2.0"/>
<line x1="270.6" y1="243.7" x2="269.7" y2="309.3" stroke="rgb(0,0,0)"  stroke-width="2.0"/>
<line x1="274.8" y1="243.7" x2="273.9" y2="309.3" stroke="rgb(0,0,0)"  stroke-width="2.0"/>
<line x1="266.4" y1="243.6" x2="265.5" y2="309.2" stroke="rgb(0,0,0)"  stroke-width="2.0"/>
<line x1="239.6" y1="329.8" x2="222.3" y2="317.8" stroke="rgb(0,0,0)"  stroke-width="2.0"/>
<line x1="242.9" y1="347.9" x2="230.9" y2="365.1" stroke="rgb(0,0,0)"  stroke-width="2.0"/>
<line x1="261.0" y1="344.6" x2="278.2" y2="356.6" stroke="rgb(0,0,0)"  stroke-width="2.0"/>
<line x1="257.7" y1="326.5" x2="269.7" y2="309.3" stroke="rgb(0,0,0)"  stroke-width="2.0"/>
<line x1="271.2" y1="194.1" x2="270.6" y2="243.7" stroke="rgb(0,0,0)"  stroke-width="2.0"/>
<line x1="138.6" y1="321.3" x2="157.7" y2="332.4" stroke="rgb(0,0,0)"  stroke-width="2.0"/>
<line x1="138.9" y1="270.9" x2="119.7" y2="260.0" stroke="rgb(0,0,0)"  stroke-width="2.0"/>
<line x1="183.3" y1="193.1" x2="163.2" y2="205.1" stroke="rgb(0,0,0)"  stroke-width="2.0"/>
<line x1="182.3" y1="244.6" x2="202.6" y2="256.2" stroke="rgb(0,0,0)"  stroke-width="2.0"/>
<line x1="182.3" y1="244.6" x2="202.7" y2="233.1" stroke="rgb(0,0,0)"  stroke-width="2.0"/>
<line x1="138.0" y1="169.6" x2="119.1" y2="181.0" stroke="rgb(0,0,0)"  stroke-width="2.0"/>
<line x1="117.8" y1="74.3" x2="140.8" y2="70.1" stroke="rgb(0,0,0)"  stroke-width="2.0"/>
<line x1="117.8" y1="74.3" x2="102.7" y2="56.4" stroke="rgb(0,0,0)"  stroke-width="2.0"/>
<line x1="117.8" y1="74.3" x2="125.7" y2="52.2" stroke="rgb(0,0,0)"  stroke-width="2.0"/>
<line x1="74.3" y1="94.8" x2="70.1" y2="71.7" stroke="rgb(0,0,0)"  stroke-width="2.0"/>
<line x1="74.3" y1="94.8" x2="56.4" y2="109.9" stroke="rgb(0,0,0)"  stroke-width="2.0"/>
<line x1="74.3" y1="94.8" x2="52.2" y2="86.8" stroke="rgb(0,0,0)"  stroke-width="2.0"/>
<line x1="94.8" y1="138.3" x2="71.7" y2="142.4" stroke="rgb(0,0,0)"  stroke-width="2.0"/>
<line x1="94.8" y1="138.3" x2="109.9" y2="156.1" stroke="rgb(0,0,0)"  stroke-width="2.0"/>
<line x1="94.8" y1="138.3" x2="86.8" y2="160.3" stroke="rgb(0,0,0)"  stroke-width="2.0"/>
<line x1="226.8" y1="117.9" x2="246.9" y2="105.8" stroke="rgb(0,0,0)"  stroke-width="2.0"/>
<line x1="226.8" y1="117.9" x2="226.3" y2="94.5" stroke="rgb(0,0,0)"  stroke-width="2.0"/>
<polygon points="227.193523 168.970026 246.222568 153.202627 250.262420 160.107668 " stroke-width="2.000000" fill="rgb(0,0,0)"  stroke="rgb(0,0,0)" />
<line x1="94.0" y1="346.9" x2="73.7" y2="335.2" stroke="rgb(0,0,0)"  stroke-width="2.0"/>
<line x1="94.0" y1="346.9" x2="93.9" y2="370.3" stroke="rgb(0,0,0)"  stroke-width="2.0"/>
<line x1="94.0" y1="346.9" x2="73.7" y2="358.6" stroke="rgb(0,0,0)"  stroke-width="2.0"/>
<line x1="222.3" y1="317.8" x2="224.3" y2="294.5" stroke="rgb(0,0,0)"  stroke-width="2.0"/>
<line x1="222.3" y1="317.8" x2="201.2" y2="327.8" stroke="rgb(0,0,0)"  stroke-width="2.0"/>
<line x1="222.3" y1="317.8" x2="203.1" y2="304.4" stroke="rgb(0,0,0)"  stroke-width="2.0"/>
<line x1="230.9" y1="365.1" x2="207.5" y2="363.2" stroke="rgb(0,0,0)"  stroke-width="2.0"/>
<line x1="230.9" y1="365.1" x2="240.8" y2="386.3" stroke="rgb(0,0,0)"  stroke-width="2.0"/>
<line x1="230.9" y1="365.1" x2="217.5" y2="384.4" stroke="rgb(0,0,0)"  stroke-width="2.0"/>
<line x1="278.2" y1="356.6" x2="276.3" y2="379.9" stroke="rgb(0,0,0)"  stroke-width="2.0"/>
<line x1="278.2" y1="356.6" x2="299.4" y2="346.7" stroke="rgb(0,0,0)"  stroke-width="2.0"/>
<line x1="278.2" y1="356.6" x2="297.4" y2="370.0" stroke="rgb(0,0,0)"  stroke-width="2.0"/>
<line x1="271.2" y1="194.1" x2="291.6" y2="182.5" stroke="rgb(0,0,0)"  stroke-width="2.0"/>
<line x1="271.2" y1="194.1" x2="291.4" y2="206.0" stroke="rgb(0,0,0)"  stroke-width="2.0"/>
<line x1="138.0" y1="169.6" x2="138.3" y2="117.8" stroke="rgb(0,0,0)"  stroke-width="2.0"/>
<line x1="145.2" y1="163.7" x2="145.4" y2="123.8" stroke="rgb(0,0,0)"  stroke-width="2.0"/>
<line x1="138.3" y1="117.8" x2="181.2" y2="93.3" stroke="rgb(0,0,0)"  stroke-width="2.0"/>
<line x1="181.2" y1="93.3" x2="226.8" y2="117.9" stroke="rgb(0,0,0)"  stroke-width="2.0"/>
<line x1="226.8" y1="117.9" x2="227.2" y2="169.0" stroke="rgb(0,0,0)"  stroke-width="2.0"/>
<line x1="227.2" y1="169.0" x2="183.3" y2="193.1" stroke="rgb(0,0,0)"  stroke-width="2.0"/>
<line x1="183.3" y1="193.1" x2="138.0" y2="169.6" stroke="rgb(0,0,0)"  stroke-width="2.0"/>
<text x="100.263088" y="114.263088" fill="rgb(127,153,153)"  stroke="rgb(127,153,153)" stroke-width="1" font-size="16" >Si</text>
<text x="175.246761" y="49.596770" fill="rgb(255,12,12)"  stroke="rgb(255,12,12)" stroke-width="1" font-size="16" >O</text>
<text x="244.280861" y="345.211305" fill="rgb(127,153,153)"  stroke="rgb(127,153,153)" stroke-width="1" font-size="16" >Si</text>
<text x="162.982682" y="346.919599" fill="rgb(191,191,191)"  stroke="rgb(191,191,191)" stroke-width="1" font-size="16" >H</text>
<text x="102.375292" y="261.626981" fill="rgb(191,191,191)"  stroke="rgb(191,191,191)" stroke-width="1" font-size="16" >H</text>
<text x="146.035366" y="219.740922" fill="rgb(191,191,191)"  stroke="rgb(191,191,191)" stroke-width="1" font-size="16" >H</text>
<text x="207.863973" y="270.727010" fill="rgb(191,191,191)"  stroke="rgb(191,191,191)" stroke-width="1" font-size="16" >H</text>
<text x="208.004916" y="234.658896" fill="rgb(191,191,191)"  stroke="rgb(191,191,191)" stroke-width="1" font-size="16" >H</text>
<text x="101.939024" y="195.759389" fill="rgb(191,191,191)"  stroke="rgb(191,191,191)" stroke-width="1" font-size="16" >H</text>
<text x="147.587048" y="75.787949" fill="rgb(191,191,191)"  stroke="rgb(191,191,191)" stroke-width="1" font-size="16" >H</text>
<text x="88.258955" y="54.465142" fill="rgb(191,191,191)"  stroke="rgb(191,191,191)" stroke-width="1" font-size="16" >H</text>
<text x="124.078365" y="48.000000" fill="rgb(191,191,191)"  stroke="rgb(191,191,191)" stroke-width="1" font-size="16" >H</text>
<text x="61.787949" y="66.939128" fill="rgb(191,191,191)"  stroke="rgb(191,191,191)" stroke-width="1" font-size="16" >H</text>
<text x="40.465142" y="126.267221" fill="rgb(191,191,191)"  stroke="rgb(191,191,191)" stroke-width="1" font-size="16" >H</text>
<text x="34.000000" y="90.447810" fill="rgb(191,191,191)"  stroke="rgb(191,191,191)" stroke-width="1" font-size="16" >H</text>
<text x="52.939346" y="152.742840" fill="rgb(191,191,191)"  stroke="rgb(191,191,191)" stroke-width="1" font-size="16" >H</text>
<text x="112.268161" y="174.063640" fill="rgb(191,191,191)"  stroke="rgb(191,191,191)" stroke-width="1" font-size="16" >H</text>
<text x="76.448969" y="180.529993" fill="rgb(191,191,191)"  stroke="rgb(191,191,191)" stroke-width="1" font-size="16" >H</text>
<text x="252.004748" y="107.075170" fill="rgb(191,191,191)"  stroke="rgb(191,191,191)" stroke-width="1" font-size="16" >H</text>
<text x="219.943809" y="89.468587" fill="rgb(191,191,191)"  stroke="rgb(191,191,191)" stroke-width="1" font-size="16" >H</text>
<text x="252.609898" y="158.589611" fill="rgb(191,191,191)"  stroke="rgb(191,191,191)" stroke-width="1" font-size="16" >H</text>
<text x="56.484801" y="336.695302" fill="rgb(191,191,191)"  stroke="rgb(191,191,191)" stroke-width="1" font-size="16" >H</text>
<text x="87.915412" y="391.345110" fill="rgb(191,191,191)"  stroke="rgb(191,191,191)" stroke-width="1" font-size="16" >H</text>
<text x="56.424066" y="373.093442" fill="rgb(191,191,191)"  stroke="rgb(191,191,191)" stroke-width="1" font-size="16" >H</text>
<text x="219.398817" y="289.524167" fill="rgb(191,191,191)"  stroke="rgb(191,191,191)" stroke-width="1" font-size="16" >H</text>
<text x="183.413900" y="341.288734" fill="rgb(191,191,191)"  stroke="rgb(191,191,191)" stroke-width="1" font-size="16" >H</text>
<text x="186.463215" y="305.018500" fill="rgb(191,191,191)"  stroke="rgb(191,191,191)" stroke-width="1" font-size="16" >H</text>
<text x="188.593723" y="370.093349" fill="rgb(191,191,191)"  stroke="rgb(191,191,191)" stroke-width="1" font-size="16" >H</text>
<text x="240.358291" y="406.078266" fill="rgb(191,191,191)"  stroke="rgb(191,191,191)" stroke-width="1" font-size="16" >H</text>
<text x="204.088056" y="403.028951" fill="rgb(191,191,191)"  stroke="rgb(191,191,191)" stroke-width="1" font-size="16" >H</text>
<text x="269.162905" y="400.898443" fill="rgb(191,191,191)"  stroke="rgb(191,191,191)" stroke-width="1" font-size="16" >H</text>
<text x="305.147822" y="349.133875" fill="rgb(191,191,191)"  stroke="rgb(191,191,191)" stroke-width="1" font-size="16" >H</text>
<text x="302.098507" y="385.404110" fill="rgb(191,191,191)"  stroke="rgb(191,191,191)" stroke-width="1" font-size="16" >H</text>
<text x="296.850658" y="184.095471" fill="rgb(191,191,191)"  stroke="rgb(191,191,191)" stroke-width="1" font-size="16" >H</text>
<text x="296.601001" y="220.633543" fill="rgb(191,191,191)"  stroke="rgb(191,191,191)" stroke-width="1" font-size="16" >H</text>
</svg>
</g>
<text font-size="18.000000" fill ="black" font-family="sans-serif"
x="10.000000" y="20.000000" ></text>
</svg>
