<?xml version="1.0"?>
<svg version="1.1" id="topsvg"
xmlns="http://www.w3.org/2000/svg" xmlns:xlink="http://www.w3.org/1999/xlink"
xmlns:cml="http://www.xml-cml.org/schema" x="0" y="0" width="200px" height="200px" viewBox="0 0 100 100">
<title> - Open Babel Depiction</title>
<rect x="0" y="0" width="100" height="100" fill="white"/>
<g transform="translate(0,0)">
<svg width="100" height="100" x="0" y="0" viewBox="0 0 434.579 309.636"
font-family="sans-serif" stroke="rgb(0,0,0)" stroke-width="2"  stroke-linecap="round">
<line x1="128.5" y1="121.3" x2="111.9" y2="115.2" stroke="rgb(0,0,0)"  stroke-width="2.0"/>
<line x1="104.2" y1="98.4" x2="110.4" y2="81.8" stroke="rgb(0,0,0)"  stroke-width="2.0"/>
<line x1="87.5" y1="106.1" x2="70.9" y2="99.9" stroke="rgb(0,0,0)"  stroke-width="2.0"/>
<line x1="95.2" y1="122.8" x2="89.0" y2="139.5" stroke="rgb(0,0,0)"  stroke-width="2.0"/>
<line x1="170.8" y1="65.8" x2="174.0" y2="99.7" stroke="rgb(0,0,0)"  stroke-width="2.0"/>
<line x1="164.9" y1="66.4" x2="168.0" y2="100.3" stroke="rgb(0,0,0)"  stroke-width="2.0"/>
<line x1="218.0" y1="118.8" x2="218.3" y2="120.4" stroke="rgb(0,0,0)"  stroke-width="1.0"/>
<line x1="226.1" y1="116.8" x2="226.6" y2="119.7" stroke="rgb(0,0,0)"  stroke-width="1.0"/>
<line x1="234.1" y1="114.8" x2="234.8" y2="118.9" stroke="rgb(0,0,0)"  stroke-width="1.0"/>
<line x1="242.2" y1="112.9" x2="243.1" y2="118.2" stroke="rgb(0,0,0)"  stroke-width="1.0"/>
<line x1="250.3" y1="110.9" x2="251.3" y2="117.5" stroke="rgb(0,0,0)"  stroke-width="1.0"/>
<line x1="258.3" y1="108.9" x2="259.6" y2="116.8" stroke="rgb(0,0,0)"  stroke-width="1.0"/>
<line x1="266.5" y1="113.4" x2="266.2" y2="115.0" stroke="rgb(0,0,0)"  stroke-width="1.0"/>
<line x1="272.5" y1="113.9" x2="272.0" y2="116.7" stroke="rgb(0,0,0)"  stroke-width="1.0"/>
<line x1="278.5" y1="114.3" x2="277.7" y2="118.4" stroke="rgb(0,0,0)"  stroke-width="1.0"/>
<line x1="284.5" y1="114.8" x2="283.5" y2="120.1" stroke="rgb(0,0,0)"  stroke-width="1.0"/>
<line x1="290.5" y1="115.2" x2="289.3" y2="121.8" stroke="rgb(0,0,0)"  stroke-width="1.0"/>
<line x1="296.5" y1="115.7" x2="295.1" y2="123.5" stroke="rgb(0,0,0)"  stroke-width="1.0"/>
<line x1="326.6" y1="87.4" x2="315.0" y2="69.2" stroke="rgb(0,0,0)"  stroke-width="2.0"/>
<line x1="206.7" y1="157.6" x2="208.3" y2="157.6" stroke="rgb(0,0,0)"  stroke-width="1.0"/>
<line x1="206.2" y1="150.3" x2="209.0" y2="150.4" stroke="rgb(0,0,0)"  stroke-width="1.0"/>
<line x1="205.6" y1="143.0" x2="209.8" y2="143.1" stroke="rgb(0,0,0)"  stroke-width="1.0"/>
<line x1="205.1" y1="135.8" x2="210.5" y2="135.8" stroke="rgb(0,0,0)"  stroke-width="1.0"/>
<line x1="204.5" y1="128.5" x2="211.2" y2="128.6" stroke="rgb(0,0,0)"  stroke-width="1.0"/>
<line x1="204.0" y1="121.2" x2="212.0" y2="121.3" stroke="rgb(0,0,0)"  stroke-width="1.0"/>
<line x1="207.4" y1="166.7" x2="246.1" y2="189.8" stroke="rgb(0,0,0)"  stroke-width="2.0"/>
<line x1="174.7" y1="183.2" x2="175.4" y2="184.6" stroke="rgb(0,0,0)"  stroke-width="1.0"/>
<line x1="180.9" y1="179.2" x2="182.2" y2="181.7" stroke="rgb(0,0,0)"  stroke-width="1.0"/>
<line x1="187.0" y1="175.2" x2="189.0" y2="178.8" stroke="rgb(0,0,0)"  stroke-width="1.0"/>
<line x1="193.2" y1="171.2" x2="195.7" y2="176.0" stroke="rgb(0,0,0)"  stroke-width="1.0"/>
<line x1="199.4" y1="167.2" x2="202.5" y2="173.1" stroke="rgb(0,0,0)"  stroke-width="1.0"/>
<line x1="205.5" y1="163.2" x2="209.3" y2="170.2" stroke="rgb(0,0,0)"  stroke-width="1.0"/>
<line x1="342.8" y1="79.0" x2="339.1" y2="86.7" stroke="rgb(0,0,0)"  stroke-width="2.0"/>
<line x1="244.6" y1="187.2" x2="285.3" y2="163.6" stroke="rgb(0,0,0)"  stroke-width="2.0"/>
<line x1="247.6" y1="192.4" x2="288.3" y2="168.8" stroke="rgb(0,0,0)"  stroke-width="2.0"/>
<line x1="167.0" y1="188.1" x2="151.5" y2="200.7" stroke="rgb(0,0,0)"  stroke-width="2.0"/>
<line x1="179.7" y1="232.9" x2="163.8" y2="244.9" stroke="rgb(0,0,0)"  stroke-width="2.0"/>
<line x1="179.7" y1="232.9" x2="180.6" y2="252.8" stroke="rgb(0,0,0)"  stroke-width="2.0"/>
<line x1="127.7" y1="167.6" x2="111.6" y2="177.2" stroke="rgb(0,0,0)"  stroke-width="2.0"/>
<line x1="110.4" y1="81.8" x2="130.0" y2="78.4" stroke="rgb(0,0,0)"  stroke-width="2.0"/>
<line x1="110.4" y1="81.8" x2="97.7" y2="66.5" stroke="rgb(0,0,0)"  stroke-width="2.0"/>
<line x1="110.4" y1="81.8" x2="117.3" y2="63.1" stroke="rgb(0,0,0)"  stroke-width="2.0"/>
<line x1="70.9" y1="99.9" x2="67.5" y2="80.3" stroke="rgb(0,0,0)"  stroke-width="2.0"/>
<line x1="70.9" y1="99.9" x2="55.5" y2="112.7" stroke="rgb(0,0,0)"  stroke-width="2.0"/>
<line x1="70.9" y1="99.9" x2="52.2" y2="93.0" stroke="rgb(0,0,0)"  stroke-width="2.0"/>
<line x1="89.0" y1="139.5" x2="69.4" y2="142.8" stroke="rgb(0,0,0)"  stroke-width="2.0"/>
<line x1="89.0" y1="139.5" x2="101.7" y2="154.8" stroke="rgb(0,0,0)"  stroke-width="2.0"/>
<line x1="89.0" y1="139.5" x2="82.1" y2="158.1" stroke="rgb(0,0,0)"  stroke-width="2.0"/>
<line x1="244.3" y1="105.8" x2="244.7" y2="85.9" stroke="rgb(0,0,0)"  stroke-width="2.0"/>
<line x1="244.3" y1="105.8" x2="261.3" y2="95.4" stroke="rgb(0,0,0)"  stroke-width="2.0"/>
<line x1="259.0" y1="112.9" x2="239.2" y2="110.0" stroke="rgb(0,0,0)"  stroke-width="2.0"/>
<line x1="308.1" y1="244.8" x2="319.8" y2="259.5" stroke="rgb(0,0,0)"  stroke-width="2.0"/>
<line x1="329.7" y1="203.9" x2="348.3" y2="206.5" stroke="rgb(0,0,0)"  stroke-width="2.0"/>
<line x1="207.4" y1="166.7" x2="224.8" y2="157.0" stroke="rgb(0,0,0)"  stroke-width="2.0"/>
<line x1="315.0" y1="69.2" x2="324.2" y2="51.5" stroke="rgb(0,0,0)"  stroke-width="2.0"/>
<line x1="315.0" y1="69.2" x2="295.1" y2="70.0" stroke="rgb(0,0,0)"  stroke-width="2.0"/>
<line x1="315.0" y1="69.2" x2="304.3" y2="52.3" stroke="rgb(0,0,0)"  stroke-width="2.0"/>
<line x1="246.1" y1="189.8" x2="246.0" y2="208.5" stroke="rgb(0,0,0)"  stroke-width="2.0"/>
<line x1="286.8" y1="166.2" x2="303.0" y2="175.5" stroke="rgb(0,0,0)"  stroke-width="2.0"/>
<line x1="286.8" y1="166.2" x2="286.7" y2="147.4" stroke="rgb(0,0,0)"  stroke-width="2.0"/>
<line x1="244.3" y1="105.8" x2="259.0" y2="112.9" stroke="rgb(0,0,0)"  stroke-width="2.0"/>
<line x1="259.0" y1="112.9" x2="208.0" y2="121.3" stroke="rgb(0,0,0)"  stroke-width="2.0"/>
<line x1="208.0" y1="121.3" x2="244.3" y2="105.8" stroke="rgb(0,0,0)"  stroke-width="2.0"/>
<line x1="322.2" y1="104.8" x2="295.8" y2="119.6" stroke="rgb(0,0,0)"  stroke-width="2.0"/>
<line x1="295.8" y1="119.6" x2="319.6" y2="157.2" stroke="rgb(0,0,0)"  stroke-width="2.0"/>
<line x1="319.6" y1="157.2" x2="330.5" y2="111.1" stroke="rgb(0,0,0)"  stroke-width="2.0"/>
<line x1="381.8" y1="135.7" x2="295.8" y2="119.6" stroke="rgb(0,0,0)"  stroke-width="2.0"/>
<line x1="319.6" y1="157.2" x2="382.0" y2="141.3" stroke="rgb(0,0,0)"  stroke-width="2.0"/>
<line x1="344.4" y1="105.5" x2="383.7" y2="131.0" stroke="rgb(0,0,0)"  stroke-width="2.0"/>
<line x1="128.5" y1="121.3" x2="171.0" y2="100.0" stroke="rgb(0,0,0)"  stroke-width="2.0"/>
<line x1="171.0" y1="100.0" x2="208.0" y2="121.3" stroke="rgb(0,0,0)"  stroke-width="2.0"/>
<line x1="208.0" y1="121.3" x2="207.4" y2="166.7" stroke="rgb(0,0,0)"  stroke-width="2.0"/>
<line x1="207.4" y1="166.7" x2="167.0" y2="188.1" stroke="rgb(0,0,0)"  stroke-width="2.0"/>
<line x1="167.0" y1="188.1" x2="127.7" y2="167.6" stroke="rgb(0,0,0)"  stroke-width="2.0"/>
<line x1="127.7" y1="167.6" x2="128.5" y2="121.3" stroke="rgb(0,0,0)"  stroke-width="2.0"/>
<line x1="135.0" y1="161.8" x2="135.6" y2="127.5" stroke="rgb(0,0,0)"  stroke-width="2.0"/>
<line x1="167.0" y1="188.1" x2="179.7" y2="232.9" stroke="rgb(0,0,0)"  stroke-width="2.0"/>
<line x1="179.7" y1="232.9" x2="216.8" y2="256.0" stroke="rgb(0,0,0)"  stroke-width="2.0"/>
<line x1="216.8" y1="256.0" x2="265.3" y2="256.1" stroke="rgb(0,0,0)"  stroke-width="2.0"/>
<line x1="216.8" y1="251.8" x2="265.3" y2="251.9" stroke="rgb(0,0,0)"  stroke-width="2.0"/>
<line x1="216.7" y1="260.2" x2="265.3" y2="260.3" stroke="rgb(0,0,0)"  stroke-width="2.0"/>
<line x1="265.3" y1="256.1" x2="308.1" y2="244.8" stroke="rgb(0,0,0)"  stroke-width="2.0"/>
<line x1="308.1" y1="244.8" x2="329.7" y2="203.9" stroke="rgb(0,0,0)"  stroke-width="2.0"/>
<line x1="304.6" y1="236.1" x2="320.6" y2="205.9" stroke="rgb(0,0,0)"  stroke-width="2.0"/>
<line x1="329.7" y1="203.9" x2="319.6" y2="157.2" stroke="rgb(0,0,0)"  stroke-width="2.0"/>
<line x1="295.8" y1="119.6" x2="259.0" y2="112.9" stroke="rgb(0,0,0)"  stroke-width="2.0"/>
<text x="93.705760" y="118.633321" fill="rgb(127,153,153)"  stroke="rgb(127,153,153)" stroke-width="1" font-size="16" >Si</text>
<text x="160.637623" y="61.138792" fill="rgb(255,12,12)"  stroke="rgb(255,12,12)" stroke-width="1" font-size="16" >O</text>
<text x="315.522791" y="106.421386" fill="rgb(239,142,160)"  stroke="rgb(239,142,160)" stroke-width="1" font-size="16" >Co</text>
<text x="388.579390" y="146.108637" fill="rgb(17,127,178)"  stroke="rgb(17,127,178)" stroke-width="1" font-size="16" >Xx</text>
<text x="342.389360" y="75.239425" fill="rgb(17,127,178)"  stroke="rgb(17,127,178)" stroke-width="1" font-size="16" >Xx</text>
<text x="135.464492" y="216.923389" fill="rgb(191,191,191)"  stroke="rgb(191,191,191)" stroke-width="1" font-size="16" >H</text>
<text x="147.402452" y="260.681760" fill="rgb(191,191,191)"  stroke="rgb(191,191,191)" stroke-width="1" font-size="16" >H</text>
<text x="175.146279" y="273.773155" fill="rgb(191,191,191)"  stroke="rgb(191,191,191)" stroke-width="1" font-size="16" >H</text>
<text x="94.392694" y="191.813942" fill="rgb(191,191,191)"  stroke="rgb(191,191,191)" stroke-width="1" font-size="16" >H</text>
<text x="136.841568" y="84.262838" fill="rgb(191,191,191)"  stroke="rgb(191,191,191)" stroke-width="1" font-size="16" >H</text>
<text x="83.385852" y="64.452812" fill="rgb(191,191,191)"  stroke="rgb(191,191,191)" stroke-width="1" font-size="16" >H</text>
<text x="115.832372" y="58.926489" fill="rgb(191,191,191)"  stroke="rgb(191,191,191)" stroke-width="1" font-size="16" >H</text>
<text x="59.338319" y="75.493919" fill="rgb(191,191,191)"  stroke="rgb(191,191,191)" stroke-width="1" font-size="16" >H</text>
<text x="39.523281" y="128.947777" fill="rgb(191,191,191)"  stroke="rgb(191,191,191)" stroke-width="1" font-size="16" >H</text>
<text x="34.000000" y="96.500739" fill="rgb(191,191,191)"  stroke="rgb(191,191,191)" stroke-width="1" font-size="16" >H</text>
<text x="50.569759" y="152.999601" fill="rgb(191,191,191)"  stroke="rgb(191,191,191)" stroke-width="1" font-size="16" >H</text>
<text x="104.024787" y="172.811484" fill="rgb(191,191,191)"  stroke="rgb(191,191,191)" stroke-width="1" font-size="16" >H</text>
<text x="71.578075" y="178.336680" fill="rgb(191,191,191)"  stroke="rgb(191,191,191)" stroke-width="1" font-size="16" >H</text>
<text x="239.028037" y="80.923170" fill="rgb(191,191,191)"  stroke="rgb(191,191,191)" stroke-width="1" font-size="16" >H</text>
<text x="266.333840" y="96.609677" fill="rgb(191,191,191)"  stroke="rgb(191,191,191)" stroke-width="1" font-size="16" >H</text>
<text x="220.379653" y="116.209589" fill="rgb(191,191,191)"  stroke="rgb(191,191,191)" stroke-width="1" font-size="16" >H</text>
<text x="321.904345" y="277.635811" fill="rgb(191,191,191)"  stroke="rgb(191,191,191)" stroke-width="1" font-size="16" >H</text>
<text x="355.191810" y="216.229040" fill="rgb(191,191,191)"  stroke="rgb(191,191,191)" stroke-width="1" font-size="16" >H</text>
<text x="230.118647" y="158.613822" fill="rgb(191,191,191)"  stroke="rgb(191,191,191)" stroke-width="1" font-size="16" >H</text>
<text x="324.220042" y="48.000000" fill="rgb(191,191,191)"  stroke="rgb(191,191,191)" stroke-width="1" font-size="16" >H</text>
<text x="276.079752" y="78.536260" fill="rgb(191,191,191)"  stroke="rgb(191,191,191)" stroke-width="1" font-size="16" >H</text>
<text x="291.334838" y="49.371225" fill="rgb(191,191,191)"  stroke="rgb(191,191,191)" stroke-width="1" font-size="16" >H</text>
<text x="239.920254" y="229.530638" fill="rgb(191,191,191)"  stroke="rgb(191,191,191)" stroke-width="1" font-size="16" >H</text>
<text x="308.311448" y="189.999650" fill="rgb(191,191,191)"  stroke="rgb(191,191,191)" stroke-width="1" font-size="16" >H</text>
<text x="280.716389" y="142.442055" fill="rgb(191,191,191)"  stroke="rgb(191,191,191)" stroke-width="1" font-size="16" >H</text>
</svg>
</g>
<text font-size="18.000000" fill ="black" font-family="sans-serif"
x="10.000000" y="20.000000" ></text>
</svg>
