<?xml version="1.0"?>
<svg version="1.1" id="topsvg"
xmlns="http://www.w3.org/2000/svg" xmlns:xlink="http://www.w3.org/1999/xlink"
xmlns:cml="http://www.xml-cml.org/schema" x="0" y="0" width="200px" height="200px" viewBox="0 0 100 100">
<title> - Open Babel Depiction</title>
<rect x="0" y="0" width="100" height="100" fill="white"/>
<g transform="translate(0,0)">
<svg width="100" height="100" x="0" y="0" viewBox="0 0 227.365 284.526"
font-family="sans-serif" stroke="rgb(0,0,0)" stroke-width="2"  stroke-linecap="round">
<line x1="122.5" y1="209.2" x2="114.3" y2="172.1" stroke="rgb(0,0,0)"  stroke-width="2.0"/>
<line x1="115.7" y1="230.7" x2="110.3" y2="235.7" stroke="rgb(0,0,0)"  stroke-width="2.0"/>
<line x1="137.7" y1="225.8" x2="144.8" y2="228.1" stroke="rgb(0,0,0)"  stroke-width="2.0"/>
<line x1="114.3" y1="172.1" x2="134.3" y2="181.3" stroke="rgb(0,0,0)"  stroke-width="2.0"/>
<line x1="70.6" y1="149.4" x2="51.7" y2="160.9" stroke="rgb(0,0,0)"  stroke-width="2.0"/>
<line x1="70.6" y1="149.4" x2="51.3" y2="138.6" stroke="rgb(0,0,0)"  stroke-width="2.0"/>
<line x1="70.6" y1="98.9" x2="51.6" y2="87.7" stroke="rgb(0,0,0)"  stroke-width="2.0"/>
<line x1="70.6" y1="98.9" x2="70.9" y2="76.8" stroke="rgb(0,0,0)"  stroke-width="2.0"/>
<line x1="114.0" y1="75.1" x2="114.3" y2="53.0" stroke="rgb(0,0,0)"  stroke-width="2.0"/>
<line x1="114.0" y1="75.1" x2="133.2" y2="64.2" stroke="rgb(0,0,0)"  stroke-width="2.0"/>
<line x1="156.1" y1="99.7" x2="175.1" y2="88.5" stroke="rgb(0,0,0)"  stroke-width="2.0"/>
<line x1="156.1" y1="99.7" x2="156.1" y2="77.6" stroke="rgb(0,0,0)"  stroke-width="2.0"/>
<line x1="157.1" y1="149.4" x2="176.2" y2="160.6" stroke="rgb(0,0,0)"  stroke-width="2.0"/>
<line x1="157.1" y1="149.4" x2="156.6" y2="171.5" stroke="rgb(0,0,0)"  stroke-width="2.0"/>
<line x1="70.6" y1="149.4" x2="70.6" y2="98.9" stroke="rgb(0,0,0)"  stroke-width="2.0"/>
<line x1="70.6" y1="98.9" x2="114.0" y2="75.1" stroke="rgb(0,0,0)"  stroke-width="2.0"/>
<line x1="114.0" y1="75.1" x2="156.1" y2="99.7" stroke="rgb(0,0,0)"  stroke-width="2.0"/>
<line x1="156.1" y1="99.7" x2="157.1" y2="149.4" stroke="rgb(0,0,0)"  stroke-width="2.0"/>
<line x1="157.1" y1="149.4" x2="114.3" y2="172.1" stroke="rgb(0,0,0)"  stroke-width="2.0"/>
<line x1="114.3" y1="172.1" x2="70.6" y2="149.4" stroke="rgb(0,0,0)"  stroke-width="2.0"/>
<text x="119.334186" y="229.937652" fill="rgb(12,12,255)"  stroke="rgb(12,12,255)" stroke-width="1" font-size="16" >N</text>
<text x="94.684240" y="252.525787" fill="rgb(191,191,191)"  stroke="rgb(191,191,191)" stroke-width="1" font-size="16" >H</text>
<text x="151.221776" y="239.991027" fill="rgb(191,191,191)"  stroke="rgb(191,191,191)" stroke-width="1" font-size="16" >H</text>
<text x="140.111989" y="194.789787" fill="rgb(191,191,191)"  stroke="rgb(191,191,191)" stroke-width="1" font-size="16" >H</text>
<text x="34.608282" y="175.613511" fill="rgb(191,191,191)"  stroke="rgb(191,191,191)" stroke-width="1" font-size="16" >H</text>
<text x="34.000000" y="140.208206" fill="rgb(191,191,191)"  stroke="rgb(191,191,191)" stroke-width="1" font-size="16" >H</text>
<text x="34.361674" y="89.065376" fill="rgb(191,191,191)"  stroke="rgb(191,191,191)" stroke-width="1" font-size="16" >H</text>
<text x="65.112623" y="71.851434" fill="rgb(191,191,191)"  stroke="rgb(191,191,191)" stroke-width="1" font-size="16" >H</text>
<text x="108.470161" y="48.000000" fill="rgb(191,191,191)"  stroke="rgb(191,191,191)" stroke-width="1" font-size="16" >H</text>
<text x="138.536005" y="65.823310" fill="rgb(191,191,191)"  stroke="rgb(191,191,191)" stroke-width="1" font-size="16" >H</text>
<text x="180.317591" y="89.903756" fill="rgb(191,191,191)"  stroke="rgb(191,191,191)" stroke-width="1" font-size="16" >H</text>
<text x="150.040180" y="72.604150" fill="rgb(191,191,191)"  stroke="rgb(191,191,191)" stroke-width="1" font-size="16" >H</text>
<text x="181.365181" y="175.195665" fill="rgb(191,191,191)"  stroke="rgb(191,191,191)" stroke-width="1" font-size="16" >H</text>
<text x="150.336873" y="192.478392" fill="rgb(191,191,191)"  stroke="rgb(191,191,191)" stroke-width="1" font-size="16" >H</text>
</svg>
</g>
<text font-size="18.000000" fill ="black" font-family="sans-serif"
x="10.000000" y="20.000000" ></text>
</svg>
