<?xml version="1.0"?>
<svg version="1.1" id="topsvg"
xmlns="http://www.w3.org/2000/svg" xmlns:xlink="http://www.w3.org/1999/xlink"
xmlns:cml="http://www.xml-cml.org/schema" x="0" y="0" width="200px" height="200px" viewBox="0 0 100 100">
<title> - Open Babel Depiction</title>
<rect x="0" y="0" width="100" height="100" fill="white"/>
<g transform="translate(0,0)">
<svg width="100" height="100" x="0" y="0" viewBox="0 0 320.743 459.382"
font-family="sans-serif" stroke="rgb(0,0,0)" stroke-width="2"  stroke-linecap="round">
<line x1="219.3" y1="339.8" x2="204.5" y2="387.0" stroke="rgb(0,0,0)"  stroke-width="2.0"/>
<line x1="170.0" y1="339.6" x2="157.8" y2="356.7" stroke="rgb(0,0,0)"  stroke-width="2.0"/>
<line x1="170.0" y1="339.6" x2="149.2" y2="336.6" stroke="rgb(0,0,0)"  stroke-width="2.0"/>
<line x1="246.9" y1="379.1" x2="219.3" y2="339.8" stroke="rgb(0,0,0)"  stroke-width="2.0"/>
<line x1="246.9" y1="379.1" x2="238.1" y2="398.1" stroke="rgb(0,0,0)"  stroke-width="2.0"/>
<line x1="246.9" y1="379.1" x2="267.8" y2="377.2" stroke="rgb(0,0,0)"  stroke-width="2.0"/>
<line x1="246.9" y1="379.1" x2="259.0" y2="396.2" stroke="rgb(0,0,0)"  stroke-width="2.0"/>
<line x1="204.5" y1="387.0" x2="184.1" y2="391.5" stroke="rgb(0,0,0)"  stroke-width="2.0"/>
<line x1="204.5" y1="387.0" x2="218.8" y2="402.4" stroke="rgb(0,0,0)"  stroke-width="2.0"/>
<line x1="204.5" y1="387.0" x2="198.3" y2="407.0" stroke="rgb(0,0,0)"  stroke-width="2.0"/>
<line x1="194.1" y1="219.4" x2="194.3" y2="266.1" stroke="rgb(0,0,0)"  stroke-width="2.0"/>
<line x1="153.0" y1="195.7" x2="111.7" y2="214.0" stroke="rgb(0,0,0)"  stroke-width="2.0"/>
<polygon points="153.043813 195.682088 149.193051 147.694444 157.193012 147.719327 " stroke-width="2.000000" fill="rgb(0,0,0)"  stroke="rgb(0,0,0)" />
<line x1="153.0" y1="195.7" x2="171.2" y2="185.2" stroke="rgb(0,0,0)"  stroke-width="2.0"/>
<line x1="111.7" y1="214.0" x2="111.5" y2="233.8" stroke="rgb(0,0,0)"  stroke-width="2.0"/>
<line x1="112.1" y1="123.4" x2="69.6" y2="148.5" stroke="rgb(0,0,0)"  stroke-width="2.0"/>
<line x1="69.6" y1="148.5" x2="51.3" y2="138.1" stroke="rgb(0,0,0)"  stroke-width="2.0"/>
<line x1="69.6" y1="148.5" x2="69.7" y2="169.4" stroke="rgb(0,0,0)"  stroke-width="2.0"/>
<line x1="69.6" y1="148.5" x2="51.5" y2="159.1" stroke="rgb(0,0,0)"  stroke-width="2.0"/>
<line x1="114.0" y1="90.8" x2="115.1" y2="123.3" stroke="rgb(0,0,0)"  stroke-width="2.0"/>
<line x1="108.0" y1="91.0" x2="109.1" y2="123.5" stroke="rgb(0,0,0)"  stroke-width="2.0"/>
<polygon points="153.193031 147.706885 110.024583 126.893334 114.088341 120.002335 " stroke-width="2.000000" fill="rgb(0,0,0)"  stroke="rgb(0,0,0)" />
<line x1="153.2" y1="147.7" x2="153.4" y2="92.1" stroke="rgb(0,0,0)"  stroke-width="2.0"/>
<line x1="201.8" y1="85.9" x2="191.7" y2="70.1" stroke="rgb(0,0,0)"  stroke-width="2.0"/>
<line x1="202.8" y1="108.4" x2="194.2" y2="125.1" stroke="rgb(0,0,0)"  stroke-width="2.0"/>
<line x1="191.7" y1="70.1" x2="201.4" y2="51.5" stroke="rgb(0,0,0)"  stroke-width="2.0"/>
<line x1="191.7" y1="70.1" x2="170.8" y2="71.1" stroke="rgb(0,0,0)"  stroke-width="2.0"/>
<line x1="191.7" y1="70.1" x2="180.5" y2="52.5" stroke="rgb(0,0,0)"  stroke-width="2.0"/>
<line x1="236.3" y1="147.4" x2="253.3" y2="137.2" stroke="rgb(0,0,0)"  stroke-width="2.0"/>
<line x1="236.1" y1="196.1" x2="253.1" y2="206.1" stroke="rgb(0,0,0)"  stroke-width="2.0"/>
<line x1="153.4" y1="92.1" x2="171.6" y2="81.7" stroke="rgb(0,0,0)"  stroke-width="2.0"/>
<line x1="153.4" y1="92.1" x2="135.3" y2="81.6" stroke="rgb(0,0,0)"  stroke-width="2.0"/>
<line x1="153.4" y1="92.1" x2="153.5" y2="71.2" stroke="rgb(0,0,0)"  stroke-width="2.0"/>
<line x1="71.2" y1="191.9" x2="113.0" y2="211.3" stroke="rgb(0,0,0)"  stroke-width="2.0"/>
<line x1="68.7" y1="197.3" x2="110.4" y2="216.7" stroke="rgb(0,0,0)"  stroke-width="2.0"/>
<line x1="69.9" y1="194.6" x2="68.2" y2="174.9" stroke="rgb(0,0,0)"  stroke-width="2.0"/>
<line x1="69.9" y1="194.6" x2="53.8" y2="205.9" stroke="rgb(0,0,0)"  stroke-width="2.0"/>
<line x1="170.0" y1="339.6" x2="158.6" y2="306.8" stroke="rgb(0,0,0)"  stroke-width="2.0"/>
<line x1="164.9" y1="287.0" x2="194.3" y2="266.1" stroke="rgb(0,0,0)"  stroke-width="2.0"/>
<line x1="194.3" y1="266.1" x2="219.9" y2="284.6" stroke="rgb(0,0,0)"  stroke-width="2.0"/>
<line x1="195.0" y1="275.4" x2="214.6" y2="289.7" stroke="rgb(0,0,0)"  stroke-width="2.0"/>
<line x1="228.9" y1="306.3" x2="219.3" y2="339.8" stroke="rgb(0,0,0)"  stroke-width="2.0"/>
<line x1="219.3" y1="339.8" x2="170.0" y2="339.6" stroke="rgb(0,0,0)"  stroke-width="2.0"/>
<line x1="153.2" y1="147.7" x2="153.0" y2="195.7" stroke="rgb(0,0,0)"  stroke-width="2.0"/>
<line x1="153.0" y1="195.7" x2="194.1" y2="219.4" stroke="rgb(0,0,0)"  stroke-width="2.0"/>
<line x1="194.1" y1="219.4" x2="236.1" y2="196.1" stroke="rgb(0,0,0)"  stroke-width="2.0"/>
<line x1="195.9" y1="210.2" x2="227.3" y2="192.7" stroke="rgb(0,0,0)"  stroke-width="2.0"/>
<line x1="236.1" y1="196.1" x2="236.3" y2="147.4" stroke="rgb(0,0,0)"  stroke-width="2.0"/>
<line x1="236.3" y1="147.4" x2="194.2" y2="125.1" stroke="rgb(0,0,0)"  stroke-width="2.0"/>
<line x1="227.6" y1="150.9" x2="196.1" y2="134.2" stroke="rgb(0,0,0)"  stroke-width="2.0"/>
<line x1="194.2" y1="125.1" x2="153.2" y2="147.7" stroke="rgb(0,0,0)"  stroke-width="2.0"/>
<text x="148.361377" y="302.556532" fill="rgb(255,12,12)"  stroke="rgb(255,12,12)" stroke-width="1" font-size="16" >O</text>
<text x="226.421486" y="301.759644" fill="rgb(12,12,255)"  stroke="rgb(12,12,255)" stroke-width="1" font-size="16" >N</text>
<text x="104.551582" y="85.898219" fill="rgb(255,12,12)"  stroke="rgb(255,12,12)" stroke-width="1" font-size="16" >O</text>
<text x="202.803755" y="104.909239" fill="rgb(255,12,12)"  stroke="rgb(255,12,12)" stroke-width="1" font-size="16" >O</text>
<text x="144.195970" y="375.241615" fill="rgb(191,191,191)"  stroke="rgb(191,191,191)" stroke-width="1" font-size="16" >H</text>
<text x="130.337737" y="342.743821" fill="rgb(191,191,191)"  stroke="rgb(191,191,191)" stroke-width="1" font-size="16" >H</text>
<text x="226.634201" y="417.902114" fill="rgb(191,191,191)"  stroke="rgb(191,191,191)" stroke-width="1" font-size="16" >H</text>
<text x="274.742747" y="384.023258" fill="rgb(191,191,191)"  stroke="rgb(191,191,191)" stroke-width="1" font-size="16" >H</text>
<text x="260.468609" y="414.847905" fill="rgb(191,191,191)"  stroke="rgb(191,191,191)" stroke-width="1" font-size="16" >H</text>
<text x="165.397638" y="402.396132" fill="rgb(191,191,191)"  stroke="rgb(191,191,191)" stroke-width="1" font-size="16" >H</text>
<text x="221.560786" y="419.943544" fill="rgb(191,191,191)"  stroke="rgb(191,191,191)" stroke-width="1" font-size="16" >H</text>
<text x="188.412147" y="427.382225" fill="rgb(191,191,191)"  stroke="rgb(191,191,191)" stroke-width="1" font-size="16" >H</text>
<text x="176.490574" y="186.744248" fill="rgb(191,191,191)"  stroke="rgb(191,191,191)" stroke-width="1" font-size="16" >H</text>
<text x="105.418316" y="254.781346" fill="rgb(191,191,191)"  stroke="rgb(191,191,191)" stroke-width="1" font-size="16" >H</text>
<text x="34.000000" y="139.715151" fill="rgb(191,191,191)"  stroke="rgb(191,191,191)" stroke-width="1" font-size="16" >H</text>
<text x="63.843617" y="190.427077" fill="rgb(191,191,191)"  stroke="rgb(191,191,191)" stroke-width="1" font-size="16" >H</text>
<text x="34.282562" y="173.686077" fill="rgb(191,191,191)"  stroke="rgb(191,191,191)" stroke-width="1" font-size="16" >H</text>
<text x="201.406820" y="48.000000" fill="rgb(191,191,191)"  stroke="rgb(191,191,191)" stroke-width="1" font-size="16" >H</text>
<text x="151.793393" y="79.634235" fill="rgb(191,191,191)"  stroke="rgb(191,191,191)" stroke-width="1" font-size="16" >H</text>
<text x="167.467642" y="49.495356" fill="rgb(191,191,191)"  stroke="rgb(191,191,191)" stroke-width="1" font-size="16" >H</text>
<text x="258.424003" y="138.553155" fill="rgb(191,191,191)"  stroke="rgb(191,191,191)" stroke-width="1" font-size="16" >H</text>
<text x="258.262086" y="220.731048" fill="rgb(191,191,191)"  stroke="rgb(191,191,191)" stroke-width="1" font-size="16" >H</text>
<text x="176.903305" y="83.266266" fill="rgb(191,191,191)"  stroke="rgb(191,191,191)" stroke-width="1" font-size="16" >H</text>
<text x="118.063756" y="83.031327" fill="rgb(191,191,191)"  stroke="rgb(191,191,191)" stroke-width="1" font-size="16" >H</text>
<text x="147.551790" y="66.163334" fill="rgb(191,191,191)"  stroke="rgb(191,191,191)" stroke-width="1" font-size="16" >H</text>
<text x="61.062446" y="169.942926" fill="rgb(191,191,191)"  stroke="rgb(191,191,191)" stroke-width="1" font-size="16" >H</text>
<text x="37.120880" y="221.394592" fill="rgb(191,191,191)"  stroke="rgb(191,191,191)" stroke-width="1" font-size="16" >H</text>
</svg>
</g>
<text font-size="18.000000" fill ="black" font-family="sans-serif"
x="10.000000" y="20.000000" ></text>
</svg>
