<?xml version="1.0"?>
<svg version="1.1" id="topsvg"
xmlns="http://www.w3.org/2000/svg" xmlns:xlink="http://www.w3.org/1999/xlink"
xmlns:cml="http://www.xml-cml.org/schema" x="0" y="0" width="200px" height="200px" viewBox="0 0 100 100">
<title> - Open Babel Depiction</title>
<rect x="0" y="0" width="100" height="100" fill="white"/>
<g transform="translate(0,0)">
<svg width="100" height="100" x="0" y="0" viewBox="0 0 308.683 318.998"
font-family="sans-serif" stroke="rgb(0,0,0)" stroke-width="2"  stroke-linecap="round">
<line x1="115.1" y1="184.2" x2="116.0" y2="219.9" stroke="rgb(0,0,0)"  stroke-width="2.0"/>
<line x1="109.1" y1="184.3" x2="110.0" y2="220.0" stroke="rgb(0,0,0)"  stroke-width="2.0"/>
<line x1="113.0" y1="220.0" x2="70.2" y2="244.2" stroke="rgb(0,0,0)"  stroke-width="2.0"/>
<line x1="154.1" y1="147.0" x2="123.0" y2="164.8" stroke="rgb(0,0,0)"  stroke-width="2.0"/>
<line x1="113.0" y1="220.0" x2="130.9" y2="230.0" stroke="rgb(0,0,0)"  stroke-width="2.0"/>
<line x1="70.2" y1="244.2" x2="51.5" y2="233.2" stroke="rgb(0,0,0)"  stroke-width="2.0"/>
<line x1="70.2" y1="244.2" x2="70.1" y2="266.0" stroke="rgb(0,0,0)"  stroke-width="2.0"/>
<line x1="70.2" y1="244.2" x2="51.3" y2="255.0" stroke="rgb(0,0,0)"  stroke-width="2.0"/>
<line x1="154.1" y1="147.0" x2="173.0" y2="136.2" stroke="rgb(0,0,0)"  stroke-width="2.0"/>
<line x1="153.8" y1="98.7" x2="135.0" y2="87.8" stroke="rgb(0,0,0)"  stroke-width="2.0"/>
<line x1="153.8" y1="98.7" x2="154.0" y2="77.0" stroke="rgb(0,0,0)"  stroke-width="2.0"/>
<line x1="196.4" y1="74.8" x2="196.5" y2="53.0" stroke="rgb(0,0,0)"  stroke-width="2.0"/>
<line x1="196.4" y1="74.8" x2="215.3" y2="63.8" stroke="rgb(0,0,0)"  stroke-width="2.0"/>
<line x1="238.2" y1="98.4" x2="256.9" y2="87.4" stroke="rgb(0,0,0)"  stroke-width="2.0"/>
<line x1="238.2" y1="98.4" x2="257.1" y2="109.2" stroke="rgb(0,0,0)"  stroke-width="2.0"/>
<line x1="238.6" y1="148.4" x2="257.4" y2="159.3" stroke="rgb(0,0,0)"  stroke-width="2.0"/>
<line x1="238.6" y1="148.4" x2="238.5" y2="170.2" stroke="rgb(0,0,0)"  stroke-width="2.0"/>
<line x1="196.1" y1="172.4" x2="195.8" y2="194.2" stroke="rgb(0,0,0)"  stroke-width="2.0"/>
<line x1="196.1" y1="172.4" x2="177.0" y2="183.0" stroke="rgb(0,0,0)"  stroke-width="2.0"/>
<line x1="153.8" y1="98.7" x2="196.4" y2="74.8" stroke="rgb(0,0,0)"  stroke-width="2.0"/>
<line x1="196.4" y1="74.8" x2="238.2" y2="98.4" stroke="rgb(0,0,0)"  stroke-width="2.0"/>
<line x1="238.2" y1="98.4" x2="238.6" y2="148.4" stroke="rgb(0,0,0)"  stroke-width="2.0"/>
<line x1="238.6" y1="148.4" x2="196.1" y2="172.4" stroke="rgb(0,0,0)"  stroke-width="2.0"/>
<line x1="196.1" y1="172.4" x2="154.1" y2="147.0" stroke="rgb(0,0,0)"  stroke-width="2.0"/>
<line x1="154.1" y1="147.0" x2="153.8" y2="98.7" stroke="rgb(0,0,0)"  stroke-width="2.0"/>
<text x="105.701392" y="179.273370" fill="rgb(12,12,255)"  stroke="rgb(12,12,255)" stroke-width="1" font-size="16" >N</text>
<text x="136.216741" y="244.438591" fill="rgb(191,191,191)"  stroke="rgb(191,191,191)" stroke-width="1" font-size="16" >H</text>
<text x="34.259594" y="234.628658" fill="rgb(191,191,191)"  stroke="rgb(191,191,191)" stroke-width="1" font-size="16" >H</text>
<text x="63.975576" y="286.997508" fill="rgb(191,191,191)"  stroke="rgb(191,191,191)" stroke-width="1" font-size="16" >H</text>
<text x="34.000000" y="269.391348" fill="rgb(191,191,191)"  stroke="rgb(191,191,191)" stroke-width="1" font-size="16" >H</text>
<text x="178.327471" y="137.819982" fill="rgb(191,191,191)"  stroke="rgb(191,191,191)" stroke-width="1" font-size="16" >H</text>
<text x="117.761165" y="89.266182" fill="rgb(191,191,191)"  stroke="rgb(191,191,191)" stroke-width="1" font-size="16" >H</text>
<text x="148.062971" y="71.971492" fill="rgb(191,191,191)"  stroke="rgb(191,191,191)" stroke-width="1" font-size="16" >H</text>
<text x="190.499420" y="48.000000" fill="rgb(191,191,191)"  stroke="rgb(191,191,191)" stroke-width="1" font-size="16" >H</text>
<text x="220.492038" y="65.293437" fill="rgb(191,191,191)"  stroke="rgb(191,191,191)" stroke-width="1" font-size="16" >H</text>
<text x="262.147379" y="88.819572" fill="rgb(191,191,191)"  stroke="rgb(191,191,191)" stroke-width="1" font-size="16" >H</text>
<text x="262.423894" y="123.578685" fill="rgb(191,191,191)"  stroke="rgb(191,191,191)" stroke-width="1" font-size="16" >H</text>
<text x="262.682815" y="173.807808" fill="rgb(191,191,191)"  stroke="rgb(191,191,191)" stroke-width="1" font-size="16" >H</text>
<text x="232.417564" y="191.173832" fill="rgb(191,191,191)"  stroke="rgb(191,191,191)" stroke-width="1" font-size="16" >H</text>
<text x="189.557526" y="215.189583" fill="rgb(191,191,191)"  stroke="rgb(191,191,191)" stroke-width="1" font-size="16" >H</text>
<text x="159.668879" y="197.255751" fill="rgb(191,191,191)"  stroke="rgb(191,191,191)" stroke-width="1" font-size="16" >H</text>
</svg>
</g>
<text font-size="18.000000" fill ="black" font-family="sans-serif"
x="10.000000" y="20.000000" ></text>
</svg>
