<?xml version="1.0"?>
<svg version="1.1" id="topsvg"
xmlns="http://www.w3.org/2000/svg" xmlns:xlink="http://www.w3.org/1999/xlink"
xmlns:cml="http://www.xml-cml.org/schema" x="0" y="0" width="200px" height="200px" viewBox="0 0 100 100">
<title> - Open Babel Depiction</title>
<rect x="0" y="0" width="100" height="100" fill="white"/>
<g transform="translate(0,0)">
<svg width="100" height="100" x="0" y="0" viewBox="0 0 369.833 447.713"
font-family="sans-serif" stroke="rgb(0,0,0)" stroke-width="2"  stroke-linecap="round">
<line x1="68.8" y1="349.9" x2="51.2" y2="360.5" stroke="rgb(0,0,0)"  stroke-width="2.0"/>
<line x1="69.0" y1="299.1" x2="51.2" y2="288.8" stroke="rgb(0,0,0)"  stroke-width="2.0"/>
<line x1="111.8" y1="274.5" x2="111.8" y2="253.9" stroke="rgb(0,0,0)"  stroke-width="2.0"/>
<line x1="200.1" y1="257.8" x2="197.2" y2="226.1" stroke="rgb(0,0,0)"  stroke-width="2.0"/>
<line x1="240.6" y1="299.8" x2="271.8" y2="281.1" stroke="rgb(0,0,0)"  stroke-width="2.0"/>
<line x1="240.0" y1="295.1" x2="241.6" y2="295.1" stroke="rgb(0,0,0)"  stroke-width="1.0"/>
<line x1="239.6" y1="291.3" x2="242.5" y2="291.4" stroke="rgb(0,0,0)"  stroke-width="1.0"/>
<line x1="239.1" y1="287.5" x2="243.3" y2="287.7" stroke="rgb(0,0,0)"  stroke-width="1.0"/>
<line x1="238.7" y1="283.8" x2="244.1" y2="284.1" stroke="rgb(0,0,0)"  stroke-width="1.0"/>
<line x1="238.2" y1="280.0" x2="244.9" y2="280.4" stroke="rgb(0,0,0)"  stroke-width="1.0"/>
<line x1="237.7" y1="276.3" x2="245.7" y2="276.7" stroke="rgb(0,0,0)"  stroke-width="1.0"/>
<line x1="241.0" y1="349.0" x2="258.9" y2="359.2" stroke="rgb(0,0,0)"  stroke-width="2.0"/>
<line x1="197.5" y1="374.1" x2="197.5" y2="394.7" stroke="rgb(0,0,0)"  stroke-width="2.0"/>
<line x1="112.3" y1="372.6" x2="112.4" y2="393.2" stroke="rgb(0,0,0)"  stroke-width="2.0"/>
<line x1="172.7" y1="149.4" x2="149.4" y2="126.8" stroke="rgb(0,0,0)"  stroke-width="2.0"/>
<polygon points="172.725604 149.427228 220.758692 146.270269 220.618201 154.269035 " stroke-width="2.000000" fill="rgb(0,0,0)"  stroke="rgb(0,0,0)" />
<line x1="172.7" y1="149.4" x2="181.1" y2="129.3" stroke="rgb(0,0,0)"  stroke-width="2.0"/>
<line x1="118.1" y1="135.6" x2="113.1" y2="155.5" stroke="rgb(0,0,0)"  stroke-width="2.0"/>
<line x1="94.8" y1="112.9" x2="75.0" y2="118.5" stroke="rgb(0,0,0)"  stroke-width="2.0"/>
<line x1="102.8" y1="81.4" x2="88.0" y2="67.1" stroke="rgb(0,0,0)"  stroke-width="2.0"/>
<line x1="134.1" y1="72.5" x2="139.1" y2="52.6" stroke="rgb(0,0,0)"  stroke-width="2.0"/>
<line x1="157.4" y1="95.2" x2="177.2" y2="89.6" stroke="rgb(0,0,0)"  stroke-width="2.0"/>
<line x1="220.7" y1="150.3" x2="248.4" y2="110.7" stroke="rgb(0,0,0)"  stroke-width="2.0"/>
<polygon points="220.688446 150.269652 244.339684 149.651693 243.193557 157.569167 " stroke-width="2.000000" fill="rgb(0,0,0)"  stroke="rgb(0,0,0)" />
<line x1="248.4" y1="110.7" x2="267.9" y2="112.0" stroke="rgb(0,0,0)"  stroke-width="2.0"/>
<line x1="248.4" y1="110.7" x2="239.0" y2="91.0" stroke="rgb(0,0,0)"  stroke-width="2.0"/>
<line x1="248.4" y1="110.7" x2="260.7" y2="92.6" stroke="rgb(0,0,0)"  stroke-width="2.0"/>
<line x1="286.6" y1="124.6" x2="295.1" y2="142.2" stroke="rgb(0,0,0)"  stroke-width="2.0"/>
<line x1="295.1" y1="142.2" x2="282.9" y2="160.2" stroke="rgb(0,0,0)"  stroke-width="2.0"/>
<line x1="295.1" y1="142.2" x2="316.9" y2="143.7" stroke="rgb(0,0,0)"  stroke-width="2.0"/>
<line x1="295.1" y1="142.2" x2="304.7" y2="161.7" stroke="rgb(0,0,0)"  stroke-width="2.0"/>
<line x1="69.0" y1="299.1" x2="68.8" y2="349.9" stroke="rgb(0,0,0)"  stroke-width="2.0"/>
<line x1="76.2" y1="305.2" x2="76.0" y2="344.0" stroke="rgb(0,0,0)"  stroke-width="2.0"/>
<line x1="68.8" y1="349.9" x2="112.3" y2="372.6" stroke="rgb(0,0,0)"  stroke-width="2.0"/>
<line x1="112.3" y1="372.6" x2="154.7" y2="349.8" stroke="rgb(0,0,0)"  stroke-width="2.0"/>
<line x1="114.2" y1="363.4" x2="146.1" y2="346.3" stroke="rgb(0,0,0)"  stroke-width="2.0"/>
<line x1="154.7" y1="349.8" x2="154.8" y2="299.2" stroke="rgb(0,0,0)"  stroke-width="2.0"/>
<line x1="154.8" y1="299.2" x2="111.8" y2="274.5" stroke="rgb(0,0,0)"  stroke-width="2.0"/>
<line x1="146.0" y1="302.5" x2="113.4" y2="283.7" stroke="rgb(0,0,0)"  stroke-width="2.0"/>
<line x1="111.8" y1="274.5" x2="69.0" y2="299.1" stroke="rgb(0,0,0)"  stroke-width="2.0"/>
<line x1="118.1" y1="135.6" x2="149.4" y2="126.8" stroke="rgb(0,0,0)"  stroke-width="2.0"/>
<line x1="121.9" y1="127.0" x2="141.7" y2="121.5" stroke="rgb(0,0,0)"  stroke-width="2.0"/>
<line x1="149.4" y1="126.8" x2="157.4" y2="95.2" stroke="rgb(0,0,0)"  stroke-width="2.0"/>
<line x1="157.4" y1="95.2" x2="134.1" y2="72.5" stroke="rgb(0,0,0)"  stroke-width="2.0"/>
<line x1="148.1" y1="96.2" x2="133.4" y2="81.9" stroke="rgb(0,0,0)"  stroke-width="2.0"/>
<line x1="134.1" y1="72.5" x2="102.8" y2="81.4" stroke="rgb(0,0,0)"  stroke-width="2.0"/>
<line x1="102.8" y1="81.4" x2="94.8" y2="112.9" stroke="rgb(0,0,0)"  stroke-width="2.0"/>
<line x1="108.3" y1="89.0" x2="103.2" y2="108.9" stroke="rgb(0,0,0)"  stroke-width="2.0"/>
<line x1="94.8" y1="112.9" x2="118.1" y2="135.6" stroke="rgb(0,0,0)"  stroke-width="2.0"/>
<line x1="231.9" y1="183.9" x2="220.7" y2="150.3" stroke="rgb(0,0,0)"  stroke-width="2.0"/>
<line x1="220.7" y1="150.3" x2="172.7" y2="149.4" stroke="rgb(0,0,0)"  stroke-width="2.0"/>
<line x1="172.7" y1="149.4" x2="159.8" y2="185.6" stroke="rgb(0,0,0)"  stroke-width="2.0"/>
<line x1="166.1" y1="205.1" x2="197.2" y2="226.1" stroke="rgb(0,0,0)"  stroke-width="2.0"/>
<line x1="197.2" y1="226.1" x2="223.2" y2="206.1" stroke="rgb(0,0,0)"  stroke-width="2.0"/>
<line x1="197.5" y1="216.8" x2="218.0" y2="201.0" stroke="rgb(0,0,0)"  stroke-width="2.0"/>
<line x1="241.0" y1="349.0" x2="240.6" y2="299.8" stroke="rgb(0,0,0)"  stroke-width="2.0"/>
<line x1="240.6" y1="299.8" x2="211.8" y2="278.5" stroke="rgb(0,0,0)"  stroke-width="2.0"/>
<line x1="190.2" y1="277.5" x2="154.8" y2="299.2" stroke="rgb(0,0,0)"  stroke-width="2.0"/>
<line x1="154.7" y1="349.8" x2="197.5" y2="374.1" stroke="rgb(0,0,0)"  stroke-width="2.0"/>
<line x1="197.5" y1="374.1" x2="241.0" y2="349.0" stroke="rgb(0,0,0)"  stroke-width="2.0"/>
<line x1="199.1" y1="364.9" x2="232.2" y2="345.8" stroke="rgb(0,0,0)"  stroke-width="2.0"/>
<text x="195.332222" y="278.729700" fill="rgb(17,127,178)"  stroke="rgb(17,127,178)" stroke-width="1" font-size="16" >Xx</text>
<text x="149.382739" y="205.825919" fill="rgb(255,12,12)"  stroke="rgb(255,12,12)" stroke-width="1" font-size="16" >O</text>
<text x="230.056982" y="204.180104" fill="rgb(12,12,255)"  stroke="rgb(12,12,255)" stroke-width="1" font-size="16" >N</text>
<text x="276.978992" y="282.385623" fill="rgb(17,127,178)"  stroke="rgb(17,127,178)" stroke-width="1" font-size="16" >Xx</text>
<text x="274.848539" y="120.923296" fill="rgb(255,12,12)"  stroke="rgb(255,12,12)" stroke-width="1" font-size="16" >O</text>
<text x="34.032526" y="375.263621" fill="rgb(191,191,191)"  stroke="rgb(191,191,191)" stroke-width="1" font-size="16" >H</text>
<text x="34.000000" y="290.243905" fill="rgb(191,191,191)"  stroke="rgb(191,191,191)" stroke-width="1" font-size="16" >H</text>
<text x="105.836928" y="248.900104" fill="rgb(191,191,191)"  stroke="rgb(191,191,191)" stroke-width="1" font-size="16" >H</text>
<text x="236.298722" y="272.998619" fill="rgb(191,191,191)"  stroke="rgb(191,191,191)" stroke-width="1" font-size="16" >H</text>
<text x="264.163748" y="373.650332" fill="rgb(191,191,191)"  stroke="rgb(191,191,191)" stroke-width="1" font-size="16" >H</text>
<text x="191.572217" y="415.712957" fill="rgb(191,191,191)"  stroke="rgb(191,191,191)" stroke-width="1" font-size="16" >H</text>
<text x="106.487448" y="414.151709" fill="rgb(191,191,191)"  stroke="rgb(191,191,191)" stroke-width="1" font-size="16" >H</text>
<text x="180.103548" y="125.298044" fill="rgb(191,191,191)"  stroke="rgb(191,191,191)" stroke-width="1" font-size="16" >H</text>
<text x="103.875610" y="176.149195" fill="rgb(191,191,191)"  stroke="rgb(191,191,191)" stroke-width="1" font-size="16" >H</text>
<text x="56.494983" y="130.069608" fill="rgb(191,191,191)"  stroke="rgb(191,191,191)" stroke-width="1" font-size="16" >H</text>
<text x="72.709195" y="65.993384" fill="rgb(191,191,191)"  stroke="rgb(191,191,191)" stroke-width="1" font-size="16" >H</text>
<text x="136.307287" y="48.000000" fill="rgb(191,191,191)"  stroke="rgb(191,191,191)" stroke-width="1" font-size="16" >H</text>
<text x="183.687914" y="94.082840" fill="rgb(191,191,191)"  stroke="rgb(191,191,191)" stroke-width="1" font-size="16" >H</text>
<text x="249.133482" y="163.255888" fill="rgb(191,191,191)"  stroke="rgb(191,191,191)" stroke-width="1" font-size="16" >H</text>
<text x="227.412618" y="87.249127" fill="rgb(191,191,191)"  stroke="rgb(191,191,191)" stroke-width="1" font-size="16" >H</text>
<text x="261.984506" y="89.886985" fill="rgb(191,191,191)"  stroke="rgb(191,191,191)" stroke-width="1" font-size="16" >H</text>
<text x="269.660642" y="179.011483" fill="rgb(191,191,191)"  stroke="rgb(191,191,191)" stroke-width="1" font-size="16" >H</text>
<text x="323.832698" y="152.574349" fill="rgb(191,191,191)"  stroke="rgb(191,191,191)" stroke-width="1" font-size="16" >H</text>
<text x="304.378897" y="181.431418" fill="rgb(191,191,191)"  stroke="rgb(191,191,191)" stroke-width="1" font-size="16" >H</text>
</svg>
</g>
<text font-size="18.000000" fill ="black" font-family="sans-serif"
x="10.000000" y="20.000000" ></text>
</svg>
