<?xml version="1.0"?>
<svg version="1.1" id="topsvg"
xmlns="http://www.w3.org/2000/svg" xmlns:xlink="http://www.w3.org/1999/xlink"
xmlns:cml="http://www.xml-cml.org/schema" x="0" y="0" width="200px" height="200px" viewBox="0 0 100 100">
<title> - Open Babel Depiction</title>
<rect x="0" y="0" width="100" height="100" fill="white"/>
<g transform="translate(0,0)">
<svg width="100" height="100" x="0" y="0" viewBox="0 0 265.175 435.165"
font-family="sans-serif" stroke="rgb(0,0,0)" stroke-width="2"  stroke-linecap="round">
<line x1="73.0" y1="327.7" x2="118.7" y2="316.1" stroke="rgb(0,0,0)"  stroke-width="2.0"/>
<line x1="73.0" y1="327.7" x2="58.3" y2="312.7" stroke="rgb(0,0,0)"  stroke-width="2.0"/>
<line x1="73.0" y1="327.7" x2="67.3" y2="348.0" stroke="rgb(0,0,0)"  stroke-width="2.0"/>
<line x1="73.0" y1="327.7" x2="52.6" y2="332.9" stroke="rgb(0,0,0)"  stroke-width="2.0"/>
<line x1="118.7" y1="316.1" x2="106.2" y2="362.3" stroke="rgb(0,0,0)"  stroke-width="2.0"/>
<line x1="167.3" y1="316.3" x2="179.6" y2="333.4" stroke="rgb(0,0,0)"  stroke-width="2.0"/>
<line x1="167.3" y1="316.3" x2="157.7" y2="335.0" stroke="rgb(0,0,0)"  stroke-width="2.0"/>
<line x1="106.2" y1="362.3" x2="85.9" y2="367.7" stroke="rgb(0,0,0)"  stroke-width="2.0"/>
<line x1="106.2" y1="362.3" x2="121.1" y2="377.2" stroke="rgb(0,0,0)"  stroke-width="2.0"/>
<line x1="106.2" y1="362.3" x2="100.8" y2="382.6" stroke="rgb(0,0,0)"  stroke-width="2.0"/>
<line x1="144.4" y1="242.1" x2="144.7" y2="194.0" stroke="rgb(0,0,0)"  stroke-width="2.0"/>
<line x1="103.6" y1="172.5" x2="86.6" y2="182.8" stroke="rgb(0,0,0)"  stroke-width="2.0"/>
<line x1="103.7" y1="122.6" x2="86.5" y2="112.7" stroke="rgb(0,0,0)"  stroke-width="2.0"/>
<line x1="144.3" y1="99.1" x2="153.2" y2="82.5" stroke="rgb(0,0,0)"  stroke-width="2.0"/>
<line x1="172.3" y1="70.6" x2="191.1" y2="70.0" stroke="rgb(0,0,0)"  stroke-width="2.0"/>
<line x1="191.1" y1="70.0" x2="202.2" y2="87.9" stroke="rgb(0,0,0)"  stroke-width="2.0"/>
<line x1="191.1" y1="70.0" x2="201.1" y2="51.5" stroke="rgb(0,0,0)"  stroke-width="2.0"/>
<line x1="191.1" y1="70.0" x2="212.2" y2="69.4" stroke="rgb(0,0,0)"  stroke-width="2.0"/>
<line x1="186.4" y1="122.6" x2="203.6" y2="112.6" stroke="rgb(0,0,0)"  stroke-width="2.0"/>
<line x1="186.5" y1="171.6" x2="203.5" y2="181.8" stroke="rgb(0,0,0)"  stroke-width="2.0"/>
<line x1="103.6" y1="172.5" x2="103.7" y2="122.6" stroke="rgb(0,0,0)"  stroke-width="2.0"/>
<line x1="103.7" y1="122.6" x2="144.3" y2="99.1" stroke="rgb(0,0,0)"  stroke-width="2.0"/>
<line x1="112.5" y1="125.9" x2="142.7" y2="108.4" stroke="rgb(0,0,0)"  stroke-width="2.0"/>
<line x1="144.3" y1="99.1" x2="186.4" y2="122.6" stroke="rgb(0,0,0)"  stroke-width="2.0"/>
<line x1="186.4" y1="122.6" x2="186.5" y2="171.6" stroke="rgb(0,0,0)"  stroke-width="2.0"/>
<line x1="179.2" y1="128.6" x2="179.3" y2="165.6" stroke="rgb(0,0,0)"  stroke-width="2.0"/>
<line x1="186.5" y1="171.6" x2="144.7" y2="194.0" stroke="rgb(0,0,0)"  stroke-width="2.0"/>
<line x1="144.7" y1="194.0" x2="103.6" y2="172.5" stroke="rgb(0,0,0)"  stroke-width="2.0"/>
<line x1="142.7" y1="184.8" x2="112.2" y2="168.9" stroke="rgb(0,0,0)"  stroke-width="2.0"/>
<line x1="117.9" y1="261.2" x2="144.4" y2="242.1" stroke="rgb(0,0,0)"  stroke-width="2.0"/>
<line x1="123.1" y1="266.4" x2="143.7" y2="251.5" stroke="rgb(0,0,0)"  stroke-width="2.0"/>
<line x1="144.4" y1="242.1" x2="171.6" y2="264.0" stroke="rgb(0,0,0)"  stroke-width="2.0"/>
<line x1="177.7" y1="284.5" x2="167.3" y2="316.3" stroke="rgb(0,0,0)"  stroke-width="2.0"/>
<line x1="167.3" y1="316.3" x2="118.7" y2="316.1" stroke="rgb(0,0,0)"  stroke-width="2.0"/>
<line x1="118.7" y1="316.1" x2="108.7" y2="283.0" stroke="rgb(0,0,0)"  stroke-width="2.0"/>
<text x="98.919637" y="278.595416" fill="rgb(12,12,255)"  stroke="rgb(12,12,255)" stroke-width="1" font-size="16" >N</text>
<text x="175.779469" y="280.181074" fill="rgb(255,12,12)"  stroke="rgb(255,12,12)" stroke-width="1" font-size="16" >O</text>
<text x="153.300061" y="79.066796" fill="rgb(255,12,12)"  stroke="rgb(255,12,12)" stroke-width="1" font-size="16" >O</text>
<text x="43.214647" y="311.349759" fill="rgb(191,191,191)"  stroke="rgb(191,191,191)" stroke-width="1" font-size="16" >H</text>
<text x="57.797605" y="368.528966" fill="rgb(191,191,191)"  stroke="rgb(191,191,191)" stroke-width="1" font-size="16" >H</text>
<text x="34.000000" y="344.148679" fill="rgb(191,191,191)"  stroke="rgb(191,191,191)" stroke-width="1" font-size="16" >H</text>
<text x="181.252854" y="351.895478" fill="rgb(191,191,191)"  stroke="rgb(191,191,191)" stroke-width="1" font-size="16" >H</text>
<text x="145.744306" y="354.570082" fill="rgb(191,191,191)"  stroke="rgb(191,191,191)" stroke-width="1" font-size="16" >H</text>
<text x="67.327473" y="379.055442" fill="rgb(191,191,191)"  stroke="rgb(191,191,191)" stroke-width="1" font-size="16" >H</text>
<text x="124.315636" y="394.373916" fill="rgb(191,191,191)"  stroke="rgb(191,191,191)" stroke-width="1" font-size="16" >H</text>
<text x="91.398906" y="403.165084" fill="rgb(191,191,191)"  stroke="rgb(191,191,191)" stroke-width="1" font-size="16" >H</text>
<text x="69.457603" y="197.535820" fill="rgb(191,191,191)"  stroke="rgb(191,191,191)" stroke-width="1" font-size="16" >H</text>
<text x="69.209247" y="114.177337" fill="rgb(191,191,191)"  stroke="rgb(191,191,191)" stroke-width="1" font-size="16" >H</text>
<text x="203.105003" y="106.978196" fill="rgb(191,191,191)"  stroke="rgb(191,191,191)" stroke-width="1" font-size="16" >H</text>
<text x="201.197756" y="48.000000" fill="rgb(191,191,191)"  stroke="rgb(191,191,191)" stroke-width="1" font-size="16" >H</text>
<text x="219.174914" y="76.936665" fill="rgb(191,191,191)"  stroke="rgb(191,191,191)" stroke-width="1" font-size="16" >H</text>
<text x="208.763064" y="113.976742" fill="rgb(191,191,191)"  stroke="rgb(191,191,191)" stroke-width="1" font-size="16" >H</text>
<text x="208.667542" y="196.469162" fill="rgb(191,191,191)"  stroke="rgb(191,191,191)" stroke-width="1" font-size="16" >H</text>
</svg>
</g>
<text font-size="18.000000" fill ="black" font-family="sans-serif"
x="10.000000" y="20.000000" ></text>
</svg>
