<?xml version="1.0"?>
<svg version="1.1" id="topsvg"
xmlns="http://www.w3.org/2000/svg" xmlns:xlink="http://www.w3.org/1999/xlink"
xmlns:cml="http://www.xml-cml.org/schema" x="0" y="0" width="200px" height="200px" viewBox="0 0 100 100">
<title> - Open Babel Depiction</title>
<rect x="0" y="0" width="100" height="100" fill="white"/>
<g transform="translate(0,0)">
<svg width="100" height="100" x="0" y="0" viewBox="0 0 389.013 444.848"
font-family="sans-serif" stroke="rgb(0,0,0)" stroke-width="2"  stroke-linecap="round">
<line x1="250.8" y1="324.4" x2="204.0" y2="337.4" stroke="rgb(0,0,0)"  stroke-width="2.0"/>
<line x1="250.8" y1="324.4" x2="238.4" y2="371.7" stroke="rgb(0,0,0)"  stroke-width="2.0"/>
<line x1="204.0" y1="337.4" x2="188.8" y2="322.5" stroke="rgb(0,0,0)"  stroke-width="2.0"/>
<line x1="204.0" y1="337.4" x2="198.7" y2="358.1" stroke="rgb(0,0,0)"  stroke-width="2.0"/>
<line x1="204.0" y1="337.4" x2="183.5" y2="343.2" stroke="rgb(0,0,0)"  stroke-width="2.0"/>
<line x1="300.5" y1="324.5" x2="313.2" y2="341.6" stroke="rgb(0,0,0)"  stroke-width="2.0"/>
<line x1="300.5" y1="324.5" x2="290.9" y2="343.5" stroke="rgb(0,0,0)"  stroke-width="2.0"/>
<line x1="238.4" y1="371.7" x2="217.9" y2="377.3" stroke="rgb(0,0,0)"  stroke-width="2.0"/>
<line x1="238.4" y1="371.7" x2="253.6" y2="386.6" stroke="rgb(0,0,0)"  stroke-width="2.0"/>
<line x1="238.4" y1="371.7" x2="233.1" y2="392.3" stroke="rgb(0,0,0)"  stroke-width="2.0"/>
<line x1="236.0" y1="176.0" x2="193.7" y2="196.4" stroke="rgb(0,0,0)"  stroke-width="2.0"/>
<polygon points="236.045913 176.019431 279.421367 196.460791 275.419191 203.387737 " stroke-width="2.000000" fill="rgb(0,0,0)"  stroke="rgb(0,0,0)" />
<line x1="236.0" y1="176.0" x2="235.2" y2="197.3" stroke="rgb(0,0,0)"  stroke-width="2.0"/>
<line x1="236.0" y1="129.9" x2="194.8" y2="104.5" stroke="rgb(0,0,0)"  stroke-width="2.0"/>
<polygon points="236.007455 129.924349 240.045911 176.016094 232.045914 176.022768 " stroke-width="2.000000" fill="rgb(0,0,0)"  stroke="rgb(0,0,0)" />
<line x1="236.0" y1="129.9" x2="217.4" y2="140.3" stroke="rgb(0,0,0)"  stroke-width="2.0"/>
<line x1="194.8" y1="104.5" x2="237.5" y2="124.3" stroke="rgb(0,0,0)"  stroke-width="2.0"/>
<line x1="194.8" y1="104.5" x2="213.6" y2="114.6" stroke="rgb(0,0,0)"  stroke-width="2.0"/>
<line x1="111.2" y1="104.3" x2="151.8" y2="126.7" stroke="rgb(0,0,0)"  stroke-width="2.0"/>
<line x1="111.2" y1="104.3" x2="111.0" y2="84.2" stroke="rgb(0,0,0)"  stroke-width="2.0"/>
<line x1="151.8" y1="126.7" x2="194.8" y2="104.5" stroke="rgb(0,0,0)"  stroke-width="2.0"/>
<line x1="151.8" y1="126.7" x2="151.5" y2="148.0" stroke="rgb(0,0,0)"  stroke-width="2.0"/>
<line x1="151.8" y1="126.7" x2="169.9" y2="138.0" stroke="rgb(0,0,0)"  stroke-width="2.0"/>
<line x1="67.1" y1="126.1" x2="109.7" y2="101.7" stroke="rgb(0,0,0)"  stroke-width="2.0"/>
<line x1="70.1" y1="131.3" x2="112.6" y2="106.9" stroke="rgb(0,0,0)"  stroke-width="2.0"/>
<line x1="68.6" y1="128.7" x2="51.2" y2="118.6" stroke="rgb(0,0,0)"  stroke-width="2.0"/>
<line x1="68.6" y1="128.7" x2="68.5" y2="148.8" stroke="rgb(0,0,0)"  stroke-width="2.0"/>
<line x1="237.5" y1="124.3" x2="249.3" y2="142.1" stroke="rgb(0,0,0)"  stroke-width="2.0"/>
<line x1="237.5" y1="124.3" x2="257.8" y2="117.8" stroke="rgb(0,0,0)"  stroke-width="2.0"/>
<line x1="275.1" y1="106.1" x2="275.3" y2="70.4" stroke="rgb(0,0,0)"  stroke-width="2.0"/>
<line x1="275.1" y1="106.1" x2="256.5" y2="95.6" stroke="rgb(0,0,0)"  stroke-width="2.0"/>
<line x1="286.6" y1="51.0" x2="291.1" y2="48.5" stroke="rgb(0,0,0)"  stroke-width="2.0"/>
<line x1="319.6" y1="128.0" x2="337.7" y2="116.8" stroke="rgb(0,0,0)"  stroke-width="2.0"/>
<line x1="319.6" y1="128.0" x2="318.5" y2="106.8" stroke="rgb(0,0,0)"  stroke-width="2.0"/>
<line x1="319.8" y1="178.4" x2="337.9" y2="189.5" stroke="rgb(0,0,0)"  stroke-width="2.0"/>
<line x1="319.8" y1="178.4" x2="318.9" y2="199.7" stroke="rgb(0,0,0)"  stroke-width="2.0"/>
<line x1="277.4" y1="199.9" x2="276.8" y2="253.3" stroke="rgb(0,0,0)"  stroke-width="2.0"/>
<polygon points="277.420279 199.924264 259.437303 214.771668 255.477536 207.820392 " stroke-width="2.000000" fill="rgb(0,0,0)"  stroke="rgb(0,0,0)" />
<line x1="233.2" y1="182.0" x2="193.7" y2="196.4" stroke="rgb(0,0,0)"  stroke-width="2.0"/>
<line x1="233.2" y1="182.0" x2="245.2" y2="164.4" stroke="rgb(0,0,0)"  stroke-width="2.0"/>
<line x1="233.2" y1="182.0" x2="253.7" y2="188.0" stroke="rgb(0,0,0)"  stroke-width="2.0"/>
<line x1="234.1" y1="212.6" x2="233.2" y2="182.0" stroke="rgb(0,0,0)"  stroke-width="2.0"/>
<line x1="153.5" y1="175.1" x2="194.9" y2="193.7" stroke="rgb(0,0,0)"  stroke-width="2.0"/>
<line x1="151.0" y1="180.6" x2="192.5" y2="199.2" stroke="rgb(0,0,0)"  stroke-width="2.0"/>
<line x1="152.2" y1="177.9" x2="150.2" y2="157.9" stroke="rgb(0,0,0)"  stroke-width="2.0"/>
<line x1="152.2" y1="177.9" x2="136.0" y2="189.6" stroke="rgb(0,0,0)"  stroke-width="2.0"/>
<line x1="235.9" y1="74.3" x2="237.5" y2="124.3" stroke="rgb(0,0,0)"  stroke-width="2.0"/>
<line x1="235.9" y1="74.3" x2="254.0" y2="63.0" stroke="rgb(0,0,0)"  stroke-width="2.0"/>
<line x1="235.9" y1="74.3" x2="217.1" y2="64.2" stroke="rgb(0,0,0)"  stroke-width="2.0"/>
<line x1="235.9" y1="74.3" x2="235.2" y2="53.0" stroke="rgb(0,0,0)"  stroke-width="2.0"/>
<line x1="249.5" y1="270.1" x2="276.8" y2="253.3" stroke="rgb(0,0,0)"  stroke-width="2.0"/>
<line x1="254.4" y1="275.6" x2="275.5" y2="262.6" stroke="rgb(0,0,0)"  stroke-width="2.0"/>
<line x1="276.8" y1="253.3" x2="303.2" y2="272.4" stroke="rgb(0,0,0)"  stroke-width="2.0"/>
<line x1="310.0" y1="292.5" x2="300.5" y2="324.5" stroke="rgb(0,0,0)"  stroke-width="2.0"/>
<line x1="300.5" y1="324.5" x2="250.8" y2="324.4" stroke="rgb(0,0,0)"  stroke-width="2.0"/>
<line x1="250.8" y1="324.4" x2="240.1" y2="290.8" stroke="rgb(0,0,0)"  stroke-width="2.0"/>
<line x1="236.0" y1="176.0" x2="236.0" y2="129.9" stroke="rgb(0,0,0)"  stroke-width="2.0"/>
<line x1="236.0" y1="129.9" x2="275.1" y2="106.1" stroke="rgb(0,0,0)"  stroke-width="2.0"/>
<line x1="275.1" y1="106.1" x2="319.6" y2="128.0" stroke="rgb(0,0,0)"  stroke-width="2.0"/>
<line x1="319.6" y1="128.0" x2="319.8" y2="178.4" stroke="rgb(0,0,0)"  stroke-width="2.0"/>
<line x1="319.8" y1="178.4" x2="277.4" y2="199.9" stroke="rgb(0,0,0)"  stroke-width="2.0"/>
<line x1="277.4" y1="199.9" x2="236.0" y2="176.0" stroke="rgb(0,0,0)"  stroke-width="2.0"/>
<text x="230.110009" y="286.400957" fill="rgb(12,12,255)"  stroke="rgb(12,12,255)" stroke-width="1" font-size="16" >N</text>
<text x="307.772675" y="288.003373" fill="rgb(255,12,12)"  stroke="rgb(255,12,12)" stroke-width="1" font-size="16" >O</text>
<text x="269.340344" y="65.415051" fill="rgb(255,12,12)"  stroke="rgb(255,12,12)" stroke-width="1" font-size="16" >O</text>
<text x="228.507594" y="233.556501" fill="rgb(191,191,191)"  stroke="rgb(191,191,191)" stroke-width="1" font-size="16" >H</text>
<text x="296.350658" y="50.022248" fill="rgb(191,191,191)"  stroke="rgb(191,191,191)" stroke-width="1" font-size="16" >H</text>
<text x="173.515901" y="321.429758" fill="rgb(191,191,191)"  stroke="rgb(191,191,191)" stroke-width="1" font-size="16" >H</text>
<text x="189.434296" y="378.652013" fill="rgb(191,191,191)"  stroke="rgb(191,191,191)" stroke-width="1" font-size="16" >H</text>
<text x="164.955798" y="354.635011" fill="rgb(191,191,191)"  stroke="rgb(191,191,191)" stroke-width="1" font-size="16" >H</text>
<text x="314.938677" y="360.003103" fill="rgb(191,191,191)"  stroke="rgb(191,191,191)" stroke-width="1" font-size="16" >H</text>
<text x="279.057391" y="363.121403" fill="rgb(191,191,191)"  stroke="rgb(191,191,191)" stroke-width="1" font-size="16" >H</text>
<text x="199.378886" y="388.750435" fill="rgb(191,191,191)"  stroke="rgb(191,191,191)" stroke-width="1" font-size="16" >H</text>
<text x="256.841503" y="403.768273" fill="rgb(191,191,191)"  stroke="rgb(191,191,191)" stroke-width="1" font-size="16" >H</text>
<text x="223.774059" y="412.847558" fill="rgb(191,191,191)"  stroke="rgb(191,191,191)" stroke-width="1" font-size="16" >H</text>
<text x="228.757571" y="218.285482" fill="rgb(191,191,191)"  stroke="rgb(191,191,191)" stroke-width="1" font-size="16" >H</text>
<text x="200.071130" y="154.650361" fill="rgb(191,191,191)"  stroke="rgb(191,191,191)" stroke-width="1" font-size="16" >H</text>
<text x="219.027704" y="128.758533" fill="rgb(191,191,191)"  stroke="rgb(191,191,191)" stroke-width="1" font-size="16" >H</text>
<text x="104.900473" y="79.231077" fill="rgb(191,191,191)"  stroke="rgb(191,191,191)" stroke-width="1" font-size="16" >H</text>
<text x="145.265317" y="169.033642" fill="rgb(191,191,191)"  stroke="rgb(191,191,191)" stroke-width="1" font-size="16" >H</text>
<text x="174.910003" y="152.797969" fill="rgb(191,191,191)"  stroke="rgb(191,191,191)" stroke-width="1" font-size="16" >H</text>
<text x="34.000000" y="120.063826" fill="rgb(191,191,191)"  stroke="rgb(191,191,191)" stroke-width="1" font-size="16" >H</text>
<text x="62.478127" y="169.767548" fill="rgb(191,191,191)"  stroke="rgb(191,191,191)" stroke-width="1" font-size="16" >H</text>
<text x="250.470300" y="160.896576" fill="rgb(191,191,191)"  stroke="rgb(191,191,191)" stroke-width="1" font-size="16" >H</text>
<text x="264.209410" y="121.887375" fill="rgb(191,191,191)"  stroke="rgb(191,191,191)" stroke-width="1" font-size="16" >H</text>
<text x="239.218139" y="97.239021" fill="rgb(191,191,191)"  stroke="rgb(191,191,191)" stroke-width="1" font-size="16" >H</text>
<text x="342.686103" y="117.881337" fill="rgb(191,191,191)"  stroke="rgb(191,191,191)" stroke-width="1" font-size="16" >H</text>
<text x="311.874859" y="101.796291" fill="rgb(191,191,191)"  stroke="rgb(191,191,191)" stroke-width="1" font-size="16" >H</text>
<text x="343.012995" y="204.322034" fill="rgb(191,191,191)"  stroke="rgb(191,191,191)" stroke-width="1" font-size="16" >H</text>
<text x="312.403656" y="220.695515" fill="rgb(191,191,191)"  stroke="rgb(191,191,191)" stroke-width="1" font-size="16" >H</text>
<text x="241.624967" y="224.897048" fill="rgb(191,191,191)"  stroke="rgb(191,191,191)" stroke-width="1" font-size="16" >H</text>
<text x="246.489900" y="161.643302" fill="rgb(191,191,191)"  stroke="rgb(191,191,191)" stroke-width="1" font-size="16" >H</text>
<text x="260.158503" y="199.610933" fill="rgb(191,191,191)"  stroke="rgb(191,191,191)" stroke-width="1" font-size="16" >H</text>
<text x="142.852080" y="152.971030" fill="rgb(191,191,191)"  stroke="rgb(191,191,191)" stroke-width="1" font-size="16" >H</text>
<text x="119.440790" y="205.257845" fill="rgb(191,191,191)"  stroke="rgb(191,191,191)" stroke-width="1" font-size="16" >H</text>
<text x="259.043222" y="64.174781" fill="rgb(191,191,191)"  stroke="rgb(191,191,191)" stroke-width="1" font-size="16" >H</text>
<text x="199.680140" y="66.097680" fill="rgb(191,191,191)"  stroke="rgb(191,191,191)" stroke-width="1" font-size="16" >H</text>
<text x="228.805643" y="48.000000" fill="rgb(191,191,191)"  stroke="rgb(191,191,191)" stroke-width="1" font-size="16" >H</text>
</svg>
</g>
<text font-size="18.000000" fill ="black" font-family="sans-serif"
x="10.000000" y="20.000000" ></text>
</svg>
