<?xml version="1.0"?>
<svg version="1.1" id="topsvg"
xmlns="http://www.w3.org/2000/svg" xmlns:xlink="http://www.w3.org/1999/xlink"
xmlns:cml="http://www.xml-cml.org/schema" x="0" y="0" width="200px" height="200px" viewBox="0 0 100 100">
<title> - Open Babel Depiction</title>
<rect x="0" y="0" width="100" height="100" fill="white"/>
<g transform="translate(0,0)">
<svg width="100" height="100" x="0" y="0" viewBox="0 0 309.623 319.719"
font-family="sans-serif" stroke="rgb(0,0,0)" stroke-width="2"  stroke-linecap="round">
<line x1="114.9" y1="184.4" x2="115.5" y2="220.5" stroke="rgb(0,0,0)"  stroke-width="2.0"/>
<line x1="108.9" y1="184.5" x2="109.5" y2="220.6" stroke="rgb(0,0,0)"  stroke-width="2.0"/>
<line x1="112.5" y1="220.5" x2="70.1" y2="245.0" stroke="rgb(0,0,0)"  stroke-width="2.0"/>
<line x1="112.5" y1="220.5" x2="130.3" y2="230.6" stroke="rgb(0,0,0)"  stroke-width="2.0"/>
<line x1="70.1" y1="245.0" x2="51.3" y2="234.2" stroke="rgb(0,0,0)"  stroke-width="2.0"/>
<line x1="70.1" y1="245.0" x2="70.1" y2="266.7" stroke="rgb(0,0,0)"  stroke-width="2.0"/>
<line x1="70.1" y1="245.0" x2="51.3" y2="255.9" stroke="rgb(0,0,0)"  stroke-width="2.0"/>
<line x1="154.7" y1="146.8" x2="123.0" y2="165.0" stroke="rgb(0,0,0)"  stroke-width="2.0"/>
<line x1="154.7" y1="146.8" x2="173.7" y2="136.2" stroke="rgb(0,0,0)"  stroke-width="2.0"/>
<line x1="155.0" y1="98.2" x2="136.3" y2="87.2" stroke="rgb(0,0,0)"  stroke-width="2.0"/>
<line x1="155.0" y1="98.2" x2="155.3" y2="76.5" stroke="rgb(0,0,0)"  stroke-width="2.0"/>
<line x1="196.9" y1="74.7" x2="196.8" y2="53.0" stroke="rgb(0,0,0)"  stroke-width="2.0"/>
<line x1="196.9" y1="74.7" x2="178.2" y2="63.8" stroke="rgb(0,0,0)"  stroke-width="2.0"/>
<line x1="239.5" y1="98.1" x2="258.2" y2="87.0" stroke="rgb(0,0,0)"  stroke-width="2.0"/>
<line x1="239.5" y1="98.1" x2="258.3" y2="108.8" stroke="rgb(0,0,0)"  stroke-width="2.0"/>
<line x1="239.5" y1="147.8" x2="258.2" y2="158.7" stroke="rgb(0,0,0)"  stroke-width="2.0"/>
<line x1="239.5" y1="147.8" x2="239.4" y2="169.5" stroke="rgb(0,0,0)"  stroke-width="2.0"/>
<line x1="196.8" y1="172.1" x2="196.5" y2="193.8" stroke="rgb(0,0,0)"  stroke-width="2.0"/>
<line x1="196.8" y1="172.1" x2="215.5" y2="183.1" stroke="rgb(0,0,0)"  stroke-width="2.0"/>
<line x1="155.0" y1="98.2" x2="154.7" y2="146.8" stroke="rgb(0,0,0)"  stroke-width="2.0"/>
<line x1="154.7" y1="146.8" x2="196.8" y2="172.1" stroke="rgb(0,0,0)"  stroke-width="2.0"/>
<line x1="196.8" y1="172.1" x2="239.5" y2="147.8" stroke="rgb(0,0,0)"  stroke-width="2.0"/>
<line x1="239.5" y1="147.8" x2="239.5" y2="98.1" stroke="rgb(0,0,0)"  stroke-width="2.0"/>
<line x1="239.5" y1="98.1" x2="196.9" y2="74.7" stroke="rgb(0,0,0)"  stroke-width="2.0"/>
<line x1="196.9" y1="74.7" x2="155.0" y2="98.2" stroke="rgb(0,0,0)"  stroke-width="2.0"/>
<text x="105.674427" y="179.459869" fill="rgb(12,12,255)"  stroke="rgb(12,12,255)" stroke-width="1" font-size="16" >N</text>
<text x="135.584984" y="245.008193" fill="rgb(191,191,191)"  stroke="rgb(191,191,191)" stroke-width="1" font-size="16" >H</text>
<text x="34.000000" y="235.681210" fill="rgb(191,191,191)"  stroke="rgb(191,191,191)" stroke-width="1" font-size="16" >H</text>
<text x="64.072710" y="287.719029" fill="rgb(191,191,191)"  stroke="rgb(191,191,191)" stroke-width="1" font-size="16" >H</text>
<text x="34.016215" y="270.381738" fill="rgb(191,191,191)"  stroke="rgb(191,191,191)" stroke-width="1" font-size="16" >H</text>
<text x="178.996318" y="137.841937" fill="rgb(191,191,191)"  stroke="rgb(191,191,191)" stroke-width="1" font-size="16" >H</text>
<text x="119.139529" y="88.628805" fill="rgb(191,191,191)"  stroke="rgb(191,191,191)" stroke-width="1" font-size="16" >H</text>
<text x="149.387363" y="71.544470" fill="rgb(191,191,191)"  stroke="rgb(191,191,191)" stroke-width="1" font-size="16" >H</text>
<text x="190.742608" y="48.000000" fill="rgb(191,191,191)"  stroke="rgb(191,191,191)" stroke-width="1" font-size="16" >H</text>
<text x="160.916370" y="65.252973" fill="rgb(191,191,191)"  stroke="rgb(191,191,191)" stroke-width="1" font-size="16" >H</text>
<text x="263.344544" y="88.421250" fill="rgb(191,191,191)"  stroke="rgb(191,191,191)" stroke-width="1" font-size="16" >H</text>
<text x="263.623446" y="123.280687" fill="rgb(191,191,191)"  stroke="rgb(191,191,191)" stroke-width="1" font-size="16" >H</text>
<text x="263.474266" y="173.249447" fill="rgb(191,191,191)"  stroke="rgb(191,191,191)" stroke-width="1" font-size="16" >H</text>
<text x="233.310751" y="190.502420" fill="rgb(191,191,191)"  stroke="rgb(191,191,191)" stroke-width="1" font-size="16" >H</text>
<text x="190.359930" y="214.786303" fill="rgb(191,191,191)"  stroke="rgb(191,191,191)" stroke-width="1" font-size="16" >H</text>
<text x="220.666138" y="197.714941" fill="rgb(191,191,191)"  stroke="rgb(191,191,191)" stroke-width="1" font-size="16" >H</text>
</svg>
</g>
<text font-size="18.000000" fill ="black" font-family="sans-serif"
x="10.000000" y="20.000000" ></text>
</svg>
