<?xml version="1.0"?>
<svg version="1.1" id="topsvg"
xmlns="http://www.w3.org/2000/svg" xmlns:xlink="http://www.w3.org/1999/xlink"
xmlns:cml="http://www.xml-cml.org/schema" x="0" y="0" width="200px" height="200px" viewBox="0 0 100 100">
<title> - Open Babel Depiction</title>
<rect x="0" y="0" width="100" height="100" fill="white"/>
<g transform="translate(0,0)">
<svg width="100" height="100" x="0" y="0" viewBox="0 0 386.176 422.152"
font-family="sans-serif" stroke="rgb(0,0,0)" stroke-width="2"  stroke-linecap="round">
<line x1="202.6" y1="315.1" x2="249.4" y2="303.4" stroke="rgb(0,0,0)"  stroke-width="2.0"/>
<line x1="202.6" y1="315.1" x2="188.1" y2="300.0" stroke="rgb(0,0,0)"  stroke-width="2.0"/>
<line x1="202.6" y1="315.1" x2="196.8" y2="335.2" stroke="rgb(0,0,0)"  stroke-width="2.0"/>
<line x1="202.6" y1="315.1" x2="182.3" y2="320.1" stroke="rgb(0,0,0)"  stroke-width="2.0"/>
<line x1="249.4" y1="303.4" x2="236.6" y2="349.5" stroke="rgb(0,0,0)"  stroke-width="2.0"/>
<line x1="298.0" y1="303.9" x2="310.4" y2="320.8" stroke="rgb(0,0,0)"  stroke-width="2.0"/>
<line x1="298.0" y1="303.9" x2="288.5" y2="322.5" stroke="rgb(0,0,0)"  stroke-width="2.0"/>
<line x1="236.6" y1="349.5" x2="216.3" y2="354.7" stroke="rgb(0,0,0)"  stroke-width="2.0"/>
<line x1="236.6" y1="349.5" x2="251.2" y2="364.4" stroke="rgb(0,0,0)"  stroke-width="2.0"/>
<line x1="236.6" y1="349.5" x2="231.0" y2="369.6" stroke="rgb(0,0,0)"  stroke-width="2.0"/>
<line x1="234.2" y1="159.7" x2="192.6" y2="177.9" stroke="rgb(0,0,0)"  stroke-width="2.0"/>
<polygon points="234.191009 159.654518 231.104435 111.978426 239.102965 112.131793 " stroke-width="2.000000" fill="rgb(0,0,0)"  stroke="rgb(0,0,0)" />
<line x1="234.2" y1="159.7" x2="216.8" y2="148.1" stroke="rgb(0,0,0)"  stroke-width="2.0"/>
<line x1="192.6" y1="177.9" x2="192.4" y2="197.6" stroke="rgb(0,0,0)"  stroke-width="2.0"/>
<line x1="235.1" y1="112.1" x2="194.5" y2="87.7" stroke="rgb(0,0,0)"  stroke-width="2.0"/>
<polygon points="235.103700 112.055110 217.162416 126.555618 213.288767 119.555986 " stroke-width="2.000000" fill="rgb(0,0,0)"  stroke="rgb(0,0,0)" />
<line x1="277.9" y1="52.7" x2="281.1" y2="89.3" stroke="rgb(0,0,0)"  stroke-width="2.0"/>
<line x1="271.9" y1="53.2" x2="275.1" y2="89.8" stroke="rgb(0,0,0)"  stroke-width="2.0"/>
<line x1="316.7" y1="111.5" x2="334.8" y2="100.9" stroke="rgb(0,0,0)"  stroke-width="2.0"/>
<line x1="316.7" y1="111.5" x2="334.9" y2="121.9" stroke="rgb(0,0,0)"  stroke-width="2.0"/>
<line x1="316.9" y1="160.2" x2="334.6" y2="171.2" stroke="rgb(0,0,0)"  stroke-width="2.0"/>
<line x1="316.9" y1="160.2" x2="315.7" y2="181.0" stroke="rgb(0,0,0)"  stroke-width="2.0"/>
<line x1="274.7" y1="180.5" x2="274.0" y2="230.3" stroke="rgb(0,0,0)"  stroke-width="2.0"/>
<line x1="274.7" y1="180.5" x2="274.9" y2="159.6" stroke="rgb(0,0,0)"  stroke-width="2.0"/>
<line x1="67.0" y1="109.1" x2="107.8" y2="84.9" stroke="rgb(0,0,0)"  stroke-width="2.0"/>
<line x1="70.0" y1="114.2" x2="110.8" y2="90.0" stroke="rgb(0,0,0)"  stroke-width="2.0"/>
<line x1="68.5" y1="111.7" x2="51.3" y2="102.0" stroke="rgb(0,0,0)"  stroke-width="2.0"/>
<line x1="68.5" y1="111.7" x2="68.8" y2="131.4" stroke="rgb(0,0,0)"  stroke-width="2.0"/>
<line x1="109.3" y1="87.5" x2="151.4" y2="112.1" stroke="rgb(0,0,0)"  stroke-width="2.0"/>
<line x1="109.3" y1="87.5" x2="109.2" y2="67.8" stroke="rgb(0,0,0)"  stroke-width="2.0"/>
<line x1="151.4" y1="112.1" x2="151.3" y2="133.0" stroke="rgb(0,0,0)"  stroke-width="2.0"/>
<line x1="151.4" y1="112.1" x2="169.5" y2="122.7" stroke="rgb(0,0,0)"  stroke-width="2.0"/>
<line x1="194.5" y1="87.7" x2="151.4" y2="112.1" stroke="rgb(0,0,0)"  stroke-width="2.0"/>
<line x1="194.5" y1="87.7" x2="194.8" y2="66.8" stroke="rgb(0,0,0)"  stroke-width="2.0"/>
<line x1="194.5" y1="87.7" x2="176.5" y2="77.0" stroke="rgb(0,0,0)"  stroke-width="2.0"/>
<line x1="152.0" y1="156.3" x2="193.8" y2="175.2" stroke="rgb(0,0,0)"  stroke-width="2.0"/>
<line x1="149.6" y1="161.8" x2="191.3" y2="180.7" stroke="rgb(0,0,0)"  stroke-width="2.0"/>
<line x1="150.8" y1="159.1" x2="148.8" y2="139.4" stroke="rgb(0,0,0)"  stroke-width="2.0"/>
<line x1="150.8" y1="159.1" x2="134.8" y2="170.5" stroke="rgb(0,0,0)"  stroke-width="2.0"/>
<line x1="248.3" y1="248.8" x2="274.0" y2="230.3" stroke="rgb(0,0,0)"  stroke-width="2.0"/>
<line x1="253.6" y1="253.9" x2="273.3" y2="239.6" stroke="rgb(0,0,0)"  stroke-width="2.0"/>
<line x1="274.0" y1="230.3" x2="301.5" y2="251.1" stroke="rgb(0,0,0)"  stroke-width="2.0"/>
<line x1="308.1" y1="271.4" x2="298.0" y2="303.9" stroke="rgb(0,0,0)"  stroke-width="2.0"/>
<line x1="298.0" y1="303.9" x2="249.4" y2="303.4" stroke="rgb(0,0,0)"  stroke-width="2.0"/>
<line x1="249.4" y1="303.4" x2="239.5" y2="270.4" stroke="rgb(0,0,0)"  stroke-width="2.0"/>
<line x1="234.2" y1="159.7" x2="235.1" y2="112.1" stroke="rgb(0,0,0)"  stroke-width="2.0"/>
<line x1="235.1" y1="112.1" x2="278.1" y2="89.6" stroke="rgb(0,0,0)"  stroke-width="2.0"/>
<line x1="278.1" y1="89.6" x2="316.7" y2="111.5" stroke="rgb(0,0,0)"  stroke-width="2.0"/>
<line x1="316.7" y1="111.5" x2="316.9" y2="160.2" stroke="rgb(0,0,0)"  stroke-width="2.0"/>
<line x1="316.9" y1="160.2" x2="274.7" y2="180.5" stroke="rgb(0,0,0)"  stroke-width="2.0"/>
<line x1="274.7" y1="180.5" x2="234.2" y2="159.7" stroke="rgb(0,0,0)"  stroke-width="2.0"/>
<text x="229.728007" y="265.898810" fill="rgb(12,12,255)"  stroke="rgb(12,12,255)" stroke-width="1" font-size="16" >N</text>
<text x="305.887060" y="266.957279" fill="rgb(255,12,12)"  stroke="rgb(255,12,12)" stroke-width="1" font-size="16" >O</text>
<text x="267.807533" y="48.000000" fill="rgb(255,12,12)"  stroke="rgb(255,12,12)" stroke-width="1" font-size="16" >O</text>
<text x="173.017527" y="298.676485" fill="rgb(191,191,191)"  stroke="rgb(191,191,191)" stroke-width="1" font-size="16" >H</text>
<text x="187.249813" y="355.659505" fill="rgb(191,191,191)"  stroke="rgb(191,191,191)" stroke-width="1" font-size="16" >H</text>
<text x="163.684620" y="331.273523" fill="rgb(191,191,191)"  stroke="rgb(191,191,191)" stroke-width="1" font-size="16" >H</text>
<text x="312.031884" y="339.310281" fill="rgb(191,191,191)"  stroke="rgb(191,191,191)" stroke-width="1" font-size="16" >H</text>
<text x="276.509795" y="342.064201" fill="rgb(191,191,191)"  stroke="rgb(191,191,191)" stroke-width="1" font-size="16" >H</text>
<text x="197.720415" y="365.952639" fill="rgb(191,191,191)"  stroke="rgb(191,191,191)" stroke-width="1" font-size="16" >H</text>
<text x="254.307302" y="381.680726" fill="rgb(191,191,191)"  stroke="rgb(191,191,191)" stroke-width="1" font-size="16" >H</text>
<text x="221.472583" y="390.151646" fill="rgb(191,191,191)"  stroke="rgb(191,191,191)" stroke-width="1" font-size="16" >H</text>
<text x="199.976792" y="148.842928" fill="rgb(191,191,191)"  stroke="rgb(191,191,191)" stroke-width="1" font-size="16" >H</text>
<text x="186.375150" y="218.647999" fill="rgb(191,191,191)"  stroke="rgb(191,191,191)" stroke-width="1" font-size="16" >H</text>
<text x="199.434881" y="136.474054" fill="rgb(191,191,191)"  stroke="rgb(191,191,191)" stroke-width="1" font-size="16" >H</text>
<text x="340.024266" y="102.371708" fill="rgb(191,191,191)"  stroke="rgb(191,191,191)" stroke-width="1" font-size="16" >H</text>
<text x="340.176381" y="136.318769" fill="rgb(191,191,191)"  stroke="rgb(191,191,191)" stroke-width="1" font-size="16" >H</text>
<text x="339.615456" y="186.146033" fill="rgb(191,191,191)"  stroke="rgb(191,191,191)" stroke-width="1" font-size="16" >H</text>
<text x="309.018100" y="202.013559" fill="rgb(191,191,191)"  stroke="rgb(191,191,191)" stroke-width="1" font-size="16" >H</text>
<text x="269.113190" y="154.623309" fill="rgb(191,191,191)"  stroke="rgb(191,191,191)" stroke-width="1" font-size="16" >H</text>
<text x="34.000000" y="103.652011" fill="rgb(191,191,191)"  stroke="rgb(191,191,191)" stroke-width="1" font-size="16" >H</text>
<text x="62.911412" y="152.366932" fill="rgb(191,191,191)"  stroke="rgb(191,191,191)" stroke-width="1" font-size="16" >H</text>
<text x="103.171257" y="62.764690" fill="rgb(191,191,191)"  stroke="rgb(191,191,191)" stroke-width="1" font-size="16" >H</text>
<text x="145.224796" y="153.976819" fill="rgb(191,191,191)"  stroke="rgb(191,191,191)" stroke-width="1" font-size="16" >H</text>
<text x="174.684457" y="137.247306" fill="rgb(191,191,191)"  stroke="rgb(191,191,191)" stroke-width="1" font-size="16" >H</text>
<text x="188.964279" y="61.791786" fill="rgb(191,191,191)"  stroke="rgb(191,191,191)" stroke-width="1" font-size="16" >H</text>
<text x="159.346165" y="78.426226" fill="rgb(191,191,191)"  stroke="rgb(191,191,191)" stroke-width="1" font-size="16" >H</text>
<text x="141.561353" y="134.509231" fill="rgb(191,191,191)"  stroke="rgb(191,191,191)" stroke-width="1" font-size="16" >H</text>
<text x="118.221164" y="186.123849" fill="rgb(191,191,191)"  stroke="rgb(191,191,191)" stroke-width="1" font-size="16" >H</text>
</svg>
</g>
<text font-size="18.000000" fill ="black" font-family="sans-serif"
x="10.000000" y="20.000000" ></text>
</svg>
