<?xml version="1.0"?>
<svg version="1.1" id="topsvg"
xmlns="http://www.w3.org/2000/svg" xmlns:xlink="http://www.w3.org/1999/xlink"
xmlns:cml="http://www.xml-cml.org/schema" x="0" y="0" width="200px" height="200px" viewBox="0 0 100 100">
<title> - Open Babel Depiction</title>
<rect x="0" y="0" width="100" height="100" fill="white"/>
<g transform="translate(0,0)">
<svg width="100" height="100" x="0" y="0" viewBox="0 0 370.586 310.478"
font-family="sans-serif" stroke="rgb(0,0,0)" stroke-width="2"  stroke-linecap="round">
<line x1="135.8" y1="229.2" x2="122.9" y2="249.0" stroke="rgb(0,0,0)"  stroke-width="2.0"/>
<line x1="135.8" y1="229.2" x2="114.1" y2="219.9" stroke="rgb(0,0,0)"  stroke-width="2.0"/>
<line x1="139.1" y1="215.3" x2="121.9" y2="199.1" stroke="rgb(0,0,0)"  stroke-width="2.0"/>
<line x1="139.1" y1="215.3" x2="116.5" y2="222.1" stroke="rgb(0,0,0)"  stroke-width="2.0"/>
<line x1="208.0" y1="131.2" x2="208.1" y2="107.6" stroke="rgb(0,0,0)"  stroke-width="2.0"/>
<line x1="208.0" y1="131.2" x2="187.8" y2="118.9" stroke="rgb(0,0,0)"  stroke-width="2.0"/>
<line x1="253.1" y1="155.6" x2="273.5" y2="143.6" stroke="rgb(0,0,0)"  stroke-width="2.0"/>
<line x1="253.1" y1="155.6" x2="273.6" y2="167.5" stroke="rgb(0,0,0)"  stroke-width="2.0"/>
<line x1="252.4" y1="207.3" x2="298.8" y2="233.9" stroke="rgb(0,0,0)"  stroke-width="2.0"/>
<line x1="256.3" y1="204.2" x2="257.1" y2="205.6" stroke="rgb(0,0,0)"  stroke-width="1.0"/>
<line x1="259.4" y1="201.7" x2="260.8" y2="204.2" stroke="rgb(0,0,0)"  stroke-width="1.0"/>
<line x1="262.5" y1="199.2" x2="264.5" y2="202.8" stroke="rgb(0,0,0)"  stroke-width="1.0"/>
<line x1="265.6" y1="196.7" x2="268.3" y2="201.4" stroke="rgb(0,0,0)"  stroke-width="1.0"/>
<line x1="268.7" y1="194.2" x2="272.0" y2="200.0" stroke="rgb(0,0,0)"  stroke-width="1.0"/>
<line x1="271.8" y1="191.7" x2="275.7" y2="198.6" stroke="rgb(0,0,0)"  stroke-width="1.0"/>
<line x1="298.8" y1="233.9" x2="298.9" y2="257.5" stroke="rgb(0,0,0)"  stroke-width="2.0"/>
<line x1="298.8" y1="233.9" x2="319.2" y2="222.0" stroke="rgb(0,0,0)"  stroke-width="2.0"/>
<line x1="298.8" y1="233.9" x2="319.3" y2="245.6" stroke="rgb(0,0,0)"  stroke-width="2.0"/>
<line x1="161.9" y1="155.4" x2="123.0" y2="129.7" stroke="rgb(0,0,0)"  stroke-width="2.0"/>
<polygon points="161.862107 155.372470 159.107888 130.664242 167.097655 131.068740 " stroke-width="2.000000" fill="rgb(0,0,0)"  stroke="rgb(0,0,0)" />
<line x1="208.5" y1="231.7" x2="208.7" y2="255.4" stroke="rgb(0,0,0)"  stroke-width="2.0"/>
<line x1="208.5" y1="231.7" x2="228.9" y2="243.6" stroke="rgb(0,0,0)"  stroke-width="2.0"/>
<line x1="72.5" y1="155.9" x2="123.0" y2="129.7" stroke="rgb(0,0,0)"  stroke-width="2.0"/>
<line x1="72.5" y1="155.9" x2="52.6" y2="143.1" stroke="rgb(0,0,0)"  stroke-width="2.0"/>
<line x1="72.5" y1="155.9" x2="71.4" y2="179.5" stroke="rgb(0,0,0)"  stroke-width="2.0"/>
<line x1="72.5" y1="155.9" x2="51.5" y2="166.7" stroke="rgb(0,0,0)"  stroke-width="2.0"/>
<line x1="123.0" y1="129.7" x2="102.3" y2="118.2" stroke="rgb(0,0,0)"  stroke-width="2.0"/>
<line x1="119.0" y1="76.5" x2="123.0" y2="129.7" stroke="rgb(0,0,0)"  stroke-width="2.0"/>
<line x1="119.0" y1="76.5" x2="138.5" y2="63.2" stroke="rgb(0,0,0)"  stroke-width="2.0"/>
<line x1="119.0" y1="76.5" x2="97.7" y2="66.3" stroke="rgb(0,0,0)"  stroke-width="2.0"/>
<line x1="119.0" y1="76.5" x2="117.2" y2="53.0" stroke="rgb(0,0,0)"  stroke-width="2.0"/>
<line x1="135.8" y1="229.2" x2="163.9" y2="207.8" stroke="rgb(0,0,0)"  stroke-width="2.0"/>
<line x1="163.9" y1="207.8" x2="139.1" y2="215.3" stroke="rgb(0,0,0)"  stroke-width="2.0"/>
<line x1="139.1" y1="215.3" x2="135.8" y2="229.2" stroke="rgb(0,0,0)"  stroke-width="2.0"/>
<line x1="208.0" y1="131.2" x2="161.9" y2="155.4" stroke="rgb(0,0,0)"  stroke-width="2.0"/>
<line x1="161.9" y1="155.4" x2="163.9" y2="207.8" stroke="rgb(0,0,0)"  stroke-width="2.0"/>
<line x1="163.9" y1="207.8" x2="208.5" y2="231.7" stroke="rgb(0,0,0)"  stroke-width="2.0"/>
<line x1="208.5" y1="231.7" x2="252.4" y2="207.3" stroke="rgb(0,0,0)"  stroke-width="2.0"/>
<line x1="252.4" y1="207.3" x2="253.1" y2="155.6" stroke="rgb(0,0,0)"  stroke-width="2.0"/>
<line x1="253.1" y1="155.6" x2="208.0" y2="131.2" stroke="rgb(0,0,0)"  stroke-width="2.0"/>
<text x="109.869884" y="267.945992" fill="rgb(191,191,191)"  stroke="rgb(191,191,191)" stroke-width="1" font-size="16" >H</text>
<text x="96.130747" y="222.843698" fill="rgb(191,191,191)"  stroke="rgb(191,191,191)" stroke-width="1" font-size="16" >H</text>
<text x="106.447079" y="198.141318" fill="rgb(191,191,191)"  stroke="rgb(191,191,191)" stroke-width="1" font-size="16" >H</text>
<text x="98.030403" y="233.793249" fill="rgb(191,191,191)"  stroke="rgb(191,191,191)" stroke-width="1" font-size="16" >H</text>
<text x="202.189766" y="102.586886" fill="rgb(191,191,191)"  stroke="rgb(191,191,191)" stroke-width="1" font-size="16" >H</text>
<text x="170.693119" y="120.159564" fill="rgb(191,191,191)"  stroke="rgb(191,191,191)" stroke-width="1" font-size="16" >H</text>
<text x="278.723674" y="145.026238" fill="rgb(191,191,191)"  stroke="rgb(191,191,191)" stroke-width="1" font-size="16" >H</text>
<text x="278.805821" y="181.989104" fill="rgb(191,191,191)"  stroke="rgb(191,191,191)" stroke-width="1" font-size="16" >H</text>
<text x="278.237635" y="197.169241" fill="rgb(191,191,191)"  stroke="rgb(191,191,191)" stroke-width="1" font-size="16" >H</text>
<text x="292.942003" y="278.477961" fill="rgb(191,191,191)"  stroke="rgb(191,191,191)" stroke-width="1" font-size="16" >H</text>
<text x="324.445496" y="223.418729" fill="rgb(191,191,191)"  stroke="rgb(191,191,191)" stroke-width="1" font-size="16" >H</text>
<text x="324.585831" y="260.042737" fill="rgb(191,191,191)"  stroke="rgb(191,191,191)" stroke-width="1" font-size="16" >H</text>
<text x="157.713845" y="126.796382" fill="rgb(191,191,191)"  stroke="rgb(191,191,191)" stroke-width="1" font-size="16" >H</text>
<text x="202.819562" y="276.355823" fill="rgb(191,191,191)"  stroke="rgb(191,191,191)" stroke-width="1" font-size="16" >H</text>
<text x="234.179296" y="258.177308" fill="rgb(191,191,191)"  stroke="rgb(191,191,191)" stroke-width="1" font-size="16" >H</text>
<text x="35.636101" y="144.150000" fill="rgb(191,191,191)"  stroke="rgb(191,191,191)" stroke-width="1" font-size="16" >H</text>
<text x="64.863428" y="200.448288" fill="rgb(191,191,191)"  stroke="rgb(191,191,191)" stroke-width="1" font-size="16" >H</text>
<text x="34.000000" y="180.736357" fill="rgb(191,191,191)"  stroke="rgb(191,191,191)" stroke-width="1" font-size="16" >H</text>
<text x="84.962136" y="119.834397" fill="rgb(191,191,191)"  stroke="rgb(191,191,191)" stroke-width="1" font-size="16" >H</text>
<text x="143.235382" y="63.892081" fill="rgb(191,191,191)"  stroke="rgb(191,191,191)" stroke-width="1" font-size="16" >H</text>
<text x="79.978532" y="68.625820" fill="rgb(191,191,191)"  stroke="rgb(191,191,191)" stroke-width="1" font-size="16" >H</text>
<text x="110.242969" y="48.000000" fill="rgb(191,191,191)"  stroke="rgb(191,191,191)" stroke-width="1" font-size="16" >H</text>
</svg>
</g>
<text font-size="18.000000" fill ="black" font-family="sans-serif"
x="10.000000" y="20.000000" ></text>
</svg>
