<?xml version="1.0"?>
<svg version="1.1" id="topsvg"
xmlns="http://www.w3.org/2000/svg" xmlns:xlink="http://www.w3.org/1999/xlink"
xmlns:cml="http://www.xml-cml.org/schema" x="0" y="0" width="200px" height="200px" viewBox="0 0 100 100">
<title> - Open Babel Depiction</title>
<rect x="0" y="0" width="100" height="100" fill="white"/>
<g transform="translate(0,0)">
<svg width="100" height="100" x="0" y="0" viewBox="0 0 404.046 282.026"
font-family="sans-serif" stroke="rgb(0,0,0)" stroke-width="2"  stroke-linecap="round">
<line x1="202.3" y1="216.7" x2="201.6" y2="229.0" stroke="rgb(0,0,0)"  stroke-width="2.0"/>
<line x1="202.3" y1="216.7" x2="213.4" y2="211.1" stroke="rgb(0,0,0)"  stroke-width="2.0"/>
<line x1="202.3" y1="216.7" x2="212.7" y2="223.5" stroke="rgb(0,0,0)"  stroke-width="2.0"/>
<line x1="176.3" y1="199.7" x2="202.3" y2="216.7" stroke="rgb(0,0,0)"  stroke-width="2.0"/>
<line x1="172.7" y1="192.5" x2="174.2" y2="191.9" stroke="rgb(0,0,0)"  stroke-width="1.0"/>
<line x1="169.8" y1="186.7" x2="172.5" y2="185.6" stroke="rgb(0,0,0)"  stroke-width="1.0"/>
<line x1="166.9" y1="180.9" x2="170.7" y2="179.4" stroke="rgb(0,0,0)"  stroke-width="1.0"/>
<line x1="163.9" y1="175.2" x2="169.0" y2="173.2" stroke="rgb(0,0,0)"  stroke-width="1.0"/>
<line x1="161.0" y1="169.4" x2="167.3" y2="167.0" stroke="rgb(0,0,0)"  stroke-width="1.0"/>
<line x1="158.1" y1="163.6" x2="165.6" y2="160.7" stroke="rgb(0,0,0)"  stroke-width="1.0"/>
<line x1="176.3" y1="199.7" x2="170.8" y2="210.8" stroke="rgb(0,0,0)"  stroke-width="2.0"/>
<line x1="166.6" y1="196.2" x2="157.0" y2="204.1" stroke="rgb(0,0,0)"  stroke-width="2.0"/>
<line x1="166.6" y1="196.2" x2="155.1" y2="191.7" stroke="rgb(0,0,0)"  stroke-width="2.0"/>
<line x1="130.5" y1="145.1" x2="119.9" y2="151.4" stroke="rgb(0,0,0)"  stroke-width="2.0"/>
<line x1="130.5" y1="145.1" x2="119.7" y2="139.0" stroke="rgb(0,0,0)"  stroke-width="2.0"/>
<line x1="130.4" y1="108.0" x2="120.5" y2="115.4" stroke="rgb(0,0,0)"  stroke-width="2.0"/>
<line x1="111.5" y1="88.7" x2="114.6" y2="78.4" stroke="rgb(0,0,0)"  stroke-width="2.0"/>
<line x1="95.3" y1="97.3" x2="85.0" y2="94.2" stroke="rgb(0,0,0)"  stroke-width="2.0"/>
<line x1="103.9" y1="113.5" x2="100.8" y2="123.8" stroke="rgb(0,0,0)"  stroke-width="2.0"/>
<line x1="120.1" y1="104.9" x2="130.4" y2="108.0" stroke="rgb(0,0,0)"  stroke-width="2.0"/>
<line x1="114.6" y1="78.4" x2="126.7" y2="75.6" stroke="rgb(0,0,0)"  stroke-width="2.0"/>
<line x1="114.6" y1="78.4" x2="106.2" y2="69.4" stroke="rgb(0,0,0)"  stroke-width="2.0"/>
<line x1="114.6" y1="78.4" x2="118.2" y2="66.6" stroke="rgb(0,0,0)"  stroke-width="2.0"/>
<line x1="85.0" y1="94.2" x2="82.2" y2="82.1" stroke="rgb(0,0,0)"  stroke-width="2.0"/>
<line x1="85.0" y1="94.2" x2="76.0" y2="102.6" stroke="rgb(0,0,0)"  stroke-width="2.0"/>
<line x1="85.0" y1="94.2" x2="73.2" y2="90.6" stroke="rgb(0,0,0)"  stroke-width="2.0"/>
<line x1="100.8" y1="123.8" x2="88.7" y2="126.6" stroke="rgb(0,0,0)"  stroke-width="2.0"/>
<line x1="100.8" y1="123.8" x2="109.2" y2="132.8" stroke="rgb(0,0,0)"  stroke-width="2.0"/>
<line x1="100.8" y1="123.8" x2="97.2" y2="135.6" stroke="rgb(0,0,0)"  stroke-width="2.0"/>
<line x1="160.0" y1="90.2" x2="160.5" y2="66.3" stroke="rgb(0,0,0)"  stroke-width="2.0"/>
<line x1="160.0" y1="90.2" x2="149.3" y2="84.0" stroke="rgb(0,0,0)"  stroke-width="2.0"/>
<line x1="172.1" y1="47.1" x2="169.5" y2="48.5" stroke="rgb(0,0,0)"  stroke-width="2.0"/>
<line x1="188.1" y1="105.5" x2="188.8" y2="104.1" stroke="rgb(0,0,0)"  stroke-width="1.0"/>
<line x1="182.1" y1="103.1" x2="183.4" y2="100.6" stroke="rgb(0,0,0)"  stroke-width="1.0"/>
<line x1="176.1" y1="100.8" x2="178.0" y2="97.1" stroke="rgb(0,0,0)"  stroke-width="1.0"/>
<line x1="170.1" y1="98.4" x2="172.6" y2="93.6" stroke="rgb(0,0,0)"  stroke-width="1.0"/>
<line x1="164.1" y1="96.1" x2="167.2" y2="90.1" stroke="rgb(0,0,0)"  stroke-width="1.0"/>
<line x1="158.2" y1="93.7" x2="161.8" y2="86.6" stroke="rgb(0,0,0)"  stroke-width="1.0"/>
<line x1="223.4" y1="95.9" x2="223.7" y2="83.5" stroke="rgb(0,0,0)"  stroke-width="2.0"/>
<line x1="223.4" y1="95.9" x2="234.0" y2="89.6" stroke="rgb(0,0,0)"  stroke-width="2.0"/>
<polygon points="234.505324 101.629020 196.216039 112.362199 194.842536 104.480987 " stroke-width="2.000000" fill="rgb(0,0,0)"  stroke="rgb(0,0,0)" />
<line x1="234.5" y1="101.6" x2="265.6" y2="107.4" stroke="rgb(0,0,0)"  stroke-width="2.0"/>
<line x1="234.5" y1="101.6" x2="222.3" y2="99.8" stroke="rgb(0,0,0)"  stroke-width="2.0"/>
<line x1="363.9" y1="58.1" x2="52.8" y2="43.6" stroke="rgb(0,0,0)"  stroke-width="2.0"/>
<line x1="364.2" y1="52.2" x2="53.1" y2="37.6" stroke="rgb(0,0,0)"  stroke-width="2.0"/>
<line x1="364.0" y1="55.2" x2="40.0" y2="40.0" stroke="rgb(0,0,0)"  stroke-width="2.0"/>
<line x1="nan" y1="nan" x2="nan" y2="nan" stroke="rgb(0,0,0)"  stroke-width="2.0"/>
<line x1="nan" y1="nan" x2="nan" y2="nan" stroke="rgb(0,0,0)"  stroke-width="2.0"/>
<line x1="40.0" y1="40.0" x2="nan" y2="nan" stroke="rgb(0,0,0)"  stroke-width="2.0"/>
<line x1="294.1" y1="175.4" x2="284.5" y2="137.4" stroke="rgb(0,0,0)"  stroke-width="2.0"/>
<line x1="294.1" y1="175.4" x2="305.5" y2="177.0" stroke="rgb(0,0,0)"  stroke-width="2.0"/>
<line x1="273.3" y1="205.9" x2="291.5" y2="173.9" stroke="rgb(0,0,0)"  stroke-width="2.0"/>
<line x1="278.5" y1="208.9" x2="296.7" y2="176.9" stroke="rgb(0,0,0)"  stroke-width="2.0"/>
<line x1="275.9" y1="207.4" x2="282.9" y2="216.5" stroke="rgb(0,0,0)"  stroke-width="2.0"/>
<line x1="240.5" y1="217.0" x2="275.9" y2="207.4" stroke="rgb(0,0,0)"  stroke-width="2.0"/>
<line x1="240.5" y1="217.0" x2="231.7" y2="208.2" stroke="rgb(0,0,0)"  stroke-width="2.0"/>
<line x1="240.5" y1="217.0" x2="237.3" y2="228.9" stroke="rgb(0,0,0)"  stroke-width="2.0"/>
<line x1="240.5" y1="217.0" x2="228.5" y2="220.2" stroke="rgb(0,0,0)"  stroke-width="2.0"/>
<line x1="187.2" y1="148.3" x2="186.4" y2="146.9" stroke="rgb(0,0,0)"  stroke-width="1.0"/>
<line x1="182.5" y1="151.7" x2="181.1" y2="149.3" stroke="rgb(0,0,0)"  stroke-width="1.0"/>
<line x1="177.9" y1="155.2" x2="175.8" y2="151.6" stroke="rgb(0,0,0)"  stroke-width="1.0"/>
<line x1="173.2" y1="158.7" x2="170.5" y2="154.0" stroke="rgb(0,0,0)"  stroke-width="1.0"/>
<line x1="168.5" y1="162.2" x2="165.1" y2="156.4" stroke="rgb(0,0,0)"  stroke-width="1.0"/>
<line x1="163.9" y1="165.6" x2="159.8" y2="158.7" stroke="rgb(0,0,0)"  stroke-width="1.0"/>
<line x1="193.1" y1="143.9" x2="226.8" y2="163.3" stroke="rgb(0,0,0)"  stroke-width="2.0"/>
<line x1="193.1" y1="143.9" x2="182.5" y2="137.4" stroke="rgb(0,0,0)"  stroke-width="2.0"/>
<line x1="229.0" y1="152.6" x2="226.8" y2="163.3" stroke="rgb(0,0,0)"  stroke-width="2.0"/>
<line x1="233.1" y1="153.4" x2="231.0" y2="164.1" stroke="rgb(0,0,0)"  stroke-width="2.0"/>
<line x1="224.9" y1="151.8" x2="222.7" y2="162.4" stroke="rgb(0,0,0)"  stroke-width="2.0"/>
<line x1="226.0" y1="160.4" x2="254.8" y2="151.5" stroke="rgb(0,0,0)"  stroke-width="2.0"/>
<line x1="227.7" y1="166.1" x2="256.6" y2="157.2" stroke="rgb(0,0,0)"  stroke-width="2.0"/>
<line x1="166.6" y1="196.2" x2="176.3" y2="199.7" stroke="rgb(0,0,0)"  stroke-width="2.0"/>
<line x1="176.3" y1="199.7" x2="161.8" y2="162.2" stroke="rgb(0,0,0)"  stroke-width="2.0"/>
<line x1="161.8" y1="162.2" x2="166.6" y2="196.2" stroke="rgb(0,0,0)"  stroke-width="2.0"/>
<line x1="223.4" y1="95.9" x2="234.5" y2="101.6" stroke="rgb(0,0,0)"  stroke-width="2.0"/>
<line x1="234.5" y1="101.6" x2="195.5" y2="108.4" stroke="rgb(0,0,0)"  stroke-width="2.0"/>
<line x1="195.5" y1="108.4" x2="223.4" y2="95.9" stroke="rgb(0,0,0)"  stroke-width="2.0"/>
<line x1="364.0" y1="55.2" x2="265.6" y2="107.4" stroke="rgb(0,0,0)"  stroke-width="2.0"/>
<line x1="265.6" y1="107.4" x2="289.3" y2="114.2" stroke="rgb(0,0,0)"  stroke-width="2.0"/>
<line x1="289.3" y1="114.2" x2="364.0" y2="55.2" stroke="rgb(0,0,0)"  stroke-width="2.0"/>
<line x1="350.1" y1="108.7" x2="364.0" y2="55.2" stroke="rgb(0,0,0)"  stroke-width="2.0"/>
<line x1="289.3" y1="114.2" x2="334.0" y2="119.7" stroke="rgb(0,0,0)"  stroke-width="2.0"/>
<line x1="284.5" y1="137.4" x2="265.6" y2="107.4" stroke="rgb(0,0,0)"  stroke-width="2.0"/>
<line x1="289.3" y1="114.2" x2="284.5" y2="137.4" stroke="rgb(0,0,0)"  stroke-width="2.0"/>
<line x1="334.3" y1="124.6" x2="284.5" y2="137.4" stroke="rgb(0,0,0)"  stroke-width="2.0"/>
<line x1="130.5" y1="145.1" x2="130.4" y2="108.0" stroke="rgb(0,0,0)"  stroke-width="2.0"/>
<line x1="130.4" y1="108.0" x2="160.0" y2="90.2" stroke="rgb(0,0,0)"  stroke-width="2.0"/>
<line x1="160.0" y1="90.2" x2="195.5" y2="108.4" stroke="rgb(0,0,0)"  stroke-width="2.0"/>
<line x1="195.5" y1="108.4" x2="193.1" y2="143.9" stroke="rgb(0,0,0)"  stroke-width="2.0"/>
<line x1="193.1" y1="143.9" x2="161.8" y2="162.2" stroke="rgb(0,0,0)"  stroke-width="2.0"/>
<line x1="161.8" y1="162.2" x2="130.5" y2="145.1" stroke="rgb(0,0,0)"  stroke-width="2.0"/>
<text x="101.709832" y="109.097571" fill="rgb(127,153,153)"  stroke="rgb(127,153,153)" stroke-width="1" font-size="16" >Si</text>
<text x="154.717052" y="61.343148" fill="rgb(255,12,12)"  stroke="rgb(255,12,12)" stroke-width="1" font-size="16" >O</text>
<text x="34.000000" y="48.000000" fill="rgb(255,12,12)"  stroke="rgb(255,12,12)" stroke-width="1" font-size="16" >O</text>
<text x="34.000000" y="48.000000" fill="rgb(255,12,12)"  stroke="rgb(255,12,12)" stroke-width="1" font-size="16" >O</text>
<text x="340.875792" y="129.325822" fill="rgb(17,127,178)"  stroke="rgb(17,127,178)" stroke-width="1" font-size="16" >Xx</text>
<text x="208.419718" y="173.334009" fill="rgb(17,127,178)"  stroke="rgb(17,127,178)" stroke-width="1" font-size="16" >Xx</text>
<text x="262.090957" y="158.550732" fill="rgb(178,178,0)"  stroke="rgb(178,178,0)" stroke-width="1" font-size="16" >S</text>
<text x="174.869381" y="50.230185" fill="rgb(191,191,191)"  stroke="rgb(191,191,191)" stroke-width="1" font-size="16" >H</text>
<text x="194.855633" y="250.026266" fill="rgb(191,191,191)"  stroke="rgb(191,191,191)" stroke-width="1" font-size="16" >H</text>
<text x="218.967726" y="213.256689" fill="rgb(191,191,191)"  stroke="rgb(191,191,191)" stroke-width="1" font-size="16" >H</text>
<text x="217.527596" y="238.602501" fill="rgb(191,191,191)"  stroke="rgb(191,191,191)" stroke-width="1" font-size="16" >H</text>
<text x="159.056423" y="230.398268" fill="rgb(191,191,191)"  stroke="rgb(191,191,191)" stroke-width="1" font-size="16" >H</text>
<text x="140.982436" y="220.281770" fill="rgb(191,191,191)"  stroke="rgb(191,191,191)" stroke-width="1" font-size="16" >H</text>
<text x="136.994201" y="194.973919" fill="rgb(191,191,191)"  stroke="rgb(191,191,191)" stroke-width="1" font-size="16" >H</text>
<text x="102.682572" y="166.055066" fill="rgb(191,191,191)"  stroke="rgb(191,191,191)" stroke-width="1" font-size="16" >H</text>
<text x="102.414475" y="140.555039" fill="rgb(191,191,191)"  stroke="rgb(191,191,191)" stroke-width="1" font-size="16" >H</text>
<text x="104.023055" y="131.150302" fill="rgb(191,191,191)"  stroke="rgb(191,191,191)" stroke-width="1" font-size="16" >H</text>
<text x="133.361847" y="80.676951" fill="rgb(191,191,191)"  stroke="rgb(191,191,191)" stroke-width="1" font-size="16" >H</text>
<text x="91.303885" y="67.851017" fill="rgb(191,191,191)"  stroke="rgb(191,191,191)" stroke-width="1" font-size="16" >H</text>
<text x="116.035210" y="62.121340" fill="rgb(191,191,191)"  stroke="rgb(191,191,191)" stroke-width="1" font-size="16" >H</text>
<text x="73.286839" y="77.447929" fill="rgb(191,191,191)"  stroke="rgb(191,191,191)" stroke-width="1" font-size="16" >H</text>
<text x="60.463277" y="119.508264" fill="rgb(191,191,191)"  stroke="rgb(191,191,191)" stroke-width="1" font-size="16" >H</text>
<text x="54.733600" y="94.776938" fill="rgb(191,191,191)"  stroke="rgb(191,191,191)" stroke-width="1" font-size="16" >H</text>
<text x="70.060189" y="137.520564" fill="rgb(191,191,191)"  stroke="rgb(191,191,191)" stroke-width="1" font-size="16" >H</text>
<text x="112.120524" y="150.344126" fill="rgb(191,191,191)"  stroke="rgb(191,191,191)" stroke-width="1" font-size="16" >H</text>
<text x="87.389199" y="156.073803" fill="rgb(191,191,191)"  stroke="rgb(191,191,191)" stroke-width="1" font-size="16" >H</text>
<text x="132.009501" y="85.469476" fill="rgb(191,191,191)"  stroke="rgb(191,191,191)" stroke-width="1" font-size="16" >H</text>
<text x="218.016338" y="78.548786" fill="rgb(191,191,191)"  stroke="rgb(191,191,191)" stroke-width="1" font-size="16" >H</text>
<text x="239.193603" y="90.961899" fill="rgb(191,191,191)"  stroke="rgb(191,191,191)" stroke-width="1" font-size="16" >H</text>
<text x="203.406256" y="105.825843" fill="rgb(191,191,191)"  stroke="rgb(191,191,191)" stroke-width="1" font-size="16" >H</text>
<text x="34.000000" y="48.000000" fill="rgb(191,191,191)"  stroke="rgb(191,191,191)" stroke-width="1" font-size="16" >H</text>
<text x="312.393486" y="186.705628" fill="rgb(191,191,191)"  stroke="rgb(191,191,191)" stroke-width="1" font-size="16" >H</text>
<text x="284.891037" y="234.792206" fill="rgb(191,191,191)"  stroke="rgb(191,191,191)" stroke-width="1" font-size="16" >H</text>
<text x="216.488424" y="207.014544" fill="rgb(191,191,191)"  stroke="rgb(191,191,191)" stroke-width="1" font-size="16" >H</text>
<text x="227.902700" y="249.478210" fill="rgb(191,191,191)"  stroke="rgb(191,191,191)" stroke-width="1" font-size="16" >H</text>
<text x="209.937850" y="231.541831" fill="rgb(191,191,191)"  stroke="rgb(191,191,191)" stroke-width="1" font-size="16" >H</text>
<text x="165.490743" y="138.531265" fill="rgb(191,191,191)"  stroke="rgb(191,191,191)" stroke-width="1" font-size="16" >H</text>
</svg>
</g>
<text font-size="18.000000" fill ="black" font-family="sans-serif"
x="10.000000" y="20.000000" ></text>
</svg>
