<?xml version="1.0"?>
<svg version="1.1" id="topsvg"
xmlns="http://www.w3.org/2000/svg" xmlns:xlink="http://www.w3.org/1999/xlink"
xmlns:cml="http://www.xml-cml.org/schema" x="0" y="0" width="200px" height="200px" viewBox="0 0 100 100">
<title> - Open Babel Depiction</title>
<rect x="0" y="0" width="100" height="100" fill="white"/>
<g transform="translate(0,0)">
<svg width="100" height="100" x="0" y="0" viewBox="0 0 389.294 314.394"
font-family="sans-serif" stroke="rgb(0,0,0)" stroke-width="2"  stroke-linecap="round">
<line x1="281.9" y1="240.3" x2="307.4" y2="263.4" stroke="rgb(0,0,0)"  stroke-width="2.0"/>
<line x1="277.8" y1="244.7" x2="303.4" y2="267.9" stroke="rgb(0,0,0)"  stroke-width="2.0"/>
<line x1="235.9" y1="171.9" x2="194.0" y2="191.0" stroke="rgb(0,0,0)"  stroke-width="2.0"/>
<polygon points="235.923346 171.891982 230.215511 120.050978 238.211184 119.787905 " stroke-width="2.000000" fill="rgb(0,0,0)"  stroke="rgb(0,0,0)" />
<line x1="235.9" y1="171.9" x2="218.1" y2="160.9" stroke="rgb(0,0,0)"  stroke-width="2.0"/>
<line x1="194.0" y1="191.0" x2="189.3" y2="210.2" stroke="rgb(0,0,0)"  stroke-width="2.0"/>
<line x1="234.2" y1="119.9" x2="235.8" y2="73.9" stroke="rgb(0,0,0)"  stroke-width="2.0"/>
<line x1="226.2" y1="116.8" x2="226.9" y2="115.4" stroke="rgb(0,0,0)"  stroke-width="1.0"/>
<line x1="219.8" y1="114.4" x2="221.0" y2="111.8" stroke="rgb(0,0,0)"  stroke-width="1.0"/>
<line x1="213.3" y1="111.9" x2="215.2" y2="108.2" stroke="rgb(0,0,0)"  stroke-width="1.0"/>
<line x1="206.9" y1="109.5" x2="209.3" y2="104.6" stroke="rgb(0,0,0)"  stroke-width="1.0"/>
<line x1="200.5" y1="107.0" x2="203.5" y2="101.0" stroke="rgb(0,0,0)"  stroke-width="1.0"/>
<line x1="194.1" y1="104.5" x2="197.6" y2="97.4" stroke="rgb(0,0,0)"  stroke-width="1.0"/>
<line x1="235.8" y1="73.9" x2="254.3" y2="64.1" stroke="rgb(0,0,0)"  stroke-width="2.0"/>
<line x1="235.8" y1="73.9" x2="218.0" y2="62.8" stroke="rgb(0,0,0)"  stroke-width="2.0"/>
<line x1="235.8" y1="73.9" x2="236.5" y2="53.0" stroke="rgb(0,0,0)"  stroke-width="2.0"/>
<line x1="280.0" y1="62.9" x2="281.6" y2="99.2" stroke="rgb(0,0,0)"  stroke-width="2.0"/>
<line x1="274.0" y1="63.2" x2="275.6" y2="99.5" stroke="rgb(0,0,0)"  stroke-width="2.0"/>
<line x1="319.2" y1="122.5" x2="337.2" y2="111.8" stroke="rgb(0,0,0)"  stroke-width="2.0"/>
<line x1="319.2" y1="122.5" x2="337.5" y2="132.7" stroke="rgb(0,0,0)"  stroke-width="2.0"/>
<line x1="319.9" y1="172.0" x2="338.0" y2="182.4" stroke="rgb(0,0,0)"  stroke-width="2.0"/>
<line x1="319.9" y1="172.0" x2="319.8" y2="192.9" stroke="rgb(0,0,0)"  stroke-width="2.0"/>
<polygon points="277.448715 195.901761 233.921152 175.354816 237.925541 168.429149 " stroke-width="2.000000" fill="rgb(0,0,0)"  stroke="rgb(0,0,0)" />
<line x1="277.4" y1="195.9" x2="277.6" y2="192.9" stroke="rgb(0,0,0)"  stroke-width="2.0"/>
<line x1="277.4" y1="195.9" x2="279.8" y2="242.5" stroke="rgb(0,0,0)"  stroke-width="2.0"/>
<line x1="162.7" y1="146.3" x2="196.4" y2="189.2" stroke="rgb(0,0,0)"  stroke-width="2.0"/>
<line x1="157.9" y1="150.0" x2="191.6" y2="192.9" stroke="rgb(0,0,0)"  stroke-width="2.0"/>
<line x1="66.9" y1="119.7" x2="109.4" y2="94.8" stroke="rgb(0,0,0)"  stroke-width="2.0"/>
<line x1="70.0" y1="124.8" x2="112.5" y2="100.0" stroke="rgb(0,0,0)"  stroke-width="2.0"/>
<line x1="68.5" y1="122.2" x2="51.3" y2="112.5" stroke="rgb(0,0,0)"  stroke-width="2.0"/>
<line x1="68.5" y1="122.2" x2="68.6" y2="142.0" stroke="rgb(0,0,0)"  stroke-width="2.0"/>
<line x1="110.9" y1="97.4" x2="152.1" y2="122.4" stroke="rgb(0,0,0)"  stroke-width="2.0"/>
<line x1="110.9" y1="97.4" x2="111.1" y2="77.6" stroke="rgb(0,0,0)"  stroke-width="2.0"/>
<line x1="152.1" y1="122.4" x2="151.2" y2="143.3" stroke="rgb(0,0,0)"  stroke-width="2.0"/>
<line x1="152.1" y1="122.4" x2="169.6" y2="133.9" stroke="rgb(0,0,0)"  stroke-width="2.0"/>
<line x1="195.1" y1="95.1" x2="195.9" y2="101.0" stroke="rgb(0,0,0)"  stroke-width="2.0"/>
<line x1="199.3" y1="94.6" x2="200.0" y2="100.5" stroke="rgb(0,0,0)"  stroke-width="2.0"/>
<line x1="191.0" y1="95.6" x2="191.7" y2="101.5" stroke="rgb(0,0,0)"  stroke-width="2.0"/>
<line x1="195.9" y1="101.0" x2="152.1" y2="122.4" stroke="rgb(0,0,0)"  stroke-width="2.0"/>
<line x1="265.7" y1="249.7" x2="279.8" y2="242.5" stroke="rgb(0,0,0)"  stroke-width="2.0"/>
<line x1="263.8" y1="245.9" x2="277.9" y2="238.7" stroke="rgb(0,0,0)"  stroke-width="2.0"/>
<line x1="267.6" y1="253.4" x2="281.7" y2="246.2" stroke="rgb(0,0,0)"  stroke-width="2.0"/>
<line x1="234.2" y1="119.9" x2="278.6" y2="99.3" stroke="rgb(0,0,0)"  stroke-width="2.0"/>
<line x1="278.6" y1="99.3" x2="319.2" y2="122.5" stroke="rgb(0,0,0)"  stroke-width="2.0"/>
<line x1="319.2" y1="122.5" x2="319.9" y2="172.0" stroke="rgb(0,0,0)"  stroke-width="2.0"/>
<line x1="319.9" y1="172.0" x2="277.4" y2="195.9" stroke="rgb(0,0,0)"  stroke-width="2.0"/>
<line x1="277.4" y1="195.9" x2="235.9" y2="171.9" stroke="rgb(0,0,0)"  stroke-width="2.0"/>
<line x1="235.9" y1="171.9" x2="234.2" y2="119.9" stroke="rgb(0,0,0)"  stroke-width="2.0"/>
<text x="309.002064" y="282.393559" fill="rgb(255,12,12)"  stroke="rgb(255,12,12)" stroke-width="1" font-size="16" >O</text>
<text x="270.408122" y="58.066468" fill="rgb(255,12,12)"  stroke="rgb(255,12,12)" stroke-width="1" font-size="16" >O</text>
<text x="134.272999" y="145.923603" fill="rgb(17,127,178)"  stroke="rgb(17,127,178)" stroke-width="1" font-size="16" >Xx</text>
<text x="175.592152" y="90.226500" fill="rgb(17,127,178)"  stroke="rgb(17,127,178)" stroke-width="1" font-size="16" >Xx</text>
<text x="236.073444" y="263.529640" fill="rgb(17,127,178)"  stroke="rgb(17,127,178)" stroke-width="1" font-size="16" >Xx</text>
<text x="272.197434" y="187.950233" fill="rgb(147,0,147)"  stroke="rgb(147,0,147)" stroke-width="1" font-size="16" >I</text>
<text x="201.069100" y="162.008378" fill="rgb(191,191,191)"  stroke="rgb(191,191,191)" stroke-width="1" font-size="16" >H</text>
<text x="180.276276" y="230.836621" fill="rgb(191,191,191)"  stroke="rgb(191,191,191)" stroke-width="1" font-size="16" >H</text>
<text x="259.761080" y="65.975609" fill="rgb(191,191,191)"  stroke="rgb(191,191,191)" stroke-width="1" font-size="16" >H</text>
<text x="200.999304" y="63.951528" fill="rgb(191,191,191)"  stroke="rgb(191,191,191)" stroke-width="1" font-size="16" >H</text>
<text x="230.963939" y="48.000000" fill="rgb(191,191,191)"  stroke="rgb(191,191,191)" stroke-width="1" font-size="16" >H</text>
<text x="342.434285" y="113.208376" fill="rgb(191,191,191)"  stroke="rgb(191,191,191)" stroke-width="1" font-size="16" >H</text>
<text x="342.789609" y="147.094270" fill="rgb(191,191,191)"  stroke="rgb(191,191,191)" stroke-width="1" font-size="16" >H</text>
<text x="343.294043" y="196.912657" fill="rgb(191,191,191)"  stroke="rgb(191,191,191)" stroke-width="1" font-size="16" >H</text>
<text x="313.722803" y="213.933331" fill="rgb(191,191,191)"  stroke="rgb(191,191,191)" stroke-width="1" font-size="16" >H</text>
<text x="34.000000" y="114.042754" fill="rgb(191,191,191)"  stroke="rgb(191,191,191)" stroke-width="1" font-size="16" >H</text>
<text x="62.648031" y="162.985520" fill="rgb(191,191,191)"  stroke="rgb(191,191,191)" stroke-width="1" font-size="16" >H</text>
<text x="105.220338" y="72.631596" fill="rgb(191,191,191)"  stroke="rgb(191,191,191)" stroke-width="1" font-size="16" >H</text>
<text x="144.597898" y="164.327504" fill="rgb(191,191,191)"  stroke="rgb(191,191,191)" stroke-width="1" font-size="16" >H</text>
<text x="174.524462" y="149.013656" fill="rgb(191,191,191)"  stroke="rgb(191,191,191)" stroke-width="1" font-size="16" >H</text>
</svg>
</g>
<text font-size="18.000000" fill ="black" font-family="sans-serif"
x="10.000000" y="20.000000" ></text>
</svg>
