<?xml version="1.0"?>
<svg version="1.1" id="topsvg"
xmlns="http://www.w3.org/2000/svg" xmlns:xlink="http://www.w3.org/1999/xlink"
xmlns:cml="http://www.xml-cml.org/schema" x="0" y="0" width="200px" height="200px" viewBox="0 0 100 100">
<title> - Open Babel Depiction</title>
<rect x="0" y="0" width="100" height="100" fill="white"/>
<g transform="translate(0,0)">
<svg width="100" height="100" x="0" y="0" viewBox="0 0 312.107 298.609"
font-family="sans-serif" stroke="rgb(0,0,0)" stroke-width="2"  stroke-linecap="round">
<line x1="113.7" y1="175.3" x2="70.8" y2="148.4" stroke="rgb(0,0,0)"  stroke-width="2.0"/>
<line x1="113.7" y1="175.3" x2="132.8" y2="186.0" stroke="rgb(0,0,0)"  stroke-width="2.0"/>
<line x1="70.8" y1="148.4" x2="71.6" y2="126.5" stroke="rgb(0,0,0)"  stroke-width="2.0"/>
<line x1="70.8" y1="148.4" x2="51.5" y2="158.7" stroke="rgb(0,0,0)"  stroke-width="2.0"/>
<line x1="70.8" y1="148.4" x2="52.3" y2="136.8" stroke="rgb(0,0,0)"  stroke-width="2.0"/>
<line x1="156.3" y1="149.9" x2="113.7" y2="175.3" stroke="rgb(0,0,0)"  stroke-width="2.0"/>
<line x1="165.2" y1="153.5" x2="164.4" y2="155.0" stroke="rgb(0,0,0)"  stroke-width="1.0"/>
<line x1="172.3" y1="156.4" x2="171.0" y2="159.0" stroke="rgb(0,0,0)"  stroke-width="1.0"/>
<line x1="179.4" y1="159.3" x2="177.5" y2="163.0" stroke="rgb(0,0,0)"  stroke-width="1.0"/>
<line x1="186.5" y1="162.2" x2="184.1" y2="167.1" stroke="rgb(0,0,0)"  stroke-width="1.0"/>
<line x1="193.6" y1="165.1" x2="190.6" y2="171.1" stroke="rgb(0,0,0)"  stroke-width="1.0"/>
<line x1="200.8" y1="168.0" x2="197.1" y2="175.2" stroke="rgb(0,0,0)"  stroke-width="1.0"/>
<line x1="156.3" y1="149.9" x2="137.2" y2="139.1" stroke="rgb(0,0,0)"  stroke-width="2.0"/>
<line x1="156.5" y1="99.6" x2="137.5" y2="88.6" stroke="rgb(0,0,0)"  stroke-width="2.0"/>
<line x1="156.5" y1="99.6" x2="156.5" y2="77.7" stroke="rgb(0,0,0)"  stroke-width="2.0"/>
<line x1="199.1" y1="74.9" x2="199.1" y2="53.0" stroke="rgb(0,0,0)"  stroke-width="2.0"/>
<line x1="199.1" y1="74.9" x2="218.1" y2="64.0" stroke="rgb(0,0,0)"  stroke-width="2.0"/>
<line x1="241.8" y1="99.9" x2="260.8" y2="89.0" stroke="rgb(0,0,0)"  stroke-width="2.0"/>
<line x1="241.8" y1="99.9" x2="241.9" y2="77.9" stroke="rgb(0,0,0)"  stroke-width="2.0"/>
<line x1="241.4" y1="149.2" x2="260.1" y2="160.6" stroke="rgb(0,0,0)"  stroke-width="2.0"/>
<line x1="241.4" y1="149.2" x2="240.7" y2="171.1" stroke="rgb(0,0,0)"  stroke-width="2.0"/>
<line x1="114.1" y1="223.7" x2="113.7" y2="175.3" stroke="rgb(0,0,0)"  stroke-width="2.0"/>
<line x1="114.1" y1="223.7" x2="95.2" y2="234.8" stroke="rgb(0,0,0)"  stroke-width="2.0"/>
<line x1="114.1" y1="223.7" x2="133.2" y2="234.5" stroke="rgb(0,0,0)"  stroke-width="2.0"/>
<line x1="114.1" y1="223.7" x2="114.3" y2="245.6" stroke="rgb(0,0,0)"  stroke-width="2.0"/>
<line x1="199.0" y1="171.6" x2="197.8" y2="210.7" stroke="rgb(0,0,0)"  stroke-width="2.0"/>
<polygon points="198.958206 171.596173 180.885832 186.976202 176.802127 180.097006 " stroke-width="2.000000" fill="rgb(0,0,0)"  stroke="rgb(0,0,0)" />
<line x1="186.0" y1="229.9" x2="181.0" y2="232.5" stroke="rgb(0,0,0)"  stroke-width="2.0"/>
<line x1="156.5" y1="99.6" x2="156.3" y2="149.9" stroke="rgb(0,0,0)"  stroke-width="2.0"/>
<line x1="156.3" y1="149.9" x2="199.0" y2="171.6" stroke="rgb(0,0,0)"  stroke-width="2.0"/>
<line x1="199.0" y1="171.6" x2="241.4" y2="149.2" stroke="rgb(0,0,0)"  stroke-width="2.0"/>
<line x1="241.4" y1="149.2" x2="241.8" y2="99.9" stroke="rgb(0,0,0)"  stroke-width="2.0"/>
<line x1="241.8" y1="99.9" x2="199.1" y2="74.9" stroke="rgb(0,0,0)"  stroke-width="2.0"/>
<line x1="199.1" y1="74.9" x2="156.5" y2="99.6" stroke="rgb(0,0,0)"  stroke-width="2.0"/>
<text x="191.418154" y="231.696929" fill="rgb(255,12,12)"  stroke="rgb(255,12,12)" stroke-width="1" font-size="16" >O</text>
<text x="163.553646" y="246.702652" fill="rgb(191,191,191)"  stroke="rgb(191,191,191)" stroke-width="1" font-size="16" >H</text>
<text x="138.165621" y="200.396669" fill="rgb(191,191,191)"  stroke="rgb(191,191,191)" stroke-width="1" font-size="16" >H</text>
<text x="66.060498" y="121.530977" fill="rgb(191,191,191)"  stroke="rgb(191,191,191)" stroke-width="1" font-size="16" >H</text>
<text x="34.000000" y="172.802976" fill="rgb(191,191,191)"  stroke="rgb(191,191,191)" stroke-width="1" font-size="16" >H</text>
<text x="35.230084" y="137.910348" fill="rgb(191,191,191)"  stroke="rgb(191,191,191)" stroke-width="1" font-size="16" >H</text>
<text x="119.952544" y="140.615228" fill="rgb(191,191,191)"  stroke="rgb(191,191,191)" stroke-width="1" font-size="16" >H</text>
<text x="120.252723" y="90.132832" fill="rgb(191,191,191)"  stroke="rgb(191,191,191)" stroke-width="1" font-size="16" >H</text>
<text x="150.450149" y="72.706095" fill="rgb(191,191,191)"  stroke="rgb(191,191,191)" stroke-width="1" font-size="16" >H</text>
<text x="193.114821" y="48.000000" fill="rgb(191,191,191)"  stroke="rgb(191,191,191)" stroke-width="1" font-size="16" >H</text>
<text x="223.351401" y="65.557250" fill="rgb(191,191,191)"  stroke="rgb(191,191,191)" stroke-width="1" font-size="16" >H</text>
<text x="266.107432" y="90.599416" fill="rgb(191,191,191)"  stroke="rgb(191,191,191)" stroke-width="1" font-size="16" >H</text>
<text x="235.962212" y="72.947544" fill="rgb(191,191,191)"  stroke="rgb(191,191,191)" stroke-width="1" font-size="16" >H</text>
<text x="265.200368" y="175.328401" fill="rgb(191,191,191)"  stroke="rgb(191,191,191)" stroke-width="1" font-size="16" >H</text>
<text x="234.317749" y="192.086259" fill="rgb(191,191,191)"  stroke="rgb(191,191,191)" stroke-width="1" font-size="16" >H</text>
<text x="77.995904" y="249.371641" fill="rgb(191,191,191)"  stroke="rgb(191,191,191)" stroke-width="1" font-size="16" >H</text>
<text x="138.462538" y="248.931160" fill="rgb(191,191,191)"  stroke="rgb(191,191,191)" stroke-width="1" font-size="16" >H</text>
<text x="108.356471" y="266.609134" fill="rgb(191,191,191)"  stroke="rgb(191,191,191)" stroke-width="1" font-size="16" >H</text>
<text x="162.936972" y="197.417712" fill="rgb(191,191,191)"  stroke="rgb(191,191,191)" stroke-width="1" font-size="16" >H</text>
</svg>
</g>
<text font-size="18.000000" fill ="black" font-family="sans-serif"
x="10.000000" y="20.000000" ></text>
</svg>
