<?xml version="1.0"?>
<svg version="1.1" id="topsvg"
xmlns="http://www.w3.org/2000/svg" xmlns:xlink="http://www.w3.org/1999/xlink"
xmlns:cml="http://www.xml-cml.org/schema" x="0" y="0" width="200px" height="200px" viewBox="0 0 100 100">
<title> - Open Babel Depiction</title>
<rect x="0" y="0" width="100" height="100" fill="white"/>
<g transform="translate(0,0)">
<svg width="100" height="100" x="0" y="0" viewBox="0 0 416.254 343.769"
font-family="sans-serif" stroke="rgb(0,0,0)" stroke-width="2"  stroke-linecap="round">
<line x1="192.8" y1="241.1" x2="175.2" y2="257.1" stroke="rgb(0,0,0)"  stroke-width="2.0"/>
<line x1="192.8" y1="241.1" x2="198.1" y2="264.2" stroke="rgb(0,0,0)"  stroke-width="2.0"/>
<line x1="138.8" y1="168.6" x2="119.4" y2="179.9" stroke="rgb(0,0,0)"  stroke-width="2.0"/>
<line x1="139.1" y1="118.5" x2="119.0" y2="111.2" stroke="rgb(0,0,0)"  stroke-width="2.0"/>
<line x1="111.2" y1="94.6" x2="118.5" y2="74.5" stroke="rgb(0,0,0)"  stroke-width="2.0"/>
<line x1="94.6" y1="102.3" x2="74.5" y2="95.1" stroke="rgb(0,0,0)"  stroke-width="2.0"/>
<line x1="102.3" y1="119.0" x2="95.1" y2="139.1" stroke="rgb(0,0,0)"  stroke-width="2.0"/>
<line x1="118.5" y1="74.5" x2="141.9" y2="70.4" stroke="rgb(0,0,0)"  stroke-width="2.0"/>
<line x1="118.5" y1="74.5" x2="103.3" y2="56.3" stroke="rgb(0,0,0)"  stroke-width="2.0"/>
<line x1="118.5" y1="74.5" x2="126.6" y2="52.2" stroke="rgb(0,0,0)"  stroke-width="2.0"/>
<line x1="74.5" y1="95.1" x2="70.4" y2="71.7" stroke="rgb(0,0,0)"  stroke-width="2.0"/>
<line x1="74.5" y1="95.1" x2="56.3" y2="110.3" stroke="rgb(0,0,0)"  stroke-width="2.0"/>
<line x1="74.5" y1="95.1" x2="52.2" y2="86.9" stroke="rgb(0,0,0)"  stroke-width="2.0"/>
<line x1="95.1" y1="139.1" x2="71.7" y2="143.2" stroke="rgb(0,0,0)"  stroke-width="2.0"/>
<line x1="95.1" y1="139.1" x2="110.3" y2="157.2" stroke="rgb(0,0,0)"  stroke-width="2.0"/>
<line x1="95.1" y1="139.1" x2="86.9" y2="161.4" stroke="rgb(0,0,0)"  stroke-width="2.0"/>
<line x1="185.2" y1="55.9" x2="185.3" y2="94.2" stroke="rgb(0,0,0)"  stroke-width="2.0"/>
<line x1="179.2" y1="55.9" x2="179.3" y2="94.2" stroke="rgb(0,0,0)"  stroke-width="2.0"/>
<polygon points="225.670751 168.073539 222.172242 117.619468 230.171847 117.699012 " stroke-width="2.000000" fill="rgb(0,0,0)"  stroke="rgb(0,0,0)" />
<line x1="266.5" y1="101.6" x2="266.6" y2="77.9" stroke="rgb(0,0,0)"  stroke-width="2.0"/>
<line x1="266.5" y1="101.6" x2="286.2" y2="88.4" stroke="rgb(0,0,0)"  stroke-width="2.0"/>
<line x1="314.0" y1="121.0" x2="339.5" y2="167.2" stroke="rgb(0,0,0)"  stroke-width="2.0"/>
<line x1="311.3" y1="125.2" x2="310.1" y2="124.1" stroke="rgb(0,0,0)"  stroke-width="1.0"/>
<line x1="309.2" y1="128.6" x2="307.0" y2="126.7" stroke="rgb(0,0,0)"  stroke-width="1.0"/>
<line x1="307.0" y1="131.9" x2="303.9" y2="129.2" stroke="rgb(0,0,0)"  stroke-width="1.0"/>
<line x1="304.9" y1="135.3" x2="300.8" y2="131.7" stroke="rgb(0,0,0)"  stroke-width="1.0"/>
<line x1="302.8" y1="138.7" x2="297.7" y2="134.2" stroke="rgb(0,0,0)"  stroke-width="1.0"/>
<line x1="300.6" y1="142.1" x2="294.6" y2="136.7" stroke="rgb(0,0,0)"  stroke-width="1.0"/>
<line x1="237.7" y1="267.0" x2="237.3" y2="290.8" stroke="rgb(0,0,0)"  stroke-width="2.0"/>
<line x1="237.7" y1="267.0" x2="258.4" y2="255.5" stroke="rgb(0,0,0)"  stroke-width="2.0"/>
<line x1="237.7" y1="267.0" x2="258.1" y2="279.2" stroke="rgb(0,0,0)"  stroke-width="2.0"/>
<line x1="195.9" y1="242.0" x2="237.7" y2="267.0" stroke="rgb(0,0,0)"  stroke-width="2.0"/>
<polygon points="195.857541 242.000548 179.315212 194.677967 187.053664 192.649084 " stroke-width="2.000000" fill="rgb(0,0,0)"  stroke="rgb(0,0,0)" />
<line x1="195.9" y1="242.0" x2="214.8" y2="227.7" stroke="rgb(0,0,0)"  stroke-width="2.0"/>
<line x1="283.0" y1="109.0" x2="323.7" y2="117.5" stroke="rgb(0,0,0)"  stroke-width="2.0"/>
<line x1="283.0" y1="109.0" x2="280.4" y2="132.6" stroke="rgb(0,0,0)"  stroke-width="2.0"/>
<line x1="225.7" y1="168.1" x2="268.8" y2="193.8" stroke="rgb(0,0,0)"  stroke-width="2.0"/>
<line x1="225.7" y1="168.1" x2="225.7" y2="191.8" stroke="rgb(0,0,0)"  stroke-width="2.0"/>
<line x1="339.5" y1="167.2" x2="327.3" y2="187.5" stroke="rgb(0,0,0)"  stroke-width="2.0"/>
<line x1="339.5" y1="167.2" x2="363.3" y2="167.6" stroke="rgb(0,0,0)"  stroke-width="2.0"/>
<line x1="339.5" y1="167.2" x2="351.0" y2="187.9" stroke="rgb(0,0,0)"  stroke-width="2.0"/>
<line x1="267.3" y1="191.2" x2="313.4" y2="163.7" stroke="rgb(0,0,0)"  stroke-width="2.0"/>
<line x1="270.3" y1="196.4" x2="316.5" y2="168.9" stroke="rgb(0,0,0)"  stroke-width="2.0"/>
<line x1="268.8" y1="193.8" x2="268.8" y2="216.3" stroke="rgb(0,0,0)"  stroke-width="2.0"/>
<line x1="323.7" y1="117.5" x2="331.1" y2="140.1" stroke="rgb(0,0,0)"  stroke-width="2.0"/>
<line x1="323.7" y1="117.5" x2="339.5" y2="99.8" stroke="rgb(0,0,0)"  stroke-width="2.0"/>
<line x1="323.7" y1="117.5" x2="346.9" y2="122.4" stroke="rgb(0,0,0)"  stroke-width="2.0"/>
<line x1="314.9" y1="166.3" x2="334.5" y2="177.3" stroke="rgb(0,0,0)"  stroke-width="2.0"/>
<line x1="314.9" y1="166.3" x2="314.6" y2="143.9" stroke="rgb(0,0,0)"  stroke-width="2.0"/>
<line x1="192.8" y1="241.1" x2="195.9" y2="242.0" stroke="rgb(0,0,0)"  stroke-width="2.0"/>
<line x1="195.9" y1="242.0" x2="183.2" y2="193.7" stroke="rgb(0,0,0)"  stroke-width="2.0"/>
<line x1="183.2" y1="193.7" x2="192.8" y2="241.1" stroke="rgb(0,0,0)"  stroke-width="2.0"/>
<line x1="266.5" y1="101.6" x2="314.0" y2="121.0" stroke="rgb(0,0,0)"  stroke-width="2.0"/>
<line x1="314.0" y1="121.0" x2="283.0" y2="109.0" stroke="rgb(0,0,0)"  stroke-width="2.0"/>
<line x1="283.0" y1="109.0" x2="226.2" y2="117.7" stroke="rgb(0,0,0)"  stroke-width="2.0"/>
<line x1="226.2" y1="117.7" x2="266.5" y2="101.6" stroke="rgb(0,0,0)"  stroke-width="2.0"/>
<line x1="138.8" y1="168.6" x2="139.1" y2="118.5" stroke="rgb(0,0,0)"  stroke-width="2.0"/>
<line x1="146.0" y1="162.7" x2="146.2" y2="124.6" stroke="rgb(0,0,0)"  stroke-width="2.0"/>
<line x1="139.1" y1="118.5" x2="182.3" y2="94.2" stroke="rgb(0,0,0)"  stroke-width="2.0"/>
<line x1="182.3" y1="94.2" x2="226.2" y2="117.7" stroke="rgb(0,0,0)"  stroke-width="2.0"/>
<line x1="226.2" y1="117.7" x2="225.7" y2="168.1" stroke="rgb(0,0,0)"  stroke-width="2.0"/>
<line x1="225.7" y1="168.1" x2="183.2" y2="193.7" stroke="rgb(0,0,0)"  stroke-width="2.0"/>
<line x1="183.2" y1="193.7" x2="138.8" y2="168.6" stroke="rgb(0,0,0)"  stroke-width="2.0"/>
<text x="100.792165" y="114.792165" fill="rgb(127,153,153)"  stroke="rgb(127,153,153)" stroke-width="1" font-size="16" >Si</text>
<text x="176.174985" y="50.921921" fill="rgb(255,12,12)"  stroke="rgb(255,12,12)" stroke-width="1" font-size="16" >O</text>
<text x="159.646044" y="273.877211" fill="rgb(191,191,191)"  stroke="rgb(191,191,191)" stroke-width="1" font-size="16" >H</text>
<text x="194.997513" y="284.881626" fill="rgb(191,191,191)"  stroke="rgb(191,191,191)" stroke-width="1" font-size="16" >H</text>
<text x="102.169005" y="194.432543" fill="rgb(191,191,191)"  stroke="rgb(191,191,191)" stroke-width="1" font-size="16" >H</text>
<text x="148.710299" y="76.137655" fill="rgb(191,191,191)"  stroke="rgb(191,191,191)" stroke-width="1" font-size="16" >H</text>
<text x="88.912204" y="54.382904" fill="rgb(191,191,191)"  stroke="rgb(191,191,191)" stroke-width="1" font-size="16" >H</text>
<text x="125.091150" y="48.000000" fill="rgb(191,191,191)"  stroke="rgb(191,191,191)" stroke-width="1" font-size="16" >H</text>
<text x="62.137655" y="66.874031" fill="rgb(191,191,191)"  stroke="rgb(191,191,191)" stroke-width="1" font-size="16" >H</text>
<text x="40.382904" y="126.672127" fill="rgb(191,191,191)"  stroke="rgb(191,191,191)" stroke-width="1" font-size="16" >H</text>
<text x="34.000000" y="90.493180" fill="rgb(191,191,191)"  stroke="rgb(191,191,191)" stroke-width="1" font-size="16" >H</text>
<text x="52.874031" y="153.439809" fill="rgb(191,191,191)"  stroke="rgb(191,191,191)" stroke-width="1" font-size="16" >H</text>
<text x="112.672127" y="175.197993" fill="rgb(191,191,191)"  stroke="rgb(191,191,191)" stroke-width="1" font-size="16" >H</text>
<text x="76.493180" y="181.580897" fill="rgb(191,191,191)"  stroke="rgb(191,191,191)" stroke-width="1" font-size="16" >H</text>
<text x="260.615416" y="72.896416" fill="rgb(191,191,191)"  stroke="rgb(191,191,191)" stroke-width="1" font-size="16" >H</text>
<text x="290.991722" y="89.198745" fill="rgb(191,191,191)"  stroke="rgb(191,191,191)" stroke-width="1" font-size="16" >H</text>
<text x="283.578764" y="156.464735" fill="rgb(191,191,191)"  stroke="rgb(191,191,191)" stroke-width="1" font-size="16" >H</text>
<text x="231.107789" y="311.769481" fill="rgb(191,191,191)"  stroke="rgb(191,191,191)" stroke-width="1" font-size="16" >H</text>
<text x="263.784550" y="257.166294" fill="rgb(191,191,191)"  stroke="rgb(191,191,191)" stroke-width="1" font-size="16" >H</text>
<text x="263.207720" y="293.901469" fill="rgb(191,191,191)"  stroke="rgb(191,191,191)" stroke-width="1" font-size="16" >H</text>
<text x="219.238128" y="227.943648" fill="rgb(191,191,191)"  stroke="rgb(191,191,191)" stroke-width="1" font-size="16" >H</text>
<text x="272.976070" y="153.508479" fill="rgb(191,191,191)"  stroke="rgb(191,191,191)" stroke-width="1" font-size="16" >H</text>
<text x="219.742855" y="212.812148" fill="rgb(191,191,191)"  stroke="rgb(191,191,191)" stroke-width="1" font-size="16" >H</text>
<text x="314.576536" y="206.645555" fill="rgb(191,191,191)"  stroke="rgb(191,191,191)" stroke-width="1" font-size="16" >H</text>
<text x="370.254414" y="175.836626" fill="rgb(191,191,191)"  stroke="rgb(191,191,191)" stroke-width="1" font-size="16" >H</text>
<text x="351.308279" y="207.311657" fill="rgb(191,191,191)"  stroke="rgb(191,191,191)" stroke-width="1" font-size="16" >H</text>
<text x="262.785398" y="237.251907" fill="rgb(191,191,191)"  stroke="rgb(191,191,191)" stroke-width="1" font-size="16" >H</text>
<text x="329.155240" y="160.416711" fill="rgb(191,191,191)"  stroke="rgb(191,191,191)" stroke-width="1" font-size="16" >H</text>
<text x="342.192297" y="98.132751" fill="rgb(191,191,191)"  stroke="rgb(191,191,191)" stroke-width="1" font-size="16" >H</text>
<text x="353.653369" y="133.041297" fill="rgb(191,191,191)"  stroke="rgb(191,191,191)" stroke-width="1" font-size="16" >H</text>
<text x="339.864373" y="191.617061" fill="rgb(191,191,191)"  stroke="rgb(191,191,191)" stroke-width="1" font-size="16" >H</text>
<text x="308.447712" y="138.895440" fill="rgb(191,191,191)"  stroke="rgb(191,191,191)" stroke-width="1" font-size="16" >H</text>
</svg>
</g>
<text font-size="18.000000" fill ="black" font-family="sans-serif"
x="10.000000" y="20.000000" ></text>
</svg>
