<?xml version="1.0"?>
<svg version="1.1" id="topsvg"
xmlns="http://www.w3.org/2000/svg" xmlns:xlink="http://www.w3.org/1999/xlink"
xmlns:cml="http://www.xml-cml.org/schema" x="0" y="0" width="200px" height="200px" viewBox="0 0 100 100">
<title> - Open Babel Depiction</title>
<rect x="0" y="0" width="100" height="100" fill="white"/>
<g transform="translate(0,0)">
<svg width="100" height="100" x="0" y="0" viewBox="0 0 387.801 294.182"
font-family="sans-serif" stroke="rgb(0,0,0)" stroke-width="2"  stroke-linecap="round">
<line x1="68.6" y1="146.5" x2="51.2" y2="156.7" stroke="rgb(0,0,0)"  stroke-width="2.0"/>
<line x1="110.9" y1="168.8" x2="111.2" y2="219.8" stroke="rgb(0,0,0)"  stroke-width="2.0"/>
<line x1="69.7" y1="98.0" x2="51.4" y2="87.1" stroke="rgb(0,0,0)"  stroke-width="2.0"/>
<line x1="69.7" y1="98.0" x2="69.9" y2="76.6" stroke="rgb(0,0,0)"  stroke-width="2.0"/>
<line x1="111.1" y1="74.4" x2="110.8" y2="53.1" stroke="rgb(0,0,0)"  stroke-width="2.0"/>
<line x1="111.1" y1="74.4" x2="129.4" y2="63.4" stroke="rgb(0,0,0)"  stroke-width="2.0"/>
<line x1="152.9" y1="97.1" x2="152.9" y2="75.8" stroke="rgb(0,0,0)"  stroke-width="2.0"/>
<line x1="195.0" y1="74.4" x2="194.9" y2="53.0" stroke="rgb(0,0,0)"  stroke-width="2.0"/>
<line x1="195.0" y1="74.4" x2="213.3" y2="63.3" stroke="rgb(0,0,0)"  stroke-width="2.0"/>
<line x1="237.0" y1="96.4" x2="255.2" y2="85.2" stroke="rgb(0,0,0)"  stroke-width="2.0"/>
<line x1="237.0" y1="96.4" x2="255.6" y2="106.8" stroke="rgb(0,0,0)"  stroke-width="2.0"/>
<line x1="237.3" y1="145.4" x2="273.5" y2="166.0" stroke="rgb(0,0,0)"  stroke-width="2.0"/>
<line x1="237.3" y1="145.4" x2="255.7" y2="134.6" stroke="rgb(0,0,0)"  stroke-width="2.0"/>
<line x1="272.1" y1="163.3" x2="318.3" y2="138.9" stroke="rgb(0,0,0)"  stroke-width="2.0"/>
<line x1="274.9" y1="168.6" x2="321.1" y2="144.2" stroke="rgb(0,0,0)"  stroke-width="2.0"/>
<line x1="319.7" y1="141.5" x2="336.8" y2="152.3" stroke="rgb(0,0,0)"  stroke-width="2.0"/>
<line x1="319.7" y1="141.5" x2="320.5" y2="121.4" stroke="rgb(0,0,0)"  stroke-width="2.0"/>
<line x1="278.9" y1="219.4" x2="273.5" y2="166.0" stroke="rgb(0,0,0)"  stroke-width="2.0"/>
<line x1="278.9" y1="219.4" x2="261.5" y2="231.9" stroke="rgb(0,0,0)"  stroke-width="2.0"/>
<line x1="278.9" y1="219.4" x2="298.4" y2="228.2" stroke="rgb(0,0,0)"  stroke-width="2.0"/>
<line x1="278.9" y1="219.4" x2="281.0" y2="240.7" stroke="rgb(0,0,0)"  stroke-width="2.0"/>
<line x1="111.2" y1="219.8" x2="92.7" y2="230.6" stroke="rgb(0,0,0)"  stroke-width="2.0"/>
<line x1="111.2" y1="219.8" x2="129.8" y2="230.4" stroke="rgb(0,0,0)"  stroke-width="2.0"/>
<line x1="111.2" y1="219.8" x2="111.3" y2="241.2" stroke="rgb(0,0,0)"  stroke-width="2.0"/>
<line x1="152.8" y1="145.7" x2="134.4" y2="134.8" stroke="rgb(0,0,0)"  stroke-width="2.0"/>
<line x1="195.4" y1="168.9" x2="195.5" y2="190.3" stroke="rgb(0,0,0)"  stroke-width="2.0"/>
<line x1="195.4" y1="168.9" x2="213.9" y2="179.7" stroke="rgb(0,0,0)"  stroke-width="2.0"/>
<line x1="110.9" y1="168.8" x2="152.8" y2="145.7" stroke="rgb(0,0,0)"  stroke-width="2.0"/>
<line x1="152.8" y1="145.7" x2="152.9" y2="97.1" stroke="rgb(0,0,0)"  stroke-width="2.0"/>
<line x1="152.9" y1="97.1" x2="111.1" y2="74.4" stroke="rgb(0,0,0)"  stroke-width="2.0"/>
<line x1="111.1" y1="74.4" x2="69.7" y2="98.0" stroke="rgb(0,0,0)"  stroke-width="2.0"/>
<line x1="69.7" y1="98.0" x2="68.6" y2="146.5" stroke="rgb(0,0,0)"  stroke-width="2.0"/>
<line x1="68.6" y1="146.5" x2="110.9" y2="168.8" stroke="rgb(0,0,0)"  stroke-width="2.0"/>
<line x1="77.2" y1="142.9" x2="109.0" y2="159.6" stroke="rgb(0,0,0)"  stroke-width="2.0"/>
<line x1="237.3" y1="145.4" x2="237.0" y2="96.4" stroke="rgb(0,0,0)"  stroke-width="2.0"/>
<line x1="237.0" y1="96.4" x2="195.0" y2="74.4" stroke="rgb(0,0,0)"  stroke-width="2.0"/>
<line x1="195.0" y1="74.4" x2="152.9" y2="97.1" stroke="rgb(0,0,0)"  stroke-width="2.0"/>
<line x1="152.8" y1="145.7" x2="195.4" y2="168.9" stroke="rgb(0,0,0)"  stroke-width="2.0"/>
<line x1="195.4" y1="168.9" x2="237.3" y2="145.4" stroke="rgb(0,0,0)"  stroke-width="2.0"/>
<text x="34.000000" y="171.302308" fill="rgb(191,191,191)"  stroke="rgb(191,191,191)" stroke-width="1" font-size="16" >H</text>
<text x="34.205595" y="88.405816" fill="rgb(191,191,191)"  stroke="rgb(191,191,191)" stroke-width="1" font-size="16" >H</text>
<text x="64.058612" y="71.646622" fill="rgb(191,191,191)"  stroke="rgb(191,191,191)" stroke-width="1" font-size="16" >H</text>
<text x="104.698934" y="48.061036" fill="rgb(191,191,191)"  stroke="rgb(191,191,191)" stroke-width="1" font-size="16" >H</text>
<text x="134.506977" y="64.698158" fill="rgb(191,191,191)"  stroke="rgb(191,191,191)" stroke-width="1" font-size="16" >H</text>
<text x="146.913342" y="70.753569" fill="rgb(191,191,191)"  stroke="rgb(191,191,191)" stroke-width="1" font-size="16" >H</text>
<text x="188.816145" y="48.000000" fill="rgb(191,191,191)"  stroke="rgb(191,191,191)" stroke-width="1" font-size="16" >H</text>
<text x="218.380044" y="64.498988" fill="rgb(191,191,191)"  stroke="rgb(191,191,191)" stroke-width="1" font-size="16" >H</text>
<text x="260.318184" y="86.484789" fill="rgb(191,191,191)"  stroke="rgb(191,191,191)" stroke-width="1" font-size="16" >H</text>
<text x="260.986368" y="121.105036" fill="rgb(191,191,191)"  stroke="rgb(191,191,191)" stroke-width="1" font-size="16" >H</text>
<text x="260.928544" y="136.046001" fill="rgb(191,191,191)"  stroke="rgb(191,191,191)" stroke-width="1" font-size="16" >H</text>
<text x="341.801211" y="167.193623" fill="rgb(191,191,191)"  stroke="rgb(191,191,191)" stroke-width="1" font-size="16" >H</text>
<text x="314.999993" y="116.411691" fill="rgb(191,191,191)"  stroke="rgb(191,191,191)" stroke-width="1" font-size="16" >H</text>
<text x="245.004579" y="247.510541" fill="rgb(191,191,191)"  stroke="rgb(191,191,191)" stroke-width="1" font-size="16" >H</text>
<text x="304.238387" y="241.496892" fill="rgb(191,191,191)"  stroke="rgb(191,191,191)" stroke-width="1" font-size="16" >H</text>
<text x="276.357796" y="261.600215" fill="rgb(191,191,191)"  stroke="rgb(191,191,191)" stroke-width="1" font-size="16" >H</text>
<text x="75.523738" y="245.162263" fill="rgb(191,191,191)"  stroke="rgb(191,191,191)" stroke-width="1" font-size="16" >H</text>
<text x="135.056301" y="244.828171" fill="rgb(191,191,191)"  stroke="rgb(191,191,191)" stroke-width="1" font-size="16" >H</text>
<text x="105.386392" y="262.181663" fill="rgb(191,191,191)"  stroke="rgb(191,191,191)" stroke-width="1" font-size="16" >H</text>
<text x="117.220946" y="136.200197" fill="rgb(191,191,191)"  stroke="rgb(191,191,191)" stroke-width="1" font-size="16" >H</text>
<text x="189.590339" y="211.322633" fill="rgb(191,191,191)"  stroke="rgb(191,191,191)" stroke-width="1" font-size="16" >H</text>
<text x="219.102839" y="194.232560" fill="rgb(191,191,191)"  stroke="rgb(191,191,191)" stroke-width="1" font-size="16" >H</text>
</svg>
</g>
<text font-size="18.000000" fill ="black" font-family="sans-serif"
x="10.000000" y="20.000000" ></text>
</svg>
