<?xml version="1.0"?>
<svg version="1.1" id="topsvg"
xmlns="http://www.w3.org/2000/svg" xmlns:xlink="http://www.w3.org/1999/xlink"
xmlns:cml="http://www.xml-cml.org/schema" x="0" y="0" width="200px" height="200px" viewBox="0 0 100 100">
<title> - Open Babel Depiction</title>
<rect x="0" y="0" width="100" height="100" fill="white"/>
<g transform="translate(0,0)">
<svg width="100" height="100" x="0" y="0" viewBox="0 0 312.561 438.445"
font-family="sans-serif" stroke="rgb(0,0,0)" stroke-width="2"  stroke-linecap="round">
<line x1="125.8" y1="344.4" x2="170.7" y2="320.6" stroke="rgb(0,0,0)"  stroke-width="2.0"/>
<line x1="170.7" y1="320.6" x2="156.4" y2="366.4" stroke="rgb(0,0,0)"  stroke-width="2.0"/>
<line x1="193.1" y1="247.2" x2="192.9" y2="200.9" stroke="rgb(0,0,0)"  stroke-width="2.0"/>
<line x1="151.9" y1="166.6" x2="153.5" y2="166.6" stroke="rgb(0,0,0)"  stroke-width="1.0"/>
<line x1="151.3" y1="159.1" x2="154.2" y2="159.2" stroke="rgb(0,0,0)"  stroke-width="1.0"/>
<line x1="150.7" y1="151.7" x2="154.9" y2="151.7" stroke="rgb(0,0,0)"  stroke-width="1.0"/>
<line x1="150.1" y1="144.2" x2="155.6" y2="144.2" stroke="rgb(0,0,0)"  stroke-width="1.0"/>
<line x1="149.5" y1="136.7" x2="156.2" y2="136.8" stroke="rgb(0,0,0)"  stroke-width="1.0"/>
<line x1="148.9" y1="129.3" x2="156.9" y2="129.3" stroke="rgb(0,0,0)"  stroke-width="1.0"/>
<line x1="152.6" y1="175.9" x2="152.0" y2="210.3" stroke="rgb(0,0,0)"  stroke-width="2.0"/>
<line x1="111.3" y1="198.3" x2="152.6" y2="175.9" stroke="rgb(0,0,0)"  stroke-width="2.0"/>
<line x1="71.9" y1="173.3" x2="112.8" y2="195.6" stroke="rgb(0,0,0)"  stroke-width="2.0"/>
<line x1="69.0" y1="178.6" x2="109.9" y2="200.9" stroke="rgb(0,0,0)"  stroke-width="2.0"/>
<line x1="113.5" y1="107.3" x2="69.7" y2="130.0" stroke="rgb(0,0,0)"  stroke-width="2.0"/>
<polygon points="152.943294 129.304736 111.561824 110.788893 115.460763 103.803316 " stroke-width="2.000000" fill="rgb(0,0,0)"  stroke="rgb(0,0,0)" />
<line x1="115.0" y1="71.2" x2="116.5" y2="107.2" stroke="rgb(0,0,0)"  stroke-width="2.0"/>
<line x1="109.0" y1="71.4" x2="110.5" y2="107.4" stroke="rgb(0,0,0)"  stroke-width="2.0"/>
<line x1="220.8" y1="78.0" x2="239.1" y2="77.4" stroke="rgb(0,0,0)"  stroke-width="2.0"/>
<line x1="201.6" y1="89.9" x2="193.0" y2="106.1" stroke="rgb(0,0,0)"  stroke-width="2.0"/>
<line x1="152.9" y1="129.3" x2="152.4" y2="73.5" stroke="rgb(0,0,0)"  stroke-width="2.0"/>
<line x1="125.8" y1="344.4" x2="108.4" y2="333.6" stroke="rgb(0,0,0)"  stroke-width="2.0"/>
<line x1="125.8" y1="344.4" x2="125.1" y2="364.9" stroke="rgb(0,0,0)"  stroke-width="2.0"/>
<line x1="125.8" y1="344.4" x2="107.7" y2="354.1" stroke="rgb(0,0,0)"  stroke-width="2.0"/>
<line x1="217.5" y1="319.9" x2="229.8" y2="336.3" stroke="rgb(0,0,0)"  stroke-width="2.0"/>
<line x1="217.5" y1="319.9" x2="208.4" y2="338.3" stroke="rgb(0,0,0)"  stroke-width="2.0"/>
<line x1="156.4" y1="366.4" x2="136.4" y2="371.0" stroke="rgb(0,0,0)"  stroke-width="2.0"/>
<line x1="156.4" y1="366.4" x2="170.3" y2="381.5" stroke="rgb(0,0,0)"  stroke-width="2.0"/>
<line x1="156.4" y1="366.4" x2="150.3" y2="386.0" stroke="rgb(0,0,0)"  stroke-width="2.0"/>
<line x1="111.3" y1="198.3" x2="111.3" y2="217.6" stroke="rgb(0,0,0)"  stroke-width="2.0"/>
<line x1="70.4" y1="175.9" x2="70.0" y2="156.6" stroke="rgb(0,0,0)"  stroke-width="2.0"/>
<line x1="70.4" y1="175.9" x2="53.9" y2="186.0" stroke="rgb(0,0,0)"  stroke-width="2.0"/>
<line x1="69.7" y1="130.0" x2="52.5" y2="119.0" stroke="rgb(0,0,0)"  stroke-width="2.0"/>
<line x1="69.7" y1="130.0" x2="68.8" y2="150.5" stroke="rgb(0,0,0)"  stroke-width="2.0"/>
<line x1="69.7" y1="130.0" x2="51.5" y2="139.5" stroke="rgb(0,0,0)"  stroke-width="2.0"/>
<line x1="239.1" y1="77.4" x2="249.9" y2="94.8" stroke="rgb(0,0,0)"  stroke-width="2.0"/>
<line x1="239.1" y1="77.4" x2="248.7" y2="59.3" stroke="rgb(0,0,0)"  stroke-width="2.0"/>
<line x1="239.1" y1="77.4" x2="259.6" y2="76.7" stroke="rgb(0,0,0)"  stroke-width="2.0"/>
<line x1="234.3" y1="128.3" x2="250.8" y2="118.3" stroke="rgb(0,0,0)"  stroke-width="2.0"/>
<line x1="234.6" y1="176.6" x2="251.3" y2="186.2" stroke="rgb(0,0,0)"  stroke-width="2.0"/>
<line x1="152.4" y1="73.5" x2="170.1" y2="63.1" stroke="rgb(0,0,0)"  stroke-width="2.0"/>
<line x1="152.4" y1="73.5" x2="134.6" y2="63.4" stroke="rgb(0,0,0)"  stroke-width="2.0"/>
<line x1="152.4" y1="73.5" x2="152.2" y2="53.0" stroke="rgb(0,0,0)"  stroke-width="2.0"/>
<line x1="167.5" y1="265.5" x2="193.1" y2="247.2" stroke="rgb(0,0,0)"  stroke-width="2.0"/>
<line x1="172.8" y1="270.6" x2="192.4" y2="256.5" stroke="rgb(0,0,0)"  stroke-width="2.0"/>
<line x1="193.1" y1="247.2" x2="220.9" y2="267.0" stroke="rgb(0,0,0)"  stroke-width="2.0"/>
<line x1="227.6" y1="287.0" x2="217.5" y2="319.9" stroke="rgb(0,0,0)"  stroke-width="2.0"/>
<line x1="217.5" y1="319.9" x2="170.7" y2="320.6" stroke="rgb(0,0,0)"  stroke-width="2.0"/>
<line x1="170.7" y1="320.6" x2="159.1" y2="286.9" stroke="rgb(0,0,0)"  stroke-width="2.0"/>
<line x1="193.0" y1="106.1" x2="152.9" y2="129.3" stroke="rgb(0,0,0)"  stroke-width="2.0"/>
<line x1="152.9" y1="129.3" x2="152.6" y2="175.9" stroke="rgb(0,0,0)"  stroke-width="2.0"/>
<line x1="152.6" y1="175.9" x2="192.9" y2="200.9" stroke="rgb(0,0,0)"  stroke-width="2.0"/>
<line x1="192.9" y1="200.9" x2="234.6" y2="176.6" stroke="rgb(0,0,0)"  stroke-width="2.0"/>
<line x1="194.4" y1="191.6" x2="225.7" y2="173.4" stroke="rgb(0,0,0)"  stroke-width="2.0"/>
<line x1="234.6" y1="176.6" x2="234.3" y2="128.3" stroke="rgb(0,0,0)"  stroke-width="2.0"/>
<line x1="234.3" y1="128.3" x2="193.0" y2="106.1" stroke="rgb(0,0,0)"  stroke-width="2.0"/>
<line x1="225.6" y1="131.8" x2="194.9" y2="115.2" stroke="rgb(0,0,0)"  stroke-width="2.0"/>
<text x="148.900800" y="282.557945" fill="rgb(12,12,255)"  stroke="rgb(12,12,255)" stroke-width="1" font-size="16" >N</text>
<text x="225.453379" y="282.557945" fill="rgb(255,12,12)"  stroke="rgb(255,12,12)" stroke-width="1" font-size="16" >O</text>
<text x="105.497411" y="66.320870" fill="rgb(255,12,12)"  stroke="rgb(255,12,12)" stroke-width="1" font-size="16" >O</text>
<text x="201.762858" y="86.418976" fill="rgb(255,12,12)"  stroke="rgb(255,12,12)" stroke-width="1" font-size="16" >O</text>
<text x="145.746867" y="231.261892" fill="rgb(191,191,191)"  stroke="rgb(191,191,191)" stroke-width="1" font-size="16" >H</text>
<text x="91.368545" y="334.668545" fill="rgb(191,191,191)"  stroke="rgb(191,191,191)" stroke-width="1" font-size="16" >H</text>
<text x="118.592115" y="385.933940" fill="rgb(191,191,191)"  stroke="rgb(191,191,191)" stroke-width="1" font-size="16" >H</text>
<text x="90.181285" y="368.160010" fill="rgb(191,191,191)"  stroke="rgb(191,191,191)" stroke-width="1" font-size="16" >H</text>
<text x="231.567208" y="354.680968" fill="rgb(191,191,191)"  stroke="rgb(191,191,191)" stroke-width="1" font-size="16" >H</text>
<text x="196.706037" y="357.957412" fill="rgb(191,191,191)"  stroke="rgb(191,191,191)" stroke-width="1" font-size="16" >H</text>
<text x="117.721491" y="381.817939" fill="rgb(191,191,191)"  stroke="rgb(191,191,191)" stroke-width="1" font-size="16" >H</text>
<text x="173.142173" y="399.075155" fill="rgb(191,191,191)"  stroke="rgb(191,191,191)" stroke-width="1" font-size="16" >H</text>
<text x="140.450103" y="406.445120" fill="rgb(191,191,191)"  stroke="rgb(191,191,191)" stroke-width="1" font-size="16" >H</text>
<text x="105.260739" y="238.581321" fill="rgb(191,191,191)"  stroke="rgb(191,191,191)" stroke-width="1" font-size="16" >H</text>
<text x="63.678106" y="151.605074" fill="rgb(191,191,191)"  stroke="rgb(191,191,191)" stroke-width="1" font-size="16" >H</text>
<text x="36.836602" y="200.734846" fill="rgb(191,191,191)"  stroke="rgb(191,191,191)" stroke-width="1" font-size="16" >H</text>
<text x="35.502167" y="119.972245" fill="rgb(191,191,191)"  stroke="rgb(191,191,191)" stroke-width="1" font-size="16" >H</text>
<text x="62.242424" y="171.491389" fill="rgb(191,191,191)"  stroke="rgb(191,191,191)" stroke-width="1" font-size="16" >H</text>
<text x="34.000000" y="153.451065" fill="rgb(191,191,191)"  stroke="rgb(191,191,191)" stroke-width="1" font-size="16" >H</text>
<text x="250.789184" y="113.809941" fill="rgb(191,191,191)"  stroke="rgb(191,191,191)" stroke-width="1" font-size="16" >H</text>
<text x="248.838986" y="55.797354" fill="rgb(191,191,191)"  stroke="rgb(191,191,191)" stroke-width="1" font-size="16" >H</text>
<text x="266.560877" y="84.240673" fill="rgb(191,191,191)"  stroke="rgb(191,191,191)" stroke-width="1" font-size="16" >H</text>
<text x="255.964964" y="119.597279" fill="rgb(191,191,191)"  stroke="rgb(191,191,191)" stroke-width="1" font-size="16" >H</text>
<text x="256.622010" y="200.599527" fill="rgb(191,191,191)"  stroke="rgb(191,191,191)" stroke-width="1" font-size="16" >H</text>
<text x="175.305013" y="64.491638" fill="rgb(191,191,191)"  stroke="rgb(191,191,191)" stroke-width="1" font-size="16" >H</text>
<text x="117.262056" y="65.019479" fill="rgb(191,191,191)"  stroke="rgb(191,191,191)" stroke-width="1" font-size="16" >H</text>
<text x="146.131160" y="48.000000" fill="rgb(191,191,191)"  stroke="rgb(191,191,191)" stroke-width="1" font-size="16" >H</text>
</svg>
</g>
<text font-size="18.000000" fill ="black" font-family="sans-serif"
x="10.000000" y="20.000000" ></text>
</svg>
