<?xml version="1.0"?>
<svg version="1.1" id="topsvg"
xmlns="http://www.w3.org/2000/svg" xmlns:xlink="http://www.w3.org/1999/xlink"
xmlns:cml="http://www.xml-cml.org/schema" x="0" y="0" width="200px" height="200px" viewBox="0 0 100 100">
<title> - Open Babel Depiction</title>
<rect x="0" y="0" width="100" height="100" fill="white"/>
<g transform="translate(0,0)">
<svg width="100" height="100" x="0" y="0" viewBox="0 0 227.723 280.871"
font-family="sans-serif" stroke="rgb(0,0,0)" stroke-width="2"  stroke-linecap="round">
<line x1="112.7" y1="105.3" x2="113.1" y2="74.8" stroke="rgb(0,0,0)"  stroke-width="2.0"/>
<line x1="69.0" y1="182.6" x2="51.3" y2="192.8" stroke="rgb(0,0,0)"  stroke-width="2.0"/>
<line x1="69.5" y1="131.5" x2="51.7" y2="121.4" stroke="rgb(0,0,0)"  stroke-width="2.0"/>
<line x1="157.5" y1="130.4" x2="176.3" y2="119.4" stroke="rgb(0,0,0)"  stroke-width="2.0"/>
<line x1="157.5" y1="130.4" x2="176.4" y2="141.2" stroke="rgb(0,0,0)"  stroke-width="2.0"/>
<line x1="108.3" y1="103.7" x2="109.1" y2="102.3" stroke="rgb(0,0,0)"  stroke-width="1.0"/>
<line x1="104.7" y1="102.4" x2="106.2" y2="99.9" stroke="rgb(0,0,0)"  stroke-width="1.0"/>
<line x1="101.2" y1="101.1" x2="103.2" y2="97.5" stroke="rgb(0,0,0)"  stroke-width="1.0"/>
<line x1="97.6" y1="99.8" x2="100.3" y2="95.1" stroke="rgb(0,0,0)"  stroke-width="1.0"/>
<line x1="94.1" y1="98.5" x2="97.4" y2="92.7" stroke="rgb(0,0,0)"  stroke-width="1.0"/>
<line x1="90.5" y1="97.2" x2="94.5" y2="90.3" stroke="rgb(0,0,0)"  stroke-width="1.0"/>
<line x1="113.1" y1="74.8" x2="132.1" y2="64.1" stroke="rgb(0,0,0)"  stroke-width="2.0"/>
<line x1="113.1" y1="74.8" x2="94.4" y2="63.6" stroke="rgb(0,0,0)"  stroke-width="2.0"/>
<line x1="113.1" y1="74.8" x2="113.4" y2="53.0" stroke="rgb(0,0,0)"  stroke-width="2.0"/>
<line x1="157.6" y1="182.9" x2="175.3" y2="193.4" stroke="rgb(0,0,0)"  stroke-width="2.0"/>
<line x1="112.8" y1="207.3" x2="112.7" y2="227.9" stroke="rgb(0,0,0)"  stroke-width="2.0"/>
<line x1="69.5" y1="131.5" x2="69.0" y2="182.6" stroke="rgb(0,0,0)"  stroke-width="2.0"/>
<line x1="76.7" y1="137.6" x2="76.3" y2="176.6" stroke="rgb(0,0,0)"  stroke-width="2.0"/>
<line x1="69.0" y1="182.6" x2="112.8" y2="207.3" stroke="rgb(0,0,0)"  stroke-width="2.0"/>
<line x1="112.8" y1="207.3" x2="157.6" y2="182.9" stroke="rgb(0,0,0)"  stroke-width="2.0"/>
<line x1="114.7" y1="198.2" x2="148.9" y2="179.5" stroke="rgb(0,0,0)"  stroke-width="2.0"/>
<line x1="157.6" y1="182.9" x2="157.5" y2="130.4" stroke="rgb(0,0,0)"  stroke-width="2.0"/>
<line x1="157.5" y1="130.4" x2="112.7" y2="105.3" stroke="rgb(0,0,0)"  stroke-width="2.0"/>
<line x1="112.7" y1="105.3" x2="69.5" y2="131.5" stroke="rgb(0,0,0)"  stroke-width="2.0"/>
<text x="34.000000" y="207.323993" fill="rgb(191,191,191)"  stroke="rgb(191,191,191)" stroke-width="1" font-size="16" >H</text>
<text x="34.400482" y="122.946262" fill="rgb(191,191,191)"  stroke="rgb(191,191,191)" stroke-width="1" font-size="16" >H</text>
<text x="181.527710" y="120.810608" fill="rgb(191,191,191)"  stroke="rgb(191,191,191)" stroke-width="1" font-size="16" >H</text>
<text x="181.722877" y="155.659164" fill="rgb(191,191,191)"  stroke="rgb(191,191,191)" stroke-width="1" font-size="16" >H</text>
<text x="76.538463" y="96.063140" fill="rgb(191,191,191)"  stroke="rgb(191,191,191)" stroke-width="1" font-size="16" >H</text>
<text x="137.429685" y="65.759121" fill="rgb(191,191,191)"  stroke="rgb(191,191,191)" stroke-width="1" font-size="16" >H</text>
<text x="77.230004" y="64.997181" fill="rgb(191,191,191)"  stroke="rgb(191,191,191)" stroke-width="1" font-size="16" >H</text>
<text x="107.549798" y="48.000000" fill="rgb(191,191,191)"  stroke="rgb(191,191,191)" stroke-width="1" font-size="16" >H</text>
<text x="180.442998" y="208.045825" fill="rgb(191,191,191)"  stroke="rgb(191,191,191)" stroke-width="1" font-size="16" >H</text>
<text x="106.577602" y="248.871217" fill="rgb(191,191,191)"  stroke="rgb(191,191,191)" stroke-width="1" font-size="16" >H</text>
</svg>
</g>
<text font-size="18.000000" fill ="black" font-family="sans-serif"
x="10.000000" y="20.000000" ></text>
</svg>
