<?xml version="1.0"?>
<svg version="1.1" id="topsvg"
xmlns="http://www.w3.org/2000/svg" xmlns:xlink="http://www.w3.org/1999/xlink"
xmlns:cml="http://www.xml-cml.org/schema" x="0" y="0" width="200px" height="200px" viewBox="0 0 100 100">
<title> - Open Babel Depiction</title>
<rect x="0" y="0" width="100" height="100" fill="white"/>
<g transform="translate(0,0)">
<svg width="100" height="100" x="0" y="0" viewBox="0 0 474.708 454.363"
font-family="sans-serif" stroke="rgb(0,0,0)" stroke-width="2"  stroke-linecap="round">
<line x1="277.2" y1="344.4" x2="325.3" y2="332.3" stroke="rgb(0,0,0)"  stroke-width="2.0"/>
<line x1="325.3" y1="332.3" x2="312.5" y2="380.6" stroke="rgb(0,0,0)"  stroke-width="2.0"/>
<line x1="352.4" y1="254.7" x2="352.4" y2="204.0" stroke="rgb(0,0,0)"  stroke-width="2.0"/>
<line x1="309.9" y1="180.4" x2="267.0" y2="201.0" stroke="rgb(0,0,0)"  stroke-width="2.0"/>
<line x1="309.4" y1="170.6" x2="311.0" y2="170.6" stroke="rgb(0,0,0)"  stroke-width="1.0"/>
<line x1="309.0" y1="162.7" x2="311.8" y2="162.7" stroke="rgb(0,0,0)"  stroke-width="1.0"/>
<line x1="308.6" y1="154.8" x2="312.7" y2="154.9" stroke="rgb(0,0,0)"  stroke-width="1.0"/>
<line x1="308.2" y1="146.9" x2="313.6" y2="147.0" stroke="rgb(0,0,0)"  stroke-width="1.0"/>
<line x1="307.7" y1="139.0" x2="314.5" y2="139.2" stroke="rgb(0,0,0)"  stroke-width="1.0"/>
<line x1="307.3" y1="131.1" x2="315.3" y2="131.3" stroke="rgb(0,0,0)"  stroke-width="1.0"/>
<line x1="311.3" y1="131.2" x2="268.8" y2="108.9" stroke="rgb(0,0,0)"  stroke-width="2.0"/>
<line x1="380.2" y1="75.7" x2="399.8" y2="74.7" stroke="rgb(0,0,0)"  stroke-width="2.0"/>
<line x1="361.3" y1="87.9" x2="352.3" y2="105.4" stroke="rgb(0,0,0)"  stroke-width="2.0"/>
<line x1="229.6" y1="169.6" x2="268.8" y2="198.6" stroke="rgb(0,0,0)"  stroke-width="2.0"/>
<line x1="226.0" y1="174.5" x2="265.2" y2="203.4" stroke="rgb(0,0,0)"  stroke-width="2.0"/>
<line x1="138.3" y1="130.5" x2="181.3" y2="106.4" stroke="rgb(0,0,0)"  stroke-width="2.0"/>
<line x1="138.3" y1="130.5" x2="120.0" y2="123.4" stroke="rgb(0,0,0)"  stroke-width="2.0"/>
<line x1="182.8" y1="103.7" x2="225.7" y2="127.5" stroke="rgb(0,0,0)"  stroke-width="2.0"/>
<line x1="179.9" y1="109.0" x2="222.7" y2="132.8" stroke="rgb(0,0,0)"  stroke-width="2.0"/>
<line x1="224.2" y1="130.2" x2="268.8" y2="108.9" stroke="rgb(0,0,0)"  stroke-width="2.0"/>
<line x1="105.9" y1="105.8" x2="103.0" y2="86.4" stroke="rgb(0,0,0)"  stroke-width="2.0"/>
<line x1="101.1" y1="84.1" x2="116.4" y2="71.8" stroke="rgb(0,0,0)"  stroke-width="2.0"/>
<line x1="104.8" y1="88.7" x2="120.2" y2="76.5" stroke="rgb(0,0,0)"  stroke-width="2.0"/>
<line x1="103.0" y1="86.4" x2="72.5" y2="74.5" stroke="rgb(0,0,0)"  stroke-width="2.0"/>
<line x1="277.2" y1="344.4" x2="262.0" y2="328.6" stroke="rgb(0,0,0)"  stroke-width="2.0"/>
<line x1="277.2" y1="344.4" x2="271.2" y2="365.5" stroke="rgb(0,0,0)"  stroke-width="2.0"/>
<line x1="277.2" y1="344.4" x2="256.0" y2="349.7" stroke="rgb(0,0,0)"  stroke-width="2.0"/>
<line x1="376.4" y1="332.0" x2="389.5" y2="349.6" stroke="rgb(0,0,0)"  stroke-width="2.0"/>
<line x1="376.4" y1="332.0" x2="366.6" y2="351.7" stroke="rgb(0,0,0)"  stroke-width="2.0"/>
<line x1="312.5" y1="380.6" x2="291.4" y2="386.3" stroke="rgb(0,0,0)"  stroke-width="2.0"/>
<line x1="312.5" y1="380.6" x2="328.1" y2="396.0" stroke="rgb(0,0,0)"  stroke-width="2.0"/>
<line x1="312.5" y1="380.6" x2="306.9" y2="401.8" stroke="rgb(0,0,0)"  stroke-width="2.0"/>
<line x1="309.9" y1="180.4" x2="309.2" y2="202.4" stroke="rgb(0,0,0)"  stroke-width="2.0"/>
<line x1="267.0" y1="201.0" x2="265.1" y2="221.6" stroke="rgb(0,0,0)"  stroke-width="2.0"/>
<polygon points="311.339780 131.175789 306.430148 107.944426 314.424064 107.632469 " stroke-width="2.000000" fill="rgb(0,0,0)"  stroke="rgb(0,0,0)" />
<line x1="399.8" y1="74.7" x2="411.7" y2="93.2" stroke="rgb(0,0,0)"  stroke-width="2.0"/>
<line x1="399.8" y1="74.7" x2="409.8" y2="55.2" stroke="rgb(0,0,0)"  stroke-width="2.0"/>
<line x1="399.8" y1="74.7" x2="421.7" y2="73.6" stroke="rgb(0,0,0)"  stroke-width="2.0"/>
<line x1="396.3" y1="129.6" x2="414.1" y2="119.1" stroke="rgb(0,0,0)"  stroke-width="2.0"/>
<line x1="396.1" y1="181.3" x2="413.8" y2="192.0" stroke="rgb(0,0,0)"  stroke-width="2.0"/>
<line x1="227.8" y1="172.1" x2="230.1" y2="151.5" stroke="rgb(0,0,0)"  stroke-width="2.0"/>
<line x1="227.8" y1="172.1" x2="208.8" y2="180.3" stroke="rgb(0,0,0)"  stroke-width="2.0"/>
<line x1="138.3" y1="130.5" x2="139.8" y2="152.4" stroke="rgb(0,0,0)"  stroke-width="2.0"/>
<line x1="138.3" y1="130.5" x2="120.6" y2="143.5" stroke="rgb(0,0,0)"  stroke-width="2.0"/>
<line x1="181.3" y1="106.4" x2="181.3" y2="85.7" stroke="rgb(0,0,0)"  stroke-width="2.0"/>
<line x1="224.2" y1="130.2" x2="223.6" y2="150.8" stroke="rgb(0,0,0)"  stroke-width="2.0"/>
<line x1="268.8" y1="108.9" x2="269.2" y2="86.9" stroke="rgb(0,0,0)"  stroke-width="2.0"/>
<line x1="268.8" y1="108.9" x2="250.4" y2="97.0" stroke="rgb(0,0,0)"  stroke-width="2.0"/>
<line x1="72.5" y1="74.5" x2="69.2" y2="52.9" stroke="rgb(0,0,0)"  stroke-width="2.0"/>
<line x1="72.5" y1="74.5" x2="55.4" y2="88.2" stroke="rgb(0,0,0)"  stroke-width="2.0"/>
<line x1="72.5" y1="74.5" x2="52.1" y2="66.6" stroke="rgb(0,0,0)"  stroke-width="2.0"/>
<line x1="324.1" y1="274.7" x2="352.4" y2="254.7" stroke="rgb(0,0,0)"  stroke-width="2.0"/>
<line x1="328.9" y1="280.1" x2="351.7" y2="264.0" stroke="rgb(0,0,0)"  stroke-width="2.0"/>
<line x1="352.4" y1="254.7" x2="380.1" y2="277.9" stroke="rgb(0,0,0)"  stroke-width="2.0"/>
<line x1="386.4" y1="298.7" x2="376.4" y2="332.0" stroke="rgb(0,0,0)"  stroke-width="2.0"/>
<line x1="376.4" y1="332.0" x2="325.3" y2="332.3" stroke="rgb(0,0,0)"  stroke-width="2.0"/>
<line x1="325.3" y1="332.3" x2="314.1" y2="296.9" stroke="rgb(0,0,0)"  stroke-width="2.0"/>
<line x1="311.3" y1="131.2" x2="309.9" y2="180.4" stroke="rgb(0,0,0)"  stroke-width="2.0"/>
<line x1="309.9" y1="180.4" x2="352.4" y2="204.0" stroke="rgb(0,0,0)"  stroke-width="2.0"/>
<line x1="352.4" y1="204.0" x2="396.1" y2="181.3" stroke="rgb(0,0,0)"  stroke-width="2.0"/>
<line x1="354.4" y1="194.8" x2="387.5" y2="177.6" stroke="rgb(0,0,0)"  stroke-width="2.0"/>
<line x1="396.1" y1="181.3" x2="396.3" y2="129.6" stroke="rgb(0,0,0)"  stroke-width="2.0"/>
<line x1="396.3" y1="129.6" x2="352.3" y2="105.4" stroke="rgb(0,0,0)"  stroke-width="2.0"/>
<line x1="387.5" y1="133.1" x2="354.1" y2="114.6" stroke="rgb(0,0,0)"  stroke-width="2.0"/>
<line x1="352.3" y1="105.4" x2="311.3" y2="131.2" stroke="rgb(0,0,0)"  stroke-width="2.0"/>
<text x="304.128550" y="292.561260" fill="rgb(12,12,255)"  stroke="rgb(12,12,255)" stroke-width="1" font-size="16" >N</text>
<text x="384.089321" y="294.209969" fill="rgb(255,12,12)"  stroke="rgb(255,12,12)" stroke-width="1" font-size="16" >O</text>
<text x="361.213070" y="84.360285" fill="rgb(255,12,12)"  stroke="rgb(255,12,12)" stroke-width="1" font-size="16" >O</text>
<text x="101.889047" y="126.668452" fill="rgb(255,12,12)"  stroke="rgb(255,12,12)" stroke-width="1" font-size="16" >O</text>
<text x="122.440780" y="73.988107" fill="rgb(255,12,12)"  stroke="rgb(255,12,12)" stroke-width="1" font-size="16" >O</text>
<text x="246.915073" y="327.302283" fill="rgb(191,191,191)"  stroke="rgb(191,191,191)" stroke-width="1" font-size="16" >H</text>
<text x="261.679888" y="385.978974" fill="rgb(191,191,191)"  stroke="rgb(191,191,191)" stroke-width="1" font-size="16" >H</text>
<text x="237.358979" y="360.902864" fill="rgb(191,191,191)"  stroke="rgb(191,191,191)" stroke-width="1" font-size="16" >H</text>
<text x="391.337171" y="367.972518" fill="rgb(191,191,191)"  stroke="rgb(191,191,191)" stroke-width="1" font-size="16" >H</text>
<text x="354.846322" y="371.292400" fill="rgb(191,191,191)"  stroke="rgb(191,191,191)" stroke-width="1" font-size="16" >H</text>
<text x="272.818449" y="397.742924" fill="rgb(191,191,191)"  stroke="rgb(191,191,191)" stroke-width="1" font-size="16" >H</text>
<text x="331.313504" y="413.211678" fill="rgb(191,191,191)"  stroke="rgb(191,191,191)" stroke-width="1" font-size="16" >H</text>
<text x="297.600532" y="422.363369" fill="rgb(191,191,191)"  stroke="rgb(191,191,191)" stroke-width="1" font-size="16" >H</text>
<text x="302.847750" y="223.346099" fill="rgb(191,191,191)"  stroke="rgb(191,191,191)" stroke-width="1" font-size="16" >H</text>
<text x="257.848446" y="242.516728" fill="rgb(191,191,191)"  stroke="rgb(191,191,191)" stroke-width="1" font-size="16" >H</text>
<text x="303.977580" y="104.269309" fill="rgb(191,191,191)"  stroke="rgb(191,191,191)" stroke-width="1" font-size="16" >H</text>
<text x="412.772803" y="112.074753" fill="rgb(191,191,191)"  stroke="rgb(191,191,191)" stroke-width="1" font-size="16" >H</text>
<text x="409.753399" y="51.644321" fill="rgb(191,191,191)"  stroke="rgb(191,191,191)" stroke-width="1" font-size="16" >H</text>
<text x="428.707864" y="80.987910" fill="rgb(191,191,191)"  stroke="rgb(191,191,191)" stroke-width="1" font-size="16" >H</text>
<text x="419.308327" y="120.549880" fill="rgb(191,191,191)"  stroke="rgb(191,191,191)" stroke-width="1" font-size="16" >H</text>
<text x="418.892345" y="206.797008" fill="rgb(191,191,191)"  stroke="rgb(191,191,191)" stroke-width="1" font-size="16" >H</text>
<text x="225.526443" y="146.567820" fill="rgb(191,191,191)"  stroke="rgb(191,191,191)" stroke-width="1" font-size="16" >H</text>
<text x="190.901788" y="193.543070" fill="rgb(191,191,191)"  stroke="rgb(191,191,191)" stroke-width="1" font-size="16" >H</text>
<text x="134.743243" y="173.383882" fill="rgb(191,191,191)"  stroke="rgb(191,191,191)" stroke-width="1" font-size="16" >H</text>
<text x="104.168934" y="159.237871" fill="rgb(191,191,191)"  stroke="rgb(191,191,191)" stroke-width="1" font-size="16" >H</text>
<text x="175.269107" y="80.677719" fill="rgb(191,191,191)"  stroke="rgb(191,191,191)" stroke-width="1" font-size="16" >H</text>
<text x="217.165153" y="171.833828" fill="rgb(191,191,191)"  stroke="rgb(191,191,191)" stroke-width="1" font-size="16" >H</text>
<text x="263.457426" y="81.927691" fill="rgb(191,191,191)"  stroke="rgb(191,191,191)" stroke-width="1" font-size="16" >H</text>
<text x="233.427908" y="97.943995" fill="rgb(191,191,191)"  stroke="rgb(191,191,191)" stroke-width="1" font-size="16" >H</text>
<text x="61.266565" y="48.000000" fill="rgb(191,191,191)"  stroke="rgb(191,191,191)" stroke-width="1" font-size="16" >H</text>
<text x="39.278071" y="104.368963" fill="rgb(191,191,191)"  stroke="rgb(191,191,191)" stroke-width="1" font-size="16" >H</text>
<text x="34.000000" y="69.836950" fill="rgb(191,191,191)"  stroke="rgb(191,191,191)" stroke-width="1" font-size="16" >H</text>
</svg>
</g>
<text font-size="18.000000" fill ="black" font-family="sans-serif"
x="10.000000" y="20.000000" ></text>
</svg>
