<?xml version="1.0"?>
<svg version="1.1" id="topsvg"
xmlns="http://www.w3.org/2000/svg" xmlns:xlink="http://www.w3.org/1999/xlink"
xmlns:cml="http://www.xml-cml.org/schema" x="0" y="0" width="200px" height="200px" viewBox="0 0 100 100">
<title> - Open Babel Depiction</title>
<rect x="0" y="0" width="100" height="100" fill="white"/>
<g transform="translate(0,0)">
<svg width="100" height="100" x="0" y="0" viewBox="0 0 310.41 433.159"
font-family="sans-serif" stroke="rgb(0,0,0)" stroke-width="2"  stroke-linecap="round">
<line x1="134.2" y1="340.0" x2="178.5" y2="315.0" stroke="rgb(0,0,0)"  stroke-width="2.0"/>
<line x1="134.2" y1="340.0" x2="117.1" y2="329.9" stroke="rgb(0,0,0)"  stroke-width="2.0"/>
<line x1="134.2" y1="340.0" x2="134.0" y2="359.8" stroke="rgb(0,0,0)"  stroke-width="2.0"/>
<line x1="134.2" y1="340.0" x2="116.9" y2="349.7" stroke="rgb(0,0,0)"  stroke-width="2.0"/>
<line x1="178.5" y1="315.0" x2="164.7" y2="361.7" stroke="rgb(0,0,0)"  stroke-width="2.0"/>
<line x1="224.1" y1="314.5" x2="235.9" y2="330.5" stroke="rgb(0,0,0)"  stroke-width="2.0"/>
<line x1="224.1" y1="314.5" x2="215.3" y2="332.2" stroke="rgb(0,0,0)"  stroke-width="2.0"/>
<line x1="164.7" y1="361.7" x2="145.4" y2="366.3" stroke="rgb(0,0,0)"  stroke-width="2.0"/>
<line x1="164.7" y1="361.7" x2="178.4" y2="376.0" stroke="rgb(0,0,0)"  stroke-width="2.0"/>
<line x1="164.7" y1="361.7" x2="159.1" y2="380.7" stroke="rgb(0,0,0)"  stroke-width="2.0"/>
<line x1="200.7" y1="243.1" x2="201.0" y2="197.3" stroke="rgb(0,0,0)"  stroke-width="2.0"/>
<line x1="201.0" y1="197.3" x2="218.0" y2="207.4" stroke="rgb(0,0,0)"  stroke-width="2.0"/>
<line x1="49.2" y1="187.7" x2="78.8" y2="168.2" stroke="rgb(0,0,0)"  stroke-width="2.0"/>
<line x1="52.5" y1="192.7" x2="82.1" y2="173.2" stroke="rgb(0,0,0)"  stroke-width="2.0"/>
<line x1="80.1" y1="127.2" x2="63.0" y2="117.0" stroke="rgb(0,0,0)"  stroke-width="2.0"/>
<line x1="80.1" y1="127.2" x2="80.6" y2="107.3" stroke="rgb(0,0,0)"  stroke-width="2.0"/>
<line x1="120.5" y1="105.8" x2="120.5" y2="86.0" stroke="rgb(0,0,0)"  stroke-width="2.0"/>
<line x1="120.5" y1="105.8" x2="137.5" y2="95.6" stroke="rgb(0,0,0)"  stroke-width="2.0"/>
<line x1="193.4" y1="110.0" x2="192.6" y2="108.6" stroke="rgb(0,0,0)"  stroke-width="1.0"/>
<line x1="187.3" y1="114.2" x2="185.9" y2="111.6" stroke="rgb(0,0,0)"  stroke-width="1.0"/>
<line x1="181.1" y1="118.3" x2="179.1" y2="114.7" stroke="rgb(0,0,0)"  stroke-width="1.0"/>
<line x1="175.0" y1="122.5" x2="172.3" y2="117.7" stroke="rgb(0,0,0)"  stroke-width="1.0"/>
<line x1="168.9" y1="126.6" x2="165.6" y2="120.8" stroke="rgb(0,0,0)"  stroke-width="1.0"/>
<line x1="162.7" y1="130.8" x2="158.8" y2="123.8" stroke="rgb(0,0,0)"  stroke-width="1.0"/>
<line x1="201.1" y1="104.8" x2="209.6" y2="70.2" stroke="rgb(0,0,0)"  stroke-width="2.0"/>
<line x1="201.1" y1="104.8" x2="201.2" y2="124.7" stroke="rgb(0,0,0)"  stroke-width="2.0"/>
<line x1="241.8" y1="127.0" x2="258.9" y2="116.9" stroke="rgb(0,0,0)"  stroke-width="2.0"/>
<line x1="241.8" y1="127.0" x2="259.1" y2="136.8" stroke="rgb(0,0,0)"  stroke-width="2.0"/>
<line x1="242.0" y1="174.6" x2="259.1" y2="184.7" stroke="rgb(0,0,0)"  stroke-width="2.0"/>
<line x1="242.0" y1="174.6" x2="241.7" y2="194.5" stroke="rgb(0,0,0)"  stroke-width="2.0"/>
<line x1="161.5" y1="136.5" x2="159.9" y2="136.5" stroke="rgb(0,0,0)"  stroke-width="1.0"/>
<line x1="162.1" y1="143.8" x2="159.2" y2="143.8" stroke="rgb(0,0,0)"  stroke-width="1.0"/>
<line x1="162.7" y1="151.2" x2="158.5" y2="151.2" stroke="rgb(0,0,0)"  stroke-width="1.0"/>
<line x1="163.3" y1="158.5" x2="157.8" y2="158.5" stroke="rgb(0,0,0)"  stroke-width="1.0"/>
<line x1="163.8" y1="165.9" x2="157.1" y2="165.9" stroke="rgb(0,0,0)"  stroke-width="1.0"/>
<line x1="164.4" y1="173.3" x2="156.4" y2="173.2" stroke="rgb(0,0,0)"  stroke-width="1.0"/>
<line x1="160.8" y1="127.3" x2="159.4" y2="72.8" stroke="rgb(0,0,0)"  stroke-width="2.0"/>
<polygon points="160.416095 173.226709 203.002623 193.867707 198.917411 200.746009 " stroke-width="2.000000" fill="rgb(0,0,0)"  stroke="rgb(0,0,0)" />
<line x1="160.4" y1="173.2" x2="160.3" y2="207.6" stroke="rgb(0,0,0)"  stroke-width="2.0"/>
<line x1="120.8" y1="195.7" x2="120.4" y2="215.6" stroke="rgb(0,0,0)"  stroke-width="2.0"/>
<line x1="120.8" y1="195.7" x2="137.9" y2="205.9" stroke="rgb(0,0,0)"  stroke-width="2.0"/>
<line x1="159.4" y1="72.8" x2="176.3" y2="62.5" stroke="rgb(0,0,0)"  stroke-width="2.0"/>
<line x1="159.4" y1="72.8" x2="142.0" y2="63.4" stroke="rgb(0,0,0)"  stroke-width="2.0"/>
<line x1="159.4" y1="72.8" x2="158.9" y2="53.0" stroke="rgb(0,0,0)"  stroke-width="2.0"/>
<line x1="175.7" y1="261.3" x2="200.7" y2="243.1" stroke="rgb(0,0,0)"  stroke-width="2.0"/>
<line x1="181.1" y1="266.3" x2="200.1" y2="252.5" stroke="rgb(0,0,0)"  stroke-width="2.0"/>
<line x1="200.7" y1="243.1" x2="228.1" y2="262.7" stroke="rgb(0,0,0)"  stroke-width="2.0"/>
<line x1="234.6" y1="282.6" x2="224.1" y2="314.5" stroke="rgb(0,0,0)"  stroke-width="2.0"/>
<line x1="224.1" y1="314.5" x2="178.5" y2="315.0" stroke="rgb(0,0,0)"  stroke-width="2.0"/>
<line x1="178.5" y1="315.0" x2="167.6" y2="282.6" stroke="rgb(0,0,0)"  stroke-width="2.0"/>
<line x1="80.4" y1="170.7" x2="120.8" y2="195.7" stroke="rgb(0,0,0)"  stroke-width="2.0"/>
<line x1="120.8" y1="195.7" x2="160.4" y2="173.2" stroke="rgb(0,0,0)"  stroke-width="2.0"/>
<line x1="160.4" y1="173.2" x2="160.8" y2="127.3" stroke="rgb(0,0,0)"  stroke-width="2.0"/>
<line x1="160.8" y1="127.3" x2="120.5" y2="105.8" stroke="rgb(0,0,0)"  stroke-width="2.0"/>
<line x1="120.5" y1="105.8" x2="80.1" y2="127.2" stroke="rgb(0,0,0)"  stroke-width="2.0"/>
<line x1="80.1" y1="127.2" x2="80.4" y2="170.7" stroke="rgb(0,0,0)"  stroke-width="2.0"/>
<line x1="201.1" y1="104.8" x2="160.8" y2="127.3" stroke="rgb(0,0,0)"  stroke-width="2.0"/>
<line x1="160.4" y1="173.2" x2="201.0" y2="197.3" stroke="rgb(0,0,0)"  stroke-width="2.0"/>
<line x1="201.0" y1="197.3" x2="242.0" y2="174.6" stroke="rgb(0,0,0)"  stroke-width="2.0"/>
<line x1="242.0" y1="174.6" x2="241.8" y2="127.0" stroke="rgb(0,0,0)"  stroke-width="2.0"/>
<line x1="241.8" y1="127.0" x2="201.1" y2="104.8" stroke="rgb(0,0,0)"  stroke-width="2.0"/>
<text x="157.421508" y="278.299426" fill="rgb(12,12,255)"  stroke="rgb(12,12,255)" stroke-width="1" font-size="16" >N</text>
<text x="232.716487" y="278.299426" fill="rgb(255,12,12)"  stroke="rgb(255,12,12)" stroke-width="1" font-size="16" >O</text>
<text x="34.000000" y="205.334487" fill="rgb(255,12,12)"  stroke="rgb(255,12,12)" stroke-width="1" font-size="16" >O</text>
<text x="206.711523" y="65.611909" fill="rgb(17,127,178)"  stroke="rgb(17,127,178)" stroke-width="1" font-size="16" >Xx</text>
<text x="154.317858" y="228.622607" fill="rgb(191,191,191)"  stroke="rgb(191,191,191)" stroke-width="1" font-size="16" >H</text>
<text x="99.910352" y="331.270229" fill="rgb(191,191,191)"  stroke="rgb(191,191,191)" stroke-width="1" font-size="16" >H</text>
<text x="127.867761" y="380.818113" fill="rgb(191,191,191)"  stroke="rgb(191,191,191)" stroke-width="1" font-size="16" >H</text>
<text x="99.584944" y="364.114889" fill="rgb(191,191,191)"  stroke="rgb(191,191,191)" stroke-width="1" font-size="16" >H</text>
<text x="237.548481" y="349.004933" fill="rgb(191,191,191)"  stroke="rgb(191,191,191)" stroke-width="1" font-size="16" >H</text>
<text x="203.448239" y="351.872202" fill="rgb(191,191,191)"  stroke="rgb(191,191,191)" stroke-width="1" font-size="16" >H</text>
<text x="126.762604" y="377.358357" fill="rgb(191,191,191)"  stroke="rgb(191,191,191)" stroke-width="1" font-size="16" >H</text>
<text x="181.332814" y="393.453744" fill="rgb(191,191,191)"  stroke="rgb(191,191,191)" stroke-width="1" font-size="16" >H</text>
<text x="149.399909" y="401.159147" fill="rgb(191,191,191)"  stroke="rgb(191,191,191)" stroke-width="1" font-size="16" >H</text>
<text x="223.209065" y="222.068410" fill="rgb(191,191,191)"  stroke="rgb(191,191,191)" stroke-width="1" font-size="16" >H</text>
<text x="45.880441" y="118.343260" fill="rgb(191,191,191)"  stroke="rgb(191,191,191)" stroke-width="1" font-size="16" >H</text>
<text x="74.930728" y="102.346109" fill="rgb(191,191,191)"  stroke="rgb(191,191,191)" stroke-width="1" font-size="16" >H</text>
<text x="114.559825" y="80.952106" fill="rgb(191,191,191)"  stroke="rgb(191,191,191)" stroke-width="1" font-size="16" >H</text>
<text x="142.686078" y="96.927768" fill="rgb(191,191,191)"  stroke="rgb(191,191,191)" stroke-width="1" font-size="16" >H</text>
<text x="195.227097" y="145.665204" fill="rgb(191,191,191)"  stroke="rgb(191,191,191)" stroke-width="1" font-size="16" >H</text>
<text x="264.038486" y="118.205116" fill="rgb(191,191,191)"  stroke="rgb(191,191,191)" stroke-width="1" font-size="16" >H</text>
<text x="264.409942" y="151.206340" fill="rgb(191,191,191)"  stroke="rgb(191,191,191)" stroke-width="1" font-size="16" >H</text>
<text x="264.290217" y="199.296031" fill="rgb(191,191,191)"  stroke="rgb(191,191,191)" stroke-width="1" font-size="16" >H</text>
<text x="235.534638" y="215.492725" fill="rgb(191,191,191)"  stroke="rgb(191,191,191)" stroke-width="1" font-size="16" >H</text>
<text x="114.176090" y="236.564390" fill="rgb(191,191,191)"  stroke="rgb(191,191,191)" stroke-width="1" font-size="16" >H</text>
<text x="143.026835" y="220.515050" fill="rgb(191,191,191)"  stroke="rgb(191,191,191)" stroke-width="1" font-size="16" >H</text>
<text x="181.415701" y="63.699373" fill="rgb(191,191,191)"  stroke="rgb(191,191,191)" stroke-width="1" font-size="16" >H</text>
<text x="124.540010" y="65.142217" fill="rgb(191,191,191)"  stroke="rgb(191,191,191)" stroke-width="1" font-size="16" >H</text>
<text x="152.561886" y="48.000000" fill="rgb(191,191,191)"  stroke="rgb(191,191,191)" stroke-width="1" font-size="16" >H</text>
</svg>
</g>
<text font-size="18.000000" fill ="black" font-family="sans-serif"
x="10.000000" y="20.000000" ></text>
</svg>
