<?xml version="1.0"?>
<svg version="1.1" id="topsvg"
xmlns="http://www.w3.org/2000/svg" xmlns:xlink="http://www.w3.org/1999/xlink"
xmlns:cml="http://www.xml-cml.org/schema" x="0" y="0" width="200px" height="200px" viewBox="0 0 100 100">
<title> - Open Babel Depiction</title>
<rect x="0" y="0" width="100" height="100" fill="white"/>
<g transform="translate(0,0)">
<svg width="100" height="100" x="0" y="0" viewBox="0 0 407.174 444.382"
font-family="sans-serif" stroke="rgb(0,0,0)" stroke-width="2"  stroke-linecap="round">
<line x1="302.9" y1="320.9" x2="333.9" y2="357.5" stroke="rgb(0,0,0)"  stroke-width="2.0"/>
<line x1="301.4" y1="370.6" x2="302.9" y2="320.9" stroke="rgb(0,0,0)"  stroke-width="2.0"/>
<line x1="277.1" y1="201.3" x2="277.2" y2="248.0" stroke="rgb(0,0,0)"  stroke-width="2.0"/>
<line x1="235.4" y1="177.3" x2="195.2" y2="196.2" stroke="rgb(0,0,0)"  stroke-width="2.0"/>
<polygon points="235.363058 177.348017 232.368758 129.187597 240.367011 129.354764 " stroke-width="2.000000" fill="rgb(0,0,0)"  stroke="rgb(0,0,0)" />
<line x1="193.0" y1="105.7" x2="152.7" y2="128.7" stroke="rgb(0,0,0)"  stroke-width="2.0"/>
<line x1="66.6" y1="127.2" x2="109.7" y2="103.0" stroke="rgb(0,0,0)"  stroke-width="2.0"/>
<line x1="69.5" y1="132.5" x2="112.6" y2="108.3" stroke="rgb(0,0,0)"  stroke-width="2.0"/>
<line x1="111.1" y1="105.7" x2="152.7" y2="128.7" stroke="rgb(0,0,0)"  stroke-width="2.0"/>
<line x1="195.8" y1="71.5" x2="196.0" y2="105.6" stroke="rgb(0,0,0)"  stroke-width="2.0"/>
<line x1="189.8" y1="71.6" x2="190.0" y2="105.7" stroke="rgb(0,0,0)"  stroke-width="2.0"/>
<polygon points="236.367885 129.271180 191.123250 109.173343 194.950980 102.148495 " stroke-width="2.000000" fill="rgb(0,0,0)"  stroke="rgb(0,0,0)" />
<line x1="236.4" y1="129.3" x2="235.6" y2="73.8" stroke="rgb(0,0,0)"  stroke-width="2.0"/>
<line x1="305.0" y1="77.3" x2="323.6" y2="76.7" stroke="rgb(0,0,0)"  stroke-width="2.0"/>
<line x1="285.8" y1="89.1" x2="277.0" y2="105.4" stroke="rgb(0,0,0)"  stroke-width="2.0"/>
<line x1="153.0" y1="173.7" x2="196.5" y2="193.5" stroke="rgb(0,0,0)"  stroke-width="2.0"/>
<line x1="150.6" y1="179.2" x2="194.0" y2="198.9" stroke="rgb(0,0,0)"  stroke-width="2.0"/>
<line x1="252.9" y1="321.2" x2="241.0" y2="338.2" stroke="rgb(0,0,0)"  stroke-width="2.0"/>
<line x1="252.9" y1="321.2" x2="232.3" y2="318.4" stroke="rgb(0,0,0)"  stroke-width="2.0"/>
<line x1="333.9" y1="357.5" x2="326.9" y2="377.1" stroke="rgb(0,0,0)"  stroke-width="2.0"/>
<line x1="333.9" y1="357.5" x2="354.4" y2="353.8" stroke="rgb(0,0,0)"  stroke-width="2.0"/>
<line x1="333.9" y1="357.5" x2="347.3" y2="373.4" stroke="rgb(0,0,0)"  stroke-width="2.0"/>
<line x1="301.4" y1="370.6" x2="283.0" y2="380.4" stroke="rgb(0,0,0)"  stroke-width="2.0"/>
<line x1="301.4" y1="370.6" x2="319.0" y2="381.5" stroke="rgb(0,0,0)"  stroke-width="2.0"/>
<line x1="301.4" y1="370.6" x2="300.7" y2="391.4" stroke="rgb(0,0,0)"  stroke-width="2.0"/>
<line x1="235.4" y1="177.3" x2="253.5" y2="167.1" stroke="rgb(0,0,0)"  stroke-width="2.0"/>
<line x1="195.2" y1="196.2" x2="195.4" y2="215.8" stroke="rgb(0,0,0)"  stroke-width="2.0"/>
<line x1="152.7" y1="128.7" x2="152.9" y2="149.5" stroke="rgb(0,0,0)"  stroke-width="2.0"/>
<line x1="152.7" y1="128.7" x2="134.8" y2="139.3" stroke="rgb(0,0,0)"  stroke-width="2.0"/>
<line x1="68.0" y1="129.8" x2="51.2" y2="119.8" stroke="rgb(0,0,0)"  stroke-width="2.0"/>
<line x1="68.0" y1="129.8" x2="67.8" y2="149.4" stroke="rgb(0,0,0)"  stroke-width="2.0"/>
<line x1="111.1" y1="105.7" x2="111.1" y2="86.0" stroke="rgb(0,0,0)"  stroke-width="2.0"/>
<line x1="323.6" y1="76.7" x2="334.5" y2="94.4" stroke="rgb(0,0,0)"  stroke-width="2.0"/>
<line x1="323.6" y1="76.7" x2="333.4" y2="58.4" stroke="rgb(0,0,0)"  stroke-width="2.0"/>
<line x1="323.6" y1="76.7" x2="344.4" y2="76.1" stroke="rgb(0,0,0)"  stroke-width="2.0"/>
<line x1="318.6" y1="130.2" x2="335.6" y2="120.4" stroke="rgb(0,0,0)"  stroke-width="2.0"/>
<line x1="319.3" y1="177.5" x2="336.3" y2="187.2" stroke="rgb(0,0,0)"  stroke-width="2.0"/>
<line x1="151.8" y1="176.5" x2="149.9" y2="156.9" stroke="rgb(0,0,0)"  stroke-width="2.0"/>
<line x1="151.8" y1="176.5" x2="135.9" y2="187.9" stroke="rgb(0,0,0)"  stroke-width="2.0"/>
<line x1="235.6" y1="73.8" x2="253.4" y2="63.1" stroke="rgb(0,0,0)"  stroke-width="2.0"/>
<line x1="235.6" y1="73.8" x2="217.4" y2="63.7" stroke="rgb(0,0,0)"  stroke-width="2.0"/>
<line x1="235.6" y1="73.8" x2="235.3" y2="53.0" stroke="rgb(0,0,0)"  stroke-width="2.0"/>
<line x1="252.9" y1="321.2" x2="241.0" y2="288.1" stroke="rgb(0,0,0)"  stroke-width="2.0"/>
<line x1="247.3" y1="268.5" x2="277.2" y2="248.0" stroke="rgb(0,0,0)"  stroke-width="2.0"/>
<line x1="277.2" y1="248.0" x2="303.1" y2="266.7" stroke="rgb(0,0,0)"  stroke-width="2.0"/>
<line x1="277.8" y1="257.4" x2="297.9" y2="271.8" stroke="rgb(0,0,0)"  stroke-width="2.0"/>
<line x1="312.2" y1="288.3" x2="302.9" y2="320.9" stroke="rgb(0,0,0)"  stroke-width="2.0"/>
<line x1="302.9" y1="320.9" x2="252.9" y2="321.2" stroke="rgb(0,0,0)"  stroke-width="2.0"/>
<line x1="236.4" y1="129.3" x2="235.4" y2="177.3" stroke="rgb(0,0,0)"  stroke-width="2.0"/>
<line x1="235.4" y1="177.3" x2="277.1" y2="201.3" stroke="rgb(0,0,0)"  stroke-width="2.0"/>
<line x1="277.1" y1="201.3" x2="319.3" y2="177.5" stroke="rgb(0,0,0)"  stroke-width="2.0"/>
<line x1="278.8" y1="192.1" x2="310.6" y2="174.2" stroke="rgb(0,0,0)"  stroke-width="2.0"/>
<line x1="319.3" y1="177.5" x2="318.6" y2="130.2" stroke="rgb(0,0,0)"  stroke-width="2.0"/>
<line x1="318.6" y1="130.2" x2="277.0" y2="105.4" stroke="rgb(0,0,0)"  stroke-width="2.0"/>
<line x1="309.8" y1="133.4" x2="278.4" y2="114.7" stroke="rgb(0,0,0)"  stroke-width="2.0"/>
<line x1="277.0" y1="105.4" x2="236.4" y2="129.3" stroke="rgb(0,0,0)"  stroke-width="2.0"/>
<text x="230.633311" y="283.852604" fill="rgb(255,12,12)"  stroke="rgb(255,12,12)" stroke-width="1" font-size="16" >O</text>
<text x="309.847127" y="283.852604" fill="rgb(12,12,255)"  stroke="rgb(12,12,255)" stroke-width="1" font-size="16" >N</text>
<text x="186.746411" y="66.550991" fill="rgb(255,12,12)"  stroke="rgb(255,12,12)" stroke-width="1" font-size="16" >O</text>
<text x="285.965120" y="85.639533" fill="rgb(255,12,12)"  stroke="rgb(255,12,12)" stroke-width="1" font-size="16" >O</text>
<text x="227.509294" y="356.881195" fill="rgb(191,191,191)"  stroke="rgb(191,191,191)" stroke-width="1" font-size="16" >H</text>
<text x="213.369249" y="324.689728" fill="rgb(191,191,191)"  stroke="rgb(191,191,191)" stroke-width="1" font-size="16" >H</text>
<text x="316.471764" y="397.340941" fill="rgb(191,191,191)"  stroke="rgb(191,191,191)" stroke-width="1" font-size="16" >H</text>
<text x="361.174074" y="359.511168" fill="rgb(191,191,191)"  stroke="rgb(191,191,191)" stroke-width="1" font-size="16" >H</text>
<text x="349.743434" y="391.330500" fill="rgb(191,191,191)"  stroke="rgb(191,191,191)" stroke-width="1" font-size="16" >H</text>
<text x="265.569758" y="394.590298" fill="rgb(191,191,191)"  stroke="rgb(191,191,191)" stroke-width="1" font-size="16" >H</text>
<text x="324.103409" y="396.379146" fill="rgb(191,191,191)"  stroke="rgb(191,191,191)" stroke-width="1" font-size="16" >H</text>
<text x="294.320187" y="412.381932" fill="rgb(191,191,191)"  stroke="rgb(191,191,191)" stroke-width="1" font-size="16" >H</text>
<text x="258.794034" y="168.706288" fill="rgb(191,191,191)"  stroke="rgb(191,191,191)" stroke-width="1" font-size="16" >H</text>
<text x="189.430153" y="236.795779" fill="rgb(191,191,191)"  stroke="rgb(191,191,191)" stroke-width="1" font-size="16" >H</text>
<text x="146.942608" y="170.524520" fill="rgb(191,191,191)"  stroke="rgb(191,191,191)" stroke-width="1" font-size="16" >H</text>
<text x="117.643816" y="153.967787" fill="rgb(191,191,191)"  stroke="rgb(191,191,191)" stroke-width="1" font-size="16" >H</text>
<text x="34.000000" y="121.190250" fill="rgb(191,191,191)"  stroke="rgb(191,191,191)" stroke-width="1" font-size="16" >H</text>
<text x="61.644425" y="170.443846" fill="rgb(191,191,191)"  stroke="rgb(191,191,191)" stroke-width="1" font-size="16" >H</text>
<text x="105.047612" y="81.042086" fill="rgb(191,191,191)"  stroke="rgb(191,191,191)" stroke-width="1" font-size="16" >H</text>
<text x="335.292148" y="113.510987" fill="rgb(191,191,191)"  stroke="rgb(191,191,191)" stroke-width="1" font-size="16" >H</text>
<text x="333.605617" y="54.974298" fill="rgb(191,191,191)"  stroke="rgb(191,191,191)" stroke-width="1" font-size="16" >H</text>
<text x="351.346969" y="83.755783" fill="rgb(191,191,191)"  stroke="rgb(191,191,191)" stroke-width="1" font-size="16" >H</text>
<text x="340.845655" y="121.910402" fill="rgb(191,191,191)"  stroke="rgb(191,191,191)" stroke-width="1" font-size="16" >H</text>
<text x="341.599306" y="201.717893" fill="rgb(191,191,191)"  stroke="rgb(191,191,191)" stroke-width="1" font-size="16" >H</text>
<text x="142.649694" y="151.994433" fill="rgb(191,191,191)"  stroke="rgb(191,191,191)" stroke-width="1" font-size="16" >H</text>
<text x="119.278717" y="203.413576" fill="rgb(191,191,191)"  stroke="rgb(191,191,191)" stroke-width="1" font-size="16" >H</text>
<text x="258.598113" y="64.479671" fill="rgb(191,191,191)"  stroke="rgb(191,191,191)" stroke-width="1" font-size="16" >H</text>
<text x="200.043264" y="65.326987" fill="rgb(191,191,191)"  stroke="rgb(191,191,191)" stroke-width="1" font-size="16" >H</text>
<text x="229.076090" y="48.000000" fill="rgb(191,191,191)"  stroke="rgb(191,191,191)" stroke-width="1" font-size="16" >H</text>
</svg>
</g>
<text font-size="18.000000" fill ="black" font-family="sans-serif"
x="10.000000" y="20.000000" ></text>
</svg>
