<?xml version="1.0"?>
<svg version="1.1" id="topsvg"
xmlns="http://www.w3.org/2000/svg" xmlns:xlink="http://www.w3.org/1999/xlink"
xmlns:cml="http://www.xml-cml.org/schema" x="0" y="0" width="200px" height="200px" viewBox="0 0 100 100">
<title> - Open Babel Depiction</title>
<rect x="0" y="0" width="100" height="100" fill="white"/>
<g transform="translate(0,0)">
<svg width="100" height="100" x="0" y="0" viewBox="0 0 386.254 375.162"
font-family="sans-serif" stroke="rgb(0,0,0)" stroke-width="2"  stroke-linecap="round">
<line x1="235.1" y1="160.7" x2="193.3" y2="178.6" stroke="rgb(0,0,0)"  stroke-width="2.0"/>
<polygon points="235.058324 160.670924 232.126668 111.230969 240.124798 111.403952 " stroke-width="2.000000" fill="rgb(0,0,0)"  stroke="rgb(0,0,0)" />
<line x1="267.4" y1="177.4" x2="268.1" y2="176.0" stroke="rgb(0,0,0)"  stroke-width="1.0"/>
<line x1="260.6" y1="174.8" x2="261.8" y2="172.2" stroke="rgb(0,0,0)"  stroke-width="1.0"/>
<line x1="253.7" y1="172.2" x2="255.6" y2="168.4" stroke="rgb(0,0,0)"  stroke-width="1.0"/>
<line x1="246.9" y1="169.5" x2="249.3" y2="164.7" stroke="rgb(0,0,0)"  stroke-width="1.0"/>
<line x1="240.1" y1="166.9" x2="243.1" y2="160.9" stroke="rgb(0,0,0)"  stroke-width="1.0"/>
<line x1="233.3" y1="164.3" x2="236.8" y2="157.1" stroke="rgb(0,0,0)"  stroke-width="1.0"/>
<line x1="236.1" y1="111.3" x2="193.4" y2="88.1" stroke="rgb(0,0,0)"  stroke-width="2.0"/>
<line x1="267.8" y1="87.8" x2="270.0" y2="52.8" stroke="rgb(0,0,0)"  stroke-width="2.0"/>
<line x1="273.8" y1="88.2" x2="276.0" y2="53.2" stroke="rgb(0,0,0)"  stroke-width="2.0"/>
<line x1="275.9" y1="180.7" x2="275.6" y2="231.4" stroke="rgb(0,0,0)"  stroke-width="2.0"/>
<line x1="66.6" y1="108.2" x2="108.5" y2="84.4" stroke="rgb(0,0,0)"  stroke-width="2.0"/>
<line x1="69.6" y1="113.4" x2="111.4" y2="89.6" stroke="rgb(0,0,0)"  stroke-width="2.0"/>
<line x1="110.0" y1="87.0" x2="151.4" y2="110.6" stroke="rgb(0,0,0)"  stroke-width="2.0"/>
<line x1="193.4" y1="88.1" x2="151.4" y2="110.6" stroke="rgb(0,0,0)"  stroke-width="2.0"/>
<line x1="196.2" y1="83.9" x2="196.4" y2="87.9" stroke="rgb(0,0,0)"  stroke-width="2.0"/>
<line x1="190.2" y1="84.3" x2="190.4" y2="88.3" stroke="rgb(0,0,0)"  stroke-width="2.0"/>
<line x1="151.5" y1="166.7" x2="193.9" y2="175.6" stroke="rgb(0,0,0)"  stroke-width="2.0"/>
<line x1="150.2" y1="172.6" x2="192.7" y2="181.5" stroke="rgb(0,0,0)"  stroke-width="2.0"/>
<line x1="274.6" y1="234.8" x2="275.6" y2="231.4" stroke="rgb(0,0,0)"  stroke-width="2.0"/>
<line x1="298.2" y1="304.8" x2="310.6" y2="321.5" stroke="rgb(0,0,0)"  stroke-width="2.0"/>
<line x1="298.2" y1="304.8" x2="289.0" y2="323.5" stroke="rgb(0,0,0)"  stroke-width="2.0"/>
<line x1="249.7" y1="305.8" x2="237.9" y2="322.9" stroke="rgb(0,0,0)"  stroke-width="2.0"/>
<line x1="249.7" y1="305.8" x2="229.1" y2="303.0" stroke="rgb(0,0,0)"  stroke-width="2.0"/>
<line x1="235.1" y1="160.7" x2="217.8" y2="149.0" stroke="rgb(0,0,0)"  stroke-width="2.0"/>
<line x1="193.3" y1="178.6" x2="195.2" y2="198.1" stroke="rgb(0,0,0)"  stroke-width="2.0"/>
<polygon points="236.125733 111.317460 218.551575 126.140081 214.536377 119.220674 " stroke-width="2.000000" fill="rgb(0,0,0)"  stroke="rgb(0,0,0)" />
<line x1="316.9" y1="110.9" x2="334.5" y2="99.8" stroke="rgb(0,0,0)"  stroke-width="2.0"/>
<line x1="316.9" y1="110.9" x2="315.9" y2="90.1" stroke="rgb(0,0,0)"  stroke-width="2.0"/>
<line x1="317.4" y1="160.1" x2="335.2" y2="171.0" stroke="rgb(0,0,0)"  stroke-width="2.0"/>
<line x1="317.4" y1="160.1" x2="316.5" y2="180.9" stroke="rgb(0,0,0)"  stroke-width="2.0"/>
<line x1="275.9" y1="180.7" x2="275.9" y2="160.0" stroke="rgb(0,0,0)"  stroke-width="2.0"/>
<line x1="68.1" y1="110.8" x2="51.2" y2="100.9" stroke="rgb(0,0,0)"  stroke-width="2.0"/>
<line x1="68.1" y1="110.8" x2="68.0" y2="130.4" stroke="rgb(0,0,0)"  stroke-width="2.0"/>
<line x1="110.0" y1="87.0" x2="110.0" y2="67.4" stroke="rgb(0,0,0)"  stroke-width="2.0"/>
<line x1="151.4" y1="110.6" x2="151.2" y2="131.4" stroke="rgb(0,0,0)"  stroke-width="2.0"/>
<line x1="151.4" y1="110.6" x2="169.2" y2="121.4" stroke="rgb(0,0,0)"  stroke-width="2.0"/>
<line x1="308.2" y1="273.6" x2="298.2" y2="304.8" stroke="rgb(0,0,0)"  stroke-width="2.0"/>
<line x1="298.2" y1="304.8" x2="249.7" y2="305.8" stroke="rgb(0,0,0)"  stroke-width="2.0"/>
<line x1="249.7" y1="305.8" x2="238.2" y2="272.7" stroke="rgb(0,0,0)"  stroke-width="2.0"/>
<line x1="244.6" y1="253.0" x2="275.6" y2="231.4" stroke="rgb(0,0,0)"  stroke-width="2.0"/>
<line x1="275.6" y1="231.4" x2="302.1" y2="253.0" stroke="rgb(0,0,0)"  stroke-width="2.0"/>
<line x1="235.1" y1="160.7" x2="275.9" y2="180.7" stroke="rgb(0,0,0)"  stroke-width="2.0"/>
<line x1="275.9" y1="180.7" x2="317.4" y2="160.1" stroke="rgb(0,0,0)"  stroke-width="2.0"/>
<line x1="317.4" y1="160.1" x2="316.9" y2="110.9" stroke="rgb(0,0,0)"  stroke-width="2.0"/>
<line x1="316.9" y1="110.9" x2="270.8" y2="88.0" stroke="rgb(0,0,0)"  stroke-width="2.0"/>
<line x1="270.8" y1="88.0" x2="236.1" y2="111.3" stroke="rgb(0,0,0)"  stroke-width="2.0"/>
<line x1="236.1" y1="111.3" x2="235.1" y2="160.7" stroke="rgb(0,0,0)"  stroke-width="2.0"/>
<text x="306.199165" y="269.181078" fill="rgb(255,12,12)"  stroke="rgb(255,12,12)" stroke-width="1" font-size="16" >O</text>
<text x="227.946702" y="268.385259" fill="rgb(255,12,12)"  stroke="rgb(255,12,12)" stroke-width="1" font-size="16" >O</text>
<text x="267.873490" y="48.000000" fill="rgb(255,12,12)"  stroke="rgb(255,12,12)" stroke-width="1" font-size="16" >O</text>
<text x="174.425117" y="79.141189" fill="rgb(17,127,178)"  stroke="rgb(17,127,178)" stroke-width="1" font-size="16" >Xx</text>
<text x="132.129359" y="174.958533" fill="rgb(178,178,0)"  stroke="rgb(178,178,0)" stroke-width="1" font-size="16" >S</text>
<text x="252.680737" y="255.241599" fill="rgb(17,127,178)"  stroke="rgb(17,127,178)" stroke-width="1" font-size="16" >Xx</text>
<text x="312.369685" y="339.891411" fill="rgb(191,191,191)"  stroke="rgb(191,191,191)" stroke-width="1" font-size="16" >H</text>
<text x="277.343227" y="343.161594" fill="rgb(191,191,191)"  stroke="rgb(191,191,191)" stroke-width="1" font-size="16" >H</text>
<text x="224.444402" y="341.582794" fill="rgb(191,191,191)"  stroke="rgb(191,191,191)" stroke-width="1" font-size="16" >H</text>
<text x="210.257732" y="309.236337" fill="rgb(191,191,191)"  stroke="rgb(191,191,191)" stroke-width="1" font-size="16" >H</text>
<text x="201.052124" y="149.764087" fill="rgb(191,191,191)"  stroke="rgb(191,191,191)" stroke-width="1" font-size="16" >H</text>
<text x="190.516477" y="218.992991" fill="rgb(191,191,191)"  stroke="rgb(191,191,191)" stroke-width="1" font-size="16" >H</text>
<text x="200.899230" y="136.277038" fill="rgb(191,191,191)"  stroke="rgb(191,191,191)" stroke-width="1" font-size="16" >H</text>
<text x="339.557809" y="100.913753" fill="rgb(191,191,191)"  stroke="rgb(191,191,191)" stroke-width="1" font-size="16" >H</text>
<text x="309.243308" y="85.127006" fill="rgb(191,191,191)"  stroke="rgb(191,191,191)" stroke-width="1" font-size="16" >H</text>
<text x="340.254110" y="185.759181" fill="rgb(191,191,191)"  stroke="rgb(191,191,191)" stroke-width="1" font-size="16" >H</text>
<text x="309.945264" y="201.863262" fill="rgb(191,191,191)"  stroke="rgb(191,191,191)" stroke-width="1" font-size="16" >H</text>
<text x="269.830399" y="154.952586" fill="rgb(191,191,191)"  stroke="rgb(191,191,191)" stroke-width="1" font-size="16" >H</text>
<text x="34.000000" y="102.372619" fill="rgb(191,191,191)"  stroke="rgb(191,191,191)" stroke-width="1" font-size="16" >H</text>
<text x="61.957380" y="151.411886" fill="rgb(191,191,191)"  stroke="rgb(191,191,191)" stroke-width="1" font-size="16" >H</text>
<text x="103.970905" y="62.384761" fill="rgb(191,191,191)"  stroke="rgb(191,191,191)" stroke-width="1" font-size="16" >H</text>
<text x="144.996116" y="152.432729" fill="rgb(191,191,191)"  stroke="rgb(191,191,191)" stroke-width="1" font-size="16" >H</text>
<text x="174.320272" y="136.177730" fill="rgb(191,191,191)"  stroke="rgb(191,191,191)" stroke-width="1" font-size="16" >H</text>
</svg>
</g>
<text font-size="18.000000" fill ="black" font-family="sans-serif"
x="10.000000" y="20.000000" ></text>
</svg>
