<?xml version="1.0"?>
<svg version="1.1" id="topsvg"
xmlns="http://www.w3.org/2000/svg" xmlns:xlink="http://www.w3.org/1999/xlink"
xmlns:cml="http://www.xml-cml.org/schema" x="0" y="0" width="200px" height="200px" viewBox="0 0 100 100">
<title> - Open Babel Depiction</title>
<rect x="0" y="0" width="100" height="100" fill="white"/>
<g transform="translate(0,0)">
<svg width="100" height="100" x="0" y="0" viewBox="0 0 221.583 242.267"
font-family="sans-serif" stroke="rgb(0,0,0)" stroke-width="2"  stroke-linecap="round">
<line x1="68.9" y1="94.9" x2="51.4" y2="84.2" stroke="rgb(0,0,0)"  stroke-width="2.0"/>
<line x1="69.1" y1="144.0" x2="51.3" y2="154.2" stroke="rgb(0,0,0)"  stroke-width="2.0"/>
<line x1="110.9" y1="73.5" x2="110.9" y2="53.0" stroke="rgb(0,0,0)"  stroke-width="2.0"/>
<line x1="151.8" y1="94.5" x2="169.3" y2="83.8" stroke="rgb(0,0,0)"  stroke-width="2.0"/>
<line x1="151.7" y1="144.1" x2="170.4" y2="155.3" stroke="rgb(0,0,0)"  stroke-width="2.0"/>
<line x1="151.7" y1="144.1" x2="151.3" y2="165.9" stroke="rgb(0,0,0)"  stroke-width="2.0"/>
<line x1="108.4" y1="167.5" x2="107.9" y2="189.3" stroke="rgb(0,0,0)"  stroke-width="2.0"/>
<line x1="108.4" y1="167.5" x2="126.9" y2="178.9" stroke="rgb(0,0,0)"  stroke-width="2.0"/>
<line x1="69.1" y1="144.0" x2="68.9" y2="94.9" stroke="rgb(0,0,0)"  stroke-width="2.0"/>
<line x1="76.3" y1="138.0" x2="76.1" y2="100.9" stroke="rgb(0,0,0)"  stroke-width="2.0"/>
<line x1="68.9" y1="94.9" x2="110.9" y2="73.5" stroke="rgb(0,0,0)"  stroke-width="2.0"/>
<line x1="110.9" y1="73.5" x2="151.8" y2="94.5" stroke="rgb(0,0,0)"  stroke-width="2.0"/>
<line x1="113.0" y1="82.7" x2="143.2" y2="98.2" stroke="rgb(0,0,0)"  stroke-width="2.0"/>
<line x1="151.8" y1="94.5" x2="151.7" y2="144.1" stroke="rgb(0,0,0)"  stroke-width="2.0"/>
<line x1="151.7" y1="144.1" x2="108.4" y2="167.5" stroke="rgb(0,0,0)"  stroke-width="2.0"/>
<line x1="108.4" y1="167.5" x2="69.1" y2="144.0" stroke="rgb(0,0,0)"  stroke-width="2.0"/>
<text x="34.261528" y="85.451128" fill="rgb(191,191,191)"  stroke="rgb(191,191,191)" stroke-width="1" font-size="16" >H</text>
<text x="34.000000" y="168.627826" fill="rgb(191,191,191)"  stroke="rgb(191,191,191)" stroke-width="1" font-size="16" >H</text>
<text x="104.973397" y="48.000000" fill="rgb(191,191,191)"  stroke="rgb(191,191,191)" stroke-width="1" font-size="16" >H</text>
<text x="174.431638" y="85.076634" fill="rgb(191,191,191)"  stroke="rgb(191,191,191)" stroke-width="1" font-size="16" >H</text>
<text x="175.582532" y="169.957014" fill="rgb(191,191,191)"  stroke="rgb(191,191,191)" stroke-width="1" font-size="16" >H</text>
<text x="144.979937" y="186.874991" fill="rgb(191,191,191)"  stroke="rgb(191,191,191)" stroke-width="1" font-size="16" >H</text>
<text x="101.594465" y="210.267252" fill="rgb(191,191,191)"  stroke="rgb(191,191,191)" stroke-width="1" font-size="16" >H</text>
<text x="132.018302" y="193.663866" fill="rgb(191,191,191)"  stroke="rgb(191,191,191)" stroke-width="1" font-size="16" >H</text>
</svg>
</g>
<text font-size="18.000000" fill ="black" font-family="sans-serif"
x="10.000000" y="20.000000" ></text>
</svg>
