<?xml version="1.0"?>
<svg version="1.1" id="topsvg"
xmlns="http://www.w3.org/2000/svg" xmlns:xlink="http://www.w3.org/1999/xlink"
xmlns:cml="http://www.xml-cml.org/schema" x="0" y="0" width="200px" height="200px" viewBox="0 0 100 100">
<title> - Open Babel Depiction</title>
<rect x="0" y="0" width="100" height="100" fill="white"/>
<g transform="translate(0,0)">
<svg width="100" height="100" x="0" y="0" viewBox="0 0 305.094 440.291"
font-family="sans-serif" stroke="rgb(0,0,0)" stroke-width="2"  stroke-linecap="round">
<line x1="121.7" y1="331.9" x2="168.4" y2="320.0" stroke="rgb(0,0,0)"  stroke-width="2.0"/>
<line x1="168.4" y1="320.0" x2="155.6" y2="367.4" stroke="rgb(0,0,0)"  stroke-width="2.0"/>
<line x1="110.4" y1="192.7" x2="108.5" y2="219.1" stroke="rgb(0,0,0)"  stroke-width="2.0"/>
<line x1="153.1" y1="74.1" x2="152.8" y2="123.6" stroke="rgb(0,0,0)"  stroke-width="2.0"/>
<polygon points="153.045286 171.833020 148.774322 123.663744 156.774196 123.618753 " stroke-width="2.000000" fill="rgb(0,0,0)"  stroke="rgb(0,0,0)" />
<line x1="186.4" y1="106.5" x2="185.7" y2="105.0" stroke="rgb(0,0,0)"  stroke-width="1.0"/>
<line x1="180.1" y1="110.6" x2="178.7" y2="108.1" stroke="rgb(0,0,0)"  stroke-width="1.0"/>
<line x1="173.7" y1="114.7" x2="171.7" y2="111.1" stroke="rgb(0,0,0)"  stroke-width="1.0"/>
<line x1="167.4" y1="118.9" x2="164.8" y2="114.1" stroke="rgb(0,0,0)"  stroke-width="1.0"/>
<line x1="161.0" y1="123.0" x2="157.8" y2="117.1" stroke="rgb(0,0,0)"  stroke-width="1.0"/>
<line x1="154.7" y1="127.2" x2="150.9" y2="120.1" stroke="rgb(0,0,0)"  stroke-width="1.0"/>
<line x1="194.4" y1="101.3" x2="202.9" y2="64.6" stroke="rgb(0,0,0)"  stroke-width="2.0"/>
<line x1="194.1" y1="196.9" x2="193.8" y2="244.4" stroke="rgb(0,0,0)"  stroke-width="2.0"/>
<line x1="218.3" y1="48.2" x2="223.0" y2="46.8" stroke="rgb(0,0,0)"  stroke-width="2.0"/>
<line x1="121.7" y1="331.9" x2="106.9" y2="316.9" stroke="rgb(0,0,0)"  stroke-width="2.0"/>
<line x1="121.7" y1="331.9" x2="116.0" y2="352.3" stroke="rgb(0,0,0)"  stroke-width="2.0"/>
<line x1="121.7" y1="331.9" x2="101.3" y2="337.2" stroke="rgb(0,0,0)"  stroke-width="2.0"/>
<line x1="217.5" y1="320.2" x2="229.8" y2="337.3" stroke="rgb(0,0,0)"  stroke-width="2.0"/>
<line x1="217.5" y1="320.2" x2="207.8" y2="338.9" stroke="rgb(0,0,0)"  stroke-width="2.0"/>
<line x1="155.6" y1="367.4" x2="135.2" y2="372.8" stroke="rgb(0,0,0)"  stroke-width="2.0"/>
<line x1="155.6" y1="367.4" x2="170.5" y2="382.3" stroke="rgb(0,0,0)"  stroke-width="2.0"/>
<line x1="155.6" y1="367.4" x2="150.1" y2="387.7" stroke="rgb(0,0,0)"  stroke-width="2.0"/>
<line x1="108.5" y1="219.1" x2="89.5" y2="228.3" stroke="rgb(0,0,0)"  stroke-width="2.0"/>
<line x1="108.5" y1="219.1" x2="126.0" y2="230.9" stroke="rgb(0,0,0)"  stroke-width="2.0"/>
<line x1="108.5" y1="219.1" x2="107.0" y2="240.1" stroke="rgb(0,0,0)"  stroke-width="2.0"/>
<line x1="69.5" y1="122.6" x2="51.2" y2="112.0" stroke="rgb(0,0,0)"  stroke-width="2.0"/>
<line x1="69.5" y1="122.6" x2="69.6" y2="101.5" stroke="rgb(0,0,0)"  stroke-width="2.0"/>
<line x1="69.4" y1="173.1" x2="52.5" y2="183.6" stroke="rgb(0,0,0)"  stroke-width="2.0"/>
<line x1="111.1" y1="98.9" x2="111.2" y2="77.8" stroke="rgb(0,0,0)"  stroke-width="2.0"/>
<line x1="111.1" y1="98.9" x2="129.4" y2="88.6" stroke="rgb(0,0,0)"  stroke-width="2.0"/>
<line x1="153.1" y1="74.1" x2="171.5" y2="63.7" stroke="rgb(0,0,0)"  stroke-width="2.0"/>
<line x1="153.1" y1="74.1" x2="134.9" y2="63.4" stroke="rgb(0,0,0)"  stroke-width="2.0"/>
<line x1="153.1" y1="74.1" x2="153.3" y2="53.0" stroke="rgb(0,0,0)"  stroke-width="2.0"/>
<line x1="235.7" y1="123.1" x2="253.8" y2="112.2" stroke="rgb(0,0,0)"  stroke-width="2.0"/>
<line x1="235.7" y1="123.1" x2="235.1" y2="102.0" stroke="rgb(0,0,0)"  stroke-width="2.0"/>
<line x1="235.6" y1="172.9" x2="253.8" y2="183.5" stroke="rgb(0,0,0)"  stroke-width="2.0"/>
<line x1="235.6" y1="172.9" x2="235.6" y2="194.0" stroke="rgb(0,0,0)"  stroke-width="2.0"/>
<line x1="153.0" y1="171.8" x2="135.1" y2="160.7" stroke="rgb(0,0,0)"  stroke-width="2.0"/>
<line x1="194.4" y1="101.3" x2="194.4" y2="122.4" stroke="rgb(0,0,0)"  stroke-width="2.0"/>
<line x1="194.1" y1="196.9" x2="194.4" y2="175.8" stroke="rgb(0,0,0)"  stroke-width="2.0"/>
<line x1="166.8" y1="264.1" x2="193.8" y2="244.4" stroke="rgb(0,0,0)"  stroke-width="2.0"/>
<line x1="171.9" y1="269.3" x2="193.2" y2="253.8" stroke="rgb(0,0,0)"  stroke-width="2.0"/>
<line x1="193.8" y1="244.4" x2="222.3" y2="267.3" stroke="rgb(0,0,0)"  stroke-width="2.0"/>
<line x1="228.3" y1="287.8" x2="217.5" y2="320.2" stroke="rgb(0,0,0)"  stroke-width="2.0"/>
<line x1="217.5" y1="320.2" x2="168.4" y2="320.0" stroke="rgb(0,0,0)"  stroke-width="2.0"/>
<line x1="168.4" y1="320.0" x2="157.5" y2="286.2" stroke="rgb(0,0,0)"  stroke-width="2.0"/>
<line x1="110.4" y1="192.7" x2="153.0" y2="171.8" stroke="rgb(0,0,0)"  stroke-width="2.0"/>
<line x1="153.0" y1="171.8" x2="152.8" y2="123.6" stroke="rgb(0,0,0)"  stroke-width="2.0"/>
<line x1="152.8" y1="123.6" x2="111.1" y2="98.9" stroke="rgb(0,0,0)"  stroke-width="2.0"/>
<line x1="111.1" y1="98.9" x2="69.5" y2="122.6" stroke="rgb(0,0,0)"  stroke-width="2.0"/>
<line x1="69.5" y1="122.6" x2="69.4" y2="173.1" stroke="rgb(0,0,0)"  stroke-width="2.0"/>
<line x1="69.4" y1="173.1" x2="110.4" y2="192.7" stroke="rgb(0,0,0)"  stroke-width="2.0"/>
<line x1="77.9" y1="169.2" x2="108.1" y2="183.6" stroke="rgb(0,0,0)"  stroke-width="2.0"/>
<line x1="235.7" y1="123.1" x2="235.6" y2="172.9" stroke="rgb(0,0,0)"  stroke-width="2.0"/>
<line x1="235.6" y1="172.9" x2="194.1" y2="196.9" stroke="rgb(0,0,0)"  stroke-width="2.0"/>
<line x1="194.1" y1="196.9" x2="153.0" y2="171.8" stroke="rgb(0,0,0)"  stroke-width="2.0"/>
<line x1="152.8" y1="123.6" x2="194.4" y2="101.3" stroke="rgb(0,0,0)"  stroke-width="2.0"/>
<line x1="194.4" y1="101.3" x2="235.7" y2="123.1" stroke="rgb(0,0,0)"  stroke-width="2.0"/>
<text x="147.523568" y="281.802904" fill="rgb(12,12,255)"  stroke="rgb(12,12,255)" stroke-width="1" font-size="16" >N</text>
<text x="226.430658" y="283.416311" fill="rgb(255,12,12)"  stroke="rgb(255,12,12)" stroke-width="1" font-size="16" >O</text>
<text x="199.860456" y="59.975360" fill="rgb(255,12,12)"  stroke="rgb(255,12,12)" stroke-width="1" font-size="16" >O</text>
<text x="229.459782" y="51.002776" fill="rgb(191,191,191)"  stroke="rgb(191,191,191)" stroke-width="1" font-size="16" >H</text>
<text x="91.842556" y="315.574537" fill="rgb(191,191,191)"  stroke="rgb(191,191,191)" stroke-width="1" font-size="16" >H</text>
<text x="106.541394" y="372.810507" fill="rgb(191,191,191)"  stroke="rgb(191,191,191)" stroke-width="1" font-size="16" >H</text>
<text x="82.669374" y="348.435711" fill="rgb(191,191,191)"  stroke="rgb(191,191,191)" stroke-width="1" font-size="16" >H</text>
<text x="231.420131" y="355.888723" fill="rgb(191,191,191)"  stroke="rgb(191,191,191)" stroke-width="1" font-size="16" >H</text>
<text x="195.883963" y="358.490585" fill="rgb(191,191,191)"  stroke="rgb(191,191,191)" stroke-width="1" font-size="16" >H</text>
<text x="116.651084" y="384.123756" fill="rgb(191,191,191)"  stroke="rgb(191,191,191)" stroke-width="1" font-size="16" >H</text>
<text x="173.703628" y="399.519191" fill="rgb(191,191,191)"  stroke="rgb(191,191,191)" stroke-width="1" font-size="16" >H</text>
<text x="140.733077" y="408.291124" fill="rgb(191,191,191)"  stroke="rgb(191,191,191)" stroke-width="1" font-size="16" >H</text>
<text x="71.824926" y="241.977881" fill="rgb(191,191,191)"  stroke="rgb(191,191,191)" stroke-width="1" font-size="16" >H</text>
<text x="130.770095" y="246.158693" fill="rgb(191,191,191)"  stroke="rgb(191,191,191)" stroke-width="1" font-size="16" >H</text>
<text x="100.090614" y="261.084291" fill="rgb(191,191,191)"  stroke="rgb(191,191,191)" stroke-width="1" font-size="16" >H</text>
<text x="34.000000" y="113.468220" fill="rgb(191,191,191)"  stroke="rgb(191,191,191)" stroke-width="1" font-size="16" >H</text>
<text x="63.639998" y="96.519713" fill="rgb(191,191,191)"  stroke="rgb(191,191,191)" stroke-width="1" font-size="16" >H</text>
<text x="35.520569" y="198.565491" fill="rgb(191,191,191)"  stroke="rgb(191,191,191)" stroke-width="1" font-size="16" >H</text>
<text x="105.341018" y="72.820017" fill="rgb(191,191,191)"  stroke="rgb(191,191,191)" stroke-width="1" font-size="16" >H</text>
<text x="134.768823" y="90.164440" fill="rgb(191,191,191)"  stroke="rgb(191,191,191)" stroke-width="1" font-size="16" >H</text>
<text x="176.787420" y="65.265678" fill="rgb(191,191,191)"  stroke="rgb(191,191,191)" stroke-width="1" font-size="16" >H</text>
<text x="117.695625" y="64.850985" fill="rgb(191,191,191)"  stroke="rgb(191,191,191)" stroke-width="1" font-size="16" >H</text>
<text x="147.361234" y="48.000000" fill="rgb(191,191,191)"  stroke="rgb(191,191,191)" stroke-width="1" font-size="16" >H</text>
<text x="258.898296" y="113.485304" fill="rgb(191,191,191)"  stroke="rgb(191,191,191)" stroke-width="1" font-size="16" >H</text>
<text x="228.705767" y="96.969638" fill="rgb(191,191,191)"  stroke="rgb(191,191,191)" stroke-width="1" font-size="16" >H</text>
<text x="259.093645" y="197.992779" fill="rgb(191,191,191)"  stroke="rgb(191,191,191)" stroke-width="1" font-size="16" >H</text>
<text x="229.559840" y="215.031442" fill="rgb(191,191,191)"  stroke="rgb(191,191,191)" stroke-width="1" font-size="16" >H</text>
<text x="118.050602" y="161.852131" fill="rgb(191,191,191)"  stroke="rgb(191,191,191)" stroke-width="1" font-size="16" >H</text>
<text x="188.489203" y="143.397167" fill="rgb(191,191,191)"  stroke="rgb(191,191,191)" stroke-width="1" font-size="16" >H</text>
<text x="188.510423" y="170.770309" fill="rgb(191,191,191)"  stroke="rgb(191,191,191)" stroke-width="1" font-size="16" >H</text>
</svg>
</g>
<text font-size="18.000000" fill ="black" font-family="sans-serif"
x="10.000000" y="20.000000" ></text>
</svg>
