<?xml version="1.0"?>
<svg version="1.1" id="topsvg"
xmlns="http://www.w3.org/2000/svg" xmlns:xlink="http://www.w3.org/1999/xlink"
xmlns:cml="http://www.xml-cml.org/schema" x="0" y="0" width="200px" height="200px" viewBox="0 0 100 100">
<title> - Open Babel Depiction</title>
<rect x="0" y="0" width="100" height="100" fill="white"/>
<g transform="translate(0,0)">
<svg width="100" height="100" x="0" y="0" viewBox="0 0 431.481 336.753"
font-family="sans-serif" stroke="rgb(0,0,0)" stroke-width="2"  stroke-linecap="round">
<line x1="113.1" y1="268.2" x2="135.1" y2="231.5" stroke="rgb(0,0,0)"  stroke-width="2.0"/>
<line x1="118.3" y1="271.3" x2="140.2" y2="234.6" stroke="rgb(0,0,0)"  stroke-width="2.0"/>
<line x1="137.7" y1="233.0" x2="181.1" y2="233.6" stroke="rgb(0,0,0)"  stroke-width="2.0"/>
<line x1="201.3" y1="197.9" x2="181.1" y2="233.6" stroke="rgb(0,0,0)"  stroke-width="2.0"/>
<line x1="72.0" y1="269.2" x2="115.7" y2="269.7" stroke="rgb(0,0,0)"  stroke-width="2.0"/>
<line x1="115.7" y1="269.7" x2="124.4" y2="285.3" stroke="rgb(0,0,0)"  stroke-width="2.0"/>
<line x1="137.7" y1="233.0" x2="129.0" y2="217.4" stroke="rgb(0,0,0)"  stroke-width="2.0"/>
<line x1="186.0" y1="160.5" x2="179.4" y2="142.7" stroke="rgb(0,0,0)"  stroke-width="2.0"/>
<line x1="186.0" y1="160.5" x2="167.1" y2="158.9" stroke="rgb(0,0,0)"  stroke-width="2.0"/>
<line x1="327.1" y1="70.4" x2="324.3" y2="52.8" stroke="rgb(0,0,0)"  stroke-width="2.0"/>
<line x1="363.0" y1="93.0" x2="379.5" y2="86.2" stroke="rgb(0,0,0)"  stroke-width="2.0"/>
<line x1="311.6" y1="206.7" x2="323.8" y2="221.2" stroke="rgb(0,0,0)"  stroke-width="2.0"/>
<line x1="311.6" y1="206.7" x2="330.5" y2="205.0" stroke="rgb(0,0,0)"  stroke-width="2.0"/>
<line x1="274.5" y1="219.9" x2="274.0" y2="200.9" stroke="rgb(0,0,0)"  stroke-width="2.0"/>
<line x1="201.3" y1="197.9" x2="208.4" y2="215.5" stroke="rgb(0,0,0)"  stroke-width="2.0"/>
<line x1="181.1" y1="233.6" x2="190.5" y2="250.0" stroke="rgb(0,0,0)"  stroke-width="2.0"/>
<line x1="181.1" y1="233.6" x2="200.1" y2="233.5" stroke="rgb(0,0,0)"  stroke-width="2.0"/>
<line x1="72.0" y1="269.2" x2="62.7" y2="252.7" stroke="rgb(0,0,0)"  stroke-width="2.0"/>
<line x1="72.0" y1="269.2" x2="62.3" y2="285.6" stroke="rgb(0,0,0)"  stroke-width="2.0"/>
<line x1="72.0" y1="269.2" x2="53.0" y2="269.0" stroke="rgb(0,0,0)"  stroke-width="2.0"/>
<line x1="301.5" y1="169.0" x2="316.2" y2="157.0" stroke="rgb(0,0,0)"  stroke-width="2.0"/>
<line x1="301.5" y1="169.0" x2="316.2" y2="181.1" stroke="rgb(0,0,0)"  stroke-width="2.0"/>
<line x1="156.8" y1="211.8" x2="142.1" y2="223.7" stroke="rgb(0,0,0)"  stroke-width="2.0"/>
<line x1="156.8" y1="211.8" x2="142.4" y2="199.5" stroke="rgb(0,0,0)"  stroke-width="2.0"/>
<line x1="186.0" y1="160.5" x2="238.9" y2="179.6" stroke="rgb(0,0,0)"  stroke-width="2.0"/>
<line x1="263.6" y1="180.3" x2="301.5" y2="169.0" stroke="rgb(0,0,0)"  stroke-width="2.0"/>
<line x1="301.5" y1="169.0" x2="274.5" y2="219.9" stroke="rgb(0,0,0)"  stroke-width="2.0"/>
<line x1="274.5" y1="219.9" x2="201.3" y2="197.9" stroke="rgb(0,0,0)"  stroke-width="2.0"/>
<line x1="201.3" y1="197.9" x2="156.8" y2="211.8" stroke="rgb(0,0,0)"  stroke-width="2.0"/>
<line x1="156.8" y1="211.8" x2="186.0" y2="160.5" stroke="rgb(0,0,0)"  stroke-width="2.0"/>
<line x1="327.1" y1="70.4" x2="294.2" y2="110.4" stroke="rgb(0,0,0)"  stroke-width="2.0"/>
<line x1="294.2" y1="110.4" x2="270.9" y2="148.3" stroke="rgb(0,0,0)"  stroke-width="2.0"/>
<line x1="297.7" y1="112.6" x2="274.5" y2="150.5" stroke="rgb(0,0,0)"  stroke-width="2.0"/>
<line x1="290.6" y1="108.2" x2="267.4" y2="146.1" stroke="rgb(0,0,0)"  stroke-width="2.0"/>
<line x1="270.9" y1="148.3" x2="257.4" y2="172.7" stroke="rgb(0,0,0)"  stroke-width="2.0"/>
<line x1="274.5" y1="219.9" x2="311.6" y2="206.7" stroke="rgb(0,0,0)"  stroke-width="2.0"/>
<line x1="311.6" y1="206.7" x2="332.0" y2="170.9" stroke="rgb(0,0,0)"  stroke-width="2.0"/>
<line x1="332.0" y1="170.9" x2="353.7" y2="133.0" stroke="rgb(0,0,0)"  stroke-width="2.0"/>
<line x1="328.4" y1="168.8" x2="350.0" y2="130.9" stroke="rgb(0,0,0)"  stroke-width="2.0"/>
<line x1="335.7" y1="173.0" x2="357.3" y2="135.1" stroke="rgb(0,0,0)"  stroke-width="2.0"/>
<line x1="353.7" y1="133.0" x2="363.0" y2="93.0" stroke="rgb(0,0,0)"  stroke-width="2.0"/>
<line x1="363.0" y1="93.0" x2="327.1" y2="70.4" stroke="rgb(0,0,0)"  stroke-width="2.0"/>
<line x1="354.0" y1="95.9" x2="328.4" y2="79.7" stroke="rgb(0,0,0)"  stroke-width="2.0"/>
<text x="233.111861" y="192.040537" fill="rgb(17,127,178)"  stroke="rgb(17,127,178)" stroke-width="1" font-size="16" >Xx</text>
<text x="124.772331" y="304.633112" fill="rgb(191,191,191)"  stroke="rgb(191,191,191)" stroke-width="1" font-size="16" >H</text>
<text x="116.613427" y="214.091116" fill="rgb(191,191,191)"  stroke="rgb(191,191,191)" stroke-width="1" font-size="16" >H</text>
<text x="168.934363" y="138.475338" fill="rgb(191,191,191)"  stroke="rgb(191,191,191)" stroke-width="1" font-size="16" >H</text>
<text x="148.132965" y="165.864574" fill="rgb(191,191,191)"  stroke="rgb(191,191,191)" stroke-width="1" font-size="16" >H</text>
<text x="316.215028" y="48.000000" fill="rgb(191,191,191)"  stroke="rgb(191,191,191)" stroke-width="1" font-size="16" >H</text>
<text x="385.480892" y="89.289150" fill="rgb(191,191,191)"  stroke="rgb(191,191,191)" stroke-width="1" font-size="16" >H</text>
<text x="326.102191" y="239.184793" fill="rgb(191,191,191)"  stroke="rgb(191,191,191)" stroke-width="1" font-size="16" >H</text>
<text x="337.430633" y="211.827383" fill="rgb(191,191,191)"  stroke="rgb(191,191,191)" stroke-width="1" font-size="16" >H</text>
<text x="267.684288" y="195.899478" fill="rgb(191,191,191)"  stroke="rgb(191,191,191)" stroke-width="1" font-size="16" >H</text>
<text x="207.238770" y="235.600791" fill="rgb(191,191,191)"  stroke="rgb(191,191,191)" stroke-width="1" font-size="16" >H</text>
<text x="190.988171" y="269.300732" fill="rgb(191,191,191)"  stroke="rgb(191,191,191)" stroke-width="1" font-size="16" >H</text>
<text x="207.057530" y="241.503073" fill="rgb(191,191,191)"  stroke="rgb(191,191,191)" stroke-width="1" font-size="16" >H</text>
<text x="50.292169" y="249.377086" fill="rgb(191,191,191)"  stroke="rgb(191,191,191)" stroke-width="1" font-size="16" >H</text>
<text x="49.679233" y="304.753177" fill="rgb(191,191,191)"  stroke="rgb(191,191,191)" stroke-width="1" font-size="16" >H</text>
<text x="34.000000" y="276.888192" fill="rgb(191,191,191)"  stroke="rgb(191,191,191)" stroke-width="1" font-size="16" >H</text>
<text x="320.255502" y="156.789300" fill="rgb(191,191,191)"  stroke="rgb(191,191,191)" stroke-width="1" font-size="16" >H</text>
<text x="320.234194" y="197.310640" fill="rgb(191,191,191)"  stroke="rgb(191,191,191)" stroke-width="1" font-size="16" >H</text>
<text x="125.942548" y="239.837622" fill="rgb(191,191,191)"  stroke="rgb(191,191,191)" stroke-width="1" font-size="16" >H</text>
<text x="126.487988" y="199.068678" fill="rgb(191,191,191)"  stroke="rgb(191,191,191)" stroke-width="1" font-size="16" >H</text>
</svg>
</g>
<text font-size="18.000000" fill ="black" font-family="sans-serif"
x="10.000000" y="20.000000" ></text>
</svg>
