<?xml version="1.0"?>
<svg version="1.1" id="topsvg"
xmlns="http://www.w3.org/2000/svg" xmlns:xlink="http://www.w3.org/1999/xlink"
xmlns:cml="http://www.xml-cml.org/schema" x="0" y="0" width="200px" height="200px" viewBox="0 0 100 100">
<title> - Open Babel Depiction</title>
<rect x="0" y="0" width="100" height="100" fill="white"/>
<g transform="translate(0,0)">
<svg width="100" height="100" x="0" y="0" viewBox="0 0 311.118 326.606"
font-family="sans-serif" stroke="rgb(0,0,0)" stroke-width="2"  stroke-linecap="round">
<line x1="198.0" y1="228.2" x2="240.8" y2="250.2" stroke="rgb(0,0,0)"  stroke-width="2.0"/>
<line x1="253.0" y1="269.1" x2="253.2" y2="273.6" stroke="rgb(0,0,0)"  stroke-width="2.0"/>
<line x1="198.6" y1="184.4" x2="196.3" y2="226.1" stroke="rgb(0,0,0)"  stroke-width="2.0"/>
<line x1="196.3" y1="226.1" x2="198.0" y2="228.2" stroke="rgb(0,0,0)"  stroke-width="2.0"/>
<line x1="199.5" y1="223.4" x2="201.3" y2="225.6" stroke="rgb(0,0,0)"  stroke-width="2.0"/>
<line x1="193.0" y1="228.7" x2="194.8" y2="230.9" stroke="rgb(0,0,0)"  stroke-width="2.0"/>
<line x1="69.3" y1="104.9" x2="51.5" y2="94.4" stroke="rgb(0,0,0)"  stroke-width="2.0"/>
<line x1="69.3" y1="104.9" x2="51.3" y2="115.0" stroke="rgb(0,0,0)"  stroke-width="2.0"/>
<line x1="110.9" y1="81.0" x2="110.0" y2="60.3" stroke="rgb(0,0,0)"  stroke-width="2.0"/>
<line x1="110.9" y1="81.0" x2="128.0" y2="69.5" stroke="rgb(0,0,0)"  stroke-width="2.0"/>
<line x1="241.0" y1="106.4" x2="259.5" y2="97.1" stroke="rgb(0,0,0)"  stroke-width="2.0"/>
<line x1="241.0" y1="106.4" x2="242.9" y2="85.8" stroke="rgb(0,0,0)"  stroke-width="2.0"/>
<line x1="241.4" y1="156.6" x2="259.7" y2="166.4" stroke="rgb(0,0,0)"  stroke-width="2.0"/>
<line x1="241.4" y1="156.6" x2="242.3" y2="177.3" stroke="rgb(0,0,0)"  stroke-width="2.0"/>
<line x1="198.6" y1="184.4" x2="216.5" y2="194.8" stroke="rgb(0,0,0)"  stroke-width="2.0"/>
<line x1="155.5" y1="157.4" x2="173.8" y2="147.7" stroke="rgb(0,0,0)"  stroke-width="2.0"/>
<line x1="157.0" y1="102.4" x2="139.5" y2="113.3" stroke="rgb(0,0,0)"  stroke-width="2.0"/>
<line x1="112.2" y1="178.9" x2="112.0" y2="199.5" stroke="rgb(0,0,0)"  stroke-width="2.0"/>
<line x1="112.2" y1="178.9" x2="129.7" y2="189.9" stroke="rgb(0,0,0)"  stroke-width="2.0"/>
<line x1="198.2" y1="73.7" x2="198.7" y2="53.0" stroke="rgb(0,0,0)"  stroke-width="2.0"/>
<line x1="198.2" y1="73.7" x2="180.0" y2="63.9" stroke="rgb(0,0,0)"  stroke-width="2.0"/>
<line x1="241.0" y1="106.4" x2="198.2" y2="73.7" stroke="rgb(0,0,0)"  stroke-width="2.0"/>
<line x1="198.2" y1="73.7" x2="157.0" y2="102.4" stroke="rgb(0,0,0)"  stroke-width="2.0"/>
<line x1="157.0" y1="102.4" x2="155.5" y2="157.4" stroke="rgb(0,0,0)"  stroke-width="2.0"/>
<line x1="155.5" y1="157.4" x2="198.6" y2="184.4" stroke="rgb(0,0,0)"  stroke-width="2.0"/>
<line x1="198.6" y1="184.4" x2="241.4" y2="156.6" stroke="rgb(0,0,0)"  stroke-width="2.0"/>
<line x1="241.4" y1="156.6" x2="241.0" y2="106.4" stroke="rgb(0,0,0)"  stroke-width="2.0"/>
<line x1="80.3" y1="162.2" x2="112.2" y2="178.9" stroke="rgb(0,0,0)"  stroke-width="2.0"/>
<line x1="112.2" y1="178.9" x2="155.5" y2="157.4" stroke="rgb(0,0,0)"  stroke-width="2.0"/>
<line x1="157.0" y1="102.4" x2="110.9" y2="81.0" stroke="rgb(0,0,0)"  stroke-width="2.0"/>
<line x1="110.9" y1="81.0" x2="69.3" y2="104.9" stroke="rgb(0,0,0)"  stroke-width="2.0"/>
<line x1="69.3" y1="104.9" x2="68.9" y2="143.1" stroke="rgb(0,0,0)"  stroke-width="2.0"/>
<text x="246.380756" y="264.112818" fill="rgb(255,12,12)"  stroke="rgb(255,12,12)" stroke-width="1" font-size="16" >O</text>
<text x="50.754502" y="164.141322" fill="rgb(17,127,178)"  stroke="rgb(17,127,178)" stroke-width="1" font-size="16" >Xx</text>
<text x="247.891565" y="294.605981" fill="rgb(191,191,191)"  stroke="rgb(191,191,191)" stroke-width="1" font-size="16" >H</text>
<text x="34.255572" y="95.823565" fill="rgb(191,191,191)"  stroke="rgb(191,191,191)" stroke-width="1" font-size="16" >H</text>
<text x="34.000000" y="129.437660" fill="rgb(191,191,191)"  stroke="rgb(191,191,191)" stroke-width="1" font-size="16" >H</text>
<text x="103.385680" y="55.335777" fill="rgb(191,191,191)"  stroke="rgb(191,191,191)" stroke-width="1" font-size="16" >H</text>
<text x="132.838706" y="70.227551" fill="rgb(191,191,191)"  stroke="rgb(191,191,191)" stroke-width="1" font-size="16" >H</text>
<text x="265.091104" y="99.324536" fill="rgb(191,191,191)"  stroke="rgb(191,191,191)" stroke-width="1" font-size="16" >H</text>
<text x="238.154287" y="80.857969" fill="rgb(191,191,191)"  stroke="rgb(191,191,191)" stroke-width="1" font-size="16" >H</text>
<text x="265.117983" y="180.529255" fill="rgb(191,191,191)"  stroke="rgb(191,191,191)" stroke-width="1" font-size="16" >H</text>
<text x="236.835320" y="198.241342" fill="rgb(191,191,191)"  stroke="rgb(191,191,191)" stroke-width="1" font-size="16" >H</text>
<text x="221.726914" y="209.283590" fill="rgb(191,191,191)"  stroke="rgb(191,191,191)" stroke-width="1" font-size="16" >H</text>
<text x="179.226513" y="149.513745" fill="rgb(191,191,191)"  stroke="rgb(191,191,191)" stroke-width="1" font-size="16" >H</text>
<text x="122.412207" y="128.104156" fill="rgb(191,191,191)"  stroke="rgb(191,191,191)" stroke-width="1" font-size="16" >H</text>
<text x="105.804738" y="220.530064" fill="rgb(191,191,191)"  stroke="rgb(191,191,191)" stroke-width="1" font-size="16" >H</text>
<text x="134.694583" y="204.790983" fill="rgb(191,191,191)"  stroke="rgb(191,191,191)" stroke-width="1" font-size="16" >H</text>
<text x="192.965070" y="48.000000" fill="rgb(191,191,191)"  stroke="rgb(191,191,191)" stroke-width="1" font-size="16" >H</text>
<text x="162.534089" y="65.749528" fill="rgb(191,191,191)"  stroke="rgb(191,191,191)" stroke-width="1" font-size="16" >H</text>
</svg>
</g>
<text font-size="18.000000" fill ="black" font-family="sans-serif"
x="10.000000" y="20.000000" ></text>
</svg>
