<?xml version="1.0"?>
<svg version="1.1" id="topsvg"
xmlns="http://www.w3.org/2000/svg" xmlns:xlink="http://www.w3.org/1999/xlink"
xmlns:cml="http://www.xml-cml.org/schema" x="0" y="0" width="200px" height="200px" viewBox="0 0 100 100">
<title> - Open Babel Depiction</title>
<rect x="0" y="0" width="100" height="100" fill="white"/>
<g transform="translate(0,0)">
<svg width="100" height="100" x="0" y="0" viewBox="0 0 300.411 434.136"
font-family="sans-serif" stroke="rgb(0,0,0)" stroke-width="2"  stroke-linecap="round">
<line x1="124.0" y1="338.6" x2="165.8" y2="315.5" stroke="rgb(0,0,0)"  stroke-width="2.0"/>
<line x1="165.8" y1="315.5" x2="152.9" y2="361.6" stroke="rgb(0,0,0)"  stroke-width="2.0"/>
<line x1="183.3" y1="109.1" x2="182.5" y2="107.7" stroke="rgb(0,0,0)"  stroke-width="1.0"/>
<line x1="177.1" y1="113.0" x2="175.8" y2="110.4" stroke="rgb(0,0,0)"  stroke-width="1.0"/>
<line x1="170.8" y1="116.8" x2="169.0" y2="113.1" stroke="rgb(0,0,0)"  stroke-width="1.0"/>
<line x1="164.6" y1="120.7" x2="162.2" y2="115.8" stroke="rgb(0,0,0)"  stroke-width="1.0"/>
<line x1="158.4" y1="124.5" x2="155.4" y2="118.5" stroke="rgb(0,0,0)"  stroke-width="1.0"/>
<line x1="152.2" y1="128.4" x2="148.6" y2="121.2" stroke="rgb(0,0,0)"  stroke-width="1.0"/>
<line x1="191.0" y1="104.3" x2="199.4" y2="69.3" stroke="rgb(0,0,0)"  stroke-width="2.0"/>
<line x1="181.4" y1="191.1" x2="182.1" y2="189.7" stroke="rgb(0,0,0)"  stroke-width="1.0"/>
<line x1="174.7" y1="188.5" x2="176.0" y2="185.9" stroke="rgb(0,0,0)"  stroke-width="1.0"/>
<line x1="168.0" y1="185.8" x2="169.9" y2="182.1" stroke="rgb(0,0,0)"  stroke-width="1.0"/>
<line x1="161.3" y1="183.2" x2="163.8" y2="178.3" stroke="rgb(0,0,0)"  stroke-width="1.0"/>
<line x1="154.6" y1="180.5" x2="157.7" y2="174.5" stroke="rgb(0,0,0)"  stroke-width="1.0"/>
<line x1="148.0" y1="177.9" x2="151.6" y2="170.7" stroke="rgb(0,0,0)"  stroke-width="1.0"/>
<line x1="189.7" y1="194.4" x2="190.1" y2="247.0" stroke="rgb(0,0,0)"  stroke-width="2.0"/>
<line x1="151.1" y1="134.7" x2="149.5" y2="134.7" stroke="rgb(0,0,0)"  stroke-width="1.0"/>
<line x1="151.6" y1="142.6" x2="148.8" y2="142.6" stroke="rgb(0,0,0)"  stroke-width="1.0"/>
<line x1="152.2" y1="150.6" x2="148.0" y2="150.5" stroke="rgb(0,0,0)"  stroke-width="1.0"/>
<line x1="152.7" y1="158.5" x2="147.3" y2="158.4" stroke="rgb(0,0,0)"  stroke-width="1.0"/>
<line x1="153.2" y1="166.4" x2="146.5" y2="166.3" stroke="rgb(0,0,0)"  stroke-width="1.0"/>
<line x1="153.8" y1="174.4" x2="145.8" y2="174.3" stroke="rgb(0,0,0)"  stroke-width="1.0"/>
<line x1="150.4" y1="124.8" x2="149.8" y2="73.7" stroke="rgb(0,0,0)"  stroke-width="2.0"/>
<line x1="150.5" y1="180.5" x2="148.9" y2="180.5" stroke="rgb(0,0,0)"  stroke-width="1.0"/>
<line x1="151.1" y1="185.4" x2="148.2" y2="185.4" stroke="rgb(0,0,0)"  stroke-width="1.0"/>
<line x1="151.7" y1="190.3" x2="147.5" y2="190.3" stroke="rgb(0,0,0)"  stroke-width="1.0"/>
<line x1="152.3" y1="195.3" x2="146.8" y2="195.2" stroke="rgb(0,0,0)"  stroke-width="1.0"/>
<line x1="152.9" y1="200.2" x2="146.2" y2="200.1" stroke="rgb(0,0,0)"  stroke-width="1.0"/>
<line x1="153.5" y1="205.1" x2="145.5" y2="205.0" stroke="rgb(0,0,0)"  stroke-width="1.0"/>
<line x1="214.9" y1="53.0" x2="219.3" y2="51.7" stroke="rgb(0,0,0)"  stroke-width="2.0"/>
<line x1="124.0" y1="338.6" x2="106.3" y2="327.8" stroke="rgb(0,0,0)"  stroke-width="2.0"/>
<line x1="124.0" y1="338.6" x2="123.6" y2="359.3" stroke="rgb(0,0,0)"  stroke-width="2.0"/>
<line x1="124.0" y1="338.6" x2="105.8" y2="348.6" stroke="rgb(0,0,0)"  stroke-width="2.0"/>
<line x1="212.7" y1="316.0" x2="224.8" y2="332.9" stroke="rgb(0,0,0)"  stroke-width="2.0"/>
<line x1="212.7" y1="316.0" x2="203.1" y2="334.5" stroke="rgb(0,0,0)"  stroke-width="2.0"/>
<line x1="152.9" y1="361.6" x2="132.9" y2="366.8" stroke="rgb(0,0,0)"  stroke-width="2.0"/>
<line x1="152.9" y1="361.6" x2="167.5" y2="376.4" stroke="rgb(0,0,0)"  stroke-width="2.0"/>
<line x1="152.9" y1="361.6" x2="147.4" y2="381.6" stroke="rgb(0,0,0)"  stroke-width="2.0"/>
<line x1="69.0" y1="125.9" x2="51.2" y2="115.3" stroke="rgb(0,0,0)"  stroke-width="2.0"/>
<line x1="69.0" y1="125.9" x2="69.5" y2="105.1" stroke="rgb(0,0,0)"  stroke-width="2.0"/>
<line x1="69.6" y1="173.5" x2="52.7" y2="183.4" stroke="rgb(0,0,0)"  stroke-width="2.0"/>
<line x1="109.5" y1="104.4" x2="109.2" y2="83.7" stroke="rgb(0,0,0)"  stroke-width="2.0"/>
<line x1="109.5" y1="104.4" x2="127.1" y2="93.4" stroke="rgb(0,0,0)"  stroke-width="2.0"/>
<line x1="191.0" y1="104.3" x2="190.7" y2="125.1" stroke="rgb(0,0,0)"  stroke-width="2.0"/>
<line x1="231.0" y1="125.9" x2="248.8" y2="115.2" stroke="rgb(0,0,0)"  stroke-width="2.0"/>
<line x1="231.0" y1="125.9" x2="249.1" y2="136.1" stroke="rgb(0,0,0)"  stroke-width="2.0"/>
<line x1="231.1" y1="174.3" x2="248.7" y2="185.3" stroke="rgb(0,0,0)"  stroke-width="2.0"/>
<line x1="231.1" y1="174.3" x2="230.0" y2="195.0" stroke="rgb(0,0,0)"  stroke-width="2.0"/>
<line x1="189.7" y1="194.4" x2="189.9" y2="173.7" stroke="rgb(0,0,0)"  stroke-width="2.0"/>
<line x1="109.3" y1="196.6" x2="109.1" y2="216.1" stroke="rgb(0,0,0)"  stroke-width="2.0"/>
<line x1="149.8" y1="73.7" x2="167.6" y2="63.1" stroke="rgb(0,0,0)"  stroke-width="2.0"/>
<line x1="149.8" y1="73.7" x2="131.7" y2="63.6" stroke="rgb(0,0,0)"  stroke-width="2.0"/>
<line x1="149.8" y1="73.7" x2="149.5" y2="53.0" stroke="rgb(0,0,0)"  stroke-width="2.0"/>
<line x1="163.8" y1="262.8" x2="190.1" y2="247.0" stroke="rgb(0,0,0)"  stroke-width="2.0"/>
<line x1="168.7" y1="268.2" x2="188.7" y2="256.3" stroke="rgb(0,0,0)"  stroke-width="2.0"/>
<line x1="190.1" y1="247.0" x2="216.1" y2="264.8" stroke="rgb(0,0,0)"  stroke-width="2.0"/>
<line x1="222.8" y1="284.5" x2="212.7" y2="316.0" stroke="rgb(0,0,0)"  stroke-width="2.0"/>
<line x1="212.7" y1="316.0" x2="165.8" y2="315.5" stroke="rgb(0,0,0)"  stroke-width="2.0"/>
<line x1="165.8" y1="315.5" x2="155.0" y2="282.9" stroke="rgb(0,0,0)"  stroke-width="2.0"/>
<line x1="69.0" y1="125.9" x2="109.5" y2="104.4" stroke="rgb(0,0,0)"  stroke-width="2.0"/>
<line x1="109.5" y1="104.4" x2="150.4" y2="124.8" stroke="rgb(0,0,0)"  stroke-width="2.0"/>
<line x1="150.4" y1="124.8" x2="149.8" y2="174.3" stroke="rgb(0,0,0)"  stroke-width="2.0"/>
<line x1="149.8" y1="174.3" x2="109.3" y2="196.6" stroke="rgb(0,0,0)"  stroke-width="2.0"/>
<line x1="109.3" y1="196.6" x2="69.6" y2="173.5" stroke="rgb(0,0,0)"  stroke-width="2.0"/>
<line x1="107.7" y1="187.3" x2="78.4" y2="170.3" stroke="rgb(0,0,0)"  stroke-width="2.0"/>
<line x1="69.6" y1="173.5" x2="69.0" y2="125.9" stroke="rgb(0,0,0)"  stroke-width="2.0"/>
<line x1="191.0" y1="104.3" x2="231.0" y2="125.9" stroke="rgb(0,0,0)"  stroke-width="2.0"/>
<line x1="231.0" y1="125.9" x2="231.1" y2="174.3" stroke="rgb(0,0,0)"  stroke-width="2.0"/>
<line x1="231.1" y1="174.3" x2="189.7" y2="194.4" stroke="rgb(0,0,0)"  stroke-width="2.0"/>
<line x1="189.7" y1="194.4" x2="149.8" y2="174.3" stroke="rgb(0,0,0)"  stroke-width="2.0"/>
<line x1="150.4" y1="124.8" x2="191.0" y2="104.3" stroke="rgb(0,0,0)"  stroke-width="2.0"/>
<text x="144.875630" y="278.581548" fill="rgb(12,12,255)"  stroke="rgb(12,12,255)" stroke-width="1" font-size="16" >N</text>
<text x="220.821359" y="280.133263" fill="rgb(255,12,12)"  stroke="rgb(255,12,12)" stroke-width="1" font-size="16" >O</text>
<text x="143.323915" y="228.210732" fill="rgb(191,191,191)"  stroke="rgb(191,191,191)" stroke-width="1" font-size="16" >H</text>
<text x="196.410232" y="64.694026" fill="rgb(255,12,12)"  stroke="rgb(255,12,12)" stroke-width="1" font-size="16" >O</text>
<text x="225.735124" y="55.982976" fill="rgb(191,191,191)"  stroke="rgb(191,191,191)" stroke-width="1" font-size="16" >H</text>
<text x="89.134026" y="329.099225" fill="rgb(191,191,191)"  stroke="rgb(191,191,191)" stroke-width="1" font-size="16" >H</text>
<text x="117.334664" y="380.297203" fill="rgb(191,191,191)"  stroke="rgb(191,191,191)" stroke-width="1" font-size="16" >H</text>
<text x="88.454762" y="362.839037" fill="rgb(191,191,191)"  stroke="rgb(191,191,191)" stroke-width="1" font-size="16" >H</text>
<text x="226.413650" y="351.427631" fill="rgb(191,191,191)"  stroke="rgb(191,191,191)" stroke-width="1" font-size="16" >H</text>
<text x="191.146388" y="354.004175" fill="rgb(191,191,191)"  stroke="rgb(191,191,191)" stroke-width="1" font-size="16" >H</text>
<text x="114.262515" y="378.037554" fill="rgb(191,191,191)"  stroke="rgb(191,191,191)" stroke-width="1" font-size="16" >H</text>
<text x="170.568407" y="393.726896" fill="rgb(191,191,191)"  stroke="rgb(191,191,191)" stroke-width="1" font-size="16" >H</text>
<text x="137.886338" y="402.136336" fill="rgb(191,191,191)"  stroke="rgb(191,191,191)" stroke-width="1" font-size="16" >H</text>
<text x="34.000000" y="116.616843" fill="rgb(191,191,191)"  stroke="rgb(191,191,191)" stroke-width="1" font-size="16" >H</text>
<text x="63.843987" y="100.116158" fill="rgb(191,191,191)"  stroke="rgb(191,191,191)" stroke-width="1" font-size="16" >H</text>
<text x="35.476861" y="197.954146" fill="rgb(191,191,191)"  stroke="rgb(191,191,191)" stroke-width="1" font-size="16" >H</text>
<text x="103.080946" y="78.677869" fill="rgb(191,191,191)"  stroke="rgb(191,191,191)" stroke-width="1" font-size="16" >H</text>
<text x="132.081413" y="94.474649" fill="rgb(191,191,191)"  stroke="rgb(191,191,191)" stroke-width="1" font-size="16" >H</text>
<text x="184.551923" y="146.077126" fill="rgb(191,191,191)"  stroke="rgb(191,191,191)" stroke-width="1" font-size="16" >H</text>
<text x="253.995297" y="116.567053" fill="rgb(191,191,191)"  stroke="rgb(191,191,191)" stroke-width="1" font-size="16" >H</text>
<text x="254.410726" y="150.512568" fill="rgb(191,191,191)"  stroke="rgb(191,191,191)" stroke-width="1" font-size="16" >H</text>
<text x="253.750996" y="200.171989" fill="rgb(191,191,191)"  stroke="rgb(191,191,191)" stroke-width="1" font-size="16" >H</text>
<text x="223.339028" y="215.992326" fill="rgb(191,191,191)"  stroke="rgb(191,191,191)" stroke-width="1" font-size="16" >H</text>
<text x="183.948021" y="168.666064" fill="rgb(191,191,191)"  stroke="rgb(191,191,191)" stroke-width="1" font-size="16" >H</text>
<text x="102.956894" y="237.115300" fill="rgb(191,191,191)"  stroke="rgb(191,191,191)" stroke-width="1" font-size="16" >H</text>
<text x="172.801180" y="64.503671" fill="rgb(191,191,191)"  stroke="rgb(191,191,191)" stroke-width="1" font-size="16" >H</text>
<text x="114.354911" y="65.240298" fill="rgb(191,191,191)"  stroke="rgb(191,191,191)" stroke-width="1" font-size="16" >H</text>
<text x="143.365399" y="48.000000" fill="rgb(191,191,191)"  stroke="rgb(191,191,191)" stroke-width="1" font-size="16" >H</text>
</svg>
</g>
<text font-size="18.000000" fill ="black" font-family="sans-serif"
x="10.000000" y="20.000000" ></text>
</svg>
