<?xml version="1.0"?>
<svg version="1.1" id="topsvg"
xmlns="http://www.w3.org/2000/svg" xmlns:xlink="http://www.w3.org/1999/xlink"
xmlns:cml="http://www.xml-cml.org/schema" x="0" y="0" width="200px" height="200px" viewBox="0 0 100 100">
<title> - Open Babel Depiction</title>
<rect x="0" y="0" width="100" height="100" fill="white"/>
<g transform="translate(0,0)">
<svg width="100" height="100" x="0" y="0" viewBox="0 0 406.483 378.571"
font-family="sans-serif" stroke="rgb(0,0,0)" stroke-width="2"  stroke-linecap="round">
<line x1="175.7" y1="186.3" x2="174.3" y2="233.1" stroke="rgb(0,0,0)"  stroke-width="2.0"/>
<line x1="174.3" y1="233.1" x2="200.2" y2="250.0" stroke="rgb(0,0,0)"  stroke-width="2.0"/>
<line x1="132.3" y1="113.8" x2="114.4" y2="106.9" stroke="rgb(0,0,0)"  stroke-width="2.0"/>
<line x1="106.9" y1="90.1" x2="113.8" y2="72.2" stroke="rgb(0,0,0)"  stroke-width="2.0"/>
<line x1="90.1" y1="97.6" x2="72.2" y2="90.7" stroke="rgb(0,0,0)"  stroke-width="2.0"/>
<line x1="97.6" y1="114.4" x2="90.7" y2="132.3" stroke="rgb(0,0,0)"  stroke-width="2.0"/>
<line x1="222.2" y1="50.0" x2="172.7" y2="90.6" stroke="rgb(0,0,0)"  stroke-width="2.0"/>
<line x1="183.1" y1="180.6" x2="184.0" y2="182.0" stroke="rgb(0,0,0)"  stroke-width="1.0"/>
<line x1="189.0" y1="176.1" x2="190.5" y2="178.5" stroke="rgb(0,0,0)"  stroke-width="1.0"/>
<line x1="194.9" y1="171.5" x2="197.1" y2="175.0" stroke="rgb(0,0,0)"  stroke-width="1.0"/>
<line x1="200.8" y1="167.0" x2="203.7" y2="171.6" stroke="rgb(0,0,0)"  stroke-width="1.0"/>
<line x1="206.7" y1="162.5" x2="210.3" y2="168.1" stroke="rgb(0,0,0)"  stroke-width="1.0"/>
<line x1="212.6" y1="157.9" x2="216.9" y2="164.7" stroke="rgb(0,0,0)"  stroke-width="1.0"/>
<line x1="214.7" y1="161.3" x2="256.2" y2="184.8" stroke="rgb(0,0,0)"  stroke-width="2.0"/>
<line x1="295.0" y1="302.7" x2="337.4" y2="278.5" stroke="rgb(0,0,0)"  stroke-width="2.0"/>
<line x1="298.0" y1="307.9" x2="340.3" y2="283.7" stroke="rgb(0,0,0)"  stroke-width="2.0"/>
<line x1="338.8" y1="281.1" x2="343.5" y2="245.2" stroke="rgb(0,0,0)"  stroke-width="2.0"/>
<line x1="256.3" y1="282.2" x2="200.2" y2="250.0" stroke="rgb(0,0,0)"  stroke-width="2.0"/>
<line x1="254.2" y1="285.9" x2="198.1" y2="253.6" stroke="rgb(0,0,0)"  stroke-width="2.0"/>
<line x1="258.4" y1="278.6" x2="202.3" y2="246.3" stroke="rgb(0,0,0)"  stroke-width="2.0"/>
<line x1="256.3" y1="282.2" x2="296.5" y2="305.3" stroke="rgb(0,0,0)"  stroke-width="2.0"/>
<line x1="252.1" y1="235.7" x2="253.2" y2="184.7" stroke="rgb(0,0,0)"  stroke-width="2.0"/>
<line x1="258.1" y1="235.8" x2="259.2" y2="184.8" stroke="rgb(0,0,0)"  stroke-width="2.0"/>
<line x1="175.7" y1="186.3" x2="157.1" y2="196.9" stroke="rgb(0,0,0)"  stroke-width="2.0"/>
<line x1="174.3" y1="233.1" x2="155.3" y2="243.0" stroke="rgb(0,0,0)"  stroke-width="2.0"/>
<line x1="174.3" y1="233.1" x2="173.3" y2="254.5" stroke="rgb(0,0,0)"  stroke-width="2.0"/>
<line x1="132.1" y1="162.0" x2="114.6" y2="172.3" stroke="rgb(0,0,0)"  stroke-width="2.0"/>
<line x1="113.8" y1="72.2" x2="135.1" y2="68.8" stroke="rgb(0,0,0)"  stroke-width="2.0"/>
<line x1="113.8" y1="72.2" x2="100.3" y2="55.5" stroke="rgb(0,0,0)"  stroke-width="2.0"/>
<line x1="113.8" y1="72.2" x2="121.6" y2="52.1" stroke="rgb(0,0,0)"  stroke-width="2.0"/>
<line x1="72.2" y1="90.7" x2="68.8" y2="69.4" stroke="rgb(0,0,0)"  stroke-width="2.0"/>
<line x1="72.2" y1="90.7" x2="55.5" y2="104.2" stroke="rgb(0,0,0)"  stroke-width="2.0"/>
<line x1="72.2" y1="90.7" x2="52.1" y2="82.9" stroke="rgb(0,0,0)"  stroke-width="2.0"/>
<line x1="90.7" y1="132.3" x2="69.4" y2="135.7" stroke="rgb(0,0,0)"  stroke-width="2.0"/>
<line x1="90.7" y1="132.3" x2="104.2" y2="149.0" stroke="rgb(0,0,0)"  stroke-width="2.0"/>
<line x1="90.7" y1="132.3" x2="82.9" y2="152.4" stroke="rgb(0,0,0)"  stroke-width="2.0"/>
<line x1="215.3" y1="112.6" x2="232.6" y2="102.1" stroke="rgb(0,0,0)"  stroke-width="2.0"/>
<polygon points="214.714128 161.292510 232.744571 146.303720 236.734208 153.237897 " stroke-width="2.000000" fill="rgb(0,0,0)"  stroke="rgb(0,0,0)" />
<line x1="296.5" y1="305.3" x2="296.5" y2="325.6" stroke="rgb(0,0,0)"  stroke-width="2.0"/>
<line x1="338.8" y1="281.1" x2="355.7" y2="292.3" stroke="rgb(0,0,0)"  stroke-width="2.0"/>
<line x1="255.1" y1="235.7" x2="237.4" y2="245.5" stroke="rgb(0,0,0)"  stroke-width="2.0"/>
<line x1="255.1" y1="235.7" x2="272.5" y2="246.2" stroke="rgb(0,0,0)"  stroke-width="2.0"/>
<line x1="256.2" y1="184.8" x2="273.8" y2="174.8" stroke="rgb(0,0,0)"  stroke-width="2.0"/>
<line x1="132.1" y1="162.0" x2="132.3" y2="113.8" stroke="rgb(0,0,0)"  stroke-width="2.0"/>
<line x1="139.3" y1="156.1" x2="139.5" y2="119.9" stroke="rgb(0,0,0)"  stroke-width="2.0"/>
<line x1="132.3" y1="113.8" x2="172.7" y2="90.6" stroke="rgb(0,0,0)"  stroke-width="2.0"/>
<line x1="172.7" y1="90.6" x2="215.3" y2="112.6" stroke="rgb(0,0,0)"  stroke-width="2.0"/>
<line x1="174.8" y1="99.8" x2="206.6" y2="116.2" stroke="rgb(0,0,0)"  stroke-width="2.0"/>
<line x1="215.3" y1="112.6" x2="214.7" y2="161.3" stroke="rgb(0,0,0)"  stroke-width="2.0"/>
<line x1="214.7" y1="161.3" x2="175.7" y2="186.3" stroke="rgb(0,0,0)"  stroke-width="2.0"/>
<line x1="175.7" y1="186.3" x2="132.1" y2="162.0" stroke="rgb(0,0,0)"  stroke-width="2.0"/>
<text x="96.246456" y="110.250124" fill="rgb(127,153,153)"  stroke="rgb(127,153,153)" stroke-width="1" font-size="16" >Si</text>
<text x="226.222849" y="49.786545" fill="rgb(17,127,178)"  stroke="rgb(17,127,178)" stroke-width="1" font-size="16" >Xx</text>
<text x="339.190033" y="240.284525" fill="rgb(30,239,30)"  stroke="rgb(30,239,30)" stroke-width="1" font-size="16" >Cl</text>
<text x="139.753610" y="211.331012" fill="rgb(191,191,191)"  stroke="rgb(191,191,191)" stroke-width="1" font-size="16" >H</text>
<text x="137.770567" y="257.024054" fill="rgb(191,191,191)"  stroke="rgb(191,191,191)" stroke-width="1" font-size="16" >H</text>
<text x="166.657457" y="275.505943" fill="rgb(191,191,191)"  stroke="rgb(191,191,191)" stroke-width="1" font-size="16" >H</text>
<text x="97.361411" y="186.825447" fill="rgb(191,191,191)"  stroke="rgb(191,191,191)" stroke-width="1" font-size="16" >H</text>
<text x="141.900003" y="74.825815" fill="rgb(191,191,191)"  stroke="rgb(191,191,191)" stroke-width="1" font-size="16" >H</text>
<text x="86.169111" y="53.350430" fill="rgb(191,191,191)"  stroke="rgb(191,191,191)" stroke-width="1" font-size="16" >H</text>
<text x="120.233966" y="48.000000" fill="rgb(191,191,191)"  stroke="rgb(191,191,191)" stroke-width="1" font-size="16" >H</text>
<text x="60.826594" y="64.596385" fill="rgb(191,191,191)"  stroke="rgb(191,191,191)" stroke-width="1" font-size="16" >H</text>
<text x="39.349206" y="120.326505" fill="rgb(191,191,191)"  stroke="rgb(191,191,191)" stroke-width="1" font-size="16" >H</text>
<text x="34.000000" y="86.261457" fill="rgb(191,191,191)"  stroke="rgb(191,191,191)" stroke-width="1" font-size="16" >H</text>
<text x="50.596439" y="145.673165" fill="rgb(191,191,191)"  stroke="rgb(191,191,191)" stroke-width="1" font-size="16" >H</text>
<text x="106.328562" y="167.145353" fill="rgb(191,191,191)"  stroke="rgb(191,191,191)" stroke-width="1" font-size="16" >H</text>
<text x="72.264014" y="172.497737" fill="rgb(191,191,191)"  stroke="rgb(191,191,191)" stroke-width="1" font-size="16" >H</text>
<text x="237.769770" y="103.424323" fill="rgb(191,191,191)"  stroke="rgb(191,191,191)" stroke-width="1" font-size="16" >H</text>
<text x="238.602578" y="152.095941" fill="rgb(191,191,191)"  stroke="rgb(191,191,191)" stroke-width="1" font-size="16" >H</text>
<text x="290.479073" y="346.571121" fill="rgb(191,191,191)"  stroke="rgb(191,191,191)" stroke-width="1" font-size="16" >H</text>
<text x="360.482966" y="307.569615" fill="rgb(191,191,191)"  stroke="rgb(191,191,191)" stroke-width="1" font-size="16" >H</text>
<text x="219.991149" y="259.769656" fill="rgb(191,191,191)"  stroke="rgb(191,191,191)" stroke-width="1" font-size="16" >H</text>
<text x="277.582779" y="260.978661" fill="rgb(191,191,191)"  stroke="rgb(191,191,191)" stroke-width="1" font-size="16" >H</text>
<text x="279.111737" y="176.334444" fill="rgb(191,191,191)"  stroke="rgb(191,191,191)" stroke-width="1" font-size="16" >H</text>
</svg>
</g>
<text font-size="18.000000" fill ="black" font-family="sans-serif"
x="10.000000" y="20.000000" ></text>
</svg>
