<?xml version="1.0"?>
<svg version="1.1" id="topsvg"
xmlns="http://www.w3.org/2000/svg" xmlns:xlink="http://www.w3.org/1999/xlink"
xmlns:cml="http://www.xml-cml.org/schema" x="0" y="0" width="200px" height="200px" viewBox="0 0 100 100">
<title> - Open Babel Depiction</title>
<rect x="0" y="0" width="100" height="100" fill="white"/>
<g transform="translate(0,0)">
<svg width="100" height="100" x="0" y="0" viewBox="0 0 387.877 438.105"
font-family="sans-serif" stroke="rgb(0,0,0)" stroke-width="2"  stroke-linecap="round">
<line x1="203.1" y1="330.3" x2="249.6" y2="317.9" stroke="rgb(0,0,0)"  stroke-width="2.0"/>
<line x1="249.6" y1="317.9" x2="237.3" y2="365.1" stroke="rgb(0,0,0)"  stroke-width="2.0"/>
<line x1="235.0" y1="170.3" x2="193.9" y2="190.9" stroke="rgb(0,0,0)"  stroke-width="2.0"/>
<polygon points="234.978195 170.327495 230.742275 122.503107 238.742178 122.463651 " stroke-width="2.000000" fill="rgb(0,0,0)"  stroke="rgb(0,0,0)" />
<line x1="267.1" y1="189.9" x2="267.9" y2="188.5" stroke="rgb(0,0,0)"  stroke-width="1.0"/>
<line x1="260.3" y1="186.7" x2="261.7" y2="184.2" stroke="rgb(0,0,0)"  stroke-width="1.0"/>
<line x1="253.4" y1="183.5" x2="255.5" y2="179.9" stroke="rgb(0,0,0)"  stroke-width="1.0"/>
<line x1="246.6" y1="180.2" x2="249.4" y2="175.5" stroke="rgb(0,0,0)"  stroke-width="1.0"/>
<line x1="239.8" y1="177.0" x2="243.2" y2="171.2" stroke="rgb(0,0,0)"  stroke-width="1.0"/>
<line x1="233.0" y1="173.8" x2="237.0" y2="166.9" stroke="rgb(0,0,0)"  stroke-width="1.0"/>
<line x1="234.7" y1="122.5" x2="193.3" y2="99.0" stroke="rgb(0,0,0)"  stroke-width="2.0"/>
<line x1="193.3" y1="99.0" x2="152.4" y2="123.4" stroke="rgb(0,0,0)"  stroke-width="2.0"/>
<line x1="110.7" y1="99.2" x2="152.4" y2="123.4" stroke="rgb(0,0,0)"  stroke-width="2.0"/>
<line x1="66.8" y1="120.2" x2="109.3" y2="96.6" stroke="rgb(0,0,0)"  stroke-width="2.0"/>
<line x1="69.7" y1="125.4" x2="112.2" y2="101.8" stroke="rgb(0,0,0)"  stroke-width="2.0"/>
<line x1="234.9" y1="74.1" x2="234.7" y2="122.5" stroke="rgb(0,0,0)"  stroke-width="2.0"/>
<line x1="267.9" y1="105.6" x2="267.1" y2="104.2" stroke="rgb(0,0,0)"  stroke-width="1.0"/>
<line x1="261.6" y1="109.7" x2="260.3" y2="107.1" stroke="rgb(0,0,0)"  stroke-width="1.0"/>
<line x1="255.4" y1="113.7" x2="253.4" y2="110.1" stroke="rgb(0,0,0)"  stroke-width="1.0"/>
<line x1="249.1" y1="117.8" x2="246.6" y2="113.0" stroke="rgb(0,0,0)"  stroke-width="1.0"/>
<line x1="242.9" y1="121.9" x2="239.7" y2="116.0" stroke="rgb(0,0,0)"  stroke-width="1.0"/>
<line x1="236.6" y1="126.0" x2="232.8" y2="119.0" stroke="rgb(0,0,0)"  stroke-width="1.0"/>
<line x1="275.7" y1="100.5" x2="283.9" y2="64.4" stroke="rgb(0,0,0)"  stroke-width="2.0"/>
<line x1="275.6" y1="194.0" x2="277.5" y2="242.0" stroke="rgb(0,0,0)"  stroke-width="2.0"/>
<line x1="233.3" y1="176.1" x2="193.9" y2="190.9" stroke="rgb(0,0,0)"  stroke-width="2.0"/>
<line x1="152.0" y1="168.5" x2="195.2" y2="188.1" stroke="rgb(0,0,0)"  stroke-width="2.0"/>
<line x1="149.5" y1="173.9" x2="192.7" y2="193.6" stroke="rgb(0,0,0)"  stroke-width="2.0"/>
<line x1="233.3" y1="207.5" x2="233.3" y2="176.1" stroke="rgb(0,0,0)"  stroke-width="2.0"/>
<line x1="299.1" y1="47.8" x2="303.8" y2="46.4" stroke="rgb(0,0,0)"  stroke-width="2.0"/>
<line x1="203.1" y1="330.3" x2="188.2" y2="315.4" stroke="rgb(0,0,0)"  stroke-width="2.0"/>
<line x1="203.1" y1="330.3" x2="197.7" y2="350.7" stroke="rgb(0,0,0)"  stroke-width="2.0"/>
<line x1="203.1" y1="330.3" x2="182.7" y2="335.8" stroke="rgb(0,0,0)"  stroke-width="2.0"/>
<line x1="299.2" y1="318.5" x2="311.6" y2="335.6" stroke="rgb(0,0,0)"  stroke-width="2.0"/>
<line x1="299.2" y1="318.5" x2="289.5" y2="337.3" stroke="rgb(0,0,0)"  stroke-width="2.0"/>
<line x1="235.0" y1="170.3" x2="217.0" y2="159.3" stroke="rgb(0,0,0)"  stroke-width="2.0"/>
<line x1="193.3" y1="99.0" x2="193.1" y2="77.9" stroke="rgb(0,0,0)"  stroke-width="2.0"/>
<line x1="193.3" y1="99.0" x2="174.9" y2="88.7" stroke="rgb(0,0,0)"  stroke-width="2.0"/>
<line x1="152.4" y1="123.4" x2="152.5" y2="144.6" stroke="rgb(0,0,0)"  stroke-width="2.0"/>
<line x1="152.4" y1="123.4" x2="134.1" y2="134.0" stroke="rgb(0,0,0)"  stroke-width="2.0"/>
<line x1="110.7" y1="99.2" x2="110.9" y2="79.3" stroke="rgb(0,0,0)"  stroke-width="2.0"/>
<line x1="68.2" y1="122.8" x2="51.1" y2="112.6" stroke="rgb(0,0,0)"  stroke-width="2.0"/>
<line x1="68.2" y1="122.8" x2="67.9" y2="142.7" stroke="rgb(0,0,0)"  stroke-width="2.0"/>
<line x1="234.9" y1="74.1" x2="253.2" y2="63.6" stroke="rgb(0,0,0)"  stroke-width="2.0"/>
<line x1="234.9" y1="74.1" x2="216.7" y2="63.5" stroke="rgb(0,0,0)"  stroke-width="2.0"/>
<line x1="234.9" y1="74.1" x2="235.0" y2="53.0" stroke="rgb(0,0,0)"  stroke-width="2.0"/>
<line x1="275.7" y1="100.5" x2="275.9" y2="121.6" stroke="rgb(0,0,0)"  stroke-width="2.0"/>
<line x1="318.2" y1="122.4" x2="336.3" y2="111.5" stroke="rgb(0,0,0)"  stroke-width="2.0"/>
<line x1="318.2" y1="122.4" x2="336.6" y2="132.8" stroke="rgb(0,0,0)"  stroke-width="2.0"/>
<line x1="317.9" y1="172.4" x2="335.9" y2="183.5" stroke="rgb(0,0,0)"  stroke-width="2.0"/>
<line x1="317.9" y1="172.4" x2="317.1" y2="193.5" stroke="rgb(0,0,0)"  stroke-width="2.0"/>
<line x1="275.6" y1="194.0" x2="257.5" y2="204.8" stroke="rgb(0,0,0)"  stroke-width="2.0"/>
<line x1="233.3" y1="176.1" x2="245.4" y2="158.8" stroke="rgb(0,0,0)"  stroke-width="2.0"/>
<line x1="233.3" y1="176.1" x2="253.5" y2="182.5" stroke="rgb(0,0,0)"  stroke-width="2.0"/>
<line x1="237.3" y1="365.1" x2="217.0" y2="370.7" stroke="rgb(0,0,0)"  stroke-width="2.0"/>
<line x1="237.3" y1="365.1" x2="252.4" y2="379.9" stroke="rgb(0,0,0)"  stroke-width="2.0"/>
<line x1="237.3" y1="365.1" x2="232.0" y2="385.5" stroke="rgb(0,0,0)"  stroke-width="2.0"/>
<line x1="150.8" y1="171.2" x2="148.8" y2="151.4" stroke="rgb(0,0,0)"  stroke-width="2.0"/>
<line x1="150.8" y1="171.2" x2="134.5" y2="182.8" stroke="rgb(0,0,0)"  stroke-width="2.0"/>
<line x1="249.3" y1="262.6" x2="277.5" y2="242.0" stroke="rgb(0,0,0)"  stroke-width="2.0"/>
<line x1="254.2" y1="268.0" x2="276.9" y2="251.4" stroke="rgb(0,0,0)"  stroke-width="2.0"/>
<line x1="277.5" y1="242.0" x2="303.7" y2="265.2" stroke="rgb(0,0,0)"  stroke-width="2.0"/>
<line x1="309.5" y1="286.3" x2="299.2" y2="318.5" stroke="rgb(0,0,0)"  stroke-width="2.0"/>
<line x1="299.2" y1="318.5" x2="249.6" y2="317.9" stroke="rgb(0,0,0)"  stroke-width="2.0"/>
<line x1="249.6" y1="317.9" x2="239.3" y2="285.2" stroke="rgb(0,0,0)"  stroke-width="2.0"/>
<line x1="235.0" y1="170.3" x2="234.7" y2="122.5" stroke="rgb(0,0,0)"  stroke-width="2.0"/>
<line x1="234.7" y1="122.5" x2="275.7" y2="100.5" stroke="rgb(0,0,0)"  stroke-width="2.0"/>
<line x1="275.7" y1="100.5" x2="318.2" y2="122.4" stroke="rgb(0,0,0)"  stroke-width="2.0"/>
<line x1="318.2" y1="122.4" x2="317.9" y2="172.4" stroke="rgb(0,0,0)"  stroke-width="2.0"/>
<line x1="317.9" y1="172.4" x2="275.6" y2="194.0" stroke="rgb(0,0,0)"  stroke-width="2.0"/>
<line x1="275.6" y1="194.0" x2="235.0" y2="170.3" stroke="rgb(0,0,0)"  stroke-width="2.0"/>
<text x="229.443753" y="280.807780" fill="rgb(12,12,255)"  stroke="rgb(12,12,255)" stroke-width="1" font-size="16" >N</text>
<text x="307.424815" y="281.876013" fill="rgb(255,12,12)"  stroke="rgb(255,12,12)" stroke-width="1" font-size="16" >O</text>
<text x="227.307286" y="228.464327" fill="rgb(191,191,191)"  stroke="rgb(191,191,191)" stroke-width="1" font-size="16" >H</text>
<text x="280.718972" y="59.686588" fill="rgb(255,12,12)"  stroke="rgb(255,12,12)" stroke-width="1" font-size="16" >O</text>
<text x="310.256432" y="50.509344" fill="rgb(191,191,191)"  stroke="rgb(191,191,191)" stroke-width="1" font-size="16" >H</text>
<text x="173.028915" y="314.167647" fill="rgb(191,191,191)"  stroke="rgb(191,191,191)" stroke-width="1" font-size="16" >H</text>
<text x="188.277229" y="371.263632" fill="rgb(191,191,191)"  stroke="rgb(191,191,191)" stroke-width="1" font-size="16" >H</text>
<text x="164.170881" y="347.117449" fill="rgb(191,191,191)"  stroke="rgb(191,191,191)" stroke-width="1" font-size="16" >H</text>
<text x="313.170425" y="354.181387" fill="rgb(191,191,191)"  stroke="rgb(191,191,191)" stroke-width="1" font-size="16" >H</text>
<text x="277.479008" y="356.791132" fill="rgb(191,191,191)"  stroke="rgb(191,191,191)" stroke-width="1" font-size="16" >H</text>
<text x="199.907319" y="160.465849" fill="rgb(191,191,191)"  stroke="rgb(191,191,191)" stroke-width="1" font-size="16" >H</text>
<text x="186.945548" y="72.909340" fill="rgb(191,191,191)"  stroke="rgb(191,191,191)" stroke-width="1" font-size="16" >H</text>
<text x="157.565804" y="90.345851" fill="rgb(191,191,191)"  stroke="rgb(191,191,191)" stroke-width="1" font-size="16" >H</text>
<text x="146.611272" y="165.555938" fill="rgb(191,191,191)"  stroke="rgb(191,191,191)" stroke-width="1" font-size="16" >H</text>
<text x="116.891046" y="148.544862" fill="rgb(191,191,191)"  stroke="rgb(191,191,191)" stroke-width="1" font-size="16" >H</text>
<text x="105.043636" y="74.315022" fill="rgb(191,191,191)"  stroke="rgb(191,191,191)" stroke-width="1" font-size="16" >H</text>
<text x="34.000000" y="113.858396" fill="rgb(191,191,191)"  stroke="rgb(191,191,191)" stroke-width="1" font-size="16" >H</text>
<text x="61.647791" y="163.702196" fill="rgb(191,191,191)"  stroke="rgb(191,191,191)" stroke-width="1" font-size="16" >H</text>
<text x="258.519195" y="65.163002" fill="rgb(191,191,191)"  stroke="rgb(191,191,191)" stroke-width="1" font-size="16" >H</text>
<text x="199.422495" y="64.956493" fill="rgb(191,191,191)"  stroke="rgb(191,191,191)" stroke-width="1" font-size="16" >H</text>
<text x="229.030459" y="48.000000" fill="rgb(191,191,191)"  stroke="rgb(191,191,191)" stroke-width="1" font-size="16" >H</text>
<text x="269.980484" y="142.589846" fill="rgb(191,191,191)"  stroke="rgb(191,191,191)" stroke-width="1" font-size="16" >H</text>
<text x="341.377779" y="112.715546" fill="rgb(191,191,191)"  stroke="rgb(191,191,191)" stroke-width="1" font-size="16" >H</text>
<text x="341.877377" y="147.220333" fill="rgb(191,191,191)"  stroke="rgb(191,191,191)" stroke-width="1" font-size="16" >H</text>
<text x="340.974904" y="198.314459" fill="rgb(191,191,191)"  stroke="rgb(191,191,191)" stroke-width="1" font-size="16" >H</text>
<text x="310.545366" y="214.501329" fill="rgb(191,191,191)"  stroke="rgb(191,191,191)" stroke-width="1" font-size="16" >H</text>
<text x="240.397750" y="219.547613" fill="rgb(191,191,191)"  stroke="rgb(191,191,191)" stroke-width="1" font-size="16" >H</text>
<text x="246.798092" y="156.107365" fill="rgb(191,191,191)"  stroke="rgb(191,191,191)" stroke-width="1" font-size="16" >H</text>
<text x="259.896388" y="194.341180" fill="rgb(191,191,191)"  stroke="rgb(191,191,191)" stroke-width="1" font-size="16" >H</text>
<text x="198.456424" y="382.157915" fill="rgb(191,191,191)"  stroke="rgb(191,191,191)" stroke-width="1" font-size="16" >H</text>
<text x="255.651156" y="397.031560" fill="rgb(191,191,191)"  stroke="rgb(191,191,191)" stroke-width="1" font-size="16" >H</text>
<text x="222.760139" y="406.105434" fill="rgb(191,191,191)"  stroke="rgb(191,191,191)" stroke-width="1" font-size="16" >H</text>
<text x="141.579529" y="146.452733" fill="rgb(191,191,191)"  stroke="rgb(191,191,191)" stroke-width="1" font-size="16" >H</text>
<text x="117.969232" y="198.331039" fill="rgb(191,191,191)"  stroke="rgb(191,191,191)" stroke-width="1" font-size="16" >H</text>
</svg>
</g>
<text font-size="18.000000" fill ="black" font-family="sans-serif"
x="10.000000" y="20.000000" ></text>
</svg>
