<?xml version="1.0"?>
<svg version="1.1" id="topsvg"
xmlns="http://www.w3.org/2000/svg" xmlns:xlink="http://www.w3.org/1999/xlink"
xmlns:cml="http://www.xml-cml.org/schema" x="0" y="0" width="200px" height="200px" viewBox="0 0 100 100">
<title> - Open Babel Depiction</title>
<rect x="0" y="0" width="100" height="100" fill="white"/>
<g transform="translate(0,0)">
<svg width="100" height="100" x="0" y="0" viewBox="0 0 330.876 343.175"
font-family="sans-serif" stroke="rgb(0,0,0)" stroke-width="2"  stroke-linecap="round">
<line x1="105.7" y1="215.1" x2="106.5" y2="260.4" stroke="rgb(0,0,0)"  stroke-width="2.0"/>
<line x1="106.5" y1="260.4" x2="91.4" y2="271.9" stroke="rgb(0,0,0)"  stroke-width="2.0"/>
<line x1="106.5" y1="260.4" x2="110.0" y2="279.0" stroke="rgb(0,0,0)"  stroke-width="2.0"/>
<line x1="66.7" y1="194.0" x2="51.4" y2="203.1" stroke="rgb(0,0,0)"  stroke-width="2.0"/>
<line x1="66.6" y1="148.0" x2="51.2" y2="139.0" stroke="rgb(0,0,0)"  stroke-width="2.0"/>
<line x1="105.4" y1="125.9" x2="59.6" y2="89.9" stroke="rgb(0,0,0)"  stroke-width="2.0"/>
<line x1="144.8" y1="148.1" x2="183.7" y2="126.3" stroke="rgb(0,0,0)"  stroke-width="2.0"/>
<line x1="145.5" y1="157.1" x2="143.9" y2="157.1" stroke="rgb(0,0,0)"  stroke-width="1.0"/>
<line x1="146.1" y1="164.3" x2="143.2" y2="164.3" stroke="rgb(0,0,0)"  stroke-width="1.0"/>
<line x1="146.6" y1="171.6" x2="142.4" y2="171.5" stroke="rgb(0,0,0)"  stroke-width="1.0"/>
<line x1="147.2" y1="178.8" x2="141.7" y2="178.7" stroke="rgb(0,0,0)"  stroke-width="1.0"/>
<line x1="147.7" y1="186.0" x2="141.0" y2="185.9" stroke="rgb(0,0,0)"  stroke-width="1.0"/>
<line x1="148.2" y1="193.3" x2="140.2" y2="193.2" stroke="rgb(0,0,0)"  stroke-width="1.0"/>
<line x1="144.8" y1="148.1" x2="144.8" y2="129.1" stroke="rgb(0,0,0)"  stroke-width="2.0"/>
<line x1="183.7" y1="126.3" x2="219.7" y2="147.3" stroke="rgb(0,0,0)"  stroke-width="2.0"/>
<line x1="183.7" y1="126.3" x2="183.8" y2="107.3" stroke="rgb(0,0,0)"  stroke-width="2.0"/>
<line x1="183.7" y1="126.3" x2="200.2" y2="116.9" stroke="rgb(0,0,0)"  stroke-width="2.0"/>
<line x1="248.8" y1="177.8" x2="260.4" y2="221.3" stroke="rgb(0,0,0)"  stroke-width="2.0"/>
<line x1="260.4" y1="221.3" x2="278.0" y2="223.7" stroke="rgb(0,0,0)"  stroke-width="2.0"/>
<line x1="147.9" y1="272.2" x2="106.5" y2="260.4" stroke="rgb(0,0,0)"  stroke-width="2.0"/>
<line x1="147.9" y1="272.2" x2="152.5" y2="290.6" stroke="rgb(0,0,0)"  stroke-width="2.0"/>
<line x1="147.9" y1="272.2" x2="161.5" y2="259.0" stroke="rgb(0,0,0)"  stroke-width="2.0"/>
<line x1="147.9" y1="272.2" x2="166.1" y2="277.4" stroke="rgb(0,0,0)"  stroke-width="2.0"/>
<line x1="235.1" y1="258.6" x2="257.8" y2="219.8" stroke="rgb(0,0,0)"  stroke-width="2.0"/>
<line x1="240.3" y1="261.6" x2="262.9" y2="222.9" stroke="rgb(0,0,0)"  stroke-width="2.0"/>
<line x1="237.7" y1="260.1" x2="248.4" y2="274.3" stroke="rgb(0,0,0)"  stroke-width="2.0"/>
<line x1="144.2" y1="193.2" x2="183.5" y2="215.5" stroke="rgb(0,0,0)"  stroke-width="2.0"/>
<polygon points="144.248384 193.212856 148.258384 214.611115 140.258385 214.614853 " stroke-width="2.000000" fill="rgb(0,0,0)"  stroke="rgb(0,0,0)" />
<line x1="193.5" y1="271.4" x2="237.7" y2="260.1" stroke="rgb(0,0,0)"  stroke-width="2.0"/>
<line x1="193.5" y1="271.4" x2="180.2" y2="257.9" stroke="rgb(0,0,0)"  stroke-width="2.0"/>
<line x1="193.5" y1="271.4" x2="188.3" y2="289.7" stroke="rgb(0,0,0)"  stroke-width="2.0"/>
<line x1="193.5" y1="271.4" x2="175.1" y2="276.1" stroke="rgb(0,0,0)"  stroke-width="2.0"/>
<line x1="235.2" y1="70.9" x2="243.9" y2="104.3" stroke="rgb(0,0,0)"  stroke-width="2.0"/>
<line x1="235.2" y1="70.9" x2="248.7" y2="57.6" stroke="rgb(0,0,0)"  stroke-width="2.0"/>
<line x1="235.2" y1="70.9" x2="217.0" y2="65.9" stroke="rgb(0,0,0)"  stroke-width="2.0"/>
<line x1="235.2" y1="70.9" x2="230.5" y2="52.6" stroke="rgb(0,0,0)"  stroke-width="2.0"/>
<line x1="182.0" y1="212.9" x2="221.8" y2="190.1" stroke="rgb(0,0,0)"  stroke-width="2.0"/>
<line x1="185.0" y1="218.1" x2="224.8" y2="195.3" stroke="rgb(0,0,0)"  stroke-width="2.0"/>
<line x1="183.5" y1="215.5" x2="183.6" y2="233.3" stroke="rgb(0,0,0)"  stroke-width="2.0"/>
<line x1="223.3" y1="192.7" x2="238.7" y2="201.6" stroke="rgb(0,0,0)"  stroke-width="2.0"/>
<line x1="223.3" y1="192.7" x2="223.3" y2="174.9" stroke="rgb(0,0,0)"  stroke-width="2.0"/>
<line x1="248.8" y1="177.8" x2="278.5" y2="156.2" stroke="rgb(0,0,0)"  stroke-width="2.0"/>
<line x1="276.0" y1="148.3" x2="219.7" y2="147.3" stroke="rgb(0,0,0)"  stroke-width="2.0"/>
<line x1="219.7" y1="147.3" x2="248.8" y2="177.8" stroke="rgb(0,0,0)"  stroke-width="2.0"/>
<line x1="229.0" y1="146.6" x2="249.9" y2="168.5" stroke="rgb(0,0,0)"  stroke-width="2.0"/>
<line x1="257.5" y1="124.7" x2="278.6" y2="140.7" stroke="rgb(0,0,0)"  stroke-width="2.0"/>
<line x1="219.7" y1="147.3" x2="238.4" y2="126.5" stroke="rgb(0,0,0)"  stroke-width="2.0"/>
<line x1="247.5" y1="129.9" x2="248.8" y2="177.8" stroke="rgb(0,0,0)"  stroke-width="2.0"/>
<line x1="66.6" y1="148.0" x2="66.7" y2="194.0" stroke="rgb(0,0,0)"  stroke-width="2.0"/>
<line x1="66.7" y1="194.0" x2="105.7" y2="215.1" stroke="rgb(0,0,0)"  stroke-width="2.0"/>
<line x1="75.4" y1="190.5" x2="103.9" y2="205.9" stroke="rgb(0,0,0)"  stroke-width="2.0"/>
<line x1="105.7" y1="215.1" x2="144.2" y2="193.2" stroke="rgb(0,0,0)"  stroke-width="2.0"/>
<line x1="144.2" y1="193.2" x2="144.8" y2="148.1" stroke="rgb(0,0,0)"  stroke-width="2.0"/>
<line x1="144.8" y1="148.1" x2="105.4" y2="125.9" stroke="rgb(0,0,0)"  stroke-width="2.0"/>
<line x1="105.4" y1="125.9" x2="66.6" y2="148.0" stroke="rgb(0,0,0)"  stroke-width="2.0"/>
<line x1="103.8" y1="135.2" x2="75.4" y2="151.3" stroke="rgb(0,0,0)"  stroke-width="2.0"/>
<text x="31.373190" y="89.842041" fill="rgb(17,127,178)"  stroke="rgb(17,127,178)" stroke-width="1" font-size="16" >Xx</text>
<text x="282.992533" y="156.529007" fill="rgb(239,142,160)"  stroke="rgb(239,142,160)" stroke-width="1" font-size="16" >Co</text>
<text x="229.171387" y="124.881056" fill="rgb(239,142,160)"  stroke="rgb(239,142,160)" stroke-width="1" font-size="16" >Co</text>
<text x="75.122634" y="287.807403" fill="rgb(191,191,191)"  stroke="rgb(191,191,191)" stroke-width="1" font-size="16" >H</text>
<text x="106.439239" y="299.741803" fill="rgb(191,191,191)"  stroke="rgb(191,191,191)" stroke-width="1" font-size="16" >H</text>
<text x="34.262688" y="217.771164" fill="rgb(191,191,191)"  stroke="rgb(191,191,191)" stroke-width="1" font-size="16" >H</text>
<text x="34.000000" y="140.487120" fill="rgb(191,191,191)"  stroke="rgb(191,191,191)" stroke-width="1" font-size="16" >H</text>
<text x="138.827492" y="124.140753" fill="rgb(191,191,191)"  stroke="rgb(191,191,191)" stroke-width="1" font-size="16" >H</text>
<text x="177.956084" y="102.322713" fill="rgb(191,191,191)"  stroke="rgb(191,191,191)" stroke-width="1" font-size="16" >H</text>
<text x="205.451771" y="118.475048" fill="rgb(191,191,191)"  stroke="rgb(191,191,191)" stroke-width="1" font-size="16" >H</text>
<text x="284.876126" y="233.478720" fill="rgb(191,191,191)"  stroke="rgb(191,191,191)" stroke-width="1" font-size="16" >H</text>
<text x="149.660393" y="311.174707" fill="rgb(191,191,191)"  stroke="rgb(191,191,191)" stroke-width="1" font-size="16" >H</text>
<text x="164.845558" y="257.977374" fill="rgb(191,191,191)"  stroke="rgb(191,191,191)" stroke-width="1" font-size="16" >H</text>
<text x="172.609783" y="288.959649" fill="rgb(191,191,191)"  stroke="rgb(191,191,191)" stroke-width="1" font-size="16" >H</text>
<text x="250.272934" y="292.726835" fill="rgb(191,191,191)"  stroke="rgb(191,191,191)" stroke-width="1" font-size="16" >H</text>
<text x="138.263310" y="233.153345" fill="rgb(191,191,191)"  stroke="rgb(191,191,191)" stroke-width="1" font-size="16" >H</text>
<text x="165.135112" y="256.601246" fill="rgb(191,191,191)"  stroke="rgb(191,191,191)" stroke-width="1" font-size="16" >H</text>
<text x="178.833701" y="310.201567" fill="rgb(191,191,191)"  stroke="rgb(191,191,191)" stroke-width="1" font-size="16" >H</text>
<text x="156.511180" y="287.353669" fill="rgb(191,191,191)"  stroke="rgb(191,191,191)" stroke-width="1" font-size="16" >H</text>
<text x="251.998318" y="56.507514" fill="rgb(191,191,191)"  stroke="rgb(191,191,191)" stroke-width="1" font-size="16" >H</text>
<text x="198.448744" y="70.409089" fill="rgb(191,191,191)"  stroke="rgb(191,191,191)" stroke-width="1" font-size="16" >H</text>
<text x="221.210074" y="48.000000" fill="rgb(191,191,191)"  stroke="rgb(191,191,191)" stroke-width="1" font-size="16" >H</text>
<text x="177.579962" y="254.311681" fill="rgb(191,191,191)"  stroke="rgb(191,191,191)" stroke-width="1" font-size="16" >H</text>
<text x="243.902747" y="216.177124" fill="rgb(191,191,191)"  stroke="rgb(191,191,191)" stroke-width="1" font-size="16" >H</text>
<text x="217.353334" y="169.893266" fill="rgb(191,191,191)"  stroke="rgb(191,191,191)" stroke-width="1" font-size="16" >H</text>
</svg>
</g>
<text font-size="18.000000" fill ="black" font-family="sans-serif"
x="10.000000" y="20.000000" ></text>
</svg>
