<?xml version="1.0"?>
<svg version="1.1" id="topsvg"
xmlns="http://www.w3.org/2000/svg" xmlns:xlink="http://www.w3.org/1999/xlink"
xmlns:cml="http://www.xml-cml.org/schema" x="0" y="0" width="200px" height="200px" viewBox="0 0 100 100">
<title> - Open Babel Depiction</title>
<rect x="0" y="0" width="100" height="100" fill="white"/>
<g transform="translate(0,0)">
<svg width="100" height="100" x="0" y="0" viewBox="0 0 387.601 326.463"
font-family="sans-serif" stroke="rgb(0,0,0)" stroke-width="2"  stroke-linecap="round">
<line x1="317.3" y1="250.3" x2="275.8" y2="231.5" stroke="rgb(0,0,0)"  stroke-width="2.0"/>
<line x1="330.5" y1="268.6" x2="330.9" y2="273.5" stroke="rgb(0,0,0)"  stroke-width="2.0"/>
<line x1="275.8" y1="231.5" x2="257.9" y2="242.8" stroke="rgb(0,0,0)"  stroke-width="2.0"/>
<line x1="275.8" y1="231.5" x2="257.4" y2="221.1" stroke="rgb(0,0,0)"  stroke-width="2.0"/>
<line x1="234.7" y1="160.3" x2="194.4" y2="178.7" stroke="rgb(0,0,0)"  stroke-width="2.0"/>
<polygon points="234.652304 160.320713 231.568525 111.755183 239.567099 111.906199 " stroke-width="2.000000" fill="rgb(0,0,0)"  stroke="rgb(0,0,0)" />
<line x1="234.7" y1="160.3" x2="217.0" y2="148.7" stroke="rgb(0,0,0)"  stroke-width="2.0"/>
<line x1="194.4" y1="178.7" x2="194.3" y2="198.6" stroke="rgb(0,0,0)"  stroke-width="2.0"/>
<line x1="235.6" y1="111.8" x2="194.3" y2="87.3" stroke="rgb(0,0,0)"  stroke-width="2.0"/>
<polygon points="235.567812 111.830691 217.529268 126.444087 213.639808 119.453228 " stroke-width="2.000000" fill="rgb(0,0,0)"  stroke="rgb(0,0,0)" />
<line x1="280.3" y1="52.8" x2="282.2" y2="88.2" stroke="rgb(0,0,0)"  stroke-width="2.0"/>
<line x1="274.3" y1="53.1" x2="276.2" y2="88.5" stroke="rgb(0,0,0)"  stroke-width="2.0"/>
<line x1="317.9" y1="111.9" x2="336.3" y2="101.5" stroke="rgb(0,0,0)"  stroke-width="2.0"/>
<line x1="317.9" y1="111.9" x2="336.2" y2="122.5" stroke="rgb(0,0,0)"  stroke-width="2.0"/>
<line x1="318.2" y1="160.6" x2="336.4" y2="171.3" stroke="rgb(0,0,0)"  stroke-width="2.0"/>
<line x1="318.2" y1="160.6" x2="317.9" y2="181.8" stroke="rgb(0,0,0)"  stroke-width="2.0"/>
<line x1="268.0" y1="179.4" x2="268.8" y2="178.0" stroke="rgb(0,0,0)"  stroke-width="1.0"/>
<line x1="261.0" y1="176.3" x2="262.3" y2="173.8" stroke="rgb(0,0,0)"  stroke-width="1.0"/>
<line x1="253.9" y1="173.2" x2="255.9" y2="169.5" stroke="rgb(0,0,0)"  stroke-width="1.0"/>
<line x1="246.9" y1="170.1" x2="249.5" y2="165.3" stroke="rgb(0,0,0)"  stroke-width="1.0"/>
<line x1="239.8" y1="166.9" x2="243.0" y2="161.0" stroke="rgb(0,0,0)"  stroke-width="1.0"/>
<line x1="232.7" y1="163.8" x2="236.6" y2="156.8" stroke="rgb(0,0,0)"  stroke-width="1.0"/>
<line x1="276.8" y1="183.3" x2="275.8" y2="231.5" stroke="rgb(0,0,0)"  stroke-width="2.0"/>
<line x1="276.8" y1="183.3" x2="258.6" y2="193.9" stroke="rgb(0,0,0)"  stroke-width="2.0"/>
<line x1="67.0" y1="109.9" x2="110.0" y2="85.1" stroke="rgb(0,0,0)"  stroke-width="2.0"/>
<line x1="70.0" y1="115.1" x2="113.0" y2="90.3" stroke="rgb(0,0,0)"  stroke-width="2.0"/>
<line x1="68.5" y1="112.5" x2="51.2" y2="102.5" stroke="rgb(0,0,0)"  stroke-width="2.0"/>
<line x1="68.5" y1="112.5" x2="68.4" y2="132.4" stroke="rgb(0,0,0)"  stroke-width="2.0"/>
<line x1="111.5" y1="87.7" x2="152.5" y2="111.4" stroke="rgb(0,0,0)"  stroke-width="2.0"/>
<line x1="111.5" y1="87.7" x2="111.5" y2="67.8" stroke="rgb(0,0,0)"  stroke-width="2.0"/>
<line x1="152.5" y1="111.4" x2="194.3" y2="87.3" stroke="rgb(0,0,0)"  stroke-width="2.0"/>
<line x1="152.5" y1="111.4" x2="152.5" y2="132.5" stroke="rgb(0,0,0)"  stroke-width="2.0"/>
<line x1="152.5" y1="111.4" x2="170.8" y2="122.0" stroke="rgb(0,0,0)"  stroke-width="2.0"/>
<line x1="194.3" y1="87.3" x2="194.5" y2="66.2" stroke="rgb(0,0,0)"  stroke-width="2.0"/>
<line x1="194.3" y1="87.3" x2="176.1" y2="76.7" stroke="rgb(0,0,0)"  stroke-width="2.0"/>
<line x1="152.3" y1="155.6" x2="195.7" y2="175.9" stroke="rgb(0,0,0)"  stroke-width="2.0"/>
<line x1="149.8" y1="161.1" x2="193.1" y2="181.4" stroke="rgb(0,0,0)"  stroke-width="2.0"/>
<line x1="151.0" y1="158.3" x2="149.3" y2="138.5" stroke="rgb(0,0,0)"  stroke-width="2.0"/>
<line x1="151.0" y1="158.3" x2="134.7" y2="169.8" stroke="rgb(0,0,0)"  stroke-width="2.0"/>
<line x1="235.6" y1="111.8" x2="279.2" y2="88.3" stroke="rgb(0,0,0)"  stroke-width="2.0"/>
<line x1="279.2" y1="88.3" x2="317.9" y2="111.9" stroke="rgb(0,0,0)"  stroke-width="2.0"/>
<line x1="317.9" y1="111.9" x2="318.2" y2="160.6" stroke="rgb(0,0,0)"  stroke-width="2.0"/>
<line x1="318.2" y1="160.6" x2="276.8" y2="183.3" stroke="rgb(0,0,0)"  stroke-width="2.0"/>
<line x1="276.8" y1="183.3" x2="234.7" y2="160.3" stroke="rgb(0,0,0)"  stroke-width="2.0"/>
<line x1="234.7" y1="160.3" x2="235.6" y2="111.8" stroke="rgb(0,0,0)"  stroke-width="2.0"/>
<text x="323.179299" y="263.670708" fill="rgb(255,12,12)"  stroke="rgb(255,12,12)" stroke-width="1" font-size="16" >O</text>
<text x="270.654023" y="48.000000" fill="rgb(255,12,12)"  stroke="rgb(255,12,12)" stroke-width="1" font-size="16" >O</text>
<text x="326.228865" y="294.463037" fill="rgb(191,191,191)"  stroke="rgb(191,191,191)" stroke-width="1" font-size="16" >H</text>
<text x="240.892039" y="257.695982" fill="rgb(191,191,191)"  stroke="rgb(191,191,191)" stroke-width="1" font-size="16" >H</text>
<text x="240.081799" y="222.683385" fill="rgb(191,191,191)"  stroke="rgb(191,191,191)" stroke-width="1" font-size="16" >H</text>
<text x="200.121631" y="149.583105" fill="rgb(191,191,191)"  stroke="rgb(191,191,191)" stroke-width="1" font-size="16" >H</text>
<text x="188.239167" y="219.573210" fill="rgb(191,191,191)"  stroke="rgb(191,191,191)" stroke-width="1" font-size="16" >H</text>
<text x="199.742030" y="136.424671" fill="rgb(191,191,191)"  stroke="rgb(191,191,191)" stroke-width="1" font-size="16" >H</text>
<text x="341.601105" y="103.109113" fill="rgb(191,191,191)"  stroke="rgb(191,191,191)" stroke-width="1" font-size="16" >H</text>
<text x="341.419279" y="137.021187" fill="rgb(191,191,191)"  stroke="rgb(191,191,191)" stroke-width="1" font-size="16" >H</text>
<text x="341.591535" y="185.932280" fill="rgb(191,191,191)"  stroke="rgb(191,191,191)" stroke-width="1" font-size="16" >H</text>
<text x="311.657296" y="202.755935" fill="rgb(191,191,191)"  stroke="rgb(191,191,191)" stroke-width="1" font-size="16" >H</text>
<text x="241.309919" y="208.398909" fill="rgb(191,191,191)"  stroke="rgb(191,191,191)" stroke-width="1" font-size="16" >H</text>
<text x="34.000000" y="103.928924" fill="rgb(191,191,191)"  stroke="rgb(191,191,191)" stroke-width="1" font-size="16" >H</text>
<text x="62.399886" y="153.372733" fill="rgb(191,191,191)"  stroke="rgb(191,191,191)" stroke-width="1" font-size="16" >H</text>
<text x="105.530838" y="62.820383" fill="rgb(191,191,191)"  stroke="rgb(191,191,191)" stroke-width="1" font-size="16" >H</text>
<text x="146.460743" y="153.519470" fill="rgb(191,191,191)"  stroke="rgb(191,191,191)" stroke-width="1" font-size="16" >H</text>
<text x="176.021761" y="136.478900" fill="rgb(191,191,191)"  stroke="rgb(191,191,191)" stroke-width="1" font-size="16" >H</text>
<text x="188.561349" y="61.164813" fill="rgb(191,191,191)"  stroke="rgb(191,191,191)" stroke-width="1" font-size="16" >H</text>
<text x="158.831265" y="78.109685" fill="rgb(191,191,191)"  stroke="rgb(191,191,191)" stroke-width="1" font-size="16" >H</text>
<text x="142.221335" y="133.550551" fill="rgb(191,191,191)"  stroke="rgb(191,191,191)" stroke-width="1" font-size="16" >H</text>
<text x="118.044907" y="185.192217" fill="rgb(191,191,191)"  stroke="rgb(191,191,191)" stroke-width="1" font-size="16" >H</text>
</svg>
</g>
<text font-size="18.000000" fill ="black" font-family="sans-serif"
x="10.000000" y="20.000000" ></text>
</svg>
