<?xml version="1.0"?>
<svg version="1.1" id="topsvg"
xmlns="http://www.w3.org/2000/svg" xmlns:xlink="http://www.w3.org/1999/xlink"
xmlns:cml="http://www.xml-cml.org/schema" x="0" y="0" width="200px" height="200px" viewBox="0 0 100 100">
<title> - Open Babel Depiction</title>
<rect x="0" y="0" width="100" height="100" fill="white"/>
<g transform="translate(0,0)">
<svg width="100" height="100" x="0" y="0" viewBox="0 0 423.645 420.791"
font-family="sans-serif" stroke="rgb(0,0,0)" stroke-width="2"  stroke-linecap="round">
<line x1="193.2" y1="156.9" x2="234.7" y2="181.7" stroke="rgb(0,0,0)"  stroke-width="2.0"/>
<line x1="234.7" y1="181.7" x2="235.4" y2="228.3" stroke="rgb(0,0,0)"  stroke-width="2.0"/>
<line x1="154.2" y1="52.9" x2="155.3" y2="87.9" stroke="rgb(0,0,0)"  stroke-width="2.0"/>
<line x1="148.2" y1="53.1" x2="149.3" y2="88.1" stroke="rgb(0,0,0)"  stroke-width="2.0"/>
<line x1="235.4" y1="228.3" x2="234.9" y2="294.0" stroke="rgb(0,0,0)"  stroke-width="2.0"/>
<line x1="239.6" y1="228.3" x2="239.1" y2="294.0" stroke="rgb(0,0,0)"  stroke-width="2.0"/>
<line x1="231.2" y1="228.2" x2="230.7" y2="294.0" stroke="rgb(0,0,0)"  stroke-width="2.0"/>
<line x1="234.9" y1="294.0" x2="234.6" y2="323.9" stroke="rgb(0,0,0)"  stroke-width="2.0"/>
<line x1="356.5" y1="300.8" x2="314.6" y2="325.0" stroke="rgb(0,0,0)"  stroke-width="2.0"/>
<line x1="358.6" y1="304.4" x2="316.7" y2="328.6" stroke="rgb(0,0,0)"  stroke-width="2.0"/>
<line x1="354.4" y1="297.1" x2="312.5" y2="321.4" stroke="rgb(0,0,0)"  stroke-width="2.0"/>
<line x1="236.2" y1="321.4" x2="276.0" y2="345.7" stroke="rgb(0,0,0)"  stroke-width="2.0"/>
<line x1="233.1" y1="326.5" x2="272.9" y2="350.8" stroke="rgb(0,0,0)"  stroke-width="2.0"/>
<line x1="274.5" y1="348.3" x2="314.6" y2="325.0" stroke="rgb(0,0,0)"  stroke-width="2.0"/>
<line x1="185.4" y1="162.1" x2="184.6" y2="160.7" stroke="rgb(0,0,0)"  stroke-width="1.0"/>
<line x1="179.1" y1="166.2" x2="177.7" y2="163.7" stroke="rgb(0,0,0)"  stroke-width="1.0"/>
<line x1="172.9" y1="170.4" x2="170.9" y2="166.7" stroke="rgb(0,0,0)"  stroke-width="1.0"/>
<line x1="166.6" y1="174.5" x2="164.0" y2="169.7" stroke="rgb(0,0,0)"  stroke-width="1.0"/>
<line x1="160.3" y1="178.7" x2="157.1" y2="172.8" stroke="rgb(0,0,0)"  stroke-width="1.0"/>
<line x1="154.1" y1="182.8" x2="150.2" y2="175.8" stroke="rgb(0,0,0)"  stroke-width="1.0"/>
<line x1="152.2" y1="179.3" x2="152.4" y2="232.1" stroke="rgb(0,0,0)"  stroke-width="2.0"/>
<line x1="69.5" y1="324.1" x2="110.7" y2="299.4" stroke="rgb(0,0,0)"  stroke-width="2.0"/>
<line x1="107.7" y1="299.3" x2="108.5" y2="252.9" stroke="rgb(0,0,0)"  stroke-width="2.0"/>
<line x1="113.7" y1="299.4" x2="114.5" y2="253.0" stroke="rgb(0,0,0)"  stroke-width="2.0"/>
<line x1="111.5" y1="253.0" x2="152.4" y2="232.1" stroke="rgb(0,0,0)"  stroke-width="2.0"/>
<line x1="193.2" y1="156.9" x2="211.2" y2="146.6" stroke="rgb(0,0,0)"  stroke-width="2.0"/>
<line x1="234.7" y1="181.7" x2="252.6" y2="171.3" stroke="rgb(0,0,0)"  stroke-width="2.0"/>
<line x1="234.7" y1="181.7" x2="252.7" y2="191.9" stroke="rgb(0,0,0)"  stroke-width="2.0"/>
<line x1="111.3" y1="158.1" x2="93.5" y2="168.7" stroke="rgb(0,0,0)"  stroke-width="2.0"/>
<line x1="111.3" y1="158.1" x2="111.9" y2="178.8" stroke="rgb(0,0,0)"  stroke-width="2.0"/>
<line x1="112.2" y1="110.4" x2="94.4" y2="99.8" stroke="rgb(0,0,0)"  stroke-width="2.0"/>
<line x1="112.2" y1="110.4" x2="112.5" y2="89.7" stroke="rgb(0,0,0)"  stroke-width="2.0"/>
<line x1="356.5" y1="300.8" x2="372.4" y2="291.6" stroke="rgb(0,0,0)"  stroke-width="2.0"/>
<line x1="234.6" y1="323.9" x2="217.6" y2="333.4" stroke="rgb(0,0,0)"  stroke-width="2.0"/>
<line x1="274.5" y1="348.3" x2="274.3" y2="367.8" stroke="rgb(0,0,0)"  stroke-width="2.0"/>
<line x1="193.0" y1="110.7" x2="210.8" y2="100.2" stroke="rgb(0,0,0)"  stroke-width="2.0"/>
<line x1="193.0" y1="110.7" x2="192.7" y2="90.0" stroke="rgb(0,0,0)"  stroke-width="2.0"/>
<polygon points="152.152369 179.304657 173.657995 187.338919 169.595363 194.230582 " stroke-width="2.000000" fill="rgb(0,0,0)"  stroke="rgb(0,0,0)" />
<line x1="69.5" y1="324.1" x2="51.4" y2="314.1" stroke="rgb(0,0,0)"  stroke-width="2.0"/>
<line x1="69.5" y1="324.1" x2="69.9" y2="344.9" stroke="rgb(0,0,0)"  stroke-width="2.0"/>
<line x1="69.5" y1="324.1" x2="51.8" y2="334.8" stroke="rgb(0,0,0)"  stroke-width="2.0"/>
<line x1="110.7" y1="299.4" x2="127.6" y2="309.1" stroke="rgb(0,0,0)"  stroke-width="2.0"/>
<line x1="111.5" y1="253.0" x2="94.9" y2="242.6" stroke="rgb(0,0,0)"  stroke-width="2.0"/>
<line x1="152.4" y1="232.1" x2="170.2" y2="242.8" stroke="rgb(0,0,0)"  stroke-width="2.0"/>
<line x1="152.4" y1="232.1" x2="151.7" y2="252.8" stroke="rgb(0,0,0)"  stroke-width="2.0"/>
<line x1="111.3" y1="158.1" x2="152.2" y2="179.3" stroke="rgb(0,0,0)"  stroke-width="2.0"/>
<line x1="152.2" y1="179.3" x2="193.2" y2="156.9" stroke="rgb(0,0,0)"  stroke-width="2.0"/>
<line x1="193.2" y1="156.9" x2="193.0" y2="110.7" stroke="rgb(0,0,0)"  stroke-width="2.0"/>
<line x1="193.0" y1="110.7" x2="152.3" y2="88.0" stroke="rgb(0,0,0)"  stroke-width="2.0"/>
<line x1="152.3" y1="88.0" x2="112.2" y2="110.4" stroke="rgb(0,0,0)"  stroke-width="2.0"/>
<line x1="112.2" y1="110.4" x2="111.3" y2="158.1" stroke="rgb(0,0,0)"  stroke-width="2.0"/>
<text x="144.780671" y="48.000000" fill="rgb(255,12,12)"  stroke="rgb(255,12,12)" stroke-width="1" font-size="16" >O</text>
<text x="216.522735" y="148.151580" fill="rgb(191,191,191)"  stroke="rgb(191,191,191)" stroke-width="1" font-size="16" >H</text>
<text x="257.903024" y="172.788644" fill="rgb(191,191,191)"  stroke="rgb(191,191,191)" stroke-width="1" font-size="16" >H</text>
<text x="258.051042" y="206.298246" fill="rgb(191,191,191)"  stroke="rgb(191,191,191)" stroke-width="1" font-size="16" >H</text>
<text x="76.316038" y="183.322414" fill="rgb(191,191,191)"  stroke="rgb(191,191,191)" stroke-width="1" font-size="16" >H</text>
<text x="106.281009" y="199.809685" fill="rgb(191,191,191)"  stroke="rgb(191,191,191)" stroke-width="1" font-size="16" >H</text>
<text x="77.269789" y="101.087173" fill="rgb(191,191,191)"  stroke="rgb(191,191,191)" stroke-width="1" font-size="16" >H</text>
<text x="106.696687" y="84.676570" fill="rgb(191,191,191)"  stroke="rgb(191,191,191)" stroke-width="1" font-size="16" >H</text>
<text x="377.645457" y="293.050226" fill="rgb(191,191,191)"  stroke="rgb(191,191,191)" stroke-width="1" font-size="16" >H</text>
<text x="200.203168" y="347.733896" fill="rgb(191,191,191)"  stroke="rgb(191,191,191)" stroke-width="1" font-size="16" >H</text>
<text x="268.097878" y="388.790742" fill="rgb(191,191,191)"  stroke="rgb(191,191,191)" stroke-width="1" font-size="16" >H</text>
<text x="216.031423" y="101.565005" fill="rgb(191,191,191)"  stroke="rgb(191,191,191)" stroke-width="1" font-size="16" >H</text>
<text x="186.575610" y="84.978315" fill="rgb(191,191,191)"  stroke="rgb(191,191,191)" stroke-width="1" font-size="16" >H</text>
<text x="175.218503" y="204.439125" fill="rgb(191,191,191)"  stroke="rgb(191,191,191)" stroke-width="1" font-size="16" >H</text>
<text x="34.000000" y="315.792052" fill="rgb(191,191,191)"  stroke="rgb(191,191,191)" stroke-width="1" font-size="16" >H</text>
<text x="64.136733" y="365.862680" fill="rgb(191,191,191)"  stroke="rgb(191,191,191)" stroke-width="1" font-size="16" >H</text>
<text x="34.614222" y="349.527092" fill="rgb(191,191,191)"  stroke="rgb(191,191,191)" stroke-width="1" font-size="16" >H</text>
<text x="132.871788" y="323.617579" fill="rgb(191,191,191)"  stroke="rgb(191,191,191)" stroke-width="1" font-size="16" >H</text>
<text x="77.906877" y="243.743703" fill="rgb(191,191,191)"  stroke="rgb(191,191,191)" stroke-width="1" font-size="16" >H</text>
<text x="175.274316" y="257.584588" fill="rgb(191,191,191)"  stroke="rgb(191,191,191)" stroke-width="1" font-size="16" >H</text>
<text x="145.200063" y="273.771192" fill="rgb(191,191,191)"  stroke="rgb(191,191,191)" stroke-width="1" font-size="16" >H</text>
</svg>
</g>
<text font-size="18.000000" fill ="black" font-family="sans-serif"
x="10.000000" y="20.000000" ></text>
</svg>
