<?xml version="1.0"?>
<svg version="1.1" id="topsvg"
xmlns="http://www.w3.org/2000/svg" xmlns:xlink="http://www.w3.org/1999/xlink"
xmlns:cml="http://www.xml-cml.org/schema" x="0" y="0" width="200px" height="200px" viewBox="0 0 100 100">
<title> - Open Babel Depiction</title>
<rect x="0" y="0" width="100" height="100" fill="white"/>
<g transform="translate(0,0)">
<svg width="100" height="100" x="0" y="0" viewBox="0 0 301.5 339.584"
font-family="sans-serif" stroke="rgb(0,0,0)" stroke-width="2"  stroke-linecap="round">
<line x1="191.2" y1="243.6" x2="231.1" y2="263.3" stroke="rgb(0,0,0)"  stroke-width="2.0"/>
<line x1="243.6" y1="282.1" x2="243.9" y2="286.6" stroke="rgb(0,0,0)"  stroke-width="2.0"/>
<line x1="192.5" y1="103.1" x2="200.1" y2="68.9" stroke="rgb(0,0,0)"  stroke-width="2.0"/>
<polygon points="192.529351 103.110401 153.936372 128.245145 150.169157 121.187660 " stroke-width="2.000000" fill="rgb(0,0,0)"  stroke="rgb(0,0,0)" />
<line x1="215.3" y1="52.2" x2="219.6" y2="50.9" stroke="rgb(0,0,0)"  stroke-width="2.0"/>
<line x1="183.3" y1="192.1" x2="184.1" y2="190.7" stroke="rgb(0,0,0)"  stroke-width="1.0"/>
<line x1="177.0" y1="189.5" x2="178.3" y2="186.9" stroke="rgb(0,0,0)"  stroke-width="1.0"/>
<line x1="170.6" y1="186.9" x2="172.5" y2="183.2" stroke="rgb(0,0,0)"  stroke-width="1.0"/>
<line x1="164.2" y1="184.2" x2="166.8" y2="179.4" stroke="rgb(0,0,0)"  stroke-width="1.0"/>
<line x1="157.9" y1="181.6" x2="161.0" y2="175.7" stroke="rgb(0,0,0)"  stroke-width="1.0"/>
<line x1="151.5" y1="179.0" x2="155.2" y2="171.9" stroke="rgb(0,0,0)"  stroke-width="1.0"/>
<line x1="191.3" y1="195.3" x2="191.2" y2="243.6" stroke="rgb(0,0,0)"  stroke-width="2.0"/>
<line x1="153.1" y1="134.8" x2="151.5" y2="134.9" stroke="rgb(0,0,0)"  stroke-width="1.0"/>
<line x1="154.0" y1="143.0" x2="151.1" y2="143.0" stroke="rgb(0,0,0)"  stroke-width="1.0"/>
<line x1="154.8" y1="151.1" x2="150.6" y2="151.2" stroke="rgb(0,0,0)"  stroke-width="1.0"/>
<line x1="155.7" y1="159.2" x2="150.2" y2="159.3" stroke="rgb(0,0,0)"  stroke-width="1.0"/>
<line x1="156.5" y1="167.3" x2="149.8" y2="167.4" stroke="rgb(0,0,0)"  stroke-width="1.0"/>
<line x1="157.3" y1="175.4" x2="149.3" y2="175.6" stroke="rgb(0,0,0)"  stroke-width="1.0"/>
<line x1="152.1" y1="124.7" x2="149.5" y2="73.7" stroke="rgb(0,0,0)"  stroke-width="2.0"/>
<line x1="153.6" y1="181.7" x2="152.1" y2="181.6" stroke="rgb(0,0,0)"  stroke-width="1.0"/>
<line x1="153.9" y1="186.8" x2="151.0" y2="186.5" stroke="rgb(0,0,0)"  stroke-width="1.0"/>
<line x1="154.1" y1="191.8" x2="150.0" y2="191.4" stroke="rgb(0,0,0)"  stroke-width="1.0"/>
<line x1="154.4" y1="196.8" x2="148.9" y2="196.3" stroke="rgb(0,0,0)"  stroke-width="1.0"/>
<line x1="154.6" y1="201.8" x2="147.9" y2="201.2" stroke="rgb(0,0,0)"  stroke-width="1.0"/>
<line x1="154.9" y1="206.8" x2="146.9" y2="206.1" stroke="rgb(0,0,0)"  stroke-width="1.0"/>
<line x1="191.2" y1="243.6" x2="173.6" y2="254.5" stroke="rgb(0,0,0)"  stroke-width="2.0"/>
<line x1="191.2" y1="243.6" x2="173.1" y2="233.5" stroke="rgb(0,0,0)"  stroke-width="2.0"/>
<line x1="68.9" y1="125.9" x2="51.1" y2="115.2" stroke="rgb(0,0,0)"  stroke-width="2.0"/>
<line x1="68.9" y1="125.9" x2="69.4" y2="105.1" stroke="rgb(0,0,0)"  stroke-width="2.0"/>
<line x1="68.6" y1="174.6" x2="51.8" y2="184.4" stroke="rgb(0,0,0)"  stroke-width="2.0"/>
<line x1="109.9" y1="103.6" x2="109.6" y2="82.9" stroke="rgb(0,0,0)"  stroke-width="2.0"/>
<line x1="109.9" y1="103.6" x2="127.5" y2="92.6" stroke="rgb(0,0,0)"  stroke-width="2.0"/>
<line x1="192.5" y1="103.1" x2="176.0" y2="90.6" stroke="rgb(0,0,0)"  stroke-width="2.0"/>
<line x1="231.0" y1="127.6" x2="249.0" y2="117.4" stroke="rgb(0,0,0)"  stroke-width="2.0"/>
<line x1="231.0" y1="127.6" x2="231.5" y2="106.9" stroke="rgb(0,0,0)"  stroke-width="2.0"/>
<line x1="232.5" y1="174.7" x2="250.3" y2="185.3" stroke="rgb(0,0,0)"  stroke-width="2.0"/>
<line x1="232.5" y1="174.7" x2="231.8" y2="195.4" stroke="rgb(0,0,0)"  stroke-width="2.0"/>
<line x1="191.3" y1="195.3" x2="191.5" y2="174.6" stroke="rgb(0,0,0)"  stroke-width="2.0"/>
<line x1="109.7" y1="197.4" x2="109.3" y2="216.9" stroke="rgb(0,0,0)"  stroke-width="2.0"/>
<line x1="149.5" y1="73.7" x2="166.8" y2="62.4" stroke="rgb(0,0,0)"  stroke-width="2.0"/>
<line x1="149.5" y1="73.7" x2="131.0" y2="64.2" stroke="rgb(0,0,0)"  stroke-width="2.0"/>
<line x1="149.5" y1="73.7" x2="148.4" y2="53.0" stroke="rgb(0,0,0)"  stroke-width="2.0"/>
<line x1="68.9" y1="125.9" x2="109.9" y2="103.6" stroke="rgb(0,0,0)"  stroke-width="2.0"/>
<line x1="109.9" y1="103.6" x2="152.1" y2="124.7" stroke="rgb(0,0,0)"  stroke-width="2.0"/>
<line x1="152.1" y1="124.7" x2="153.3" y2="175.5" stroke="rgb(0,0,0)"  stroke-width="2.0"/>
<line x1="153.3" y1="175.5" x2="109.7" y2="197.4" stroke="rgb(0,0,0)"  stroke-width="2.0"/>
<line x1="109.7" y1="197.4" x2="68.6" y2="174.6" stroke="rgb(0,0,0)"  stroke-width="2.0"/>
<line x1="108.0" y1="188.2" x2="77.4" y2="171.2" stroke="rgb(0,0,0)"  stroke-width="2.0"/>
<line x1="68.6" y1="174.6" x2="68.9" y2="125.9" stroke="rgb(0,0,0)"  stroke-width="2.0"/>
<line x1="192.5" y1="103.1" x2="231.0" y2="127.6" stroke="rgb(0,0,0)"  stroke-width="2.0"/>
<line x1="231.0" y1="127.6" x2="232.5" y2="174.7" stroke="rgb(0,0,0)"  stroke-width="2.0"/>
<line x1="232.5" y1="174.7" x2="191.3" y2="195.3" stroke="rgb(0,0,0)"  stroke-width="2.0"/>
<line x1="191.3" y1="195.3" x2="153.3" y2="175.5" stroke="rgb(0,0,0)"  stroke-width="2.0"/>
<line x1="152.1" y1="124.7" x2="192.5" y2="103.1" stroke="rgb(0,0,0)"  stroke-width="2.0"/>
<text x="236.784733" y="277.078902" fill="rgb(255,12,12)"  stroke="rgb(255,12,12)" stroke-width="1" font-size="16" >O</text>
<text x="196.865944" y="64.173444" fill="rgb(255,12,12)"  stroke="rgb(255,12,12)" stroke-width="1" font-size="16" >O</text>
<text x="143.638792" y="229.722809" fill="rgb(191,191,191)"  stroke="rgb(191,191,191)" stroke-width="1" font-size="16" >H</text>
<text x="238.741753" y="307.584458" fill="rgb(191,191,191)"  stroke="rgb(191,191,191)" stroke-width="1" font-size="16" >H</text>
<text x="226.006944" y="54.939841" fill="rgb(191,191,191)"  stroke="rgb(191,191,191)" stroke-width="1" font-size="16" >H</text>
<text x="156.540720" y="269.310731" fill="rgb(191,191,191)"  stroke="rgb(191,191,191)" stroke-width="1" font-size="16" >H</text>
<text x="155.761354" y="235.118932" fill="rgb(191,191,191)"  stroke="rgb(191,191,191)" stroke-width="1" font-size="16" >H</text>
<text x="34.000000" y="116.515381" fill="rgb(191,191,191)"  stroke="rgb(191,191,191)" stroke-width="1" font-size="16" >H</text>
<text x="63.653821" y="100.145237" fill="rgb(191,191,191)"  stroke="rgb(191,191,191)" stroke-width="1" font-size="16" >H</text>
<text x="34.539831" y="199.005468" fill="rgb(191,191,191)"  stroke="rgb(191,191,191)" stroke-width="1" font-size="16" >H</text>
<text x="103.391296" y="77.914822" fill="rgb(191,191,191)"  stroke="rgb(191,191,191)" stroke-width="1" font-size="16" >H</text>
<text x="132.481707" y="93.678705" fill="rgb(191,191,191)"  stroke="rgb(191,191,191)" stroke-width="1" font-size="16" >H</text>
<text x="159.657347" y="90.740504" fill="rgb(191,191,191)"  stroke="rgb(191,191,191)" stroke-width="1" font-size="16" >H</text>
<text x="254.329518" y="118.943998" fill="rgb(191,191,191)"  stroke="rgb(191,191,191)" stroke-width="1" font-size="16" >H</text>
<text x="225.862149" y="101.924884" fill="rgb(191,191,191)"  stroke="rgb(191,191,191)" stroke-width="1" font-size="16" >H</text>
<text x="255.500430" y="199.976401" fill="rgb(191,191,191)"  stroke="rgb(191,191,191)" stroke-width="1" font-size="16" >H</text>
<text x="225.290930" y="216.407194" fill="rgb(191,191,191)"  stroke="rgb(191,191,191)" stroke-width="1" font-size="16" >H</text>
<text x="185.605510" y="169.611228" fill="rgb(191,191,191)"  stroke="rgb(191,191,191)" stroke-width="1" font-size="16" >H</text>
<text x="103.064952" y="237.944326" fill="rgb(191,191,191)"  stroke="rgb(191,191,191)" stroke-width="1" font-size="16" >H</text>
<text x="171.759699" y="63.352562" fill="rgb(191,191,191)"  stroke="rgb(191,191,191)" stroke-width="1" font-size="16" >H</text>
<text x="113.430598" y="66.323759" fill="rgb(191,191,191)"  stroke="rgb(191,191,191)" stroke-width="1" font-size="16" >H</text>
<text x="141.737438" y="48.000000" fill="rgb(191,191,191)"  stroke="rgb(191,191,191)" stroke-width="1" font-size="16" >H</text>
</svg>
</g>
<text font-size="18.000000" fill ="black" font-family="sans-serif"
x="10.000000" y="20.000000" ></text>
</svg>
