<?xml version="1.0"?>
<svg version="1.1" id="topsvg"
xmlns="http://www.w3.org/2000/svg" xmlns:xlink="http://www.w3.org/1999/xlink"
xmlns:cml="http://www.xml-cml.org/schema" x="0" y="0" width="200px" height="200px" viewBox="0 0 100 100">
<title> - Open Babel Depiction</title>
<rect x="0" y="0" width="100" height="100" fill="white"/>
<g transform="translate(0,0)">
<svg width="100" height="100" x="0" y="0" viewBox="0 0 242.723 305.672"
font-family="sans-serif" stroke="rgb(0,0,0)" stroke-width="2"  stroke-linecap="round">
<line x1="66.1" y1="204.2" x2="51.2" y2="212.8" stroke="rgb(0,0,0)"  stroke-width="2.0"/>
<line x1="66.1" y1="204.2" x2="66.2" y2="221.4" stroke="rgb(0,0,0)"  stroke-width="2.0"/>
<line x1="66.2" y1="138.2" x2="51.4" y2="129.4" stroke="rgb(0,0,0)"  stroke-width="2.0"/>
<line x1="66.2" y1="138.2" x2="66.4" y2="120.9" stroke="rgb(0,0,0)"  stroke-width="2.0"/>
<line x1="177.3" y1="139.6" x2="191.4" y2="131.7" stroke="rgb(0,0,0)"  stroke-width="2.0"/>
<line x1="114.8" y1="69.0" x2="101.0" y2="58.6" stroke="rgb(0,0,0)"  stroke-width="2.0"/>
<line x1="114.8" y1="69.0" x2="119.7" y2="52.5" stroke="rgb(0,0,0)"  stroke-width="2.0"/>
<line x1="129.5" y1="68.0" x2="142.3" y2="56.4" stroke="rgb(0,0,0)"  stroke-width="2.0"/>
<line x1="129.5" y1="68.0" x2="122.8" y2="52.1" stroke="rgb(0,0,0)"  stroke-width="2.0"/>
<line x1="177.5" y1="204.1" x2="191.5" y2="212.3" stroke="rgb(0,0,0)"  stroke-width="2.0"/>
<line x1="121.4" y1="235.4" x2="121.4" y2="252.7" stroke="rgb(0,0,0)"  stroke-width="2.0"/>
<line x1="121.4" y1="235.4" x2="106.5" y2="244.1" stroke="rgb(0,0,0)"  stroke-width="2.0"/>
<line x1="129.5" y1="68.0" x2="122.9" y2="106.7" stroke="rgb(0,0,0)"  stroke-width="2.0"/>
<line x1="122.9" y1="106.7" x2="114.8" y2="69.0" stroke="rgb(0,0,0)"  stroke-width="2.0"/>
<line x1="114.8" y1="69.0" x2="129.5" y2="68.0" stroke="rgb(0,0,0)"  stroke-width="2.0"/>
<line x1="66.2" y1="138.2" x2="122.9" y2="106.7" stroke="rgb(0,0,0)"  stroke-width="2.0"/>
<line x1="122.9" y1="106.7" x2="177.3" y2="139.6" stroke="rgb(0,0,0)"  stroke-width="2.0"/>
<line x1="177.3" y1="139.6" x2="177.5" y2="204.1" stroke="rgb(0,0,0)"  stroke-width="2.0"/>
<line x1="170.1" y1="145.6" x2="170.3" y2="198.1" stroke="rgb(0,0,0)"  stroke-width="2.0"/>
<line x1="177.5" y1="204.1" x2="121.4" y2="235.4" stroke="rgb(0,0,0)"  stroke-width="2.0"/>
<line x1="121.4" y1="235.4" x2="66.1" y2="204.2" stroke="rgb(0,0,0)"  stroke-width="2.0"/>
<line x1="66.1" y1="204.2" x2="66.2" y2="138.2" stroke="rgb(0,0,0)"  stroke-width="2.0"/>
<text x="34.000000" y="227.385283" fill="rgb(191,191,191)"  stroke="rgb(191,191,191)" stroke-width="1" font-size="16" >H</text>
<text x="60.317942" y="242.400695" fill="rgb(191,191,191)"  stroke="rgb(191,191,191)" stroke-width="1" font-size="16" >H</text>
<text x="34.149759" y="130.819290" fill="rgb(191,191,191)"  stroke="rgb(191,191,191)" stroke-width="1" font-size="16" >H</text>
<text x="60.586377" y="115.936684" fill="rgb(191,191,191)"  stroke="rgb(191,191,191)" stroke-width="1" font-size="16" >H</text>
<text x="196.680143" y="133.254986" fill="rgb(191,191,191)"  stroke="rgb(191,191,191)" stroke-width="1" font-size="16" >H</text>
<text x="84.595777" y="58.808045" fill="rgb(191,191,191)"  stroke="rgb(191,191,191)" stroke-width="1" font-size="16" >H</text>
<text x="117.353335" y="48.000000" fill="rgb(191,191,191)"  stroke="rgb(191,191,191)" stroke-width="1" font-size="16" >H</text>
<text x="145.914829" y="55.702674" fill="rgb(191,191,191)"  stroke="rgb(191,191,191)" stroke-width="1" font-size="16" >H</text>
<text x="111.668162" y="48.149759" fill="rgb(191,191,191)"  stroke="rgb(191,191,191)" stroke-width="1" font-size="16" >H</text>
<text x="196.722528" y="226.820157" fill="rgb(191,191,191)"  stroke="rgb(191,191,191)" stroke-width="1" font-size="16" >H</text>
<text x="115.349961" y="273.671970" fill="rgb(191,191,191)"  stroke="rgb(191,191,191)" stroke-width="1" font-size="16" >H</text>
<text x="89.297629" y="258.636779" fill="rgb(191,191,191)"  stroke="rgb(191,191,191)" stroke-width="1" font-size="16" >H</text>
</svg>
</g>
<text font-size="18.000000" fill ="black" font-family="sans-serif"
x="10.000000" y="20.000000" ></text>
</svg>
