<?xml version="1.0"?>
<svg version="1.1" id="topsvg"
xmlns="http://www.w3.org/2000/svg" xmlns:xlink="http://www.w3.org/1999/xlink"
xmlns:cml="http://www.xml-cml.org/schema" x="0" y="0" width="200px" height="200px" viewBox="0 0 100 100">
<title> - Open Babel Depiction</title>
<rect x="0" y="0" width="100" height="100" fill="white"/>
<g transform="translate(0,0)">
<svg width="100" height="100" x="0" y="0" viewBox="0 0 335.707 348.266"
font-family="sans-serif" stroke="rgb(0,0,0)" stroke-width="2"  stroke-linecap="round">
<line x1="179.3" y1="240.6" x2="178.4" y2="190.8" stroke="rgb(0,0,0)"  stroke-width="2.0"/>
<line x1="179.3" y1="240.6" x2="219.7" y2="264.5" stroke="rgb(0,0,0)"  stroke-width="2.0"/>
<line x1="179.3" y1="240.6" x2="159.8" y2="252.0" stroke="rgb(0,0,0)"  stroke-width="2.0"/>
<line x1="179.3" y1="240.6" x2="179.2" y2="263.2" stroke="rgb(0,0,0)"  stroke-width="2.0"/>
<line x1="178.4" y1="190.8" x2="198.1" y2="201.8" stroke="rgb(0,0,0)"  stroke-width="2.0"/>
<line x1="135.4" y1="166.5" x2="117.0" y2="177.2" stroke="rgb(0,0,0)"  stroke-width="2.0"/>
<line x1="109.0" y1="92.2" x2="116.2" y2="73.3" stroke="rgb(0,0,0)"  stroke-width="2.0"/>
<line x1="92.2" y1="99.7" x2="73.3" y2="92.5" stroke="rgb(0,0,0)"  stroke-width="2.0"/>
<line x1="99.7" y1="116.5" x2="92.5" y2="135.4" stroke="rgb(0,0,0)"  stroke-width="2.0"/>
<line x1="116.5" y1="109.0" x2="135.4" y2="116.2" stroke="rgb(0,0,0)"  stroke-width="2.0"/>
<line x1="116.2" y1="73.3" x2="138.5" y2="69.7" stroke="rgb(0,0,0)"  stroke-width="2.0"/>
<line x1="116.2" y1="73.3" x2="101.9" y2="55.7" stroke="rgb(0,0,0)"  stroke-width="2.0"/>
<line x1="116.2" y1="73.3" x2="124.2" y2="52.1" stroke="rgb(0,0,0)"  stroke-width="2.0"/>
<line x1="73.3" y1="92.5" x2="69.7" y2="70.2" stroke="rgb(0,0,0)"  stroke-width="2.0"/>
<line x1="73.3" y1="92.5" x2="55.7" y2="106.7" stroke="rgb(0,0,0)"  stroke-width="2.0"/>
<line x1="73.3" y1="92.5" x2="52.1" y2="84.4" stroke="rgb(0,0,0)"  stroke-width="2.0"/>
<line x1="92.5" y1="135.4" x2="70.2" y2="139.0" stroke="rgb(0,0,0)"  stroke-width="2.0"/>
<line x1="92.5" y1="135.4" x2="106.7" y2="152.9" stroke="rgb(0,0,0)"  stroke-width="2.0"/>
<line x1="92.5" y1="135.4" x2="84.4" y2="156.5" stroke="rgb(0,0,0)"  stroke-width="2.0"/>
<line x1="181.2" y1="53.5" x2="182.1" y2="91.9" stroke="rgb(0,0,0)"  stroke-width="2.0"/>
<line x1="175.2" y1="53.7" x2="176.1" y2="92.0" stroke="rgb(0,0,0)"  stroke-width="2.0"/>
<line x1="221.9" y1="116.0" x2="241.3" y2="104.5" stroke="rgb(0,0,0)"  stroke-width="2.0"/>
<line x1="221.9" y1="116.0" x2="241.6" y2="127.1" stroke="rgb(0,0,0)"  stroke-width="2.0"/>
<line x1="222.4" y1="165.0" x2="265.6" y2="190.2" stroke="rgb(0,0,0)"  stroke-width="2.0"/>
<line x1="222.4" y1="165.0" x2="202.7" y2="153.8" stroke="rgb(0,0,0)"  stroke-width="2.0"/>
<line x1="268.6" y1="190.2" x2="268.9" y2="243.1" stroke="rgb(0,0,0)"  stroke-width="2.0"/>
<line x1="262.6" y1="190.2" x2="262.9" y2="243.1" stroke="rgb(0,0,0)"  stroke-width="2.0"/>
<line x1="265.6" y1="190.2" x2="284.0" y2="179.5" stroke="rgb(0,0,0)"  stroke-width="2.0"/>
<line x1="265.9" y1="243.1" x2="247.5" y2="253.9" stroke="rgb(0,0,0)"  stroke-width="2.0"/>
<line x1="265.9" y1="243.1" x2="284.4" y2="253.6" stroke="rgb(0,0,0)"  stroke-width="2.0"/>
<line x1="219.7" y1="264.5" x2="265.4" y2="291.5" stroke="rgb(0,0,0)"  stroke-width="2.0"/>
<line x1="221.8" y1="260.8" x2="267.5" y2="287.8" stroke="rgb(0,0,0)"  stroke-width="2.0"/>
<line x1="217.6" y1="268.1" x2="263.3" y2="295.1" stroke="rgb(0,0,0)"  stroke-width="2.0"/>
<line x1="265.4" y1="291.5" x2="282.7" y2="301.7" stroke="rgb(0,0,0)"  stroke-width="2.0"/>
<line x1="135.4" y1="116.2" x2="135.4" y2="166.5" stroke="rgb(0,0,0)"  stroke-width="2.0"/>
<line x1="142.6" y1="122.2" x2="142.6" y2="160.5" stroke="rgb(0,0,0)"  stroke-width="2.0"/>
<line x1="135.4" y1="166.5" x2="178.4" y2="190.8" stroke="rgb(0,0,0)"  stroke-width="2.0"/>
<line x1="178.4" y1="190.8" x2="222.4" y2="165.0" stroke="rgb(0,0,0)"  stroke-width="2.0"/>
<line x1="222.4" y1="165.0" x2="221.9" y2="116.0" stroke="rgb(0,0,0)"  stroke-width="2.0"/>
<line x1="221.9" y1="116.0" x2="179.1" y2="91.9" stroke="rgb(0,0,0)"  stroke-width="2.0"/>
<line x1="179.1" y1="91.9" x2="135.4" y2="116.2" stroke="rgb(0,0,0)"  stroke-width="2.0"/>
<text x="98.326600" y="112.326600" fill="rgb(127,153,153)"  stroke="rgb(127,153,153)" stroke-width="1" font-size="16" >Si</text>
<text x="171.899733" y="48.595370" fill="rgb(255,12,12)"  stroke="rgb(255,12,12)" stroke-width="1" font-size="16" >O</text>
<text x="142.540328" y="266.494244" fill="rgb(191,191,191)"  stroke="rgb(191,191,191)" stroke-width="1" font-size="16" >H</text>
<text x="173.183604" y="284.179070" fill="rgb(191,191,191)"  stroke="rgb(191,191,191)" stroke-width="1" font-size="16" >H</text>
<text x="203.477641" y="216.167161" fill="rgb(191,191,191)"  stroke="rgb(191,191,191)" stroke-width="1" font-size="16" >H</text>
<text x="99.766797" y="191.786914" fill="rgb(191,191,191)"  stroke="rgb(191,191,191)" stroke-width="1" font-size="16" >H</text>
<text x="145.324266" y="75.613207" fill="rgb(191,191,191)"  stroke="rgb(191,191,191)" stroke-width="1" font-size="16" >H</text>
<text x="87.733000" y="53.637724" fill="rgb(191,191,191)"  stroke="rgb(191,191,191)" stroke-width="1" font-size="16" >H</text>
<text x="122.873151" y="48.000000" fill="rgb(191,191,191)"  stroke="rgb(191,191,191)" stroke-width="1" font-size="16" >H</text>
<text x="61.616534" y="65.325608" fill="rgb(191,191,191)"  stroke="rgb(191,191,191)" stroke-width="1" font-size="16" >H</text>
<text x="39.634398" y="122.916874" fill="rgb(191,191,191)"  stroke="rgb(191,191,191)" stroke-width="1" font-size="16" >H</text>
<text x="34.000000" y="87.776722" fill="rgb(191,191,191)"  stroke="rgb(191,191,191)" stroke-width="1" font-size="16" >H</text>
<text x="51.328934" y="149.039992" fill="rgb(191,191,191)"  stroke="rgb(191,191,191)" stroke-width="1" font-size="16" >H</text>
<text x="108.920200" y="171.015476" fill="rgb(191,191,191)"  stroke="rgb(191,191,191)" stroke-width="1" font-size="16" >H</text>
<text x="73.780048" y="176.653200" fill="rgb(191,191,191)"  stroke="rgb(191,191,191)" stroke-width="1" font-size="16" >H</text>
<text x="246.503954" y="105.930527" fill="rgb(191,191,191)"  stroke="rgb(191,191,191)" stroke-width="1" font-size="16" >H</text>
<text x="246.876476" y="141.519701" fill="rgb(191,191,191)"  stroke="rgb(191,191,191)" stroke-width="1" font-size="16" >H</text>
<text x="185.400336" y="155.432739" fill="rgb(191,191,191)"  stroke="rgb(191,191,191)" stroke-width="1" font-size="16" >H</text>
<text x="289.270832" y="180.993749" fill="rgb(191,191,191)"  stroke="rgb(191,191,191)" stroke-width="1" font-size="16" >H</text>
<text x="230.252673" y="268.426703" fill="rgb(191,191,191)"  stroke="rgb(191,191,191)" stroke-width="1" font-size="16" >H</text>
<text x="289.706550" y="268.064159" fill="rgb(191,191,191)"  stroke="rgb(191,191,191)" stroke-width="1" font-size="16" >H</text>
<text x="287.867222" y="316.265869" fill="rgb(191,191,191)"  stroke="rgb(191,191,191)" stroke-width="1" font-size="16" >H</text>
</svg>
</g>
<text font-size="18.000000" fill ="black" font-family="sans-serif"
x="10.000000" y="20.000000" ></text>
</svg>
