<?xml version="1.0"?>
<svg version="1.1" id="topsvg"
xmlns="http://www.w3.org/2000/svg" xmlns:xlink="http://www.w3.org/1999/xlink"
xmlns:cml="http://www.xml-cml.org/schema" x="0" y="0" width="200px" height="200px" viewBox="0 0 100 100">
<title> - Open Babel Depiction</title>
<rect x="0" y="0" width="100" height="100" fill="white"/>
<g transform="translate(0,0)">
<svg width="100" height="100" x="0" y="0" viewBox="0 0 332.367 390.698"
font-family="sans-serif" stroke="rgb(0,0,0)" stroke-width="2"  stroke-linecap="round">
<line x1="114.4" y1="286.2" x2="70.5" y2="286.4" stroke="rgb(0,0,0)"  stroke-width="2.0"/>
<line x1="114.4" y1="286.2" x2="127.5" y2="261.4" stroke="rgb(0,0,0)"  stroke-width="2.0"/>
<line x1="114.4" y1="286.2" x2="135.5" y2="324.0" stroke="rgb(0,0,0)"  stroke-width="2.0"/>
<line x1="114.4" y1="286.2" x2="131.9" y2="286.0" stroke="rgb(0,0,0)"  stroke-width="2.0"/>
<line x1="70.5" y1="286.4" x2="61.7" y2="271.3" stroke="rgb(0,0,0)"  stroke-width="2.0"/>
<line x1="70.5" y1="286.4" x2="61.9" y2="301.6" stroke="rgb(0,0,0)"  stroke-width="2.0"/>
<line x1="70.5" y1="286.4" x2="53.0" y2="286.5" stroke="rgb(0,0,0)"  stroke-width="2.0"/>
<line x1="135.5" y1="324.0" x2="126.5" y2="339.1" stroke="rgb(0,0,0)"  stroke-width="2.0"/>
<line x1="135.5" y1="324.0" x2="153.0" y2="324.3" stroke="rgb(0,0,0)"  stroke-width="2.0"/>
<line x1="135.5" y1="324.0" x2="144.0" y2="339.3" stroke="rgb(0,0,0)"  stroke-width="2.0"/>
<line x1="177.8" y1="175.8" x2="186.1" y2="160.3" stroke="rgb(0,0,0)"  stroke-width="2.0"/>
<line x1="177.8" y1="175.8" x2="168.3" y2="161.0" stroke="rgb(0,0,0)"  stroke-width="2.0"/>
<line x1="241.2" y1="212.6" x2="249.3" y2="198.3" stroke="rgb(0,0,0)"  stroke-width="2.0"/>
<line x1="262.9" y1="249.2" x2="279.4" y2="249.2" stroke="rgb(0,0,0)"  stroke-width="2.0"/>
<line x1="240.8" y1="286.5" x2="249.0" y2="300.8" stroke="rgb(0,0,0)"  stroke-width="2.0"/>
<line x1="197.5" y1="286.6" x2="189.2" y2="300.8" stroke="rgb(0,0,0)"  stroke-width="2.0"/>
<line x1="102.0" y1="193.6" x2="132.0" y2="182.6" stroke="rgb(0,0,0)"  stroke-width="2.0"/>
<line x1="134.6" y1="134.2" x2="141.4" y2="165.4" stroke="rgb(0,0,0)"  stroke-width="2.0"/>
<line x1="134.6" y1="134.2" x2="150.1" y2="142.5" stroke="rgb(0,0,0)"  stroke-width="2.0"/>
<line x1="112.3" y1="68.9" x2="105.5" y2="52.7" stroke="rgb(0,0,0)"  stroke-width="2.0"/>
<line x1="112.3" y1="68.9" x2="121.9" y2="54.2" stroke="rgb(0,0,0)"  stroke-width="2.0"/>
<line x1="155.3" y1="68.4" x2="161.8" y2="52.1" stroke="rgb(0,0,0)"  stroke-width="2.0"/>
<line x1="155.3" y1="68.4" x2="172.5" y2="64.7" stroke="rgb(0,0,0)"  stroke-width="2.0"/>
<line x1="198.5" y1="212.4" x2="176.4" y2="249.0" stroke="rgb(0,0,0)"  stroke-width="2.0"/>
<line x1="201.6" y1="221.3" x2="185.6" y2="247.6" stroke="rgb(0,0,0)"  stroke-width="2.0"/>
<line x1="176.4" y1="249.0" x2="197.5" y2="286.6" stroke="rgb(0,0,0)"  stroke-width="2.0"/>
<line x1="197.5" y1="286.6" x2="240.8" y2="286.5" stroke="rgb(0,0,0)"  stroke-width="2.0"/>
<line x1="203.5" y1="279.4" x2="234.8" y2="279.3" stroke="rgb(0,0,0)"  stroke-width="2.0"/>
<line x1="240.8" y1="286.5" x2="262.9" y2="249.2" stroke="rgb(0,0,0)"  stroke-width="2.0"/>
<line x1="262.9" y1="249.2" x2="241.2" y2="212.6" stroke="rgb(0,0,0)"  stroke-width="2.0"/>
<line x1="253.7" y1="247.7" x2="238.0" y2="221.4" stroke="rgb(0,0,0)"  stroke-width="2.0"/>
<line x1="241.2" y1="212.6" x2="198.5" y2="212.4" stroke="rgb(0,0,0)"  stroke-width="2.0"/>
<line x1="146.7" y1="249.6" x2="176.4" y2="249.0" stroke="rgb(0,0,0)"  stroke-width="2.0"/>
<line x1="198.5" y1="212.4" x2="177.8" y2="175.8" stroke="rgb(0,0,0)"  stroke-width="2.0"/>
<line x1="177.8" y1="175.8" x2="157.1" y2="177.2" stroke="rgb(0,0,0)"  stroke-width="2.0"/>
<line x1="142.3" y1="191.0" x2="135.5" y2="237.1" stroke="rgb(0,0,0)"  stroke-width="2.0"/>
<line x1="84.1" y1="114.0" x2="134.6" y2="134.2" stroke="rgb(0,0,0)"  stroke-width="2.0"/>
<line x1="134.6" y1="134.2" x2="185.7" y2="114.6" stroke="rgb(0,0,0)"  stroke-width="2.0"/>
<line x1="188.6" y1="100.8" x2="155.3" y2="68.4" stroke="rgb(0,0,0)"  stroke-width="2.0"/>
<line x1="155.3" y1="68.4" x2="112.3" y2="68.9" stroke="rgb(0,0,0)"  stroke-width="2.0"/>
<line x1="112.3" y1="68.9" x2="81.2" y2="100.0" stroke="rgb(0,0,0)"  stroke-width="2.0"/>
<text x="127.658164" y="257.941775" fill="rgb(255,12,12)"  stroke="rgb(255,12,12)" stroke-width="1" font-size="16" >O</text>
<text x="138.180367" y="186.112830" fill="rgb(35,142,142)"  stroke="rgb(35,142,142)" stroke-width="1" font-size="16" >Ru</text>
<text x="71.762856" y="206.064205" fill="rgb(30,239,30)"  stroke="rgb(30,239,30)" stroke-width="1" font-size="16" >Cl</text>
<text x="53.986127" y="117.186266" fill="rgb(17,127,178)"  stroke="rgb(17,127,178)" stroke-width="1" font-size="16" >Xx</text>
<text x="191.870142" y="117.911148" fill="rgb(17,127,178)"  stroke="rgb(17,127,178)" stroke-width="1" font-size="16" >Xx</text>
<text x="138.908103" y="293.863383" fill="rgb(191,191,191)"  stroke="rgb(191,191,191)" stroke-width="1" font-size="16" >H</text>
<text x="49.122634" y="268.030191" fill="rgb(191,191,191)"  stroke="rgb(191,191,191)" stroke-width="1" font-size="16" >H</text>
<text x="49.413729" y="320.920883" fill="rgb(191,191,191)"  stroke="rgb(191,191,191)" stroke-width="1" font-size="16" >H</text>
<text x="34.000000" y="294.559726" fill="rgb(191,191,191)"  stroke="rgb(191,191,191)" stroke-width="1" font-size="16" >H</text>
<text x="113.802646" y="358.232323" fill="rgb(191,191,191)"  stroke="rgb(191,191,191)" stroke-width="1" font-size="16" >H</text>
<text x="160.006732" y="332.487601" fill="rgb(191,191,191)"  stroke="rgb(191,191,191)" stroke-width="1" font-size="16" >H</text>
<text x="144.336155" y="358.697504" fill="rgb(191,191,191)"  stroke="rgb(191,191,191)" stroke-width="1" font-size="16" >H</text>
<text x="186.219488" y="156.872122" fill="rgb(191,191,191)"  stroke="rgb(191,191,191)" stroke-width="1" font-size="16" >H</text>
<text x="155.197968" y="158.124969" fill="rgb(191,191,191)"  stroke="rgb(191,191,191)" stroke-width="1" font-size="16" >H</text>
<text x="249.757954" y="195.011183" fill="rgb(191,191,191)"  stroke="rgb(191,191,191)" stroke-width="1" font-size="16" >H</text>
<text x="286.367343" y="257.191209" fill="rgb(191,191,191)"  stroke="rgb(191,191,191)" stroke-width="1" font-size="16" >H</text>
<text x="249.432613" y="320.053308" fill="rgb(191,191,191)"  stroke="rgb(191,191,191)" stroke-width="1" font-size="16" >H</text>
<text x="176.673307" y="320.027623" fill="rgb(191,191,191)"  stroke="rgb(191,191,191)" stroke-width="1" font-size="16" >H</text>
<text x="155.506186" y="156.718013" fill="rgb(191,191,191)"  stroke="rgb(191,191,191)" stroke-width="1" font-size="16" >H</text>
<text x="94.481976" y="48.730590" fill="rgb(191,191,191)"  stroke="rgb(191,191,191)" stroke-width="1" font-size="16" >H</text>
<text x="123.069148" y="51.330461" fill="rgb(191,191,191)"  stroke="rgb(191,191,191)" stroke-width="1" font-size="16" >H</text>
<text x="160.680244" y="48.000000" fill="rgb(191,191,191)"  stroke="rgb(191,191,191)" stroke-width="1" font-size="16" >H</text>
<text x="179.207540" y="70.040405" fill="rgb(191,191,191)"  stroke="rgb(191,191,191)" stroke-width="1" font-size="16" >H</text>
</svg>
</g>
<text font-size="18.000000" fill ="black" font-family="sans-serif"
x="10.000000" y="20.000000" ></text>
</svg>
