<?xml version="1.0"?>
<svg version="1.1" id="topsvg"
xmlns="http://www.w3.org/2000/svg" xmlns:xlink="http://www.w3.org/1999/xlink"
xmlns:cml="http://www.xml-cml.org/schema" x="0" y="0" width="200px" height="200px" viewBox="0 0 100 100">
<title> - Open Babel Depiction</title>
<rect x="0" y="0" width="100" height="100" fill="white"/>
<g transform="translate(0,0)">
<svg width="100" height="100" x="0" y="0" viewBox="0 0 383.855 421.698"
font-family="sans-serif" stroke="rgb(0,0,0)" stroke-width="2"  stroke-linecap="round">
<line x1="201.5" y1="314.5" x2="248.3" y2="302.7" stroke="rgb(0,0,0)"  stroke-width="2.0"/>
<line x1="248.3" y1="302.7" x2="235.6" y2="348.9" stroke="rgb(0,0,0)"  stroke-width="2.0"/>
<polygon points="232.623722 156.845143 230.089608 111.627143 238.085395 111.886724 " stroke-width="2.000000" fill="rgb(0,0,0)"  stroke="rgb(0,0,0)" />
<line x1="264.7" y1="175.4" x2="265.5" y2="174.0" stroke="rgb(0,0,0)"  stroke-width="1.0"/>
<line x1="257.9" y1="172.4" x2="259.3" y2="169.9" stroke="rgb(0,0,0)"  stroke-width="1.0"/>
<line x1="251.1" y1="169.4" x2="253.1" y2="165.7" stroke="rgb(0,0,0)"  stroke-width="1.0"/>
<line x1="244.3" y1="166.4" x2="246.9" y2="161.6" stroke="rgb(0,0,0)"  stroke-width="1.0"/>
<line x1="237.5" y1="163.4" x2="240.7" y2="157.5" stroke="rgb(0,0,0)"  stroke-width="1.0"/>
<line x1="230.7" y1="160.4" x2="234.6" y2="153.3" stroke="rgb(0,0,0)"  stroke-width="1.0"/>
<line x1="232.6" y1="156.8" x2="192.0" y2="177.3" stroke="rgb(0,0,0)"  stroke-width="2.0"/>
<line x1="234.1" y1="111.8" x2="194.1" y2="87.2" stroke="rgb(0,0,0)"  stroke-width="2.0"/>
<line x1="265.6" y1="87.8" x2="268.6" y2="52.7" stroke="rgb(0,0,0)"  stroke-width="2.0"/>
<line x1="271.6" y1="88.3" x2="274.6" y2="53.2" stroke="rgb(0,0,0)"  stroke-width="2.0"/>
<line x1="273.2" y1="179.2" x2="273.1" y2="233.1" stroke="rgb(0,0,0)"  stroke-width="2.0"/>
<line x1="235.1" y1="162.8" x2="192.0" y2="177.3" stroke="rgb(0,0,0)"  stroke-width="2.0"/>
<line x1="156.6" y1="148.2" x2="193.7" y2="174.8" stroke="rgb(0,0,0)"  stroke-width="2.0"/>
<line x1="153.1" y1="153.0" x2="190.2" y2="179.7" stroke="rgb(0,0,0)"  stroke-width="2.0"/>
<line x1="66.7" y1="108.1" x2="108.8" y2="84.6" stroke="rgb(0,0,0)"  stroke-width="2.0"/>
<line x1="69.6" y1="113.3" x2="111.7" y2="89.8" stroke="rgb(0,0,0)"  stroke-width="2.0"/>
<line x1="110.2" y1="87.2" x2="150.8" y2="111.0" stroke="rgb(0,0,0)"  stroke-width="2.0"/>
<line x1="232.9" y1="192.7" x2="235.1" y2="162.8" stroke="rgb(0,0,0)"  stroke-width="2.0"/>
<line x1="194.1" y1="87.2" x2="150.8" y2="111.0" stroke="rgb(0,0,0)"  stroke-width="2.0"/>
<line x1="201.5" y1="314.5" x2="186.9" y2="299.4" stroke="rgb(0,0,0)"  stroke-width="2.0"/>
<line x1="201.5" y1="314.5" x2="195.8" y2="334.6" stroke="rgb(0,0,0)"  stroke-width="2.0"/>
<line x1="201.5" y1="314.5" x2="181.2" y2="319.6" stroke="rgb(0,0,0)"  stroke-width="2.0"/>
<line x1="296.3" y1="303.2" x2="308.6" y2="320.2" stroke="rgb(0,0,0)"  stroke-width="2.0"/>
<line x1="296.3" y1="303.2" x2="286.7" y2="321.8" stroke="rgb(0,0,0)"  stroke-width="2.0"/>
<line x1="235.6" y1="348.9" x2="215.3" y2="354.2" stroke="rgb(0,0,0)"  stroke-width="2.0"/>
<line x1="235.6" y1="348.9" x2="250.3" y2="363.9" stroke="rgb(0,0,0)"  stroke-width="2.0"/>
<line x1="235.6" y1="348.9" x2="230.0" y2="369.2" stroke="rgb(0,0,0)"  stroke-width="2.0"/>
<line x1="232.6" y1="156.8" x2="214.9" y2="145.6" stroke="rgb(0,0,0)"  stroke-width="2.0"/>
<polygon points="234.087501 111.756933 215.934887 126.062375 212.145376 119.016837 " stroke-width="2.000000" fill="rgb(0,0,0)"  stroke="rgb(0,0,0)" />
<line x1="314.5" y1="110.8" x2="332.3" y2="99.6" stroke="rgb(0,0,0)"  stroke-width="2.0"/>
<line x1="314.5" y1="110.8" x2="313.4" y2="89.8" stroke="rgb(0,0,0)"  stroke-width="2.0"/>
<line x1="315.0" y1="159.1" x2="332.8" y2="170.2" stroke="rgb(0,0,0)"  stroke-width="2.0"/>
<line x1="315.0" y1="159.1" x2="313.9" y2="180.0" stroke="rgb(0,0,0)"  stroke-width="2.0"/>
<line x1="273.2" y1="179.2" x2="255.2" y2="189.8" stroke="rgb(0,0,0)"  stroke-width="2.0"/>
<line x1="235.1" y1="162.8" x2="247.9" y2="146.3" stroke="rgb(0,0,0)"  stroke-width="2.0"/>
<line x1="235.1" y1="162.8" x2="254.7" y2="170.3" stroke="rgb(0,0,0)"  stroke-width="2.0"/>
<line x1="154.9" y1="150.6" x2="156.9" y2="130.9" stroke="rgb(0,0,0)"  stroke-width="2.0"/>
<line x1="154.9" y1="150.6" x2="136.9" y2="158.7" stroke="rgb(0,0,0)"  stroke-width="2.0"/>
<line x1="68.1" y1="110.7" x2="51.2" y2="100.6" stroke="rgb(0,0,0)"  stroke-width="2.0"/>
<line x1="68.1" y1="110.7" x2="67.9" y2="130.5" stroke="rgb(0,0,0)"  stroke-width="2.0"/>
<line x1="110.2" y1="87.2" x2="110.4" y2="67.4" stroke="rgb(0,0,0)"  stroke-width="2.0"/>
<line x1="150.8" y1="111.0" x2="150.5" y2="131.9" stroke="rgb(0,0,0)"  stroke-width="2.0"/>
<line x1="150.8" y1="111.0" x2="168.8" y2="121.8" stroke="rgb(0,0,0)"  stroke-width="2.0"/>
<line x1="194.1" y1="87.2" x2="194.6" y2="66.2" stroke="rgb(0,0,0)"  stroke-width="2.0"/>
<line x1="194.1" y1="87.2" x2="176.2" y2="76.3" stroke="rgb(0,0,0)"  stroke-width="2.0"/>
<line x1="246.5" y1="249.4" x2="273.1" y2="233.1" stroke="rgb(0,0,0)"  stroke-width="2.0"/>
<line x1="251.5" y1="254.9" x2="271.7" y2="242.4" stroke="rgb(0,0,0)"  stroke-width="2.0"/>
<line x1="273.1" y1="233.1" x2="299.7" y2="251.6" stroke="rgb(0,0,0)"  stroke-width="2.0"/>
<line x1="306.4" y1="271.4" x2="296.3" y2="303.2" stroke="rgb(0,0,0)"  stroke-width="2.0"/>
<line x1="296.3" y1="303.2" x2="248.3" y2="302.7" stroke="rgb(0,0,0)"  stroke-width="2.0"/>
<line x1="248.3" y1="302.7" x2="237.5" y2="269.8" stroke="rgb(0,0,0)"  stroke-width="2.0"/>
<line x1="232.6" y1="156.8" x2="234.1" y2="111.8" stroke="rgb(0,0,0)"  stroke-width="2.0"/>
<line x1="234.1" y1="111.8" x2="268.6" y2="88.1" stroke="rgb(0,0,0)"  stroke-width="2.0"/>
<line x1="268.6" y1="88.1" x2="314.5" y2="110.8" stroke="rgb(0,0,0)"  stroke-width="2.0"/>
<line x1="314.5" y1="110.8" x2="315.0" y2="159.1" stroke="rgb(0,0,0)"  stroke-width="2.0"/>
<line x1="315.0" y1="159.1" x2="273.2" y2="179.2" stroke="rgb(0,0,0)"  stroke-width="2.0"/>
<line x1="273.2" y1="179.2" x2="232.6" y2="156.8" stroke="rgb(0,0,0)"  stroke-width="2.0"/>
<text x="227.458807" y="265.458531" fill="rgb(12,12,255)"  stroke="rgb(12,12,255)" stroke-width="1" font-size="16" >N</text>
<text x="304.394534" y="267.027093" fill="rgb(255,12,12)"  stroke="rgb(255,12,12)" stroke-width="1" font-size="16" >O</text>
<text x="266.710951" y="48.000000" fill="rgb(255,12,12)"  stroke="rgb(255,12,12)" stroke-width="1" font-size="16" >O</text>
<text x="225.890245" y="213.645193" fill="rgb(191,191,191)"  stroke="rgb(191,191,191)" stroke-width="1" font-size="16" >H</text>
<text x="171.824959" y="298.102111" fill="rgb(191,191,191)"  stroke="rgb(191,191,191)" stroke-width="1" font-size="16" >H</text>
<text x="186.234791" y="355.156839" fill="rgb(191,191,191)"  stroke="rgb(191,191,191)" stroke-width="1" font-size="16" >H</text>
<text x="162.559594" y="330.789235" fill="rgb(191,191,191)"  stroke="rgb(191,191,191)" stroke-width="1" font-size="16" >H</text>
<text x="310.224948" y="338.724348" fill="rgb(191,191,191)"  stroke="rgb(191,191,191)" stroke-width="1" font-size="16" >H</text>
<text x="274.695958" y="341.349934" fill="rgb(191,191,191)"  stroke="rgb(191,191,191)" stroke-width="1" font-size="16" >H</text>
<text x="196.685944" y="365.515430" fill="rgb(191,191,191)"  stroke="rgb(191,191,191)" stroke-width="1" font-size="16" >H</text>
<text x="253.424805" y="381.122704" fill="rgb(191,191,191)"  stroke="rgb(191,191,191)" stroke-width="1" font-size="16" >H</text>
<text x="220.549943" y="389.698165" fill="rgb(191,191,191)"  stroke="rgb(191,191,191)" stroke-width="1" font-size="16" >H</text>
<text x="197.995116" y="146.550390" fill="rgb(191,191,191)"  stroke="rgb(191,191,191)" stroke-width="1" font-size="16" >H</text>
<text x="198.166054" y="135.850475" fill="rgb(191,191,191)"  stroke="rgb(191,191,191)" stroke-width="1" font-size="16" >H</text>
<text x="337.257697" y="100.681869" fill="rgb(191,191,191)"  stroke="rgb(191,191,191)" stroke-width="1" font-size="16" >H</text>
<text x="306.757422" y="84.832567" fill="rgb(191,191,191)"  stroke="rgb(191,191,191)" stroke-width="1" font-size="16" >H</text>
<text x="337.854918" y="185.022237" fill="rgb(191,191,191)"  stroke="rgb(191,191,191)" stroke-width="1" font-size="16" >H</text>
<text x="307.160774" y="201.008680" fill="rgb(191,191,191)"  stroke="rgb(191,191,191)" stroke-width="1" font-size="16" >H</text>
<text x="237.954346" y="204.413362" fill="rgb(191,191,191)"  stroke="rgb(191,191,191)" stroke-width="1" font-size="16" >H</text>
<text x="249.924821" y="143.987114" fill="rgb(191,191,191)"  stroke="rgb(191,191,191)" stroke-width="1" font-size="16" >H</text>
<text x="260.785190" y="183.019488" fill="rgb(191,191,191)"  stroke="rgb(191,191,191)" stroke-width="1" font-size="16" >H</text>
<text x="152.157166" y="125.981940" fill="rgb(191,191,191)"  stroke="rgb(191,191,191)" stroke-width="1" font-size="16" >H</text>
<text x="119.016560" y="172.057868" fill="rgb(191,191,191)"  stroke="rgb(191,191,191)" stroke-width="1" font-size="16" >H</text>
<text x="34.000000" y="101.899024" fill="rgb(191,191,191)"  stroke="rgb(191,191,191)" stroke-width="1" font-size="16" >H</text>
<text x="61.662019" y="151.458116" fill="rgb(191,191,191)"  stroke="rgb(191,191,191)" stroke-width="1" font-size="16" >H</text>
<text x="104.567690" y="62.433160" fill="rgb(191,191,191)"  stroke="rgb(191,191,191)" stroke-width="1" font-size="16" >H</text>
<text x="144.363298" y="152.944497" fill="rgb(191,191,191)"  stroke="rgb(191,191,191)" stroke-width="1" font-size="16" >H</text>
<text x="173.949130" y="136.460095" fill="rgb(191,191,191)"  stroke="rgb(191,191,191)" stroke-width="1" font-size="16" >H</text>
<text x="188.925637" y="61.199877" fill="rgb(191,191,191)"  stroke="rgb(191,191,191)" stroke-width="1" font-size="16" >H</text>
<text x="159.067933" y="77.520402" fill="rgb(191,191,191)"  stroke="rgb(191,191,191)" stroke-width="1" font-size="16" >H</text>
</svg>
</g>
<text font-size="18.000000" fill ="black" font-family="sans-serif"
x="10.000000" y="20.000000" ></text>
</svg>
