<?xml version="1.0"?>
<svg version="1.1" id="topsvg"
xmlns="http://www.w3.org/2000/svg" xmlns:xlink="http://www.w3.org/1999/xlink"
xmlns:cml="http://www.xml-cml.org/schema" x="0" y="0" width="200px" height="200px" viewBox="0 0 100 100">
<title> - Open Babel Depiction</title>
<rect x="0" y="0" width="100" height="100" fill="white"/>
<g transform="translate(0,0)">
<svg width="100" height="100" x="0" y="0" viewBox="0 0 454.142 375.061"
font-family="sans-serif" stroke="rgb(0,0,0)" stroke-width="2"  stroke-linecap="round">
<line x1="174.6" y1="185.3" x2="173.7" y2="231.5" stroke="rgb(0,0,0)"  stroke-width="2.0"/>
<line x1="173.7" y1="231.5" x2="199.0" y2="248.1" stroke="rgb(0,0,0)"  stroke-width="2.0"/>
<line x1="132.8" y1="113.2" x2="114.8" y2="106.9" stroke="rgb(0,0,0)"  stroke-width="2.0"/>
<line x1="106.9" y1="90.3" x2="113.2" y2="72.3" stroke="rgb(0,0,0)"  stroke-width="2.0"/>
<line x1="90.3" y1="98.2" x2="72.3" y2="91.9" stroke="rgb(0,0,0)"  stroke-width="2.0"/>
<line x1="98.2" y1="114.8" x2="91.9" y2="132.8" stroke="rgb(0,0,0)"  stroke-width="2.0"/>
<line x1="221.1" y1="51.3" x2="173.1" y2="91.2" stroke="rgb(0,0,0)"  stroke-width="2.0"/>
<line x1="214.0" y1="161.7" x2="254.9" y2="184.1" stroke="rgb(0,0,0)"  stroke-width="2.0"/>
<line x1="182.0" y1="179.9" x2="182.9" y2="181.2" stroke="rgb(0,0,0)"  stroke-width="1.0"/>
<line x1="188.0" y1="175.5" x2="189.5" y2="178.0" stroke="rgb(0,0,0)"  stroke-width="1.0"/>
<line x1="194.0" y1="171.2" x2="196.1" y2="174.8" stroke="rgb(0,0,0)"  stroke-width="1.0"/>
<line x1="200.0" y1="166.9" x2="202.8" y2="171.5" stroke="rgb(0,0,0)"  stroke-width="1.0"/>
<line x1="206.0" y1="162.6" x2="209.4" y2="168.3" stroke="rgb(0,0,0)"  stroke-width="1.0"/>
<line x1="212.0" y1="158.2" x2="216.1" y2="165.1" stroke="rgb(0,0,0)"  stroke-width="1.0"/>
<line x1="335.8" y1="231.6" x2="335.2" y2="165.1" stroke="rgb(0,0,0)"  stroke-width="2.0"/>
<line x1="331.6" y1="231.7" x2="331.0" y2="165.1" stroke="rgb(0,0,0)"  stroke-width="2.0"/>
<line x1="340.0" y1="231.6" x2="339.4" y2="165.1" stroke="rgb(0,0,0)"  stroke-width="2.0"/>
<line x1="334.9" y1="133.6" x2="376.9" y2="113.9" stroke="rgb(0,0,0)"  stroke-width="2.0"/>
<line x1="334.9" y1="133.6" x2="335.2" y2="165.1" stroke="rgb(0,0,0)"  stroke-width="2.0"/>
<line x1="399.3" y1="115.8" x2="403.5" y2="118.7" stroke="rgb(0,0,0)"  stroke-width="2.0"/>
<line x1="294.4" y1="299.3" x2="334.9" y2="277.7" stroke="rgb(0,0,0)"  stroke-width="2.0"/>
<line x1="297.2" y1="304.6" x2="337.7" y2="283.0" stroke="rgb(0,0,0)"  stroke-width="2.0"/>
<line x1="336.3" y1="280.3" x2="335.8" y2="231.6" stroke="rgb(0,0,0)"  stroke-width="2.0"/>
<line x1="255.1" y1="280.4" x2="199.0" y2="248.1" stroke="rgb(0,0,0)"  stroke-width="2.0"/>
<line x1="253.0" y1="284.0" x2="196.9" y2="251.7" stroke="rgb(0,0,0)"  stroke-width="2.0"/>
<line x1="257.2" y1="276.7" x2="201.1" y2="244.5" stroke="rgb(0,0,0)"  stroke-width="2.0"/>
<line x1="255.1" y1="280.4" x2="295.8" y2="302.0" stroke="rgb(0,0,0)"  stroke-width="2.0"/>
<line x1="251.4" y1="233.6" x2="251.9" y2="184.0" stroke="rgb(0,0,0)"  stroke-width="2.0"/>
<line x1="257.4" y1="233.7" x2="257.9" y2="184.1" stroke="rgb(0,0,0)"  stroke-width="2.0"/>
<line x1="174.6" y1="185.3" x2="156.1" y2="195.9" stroke="rgb(0,0,0)"  stroke-width="2.0"/>
<line x1="173.7" y1="231.5" x2="154.9" y2="241.4" stroke="rgb(0,0,0)"  stroke-width="2.0"/>
<line x1="173.7" y1="231.5" x2="172.7" y2="252.8" stroke="rgb(0,0,0)"  stroke-width="2.0"/>
<line x1="132.2" y1="161.7" x2="114.9" y2="171.7" stroke="rgb(0,0,0)"  stroke-width="2.0"/>
<line x1="113.2" y1="72.3" x2="134.1" y2="68.4" stroke="rgb(0,0,0)"  stroke-width="2.0"/>
<line x1="113.2" y1="72.3" x2="99.4" y2="56.2" stroke="rgb(0,0,0)"  stroke-width="2.0"/>
<line x1="113.2" y1="72.3" x2="120.3" y2="52.3" stroke="rgb(0,0,0)"  stroke-width="2.0"/>
<line x1="72.3" y1="91.9" x2="68.4" y2="71.0" stroke="rgb(0,0,0)"  stroke-width="2.0"/>
<line x1="72.3" y1="91.9" x2="56.2" y2="105.8" stroke="rgb(0,0,0)"  stroke-width="2.0"/>
<line x1="72.3" y1="91.9" x2="52.3" y2="84.8" stroke="rgb(0,0,0)"  stroke-width="2.0"/>
<line x1="91.9" y1="132.8" x2="71.0" y2="136.7" stroke="rgb(0,0,0)"  stroke-width="2.0"/>
<line x1="91.9" y1="132.8" x2="105.8" y2="148.9" stroke="rgb(0,0,0)"  stroke-width="2.0"/>
<line x1="91.9" y1="132.8" x2="84.8" y2="152.9" stroke="rgb(0,0,0)"  stroke-width="2.0"/>
<line x1="214.5" y1="113.3" x2="231.7" y2="103.1" stroke="rgb(0,0,0)"  stroke-width="2.0"/>
<polygon points="214.011742 161.651410 231.811033 146.589603 235.854488 153.492535 " stroke-width="2.000000" fill="rgb(0,0,0)"  stroke="rgb(0,0,0)" />
<line x1="334.9" y1="133.6" x2="316.9" y2="122.2" stroke="rgb(0,0,0)"  stroke-width="2.0"/>
<line x1="334.9" y1="133.6" x2="316.4" y2="143.9" stroke="rgb(0,0,0)"  stroke-width="2.0"/>
<line x1="295.8" y1="302.0" x2="295.8" y2="322.1" stroke="rgb(0,0,0)"  stroke-width="2.0"/>
<line x1="336.3" y1="280.3" x2="353.5" y2="290.6" stroke="rgb(0,0,0)"  stroke-width="2.0"/>
<line x1="254.9" y1="184.1" x2="272.2" y2="173.9" stroke="rgb(0,0,0)"  stroke-width="2.0"/>
<line x1="254.4" y1="233.6" x2="236.9" y2="243.5" stroke="rgb(0,0,0)"  stroke-width="2.0"/>
<line x1="254.4" y1="233.6" x2="271.6" y2="243.8" stroke="rgb(0,0,0)"  stroke-width="2.0"/>
<line x1="132.2" y1="161.7" x2="132.8" y2="113.2" stroke="rgb(0,0,0)"  stroke-width="2.0"/>
<line x1="139.5" y1="155.7" x2="139.9" y2="119.3" stroke="rgb(0,0,0)"  stroke-width="2.0"/>
<line x1="132.8" y1="113.2" x2="173.1" y2="91.2" stroke="rgb(0,0,0)"  stroke-width="2.0"/>
<line x1="173.1" y1="91.2" x2="214.5" y2="113.3" stroke="rgb(0,0,0)"  stroke-width="2.0"/>
<line x1="175.0" y1="100.4" x2="205.8" y2="116.9" stroke="rgb(0,0,0)"  stroke-width="2.0"/>
<line x1="214.5" y1="113.3" x2="214.0" y2="161.7" stroke="rgb(0,0,0)"  stroke-width="2.0"/>
<line x1="214.0" y1="161.7" x2="174.6" y2="185.3" stroke="rgb(0,0,0)"  stroke-width="2.0"/>
<line x1="174.6" y1="185.3" x2="132.2" y2="161.7" stroke="rgb(0,0,0)"  stroke-width="2.0"/>
<text x="96.555784" y="110.555784" fill="rgb(127,153,153)"  stroke="rgb(127,153,153)" stroke-width="1" font-size="16" >Si</text>
<text x="225.128742" y="51.021179" fill="rgb(17,127,178)"  stroke="rgb(17,127,178)" stroke-width="1" font-size="16" >Xx</text>
<text x="382.648720" y="116.390688" fill="rgb(255,12,12)"  stroke="rgb(255,12,12)" stroke-width="1" font-size="16" >O</text>
<text x="408.141579" y="134.170964" fill="rgb(191,191,191)"  stroke="rgb(191,191,191)" stroke-width="1" font-size="16" >H</text>
<text x="138.834206" y="210.365074" fill="rgb(191,191,191)"  stroke="rgb(191,191,191)" stroke-width="1" font-size="16" >H</text>
<text x="137.379586" y="255.497203" fill="rgb(191,191,191)"  stroke="rgb(191,191,191)" stroke-width="1" font-size="16" >H</text>
<text x="166.064777" y="273.743358" fill="rgb(191,191,191)"  stroke="rgb(191,191,191)" stroke-width="1" font-size="16" >H</text>
<text x="97.638921" y="186.231856" fill="rgb(191,191,191)"  stroke="rgb(191,191,191)" stroke-width="1" font-size="16" >H</text>
<text x="140.904727" y="74.035651" fill="rgb(191,191,191)"  stroke="rgb(191,191,191)" stroke-width="1" font-size="16" >H</text>
<text x="84.895945" y="54.301034" fill="rgb(191,191,191)"  stroke="rgb(191,191,191)" stroke-width="1" font-size="16" >H</text>
<text x="118.597229" y="48.000000" fill="rgb(191,191,191)"  stroke="rgb(191,191,191)" stroke-width="1" font-size="16" >H</text>
<text x="60.035651" y="66.206842" fill="rgb(191,191,191)"  stroke="rgb(191,191,191)" stroke-width="1" font-size="16" >H</text>
<text x="40.301034" y="122.215623" fill="rgb(191,191,191)"  stroke="rgb(191,191,191)" stroke-width="1" font-size="16" >H</text>
<text x="34.000000" y="88.514339" fill="rgb(191,191,191)"  stroke="rgb(191,191,191)" stroke-width="1" font-size="16" >H</text>
<text x="52.207051" y="147.080241" fill="rgb(191,191,191)"  stroke="rgb(191,191,191)" stroke-width="1" font-size="16" >H</text>
<text x="108.216488" y="166.812998" fill="rgb(191,191,191)"  stroke="rgb(191,191,191)" stroke-width="1" font-size="16" >H</text>
<text x="74.515413" y="173.115151" fill="rgb(191,191,191)"  stroke="rgb(191,191,191)" stroke-width="1" font-size="16" >H</text>
<text x="236.909147" y="104.460098" fill="rgb(191,191,191)"  stroke="rgb(191,191,191)" stroke-width="1" font-size="16" >H</text>
<text x="237.595352" y="152.322543" fill="rgb(191,191,191)"  stroke="rgb(191,191,191)" stroke-width="1" font-size="16" >H</text>
<text x="299.919276" y="123.298003" fill="rgb(191,191,191)"  stroke="rgb(191,191,191)" stroke-width="1" font-size="16" >H</text>
<text x="298.998985" y="158.270475" fill="rgb(191,191,191)"  stroke="rgb(191,191,191)" stroke-width="1" font-size="16" >H</text>
<text x="289.810797" y="343.061139" fill="rgb(191,191,191)"  stroke="rgb(191,191,191)" stroke-width="1" font-size="16" >H</text>
<text x="358.724192" y="305.221774" fill="rgb(191,191,191)"  stroke="rgb(191,191,191)" stroke-width="1" font-size="16" >H</text>
<text x="277.411146" y="175.349118" fill="rgb(191,191,191)"  stroke="rgb(191,191,191)" stroke-width="1" font-size="16" >H</text>
<text x="219.556772" y="257.860272" fill="rgb(191,191,191)"  stroke="rgb(191,191,191)" stroke-width="1" font-size="16" >H</text>
<text x="276.828615" y="258.448909" fill="rgb(191,191,191)"  stroke="rgb(191,191,191)" stroke-width="1" font-size="16" >H</text>
</svg>
</g>
<text font-size="18.000000" fill ="black" font-family="sans-serif"
x="10.000000" y="20.000000" ></text>
</svg>
