<?xml version="1.0"?>
<svg version="1.1" id="topsvg"
xmlns="http://www.w3.org/2000/svg" xmlns:xlink="http://www.w3.org/1999/xlink"
xmlns:cml="http://www.xml-cml.org/schema" x="0" y="0" width="200px" height="200px" viewBox="0 0 100 100">
<title> - Open Babel Depiction</title>
<rect x="0" y="0" width="100" height="100" fill="white"/>
<g transform="translate(0,0)">
<svg width="100" height="100" x="0" y="0" viewBox="0 0 429.027 404.057"
font-family="sans-serif" stroke="rgb(0,0,0)" stroke-width="2"  stroke-linecap="round">
<line x1="180.3" y1="268.0" x2="194.7" y2="234.6" stroke="rgb(0,0,0)"  stroke-width="2.0"/>
<line x1="180.3" y1="268.0" x2="145.5" y2="295.4" stroke="rgb(0,0,0)"  stroke-width="2.0"/>
<line x1="180.3" y1="268.0" x2="196.6" y2="280.6" stroke="rgb(0,0,0)"  stroke-width="2.0"/>
<line x1="180.3" y1="268.0" x2="180.4" y2="288.6" stroke="rgb(0,0,0)"  stroke-width="2.0"/>
<line x1="194.7" y1="234.6" x2="214.8" y2="239.2" stroke="rgb(0,0,0)"  stroke-width="2.0"/>
<line x1="194.7" y1="234.6" x2="211.0" y2="222.1" stroke="rgb(0,0,0)"  stroke-width="2.0"/>
<line x1="189.1" y1="186.9" x2="195.6" y2="211.2" stroke="rgb(0,0,0)"  stroke-width="2.0"/>
<line x1="195.6" y1="211.2" x2="194.7" y2="234.6" stroke="rgb(0,0,0)"  stroke-width="2.0"/>
<line x1="195.6" y1="211.2" x2="216.1" y2="208.9" stroke="rgb(0,0,0)"  stroke-width="2.0"/>
<line x1="195.6" y1="211.2" x2="210.7" y2="225.2" stroke="rgb(0,0,0)"  stroke-width="2.0"/>
<line x1="145.5" y1="295.4" x2="126.4" y2="287.7" stroke="rgb(0,0,0)"  stroke-width="2.0"/>
<line x1="145.5" y1="295.4" x2="148.4" y2="315.7" stroke="rgb(0,0,0)"  stroke-width="2.0"/>
<line x1="145.5" y1="295.4" x2="129.3" y2="308.1" stroke="rgb(0,0,0)"  stroke-width="2.0"/>
<line x1="68.8" y1="230.3" x2="104.9" y2="198.6" stroke="rgb(0,0,0)"  stroke-width="2.0"/>
<line x1="72.8" y1="234.8" x2="108.9" y2="203.1" stroke="rgb(0,0,0)"  stroke-width="2.0"/>
<line x1="70.8" y1="232.5" x2="52.4" y2="226.6" stroke="rgb(0,0,0)"  stroke-width="2.0"/>
<line x1="151.1" y1="160.4" x2="104.5" y2="154.7" stroke="rgb(0,0,0)"  stroke-width="2.0"/>
<line x1="165.5" y1="159.6" x2="165.5" y2="161.2" stroke="rgb(0,0,0)"  stroke-width="1.0"/>
<line x1="177.0" y1="159.0" x2="177.0" y2="161.9" stroke="rgb(0,0,0)"  stroke-width="1.0"/>
<line x1="188.5" y1="158.4" x2="188.5" y2="162.6" stroke="rgb(0,0,0)"  stroke-width="1.0"/>
<line x1="200.0" y1="157.8" x2="200.0" y2="163.3" stroke="rgb(0,0,0)"  stroke-width="1.0"/>
<line x1="211.5" y1="157.2" x2="211.5" y2="164.0" stroke="rgb(0,0,0)"  stroke-width="1.0"/>
<line x1="223.0" y1="156.6" x2="223.0" y2="164.6" stroke="rgb(0,0,0)"  stroke-width="1.0"/>
<line x1="129.3" y1="118.3" x2="109.4" y2="113.1" stroke="rgb(0,0,0)"  stroke-width="2.0"/>
<line x1="129.3" y1="118.3" x2="125.9" y2="98.0" stroke="rgb(0,0,0)"  stroke-width="2.0"/>
<line x1="169.7" y1="52.8" x2="171.8" y2="91.9" stroke="rgb(0,0,0)"  stroke-width="2.0"/>
<line x1="163.7" y1="53.1" x2="165.8" y2="92.2" stroke="rgb(0,0,0)"  stroke-width="2.0"/>
<line x1="194.2" y1="134.4" x2="223.9" y2="115.1" stroke="rgb(0,0,0)"  stroke-width="2.0"/>
<line x1="247.8" y1="108.3" x2="266.2" y2="108.6" stroke="rgb(0,0,0)"  stroke-width="2.0"/>
<line x1="324.8" y1="160.2" x2="332.4" y2="142.4" stroke="rgb(0,0,0)"  stroke-width="2.0"/>
<line x1="356.9" y1="193.1" x2="376.1" y2="195.7" stroke="rgb(0,0,0)"  stroke-width="2.0"/>
<line x1="116.6" y1="278.2" x2="81.5" y2="278.5" stroke="rgb(0,0,0)"  stroke-width="2.0"/>
<line x1="135.8" y1="289.6" x2="146.3" y2="308.7" stroke="rgb(0,0,0)"  stroke-width="2.0"/>
<line x1="81.5" y1="278.5" x2="70.8" y2="232.5" stroke="rgb(0,0,0)"  stroke-width="2.0"/>
<line x1="81.5" y1="278.5" x2="68.7" y2="294.6" stroke="rgb(0,0,0)"  stroke-width="2.0"/>
<line x1="81.5" y1="278.5" x2="61.4" y2="274.0" stroke="rgb(0,0,0)"  stroke-width="2.0"/>
<line x1="222.1" y1="216.2" x2="214.3" y2="235.2" stroke="rgb(0,0,0)"  stroke-width="2.0"/>
<line x1="222.1" y1="216.2" x2="233.1" y2="233.5" stroke="rgb(0,0,0)"  stroke-width="2.0"/>
<line x1="144.1" y1="330.0" x2="140.7" y2="334.1" stroke="rgb(0,0,0)"  stroke-width="2.0"/>
<line x1="119.5" y1="341.7" x2="101.4" y2="338.4" stroke="rgb(0,0,0)"  stroke-width="2.0"/>
<line x1="101.4" y1="338.4" x2="94.5" y2="319.1" stroke="rgb(0,0,0)"  stroke-width="2.0"/>
<line x1="101.4" y1="338.4" x2="88.1" y2="354.1" stroke="rgb(0,0,0)"  stroke-width="2.0"/>
<line x1="101.4" y1="338.4" x2="81.2" y2="334.8" stroke="rgb(0,0,0)"  stroke-width="2.0"/>
<line x1="268.8" y1="107.1" x2="277.7" y2="123.2" stroke="rgb(0,0,0)"  stroke-width="2.0"/>
<line x1="263.6" y1="110.1" x2="272.5" y2="126.1" stroke="rgb(0,0,0)"  stroke-width="2.0"/>
<line x1="266.2" y1="108.6" x2="275.7" y2="92.9" stroke="rgb(0,0,0)"  stroke-width="2.0"/>
<line x1="295.4" y1="81.9" x2="313.7" y2="82.3" stroke="rgb(0,0,0)"  stroke-width="2.0"/>
<line x1="313.7" y1="82.3" x2="323.7" y2="100.3" stroke="rgb(0,0,0)"  stroke-width="2.0"/>
<line x1="313.7" y1="82.3" x2="324.3" y2="64.6" stroke="rgb(0,0,0)"  stroke-width="2.0"/>
<line x1="313.7" y1="82.3" x2="334.3" y2="82.6" stroke="rgb(0,0,0)"  stroke-width="2.0"/>
<line x1="233.7" y1="73.6" x2="234.4" y2="95.1" stroke="rgb(0,0,0)"  stroke-width="2.0"/>
<polygon points="222.974156 160.645368 216.490339 182.548865 209.335520 178.969960 " stroke-width="2.000000" fill="rgb(0,0,0)"  stroke="rgb(0,0,0)" />
<line x1="86.5" y1="141.2" x2="84.8" y2="137.1" stroke="rgb(0,0,0)"  stroke-width="2.0"/>
<line x1="151.1" y1="160.4" x2="106.9" y2="200.8" stroke="rgb(0,0,0)"  stroke-width="2.0"/>
<line x1="106.9" y1="200.8" x2="189.1" y2="186.9" stroke="rgb(0,0,0)"  stroke-width="2.0"/>
<line x1="189.1" y1="186.9" x2="194.2" y2="134.4" stroke="rgb(0,0,0)"  stroke-width="2.0"/>
<line x1="182.5" y1="180.3" x2="186.5" y2="139.7" stroke="rgb(0,0,0)"  stroke-width="2.0"/>
<line x1="194.2" y1="134.4" x2="168.8" y2="92.1" stroke="rgb(0,0,0)"  stroke-width="2.0"/>
<line x1="168.8" y1="92.1" x2="129.3" y2="118.3" stroke="rgb(0,0,0)"  stroke-width="2.0"/>
<line x1="129.3" y1="118.3" x2="151.1" y2="160.4" stroke="rgb(0,0,0)"  stroke-width="2.0"/>
<line x1="266.5" y1="218.3" x2="223.0" y2="160.6" stroke="rgb(0,0,0)"  stroke-width="2.0"/>
<line x1="223.0" y1="160.6" x2="151.1" y2="160.4" stroke="rgb(0,0,0)"  stroke-width="2.0"/>
<line x1="189.1" y1="186.9" x2="222.1" y2="216.2" stroke="rgb(0,0,0)"  stroke-width="2.0"/>
<line x1="222.1" y1="216.2" x2="266.5" y2="218.3" stroke="rgb(0,0,0)"  stroke-width="2.0"/>
<line x1="324.8" y1="160.2" x2="298.7" y2="160.2" stroke="rgb(0,0,0)"  stroke-width="2.0"/>
<line x1="298.7" y1="160.2" x2="225.6" y2="160.4" stroke="rgb(0,0,0)"  stroke-width="2.0"/>
<line x1="298.7" y1="164.4" x2="225.6" y2="164.6" stroke="rgb(0,0,0)"  stroke-width="2.0"/>
<line x1="298.7" y1="156.0" x2="225.6" y2="156.2" stroke="rgb(0,0,0)"  stroke-width="2.0"/>
<line x1="225.6" y1="160.4" x2="223.0" y2="160.6" stroke="rgb(0,0,0)"  stroke-width="2.0"/>
<line x1="266.5" y1="218.3" x2="317.3" y2="216.2" stroke="rgb(0,0,0)"  stroke-width="2.0"/>
<line x1="266.3" y1="214.1" x2="317.1" y2="212.0" stroke="rgb(0,0,0)"  stroke-width="2.0"/>
<line x1="266.7" y1="222.5" x2="317.4" y2="220.3" stroke="rgb(0,0,0)"  stroke-width="2.0"/>
<line x1="317.3" y1="216.2" x2="356.9" y2="193.1" stroke="rgb(0,0,0)"  stroke-width="2.0"/>
<line x1="356.9" y1="193.1" x2="324.8" y2="160.2" stroke="rgb(0,0,0)"  stroke-width="2.0"/>
<line x1="347.6" y1="193.8" x2="323.9" y2="169.5" stroke="rgb(0,0,0)"  stroke-width="2.0"/>
<text x="159.990794" y="48.000000" fill="rgb(255,12,12)"  stroke="rgb(255,12,12)" stroke-width="1" font-size="16" >O</text>
<text x="228.825691" y="116.044377" fill="rgb(12,12,255)"  stroke="rgb(12,12,255)" stroke-width="1" font-size="16" >N</text>
<text x="123.595475" y="286.156887" fill="rgb(178,178,0)"  stroke="rgb(178,178,0)" stroke-width="1" font-size="16" >S</text>
<text x="146.539395" y="328.088987" fill="rgb(178,178,0)"  stroke="rgb(178,178,0)" stroke-width="1" font-size="16" >S</text>
<text x="126.268187" y="352.030469" fill="rgb(178,178,0)"  stroke="rgb(178,178,0)" stroke-width="1" font-size="16" >S</text>
<text x="275.397394" y="144.038845" fill="rgb(255,12,12)"  stroke="rgb(255,12,12)" stroke-width="1" font-size="16" >O</text>
<text x="276.354175" y="89.712511" fill="rgb(255,12,12)"  stroke="rgb(255,12,12)" stroke-width="1" font-size="16" >O</text>
<text x="227.244650" y="68.572358" fill="rgb(191,191,191)"  stroke="rgb(191,191,191)" stroke-width="1" font-size="16" >H</text>
<text x="85.615978" y="161.144833" fill="rgb(255,12,12)"  stroke="rgb(255,12,12)" stroke-width="1" font-size="16" >O</text>
<text x="73.701703" y="133.147228" fill="rgb(191,191,191)"  stroke="rgb(191,191,191)" stroke-width="1" font-size="16" >H</text>
<text x="200.906510" y="296.483847" fill="rgb(191,191,191)"  stroke="rgb(191,191,191)" stroke-width="1" font-size="16" >H</text>
<text x="174.474261" y="309.574492" fill="rgb(191,191,191)"  stroke="rgb(191,191,191)" stroke-width="1" font-size="16" >H</text>
<text x="221.434951" y="250.072130" fill="rgb(191,191,191)"  stroke="rgb(191,191,191)" stroke-width="1" font-size="16" >H</text>
<text x="215.339786" y="222.218826" fill="rgb(191,191,191)"  stroke="rgb(191,191,191)" stroke-width="1" font-size="16" >H</text>
<text x="222.981485" y="215.446072" fill="rgb(191,191,191)"  stroke="rgb(191,191,191)" stroke-width="1" font-size="16" >H</text>
<text x="214.204196" y="242.047718" fill="rgb(191,191,191)"  stroke="rgb(191,191,191)" stroke-width="1" font-size="16" >H</text>
<text x="108.324624" y="290.878052" fill="rgb(191,191,191)"  stroke="rgb(191,191,191)" stroke-width="1" font-size="16" >H</text>
<text x="144.243121" y="336.596495" fill="rgb(191,191,191)"  stroke="rgb(191,191,191)" stroke-width="1" font-size="16" >H</text>
<text x="113.086570" y="324.105014" fill="rgb(191,191,191)"  stroke="rgb(191,191,191)" stroke-width="1" font-size="16" >H</text>
<text x="34.000000" y="230.607128" fill="rgb(191,191,191)"  stroke="rgb(191,191,191)" stroke-width="1" font-size="16" >H</text>
<text x="90.832787" y="117.879514" fill="rgb(191,191,191)"  stroke="rgb(191,191,191)" stroke-width="1" font-size="16" >H</text>
<text x="117.751269" y="93.182018" fill="rgb(191,191,191)"  stroke="rgb(191,191,191)" stroke-width="1" font-size="16" >H</text>
<text x="331.423975" y="138.385995" fill="rgb(191,191,191)"  stroke="rgb(191,191,191)" stroke-width="1" font-size="16" >H</text>
<text x="383.027405" y="205.420263" fill="rgb(191,191,191)"  stroke="rgb(191,191,191)" stroke-width="1" font-size="16" >H</text>
<text x="54.669605" y="312.796178" fill="rgb(191,191,191)"  stroke="rgb(191,191,191)" stroke-width="1" font-size="16" >H</text>
<text x="42.714549" y="279.117489" fill="rgb(191,191,191)"  stroke="rgb(191,191,191)" stroke-width="1" font-size="16" >H</text>
<text x="203.397277" y="255.288939" fill="rgb(191,191,191)"  stroke="rgb(191,191,191)" stroke-width="1" font-size="16" >H</text>
<text x="234.124061" y="252.493884" fill="rgb(191,191,191)"  stroke="rgb(191,191,191)" stroke-width="1" font-size="16" >H</text>
<text x="84.063169" y="314.850904" fill="rgb(191,191,191)"  stroke="rgb(191,191,191)" stroke-width="1" font-size="16" >H</text>
<text x="73.707977" y="372.056992" fill="rgb(191,191,191)"  stroke="rgb(191,191,191)" stroke-width="1" font-size="16" >H</text>
<text x="62.370907" y="340.464400" fill="rgb(191,191,191)"  stroke="rgb(191,191,191)" stroke-width="1" font-size="16" >H</text>
<text x="323.986180" y="119.623678" fill="rgb(191,191,191)"  stroke="rgb(191,191,191)" stroke-width="1" font-size="16" >H</text>
<text x="325.008838" y="61.495316" fill="rgb(191,191,191)"  stroke="rgb(191,191,191)" stroke-width="1" font-size="16" >H</text>
<text x="341.277250" y="90.854374" fill="rgb(191,191,191)"  stroke="rgb(191,191,191)" stroke-width="1" font-size="16" >H</text>
<text x="201.957401" y="198.666330" fill="rgb(191,191,191)"  stroke="rgb(191,191,191)" stroke-width="1" font-size="16" >H</text>
</svg>
</g>
<text font-size="18.000000" fill ="black" font-family="sans-serif"
x="10.000000" y="20.000000" ></text>
</svg>
