<?xml version="1.0"?>
<svg version="1.1" id="topsvg"
xmlns="http://www.w3.org/2000/svg" xmlns:xlink="http://www.w3.org/1999/xlink"
xmlns:cml="http://www.xml-cml.org/schema" x="0" y="0" width="200px" height="200px" viewBox="0 0 100 100">
<title> - Open Babel Depiction</title>
<rect x="0" y="0" width="100" height="100" fill="white"/>
<g transform="translate(0,0)">
<svg width="100" height="100" x="0" y="0" viewBox="0 0 546.034 440.975"
font-family="sans-serif" stroke="rgb(0,0,0)" stroke-width="2"  stroke-linecap="round">
<line x1="266.2" y1="293.0" x2="266.7" y2="224.0" stroke="rgb(0,0,0)"  stroke-width="2.0"/>
<line x1="262.0" y1="293.0" x2="262.5" y2="224.0" stroke="rgb(0,0,0)"  stroke-width="2.0"/>
<line x1="270.4" y1="293.0" x2="270.9" y2="224.0" stroke="rgb(0,0,0)"  stroke-width="2.0"/>
<line x1="266.2" y1="293.0" x2="265.8" y2="341.1" stroke="rgb(0,0,0)"  stroke-width="2.0"/>
<line x1="352.3" y1="340.7" x2="407.5" y2="308.0" stroke="rgb(0,0,0)"  stroke-width="2.0"/>
<line x1="350.1" y1="337.1" x2="405.3" y2="304.4" stroke="rgb(0,0,0)"  stroke-width="2.0"/>
<line x1="354.4" y1="344.3" x2="409.6" y2="311.6" stroke="rgb(0,0,0)"  stroke-width="2.0"/>
<line x1="267.3" y1="338.5" x2="310.6" y2="363.7" stroke="rgb(0,0,0)"  stroke-width="2.0"/>
<line x1="264.3" y1="343.7" x2="307.6" y2="368.9" stroke="rgb(0,0,0)"  stroke-width="2.0"/>
<line x1="265.8" y1="341.1" x2="247.0" y2="351.8" stroke="rgb(0,0,0)"  stroke-width="2.0"/>
<line x1="309.1" y1="366.3" x2="352.3" y2="340.7" stroke="rgb(0,0,0)"  stroke-width="2.0"/>
<line x1="309.1" y1="366.3" x2="309.1" y2="388.0" stroke="rgb(0,0,0)"  stroke-width="2.0"/>
<line x1="133.9" y1="316.1" x2="134.0" y2="265.4" stroke="rgb(0,0,0)"  stroke-width="2.0"/>
<line x1="139.9" y1="316.1" x2="140.0" y2="265.4" stroke="rgb(0,0,0)"  stroke-width="2.0"/>
<line x1="136.9" y1="316.1" x2="155.7" y2="326.8" stroke="rgb(0,0,0)"  stroke-width="2.0"/>
<line x1="137.0" y1="265.4" x2="180.0" y2="240.4" stroke="rgb(0,0,0)"  stroke-width="2.0"/>
<line x1="137.0" y1="265.4" x2="118.2" y2="254.6" stroke="rgb(0,0,0)"  stroke-width="2.0"/>
<line x1="181.5" y1="191.3" x2="180.0" y2="240.4" stroke="rgb(0,0,0)"  stroke-width="2.0"/>
<line x1="189.5" y1="185.6" x2="190.3" y2="186.9" stroke="rgb(0,0,0)"  stroke-width="1.0"/>
<line x1="195.8" y1="181.0" x2="197.3" y2="183.5" stroke="rgb(0,0,0)"  stroke-width="1.0"/>
<line x1="202.2" y1="176.4" x2="204.3" y2="180.0" stroke="rgb(0,0,0)"  stroke-width="1.0"/>
<line x1="208.5" y1="171.9" x2="211.3" y2="176.5" stroke="rgb(0,0,0)"  stroke-width="1.0"/>
<line x1="214.9" y1="167.3" x2="218.3" y2="173.1" stroke="rgb(0,0,0)"  stroke-width="1.0"/>
<line x1="221.2" y1="162.8" x2="225.3" y2="169.6" stroke="rgb(0,0,0)"  stroke-width="1.0"/>
<line x1="181.5" y1="191.3" x2="161.8" y2="202.9" stroke="rgb(0,0,0)"  stroke-width="2.0"/>
<line x1="180.0" y1="240.4" x2="199.7" y2="252.1" stroke="rgb(0,0,0)"  stroke-width="2.0"/>
<line x1="180.0" y1="240.4" x2="200.1" y2="229.4" stroke="rgb(0,0,0)"  stroke-width="2.0"/>
<line x1="136.4" y1="168.1" x2="117.8" y2="179.3" stroke="rgb(0,0,0)"  stroke-width="2.0"/>
<line x1="136.9" y1="116.8" x2="117.6" y2="109.8" stroke="rgb(0,0,0)"  stroke-width="2.0"/>
<line x1="109.8" y1="93.1" x2="116.8" y2="73.8" stroke="rgb(0,0,0)"  stroke-width="2.0"/>
<line x1="93.1" y1="101.0" x2="73.8" y2="94.0" stroke="rgb(0,0,0)"  stroke-width="2.0"/>
<line x1="101.0" y1="117.6" x2="94.0" y2="136.9" stroke="rgb(0,0,0)"  stroke-width="2.0"/>
<line x1="116.8" y1="73.8" x2="139.3" y2="69.7" stroke="rgb(0,0,0)"  stroke-width="2.0"/>
<line x1="116.8" y1="73.8" x2="102.0" y2="56.3" stroke="rgb(0,0,0)"  stroke-width="2.0"/>
<line x1="116.8" y1="73.8" x2="124.5" y2="52.2" stroke="rgb(0,0,0)"  stroke-width="2.0"/>
<line x1="73.8" y1="94.0" x2="69.7" y2="71.4" stroke="rgb(0,0,0)"  stroke-width="2.0"/>
<line x1="73.8" y1="94.0" x2="56.3" y2="108.8" stroke="rgb(0,0,0)"  stroke-width="2.0"/>
<line x1="73.8" y1="94.0" x2="52.2" y2="86.2" stroke="rgb(0,0,0)"  stroke-width="2.0"/>
<line x1="94.0" y1="136.9" x2="71.4" y2="141.0" stroke="rgb(0,0,0)"  stroke-width="2.0"/>
<line x1="94.0" y1="136.9" x2="108.8" y2="154.5" stroke="rgb(0,0,0)"  stroke-width="2.0"/>
<line x1="94.0" y1="136.9" x2="86.2" y2="158.5" stroke="rgb(0,0,0)"  stroke-width="2.0"/>
<line x1="182.8" y1="54.4" x2="185.0" y2="92.7" stroke="rgb(0,0,0)"  stroke-width="2.0"/>
<line x1="176.8" y1="54.8" x2="179.0" y2="93.0" stroke="rgb(0,0,0)"  stroke-width="2.0"/>
<line x1="223.6" y1="116.6" x2="243.4" y2="105.2" stroke="rgb(0,0,0)"  stroke-width="2.0"/>
<line x1="223.6" y1="116.6" x2="243.4" y2="128.1" stroke="rgb(0,0,0)"  stroke-width="2.0"/>
<line x1="223.3" y1="166.2" x2="267.3" y2="191.0" stroke="rgb(0,0,0)"  stroke-width="2.0"/>
<polygon points="223.287083 166.181704 227.626309 190.189109 219.627106 190.302005 " stroke-width="2.000000" fill="rgb(0,0,0)"  stroke="rgb(0,0,0)" />
<line x1="92.8" y1="342.4" x2="136.9" y2="316.1" stroke="rgb(0,0,0)"  stroke-width="2.0"/>
<line x1="92.8" y1="342.4" x2="72.8" y2="331.3" stroke="rgb(0,0,0)"  stroke-width="2.0"/>
<line x1="92.8" y1="342.4" x2="93.1" y2="365.3" stroke="rgb(0,0,0)"  stroke-width="2.0"/>
<line x1="92.8" y1="342.4" x2="73.1" y2="354.2" stroke="rgb(0,0,0)"  stroke-width="2.0"/>
<line x1="443.4" y1="310.6" x2="449.4" y2="330.3" stroke="rgb(0,0,0)"  stroke-width="2.0"/>
<line x1="452.0" y1="294.4" x2="471.7" y2="288.4" stroke="rgb(0,0,0)"  stroke-width="2.0"/>
<line x1="435.8" y1="285.8" x2="429.8" y2="266.1" stroke="rgb(0,0,0)"  stroke-width="2.0"/>
<line x1="427.1" y1="302.0" x2="407.5" y2="308.0" stroke="rgb(0,0,0)"  stroke-width="2.0"/>
<line x1="449.4" y1="330.3" x2="433.7" y2="347.1" stroke="rgb(0,0,0)"  stroke-width="2.0"/>
<line x1="449.4" y1="330.3" x2="471.7" y2="335.5" stroke="rgb(0,0,0)"  stroke-width="2.0"/>
<line x1="449.4" y1="330.3" x2="456.0" y2="352.2" stroke="rgb(0,0,0)"  stroke-width="2.0"/>
<line x1="471.7" y1="288.4" x2="488.4" y2="304.1" stroke="rgb(0,0,0)"  stroke-width="2.0"/>
<line x1="471.7" y1="288.4" x2="476.9" y2="266.1" stroke="rgb(0,0,0)"  stroke-width="2.0"/>
<line x1="471.7" y1="288.4" x2="493.6" y2="281.7" stroke="rgb(0,0,0)"  stroke-width="2.0"/>
<line x1="429.8" y1="266.1" x2="445.4" y2="249.3" stroke="rgb(0,0,0)"  stroke-width="2.0"/>
<line x1="429.8" y1="266.1" x2="407.4" y2="260.9" stroke="rgb(0,0,0)"  stroke-width="2.0"/>
<line x1="429.8" y1="266.1" x2="423.1" y2="244.2" stroke="rgb(0,0,0)"  stroke-width="2.0"/>
<line x1="267.3" y1="191.0" x2="266.7" y2="224.0" stroke="rgb(0,0,0)"  stroke-width="2.0"/>
<line x1="267.3" y1="191.0" x2="287.2" y2="179.6" stroke="rgb(0,0,0)"  stroke-width="2.0"/>
<line x1="267.3" y1="191.0" x2="287.0" y2="202.6" stroke="rgb(0,0,0)"  stroke-width="2.0"/>
<line x1="181.5" y1="191.3" x2="136.4" y2="168.1" stroke="rgb(0,0,0)"  stroke-width="2.0"/>
<line x1="136.4" y1="168.1" x2="136.9" y2="116.8" stroke="rgb(0,0,0)"  stroke-width="2.0"/>
<line x1="143.6" y1="162.2" x2="144.1" y2="122.8" stroke="rgb(0,0,0)"  stroke-width="2.0"/>
<line x1="136.9" y1="116.8" x2="182.0" y2="92.9" stroke="rgb(0,0,0)"  stroke-width="2.0"/>
<line x1="182.0" y1="92.9" x2="223.6" y2="116.6" stroke="rgb(0,0,0)"  stroke-width="2.0"/>
<line x1="223.6" y1="116.6" x2="223.3" y2="166.2" stroke="rgb(0,0,0)"  stroke-width="2.0"/>
<line x1="223.3" y1="166.2" x2="181.5" y2="191.3" stroke="rgb(0,0,0)"  stroke-width="2.0"/>
<text x="99.363519" y="113.366876" fill="rgb(127,153,153)"  stroke="rgb(127,153,153)" stroke-width="1" font-size="16" >Si</text>
<text x="172.995250" y="49.628129" fill="rgb(255,12,12)"  stroke="rgb(255,12,12)" stroke-width="1" font-size="16" >O</text>
<text x="433.563088" y="306.211246" fill="rgb(127,153,153)"  stroke="rgb(127,153,153)" stroke-width="1" font-size="16" >Si</text>
<text x="229.717934" y="366.277471" fill="rgb(191,191,191)"  stroke="rgb(191,191,191)" stroke-width="1" font-size="16" >H</text>
<text x="303.195245" y="408.974743" fill="rgb(191,191,191)"  stroke="rgb(191,191,191)" stroke-width="1" font-size="16" >H</text>
<text x="161.007518" y="341.180780" fill="rgb(191,191,191)"  stroke="rgb(191,191,191)" stroke-width="1" font-size="16" >H</text>
<text x="100.948008" y="256.158857" fill="rgb(191,191,191)"  stroke="rgb(191,191,191)" stroke-width="1" font-size="16" >H</text>
<text x="144.578518" y="217.493302" fill="rgb(191,191,191)"  stroke="rgb(191,191,191)" stroke-width="1" font-size="16" >H</text>
<text x="204.819305" y="266.760161" fill="rgb(191,191,191)"  stroke="rgb(191,191,191)" stroke-width="1" font-size="16" >H</text>
<text x="205.470556" y="231.129305" fill="rgb(191,191,191)"  stroke="rgb(191,191,191)" stroke-width="1" font-size="16" >H</text>
<text x="100.709663" y="193.974386" fill="rgb(191,191,191)"  stroke="rgb(191,191,191)" stroke-width="1" font-size="16" >H</text>
<text x="146.109295" y="75.446568" fill="rgb(191,191,191)"  stroke="rgb(191,191,191)" stroke-width="1" font-size="16" >H</text>
<text x="87.583919" y="54.337955" fill="rgb(191,191,191)"  stroke="rgb(191,191,191)" stroke-width="1" font-size="16" >H</text>
<text x="122.939504" y="48.000000" fill="rgb(191,191,191)"  stroke="rgb(191,191,191)" stroke-width="1" font-size="16" >H</text>
<text x="61.449925" y="66.621100" fill="rgb(191,191,191)"  stroke="rgb(191,191,191)" stroke-width="1" font-size="16" >H</text>
<text x="40.337955" y="125.143119" fill="rgb(191,191,191)"  stroke="rgb(191,191,191)" stroke-width="1" font-size="16" >H</text>
<text x="34.000000" y="89.787535" fill="rgb(191,191,191)"  stroke="rgb(191,191,191)" stroke-width="1" font-size="16" >H</text>
<text x="52.621100" y="151.290541" fill="rgb(191,191,191)"  stroke="rgb(191,191,191)" stroke-width="1" font-size="16" >H</text>
<text x="111.146476" y="172.392440" fill="rgb(191,191,191)"  stroke="rgb(191,191,191)" stroke-width="1" font-size="16" >H</text>
<text x="75.794249" y="178.737110" fill="rgb(191,191,191)"  stroke="rgb(191,191,191)" stroke-width="1" font-size="16" >H</text>
<text x="248.674731" y="106.693224" fill="rgb(191,191,191)"  stroke="rgb(191,191,191)" stroke-width="1" font-size="16" >H</text>
<text x="248.604235" y="142.683276" fill="rgb(191,191,191)"  stroke="rgb(191,191,191)" stroke-width="1" font-size="16" >H</text>
<text x="217.793985" y="210.097902" fill="rgb(191,191,191)"  stroke="rgb(191,191,191)" stroke-width="1" font-size="16" >H</text>
<text x="55.420811" y="332.929353" fill="rgb(191,191,191)"  stroke="rgb(191,191,191)" stroke-width="1" font-size="16" >H</text>
<text x="87.338861" y="386.331996" fill="rgb(191,191,191)"  stroke="rgb(191,191,191)" stroke-width="1" font-size="16" >H</text>
<text x="55.964640" y="368.845551" fill="rgb(191,191,191)"  stroke="rgb(191,191,191)" stroke-width="1" font-size="16" >H</text>
<text x="418.832713" y="364.572131" fill="rgb(191,191,191)"  stroke="rgb(191,191,191)" stroke-width="1" font-size="16" >H</text>
<text x="478.345038" y="346.427720" fill="rgb(191,191,191)"  stroke="rgb(191,191,191)" stroke-width="1" font-size="16" >H</text>
<text x="453.825745" y="372.679208" fill="rgb(191,191,191)"  stroke="rgb(191,191,191)" stroke-width="1" font-size="16" >H</text>
<text x="491.923972" y="320.941621" fill="rgb(191,191,191)"  stroke="rgb(191,191,191)" stroke-width="1" font-size="16" >H</text>
<text x="473.786276" y="261.429296" fill="rgb(191,191,191)"  stroke="rgb(191,191,191)" stroke-width="1" font-size="16" >H</text>
<text x="500.034407" y="285.948589" fill="rgb(191,191,191)"  stroke="rgb(191,191,191)" stroke-width="1" font-size="16" >H</text>
<text x="448.300176" y="247.850362" fill="rgb(191,191,191)"  stroke="rgb(191,191,191)" stroke-width="1" font-size="16" >H</text>
<text x="388.784495" y="265.984702" fill="rgb(191,191,191)"  stroke="rgb(191,191,191)" stroke-width="1" font-size="16" >H</text>
<text x="413.307144" y="239.739928" fill="rgb(191,191,191)"  stroke="rgb(191,191,191)" stroke-width="1" font-size="16" >H</text>
<text x="292.452948" y="181.083630" fill="rgb(191,191,191)"  stroke="rgb(191,191,191)" stroke-width="1" font-size="16" >H</text>
<text x="292.224674" y="217.218031" fill="rgb(191,191,191)"  stroke="rgb(191,191,191)" stroke-width="1" font-size="16" >H</text>
</svg>
</g>
<text font-size="18.000000" fill ="black" font-family="sans-serif"
x="10.000000" y="20.000000" ></text>
</svg>
