<?xml version="1.0"?>
<svg version="1.1" id="topsvg"
xmlns="http://www.w3.org/2000/svg" xmlns:xlink="http://www.w3.org/1999/xlink"
xmlns:cml="http://www.xml-cml.org/schema" x="0" y="0" width="200px" height="200px" viewBox="0 0 100 100">
<title> - Open Babel Depiction</title>
<rect x="0" y="0" width="100" height="100" fill="white"/>
<g transform="translate(0,0)">
<svg width="100" height="100" x="0" y="0" viewBox="0 0 300.95 332.389"
font-family="sans-serif" stroke="rgb(0,0,0)" stroke-width="2"  stroke-linecap="round">
<line x1="231.3" y1="257.2" x2="190.3" y2="238.6" stroke="rgb(0,0,0)"  stroke-width="2.0"/>
<line x1="244.4" y1="275.5" x2="244.8" y2="279.5" stroke="rgb(0,0,0)"  stroke-width="2.0"/>
<line x1="190.3" y1="238.6" x2="173.3" y2="249.4" stroke="rgb(0,0,0)"  stroke-width="2.0"/>
<line x1="190.3" y1="238.6" x2="172.8" y2="228.8" stroke="rgb(0,0,0)"  stroke-width="2.0"/>
<line x1="70.0" y1="166.4" x2="79.9" y2="183.9" stroke="rgb(0,0,0)"  stroke-width="2.0"/>
<line x1="68.9" y1="120.2" x2="51.3" y2="110.3" stroke="rgb(0,0,0)"  stroke-width="2.0"/>
<line x1="68.9" y1="120.2" x2="68.8" y2="100.0" stroke="rgb(0,0,0)"  stroke-width="2.0"/>
<line x1="109.5" y1="96.8" x2="108.9" y2="76.7" stroke="rgb(0,0,0)"  stroke-width="2.0"/>
<line x1="109.5" y1="96.8" x2="126.4" y2="86.0" stroke="rgb(0,0,0)"  stroke-width="2.0"/>
<line x1="149.9" y1="117.1" x2="150.2" y2="73.1" stroke="rgb(0,0,0)"  stroke-width="2.0"/>
<polygon points="149.870342 117.119636 154.525945 167.373931 146.526625 167.478234 " stroke-width="2.000000" fill="rgb(0,0,0)"  stroke="rgb(0,0,0)" />
<line x1="150.2" y1="73.1" x2="167.7" y2="63.2" stroke="rgb(0,0,0)"  stroke-width="2.0"/>
<line x1="150.2" y1="73.1" x2="132.9" y2="62.9" stroke="rgb(0,0,0)"  stroke-width="2.0"/>
<line x1="150.2" y1="73.1" x2="150.4" y2="53.0" stroke="rgb(0,0,0)"  stroke-width="2.0"/>
<line x1="232.4" y1="120.4" x2="249.7" y2="110.2" stroke="rgb(0,0,0)"  stroke-width="2.0"/>
<line x1="232.4" y1="120.4" x2="232.2" y2="100.3" stroke="rgb(0,0,0)"  stroke-width="2.0"/>
<line x1="232.5" y1="168.9" x2="249.7" y2="179.2" stroke="rgb(0,0,0)"  stroke-width="2.0"/>
<line x1="232.5" y1="168.9" x2="231.9" y2="189.0" stroke="rgb(0,0,0)"  stroke-width="2.0"/>
<line x1="182.6" y1="186.7" x2="183.4" y2="185.3" stroke="rgb(0,0,0)"  stroke-width="1.0"/>
<line x1="175.8" y1="183.5" x2="177.2" y2="181.0" stroke="rgb(0,0,0)"  stroke-width="1.0"/>
<line x1="169.0" y1="180.4" x2="171.0" y2="176.8" stroke="rgb(0,0,0)"  stroke-width="1.0"/>
<line x1="162.2" y1="177.2" x2="164.9" y2="172.5" stroke="rgb(0,0,0)"  stroke-width="1.0"/>
<line x1="155.3" y1="174.1" x2="158.7" y2="168.2" stroke="rgb(0,0,0)"  stroke-width="1.0"/>
<line x1="148.5" y1="170.9" x2="152.5" y2="164.0" stroke="rgb(0,0,0)"  stroke-width="1.0"/>
<line x1="191.1" y1="190.7" x2="190.3" y2="238.6" stroke="rgb(0,0,0)"  stroke-width="2.0"/>
<line x1="191.1" y1="190.7" x2="191.4" y2="170.6" stroke="rgb(0,0,0)"  stroke-width="2.0"/>
<polygon points="150.526285 167.426082 111.525425 192.971472 107.732372 185.927840 " stroke-width="2.000000" fill="rgb(0,0,0)"  stroke="rgb(0,0,0)" />
<line x1="150.5" y1="167.4" x2="149.8" y2="201.5" stroke="rgb(0,0,0)"  stroke-width="2.0"/>
<line x1="109.6" y1="189.4" x2="110.0" y2="169.3" stroke="rgb(0,0,0)"  stroke-width="2.0"/>
<line x1="191.5" y1="97.1" x2="199.9" y2="62.8" stroke="rgb(0,0,0)"  stroke-width="2.0"/>
<line x1="183.5" y1="101.9" x2="182.8" y2="100.4" stroke="rgb(0,0,0)"  stroke-width="1.0"/>
<line x1="177.1" y1="105.6" x2="175.9" y2="103.0" stroke="rgb(0,0,0)"  stroke-width="1.0"/>
<line x1="170.7" y1="109.4" x2="168.9" y2="105.7" stroke="rgb(0,0,0)"  stroke-width="1.0"/>
<line x1="164.4" y1="113.2" x2="162.0" y2="108.3" stroke="rgb(0,0,0)"  stroke-width="1.0"/>
<line x1="158.0" y1="117.0" x2="155.1" y2="110.9" stroke="rgb(0,0,0)"  stroke-width="1.0"/>
<line x1="151.6" y1="120.7" x2="148.1" y2="113.5" stroke="rgb(0,0,0)"  stroke-width="1.0"/>
<line x1="191.5" y1="97.1" x2="175.9" y2="84.5" stroke="rgb(0,0,0)"  stroke-width="2.0"/>
<line x1="215.5" y1="46.5" x2="219.3" y2="45.4" stroke="rgb(0,0,0)"  stroke-width="2.0"/>
<line x1="80.3" y1="207.7" x2="109.6" y2="189.4" stroke="rgb(0,0,0)"  stroke-width="2.0"/>
<line x1="109.6" y1="189.4" x2="70.0" y2="166.4" stroke="rgb(0,0,0)"  stroke-width="2.0"/>
<line x1="70.0" y1="166.4" x2="69.5" y2="201.5" stroke="rgb(0,0,0)"  stroke-width="2.0"/>
<line x1="109.6" y1="189.4" x2="150.5" y2="167.4" stroke="rgb(0,0,0)"  stroke-width="2.0"/>
<line x1="150.5" y1="167.4" x2="149.9" y2="117.1" stroke="rgb(0,0,0)"  stroke-width="2.0"/>
<line x1="149.9" y1="117.1" x2="109.5" y2="96.8" stroke="rgb(0,0,0)"  stroke-width="2.0"/>
<line x1="109.5" y1="96.8" x2="68.9" y2="120.2" stroke="rgb(0,0,0)"  stroke-width="2.0"/>
<line x1="68.9" y1="120.2" x2="70.0" y2="166.4" stroke="rgb(0,0,0)"  stroke-width="2.0"/>
<line x1="232.4" y1="120.4" x2="191.5" y2="97.1" stroke="rgb(0,0,0)"  stroke-width="2.0"/>
<line x1="191.5" y1="97.1" x2="149.9" y2="117.1" stroke="rgb(0,0,0)"  stroke-width="2.0"/>
<line x1="150.5" y1="167.4" x2="191.1" y2="190.7" stroke="rgb(0,0,0)"  stroke-width="2.0"/>
<line x1="191.1" y1="190.7" x2="232.5" y2="168.9" stroke="rgb(0,0,0)"  stroke-width="2.0"/>
<line x1="232.5" y1="168.9" x2="232.4" y2="120.4" stroke="rgb(0,0,0)"  stroke-width="2.0"/>
<text x="237.100789" y="270.522252" fill="rgb(255,12,12)"  stroke="rgb(255,12,12)" stroke-width="1" font-size="16" >O</text>
<text x="63.257504" y="222.536356" fill="rgb(255,12,12)"  stroke="rgb(255,12,12)" stroke-width="1" font-size="16" >O</text>
<text x="196.983108" y="58.136166" fill="rgb(255,12,12)"  stroke="rgb(255,12,12)" stroke-width="1" font-size="16" >O</text>
<text x="143.492866" y="222.536356" fill="rgb(191,191,191)"  stroke="rgb(191,191,191)" stroke-width="1" font-size="16" >H</text>
<text x="240.046341" y="300.389287" fill="rgb(191,191,191)"  stroke="rgb(191,191,191)" stroke-width="1" font-size="16" >H</text>
<text x="225.798160" y="49.741960" fill="rgb(191,191,191)"  stroke="rgb(191,191,191)" stroke-width="1" font-size="16" >H</text>
<text x="156.317777" y="264.306270" fill="rgb(191,191,191)"  stroke="rgb(191,191,191)" stroke-width="1" font-size="16" >H</text>
<text x="155.423591" y="230.392194" fill="rgb(191,191,191)"  stroke="rgb(191,191,191)" stroke-width="1" font-size="16" >H</text>
<text x="80.318193" y="203.263409" fill="rgb(191,191,191)"  stroke="rgb(191,191,191)" stroke-width="1" font-size="16" >H</text>
<text x="34.000000" y="111.942002" fill="rgb(191,191,191)"  stroke="rgb(191,191,191)" stroke-width="1" font-size="16" >H</text>
<text x="62.700572" y="95.048393" fill="rgb(191,191,191)"  stroke="rgb(191,191,191)" stroke-width="1" font-size="16" >H</text>
<text x="102.527410" y="71.728405" fill="rgb(191,191,191)"  stroke="rgb(191,191,191)" stroke-width="1" font-size="16" >H</text>
<text x="131.388874" y="87.047134" fill="rgb(191,191,191)"  stroke="rgb(191,191,191)" stroke-width="1" font-size="16" >H</text>
<text x="173.038118" y="64.788411" fill="rgb(191,191,191)"  stroke="rgb(191,191,191)" stroke-width="1" font-size="16" >H</text>
<text x="115.698856" y="64.318113" fill="rgb(191,191,191)"  stroke="rgb(191,191,191)" stroke-width="1" font-size="16" >H</text>
<text x="144.504626" y="48.000000" fill="rgb(191,191,191)"  stroke="rgb(191,191,191)" stroke-width="1" font-size="16" >H</text>
<text x="254.950465" y="111.688289" fill="rgb(191,191,191)"  stroke="rgb(191,191,191)" stroke-width="1" font-size="16" >H</text>
<text x="226.166354" y="95.268072" fill="rgb(191,191,191)"  stroke="rgb(191,191,191)" stroke-width="1" font-size="16" >H</text>
<text x="254.845267" y="193.922419" fill="rgb(191,191,191)"  stroke="rgb(191,191,191)" stroke-width="1" font-size="16" >H</text>
<text x="225.535164" y="209.946595" fill="rgb(191,191,191)"  stroke="rgb(191,191,191)" stroke-width="1" font-size="16" >H</text>
<text x="185.674291" y="165.552912" fill="rgb(191,191,191)"  stroke="rgb(191,191,191)" stroke-width="1" font-size="16" >H</text>
<text x="104.170360" y="164.346226" fill="rgb(191,191,191)"  stroke="rgb(191,191,191)" stroke-width="1" font-size="16" >H</text>
<text x="159.761474" y="84.281037" fill="rgb(191,191,191)"  stroke="rgb(191,191,191)" stroke-width="1" font-size="16" >H</text>
</svg>
</g>
<text font-size="18.000000" fill ="black" font-family="sans-serif"
x="10.000000" y="20.000000" ></text>
</svg>
