<?xml version="1.0"?>
<svg version="1.1" id="topsvg"
xmlns="http://www.w3.org/2000/svg" xmlns:xlink="http://www.w3.org/1999/xlink"
xmlns:cml="http://www.xml-cml.org/schema" x="0" y="0" width="200px" height="200px" viewBox="0 0 100 100">
<title> - Open Babel Depiction</title>
<rect x="0" y="0" width="100" height="100" fill="white"/>
<g transform="translate(0,0)">
<svg width="100" height="100" x="0" y="0" viewBox="0 0 219.298 239.857"
font-family="sans-serif" stroke="rgb(0,0,0)" stroke-width="2"  stroke-linecap="round">
<line x1="68.6" y1="143.3" x2="51.4" y2="152.9" stroke="rgb(0,0,0)"  stroke-width="2.0"/>
<line x1="69.9" y1="95.3" x2="53.1" y2="85.1" stroke="rgb(0,0,0)"  stroke-width="2.0"/>
<line x1="109.8" y1="72.7" x2="109.7" y2="53.0" stroke="rgb(0,0,0)"  stroke-width="2.0"/>
<line x1="150.8" y1="95.5" x2="167.8" y2="85.5" stroke="rgb(0,0,0)"  stroke-width="2.0"/>
<line x1="151.0" y1="143.2" x2="168.0" y2="153.1" stroke="rgb(0,0,0)"  stroke-width="2.0"/>
<line x1="109.5" y1="167.2" x2="109.4" y2="186.9" stroke="rgb(0,0,0)"  stroke-width="2.0"/>
<line x1="69.9" y1="95.3" x2="68.6" y2="143.3" stroke="rgb(0,0,0)"  stroke-width="2.0"/>
<line x1="77.0" y1="101.5" x2="75.9" y2="137.5" stroke="rgb(0,0,0)"  stroke-width="2.0"/>
<line x1="68.6" y1="143.3" x2="109.5" y2="167.2" stroke="rgb(0,0,0)"  stroke-width="2.0"/>
<line x1="109.5" y1="167.2" x2="151.0" y2="143.2" stroke="rgb(0,0,0)"  stroke-width="2.0"/>
<line x1="111.1" y1="157.9" x2="142.2" y2="140.0" stroke="rgb(0,0,0)"  stroke-width="2.0"/>
<line x1="151.0" y1="143.2" x2="150.8" y2="95.5" stroke="rgb(0,0,0)"  stroke-width="2.0"/>
<line x1="150.8" y1="95.5" x2="109.8" y2="72.7" stroke="rgb(0,0,0)"  stroke-width="2.0"/>
<line x1="142.1" y1="98.9" x2="111.5" y2="81.9" stroke="rgb(0,0,0)"  stroke-width="2.0"/>
<line x1="109.8" y1="72.7" x2="69.9" y2="95.3" stroke="rgb(0,0,0)"  stroke-width="2.0"/>
<text x="34.000000" y="167.211295" fill="rgb(191,191,191)"  stroke="rgb(191,191,191)" stroke-width="1" font-size="16" >H</text>
<text x="35.923427" y="86.379820" fill="rgb(191,191,191)"  stroke="rgb(191,191,191)" stroke-width="1" font-size="16" >H</text>
<text x="103.661654" y="48.000000" fill="rgb(191,191,191)"  stroke="rgb(191,191,191)" stroke-width="1" font-size="16" >H</text>
<text x="172.996928" y="86.858300" fill="rgb(191,191,191)"  stroke="rgb(191,191,191)" stroke-width="1" font-size="16" >H</text>
<text x="173.297959" y="167.544013" fill="rgb(191,191,191)"  stroke="rgb(191,191,191)" stroke-width="1" font-size="16" >H</text>
<text x="103.376468" y="207.856766" fill="rgb(191,191,191)"  stroke="rgb(191,191,191)" stroke-width="1" font-size="16" >H</text>
</svg>
</g>
<text font-size="18.000000" fill ="black" font-family="sans-serif"
x="10.000000" y="20.000000" ></text>
</svg>
