<?xml version="1.0"?>
<svg version="1.1" id="topsvg"
xmlns="http://www.w3.org/2000/svg" xmlns:xlink="http://www.w3.org/1999/xlink"
xmlns:cml="http://www.xml-cml.org/schema" x="0" y="0" width="200px" height="200px" viewBox="0 0 100 100">
<title> - Open Babel Depiction</title>
<rect x="0" y="0" width="100" height="100" fill="white"/>
<g transform="translate(0,0)">
<svg width="100" height="100" x="0" y="0" viewBox="0 0 344.856 358.337"
font-family="sans-serif" stroke="rgb(0,0,0)" stroke-width="2"  stroke-linecap="round">
<line x1="234.8" y1="289.5" x2="260.9" y2="308.3" stroke="rgb(0,0,0)"  stroke-width="2.0"/>
<line x1="231.3" y1="294.3" x2="257.4" y2="313.2" stroke="rgb(0,0,0)"  stroke-width="2.0"/>
<line x1="233.1" y1="291.9" x2="214.9" y2="301.0" stroke="rgb(0,0,0)"  stroke-width="2.0"/>
<line x1="192.4" y1="219.1" x2="151.5" y2="236.1" stroke="rgb(0,0,0)"  stroke-width="2.0"/>
<polygon points="192.403438 219.064109 186.764611 164.949727 194.760953 164.707832 " stroke-width="2.000000" fill="rgb(0,0,0)"  stroke="rgb(0,0,0)" />
<line x1="192.4" y1="219.1" x2="174.3" y2="207.4" stroke="rgb(0,0,0)"  stroke-width="2.0"/>
<line x1="151.5" y1="236.1" x2="151.1" y2="256.4" stroke="rgb(0,0,0)"  stroke-width="2.0"/>
<polygon points="190.762782 164.828780 188.244237 120.909507 196.239676 121.179619 " stroke-width="2.000000" fill="rgb(0,0,0)"  stroke="rgb(0,0,0)" />
<line x1="190.8" y1="164.8" x2="153.0" y2="148.0" stroke="rgb(0,0,0)"  stroke-width="2.0"/>
<line x1="192.2" y1="121.0" x2="211.3" y2="110.9" stroke="rgb(0,0,0)"  stroke-width="2.0"/>
<line x1="192.2" y1="121.0" x2="173.9" y2="109.6" stroke="rgb(0,0,0)"  stroke-width="2.0"/>
<line x1="192.2" y1="121.0" x2="193.0" y2="99.5" stroke="rgb(0,0,0)"  stroke-width="2.0"/>
<line x1="225.9" y1="146.0" x2="228.0" y2="111.5" stroke="rgb(0,0,0)"  stroke-width="2.0"/>
<line x1="231.9" y1="146.4" x2="234.0" y2="111.8" stroke="rgb(0,0,0)"  stroke-width="2.0"/>
<line x1="274.3" y1="168.8" x2="292.5" y2="157.2" stroke="rgb(0,0,0)"  stroke-width="2.0"/>
<line x1="274.3" y1="168.8" x2="273.2" y2="147.3" stroke="rgb(0,0,0)"  stroke-width="2.0"/>
<line x1="275.4" y1="217.8" x2="293.8" y2="229.0" stroke="rgb(0,0,0)"  stroke-width="2.0"/>
<line x1="275.4" y1="217.8" x2="274.3" y2="239.3" stroke="rgb(0,0,0)"  stroke-width="2.0"/>
<line x1="225.0" y1="235.1" x2="225.7" y2="233.6" stroke="rgb(0,0,0)"  stroke-width="1.0"/>
<line x1="218.2" y1="232.6" x2="219.4" y2="230.0" stroke="rgb(0,0,0)"  stroke-width="1.0"/>
<line x1="211.3" y1="230.1" x2="213.1" y2="226.4" stroke="rgb(0,0,0)"  stroke-width="1.0"/>
<line x1="204.4" y1="227.7" x2="206.7" y2="222.7" stroke="rgb(0,0,0)"  stroke-width="1.0"/>
<line x1="197.6" y1="225.2" x2="200.4" y2="219.1" stroke="rgb(0,0,0)"  stroke-width="1.0"/>
<line x1="190.7" y1="222.7" x2="194.1" y2="215.4" stroke="rgb(0,0,0)"  stroke-width="1.0"/>
<line x1="233.6" y1="238.2" x2="233.1" y2="291.9" stroke="rgb(0,0,0)"  stroke-width="2.0"/>
<line x1="233.6" y1="238.2" x2="215.4" y2="249.7" stroke="rgb(0,0,0)"  stroke-width="2.0"/>
<line x1="67.3" y1="95.0" x2="109.7" y2="70.7" stroke="rgb(0,0,0)"  stroke-width="2.0"/>
<line x1="70.3" y1="100.2" x2="112.7" y2="75.9" stroke="rgb(0,0,0)"  stroke-width="2.0"/>
<line x1="68.8" y1="97.6" x2="51.2" y2="87.4" stroke="rgb(0,0,0)"  stroke-width="2.0"/>
<line x1="68.8" y1="97.6" x2="68.7" y2="117.9" stroke="rgb(0,0,0)"  stroke-width="2.0"/>
<line x1="111.2" y1="73.3" x2="151.6" y2="96.9" stroke="rgb(0,0,0)"  stroke-width="2.0"/>
<line x1="111.2" y1="73.3" x2="111.3" y2="53.0" stroke="rgb(0,0,0)"  stroke-width="2.0"/>
<line x1="151.6" y1="96.9" x2="170.1" y2="85.9" stroke="rgb(0,0,0)"  stroke-width="2.0"/>
<line x1="151.6" y1="96.9" x2="170.5" y2="107.3" stroke="rgb(0,0,0)"  stroke-width="2.0"/>
<line x1="153.0" y1="148.0" x2="151.6" y2="96.9" stroke="rgb(0,0,0)"  stroke-width="2.0"/>
<line x1="153.0" y1="148.0" x2="135.1" y2="160.0" stroke="rgb(0,0,0)"  stroke-width="2.0"/>
<line x1="153.0" y1="148.0" x2="133.8" y2="138.1" stroke="rgb(0,0,0)"  stroke-width="2.0"/>
<line x1="110.7" y1="213.8" x2="152.8" y2="233.4" stroke="rgb(0,0,0)"  stroke-width="2.0"/>
<line x1="108.1" y1="219.2" x2="150.2" y2="238.8" stroke="rgb(0,0,0)"  stroke-width="2.0"/>
<line x1="109.4" y1="216.5" x2="107.6" y2="196.2" stroke="rgb(0,0,0)"  stroke-width="2.0"/>
<line x1="109.4" y1="216.5" x2="92.8" y2="228.1" stroke="rgb(0,0,0)"  stroke-width="2.0"/>
<line x1="190.8" y1="164.8" x2="228.9" y2="146.2" stroke="rgb(0,0,0)"  stroke-width="2.0"/>
<line x1="228.9" y1="146.2" x2="274.3" y2="168.8" stroke="rgb(0,0,0)"  stroke-width="2.0"/>
<line x1="274.3" y1="168.8" x2="275.4" y2="217.8" stroke="rgb(0,0,0)"  stroke-width="2.0"/>
<line x1="275.4" y1="217.8" x2="233.6" y2="238.2" stroke="rgb(0,0,0)"  stroke-width="2.0"/>
<line x1="233.6" y1="238.2" x2="192.4" y2="219.1" stroke="rgb(0,0,0)"  stroke-width="2.0"/>
<line x1="192.4" y1="219.1" x2="190.8" y2="164.8" stroke="rgb(0,0,0)"  stroke-width="2.0"/>
<text x="263.662864" y="326.336755" fill="rgb(255,12,12)"  stroke="rgb(255,12,12)" stroke-width="1" font-size="16" >O</text>
<text x="225.740442" y="106.692231" fill="rgb(255,12,12)"  stroke="rgb(255,12,12)" stroke-width="1" font-size="16" >O</text>
<text x="197.297011" y="314.907062" fill="rgb(191,191,191)"  stroke="rgb(191,191,191)" stroke-width="1" font-size="16" >H</text>
<text x="157.362524" y="208.332202" fill="rgb(191,191,191)"  stroke="rgb(191,191,191)" stroke-width="1" font-size="16" >H</text>
<text x="144.802457" y="277.433560" fill="rgb(191,191,191)"  stroke="rgb(191,191,191)" stroke-width="1" font-size="16" >H</text>
<text x="216.736208" y="112.786560" fill="rgb(191,191,191)"  stroke="rgb(191,191,191)" stroke-width="1" font-size="16" >H</text>
<text x="156.913604" y="110.764806" fill="rgb(191,191,191)"  stroke="rgb(191,191,191)" stroke-width="1" font-size="16" >H</text>
<text x="187.407856" y="94.506803" fill="rgb(191,191,191)"  stroke="rgb(191,191,191)" stroke-width="1" font-size="16" >H</text>
<text x="297.528860" y="158.288945" fill="rgb(191,191,191)"  stroke="rgb(191,191,191)" stroke-width="1" font-size="16" >H</text>
<text x="266.553391" y="142.279624" fill="rgb(191,191,191)"  stroke="rgb(191,191,191)" stroke-width="1" font-size="16" >H</text>
<text x="298.856241" y="243.813017" fill="rgb(191,191,191)"  stroke="rgb(191,191,191)" stroke-width="1" font-size="16" >H</text>
<text x="267.741898" y="260.329391" fill="rgb(191,191,191)"  stroke="rgb(191,191,191)" stroke-width="1" font-size="16" >H</text>
<text x="198.382170" y="264.637730" fill="rgb(191,191,191)"  stroke="rgb(191,191,191)" stroke-width="1" font-size="16" >H</text>
<text x="34.000000" y="88.825868" fill="rgb(191,191,191)"  stroke="rgb(191,191,191)" stroke-width="1" font-size="16" >H</text>
<text x="62.685654" y="138.924029" fill="rgb(191,191,191)"  stroke="rgb(191,191,191)" stroke-width="1" font-size="16" >H</text>
<text x="105.323349" y="48.000000" fill="rgb(191,191,191)"  stroke="rgb(191,191,191)" stroke-width="1" font-size="16" >H</text>
<text x="175.306398" y="87.295019" fill="rgb(191,191,191)"  stroke="rgb(191,191,191)" stroke-width="1" font-size="16" >H</text>
<text x="175.839289" y="121.603474" fill="rgb(191,191,191)"  stroke="rgb(191,191,191)" stroke-width="1" font-size="16" >H</text>
<text x="118.274202" y="175.212253" fill="rgb(191,191,191)"  stroke="rgb(191,191,191)" stroke-width="1" font-size="16" >H</text>
<text x="116.291204" y="140.138373" fill="rgb(191,191,191)"  stroke="rgb(191,191,191)" stroke-width="1" font-size="16" >H</text>
<text x="100.517646" y="191.279708" fill="rgb(191,191,191)"  stroke="rgb(191,191,191)" stroke-width="1" font-size="16" >H</text>
<text x="76.114494" y="243.599861" fill="rgb(191,191,191)"  stroke="rgb(191,191,191)" stroke-width="1" font-size="16" >H</text>
</svg>
</g>
<text font-size="18.000000" fill ="black" font-family="sans-serif"
x="10.000000" y="20.000000" ></text>
</svg>
