<?xml version="1.0"?>
<svg version="1.1" id="topsvg"
xmlns="http://www.w3.org/2000/svg" xmlns:xlink="http://www.w3.org/1999/xlink"
xmlns:cml="http://www.xml-cml.org/schema" x="0" y="0" width="200px" height="200px" viewBox="0 0 100 100">
<title> - Open Babel Depiction</title>
<rect x="0" y="0" width="100" height="100" fill="white"/>
<g transform="translate(0,0)">
<svg width="100" height="100" x="0" y="0" viewBox="0 0 294.242 251.955"
font-family="sans-serif" stroke="rgb(0,0,0)" stroke-width="2"  stroke-linecap="round">
<line x1="47.9" y1="97.0" x2="70.9" y2="67.1" stroke="rgb(0,0,0)"  stroke-width="2.0"/>
<line x1="70.9" y1="64.1" x2="116.8" y2="64.1" stroke="rgb(0,0,0)"  stroke-width="2.0"/>
<line x1="70.9" y1="70.1" x2="116.8" y2="70.1" stroke="rgb(0,0,0)"  stroke-width="2.0"/>
<line x1="116.8" y1="67.1" x2="138.6" y2="105.7" stroke="rgb(0,0,0)"  stroke-width="2.0"/>
<line x1="138.6" y1="105.7" x2="168.6" y2="158.7" stroke="rgb(0,0,0)"  stroke-width="2.0"/>
<line x1="142.3" y1="103.6" x2="172.3" y2="156.6" stroke="rgb(0,0,0)"  stroke-width="2.0"/>
<line x1="135.0" y1="107.8" x2="164.9" y2="160.8" stroke="rgb(0,0,0)"  stroke-width="2.0"/>
<line x1="226.9" y1="184.5" x2="183.3" y2="184.8" stroke="rgb(0,0,0)"  stroke-width="2.0"/>
<line x1="246.4" y1="195.6" x2="247.7" y2="197.7" stroke="rgb(0,0,0)"  stroke-width="2.0"/>
<line x1="183.3" y1="184.8" x2="168.6" y2="158.7" stroke="rgb(0,0,0)"  stroke-width="2.0"/>
<line x1="70.9" y1="67.1" x2="63.3" y2="51.7" stroke="rgb(0,0,0)"  stroke-width="2.0"/>
<line x1="116.8" y1="67.1" x2="125.5" y2="52.2" stroke="rgb(0,0,0)"  stroke-width="2.0"/>
<line x1="183.3" y1="184.8" x2="174.1" y2="200.7" stroke="rgb(0,0,0)"  stroke-width="2.0"/>
<line x1="183.3" y1="184.8" x2="165.0" y2="184.7" stroke="rgb(0,0,0)"  stroke-width="2.0"/>
<text x="22.000000" y="115.267303" fill="rgb(30,239,30)"  stroke="rgb(30,239,30)" stroke-width="1" font-size="16" >Cl</text>
<text x="233.855442" y="192.423064" fill="rgb(255,12,12)"  stroke="rgb(255,12,12)" stroke-width="1" font-size="16" >O</text>
<text x="248.242054" y="216.961827" fill="rgb(191,191,191)"  stroke="rgb(191,191,191)" stroke-width="1" font-size="16" >H</text>
<text x="51.539106" y="48.000000" fill="rgb(191,191,191)"  stroke="rgb(191,191,191)" stroke-width="1" font-size="16" >H</text>
<text x="126.072148" y="48.955412" fill="rgb(191,191,191)"  stroke="rgb(191,191,191)" stroke-width="1" font-size="16" >H</text>
<text x="161.617907" y="219.954783" fill="rgb(191,191,191)"  stroke="rgb(191,191,191)" stroke-width="1" font-size="16" >H</text>
<text x="145.964407" y="192.636237" fill="rgb(191,191,191)"  stroke="rgb(191,191,191)" stroke-width="1" font-size="16" >H</text>
</svg>
</g>
<text font-size="18.000000" fill ="black" font-family="sans-serif"
x="10.000000" y="20.000000" ></text>
</svg>
