<?xml version="1.0"?>
<svg version="1.1" id="topsvg"
xmlns="http://www.w3.org/2000/svg" xmlns:xlink="http://www.w3.org/1999/xlink"
xmlns:cml="http://www.xml-cml.org/schema" x="0" y="0" width="200px" height="200px" viewBox="0 0 100 100">
<title> - Open Babel Depiction</title>
<rect x="0" y="0" width="100" height="100" fill="white"/>
<g transform="translate(0,0)">
<svg width="100" height="100" x="0" y="0" viewBox="0 0 387.601 326.464"
font-family="sans-serif" stroke="rgb(0,0,0)" stroke-width="2"  stroke-linecap="round">
<line x1="317.3" y1="250.3" x2="275.8" y2="231.5" stroke="rgb(0,0,0)"  stroke-width="2.0"/>
<line x1="330.5" y1="268.6" x2="330.9" y2="273.5" stroke="rgb(0,0,0)"  stroke-width="2.0"/>
<line x1="234.7" y1="160.3" x2="194.4" y2="178.7" stroke="rgb(0,0,0)"  stroke-width="2.0"/>
<polygon points="234.652719 160.321401 231.568945 111.755593 239.567520 111.906609 " stroke-width="2.000000" fill="rgb(0,0,0)"  stroke="rgb(0,0,0)" />
<line x1="268.0" y1="179.4" x2="268.8" y2="178.0" stroke="rgb(0,0,0)"  stroke-width="1.0"/>
<line x1="261.0" y1="176.3" x2="262.3" y2="173.8" stroke="rgb(0,0,0)"  stroke-width="1.0"/>
<line x1="253.9" y1="173.2" x2="255.9" y2="169.5" stroke="rgb(0,0,0)"  stroke-width="1.0"/>
<line x1="246.9" y1="170.1" x2="249.5" y2="165.3" stroke="rgb(0,0,0)"  stroke-width="1.0"/>
<line x1="239.8" y1="166.9" x2="243.0" y2="161.0" stroke="rgb(0,0,0)"  stroke-width="1.0"/>
<line x1="232.7" y1="163.8" x2="236.6" y2="156.8" stroke="rgb(0,0,0)"  stroke-width="1.0"/>
<line x1="235.6" y1="111.8" x2="194.3" y2="87.3" stroke="rgb(0,0,0)"  stroke-width="2.0"/>
<line x1="280.3" y1="52.8" x2="282.2" y2="88.2" stroke="rgb(0,0,0)"  stroke-width="2.0"/>
<line x1="274.3" y1="53.1" x2="276.2" y2="88.5" stroke="rgb(0,0,0)"  stroke-width="2.0"/>
<line x1="276.8" y1="183.3" x2="275.8" y2="231.5" stroke="rgb(0,0,0)"  stroke-width="2.0"/>
<line x1="67.0" y1="109.9" x2="110.0" y2="85.1" stroke="rgb(0,0,0)"  stroke-width="2.0"/>
<line x1="70.0" y1="115.1" x2="113.0" y2="90.3" stroke="rgb(0,0,0)"  stroke-width="2.0"/>
<line x1="111.5" y1="87.7" x2="152.5" y2="111.4" stroke="rgb(0,0,0)"  stroke-width="2.0"/>
<line x1="152.5" y1="111.4" x2="194.3" y2="87.3" stroke="rgb(0,0,0)"  stroke-width="2.0"/>
<line x1="152.3" y1="155.6" x2="195.7" y2="175.9" stroke="rgb(0,0,0)"  stroke-width="2.0"/>
<line x1="149.8" y1="161.1" x2="193.1" y2="181.4" stroke="rgb(0,0,0)"  stroke-width="2.0"/>
<line x1="275.8" y1="231.5" x2="257.9" y2="242.8" stroke="rgb(0,0,0)"  stroke-width="2.0"/>
<line x1="275.8" y1="231.5" x2="257.4" y2="221.1" stroke="rgb(0,0,0)"  stroke-width="2.0"/>
<line x1="234.7" y1="160.3" x2="217.0" y2="148.7" stroke="rgb(0,0,0)"  stroke-width="2.0"/>
<line x1="194.4" y1="178.7" x2="194.3" y2="198.6" stroke="rgb(0,0,0)"  stroke-width="2.0"/>
<polygon points="235.568233 111.831101 217.528405 126.444164 213.639225 119.453150 " stroke-width="2.000000" fill="rgb(0,0,0)"  stroke="rgb(0,0,0)" />
<line x1="317.9" y1="111.9" x2="336.3" y2="101.5" stroke="rgb(0,0,0)"  stroke-width="2.0"/>
<line x1="317.9" y1="111.9" x2="336.2" y2="122.5" stroke="rgb(0,0,0)"  stroke-width="2.0"/>
<line x1="318.2" y1="160.6" x2="336.4" y2="171.3" stroke="rgb(0,0,0)"  stroke-width="2.0"/>
<line x1="318.2" y1="160.6" x2="317.9" y2="181.8" stroke="rgb(0,0,0)"  stroke-width="2.0"/>
<line x1="276.8" y1="183.3" x2="258.6" y2="193.9" stroke="rgb(0,0,0)"  stroke-width="2.0"/>
<line x1="68.5" y1="112.5" x2="51.2" y2="102.5" stroke="rgb(0,0,0)"  stroke-width="2.0"/>
<line x1="68.5" y1="112.5" x2="68.4" y2="132.4" stroke="rgb(0,0,0)"  stroke-width="2.0"/>
<line x1="111.5" y1="87.7" x2="111.5" y2="67.8" stroke="rgb(0,0,0)"  stroke-width="2.0"/>
<line x1="152.5" y1="111.4" x2="152.5" y2="132.5" stroke="rgb(0,0,0)"  stroke-width="2.0"/>
<line x1="152.5" y1="111.4" x2="170.8" y2="122.0" stroke="rgb(0,0,0)"  stroke-width="2.0"/>
<line x1="194.3" y1="87.3" x2="194.5" y2="66.2" stroke="rgb(0,0,0)"  stroke-width="2.0"/>
<line x1="194.3" y1="87.3" x2="176.1" y2="76.7" stroke="rgb(0,0,0)"  stroke-width="2.0"/>
<line x1="151.0" y1="158.4" x2="149.3" y2="138.5" stroke="rgb(0,0,0)"  stroke-width="2.0"/>
<line x1="151.0" y1="158.4" x2="134.7" y2="169.8" stroke="rgb(0,0,0)"  stroke-width="2.0"/>
<line x1="234.7" y1="160.3" x2="235.6" y2="111.8" stroke="rgb(0,0,0)"  stroke-width="2.0"/>
<line x1="235.6" y1="111.8" x2="279.2" y2="88.3" stroke="rgb(0,0,0)"  stroke-width="2.0"/>
<line x1="279.2" y1="88.3" x2="317.9" y2="111.9" stroke="rgb(0,0,0)"  stroke-width="2.0"/>
<line x1="317.9" y1="111.9" x2="318.2" y2="160.6" stroke="rgb(0,0,0)"  stroke-width="2.0"/>
<line x1="318.2" y1="160.6" x2="276.8" y2="183.3" stroke="rgb(0,0,0)"  stroke-width="2.0"/>
<line x1="276.8" y1="183.3" x2="234.7" y2="160.3" stroke="rgb(0,0,0)"  stroke-width="2.0"/>
<text x="323.180254" y="263.671940" fill="rgb(255,12,12)"  stroke="rgb(255,12,12)" stroke-width="1" font-size="16" >O</text>
<text x="270.654678" y="48.000000" fill="rgb(255,12,12)"  stroke="rgb(255,12,12)" stroke-width="1" font-size="16" >O</text>
<text x="326.229838" y="294.464445" fill="rgb(191,191,191)"  stroke="rgb(191,191,191)" stroke-width="1" font-size="16" >H</text>
<text x="240.892872" y="257.696493" fill="rgb(191,191,191)"  stroke="rgb(191,191,191)" stroke-width="1" font-size="16" >H</text>
<text x="240.081258" y="222.684100" fill="rgb(191,191,191)"  stroke="rgb(191,191,191)" stroke-width="1" font-size="16" >H</text>
<text x="200.122849" y="149.584661" fill="rgb(191,191,191)"  stroke="rgb(191,191,191)" stroke-width="1" font-size="16" >H</text>
<text x="188.240897" y="219.573747" fill="rgb(191,191,191)"  stroke="rgb(191,191,191)" stroke-width="1" font-size="16" >H</text>
<text x="199.740744" y="136.424468" fill="rgb(191,191,191)"  stroke="rgb(191,191,191)" stroke-width="1" font-size="16" >H</text>
<text x="341.601175" y="103.110700" fill="rgb(191,191,191)"  stroke="rgb(191,191,191)" stroke-width="1" font-size="16" >H</text>
<text x="341.419532" y="137.021962" fill="rgb(191,191,191)"  stroke="rgb(191,191,191)" stroke-width="1" font-size="16" >H</text>
<text x="341.592163" y="185.932523" fill="rgb(191,191,191)"  stroke="rgb(191,191,191)" stroke-width="1" font-size="16" >H</text>
<text x="311.657921" y="202.756140" fill="rgb(191,191,191)"  stroke="rgb(191,191,191)" stroke-width="1" font-size="16" >H</text>
<text x="241.311809" y="208.398802" fill="rgb(191,191,191)"  stroke="rgb(191,191,191)" stroke-width="1" font-size="16" >H</text>
<text x="34.000000" y="103.929113" fill="rgb(191,191,191)"  stroke="rgb(191,191,191)" stroke-width="1" font-size="16" >H</text>
<text x="62.398854" y="153.373252" fill="rgb(191,191,191)"  stroke="rgb(191,191,191)" stroke-width="1" font-size="16" >H</text>
<text x="105.532084" y="62.820485" fill="rgb(191,191,191)"  stroke="rgb(191,191,191)" stroke-width="1" font-size="16" >H</text>
<text x="146.459660" y="153.520068" fill="rgb(191,191,191)"  stroke="rgb(191,191,191)" stroke-width="1" font-size="16" >H</text>
<text x="176.021582" y="136.479078" fill="rgb(191,191,191)"  stroke="rgb(191,191,191)" stroke-width="1" font-size="16" >H</text>
<text x="188.561018" y="61.165746" fill="rgb(191,191,191)"  stroke="rgb(191,191,191)" stroke-width="1" font-size="16" >H</text>
<text x="158.830635" y="78.108621" fill="rgb(191,191,191)"  stroke="rgb(191,191,191)" stroke-width="1" font-size="16" >H</text>
<text x="142.221641" y="133.550786" fill="rgb(191,191,191)"  stroke="rgb(191,191,191)" stroke-width="1" font-size="16" >H</text>
<text x="118.045959" y="185.191411" fill="rgb(191,191,191)"  stroke="rgb(191,191,191)" stroke-width="1" font-size="16" >H</text>
</svg>
</g>
<text font-size="18.000000" fill ="black" font-family="sans-serif"
x="10.000000" y="20.000000" ></text>
</svg>
