<?xml version="1.0"?>
<svg version="1.1" id="topsvg"
xmlns="http://www.w3.org/2000/svg" xmlns:xlink="http://www.w3.org/1999/xlink"
xmlns:cml="http://www.xml-cml.org/schema" x="0" y="0" width="200px" height="200px" viewBox="0 0 100 100">
<title> - Open Babel Depiction</title>
<rect x="0" y="0" width="100" height="100" fill="white"/>
<g transform="translate(0,0)">
<svg width="100" height="100" x="0" y="0" viewBox="0 0 401.816 274.13"
font-family="sans-serif" stroke="rgb(0,0,0)" stroke-width="2"  stroke-linecap="round">
<line x1="163.2" y1="195.4" x2="155.1" y2="204.2" stroke="rgb(0,0,0)"  stroke-width="2.0"/>
<line x1="163.2" y1="195.4" x2="168.2" y2="206.2" stroke="rgb(0,0,0)"  stroke-width="2.0"/>
<line x1="129.7" y1="144.0" x2="120.2" y2="149.6" stroke="rgb(0,0,0)"  stroke-width="2.0"/>
<line x1="130.0" y1="107.1" x2="120.1" y2="104.1" stroke="rgb(0,0,0)"  stroke-width="2.0"/>
<line x1="111.6" y1="87.8" x2="114.7" y2="78.0" stroke="rgb(0,0,0)"  stroke-width="2.0"/>
<line x1="95.3" y1="96.3" x2="85.5" y2="93.2" stroke="rgb(0,0,0)"  stroke-width="2.0"/>
<line x1="103.8" y1="112.6" x2="100.8" y2="122.4" stroke="rgb(0,0,0)"  stroke-width="2.0"/>
<line x1="114.7" y1="78.0" x2="126.3" y2="75.3" stroke="rgb(0,0,0)"  stroke-width="2.0"/>
<line x1="114.7" y1="78.0" x2="106.6" y2="69.2" stroke="rgb(0,0,0)"  stroke-width="2.0"/>
<line x1="114.7" y1="78.0" x2="118.2" y2="66.6" stroke="rgb(0,0,0)"  stroke-width="2.0"/>
<line x1="85.5" y1="93.2" x2="82.9" y2="81.6" stroke="rgb(0,0,0)"  stroke-width="2.0"/>
<line x1="85.5" y1="93.2" x2="76.7" y2="101.3" stroke="rgb(0,0,0)"  stroke-width="2.0"/>
<line x1="85.5" y1="93.2" x2="74.1" y2="89.7" stroke="rgb(0,0,0)"  stroke-width="2.0"/>
<line x1="100.8" y1="122.4" x2="89.1" y2="125.1" stroke="rgb(0,0,0)"  stroke-width="2.0"/>
<line x1="100.8" y1="122.4" x2="108.9" y2="131.2" stroke="rgb(0,0,0)"  stroke-width="2.0"/>
<line x1="100.8" y1="122.4" x2="97.2" y2="133.8" stroke="rgb(0,0,0)"  stroke-width="2.0"/>
<line x1="163.4" y1="66.1" x2="164.3" y2="90.4" stroke="rgb(0,0,0)"  stroke-width="2.0"/>
<line x1="157.4" y1="66.3" x2="158.3" y2="90.6" stroke="rgb(0,0,0)"  stroke-width="2.0"/>
<polygon points="190.904724 142.142787 189.553654 106.157384 197.531889 106.747091 " stroke-width="2.000000" fill="rgb(0,0,0)"  stroke="rgb(0,0,0)" />
<line x1="225.9" y1="93.8" x2="228.7" y2="82.2" stroke="rgb(0,0,0)"  stroke-width="2.0"/>
<line x1="225.9" y1="93.8" x2="237.5" y2="90.9" stroke="rgb(0,0,0)"  stroke-width="2.0"/>
<polygon points="232.195299 100.866195 194.114906 110.411109 192.970638 102.493366 " stroke-width="2.000000" fill="rgb(0,0,0)"  stroke="rgb(0,0,0)" />
<line x1="232.2" y1="100.9" x2="221.0" y2="96.8" stroke="rgb(0,0,0)"  stroke-width="2.0"/>
<line x1="347.9" y1="58.9" x2="52.8" y2="43.7" stroke="rgb(0,0,0)"  stroke-width="2.0"/>
<line x1="348.3" y1="52.9" x2="53.1" y2="37.7" stroke="rgb(0,0,0)"  stroke-width="2.0"/>
<line x1="348.1" y1="55.9" x2="40.0" y2="40.0" stroke="rgb(0,0,0)"  stroke-width="2.0"/>
<line x1="348.1" y1="55.9" x2="341.3" y2="142.6" stroke="rgb(0,0,0)"  stroke-width="2.0"/>
<line x1="nan" y1="nan" x2="nan" y2="nan" stroke="rgb(0,0,0)"  stroke-width="2.0"/>
<line x1="nan" y1="nan" x2="nan" y2="nan" stroke="rgb(0,0,0)"  stroke-width="2.0"/>
<line x1="40.0" y1="40.0" x2="nan" y2="nan" stroke="rgb(0,0,0)"  stroke-width="2.0"/>
<line x1="294.3" y1="183.0" x2="305.1" y2="185.0" stroke="rgb(0,0,0)"  stroke-width="2.0"/>
<line x1="270.1" y1="211.7" x2="274.0" y2="222.0" stroke="rgb(0,0,0)"  stroke-width="2.0"/>
<line x1="190.9" y1="142.1" x2="223.2" y2="163.4" stroke="rgb(0,0,0)"  stroke-width="2.0"/>
<line x1="190.9" y1="142.1" x2="191.1" y2="154.1" stroke="rgb(0,0,0)"  stroke-width="2.0"/>
<line x1="165.3" y1="195.3" x2="156.3" y2="187.5" stroke="rgb(0,0,0)"  stroke-width="2.0"/>
<line x1="341.3" y1="142.6" x2="330.5" y2="147.7" stroke="rgb(0,0,0)"  stroke-width="2.0"/>
<line x1="341.3" y1="142.6" x2="351.1" y2="149.3" stroke="rgb(0,0,0)"  stroke-width="2.0"/>
<line x1="341.3" y1="142.6" x2="340.3" y2="154.5" stroke="rgb(0,0,0)"  stroke-width="2.0"/>
<line x1="223.2" y1="163.4" x2="226.2" y2="157.6" stroke="rgb(0,0,0)"  stroke-width="2.0"/>
<line x1="219.5" y1="161.4" x2="222.4" y2="155.7" stroke="rgb(0,0,0)"  stroke-width="2.0"/>
<line x1="227.0" y1="165.3" x2="229.9" y2="159.5" stroke="rgb(0,0,0)"  stroke-width="2.0"/>
<line x1="221.7" y1="160.8" x2="256.9" y2="140.3" stroke="rgb(0,0,0)"  stroke-width="2.0"/>
<line x1="224.7" y1="165.9" x2="259.9" y2="145.4" stroke="rgb(0,0,0)"  stroke-width="2.0"/>
<line x1="226.2" y1="157.6" x2="230.8" y2="148.6" stroke="rgb(0,0,0)"  stroke-width="2.0"/>
<line x1="258.4" y1="142.8" x2="268.0" y2="148.3" stroke="rgb(0,0,0)"  stroke-width="2.0"/>
<line x1="258.4" y1="142.8" x2="258.4" y2="131.8" stroke="rgb(0,0,0)"  stroke-width="2.0"/>
<line x1="163.2" y1="195.4" x2="162.2" y2="162.4" stroke="rgb(0,0,0)"  stroke-width="2.0"/>
<line x1="162.2" y1="162.4" x2="165.3" y2="195.3" stroke="rgb(0,0,0)"  stroke-width="2.0"/>
<line x1="165.3" y1="195.3" x2="163.2" y2="195.4" stroke="rgb(0,0,0)"  stroke-width="2.0"/>
<line x1="225.9" y1="93.8" x2="232.2" y2="100.9" stroke="rgb(0,0,0)"  stroke-width="2.0"/>
<line x1="232.2" y1="100.9" x2="193.5" y2="106.5" stroke="rgb(0,0,0)"  stroke-width="2.0"/>
<line x1="193.5" y1="106.5" x2="225.9" y2="93.8" stroke="rgb(0,0,0)"  stroke-width="2.0"/>
<line x1="284.6" y1="123.4" x2="261.7" y2="119.4" stroke="rgb(0,0,0)"  stroke-width="2.0"/>
<line x1="261.7" y1="119.4" x2="281.6" y2="146.5" stroke="rgb(0,0,0)"  stroke-width="2.0"/>
<line x1="271.1" y1="119.9" x2="283.9" y2="137.4" stroke="rgb(0,0,0)"  stroke-width="2.0"/>
<line x1="281.6" y1="146.5" x2="284.6" y2="123.4" stroke="rgb(0,0,0)"  stroke-width="2.0"/>
<line x1="348.1" y1="55.9" x2="261.7" y2="119.4" stroke="rgb(0,0,0)"  stroke-width="2.0"/>
<line x1="284.6" y1="123.4" x2="348.1" y2="55.9" stroke="rgb(0,0,0)"  stroke-width="2.0"/>
<line x1="327.2" y1="126.1" x2="284.6" y2="123.4" stroke="rgb(0,0,0)"  stroke-width="2.0"/>
<line x1="281.6" y1="146.5" x2="327.8" y2="131.1" stroke="rgb(0,0,0)"  stroke-width="2.0"/>
<line x1="130.0" y1="107.1" x2="161.3" y2="90.5" stroke="rgb(0,0,0)"  stroke-width="2.0"/>
<line x1="161.3" y1="90.5" x2="193.5" y2="106.5" stroke="rgb(0,0,0)"  stroke-width="2.0"/>
<line x1="193.5" y1="106.5" x2="190.9" y2="142.1" stroke="rgb(0,0,0)"  stroke-width="2.0"/>
<line x1="190.9" y1="142.1" x2="162.2" y2="162.4" stroke="rgb(0,0,0)"  stroke-width="2.0"/>
<line x1="162.2" y1="162.4" x2="129.7" y2="144.0" stroke="rgb(0,0,0)"  stroke-width="2.0"/>
<line x1="129.7" y1="144.0" x2="130.0" y2="107.1" stroke="rgb(0,0,0)"  stroke-width="2.0"/>
<line x1="137.0" y1="138.1" x2="137.1" y2="113.2" stroke="rgb(0,0,0)"  stroke-width="2.0"/>
<line x1="165.3" y1="195.3" x2="186.5" y2="199.6" stroke="rgb(0,0,0)"  stroke-width="2.0"/>
<line x1="186.5" y1="199.6" x2="236.2" y2="206.8" stroke="rgb(0,0,0)"  stroke-width="2.0"/>
<line x1="187.1" y1="195.4" x2="236.8" y2="202.6" stroke="rgb(0,0,0)"  stroke-width="2.0"/>
<line x1="185.9" y1="203.7" x2="235.6" y2="210.9" stroke="rgb(0,0,0)"  stroke-width="2.0"/>
<line x1="236.2" y1="206.8" x2="270.1" y2="211.7" stroke="rgb(0,0,0)"  stroke-width="2.0"/>
<line x1="270.1" y1="211.7" x2="294.3" y2="183.0" stroke="rgb(0,0,0)"  stroke-width="2.0"/>
<line x1="268.5" y1="202.4" x2="284.9" y2="182.9" stroke="rgb(0,0,0)"  stroke-width="2.0"/>
<line x1="294.3" y1="183.0" x2="281.6" y2="146.5" stroke="rgb(0,0,0)"  stroke-width="2.0"/>
<line x1="261.7" y1="119.4" x2="232.2" y2="100.9" stroke="rgb(0,0,0)"  stroke-width="2.0"/>
<text x="101.724653" y="108.195031" fill="rgb(127,153,153)"  stroke="rgb(127,153,153)" stroke-width="1" font-size="16" >Si</text>
<text x="153.930966" y="61.185578" fill="rgb(255,12,12)"  stroke="rgb(255,12,12)" stroke-width="1" font-size="16" >O</text>
<text x="34.000000" y="48.000000" fill="rgb(255,12,12)"  stroke="rgb(255,12,12)" stroke-width="1" font-size="16" >O</text>
<text x="34.000000" y="48.000000" fill="rgb(255,12,12)"  stroke="rgb(255,12,12)" stroke-width="1" font-size="16" >O</text>
<text x="334.138529" y="134.964691" fill="rgb(17,127,178)"  stroke="rgb(17,127,178)" stroke-width="1" font-size="16" >Xx</text>
<text x="140.242015" y="221.714982" fill="rgb(191,191,191)"  stroke="rgb(191,191,191)" stroke-width="1" font-size="16" >H</text>
<text x="167.708474" y="226.014627" fill="rgb(191,191,191)"  stroke="rgb(191,191,191)" stroke-width="1" font-size="16" >H</text>
<text x="102.927155" y="164.069442" fill="rgb(191,191,191)"  stroke="rgb(191,191,191)" stroke-width="1" font-size="16" >H</text>
<text x="133.010688" y="80.497859" fill="rgb(191,191,191)"  stroke="rgb(191,191,191)" stroke-width="1" font-size="16" >H</text>
<text x="91.787696" y="67.610576" fill="rgb(191,191,191)"  stroke="rgb(191,191,191)" stroke-width="1" font-size="16" >H</text>
<text x="116.119725" y="62.155037" fill="rgb(191,191,191)"  stroke="rgb(191,191,191)" stroke-width="1" font-size="16" >H</text>
<text x="74.025151" y="76.911326" fill="rgb(191,191,191)"  stroke="rgb(191,191,191)" stroke-width="1" font-size="16" >H</text>
<text x="61.140198" y="118.136649" fill="rgb(191,191,191)"  stroke="rgb(191,191,191)" stroke-width="1" font-size="16" >H</text>
<text x="55.682329" y="93.804620" fill="rgb(191,191,191)"  stroke="rgb(191,191,191)" stroke-width="1" font-size="16" >H</text>
<text x="70.443279" y="135.896863" fill="rgb(191,191,191)"  stroke="rgb(191,191,191)" stroke-width="1" font-size="16" >H</text>
<text x="111.666271" y="148.781816" fill="rgb(191,191,191)"  stroke="rgb(191,191,191)" stroke-width="1" font-size="16" >H</text>
<text x="87.334242" y="154.239685" fill="rgb(191,191,191)"  stroke="rgb(191,191,191)" stroke-width="1" font-size="16" >H</text>
<text x="225.752517" y="77.559186" fill="rgb(191,191,191)"  stroke="rgb(191,191,191)" stroke-width="1" font-size="16" >H</text>
<text x="244.111652" y="95.752860" fill="rgb(191,191,191)"  stroke="rgb(191,191,191)" stroke-width="1" font-size="16" >H</text>
<text x="202.776799" y="100.304192" fill="rgb(191,191,191)"  stroke="rgb(191,191,191)" stroke-width="1" font-size="16" >H</text>
<text x="34.000000" y="48.000000" fill="rgb(191,191,191)"  stroke="rgb(191,191,191)" stroke-width="1" font-size="16" >H</text>
<text x="311.927191" y="195.376451" fill="rgb(191,191,191)"  stroke="rgb(191,191,191)" stroke-width="1" font-size="16" >H</text>
<text x="272.668752" y="242.129556" fill="rgb(191,191,191)"  stroke="rgb(191,191,191)" stroke-width="1" font-size="16" >H</text>
<text x="185.335853" y="175.073737" fill="rgb(191,191,191)"  stroke="rgb(191,191,191)" stroke-width="1" font-size="16" >H</text>
<text x="140.442432" y="186.965926" fill="rgb(191,191,191)"  stroke="rgb(191,191,191)" stroke-width="1" font-size="16" >H</text>
<text x="312.759155" y="161.291569" fill="rgb(191,191,191)"  stroke="rgb(191,191,191)" stroke-width="1" font-size="16" >H</text>
<text x="355.816197" y="164.684676" fill="rgb(191,191,191)"  stroke="rgb(191,191,191)" stroke-width="1" font-size="16" >H</text>
<text x="333.306565" y="175.418641" fill="rgb(191,191,191)"  stroke="rgb(191,191,191)" stroke-width="1" font-size="16" >H</text>
<text x="230.762943" y="145.015839" fill="rgb(191,191,191)"  stroke="rgb(191,191,191)" stroke-width="1" font-size="16" >H</text>
<text x="273.295638" y="162.792366" fill="rgb(191,191,191)"  stroke="rgb(191,191,191)" stroke-width="1" font-size="16" >H</text>
<text x="252.328751" y="126.798861" fill="rgb(191,191,191)"  stroke="rgb(191,191,191)" stroke-width="1" font-size="16" >H</text>
</svg>
</g>
<text font-size="18.000000" fill ="black" font-family="sans-serif"
x="10.000000" y="20.000000" ></text>
</svg>
