<?xml version="1.0"?>
<svg version="1.1" id="topsvg"
xmlns="http://www.w3.org/2000/svg" xmlns:xlink="http://www.w3.org/1999/xlink"
xmlns:cml="http://www.xml-cml.org/schema" x="0" y="0" width="200px" height="200px" viewBox="0 0 100 100">
<title> - Open Babel Depiction</title>
<rect x="0" y="0" width="100" height="100" fill="white"/>
<g transform="translate(0,0)">
<svg width="100" height="100" x="0" y="0" viewBox="0 0 233.542 191.436"
font-family="sans-serif" stroke="rgb(0,0,0)" stroke-width="2"  stroke-linecap="round">
<line x1="72.1" y1="110.1" x2="73.2" y2="111.0" stroke="rgb(0,0,0)"  stroke-width="2.0"/>
<line x1="69.9" y1="78.5" x2="49.5" y2="59.3" stroke="rgb(0,0,0)"  stroke-width="2.0"/>
<line x1="69.9" y1="78.5" x2="80.3" y2="52.5" stroke="rgb(0,0,0)"  stroke-width="2.0"/>
<line x1="154.4" y1="78.9" x2="163.3" y2="52.3" stroke="rgb(0,0,0)"  stroke-width="2.0"/>
<line x1="154.4" y1="78.9" x2="181.1" y2="70.6" stroke="rgb(0,0,0)"  stroke-width="2.0"/>
<line x1="155.2" y1="79.5" x2="178.7" y2="67.2" stroke="rgb(0,0,0)"  stroke-width="2.0"/>
<line x1="73.2" y1="111.0" x2="68.4" y2="138.6" stroke="rgb(0,0,0)"  stroke-width="2.0"/>
<line x1="73.2" y1="111.0" x2="99.5" y2="101.4" stroke="rgb(0,0,0)"  stroke-width="2.0"/>
<line x1="73.2" y1="111.0" x2="94.7" y2="129.0" stroke="rgb(0,0,0)"  stroke-width="2.0"/>
<line x1="72.1" y1="110.1" x2="69.9" y2="78.5" stroke="rgb(0,0,0)"  stroke-width="2.0"/>
<line x1="69.9" y1="78.5" x2="154.4" y2="78.9" stroke="rgb(0,0,0)"  stroke-width="2.0"/>
<line x1="154.4" y1="78.9" x2="155.2" y2="79.5" stroke="rgb(0,0,0)"  stroke-width="2.0"/>
<line x1="155.2" y1="79.5" x2="156.0" y2="99.8" stroke="rgb(0,0,0)"  stroke-width="2.0"/>
<line x1="148.2" y1="85.8" x2="148.7" y2="97.2" stroke="rgb(0,0,0)"  stroke-width="2.0"/>
<line x1="128.6" y1="109.9" x2="72.1" y2="110.1" stroke="rgb(0,0,0)"  stroke-width="2.0"/>
<line x1="131.0" y1="102.7" x2="78.1" y2="102.9" stroke="rgb(0,0,0)"  stroke-width="2.0"/>
<text x="150.411107" y="117.852863" fill="rgb(17,127,178)"  stroke="rgb(17,127,178)" stroke-width="1" font-size="16" >Xx</text>
<text x="34.000000" y="58.449820" fill="rgb(191,191,191)"  stroke="rgb(191,191,191)" stroke-width="1" font-size="16" >H</text>
<text x="79.108991" y="48.391983" fill="rgb(191,191,191)"  stroke="rgb(191,191,191)" stroke-width="1" font-size="16" >H</text>
<text x="161.420792" y="48.000000" fill="rgb(191,191,191)"  stroke="rgb(191,191,191)" stroke-width="1" font-size="16" >H</text>
<text x="187.542341" y="74.688954" fill="rgb(191,191,191)"  stroke="rgb(191,191,191)" stroke-width="1" font-size="16" >H</text>
<text x="184.222593" y="69.101303" fill="rgb(191,191,191)"  stroke="rgb(191,191,191)" stroke-width="1" font-size="16" >H</text>
<text x="60.117943" y="159.436323" fill="rgb(191,191,191)"  stroke="rgb(191,191,191)" stroke-width="1" font-size="16" >H</text>
<text x="105.746169" y="104.951986" fill="rgb(191,191,191)"  stroke="rgb(191,191,191)" stroke-width="1" font-size="16" >H</text>
<text x="98.660330" y="145.365889" fill="rgb(191,191,191)"  stroke="rgb(191,191,191)" stroke-width="1" font-size="16" >H</text>
</svg>
</g>
<text font-size="18.000000" fill ="black" font-family="sans-serif"
x="10.000000" y="20.000000" ></text>
</svg>
