<?xml version="1.0"?>
<svg version="1.1" id="topsvg"
xmlns="http://www.w3.org/2000/svg" xmlns:xlink="http://www.w3.org/1999/xlink"
xmlns:cml="http://www.xml-cml.org/schema" x="0" y="0" width="200px" height="200px" viewBox="0 0 100 100">
<title> - Open Babel Depiction</title>
<rect x="0" y="0" width="100" height="100" fill="white"/>
<g transform="translate(0,0)">
<svg width="100" height="100" x="0" y="0" viewBox="0 0 250.879 288.594"
font-family="sans-serif" stroke="rgb(0,0,0)" stroke-width="2"  stroke-linecap="round">
<line x1="67.0" y1="186.5" x2="51.4" y2="196.0" stroke="rgb(0,0,0)"  stroke-width="2.0"/>
<line x1="67.0" y1="139.8" x2="51.2" y2="130.6" stroke="rgb(0,0,0)"  stroke-width="2.0"/>
<line x1="114.6" y1="72.7" x2="101.4" y2="58.4" stroke="rgb(0,0,0)"  stroke-width="2.0"/>
<line x1="114.6" y1="72.7" x2="121.4" y2="54.5" stroke="rgb(0,0,0)"  stroke-width="2.0"/>
<line x1="160.5" y1="68.1" x2="170.2" y2="51.3" stroke="rgb(0,0,0)"  stroke-width="2.0"/>
<line x1="160.5" y1="68.1" x2="179.9" y2="69.0" stroke="rgb(0,0,0)"  stroke-width="2.0"/>
<line x1="179.3" y1="109.8" x2="198.2" y2="114.1" stroke="rgb(0,0,0)"  stroke-width="2.0"/>
<line x1="179.3" y1="109.8" x2="183.9" y2="128.6" stroke="rgb(0,0,0)"  stroke-width="2.0"/>
<line x1="145.3" y1="185.1" x2="172.2" y2="200.6" stroke="rgb(0,0,0)"  stroke-width="2.0"/>
<line x1="118.7" y1="236.6" x2="106.0" y2="206.7" stroke="rgb(0,0,0)"  stroke-width="2.0"/>
<line x1="106.0" y1="206.7" x2="145.3" y2="185.1" stroke="rgb(0,0,0)"  stroke-width="2.0"/>
<line x1="107.8" y1="197.5" x2="136.6" y2="181.7" stroke="rgb(0,0,0)"  stroke-width="2.0"/>
<line x1="145.3" y1="185.1" x2="144.8" y2="139.1" stroke="rgb(0,0,0)"  stroke-width="2.0"/>
<line x1="144.8" y1="139.1" x2="106.2" y2="118.0" stroke="rgb(0,0,0)"  stroke-width="2.0"/>
<line x1="136.0" y1="142.5" x2="108.0" y2="127.1" stroke="rgb(0,0,0)"  stroke-width="2.0"/>
<line x1="106.2" y1="118.0" x2="67.0" y2="139.8" stroke="rgb(0,0,0)"  stroke-width="2.0"/>
<line x1="67.0" y1="139.8" x2="67.0" y2="186.5" stroke="rgb(0,0,0)"  stroke-width="2.0"/>
<line x1="74.2" y1="145.8" x2="74.2" y2="180.5" stroke="rgb(0,0,0)"  stroke-width="2.0"/>
<line x1="67.0" y1="186.5" x2="106.0" y2="206.7" stroke="rgb(0,0,0)"  stroke-width="2.0"/>
<line x1="160.5" y1="68.1" x2="114.6" y2="72.7" stroke="rgb(0,0,0)"  stroke-width="2.0"/>
<line x1="114.6" y1="72.7" x2="106.2" y2="118.0" stroke="rgb(0,0,0)"  stroke-width="2.0"/>
<line x1="144.8" y1="139.1" x2="179.3" y2="109.8" stroke="rgb(0,0,0)"  stroke-width="2.0"/>
<line x1="179.3" y1="109.8" x2="160.5" y2="68.1" stroke="rgb(0,0,0)"  stroke-width="2.0"/>
<text x="117.753210" y="256.594271" fill="rgb(17,127,178)"  stroke="rgb(17,127,178)" stroke-width="1" font-size="16" >Xx</text>
<text x="177.416888" y="215.143078" fill="rgb(191,191,191)"  stroke="rgb(191,191,191)" stroke-width="1" font-size="16" >D</text>
<text x="34.311868" y="210.758759" fill="rgb(191,191,191)"  stroke="rgb(191,191,191)" stroke-width="1" font-size="16" >H</text>
<text x="34.000000" y="132.037827" fill="rgb(191,191,191)"  stroke="rgb(191,191,191)" stroke-width="1" font-size="16" >H</text>
<text x="86.605772" y="56.853418" fill="rgb(191,191,191)"  stroke="rgb(191,191,191)" stroke-width="1" font-size="16" >H</text>
<text x="120.060427" y="50.391997" fill="rgb(191,191,191)"  stroke="rgb(191,191,191)" stroke-width="1" font-size="16" >H</text>
<text x="170.704156" y="48.000000" fill="rgb(191,191,191)"  stroke="rgb(191,191,191)" stroke-width="1" font-size="16" >H</text>
<text x="186.854679" y="77.691044" fill="rgb(191,191,191)"  stroke="rgb(191,191,191)" stroke-width="1" font-size="16" >H</text>
<text x="204.879438" y="124.952671" fill="rgb(191,191,191)"  stroke="rgb(191,191,191)" stroke-width="1" font-size="16" >H</text>
<text x="180.989744" y="149.272319" fill="rgb(191,191,191)"  stroke="rgb(191,191,191)" stroke-width="1" font-size="16" >H</text>
</svg>
</g>
<text font-size="18.000000" fill ="black" font-family="sans-serif"
x="10.000000" y="20.000000" ></text>
</svg>
