<?xml version="1.0"?>
<svg version="1.1" id="topsvg"
xmlns="http://www.w3.org/2000/svg" xmlns:xlink="http://www.w3.org/1999/xlink"
xmlns:cml="http://www.xml-cml.org/schema" x="0" y="0" width="200px" height="200px" viewBox="0 0 100 100">
<title> - Open Babel Depiction</title>
<rect x="0" y="0" width="100" height="100" fill="white"/>
<g transform="translate(0,0)">
<svg width="100" height="100" x="0" y="0" viewBox="0 0 455.178 374.273"
font-family="sans-serif" stroke="rgb(0,0,0)" stroke-width="2"  stroke-linecap="round">
<line x1="174.2" y1="183.4" x2="173.8" y2="230.1" stroke="rgb(0,0,0)"  stroke-width="2.0"/>
<line x1="181.9" y1="178.0" x2="182.7" y2="179.4" stroke="rgb(0,0,0)"  stroke-width="1.0"/>
<line x1="187.9" y1="173.7" x2="189.4" y2="176.2" stroke="rgb(0,0,0)"  stroke-width="1.0"/>
<line x1="194.0" y1="169.4" x2="196.1" y2="173.0" stroke="rgb(0,0,0)"  stroke-width="1.0"/>
<line x1="200.1" y1="165.1" x2="202.9" y2="169.8" stroke="rgb(0,0,0)"  stroke-width="1.0"/>
<line x1="206.2" y1="160.8" x2="209.6" y2="166.6" stroke="rgb(0,0,0)"  stroke-width="1.0"/>
<line x1="212.3" y1="156.5" x2="216.4" y2="163.4" stroke="rgb(0,0,0)"  stroke-width="1.0"/>
<line x1="174.2" y1="183.4" x2="156.0" y2="194.1" stroke="rgb(0,0,0)"  stroke-width="2.0"/>
<line x1="173.8" y1="230.1" x2="199.1" y2="246.8" stroke="rgb(0,0,0)"  stroke-width="2.0"/>
<line x1="173.8" y1="230.1" x2="155.2" y2="240.0" stroke="rgb(0,0,0)"  stroke-width="2.0"/>
<line x1="173.8" y1="230.1" x2="172.8" y2="251.2" stroke="rgb(0,0,0)"  stroke-width="2.0"/>
<line x1="131.7" y1="160.3" x2="114.6" y2="170.5" stroke="rgb(0,0,0)"  stroke-width="2.0"/>
<line x1="132.0" y1="113.0" x2="114.2" y2="106.5" stroke="rgb(0,0,0)"  stroke-width="2.0"/>
<line x1="106.5" y1="89.8" x2="113.0" y2="72.1" stroke="rgb(0,0,0)"  stroke-width="2.0"/>
<line x1="89.8" y1="97.5" x2="72.1" y2="91.0" stroke="rgb(0,0,0)"  stroke-width="2.0"/>
<line x1="97.5" y1="114.2" x2="91.0" y2="132.0" stroke="rgb(0,0,0)"  stroke-width="2.0"/>
<line x1="113.0" y1="72.1" x2="133.8" y2="68.4" stroke="rgb(0,0,0)"  stroke-width="2.0"/>
<line x1="113.0" y1="72.1" x2="99.4" y2="55.8" stroke="rgb(0,0,0)"  stroke-width="2.0"/>
<line x1="113.0" y1="72.1" x2="120.3" y2="52.2" stroke="rgb(0,0,0)"  stroke-width="2.0"/>
<line x1="72.1" y1="91.0" x2="68.4" y2="70.2" stroke="rgb(0,0,0)"  stroke-width="2.0"/>
<line x1="72.1" y1="91.0" x2="55.8" y2="104.6" stroke="rgb(0,0,0)"  stroke-width="2.0"/>
<line x1="72.1" y1="91.0" x2="52.2" y2="83.7" stroke="rgb(0,0,0)"  stroke-width="2.0"/>
<line x1="91.0" y1="132.0" x2="70.2" y2="135.6" stroke="rgb(0,0,0)"  stroke-width="2.0"/>
<line x1="91.0" y1="132.0" x2="104.6" y2="148.2" stroke="rgb(0,0,0)"  stroke-width="2.0"/>
<line x1="91.0" y1="132.0" x2="83.7" y2="151.8" stroke="rgb(0,0,0)"  stroke-width="2.0"/>
<line x1="222.5" y1="50.1" x2="173.4" y2="89.2" stroke="rgb(0,0,0)"  stroke-width="2.0"/>
<line x1="214.7" y1="111.7" x2="231.8" y2="101.6" stroke="rgb(0,0,0)"  stroke-width="2.0"/>
<line x1="214.3" y1="160.0" x2="255.3" y2="182.5" stroke="rgb(0,0,0)"  stroke-width="2.0"/>
<polygon points="214.339186 159.962488 232.044980 144.938282 236.092904 151.838595 " stroke-width="2.000000" fill="rgb(0,0,0)"  stroke="rgb(0,0,0)" />
<line x1="337.6" y1="230.7" x2="337.0" y2="164.2" stroke="rgb(0,0,0)"  stroke-width="2.0"/>
<line x1="333.4" y1="230.7" x2="332.8" y2="164.2" stroke="rgb(0,0,0)"  stroke-width="2.0"/>
<line x1="341.8" y1="230.6" x2="341.2" y2="164.1" stroke="rgb(0,0,0)"  stroke-width="2.0"/>
<line x1="378.1" y1="113.0" x2="336.7" y2="131.9" stroke="rgb(0,0,0)"  stroke-width="2.0"/>
<line x1="400.6" y1="115.1" x2="404.6" y2="118.0" stroke="rgb(0,0,0)"  stroke-width="2.0"/>
<line x1="336.7" y1="131.9" x2="337.0" y2="164.2" stroke="rgb(0,0,0)"  stroke-width="2.0"/>
<line x1="336.7" y1="131.9" x2="318.9" y2="120.5" stroke="rgb(0,0,0)"  stroke-width="2.0"/>
<line x1="336.7" y1="131.9" x2="318.2" y2="142.1" stroke="rgb(0,0,0)"  stroke-width="2.0"/>
<line x1="294.5" y1="298.7" x2="336.5" y2="275.0" stroke="rgb(0,0,0)"  stroke-width="2.0"/>
<line x1="297.4" y1="304.0" x2="339.4" y2="280.2" stroke="rgb(0,0,0)"  stroke-width="2.0"/>
<line x1="295.9" y1="301.3" x2="295.9" y2="321.3" stroke="rgb(0,0,0)"  stroke-width="2.0"/>
<line x1="338.0" y1="277.6" x2="337.6" y2="230.7" stroke="rgb(0,0,0)"  stroke-width="2.0"/>
<line x1="338.0" y1="277.6" x2="355.2" y2="287.6" stroke="rgb(0,0,0)"  stroke-width="2.0"/>
<line x1="255.2" y1="278.4" x2="199.1" y2="246.8" stroke="rgb(0,0,0)"  stroke-width="2.0"/>
<line x1="253.1" y1="282.0" x2="197.1" y2="250.4" stroke="rgb(0,0,0)"  stroke-width="2.0"/>
<line x1="257.2" y1="274.7" x2="201.2" y2="243.1" stroke="rgb(0,0,0)"  stroke-width="2.0"/>
<line x1="255.2" y1="278.4" x2="295.9" y2="301.3" stroke="rgb(0,0,0)"  stroke-width="2.0"/>
<line x1="255.3" y1="182.5" x2="272.6" y2="172.5" stroke="rgb(0,0,0)"  stroke-width="2.0"/>
<line x1="251.6" y1="232.8" x2="252.3" y2="182.5" stroke="rgb(0,0,0)"  stroke-width="2.0"/>
<line x1="257.6" y1="232.9" x2="258.3" y2="182.6" stroke="rgb(0,0,0)"  stroke-width="2.0"/>
<line x1="254.6" y1="232.9" x2="237.2" y2="242.6" stroke="rgb(0,0,0)"  stroke-width="2.0"/>
<line x1="254.6" y1="232.9" x2="271.7" y2="243.1" stroke="rgb(0,0,0)"  stroke-width="2.0"/>
<line x1="131.7" y1="160.3" x2="174.2" y2="183.4" stroke="rgb(0,0,0)"  stroke-width="2.0"/>
<line x1="174.2" y1="183.4" x2="214.3" y2="160.0" stroke="rgb(0,0,0)"  stroke-width="2.0"/>
<line x1="214.3" y1="160.0" x2="214.7" y2="111.7" stroke="rgb(0,0,0)"  stroke-width="2.0"/>
<line x1="214.7" y1="111.7" x2="173.4" y2="89.2" stroke="rgb(0,0,0)"  stroke-width="2.0"/>
<line x1="206.0" y1="115.2" x2="175.2" y2="98.4" stroke="rgb(0,0,0)"  stroke-width="2.0"/>
<line x1="173.4" y1="89.2" x2="132.0" y2="113.0" stroke="rgb(0,0,0)"  stroke-width="2.0"/>
<line x1="132.0" y1="113.0" x2="131.7" y2="160.3" stroke="rgb(0,0,0)"  stroke-width="2.0"/>
<line x1="139.1" y1="119.0" x2="138.9" y2="154.4" stroke="rgb(0,0,0)"  stroke-width="2.0"/>
<text x="96.012154" y="110.008963" fill="rgb(127,153,153)"  stroke="rgb(127,153,153)" stroke-width="1" font-size="16" >Si</text>
<text x="226.705121" y="50.022933" fill="rgb(17,127,178)"  stroke="rgb(17,127,178)" stroke-width="1" font-size="16" >Xx</text>
<text x="383.977005" y="115.595960" fill="rgb(255,12,12)"  stroke="rgb(255,12,12)" stroke-width="1" font-size="16" >O</text>
<text x="409.177519" y="133.563052" fill="rgb(191,191,191)"  stroke="rgb(191,191,191)" stroke-width="1" font-size="16" >H</text>
<text x="138.822397" y="208.733844" fill="rgb(191,191,191)"  stroke="rgb(191,191,191)" stroke-width="1" font-size="16" >H</text>
<text x="137.702445" y="254.154117" fill="rgb(191,191,191)"  stroke="rgb(191,191,191)" stroke-width="1" font-size="16" >H</text>
<text x="166.243670" y="272.197787" fill="rgb(191,191,191)"  stroke="rgb(191,191,191)" stroke-width="1" font-size="16" >H</text>
<text x="97.371412" y="185.103177" fill="rgb(191,191,191)"  stroke="rgb(191,191,191)" stroke-width="1" font-size="16" >H</text>
<text x="140.634740" y="74.208790" fill="rgb(191,191,191)"  stroke="rgb(191,191,191)" stroke-width="1" font-size="16" >H</text>
<text x="85.115755" y="53.848638" fill="rgb(191,191,191)"  stroke="rgb(191,191,191)" stroke-width="1" font-size="16" >H</text>
<text x="118.752603" y="48.000000" fill="rgb(191,191,191)"  stroke="rgb(191,191,191)" stroke-width="1" font-size="16" >H</text>
<text x="60.205599" y="65.386376" fill="rgb(191,191,191)"  stroke="rgb(191,191,191)" stroke-width="1" font-size="16" >H</text>
<text x="39.848638" y="120.905362" fill="rgb(191,191,191)"  stroke="rgb(191,191,191)" stroke-width="1" font-size="16" >H</text>
<text x="34.000000" y="87.268514" fill="rgb(191,191,191)"  stroke="rgb(191,191,191)" stroke-width="1" font-size="16" >H</text>
<text x="51.386376" y="145.812327" fill="rgb(191,191,191)"  stroke="rgb(191,191,191)" stroke-width="1" font-size="16" >H</text>
<text x="106.902171" y="166.175670" fill="rgb(191,191,191)"  stroke="rgb(191,191,191)" stroke-width="1" font-size="16" >H</text>
<text x="73.265324" y="172.021117" fill="rgb(191,191,191)"  stroke="rgb(191,191,191)" stroke-width="1" font-size="16" >H</text>
<text x="237.033567" y="102.998894" fill="rgb(191,191,191)"  stroke="rgb(191,191,191)" stroke-width="1" font-size="16" >H</text>
<text x="237.786583" y="150.687787" fill="rgb(191,191,191)"  stroke="rgb(191,191,191)" stroke-width="1" font-size="16" >H</text>
<text x="301.939728" y="121.537129" fill="rgb(191,191,191)"  stroke="rgb(191,191,191)" stroke-width="1" font-size="16" >H</text>
<text x="300.870828" y="156.427940" fill="rgb(191,191,191)"  stroke="rgb(191,191,191)" stroke-width="1" font-size="16" >H</text>
<text x="289.932949" y="342.272957" fill="rgb(191,191,191)"  stroke="rgb(191,191,191)" stroke-width="1" font-size="16" >H</text>
<text x="360.467586" y="302.104652" fill="rgb(191,191,191)"  stroke="rgb(191,191,191)" stroke-width="1" font-size="16" >H</text>
<text x="277.801732" y="173.967472" fill="rgb(191,191,191)"  stroke="rgb(191,191,191)" stroke-width="1" font-size="16" >H</text>
<text x="219.797156" y="256.907731" fill="rgb(191,191,191)"  stroke="rgb(191,191,191)" stroke-width="1" font-size="16" >H</text>
<text x="276.825364" y="257.778805" fill="rgb(191,191,191)"  stroke="rgb(191,191,191)" stroke-width="1" font-size="16" >H</text>
</svg>
</g>
<text font-size="18.000000" fill ="black" font-family="sans-serif"
x="10.000000" y="20.000000" ></text>
</svg>
