<?xml version="1.0"?>
<svg version="1.1" id="topsvg"
xmlns="http://www.w3.org/2000/svg" xmlns:xlink="http://www.w3.org/1999/xlink"
xmlns:cml="http://www.xml-cml.org/schema" x="0" y="0" width="200px" height="200px" viewBox="0 0 100 100">
<title> - Open Babel Depiction</title>
<rect x="0" y="0" width="100" height="100" fill="white"/>
<g transform="translate(0,0)">
<svg width="100" height="100" x="0" y="0" viewBox="0 0 386.414 436.457"
font-family="sans-serif" stroke="rgb(0,0,0)" stroke-width="2"  stroke-linecap="round">
<line x1="203.4" y1="328.8" x2="247.6" y2="316.7" stroke="rgb(0,0,0)"  stroke-width="2.0"/>
<line x1="203.4" y1="328.8" x2="188.6" y2="314.1" stroke="rgb(0,0,0)"  stroke-width="2.0"/>
<line x1="203.4" y1="328.8" x2="198.0" y2="348.9" stroke="rgb(0,0,0)"  stroke-width="2.0"/>
<line x1="203.4" y1="328.8" x2="183.3" y2="334.2" stroke="rgb(0,0,0)"  stroke-width="2.0"/>
<line x1="247.6" y1="316.7" x2="237.4" y2="363.4" stroke="rgb(0,0,0)"  stroke-width="2.0"/>
<line x1="299.2" y1="316.8" x2="311.5" y2="333.6" stroke="rgb(0,0,0)"  stroke-width="2.0"/>
<line x1="299.2" y1="316.8" x2="289.8" y2="335.3" stroke="rgb(0,0,0)"  stroke-width="2.0"/>
<line x1="193.4" y1="189.6" x2="235.1" y2="169.5" stroke="rgb(0,0,0)"  stroke-width="2.0"/>
<line x1="235.1" y1="169.5" x2="234.4" y2="190.3" stroke="rgb(0,0,0)"  stroke-width="2.0"/>
<line x1="234.7" y1="124.2" x2="193.3" y2="98.6" stroke="rgb(0,0,0)"  stroke-width="2.0"/>
<line x1="234.7" y1="124.2" x2="234.4" y2="73.8" stroke="rgb(0,0,0)"  stroke-width="2.0"/>
<line x1="193.3" y1="98.6" x2="152.0" y2="121.2" stroke="rgb(0,0,0)"  stroke-width="2.0"/>
<line x1="193.3" y1="98.6" x2="193.9" y2="77.8" stroke="rgb(0,0,0)"  stroke-width="2.0"/>
<line x1="193.3" y1="98.6" x2="175.6" y2="87.7" stroke="rgb(0,0,0)"  stroke-width="2.0"/>
<line x1="152.0" y1="121.2" x2="151.9" y2="142.0" stroke="rgb(0,0,0)"  stroke-width="2.0"/>
<line x1="152.0" y1="121.2" x2="134.0" y2="131.7" stroke="rgb(0,0,0)"  stroke-width="2.0"/>
<line x1="66.7" y1="119.7" x2="108.9" y2="95.6" stroke="rgb(0,0,0)"  stroke-width="2.0"/>
<line x1="69.6" y1="124.9" x2="111.9" y2="100.8" stroke="rgb(0,0,0)"  stroke-width="2.0"/>
<line x1="68.1" y1="122.3" x2="51.2" y2="112.4" stroke="rgb(0,0,0)"  stroke-width="2.0"/>
<line x1="68.1" y1="122.3" x2="68.0" y2="141.9" stroke="rgb(0,0,0)"  stroke-width="2.0"/>
<line x1="110.4" y1="98.2" x2="152.0" y2="121.2" stroke="rgb(0,0,0)"  stroke-width="2.0"/>
<line x1="110.4" y1="98.2" x2="110.3" y2="78.6" stroke="rgb(0,0,0)"  stroke-width="2.0"/>
<line x1="234.4" y1="73.8" x2="252.3" y2="63.3" stroke="rgb(0,0,0)"  stroke-width="2.0"/>
<line x1="234.4" y1="73.8" x2="216.3" y2="63.5" stroke="rgb(0,0,0)"  stroke-width="2.0"/>
<line x1="234.4" y1="73.8" x2="234.2" y2="53.0" stroke="rgb(0,0,0)"  stroke-width="2.0"/>
<line x1="271.2" y1="99.6" x2="271.7" y2="64.4" stroke="rgb(0,0,0)"  stroke-width="2.0"/>
<line x1="277.2" y1="99.7" x2="277.7" y2="64.5" stroke="rgb(0,0,0)"  stroke-width="2.0"/>
<line x1="317.2" y1="122.9" x2="335.1" y2="112.2" stroke="rgb(0,0,0)"  stroke-width="2.0"/>
<line x1="317.2" y1="122.9" x2="316.8" y2="102.1" stroke="rgb(0,0,0)"  stroke-width="2.0"/>
<line x1="317.4" y1="170.7" x2="335.3" y2="181.5" stroke="rgb(0,0,0)"  stroke-width="2.0"/>
<line x1="317.4" y1="170.7" x2="316.8" y2="191.5" stroke="rgb(0,0,0)"  stroke-width="2.0"/>
<line x1="235.8" y1="175.5" x2="193.4" y2="189.6" stroke="rgb(0,0,0)"  stroke-width="2.0"/>
<line x1="235.8" y1="175.5" x2="248.5" y2="159.0" stroke="rgb(0,0,0)"  stroke-width="2.0"/>
<line x1="235.8" y1="175.5" x2="255.3" y2="182.7" stroke="rgb(0,0,0)"  stroke-width="2.0"/>
<line x1="267.4" y1="188.6" x2="268.2" y2="187.2" stroke="rgb(0,0,0)"  stroke-width="1.0"/>
<line x1="260.5" y1="185.5" x2="261.9" y2="183.0" stroke="rgb(0,0,0)"  stroke-width="1.0"/>
<line x1="253.7" y1="182.4" x2="255.7" y2="178.7" stroke="rgb(0,0,0)"  stroke-width="1.0"/>
<line x1="246.8" y1="179.3" x2="249.5" y2="174.5" stroke="rgb(0,0,0)"  stroke-width="1.0"/>
<line x1="240.0" y1="176.1" x2="243.3" y2="170.3" stroke="rgb(0,0,0)"  stroke-width="1.0"/>
<line x1="233.1" y1="173.0" x2="237.1" y2="166.1" stroke="rgb(0,0,0)"  stroke-width="1.0"/>
<line x1="275.9" y1="192.5" x2="274.1" y2="240.7" stroke="rgb(0,0,0)"  stroke-width="2.0"/>
<line x1="275.9" y1="192.5" x2="257.8" y2="202.7" stroke="rgb(0,0,0)"  stroke-width="2.0"/>
<line x1="237.4" y1="363.4" x2="217.6" y2="369.8" stroke="rgb(0,0,0)"  stroke-width="2.0"/>
<line x1="237.4" y1="363.4" x2="252.8" y2="377.4" stroke="rgb(0,0,0)"  stroke-width="2.0"/>
<line x1="237.4" y1="363.4" x2="233.0" y2="383.8" stroke="rgb(0,0,0)"  stroke-width="2.0"/>
<line x1="152.4" y1="167.8" x2="194.6" y2="186.9" stroke="rgb(0,0,0)"  stroke-width="2.0"/>
<line x1="149.9" y1="173.2" x2="192.2" y2="192.3" stroke="rgb(0,0,0)"  stroke-width="2.0"/>
<line x1="151.1" y1="170.5" x2="149.2" y2="151.0" stroke="rgb(0,0,0)"  stroke-width="2.0"/>
<line x1="151.1" y1="170.5" x2="135.2" y2="181.9" stroke="rgb(0,0,0)"  stroke-width="2.0"/>
<line x1="234.1" y1="206.5" x2="235.8" y2="175.5" stroke="rgb(0,0,0)"  stroke-width="2.0"/>
<line x1="249.0" y1="261.4" x2="274.1" y2="240.7" stroke="rgb(0,0,0)"  stroke-width="2.0"/>
<line x1="254.5" y1="266.2" x2="274.1" y2="250.1" stroke="rgb(0,0,0)"  stroke-width="2.0"/>
<line x1="274.1" y1="240.7" x2="303.1" y2="264.4" stroke="rgb(0,0,0)"  stroke-width="2.0"/>
<line x1="309.3" y1="285.0" x2="299.2" y2="316.8" stroke="rgb(0,0,0)"  stroke-width="2.0"/>
<line x1="299.2" y1="316.8" x2="247.6" y2="316.7" stroke="rgb(0,0,0)"  stroke-width="2.0"/>
<line x1="247.6" y1="316.7" x2="239.7" y2="284.2" stroke="rgb(0,0,0)"  stroke-width="2.0"/>
<line x1="235.1" y1="169.5" x2="275.9" y2="192.5" stroke="rgb(0,0,0)"  stroke-width="2.0"/>
<line x1="275.9" y1="192.5" x2="317.4" y2="170.7" stroke="rgb(0,0,0)"  stroke-width="2.0"/>
<line x1="317.4" y1="170.7" x2="317.2" y2="122.9" stroke="rgb(0,0,0)"  stroke-width="2.0"/>
<line x1="317.2" y1="122.9" x2="274.2" y2="99.7" stroke="rgb(0,0,0)"  stroke-width="2.0"/>
<line x1="274.2" y1="99.7" x2="234.7" y2="124.2" stroke="rgb(0,0,0)"  stroke-width="2.0"/>
<line x1="234.7" y1="124.2" x2="235.1" y2="169.5" stroke="rgb(0,0,0)"  stroke-width="2.0"/>
<text x="230.618784" y="279.550975" fill="rgb(12,12,255)"  stroke="rgb(12,12,255)" stroke-width="1" font-size="16" >N</text>
<text x="307.166258" y="280.612686" fill="rgb(255,12,12)"  stroke="rgb(255,12,12)" stroke-width="1" font-size="16" >O</text>
<text x="268.890941" y="59.482911" fill="rgb(255,12,12)"  stroke="rgb(255,12,12)" stroke-width="1" font-size="16" >O</text>
<text x="227.430491" y="227.457614" fill="rgb(191,191,191)"  stroke="rgb(191,191,191)" stroke-width="1" font-size="16" >H</text>
<text x="173.387500" y="312.919038" fill="rgb(191,191,191)"  stroke="rgb(191,191,191)" stroke-width="1" font-size="16" >H</text>
<text x="188.722273" y="369.436195" fill="rgb(191,191,191)"  stroke="rgb(191,191,191)" stroke-width="1" font-size="16" >H</text>
<text x="164.738978" y="345.604572" fill="rgb(191,191,191)"  stroke="rgb(191,191,191)" stroke-width="1" font-size="16" >H</text>
<text x="313.185781" y="352.060155" fill="rgb(191,191,191)"  stroke="rgb(191,191,191)" stroke-width="1" font-size="16" >H</text>
<text x="277.906006" y="354.929303" fill="rgb(191,191,191)"  stroke="rgb(191,191,191)" stroke-width="1" font-size="16" >H</text>
<text x="228.018223" y="211.339197" fill="rgb(191,191,191)"  stroke="rgb(191,191,191)" stroke-width="1" font-size="16" >H</text>
<text x="188.216697" y="72.776419" fill="rgb(191,191,191)"  stroke="rgb(191,191,191)" stroke-width="1" font-size="16" >H</text>
<text x="158.469827" y="88.945394" fill="rgb(191,191,191)"  stroke="rgb(191,191,191)" stroke-width="1" font-size="16" >H</text>
<text x="145.880967" y="162.993423" fill="rgb(191,191,191)"  stroke="rgb(191,191,191)" stroke-width="1" font-size="16" >H</text>
<text x="116.819785" y="146.322031" fill="rgb(191,191,191)"  stroke="rgb(191,191,191)" stroke-width="1" font-size="16" >H</text>
<text x="34.000000" y="113.803969" fill="rgb(191,191,191)"  stroke="rgb(191,191,191)" stroke-width="1" font-size="16" >H</text>
<text x="61.964712" y="162.876509" fill="rgb(191,191,191)"  stroke="rgb(191,191,191)" stroke-width="1" font-size="16" >H</text>
<text x="104.180367" y="73.585342" fill="rgb(191,191,191)"  stroke="rgb(191,191,191)" stroke-width="1" font-size="16" >H</text>
<text x="257.512305" y="64.687191" fill="rgb(191,191,191)"  stroke="rgb(191,191,191)" stroke-width="1" font-size="16" >H</text>
<text x="198.953882" y="65.123251" fill="rgb(191,191,191)"  stroke="rgb(191,191,191)" stroke-width="1" font-size="16" >H</text>
<text x="228.106699" y="48.000000" fill="rgb(191,191,191)"  stroke="rgb(191,191,191)" stroke-width="1" font-size="16" >H</text>
<text x="340.208856" y="113.566980" fill="rgb(191,191,191)"  stroke="rgb(191,191,191)" stroke-width="1" font-size="16" >H</text>
<text x="310.468306" y="97.145216" fill="rgb(191,191,191)"  stroke="rgb(191,191,191)" stroke-width="1" font-size="16" >H</text>
<text x="340.414246" y="196.175055" fill="rgb(191,191,191)"  stroke="rgb(191,191,191)" stroke-width="1" font-size="16" >H</text>
<text x="310.439867" y="212.536781" fill="rgb(191,191,191)"  stroke="rgb(191,191,191)" stroke-width="1" font-size="16" >H</text>
<text x="250.345755" y="156.673714" fill="rgb(191,191,191)"  stroke="rgb(191,191,191)" stroke-width="1" font-size="16" >H</text>
<text x="261.537960" y="195.236578" fill="rgb(191,191,191)"  stroke="rgb(191,191,191)" stroke-width="1" font-size="16" >H</text>
<text x="240.436451" y="217.007975" fill="rgb(191,191,191)"  stroke="rgb(191,191,191)" stroke-width="1" font-size="16" >H</text>
<text x="199.238269" y="381.702750" fill="rgb(191,191,191)"  stroke="rgb(191,191,191)" stroke-width="1" font-size="16" >H</text>
<text x="256.456914" y="394.181015" fill="rgb(191,191,191)"  stroke="rgb(191,191,191)" stroke-width="1" font-size="16" >H</text>
<text x="224.245357" y="404.456861" fill="rgb(191,191,191)"  stroke="rgb(191,191,191)" stroke-width="1" font-size="16" >H</text>
<text x="141.918509" y="146.050284" fill="rgb(191,191,191)"  stroke="rgb(191,191,191)" stroke-width="1" font-size="16" >H</text>
<text x="118.658821" y="197.517993" fill="rgb(191,191,191)"  stroke="rgb(191,191,191)" stroke-width="1" font-size="16" >H</text>
</svg>
</g>
<text font-size="18.000000" fill ="black" font-family="sans-serif"
x="10.000000" y="20.000000" ></text>
</svg>
