<?xml version="1.0"?>
<svg version="1.1" id="topsvg"
xmlns="http://www.w3.org/2000/svg" xmlns:xlink="http://www.w3.org/1999/xlink"
xmlns:cml="http://www.xml-cml.org/schema" x="0" y="0" width="200px" height="200px" viewBox="0 0 100 100">
<title> - Open Babel Depiction</title>
<rect x="0" y="0" width="100" height="100" fill="white"/>
<g transform="translate(0,0)">
<svg width="100" height="100" x="0" y="0" viewBox="0 0 399.381 280.106"
font-family="sans-serif" stroke="rgb(0,0,0)" stroke-width="2"  stroke-linecap="round">
<line x1="200.5" y1="215.3" x2="199.7" y2="227.1" stroke="rgb(0,0,0)"  stroke-width="2.0"/>
<line x1="200.5" y1="215.3" x2="211.1" y2="209.9" stroke="rgb(0,0,0)"  stroke-width="2.0"/>
<line x1="200.5" y1="215.3" x2="210.4" y2="221.8" stroke="rgb(0,0,0)"  stroke-width="2.0"/>
<line x1="174.6" y1="198.2" x2="200.5" y2="215.3" stroke="rgb(0,0,0)"  stroke-width="2.0"/>
<polygon points="174.599880 198.223609 157.521741 163.197219 165.034437 160.447782 " stroke-width="2.000000" fill="rgb(0,0,0)"  stroke="rgb(0,0,0)" />
<line x1="174.6" y1="198.2" x2="183.9" y2="190.8" stroke="rgb(0,0,0)"  stroke-width="2.0"/>
<line x1="165.0" y1="194.9" x2="155.7" y2="202.3" stroke="rgb(0,0,0)"  stroke-width="2.0"/>
<line x1="165.0" y1="194.9" x2="154.1" y2="190.3" stroke="rgb(0,0,0)"  stroke-width="2.0"/>
<line x1="129.1" y1="144.1" x2="118.9" y2="150.1" stroke="rgb(0,0,0)"  stroke-width="2.0"/>
<line x1="129.1" y1="144.1" x2="118.8" y2="138.2" stroke="rgb(0,0,0)"  stroke-width="2.0"/>
<line x1="129.0" y1="107.5" x2="139.3" y2="113.5" stroke="rgb(0,0,0)"  stroke-width="2.0"/>
<line x1="110.7" y1="88.2" x2="113.7" y2="78.4" stroke="rgb(0,0,0)"  stroke-width="2.0"/>
<line x1="94.4" y1="96.7" x2="84.6" y2="93.6" stroke="rgb(0,0,0)"  stroke-width="2.0"/>
<line x1="102.9" y1="113.0" x2="99.9" y2="122.8" stroke="rgb(0,0,0)"  stroke-width="2.0"/>
<line x1="119.2" y1="104.4" x2="129.0" y2="107.5" stroke="rgb(0,0,0)"  stroke-width="2.0"/>
<line x1="113.7" y1="78.4" x2="125.3" y2="75.8" stroke="rgb(0,0,0)"  stroke-width="2.0"/>
<line x1="113.7" y1="78.4" x2="105.7" y2="69.6" stroke="rgb(0,0,0)"  stroke-width="2.0"/>
<line x1="113.7" y1="78.4" x2="117.3" y2="67.0" stroke="rgb(0,0,0)"  stroke-width="2.0"/>
<line x1="84.6" y1="93.6" x2="82.0" y2="82.0" stroke="rgb(0,0,0)"  stroke-width="2.0"/>
<line x1="84.6" y1="93.6" x2="75.9" y2="101.7" stroke="rgb(0,0,0)"  stroke-width="2.0"/>
<line x1="84.6" y1="93.6" x2="73.2" y2="90.1" stroke="rgb(0,0,0)"  stroke-width="2.0"/>
<line x1="99.9" y1="122.8" x2="88.3" y2="125.4" stroke="rgb(0,0,0)"  stroke-width="2.0"/>
<line x1="99.9" y1="122.8" x2="107.9" y2="131.5" stroke="rgb(0,0,0)"  stroke-width="2.0"/>
<line x1="99.9" y1="122.8" x2="96.3" y2="134.1" stroke="rgb(0,0,0)"  stroke-width="2.0"/>
<line x1="160.2" y1="89.9" x2="195.8" y2="61.0" stroke="rgb(0,0,0)"  stroke-width="2.0"/>
<line x1="160.2" y1="89.9" x2="153.5" y2="80.0" stroke="rgb(0,0,0)"  stroke-width="2.0"/>
<line x1="184.9" y1="104.1" x2="185.6" y2="102.7" stroke="rgb(0,0,0)"  stroke-width="1.0"/>
<line x1="179.6" y1="101.9" x2="180.9" y2="99.4" stroke="rgb(0,0,0)"  stroke-width="1.0"/>
<line x1="174.2" y1="99.8" x2="176.2" y2="96.1" stroke="rgb(0,0,0)"  stroke-width="1.0"/>
<line x1="168.9" y1="97.7" x2="171.5" y2="92.9" stroke="rgb(0,0,0)"  stroke-width="1.0"/>
<line x1="163.6" y1="95.5" x2="166.8" y2="89.6" stroke="rgb(0,0,0)"  stroke-width="1.0"/>
<line x1="158.3" y1="93.4" x2="162.1" y2="86.3" stroke="rgb(0,0,0)"  stroke-width="1.0"/>
<line x1="221.1" y1="95.4" x2="221.3" y2="83.5" stroke="rgb(0,0,0)"  stroke-width="2.0"/>
<line x1="221.1" y1="95.4" x2="231.1" y2="88.8" stroke="rgb(0,0,0)"  stroke-width="2.0"/>
<polygon points="233.794141 100.625085 192.102416 110.693441 190.957867 102.775739 " stroke-width="2.000000" fill="rgb(0,0,0)"  stroke="rgb(0,0,0)" />
<line x1="233.8" y1="100.6" x2="263.8" y2="107.2" stroke="rgb(0,0,0)"  stroke-width="2.0"/>
<line x1="233.8" y1="100.6" x2="222.0" y2="99.1" stroke="rgb(0,0,0)"  stroke-width="2.0"/>
<line x1="359.2" y1="58.6" x2="52.8" y2="43.6" stroke="rgb(0,0,0)"  stroke-width="2.0"/>
<line x1="359.5" y1="52.6" x2="53.1" y2="37.6" stroke="rgb(0,0,0)"  stroke-width="2.0"/>
<line x1="359.4" y1="55.6" x2="40.0" y2="40.0" stroke="rgb(0,0,0)"  stroke-width="2.0"/>
<line x1="nan" y1="nan" x2="nan" y2="nan" stroke="rgb(0,0,0)"  stroke-width="2.0"/>
<line x1="nan" y1="nan" x2="nan" y2="nan" stroke="rgb(0,0,0)"  stroke-width="2.0"/>
<line x1="40.0" y1="40.0" x2="nan" y2="nan" stroke="rgb(0,0,0)"  stroke-width="2.0"/>
<line x1="290.9" y1="174.1" x2="281.9" y2="136.7" stroke="rgb(0,0,0)"  stroke-width="2.0"/>
<line x1="290.9" y1="174.1" x2="301.8" y2="175.6" stroke="rgb(0,0,0)"  stroke-width="2.0"/>
<line x1="270.3" y1="204.4" x2="288.2" y2="172.6" stroke="rgb(0,0,0)"  stroke-width="2.0"/>
<line x1="275.5" y1="207.4" x2="293.5" y2="175.6" stroke="rgb(0,0,0)"  stroke-width="2.0"/>
<line x1="272.9" y1="205.9" x2="279.6" y2="214.6" stroke="rgb(0,0,0)"  stroke-width="2.0"/>
<line x1="237.9" y1="215.3" x2="272.9" y2="205.9" stroke="rgb(0,0,0)"  stroke-width="2.0"/>
<line x1="237.9" y1="215.3" x2="229.5" y2="206.9" stroke="rgb(0,0,0)"  stroke-width="2.0"/>
<line x1="237.9" y1="215.3" x2="234.8" y2="226.8" stroke="rgb(0,0,0)"  stroke-width="2.0"/>
<line x1="237.9" y1="215.3" x2="226.4" y2="218.4" stroke="rgb(0,0,0)"  stroke-width="2.0"/>
<line x1="185.6" y1="147.6" x2="184.7" y2="146.2" stroke="rgb(0,0,0)"  stroke-width="1.0"/>
<line x1="181.1" y1="151.1" x2="179.6" y2="148.6" stroke="rgb(0,0,0)"  stroke-width="1.0"/>
<line x1="176.7" y1="154.6" x2="174.5" y2="151.1" stroke="rgb(0,0,0)"  stroke-width="1.0"/>
<line x1="172.3" y1="158.2" x2="169.4" y2="153.5" stroke="rgb(0,0,0)"  stroke-width="1.0"/>
<line x1="167.8" y1="161.7" x2="164.3" y2="156.0" stroke="rgb(0,0,0)"  stroke-width="1.0"/>
<line x1="163.4" y1="165.2" x2="159.2" y2="158.4" stroke="rgb(0,0,0)"  stroke-width="1.0"/>
<line x1="191.1" y1="143.1" x2="224.4" y2="162.0" stroke="rgb(0,0,0)"  stroke-width="2.0"/>
<line x1="191.1" y1="143.1" x2="180.7" y2="137.3" stroke="rgb(0,0,0)"  stroke-width="2.0"/>
<line x1="231.9" y1="153.4" x2="227.1" y2="163.3" stroke="rgb(0,0,0)"  stroke-width="2.0"/>
<line x1="226.5" y1="150.7" x2="221.7" y2="160.6" stroke="rgb(0,0,0)"  stroke-width="2.0"/>
<line x1="223.5" y1="159.1" x2="251.8" y2="150.6" stroke="rgb(0,0,0)"  stroke-width="2.0"/>
<line x1="225.2" y1="164.8" x2="253.6" y2="156.4" stroke="rgb(0,0,0)"  stroke-width="2.0"/>
<line x1="161.3" y1="161.8" x2="174.6" y2="198.2" stroke="rgb(0,0,0)"  stroke-width="2.0"/>
<line x1="174.6" y1="198.2" x2="165.0" y2="194.9" stroke="rgb(0,0,0)"  stroke-width="2.0"/>
<line x1="165.0" y1="194.9" x2="161.3" y2="161.8" stroke="rgb(0,0,0)"  stroke-width="2.0"/>
<line x1="221.1" y1="95.4" x2="233.8" y2="100.6" stroke="rgb(0,0,0)"  stroke-width="2.0"/>
<line x1="233.8" y1="100.6" x2="191.5" y2="106.7" stroke="rgb(0,0,0)"  stroke-width="2.0"/>
<line x1="191.5" y1="106.7" x2="221.1" y2="95.4" stroke="rgb(0,0,0)"  stroke-width="2.0"/>
<line x1="359.4" y1="55.6" x2="263.8" y2="107.2" stroke="rgb(0,0,0)"  stroke-width="2.0"/>
<line x1="263.8" y1="107.2" x2="286.1" y2="112.4" stroke="rgb(0,0,0)"  stroke-width="2.0"/>
<line x1="286.1" y1="112.4" x2="359.4" y2="55.6" stroke="rgb(0,0,0)"  stroke-width="2.0"/>
<line x1="346.1" y1="108.0" x2="359.4" y2="55.6" stroke="rgb(0,0,0)"  stroke-width="2.0"/>
<line x1="286.1" y1="112.4" x2="330.1" y2="118.7" stroke="rgb(0,0,0)"  stroke-width="2.0"/>
<line x1="281.9" y1="136.7" x2="263.8" y2="107.2" stroke="rgb(0,0,0)"  stroke-width="2.0"/>
<line x1="286.1" y1="112.4" x2="281.9" y2="136.7" stroke="rgb(0,0,0)"  stroke-width="2.0"/>
<line x1="330.4" y1="123.9" x2="281.9" y2="136.7" stroke="rgb(0,0,0)"  stroke-width="2.0"/>
<line x1="129.1" y1="144.1" x2="129.0" y2="107.5" stroke="rgb(0,0,0)"  stroke-width="2.0"/>
<line x1="129.0" y1="107.5" x2="160.2" y2="89.9" stroke="rgb(0,0,0)"  stroke-width="2.0"/>
<line x1="160.2" y1="89.9" x2="191.5" y2="106.7" stroke="rgb(0,0,0)"  stroke-width="2.0"/>
<line x1="191.5" y1="106.7" x2="191.1" y2="143.1" stroke="rgb(0,0,0)"  stroke-width="2.0"/>
<line x1="191.1" y1="143.1" x2="161.3" y2="161.8" stroke="rgb(0,0,0)"  stroke-width="2.0"/>
<line x1="161.3" y1="161.8" x2="129.1" y2="144.1" stroke="rgb(0,0,0)"  stroke-width="2.0"/>
<text x="100.809039" y="108.569248" fill="rgb(127,153,153)"  stroke="rgb(127,153,153)" stroke-width="1" font-size="16" >Si</text>
<text x="199.884918" y="60.856483" fill="rgb(17,127,178)"  stroke="rgb(17,127,178)" stroke-width="1" font-size="16" >Xx</text>
<text x="34.000000" y="48.000000" fill="rgb(255,12,12)"  stroke="rgb(255,12,12)" stroke-width="1" font-size="16" >O</text>
<text x="34.000000" y="48.000000" fill="rgb(255,12,12)"  stroke="rgb(255,12,12)" stroke-width="1" font-size="16" >O</text>
<text x="336.918364" y="128.589160" fill="rgb(17,127,178)"  stroke="rgb(17,127,178)" stroke-width="1" font-size="16" >Xx</text>
<text x="205.510816" y="171.748879" fill="rgb(17,127,178)"  stroke="rgb(17,127,178)" stroke-width="1" font-size="16" >Xx</text>
<text x="259.151302" y="157.752390" fill="rgb(178,178,0)"  stroke="rgb(178,178,0)" stroke-width="1" font-size="16" >S</text>
<text x="192.982062" y="248.106055" fill="rgb(191,191,191)"  stroke="rgb(191,191,191)" stroke-width="1" font-size="16" >H</text>
<text x="216.705832" y="212.102786" fill="rgb(191,191,191)"  stroke="rgb(191,191,191)" stroke-width="1" font-size="16" >H</text>
<text x="215.237783" y="236.952603" fill="rgb(191,191,191)"  stroke="rgb(191,191,191)" stroke-width="1" font-size="16" >H</text>
<text x="188.119585" y="190.775356" fill="rgb(191,191,191)"  stroke="rgb(191,191,191)" stroke-width="1" font-size="16" >H</text>
<text x="139.569263" y="218.361189" fill="rgb(191,191,191)"  stroke="rgb(191,191,191)" stroke-width="1" font-size="16" >H</text>
<text x="136.039896" y="193.334555" fill="rgb(191,191,191)"  stroke="rgb(191,191,191)" stroke-width="1" font-size="16" >H</text>
<text x="101.697779" y="164.773900" fill="rgb(191,191,191)"  stroke="rgb(191,191,191)" stroke-width="1" font-size="16" >H</text>
<text x="101.469778" y="139.791470" fill="rgb(191,191,191)"  stroke="rgb(191,191,191)" stroke-width="1" font-size="16" >H</text>
<text x="144.538762" y="128.009850" fill="rgb(191,191,191)"  stroke="rgb(191,191,191)" stroke-width="1" font-size="16" >H</text>
<text x="132.028934" y="80.899660" fill="rgb(191,191,191)"  stroke="rgb(191,191,191)" stroke-width="1" font-size="16" >H</text>
<text x="90.867717" y="68.054810" fill="rgb(191,191,191)"  stroke="rgb(191,191,191)" stroke-width="1" font-size="16" >H</text>
<text x="115.156837" y="62.596737" fill="rgb(191,191,191)"  stroke="rgb(191,191,191)" stroke-width="1" font-size="16" >H</text>
<text x="73.139451" y="77.349353" fill="rgb(191,191,191)"  stroke="rgb(191,191,191)" stroke-width="1" font-size="16" >H</text>
<text x="60.294601" y="118.510571" fill="rgb(191,191,191)"  stroke="rgb(191,191,191)" stroke-width="1" font-size="16" >H</text>
<text x="54.836529" y="94.221451" fill="rgb(191,191,191)"  stroke="rgb(191,191,191)" stroke-width="1" font-size="16" >H</text>
<text x="69.586818" y="136.236510" fill="rgb(191,191,191)"  stroke="rgb(191,191,191)" stroke-width="1" font-size="16" >H</text>
<text x="110.745709" y="149.083687" fill="rgb(191,191,191)"  stroke="rgb(191,191,191)" stroke-width="1" font-size="16" >H</text>
<text x="86.458916" y="154.541759" fill="rgb(191,191,191)"  stroke="rgb(191,191,191)" stroke-width="1" font-size="16" >H</text>
<text x="140.176491" y="77.279557" fill="rgb(191,191,191)"  stroke="rgb(191,191,191)" stroke-width="1" font-size="16" >H</text>
<text x="215.468111" y="78.463768" fill="rgb(191,191,191)"  stroke="rgb(191,191,191)" stroke-width="1" font-size="16" >H</text>
<text x="235.932392" y="89.682363" fill="rgb(191,191,191)"  stroke="rgb(191,191,191)" stroke-width="1" font-size="16" >H</text>
<text x="203.095549" y="105.512169" fill="rgb(191,191,191)"  stroke="rgb(191,191,191)" stroke-width="1" font-size="16" >H</text>
<text x="34.000000" y="48.000000" fill="rgb(191,191,191)"  stroke="rgb(191,191,191)" stroke-width="1" font-size="16" >H</text>
<text x="308.634568" y="185.438264" fill="rgb(191,191,191)"  stroke="rgb(191,191,191)" stroke-width="1" font-size="16" >H</text>
<text x="281.565227" y="232.888130" fill="rgb(191,191,191)"  stroke="rgb(191,191,191)" stroke-width="1" font-size="16" >H</text>
<text x="214.258308" y="205.704789" fill="rgb(191,191,191)"  stroke="rgb(191,191,191)" stroke-width="1" font-size="16" >H</text>
<text x="225.435025" y="247.349928" fill="rgb(191,191,191)"  stroke="rgb(191,191,191)" stroke-width="1" font-size="16" >H</text>
<text x="207.825413" y="229.754275" fill="rgb(191,191,191)"  stroke="rgb(191,191,191)" stroke-width="1" font-size="16" >H</text>
<text x="163.407034" y="138.958567" fill="rgb(191,191,191)"  stroke="rgb(191,191,191)" stroke-width="1" font-size="16" >H</text>
</svg>
</g>
<text font-size="18.000000" fill ="black" font-family="sans-serif"
x="10.000000" y="20.000000" ></text>
</svg>
