<?xml version="1.0"?>
<svg version="1.1" id="topsvg"
xmlns="http://www.w3.org/2000/svg" xmlns:xlink="http://www.w3.org/1999/xlink"
xmlns:cml="http://www.xml-cml.org/schema" x="0" y="0" width="200px" height="200px" viewBox="0 0 100 100">
<title> - Open Babel Depiction</title>
<rect x="0" y="0" width="100" height="100" fill="white"/>
<g transform="translate(0,0)">
<svg width="100" height="100" x="0" y="0" viewBox="0 0 359.436 257.433"
font-family="sans-serif" stroke="rgb(0,0,0)" stroke-width="2"  stroke-linecap="round">
<line x1="123.6" y1="203.9" x2="154.6" y2="193.7" stroke="rgb(0,0,0)"  stroke-width="2.0"/>
<line x1="102.3" y1="198.5" x2="82.0" y2="176.9" stroke="rgb(0,0,0)"  stroke-width="2.0"/>
<line x1="101.4" y1="210.9" x2="98.2" y2="210.9" stroke="rgb(0,0,0)"  stroke-width="2.0"/>
<line x1="101.5" y1="204.9" x2="98.2" y2="204.9" stroke="rgb(0,0,0)"  stroke-width="2.0"/>
<line x1="157.0" y1="100.7" x2="200.3" y2="76.5" stroke="rgb(0,0,0)"  stroke-width="2.0"/>
<line x1="288.5" y1="75.5" x2="244.0" y2="100.8" stroke="rgb(0,0,0)"  stroke-width="2.0"/>
<line x1="244.0" y1="100.8" x2="200.3" y2="76.5" stroke="rgb(0,0,0)"  stroke-width="2.0"/>
<line x1="156.9" y1="150.8" x2="199.9" y2="176.7" stroke="rgb(0,0,0)"  stroke-width="2.0"/>
<line x1="199.9" y1="176.7" x2="243.9" y2="152.9" stroke="rgb(0,0,0)"  stroke-width="2.0"/>
<line x1="243.9" y1="152.9" x2="287.6" y2="177.3" stroke="rgb(0,0,0)"  stroke-width="2.0"/>
<line x1="82.0" y1="176.9" x2="69.7" y2="152.3" stroke="rgb(0,0,0)"  stroke-width="2.0"/>
<line x1="154.6" y1="193.7" x2="171.4" y2="208.8" stroke="rgb(0,0,0)"  stroke-width="2.0"/>
<line x1="154.6" y1="193.7" x2="159.3" y2="171.7" stroke="rgb(0,0,0)"  stroke-width="2.0"/>
<line x1="154.6" y1="193.7" x2="176.1" y2="186.7" stroke="rgb(0,0,0)"  stroke-width="2.0"/>
<line x1="69.7" y1="100.4" x2="51.2" y2="89.7" stroke="rgb(0,0,0)"  stroke-width="2.0"/>
<line x1="112.9" y1="75.6" x2="112.8" y2="54.3" stroke="rgb(0,0,0)"  stroke-width="2.0"/>
<line x1="200.3" y1="76.5" x2="200.3" y2="53.9" stroke="rgb(0,0,0)"  stroke-width="2.0"/>
<line x1="200.3" y1="76.5" x2="219.7" y2="65.0" stroke="rgb(0,0,0)"  stroke-width="2.0"/>
<line x1="288.5" y1="75.5" x2="308.0" y2="87.0" stroke="rgb(0,0,0)"  stroke-width="2.0"/>
<line x1="288.5" y1="75.5" x2="288.7" y2="53.0" stroke="rgb(0,0,0)"  stroke-width="2.0"/>
<line x1="288.5" y1="75.5" x2="308.1" y2="64.4" stroke="rgb(0,0,0)"  stroke-width="2.0"/>
<line x1="244.0" y1="100.8" x2="244.2" y2="123.3" stroke="rgb(0,0,0)"  stroke-width="2.0"/>
<line x1="244.0" y1="100.8" x2="224.6" y2="112.3" stroke="rgb(0,0,0)"  stroke-width="2.0"/>
<line x1="199.9" y1="176.7" x2="199.4" y2="199.2" stroke="rgb(0,0,0)"  stroke-width="2.0"/>
<line x1="199.9" y1="176.7" x2="219.2" y2="188.5" stroke="rgb(0,0,0)"  stroke-width="2.0"/>
<line x1="243.9" y1="152.9" x2="244.1" y2="130.4" stroke="rgb(0,0,0)"  stroke-width="2.0"/>
<line x1="243.9" y1="152.9" x2="263.4" y2="141.6" stroke="rgb(0,0,0)"  stroke-width="2.0"/>
<line x1="287.6" y1="177.3" x2="287.9" y2="199.9" stroke="rgb(0,0,0)"  stroke-width="2.0"/>
<line x1="287.6" y1="177.3" x2="306.9" y2="165.8" stroke="rgb(0,0,0)"  stroke-width="2.0"/>
<line x1="287.6" y1="177.3" x2="307.2" y2="188.3" stroke="rgb(0,0,0)"  stroke-width="2.0"/>
<line x1="113.1" y1="175.6" x2="113.4" y2="196.9" stroke="rgb(0,0,0)"  stroke-width="2.0"/>
<line x1="82.0" y1="176.9" x2="63.5" y2="189.8" stroke="rgb(0,0,0)"  stroke-width="2.0"/>
<line x1="82.0" y1="176.9" x2="60.2" y2="171.3" stroke="rgb(0,0,0)"  stroke-width="2.0"/>
<line x1="69.7" y1="100.4" x2="112.9" y2="75.6" stroke="rgb(0,0,0)"  stroke-width="2.0"/>
<line x1="112.9" y1="75.6" x2="157.0" y2="100.7" stroke="rgb(0,0,0)"  stroke-width="2.0"/>
<line x1="114.5" y1="84.8" x2="148.2" y2="104.0" stroke="rgb(0,0,0)"  stroke-width="2.0"/>
<line x1="157.0" y1="100.7" x2="156.9" y2="150.8" stroke="rgb(0,0,0)"  stroke-width="2.0"/>
<line x1="156.9" y1="150.8" x2="113.1" y2="175.6" stroke="rgb(0,0,0)"  stroke-width="2.0"/>
<line x1="148.1" y1="147.5" x2="114.8" y2="166.4" stroke="rgb(0,0,0)"  stroke-width="2.0"/>
<line x1="113.1" y1="175.6" x2="69.7" y2="152.3" stroke="rgb(0,0,0)"  stroke-width="2.0"/>
<line x1="69.7" y1="152.3" x2="69.7" y2="100.4" stroke="rgb(0,0,0)"  stroke-width="2.0"/>
<line x1="76.9" y1="146.3" x2="76.9" y2="106.4" stroke="rgb(0,0,0)"  stroke-width="2.0"/>
<text x="105.235302" y="215.975027" fill="rgb(17,127,178)"  stroke="rgb(17,127,178)" stroke-width="1" font-size="16" >Xx</text>
<text x="70.444542" y="215.882017" fill="rgb(17,127,178)"  stroke="rgb(17,127,178)" stroke-width="1" font-size="16" >Xx</text>
<text x="175.131338" y="225.432914" fill="rgb(191,191,191)"  stroke="rgb(191,191,191)" stroke-width="1" font-size="16" >H</text>
<text x="155.935025" y="166.939880" fill="rgb(191,191,191)"  stroke="rgb(191,191,191)" stroke-width="1" font-size="16" >H</text>
<text x="182.418666" y="190.644899" fill="rgb(191,191,191)"  stroke="rgb(191,191,191)" stroke-width="1" font-size="16" >H</text>
<text x="34.000000" y="91.176678" fill="rgb(191,191,191)"  stroke="rgb(191,191,191)" stroke-width="1" font-size="16" >H</text>
<text x="106.802692" y="49.334453" fill="rgb(191,191,191)"  stroke="rgb(191,191,191)" stroke-width="1" font-size="16" >H</text>
<text x="194.240237" y="48.945817" fill="rgb(191,191,191)"  stroke="rgb(191,191,191)" stroke-width="1" font-size="16" >H</text>
<text x="224.920044" y="66.437130" fill="rgb(191,191,191)"  stroke="rgb(191,191,191)" stroke-width="1" font-size="16" >H</text>
<text x="313.176289" y="101.537803" fill="rgb(191,191,191)"  stroke="rgb(191,191,191)" stroke-width="1" font-size="16" >H</text>
<text x="282.784890" y="48.000000" fill="rgb(191,191,191)"  stroke="rgb(191,191,191)" stroke-width="1" font-size="16" >H</text>
<text x="313.435622" y="65.995660" fill="rgb(191,191,191)"  stroke="rgb(191,191,191)" stroke-width="1" font-size="16" >H</text>
<text x="238.210551" y="144.333735" fill="rgb(191,191,191)"  stroke="rgb(191,191,191)" stroke-width="1" font-size="16" >H</text>
<text x="207.454959" y="126.886496" fill="rgb(191,191,191)"  stroke="rgb(191,191,191)" stroke-width="1" font-size="16" >H</text>
<text x="193.121395" y="220.207358" fill="rgb(191,191,191)"  stroke="rgb(191,191,191)" stroke-width="1" font-size="16" >H</text>
<text x="224.252646" y="203.244555" fill="rgb(191,191,191)"  stroke="rgb(191,191,191)" stroke-width="1" font-size="16" >H</text>
<text x="238.218743" y="125.407623" fill="rgb(191,191,191)"  stroke="rgb(191,191,191)" stroke-width="1" font-size="16" >H</text>
<text x="268.673364" y="143.083086" fill="rgb(191,191,191)"  stroke="rgb(191,191,191)" stroke-width="1" font-size="16" >H</text>
<text x="282.050124" y="220.871264" fill="rgb(191,191,191)"  stroke="rgb(191,191,191)" stroke-width="1" font-size="16" >H</text>
<text x="312.091593" y="167.136326" fill="rgb(191,191,191)"  stroke="rgb(191,191,191)" stroke-width="1" font-size="16" >H</text>
<text x="312.582799" y="202.676020" fill="rgb(191,191,191)"  stroke="rgb(191,191,191)" stroke-width="1" font-size="16" >H</text>
<text x="107.508953" y="217.856258" fill="rgb(191,191,191)"  stroke="rgb(191,191,191)" stroke-width="1" font-size="16" >H</text>
<text x="46.893319" y="205.226977" fill="rgb(191,191,191)"  stroke="rgb(191,191,191)" stroke-width="1" font-size="16" >H</text>
<text x="41.566007" y="176.162434" fill="rgb(191,191,191)"  stroke="rgb(191,191,191)" stroke-width="1" font-size="16" >H</text>
</svg>
</g>
<text font-size="18.000000" fill ="black" font-family="sans-serif"
x="10.000000" y="20.000000" ></text>
</svg>
