<?xml version="1.0"?>
<svg version="1.1" id="topsvg"
xmlns="http://www.w3.org/2000/svg" xmlns:xlink="http://www.w3.org/1999/xlink"
xmlns:cml="http://www.xml-cml.org/schema" x="0" y="0" width="200px" height="200px" viewBox="0 0 100 100">
<title> - Open Babel Depiction</title>
<rect x="0" y="0" width="100" height="100" fill="white"/>
<g transform="translate(0,0)">
<svg width="100" height="100" x="0" y="0" viewBox="0 0 365.658 187.397"
font-family="sans-serif" stroke="rgb(0,0,0)" stroke-width="2"  stroke-linecap="round">
<line x1="53.0" y1="74.1" x2="101.4" y2="71.9" stroke="rgb(0,0,0)"  stroke-width="2.0"/>
<line x1="101.4" y1="71.9" x2="126.7" y2="117.0" stroke="rgb(0,0,0)"  stroke-width="2.0"/>
<line x1="101.4" y1="71.9" x2="112.9" y2="51.4" stroke="rgb(0,0,0)"  stroke-width="2.0"/>
<line x1="101.4" y1="71.9" x2="125.0" y2="71.9" stroke="rgb(0,0,0)"  stroke-width="2.0"/>
<line x1="204.3" y1="71.9" x2="225.5" y2="72.4" stroke="rgb(0,0,0)"  stroke-width="2.0"/>
<line x1="204.3" y1="71.9" x2="192.7" y2="51.5" stroke="rgb(0,0,0)"  stroke-width="2.0"/>
<line x1="204.3" y1="71.9" x2="180.8" y2="72.0" stroke="rgb(0,0,0)"  stroke-width="2.0"/>
<line x1="244.8" y1="84.0" x2="255.0" y2="102.5" stroke="rgb(0,0,0)"  stroke-width="2.0"/>
<line x1="257.5" y1="104.1" x2="246.6" y2="122.2" stroke="rgb(0,0,0)"  stroke-width="2.0"/>
<line x1="252.4" y1="101.0" x2="241.5" y2="119.1" stroke="rgb(0,0,0)"  stroke-width="2.0"/>
<line x1="255.0" y1="102.5" x2="289.1" y2="103.2" stroke="rgb(0,0,0)"  stroke-width="2.0"/>
<line x1="289.1" y1="103.2" x2="300.5" y2="123.8" stroke="rgb(0,0,0)"  stroke-width="2.0"/>
<line x1="289.1" y1="103.2" x2="301.3" y2="83.1" stroke="rgb(0,0,0)"  stroke-width="2.0"/>
<line x1="289.1" y1="103.2" x2="312.7" y2="103.7" stroke="rgb(0,0,0)"  stroke-width="2.0"/>
<line x1="179.0" y1="117.0" x2="204.3" y2="71.9" stroke="rgb(0,0,0)"  stroke-width="2.0"/>
<line x1="179.0" y1="117.0" x2="190.2" y2="136.2" stroke="rgb(0,0,0)"  stroke-width="2.0"/>
<line x1="126.7" y1="114.0" x2="179.0" y2="114.0" stroke="rgb(0,0,0)"  stroke-width="2.0"/>
<line x1="126.7" y1="120.0" x2="179.0" y2="120.0" stroke="rgb(0,0,0)"  stroke-width="2.0"/>
<line x1="126.7" y1="117.0" x2="115.5" y2="136.2" stroke="rgb(0,0,0)"  stroke-width="2.0"/>
<text x="22.000000" y="82.685614" fill="rgb(165,40,40)"  stroke="rgb(165,40,40)" stroke-width="1" font-size="16" >Br</text>
<text x="232.492834" y="80.626199" fill="rgb(255,12,12)"  stroke="rgb(255,12,12)" stroke-width="1" font-size="16" >O</text>
<text x="231.311146" y="139.768655" fill="rgb(255,12,12)"  stroke="rgb(255,12,12)" stroke-width="1" font-size="16" >O</text>
<text x="113.186752" y="48.000000" fill="rgb(191,191,191)"  stroke="rgb(191,191,191)" stroke-width="1" font-size="16" >H</text>
<text x="131.977639" y="79.864591" fill="rgb(191,191,191)"  stroke="rgb(191,191,191)" stroke-width="1" font-size="16" >H</text>
<text x="180.218512" y="48.211748" fill="rgb(191,191,191)"  stroke="rgb(191,191,191)" stroke-width="1" font-size="16" >H</text>
<text x="161.803306" y="80.062677" fill="rgb(191,191,191)"  stroke="rgb(191,191,191)" stroke-width="1" font-size="16" >H</text>
<text x="300.760926" y="143.224921" fill="rgb(191,191,191)"  stroke="rgb(191,191,191)" stroke-width="1" font-size="16" >H</text>
<text x="302.017750" y="79.943142" fill="rgb(191,191,191)"  stroke="rgb(191,191,191)" stroke-width="1" font-size="16" >H</text>
<text x="319.657687" y="111.947759" fill="rgb(191,191,191)"  stroke="rgb(191,191,191)" stroke-width="1" font-size="16" >H</text>
<text x="190.795644" y="155.396990" fill="rgb(191,191,191)"  stroke="rgb(191,191,191)" stroke-width="1" font-size="16" >H</text>
<text x="102.913581" y="155.386744" fill="rgb(191,191,191)"  stroke="rgb(191,191,191)" stroke-width="1" font-size="16" >H</text>
</svg>
</g>
<text font-size="18.000000" fill ="black" font-family="sans-serif"
x="10.000000" y="20.000000" ></text>
</svg>
