<?xml version="1.0"?>
<svg version="1.1" id="topsvg"
xmlns="http://www.w3.org/2000/svg" xmlns:xlink="http://www.w3.org/1999/xlink"
xmlns:cml="http://www.xml-cml.org/schema" x="0" y="0" width="200px" height="200px" viewBox="0 0 100 100">
<title> - Open Babel Depiction</title>
<rect x="0" y="0" width="100" height="100" fill="white"/>
<g transform="translate(0,0)">
<svg width="100" height="100" x="0" y="0" viewBox="0 0 458.185 376.614"
font-family="sans-serif" stroke="rgb(0,0,0)" stroke-width="2"  stroke-linecap="round">
<line x1="175.4" y1="185.1" x2="174.5" y2="232.0" stroke="rgb(0,0,0)"  stroke-width="2.0"/>
<line x1="182.8" y1="179.5" x2="183.7" y2="180.9" stroke="rgb(0,0,0)"  stroke-width="1.0"/>
<line x1="188.8" y1="175.1" x2="190.3" y2="177.5" stroke="rgb(0,0,0)"  stroke-width="1.0"/>
<line x1="194.7" y1="170.6" x2="196.9" y2="174.2" stroke="rgb(0,0,0)"  stroke-width="1.0"/>
<line x1="200.7" y1="166.2" x2="203.6" y2="170.8" stroke="rgb(0,0,0)"  stroke-width="1.0"/>
<line x1="206.7" y1="161.7" x2="210.2" y2="167.4" stroke="rgb(0,0,0)"  stroke-width="1.0"/>
<line x1="212.6" y1="157.2" x2="216.8" y2="164.0" stroke="rgb(0,0,0)"  stroke-width="1.0"/>
<line x1="175.4" y1="185.1" x2="157.3" y2="195.6" stroke="rgb(0,0,0)"  stroke-width="2.0"/>
<line x1="174.5" y1="232.0" x2="201.0" y2="248.7" stroke="rgb(0,0,0)"  stroke-width="2.0"/>
<line x1="174.5" y1="232.0" x2="156.2" y2="242.0" stroke="rgb(0,0,0)"  stroke-width="2.0"/>
<line x1="174.5" y1="232.0" x2="173.9" y2="252.9" stroke="rgb(0,0,0)"  stroke-width="2.0"/>
<line x1="133.1" y1="162.0" x2="116.2" y2="172.0" stroke="rgb(0,0,0)"  stroke-width="2.0"/>
<line x1="133.5" y1="111.8" x2="115.6" y2="106.6" stroke="rgb(0,0,0)"  stroke-width="2.0"/>
<line x1="106.6" y1="90.6" x2="111.8" y2="72.6" stroke="rgb(0,0,0)"  stroke-width="2.0"/>
<line x1="90.6" y1="99.5" x2="72.6" y2="94.4" stroke="rgb(0,0,0)"  stroke-width="2.0"/>
<line x1="99.5" y1="115.6" x2="94.4" y2="133.5" stroke="rgb(0,0,0)"  stroke-width="2.0"/>
<line x1="111.8" y1="72.6" x2="132.0" y2="67.5" stroke="rgb(0,0,0)"  stroke-width="2.0"/>
<line x1="111.8" y1="72.6" x2="97.2" y2="57.6" stroke="rgb(0,0,0)"  stroke-width="2.0"/>
<line x1="111.8" y1="72.6" x2="117.5" y2="52.5" stroke="rgb(0,0,0)"  stroke-width="2.0"/>
<line x1="72.6" y1="94.4" x2="67.5" y2="74.1" stroke="rgb(0,0,0)"  stroke-width="2.0"/>
<line x1="72.6" y1="94.4" x2="57.6" y2="108.9" stroke="rgb(0,0,0)"  stroke-width="2.0"/>
<line x1="72.6" y1="94.4" x2="52.5" y2="88.6" stroke="rgb(0,0,0)"  stroke-width="2.0"/>
<line x1="94.4" y1="133.5" x2="74.1" y2="138.6" stroke="rgb(0,0,0)"  stroke-width="2.0"/>
<line x1="94.4" y1="133.5" x2="108.9" y2="148.5" stroke="rgb(0,0,0)"  stroke-width="2.0"/>
<line x1="94.4" y1="133.5" x2="88.6" y2="153.6" stroke="rgb(0,0,0)"  stroke-width="2.0"/>
<line x1="224.2" y1="49.6" x2="174.7" y2="89.2" stroke="rgb(0,0,0)"  stroke-width="2.0"/>
<line x1="216.6" y1="112.6" x2="233.8" y2="102.9" stroke="rgb(0,0,0)"  stroke-width="2.0"/>
<line x1="214.7" y1="160.6" x2="255.9" y2="183.4" stroke="rgb(0,0,0)"  stroke-width="2.0"/>
<polygon points="214.725702 160.645899 219.314480 183.247059 211.317181 183.454917 " stroke-width="2.000000" fill="rgb(0,0,0)"  stroke="rgb(0,0,0)" />
<line x1="340.9" y1="233.2" x2="340.9" y2="166.1" stroke="rgb(0,0,0)"  stroke-width="2.0"/>
<line x1="336.7" y1="233.2" x2="336.7" y2="166.1" stroke="rgb(0,0,0)"  stroke-width="2.0"/>
<line x1="345.1" y1="233.2" x2="345.1" y2="166.1" stroke="rgb(0,0,0)"  stroke-width="2.0"/>
<line x1="381.2" y1="114.9" x2="340.9" y2="134.0" stroke="rgb(0,0,0)"  stroke-width="2.0"/>
<line x1="403.6" y1="116.7" x2="407.5" y2="119.4" stroke="rgb(0,0,0)"  stroke-width="2.0"/>
<line x1="340.9" y1="134.0" x2="340.9" y2="166.1" stroke="rgb(0,0,0)"  stroke-width="2.0"/>
<line x1="340.9" y1="134.0" x2="323.3" y2="122.8" stroke="rgb(0,0,0)"  stroke-width="2.0"/>
<line x1="340.9" y1="134.0" x2="322.6" y2="144.0" stroke="rgb(0,0,0)"  stroke-width="2.0"/>
<line x1="298.1" y1="301.3" x2="339.4" y2="278.4" stroke="rgb(0,0,0)"  stroke-width="2.0"/>
<line x1="301.0" y1="306.5" x2="342.3" y2="283.7" stroke="rgb(0,0,0)"  stroke-width="2.0"/>
<line x1="299.5" y1="303.9" x2="299.6" y2="323.6" stroke="rgb(0,0,0)"  stroke-width="2.0"/>
<line x1="340.9" y1="281.1" x2="340.9" y2="233.2" stroke="rgb(0,0,0)"  stroke-width="2.0"/>
<line x1="340.9" y1="281.1" x2="357.8" y2="291.1" stroke="rgb(0,0,0)"  stroke-width="2.0"/>
<line x1="257.3" y1="281.4" x2="201.0" y2="248.7" stroke="rgb(0,0,0)"  stroke-width="2.0"/>
<line x1="255.2" y1="285.0" x2="198.9" y2="252.3" stroke="rgb(0,0,0)"  stroke-width="2.0"/>
<line x1="259.4" y1="277.8" x2="203.1" y2="245.0" stroke="rgb(0,0,0)"  stroke-width="2.0"/>
<line x1="257.3" y1="281.4" x2="299.5" y2="303.9" stroke="rgb(0,0,0)"  stroke-width="2.0"/>
<line x1="258.9" y1="183.2" x2="261.1" y2="234.1" stroke="rgb(0,0,0)"  stroke-width="2.0"/>
<line x1="252.9" y1="183.5" x2="255.1" y2="234.4" stroke="rgb(0,0,0)"  stroke-width="2.0"/>
<line x1="255.9" y1="183.4" x2="272.6" y2="173.0" stroke="rgb(0,0,0)"  stroke-width="2.0"/>
<line x1="258.1" y1="234.2" x2="241.5" y2="244.8" stroke="rgb(0,0,0)"  stroke-width="2.0"/>
<line x1="258.1" y1="234.2" x2="275.6" y2="243.3" stroke="rgb(0,0,0)"  stroke-width="2.0"/>
<line x1="133.1" y1="162.0" x2="175.4" y2="185.1" stroke="rgb(0,0,0)"  stroke-width="2.0"/>
<line x1="175.4" y1="185.1" x2="214.7" y2="160.6" stroke="rgb(0,0,0)"  stroke-width="2.0"/>
<line x1="214.7" y1="160.6" x2="216.6" y2="112.6" stroke="rgb(0,0,0)"  stroke-width="2.0"/>
<line x1="216.6" y1="112.6" x2="174.7" y2="89.2" stroke="rgb(0,0,0)"  stroke-width="2.0"/>
<line x1="207.9" y1="115.9" x2="176.4" y2="98.5" stroke="rgb(0,0,0)"  stroke-width="2.0"/>
<line x1="174.7" y1="89.2" x2="133.5" y2="111.8" stroke="rgb(0,0,0)"  stroke-width="2.0"/>
<line x1="133.5" y1="111.8" x2="133.1" y2="162.0" stroke="rgb(0,0,0)"  stroke-width="2.0"/>
<line x1="140.7" y1="117.8" x2="140.4" y2="156.0" stroke="rgb(0,0,0)"  stroke-width="2.0"/>
<text x="97.061949" y="111.058781" fill="rgb(127,153,153)"  stroke="rgb(127,153,153)" stroke-width="1" font-size="16" >Si</text>
<text x="228.305829" y="49.463757" fill="rgb(17,127,178)"  stroke="rgb(17,127,178)" stroke-width="1" font-size="16" >Xx</text>
<text x="386.898521" y="117.316184" fill="rgb(255,12,12)"  stroke="rgb(255,12,12)" stroke-width="1" font-size="16" >O</text>
<text x="412.184766" y="134.783051" fill="rgb(191,191,191)"  stroke="rgb(191,191,191)" stroke-width="1" font-size="16" >H</text>
<text x="140.065358" y="210.122184" fill="rgb(191,191,191)"  stroke="rgb(191,191,191)" stroke-width="1" font-size="16" >H</text>
<text x="138.731501" y="256.186175" fill="rgb(191,191,191)"  stroke="rgb(191,191,191)" stroke-width="1" font-size="16" >H</text>
<text x="167.449020" y="273.931853" fill="rgb(191,191,191)"  stroke="rgb(191,191,191)" stroke-width="1" font-size="16" >H</text>
<text x="98.953428" y="186.537319" fill="rgb(191,191,191)"  stroke="rgb(191,191,191)" stroke-width="1" font-size="16" >H</text>
<text x="138.652293" y="72.361100" fill="rgb(191,191,191)"  stroke="rgb(191,191,191)" stroke-width="1" font-size="16" >H</text>
<text x="82.193092" y="56.231257" fill="rgb(191,191,191)"  stroke="rgb(191,191,191)" stroke-width="1" font-size="16" >H</text>
<text x="115.076933" y="48.000000" fill="rgb(191,191,191)"  stroke="rgb(191,191,191)" stroke-width="1" font-size="16" >H</text>
<text x="58.361100" y="69.468437" fill="rgb(191,191,191)"  stroke="rgb(191,191,191)" stroke-width="1" font-size="16" >H</text>
<text x="42.231257" y="125.927638" fill="rgb(191,191,191)"  stroke="rgb(191,191,191)" stroke-width="1" font-size="16" >H</text>
<text x="34.000000" y="93.043797" fill="rgb(191,191,191)"  stroke="rgb(191,191,191)" stroke-width="1" font-size="16" >H</text>
<text x="55.468437" y="149.756462" fill="rgb(191,191,191)"  stroke="rgb(191,191,191)" stroke-width="1" font-size="16" >H</text>
<text x="111.927638" y="165.889473" fill="rgb(191,191,191)"  stroke="rgb(191,191,191)" stroke-width="1" font-size="16" >H</text>
<text x="79.040629" y="174.120730" fill="rgb(191,191,191)"  stroke="rgb(191,191,191)" stroke-width="1" font-size="16" >H</text>
<text x="239.131929" y="104.528904" fill="rgb(191,191,191)"  stroke="rgb(191,191,191)" stroke-width="1" font-size="16" >H</text>
<text x="209.606491" y="202.534092" fill="rgb(191,191,191)"  stroke="rgb(191,191,191)" stroke-width="1" font-size="16" >H</text>
<text x="306.265150" y="123.839725" fill="rgb(191,191,191)"  stroke="rgb(191,191,191)" stroke-width="1" font-size="16" >H</text>
<text x="305.216441" y="158.314055" fill="rgb(191,191,191)"  stroke="rgb(191,191,191)" stroke-width="1" font-size="16" >H</text>
<text x="293.740839" y="344.613577" fill="rgb(191,191,191)"  stroke="rgb(191,191,191)" stroke-width="1" font-size="16" >H</text>
<text x="363.044350" y="305.694114" fill="rgb(191,191,191)"  stroke="rgb(191,191,191)" stroke-width="1" font-size="16" >H</text>
<text x="277.683868" y="174.136572" fill="rgb(191,191,191)"  stroke="rgb(191,191,191)" stroke-width="1" font-size="16" >H</text>
<text x="224.500695" y="259.785370" fill="rgb(191,191,191)"  stroke="rgb(191,191,191)" stroke-width="1" font-size="16" >H</text>
<text x="281.083459" y="257.342606" fill="rgb(191,191,191)"  stroke="rgb(191,191,191)" stroke-width="1" font-size="16" >H</text>
</svg>
</g>
<text font-size="18.000000" fill ="black" font-family="sans-serif"
x="10.000000" y="20.000000" ></text>
</svg>
