<?xml version="1.0"?>
<svg version="1.1" id="topsvg"
xmlns="http://www.w3.org/2000/svg" xmlns:xlink="http://www.w3.org/1999/xlink"
xmlns:cml="http://www.xml-cml.org/schema" x="0" y="0" width="200px" height="200px" viewBox="0 0 100 100">
<title> - Open Babel Depiction</title>
<rect x="0" y="0" width="100" height="100" fill="white"/>
<g transform="translate(0,0)">
<svg width="100" height="100" x="0" y="0" viewBox="0 0 449.733 314.497"
font-family="sans-serif" stroke="rgb(0,0,0)" stroke-width="2"  stroke-linecap="round">
<line x1="178.5" y1="174.4" x2="179.2" y2="175.8" stroke="rgb(0,0,0)"  stroke-width="1.0"/>
<line x1="184.7" y1="170.4" x2="186.1" y2="172.9" stroke="rgb(0,0,0)"  stroke-width="1.0"/>
<line x1="190.9" y1="166.3" x2="192.9" y2="170.0" stroke="rgb(0,0,0)"  stroke-width="1.0"/>
<line x1="197.2" y1="162.3" x2="199.7" y2="167.1" stroke="rgb(0,0,0)"  stroke-width="1.0"/>
<line x1="203.4" y1="158.2" x2="206.6" y2="164.2" stroke="rgb(0,0,0)"  stroke-width="1.0"/>
<line x1="209.7" y1="154.2" x2="213.4" y2="161.2" stroke="rgb(0,0,0)"  stroke-width="1.0"/>
<line x1="130.6" y1="110.0" x2="113.5" y2="104.8" stroke="rgb(0,0,0)"  stroke-width="2.0"/>
<line x1="104.8" y1="88.6" x2="110.0" y2="71.6" stroke="rgb(0,0,0)"  stroke-width="2.0"/>
<line x1="88.6" y1="97.3" x2="71.6" y2="92.1" stroke="rgb(0,0,0)"  stroke-width="2.0"/>
<line x1="97.3" y1="113.5" x2="92.1" y2="130.6" stroke="rgb(0,0,0)"  stroke-width="2.0"/>
<line x1="170.9" y1="55.3" x2="171.2" y2="87.7" stroke="rgb(0,0,0)"  stroke-width="2.0"/>
<line x1="164.9" y1="55.3" x2="165.2" y2="87.8" stroke="rgb(0,0,0)"  stroke-width="2.0"/>
<line x1="212.1" y1="120.9" x2="210.5" y2="120.9" stroke="rgb(0,0,0)"  stroke-width="1.0"/>
<line x1="212.8" y1="128.2" x2="209.9" y2="128.3" stroke="rgb(0,0,0)"  stroke-width="1.0"/>
<line x1="213.5" y1="135.6" x2="209.3" y2="135.6" stroke="rgb(0,0,0)"  stroke-width="1.0"/>
<line x1="214.2" y1="143.0" x2="208.7" y2="143.0" stroke="rgb(0,0,0)"  stroke-width="1.0"/>
<line x1="214.9" y1="150.3" x2="208.1" y2="150.4" stroke="rgb(0,0,0)"  stroke-width="1.0"/>
<line x1="215.5" y1="157.7" x2="207.5" y2="157.7" stroke="rgb(0,0,0)"  stroke-width="1.0"/>
<line x1="211.5" y1="157.7" x2="249.6" y2="180.1" stroke="rgb(0,0,0)"  stroke-width="2.0"/>
<line x1="248.1" y1="177.6" x2="288.1" y2="153.2" stroke="rgb(0,0,0)"  stroke-width="2.0"/>
<line x1="251.2" y1="182.7" x2="291.2" y2="158.3" stroke="rgb(0,0,0)"  stroke-width="2.0"/>
<line x1="181.1" y1="222.7" x2="170.0" y2="239.3" stroke="rgb(0,0,0)"  stroke-width="2.0"/>
<line x1="181.1" y1="222.7" x2="161.4" y2="219.2" stroke="rgb(0,0,0)"  stroke-width="2.0"/>
<line x1="170.7" y1="179.5" x2="154.8" y2="191.6" stroke="rgb(0,0,0)"  stroke-width="2.0"/>
<line x1="130.0" y1="156.8" x2="113.7" y2="166.2" stroke="rgb(0,0,0)"  stroke-width="2.0"/>
<line x1="110.0" y1="71.6" x2="129.5" y2="67.0" stroke="rgb(0,0,0)"  stroke-width="2.0"/>
<line x1="110.0" y1="71.6" x2="96.3" y2="57.0" stroke="rgb(0,0,0)"  stroke-width="2.0"/>
<line x1="110.0" y1="71.6" x2="115.8" y2="52.4" stroke="rgb(0,0,0)"  stroke-width="2.0"/>
<line x1="71.6" y1="92.1" x2="67.0" y2="72.7" stroke="rgb(0,0,0)"  stroke-width="2.0"/>
<line x1="71.6" y1="92.1" x2="57.0" y2="105.8" stroke="rgb(0,0,0)"  stroke-width="2.0"/>
<line x1="71.6" y1="92.1" x2="52.4" y2="86.4" stroke="rgb(0,0,0)"  stroke-width="2.0"/>
<line x1="92.1" y1="130.6" x2="72.7" y2="135.1" stroke="rgb(0,0,0)"  stroke-width="2.0"/>
<line x1="92.1" y1="130.6" x2="105.8" y2="145.2" stroke="rgb(0,0,0)"  stroke-width="2.0"/>
<line x1="92.1" y1="130.6" x2="86.4" y2="149.7" stroke="rgb(0,0,0)"  stroke-width="2.0"/>
<line x1="211.3" y1="111.7" x2="213.2" y2="91.8" stroke="rgb(0,0,0)"  stroke-width="2.0"/>
<line x1="252.8" y1="98.1" x2="258.4" y2="78.9" stroke="rgb(0,0,0)"  stroke-width="2.0"/>
<line x1="252.8" y1="98.1" x2="272.4" y2="94.1" stroke="rgb(0,0,0)"  stroke-width="2.0"/>
<line x1="354.6" y1="167.6" x2="363.9" y2="151.3" stroke="rgb(0,0,0)"  stroke-width="2.0"/>
<line x1="377.9" y1="206.6" x2="396.7" y2="206.3" stroke="rgb(0,0,0)"  stroke-width="2.0"/>
<line x1="355.2" y1="246.7" x2="364.8" y2="262.9" stroke="rgb(0,0,0)"  stroke-width="2.0"/>
<line x1="308.6" y1="247.1" x2="299.0" y2="263.3" stroke="rgb(0,0,0)"  stroke-width="2.0"/>
<polygon points="211.542167 157.716797 215.072817 179.895819 207.074615 179.726238 " stroke-width="2.000000" fill="rgb(0,0,0)"  stroke="rgb(0,0,0)" />
<line x1="249.6" y1="180.1" x2="249.8" y2="199.0" stroke="rgb(0,0,0)"  stroke-width="2.0"/>
<line x1="289.7" y1="155.8" x2="306.2" y2="164.8" stroke="rgb(0,0,0)"  stroke-width="2.0"/>
<line x1="289.7" y1="155.8" x2="289.2" y2="137.0" stroke="rgb(0,0,0)"  stroke-width="2.0"/>
<line x1="355.2" y1="246.7" x2="377.9" y2="206.6" stroke="rgb(0,0,0)"  stroke-width="2.0"/>
<line x1="377.9" y1="206.6" x2="354.6" y2="167.6" stroke="rgb(0,0,0)"  stroke-width="2.0"/>
<line x1="368.7" y1="205.1" x2="351.5" y2="176.5" stroke="rgb(0,0,0)"  stroke-width="2.0"/>
<line x1="354.6" y1="167.6" x2="309.8" y2="167.5" stroke="rgb(0,0,0)"  stroke-width="2.0"/>
<line x1="309.8" y1="167.5" x2="286.6" y2="206.2" stroke="rgb(0,0,0)"  stroke-width="2.0"/>
<line x1="312.9" y1="176.3" x2="295.8" y2="204.8" stroke="rgb(0,0,0)"  stroke-width="2.0"/>
<line x1="286.6" y1="206.2" x2="308.6" y2="247.1" stroke="rgb(0,0,0)"  stroke-width="2.0"/>
<line x1="308.6" y1="247.1" x2="355.2" y2="246.7" stroke="rgb(0,0,0)"  stroke-width="2.0"/>
<line x1="314.6" y1="239.9" x2="349.2" y2="239.6" stroke="rgb(0,0,0)"  stroke-width="2.0"/>
<line x1="170.7" y1="179.5" x2="130.0" y2="156.8" stroke="rgb(0,0,0)"  stroke-width="2.0"/>
<line x1="130.0" y1="156.8" x2="130.6" y2="110.0" stroke="rgb(0,0,0)"  stroke-width="2.0"/>
<line x1="137.2" y1="150.9" x2="137.7" y2="116.1" stroke="rgb(0,0,0)"  stroke-width="2.0"/>
<line x1="130.6" y1="110.0" x2="168.2" y2="87.8" stroke="rgb(0,0,0)"  stroke-width="2.0"/>
<line x1="168.2" y1="87.8" x2="211.3" y2="111.7" stroke="rgb(0,0,0)"  stroke-width="2.0"/>
<line x1="211.3" y1="111.7" x2="211.5" y2="157.7" stroke="rgb(0,0,0)"  stroke-width="2.0"/>
<line x1="211.5" y1="157.7" x2="170.7" y2="179.5" stroke="rgb(0,0,0)"  stroke-width="2.0"/>
<line x1="309.8" y1="167.5" x2="252.8" y2="98.1" stroke="rgb(0,0,0)"  stroke-width="2.0"/>
<line x1="252.8" y1="98.1" x2="211.3" y2="111.7" stroke="rgb(0,0,0)"  stroke-width="2.0"/>
<line x1="170.7" y1="179.5" x2="181.1" y2="222.7" stroke="rgb(0,0,0)"  stroke-width="2.0"/>
<line x1="181.1" y1="222.7" x2="286.6" y2="206.2" stroke="rgb(0,0,0)"  stroke-width="2.0"/>
<text x="95.073926" y="109.073926" fill="rgb(127,153,153)"  stroke="rgb(127,153,153)" stroke-width="1" font-size="16" >Si</text>
<text x="161.769173" y="50.313305" fill="rgb(255,12,12)"  stroke="rgb(255,12,12)" stroke-width="1" font-size="16" >O</text>
<text x="156.752072" y="258.085259" fill="rgb(191,191,191)"  stroke="rgb(191,191,191)" stroke-width="1" font-size="16" >H</text>
<text x="142.620383" y="224.880925" fill="rgb(191,191,191)"  stroke="rgb(191,191,191)" stroke-width="1" font-size="16" >H</text>
<text x="138.401461" y="207.434838" fill="rgb(191,191,191)"  stroke="rgb(191,191,191)" stroke-width="1" font-size="16" >H</text>
<text x="96.427499" y="180.692177" fill="rgb(191,191,191)"  stroke="rgb(191,191,191)" stroke-width="1" font-size="16" >H</text>
<text x="136.118125" y="72.057921" fill="rgb(191,191,191)"  stroke="rgb(191,191,191)" stroke-width="1" font-size="16" >H</text>
<text x="81.436743" y="55.512390" fill="rgb(191,191,191)"  stroke="rgb(191,191,191)" stroke-width="1" font-size="16" >H</text>
<text x="113.553718" y="48.000000" fill="rgb(191,191,191)"  stroke="rgb(191,191,191)" stroke-width="1" font-size="16" >H</text>
<text x="58.057921" y="68.029726" fill="rgb(191,191,191)"  stroke="rgb(191,191,191)" stroke-width="1" font-size="16" >H</text>
<text x="41.512390" y="122.711109" fill="rgb(191,191,191)"  stroke="rgb(191,191,191)" stroke-width="1" font-size="16" >H</text>
<text x="34.000000" y="90.594134" fill="rgb(191,191,191)"  stroke="rgb(191,191,191)" stroke-width="1" font-size="16" >H</text>
<text x="54.029944" y="146.093943" fill="rgb(191,191,191)"  stroke="rgb(191,191,191)" stroke-width="1" font-size="16" >H</text>
<text x="108.711805" y="162.637891" fill="rgb(191,191,191)"  stroke="rgb(191,191,191)" stroke-width="1" font-size="16" >H</text>
<text x="76.595048" y="170.151211" fill="rgb(191,191,191)"  stroke="rgb(191,191,191)" stroke-width="1" font-size="16" >H</text>
<text x="208.423695" y="86.832613" fill="rgb(191,191,191)"  stroke="rgb(191,191,191)" stroke-width="1" font-size="16" >H</text>
<text x="256.062487" y="74.443793" fill="rgb(191,191,191)"  stroke="rgb(191,191,191)" stroke-width="1" font-size="16" >H</text>
<text x="279.140429" y="99.489498" fill="rgb(191,191,191)"  stroke="rgb(191,191,191)" stroke-width="1" font-size="16" >H</text>
<text x="364.283497" y="147.949124" fill="rgb(191,191,191)"  stroke="rgb(191,191,191)" stroke-width="1" font-size="16" >H</text>
<text x="403.732615" y="214.177666" fill="rgb(191,191,191)"  stroke="rgb(191,191,191)" stroke-width="1" font-size="16" >H</text>
<text x="365.377487" y="282.134633" fill="rgb(191,191,191)"  stroke="rgb(191,191,191)" stroke-width="1" font-size="16" >H</text>
<text x="286.432861" y="282.497105" fill="rgb(191,191,191)"  stroke="rgb(191,191,191)" stroke-width="1" font-size="16" >H</text>
<text x="204.842986" y="198.693262" fill="rgb(191,191,191)"  stroke="rgb(191,191,191)" stroke-width="1" font-size="16" >H</text>
<text x="243.882591" y="219.960546" fill="rgb(191,191,191)"  stroke="rgb(191,191,191)" stroke-width="1" font-size="16" >H</text>
<text x="311.590586" y="179.052600" fill="rgb(191,191,191)"  stroke="rgb(191,191,191)" stroke-width="1" font-size="16" >H</text>
<text x="282.945096" y="131.983091" fill="rgb(191,191,191)"  stroke="rgb(191,191,191)" stroke-width="1" font-size="16" >H</text>
</svg>
</g>
<text font-size="18.000000" fill ="black" font-family="sans-serif"
x="10.000000" y="20.000000" ></text>
</svg>
