<?xml version="1.0"?>
<svg version="1.1" id="topsvg"
xmlns="http://www.w3.org/2000/svg" xmlns:xlink="http://www.w3.org/1999/xlink"
xmlns:cml="http://www.xml-cml.org/schema" x="0" y="0" width="200px" height="200px" viewBox="0 0 100 100">
<title> - Open Babel Depiction</title>
<rect x="0" y="0" width="100" height="100" fill="white"/>
<g transform="translate(0,0)">
<svg width="100" height="100" x="0" y="0" viewBox="0 0 356.333 277.413"
font-family="sans-serif" stroke="rgb(0,0,0)" stroke-width="2"  stroke-linecap="round">
<line x1="285.2" y1="205.1" x2="236.2" y2="205.0" stroke="rgb(0,0,0)"  stroke-width="2.0"/>
<line x1="285.2" y1="209.3" x2="236.2" y2="209.2" stroke="rgb(0,0,0)"  stroke-width="2.0"/>
<line x1="285.2" y1="200.9" x2="236.2" y2="200.8" stroke="rgb(0,0,0)"  stroke-width="2.0"/>
<line x1="108.6" y1="109.6" x2="108.8" y2="62.8" stroke="rgb(0,0,0)"  stroke-width="2.0"/>
<line x1="107.3" y1="60.2" x2="136.3" y2="43.8" stroke="rgb(0,0,0)"  stroke-width="2.0"/>
<line x1="110.3" y1="65.4" x2="139.3" y2="49.0" stroke="rgb(0,0,0)"  stroke-width="2.0"/>
<line x1="149.6" y1="134.7" x2="190.1" y2="115.0" stroke="rgb(0,0,0)"  stroke-width="2.0"/>
<line x1="150.1" y1="143.8" x2="148.5" y2="143.8" stroke="rgb(0,0,0)"  stroke-width="1.0"/>
<line x1="150.6" y1="151.1" x2="147.7" y2="151.1" stroke="rgb(0,0,0)"  stroke-width="1.0"/>
<line x1="151.1" y1="158.4" x2="146.9" y2="158.3" stroke="rgb(0,0,0)"  stroke-width="1.0"/>
<line x1="151.5" y1="165.7" x2="146.1" y2="165.6" stroke="rgb(0,0,0)"  stroke-width="1.0"/>
<line x1="152.0" y1="173.0" x2="145.2" y2="172.9" stroke="rgb(0,0,0)"  stroke-width="1.0"/>
<line x1="152.4" y1="180.3" x2="144.4" y2="180.1" stroke="rgb(0,0,0)"  stroke-width="1.0"/>
<line x1="191.4" y1="112.3" x2="232.4" y2="131.5" stroke="rgb(0,0,0)"  stroke-width="2.0"/>
<line x1="188.9" y1="117.8" x2="229.9" y2="136.9" stroke="rgb(0,0,0)"  stroke-width="2.0"/>
<line x1="148.4" y1="180.2" x2="189.0" y2="202.5" stroke="rgb(0,0,0)"  stroke-width="2.0"/>
<line x1="189.0" y1="202.5" x2="236.2" y2="205.0" stroke="rgb(0,0,0)"  stroke-width="2.0"/>
<line x1="285.2" y1="205.1" x2="303.3" y2="205.1" stroke="rgb(0,0,0)"  stroke-width="2.0"/>
<line x1="68.1" y1="133.6" x2="51.3" y2="124.0" stroke="rgb(0,0,0)"  stroke-width="2.0"/>
<line x1="68.3" y1="181.3" x2="51.5" y2="191.0" stroke="rgb(0,0,0)"  stroke-width="2.0"/>
<line x1="108.8" y1="62.8" x2="92.1" y2="53.0" stroke="rgb(0,0,0)"  stroke-width="2.0"/>
<line x1="149.6" y1="134.7" x2="150.6" y2="114.2" stroke="rgb(0,0,0)"  stroke-width="2.0"/>
<line x1="190.1" y1="115.0" x2="190.0" y2="95.7" stroke="rgb(0,0,0)"  stroke-width="2.0"/>
<polygon points="148.424033 180.232568 165.931711 165.563123 169.916384 172.500153 " stroke-width="2.000000" fill="rgb(0,0,0)"  stroke="rgb(0,0,0)" />
<line x1="108.9" y1="205.0" x2="109.2" y2="224.4" stroke="rgb(0,0,0)"  stroke-width="2.0"/>
<line x1="189.0" y1="202.5" x2="183.4" y2="222.3" stroke="rgb(0,0,0)"  stroke-width="2.0"/>
<line x1="189.0" y1="202.5" x2="201.0" y2="219.3" stroke="rgb(0,0,0)"  stroke-width="2.0"/>
<line x1="231.2" y1="134.2" x2="232.9" y2="153.5" stroke="rgb(0,0,0)"  stroke-width="2.0"/>
<line x1="231.2" y1="134.2" x2="247.0" y2="123.1" stroke="rgb(0,0,0)"  stroke-width="2.0"/>
<line x1="68.1" y1="133.6" x2="68.3" y2="181.3" stroke="rgb(0,0,0)"  stroke-width="2.0"/>
<line x1="68.3" y1="181.3" x2="108.9" y2="205.0" stroke="rgb(0,0,0)"  stroke-width="2.0"/>
<line x1="77.1" y1="178.1" x2="107.3" y2="195.8" stroke="rgb(0,0,0)"  stroke-width="2.0"/>
<line x1="108.9" y1="205.0" x2="148.4" y2="180.2" stroke="rgb(0,0,0)"  stroke-width="2.0"/>
<line x1="148.4" y1="180.2" x2="149.6" y2="134.7" stroke="rgb(0,0,0)"  stroke-width="2.0"/>
<line x1="149.6" y1="134.7" x2="108.6" y2="109.6" stroke="rgb(0,0,0)"  stroke-width="2.0"/>
<line x1="108.6" y1="109.6" x2="68.1" y2="133.6" stroke="rgb(0,0,0)"  stroke-width="2.0"/>
<line x1="107.1" y1="118.9" x2="77.0" y2="136.7" stroke="rgb(0,0,0)"  stroke-width="2.0"/>
<text x="143.079634" y="48.000000" fill="rgb(255,12,12)"  stroke="rgb(255,12,12)" stroke-width="1" font-size="16" >O</text>
<text x="310.332963" y="213.072379" fill="rgb(191,191,191)"  stroke="rgb(191,191,191)" stroke-width="1" font-size="16" >H</text>
<text x="34.000000" y="125.600537" fill="rgb(191,191,191)"  stroke="rgb(191,191,191)" stroke-width="1" font-size="16" >H</text>
<text x="34.256300" y="205.446103" fill="rgb(191,191,191)"  stroke="rgb(191,191,191)" stroke-width="1" font-size="16" >H</text>
<text x="74.880401" y="54.467946" fill="rgb(191,191,191)"  stroke="rgb(191,191,191)" stroke-width="1" font-size="16" >H</text>
<text x="145.212974" y="109.186460" fill="rgb(191,191,191)"  stroke="rgb(191,191,191)" stroke-width="1" font-size="16" >H</text>
<text x="183.889266" y="90.677680" fill="rgb(191,191,191)"  stroke="rgb(191,191,191)" stroke-width="1" font-size="16" >H</text>
<text x="171.528532" y="171.514762" fill="rgb(191,191,191)"  stroke="rgb(191,191,191)" stroke-width="1" font-size="16" >H</text>
<text x="103.383175" y="245.413370" fill="rgb(191,191,191)"  stroke="rgb(191,191,191)" stroke-width="1" font-size="16" >H</text>
<text x="173.802540" y="242.823757" fill="rgb(191,191,191)"  stroke="rgb(191,191,191)" stroke-width="1" font-size="16" >H</text>
<text x="202.512359" y="237.856322" fill="rgb(191,191,191)"  stroke="rgb(191,191,191)" stroke-width="1" font-size="16" >H</text>
<text x="227.998826" y="174.429308" fill="rgb(191,191,191)"  stroke="rgb(191,191,191)" stroke-width="1" font-size="16" >H</text>
<text x="251.689738" y="123.609797" fill="rgb(191,191,191)"  stroke="rgb(191,191,191)" stroke-width="1" font-size="16" >H</text>
</svg>
</g>
<text font-size="18.000000" fill ="black" font-family="sans-serif"
x="10.000000" y="20.000000" ></text>
</svg>
