<?xml version="1.0"?>
<svg version="1.1" id="topsvg"
xmlns="http://www.w3.org/2000/svg" xmlns:xlink="http://www.w3.org/1999/xlink"
xmlns:cml="http://www.xml-cml.org/schema" x="0" y="0" width="200px" height="200px" viewBox="0 0 100 100">
<title> - Open Babel Depiction</title>
<rect x="0" y="0" width="100" height="100" fill="white"/>
<g transform="translate(0,0)">
<svg width="100" height="100" x="0" y="0" viewBox="0 0 385.077 375.122"
font-family="sans-serif" stroke="rgb(0,0,0)" stroke-width="2"  stroke-linecap="round">
<line x1="233.4" y1="158.8" x2="192.6" y2="178.1" stroke="rgb(0,0,0)"  stroke-width="2.0"/>
<polygon points="233.353794 158.807878 229.706870 111.127778 237.706651 111.187035 " stroke-width="2.000000" fill="rgb(0,0,0)"  stroke="rgb(0,0,0)" />
<line x1="265.9" y1="178.4" x2="266.7" y2="177.1" stroke="rgb(0,0,0)"  stroke-width="1.0"/>
<line x1="259.0" y1="175.2" x2="260.4" y2="172.7" stroke="rgb(0,0,0)"  stroke-width="1.0"/>
<line x1="252.1" y1="172.0" x2="254.2" y2="168.4" stroke="rgb(0,0,0)"  stroke-width="1.0"/>
<line x1="245.2" y1="168.7" x2="247.9" y2="164.0" stroke="rgb(0,0,0)"  stroke-width="1.0"/>
<line x1="238.3" y1="165.5" x2="241.6" y2="159.7" stroke="rgb(0,0,0)"  stroke-width="1.0"/>
<line x1="231.4" y1="162.3" x2="235.3" y2="155.3" stroke="rgb(0,0,0)"  stroke-width="1.0"/>
<line x1="233.7" y1="111.2" x2="192.6" y2="87.5" stroke="rgb(0,0,0)"  stroke-width="2.0"/>
<line x1="267.1" y1="88.3" x2="270.3" y2="52.7" stroke="rgb(0,0,0)"  stroke-width="2.0"/>
<line x1="273.1" y1="88.8" x2="276.3" y2="53.2" stroke="rgb(0,0,0)"  stroke-width="2.0"/>
<line x1="274.6" y1="182.5" x2="273.7" y2="231.4" stroke="rgb(0,0,0)"  stroke-width="2.0"/>
<line x1="67.0" y1="109.9" x2="108.3" y2="84.7" stroke="rgb(0,0,0)"  stroke-width="2.0"/>
<line x1="70.1" y1="115.0" x2="111.5" y2="89.8" stroke="rgb(0,0,0)"  stroke-width="2.0"/>
<line x1="109.9" y1="87.3" x2="150.9" y2="111.4" stroke="rgb(0,0,0)"  stroke-width="2.0"/>
<line x1="192.6" y1="87.5" x2="150.9" y2="111.4" stroke="rgb(0,0,0)"  stroke-width="2.0"/>
<line x1="151.9" y1="155.7" x2="193.9" y2="175.4" stroke="rgb(0,0,0)"  stroke-width="2.0"/>
<line x1="149.4" y1="161.2" x2="191.3" y2="180.8" stroke="rgb(0,0,0)"  stroke-width="2.0"/>
<line x1="249.0" y1="305.1" x2="236.7" y2="321.7" stroke="rgb(0,0,0)"  stroke-width="2.0"/>
<line x1="249.0" y1="305.1" x2="258.4" y2="323.5" stroke="rgb(0,0,0)"  stroke-width="2.0"/>
<line x1="297.6" y1="304.8" x2="309.8" y2="321.5" stroke="rgb(0,0,0)"  stroke-width="2.0"/>
<line x1="297.6" y1="304.8" x2="288.2" y2="323.3" stroke="rgb(0,0,0)"  stroke-width="2.0"/>
<line x1="273.7" y1="231.4" x2="292.2" y2="222.0" stroke="rgb(0,0,0)"  stroke-width="2.0"/>
<line x1="233.4" y1="158.8" x2="215.9" y2="147.7" stroke="rgb(0,0,0)"  stroke-width="2.0"/>
<line x1="192.6" y1="178.1" x2="192.6" y2="197.6" stroke="rgb(0,0,0)"  stroke-width="2.0"/>
<polygon points="233.706761 111.157407 216.093755 125.862028 212.115826 118.921129 " stroke-width="2.000000" fill="rgb(0,0,0)"  stroke="rgb(0,0,0)" />
<line x1="315.7" y1="111.2" x2="333.3" y2="100.3" stroke="rgb(0,0,0)"  stroke-width="2.0"/>
<line x1="315.7" y1="111.2" x2="314.7" y2="90.5" stroke="rgb(0,0,0)"  stroke-width="2.0"/>
<line x1="315.9" y1="158.8" x2="333.8" y2="169.2" stroke="rgb(0,0,0)"  stroke-width="2.0"/>
<line x1="315.9" y1="158.8" x2="315.8" y2="179.5" stroke="rgb(0,0,0)"  stroke-width="2.0"/>
<line x1="274.6" y1="182.5" x2="256.5" y2="192.7" stroke="rgb(0,0,0)"  stroke-width="2.0"/>
<line x1="68.5" y1="112.4" x2="51.4" y2="103.1" stroke="rgb(0,0,0)"  stroke-width="2.0"/>
<line x1="68.5" y1="112.4" x2="69.0" y2="132.0" stroke="rgb(0,0,0)"  stroke-width="2.0"/>
<line x1="109.9" y1="87.3" x2="109.8" y2="67.8" stroke="rgb(0,0,0)"  stroke-width="2.0"/>
<line x1="150.9" y1="111.4" x2="150.8" y2="132.2" stroke="rgb(0,0,0)"  stroke-width="2.0"/>
<line x1="150.9" y1="111.4" x2="168.8" y2="121.9" stroke="rgb(0,0,0)"  stroke-width="2.0"/>
<line x1="192.6" y1="87.5" x2="192.6" y2="66.8" stroke="rgb(0,0,0)"  stroke-width="2.0"/>
<line x1="192.6" y1="87.5" x2="174.7" y2="77.1" stroke="rgb(0,0,0)"  stroke-width="2.0"/>
<line x1="150.7" y1="158.5" x2="149.0" y2="139.0" stroke="rgb(0,0,0)"  stroke-width="2.0"/>
<line x1="150.7" y1="158.5" x2="134.7" y2="169.6" stroke="rgb(0,0,0)"  stroke-width="2.0"/>
<line x1="245.5" y1="250.9" x2="273.7" y2="231.4" stroke="rgb(0,0,0)"  stroke-width="2.0"/>
<line x1="273.7" y1="231.4" x2="302.0" y2="251.5" stroke="rgb(0,0,0)"  stroke-width="2.0"/>
<line x1="308.5" y1="271.4" x2="297.6" y2="304.8" stroke="rgb(0,0,0)"  stroke-width="2.0"/>
<line x1="297.6" y1="304.8" x2="249.0" y2="305.1" stroke="rgb(0,0,0)"  stroke-width="2.0"/>
<line x1="249.0" y1="305.1" x2="238.6" y2="270.7" stroke="rgb(0,0,0)"  stroke-width="2.0"/>
<line x1="233.4" y1="158.8" x2="274.6" y2="182.5" stroke="rgb(0,0,0)"  stroke-width="2.0"/>
<line x1="274.6" y1="182.5" x2="315.9" y2="158.8" stroke="rgb(0,0,0)"  stroke-width="2.0"/>
<line x1="315.9" y1="158.8" x2="315.7" y2="111.2" stroke="rgb(0,0,0)"  stroke-width="2.0"/>
<line x1="315.7" y1="111.2" x2="270.1" y2="88.5" stroke="rgb(0,0,0)"  stroke-width="2.0"/>
<line x1="270.1" y1="88.5" x2="233.7" y2="111.2" stroke="rgb(0,0,0)"  stroke-width="2.0"/>
<line x1="233.7" y1="111.2" x2="233.4" y2="158.8" stroke="rgb(0,0,0)"  stroke-width="2.0"/>
<text x="228.812932" y="266.278236" fill="rgb(255,12,12)"  stroke="rgb(255,12,12)" stroke-width="1" font-size="16" >O</text>
<text x="306.597914" y="267.072411" fill="rgb(255,12,12)"  stroke="rgb(255,12,12)" stroke-width="1" font-size="16" >O</text>
<text x="268.499598" y="48.000000" fill="rgb(255,12,12)"  stroke="rgb(255,12,12)" stroke-width="1" font-size="16" >O</text>
<text x="222.995049" y="340.211272" fill="rgb(191,191,191)"  stroke="rgb(191,191,191)" stroke-width="1" font-size="16" >H</text>
<text x="258.296754" y="343.122190" fill="rgb(191,191,191)"  stroke="rgb(191,191,191)" stroke-width="1" font-size="16" >H</text>
<text x="311.441135" y="340.039126" fill="rgb(191,191,191)"  stroke="rgb(191,191,191)" stroke-width="1" font-size="16" >H</text>
<text x="276.383044" y="342.884935" fill="rgb(191,191,191)"  stroke="rgb(191,191,191)" stroke-width="1" font-size="16" >H</text>
<text x="297.788219" y="224.181942" fill="rgb(191,191,191)"  stroke="rgb(191,191,191)" stroke-width="1" font-size="16" >H</text>
<text x="198.932946" y="148.659748" fill="rgb(191,191,191)"  stroke="rgb(191,191,191)" stroke-width="1" font-size="16" >H</text>
<text x="186.664775" y="218.599335" fill="rgb(191,191,191)"  stroke="rgb(191,191,191)" stroke-width="1" font-size="16" >H</text>
<text x="198.450089" y="135.924827" fill="rgb(191,191,191)"  stroke="rgb(191,191,191)" stroke-width="1" font-size="16" >H</text>
<text x="338.353013" y="101.447679" fill="rgb(191,191,191)"  stroke="rgb(191,191,191)" stroke-width="1" font-size="16" >H</text>
<text x="308.129684" y="85.561871" fill="rgb(191,191,191)"  stroke="rgb(191,191,191)" stroke-width="1" font-size="16" >H</text>
<text x="339.077073" y="183.665545" fill="rgb(191,191,191)"  stroke="rgb(191,191,191)" stroke-width="1" font-size="16" >H</text>
<text x="309.820154" y="200.528740" fill="rgb(191,191,191)"  stroke="rgb(191,191,191)" stroke-width="1" font-size="16" >H</text>
<text x="239.216716" y="207.115578" fill="rgb(191,191,191)"  stroke="rgb(191,191,191)" stroke-width="1" font-size="16" >H</text>
<text x="34.000000" y="104.839767" fill="rgb(191,191,191)"  stroke="rgb(191,191,191)" stroke-width="1" font-size="16" >H</text>
<text x="63.285618" y="152.961021" fill="rgb(191,191,191)"  stroke="rgb(191,191,191)" stroke-width="1" font-size="16" >H</text>
<text x="103.665412" y="62.752912" fill="rgb(191,191,191)"  stroke="rgb(191,191,191)" stroke-width="1" font-size="16" >H</text>
<text x="144.697455" y="153.158266" fill="rgb(191,191,191)"  stroke="rgb(191,191,191)" stroke-width="1" font-size="16" >H</text>
<text x="174.023570" y="136.410925" fill="rgb(191,191,191)"  stroke="rgb(191,191,191)" stroke-width="1" font-size="16" >H</text>
<text x="186.610929" y="61.756242" fill="rgb(191,191,191)"  stroke="rgb(191,191,191)" stroke-width="1" font-size="16" >H</text>
<text x="157.411966" y="78.577515" fill="rgb(191,191,191)"  stroke="rgb(191,191,191)" stroke-width="1" font-size="16" >H</text>
<text x="141.883453" y="134.061285" fill="rgb(191,191,191)"  stroke="rgb(191,191,191)" stroke-width="1" font-size="16" >H</text>
<text x="118.012941" y="185.085800" fill="rgb(191,191,191)"  stroke="rgb(191,191,191)" stroke-width="1" font-size="16" >H</text>
</svg>
</g>
<text font-size="18.000000" fill ="black" font-family="sans-serif"
x="10.000000" y="20.000000" ></text>
</svg>
