<?xml version="1.0"?>
<svg version="1.1" id="topsvg"
xmlns="http://www.w3.org/2000/svg" xmlns:xlink="http://www.w3.org/1999/xlink"
xmlns:cml="http://www.xml-cml.org/schema" x="0" y="0" width="200px" height="200px" viewBox="0 0 100 100">
<title> - Open Babel Depiction</title>
<rect x="0" y="0" width="100" height="100" fill="white"/>
<g transform="translate(0,0)">
<svg width="100" height="100" x="0" y="0" viewBox="0 0 457.9 432.88"
font-family="sans-serif" stroke="rgb(0,0,0)" stroke-width="2"  stroke-linecap="round">
<line x1="238.8" y1="163.6" x2="282.2" y2="188.2" stroke="rgb(0,0,0)"  stroke-width="2.0"/>
<line x1="230.9" y1="168.7" x2="230.1" y2="167.3" stroke="rgb(0,0,0)"  stroke-width="1.0"/>
<line x1="224.6" y1="172.8" x2="223.2" y2="170.3" stroke="rgb(0,0,0)"  stroke-width="1.0"/>
<line x1="218.2" y1="176.9" x2="216.3" y2="173.3" stroke="rgb(0,0,0)"  stroke-width="1.0"/>
<line x1="211.9" y1="181.0" x2="209.3" y2="176.3" stroke="rgb(0,0,0)"  stroke-width="1.0"/>
<line x1="205.6" y1="185.2" x2="202.4" y2="179.2" stroke="rgb(0,0,0)"  stroke-width="1.0"/>
<line x1="199.3" y1="189.3" x2="195.5" y2="182.2" stroke="rgb(0,0,0)"  stroke-width="1.0"/>
<line x1="238.8" y1="163.6" x2="257.7" y2="152.6" stroke="rgb(0,0,0)"  stroke-width="2.0"/>
<line x1="282.2" y1="188.2" x2="283.1" y2="236.3" stroke="rgb(0,0,0)"  stroke-width="2.0"/>
<line x1="282.2" y1="188.2" x2="301.0" y2="177.0" stroke="rgb(0,0,0)"  stroke-width="2.0"/>
<line x1="282.2" y1="188.2" x2="301.3" y2="198.8" stroke="rgb(0,0,0)"  stroke-width="2.0"/>
<line x1="155.2" y1="164.4" x2="136.5" y2="175.8" stroke="rgb(0,0,0)"  stroke-width="2.0"/>
<line x1="155.2" y1="164.4" x2="156.0" y2="186.3" stroke="rgb(0,0,0)"  stroke-width="2.0"/>
<line x1="155.5" y1="114.1" x2="136.8" y2="108.3" stroke="rgb(0,0,0)"  stroke-width="2.0"/>
<line x1="155.5" y1="114.1" x2="137.8" y2="127.1" stroke="rgb(0,0,0)"  stroke-width="2.0"/>
<line x1="128.3" y1="92.0" x2="134.1" y2="73.3" stroke="rgb(0,0,0)"  stroke-width="2.0"/>
<line x1="112.0" y1="100.6" x2="93.3" y2="94.7" stroke="rgb(0,0,0)"  stroke-width="2.0"/>
<line x1="120.5" y1="116.8" x2="114.7" y2="135.6" stroke="rgb(0,0,0)"  stroke-width="2.0"/>
<line x1="134.1" y1="73.3" x2="155.5" y2="68.5" stroke="rgb(0,0,0)"  stroke-width="2.0"/>
<line x1="134.1" y1="73.3" x2="119.3" y2="57.2" stroke="rgb(0,0,0)"  stroke-width="2.0"/>
<line x1="134.1" y1="73.3" x2="140.6" y2="52.4" stroke="rgb(0,0,0)"  stroke-width="2.0"/>
<line x1="93.3" y1="94.7" x2="88.5" y2="73.4" stroke="rgb(0,0,0)"  stroke-width="2.0"/>
<line x1="93.3" y1="94.7" x2="77.2" y2="109.6" stroke="rgb(0,0,0)"  stroke-width="2.0"/>
<line x1="93.3" y1="94.7" x2="72.4" y2="88.2" stroke="rgb(0,0,0)"  stroke-width="2.0"/>
<line x1="114.7" y1="135.6" x2="93.3" y2="140.4" stroke="rgb(0,0,0)"  stroke-width="2.0"/>
<line x1="114.7" y1="135.6" x2="129.5" y2="151.7" stroke="rgb(0,0,0)"  stroke-width="2.0"/>
<line x1="114.7" y1="135.6" x2="108.2" y2="156.5" stroke="rgb(0,0,0)"  stroke-width="2.0"/>
<line x1="199.4" y1="53.5" x2="200.3" y2="90.0" stroke="rgb(0,0,0)"  stroke-width="2.0"/>
<line x1="193.4" y1="53.7" x2="194.3" y2="90.2" stroke="rgb(0,0,0)"  stroke-width="2.0"/>
<line x1="283.1" y1="236.3" x2="283.0" y2="304.1" stroke="rgb(0,0,0)"  stroke-width="2.0"/>
<line x1="287.3" y1="236.3" x2="287.2" y2="304.1" stroke="rgb(0,0,0)"  stroke-width="2.0"/>
<line x1="278.9" y1="236.3" x2="278.8" y2="304.0" stroke="rgb(0,0,0)"  stroke-width="2.0"/>
<line x1="283.0" y1="304.1" x2="283.0" y2="334.7" stroke="rgb(0,0,0)"  stroke-width="2.0"/>
<line x1="364.2" y1="334.6" x2="406.6" y2="310.4" stroke="rgb(0,0,0)"  stroke-width="2.0"/>
<line x1="362.1" y1="330.9" x2="404.5" y2="306.8" stroke="rgb(0,0,0)"  stroke-width="2.0"/>
<line x1="366.3" y1="338.2" x2="408.7" y2="314.1" stroke="rgb(0,0,0)"  stroke-width="2.0"/>
<line x1="239.0" y1="114.7" x2="258.1" y2="103.9" stroke="rgb(0,0,0)"  stroke-width="2.0"/>
<line x1="239.0" y1="114.7" x2="239.2" y2="92.8" stroke="rgb(0,0,0)"  stroke-width="2.0"/>
<line x1="70.5" y1="262.5" x2="112.8" y2="237.1" stroke="rgb(0,0,0)"  stroke-width="2.0"/>
<line x1="70.5" y1="262.5" x2="51.4" y2="251.9" stroke="rgb(0,0,0)"  stroke-width="2.0"/>
<line x1="70.5" y1="262.5" x2="70.9" y2="284.4" stroke="rgb(0,0,0)"  stroke-width="2.0"/>
<line x1="70.5" y1="262.5" x2="51.8" y2="273.8" stroke="rgb(0,0,0)"  stroke-width="2.0"/>
<line x1="114.2" y1="234.5" x2="157.0" y2="258.3" stroke="rgb(0,0,0)"  stroke-width="2.0"/>
<line x1="111.3" y1="239.7" x2="154.0" y2="263.6" stroke="rgb(0,0,0)"  stroke-width="2.0"/>
<line x1="112.8" y1="237.1" x2="112.4" y2="216.5" stroke="rgb(0,0,0)"  stroke-width="2.0"/>
<line x1="155.5" y1="260.9" x2="197.3" y2="240.8" stroke="rgb(0,0,0)"  stroke-width="2.0"/>
<line x1="155.5" y1="260.9" x2="154.9" y2="281.6" stroke="rgb(0,0,0)"  stroke-width="2.0"/>
<line x1="197.3" y1="240.8" x2="215.8" y2="252.5" stroke="rgb(0,0,0)"  stroke-width="2.0"/>
<line x1="197.3" y1="240.8" x2="216.5" y2="230.2" stroke="rgb(0,0,0)"  stroke-width="2.0"/>
<line x1="284.5" y1="332.2" x2="324.8" y2="356.7" stroke="rgb(0,0,0)"  stroke-width="2.0"/>
<line x1="281.4" y1="337.3" x2="321.7" y2="361.8" stroke="rgb(0,0,0)"  stroke-width="2.0"/>
<line x1="283.0" y1="334.7" x2="265.0" y2="344.9" stroke="rgb(0,0,0)"  stroke-width="2.0"/>
<line x1="323.2" y1="359.2" x2="364.2" y2="334.6" stroke="rgb(0,0,0)"  stroke-width="2.0"/>
<line x1="323.2" y1="359.2" x2="323.2" y2="379.9" stroke="rgb(0,0,0)"  stroke-width="2.0"/>
<line x1="197.4" y1="185.7" x2="197.3" y2="240.8" stroke="rgb(0,0,0)"  stroke-width="2.0"/>
<polygon points="197.367918 185.749802 179.538182 201.388749 175.352831 194.570917 " stroke-width="2.000000" fill="rgb(0,0,0)"  stroke="rgb(0,0,0)" />
<line x1="155.2" y1="164.4" x2="155.5" y2="114.1" stroke="rgb(0,0,0)"  stroke-width="2.0"/>
<line x1="155.5" y1="114.1" x2="197.3" y2="90.1" stroke="rgb(0,0,0)"  stroke-width="2.0"/>
<line x1="197.3" y1="90.1" x2="239.0" y2="114.7" stroke="rgb(0,0,0)"  stroke-width="2.0"/>
<line x1="239.0" y1="114.7" x2="238.8" y2="163.6" stroke="rgb(0,0,0)"  stroke-width="2.0"/>
<line x1="238.8" y1="163.6" x2="197.4" y2="185.7" stroke="rgb(0,0,0)"  stroke-width="2.0"/>
<line x1="197.4" y1="185.7" x2="155.2" y2="164.4" stroke="rgb(0,0,0)"  stroke-width="2.0"/>
<text x="118.391933" y="112.439294" fill="rgb(127,153,153)"  stroke="rgb(127,153,153)" stroke-width="1" font-size="16" >Si</text>
<text x="190.034264" y="48.586938" fill="rgb(255,12,12)"  stroke="rgb(255,12,12)" stroke-width="1" font-size="16" >O</text>
<text x="411.900170" y="311.959158" fill="rgb(17,127,178)"  stroke="rgb(17,127,178)" stroke-width="1" font-size="16" >Xx</text>
<text x="262.977641" y="154.072778" fill="rgb(191,191,191)"  stroke="rgb(191,191,191)" stroke-width="1" font-size="16" >H</text>
<text x="306.186076" y="178.326370" fill="rgb(191,191,191)"  stroke="rgb(191,191,191)" stroke-width="1" font-size="16" >H</text>
<text x="306.681712" y="213.138327" fill="rgb(191,191,191)"  stroke="rgb(191,191,191)" stroke-width="1" font-size="16" >H</text>
<text x="119.366903" y="190.547728" fill="rgb(191,191,191)"  stroke="rgb(191,191,191)" stroke-width="1" font-size="16" >H</text>
<text x="150.533322" y="207.249381" fill="rgb(191,191,191)"  stroke="rgb(191,191,191)" stroke-width="1" font-size="16" >H</text>
<text x="121.342928" y="142.718785" fill="rgb(191,191,191)"  stroke="rgb(191,191,191)" stroke-width="1" font-size="16" >H</text>
<text x="162.141655" y="73.652461" fill="rgb(191,191,191)"  stroke="rgb(191,191,191)" stroke-width="1" font-size="16" >H</text>
<text x="104.452150" y="55.656283" fill="rgb(191,191,191)"  stroke="rgb(191,191,191)" stroke-width="1" font-size="16" >H</text>
<text x="138.491306" y="48.000000" fill="rgb(191,191,191)"  stroke="rgb(191,191,191)" stroke-width="1" font-size="16" >H</text>
<text x="79.608360" y="68.689572" fill="rgb(191,191,191)"  stroke="rgb(191,191,191)" stroke-width="1" font-size="16" >H</text>
<text x="61.612182" y="126.379077" fill="rgb(191,191,191)"  stroke="rgb(191,191,191)" stroke-width="1" font-size="16" >H</text>
<text x="53.959160" y="92.336661" fill="rgb(191,191,191)"  stroke="rgb(191,191,191)" stroke-width="1" font-size="16" >H</text>
<text x="74.642211" y="151.222867" fill="rgb(191,191,191)"  stroke="rgb(191,191,191)" stroke-width="1" font-size="16" >H</text>
<text x="132.331716" y="169.219045" fill="rgb(191,191,191)"  stroke="rgb(191,191,191)" stroke-width="1" font-size="16" >H</text>
<text x="98.289299" y="176.872067" fill="rgb(191,191,191)"  stroke="rgb(191,191,191)" stroke-width="1" font-size="16" >H</text>
<text x="263.372194" y="105.487337" fill="rgb(191,191,191)"  stroke="rgb(191,191,191)" stroke-width="1" font-size="16" >H</text>
<text x="233.317696" y="87.827019" fill="rgb(191,191,191)"  stroke="rgb(191,191,191)" stroke-width="1" font-size="16" >H</text>
<text x="34.000000" y="253.630543" fill="rgb(191,191,191)"  stroke="rgb(191,191,191)" stroke-width="1" font-size="16" >H</text>
<text x="65.146855" y="305.414797" fill="rgb(191,191,191)"  stroke="rgb(191,191,191)" stroke-width="1" font-size="16" >H</text>
<text x="34.626067" y="288.514237" fill="rgb(191,191,191)"  stroke="rgb(191,191,191)" stroke-width="1" font-size="16" >H</text>
<text x="106.219487" y="211.472075" fill="rgb(191,191,191)"  stroke="rgb(191,191,191)" stroke-width="1" font-size="16" >H</text>
<text x="148.475777" y="302.568147" fill="rgb(191,191,191)"  stroke="rgb(191,191,191)" stroke-width="1" font-size="16" >H</text>
<text x="220.838738" y="267.404026" fill="rgb(191,191,191)"  stroke="rgb(191,191,191)" stroke-width="1" font-size="16" >H</text>
<text x="221.862619" y="231.969262" fill="rgb(191,191,191)"  stroke="rgb(191,191,191)" stroke-width="1" font-size="16" >H</text>
<text x="247.632467" y="359.220728" fill="rgb(191,191,191)"  stroke="rgb(191,191,191)" stroke-width="1" font-size="16" >H</text>
<text x="317.132473" y="400.880298" fill="rgb(191,191,191)"  stroke="rgb(191,191,191)" stroke-width="1" font-size="16" >H</text>
<text x="161.632976" y="212.003580" fill="rgb(191,191,191)"  stroke="rgb(191,191,191)" stroke-width="1" font-size="16" >H</text>
</svg>
</g>
<text font-size="18.000000" fill ="black" font-family="sans-serif"
x="10.000000" y="20.000000" ></text>
</svg>
