<?xml version="1.0"?>
<svg version="1.1" id="topsvg"
xmlns="http://www.w3.org/2000/svg" xmlns:xlink="http://www.w3.org/1999/xlink"
xmlns:cml="http://www.xml-cml.org/schema" x="0" y="0" width="200px" height="200px" viewBox="0 0 100 100">
<title> - Open Babel Depiction</title>
<rect x="0" y="0" width="100" height="100" fill="white"/>
<g transform="translate(0,0)">
<svg width="100" height="100" x="0" y="0" viewBox="0 0 294.298 250.995"
font-family="sans-serif" stroke="rgb(0,0,0)" stroke-width="2"  stroke-linecap="round">
<line x1="47.9" y1="97.0" x2="70.4" y2="67.5" stroke="rgb(0,0,0)"  stroke-width="2.0"/>
<line x1="70.4" y1="64.5" x2="117.0" y2="64.8" stroke="rgb(0,0,0)"  stroke-width="2.0"/>
<line x1="70.4" y1="70.5" x2="116.9" y2="70.8" stroke="rgb(0,0,0)"  stroke-width="2.0"/>
<line x1="117.0" y1="67.8" x2="139.3" y2="106.7" stroke="rgb(0,0,0)"  stroke-width="2.0"/>
<line x1="139.3" y1="106.7" x2="169.1" y2="158.4" stroke="rgb(0,0,0)"  stroke-width="2.0"/>
<line x1="143.0" y1="104.6" x2="172.7" y2="156.3" stroke="rgb(0,0,0)"  stroke-width="2.0"/>
<line x1="135.7" y1="108.8" x2="165.4" y2="160.5" stroke="rgb(0,0,0)"  stroke-width="2.0"/>
<line x1="226.9" y1="183.6" x2="183.5" y2="183.5" stroke="rgb(0,0,0)"  stroke-width="2.0"/>
<line x1="246.4" y1="194.9" x2="247.8" y2="197.2" stroke="rgb(0,0,0)"  stroke-width="2.0"/>
<line x1="183.5" y1="183.5" x2="169.1" y2="158.4" stroke="rgb(0,0,0)"  stroke-width="2.0"/>
<line x1="70.4" y1="67.5" x2="62.7" y2="51.7" stroke="rgb(0,0,0)"  stroke-width="2.0"/>
<line x1="117.0" y1="67.8" x2="125.8" y2="52.6" stroke="rgb(0,0,0)"  stroke-width="2.0"/>
<line x1="183.5" y1="183.5" x2="174.1" y2="199.7" stroke="rgb(0,0,0)"  stroke-width="2.0"/>
<line x1="183.5" y1="183.5" x2="164.8" y2="183.5" stroke="rgb(0,0,0)"  stroke-width="2.0"/>
<text x="22.000000" y="115.333806" fill="rgb(30,239,30)"  stroke="rgb(30,239,30)" stroke-width="1" font-size="16" >Cl</text>
<text x="233.941670" y="191.594256" fill="rgb(255,12,12)"  stroke="rgb(255,12,12)" stroke-width="1" font-size="16" >O</text>
<text x="248.297764" y="216.514325" fill="rgb(191,191,191)"  stroke="rgb(191,191,191)" stroke-width="1" font-size="16" >H</text>
<text x="50.944444" y="48.000000" fill="rgb(191,191,191)"  stroke="rgb(191,191,191)" stroke-width="1" font-size="16" >H</text>
<text x="126.390896" y="49.415738" fill="rgb(191,191,191)"  stroke="rgb(191,191,191)" stroke-width="1" font-size="16" >H</text>
<text x="161.609703" y="218.994557" fill="rgb(191,191,191)"  stroke="rgb(191,191,191)" stroke-width="1" font-size="16" >H</text>
<text x="145.783071" y="191.494202" fill="rgb(191,191,191)"  stroke="rgb(191,191,191)" stroke-width="1" font-size="16" >H</text>
</svg>
</g>
<text font-size="18.000000" fill ="black" font-family="sans-serif"
x="10.000000" y="20.000000" ></text>
</svg>
