<?xml version="1.0"?>
<svg version="1.1" id="topsvg"
xmlns="http://www.w3.org/2000/svg" xmlns:xlink="http://www.w3.org/1999/xlink"
xmlns:cml="http://www.xml-cml.org/schema" x="0" y="0" width="200px" height="200px" viewBox="0 0 100 100">
<title> - Open Babel Depiction</title>
<rect x="0" y="0" width="100" height="100" fill="white"/>
<g transform="translate(0,0)">
<svg width="100" height="100" x="0" y="0" viewBox="0 0 221.075 233.047"
font-family="sans-serif" stroke="rgb(0,0,0)" stroke-width="2"  stroke-linecap="round">
<line x1="70.4" y1="144.6" x2="80.5" y2="162.8" stroke="rgb(0,0,0)"  stroke-width="2.0"/>
<line x1="69.4" y1="97.0" x2="51.3" y2="86.9" stroke="rgb(0,0,0)"  stroke-width="2.0"/>
<line x1="69.4" y1="97.0" x2="69.2" y2="76.3" stroke="rgb(0,0,0)"  stroke-width="2.0"/>
<line x1="109.4" y1="73.7" x2="108.9" y2="53.0" stroke="rgb(0,0,0)"  stroke-width="2.0"/>
<line x1="109.4" y1="73.7" x2="127.0" y2="62.8" stroke="rgb(0,0,0)"  stroke-width="2.0"/>
<line x1="151.7" y1="95.8" x2="169.4" y2="85.0" stroke="rgb(0,0,0)"  stroke-width="2.0"/>
<line x1="151.7" y1="95.8" x2="169.7" y2="105.9" stroke="rgb(0,0,0)"  stroke-width="2.0"/>
<line x1="151.7" y1="144.9" x2="169.4" y2="155.6" stroke="rgb(0,0,0)"  stroke-width="2.0"/>
<line x1="151.7" y1="144.9" x2="151.0" y2="165.6" stroke="rgb(0,0,0)"  stroke-width="2.0"/>
<line x1="111.1" y1="165.9" x2="111.1" y2="145.2" stroke="rgb(0,0,0)"  stroke-width="2.0"/>
<line x1="67.7" y1="180.1" x2="70.4" y2="144.6" stroke="rgb(0,0,0)"  stroke-width="2.0"/>
<line x1="70.4" y1="144.6" x2="111.1" y2="165.9" stroke="rgb(0,0,0)"  stroke-width="2.0"/>
<line x1="111.1" y1="165.9" x2="77.8" y2="186.3" stroke="rgb(0,0,0)"  stroke-width="2.0"/>
<line x1="109.4" y1="73.7" x2="151.7" y2="95.8" stroke="rgb(0,0,0)"  stroke-width="2.0"/>
<line x1="151.7" y1="95.8" x2="151.7" y2="144.9" stroke="rgb(0,0,0)"  stroke-width="2.0"/>
<line x1="151.7" y1="144.9" x2="111.1" y2="165.9" stroke="rgb(0,0,0)"  stroke-width="2.0"/>
<line x1="70.4" y1="144.6" x2="69.4" y2="97.0" stroke="rgb(0,0,0)"  stroke-width="2.0"/>
<line x1="69.4" y1="97.0" x2="109.4" y2="73.7" stroke="rgb(0,0,0)"  stroke-width="2.0"/>
<text x="60.696553" y="201.046793" fill="rgb(255,12,12)"  stroke="rgb(255,12,12)" stroke-width="1" font-size="16" >O</text>
<text x="80.783550" y="182.125446" fill="rgb(191,191,191)"  stroke="rgb(191,191,191)" stroke-width="1" font-size="16" >H</text>
<text x="34.000000" y="88.542593" fill="rgb(191,191,191)"  stroke="rgb(191,191,191)" stroke-width="1" font-size="16" >H</text>
<text x="63.116065" y="71.306714" fill="rgb(191,191,191)"  stroke="rgb(191,191,191)" stroke-width="1" font-size="16" >H</text>
<text x="102.600122" y="48.000000" fill="rgb(191,191,191)"  stroke="rgb(191,191,191)" stroke-width="1" font-size="16" >H</text>
<text x="132.012325" y="63.887505" fill="rgb(191,191,191)"  stroke="rgb(191,191,191)" stroke-width="1" font-size="16" >H</text>
<text x="174.530224" y="86.296353" fill="rgb(191,191,191)"  stroke="rgb(191,191,191)" stroke-width="1" font-size="16" >H</text>
<text x="175.075244" y="120.314452" fill="rgb(191,191,191)"  stroke="rgb(191,191,191)" stroke-width="1" font-size="16" >H</text>
<text x="174.498720" y="170.390178" fill="rgb(191,191,191)"  stroke="rgb(191,191,191)" stroke-width="1" font-size="16" >H</text>
<text x="144.532044" y="186.551768" fill="rgb(191,191,191)"  stroke="rgb(191,191,191)" stroke-width="1" font-size="16" >H</text>
<text x="105.145651" y="140.162019" fill="rgb(191,191,191)"  stroke="rgb(191,191,191)" stroke-width="1" font-size="16" >H</text>
</svg>
</g>
<text font-size="18.000000" fill ="black" font-family="sans-serif"
x="10.000000" y="20.000000" ></text>
</svg>
