<?xml version="1.0"?>
<svg version="1.1" id="topsvg"
xmlns="http://www.w3.org/2000/svg" xmlns:xlink="http://www.w3.org/1999/xlink"
xmlns:cml="http://www.xml-cml.org/schema" x="0" y="0" width="200px" height="200px" viewBox="0 0 100 100">
<title> - Open Babel Depiction</title>
<rect x="0" y="0" width="100" height="100" fill="white"/>
<g transform="translate(0,0)">
<svg width="100" height="100" x="0" y="0" viewBox="0 0 586.06 468.184"
font-family="sans-serif" stroke="rgb(0,0,0)" stroke-width="2"  stroke-linecap="round">
<line x1="299.0" y1="316.9" x2="299.5" y2="245.6" stroke="rgb(0,0,0)"  stroke-width="2.0"/>
<line x1="294.8" y1="316.9" x2="295.3" y2="245.6" stroke="rgb(0,0,0)"  stroke-width="2.0"/>
<line x1="303.2" y1="316.9" x2="303.7" y2="245.6" stroke="rgb(0,0,0)"  stroke-width="2.0"/>
<line x1="299.0" y1="316.9" x2="298.7" y2="366.9" stroke="rgb(0,0,0)"  stroke-width="2.0"/>
<line x1="387.2" y1="366.9" x2="445.4" y2="332.4" stroke="rgb(0,0,0)"  stroke-width="2.0"/>
<line x1="385.1" y1="363.3" x2="443.2" y2="328.8" stroke="rgb(0,0,0)"  stroke-width="2.0"/>
<line x1="389.3" y1="370.5" x2="447.5" y2="336.0" stroke="rgb(0,0,0)"  stroke-width="2.0"/>
<line x1="300.1" y1="364.3" x2="345.1" y2="390.2" stroke="rgb(0,0,0)"  stroke-width="2.0"/>
<line x1="297.2" y1="369.5" x2="342.2" y2="395.4" stroke="rgb(0,0,0)"  stroke-width="2.0"/>
<line x1="298.7" y1="366.9" x2="279.2" y2="378.1" stroke="rgb(0,0,0)"  stroke-width="2.0"/>
<line x1="343.6" y1="392.8" x2="387.2" y2="366.9" stroke="rgb(0,0,0)"  stroke-width="2.0"/>
<line x1="343.6" y1="392.8" x2="343.8" y2="415.2" stroke="rgb(0,0,0)"  stroke-width="2.0"/>
<line x1="118.4" y1="366.2" x2="164.5" y2="339.8" stroke="rgb(0,0,0)"  stroke-width="2.0"/>
<line x1="118.4" y1="366.2" x2="97.9" y2="354.2" stroke="rgb(0,0,0)"  stroke-width="2.0"/>
<line x1="118.4" y1="366.2" x2="118.3" y2="389.9" stroke="rgb(0,0,0)"  stroke-width="2.0"/>
<line x1="118.4" y1="366.2" x2="97.8" y2="378.0" stroke="rgb(0,0,0)"  stroke-width="2.0"/>
<line x1="161.5" y1="339.7" x2="162.5" y2="289.3" stroke="rgb(0,0,0)"  stroke-width="2.0"/>
<line x1="167.5" y1="339.8" x2="168.5" y2="289.4" stroke="rgb(0,0,0)"  stroke-width="2.0"/>
<line x1="164.5" y1="339.8" x2="183.8" y2="351.2" stroke="rgb(0,0,0)"  stroke-width="2.0"/>
<line x1="165.5" y1="289.3" x2="209.9" y2="262.8" stroke="rgb(0,0,0)"  stroke-width="2.0"/>
<line x1="165.5" y1="289.3" x2="146.1" y2="278.1" stroke="rgb(0,0,0)"  stroke-width="2.0"/>
<line x1="210.0" y1="211.1" x2="209.9" y2="262.8" stroke="rgb(0,0,0)"  stroke-width="2.0"/>
<polygon points="210.049045 211.095744 252.772387 182.282317 256.717189 189.242098 " stroke-width="2.000000" fill="rgb(0,0,0)"  stroke="rgb(0,0,0)" />
<line x1="210.0" y1="211.1" x2="230.5" y2="223.1" stroke="rgb(0,0,0)"  stroke-width="2.0"/>
<line x1="209.9" y1="262.8" x2="230.5" y2="274.5" stroke="rgb(0,0,0)"  stroke-width="2.0"/>
<line x1="209.9" y1="262.8" x2="230.4" y2="250.9" stroke="rgb(0,0,0)"  stroke-width="2.0"/>
<line x1="165.5" y1="185.6" x2="144.9" y2="197.4" stroke="rgb(0,0,0)"  stroke-width="2.0"/>
<line x1="165.5" y1="185.6" x2="165.5" y2="209.3" stroke="rgb(0,0,0)"  stroke-width="2.0"/>
<line x1="165.8" y1="128.7" x2="147.9" y2="129.0" stroke="rgb(0,0,0)"  stroke-width="2.0"/>
<line x1="165.8" y1="128.7" x2="149.2" y2="145.6" stroke="rgb(0,0,0)"  stroke-width="2.0"/>
<line x1="147.9" y1="129.0" x2="133.4" y2="147.8" stroke="rgb(0,0,0)"  stroke-width="2.0"/>
<line x1="147.9" y1="129.0" x2="124.8" y2="124.0" stroke="rgb(0,0,0)"  stroke-width="2.0"/>
<line x1="112.1" y1="97.6" x2="114.7" y2="76.4" stroke="rgb(0,0,0)"  stroke-width="2.0"/>
<line x1="97.6" y1="108.9" x2="76.4" y2="106.2" stroke="rgb(0,0,0)"  stroke-width="2.0"/>
<line x1="108.9" y1="123.4" x2="106.2" y2="144.5" stroke="rgb(0,0,0)"  stroke-width="2.0"/>
<line x1="123.4" y1="112.1" x2="144.5" y2="114.7" stroke="rgb(0,0,0)"  stroke-width="2.0"/>
<line x1="114.7" y1="76.4" x2="136.6" y2="67.2" stroke="rgb(0,0,0)"  stroke-width="2.0"/>
<line x1="114.7" y1="76.4" x2="95.8" y2="62.1" stroke="rgb(0,0,0)"  stroke-width="2.0"/>
<line x1="114.7" y1="76.4" x2="117.7" y2="52.9" stroke="rgb(0,0,0)"  stroke-width="2.0"/>
<line x1="76.4" y1="106.2" x2="67.2" y2="84.4" stroke="rgb(0,0,0)"  stroke-width="2.0"/>
<line x1="76.4" y1="106.2" x2="62.1" y2="125.1" stroke="rgb(0,0,0)"  stroke-width="2.0"/>
<line x1="76.4" y1="106.2" x2="52.9" y2="103.3" stroke="rgb(0,0,0)"  stroke-width="2.0"/>
<line x1="106.2" y1="144.5" x2="84.4" y2="153.8" stroke="rgb(0,0,0)"  stroke-width="2.0"/>
<line x1="106.2" y1="144.5" x2="125.1" y2="158.9" stroke="rgb(0,0,0)"  stroke-width="2.0"/>
<line x1="106.2" y1="144.5" x2="103.3" y2="168.1" stroke="rgb(0,0,0)"  stroke-width="2.0"/>
<line x1="144.5" y1="114.7" x2="147.9" y2="129.0" stroke="rgb(0,0,0)"  stroke-width="2.0"/>
<line x1="144.5" y1="114.7" x2="160.4" y2="97.1" stroke="rgb(0,0,0)"  stroke-width="2.0"/>
<line x1="144.5" y1="114.7" x2="167.5" y2="120.6" stroke="rgb(0,0,0)"  stroke-width="2.0"/>
<line x1="212.1" y1="69.2" x2="213.0" y2="109.1" stroke="rgb(0,0,0)"  stroke-width="2.0"/>
<line x1="206.1" y1="69.3" x2="207.0" y2="109.3" stroke="rgb(0,0,0)"  stroke-width="2.0"/>
<line x1="255.2" y1="133.8" x2="275.7" y2="121.8" stroke="rgb(0,0,0)"  stroke-width="2.0"/>
<line x1="255.2" y1="133.8" x2="275.8" y2="145.7" stroke="rgb(0,0,0)"  stroke-width="2.0"/>
<line x1="254.7" y1="185.8" x2="300.1" y2="211.1" stroke="rgb(0,0,0)"  stroke-width="2.0"/>
<polygon points="254.744788 185.762207 258.820646 210.352434 250.820684 210.377107 " stroke-width="2.000000" fill="rgb(0,0,0)"  stroke="rgb(0,0,0)" />
<line x1="482.0" y1="334.8" x2="488.3" y2="355.2" stroke="rgb(0,0,0)"  stroke-width="2.0"/>
<line x1="490.6" y1="318.5" x2="511.0" y2="312.3" stroke="rgb(0,0,0)"  stroke-width="2.0"/>
<line x1="474.3" y1="309.9" x2="468.1" y2="289.5" stroke="rgb(0,0,0)"  stroke-width="2.0"/>
<line x1="465.7" y1="326.2" x2="445.4" y2="332.4" stroke="rgb(0,0,0)"  stroke-width="2.0"/>
<line x1="488.3" y1="355.2" x2="472.1" y2="372.5" stroke="rgb(0,0,0)"  stroke-width="2.0"/>
<line x1="488.3" y1="355.2" x2="511.4" y2="360.5" stroke="rgb(0,0,0)"  stroke-width="2.0"/>
<line x1="488.3" y1="355.2" x2="495.2" y2="377.8" stroke="rgb(0,0,0)"  stroke-width="2.0"/>
<line x1="511.0" y1="312.3" x2="528.3" y2="328.4" stroke="rgb(0,0,0)"  stroke-width="2.0"/>
<line x1="511.0" y1="312.3" x2="516.3" y2="289.1" stroke="rgb(0,0,0)"  stroke-width="2.0"/>
<line x1="511.0" y1="312.3" x2="533.6" y2="305.3" stroke="rgb(0,0,0)"  stroke-width="2.0"/>
<line x1="468.1" y1="289.5" x2="484.2" y2="272.2" stroke="rgb(0,0,0)"  stroke-width="2.0"/>
<line x1="468.1" y1="289.5" x2="445.0" y2="284.2" stroke="rgb(0,0,0)"  stroke-width="2.0"/>
<line x1="468.1" y1="289.5" x2="461.1" y2="266.9" stroke="rgb(0,0,0)"  stroke-width="2.0"/>
<line x1="300.1" y1="211.1" x2="299.5" y2="245.6" stroke="rgb(0,0,0)"  stroke-width="2.0"/>
<line x1="300.1" y1="211.1" x2="320.7" y2="199.3" stroke="rgb(0,0,0)"  stroke-width="2.0"/>
<line x1="300.1" y1="211.1" x2="320.6" y2="223.2" stroke="rgb(0,0,0)"  stroke-width="2.0"/>
<line x1="210.0" y1="211.1" x2="165.5" y2="185.6" stroke="rgb(0,0,0)"  stroke-width="2.0"/>
<line x1="165.5" y1="185.6" x2="165.8" y2="128.7" stroke="rgb(0,0,0)"  stroke-width="2.0"/>
<line x1="165.8" y1="128.7" x2="210.0" y2="109.2" stroke="rgb(0,0,0)"  stroke-width="2.0"/>
<line x1="210.0" y1="109.2" x2="255.2" y2="133.8" stroke="rgb(0,0,0)"  stroke-width="2.0"/>
<line x1="255.2" y1="133.8" x2="254.7" y2="185.8" stroke="rgb(0,0,0)"  stroke-width="2.0"/>
<line x1="254.7" y1="185.8" x2="210.0" y2="211.1" stroke="rgb(0,0,0)"  stroke-width="2.0"/>
<text x="104.485708" y="118.489140" fill="rgb(127,153,153)"  stroke="rgb(127,153,153)" stroke-width="1" font-size="16" >Si</text>
<text x="202.772416" y="64.249566" fill="rgb(255,12,12)"  stroke="rgb(255,12,12)" stroke-width="1" font-size="16" >O</text>
<text x="472.161731" y="330.347786" fill="rgb(127,153,153)"  stroke="rgb(127,153,153)" stroke-width="1" font-size="16" >Si</text>
<text x="261.936621" y="392.549133" fill="rgb(191,191,191)"  stroke="rgb(191,191,191)" stroke-width="1" font-size="16" >H</text>
<text x="337.896048" y="436.184450" fill="rgb(191,191,191)"  stroke="rgb(191,191,191)" stroke-width="1" font-size="16" >H</text>
<text x="80.658732" y="355.691617" fill="rgb(191,191,191)"  stroke="rgb(191,191,191)" stroke-width="1" font-size="16" >H</text>
<text x="112.258732" y="410.888664" fill="rgb(191,191,191)"  stroke="rgb(191,191,191)" stroke-width="1" font-size="16" >H</text>
<text x="80.524892" y="392.411861" fill="rgb(191,191,191)"  stroke="rgb(191,191,191)" stroke-width="1" font-size="16" >H</text>
<text x="188.973154" y="365.832582" fill="rgb(191,191,191)"  stroke="rgb(191,191,191)" stroke-width="1" font-size="16" >H</text>
<text x="128.865205" y="279.553737" fill="rgb(191,191,191)"  stroke="rgb(191,191,191)" stroke-width="1" font-size="16" >H</text>
<text x="235.751999" y="237.620592" fill="rgb(191,191,191)"  stroke="rgb(191,191,191)" stroke-width="1" font-size="16" >H</text>
<text x="235.837794" y="288.912251" fill="rgb(191,191,191)"  stroke="rgb(191,191,191)" stroke-width="1" font-size="16" >H</text>
<text x="235.683363" y="252.336143" fill="rgb(191,191,191)"  stroke="rgb(191,191,191)" stroke-width="1" font-size="16" >H</text>
<text x="127.670939" y="211.909558" fill="rgb(191,191,191)"  stroke="rgb(191,191,191)" stroke-width="1" font-size="16" >H</text>
<text x="159.538619" y="230.307429" fill="rgb(191,191,191)"  stroke="rgb(191,191,191)" stroke-width="1" font-size="16" >H</text>
<text x="134.009470" y="162.841703" fill="rgb(191,191,191)"  stroke="rgb(191,191,191)" stroke-width="1" font-size="16" >H</text>
<text x="119.407168" y="166.036708" fill="rgb(191,191,191)"  stroke="rgb(191,191,191)" stroke-width="1" font-size="16" >H</text>
<text x="106.047177" y="129.254692" fill="rgb(191,191,191)"  stroke="rgb(191,191,191)" stroke-width="1" font-size="16" >H</text>
<text x="142.578671" y="70.162554" fill="rgb(191,191,191)"  stroke="rgb(191,191,191)" stroke-width="1" font-size="16" >H</text>
<text x="79.467898" y="62.269418" fill="rgb(191,191,191)"  stroke="rgb(191,191,191)" stroke-width="1" font-size="16" >H</text>
<text x="113.301999" y="48.000000" fill="rgb(191,191,191)"  stroke="rgb(191,191,191)" stroke-width="1" font-size="16" >H</text>
<text x="56.162554" y="80.396177" fill="rgb(191,191,191)"  stroke="rgb(191,191,191)" stroke-width="1" font-size="16" >H</text>
<text x="48.269418" y="143.506951" fill="rgb(191,191,191)"  stroke="rgb(191,191,191)" stroke-width="1" font-size="16" >H</text>
<text x="34.000000" y="109.672850" fill="rgb(191,191,191)"  stroke="rgb(191,191,191)" stroke-width="1" font-size="16" >H</text>
<text x="66.399609" y="166.815726" fill="rgb(191,191,191)"  stroke="rgb(191,191,191)" stroke-width="1" font-size="16" >H</text>
<text x="129.506951" y="174.701999" fill="rgb(191,191,191)"  stroke="rgb(191,191,191)" stroke-width="1" font-size="16" >H</text>
<text x="95.676282" y="188.974849" fill="rgb(191,191,191)"  stroke="rgb(191,191,191)" stroke-width="1" font-size="16" >H</text>
<text x="163.052781" y="95.406864" fill="rgb(191,191,191)"  stroke="rgb(191,191,191)" stroke-width="1" font-size="16" >H</text>
<text x="174.127194" y="131.790791" fill="rgb(191,191,191)"  stroke="rgb(191,191,191)" stroke-width="1" font-size="16" >H</text>
<text x="280.893876" y="123.163250" fill="rgb(191,191,191)"  stroke="rgb(191,191,191)" stroke-width="1" font-size="16" >H</text>
<text x="281.031148" y="160.164901" fill="rgb(191,191,191)"  stroke="rgb(191,191,191)" stroke-width="1" font-size="16" >H</text>
<text x="248.858037" y="230.482451" fill="rgb(191,191,191)"  stroke="rgb(191,191,191)" stroke-width="1" font-size="16" >H</text>
<text x="457.253998" y="390.050783" fill="rgb(191,191,191)"  stroke="rgb(191,191,191)" stroke-width="1" font-size="16" >H</text>
<text x="518.044876" y="371.354346" fill="rgb(191,191,191)"  stroke="rgb(191,191,191)" stroke-width="1" font-size="16" >H</text>
<text x="493.047656" y="398.249350" fill="rgb(191,191,191)"  stroke="rgb(191,191,191)" stroke-width="1" font-size="16" >H</text>
<text x="531.857865" y="345.262382" fill="rgb(191,191,191)"  stroke="rgb(191,191,191)" stroke-width="1" font-size="16" >H</text>
<text x="513.164859" y="284.468072" fill="rgb(191,191,191)"  stroke="rgb(191,191,191)" stroke-width="1" font-size="16" >H</text>
<text x="540.059863" y="309.468724" fill="rgb(191,191,191)"  stroke="rgb(191,191,191)" stroke-width="1" font-size="16" >H</text>
<text x="487.076327" y="270.651652" fill="rgb(191,191,191)"  stroke="rgb(191,191,191)" stroke-width="1" font-size="16" >H</text>
<text x="426.282017" y="289.344658" fill="rgb(191,191,191)"  stroke="rgb(191,191,191)" stroke-width="1" font-size="16" >H</text>
<text x="451.282669" y="262.449653" fill="rgb(191,191,191)"  stroke="rgb(191,191,191)" stroke-width="1" font-size="16" >H</text>
<text x="325.980844" y="200.824849" fill="rgb(191,191,191)"  stroke="rgb(191,191,191)" stroke-width="1" font-size="16" >H</text>
<text x="325.768073" y="237.795613" fill="rgb(191,191,191)"  stroke="rgb(191,191,191)" stroke-width="1" font-size="16" >H</text>
</svg>
</g>
<text font-size="18.000000" fill ="black" font-family="sans-serif"
x="10.000000" y="20.000000" ></text>
</svg>
