<?xml version="1.0"?>
<svg version="1.1" id="topsvg"
xmlns="http://www.w3.org/2000/svg" xmlns:xlink="http://www.w3.org/1999/xlink"
xmlns:cml="http://www.xml-cml.org/schema" x="0" y="0" width="200px" height="200px" viewBox="0 0 100 100">
<title> - Open Babel Depiction</title>
<rect x="0" y="0" width="100" height="100" fill="white"/>
<g transform="translate(0,0)">
<svg width="100" height="100" x="0" y="0" viewBox="0 0 385.083 440.161"
font-family="sans-serif" stroke="rgb(0,0,0)" stroke-width="2"  stroke-linecap="round">
<line x1="202.0" y1="332.3" x2="248.6" y2="321.0" stroke="rgb(0,0,0)"  stroke-width="2.0"/>
<line x1="202.0" y1="332.3" x2="187.6" y2="317.1" stroke="rgb(0,0,0)"  stroke-width="2.0"/>
<line x1="202.0" y1="332.3" x2="196.1" y2="352.5" stroke="rgb(0,0,0)"  stroke-width="2.0"/>
<line x1="202.0" y1="332.3" x2="181.6" y2="337.3" stroke="rgb(0,0,0)"  stroke-width="2.0"/>
<line x1="248.6" y1="321.0" x2="235.9" y2="367.4" stroke="rgb(0,0,0)"  stroke-width="2.0"/>
<line x1="297.3" y1="320.8" x2="309.8" y2="337.6" stroke="rgb(0,0,0)"  stroke-width="2.0"/>
<line x1="297.3" y1="320.8" x2="287.9" y2="339.5" stroke="rgb(0,0,0)"  stroke-width="2.0"/>
<line x1="235.9" y1="367.4" x2="215.5" y2="372.7" stroke="rgb(0,0,0)"  stroke-width="2.0"/>
<line x1="235.9" y1="367.4" x2="250.6" y2="382.3" stroke="rgb(0,0,0)"  stroke-width="2.0"/>
<line x1="235.9" y1="367.4" x2="230.3" y2="387.6" stroke="rgb(0,0,0)"  stroke-width="2.0"/>
<line x1="233.7" y1="174.3" x2="192.3" y2="194.6" stroke="rgb(0,0,0)"  stroke-width="2.0"/>
<polygon points="233.668876 174.339033 230.152097 125.123029 238.151711 125.201604 " stroke-width="2.000000" fill="rgb(0,0,0)"  stroke="rgb(0,0,0)" />
<line x1="233.7" y1="174.3" x2="215.9" y2="163.1" stroke="rgb(0,0,0)"  stroke-width="2.0"/>
<polygon points="234.151904 125.162316 190.828993 107.133477 194.521082 100.036401 " stroke-width="2.000000" fill="rgb(0,0,0)"  stroke="rgb(0,0,0)" />
<line x1="234.2" y1="125.2" x2="232.2" y2="74.0" stroke="rgb(0,0,0)"  stroke-width="2.0"/>
<line x1="192.7" y1="103.6" x2="192.3" y2="82.6" stroke="rgb(0,0,0)"  stroke-width="2.0"/>
<line x1="192.7" y1="103.6" x2="174.5" y2="93.1" stroke="rgb(0,0,0)"  stroke-width="2.0"/>
<line x1="66.9" y1="124.5" x2="108.6" y2="100.6" stroke="rgb(0,0,0)"  stroke-width="2.0"/>
<line x1="69.8" y1="129.7" x2="111.6" y2="105.8" stroke="rgb(0,0,0)"  stroke-width="2.0"/>
<line x1="68.3" y1="127.1" x2="51.2" y2="117.1" stroke="rgb(0,0,0)"  stroke-width="2.0"/>
<line x1="68.3" y1="127.1" x2="68.3" y2="146.9" stroke="rgb(0,0,0)"  stroke-width="2.0"/>
<line x1="110.1" y1="103.2" x2="150.9" y2="127.1" stroke="rgb(0,0,0)"  stroke-width="2.0"/>
<line x1="110.1" y1="103.2" x2="110.2" y2="83.4" stroke="rgb(0,0,0)"  stroke-width="2.0"/>
<line x1="150.9" y1="127.1" x2="192.7" y2="103.6" stroke="rgb(0,0,0)"  stroke-width="2.0"/>
<line x1="150.9" y1="127.1" x2="150.7" y2="148.1" stroke="rgb(0,0,0)"  stroke-width="2.0"/>
<line x1="150.9" y1="127.1" x2="169.0" y2="137.8" stroke="rgb(0,0,0)"  stroke-width="2.0"/>
<line x1="266.1" y1="104.7" x2="269.1" y2="69.3" stroke="rgb(0,0,0)"  stroke-width="2.0"/>
<line x1="272.1" y1="105.3" x2="275.1" y2="69.8" stroke="rgb(0,0,0)"  stroke-width="2.0"/>
<line x1="315.2" y1="127.7" x2="333.0" y2="116.4" stroke="rgb(0,0,0)"  stroke-width="2.0"/>
<line x1="315.2" y1="127.7" x2="314.1" y2="106.7" stroke="rgb(0,0,0)"  stroke-width="2.0"/>
<line x1="316.0" y1="176.4" x2="334.0" y2="187.3" stroke="rgb(0,0,0)"  stroke-width="2.0"/>
<line x1="316.0" y1="176.4" x2="315.2" y2="197.4" stroke="rgb(0,0,0)"  stroke-width="2.0"/>
<line x1="265.9" y1="193.3" x2="266.6" y2="191.9" stroke="rgb(0,0,0)"  stroke-width="1.0"/>
<line x1="259.0" y1="190.2" x2="260.4" y2="187.7" stroke="rgb(0,0,0)"  stroke-width="1.0"/>
<line x1="252.2" y1="187.1" x2="254.2" y2="183.5" stroke="rgb(0,0,0)"  stroke-width="1.0"/>
<line x1="245.4" y1="184.0" x2="248.0" y2="179.3" stroke="rgb(0,0,0)"  stroke-width="1.0"/>
<line x1="238.5" y1="180.9" x2="241.8" y2="175.1" stroke="rgb(0,0,0)"  stroke-width="1.0"/>
<line x1="231.7" y1="177.8" x2="235.6" y2="170.9" stroke="rgb(0,0,0)"  stroke-width="1.0"/>
<line x1="274.4" y1="197.2" x2="273.5" y2="251.1" stroke="rgb(0,0,0)"  stroke-width="2.0"/>
<line x1="274.4" y1="197.2" x2="256.2" y2="207.6" stroke="rgb(0,0,0)"  stroke-width="2.0"/>
<line x1="231.0" y1="180.3" x2="192.3" y2="194.6" stroke="rgb(0,0,0)"  stroke-width="2.0"/>
<line x1="231.0" y1="180.3" x2="242.8" y2="162.9" stroke="rgb(0,0,0)"  stroke-width="2.0"/>
<line x1="231.0" y1="180.3" x2="251.2" y2="186.2" stroke="rgb(0,0,0)"  stroke-width="2.0"/>
<line x1="232.2" y1="74.0" x2="249.9" y2="62.8" stroke="rgb(0,0,0)"  stroke-width="2.0"/>
<line x1="232.2" y1="74.0" x2="213.6" y2="64.2" stroke="rgb(0,0,0)"  stroke-width="2.0"/>
<line x1="232.2" y1="74.0" x2="231.4" y2="53.0" stroke="rgb(0,0,0)"  stroke-width="2.0"/>
<line x1="151.7" y1="172.6" x2="193.5" y2="191.9" stroke="rgb(0,0,0)"  stroke-width="2.0"/>
<line x1="149.2" y1="178.0" x2="191.0" y2="197.3" stroke="rgb(0,0,0)"  stroke-width="2.0"/>
<line x1="150.4" y1="175.3" x2="148.6" y2="155.6" stroke="rgb(0,0,0)"  stroke-width="2.0"/>
<line x1="150.4" y1="175.3" x2="134.3" y2="186.7" stroke="rgb(0,0,0)"  stroke-width="2.0"/>
<line x1="231.8" y1="210.2" x2="231.0" y2="180.3" stroke="rgb(0,0,0)"  stroke-width="2.0"/>
<line x1="246.9" y1="267.3" x2="273.5" y2="251.1" stroke="rgb(0,0,0)"  stroke-width="2.0"/>
<line x1="251.8" y1="272.7" x2="272.1" y2="260.4" stroke="rgb(0,0,0)"  stroke-width="2.0"/>
<line x1="273.5" y1="251.1" x2="300.4" y2="269.5" stroke="rgb(0,0,0)"  stroke-width="2.0"/>
<line x1="307.2" y1="289.2" x2="297.3" y2="320.8" stroke="rgb(0,0,0)"  stroke-width="2.0"/>
<line x1="297.3" y1="320.8" x2="248.6" y2="321.0" stroke="rgb(0,0,0)"  stroke-width="2.0"/>
<line x1="248.6" y1="321.0" x2="237.8" y2="287.6" stroke="rgb(0,0,0)"  stroke-width="2.0"/>
<line x1="234.2" y1="125.2" x2="269.1" y2="105.0" stroke="rgb(0,0,0)"  stroke-width="2.0"/>
<line x1="269.1" y1="105.0" x2="315.2" y2="127.7" stroke="rgb(0,0,0)"  stroke-width="2.0"/>
<line x1="315.2" y1="127.7" x2="316.0" y2="176.4" stroke="rgb(0,0,0)"  stroke-width="2.0"/>
<line x1="316.0" y1="176.4" x2="274.4" y2="197.2" stroke="rgb(0,0,0)"  stroke-width="2.0"/>
<line x1="274.4" y1="197.2" x2="233.7" y2="174.3" stroke="rgb(0,0,0)"  stroke-width="2.0"/>
<line x1="233.7" y1="174.3" x2="234.2" y2="125.2" stroke="rgb(0,0,0)"  stroke-width="2.0"/>
<text x="227.767388" y="283.260144" fill="rgb(12,12,255)"  stroke="rgb(12,12,255)" stroke-width="1" font-size="16" >N</text>
<text x="305.128164" y="284.836341" fill="rgb(255,12,12)"  stroke="rgb(255,12,12)" stroke-width="1" font-size="16" >O</text>
<text x="267.239052" y="64.597738" fill="rgb(255,12,12)"  stroke="rgb(255,12,12)" stroke-width="1" font-size="16" >O</text>
<text x="226.188013" y="231.159835" fill="rgb(191,191,191)"  stroke="rgb(191,191,191)" stroke-width="1" font-size="16" >H</text>
<text x="172.584597" y="315.699299" fill="rgb(191,191,191)"  stroke="rgb(191,191,191)" stroke-width="1" font-size="16" >H</text>
<text x="186.458946" y="372.934960" fill="rgb(191,191,191)"  stroke="rgb(191,191,191)" stroke-width="1" font-size="16" >H</text>
<text x="162.997123" y="348.322768" fill="rgb(191,191,191)"  stroke="rgb(191,191,191)" stroke-width="1" font-size="16" >H</text>
<text x="311.509220" y="356.105242" fill="rgb(191,191,191)"  stroke="rgb(191,191,191)" stroke-width="1" font-size="16" >H</text>
<text x="276.079739" y="359.149590" fill="rgb(191,191,191)"  stroke="rgb(191,191,191)" stroke-width="1" font-size="16" >H</text>
<text x="196.961631" y="383.974696" fill="rgb(191,191,191)"  stroke="rgb(191,191,191)" stroke-width="1" font-size="16" >H</text>
<text x="253.758753" y="399.555533" fill="rgb(191,191,191)"  stroke="rgb(191,191,191)" stroke-width="1" font-size="16" >H</text>
<text x="220.861992" y="408.161061" fill="rgb(191,191,191)"  stroke="rgb(191,191,191)" stroke-width="1" font-size="16" >H</text>
<text x="198.906455" y="164.203232" fill="rgb(191,191,191)"  stroke="rgb(191,191,191)" stroke-width="1" font-size="16" >H</text>
<text x="186.109386" y="77.585476" fill="rgb(191,191,191)"  stroke="rgb(191,191,191)" stroke-width="1" font-size="16" >H</text>
<text x="157.175363" y="94.672597" fill="rgb(191,191,191)"  stroke="rgb(191,191,191)" stroke-width="1" font-size="16" >H</text>
<text x="34.000000" y="118.588848" fill="rgb(191,191,191)"  stroke="rgb(191,191,191)" stroke-width="1" font-size="16" >H</text>
<text x="62.225370" y="167.883144" fill="rgb(191,191,191)"  stroke="rgb(191,191,191)" stroke-width="1" font-size="16" >H</text>
<text x="104.258355" y="78.389463" fill="rgb(191,191,191)"  stroke="rgb(191,191,191)" stroke-width="1" font-size="16" >H</text>
<text x="144.600741" y="169.122493" fill="rgb(191,191,191)"  stroke="rgb(191,191,191)" stroke-width="1" font-size="16" >H</text>
<text x="174.176683" y="152.403998" fill="rgb(191,191,191)"  stroke="rgb(191,191,191)" stroke-width="1" font-size="16" >H</text>
<text x="337.964546" y="117.473434" fill="rgb(191,191,191)"  stroke="rgb(191,191,191)" stroke-width="1" font-size="16" >H</text>
<text x="307.409836" y="101.724173" fill="rgb(191,191,191)"  stroke="rgb(191,191,191)" stroke-width="1" font-size="16" >H</text>
<text x="339.083138" y="202.060565" fill="rgb(191,191,191)"  stroke="rgb(191,191,191)" stroke-width="1" font-size="16" >H</text>
<text x="308.611051" y="218.378655" fill="rgb(191,191,191)"  stroke="rgb(191,191,191)" stroke-width="1" font-size="16" >H</text>
<text x="238.911992" y="222.122124" fill="rgb(191,191,191)"  stroke="rgb(191,191,191)" stroke-width="1" font-size="16" >H</text>
<text x="244.117256" y="160.176938" fill="rgb(191,191,191)"  stroke="rgb(191,191,191)" stroke-width="1" font-size="16" >H</text>
<text x="257.680179" y="197.865847" fill="rgb(191,191,191)"  stroke="rgb(191,191,191)" stroke-width="1" font-size="16" >H</text>
<text x="254.940901" y="63.850951" fill="rgb(191,191,191)"  stroke="rgb(191,191,191)" stroke-width="1" font-size="16" >H</text>
<text x="196.090909" y="66.126268" fill="rgb(191,191,191)"  stroke="rgb(191,191,191)" stroke-width="1" font-size="16" >H</text>
<text x="224.856508" y="48.000000" fill="rgb(191,191,191)"  stroke="rgb(191,191,191)" stroke-width="1" font-size="16" >H</text>
<text x="141.435635" y="150.665732" fill="rgb(191,191,191)"  stroke="rgb(191,191,191)" stroke-width="1" font-size="16" >H</text>
<text x="117.656031" y="202.251234" fill="rgb(191,191,191)"  stroke="rgb(191,191,191)" stroke-width="1" font-size="16" >H</text>
</svg>
</g>
<text font-size="18.000000" fill ="black" font-family="sans-serif"
x="10.000000" y="20.000000" ></text>
</svg>
