<?xml version="1.0"?>
<svg version="1.1" id="topsvg"
xmlns="http://www.w3.org/2000/svg" xmlns:xlink="http://www.w3.org/1999/xlink"
xmlns:cml="http://www.xml-cml.org/schema" x="0" y="0" width="200px" height="200px" viewBox="0 0 100 100">
<title> - Open Babel Depiction</title>
<rect x="0" y="0" width="100" height="100" fill="white"/>
<g transform="translate(0,0)">
<svg width="100" height="100" x="0" y="0" viewBox="0 0 424.786 419.56"
font-family="sans-serif" stroke="rgb(0,0,0)" stroke-width="2"  stroke-linecap="round">
<line x1="192.9" y1="157.7" x2="235.2" y2="181.5" stroke="rgb(0,0,0)"  stroke-width="2.0"/>
<line x1="185.3" y1="162.7" x2="184.5" y2="161.3" stroke="rgb(0,0,0)"  stroke-width="1.0"/>
<line x1="179.1" y1="166.7" x2="177.8" y2="164.2" stroke="rgb(0,0,0)"  stroke-width="1.0"/>
<line x1="173.0" y1="170.8" x2="171.0" y2="167.1" stroke="rgb(0,0,0)"  stroke-width="1.0"/>
<line x1="166.9" y1="174.8" x2="164.3" y2="170.0" stroke="rgb(0,0,0)"  stroke-width="1.0"/>
<line x1="160.7" y1="178.8" x2="157.5" y2="172.9" stroke="rgb(0,0,0)"  stroke-width="1.0"/>
<line x1="154.6" y1="182.8" x2="150.8" y2="175.8" stroke="rgb(0,0,0)"  stroke-width="1.0"/>
<line x1="192.9" y1="157.7" x2="211.0" y2="147.1" stroke="rgb(0,0,0)"  stroke-width="2.0"/>
<line x1="235.2" y1="181.5" x2="236.0" y2="228.2" stroke="rgb(0,0,0)"  stroke-width="2.0"/>
<line x1="235.2" y1="181.5" x2="253.2" y2="170.8" stroke="rgb(0,0,0)"  stroke-width="2.0"/>
<line x1="235.2" y1="181.5" x2="253.5" y2="191.7" stroke="rgb(0,0,0)"  stroke-width="2.0"/>
<line x1="111.9" y1="159.0" x2="94.0" y2="169.9" stroke="rgb(0,0,0)"  stroke-width="2.0"/>
<line x1="111.9" y1="159.0" x2="112.8" y2="179.9" stroke="rgb(0,0,0)"  stroke-width="2.0"/>
<line x1="112.7" y1="110.5" x2="94.7" y2="99.8" stroke="rgb(0,0,0)"  stroke-width="2.0"/>
<line x1="112.7" y1="110.5" x2="113.0" y2="89.6" stroke="rgb(0,0,0)"  stroke-width="2.0"/>
<line x1="154.9" y1="52.9" x2="155.6" y2="88.1" stroke="rgb(0,0,0)"  stroke-width="2.0"/>
<line x1="148.9" y1="53.1" x2="149.6" y2="88.2" stroke="rgb(0,0,0)"  stroke-width="2.0"/>
<line x1="236.0" y1="228.2" x2="236.0" y2="293.5" stroke="rgb(0,0,0)"  stroke-width="2.0"/>
<line x1="240.2" y1="228.2" x2="240.2" y2="293.5" stroke="rgb(0,0,0)"  stroke-width="2.0"/>
<line x1="231.8" y1="228.2" x2="231.8" y2="293.5" stroke="rgb(0,0,0)"  stroke-width="2.0"/>
<line x1="236.0" y1="293.5" x2="236.1" y2="323.6" stroke="rgb(0,0,0)"  stroke-width="2.0"/>
<line x1="357.3" y1="299.7" x2="315.1" y2="323.7" stroke="rgb(0,0,0)"  stroke-width="2.0"/>
<line x1="359.4" y1="303.4" x2="317.1" y2="327.3" stroke="rgb(0,0,0)"  stroke-width="2.0"/>
<line x1="355.3" y1="296.1" x2="313.0" y2="320.0" stroke="rgb(0,0,0)"  stroke-width="2.0"/>
<line x1="357.3" y1="299.7" x2="373.5" y2="290.6" stroke="rgb(0,0,0)"  stroke-width="2.0"/>
<line x1="237.6" y1="321.0" x2="275.8" y2="344.3" stroke="rgb(0,0,0)"  stroke-width="2.0"/>
<line x1="234.5" y1="326.1" x2="272.7" y2="349.4" stroke="rgb(0,0,0)"  stroke-width="2.0"/>
<line x1="236.1" y1="323.6" x2="218.9" y2="333.3" stroke="rgb(0,0,0)"  stroke-width="2.0"/>
<line x1="274.2" y1="346.8" x2="315.1" y2="323.7" stroke="rgb(0,0,0)"  stroke-width="2.0"/>
<line x1="274.2" y1="346.8" x2="273.9" y2="366.6" stroke="rgb(0,0,0)"  stroke-width="2.0"/>
<line x1="193.0" y1="110.7" x2="211.0" y2="100.0" stroke="rgb(0,0,0)"  stroke-width="2.0"/>
<line x1="193.0" y1="110.7" x2="192.7" y2="89.7" stroke="rgb(0,0,0)"  stroke-width="2.0"/>
<line x1="69.5" y1="322.8" x2="110.9" y2="298.7" stroke="rgb(0,0,0)"  stroke-width="2.0"/>
<line x1="69.5" y1="322.8" x2="51.3" y2="312.4" stroke="rgb(0,0,0)"  stroke-width="2.0"/>
<line x1="69.5" y1="322.8" x2="69.5" y2="343.8" stroke="rgb(0,0,0)"  stroke-width="2.0"/>
<line x1="69.5" y1="322.8" x2="51.3" y2="333.4" stroke="rgb(0,0,0)"  stroke-width="2.0"/>
<line x1="107.9" y1="298.7" x2="108.1" y2="251.4" stroke="rgb(0,0,0)"  stroke-width="2.0"/>
<line x1="113.9" y1="298.7" x2="114.1" y2="251.5" stroke="rgb(0,0,0)"  stroke-width="2.0"/>
<line x1="110.9" y1="298.7" x2="128.0" y2="308.6" stroke="rgb(0,0,0)"  stroke-width="2.0"/>
<line x1="111.1" y1="251.4" x2="152.3" y2="226.6" stroke="rgb(0,0,0)"  stroke-width="2.0"/>
<line x1="111.1" y1="251.4" x2="94.0" y2="241.7" stroke="rgb(0,0,0)"  stroke-width="2.0"/>
<line x1="152.3" y1="226.6" x2="170.5" y2="237.0" stroke="rgb(0,0,0)"  stroke-width="2.0"/>
<line x1="152.3" y1="226.6" x2="170.4" y2="216.1" stroke="rgb(0,0,0)"  stroke-width="2.0"/>
<line x1="152.7" y1="179.3" x2="152.3" y2="226.6" stroke="rgb(0,0,0)"  stroke-width="2.0"/>
<polygon points="152.699080 179.303298 135.403759 194.608621 131.219827 187.789918 " stroke-width="2.000000" fill="rgb(0,0,0)"  stroke="rgb(0,0,0)" />
<line x1="111.9" y1="159.0" x2="112.7" y2="110.5" stroke="rgb(0,0,0)"  stroke-width="2.0"/>
<line x1="112.7" y1="110.5" x2="152.6" y2="88.2" stroke="rgb(0,0,0)"  stroke-width="2.0"/>
<line x1="152.6" y1="88.2" x2="193.0" y2="110.7" stroke="rgb(0,0,0)"  stroke-width="2.0"/>
<line x1="193.0" y1="110.7" x2="192.9" y2="157.7" stroke="rgb(0,0,0)"  stroke-width="2.0"/>
<line x1="192.9" y1="157.7" x2="152.7" y2="179.3" stroke="rgb(0,0,0)"  stroke-width="2.0"/>
<line x1="152.7" y1="179.3" x2="111.9" y2="159.0" stroke="rgb(0,0,0)"  stroke-width="2.0"/>
<text x="145.671082" y="48.000000" fill="rgb(255,12,12)"  stroke="rgb(255,12,12)" stroke-width="1" font-size="16" >O</text>
<text x="216.260303" y="148.585198" fill="rgb(191,191,191)"  stroke="rgb(191,191,191)" stroke-width="1" font-size="16" >H</text>
<text x="258.341607" y="172.181568" fill="rgb(191,191,191)"  stroke="rgb(191,191,191)" stroke-width="1" font-size="16" >H</text>
<text x="258.830224" y="206.067441" fill="rgb(191,191,191)"  stroke="rgb(191,191,191)" stroke-width="1" font-size="16" >H</text>
<text x="76.858648" y="184.622252" fill="rgb(191,191,191)"  stroke="rgb(191,191,191)" stroke-width="1" font-size="16" >H</text>
<text x="107.301995" y="200.911585" fill="rgb(191,191,191)"  stroke="rgb(191,191,191)" stroke-width="1" font-size="16" >H</text>
<text x="77.563017" y="101.103731" fill="rgb(191,191,191)"  stroke="rgb(191,191,191)" stroke-width="1" font-size="16" >H</text>
<text x="107.181427" y="84.573263" fill="rgb(191,191,191)"  stroke="rgb(191,191,191)" stroke-width="1" font-size="16" >H</text>
<text x="378.785577" y="292.181341" fill="rgb(191,191,191)"  stroke="rgb(191,191,191)" stroke-width="1" font-size="16" >H</text>
<text x="201.528833" y="347.639315" fill="rgb(191,191,191)"  stroke="rgb(191,191,191)" stroke-width="1" font-size="16" >H</text>
<text x="267.730024" y="387.559918" fill="rgb(191,191,191)"  stroke="rgb(191,191,191)" stroke-width="1" font-size="16" >H</text>
<text x="216.247612" y="101.459088" fill="rgb(191,191,191)"  stroke="rgb(191,191,191)" stroke-width="1" font-size="16" >H</text>
<text x="186.581610" y="84.706522" fill="rgb(191,191,191)"  stroke="rgb(191,191,191)" stroke-width="1" font-size="16" >H</text>
<text x="34.000000" y="313.943813" fill="rgb(191,191,191)"  stroke="rgb(191,191,191)" stroke-width="1" font-size="16" >H</text>
<text x="63.561299" y="364.775794" fill="rgb(191,191,191)"  stroke="rgb(191,191,191)" stroke-width="1" font-size="16" >H</text>
<text x="34.107876" y="347.893142" fill="rgb(191,191,191)"  stroke="rgb(191,191,191)" stroke-width="1" font-size="16" >H</text>
<text x="133.227225" y="323.129168" fill="rgb(191,191,191)"  stroke="rgb(191,191,191)" stroke-width="1" font-size="16" >H</text>
<text x="76.661932" y="243.275270" fill="rgb(191,191,191)"  stroke="rgb(191,191,191)" stroke-width="1" font-size="16" >H</text>
<text x="175.787627" y="251.391381" fill="rgb(191,191,191)"  stroke="rgb(191,191,191)" stroke-width="1" font-size="16" >H</text>
<text x="175.717825" y="217.651459" fill="rgb(191,191,191)"  stroke="rgb(191,191,191)" stroke-width="1" font-size="16" >H</text>
<text x="117.762830" y="205.058479" fill="rgb(191,191,191)"  stroke="rgb(191,191,191)" stroke-width="1" font-size="16" >H</text>
</svg>
</g>
<text font-size="18.000000" fill ="black" font-family="sans-serif"
x="10.000000" y="20.000000" ></text>
</svg>
