<?xml version="1.0"?>
<svg version="1.1" id="topsvg"
xmlns="http://www.w3.org/2000/svg" xmlns:xlink="http://www.w3.org/1999/xlink"
xmlns:cml="http://www.xml-cml.org/schema" x="0" y="0" width="200px" height="200px" viewBox="0 0 100 100">
<title> - Open Babel Depiction</title>
<rect x="0" y="0" width="100" height="100" fill="white"/>
<g transform="translate(0,0)">
<svg width="100" height="100" x="0" y="0" viewBox="0 0 421.604 329.707"
font-family="sans-serif" stroke="rgb(0,0,0)" stroke-width="2"  stroke-linecap="round">
<line x1="114.0" y1="257.9" x2="133.9" y2="223.9" stroke="rgb(0,0,0)"  stroke-width="2.0"/>
<line x1="119.1" y1="260.9" x2="139.1" y2="226.9" stroke="rgb(0,0,0)"  stroke-width="2.0"/>
<line x1="116.6" y1="259.4" x2="126.5" y2="276.6" stroke="rgb(0,0,0)"  stroke-width="2.0"/>
<line x1="136.5" y1="225.4" x2="178.1" y2="225.8" stroke="rgb(0,0,0)"  stroke-width="2.0"/>
<line x1="136.5" y1="225.4" x2="126.7" y2="208.1" stroke="rgb(0,0,0)"  stroke-width="2.0"/>
<line x1="194.2" y1="194.1" x2="178.1" y2="225.8" stroke="rgb(0,0,0)"  stroke-width="2.0"/>
<line x1="194.2" y1="194.1" x2="178.0" y2="207.7" stroke="rgb(0,0,0)"  stroke-width="2.0"/>
<line x1="151.8" y1="206.9" x2="135.1" y2="219.8" stroke="rgb(0,0,0)"  stroke-width="2.0"/>
<line x1="151.8" y1="206.9" x2="136.0" y2="192.8" stroke="rgb(0,0,0)"  stroke-width="2.0"/>
<line x1="182.6" y1="156.2" x2="175.6" y2="136.3" stroke="rgb(0,0,0)"  stroke-width="2.0"/>
<line x1="182.6" y1="156.2" x2="197.6" y2="141.4" stroke="rgb(0,0,0)"  stroke-width="2.0"/>
<line x1="318.1" y1="72.5" x2="314.9" y2="52.8" stroke="rgb(0,0,0)"  stroke-width="2.0"/>
<line x1="351.5" y1="91.8" x2="369.7" y2="83.9" stroke="rgb(0,0,0)"  stroke-width="2.0"/>
<line x1="303.2" y1="199.9" x2="316.9" y2="215.9" stroke="rgb(0,0,0)"  stroke-width="2.0"/>
<line x1="303.2" y1="199.9" x2="324.2" y2="197.9" stroke="rgb(0,0,0)"  stroke-width="2.0"/>
<line x1="267.6" y1="213.7" x2="266.4" y2="192.6" stroke="rgb(0,0,0)"  stroke-width="2.0"/>
<line x1="178.1" y1="225.8" x2="189.0" y2="243.8" stroke="rgb(0,0,0)"  stroke-width="2.0"/>
<line x1="178.1" y1="225.8" x2="199.2" y2="225.0" stroke="rgb(0,0,0)"  stroke-width="2.0"/>
<line x1="74.1" y1="260.0" x2="116.6" y2="259.4" stroke="rgb(0,0,0)"  stroke-width="2.0"/>
<line x1="74.1" y1="260.0" x2="63.3" y2="241.8" stroke="rgb(0,0,0)"  stroke-width="2.0"/>
<line x1="74.1" y1="260.0" x2="63.8" y2="278.4" stroke="rgb(0,0,0)"  stroke-width="2.0"/>
<line x1="74.1" y1="260.0" x2="53.0" y2="260.2" stroke="rgb(0,0,0)"  stroke-width="2.0"/>
<line x1="293.1" y1="164.3" x2="309.3" y2="150.8" stroke="rgb(0,0,0)"  stroke-width="2.0"/>
<line x1="293.1" y1="164.3" x2="309.6" y2="177.5" stroke="rgb(0,0,0)"  stroke-width="2.0"/>
<line x1="151.8" y1="206.9" x2="182.6" y2="156.2" stroke="rgb(0,0,0)"  stroke-width="2.0"/>
<line x1="182.6" y1="156.2" x2="232.8" y2="174.5" stroke="rgb(0,0,0)"  stroke-width="2.0"/>
<line x1="257.5" y1="175.2" x2="293.1" y2="164.3" stroke="rgb(0,0,0)"  stroke-width="2.0"/>
<line x1="293.1" y1="164.3" x2="267.6" y2="213.7" stroke="rgb(0,0,0)"  stroke-width="2.0"/>
<line x1="267.6" y1="213.7" x2="194.2" y2="194.1" stroke="rgb(0,0,0)"  stroke-width="2.0"/>
<line x1="194.2" y1="194.1" x2="151.8" y2="206.9" stroke="rgb(0,0,0)"  stroke-width="2.0"/>
<line x1="264.2" y1="144.6" x2="286.1" y2="108.6" stroke="rgb(0,0,0)"  stroke-width="2.0"/>
<line x1="260.6" y1="142.4" x2="282.5" y2="106.5" stroke="rgb(0,0,0)"  stroke-width="2.0"/>
<line x1="267.8" y1="146.8" x2="289.7" y2="110.8" stroke="rgb(0,0,0)"  stroke-width="2.0"/>
<line x1="286.1" y1="108.6" x2="318.1" y2="72.5" stroke="rgb(0,0,0)"  stroke-width="2.0"/>
<line x1="318.1" y1="72.5" x2="351.5" y2="91.8" stroke="rgb(0,0,0)"  stroke-width="2.0"/>
<line x1="319.7" y1="81.7" x2="342.6" y2="95.1" stroke="rgb(0,0,0)"  stroke-width="2.0"/>
<line x1="351.5" y1="91.8" x2="342.8" y2="130.2" stroke="rgb(0,0,0)"  stroke-width="2.0"/>
<line x1="342.8" y1="130.2" x2="322.1" y2="166.7" stroke="rgb(0,0,0)"  stroke-width="2.0"/>
<line x1="346.5" y1="132.3" x2="325.7" y2="168.7" stroke="rgb(0,0,0)"  stroke-width="2.0"/>
<line x1="339.2" y1="128.1" x2="318.4" y2="164.6" stroke="rgb(0,0,0)"  stroke-width="2.0"/>
<line x1="322.1" y1="166.7" x2="303.2" y2="199.9" stroke="rgb(0,0,0)"  stroke-width="2.0"/>
<line x1="303.2" y1="199.9" x2="267.6" y2="213.7" stroke="rgb(0,0,0)"  stroke-width="2.0"/>
<line x1="251.3" y1="167.6" x2="264.2" y2="144.6" stroke="rgb(0,0,0)"  stroke-width="2.0"/>
<text x="227.022546" y="186.988664" fill="rgb(17,127,178)"  stroke="rgb(17,127,178)" stroke-width="1" font-size="16" >Xx</text>
<text x="127.076723" y="295.861365" fill="rgb(191,191,191)"  stroke="rgb(191,191,191)" stroke-width="1" font-size="16" >H</text>
<text x="114.306049" y="204.799386" fill="rgb(191,191,191)"  stroke="rgb(191,191,191)" stroke-width="1" font-size="16" >H</text>
<text x="161.993644" y="224.031906" fill="rgb(191,191,191)"  stroke="rgb(191,191,191)" stroke-width="1" font-size="16" >H</text>
<text x="118.823285" y="235.795207" fill="rgb(191,191,191)"  stroke="rgb(191,191,191)" stroke-width="1" font-size="16" >H</text>
<text x="120.347094" y="192.191295" fill="rgb(191,191,191)"  stroke="rgb(191,191,191)" stroke-width="1" font-size="16" >H</text>
<text x="165.251664" y="132.058192" fill="rgb(191,191,191)"  stroke="rgb(191,191,191)" stroke-width="1" font-size="16" >H</text>
<text x="200.815726" y="140.257436" fill="rgb(191,191,191)"  stroke="rgb(191,191,191)" stroke-width="1" font-size="16" >H</text>
<text x="306.841644" y="48.000000" fill="rgb(191,191,191)"  stroke="rgb(191,191,191)" stroke-width="1" font-size="16" >H</text>
<text x="375.604356" y="86.688191" fill="rgb(191,191,191)"  stroke="rgb(191,191,191)" stroke-width="1" font-size="16" >H</text>
<text x="319.417856" y="233.790026" fill="rgb(191,191,191)"  stroke="rgb(191,191,191)" stroke-width="1" font-size="16" >H</text>
<text x="331.111024" y="204.639992" fill="rgb(191,191,191)"  stroke="rgb(191,191,191)" stroke-width="1" font-size="16" >H</text>
<text x="259.740620" y="187.600739" fill="rgb(191,191,191)"  stroke="rgb(191,191,191)" stroke-width="1" font-size="16" >H</text>
<text x="189.798390" y="262.943249" fill="rgb(191,191,191)"  stroke="rgb(191,191,191)" stroke-width="1" font-size="16" >H</text>
<text x="206.168187" y="232.489369" fill="rgb(191,191,191)"  stroke="rgb(191,191,191)" stroke-width="1" font-size="16" >H</text>
<text x="50.679022" y="238.629238" fill="rgb(191,191,191)"  stroke="rgb(191,191,191)" stroke-width="1" font-size="16" >H</text>
<text x="51.428176" y="297.707151" fill="rgb(191,191,191)"  stroke="rgb(191,191,191)" stroke-width="1" font-size="16" >H</text>
<text x="34.000000" y="268.384971" fill="rgb(191,191,191)"  stroke="rgb(191,191,191)" stroke-width="1" font-size="16" >H</text>
<text x="313.287550" y="150.449109" fill="rgb(191,191,191)"  stroke="rgb(191,191,191)" stroke-width="1" font-size="16" >H</text>
<text x="313.695600" y="193.648159" fill="rgb(191,191,191)"  stroke="rgb(191,191,191)" stroke-width="1" font-size="16" >H</text>
</svg>
</g>
<text font-size="18.000000" fill ="black" font-family="sans-serif"
x="10.000000" y="20.000000" ></text>
</svg>
