<?xml version="1.0"?>
<svg version="1.1" id="topsvg"
xmlns="http://www.w3.org/2000/svg" xmlns:xlink="http://www.w3.org/1999/xlink"
xmlns:cml="http://www.xml-cml.org/schema" x="0" y="0" width="200px" height="200px" viewBox="0 0 100 100">
<title> - Open Babel Depiction</title>
<rect x="0" y="0" width="100" height="100" fill="white"/>
<g transform="translate(0,0)">
<svg width="100" height="100" x="0" y="0" viewBox="0 0 386.309 275.489"
font-family="sans-serif" stroke="rgb(0,0,0)" stroke-width="2"  stroke-linecap="round">
<line x1="234.1" y1="157.4" x2="193.2" y2="177.4" stroke="rgb(0,0,0)"  stroke-width="2.0"/>
<polygon points="234.131900 157.426310 231.935489 111.400755 239.929333 111.714542 " stroke-width="2.000000" fill="rgb(0,0,0)"  stroke="rgb(0,0,0)" />
<line x1="234.1" y1="157.4" x2="216.6" y2="146.0" stroke="rgb(0,0,0)"  stroke-width="2.0"/>
<line x1="193.2" y1="177.4" x2="193.5" y2="197.1" stroke="rgb(0,0,0)"  stroke-width="2.0"/>
<line x1="235.9" y1="111.6" x2="194.4" y2="87.0" stroke="rgb(0,0,0)"  stroke-width="2.0"/>
<polygon points="235.932411 111.557648 217.890727 125.944105 214.062844 118.919341 " stroke-width="2.000000" fill="rgb(0,0,0)"  stroke="rgb(0,0,0)" />
<line x1="270.2" y1="87.5" x2="270.4" y2="53.0" stroke="rgb(0,0,0)"  stroke-width="2.0"/>
<line x1="276.2" y1="87.5" x2="276.4" y2="53.0" stroke="rgb(0,0,0)"  stroke-width="2.0"/>
<line x1="316.7" y1="109.7" x2="334.6" y2="98.8" stroke="rgb(0,0,0)"  stroke-width="2.0"/>
<line x1="316.7" y1="109.7" x2="335.0" y2="119.9" stroke="rgb(0,0,0)"  stroke-width="2.0"/>
<line x1="316.7" y1="159.0" x2="334.5" y2="169.9" stroke="rgb(0,0,0)"  stroke-width="2.0"/>
<line x1="316.7" y1="159.0" x2="315.9" y2="179.9" stroke="rgb(0,0,0)"  stroke-width="2.0"/>
<line x1="274.7" y1="180.5" x2="293.3" y2="190.1" stroke="rgb(0,0,0)"  stroke-width="2.0"/>
<line x1="66.9" y1="108.4" x2="109.1" y2="83.5" stroke="rgb(0,0,0)"  stroke-width="2.0"/>
<line x1="70.0" y1="113.5" x2="112.2" y2="88.7" stroke="rgb(0,0,0)"  stroke-width="2.0"/>
<line x1="68.5" y1="110.9" x2="51.3" y2="101.2" stroke="rgb(0,0,0)"  stroke-width="2.0"/>
<line x1="68.5" y1="110.9" x2="68.6" y2="130.7" stroke="rgb(0,0,0)"  stroke-width="2.0"/>
<line x1="110.6" y1="86.1" x2="151.5" y2="110.2" stroke="rgb(0,0,0)"  stroke-width="2.0"/>
<line x1="110.6" y1="86.1" x2="110.6" y2="66.4" stroke="rgb(0,0,0)"  stroke-width="2.0"/>
<line x1="194.4" y1="87.0" x2="151.5" y2="110.2" stroke="rgb(0,0,0)"  stroke-width="2.0"/>
<line x1="194.4" y1="87.0" x2="194.8" y2="66.1" stroke="rgb(0,0,0)"  stroke-width="2.0"/>
<line x1="194.4" y1="87.0" x2="176.5" y2="76.1" stroke="rgb(0,0,0)"  stroke-width="2.0"/>
<line x1="151.5" y1="110.2" x2="151.1" y2="131.1" stroke="rgb(0,0,0)"  stroke-width="2.0"/>
<line x1="151.5" y1="110.2" x2="169.3" y2="121.0" stroke="rgb(0,0,0)"  stroke-width="2.0"/>
<line x1="152.1" y1="155.7" x2="194.4" y2="174.6" stroke="rgb(0,0,0)"  stroke-width="2.0"/>
<line x1="149.6" y1="161.2" x2="191.9" y2="180.1" stroke="rgb(0,0,0)"  stroke-width="2.0"/>
<line x1="150.8" y1="158.4" x2="148.8" y2="138.8" stroke="rgb(0,0,0)"  stroke-width="2.0"/>
<line x1="150.8" y1="158.4" x2="134.9" y2="170.0" stroke="rgb(0,0,0)"  stroke-width="2.0"/>
<line x1="281.0" y1="222.6" x2="274.7" y2="180.5" stroke="rgb(0,0,0)"  stroke-width="2.0"/>
<line x1="235.9" y1="111.6" x2="234.1" y2="157.4" stroke="rgb(0,0,0)"  stroke-width="2.0"/>
<line x1="234.1" y1="157.4" x2="274.7" y2="180.5" stroke="rgb(0,0,0)"  stroke-width="2.0"/>
<line x1="274.7" y1="180.5" x2="316.7" y2="159.0" stroke="rgb(0,0,0)"  stroke-width="2.0"/>
<line x1="316.7" y1="159.0" x2="316.7" y2="109.7" stroke="rgb(0,0,0)"  stroke-width="2.0"/>
<line x1="316.7" y1="109.7" x2="273.2" y2="87.5" stroke="rgb(0,0,0)"  stroke-width="2.0"/>
<line x1="273.2" y1="87.5" x2="235.9" y2="111.6" stroke="rgb(0,0,0)"  stroke-width="2.0"/>
<text x="267.470538" y="48.000000" fill="rgb(255,12,12)"  stroke="rgb(255,12,12)" stroke-width="1" font-size="16" >O</text>
<text x="276.929562" y="243.488623" fill="rgb(191,191,191)"  stroke="rgb(191,191,191)" stroke-width="1" font-size="16" >H</text>
<text x="199.732636" y="146.879141" fill="rgb(191,191,191)"  stroke="rgb(191,191,191)" stroke-width="1" font-size="16" >H</text>
<text x="187.686961" y="218.075419" fill="rgb(191,191,191)"  stroke="rgb(191,191,191)" stroke-width="1" font-size="16" >H</text>
<text x="200.147895" y="135.787610" fill="rgb(191,191,191)"  stroke="rgb(191,191,191)" stroke-width="1" font-size="16" >H</text>
<text x="339.655829" y="99.996106" fill="rgb(191,191,191)"  stroke="rgb(191,191,191)" stroke-width="1" font-size="16" >H</text>
<text x="340.308831" y="134.300920" fill="rgb(191,191,191)"  stroke="rgb(191,191,191)" stroke-width="1" font-size="16" >H</text>
<text x="339.617790" y="184.667691" fill="rgb(191,191,191)"  stroke="rgb(191,191,191)" stroke-width="1" font-size="16" >H</text>
<text x="309.414845" y="200.869123" fill="rgb(191,191,191)"  stroke="rgb(191,191,191)" stroke-width="1" font-size="16" >H</text>
<text x="298.900239" y="203.994659" fill="rgb(191,191,191)"  stroke="rgb(191,191,191)" stroke-width="1" font-size="16" >H</text>
<text x="34.000000" y="102.830010" fill="rgb(191,191,191)"  stroke="rgb(191,191,191)" stroke-width="1" font-size="16" >H</text>
<text x="62.751124" y="151.656202" fill="rgb(191,191,191)"  stroke="rgb(191,191,191)" stroke-width="1" font-size="16" >H</text>
<text x="104.632033" y="61.399228" fill="rgb(191,191,191)"  stroke="rgb(191,191,191)" stroke-width="1" font-size="16" >H</text>
<text x="189.043685" y="61.094917" fill="rgb(191,191,191)"  stroke="rgb(191,191,191)" stroke-width="1" font-size="16" >H</text>
<text x="159.427174" y="77.343898" fill="rgb(191,191,191)"  stroke="rgb(191,191,191)" stroke-width="1" font-size="16" >H</text>
<text x="144.851908" y="152.068291" fill="rgb(191,191,191)"  stroke="rgb(191,191,191)" stroke-width="1" font-size="16" >H</text>
<text x="174.446229" y="135.806630" fill="rgb(191,191,191)"  stroke="rgb(191,191,191)" stroke-width="1" font-size="16" >H</text>
<text x="141.485459" y="133.882492" fill="rgb(191,191,191)"  stroke="rgb(191,191,191)" stroke-width="1" font-size="16" >H</text>
<text x="118.338743" y="185.602816" fill="rgb(191,191,191)"  stroke="rgb(191,191,191)" stroke-width="1" font-size="16" >H</text>
</svg>
</g>
<text font-size="18.000000" fill ="black" font-family="sans-serif"
x="10.000000" y="20.000000" ></text>
</svg>
