<?xml version="1.0"?>
<svg version="1.1" id="topsvg"
xmlns="http://www.w3.org/2000/svg" xmlns:xlink="http://www.w3.org/1999/xlink"
xmlns:cml="http://www.xml-cml.org/schema" x="0" y="0" width="200px" height="200px" viewBox="0 0 100 100">
<title> - Open Babel Depiction</title>
<rect x="0" y="0" width="100" height="100" fill="white"/>
<g transform="translate(0,0)">
<svg width="100" height="100" x="0" y="0" viewBox="0 0 474.775 345.517"
font-family="sans-serif" stroke="rgb(0,0,0)" stroke-width="2"  stroke-linecap="round">
<line x1="302.4" y1="232.7" x2="289.0" y2="215.7" stroke="rgb(0,0,0)"  stroke-width="2.0"/>
<line x1="189.0" y1="249.5" x2="177.0" y2="267.5" stroke="rgb(0,0,0)"  stroke-width="2.0"/>
<line x1="189.0" y1="249.5" x2="167.7" y2="245.8" stroke="rgb(0,0,0)"  stroke-width="2.0"/>
<line x1="134.4" y1="178.3" x2="116.8" y2="188.6" stroke="rgb(0,0,0)"  stroke-width="2.0"/>
<line x1="134.7" y1="129.3" x2="116.2" y2="123.4" stroke="rgb(0,0,0)"  stroke-width="2.0"/>
<line x1="107.8" y1="107.1" x2="113.7" y2="88.7" stroke="rgb(0,0,0)"  stroke-width="2.0"/>
<line x1="91.5" y1="115.6" x2="73.0" y2="109.7" stroke="rgb(0,0,0)"  stroke-width="2.0"/>
<line x1="99.9" y1="131.9" x2="94.0" y2="150.4" stroke="rgb(0,0,0)"  stroke-width="2.0"/>
<line x1="113.7" y1="88.7" x2="134.8" y2="84.0" stroke="rgb(0,0,0)"  stroke-width="2.0"/>
<line x1="113.7" y1="88.7" x2="99.1" y2="72.7" stroke="rgb(0,0,0)"  stroke-width="2.0"/>
<line x1="113.7" y1="88.7" x2="120.2" y2="68.0" stroke="rgb(0,0,0)"  stroke-width="2.0"/>
<line x1="73.0" y1="109.7" x2="68.4" y2="88.5" stroke="rgb(0,0,0)"  stroke-width="2.0"/>
<line x1="73.0" y1="109.7" x2="57.0" y2="124.3" stroke="rgb(0,0,0)"  stroke-width="2.0"/>
<line x1="73.0" y1="109.7" x2="52.4" y2="103.1" stroke="rgb(0,0,0)"  stroke-width="2.0"/>
<line x1="94.0" y1="150.4" x2="72.9" y2="155.0" stroke="rgb(0,0,0)"  stroke-width="2.0"/>
<line x1="94.0" y1="150.4" x2="108.6" y2="166.3" stroke="rgb(0,0,0)"  stroke-width="2.0"/>
<line x1="94.0" y1="150.4" x2="87.5" y2="171.0" stroke="rgb(0,0,0)"  stroke-width="2.0"/>
<line x1="177.4" y1="105.5" x2="175.6" y2="69.4" stroke="rgb(0,0,0)"  stroke-width="2.0"/>
<line x1="185.9" y1="49.4" x2="189.5" y2="47.0" stroke="rgb(0,0,0)"  stroke-width="2.0"/>
<line x1="263.5" y1="111.5" x2="269.6" y2="90.8" stroke="rgb(0,0,0)"  stroke-width="2.0"/>
<line x1="263.5" y1="111.5" x2="284.8" y2="108.0" stroke="rgb(0,0,0)"  stroke-width="2.0"/>
<line x1="375.1" y1="189.7" x2="385.2" y2="212.1" stroke="rgb(0,0,0)"  stroke-width="2.0"/>
<line x1="375.1" y1="189.7" x2="351.9" y2="196.1" stroke="rgb(0,0,0)"  stroke-width="2.0"/>
<line x1="400.1" y1="232.0" x2="421.8" y2="231.8" stroke="rgb(0,0,0)"  stroke-width="2.0"/>
<line x1="400.1" y1="232.0" x2="411.1" y2="250.6" stroke="rgb(0,0,0)"  stroke-width="2.0"/>
<line x1="375.6" y1="275.5" x2="386.5" y2="294.2" stroke="rgb(0,0,0)"  stroke-width="2.0"/>
<line x1="375.6" y1="275.5" x2="364.8" y2="294.2" stroke="rgb(0,0,0)"  stroke-width="2.0"/>
<line x1="325.8" y1="275.5" x2="314.8" y2="294.1" stroke="rgb(0,0,0)"  stroke-width="2.0"/>
<line x1="325.8" y1="275.5" x2="304.2" y2="275.1" stroke="rgb(0,0,0)"  stroke-width="2.0"/>
<line x1="385.2" y1="212.1" x2="385.3" y2="246.4" stroke="rgb(0,0,0)"  stroke-width="2.0"/>
<line x1="385.2" y1="212.1" x2="406.4" y2="207.6" stroke="rgb(0,0,0)"  stroke-width="2.0"/>
<line x1="385.2" y1="212.1" x2="402.1" y2="225.7" stroke="rgb(0,0,0)"  stroke-width="2.0"/>
<line x1="385.3" y1="246.4" x2="403.5" y2="258.0" stroke="rgb(0,0,0)"  stroke-width="2.0"/>
<line x1="385.3" y1="246.4" x2="383.8" y2="268.0" stroke="rgb(0,0,0)"  stroke-width="2.0"/>
<line x1="314.7" y1="239.0" x2="328.5" y2="203.0" stroke="rgb(0,0,0)"  stroke-width="2.0"/>
<line x1="314.7" y1="239.0" x2="293.3" y2="242.4" stroke="rgb(0,0,0)"  stroke-width="2.0"/>
<line x1="314.7" y1="239.0" x2="328.4" y2="255.8" stroke="rgb(0,0,0)"  stroke-width="2.0"/>
<line x1="314.7" y1="239.0" x2="307.0" y2="259.2" stroke="rgb(0,0,0)"  stroke-width="2.0"/>
<line x1="328.5" y1="203.0" x2="313.8" y2="187.0" stroke="rgb(0,0,0)"  stroke-width="2.0"/>
<line x1="328.5" y1="203.0" x2="334.3" y2="182.1" stroke="rgb(0,0,0)"  stroke-width="2.0"/>
<line x1="360.5" y1="257.9" x2="385.3" y2="246.4" stroke="rgb(0,0,0)"  stroke-width="2.0"/>
<line x1="351.9" y1="196.1" x2="328.5" y2="203.0" stroke="rgb(0,0,0)"  stroke-width="2.0"/>
<line x1="351.9" y1="196.1" x2="346.0" y2="175.3" stroke="rgb(0,0,0)"  stroke-width="2.0"/>
<line x1="351.9" y1="196.1" x2="332.9" y2="185.7" stroke="rgb(0,0,0)"  stroke-width="2.0"/>
<line x1="347.0" y1="229.5" x2="348.0" y2="250.3" stroke="rgb(0,0,0)"  stroke-width="2.0"/>
<line x1="347.0" y1="229.5" x2="365.2" y2="217.8" stroke="rgb(0,0,0)"  stroke-width="2.0"/>
<line x1="347.0" y1="229.5" x2="327.8" y2="219.6" stroke="rgb(0,0,0)"  stroke-width="2.0"/>
<line x1="347.0" y1="229.5" x2="346.0" y2="207.9" stroke="rgb(0,0,0)"  stroke-width="2.0"/>
<line x1="259.4" y1="202.2" x2="255.7" y2="222.3" stroke="rgb(0,0,0)"  stroke-width="2.0"/>
<line x1="134.4" y1="178.3" x2="177.4" y2="202.7" stroke="rgb(0,0,0)"  stroke-width="2.0"/>
<line x1="177.4" y1="202.7" x2="217.7" y2="177.5" stroke="rgb(0,0,0)"  stroke-width="2.0"/>
<line x1="178.7" y1="193.4" x2="208.8" y2="174.6" stroke="rgb(0,0,0)"  stroke-width="2.0"/>
<line x1="217.7" y1="177.5" x2="219.3" y2="129.6" stroke="rgb(0,0,0)"  stroke-width="2.0"/>
<line x1="219.3" y1="129.6" x2="177.4" y2="105.5" stroke="rgb(0,0,0)"  stroke-width="2.0"/>
<line x1="210.5" y1="132.9" x2="179.0" y2="114.8" stroke="rgb(0,0,0)"  stroke-width="2.0"/>
<line x1="177.4" y1="105.5" x2="134.7" y2="129.3" stroke="rgb(0,0,0)"  stroke-width="2.0"/>
<line x1="134.7" y1="129.3" x2="134.4" y2="178.3" stroke="rgb(0,0,0)"  stroke-width="2.0"/>
<line x1="141.9" y1="135.4" x2="141.7" y2="172.4" stroke="rgb(0,0,0)"  stroke-width="2.0"/>
<line x1="263.5" y1="111.5" x2="219.3" y2="129.6" stroke="rgb(0,0,0)"  stroke-width="2.0"/>
<line x1="217.7" y1="177.5" x2="259.4" y2="202.2" stroke="rgb(0,0,0)"  stroke-width="2.0"/>
<line x1="259.4" y1="202.2" x2="319.2" y2="191.4" stroke="rgb(0,0,0)"  stroke-width="2.0"/>
<line x1="264.0" y1="194.0" x2="312.1" y2="185.4" stroke="rgb(0,0,0)"  stroke-width="2.0"/>
<line x1="319.2" y1="191.4" x2="263.5" y2="111.5" stroke="rgb(0,0,0)"  stroke-width="2.0"/>
<line x1="302.4" y1="232.7" x2="189.0" y2="249.5" stroke="rgb(0,0,0)"  stroke-width="2.0"/>
<line x1="189.0" y1="249.5" x2="177.4" y2="202.7" stroke="rgb(0,0,0)"  stroke-width="2.0"/>
<line x1="319.2" y1="191.4" x2="302.4" y2="232.7" stroke="rgb(0,0,0)"  stroke-width="2.0"/>
<line x1="375.6" y1="275.5" x2="325.8" y2="275.5" stroke="rgb(0,0,0)"  stroke-width="2.0"/>
<line x1="325.8" y1="275.5" x2="302.4" y2="232.7" stroke="rgb(0,0,0)"  stroke-width="2.0"/>
<line x1="319.2" y1="191.4" x2="375.1" y2="189.7" stroke="rgb(0,0,0)"  stroke-width="2.0"/>
<line x1="375.1" y1="189.7" x2="400.1" y2="232.0" stroke="rgb(0,0,0)"  stroke-width="2.0"/>
<line x1="400.1" y1="232.0" x2="375.6" y2="275.5" stroke="rgb(0,0,0)"  stroke-width="2.0"/>
<text x="97.858155" y="127.504617" fill="rgb(127,153,153)"  stroke="rgb(127,153,153)" stroke-width="1" font-size="16" >Si</text>
<text x="168.968136" y="64.442868" fill="rgb(255,12,12)"  stroke="rgb(255,12,12)" stroke-width="1" font-size="16" >O</text>
<text x="336.662318" y="271.327104" fill="rgb(17,127,178)"  stroke="rgb(17,127,178)" stroke-width="1" font-size="16" >Xx</text>
<text x="194.456362" y="48.000000" fill="rgb(191,191,191)"  stroke="rgb(191,191,191)" stroke-width="1" font-size="16" >H</text>
<text x="274.984005" y="213.484079" fill="rgb(191,191,191)"  stroke="rgb(191,191,191)" stroke-width="1" font-size="16" >H</text>
<text x="163.710563" y="286.293707" fill="rgb(191,191,191)"  stroke="rgb(191,191,191)" stroke-width="1" font-size="16" >H</text>
<text x="148.886406" y="251.523791" fill="rgb(191,191,191)"  stroke="rgb(191,191,191)" stroke-width="1" font-size="16" >H</text>
<text x="99.528665" y="203.072529" fill="rgb(191,191,191)"  stroke="rgb(191,191,191)" stroke-width="1" font-size="16" >H</text>
<text x="141.518033" y="89.251235" fill="rgb(191,191,191)"  stroke="rgb(191,191,191)" stroke-width="1" font-size="16" >H</text>
<text x="84.345154" y="71.053684" fill="rgb(191,191,191)"  stroke="rgb(191,191,191)" stroke-width="1" font-size="16" >H</text>
<text x="118.182692" y="63.646462" fill="rgb(191,191,191)"  stroke="rgb(191,191,191)" stroke-width="1" font-size="16" >H</text>
<text x="59.608011" y="83.841502" fill="rgb(191,191,191)"  stroke="rgb(191,191,191)" stroke-width="1" font-size="16" >H</text>
<text x="41.403985" y="141.014381" fill="rgb(191,191,191)"  stroke="rgb(191,191,191)" stroke-width="1" font-size="16" >H</text>
<text x="34.000000" y="107.173605" fill="rgb(191,191,191)"  stroke="rgb(191,191,191)" stroke-width="1" font-size="16" >H</text>
<text x="54.195040" y="165.751524" fill="rgb(191,191,191)"  stroke="rgb(191,191,191)" stroke-width="1" font-size="16" >H</text>
<text x="111.364681" y="183.955550" fill="rgb(191,191,191)"  stroke="rgb(191,191,191)" stroke-width="1" font-size="16" >H</text>
<text x="77.523906" y="191.359535" fill="rgb(191,191,191)"  stroke="rgb(191,191,191)" stroke-width="1" font-size="16" >H</text>
<text x="267.243328" y="86.282519" fill="rgb(191,191,191)"  stroke="rgb(191,191,191)" stroke-width="1" font-size="16" >H</text>
<text x="291.653492" y="113.936580" fill="rgb(191,191,191)"  stroke="rgb(191,191,191)" stroke-width="1" font-size="16" >H</text>
<text x="428.774515" y="239.619789" fill="rgb(191,191,191)"  stroke="rgb(191,191,191)" stroke-width="1" font-size="16" >H</text>
<text x="411.765098" y="269.811990" fill="rgb(191,191,191)"  stroke="rgb(191,191,191)" stroke-width="1" font-size="16" >H</text>
<text x="387.076515" y="313.377982" fill="rgb(191,191,191)"  stroke="rgb(191,191,191)" stroke-width="1" font-size="16" >H</text>
<text x="352.364873" y="313.517191" fill="rgb(191,191,191)"  stroke="rgb(191,191,191)" stroke-width="1" font-size="16" >H</text>
<text x="302.217201" y="313.309996" fill="rgb(191,191,191)"  stroke="rgb(191,191,191)" stroke-width="1" font-size="16" >H</text>
<text x="285.211022" y="282.942975" fill="rgb(191,191,191)"  stroke="rgb(191,191,191)" stroke-width="1" font-size="16" >H</text>
<text x="413.079491" y="212.797746" fill="rgb(191,191,191)"  stroke="rgb(191,191,191)" stroke-width="1" font-size="16" >H</text>
<text x="406.212919" y="241.860086" fill="rgb(191,191,191)"  stroke="rgb(191,191,191)" stroke-width="1" font-size="16" >H</text>
<text x="408.498539" y="272.984664" fill="rgb(191,191,191)"  stroke="rgb(191,191,191)" stroke-width="1" font-size="16" >H</text>
<text x="376.972520" y="288.925731" fill="rgb(191,191,191)"  stroke="rgb(191,191,191)" stroke-width="1" font-size="16" >H</text>
<text x="274.511341" y="252.439982" fill="rgb(191,191,191)"  stroke="rgb(191,191,191)" stroke-width="1" font-size="16" >H</text>
<text x="330.564071" y="273.839343" fill="rgb(191,191,191)"  stroke="rgb(191,191,191)" stroke-width="1" font-size="16" >H</text>
<text x="296.357467" y="279.320299" fill="rgb(191,191,191)"  stroke="rgb(191,191,191)" stroke-width="1" font-size="16" >H</text>
<text x="298.983017" y="185.483614" fill="rgb(191,191,191)"  stroke="rgb(191,191,191)" stroke-width="1" font-size="16" >H</text>
<text x="331.748968" y="177.584303" fill="rgb(191,191,191)"  stroke="rgb(191,191,191)" stroke-width="1" font-size="16" >H</text>
<text x="336.423806" y="170.814853" fill="rgb(191,191,191)"  stroke="rgb(191,191,191)" stroke-width="1" font-size="16" >H</text>
<text x="315.571569" y="187.364556" fill="rgb(191,191,191)"  stroke="rgb(191,191,191)" stroke-width="1" font-size="16" >H</text>
<text x="370.144797" y="218.770790" fill="rgb(191,191,191)"  stroke="rgb(191,191,191)" stroke-width="1" font-size="16" >H</text>
<text x="310.216872" y="221.681232" fill="rgb(191,191,191)"  stroke="rgb(191,191,191)" stroke-width="1" font-size="16" >H</text>
<text x="339.340723" y="202.926845" fill="rgb(191,191,191)"  stroke="rgb(191,191,191)" stroke-width="1" font-size="16" >H</text>
<text x="247.433541" y="243.061169" fill="rgb(191,191,191)"  stroke="rgb(191,191,191)" stroke-width="1" font-size="16" >H</text>
</svg>
</g>
<text font-size="18.000000" fill ="black" font-family="sans-serif"
x="10.000000" y="20.000000" ></text>
</svg>
