<?xml version="1.0"?>
<svg version="1.1" id="topsvg"
xmlns="http://www.w3.org/2000/svg" xmlns:xlink="http://www.w3.org/1999/xlink"
xmlns:cml="http://www.xml-cml.org/schema" x="0" y="0" width="200px" height="200px" viewBox="0 0 100 100">
<title> - Open Babel Depiction</title>
<rect x="0" y="0" width="100" height="100" fill="white"/>
<g transform="translate(0,0)">
<svg width="100" height="100" x="0" y="0" viewBox="0 0 317.589 251.026"
font-family="sans-serif" stroke="rgb(0,0,0)" stroke-width="2"  stroke-linecap="round">
<line x1="68.8" y1="150.3" x2="51.5" y2="159.4" stroke="rgb(0,0,0)"  stroke-width="2.0"/>
<line x1="68.8" y1="150.3" x2="67.6" y2="169.8" stroke="rgb(0,0,0)"  stroke-width="2.0"/>
<line x1="68.6" y1="97.7" x2="51.8" y2="87.8" stroke="rgb(0,0,0)"  stroke-width="2.0"/>
<line x1="68.6" y1="97.7" x2="68.9" y2="78.1" stroke="rgb(0,0,0)"  stroke-width="2.0"/>
<line x1="113.5" y1="73.0" x2="113.0" y2="53.5" stroke="rgb(0,0,0)"  stroke-width="2.0"/>
<line x1="113.5" y1="73.0" x2="129.9" y2="62.5" stroke="rgb(0,0,0)"  stroke-width="2.0"/>
<line x1="204.3" y1="72.5" x2="204.6" y2="53.0" stroke="rgb(0,0,0)"  stroke-width="2.0"/>
<line x1="204.3" y1="72.5" x2="187.7" y2="62.2" stroke="rgb(0,0,0)"  stroke-width="2.0"/>
<line x1="249.3" y1="97.3" x2="266.1" y2="87.4" stroke="rgb(0,0,0)"  stroke-width="2.0"/>
<line x1="249.3" y1="97.3" x2="266.3" y2="107.0" stroke="rgb(0,0,0)"  stroke-width="2.0"/>
<line x1="249.4" y1="151.1" x2="266.1" y2="161.3" stroke="rgb(0,0,0)"  stroke-width="2.0"/>
<line x1="249.4" y1="151.1" x2="248.7" y2="170.7" stroke="rgb(0,0,0)"  stroke-width="2.0"/>
<line x1="203.5" y1="174.7" x2="203.6" y2="194.2" stroke="rgb(0,0,0)"  stroke-width="2.0"/>
<line x1="203.5" y1="174.7" x2="186.9" y2="184.9" stroke="rgb(0,0,0)"  stroke-width="2.0"/>
<line x1="109.5" y1="178.6" x2="108.2" y2="198.1" stroke="rgb(0,0,0)"  stroke-width="2.0"/>
<line x1="109.5" y1="178.6" x2="125.8" y2="189.2" stroke="rgb(0,0,0)"  stroke-width="2.0"/>
<line x1="159.5" y1="152.4" x2="159.7" y2="171.9" stroke="rgb(0,0,0)"  stroke-width="2.0"/>
<line x1="159.3" y1="95.8" x2="176.0" y2="105.9" stroke="rgb(0,0,0)"  stroke-width="2.0"/>
<line x1="68.6" y1="97.7" x2="68.8" y2="150.3" stroke="rgb(0,0,0)"  stroke-width="2.0"/>
<line x1="68.8" y1="150.3" x2="109.5" y2="178.6" stroke="rgb(0,0,0)"  stroke-width="2.0"/>
<line x1="109.5" y1="178.6" x2="159.5" y2="152.4" stroke="rgb(0,0,0)"  stroke-width="2.0"/>
<line x1="159.5" y1="152.4" x2="159.3" y2="95.8" stroke="rgb(0,0,0)"  stroke-width="2.0"/>
<line x1="159.3" y1="95.8" x2="113.5" y2="73.0" stroke="rgb(0,0,0)"  stroke-width="2.0"/>
<line x1="113.5" y1="73.0" x2="68.6" y2="97.7" stroke="rgb(0,0,0)"  stroke-width="2.0"/>
<line x1="249.4" y1="151.1" x2="249.3" y2="97.3" stroke="rgb(0,0,0)"  stroke-width="2.0"/>
<line x1="249.3" y1="97.3" x2="204.3" y2="72.5" stroke="rgb(0,0,0)"  stroke-width="2.0"/>
<line x1="204.3" y1="72.5" x2="159.3" y2="95.8" stroke="rgb(0,0,0)"  stroke-width="2.0"/>
<line x1="159.5" y1="152.4" x2="203.5" y2="174.7" stroke="rgb(0,0,0)"  stroke-width="2.0"/>
<line x1="203.5" y1="174.7" x2="249.4" y2="151.1" stroke="rgb(0,0,0)"  stroke-width="2.0"/>
<text x="34.000000" y="173.437997" fill="rgb(191,191,191)"  stroke="rgb(191,191,191)" stroke-width="1" font-size="16" >H</text>
<text x="60.796307" y="190.788735" fill="rgb(191,191,191)"  stroke="rgb(191,191,191)" stroke-width="1" font-size="16" >H</text>
<text x="34.608399" y="89.155711" fill="rgb(191,191,191)"  stroke="rgb(191,191,191)" stroke-width="1" font-size="16" >H</text>
<text x="63.115705" y="73.134493" fill="rgb(191,191,191)"  stroke="rgb(191,191,191)" stroke-width="1" font-size="16" >H</text>
<text x="106.767985" y="48.472297" fill="rgb(191,191,191)"  stroke="rgb(191,191,191)" stroke-width="1" font-size="16" >H</text>
<text x="134.925270" y="63.569087" fill="rgb(191,191,191)"  stroke="rgb(191,191,191)" stroke-width="1" font-size="16" >H</text>
<text x="198.804276" y="48.000000" fill="rgb(191,191,191)"  stroke="rgb(191,191,191)" stroke-width="1" font-size="16" >H</text>
<text x="170.687409" y="63.403049" fill="rgb(191,191,191)"  stroke="rgb(191,191,191)" stroke-width="1" font-size="16" >H</text>
<text x="271.305663" y="88.749342" fill="rgb(191,191,191)"  stroke="rgb(191,191,191)" stroke-width="1" font-size="16" >H</text>
<text x="271.589366" y="121.407208" fill="rgb(191,191,191)"  stroke="rgb(191,191,191)" stroke-width="1" font-size="16" >H</text>
<text x="271.204011" y="176.075726" fill="rgb(191,191,191)"  stroke="rgb(191,191,191)" stroke-width="1" font-size="16" >H</text>
<text x="242.231659" y="191.659318" fill="rgb(191,191,191)"  stroke="rgb(191,191,191)" stroke-width="1" font-size="16" >H</text>
<text x="197.622577" y="215.227959" fill="rgb(191,191,191)"  stroke="rgb(191,191,191)" stroke-width="1" font-size="16" >H</text>
<text x="169.838966" y="199.757673" fill="rgb(191,191,191)"  stroke="rgb(191,191,191)" stroke-width="1" font-size="16" >H</text>
<text x="101.419762" y="219.025621" fill="rgb(191,191,191)"  stroke="rgb(191,191,191)" stroke-width="1" font-size="16" >H</text>
<text x="130.746350" y="204.276232" fill="rgb(191,191,191)"  stroke="rgb(191,191,191)" stroke-width="1" font-size="16" >H</text>
<text x="153.734620" y="192.924054" fill="rgb(191,191,191)"  stroke="rgb(191,191,191)" stroke-width="1" font-size="16" >H</text>
<text x="181.095158" y="120.635045" fill="rgb(191,191,191)"  stroke="rgb(191,191,191)" stroke-width="1" font-size="16" >H</text>
</svg>
</g>
<text font-size="18.000000" fill ="black" font-family="sans-serif"
x="10.000000" y="20.000000" ></text>
</svg>
