<?xml version="1.0"?>
<svg version="1.1" id="topsvg"
xmlns="http://www.w3.org/2000/svg" xmlns:xlink="http://www.w3.org/1999/xlink"
xmlns:cml="http://www.xml-cml.org/schema" x="0" y="0" width="200px" height="200px" viewBox="0 0 100 100">
<title> - Open Babel Depiction</title>
<rect x="0" y="0" width="100" height="100" fill="white"/>
<g transform="translate(0,0)">
<svg width="100" height="100" x="0" y="0" viewBox="0 0 429.246 335.103"
font-family="sans-serif" stroke="rgb(0,0,0)" stroke-width="2"  stroke-linecap="round">
<line x1="113.5" y1="265.0" x2="134.3" y2="229.1" stroke="rgb(0,0,0)"  stroke-width="2.0"/>
<line x1="118.7" y1="268.0" x2="139.5" y2="232.1" stroke="rgb(0,0,0)"  stroke-width="2.0"/>
<line x1="116.1" y1="266.5" x2="125.3" y2="282.2" stroke="rgb(0,0,0)"  stroke-width="2.0"/>
<line x1="136.9" y1="230.6" x2="181.1" y2="230.8" stroke="rgb(0,0,0)"  stroke-width="2.0"/>
<line x1="136.9" y1="230.6" x2="127.8" y2="214.9" stroke="rgb(0,0,0)"  stroke-width="2.0"/>
<line x1="155.3" y1="209.1" x2="140.0" y2="220.9" stroke="rgb(0,0,0)"  stroke-width="2.0"/>
<line x1="155.3" y1="209.1" x2="163.9" y2="226.3" stroke="rgb(0,0,0)"  stroke-width="2.0"/>
<line x1="185.0" y1="158.1" x2="178.1" y2="140.0" stroke="rgb(0,0,0)"  stroke-width="2.0"/>
<line x1="185.0" y1="158.1" x2="198.3" y2="144.0" stroke="rgb(0,0,0)"  stroke-width="2.0"/>
<line x1="325.7" y1="70.8" x2="322.7" y2="52.8" stroke="rgb(0,0,0)"  stroke-width="2.0"/>
<line x1="360.7" y1="90.9" x2="377.3" y2="83.7" stroke="rgb(0,0,0)"  stroke-width="2.0"/>
<line x1="310.0" y1="204.0" x2="322.4" y2="218.8" stroke="rgb(0,0,0)"  stroke-width="2.0"/>
<line x1="310.0" y1="204.0" x2="329.2" y2="202.3" stroke="rgb(0,0,0)"  stroke-width="2.0"/>
<line x1="270.4" y1="218.3" x2="285.2" y2="205.9" stroke="rgb(0,0,0)"  stroke-width="2.0"/>
<line x1="201.9" y1="196.0" x2="181.1" y2="230.8" stroke="rgb(0,0,0)"  stroke-width="2.0"/>
<line x1="201.9" y1="196.0" x2="186.5" y2="207.7" stroke="rgb(0,0,0)"  stroke-width="2.0"/>
<line x1="181.1" y1="230.8" x2="190.6" y2="247.6" stroke="rgb(0,0,0)"  stroke-width="2.0"/>
<line x1="181.1" y1="230.8" x2="200.4" y2="231.0" stroke="rgb(0,0,0)"  stroke-width="2.0"/>
<line x1="72.3" y1="267.0" x2="116.1" y2="266.5" stroke="rgb(0,0,0)"  stroke-width="2.0"/>
<line x1="72.3" y1="267.0" x2="62.5" y2="250.3" stroke="rgb(0,0,0)"  stroke-width="2.0"/>
<line x1="72.3" y1="267.0" x2="62.8" y2="283.8" stroke="rgb(0,0,0)"  stroke-width="2.0"/>
<line x1="72.3" y1="267.0" x2="53.0" y2="267.1" stroke="rgb(0,0,0)"  stroke-width="2.0"/>
<line x1="300.9" y1="166.1" x2="316.2" y2="154.4" stroke="rgb(0,0,0)"  stroke-width="2.0"/>
<line x1="300.9" y1="166.1" x2="315.4" y2="178.9" stroke="rgb(0,0,0)"  stroke-width="2.0"/>
<line x1="155.3" y1="209.1" x2="201.9" y2="196.0" stroke="rgb(0,0,0)"  stroke-width="2.0"/>
<line x1="201.9" y1="196.0" x2="270.4" y2="218.3" stroke="rgb(0,0,0)"  stroke-width="2.0"/>
<line x1="270.4" y1="218.3" x2="300.9" y2="166.1" stroke="rgb(0,0,0)"  stroke-width="2.0"/>
<line x1="300.9" y1="166.1" x2="264.2" y2="176.0" stroke="rgb(0,0,0)"  stroke-width="2.0"/>
<line x1="239.3" y1="175.4" x2="185.0" y2="158.1" stroke="rgb(0,0,0)"  stroke-width="2.0"/>
<line x1="185.0" y1="158.1" x2="155.3" y2="209.1" stroke="rgb(0,0,0)"  stroke-width="2.0"/>
<line x1="292.5" y1="108.3" x2="325.7" y2="70.8" stroke="rgb(0,0,0)"  stroke-width="2.0"/>
<line x1="325.7" y1="70.8" x2="360.7" y2="90.9" stroke="rgb(0,0,0)"  stroke-width="2.0"/>
<line x1="327.3" y1="80.0" x2="351.9" y2="94.2" stroke="rgb(0,0,0)"  stroke-width="2.0"/>
<line x1="360.7" y1="90.9" x2="351.4" y2="130.9" stroke="rgb(0,0,0)"  stroke-width="2.0"/>
<line x1="351.4" y1="130.9" x2="329.8" y2="169.0" stroke="rgb(0,0,0)"  stroke-width="2.0"/>
<line x1="355.1" y1="133.0" x2="333.5" y2="171.1" stroke="rgb(0,0,0)"  stroke-width="2.0"/>
<line x1="347.8" y1="128.8" x2="326.2" y2="167.0" stroke="rgb(0,0,0)"  stroke-width="2.0"/>
<line x1="329.8" y1="169.0" x2="310.0" y2="204.0" stroke="rgb(0,0,0)"  stroke-width="2.0"/>
<line x1="310.0" y1="204.0" x2="270.4" y2="218.3" stroke="rgb(0,0,0)"  stroke-width="2.0"/>
<line x1="258.3" y1="168.2" x2="271.0" y2="146.7" stroke="rgb(0,0,0)"  stroke-width="2.0"/>
<line x1="271.0" y1="146.7" x2="292.5" y2="108.3" stroke="rgb(0,0,0)"  stroke-width="2.0"/>
<line x1="267.4" y1="144.6" x2="288.8" y2="106.2" stroke="rgb(0,0,0)"  stroke-width="2.0"/>
<line x1="274.7" y1="148.7" x2="296.2" y2="110.3" stroke="rgb(0,0,0)"  stroke-width="2.0"/>
<text x="233.688391" y="187.379065" fill="rgb(17,127,178)"  stroke="rgb(17,127,178)" stroke-width="1" font-size="16" >Xx</text>
<text x="125.830187" y="301.454094" fill="rgb(191,191,191)"  stroke="rgb(191,191,191)" stroke-width="1" font-size="16" >H</text>
<text x="115.347992" y="211.583845" fill="rgb(191,191,191)"  stroke="rgb(191,191,191)" stroke-width="1" font-size="16" >H</text>
<text x="123.704153" y="236.821443" fill="rgb(191,191,191)"  stroke="rgb(191,191,191)" stroke-width="1" font-size="16" >H</text>
<text x="163.787751" y="245.923527" fill="rgb(191,191,191)"  stroke="rgb(191,191,191)" stroke-width="1" font-size="16" >H</text>
<text x="167.469052" y="135.889172" fill="rgb(191,191,191)"  stroke="rgb(191,191,191)" stroke-width="1" font-size="16" >H</text>
<text x="201.234947" y="142.569268" fill="rgb(191,191,191)"  stroke="rgb(191,191,191)" stroke-width="1" font-size="16" >H</text>
<text x="314.624450" y="48.000000" fill="rgb(191,191,191)"  stroke="rgb(191,191,191)" stroke-width="1" font-size="16" >H</text>
<text x="383.246436" y="86.489073" fill="rgb(191,191,191)"  stroke="rgb(191,191,191)" stroke-width="1" font-size="16" >H</text>
<text x="324.807671" y="236.745944" fill="rgb(191,191,191)"  stroke="rgb(191,191,191)" stroke-width="1" font-size="16" >H</text>
<text x="336.162627" y="209.059179" fill="rgb(191,191,191)"  stroke="rgb(191,191,191)" stroke-width="1" font-size="16" >H</text>
<text x="289.244916" y="205.610413" fill="rgb(191,191,191)"  stroke="rgb(191,191,191)" stroke-width="1" font-size="16" >H</text>
<text x="170.211153" y="223.627346" fill="rgb(191,191,191)"  stroke="rgb(191,191,191)" stroke-width="1" font-size="16" >H</text>
<text x="191.024546" y="266.963415" fill="rgb(191,191,191)"  stroke="rgb(191,191,191)" stroke-width="1" font-size="16" >H</text>
<text x="207.428834" y="239.189072" fill="rgb(191,191,191)"  stroke="rgb(191,191,191)" stroke-width="1" font-size="16" >H</text>
<text x="49.887879" y="247.137541" fill="rgb(191,191,191)"  stroke="rgb(191,191,191)" stroke-width="1" font-size="16" >H</text>
<text x="50.428447" y="303.102979" fill="rgb(191,191,191)"  stroke="rgb(191,191,191)" stroke-width="1" font-size="16" >H</text>
<text x="34.000000" y="275.274277" fill="rgb(191,191,191)"  stroke="rgb(191,191,191)" stroke-width="1" font-size="16" >H</text>
<text x="320.543523" y="154.458753" fill="rgb(191,191,191)"  stroke="rgb(191,191,191)" stroke-width="1" font-size="16" >H</text>
<text x="319.103014" y="195.475511" fill="rgb(191,191,191)"  stroke="rgb(191,191,191)" stroke-width="1" font-size="16" >H</text>
</svg>
</g>
<text font-size="18.000000" fill ="black" font-family="sans-serif"
x="10.000000" y="20.000000" ></text>
</svg>
