<?xml version="1.0"?>
<svg version="1.1" id="topsvg"
xmlns="http://www.w3.org/2000/svg" xmlns:xlink="http://www.w3.org/1999/xlink"
xmlns:cml="http://www.xml-cml.org/schema" x="0" y="0" width="200px" height="200px" viewBox="0 0 100 100">
<title> - Open Babel Depiction</title>
<rect x="0" y="0" width="100" height="100" fill="white"/>
<g transform="translate(0,0)">
<svg width="100" height="100" x="0" y="0" viewBox="0 0 473.041 452.57"
font-family="sans-serif" stroke="rgb(0,0,0)" stroke-width="2"  stroke-linecap="round">
<line x1="323.6" y1="330.9" x2="275.7" y2="342.8" stroke="rgb(0,0,0)"  stroke-width="2.0"/>
<line x1="323.6" y1="330.9" x2="310.9" y2="378.7" stroke="rgb(0,0,0)"  stroke-width="2.0"/>
<line x1="349.9" y1="253.5" x2="349.8" y2="203.9" stroke="rgb(0,0,0)"  stroke-width="2.0"/>
<line x1="308.5" y1="179.0" x2="266.4" y2="199.5" stroke="rgb(0,0,0)"  stroke-width="2.0"/>
<line x1="378.2" y1="75.1" x2="398.0" y2="74.2" stroke="rgb(0,0,0)"  stroke-width="2.0"/>
<line x1="359.3" y1="87.3" x2="350.2" y2="104.9" stroke="rgb(0,0,0)"  stroke-width="2.0"/>
<line x1="223.4" y1="130.1" x2="268.0" y2="106.0" stroke="rgb(0,0,0)"  stroke-width="2.0"/>
<line x1="182.5" y1="103.1" x2="224.9" y2="127.5" stroke="rgb(0,0,0)"  stroke-width="2.0"/>
<line x1="179.5" y1="108.3" x2="221.9" y2="132.7" stroke="rgb(0,0,0)"  stroke-width="2.0"/>
<line x1="138.8" y1="130.9" x2="181.0" y2="105.7" stroke="rgb(0,0,0)"  stroke-width="2.0"/>
<line x1="138.8" y1="130.9" x2="120.3" y2="123.7" stroke="rgb(0,0,0)"  stroke-width="2.0"/>
<line x1="106.3" y1="106.2" x2="103.3" y2="86.6" stroke="rgb(0,0,0)"  stroke-width="2.0"/>
<line x1="101.4" y1="84.3" x2="116.8" y2="71.9" stroke="rgb(0,0,0)"  stroke-width="2.0"/>
<line x1="105.1" y1="88.9" x2="120.6" y2="76.6" stroke="rgb(0,0,0)"  stroke-width="2.0"/>
<line x1="103.3" y1="86.6" x2="72.7" y2="74.7" stroke="rgb(0,0,0)"  stroke-width="2.0"/>
<line x1="310.5" y1="131.2" x2="268.0" y2="106.0" stroke="rgb(0,0,0)"  stroke-width="2.0"/>
<line x1="308.1" y1="169.4" x2="309.7" y2="169.5" stroke="rgb(0,0,0)"  stroke-width="1.0"/>
<line x1="307.8" y1="161.7" x2="310.7" y2="161.9" stroke="rgb(0,0,0)"  stroke-width="1.0"/>
<line x1="307.5" y1="154.1" x2="311.6" y2="154.2" stroke="rgb(0,0,0)"  stroke-width="1.0"/>
<line x1="307.2" y1="146.4" x2="312.6" y2="146.6" stroke="rgb(0,0,0)"  stroke-width="1.0"/>
<line x1="306.8" y1="138.7" x2="313.6" y2="139.0" stroke="rgb(0,0,0)"  stroke-width="1.0"/>
<line x1="306.5" y1="131.1" x2="314.5" y2="131.4" stroke="rgb(0,0,0)"  stroke-width="1.0"/>
<line x1="224.5" y1="176.8" x2="267.6" y2="196.8" stroke="rgb(0,0,0)"  stroke-width="2.0"/>
<line x1="221.9" y1="182.3" x2="265.1" y2="202.2" stroke="rgb(0,0,0)"  stroke-width="2.0"/>
<line x1="275.7" y1="342.8" x2="260.3" y2="326.8" stroke="rgb(0,0,0)"  stroke-width="2.0"/>
<line x1="275.7" y1="342.8" x2="269.5" y2="364.0" stroke="rgb(0,0,0)"  stroke-width="2.0"/>
<line x1="275.7" y1="342.8" x2="254.2" y2="348.1" stroke="rgb(0,0,0)"  stroke-width="2.0"/>
<line x1="374.5" y1="330.4" x2="387.7" y2="348.2" stroke="rgb(0,0,0)"  stroke-width="2.0"/>
<line x1="374.5" y1="330.4" x2="364.7" y2="350.2" stroke="rgb(0,0,0)"  stroke-width="2.0"/>
<line x1="308.5" y1="179.0" x2="307.6" y2="201.1" stroke="rgb(0,0,0)"  stroke-width="2.0"/>
<line x1="266.4" y1="199.5" x2="266.6" y2="220.4" stroke="rgb(0,0,0)"  stroke-width="2.0"/>
<line x1="398.0" y1="74.2" x2="409.9" y2="92.8" stroke="rgb(0,0,0)"  stroke-width="2.0"/>
<line x1="398.0" y1="74.2" x2="408.1" y2="54.6" stroke="rgb(0,0,0)"  stroke-width="2.0"/>
<line x1="398.0" y1="74.2" x2="420.1" y2="73.2" stroke="rgb(0,0,0)"  stroke-width="2.0"/>
<line x1="393.9" y1="129.4" x2="411.9" y2="118.9" stroke="rgb(0,0,0)"  stroke-width="2.0"/>
<line x1="393.8" y1="180.6" x2="411.6" y2="191.3" stroke="rgb(0,0,0)"  stroke-width="2.0"/>
<line x1="223.4" y1="130.1" x2="223.1" y2="151.0" stroke="rgb(0,0,0)"  stroke-width="2.0"/>
<line x1="268.0" y1="106.0" x2="268.5" y2="83.9" stroke="rgb(0,0,0)"  stroke-width="2.0"/>
<line x1="268.0" y1="106.0" x2="287.3" y2="95.2" stroke="rgb(0,0,0)"  stroke-width="2.0"/>
<line x1="181.0" y1="105.7" x2="180.8" y2="84.8" stroke="rgb(0,0,0)"  stroke-width="2.0"/>
<line x1="138.8" y1="130.9" x2="140.6" y2="152.9" stroke="rgb(0,0,0)"  stroke-width="2.0"/>
<line x1="138.8" y1="130.9" x2="121.1" y2="144.1" stroke="rgb(0,0,0)"  stroke-width="2.0"/>
<line x1="72.7" y1="74.7" x2="69.4" y2="52.9" stroke="rgb(0,0,0)"  stroke-width="2.0"/>
<line x1="72.7" y1="74.7" x2="55.5" y2="88.5" stroke="rgb(0,0,0)"  stroke-width="2.0"/>
<line x1="72.7" y1="74.7" x2="52.1" y2="66.7" stroke="rgb(0,0,0)"  stroke-width="2.0"/>
<polygon points="310.512596 131.238882 305.927075 107.834976 313.924584 107.635320 " stroke-width="2.000000" fill="rgb(0,0,0)"  stroke="rgb(0,0,0)" />
<line x1="310.9" y1="378.7" x2="289.6" y2="384.4" stroke="rgb(0,0,0)"  stroke-width="2.0"/>
<line x1="310.9" y1="378.7" x2="326.6" y2="394.2" stroke="rgb(0,0,0)"  stroke-width="2.0"/>
<line x1="310.9" y1="378.7" x2="305.2" y2="400.0" stroke="rgb(0,0,0)"  stroke-width="2.0"/>
<line x1="223.2" y1="179.5" x2="221.3" y2="158.8" stroke="rgb(0,0,0)"  stroke-width="2.0"/>
<line x1="223.2" y1="179.5" x2="206.2" y2="191.6" stroke="rgb(0,0,0)"  stroke-width="2.0"/>
<line x1="322.4" y1="273.4" x2="349.9" y2="253.5" stroke="rgb(0,0,0)"  stroke-width="2.0"/>
<line x1="327.4" y1="278.7" x2="349.2" y2="262.8" stroke="rgb(0,0,0)"  stroke-width="2.0"/>
<line x1="349.9" y1="253.5" x2="378.4" y2="277.1" stroke="rgb(0,0,0)"  stroke-width="2.0"/>
<line x1="384.6" y1="297.8" x2="374.5" y2="330.4" stroke="rgb(0,0,0)"  stroke-width="2.0"/>
<line x1="374.5" y1="330.4" x2="323.6" y2="330.9" stroke="rgb(0,0,0)"  stroke-width="2.0"/>
<line x1="323.6" y1="330.9" x2="312.8" y2="295.6" stroke="rgb(0,0,0)"  stroke-width="2.0"/>
<line x1="350.2" y1="104.9" x2="310.5" y2="131.2" stroke="rgb(0,0,0)"  stroke-width="2.0"/>
<line x1="310.5" y1="131.2" x2="308.5" y2="179.0" stroke="rgb(0,0,0)"  stroke-width="2.0"/>
<line x1="308.5" y1="179.0" x2="349.8" y2="203.9" stroke="rgb(0,0,0)"  stroke-width="2.0"/>
<line x1="349.8" y1="203.9" x2="393.8" y2="180.6" stroke="rgb(0,0,0)"  stroke-width="2.0"/>
<line x1="351.7" y1="194.7" x2="385.1" y2="177.0" stroke="rgb(0,0,0)"  stroke-width="2.0"/>
<line x1="393.8" y1="180.6" x2="393.9" y2="129.4" stroke="rgb(0,0,0)"  stroke-width="2.0"/>
<line x1="393.9" y1="129.4" x2="350.2" y2="104.9" stroke="rgb(0,0,0)"  stroke-width="2.0"/>
<line x1="385.1" y1="132.8" x2="351.9" y2="114.1" stroke="rgb(0,0,0)"  stroke-width="2.0"/>
<text x="302.931856" y="291.193316" fill="rgb(12,12,255)"  stroke="rgb(12,12,255)" stroke-width="1" font-size="16" >N</text>
<text x="382.457540" y="293.370934" fill="rgb(255,12,12)"  stroke="rgb(255,12,12)" stroke-width="1" font-size="16" >O</text>
<text x="359.228523" y="83.745703" fill="rgb(255,12,12)"  stroke="rgb(255,12,12)" stroke-width="1" font-size="16" >O</text>
<text x="102.217148" y="127.012739" fill="rgb(255,12,12)"  stroke="rgb(255,12,12)" stroke-width="1" font-size="16" >O</text>
<text x="122.845486" y="74.087443" fill="rgb(255,12,12)"  stroke="rgb(255,12,12)" stroke-width="1" font-size="16" >O</text>
<text x="245.342144" y="325.465263" fill="rgb(191,191,191)"  stroke="rgb(191,191,191)" stroke-width="1" font-size="16" >H</text>
<text x="259.896261" y="384.476618" fill="rgb(191,191,191)"  stroke="rgb(191,191,191)" stroke-width="1" font-size="16" >H</text>
<text x="235.584092" y="359.172352" fill="rgb(191,191,191)"  stroke="rgb(191,191,191)" stroke-width="1" font-size="16" >H</text>
<text x="389.501360" y="366.582131" fill="rgb(191,191,191)"  stroke="rgb(191,191,191)" stroke-width="1" font-size="16" >H</text>
<text x="352.944110" y="369.883616" fill="rgb(191,191,191)"  stroke="rgb(191,191,191)" stroke-width="1" font-size="16" >H</text>
<text x="300.968651" y="222.038357" fill="rgb(191,191,191)"  stroke="rgb(191,191,191)" stroke-width="1" font-size="16" >H</text>
<text x="260.698568" y="241.368810" fill="rgb(191,191,191)"  stroke="rgb(191,191,191)" stroke-width="1" font-size="16" >H</text>
<text x="410.936487" y="111.746251" fill="rgb(191,191,191)"  stroke="rgb(191,191,191)" stroke-width="1" font-size="16" >H</text>
<text x="408.091988" y="51.033228" fill="rgb(191,191,191)"  stroke="rgb(191,191,191)" stroke-width="1" font-size="16" >H</text>
<text x="427.040578" y="80.568604" fill="rgb(191,191,191)"  stroke="rgb(191,191,191)" stroke-width="1" font-size="16" >H</text>
<text x="417.137233" y="120.391109" fill="rgb(191,191,191)"  stroke="rgb(191,191,191)" stroke-width="1" font-size="16" >H</text>
<text x="416.753411" y="206.059285" fill="rgb(191,191,191)"  stroke="rgb(191,191,191)" stroke-width="1" font-size="16" >H</text>
<text x="216.971401" y="171.952722" fill="rgb(191,191,191)"  stroke="rgb(191,191,191)" stroke-width="1" font-size="16" >H</text>
<text x="262.732976" y="78.886045" fill="rgb(191,191,191)"  stroke="rgb(191,191,191)" stroke-width="1" font-size="16" >H</text>
<text x="292.699316" y="96.930636" fill="rgb(191,191,191)"  stroke="rgb(191,191,191)" stroke-width="1" font-size="16" >H</text>
<text x="174.703398" y="79.847485" fill="rgb(191,191,191)"  stroke="rgb(191,191,191)" stroke-width="1" font-size="16" >H</text>
<text x="135.700770" y="173.892798" fill="rgb(191,191,191)"  stroke="rgb(191,191,191)" stroke-width="1" font-size="16" >H</text>
<text x="104.653824" y="159.917332" fill="rgb(191,191,191)"  stroke="rgb(191,191,191)" stroke-width="1" font-size="16" >H</text>
<text x="61.382227" y="48.000000" fill="rgb(191,191,191)"  stroke="rgb(191,191,191)" stroke-width="1" font-size="16" >H</text>
<text x="39.314171" y="104.631822" fill="rgb(191,191,191)"  stroke="rgb(191,191,191)" stroke-width="1" font-size="16" >H</text>
<text x="34.000000" y="69.945412" fill="rgb(191,191,191)"  stroke="rgb(191,191,191)" stroke-width="1" font-size="16" >H</text>
<text x="303.636825" y="104.158682" fill="rgb(191,191,191)"  stroke="rgb(191,191,191)" stroke-width="1" font-size="16" >H</text>
<text x="271.047147" y="395.802152" fill="rgb(191,191,191)"  stroke="rgb(191,191,191)" stroke-width="1" font-size="16" >H</text>
<text x="329.784579" y="411.425097" fill="rgb(191,191,191)"  stroke="rgb(191,191,191)" stroke-width="1" font-size="16" >H</text>
<text x="295.905907" y="420.569660" fill="rgb(191,191,191)"  stroke="rgb(191,191,191)" stroke-width="1" font-size="16" >H</text>
<text x="214.143765" y="153.839173" fill="rgb(191,191,191)"  stroke="rgb(191,191,191)" stroke-width="1" font-size="16" >H</text>
<text x="189.523798" y="207.039640" fill="rgb(191,191,191)"  stroke="rgb(191,191,191)" stroke-width="1" font-size="16" >H</text>
</svg>
</g>
<text font-size="18.000000" fill ="black" font-family="sans-serif"
x="10.000000" y="20.000000" ></text>
</svg>
