<?xml version="1.0"?>
<svg version="1.1" id="topsvg"
xmlns="http://www.w3.org/2000/svg" xmlns:xlink="http://www.w3.org/1999/xlink"
xmlns:cml="http://www.xml-cml.org/schema" x="0" y="0" width="200px" height="200px" viewBox="0 0 100 100">
<title> - Open Babel Depiction</title>
<rect x="0" y="0" width="100" height="100" fill="white"/>
<g transform="translate(0,0)">
<svg width="100" height="100" x="0" y="0" viewBox="0 0 423.893 457.36"
font-family="sans-serif" stroke="rgb(0,0,0)" stroke-width="2"  stroke-linecap="round">
<line x1="302.0" y1="346.3" x2="350.2" y2="338.6" stroke="rgb(0,0,0)"  stroke-width="2.0"/>
<line x1="252.2" y1="345.3" x2="239.6" y2="362.2" stroke="rgb(0,0,0)"  stroke-width="2.0"/>
<line x1="252.2" y1="345.3" x2="231.4" y2="341.8" stroke="rgb(0,0,0)"  stroke-width="2.0"/>
<line x1="350.2" y1="338.6" x2="363.5" y2="354.9" stroke="rgb(0,0,0)"  stroke-width="2.0"/>
<line x1="350.2" y1="338.6" x2="357.8" y2="318.9" stroke="rgb(0,0,0)"  stroke-width="2.0"/>
<line x1="350.2" y1="338.6" x2="371.1" y2="335.3" stroke="rgb(0,0,0)"  stroke-width="2.0"/>
<line x1="330.2" y1="386.5" x2="302.0" y2="346.3" stroke="rgb(0,0,0)"  stroke-width="2.0"/>
<line x1="330.2" y1="386.5" x2="321.3" y2="405.6" stroke="rgb(0,0,0)"  stroke-width="2.0"/>
<line x1="330.2" y1="386.5" x2="351.2" y2="384.6" stroke="rgb(0,0,0)"  stroke-width="2.0"/>
<line x1="330.2" y1="386.5" x2="342.3" y2="403.7" stroke="rgb(0,0,0)"  stroke-width="2.0"/>
<line x1="278.6" y1="220.6" x2="277.6" y2="270.8" stroke="rgb(0,0,0)"  stroke-width="2.0"/>
<line x1="236.5" y1="198.1" x2="194.6" y2="216.9" stroke="rgb(0,0,0)"  stroke-width="2.0"/>
<polygon points="236.485393 198.100556 232.899607 148.101186 240.899332 148.167481 " stroke-width="2.000000" fill="rgb(0,0,0)"  stroke="rgb(0,0,0)" />
<line x1="236.5" y1="198.1" x2="218.8" y2="186.6" stroke="rgb(0,0,0)"  stroke-width="2.0"/>
<line x1="194.6" y1="216.9" x2="192.4" y2="236.6" stroke="rgb(0,0,0)"  stroke-width="2.0"/>
<line x1="236.9" y1="148.1" x2="195.6" y2="123.6" stroke="rgb(0,0,0)"  stroke-width="2.0"/>
<polygon points="236.899469 148.134333 218.974404 162.833246 215.045217 155.864639 " stroke-width="2.000000" fill="rgb(0,0,0)"  stroke="rgb(0,0,0)" />
<line x1="285.9" y1="86.2" x2="275.4" y2="70.6" stroke="rgb(0,0,0)"  stroke-width="2.0"/>
<line x1="287.3" y1="108.7" x2="279.0" y2="125.6" stroke="rgb(0,0,0)"  stroke-width="2.0"/>
<line x1="275.4" y1="70.6" x2="284.7" y2="51.7" stroke="rgb(0,0,0)"  stroke-width="2.0"/>
<line x1="275.4" y1="70.6" x2="254.4" y2="71.9" stroke="rgb(0,0,0)"  stroke-width="2.0"/>
<line x1="275.4" y1="70.6" x2="263.7" y2="53.0" stroke="rgb(0,0,0)"  stroke-width="2.0"/>
<line x1="321.3" y1="148.0" x2="338.3" y2="137.7" stroke="rgb(0,0,0)"  stroke-width="2.0"/>
<line x1="321.5" y1="197.7" x2="338.5" y2="207.9" stroke="rgb(0,0,0)"  stroke-width="2.0"/>
<line x1="158.1" y1="186.1" x2="196.4" y2="214.4" stroke="rgb(0,0,0)"  stroke-width="2.0"/>
<line x1="154.6" y1="191.0" x2="192.8" y2="219.3" stroke="rgb(0,0,0)"  stroke-width="2.0"/>
<line x1="156.4" y1="188.6" x2="158.6" y2="168.8" stroke="rgb(0,0,0)"  stroke-width="2.0"/>
<line x1="156.4" y1="188.6" x2="138.1" y2="196.5" stroke="rgb(0,0,0)"  stroke-width="2.0"/>
<line x1="66.7" y1="146.3" x2="109.7" y2="122.5" stroke="rgb(0,0,0)"  stroke-width="2.0"/>
<line x1="69.6" y1="151.5" x2="112.7" y2="127.7" stroke="rgb(0,0,0)"  stroke-width="2.0"/>
<line x1="68.2" y1="148.9" x2="51.1" y2="138.6" stroke="rgb(0,0,0)"  stroke-width="2.0"/>
<line x1="68.2" y1="148.9" x2="67.8" y2="168.8" stroke="rgb(0,0,0)"  stroke-width="2.0"/>
<line x1="111.2" y1="125.1" x2="153.0" y2="149.0" stroke="rgb(0,0,0)"  stroke-width="2.0"/>
<line x1="111.2" y1="125.1" x2="111.3" y2="105.2" stroke="rgb(0,0,0)"  stroke-width="2.0"/>
<line x1="153.0" y1="149.0" x2="195.6" y2="123.6" stroke="rgb(0,0,0)"  stroke-width="2.0"/>
<line x1="153.0" y1="149.0" x2="153.2" y2="170.1" stroke="rgb(0,0,0)"  stroke-width="2.0"/>
<line x1="153.0" y1="149.0" x2="171.3" y2="159.3" stroke="rgb(0,0,0)"  stroke-width="2.0"/>
<line x1="195.6" y1="123.6" x2="195.6" y2="102.5" stroke="rgb(0,0,0)"  stroke-width="2.0"/>
<line x1="195.6" y1="123.6" x2="177.3" y2="113.2" stroke="rgb(0,0,0)"  stroke-width="2.0"/>
<line x1="252.2" y1="345.3" x2="241.5" y2="311.0" stroke="rgb(0,0,0)"  stroke-width="2.0"/>
<line x1="248.4" y1="291.2" x2="277.6" y2="270.8" stroke="rgb(0,0,0)"  stroke-width="2.0"/>
<line x1="277.6" y1="270.8" x2="304.3" y2="290.0" stroke="rgb(0,0,0)"  stroke-width="2.0"/>
<line x1="278.3" y1="280.2" x2="299.2" y2="295.2" stroke="rgb(0,0,0)"  stroke-width="2.0"/>
<line x1="313.3" y1="311.8" x2="302.0" y2="346.3" stroke="rgb(0,0,0)"  stroke-width="2.0"/>
<line x1="302.0" y1="346.3" x2="252.2" y2="345.3" stroke="rgb(0,0,0)"  stroke-width="2.0"/>
<line x1="236.9" y1="148.1" x2="236.5" y2="198.1" stroke="rgb(0,0,0)"  stroke-width="2.0"/>
<line x1="236.5" y1="198.1" x2="278.6" y2="220.6" stroke="rgb(0,0,0)"  stroke-width="2.0"/>
<line x1="278.6" y1="220.6" x2="321.5" y2="197.7" stroke="rgb(0,0,0)"  stroke-width="2.0"/>
<line x1="280.5" y1="211.4" x2="312.8" y2="194.2" stroke="rgb(0,0,0)"  stroke-width="2.0"/>
<line x1="321.5" y1="197.7" x2="321.3" y2="148.0" stroke="rgb(0,0,0)"  stroke-width="2.0"/>
<line x1="321.3" y1="148.0" x2="279.0" y2="125.6" stroke="rgb(0,0,0)"  stroke-width="2.0"/>
<line x1="312.7" y1="151.6" x2="280.9" y2="134.8" stroke="rgb(0,0,0)"  stroke-width="2.0"/>
<line x1="279.0" y1="125.6" x2="236.9" y2="148.1" stroke="rgb(0,0,0)"  stroke-width="2.0"/>
<text x="231.679843" y="306.599966" fill="rgb(255,12,12)"  stroke="rgb(255,12,12)" stroke-width="1" font-size="16" >O</text>
<text x="311.386272" y="307.405822" fill="rgb(12,12,255)"  stroke="rgb(12,12,255)" stroke-width="1" font-size="16" >N</text>
<text x="287.086386" y="105.053291" fill="rgb(255,12,12)"  stroke="rgb(255,12,12)" stroke-width="1" font-size="16" >O</text>
<text x="225.761743" y="380.601703" fill="rgb(191,191,191)"  stroke="rgb(191,191,191)" stroke-width="1" font-size="16" >H</text>
<text x="212.638721" y="347.539334" fill="rgb(191,191,191)"  stroke="rgb(191,191,191)" stroke-width="1" font-size="16" >H</text>
<text x="365.722588" y="373.036855" fill="rgb(191,191,191)"  stroke="rgb(191,191,191)" stroke-width="1" font-size="16" >H</text>
<text x="356.409065" y="314.744521" fill="rgb(191,191,191)"  stroke="rgb(191,191,191)" stroke-width="1" font-size="16" >H</text>
<text x="377.893235" y="341.200787" fill="rgb(191,191,191)"  stroke="rgb(191,191,191)" stroke-width="1" font-size="16" >H</text>
<text x="309.774561" y="425.360125" fill="rgb(191,191,191)"  stroke="rgb(191,191,191)" stroke-width="1" font-size="16" >H</text>
<text x="358.106777" y="391.463233" fill="rgb(191,191,191)"  stroke="rgb(191,191,191)" stroke-width="1" font-size="16" >H</text>
<text x="343.725601" y="422.362852" fill="rgb(191,191,191)"  stroke="rgb(191,191,191)" stroke-width="1" font-size="16" >H</text>
<text x="201.961933" y="187.444843" fill="rgb(191,191,191)"  stroke="rgb(191,191,191)" stroke-width="1" font-size="16" >H</text>
<text x="185.013487" y="257.528785" fill="rgb(191,191,191)"  stroke="rgb(191,191,191)" stroke-width="1" font-size="16" >H</text>
<text x="201.213411" y="172.872556" fill="rgb(191,191,191)"  stroke="rgb(191,191,191)" stroke-width="1" font-size="16" >H</text>
<text x="284.496819" y="48.000000" fill="rgb(191,191,191)"  stroke="rgb(191,191,191)" stroke-width="1" font-size="16" >H</text>
<text x="235.396971" y="80.769331" fill="rgb(191,191,191)"  stroke="rgb(191,191,191)" stroke-width="1" font-size="16" >H</text>
<text x="250.488446" y="50.210528" fill="rgb(191,191,191)"  stroke="rgb(191,191,191)" stroke-width="1" font-size="16" >H</text>
<text x="343.467600" y="138.982035" fill="rgb(191,191,191)"  stroke="rgb(191,191,191)" stroke-width="1" font-size="16" >H</text>
<text x="343.681009" y="222.612629" fill="rgb(191,191,191)"  stroke="rgb(191,191,191)" stroke-width="1" font-size="16" >H</text>
<text x="154.094757" y="163.903035" fill="rgb(191,191,191)"  stroke="rgb(191,191,191)" stroke-width="1" font-size="16" >H</text>
<text x="120.213791" y="209.658424" fill="rgb(191,191,191)"  stroke="rgb(191,191,191)" stroke-width="1" font-size="16" >H</text>
<text x="34.000000" y="139.934409" fill="rgb(191,191,191)"  stroke="rgb(191,191,191)" stroke-width="1" font-size="16" >H</text>
<text x="61.542419" y="189.763668" fill="rgb(191,191,191)"  stroke="rgb(191,191,191)" stroke-width="1" font-size="16" >H</text>
<text x="105.434466" y="100.237270" fill="rgb(191,191,191)"  stroke="rgb(191,191,191)" stroke-width="1" font-size="16" >H</text>
<text x="147.268875" y="191.063230" fill="rgb(191,191,191)"  stroke="rgb(191,191,191)" stroke-width="1" font-size="16" >H</text>
<text x="176.668265" y="173.694338" fill="rgb(191,191,191)"  stroke="rgb(191,191,191)" stroke-width="1" font-size="16" >H</text>
<text x="189.561952" y="97.529850" fill="rgb(191,191,191)"  stroke="rgb(191,191,191)" stroke-width="1" font-size="16" >H</text>
<text x="159.949153" y="114.777705" fill="rgb(191,191,191)"  stroke="rgb(191,191,191)" stroke-width="1" font-size="16" >H</text>
</svg>
</g>
<text font-size="18.000000" fill ="black" font-family="sans-serif"
x="10.000000" y="20.000000" ></text>
</svg>
