<?xml version="1.0"?>
<svg version="1.1" id="topsvg"
xmlns="http://www.w3.org/2000/svg" xmlns:xlink="http://www.w3.org/1999/xlink"
xmlns:cml="http://www.xml-cml.org/schema" x="0" y="0" width="200px" height="200px" viewBox="0 0 100 100">
<title> - Open Babel Depiction</title>
<rect x="0" y="0" width="100" height="100" fill="white"/>
<g transform="translate(0,0)">
<svg width="100" height="100" x="0" y="0" viewBox="0 0 455.176 374.271"
font-family="sans-serif" stroke="rgb(0,0,0)" stroke-width="2"  stroke-linecap="round">
<line x1="174.2" y1="183.4" x2="173.8" y2="230.1" stroke="rgb(0,0,0)"  stroke-width="2.0"/>
<line x1="173.8" y1="230.1" x2="199.1" y2="246.8" stroke="rgb(0,0,0)"  stroke-width="2.0"/>
<line x1="132.0" y1="113.0" x2="114.2" y2="106.5" stroke="rgb(0,0,0)"  stroke-width="2.0"/>
<line x1="106.5" y1="89.8" x2="113.0" y2="72.1" stroke="rgb(0,0,0)"  stroke-width="2.0"/>
<line x1="89.8" y1="97.5" x2="72.1" y2="91.0" stroke="rgb(0,0,0)"  stroke-width="2.0"/>
<line x1="97.5" y1="114.2" x2="91.0" y2="132.0" stroke="rgb(0,0,0)"  stroke-width="2.0"/>
<line x1="222.5" y1="50.1" x2="173.4" y2="89.2" stroke="rgb(0,0,0)"  stroke-width="2.0"/>
<line x1="214.3" y1="160.0" x2="255.3" y2="182.5" stroke="rgb(0,0,0)"  stroke-width="2.0"/>
<line x1="181.9" y1="178.0" x2="182.7" y2="179.4" stroke="rgb(0,0,0)"  stroke-width="1.0"/>
<line x1="187.9" y1="173.7" x2="189.4" y2="176.2" stroke="rgb(0,0,0)"  stroke-width="1.0"/>
<line x1="194.0" y1="169.4" x2="196.1" y2="173.0" stroke="rgb(0,0,0)"  stroke-width="1.0"/>
<line x1="200.1" y1="165.1" x2="202.9" y2="169.8" stroke="rgb(0,0,0)"  stroke-width="1.0"/>
<line x1="206.2" y1="160.8" x2="209.6" y2="166.6" stroke="rgb(0,0,0)"  stroke-width="1.0"/>
<line x1="212.3" y1="156.5" x2="216.4" y2="163.4" stroke="rgb(0,0,0)"  stroke-width="1.0"/>
<line x1="337.6" y1="230.7" x2="337.0" y2="164.2" stroke="rgb(0,0,0)"  stroke-width="2.0"/>
<line x1="333.4" y1="230.7" x2="332.8" y2="164.2" stroke="rgb(0,0,0)"  stroke-width="2.0"/>
<line x1="341.8" y1="230.6" x2="341.2" y2="164.1" stroke="rgb(0,0,0)"  stroke-width="2.0"/>
<line x1="378.1" y1="113.0" x2="336.7" y2="131.9" stroke="rgb(0,0,0)"  stroke-width="2.0"/>
<line x1="400.6" y1="115.1" x2="404.6" y2="118.0" stroke="rgb(0,0,0)"  stroke-width="2.0"/>
<line x1="336.7" y1="131.9" x2="337.0" y2="164.2" stroke="rgb(0,0,0)"  stroke-width="2.0"/>
<line x1="294.5" y1="298.7" x2="336.5" y2="275.0" stroke="rgb(0,0,0)"  stroke-width="2.0"/>
<line x1="297.4" y1="304.0" x2="339.4" y2="280.2" stroke="rgb(0,0,0)"  stroke-width="2.0"/>
<line x1="338.0" y1="277.6" x2="337.6" y2="230.7" stroke="rgb(0,0,0)"  stroke-width="2.0"/>
<line x1="255.2" y1="278.4" x2="199.1" y2="246.8" stroke="rgb(0,0,0)"  stroke-width="2.0"/>
<line x1="253.1" y1="282.0" x2="197.1" y2="250.4" stroke="rgb(0,0,0)"  stroke-width="2.0"/>
<line x1="257.2" y1="274.7" x2="201.2" y2="243.1" stroke="rgb(0,0,0)"  stroke-width="2.0"/>
<line x1="255.2" y1="278.4" x2="295.9" y2="301.3" stroke="rgb(0,0,0)"  stroke-width="2.0"/>
<line x1="251.6" y1="232.8" x2="252.3" y2="182.5" stroke="rgb(0,0,0)"  stroke-width="2.0"/>
<line x1="257.6" y1="232.9" x2="258.3" y2="182.6" stroke="rgb(0,0,0)"  stroke-width="2.0"/>
<line x1="174.2" y1="183.4" x2="156.0" y2="194.1" stroke="rgb(0,0,0)"  stroke-width="2.0"/>
<line x1="173.8" y1="230.1" x2="155.2" y2="240.0" stroke="rgb(0,0,0)"  stroke-width="2.0"/>
<line x1="173.8" y1="230.1" x2="172.8" y2="251.2" stroke="rgb(0,0,0)"  stroke-width="2.0"/>
<line x1="131.7" y1="160.3" x2="114.6" y2="170.5" stroke="rgb(0,0,0)"  stroke-width="2.0"/>
<line x1="113.0" y1="72.1" x2="133.8" y2="68.4" stroke="rgb(0,0,0)"  stroke-width="2.0"/>
<line x1="113.0" y1="72.1" x2="99.4" y2="55.8" stroke="rgb(0,0,0)"  stroke-width="2.0"/>
<line x1="113.0" y1="72.1" x2="120.3" y2="52.2" stroke="rgb(0,0,0)"  stroke-width="2.0"/>
<line x1="72.1" y1="91.0" x2="68.4" y2="70.2" stroke="rgb(0,0,0)"  stroke-width="2.0"/>
<line x1="72.1" y1="91.0" x2="55.8" y2="104.6" stroke="rgb(0,0,0)"  stroke-width="2.0"/>
<line x1="72.1" y1="91.0" x2="52.2" y2="83.7" stroke="rgb(0,0,0)"  stroke-width="2.0"/>
<line x1="91.0" y1="132.0" x2="70.2" y2="135.6" stroke="rgb(0,0,0)"  stroke-width="2.0"/>
<line x1="91.0" y1="132.0" x2="104.6" y2="148.2" stroke="rgb(0,0,0)"  stroke-width="2.0"/>
<line x1="91.0" y1="132.0" x2="83.7" y2="151.8" stroke="rgb(0,0,0)"  stroke-width="2.0"/>
<line x1="214.7" y1="111.7" x2="231.8" y2="101.6" stroke="rgb(0,0,0)"  stroke-width="2.0"/>
<polygon points="214.338260 159.961296 232.043820 144.936271 236.091993 151.836437 " stroke-width="2.000000" fill="rgb(0,0,0)"  stroke="rgb(0,0,0)" />
<line x1="336.7" y1="131.9" x2="318.9" y2="120.5" stroke="rgb(0,0,0)"  stroke-width="2.0"/>
<line x1="336.7" y1="131.9" x2="318.2" y2="142.1" stroke="rgb(0,0,0)"  stroke-width="2.0"/>
<line x1="295.9" y1="301.3" x2="295.9" y2="321.3" stroke="rgb(0,0,0)"  stroke-width="2.0"/>
<line x1="338.0" y1="277.6" x2="355.2" y2="287.6" stroke="rgb(0,0,0)"  stroke-width="2.0"/>
<line x1="255.3" y1="182.5" x2="272.6" y2="172.5" stroke="rgb(0,0,0)"  stroke-width="2.0"/>
<line x1="254.6" y1="232.9" x2="237.2" y2="242.6" stroke="rgb(0,0,0)"  stroke-width="2.0"/>
<line x1="254.6" y1="232.9" x2="271.7" y2="243.1" stroke="rgb(0,0,0)"  stroke-width="2.0"/>
<line x1="131.7" y1="160.3" x2="132.0" y2="113.0" stroke="rgb(0,0,0)"  stroke-width="2.0"/>
<line x1="138.9" y1="154.4" x2="139.1" y2="119.0" stroke="rgb(0,0,0)"  stroke-width="2.0"/>
<line x1="132.0" y1="113.0" x2="173.4" y2="89.2" stroke="rgb(0,0,0)"  stroke-width="2.0"/>
<line x1="173.4" y1="89.2" x2="214.7" y2="111.7" stroke="rgb(0,0,0)"  stroke-width="2.0"/>
<line x1="175.2" y1="98.4" x2="206.0" y2="115.2" stroke="rgb(0,0,0)"  stroke-width="2.0"/>
<line x1="214.7" y1="111.7" x2="214.3" y2="160.0" stroke="rgb(0,0,0)"  stroke-width="2.0"/>
<line x1="214.3" y1="160.0" x2="174.2" y2="183.4" stroke="rgb(0,0,0)"  stroke-width="2.0"/>
<line x1="174.2" y1="183.4" x2="131.7" y2="160.3" stroke="rgb(0,0,0)"  stroke-width="2.0"/>
<text x="96.011516" y="110.007920" fill="rgb(127,153,153)"  stroke="rgb(127,153,153)" stroke-width="1" font-size="16" >Si</text>
<text x="226.704148" y="50.022044" fill="rgb(17,127,178)"  stroke="rgb(17,127,178)" stroke-width="1" font-size="16" >Xx</text>
<text x="383.975629" y="115.594903" fill="rgb(255,12,12)"  stroke="rgb(255,12,12)" stroke-width="1" font-size="16" >O</text>
<text x="409.176078" y="133.561949" fill="rgb(191,191,191)"  stroke="rgb(191,191,191)" stroke-width="1" font-size="16" >H</text>
<text x="138.821508" y="208.732599" fill="rgb(191,191,191)"  stroke="rgb(191,191,191)" stroke-width="1" font-size="16" >H</text>
<text x="137.700444" y="254.152742" fill="rgb(191,191,191)"  stroke="rgb(191,191,191)" stroke-width="1" font-size="16" >H</text>
<text x="166.242147" y="272.197736" fill="rgb(191,191,191)"  stroke="rgb(191,191,191)" stroke-width="1" font-size="16" >H</text>
<text x="97.370596" y="185.100874" fill="rgb(191,191,191)"  stroke="rgb(191,191,191)" stroke-width="1" font-size="16" >H</text>
<text x="140.633859" y="74.207084" fill="rgb(191,191,191)"  stroke="rgb(191,191,191)" stroke-width="1" font-size="16" >H</text>
<text x="85.115965" y="53.846187" fill="rgb(191,191,191)"  stroke="rgb(191,191,191)" stroke-width="1" font-size="16" >H</text>
<text x="118.752597" y="48.000000" fill="rgb(191,191,191)"  stroke="rgb(191,191,191)" stroke-width="1" font-size="16" >H</text>
<text x="60.206331" y="65.385778" fill="rgb(191,191,191)"  stroke="rgb(191,191,191)" stroke-width="1" font-size="16" >H</text>
<text x="39.847345" y="120.904373" fill="rgb(191,191,191)"  stroke="rgb(191,191,191)" stroke-width="1" font-size="16" >H</text>
<text x="34.000000" y="87.267943" fill="rgb(191,191,191)"  stroke="rgb(191,191,191)" stroke-width="1" font-size="16" >H</text>
<text x="51.385634" y="145.809947" fill="rgb(191,191,191)"  stroke="rgb(191,191,191)" stroke-width="1" font-size="16" >H</text>
<text x="106.902318" y="166.174145" fill="rgb(191,191,191)"  stroke="rgb(191,191,191)" stroke-width="1" font-size="16" >H</text>
<text x="73.265338" y="172.018332" fill="rgb(191,191,191)"  stroke="rgb(191,191,191)" stroke-width="1" font-size="16" >H</text>
<text x="237.033986" y="102.996410" fill="rgb(191,191,191)"  stroke="rgb(191,191,191)" stroke-width="1" font-size="16" >H</text>
<text x="237.785493" y="150.685263" fill="rgb(191,191,191)"  stroke="rgb(191,191,191)" stroke-width="1" font-size="16" >H</text>
<text x="301.937804" y="121.535464" fill="rgb(191,191,191)"  stroke="rgb(191,191,191)" stroke-width="1" font-size="16" >H</text>
<text x="300.868675" y="156.426384" fill="rgb(191,191,191)"  stroke="rgb(191,191,191)" stroke-width="1" font-size="16" >H</text>
<text x="289.931796" y="342.271318" fill="rgb(191,191,191)"  stroke="rgb(191,191,191)" stroke-width="1" font-size="16" >H</text>
<text x="360.465828" y="302.103416" fill="rgb(191,191,191)"  stroke="rgb(191,191,191)" stroke-width="1" font-size="16" >H</text>
<text x="277.801282" y="173.964739" fill="rgb(191,191,191)"  stroke="rgb(191,191,191)" stroke-width="1" font-size="16" >H</text>
<text x="219.795872" y="256.906245" fill="rgb(191,191,191)"  stroke="rgb(191,191,191)" stroke-width="1" font-size="16" >H</text>
<text x="276.822919" y="257.776804" fill="rgb(191,191,191)"  stroke="rgb(191,191,191)" stroke-width="1" font-size="16" >H</text>
</svg>
</g>
<text font-size="18.000000" fill ="black" font-family="sans-serif"
x="10.000000" y="20.000000" ></text>
</svg>
