<?xml version="1.0"?>
<svg version="1.1" id="topsvg"
xmlns="http://www.w3.org/2000/svg" xmlns:xlink="http://www.w3.org/1999/xlink"
xmlns:cml="http://www.xml-cml.org/schema" x="0" y="0" width="200px" height="200px" viewBox="0 0 100 100">
<title> - Open Babel Depiction</title>
<rect x="0" y="0" width="100" height="100" fill="white"/>
<g transform="translate(0,0)">
<svg width="100" height="100" x="0" y="0" viewBox="0 0 270.019 261.934"
font-family="sans-serif" stroke="rgb(0,0,0)" stroke-width="2"  stroke-linecap="round">
<line x1="72.1" y1="103.5" x2="52.2" y2="92.0" stroke="rgb(0,0,0)"  stroke-width="2.0"/>
<line x1="71.2" y1="159.1" x2="51.3" y2="170.5" stroke="rgb(0,0,0)"  stroke-width="2.0"/>
<line x1="118.5" y1="76.0" x2="117.9" y2="53.0" stroke="rgb(0,0,0)"  stroke-width="2.0"/>
<line x1="118.4" y1="186.0" x2="118.6" y2="208.9" stroke="rgb(0,0,0)"  stroke-width="2.0"/>
<line x1="166.2" y1="157.5" x2="187.3" y2="169.7" stroke="rgb(0,0,0)"  stroke-width="2.0"/>
<line x1="166.2" y1="157.5" x2="187.3" y2="145.5" stroke="rgb(0,0,0)"  stroke-width="2.0"/>
<line x1="192.9" y1="87.5" x2="200.1" y2="64.4" stroke="rgb(0,0,0)"  stroke-width="2.0"/>
<line x1="192.9" y1="87.5" x2="217.1" y2="85.5" stroke="rgb(0,0,0)"  stroke-width="2.0"/>
<line x1="194.3" y1="90.3" x2="217.0" y2="98.8" stroke="rgb(0,0,0)"  stroke-width="2.0"/>
<line x1="194.3" y1="90.3" x2="210.4" y2="72.1" stroke="rgb(0,0,0)"  stroke-width="2.0"/>
<line x1="192.9" y1="87.5" x2="166.9" y2="101.4" stroke="rgb(0,0,0)"  stroke-width="2.0"/>
<line x1="166.9" y1="101.4" x2="194.3" y2="90.3" stroke="rgb(0,0,0)"  stroke-width="2.0"/>
<line x1="194.3" y1="90.3" x2="192.9" y2="87.5" stroke="rgb(0,0,0)"  stroke-width="2.0"/>
<line x1="71.2" y1="159.1" x2="72.1" y2="103.5" stroke="rgb(0,0,0)"  stroke-width="2.0"/>
<line x1="72.1" y1="103.5" x2="118.5" y2="76.0" stroke="rgb(0,0,0)"  stroke-width="2.0"/>
<line x1="80.9" y1="106.6" x2="117.0" y2="85.2" stroke="rgb(0,0,0)"  stroke-width="2.0"/>
<line x1="118.5" y1="76.0" x2="166.9" y2="101.4" stroke="rgb(0,0,0)"  stroke-width="2.0"/>
<line x1="166.9" y1="101.4" x2="166.2" y2="157.5" stroke="rgb(0,0,0)"  stroke-width="2.0"/>
<line x1="166.2" y1="157.5" x2="118.4" y2="186.0" stroke="rgb(0,0,0)"  stroke-width="2.0"/>
<line x1="118.4" y1="186.0" x2="71.2" y2="159.1" stroke="rgb(0,0,0)"  stroke-width="2.0"/>
<line x1="116.8" y1="176.7" x2="80.0" y2="155.8" stroke="rgb(0,0,0)"  stroke-width="2.0"/>
<text x="34.988514" y="93.472930" fill="rgb(191,191,191)"  stroke="rgb(191,191,191)" stroke-width="1" font-size="16" >H</text>
<text x="34.000000" y="184.920741" fill="rgb(191,191,191)"  stroke="rgb(191,191,191)" stroke-width="1" font-size="16" >H</text>
<text x="111.609509" y="48.000000" fill="rgb(191,191,191)"  stroke="rgb(191,191,191)" stroke-width="1" font-size="16" >H</text>
<text x="112.727441" y="229.934356" fill="rgb(191,191,191)"  stroke="rgb(191,191,191)" stroke-width="1" font-size="16" >H</text>
<text x="192.542349" y="184.172108" fill="rgb(191,191,191)"  stroke="rgb(191,191,191)" stroke-width="1" font-size="16" >H</text>
<text x="192.631352" y="147.078105" fill="rgb(191,191,191)"  stroke="rgb(191,191,191)" stroke-width="1" font-size="16" >H</text>
<text x="198.021522" y="59.949194" fill="rgb(191,191,191)"  stroke="rgb(191,191,191)" stroke-width="1" font-size="16" >H</text>
<text x="224.018732" y="92.393620" fill="rgb(191,191,191)"  stroke="rgb(191,191,191)" stroke-width="1" font-size="16" >H</text>
<text x="223.216311" y="111.291270" fill="rgb(191,191,191)"  stroke="rgb(191,191,191)" stroke-width="1" font-size="16" >H</text>
<text x="213.066338" y="70.435633" fill="rgb(191,191,191)"  stroke="rgb(191,191,191)" stroke-width="1" font-size="16" >H</text>
</svg>
</g>
<text font-size="18.000000" fill ="black" font-family="sans-serif"
x="10.000000" y="20.000000" ></text>
</svg>
