<?xml version="1.0"?>
<svg version="1.1" id="topsvg"
xmlns="http://www.w3.org/2000/svg" xmlns:xlink="http://www.w3.org/1999/xlink"
xmlns:cml="http://www.xml-cml.org/schema" x="0" y="0" width="200px" height="200px" viewBox="0 0 100 100">
<title> - Open Babel Depiction</title>
<rect x="0" y="0" width="100" height="100" fill="white"/>
<g transform="translate(0,0)">
<svg width="100" height="100" x="0" y="0" viewBox="0 0 349.823 247.649"
font-family="sans-serif" stroke="rgb(0,0,0)" stroke-width="2"  stroke-linecap="round">
<line x1="152.9" y1="98.9" x2="195.2" y2="74.5" stroke="rgb(0,0,0)"  stroke-width="2.0"/>
<line x1="279.3" y1="74.8" x2="237.1" y2="99.7" stroke="rgb(0,0,0)"  stroke-width="2.0"/>
<line x1="237.1" y1="99.7" x2="195.2" y2="74.5" stroke="rgb(0,0,0)"  stroke-width="2.0"/>
<line x1="194.7" y1="172.5" x2="238.0" y2="149.3" stroke="rgb(0,0,0)"  stroke-width="2.0"/>
<line x1="194.7" y1="172.5" x2="153.0" y2="148.6" stroke="rgb(0,0,0)"  stroke-width="2.0"/>
<line x1="238.0" y1="149.3" x2="279.8" y2="173.1" stroke="rgb(0,0,0)"  stroke-width="2.0"/>
<line x1="68.7" y1="149.4" x2="51.2" y2="159.7" stroke="rgb(0,0,0)"  stroke-width="2.0"/>
<line x1="70.0" y1="99.1" x2="52.4" y2="88.7" stroke="rgb(0,0,0)"  stroke-width="2.0"/>
<line x1="195.2" y1="74.5" x2="195.5" y2="53.0" stroke="rgb(0,0,0)"  stroke-width="2.0"/>
<line x1="195.2" y1="74.5" x2="214.1" y2="64.0" stroke="rgb(0,0,0)"  stroke-width="2.0"/>
<line x1="279.3" y1="74.8" x2="298.1" y2="85.4" stroke="rgb(0,0,0)"  stroke-width="2.0"/>
<line x1="279.3" y1="74.8" x2="279.1" y2="53.2" stroke="rgb(0,0,0)"  stroke-width="2.0"/>
<line x1="279.3" y1="74.8" x2="297.9" y2="63.8" stroke="rgb(0,0,0)"  stroke-width="2.0"/>
<line x1="237.1" y1="99.7" x2="237.0" y2="121.3" stroke="rgb(0,0,0)"  stroke-width="2.0"/>
<line x1="237.1" y1="99.7" x2="218.3" y2="110.3" stroke="rgb(0,0,0)"  stroke-width="2.0"/>
<line x1="194.7" y1="172.5" x2="194.4" y2="194.1" stroke="rgb(0,0,0)"  stroke-width="2.0"/>
<line x1="194.7" y1="172.5" x2="175.9" y2="183.2" stroke="rgb(0,0,0)"  stroke-width="2.0"/>
<line x1="238.0" y1="149.3" x2="238.3" y2="127.7" stroke="rgb(0,0,0)"  stroke-width="2.0"/>
<line x1="238.0" y1="149.3" x2="256.7" y2="138.6" stroke="rgb(0,0,0)"  stroke-width="2.0"/>
<line x1="279.8" y1="173.1" x2="279.9" y2="194.6" stroke="rgb(0,0,0)"  stroke-width="2.0"/>
<line x1="279.8" y1="173.1" x2="298.4" y2="162.2" stroke="rgb(0,0,0)"  stroke-width="2.0"/>
<line x1="279.8" y1="173.1" x2="298.5" y2="183.8" stroke="rgb(0,0,0)"  stroke-width="2.0"/>
<line x1="110.6" y1="171.2" x2="110.7" y2="191.6" stroke="rgb(0,0,0)"  stroke-width="2.0"/>
<line x1="110.6" y1="75.2" x2="110.4" y2="54.9" stroke="rgb(0,0,0)"  stroke-width="2.0"/>
<line x1="70.0" y1="99.1" x2="110.6" y2="75.2" stroke="rgb(0,0,0)"  stroke-width="2.0"/>
<line x1="110.6" y1="75.2" x2="152.9" y2="98.9" stroke="rgb(0,0,0)"  stroke-width="2.0"/>
<line x1="112.3" y1="84.4" x2="144.2" y2="102.2" stroke="rgb(0,0,0)"  stroke-width="2.0"/>
<line x1="152.9" y1="98.9" x2="153.0" y2="148.6" stroke="rgb(0,0,0)"  stroke-width="2.0"/>
<line x1="153.0" y1="148.6" x2="110.6" y2="171.2" stroke="rgb(0,0,0)"  stroke-width="2.0"/>
<line x1="144.4" y1="145.1" x2="112.5" y2="162.1" stroke="rgb(0,0,0)"  stroke-width="2.0"/>
<line x1="110.6" y1="171.2" x2="68.7" y2="149.4" stroke="rgb(0,0,0)"  stroke-width="2.0"/>
<line x1="68.7" y1="149.4" x2="70.0" y2="99.1" stroke="rgb(0,0,0)"  stroke-width="2.0"/>
<line x1="76.1" y1="143.5" x2="77.0" y2="105.2" stroke="rgb(0,0,0)"  stroke-width="2.0"/>
<text x="34.000000" y="174.274198" fill="rgb(191,191,191)"  stroke="rgb(191,191,191)" stroke-width="1" font-size="16" >H</text>
<text x="35.247570" y="90.147771" fill="rgb(191,191,191)"  stroke="rgb(191,191,191)" stroke-width="1" font-size="16" >H</text>
<text x="189.589748" y="48.000000" fill="rgb(191,191,191)"  stroke="rgb(191,191,191)" stroke-width="1" font-size="16" >H</text>
<text x="219.404476" y="65.696761" fill="rgb(191,191,191)"  stroke="rgb(191,191,191)" stroke-width="1" font-size="16" >H</text>
<text x="303.408610" y="99.763467" fill="rgb(191,191,191)"  stroke="rgb(191,191,191)" stroke-width="1" font-size="16" >H</text>
<text x="272.988481" y="48.232360" fill="rgb(191,191,191)"  stroke="rgb(191,191,191)" stroke-width="1" font-size="16" >H</text>
<text x="303.074295" y="65.216379" fill="rgb(191,191,191)"  stroke="rgb(191,191,191)" stroke-width="1" font-size="16" >H</text>
<text x="230.922545" y="142.270713" fill="rgb(191,191,191)"  stroke="rgb(191,191,191)" stroke-width="1" font-size="16" >H</text>
<text x="200.957680" y="124.659207" fill="rgb(191,191,191)"  stroke="rgb(191,191,191)" stroke-width="1" font-size="16" >H</text>
<text x="188.169835" y="215.084378" fill="rgb(191,191,191)"  stroke="rgb(191,191,191)" stroke-width="1" font-size="16" >H</text>
<text x="158.641153" y="197.614696" fill="rgb(191,191,191)"  stroke="rgb(191,191,191)" stroke-width="1" font-size="16" >H</text>
<text x="232.422408" y="122.723037" fill="rgb(191,191,191)"  stroke="rgb(191,191,191)" stroke-width="1" font-size="16" >H</text>
<text x="261.969884" y="140.098249" fill="rgb(191,191,191)"  stroke="rgb(191,191,191)" stroke-width="1" font-size="16" >H</text>
<text x="274.000340" y="215.649355" fill="rgb(191,191,191)"  stroke="rgb(191,191,191)" stroke-width="1" font-size="16" >H</text>
<text x="303.630105" y="163.659777" fill="rgb(191,191,191)"  stroke="rgb(191,191,191)" stroke-width="1" font-size="16" >H</text>
<text x="303.823321" y="198.207942" fill="rgb(191,191,191)"  stroke="rgb(191,191,191)" stroke-width="1" font-size="16" >H</text>
<text x="104.714724" y="212.556356" fill="rgb(191,191,191)"  stroke="rgb(191,191,191)" stroke-width="1" font-size="16" >H</text>
<text x="104.291370" y="49.895304" fill="rgb(191,191,191)"  stroke="rgb(191,191,191)" stroke-width="1" font-size="16" >H</text>
</svg>
</g>
<text font-size="18.000000" fill ="black" font-family="sans-serif"
x="10.000000" y="20.000000" ></text>
</svg>
