<?xml version="1.0"?>
<svg version="1.1" id="topsvg"
xmlns="http://www.w3.org/2000/svg" xmlns:xlink="http://www.w3.org/1999/xlink"
xmlns:cml="http://www.xml-cml.org/schema" x="0" y="0" width="200px" height="200px" viewBox="0 0 100 100">
<title> - Open Babel Depiction</title>
<rect x="0" y="0" width="100" height="100" fill="white"/>
<g transform="translate(0,0)">
<svg width="100" height="100" x="0" y="0" viewBox="0 0 255.665 460.775"
font-family="sans-serif" stroke="rgb(0,0,0)" stroke-width="2"  stroke-linecap="round">
<line x1="118.6" y1="340.2" x2="72.6" y2="353.6" stroke="rgb(0,0,0)"  stroke-width="2.0"/>
<line x1="118.6" y1="340.2" x2="106.6" y2="387.9" stroke="rgb(0,0,0)"  stroke-width="2.0"/>
<line x1="144.9" y1="267.7" x2="146.7" y2="219.2" stroke="rgb(0,0,0)"  stroke-width="2.0"/>
<line x1="145.4" y1="125.1" x2="153.9" y2="108.4" stroke="rgb(0,0,0)"  stroke-width="2.0"/>
<line x1="152.6" y1="85.9" x2="142.4" y2="70.3" stroke="rgb(0,0,0)"  stroke-width="2.0"/>
<line x1="72.6" y1="353.6" x2="57.5" y2="339.1" stroke="rgb(0,0,0)"  stroke-width="2.0"/>
<line x1="72.6" y1="353.6" x2="67.6" y2="373.9" stroke="rgb(0,0,0)"  stroke-width="2.0"/>
<line x1="72.6" y1="353.6" x2="52.5" y2="359.4" stroke="rgb(0,0,0)"  stroke-width="2.0"/>
<line x1="168.2" y1="342.0" x2="180.2" y2="359.1" stroke="rgb(0,0,0)"  stroke-width="2.0"/>
<line x1="168.2" y1="342.0" x2="158.2" y2="360.4" stroke="rgb(0,0,0)"  stroke-width="2.0"/>
<line x1="104.3" y1="196.9" x2="87.4" y2="207.0" stroke="rgb(0,0,0)"  stroke-width="2.0"/>
<line x1="104.6" y1="147.0" x2="87.7" y2="136.8" stroke="rgb(0,0,0)"  stroke-width="2.0"/>
<line x1="142.4" y1="70.3" x2="151.9" y2="51.6" stroke="rgb(0,0,0)"  stroke-width="2.0"/>
<line x1="142.4" y1="70.3" x2="121.5" y2="71.4" stroke="rgb(0,0,0)"  stroke-width="2.0"/>
<line x1="142.4" y1="70.3" x2="131.0" y2="52.7" stroke="rgb(0,0,0)"  stroke-width="2.0"/>
<line x1="187.7" y1="146.4" x2="204.5" y2="136.2" stroke="rgb(0,0,0)"  stroke-width="2.0"/>
<line x1="186.9" y1="195.4" x2="203.9" y2="205.3" stroke="rgb(0,0,0)"  stroke-width="2.0"/>
<line x1="106.6" y1="387.9" x2="86.5" y2="393.6" stroke="rgb(0,0,0)"  stroke-width="2.0"/>
<line x1="106.6" y1="387.9" x2="121.6" y2="402.5" stroke="rgb(0,0,0)"  stroke-width="2.0"/>
<line x1="106.6" y1="387.9" x2="101.5" y2="408.2" stroke="rgb(0,0,0)"  stroke-width="2.0"/>
<line x1="104.6" y1="147.0" x2="145.4" y2="125.1" stroke="rgb(0,0,0)"  stroke-width="2.0"/>
<line x1="145.4" y1="125.1" x2="187.7" y2="146.4" stroke="rgb(0,0,0)"  stroke-width="2.0"/>
<line x1="147.5" y1="134.2" x2="179.1" y2="150.1" stroke="rgb(0,0,0)"  stroke-width="2.0"/>
<line x1="187.7" y1="146.4" x2="186.9" y2="195.4" stroke="rgb(0,0,0)"  stroke-width="2.0"/>
<line x1="186.9" y1="195.4" x2="146.7" y2="219.2" stroke="rgb(0,0,0)"  stroke-width="2.0"/>
<line x1="178.0" y1="192.3" x2="148.2" y2="209.9" stroke="rgb(0,0,0)"  stroke-width="2.0"/>
<line x1="146.7" y1="219.2" x2="104.3" y2="196.9" stroke="rgb(0,0,0)"  stroke-width="2.0"/>
<line x1="104.3" y1="196.9" x2="104.6" y2="147.0" stroke="rgb(0,0,0)"  stroke-width="2.0"/>
<line x1="111.6" y1="190.9" x2="111.8" y2="153.0" stroke="rgb(0,0,0)"  stroke-width="2.0"/>
<line x1="118.4" y1="285.8" x2="144.9" y2="267.7" stroke="rgb(0,0,0)"  stroke-width="2.0"/>
<line x1="123.4" y1="291.0" x2="144.0" y2="277.0" stroke="rgb(0,0,0)"  stroke-width="2.0"/>
<line x1="144.9" y1="267.7" x2="172.2" y2="289.1" stroke="rgb(0,0,0)"  stroke-width="2.0"/>
<line x1="178.5" y1="309.5" x2="168.2" y2="342.0" stroke="rgb(0,0,0)"  stroke-width="2.0"/>
<line x1="168.2" y1="342.0" x2="118.6" y2="340.2" stroke="rgb(0,0,0)"  stroke-width="2.0"/>
<line x1="118.6" y1="340.2" x2="109.0" y2="307.2" stroke="rgb(0,0,0)"  stroke-width="2.0"/>
<text x="99.330233" y="302.689215" fill="rgb(12,12,255)"  stroke="rgb(12,12,255)" stroke-width="1" font-size="16" >N</text>
<text x="176.470324" y="305.099050" fill="rgb(255,12,12)"  stroke="rgb(255,12,12)" stroke-width="1" font-size="16" >O</text>
<text x="153.741774" y="104.819553" fill="rgb(255,12,12)"  stroke="rgb(255,12,12)" stroke-width="1" font-size="16" >O</text>
<text x="42.107661" y="338.103075" fill="rgb(191,191,191)"  stroke="rgb(191,191,191)" stroke-width="1" font-size="16" >H</text>
<text x="58.477351" y="394.541971" fill="rgb(191,191,191)"  stroke="rgb(191,191,191)" stroke-width="1" font-size="16" >H</text>
<text x="34.000000" y="371.048045" fill="rgb(191,191,191)"  stroke="rgb(191,191,191)" stroke-width="1" font-size="16" >H</text>
<text x="181.710346" y="377.744690" fill="rgb(191,191,191)"  stroke="rgb(191,191,191)" stroke-width="1" font-size="16" >H</text>
<text x="146.016983" y="379.837043" fill="rgb(191,191,191)"  stroke="rgb(191,191,191)" stroke-width="1" font-size="16" >H</text>
<text x="70.255293" y="221.685970" fill="rgb(191,191,191)"  stroke="rgb(191,191,191)" stroke-width="1" font-size="16" >H</text>
<text x="70.574605" y="138.117112" fill="rgb(191,191,191)"  stroke="rgb(191,191,191)" stroke-width="1" font-size="16" >H</text>
<text x="151.749631" y="48.000000" fill="rgb(191,191,191)"  stroke="rgb(191,191,191)" stroke-width="1" font-size="16" >H</text>
<text x="102.535696" y="80.113929" fill="rgb(191,191,191)"  stroke="rgb(191,191,191)" stroke-width="1" font-size="16" >H</text>
<text x="117.872171" y="49.850125" fill="rgb(191,191,191)"  stroke="rgb(191,191,191)" stroke-width="1" font-size="16" >H</text>
<text x="209.664821" y="137.467952" fill="rgb(191,191,191)"  stroke="rgb(191,191,191)" stroke-width="1" font-size="16" >H</text>
<text x="209.166039" y="219.869793" fill="rgb(191,191,191)"  stroke="rgb(191,191,191)" stroke-width="1" font-size="16" >H</text>
<text x="67.960090" y="405.133622" fill="rgb(191,191,191)"  stroke="rgb(191,191,191)" stroke-width="1" font-size="16" >H</text>
<text x="124.936367" y="419.521800" fill="rgb(191,191,191)"  stroke="rgb(191,191,191)" stroke-width="1" font-size="16" >H</text>
<text x="92.294719" y="428.775345" fill="rgb(191,191,191)"  stroke="rgb(191,191,191)" stroke-width="1" font-size="16" >H</text>
</svg>
</g>
<text font-size="18.000000" fill ="black" font-family="sans-serif"
x="10.000000" y="20.000000" ></text>
</svg>
