<?xml version="1.0"?>
<svg version="1.1" id="topsvg"
xmlns="http://www.w3.org/2000/svg" xmlns:xlink="http://www.w3.org/1999/xlink"
xmlns:cml="http://www.xml-cml.org/schema" x="0" y="0" width="200px" height="200px" viewBox="0 0 100 100">
<title> - Open Babel Depiction</title>
<rect x="0" y="0" width="100" height="100" fill="white"/>
<g transform="translate(0,0)">
<svg width="100" height="100" x="0" y="0" viewBox="0 0 214.835 249.223"
font-family="sans-serif" stroke="rgb(0,0,0)" stroke-width="2"  stroke-linecap="round">
<line x1="107.2" y1="85.2" x2="106.8" y2="53.0" stroke="rgb(0,0,0)"  stroke-width="2.0"/>
<line x1="67.1" y1="155.2" x2="51.2" y2="164.4" stroke="rgb(0,0,0)"  stroke-width="2.0"/>
<line x1="67.3" y1="107.7" x2="51.5" y2="98.5" stroke="rgb(0,0,0)"  stroke-width="2.0"/>
<line x1="146.9" y1="108.8" x2="162.7" y2="99.5" stroke="rgb(0,0,0)"  stroke-width="2.0"/>
<line x1="147.6" y1="154.8" x2="163.5" y2="163.9" stroke="rgb(0,0,0)"  stroke-width="2.0"/>
<line x1="107.1" y1="177.9" x2="107.1" y2="196.2" stroke="rgb(0,0,0)"  stroke-width="2.0"/>
<line x1="67.3" y1="107.7" x2="107.2" y2="85.2" stroke="rgb(0,0,0)"  stroke-width="2.0"/>
<line x1="107.2" y1="85.2" x2="146.9" y2="108.8" stroke="rgb(0,0,0)"  stroke-width="2.0"/>
<line x1="108.7" y1="94.5" x2="138.0" y2="111.9" stroke="rgb(0,0,0)"  stroke-width="2.0"/>
<line x1="146.9" y1="108.8" x2="147.6" y2="154.8" stroke="rgb(0,0,0)"  stroke-width="2.0"/>
<line x1="147.6" y1="154.8" x2="107.1" y2="177.9" stroke="rgb(0,0,0)"  stroke-width="2.0"/>
<line x1="138.8" y1="151.5" x2="108.7" y2="168.6" stroke="rgb(0,0,0)"  stroke-width="2.0"/>
<line x1="107.1" y1="177.9" x2="67.1" y2="155.2" stroke="rgb(0,0,0)"  stroke-width="2.0"/>
<line x1="67.1" y1="155.2" x2="67.3" y2="107.7" stroke="rgb(0,0,0)"  stroke-width="2.0"/>
<line x1="74.4" y1="149.2" x2="74.5" y2="113.8" stroke="rgb(0,0,0)"  stroke-width="2.0"/>
<text x="88.629973" y="48.000000" fill="rgb(17,127,178)"  stroke="rgb(17,127,178)" stroke-width="1" font-size="16" >Xx</text>
<text x="34.000000" y="178.878529" fill="rgb(191,191,191)"  stroke="rgb(191,191,191)" stroke-width="1" font-size="16" >H</text>
<text x="34.238007" y="99.888117" fill="rgb(191,191,191)"  stroke="rgb(191,191,191)" stroke-width="1" font-size="16" >H</text>
<text x="167.994023" y="101.027563" fill="rgb(191,191,191)"  stroke="rgb(191,191,191)" stroke-width="1" font-size="16" >H</text>
<text x="168.835330" y="178.341480" fill="rgb(191,191,191)"  stroke="rgb(191,191,191)" stroke-width="1" font-size="16" >H</text>
<text x="101.105022" y="217.222626" fill="rgb(191,191,191)"  stroke="rgb(191,191,191)" stroke-width="1" font-size="16" >H</text>
</svg>
</g>
<text font-size="18.000000" fill ="black" font-family="sans-serif"
x="10.000000" y="20.000000" ></text>
</svg>
