<?xml version="1.0"?>
<svg version="1.1" id="topsvg"
xmlns="http://www.w3.org/2000/svg" xmlns:xlink="http://www.w3.org/1999/xlink"
xmlns:cml="http://www.xml-cml.org/schema" x="0" y="0" width="200px" height="200px" viewBox="0 0 100 100">
<title> - Open Babel Depiction</title>
<rect x="0" y="0" width="100" height="100" fill="white"/>
<g transform="translate(0,0)">
<svg width="100" height="100" x="0" y="0" viewBox="0 0 425.578 420.552"
font-family="sans-serif" stroke="rgb(0,0,0)" stroke-width="2"  stroke-linecap="round">
<line x1="194.5" y1="160.0" x2="235.5" y2="181.8" stroke="rgb(0,0,0)"  stroke-width="2.0"/>
<line x1="235.5" y1="181.8" x2="236.0" y2="228.3" stroke="rgb(0,0,0)"  stroke-width="2.0"/>
<line x1="155.3" y1="52.9" x2="156.4" y2="87.9" stroke="rgb(0,0,0)"  stroke-width="2.0"/>
<line x1="149.3" y1="53.1" x2="150.4" y2="88.1" stroke="rgb(0,0,0)"  stroke-width="2.0"/>
<line x1="236.0" y1="228.3" x2="235.7" y2="294.6" stroke="rgb(0,0,0)"  stroke-width="2.0"/>
<line x1="240.2" y1="228.3" x2="239.9" y2="294.6" stroke="rgb(0,0,0)"  stroke-width="2.0"/>
<line x1="231.8" y1="228.3" x2="231.5" y2="294.6" stroke="rgb(0,0,0)"  stroke-width="2.0"/>
<line x1="235.7" y1="294.6" x2="235.5" y2="324.2" stroke="rgb(0,0,0)"  stroke-width="2.0"/>
<line x1="358.3" y1="300.9" x2="315.9" y2="324.9" stroke="rgb(0,0,0)"  stroke-width="2.0"/>
<line x1="360.4" y1="304.6" x2="318.0" y2="328.6" stroke="rgb(0,0,0)"  stroke-width="2.0"/>
<line x1="356.2" y1="297.3" x2="313.9" y2="321.3" stroke="rgb(0,0,0)"  stroke-width="2.0"/>
<line x1="237.1" y1="321.6" x2="276.7" y2="345.4" stroke="rgb(0,0,0)"  stroke-width="2.0"/>
<line x1="234.0" y1="326.7" x2="273.6" y2="350.6" stroke="rgb(0,0,0)"  stroke-width="2.0"/>
<line x1="275.2" y1="348.0" x2="315.9" y2="324.9" stroke="rgb(0,0,0)"  stroke-width="2.0"/>
<line x1="69.3" y1="324.2" x2="111.3" y2="299.9" stroke="rgb(0,0,0)"  stroke-width="2.0"/>
<line x1="108.3" y1="299.8" x2="108.7" y2="253.3" stroke="rgb(0,0,0)"  stroke-width="2.0"/>
<line x1="114.3" y1="299.9" x2="114.7" y2="253.3" stroke="rgb(0,0,0)"  stroke-width="2.0"/>
<line x1="111.7" y1="253.3" x2="152.4" y2="226.9" stroke="rgb(0,0,0)"  stroke-width="2.0"/>
<line x1="152.8" y1="178.5" x2="152.4" y2="226.9" stroke="rgb(0,0,0)"  stroke-width="2.0"/>
<line x1="186.5" y1="164.4" x2="185.8" y2="163.0" stroke="rgb(0,0,0)"  stroke-width="1.0"/>
<line x1="180.0" y1="168.0" x2="178.9" y2="165.3" stroke="rgb(0,0,0)"  stroke-width="1.0"/>
<line x1="173.6" y1="171.5" x2="171.9" y2="167.7" stroke="rgb(0,0,0)"  stroke-width="1.0"/>
<line x1="167.2" y1="175.1" x2="165.0" y2="170.1" stroke="rgb(0,0,0)"  stroke-width="1.0"/>
<line x1="160.8" y1="178.6" x2="158.1" y2="172.5" stroke="rgb(0,0,0)"  stroke-width="1.0"/>
<line x1="154.4" y1="182.2" x2="151.1" y2="174.9" stroke="rgb(0,0,0)"  stroke-width="1.0"/>
<line x1="194.5" y1="160.0" x2="212.2" y2="149.1" stroke="rgb(0,0,0)"  stroke-width="2.0"/>
<line x1="235.5" y1="181.8" x2="253.2" y2="171.0" stroke="rgb(0,0,0)"  stroke-width="2.0"/>
<line x1="235.5" y1="181.8" x2="253.6" y2="191.8" stroke="rgb(0,0,0)"  stroke-width="2.0"/>
<line x1="111.8" y1="158.3" x2="94.1" y2="169.1" stroke="rgb(0,0,0)"  stroke-width="2.0"/>
<line x1="111.8" y1="158.3" x2="112.8" y2="179.0" stroke="rgb(0,0,0)"  stroke-width="2.0"/>
<line x1="112.5" y1="110.5" x2="94.7" y2="99.9" stroke="rgb(0,0,0)"  stroke-width="2.0"/>
<line x1="112.5" y1="110.5" x2="112.9" y2="89.8" stroke="rgb(0,0,0)"  stroke-width="2.0"/>
<line x1="358.3" y1="300.9" x2="374.3" y2="291.9" stroke="rgb(0,0,0)"  stroke-width="2.0"/>
<line x1="235.5" y1="324.2" x2="218.5" y2="333.7" stroke="rgb(0,0,0)"  stroke-width="2.0"/>
<line x1="275.2" y1="348.0" x2="274.9" y2="367.6" stroke="rgb(0,0,0)"  stroke-width="2.0"/>
<line x1="193.6" y1="110.5" x2="211.4" y2="99.9" stroke="rgb(0,0,0)"  stroke-width="2.0"/>
<line x1="193.6" y1="110.5" x2="193.3" y2="89.8" stroke="rgb(0,0,0)"  stroke-width="2.0"/>
<line x1="69.3" y1="324.2" x2="51.3" y2="313.8" stroke="rgb(0,0,0)"  stroke-width="2.0"/>
<line x1="69.3" y1="324.2" x2="69.3" y2="345.0" stroke="rgb(0,0,0)"  stroke-width="2.0"/>
<line x1="69.3" y1="324.2" x2="51.3" y2="334.6" stroke="rgb(0,0,0)"  stroke-width="2.0"/>
<line x1="111.3" y1="299.9" x2="128.2" y2="309.7" stroke="rgb(0,0,0)"  stroke-width="2.0"/>
<line x1="111.7" y1="253.3" x2="94.5" y2="243.9" stroke="rgb(0,0,0)"  stroke-width="2.0"/>
<polygon points="152.772345 178.522808 135.604364 193.787967 131.410680 186.975257 " stroke-width="2.000000" fill="rgb(0,0,0)"  stroke="rgb(0,0,0)" />
<line x1="152.4" y1="226.9" x2="170.6" y2="236.9" stroke="rgb(0,0,0)"  stroke-width="2.0"/>
<line x1="152.4" y1="226.9" x2="170.3" y2="216.4" stroke="rgb(0,0,0)"  stroke-width="2.0"/>
<line x1="111.8" y1="158.3" x2="152.8" y2="178.5" stroke="rgb(0,0,0)"  stroke-width="2.0"/>
<line x1="152.8" y1="178.5" x2="194.5" y2="160.0" stroke="rgb(0,0,0)"  stroke-width="2.0"/>
<line x1="194.5" y1="160.0" x2="193.6" y2="110.5" stroke="rgb(0,0,0)"  stroke-width="2.0"/>
<line x1="193.6" y1="110.5" x2="153.4" y2="88.0" stroke="rgb(0,0,0)"  stroke-width="2.0"/>
<line x1="153.4" y1="88.0" x2="112.5" y2="110.5" stroke="rgb(0,0,0)"  stroke-width="2.0"/>
<line x1="112.5" y1="110.5" x2="111.8" y2="158.3" stroke="rgb(0,0,0)"  stroke-width="2.0"/>
<text x="145.822521" y="48.000000" fill="rgb(255,12,12)"  stroke="rgb(255,12,12)" stroke-width="1" font-size="16" >O</text>
<text x="217.264209" y="150.337203" fill="rgb(191,191,191)"  stroke="rgb(191,191,191)" stroke-width="1" font-size="16" >H</text>
<text x="258.327787" y="172.209433" fill="rgb(191,191,191)"  stroke="rgb(191,191,191)" stroke-width="1" font-size="16" >H</text>
<text x="259.019406" y="206.140591" fill="rgb(191,191,191)"  stroke="rgb(191,191,191)" stroke-width="1" font-size="16" >H</text>
<text x="77.023617" y="183.859500" fill="rgb(191,191,191)"  stroke="rgb(191,191,191)" stroke-width="1" font-size="16" >H</text>
<text x="107.333372" y="199.985890" fill="rgb(191,191,191)"  stroke="rgb(191,191,191)" stroke-width="1" font-size="16" >H</text>
<text x="77.562514" y="101.160789" fill="rgb(191,191,191)"  stroke="rgb(191,191,191)" stroke-width="1" font-size="16" >H</text>
<text x="107.144597" y="84.787230" fill="rgb(191,191,191)"  stroke="rgb(191,191,191)" stroke-width="1" font-size="16" >H</text>
<text x="379.578426" y="293.498682" fill="rgb(191,191,191)"  stroke="rgb(191,191,191)" stroke-width="1" font-size="16" >H</text>
<text x="201.155323" y="348.113197" fill="rgb(191,191,191)"  stroke="rgb(191,191,191)" stroke-width="1" font-size="16" >H</text>
<text x="268.735028" y="388.551567" fill="rgb(191,191,191)"  stroke="rgb(191,191,191)" stroke-width="1" font-size="16" >H</text>
<text x="216.608557" y="101.214014" fill="rgb(191,191,191)"  stroke="rgb(191,191,191)" stroke-width="1" font-size="16" >H</text>
<text x="187.155175" y="84.771853" fill="rgb(191,191,191)"  stroke="rgb(191,191,191)" stroke-width="1" font-size="16" >H</text>
<text x="34.000000" y="315.349208" fill="rgb(191,191,191)"  stroke="rgb(191,191,191)" stroke-width="1" font-size="16" >H</text>
<text x="63.318455" y="365.951112" fill="rgb(191,191,191)"  stroke="rgb(191,191,191)" stroke-width="1" font-size="16" >H</text>
<text x="34.051716" y="349.113669" fill="rgb(191,191,191)"  stroke="rgb(191,191,191)" stroke-width="1" font-size="16" >H</text>
<text x="133.399645" y="324.244476" fill="rgb(191,191,191)"  stroke="rgb(191,191,191)" stroke-width="1" font-size="16" >H</text>
<text x="77.133335" y="245.640494" fill="rgb(191,191,191)"  stroke="rgb(191,191,191)" stroke-width="1" font-size="16" >H</text>
<text x="118.018878" y="204.222515" fill="rgb(191,191,191)"  stroke="rgb(191,191,191)" stroke-width="1" font-size="16" >H</text>
<text x="176.013183" y="251.166747" fill="rgb(191,191,191)"  stroke="rgb(191,191,191)" stroke-width="1" font-size="16" >H</text>
<text x="175.527963" y="217.836598" fill="rgb(191,191,191)"  stroke="rgb(191,191,191)" stroke-width="1" font-size="16" >H</text>
</svg>
</g>
<text font-size="18.000000" fill ="black" font-family="sans-serif"
x="10.000000" y="20.000000" ></text>
</svg>
