<?xml version="1.0"?>
<svg version="1.1" id="topsvg"
xmlns="http://www.w3.org/2000/svg" xmlns:xlink="http://www.w3.org/1999/xlink"
xmlns:cml="http://www.xml-cml.org/schema" x="0" y="0" width="200px" height="200px" viewBox="0 0 100 100">
<title> - Open Babel Depiction</title>
<rect x="0" y="0" width="100" height="100" fill="white"/>
<g transform="translate(0,0)">
<svg width="100" height="100" x="0" y="0" viewBox="0 0 346.341 483.395"
font-family="sans-serif" stroke="rgb(0,0,0)" stroke-width="2"  stroke-linecap="round">
<line x1="167.2" y1="387.1" x2="209.8" y2="363.3" stroke="rgb(0,0,0)"  stroke-width="2.0"/>
<line x1="167.2" y1="387.1" x2="148.9" y2="376.2" stroke="rgb(0,0,0)"  stroke-width="2.0"/>
<line x1="167.2" y1="387.1" x2="166.9" y2="408.4" stroke="rgb(0,0,0)"  stroke-width="2.0"/>
<line x1="167.2" y1="387.1" x2="148.6" y2="397.5" stroke="rgb(0,0,0)"  stroke-width="2.0"/>
<line x1="209.8" y1="363.3" x2="196.5" y2="410.3" stroke="rgb(0,0,0)"  stroke-width="2.0"/>
<line x1="257.9" y1="363.8" x2="270.5" y2="381.0" stroke="rgb(0,0,0)"  stroke-width="2.0"/>
<line x1="257.9" y1="363.8" x2="248.1" y2="382.8" stroke="rgb(0,0,0)"  stroke-width="2.0"/>
<line x1="196.5" y1="410.3" x2="175.8" y2="415.6" stroke="rgb(0,0,0)"  stroke-width="2.0"/>
<line x1="196.5" y1="410.3" x2="211.4" y2="425.6" stroke="rgb(0,0,0)"  stroke-width="2.0"/>
<line x1="196.5" y1="410.3" x2="190.7" y2="430.9" stroke="rgb(0,0,0)"  stroke-width="2.0"/>
<line x1="145.9" y1="316.9" x2="181.4" y2="317.1" stroke="rgb(0,0,0)"  stroke-width="2.0"/>
<line x1="145.9" y1="316.9" x2="135.3" y2="298.4" stroke="rgb(0,0,0)"  stroke-width="2.0"/>
<line x1="145.9" y1="316.9" x2="135.1" y2="335.4" stroke="rgb(0,0,0)"  stroke-width="2.0"/>
<line x1="145.9" y1="316.9" x2="124.5" y2="316.8" stroke="rgb(0,0,0)"  stroke-width="2.0"/>
<line x1="235.0" y1="292.9" x2="234.0" y2="314.3" stroke="rgb(0,0,0)"  stroke-width="2.0"/>
<line x1="194.2" y1="218.7" x2="152.6" y2="236.8" stroke="rgb(0,0,0)"  stroke-width="2.0"/>
<polygon points="194.150086 218.656524 191.107620 170.068833 199.106064 170.226589 " stroke-width="2.000000" fill="rgb(0,0,0)"  stroke="rgb(0,0,0)" />
<line x1="194.2" y1="218.7" x2="176.4" y2="206.8" stroke="rgb(0,0,0)"  stroke-width="2.0"/>
<line x1="152.6" y1="236.8" x2="152.3" y2="256.9" stroke="rgb(0,0,0)"  stroke-width="2.0"/>
<line x1="195.1" y1="170.1" x2="155.2" y2="145.6" stroke="rgb(0,0,0)"  stroke-width="2.0"/>
<polygon points="195.106842 170.147711 176.825819 184.693127 172.990288 177.672536 " stroke-width="2.000000" fill="rgb(0,0,0)"  stroke="rgb(0,0,0)" />
<line x1="227.0" y1="146.1" x2="229.5" y2="111.1" stroke="rgb(0,0,0)"  stroke-width="2.0"/>
<line x1="233.0" y1="146.5" x2="235.5" y2="111.5" stroke="rgb(0,0,0)"  stroke-width="2.0"/>
<line x1="276.5" y1="169.3" x2="294.6" y2="157.9" stroke="rgb(0,0,0)"  stroke-width="2.0"/>
<line x1="276.5" y1="169.3" x2="275.5" y2="147.9" stroke="rgb(0,0,0)"  stroke-width="2.0"/>
<line x1="277.0" y1="218.1" x2="295.3" y2="229.3" stroke="rgb(0,0,0)"  stroke-width="2.0"/>
<line x1="277.0" y1="218.1" x2="276.1" y2="239.4" stroke="rgb(0,0,0)"  stroke-width="2.0"/>
<line x1="225.9" y1="235.9" x2="226.6" y2="234.5" stroke="rgb(0,0,0)"  stroke-width="1.0"/>
<line x1="219.2" y1="233.2" x2="220.5" y2="230.6" stroke="rgb(0,0,0)"  stroke-width="1.0"/>
<line x1="212.5" y1="230.4" x2="214.4" y2="226.8" stroke="rgb(0,0,0)"  stroke-width="1.0"/>
<line x1="205.7" y1="227.7" x2="208.2" y2="222.9" stroke="rgb(0,0,0)"  stroke-width="1.0"/>
<line x1="199.0" y1="225.0" x2="202.1" y2="219.0" stroke="rgb(0,0,0)"  stroke-width="1.0"/>
<line x1="192.3" y1="222.2" x2="196.0" y2="215.1" stroke="rgb(0,0,0)"  stroke-width="1.0"/>
<line x1="234.3" y1="239.4" x2="235.0" y2="292.9" stroke="rgb(0,0,0)"  stroke-width="2.0"/>
<line x1="234.3" y1="239.4" x2="234.4" y2="218.0" stroke="rgb(0,0,0)"  stroke-width="2.0"/>
<line x1="67.2" y1="95.2" x2="109.8" y2="70.5" stroke="rgb(0,0,0)"  stroke-width="2.0"/>
<line x1="70.2" y1="100.4" x2="112.8" y2="75.7" stroke="rgb(0,0,0)"  stroke-width="2.0"/>
<line x1="68.7" y1="97.8" x2="51.3" y2="87.7" stroke="rgb(0,0,0)"  stroke-width="2.0"/>
<line x1="68.7" y1="97.8" x2="68.7" y2="117.9" stroke="rgb(0,0,0)"  stroke-width="2.0"/>
<line x1="111.3" y1="73.1" x2="151.7" y2="97.4" stroke="rgb(0,0,0)"  stroke-width="2.0"/>
<line x1="111.3" y1="73.1" x2="111.5" y2="53.0" stroke="rgb(0,0,0)"  stroke-width="2.0"/>
<line x1="151.7" y1="97.4" x2="169.9" y2="86.2" stroke="rgb(0,0,0)"  stroke-width="2.0"/>
<line x1="151.7" y1="97.4" x2="170.7" y2="107.1" stroke="rgb(0,0,0)"  stroke-width="2.0"/>
<line x1="111.7" y1="214.5" x2="153.8" y2="234.0" stroke="rgb(0,0,0)"  stroke-width="2.0"/>
<line x1="109.2" y1="219.9" x2="151.3" y2="239.5" stroke="rgb(0,0,0)"  stroke-width="2.0"/>
<line x1="110.5" y1="217.2" x2="108.7" y2="197.1" stroke="rgb(0,0,0)"  stroke-width="2.0"/>
<line x1="110.5" y1="217.2" x2="94.0" y2="228.8" stroke="rgb(0,0,0)"  stroke-width="2.0"/>
<line x1="155.2" y1="145.6" x2="151.7" y2="97.4" stroke="rgb(0,0,0)"  stroke-width="2.0"/>
<line x1="155.2" y1="145.6" x2="137.0" y2="156.7" stroke="rgb(0,0,0)"  stroke-width="2.0"/>
<line x1="155.2" y1="145.6" x2="136.3" y2="135.8" stroke="rgb(0,0,0)"  stroke-width="2.0"/>
<line x1="205.6" y1="310.5" x2="235.0" y2="292.9" stroke="rgb(0,0,0)"  stroke-width="2.0"/>
<line x1="235.0" y1="292.9" x2="261.1" y2="311.9" stroke="rgb(0,0,0)"  stroke-width="2.0"/>
<line x1="267.7" y1="331.9" x2="257.9" y2="363.8" stroke="rgb(0,0,0)"  stroke-width="2.0"/>
<line x1="257.9" y1="363.8" x2="209.8" y2="363.3" stroke="rgb(0,0,0)"  stroke-width="2.0"/>
<line x1="209.8" y1="363.3" x2="198.5" y2="329.5" stroke="rgb(0,0,0)"  stroke-width="2.0"/>
<line x1="194.2" y1="218.7" x2="234.3" y2="239.4" stroke="rgb(0,0,0)"  stroke-width="2.0"/>
<line x1="234.3" y1="239.4" x2="277.0" y2="218.1" stroke="rgb(0,0,0)"  stroke-width="2.0"/>
<line x1="277.0" y1="218.1" x2="276.5" y2="169.3" stroke="rgb(0,0,0)"  stroke-width="2.0"/>
<line x1="276.5" y1="169.3" x2="230.0" y2="146.3" stroke="rgb(0,0,0)"  stroke-width="2.0"/>
<line x1="230.0" y1="146.3" x2="195.1" y2="170.1" stroke="rgb(0,0,0)"  stroke-width="2.0"/>
<line x1="195.1" y1="170.1" x2="194.2" y2="218.7" stroke="rgb(0,0,0)"  stroke-width="2.0"/>
<text x="188.426197" y="325.122126" fill="rgb(12,12,255)"  stroke="rgb(12,12,255)" stroke-width="1" font-size="16" >N</text>
<text x="265.586320" y="327.507595" fill="rgb(255,12,12)"  stroke="rgb(255,12,12)" stroke-width="1" font-size="16" >O</text>
<text x="227.402766" y="106.365326" fill="rgb(255,12,12)"  stroke="rgb(255,12,12)" stroke-width="1" font-size="16" >O</text>
<text x="131.707903" y="377.493280" fill="rgb(191,191,191)"  stroke="rgb(191,191,191)" stroke-width="1" font-size="16" >H</text>
<text x="160.712379" y="429.447057" fill="rgb(191,191,191)"  stroke="rgb(191,191,191)" stroke-width="1" font-size="16" >H</text>
<text x="131.210262" y="411.843389" fill="rgb(191,191,191)"  stroke="rgb(191,191,191)" stroke-width="1" font-size="16" >H</text>
<text x="272.129504" y="399.537195" fill="rgb(191,191,191)"  stroke="rgb(191,191,191)" stroke-width="1" font-size="16" >H</text>
<text x="236.170889" y="402.346462" fill="rgb(191,191,191)"  stroke="rgb(191,191,191)" stroke-width="1" font-size="16" >H</text>
<text x="157.206414" y="426.788688" fill="rgb(191,191,191)"  stroke="rgb(191,191,191)" stroke-width="1" font-size="16" >H</text>
<text x="214.473718" y="442.941169" fill="rgb(191,191,191)"  stroke="rgb(191,191,191)" stroke-width="1" font-size="16" >H</text>
<text x="181.176683" y="451.394654" fill="rgb(191,191,191)"  stroke="rgb(191,191,191)" stroke-width="1" font-size="16" >H</text>
<text x="122.846673" y="295.103104" fill="rgb(191,191,191)"  stroke="rgb(191,191,191)" stroke-width="1" font-size="16" >H</text>
<text x="122.602668" y="354.601769" fill="rgb(191,191,191)"  stroke="rgb(191,191,191)" stroke-width="1" font-size="16" >H</text>
<text x="105.548011" y="324.781804" fill="rgb(191,191,191)"  stroke="rgb(191,191,191)" stroke-width="1" font-size="16" >H</text>
<text x="227.422030" y="335.241908" fill="rgb(191,191,191)"  stroke="rgb(191,191,191)" stroke-width="1" font-size="16" >H</text>
<text x="159.604725" y="207.543878" fill="rgb(191,191,191)"  stroke="rgb(191,191,191)" stroke-width="1" font-size="16" >H</text>
<text x="146.161982" y="277.884707" fill="rgb(191,191,191)"  stroke="rgb(191,191,191)" stroke-width="1" font-size="16" >H</text>
<text x="158.959396" y="194.618040" fill="rgb(191,191,191)"  stroke="rgb(191,191,191)" stroke-width="1" font-size="16" >H</text>
<text x="299.621791" y="158.999748" fill="rgb(191,191,191)"  stroke="rgb(191,191,191)" stroke-width="1" font-size="16" >H</text>
<text x="268.790489" y="142.966059" fill="rgb(191,191,191)"  stroke="rgb(191,191,191)" stroke-width="1" font-size="16" >H</text>
<text x="300.340963" y="244.054714" fill="rgb(191,191,191)"  stroke="rgb(191,191,191)" stroke-width="1" font-size="16" >H</text>
<text x="269.532136" y="260.435147" fill="rgb(191,191,191)"  stroke="rgb(191,191,191)" stroke-width="1" font-size="16" >H</text>
<text x="228.545737" y="213.021145" fill="rgb(191,191,191)"  stroke="rgb(191,191,191)" stroke-width="1" font-size="16" >H</text>
<text x="34.000000" y="89.207930" fill="rgb(191,191,191)"  stroke="rgb(191,191,191)" stroke-width="1" font-size="16" >H</text>
<text x="62.712312" y="138.895030" fill="rgb(191,191,191)"  stroke="rgb(191,191,191)" stroke-width="1" font-size="16" >H</text>
<text x="105.583328" y="48.000000" fill="rgb(191,191,191)"  stroke="rgb(191,191,191)" stroke-width="1" font-size="16" >H</text>
<text x="174.999507" y="87.368262" fill="rgb(191,191,191)"  stroke="rgb(191,191,191)" stroke-width="1" font-size="16" >H</text>
<text x="176.309428" y="121.034515" fill="rgb(191,191,191)"  stroke="rgb(191,191,191)" stroke-width="1" font-size="16" >H</text>
<text x="101.544405" y="192.200466" fill="rgb(191,191,191)"  stroke="rgb(191,191,191)" stroke-width="1" font-size="16" >H</text>
<text x="77.365447" y="244.244139" fill="rgb(191,191,191)"  stroke="rgb(191,191,191)" stroke-width="1" font-size="16" >H</text>
<text x="119.867245" y="171.469682" fill="rgb(191,191,191)"  stroke="rgb(191,191,191)" stroke-width="1" font-size="16" >H</text>
<text x="118.698590" y="137.883694" fill="rgb(191,191,191)"  stroke="rgb(191,191,191)" stroke-width="1" font-size="16" >H</text>
</svg>
</g>
<text font-size="18.000000" fill ="black" font-family="sans-serif"
x="10.000000" y="20.000000" ></text>
</svg>
