<?xml version="1.0"?>
<svg version="1.1" id="topsvg"
xmlns="http://www.w3.org/2000/svg" xmlns:xlink="http://www.w3.org/1999/xlink"
xmlns:cml="http://www.xml-cml.org/schema" x="0" y="0" width="200px" height="200px" viewBox="0 0 100 100">
<title> - Open Babel Depiction</title>
<rect x="0" y="0" width="100" height="100" fill="white"/>
<g transform="translate(0,0)">
<svg width="100" height="100" x="0" y="0" viewBox="0 0 889.979 650.44"
font-family="sans-serif" stroke="rgb(0,0,0)" stroke-width="2"  stroke-linecap="round">
<line x1="96.7" y1="530.9" x2="129.2" y2="521.6" stroke="rgb(0,0,0)"  stroke-width="2.0"/>
<line x1="98.3" y1="536.7" x2="130.8" y2="527.3" stroke="rgb(0,0,0)"  stroke-width="2.0"/>
<line x1="120.8" y1="490.4" x2="130.0" y2="524.5" stroke="rgb(0,0,0)"  stroke-width="2.0"/>
<line x1="106.0" y1="471.6" x2="103.0" y2="470.0" stroke="rgb(0,0,0)"  stroke-width="2.0"/>
<line x1="166.6" y1="545.2" x2="130.0" y2="524.5" stroke="rgb(0,0,0)"  stroke-width="2.0"/>
<line x1="166.6" y1="545.2" x2="183.0" y2="541.2" stroke="rgb(0,0,0)"  stroke-width="2.0"/>
<line x1="199.3" y1="525.7" x2="204.1" y2="509.5" stroke="rgb(0,0,0)"  stroke-width="2.0"/>
<line x1="204.1" y1="509.5" x2="222.5" y2="505.1" stroke="rgb(0,0,0)"  stroke-width="2.0"/>
<line x1="204.1" y1="509.5" x2="191.0" y2="495.8" stroke="rgb(0,0,0)"  stroke-width="2.0"/>
<line x1="204.1" y1="509.5" x2="209.5" y2="491.4" stroke="rgb(0,0,0)"  stroke-width="2.0"/>
<line x1="161.4" y1="593.7" x2="163.6" y2="545.1" stroke="rgb(0,0,0)"  stroke-width="2.0"/>
<line x1="167.4" y1="594.0" x2="169.6" y2="545.3" stroke="rgb(0,0,0)"  stroke-width="2.0"/>
<line x1="164.4" y1="593.9" x2="148.6" y2="602.1" stroke="rgb(0,0,0)"  stroke-width="2.0"/>
<line x1="164.4" y1="593.9" x2="179.5" y2="603.4" stroke="rgb(0,0,0)"  stroke-width="2.0"/>
<line x1="171.4" y1="461.0" x2="129.8" y2="474.0" stroke="rgb(0,0,0)"  stroke-width="2.0"/>
<line x1="102.3" y1="406.9" x2="131.0" y2="390.0" stroke="rgb(0,0,0)"  stroke-width="2.0"/>
<line x1="105.3" y1="412.1" x2="134.0" y2="395.1" stroke="rgb(0,0,0)"  stroke-width="2.0"/>
<line x1="132.5" y1="392.6" x2="109.1" y2="363.3" stroke="rgb(0,0,0)"  stroke-width="2.0"/>
<line x1="132.5" y1="392.6" x2="171.3" y2="414.9" stroke="rgb(0,0,0)"  stroke-width="2.0"/>
<line x1="109.6" y1="343.4" x2="147.2" y2="301.1" stroke="rgb(0,0,0)"  stroke-width="2.0"/>
<line x1="211.1" y1="391.6" x2="211.2" y2="373.8" stroke="rgb(0,0,0)"  stroke-width="2.0"/>
<line x1="250.6" y1="414.9" x2="267.0" y2="411.0" stroke="rgb(0,0,0)"  stroke-width="2.0"/>
<line x1="283.4" y1="395.6" x2="288.3" y2="379.4" stroke="rgb(0,0,0)"  stroke-width="2.0"/>
<line x1="288.3" y1="379.4" x2="306.7" y2="375.1" stroke="rgb(0,0,0)"  stroke-width="2.0"/>
<line x1="288.3" y1="379.4" x2="275.3" y2="365.6" stroke="rgb(0,0,0)"  stroke-width="2.0"/>
<line x1="288.3" y1="379.4" x2="293.7" y2="361.3" stroke="rgb(0,0,0)"  stroke-width="2.0"/>
<line x1="250.6" y1="461.5" x2="266.8" y2="466.3" stroke="rgb(0,0,0)"  stroke-width="2.0"/>
<line x1="288.7" y1="461.1" x2="300.9" y2="449.5" stroke="rgb(0,0,0)"  stroke-width="2.0"/>
<line x1="300.9" y1="449.5" x2="319.1" y2="454.8" stroke="rgb(0,0,0)"  stroke-width="2.0"/>
<line x1="300.9" y1="449.5" x2="296.5" y2="431.0" stroke="rgb(0,0,0)"  stroke-width="2.0"/>
<line x1="300.9" y1="449.5" x2="314.6" y2="436.4" stroke="rgb(0,0,0)"  stroke-width="2.0"/>
<line x1="210.8" y1="482.8" x2="210.6" y2="500.7" stroke="rgb(0,0,0)"  stroke-width="2.0"/>
<line x1="98.0" y1="344.7" x2="105.9" y2="312.1" stroke="rgb(0,0,0)"  stroke-width="2.0"/>
<line x1="98.0" y1="344.7" x2="79.8" y2="350.0" stroke="rgb(0,0,0)"  stroke-width="2.0"/>
<line x1="98.0" y1="344.7" x2="111.8" y2="357.7" stroke="rgb(0,0,0)"  stroke-width="2.0"/>
<line x1="98.0" y1="344.7" x2="93.6" y2="363.1" stroke="rgb(0,0,0)"  stroke-width="2.0"/>
<line x1="105.9" y1="312.1" x2="119.4" y2="325.4" stroke="rgb(0,0,0)"  stroke-width="2.0"/>
<line x1="70.9" y1="289.5" x2="124.4" y2="275.2" stroke="rgb(0,0,0)"  stroke-width="2.0"/>
<line x1="70.9" y1="289.5" x2="57.5" y2="276.0" stroke="rgb(0,0,0)"  stroke-width="2.0"/>
<line x1="70.9" y1="289.5" x2="65.9" y2="307.8" stroke="rgb(0,0,0)"  stroke-width="2.0"/>
<line x1="70.9" y1="289.5" x2="52.6" y2="294.3" stroke="rgb(0,0,0)"  stroke-width="2.0"/>
<line x1="124.4" y1="275.2" x2="109.7" y2="287.2" stroke="rgb(0,0,0)"  stroke-width="2.0"/>
<line x1="147.2" y1="301.1" x2="131.1" y2="311.0" stroke="rgb(0,0,0)"  stroke-width="2.0"/>
<line x1="191.0" y1="314.0" x2="198.0" y2="331.7" stroke="rgb(0,0,0)"  stroke-width="2.0"/>
<line x1="191.0" y1="314.0" x2="209.9" y2="315.4" stroke="rgb(0,0,0)"  stroke-width="2.0"/>
<line x1="214.0" y1="274.4" x2="199.0" y2="285.9" stroke="rgb(0,0,0)"  stroke-width="2.0"/>
<line x1="215.1" y1="238.4" x2="214.0" y2="274.4" stroke="rgb(0,0,0)"  stroke-width="2.0"/>
<line x1="216.9" y1="212.5" x2="224.9" y2="141.7" stroke="rgb(0,0,0)"  stroke-width="2.0"/>
<line x1="241.0" y1="184.7" x2="198.8" y2="170.1" stroke="rgb(0,0,0)"  stroke-width="2.0"/>
<line x1="241.0" y1="184.7" x2="248.7" y2="227.1" stroke="rgb(0,0,0)"  stroke-width="2.0"/>
<line x1="184.0" y1="153.1" x2="183.4" y2="150.2" stroke="rgb(0,0,0)"  stroke-width="2.0"/>
<line x1="224.9" y1="141.7" x2="227.3" y2="160.5" stroke="rgb(0,0,0)"  stroke-width="2.0"/>
<line x1="251.4" y1="86.1" x2="263.2" y2="109.4" stroke="rgb(0,0,0)"  stroke-width="2.0"/>
<line x1="246.1" y1="88.8" x2="257.8" y2="112.1" stroke="rgb(0,0,0)"  stroke-width="2.0"/>
<line x1="282.8" y1="116.1" x2="346.8" y2="49.4" stroke="rgb(0,0,0)"  stroke-width="2.0"/>
<line x1="324.4" y1="160.5" x2="365.0" y2="183.9" stroke="rgb(0,0,0)"  stroke-width="2.0"/>
<line x1="400.9" y1="106.7" x2="305.9" y2="120.4" stroke="rgb(0,0,0)"  stroke-width="2.0"/>
<line x1="365.0" y1="183.9" x2="396.0" y2="174.3" stroke="rgb(0,0,0)"  stroke-width="2.0"/>
<line x1="365.0" y1="183.9" x2="358.8" y2="226.5" stroke="rgb(0,0,0)"  stroke-width="2.0"/>
<line x1="361.5" y1="186.5" x2="360.8" y2="185.1" stroke="rgb(0,0,0)"  stroke-width="1.0"/>
<line x1="358.7" y1="188.6" x2="357.4" y2="186.0" stroke="rgb(0,0,0)"  stroke-width="1.0"/>
<line x1="355.9" y1="190.7" x2="354.0" y2="186.9" stroke="rgb(0,0,0)"  stroke-width="1.0"/>
<line x1="353.0" y1="192.7" x2="350.7" y2="187.8" stroke="rgb(0,0,0)"  stroke-width="1.0"/>
<line x1="350.2" y1="194.8" x2="347.3" y2="188.8" stroke="rgb(0,0,0)"  stroke-width="1.0"/>
<line x1="347.4" y1="196.9" x2="343.9" y2="189.7" stroke="rgb(0,0,0)"  stroke-width="1.0"/>
<line x1="420.0" y1="164.5" x2="449.2" y2="149.5" stroke="rgb(0,0,0)"  stroke-width="2.0"/>
<line x1="358.8" y1="226.5" x2="341.2" y2="233.6" stroke="rgb(0,0,0)"  stroke-width="2.0"/>
<line x1="358.8" y1="226.5" x2="373.7" y2="238.3" stroke="rgb(0,0,0)"  stroke-width="2.0"/>
<line x1="358.8" y1="226.5" x2="356.1" y2="245.3" stroke="rgb(0,0,0)"  stroke-width="2.0"/>
<line x1="248.7" y1="227.1" x2="234.3" y2="239.4" stroke="rgb(0,0,0)"  stroke-width="2.0"/>
<line x1="248.7" y1="227.1" x2="266.6" y2="233.5" stroke="rgb(0,0,0)"  stroke-width="2.0"/>
<line x1="248.7" y1="227.1" x2="252.1" y2="245.8" stroke="rgb(0,0,0)"  stroke-width="2.0"/>
<line x1="542.9" y1="285.6" x2="527.6" y2="274.5" stroke="rgb(0,0,0)"  stroke-width="2.0"/>
<line x1="497.8" y1="274.7" x2="497.6" y2="255.7" stroke="rgb(0,0,0)"  stroke-width="2.0"/>
<line x1="497.8" y1="274.7" x2="482.8" y2="263.2" stroke="rgb(0,0,0)"  stroke-width="2.0"/>
<line x1="521.1" y1="250.1" x2="561.5" y2="255.6" stroke="rgb(0,0,0)"  stroke-width="2.0"/>
<line x1="521.1" y1="250.1" x2="513.4" y2="267.4" stroke="rgb(0,0,0)"  stroke-width="2.0"/>
<line x1="474.0" y1="258.8" x2="473.1" y2="277.8" stroke="rgb(0,0,0)"  stroke-width="2.0"/>
<line x1="474.0" y1="258.8" x2="458.6" y2="269.8" stroke="rgb(0,0,0)"  stroke-width="2.0"/>
<line x1="431.7" y1="246.4" x2="430.4" y2="214.7" stroke="rgb(0,0,0)"  stroke-width="2.0"/>
<line x1="431.7" y1="246.4" x2="446.5" y2="258.3" stroke="rgb(0,0,0)"  stroke-width="2.0"/>
<line x1="607.5" y1="288.5" x2="542.9" y2="285.6" stroke="rgb(0,0,0)"  stroke-width="2.0"/>
<line x1="545.8" y1="203.2" x2="517.5" y2="174.8" stroke="rgb(0,0,0)"  stroke-width="2.0"/>
<line x1="551.5" y1="225.0" x2="550.8" y2="227.8" stroke="rgb(0,0,0)"  stroke-width="2.0"/>
<line x1="517.5" y1="174.8" x2="512.4" y2="193.1" stroke="rgb(0,0,0)"  stroke-width="2.0"/>
<line x1="474.1" y1="185.9" x2="442.1" y2="197.3" stroke="rgb(0,0,0)"  stroke-width="2.0"/>
<line x1="474.1" y1="185.9" x2="480.8" y2="168.1" stroke="rgb(0,0,0)"  stroke-width="2.0"/>
<line x1="449.2" y1="149.5" x2="444.6" y2="167.9" stroke="rgb(0,0,0)"  stroke-width="2.0"/>
<line x1="559.9" y1="186.4" x2="544.8" y2="174.9" stroke="rgb(0,0,0)"  stroke-width="2.0"/>
<line x1="537.5" y1="148.8" x2="588.9" y2="159.0" stroke="rgb(0,0,0)"  stroke-width="2.0"/>
<line x1="537.5" y1="148.8" x2="530.8" y2="166.6" stroke="rgb(0,0,0)"  stroke-width="2.0"/>
<line x1="588.9" y1="159.0" x2="595.0" y2="177.0" stroke="rgb(0,0,0)"  stroke-width="2.0"/>
<line x1="588.9" y1="159.0" x2="601.4" y2="144.7" stroke="rgb(0,0,0)"  stroke-width="2.0"/>
<line x1="588.9" y1="159.0" x2="607.5" y2="162.7" stroke="rgb(0,0,0)"  stroke-width="2.0"/>
<line x1="618.6" y1="184.6" x2="559.9" y2="186.4" stroke="rgb(0,0,0)"  stroke-width="2.0"/>
<line x1="641.9" y1="192.1" x2="645.5" y2="194.8" stroke="rgb(0,0,0)"  stroke-width="2.0"/>
<line x1="683.9" y1="160.1" x2="675.9" y2="177.3" stroke="rgb(0,0,0)"  stroke-width="2.0"/>
<line x1="683.9" y1="160.1" x2="696.2" y2="174.6" stroke="rgb(0,0,0)"  stroke-width="2.0"/>
<line x1="664.8" y1="119.3" x2="679.4" y2="131.4" stroke="rgb(0,0,0)"  stroke-width="2.0"/>
<line x1="632.5" y1="133.3" x2="664.8" y2="119.3" stroke="rgb(0,0,0)"  stroke-width="2.0"/>
<line x1="623.6" y1="151.0" x2="628.6" y2="171.6" stroke="rgb(0,0,0)"  stroke-width="2.0"/>
<line x1="728.9" y1="147.7" x2="737.2" y2="114.4" stroke="rgb(0,0,0)"  stroke-width="2.0"/>
<line x1="728.9" y1="147.7" x2="715.3" y2="134.5" stroke="rgb(0,0,0)"  stroke-width="2.0"/>
<line x1="752.8" y1="98.2" x2="755.7" y2="97.4" stroke="rgb(0,0,0)"  stroke-width="2.0"/>
<line x1="753.1" y1="122.0" x2="799.4" y2="131.5" stroke="rgb(0,0,0)"  stroke-width="2.0"/>
<line x1="753.1" y1="122.0" x2="744.8" y2="139.0" stroke="rgb(0,0,0)"  stroke-width="2.0"/>
<line x1="772.7" y1="158.2" x2="789.5" y2="158.6" stroke="rgb(0,0,0)"  stroke-width="2.0"/>
<line x1="772.7" y1="158.2" x2="782.6" y2="142.1" stroke="rgb(0,0,0)"  stroke-width="2.0"/>
<line x1="809.3" y1="147.8" x2="818.0" y2="133.4" stroke="rgb(0,0,0)"  stroke-width="2.0"/>
<line x1="818.0" y1="133.4" x2="837.0" y2="133.8" stroke="rgb(0,0,0)"  stroke-width="2.0"/>
<line x1="818.0" y1="133.4" x2="808.9" y2="116.8" stroke="rgb(0,0,0)"  stroke-width="2.0"/>
<line x1="818.0" y1="133.4" x2="827.9" y2="117.2" stroke="rgb(0,0,0)"  stroke-width="2.0"/>
<line x1="579.3" y1="269.5" x2="580.4" y2="272.2" stroke="rgb(0,0,0)"  stroke-width="2.0"/>
<line x1="799.4" y1="131.5" x2="805.4" y2="149.5" stroke="rgb(0,0,0)"  stroke-width="2.0"/>
<line x1="799.4" y1="131.5" x2="812.0" y2="117.4" stroke="rgb(0,0,0)"  stroke-width="2.0"/>
<line x1="799.4" y1="131.5" x2="818.0" y2="135.4" stroke="rgb(0,0,0)"  stroke-width="2.0"/>
<line x1="211.1" y1="391.6" x2="171.3" y2="414.9" stroke="rgb(0,0,0)"  stroke-width="2.0"/>
<line x1="171.3" y1="414.9" x2="171.4" y2="461.0" stroke="rgb(0,0,0)"  stroke-width="2.0"/>
<line x1="178.5" y1="420.9" x2="178.6" y2="455.0" stroke="rgb(0,0,0)"  stroke-width="2.0"/>
<line x1="171.4" y1="461.0" x2="210.8" y2="482.8" stroke="rgb(0,0,0)"  stroke-width="2.0"/>
<line x1="210.8" y1="482.8" x2="250.6" y2="461.5" stroke="rgb(0,0,0)"  stroke-width="2.0"/>
<line x1="212.7" y1="473.7" x2="241.9" y2="458.0" stroke="rgb(0,0,0)"  stroke-width="2.0"/>
<line x1="250.6" y1="461.5" x2="250.6" y2="414.9" stroke="rgb(0,0,0)"  stroke-width="2.0"/>
<line x1="250.6" y1="414.9" x2="211.1" y2="391.6" stroke="rgb(0,0,0)"  stroke-width="2.0"/>
<line x1="241.8" y1="418.0" x2="212.7" y2="400.9" stroke="rgb(0,0,0)"  stroke-width="2.0"/>
<line x1="282.8" y1="116.1" x2="305.9" y2="120.4" stroke="rgb(0,0,0)"  stroke-width="2.0"/>
<line x1="305.9" y1="120.4" x2="324.4" y2="160.5" stroke="rgb(0,0,0)"  stroke-width="2.0"/>
<line x1="301.8" y1="128.8" x2="315.4" y2="158.1" stroke="rgb(0,0,0)"  stroke-width="2.0"/>
<line x1="324.4" y1="160.5" x2="278.6" y2="160.5" stroke="rgb(0,0,0)"  stroke-width="2.0"/>
<line x1="278.6" y1="160.5" x2="282.8" y2="116.1" stroke="rgb(0,0,0)"  stroke-width="2.0"/>
<line x1="286.4" y1="155.1" x2="289.4" y2="122.7" stroke="rgb(0,0,0)"  stroke-width="2.0"/>
<line x1="241.0" y1="184.7" x2="278.6" y2="160.5" stroke="rgb(0,0,0)"  stroke-width="2.0"/>
<line x1="282.8" y1="116.1" x2="260.5" y2="110.8" stroke="rgb(0,0,0)"  stroke-width="2.0"/>
<line x1="260.5" y1="110.8" x2="224.9" y2="141.7" stroke="rgb(0,0,0)"  stroke-width="2.0"/>
<line x1="224.9" y1="141.7" x2="241.0" y2="184.7" stroke="rgb(0,0,0)"  stroke-width="2.0"/>
<line x1="105.9" y1="312.1" x2="147.2" y2="301.1" stroke="rgb(0,0,0)"  stroke-width="2.0"/>
<line x1="147.2" y1="301.1" x2="191.0" y2="314.0" stroke="rgb(0,0,0)"  stroke-width="2.0"/>
<line x1="191.0" y1="314.0" x2="214.0" y2="274.4" stroke="rgb(0,0,0)"  stroke-width="2.0"/>
<line x1="214.0" y1="274.4" x2="182.2" y2="283.0" stroke="rgb(0,0,0)"  stroke-width="2.0"/>
<line x1="157.1" y1="283.3" x2="124.4" y2="275.2" stroke="rgb(0,0,0)"  stroke-width="2.0"/>
<line x1="124.4" y1="275.2" x2="105.9" y2="312.1" stroke="rgb(0,0,0)"  stroke-width="2.0"/>
<line x1="542.9" y1="285.6" x2="497.8" y2="274.7" stroke="rgb(0,0,0)"  stroke-width="2.0"/>
<line x1="497.8" y1="274.7" x2="466.0" y2="283.1" stroke="rgb(0,0,0)"  stroke-width="2.0"/>
<line x1="447.3" y1="275.0" x2="431.7" y2="246.4" stroke="rgb(0,0,0)"  stroke-width="2.0"/>
<line x1="431.7" y1="246.4" x2="474.0" y2="258.8" stroke="rgb(0,0,0)"  stroke-width="2.0"/>
<line x1="474.0" y1="258.8" x2="521.1" y2="250.1" stroke="rgb(0,0,0)"  stroke-width="2.0"/>
<line x1="521.1" y1="250.1" x2="542.9" y2="285.6" stroke="rgb(0,0,0)"  stroke-width="2.0"/>
<line x1="517.5" y1="174.8" x2="474.1" y2="185.9" stroke="rgb(0,0,0)"  stroke-width="2.0"/>
<line x1="474.1" y1="185.9" x2="449.2" y2="149.5" stroke="rgb(0,0,0)"  stroke-width="2.0"/>
<line x1="449.2" y1="149.5" x2="481.5" y2="159.1" stroke="rgb(0,0,0)"  stroke-width="2.0"/>
<line x1="506.3" y1="158.8" x2="537.5" y2="148.8" stroke="rgb(0,0,0)"  stroke-width="2.0"/>
<line x1="537.5" y1="148.8" x2="559.9" y2="186.4" stroke="rgb(0,0,0)"  stroke-width="2.0"/>
<line x1="559.9" y1="186.4" x2="517.5" y2="174.8" stroke="rgb(0,0,0)"  stroke-width="2.0"/>
<line x1="683.9" y1="160.1" x2="664.8" y2="119.3" stroke="rgb(0,0,0)"  stroke-width="2.0"/>
<line x1="664.8" y1="119.3" x2="693.4" y2="126.7" stroke="rgb(0,0,0)"  stroke-width="2.0"/>
<line x1="718.8" y1="127.8" x2="753.1" y2="122.0" stroke="rgb(0,0,0)"  stroke-width="2.0"/>
<line x1="753.1" y1="122.0" x2="772.7" y2="158.2" stroke="rgb(0,0,0)"  stroke-width="2.0"/>
<line x1="772.7" y1="158.2" x2="728.9" y2="147.7" stroke="rgb(0,0,0)"  stroke-width="2.0"/>
<line x1="728.9" y1="147.7" x2="683.9" y2="160.1" stroke="rgb(0,0,0)"  stroke-width="2.0"/>
<text x="78.999804" y="545.405238" fill="rgb(255,12,12)"  stroke="rgb(255,12,12)" stroke-width="1" font-size="16" >O</text>
<text x="111.422004" y="485.898329" fill="rgb(12,12,255)"  stroke="rgb(12,12,255)" stroke-width="1" font-size="16" >N</text>
<text x="189.638509" y="546.193765" fill="rgb(255,12,12)"  stroke="rgb(255,12,12)" stroke-width="1" font-size="16" >O</text>
<text x="86.628205" y="424.103497" fill="rgb(255,12,12)"  stroke="rgb(255,12,12)" stroke-width="1" font-size="16" >O</text>
<text x="83.018252" y="361.167690" fill="rgb(17,127,178)"  stroke="rgb(17,127,178)" stroke-width="1" font-size="16" >Xx</text>
<text x="273.670400" y="416.024082" fill="rgb(255,12,12)"  stroke="rgb(255,12,12)" stroke-width="1" font-size="16" >O</text>
<text x="273.222373" y="478.013058" fill="rgb(255,12,12)"  stroke="rgb(255,12,12)" stroke-width="1" font-size="16" >O</text>
<text x="163.679840" y="294.414696" fill="rgb(255,12,12)"  stroke="rgb(255,12,12)" stroke-width="1" font-size="16" >O</text>
<text x="209.453237" y="233.381509" fill="rgb(255,12,12)"  stroke="rgb(255,12,12)" stroke-width="1" font-size="16" >O</text>
<text x="180.462921" y="173.877587" fill="rgb(255,12,12)"  stroke="rgb(255,12,12)" stroke-width="1" font-size="16" >O</text>
<text x="236.917275" y="83.857072" fill="rgb(255,12,12)"  stroke="rgb(255,12,12)" stroke-width="1" font-size="16" >O</text>
<text x="349.822995" y="48.000000" fill="rgb(17,127,178)"  stroke="rgb(17,127,178)" stroke-width="1" font-size="16" >Xx</text>
<text x="407.803626" y="112.847387" fill="rgb(17,127,178)"  stroke="rgb(17,127,178)" stroke-width="1" font-size="16" >Xx</text>
<text x="402.463148" y="178.453433" fill="rgb(255,12,12)"  stroke="rgb(255,12,12)" stroke-width="1" font-size="16" >O</text>
<text x="447.474899" y="294.414696" fill="rgb(255,12,12)"  stroke="rgb(255,12,12)" stroke-width="1" font-size="16" >O</text>
<text x="614.523154" y="297.084935" fill="rgb(17,127,178)"  stroke="rgb(17,127,178)" stroke-width="1" font-size="16" >Xx</text>
<text x="548.938016" y="220.412629" fill="rgb(255,12,12)"  stroke="rgb(255,12,12)" stroke-width="1" font-size="16" >O</text>
<text x="487.907817" y="170.825032" fill="rgb(255,12,12)"  stroke="rgb(255,12,12)" stroke-width="1" font-size="16" >O</text>
<text x="625.607336" y="192.186946" fill="rgb(12,12,255)"  stroke="rgb(12,12,255)" stroke-width="1" font-size="16" >N</text>
<text x="614.547049" y="146.413549" fill="rgb(255,12,12)"  stroke="rgb(255,12,12)" stroke-width="1" font-size="16" >O</text>
<text x="699.991718" y="138.020515" fill="rgb(255,12,12)"  stroke="rgb(255,12,12)" stroke-width="1" font-size="16" >O</text>
<text x="734.319526" y="109.794832" fill="rgb(255,12,12)"  stroke="rgb(255,12,12)" stroke-width="1" font-size="16" >O</text>
<text x="796.520568" y="166.915252" fill="rgb(178,178,0)"  stroke="rgb(178,178,0)" stroke-width="1" font-size="16" >S</text>
<text x="423.825062" y="209.731672" fill="rgb(255,12,12)"  stroke="rgb(255,12,12)" stroke-width="1" font-size="16" >O</text>
<text x="568.391337" y="265.424380" fill="rgb(255,12,12)"  stroke="rgb(255,12,12)" stroke-width="1" font-size="16" >O</text>
<text x="85.636573" y="471.764579" fill="rgb(191,191,191)"  stroke="rgb(191,191,191)" stroke-width="1" font-size="16" >H</text>
<text x="174.958166" y="145.430877" fill="rgb(191,191,191)"  stroke="rgb(191,191,191)" stroke-width="1" font-size="16" >H</text>
<text x="541.384286" y="248.384430" fill="rgb(191,191,191)"  stroke="rgb(191,191,191)" stroke-width="1" font-size="16" >H</text>
<text x="649.836621" y="210.657594" fill="rgb(191,191,191)"  stroke="rgb(191,191,191)" stroke-width="1" font-size="16" >H</text>
<text x="762.165880" y="101.790088" fill="rgb(191,191,191)"  stroke="rgb(191,191,191)" stroke-width="1" font-size="16" >H</text>
<text x="579.305268" y="292.261181" fill="rgb(191,191,191)"  stroke="rgb(191,191,191)" stroke-width="1" font-size="16" >H</text>
<text x="229.172386" y="510.064890" fill="rgb(191,191,191)"  stroke="rgb(191,191,191)" stroke-width="1" font-size="16" >H</text>
<text x="176.084207" y="494.383955" fill="rgb(191,191,191)"  stroke="rgb(191,191,191)" stroke-width="1" font-size="16" >H</text>
<text x="207.153366" y="486.898922" fill="rgb(191,191,191)"  stroke="rgb(191,191,191)" stroke-width="1" font-size="16" >H</text>
<text x="131.081416" y="616.068012" fill="rgb(191,191,191)"  stroke="rgb(191,191,191)" stroke-width="1" font-size="16" >H</text>
<text x="184.417504" y="618.439566" fill="rgb(191,191,191)"  stroke="rgb(191,191,191)" stroke-width="1" font-size="16" >H</text>
<text x="205.176075" y="368.819986" fill="rgb(191,191,191)"  stroke="rgb(191,191,191)" stroke-width="1" font-size="16" >H</text>
<text x="313.368554" y="380.077404" fill="rgb(191,191,191)"  stroke="rgb(191,191,191)" stroke-width="1" font-size="16" >H</text>
<text x="260.355046" y="364.151548" fill="rgb(191,191,191)"  stroke="rgb(191,191,191)" stroke-width="1" font-size="16" >H</text>
<text x="291.457061" y="356.809883" fill="rgb(191,191,191)"  stroke="rgb(191,191,191)" stroke-width="1" font-size="16" >H</text>
<text x="325.530986" y="466.525653" fill="rgb(191,191,191)"  stroke="rgb(191,191,191)" stroke-width="1" font-size="16" >H</text>
<text x="287.421834" y="426.376486" fill="rgb(191,191,191)"  stroke="rgb(191,191,191)" stroke-width="1" font-size="16" >H</text>
<text x="318.066861" y="435.450520" fill="rgb(191,191,191)"  stroke="rgb(191,191,191)" stroke-width="1" font-size="16" >H</text>
<text x="204.518969" y="521.659821" fill="rgb(191,191,191)"  stroke="rgb(191,191,191)" stroke-width="1" font-size="16" >H</text>
<text x="61.374433" y="361.723243" fill="rgb(191,191,191)"  stroke="rgb(191,191,191)" stroke-width="1" font-size="16" >H</text>
<text x="115.185428" y="374.698097" fill="rgb(191,191,191)"  stroke="rgb(191,191,191)" stroke-width="1" font-size="16" >H</text>
<text x="84.534427" y="383.745250" fill="rgb(191,191,191)"  stroke="rgb(191,191,191)" stroke-width="1" font-size="16" >H</text>
<text x="122.742146" y="342.464068" fill="rgb(191,191,191)"  stroke="rgb(191,191,191)" stroke-width="1" font-size="16" >H</text>
<text x="42.321350" y="274.829954" fill="rgb(191,191,191)"  stroke="rgb(191,191,191)" stroke-width="1" font-size="16" >H</text>
<text x="56.562626" y="328.321358" fill="rgb(191,191,191)"  stroke="rgb(191,191,191)" stroke-width="1" font-size="16" >H</text>
<text x="34.000000" y="305.687048" fill="rgb(191,191,191)"  stroke="rgb(191,191,191)" stroke-width="1" font-size="16" >H</text>
<text x="93.599501" y="303.390164" fill="rgb(191,191,191)"  stroke="rgb(191,191,191)" stroke-width="1" font-size="16" >H</text>
<text x="114.047441" y="325.872145" fill="rgb(191,191,191)"  stroke="rgb(191,191,191)" stroke-width="1" font-size="16" >H</text>
<text x="196.786028" y="351.744195" fill="rgb(191,191,191)"  stroke="rgb(191,191,191)" stroke-width="1" font-size="16" >H</text>
<text x="216.854638" y="324.405604" fill="rgb(191,191,191)"  stroke="rgb(191,191,191)" stroke-width="1" font-size="16" >H</text>
<text x="182.664226" y="301.848952" fill="rgb(191,191,191)"  stroke="rgb(191,191,191)" stroke-width="1" font-size="16" >H</text>
<text x="222.843262" y="181.431318" fill="rgb(191,191,191)"  stroke="rgb(191,191,191)" stroke-width="1" font-size="16" >H</text>
<text x="330.208385" y="205.884616" fill="rgb(191,191,191)"  stroke="rgb(191,191,191)" stroke-width="1" font-size="16" >H</text>
<text x="323.156445" y="246.404152" fill="rgb(191,191,191)"  stroke="rgb(191,191,191)" stroke-width="1" font-size="16" >H</text>
<text x="377.947126" y="254.292410" fill="rgb(191,191,191)"  stroke="rgb(191,191,191)" stroke-width="1" font-size="16" >H</text>
<text x="348.275809" y="266.165118" fill="rgb(191,191,191)"  stroke="rgb(191,191,191)" stroke-width="1" font-size="16" >H</text>
<text x="218.339100" y="255.794792" fill="rgb(191,191,191)"  stroke="rgb(191,191,191)" stroke-width="1" font-size="16" >H</text>
<text x="272.804215" y="245.917297" fill="rgb(191,191,191)"  stroke="rgb(191,191,191)" stroke-width="1" font-size="16" >H</text>
<text x="248.422601" y="266.577302" fill="rgb(191,191,191)"  stroke="rgb(191,191,191)" stroke-width="1" font-size="16" >H</text>
<text x="511.058851" y="274.797099" fill="rgb(191,191,191)"  stroke="rgb(191,191,191)" stroke-width="1" font-size="16" >H</text>
<text x="491.515925" y="250.729104" fill="rgb(191,191,191)"  stroke="rgb(191,191,191)" stroke-width="1" font-size="16" >H</text>
<text x="466.420455" y="263.315668" fill="rgb(191,191,191)"  stroke="rgb(191,191,191)" stroke-width="1" font-size="16" >H</text>
<text x="502.119224" y="287.258216" fill="rgb(191,191,191)"  stroke="rgb(191,191,191)" stroke-width="1" font-size="16" >H</text>
<text x="466.393574" y="298.736660" fill="rgb(191,191,191)"  stroke="rgb(191,191,191)" stroke-width="1" font-size="16" >H</text>
<text x="441.955210" y="285.298845" fill="rgb(191,191,191)"  stroke="rgb(191,191,191)" stroke-width="1" font-size="16" >H</text>
<text x="450.581217" y="274.453612" fill="rgb(191,191,191)"  stroke="rgb(191,191,191)" stroke-width="1" font-size="16" >H</text>
<text x="502.973462" y="213.587689" fill="rgb(191,191,191)"  stroke="rgb(191,191,191)" stroke-width="1" font-size="16" >H</text>
<text x="479.386349" y="163.955289" fill="rgb(191,191,191)"  stroke="rgb(191,191,191)" stroke-width="1" font-size="16" >H</text>
<text x="435.402072" y="188.459363" fill="rgb(191,191,191)"  stroke="rgb(191,191,191)" stroke-width="1" font-size="16" >H</text>
<text x="528.427353" y="175.048430" fill="rgb(191,191,191)"  stroke="rgb(191,191,191)" stroke-width="1" font-size="16" >H</text>
<text x="520.171714" y="186.721020" fill="rgb(191,191,191)"  stroke="rgb(191,191,191)" stroke-width="1" font-size="16" >H</text>
<text x="593.182148" y="197.267569" fill="rgb(191,191,191)"  stroke="rgb(191,191,191)" stroke-width="1" font-size="16" >H</text>
<text x="603.940763" y="142.966730" fill="rgb(191,191,191)"  stroke="rgb(191,191,191)" stroke-width="1" font-size="16" >H</text>
<text x="614.236417" y="173.223468" fill="rgb(191,191,191)"  stroke="rgb(191,191,191)" stroke-width="1" font-size="16" >H</text>
<text x="664.499042" y="197.142121" fill="rgb(191,191,191)"  stroke="rgb(191,191,191)" stroke-width="1" font-size="16" >H</text>
<text x="698.575954" y="192.497578" fill="rgb(191,191,191)"  stroke="rgb(191,191,191)" stroke-width="1" font-size="16" >H</text>
<text x="683.387848" y="147.739708" fill="rgb(191,191,191)"  stroke="rgb(191,191,191)" stroke-width="1" font-size="16" >H</text>
<text x="700.018600" y="133.408827" fill="rgb(191,191,191)"  stroke="rgb(191,191,191)" stroke-width="1" font-size="16" >H</text>
<text x="733.100893" y="158.728310" fill="rgb(191,191,191)"  stroke="rgb(191,191,191)" stroke-width="1" font-size="16" >H</text>
<text x="783.342609" y="138.991240" fill="rgb(191,191,191)"  stroke="rgb(191,191,191)" stroke-width="1" font-size="16" >H</text>
<text x="843.978545" y="142.103532" fill="rgb(191,191,191)"  stroke="rgb(191,191,191)" stroke-width="1" font-size="16" >H</text>
<text x="796.669911" y="113.361125" fill="rgb(191,191,191)"  stroke="rgb(191,191,191)" stroke-width="1" font-size="16" >H</text>
<text x="828.623176" y="114.074981" fill="rgb(191,191,191)"  stroke="rgb(191,191,191)" stroke-width="1" font-size="16" >H</text>
<text x="803.512772" y="169.878202" fill="rgb(191,191,191)"  stroke="rgb(191,191,191)" stroke-width="1" font-size="16" >H</text>
<text x="814.677598" y="115.660995" fill="rgb(191,191,191)"  stroke="rgb(191,191,191)" stroke-width="1" font-size="16" >H</text>
<text x="824.746252" y="145.995391" fill="rgb(191,191,191)"  stroke="rgb(191,191,191)" stroke-width="1" font-size="16" >H</text>
</svg>
</g>
<text font-size="18.000000" fill ="black" font-family="sans-serif"
x="10.000000" y="20.000000" ></text>
</svg>
