<?xml version="1.0"?>
<svg version="1.1" id="topsvg"
xmlns="http://www.w3.org/2000/svg" xmlns:xlink="http://www.w3.org/1999/xlink"
xmlns:cml="http://www.xml-cml.org/schema" x="0" y="0" width="200px" height="200px" viewBox="0 0 100 100">
<title> - Open Babel Depiction</title>
<rect x="0" y="0" width="100" height="100" fill="white"/>
<g transform="translate(0,0)">
<svg width="100" height="100" x="0" y="0" viewBox="0 0 352.125 343.372"
font-family="sans-serif" stroke="rgb(0,0,0)" stroke-width="2"  stroke-linecap="round">
<line x1="158.8" y1="246.6" x2="118.9" y2="268.4" stroke="rgb(0,0,0)"  stroke-width="2.0"/>
<line x1="160.2" y1="196.7" x2="158.8" y2="246.6" stroke="rgb(0,0,0)"  stroke-width="2.0"/>
<polygon points="160.221416 196.735701 199.257742 171.765608 202.970745 178.851764 " stroke-width="2.000000" fill="rgb(0,0,0)"  stroke="rgb(0,0,0)" />
<polygon points="120.673141 173.910097 162.220917 193.271311 158.221916 200.200091 " stroke-width="2.000000" fill="rgb(0,0,0)"  stroke="rgb(0,0,0)" />
<line x1="120.7" y1="173.9" x2="76.7" y2="193.1" stroke="rgb(0,0,0)"  stroke-width="2.0"/>
<line x1="234.0" y1="109.5" x2="233.3" y2="108.1" stroke="rgb(0,0,0)"  stroke-width="1.0"/>
<line x1="227.8" y1="113.4" x2="226.5" y2="110.9" stroke="rgb(0,0,0)"  stroke-width="1.0"/>
<line x1="221.6" y1="117.3" x2="219.7" y2="113.6" stroke="rgb(0,0,0)"  stroke-width="1.0"/>
<line x1="215.3" y1="121.3" x2="212.8" y2="116.4" stroke="rgb(0,0,0)"  stroke-width="1.0"/>
<line x1="209.1" y1="125.2" x2="206.0" y2="119.2" stroke="rgb(0,0,0)"  stroke-width="1.0"/>
<line x1="202.9" y1="129.1" x2="199.2" y2="122.0" stroke="rgb(0,0,0)"  stroke-width="1.0"/>
<line x1="241.8" y1="104.6" x2="249.8" y2="69.7" stroke="rgb(0,0,0)"  stroke-width="2.0"/>
<polygon points="242.188252 197.721070 199.198283 178.819967 203.030204 171.797405 " stroke-width="2.000000" fill="rgb(0,0,0)"  stroke="rgb(0,0,0)" />
<line x1="242.2" y1="197.7" x2="241.1" y2="247.7" stroke="rgb(0,0,0)"  stroke-width="2.0"/>
<line x1="201.1" y1="269.4" x2="158.8" y2="246.6" stroke="rgb(0,0,0)"  stroke-width="2.0"/>
<line x1="201.9" y1="135.5" x2="200.3" y2="135.5" stroke="rgb(0,0,0)"  stroke-width="1.0"/>
<line x1="202.5" y1="143.4" x2="199.6" y2="143.5" stroke="rgb(0,0,0)"  stroke-width="1.0"/>
<line x1="203.2" y1="151.4" x2="199.0" y2="151.4" stroke="rgb(0,0,0)"  stroke-width="1.0"/>
<line x1="203.8" y1="159.4" x2="198.4" y2="159.4" stroke="rgb(0,0,0)"  stroke-width="1.0"/>
<line x1="204.5" y1="167.3" x2="197.7" y2="167.3" stroke="rgb(0,0,0)"  stroke-width="1.0"/>
<line x1="205.1" y1="175.3" x2="197.1" y2="175.3" stroke="rgb(0,0,0)"  stroke-width="1.0"/>
<line x1="201.1" y1="125.5" x2="200.6" y2="74.0" stroke="rgb(0,0,0)"  stroke-width="2.0"/>
<line x1="241.1" y1="247.7" x2="280.7" y2="264.6" stroke="rgb(0,0,0)"  stroke-width="2.0"/>
<line x1="294.3" y1="282.6" x2="294.9" y2="287.4" stroke="rgb(0,0,0)"  stroke-width="2.0"/>
<line x1="200.4" y1="208.4" x2="201.1" y2="175.3" stroke="rgb(0,0,0)"  stroke-width="2.0"/>
<line x1="54.3" y1="190.5" x2="50.5" y2="187.7" stroke="rgb(0,0,0)"  stroke-width="2.0"/>
<line x1="265.1" y1="53.2" x2="269.7" y2="51.8" stroke="rgb(0,0,0)"  stroke-width="2.0"/>
<line x1="158.8" y1="246.6" x2="176.9" y2="236.1" stroke="rgb(0,0,0)"  stroke-width="2.0"/>
<line x1="118.9" y1="268.4" x2="101.0" y2="257.5" stroke="rgb(0,0,0)"  stroke-width="2.0"/>
<line x1="118.9" y1="268.4" x2="118.4" y2="289.4" stroke="rgb(0,0,0)"  stroke-width="2.0"/>
<line x1="118.9" y1="268.4" x2="100.5" y2="278.5" stroke="rgb(0,0,0)"  stroke-width="2.0"/>
<line x1="160.2" y1="196.7" x2="178.0" y2="207.9" stroke="rgb(0,0,0)"  stroke-width="2.0"/>
<line x1="120.7" y1="173.9" x2="103.0" y2="162.6" stroke="rgb(0,0,0)"  stroke-width="2.0"/>
<line x1="119.6" y1="126.4" x2="101.5" y2="115.9" stroke="rgb(0,0,0)"  stroke-width="2.0"/>
<line x1="119.6" y1="126.4" x2="119.9" y2="105.4" stroke="rgb(0,0,0)"  stroke-width="2.0"/>
<line x1="241.8" y1="104.6" x2="241.6" y2="125.6" stroke="rgb(0,0,0)"  stroke-width="2.0"/>
<line x1="282.6" y1="126.7" x2="300.6" y2="116.0" stroke="rgb(0,0,0)"  stroke-width="2.0"/>
<line x1="282.6" y1="126.7" x2="300.8" y2="137.1" stroke="rgb(0,0,0)"  stroke-width="2.0"/>
<line x1="282.6" y1="174.9" x2="300.7" y2="185.5" stroke="rgb(0,0,0)"  stroke-width="2.0"/>
<line x1="282.6" y1="174.9" x2="282.4" y2="196.0" stroke="rgb(0,0,0)"  stroke-width="2.0"/>
<line x1="242.2" y1="197.7" x2="260.2" y2="208.5" stroke="rgb(0,0,0)"  stroke-width="2.0"/>
<line x1="201.1" y1="269.4" x2="201.7" y2="290.4" stroke="rgb(0,0,0)"  stroke-width="2.0"/>
<line x1="201.1" y1="269.4" x2="219.0" y2="258.3" stroke="rgb(0,0,0)"  stroke-width="2.0"/>
<line x1="201.1" y1="269.4" x2="219.6" y2="279.3" stroke="rgb(0,0,0)"  stroke-width="2.0"/>
<line x1="159.5" y1="104.8" x2="159.1" y2="83.8" stroke="rgb(0,0,0)"  stroke-width="2.0"/>
<line x1="159.5" y1="104.8" x2="141.3" y2="94.2" stroke="rgb(0,0,0)"  stroke-width="2.0"/>
<line x1="241.1" y1="247.7" x2="223.4" y2="259.1" stroke="rgb(0,0,0)"  stroke-width="2.0"/>
<line x1="241.1" y1="247.7" x2="242.9" y2="268.6" stroke="rgb(0,0,0)"  stroke-width="2.0"/>
<line x1="200.6" y1="74.0" x2="218.6" y2="63.3" stroke="rgb(0,0,0)"  stroke-width="2.0"/>
<line x1="200.6" y1="74.0" x2="182.3" y2="63.7" stroke="rgb(0,0,0)"  stroke-width="2.0"/>
<line x1="200.6" y1="74.0" x2="200.4" y2="53.0" stroke="rgb(0,0,0)"  stroke-width="2.0"/>
<line x1="119.6" y1="126.4" x2="120.7" y2="173.9" stroke="rgb(0,0,0)"  stroke-width="2.0"/>
<line x1="120.7" y1="173.9" x2="160.2" y2="196.7" stroke="rgb(0,0,0)"  stroke-width="2.0"/>
<line x1="160.2" y1="196.7" x2="201.1" y2="175.3" stroke="rgb(0,0,0)"  stroke-width="2.0"/>
<line x1="201.1" y1="175.3" x2="201.1" y2="125.5" stroke="rgb(0,0,0)"  stroke-width="2.0"/>
<line x1="201.1" y1="125.5" x2="159.5" y2="104.8" stroke="rgb(0,0,0)"  stroke-width="2.0"/>
<line x1="159.5" y1="104.8" x2="119.6" y2="126.4" stroke="rgb(0,0,0)"  stroke-width="2.0"/>
<line x1="282.6" y1="174.9" x2="282.6" y2="126.7" stroke="rgb(0,0,0)"  stroke-width="2.0"/>
<line x1="282.6" y1="126.7" x2="241.8" y2="104.6" stroke="rgb(0,0,0)"  stroke-width="2.0"/>
<line x1="241.8" y1="104.6" x2="201.1" y2="125.5" stroke="rgb(0,0,0)"  stroke-width="2.0"/>
<line x1="201.1" y1="175.3" x2="242.2" y2="197.7" stroke="rgb(0,0,0)"  stroke-width="2.0"/>
<line x1="242.2" y1="197.7" x2="282.6" y2="174.9" stroke="rgb(0,0,0)"  stroke-width="2.0"/>
<text x="286.709091" y="277.653032" fill="rgb(255,12,12)"  stroke="rgb(255,12,12)" stroke-width="1" font-size="16" >O</text>
<text x="194.135231" y="229.404899" fill="rgb(191,191,191)"  stroke="rgb(191,191,191)" stroke-width="1" font-size="16" >H</text>
<text x="58.802700" y="206.261434" fill="rgb(255,12,12)"  stroke="rgb(255,12,12)" stroke-width="1" font-size="16" >O</text>
<text x="246.696739" y="65.045294" fill="rgb(255,12,12)"  stroke="rgb(255,12,12)" stroke-width="1" font-size="16" >O</text>
<text x="290.434423" y="308.259875" fill="rgb(191,191,191)"  stroke="rgb(191,191,191)" stroke-width="1" font-size="16" >H</text>
<text x="34.000000" y="187.943100" fill="rgb(191,191,191)"  stroke="rgb(191,191,191)" stroke-width="1" font-size="16" >H</text>
<text x="276.168818" y="55.983075" fill="rgb(191,191,191)"  stroke="rgb(191,191,191)" stroke-width="1" font-size="16" >H</text>
<text x="182.202045" y="237.600470" fill="rgb(191,191,191)"  stroke="rgb(191,191,191)" stroke-width="1" font-size="16" >H</text>
<text x="83.877125" y="258.722932" fill="rgb(191,191,191)"  stroke="rgb(191,191,191)" stroke-width="1" font-size="16" >H</text>
<text x="112.146217" y="310.405911" fill="rgb(191,191,191)"  stroke="rgb(191,191,191)" stroke-width="1" font-size="16" >H</text>
<text x="83.092080" y="292.725006" fill="rgb(191,191,191)"  stroke="rgb(191,191,191)" stroke-width="1" font-size="16" >H</text>
<text x="183.059947" y="222.766132" fill="rgb(191,191,191)"  stroke="rgb(191,191,191)" stroke-width="1" font-size="16" >H</text>
<text x="86.019628" y="163.587064" fill="rgb(191,191,191)"  stroke="rgb(191,191,191)" stroke-width="1" font-size="16" >H</text>
<text x="84.215547" y="117.378763" fill="rgb(191,191,191)"  stroke="rgb(191,191,191)" stroke-width="1" font-size="16" >H</text>
<text x="114.114824" y="100.439349" fill="rgb(191,191,191)"  stroke="rgb(191,191,191)" stroke-width="1" font-size="16" >H</text>
<text x="235.403375" y="146.622058" fill="rgb(191,191,191)"  stroke="rgb(191,191,191)" stroke-width="1" font-size="16" >H</text>
<text x="305.789246" y="117.356332" fill="rgb(191,191,191)"  stroke="rgb(191,191,191)" stroke-width="1" font-size="16" >H</text>
<text x="306.124929" y="151.558357" fill="rgb(191,191,191)"  stroke="rgb(191,191,191)" stroke-width="1" font-size="16" >H</text>
<text x="305.928619" y="200.102608" fill="rgb(191,191,191)"  stroke="rgb(191,191,191)" stroke-width="1" font-size="16" >H</text>
<text x="276.303874" y="216.959675" fill="rgb(191,191,191)"  stroke="rgb(191,191,191)" stroke-width="1" font-size="16" >H</text>
<text x="265.362023" y="223.203873" fill="rgb(191,191,191)"  stroke="rgb(191,191,191)" stroke-width="1" font-size="16" >H</text>
<text x="196.121561" y="311.371944" fill="rgb(191,191,191)"  stroke="rgb(191,191,191)" stroke-width="1" font-size="16" >H</text>
<text x="224.013366" y="259.484382" fill="rgb(191,191,191)"  stroke="rgb(191,191,191)" stroke-width="1" font-size="16" >H</text>
<text x="225.046113" y="293.479834" fill="rgb(191,191,191)"  stroke="rgb(191,191,191)" stroke-width="1" font-size="16" >H</text>
<text x="152.900676" y="78.797953" fill="rgb(191,191,191)"  stroke="rgb(191,191,191)" stroke-width="1" font-size="16" >H</text>
<text x="124.113497" y="95.669981" fill="rgb(191,191,191)"  stroke="rgb(191,191,191)" stroke-width="1" font-size="16" >H</text>
<text x="206.481829" y="274.099038" fill="rgb(191,191,191)"  stroke="rgb(191,191,191)" stroke-width="1" font-size="16" >H</text>
<text x="237.956316" y="289.551249" fill="rgb(191,191,191)"  stroke="rgb(191,191,191)" stroke-width="1" font-size="16" >H</text>
<text x="223.843215" y="64.719470" fill="rgb(191,191,191)"  stroke="rgb(191,191,191)" stroke-width="1" font-size="16" >H</text>
<text x="164.936965" y="65.290070" fill="rgb(191,191,191)"  stroke="rgb(191,191,191)" stroke-width="1" font-size="16" >H</text>
<text x="194.225372" y="48.000000" fill="rgb(191,191,191)"  stroke="rgb(191,191,191)" stroke-width="1" font-size="16" >H</text>
</svg>
</g>
<text font-size="18.000000" fill ="black" font-family="sans-serif"
x="10.000000" y="20.000000" ></text>
</svg>
