<?xml version="1.0"?>
<svg version="1.1" id="topsvg"
xmlns="http://www.w3.org/2000/svg" xmlns:xlink="http://www.w3.org/1999/xlink"
xmlns:cml="http://www.xml-cml.org/schema" x="0" y="0" width="200px" height="200px" viewBox="0 0 100 100">
<title> - Open Babel Depiction</title>
<rect x="0" y="0" width="100" height="100" fill="white"/>
<g transform="translate(0,0)">
<svg width="100" height="100" x="0" y="0" viewBox="0 0 217.087 327.553"
font-family="sans-serif" stroke="rgb(0,0,0)" stroke-width="2"  stroke-linecap="round">
<line x1="71.4" y1="281.3" x2="109.5" y2="262.1" stroke="rgb(0,0,0)"  stroke-width="2.0"/>
<line x1="111.1" y1="259.6" x2="139.8" y2="278.0" stroke="rgb(0,0,0)"  stroke-width="2.0"/>
<line x1="107.9" y1="264.6" x2="136.5" y2="283.1" stroke="rgb(0,0,0)"  stroke-width="2.0"/>
<line x1="68.0" y1="145.9" x2="51.6" y2="136.2" stroke="rgb(0,0,0)"  stroke-width="2.0"/>
<line x1="67.7" y1="193.8" x2="51.2" y2="203.4" stroke="rgb(0,0,0)"  stroke-width="2.0"/>
<line x1="108.3" y1="123.1" x2="116.7" y2="107.1" stroke="rgb(0,0,0)"  stroke-width="2.0"/>
<line x1="115.8" y1="84.6" x2="106.2" y2="69.4" stroke="rgb(0,0,0)"  stroke-width="2.0"/>
<line x1="106.2" y1="69.4" x2="115.6" y2="51.5" stroke="rgb(0,0,0)"  stroke-width="2.0"/>
<line x1="106.2" y1="69.4" x2="86.0" y2="70.2" stroke="rgb(0,0,0)"  stroke-width="2.0"/>
<line x1="106.2" y1="69.4" x2="95.4" y2="52.3" stroke="rgb(0,0,0)"  stroke-width="2.0"/>
<line x1="149.2" y1="146.1" x2="165.6" y2="136.5" stroke="rgb(0,0,0)"  stroke-width="2.0"/>
<line x1="149.3" y1="193.0" x2="165.8" y2="202.5" stroke="rgb(0,0,0)"  stroke-width="2.0"/>
<line x1="108.5" y1="216.7" x2="109.5" y2="262.1" stroke="rgb(0,0,0)"  stroke-width="2.0"/>
<line x1="68.0" y1="145.9" x2="67.7" y2="193.8" stroke="rgb(0,0,0)"  stroke-width="2.0"/>
<line x1="67.7" y1="193.8" x2="108.5" y2="216.7" stroke="rgb(0,0,0)"  stroke-width="2.0"/>
<line x1="76.4" y1="190.5" x2="106.8" y2="207.5" stroke="rgb(0,0,0)"  stroke-width="2.0"/>
<line x1="108.5" y1="216.7" x2="149.3" y2="193.0" stroke="rgb(0,0,0)"  stroke-width="2.0"/>
<line x1="149.3" y1="193.0" x2="149.2" y2="146.1" stroke="rgb(0,0,0)"  stroke-width="2.0"/>
<line x1="142.1" y1="187.0" x2="142.0" y2="152.1" stroke="rgb(0,0,0)"  stroke-width="2.0"/>
<line x1="149.2" y1="146.1" x2="108.3" y2="123.1" stroke="rgb(0,0,0)"  stroke-width="2.0"/>
<line x1="108.3" y1="123.1" x2="68.0" y2="145.9" stroke="rgb(0,0,0)"  stroke-width="2.0"/>
<line x1="106.6" y1="132.3" x2="76.8" y2="149.2" stroke="rgb(0,0,0)"  stroke-width="2.0"/>
<text x="41.786493" y="295.162007" fill="rgb(30,239,30)"  stroke="rgb(30,239,30)" stroke-width="1" font-size="16" >Cl</text>
<text x="116.737026" y="103.641170" fill="rgb(255,12,12)"  stroke="rgb(255,12,12)" stroke-width="1" font-size="16" >O</text>
<text x="143.078668" y="295.553081" fill="rgb(255,12,12)"  stroke="rgb(255,12,12)" stroke-width="1" font-size="16" >O</text>
<text x="34.422112" y="137.618070" fill="rgb(191,191,191)"  stroke="rgb(191,191,191)" stroke-width="1" font-size="16" >H</text>
<text x="34.000000" y="217.912435" fill="rgb(191,191,191)"  stroke="rgb(191,191,191)" stroke-width="1" font-size="16" >H</text>
<text x="115.619672" y="48.000000" fill="rgb(191,191,191)"  stroke="rgb(191,191,191)" stroke-width="1" font-size="16" >H</text>
<text x="66.980592" y="78.708637" fill="rgb(191,191,191)"  stroke="rgb(191,191,191)" stroke-width="1" font-size="16" >H</text>
<text x="82.437335" y="49.312892" fill="rgb(191,191,191)"  stroke="rgb(191,191,191)" stroke-width="1" font-size="16" >H</text>
<text x="170.838730" y="137.878786" fill="rgb(191,191,191)"  stroke="rgb(191,191,191)" stroke-width="1" font-size="16" >H</text>
<text x="171.087031" y="216.962683" fill="rgb(191,191,191)"  stroke="rgb(191,191,191)" stroke-width="1" font-size="16" >H</text>
</svg>
</g>
<text font-size="18.000000" fill ="black" font-family="sans-serif"
x="10.000000" y="20.000000" ></text>
</svg>
