<?xml version="1.0"?>
<svg version="1.1" id="topsvg"
xmlns="http://www.w3.org/2000/svg" xmlns:xlink="http://www.w3.org/1999/xlink"
xmlns:cml="http://www.xml-cml.org/schema" x="0" y="0" width="200px" height="200px" viewBox="0 0 100 100">
<title> - Open Babel Depiction</title>
<rect x="0" y="0" width="100" height="100" fill="white"/>
<g transform="translate(0,0)">
<svg width="100" height="100" x="0" y="0" viewBox="0 0 296.989 431.931"
font-family="sans-serif" stroke="rgb(0,0,0)" stroke-width="2"  stroke-linecap="round">
<line x1="121.1" y1="338.8" x2="165.3" y2="313.9" stroke="rgb(0,0,0)"  stroke-width="2.0"/>
<line x1="121.1" y1="338.8" x2="104.0" y2="328.6" stroke="rgb(0,0,0)"  stroke-width="2.0"/>
<line x1="121.1" y1="338.8" x2="120.9" y2="358.7" stroke="rgb(0,0,0)"  stroke-width="2.0"/>
<line x1="121.1" y1="338.8" x2="103.8" y2="348.6" stroke="rgb(0,0,0)"  stroke-width="2.0"/>
<line x1="165.3" y1="313.9" x2="151.8" y2="360.3" stroke="rgb(0,0,0)"  stroke-width="2.0"/>
<line x1="211.5" y1="313.9" x2="223.4" y2="329.9" stroke="rgb(0,0,0)"  stroke-width="2.0"/>
<line x1="211.5" y1="313.9" x2="202.6" y2="331.7" stroke="rgb(0,0,0)"  stroke-width="2.0"/>
<line x1="151.8" y1="360.3" x2="132.5" y2="365.1" stroke="rgb(0,0,0)"  stroke-width="2.0"/>
<line x1="151.8" y1="360.3" x2="165.6" y2="374.7" stroke="rgb(0,0,0)"  stroke-width="2.0"/>
<line x1="151.8" y1="360.3" x2="146.3" y2="379.4" stroke="rgb(0,0,0)"  stroke-width="2.0"/>
<line x1="187.6" y1="242.2" x2="187.6" y2="196.7" stroke="rgb(0,0,0)"  stroke-width="2.0"/>
<line x1="187.6" y1="196.7" x2="204.8" y2="206.8" stroke="rgb(0,0,0)"  stroke-width="2.0"/>
<line x1="67.2" y1="174.0" x2="51.1" y2="183.7" stroke="rgb(0,0,0)"  stroke-width="2.0"/>
<line x1="67.7" y1="127.5" x2="51.6" y2="117.8" stroke="rgb(0,0,0)"  stroke-width="2.0"/>
<line x1="110.1" y1="70.5" x2="110.7" y2="105.5" stroke="rgb(0,0,0)"  stroke-width="2.0"/>
<line x1="104.1" y1="70.6" x2="104.7" y2="105.6" stroke="rgb(0,0,0)"  stroke-width="2.0"/>
<line x1="187.8" y1="104.6" x2="187.5" y2="70.6" stroke="rgb(0,0,0)"  stroke-width="2.0"/>
<line x1="180.1" y1="109.8" x2="179.3" y2="108.4" stroke="rgb(0,0,0)"  stroke-width="1.0"/>
<line x1="173.9" y1="113.9" x2="172.5" y2="111.4" stroke="rgb(0,0,0)"  stroke-width="1.0"/>
<line x1="167.7" y1="118.1" x2="165.7" y2="114.5" stroke="rgb(0,0,0)"  stroke-width="1.0"/>
<line x1="161.6" y1="122.2" x2="158.9" y2="117.5" stroke="rgb(0,0,0)"  stroke-width="1.0"/>
<line x1="155.4" y1="126.4" x2="152.2" y2="120.5" stroke="rgb(0,0,0)"  stroke-width="1.0"/>
<line x1="149.3" y1="130.6" x2="145.4" y2="123.6" stroke="rgb(0,0,0)"  stroke-width="1.0"/>
<line x1="187.8" y1="104.6" x2="187.8" y2="124.5" stroke="rgb(0,0,0)"  stroke-width="2.0"/>
<line x1="228.3" y1="126.7" x2="245.5" y2="116.5" stroke="rgb(0,0,0)"  stroke-width="2.0"/>
<line x1="228.3" y1="126.7" x2="245.7" y2="136.5" stroke="rgb(0,0,0)"  stroke-width="2.0"/>
<line x1="228.5" y1="174.1" x2="245.7" y2="184.2" stroke="rgb(0,0,0)"  stroke-width="2.0"/>
<line x1="228.5" y1="174.1" x2="228.2" y2="194.1" stroke="rgb(0,0,0)"  stroke-width="2.0"/>
<polygon points="147.247686 172.715856 189.661374 193.254924 185.576071 200.133172 " stroke-width="2.000000" fill="rgb(0,0,0)"  stroke="rgb(0,0,0)" />
<line x1="147.2" y1="172.7" x2="147.2" y2="206.9" stroke="rgb(0,0,0)"  stroke-width="2.0"/>
<line x1="148.1" y1="136.2" x2="146.5" y2="136.2" stroke="rgb(0,0,0)"  stroke-width="1.0"/>
<line x1="148.7" y1="143.5" x2="145.9" y2="143.5" stroke="rgb(0,0,0)"  stroke-width="1.0"/>
<line x1="149.4" y1="150.8" x2="145.2" y2="150.8" stroke="rgb(0,0,0)"  stroke-width="1.0"/>
<line x1="150.0" y1="158.1" x2="144.6" y2="158.1" stroke="rgb(0,0,0)"  stroke-width="1.0"/>
<line x1="150.6" y1="165.4" x2="143.9" y2="165.4" stroke="rgb(0,0,0)"  stroke-width="1.0"/>
<line x1="151.2" y1="172.7" x2="143.2" y2="172.7" stroke="rgb(0,0,0)"  stroke-width="1.0"/>
<line x1="147.3" y1="127.1" x2="148.0" y2="72.9" stroke="rgb(0,0,0)"  stroke-width="2.0"/>
<line x1="107.8" y1="195.1" x2="108.2" y2="215.1" stroke="rgb(0,0,0)"  stroke-width="2.0"/>
<line x1="107.8" y1="195.1" x2="125.1" y2="205.0" stroke="rgb(0,0,0)"  stroke-width="2.0"/>
<line x1="148.0" y1="72.9" x2="165.4" y2="63.2" stroke="rgb(0,0,0)"  stroke-width="2.0"/>
<line x1="148.0" y1="72.9" x2="130.9" y2="62.7" stroke="rgb(0,0,0)"  stroke-width="2.0"/>
<line x1="148.0" y1="72.9" x2="148.3" y2="53.0" stroke="rgb(0,0,0)"  stroke-width="2.0"/>
<line x1="198.5" y1="51.0" x2="201.9" y2="49.0" stroke="rgb(0,0,0)"  stroke-width="2.0"/>
<line x1="162.6" y1="260.4" x2="187.6" y2="242.2" stroke="rgb(0,0,0)"  stroke-width="2.0"/>
<line x1="167.9" y1="265.4" x2="187.0" y2="251.5" stroke="rgb(0,0,0)"  stroke-width="2.0"/>
<line x1="187.6" y1="242.2" x2="214.7" y2="261.8" stroke="rgb(0,0,0)"  stroke-width="2.0"/>
<line x1="221.4" y1="281.8" x2="211.5" y2="313.9" stroke="rgb(0,0,0)"  stroke-width="2.0"/>
<line x1="211.5" y1="313.9" x2="165.3" y2="313.9" stroke="rgb(0,0,0)"  stroke-width="2.0"/>
<line x1="165.3" y1="313.9" x2="154.4" y2="281.7" stroke="rgb(0,0,0)"  stroke-width="2.0"/>
<line x1="67.2" y1="174.0" x2="107.8" y2="195.1" stroke="rgb(0,0,0)"  stroke-width="2.0"/>
<line x1="107.8" y1="195.1" x2="147.2" y2="172.7" stroke="rgb(0,0,0)"  stroke-width="2.0"/>
<line x1="147.2" y1="172.7" x2="147.3" y2="127.1" stroke="rgb(0,0,0)"  stroke-width="2.0"/>
<line x1="147.3" y1="127.1" x2="107.7" y2="105.6" stroke="rgb(0,0,0)"  stroke-width="2.0"/>
<line x1="107.7" y1="105.6" x2="67.7" y2="127.5" stroke="rgb(0,0,0)"  stroke-width="2.0"/>
<line x1="67.7" y1="127.5" x2="67.2" y2="174.0" stroke="rgb(0,0,0)"  stroke-width="2.0"/>
<line x1="74.9" y1="133.6" x2="74.5" y2="168.1" stroke="rgb(0,0,0)"  stroke-width="2.0"/>
<line x1="187.8" y1="104.6" x2="147.3" y2="127.1" stroke="rgb(0,0,0)"  stroke-width="2.0"/>
<line x1="147.2" y1="172.7" x2="187.6" y2="196.7" stroke="rgb(0,0,0)"  stroke-width="2.0"/>
<line x1="187.6" y1="196.7" x2="228.5" y2="174.1" stroke="rgb(0,0,0)"  stroke-width="2.0"/>
<line x1="228.5" y1="174.1" x2="228.3" y2="126.7" stroke="rgb(0,0,0)"  stroke-width="2.0"/>
<line x1="228.3" y1="126.7" x2="187.8" y2="104.6" stroke="rgb(0,0,0)"  stroke-width="2.0"/>
<text x="144.239958" y="277.395160" fill="rgb(12,12,255)"  stroke="rgb(12,12,255)" stroke-width="1" font-size="16" >N</text>
<text x="219.231451" y="277.395160" fill="rgb(255,12,12)"  stroke="rgb(255,12,12)" stroke-width="1" font-size="16" >O</text>
<text x="100.947455" y="65.571898" fill="rgb(255,12,12)"  stroke="rgb(255,12,12)" stroke-width="1" font-size="16" >O</text>
<text x="181.347817" y="65.571898" fill="rgb(255,12,12)"  stroke="rgb(255,12,12)" stroke-width="1" font-size="16" >O</text>
<text x="141.149175" y="227.918014" fill="rgb(191,191,191)"  stroke="rgb(191,191,191)" stroke-width="1" font-size="16" >H</text>
<text x="207.077657" y="50.416598" fill="rgb(191,191,191)"  stroke="rgb(191,191,191)" stroke-width="1" font-size="16" >H</text>
<text x="86.780343" y="330.015423" fill="rgb(191,191,191)"  stroke="rgb(191,191,191)" stroke-width="1" font-size="16" >H</text>
<text x="114.782092" y="379.723454" fill="rgb(191,191,191)"  stroke="rgb(191,191,191)" stroke-width="1" font-size="16" >H</text>
<text x="86.429397" y="362.955036" fill="rgb(191,191,191)"  stroke="rgb(191,191,191)" stroke-width="1" font-size="16" >H</text>
<text x="225.114404" y="348.387723" fill="rgb(191,191,191)"  stroke="rgb(191,191,191)" stroke-width="1" font-size="16" >H</text>
<text x="190.709440" y="351.312268" fill="rgb(191,191,191)"  stroke="rgb(191,191,191)" stroke-width="1" font-size="16" >H</text>
<text x="113.840081" y="376.167823" fill="rgb(191,191,191)"  stroke="rgb(191,191,191)" stroke-width="1" font-size="16" >H</text>
<text x="168.636821" y="392.055799" fill="rgb(191,191,191)"  stroke="rgb(191,191,191)" stroke-width="1" font-size="16" >H</text>
<text x="136.654611" y="399.930521" fill="rgb(191,191,191)"  stroke="rgb(191,191,191)" stroke-width="1" font-size="16" >H</text>
<text x="209.983731" y="221.440916" fill="rgb(191,191,191)"  stroke="rgb(191,191,191)" stroke-width="1" font-size="16" >H</text>
<text x="34.000000" y="198.370873" fill="rgb(191,191,191)"  stroke="rgb(191,191,191)" stroke-width="1" font-size="16" >H</text>
<text x="34.474084" y="119.158800" fill="rgb(191,191,191)"  stroke="rgb(191,191,191)" stroke-width="1" font-size="16" >H</text>
<text x="181.898863" y="145.498176" fill="rgb(191,191,191)"  stroke="rgb(191,191,191)" stroke-width="1" font-size="16" >H</text>
<text x="250.625673" y="117.847372" fill="rgb(191,191,191)"  stroke="rgb(191,191,191)" stroke-width="1" font-size="16" >H</text>
<text x="250.988932" y="150.934752" fill="rgb(191,191,191)"  stroke="rgb(191,191,191)" stroke-width="1" font-size="16" >H</text>
<text x="250.868872" y="198.829565" fill="rgb(191,191,191)"  stroke="rgb(191,191,191)" stroke-width="1" font-size="16" >H</text>
<text x="222.029779" y="215.068487" fill="rgb(191,191,191)"  stroke="rgb(191,191,191)" stroke-width="1" font-size="16" >H</text>
<text x="102.391257" y="236.054406" fill="rgb(191,191,191)"  stroke="rgb(191,191,191)" stroke-width="1" font-size="16" >H</text>
<text x="130.405320" y="219.430676" fill="rgb(191,191,191)"  stroke="rgb(191,191,191)" stroke-width="1" font-size="16" >H</text>
<text x="170.748650" y="64.826909" fill="rgb(191,191,191)"  stroke="rgb(191,191,191)" stroke-width="1" font-size="16" >H</text>
<text x="113.701550" y="64.106547" fill="rgb(191,191,191)"  stroke="rgb(191,191,191)" stroke-width="1" font-size="16" >H</text>
<text x="142.432897" y="48.000000" fill="rgb(191,191,191)"  stroke="rgb(191,191,191)" stroke-width="1" font-size="16" >H</text>
</svg>
</g>
<text font-size="18.000000" fill ="black" font-family="sans-serif"
x="10.000000" y="20.000000" ></text>
</svg>
