<?xml version="1.0"?>
<svg version="1.1" id="topsvg"
xmlns="http://www.w3.org/2000/svg" xmlns:xlink="http://www.w3.org/1999/xlink"
xmlns:cml="http://www.xml-cml.org/schema" x="0" y="0" width="200px" height="200px" viewBox="0 0 100 100">
<title> - Open Babel Depiction</title>
<rect x="0" y="0" width="100" height="100" fill="white"/>
<g transform="translate(0,0)">
<svg width="100" height="100" x="0" y="0" viewBox="0 0 567.836 395.202"
font-family="sans-serif" stroke="rgb(0,0,0)" stroke-width="2"  stroke-linecap="round">
<line x1="182.1" y1="242.3" x2="163.7" y2="256.2" stroke="rgb(0,0,0)"  stroke-width="2.0"/>
<line x1="182.1" y1="242.3" x2="186.6" y2="265.0" stroke="rgb(0,0,0)"  stroke-width="2.0"/>
<line x1="138.4" y1="167.5" x2="118.4" y2="179.1" stroke="rgb(0,0,0)"  stroke-width="2.0"/>
<line x1="138.4" y1="167.5" x2="118.4" y2="155.9" stroke="rgb(0,0,0)"  stroke-width="2.0"/>
<line x1="138.8" y1="116.8" x2="119.0" y2="110.5" stroke="rgb(0,0,0)"  stroke-width="2.0"/>
<line x1="138.8" y1="116.8" x2="120.1" y2="130.4" stroke="rgb(0,0,0)"  stroke-width="2.0"/>
<line x1="110.5" y1="94.2" x2="116.8" y2="74.4" stroke="rgb(0,0,0)"  stroke-width="2.0"/>
<line x1="94.2" y1="102.7" x2="74.4" y2="96.4" stroke="rgb(0,0,0)"  stroke-width="2.0"/>
<line x1="102.7" y1="119.0" x2="96.4" y2="138.8" stroke="rgb(0,0,0)"  stroke-width="2.0"/>
<line x1="116.8" y1="74.4" x2="139.4" y2="69.5" stroke="rgb(0,0,0)"  stroke-width="2.0"/>
<line x1="116.8" y1="74.4" x2="101.2" y2="57.4" stroke="rgb(0,0,0)"  stroke-width="2.0"/>
<line x1="116.8" y1="74.4" x2="123.8" y2="52.4" stroke="rgb(0,0,0)"  stroke-width="2.0"/>
<line x1="74.4" y1="96.4" x2="69.5" y2="73.9" stroke="rgb(0,0,0)"  stroke-width="2.0"/>
<line x1="74.4" y1="96.4" x2="57.4" y2="112.0" stroke="rgb(0,0,0)"  stroke-width="2.0"/>
<line x1="74.4" y1="96.4" x2="52.4" y2="89.5" stroke="rgb(0,0,0)"  stroke-width="2.0"/>
<line x1="96.4" y1="138.8" x2="73.9" y2="143.8" stroke="rgb(0,0,0)"  stroke-width="2.0"/>
<line x1="96.4" y1="138.8" x2="112.0" y2="155.9" stroke="rgb(0,0,0)"  stroke-width="2.0"/>
<line x1="96.4" y1="138.8" x2="89.5" y2="160.8" stroke="rgb(0,0,0)"  stroke-width="2.0"/>
<line x1="184.6" y1="53.2" x2="185.2" y2="91.1" stroke="rgb(0,0,0)"  stroke-width="2.0"/>
<line x1="178.6" y1="53.3" x2="179.2" y2="91.2" stroke="rgb(0,0,0)"  stroke-width="2.0"/>
<line x1="225.6" y1="115.7" x2="245.6" y2="104.1" stroke="rgb(0,0,0)"  stroke-width="2.0"/>
<line x1="225.6" y1="115.7" x2="245.6" y2="127.3" stroke="rgb(0,0,0)"  stroke-width="2.0"/>
<polygon points="225.611993 166.497787 185.047373 195.674788 180.910936 188.827168 " stroke-width="2.000000" fill="rgb(0,0,0)"  stroke="rgb(0,0,0)" />
<line x1="225.6" y1="166.5" x2="270.1" y2="191.9" stroke="rgb(0,0,0)"  stroke-width="2.0"/>
<line x1="225.6" y1="166.5" x2="245.6" y2="154.9" stroke="rgb(0,0,0)"  stroke-width="2.0"/>
<line x1="184.8" y1="243.0" x2="210.3" y2="260.5" stroke="rgb(0,0,0)"  stroke-width="2.0"/>
<line x1="184.8" y1="243.0" x2="170.4" y2="224.9" stroke="rgb(0,0,0)"  stroke-width="2.0"/>
<line x1="442.2" y1="186.6" x2="462.9" y2="187.4" stroke="rgb(0,0,0)"  stroke-width="2.0"/>
<line x1="442.2" y1="186.6" x2="416.9" y2="231.9" stroke="rgb(0,0,0)"  stroke-width="2.0"/>
<line x1="442.2" y1="186.6" x2="430.8" y2="166.5" stroke="rgb(0,0,0)"  stroke-width="2.0"/>
<line x1="442.2" y1="186.6" x2="419.0" y2="186.7" stroke="rgb(0,0,0)"  stroke-width="2.0"/>
<line x1="482.0" y1="199.3" x2="491.7" y2="217.6" stroke="rgb(0,0,0)"  stroke-width="2.0"/>
<line x1="491.7" y1="217.6" x2="479.5" y2="237.2" stroke="rgb(0,0,0)"  stroke-width="2.0"/>
<line x1="491.7" y1="217.6" x2="514.8" y2="218.4" stroke="rgb(0,0,0)"  stroke-width="2.0"/>
<line x1="491.7" y1="217.6" x2="502.6" y2="238.0" stroke="rgb(0,0,0)"  stroke-width="2.0"/>
<line x1="416.9" y1="231.9" x2="383.4" y2="292.1" stroke="rgb(0,0,0)"  stroke-width="2.0"/>
<line x1="420.6" y1="234.0" x2="387.0" y2="294.2" stroke="rgb(0,0,0)"  stroke-width="2.0"/>
<line x1="413.2" y1="229.9" x2="379.7" y2="290.1" stroke="rgb(0,0,0)"  stroke-width="2.0"/>
<line x1="314.1" y1="318.5" x2="367.3" y2="317.8" stroke="rgb(0,0,0)"  stroke-width="2.0"/>
<line x1="314.2" y1="324.5" x2="367.4" y2="323.8" stroke="rgb(0,0,0)"  stroke-width="2.0"/>
<line x1="314.2" y1="321.5" x2="308.6" y2="342.6" stroke="rgb(0,0,0)"  stroke-width="2.0"/>
<line x1="367.4" y1="320.8" x2="383.4" y2="292.1" stroke="rgb(0,0,0)"  stroke-width="2.0"/>
<line x1="367.4" y1="320.8" x2="378.6" y2="339.5" stroke="rgb(0,0,0)"  stroke-width="2.0"/>
<line x1="270.7" y1="296.0" x2="210.3" y2="260.5" stroke="rgb(0,0,0)"  stroke-width="2.0"/>
<line x1="268.6" y1="299.7" x2="208.1" y2="264.1" stroke="rgb(0,0,0)"  stroke-width="2.0"/>
<line x1="272.9" y1="292.4" x2="212.4" y2="256.9" stroke="rgb(0,0,0)"  stroke-width="2.0"/>
<line x1="270.7" y1="296.0" x2="314.2" y2="321.5" stroke="rgb(0,0,0)"  stroke-width="2.0"/>
<line x1="269.7" y1="182.1" x2="270.1" y2="191.9" stroke="rgb(0,0,0)"  stroke-width="2.0"/>
<line x1="273.9" y1="181.9" x2="274.3" y2="191.8" stroke="rgb(0,0,0)"  stroke-width="2.0"/>
<line x1="265.5" y1="182.2" x2="265.9" y2="192.1" stroke="rgb(0,0,0)"  stroke-width="2.0"/>
<line x1="268.6" y1="189.3" x2="316.3" y2="162.8" stroke="rgb(0,0,0)"  stroke-width="2.0"/>
<line x1="271.5" y1="194.5" x2="319.2" y2="168.1" stroke="rgb(0,0,0)"  stroke-width="2.0"/>
<line x1="182.1" y1="242.3" x2="184.8" y2="243.0" stroke="rgb(0,0,0)"  stroke-width="2.0"/>
<line x1="184.8" y1="243.0" x2="183.0" y2="192.3" stroke="rgb(0,0,0)"  stroke-width="2.0"/>
<line x1="183.0" y1="192.3" x2="182.1" y2="242.3" stroke="rgb(0,0,0)"  stroke-width="2.0"/>
<line x1="138.4" y1="167.5" x2="138.8" y2="116.8" stroke="rgb(0,0,0)"  stroke-width="2.0"/>
<line x1="138.8" y1="116.8" x2="182.2" y2="91.1" stroke="rgb(0,0,0)"  stroke-width="2.0"/>
<line x1="182.2" y1="91.1" x2="225.6" y2="115.7" stroke="rgb(0,0,0)"  stroke-width="2.0"/>
<line x1="225.6" y1="115.7" x2="225.6" y2="166.5" stroke="rgb(0,0,0)"  stroke-width="2.0"/>
<line x1="225.6" y1="166.5" x2="183.0" y2="192.3" stroke="rgb(0,0,0)"  stroke-width="2.0"/>
<line x1="183.0" y1="192.3" x2="138.4" y2="167.5" stroke="rgb(0,0,0)"  stroke-width="2.0"/>
<text x="100.617397" y="114.614022" fill="rgb(127,153,153)"  stroke="rgb(127,153,153)" stroke-width="1" font-size="16" >Si</text>
<text x="175.335405" y="48.226142" fill="rgb(255,12,12)"  stroke="rgb(255,12,12)" stroke-width="1" font-size="16" >O</text>
<text x="469.897237" y="195.826019" fill="rgb(255,12,12)"  stroke="rgb(255,12,12)" stroke-width="1" font-size="16" >O</text>
<text x="264.192354" y="203.062565" fill="rgb(17,127,178)"  stroke="rgb(17,127,178)" stroke-width="1" font-size="16" >Xx</text>
<text x="323.154674" y="167.159983" fill="rgb(178,178,0)"  stroke="rgb(178,178,0)" stroke-width="1" font-size="16" >S</text>
<text x="147.330919" y="272.073018" fill="rgb(191,191,191)"  stroke="rgb(191,191,191)" stroke-width="1" font-size="16" >H</text>
<text x="183.125492" y="285.705670" fill="rgb(191,191,191)"  stroke="rgb(191,191,191)" stroke-width="1" font-size="16" >H</text>
<text x="101.160813" y="193.648980" fill="rgb(191,191,191)"  stroke="rgb(191,191,191)" stroke-width="1" font-size="16" >H</text>
<text x="101.130436" y="157.337993" fill="rgb(191,191,191)"  stroke="rgb(191,191,191)" stroke-width="1" font-size="16" >H</text>
<text x="103.574120" y="146.010639" fill="rgb(191,191,191)"  stroke="rgb(191,191,191)" stroke-width="1" font-size="16" >H</text>
<text x="146.058448" y="74.647634" fill="rgb(191,191,191)"  stroke="rgb(191,191,191)" stroke-width="1" font-size="16" >H</text>
<text x="86.417702" y="55.786712" fill="rgb(191,191,191)"  stroke="rgb(191,191,191)" stroke-width="1" font-size="16" >H</text>
<text x="121.682360" y="48.000000" fill="rgb(191,191,191)"  stroke="rgb(191,191,191)" stroke-width="1" font-size="16" >H</text>
<text x="60.647634" y="69.172971" fill="rgb(191,191,191)"  stroke="rgb(191,191,191)" stroke-width="1" font-size="16" >H</text>
<text x="41.786712" y="128.813717" fill="rgb(191,191,191)"  stroke="rgb(191,191,191)" stroke-width="1" font-size="16" >H</text>
<text x="34.000000" y="93.549059" fill="rgb(191,191,191)"  stroke="rgb(191,191,191)" stroke-width="1" font-size="16" >H</text>
<text x="55.176346" y="154.583785" fill="rgb(191,191,191)"  stroke="rgb(191,191,191)" stroke-width="1" font-size="16" >H</text>
<text x="114.817093" y="173.444707" fill="rgb(191,191,191)"  stroke="rgb(191,191,191)" stroke-width="1" font-size="16" >H</text>
<text x="79.552434" y="181.231419" fill="rgb(191,191,191)"  stroke="rgb(191,191,191)" stroke-width="1" font-size="16" >H</text>
<text x="250.789219" y="105.564965" fill="rgb(191,191,191)"  stroke="rgb(191,191,191)" stroke-width="1" font-size="16" >H</text>
<text x="250.903977" y="141.734192" fill="rgb(191,191,191)"  stroke="rgb(191,191,191)" stroke-width="1" font-size="16" >H</text>
<text x="250.843223" y="156.362544" fill="rgb(191,191,191)"  stroke="rgb(191,191,191)" stroke-width="1" font-size="16" >H</text>
<text x="156.251716" y="222.770676" fill="rgb(191,191,191)"  stroke="rgb(191,191,191)" stroke-width="1" font-size="16" >H</text>
<text x="418.417856" y="163.194059" fill="rgb(191,191,191)"  stroke="rgb(191,191,191)" stroke-width="1" font-size="16" >H</text>
<text x="400.049721" y="194.739188" fill="rgb(191,191,191)"  stroke="rgb(191,191,191)" stroke-width="1" font-size="16" >H</text>
<text x="466.606364" y="256.256575" fill="rgb(191,191,191)"  stroke="rgb(191,191,191)" stroke-width="1" font-size="16" >H</text>
<text x="521.835652" y="226.888486" fill="rgb(191,191,191)"  stroke="rgb(191,191,191)" stroke-width="1" font-size="16" >H</text>
<text x="502.697960" y="257.518920" fill="rgb(191,191,191)"  stroke="rgb(191,191,191)" stroke-width="1" font-size="16" >H</text>
<text x="299.247747" y="363.201513" fill="rgb(191,191,191)"  stroke="rgb(191,191,191)" stroke-width="1" font-size="16" >H</text>
<text x="379.241277" y="358.698923" fill="rgb(191,191,191)"  stroke="rgb(191,191,191)" stroke-width="1" font-size="16" >H</text>
</svg>
</g>
<text font-size="18.000000" fill ="black" font-family="sans-serif"
x="10.000000" y="20.000000" ></text>
</svg>
