<?xml version="1.0"?>
<svg version="1.1" id="topsvg"
xmlns="http://www.w3.org/2000/svg" xmlns:xlink="http://www.w3.org/1999/xlink"
xmlns:cml="http://www.xml-cml.org/schema" x="0" y="0" width="200px" height="200px" viewBox="0 0 100 100">
<title> - Open Babel Depiction</title>
<rect x="0" y="0" width="100" height="100" fill="white"/>
<g transform="translate(0,0)">
<svg width="100" height="100" x="0" y="0" viewBox="0 0 478.733 406.957"
font-family="sans-serif" stroke="rgb(0,0,0)" stroke-width="2"  stroke-linecap="round">
<line x1="118.1" y1="332.6" x2="159.1" y2="309.1" stroke="rgb(0,0,0)"  stroke-width="2.0"/>
<line x1="121.0" y1="337.8" x2="162.1" y2="314.4" stroke="rgb(0,0,0)"  stroke-width="2.0"/>
<line x1="119.6" y1="335.2" x2="103.4" y2="325.8" stroke="rgb(0,0,0)"  stroke-width="2.0"/>
<line x1="119.6" y1="335.2" x2="119.5" y2="354.0" stroke="rgb(0,0,0)"  stroke-width="2.0"/>
<line x1="160.6" y1="311.7" x2="159.4" y2="265.2" stroke="rgb(0,0,0)"  stroke-width="2.0"/>
<line x1="160.6" y1="311.7" x2="176.9" y2="321.0" stroke="rgb(0,0,0)"  stroke-width="2.0"/>
<line x1="197.7" y1="235.1" x2="199.3" y2="235.2" stroke="rgb(0,0,0)"  stroke-width="1.0"/>
<line x1="197.5" y1="227.3" x2="200.4" y2="227.4" stroke="rgb(0,0,0)"  stroke-width="1.0"/>
<line x1="197.2" y1="219.5" x2="201.4" y2="219.7" stroke="rgb(0,0,0)"  stroke-width="1.0"/>
<line x1="197.0" y1="211.7" x2="202.4" y2="211.9" stroke="rgb(0,0,0)"  stroke-width="1.0"/>
<line x1="196.7" y1="203.9" x2="203.5" y2="204.2" stroke="rgb(0,0,0)"  stroke-width="1.0"/>
<line x1="196.5" y1="196.0" x2="204.5" y2="196.4" stroke="rgb(0,0,0)"  stroke-width="1.0"/>
<line x1="198.1" y1="244.9" x2="159.4" y2="265.2" stroke="rgb(0,0,0)"  stroke-width="2.0"/>
<line x1="198.1" y1="244.9" x2="181.3" y2="234.2" stroke="rgb(0,0,0)"  stroke-width="2.0"/>
<line x1="200.5" y1="196.2" x2="160.7" y2="173.6" stroke="rgb(0,0,0)"  stroke-width="2.0"/>
<line x1="197.0" y1="199.1" x2="196.2" y2="197.7" stroke="rgb(0,0,0)"  stroke-width="1.0"/>
<line x1="194.2" y1="201.3" x2="192.8" y2="198.8" stroke="rgb(0,0,0)"  stroke-width="1.0"/>
<line x1="191.4" y1="203.6" x2="189.4" y2="199.9" stroke="rgb(0,0,0)"  stroke-width="1.0"/>
<line x1="188.7" y1="205.8" x2="186.0" y2="201.1" stroke="rgb(0,0,0)"  stroke-width="1.0"/>
<line x1="185.9" y1="208.1" x2="182.6" y2="202.2" stroke="rgb(0,0,0)"  stroke-width="1.0"/>
<line x1="183.1" y1="210.4" x2="179.2" y2="203.3" stroke="rgb(0,0,0)"  stroke-width="1.0"/>
<line x1="160.7" y1="173.6" x2="129.9" y2="189.8" stroke="rgb(0,0,0)"  stroke-width="2.0"/>
<line x1="160.7" y1="173.6" x2="161.0" y2="153.7" stroke="rgb(0,0,0)"  stroke-width="2.0"/>
<line x1="160.7" y1="173.6" x2="143.7" y2="163.2" stroke="rgb(0,0,0)"  stroke-width="2.0"/>
<line x1="79.3" y1="219.0" x2="129.9" y2="189.8" stroke="rgb(0,0,0)"  stroke-width="2.0"/>
<line x1="77.2" y1="215.3" x2="127.8" y2="186.2" stroke="rgb(0,0,0)"  stroke-width="2.0"/>
<line x1="81.4" y1="222.6" x2="132.0" y2="193.4" stroke="rgb(0,0,0)"  stroke-width="2.0"/>
<line x1="246.2" y1="142.5" x2="239.6" y2="173.7" stroke="rgb(0,0,0)"  stroke-width="2.0"/>
<line x1="279.4" y1="196.8" x2="319.3" y2="174.0" stroke="rgb(0,0,0)"  stroke-width="2.0"/>
<line x1="319.3" y1="174.0" x2="319.5" y2="127.6" stroke="rgb(0,0,0)"  stroke-width="2.0"/>
<line x1="319.3" y1="174.0" x2="349.5" y2="191.3" stroke="rgb(0,0,0)"  stroke-width="2.0"/>
<line x1="315.0" y1="172.5" x2="315.8" y2="171.1" stroke="rgb(0,0,0)"  stroke-width="1.0"/>
<line x1="311.7" y1="171.3" x2="313.1" y2="168.8" stroke="rgb(0,0,0)"  stroke-width="1.0"/>
<line x1="308.3" y1="170.0" x2="310.4" y2="166.5" stroke="rgb(0,0,0)"  stroke-width="1.0"/>
<line x1="304.9" y1="168.8" x2="307.7" y2="164.1" stroke="rgb(0,0,0)"  stroke-width="1.0"/>
<line x1="301.6" y1="167.6" x2="305.0" y2="161.8" stroke="rgb(0,0,0)"  stroke-width="1.0"/>
<line x1="298.2" y1="166.4" x2="302.2" y2="159.5" stroke="rgb(0,0,0)"  stroke-width="1.0"/>
<line x1="319.5" y1="127.6" x2="359.6" y2="104.2" stroke="rgb(0,0,0)"  stroke-width="2.0"/>
<line x1="319.5" y1="127.6" x2="302.3" y2="117.6" stroke="rgb(0,0,0)"  stroke-width="2.0"/>
<line x1="319.5" y1="127.6" x2="319.5" y2="107.7" stroke="rgb(0,0,0)"  stroke-width="2.0"/>
<line x1="356.6" y1="104.2" x2="357.0" y2="56.0" stroke="rgb(0,0,0)"  stroke-width="2.0"/>
<line x1="362.6" y1="104.2" x2="363.0" y2="56.1" stroke="rgb(0,0,0)"  stroke-width="2.0"/>
<line x1="359.6" y1="104.2" x2="375.8" y2="113.6" stroke="rgb(0,0,0)"  stroke-width="2.0"/>
<line x1="360.0" y1="56.1" x2="376.3" y2="46.8" stroke="rgb(0,0,0)"  stroke-width="2.0"/>
<line x1="360.0" y1="56.1" x2="343.8" y2="46.6" stroke="rgb(0,0,0)"  stroke-width="2.0"/>
<line x1="399.2" y1="219.9" x2="349.5" y2="191.3" stroke="rgb(0,0,0)"  stroke-width="2.0"/>
<line x1="397.1" y1="223.6" x2="347.4" y2="194.9" stroke="rgb(0,0,0)"  stroke-width="2.0"/>
<line x1="401.3" y1="216.3" x2="351.6" y2="187.6" stroke="rgb(0,0,0)"  stroke-width="2.0"/>
<line x1="279.9" y1="243.3" x2="296.0" y2="252.9" stroke="rgb(0,0,0)"  stroke-width="2.0"/>
<line x1="239.5" y1="264.5" x2="239.9" y2="283.2" stroke="rgb(0,0,0)"  stroke-width="2.0"/>
<line x1="51.1" y1="236.0" x2="79.3" y2="219.0" stroke="rgb(0,0,0)"  stroke-width="2.0"/>
<line x1="427.5" y1="236.2" x2="399.2" y2="219.9" stroke="rgb(0,0,0)"  stroke-width="2.0"/>
<line x1="159.4" y1="265.2" x2="142.3" y2="255.1" stroke="rgb(0,0,0)"  stroke-width="2.0"/>
<line x1="159.4" y1="265.2" x2="159.9" y2="245.3" stroke="rgb(0,0,0)"  stroke-width="2.0"/>
<line x1="200.5" y1="196.2" x2="198.1" y2="244.9" stroke="rgb(0,0,0)"  stroke-width="2.0"/>
<line x1="198.1" y1="244.9" x2="239.5" y2="264.5" stroke="rgb(0,0,0)"  stroke-width="2.0"/>
<line x1="239.5" y1="264.5" x2="279.9" y2="243.3" stroke="rgb(0,0,0)"  stroke-width="2.0"/>
<line x1="241.5" y1="255.3" x2="271.3" y2="239.7" stroke="rgb(0,0,0)"  stroke-width="2.0"/>
<line x1="279.9" y1="243.3" x2="279.4" y2="196.8" stroke="rgb(0,0,0)"  stroke-width="2.0"/>
<line x1="279.4" y1="196.8" x2="239.6" y2="173.7" stroke="rgb(0,0,0)"  stroke-width="2.0"/>
<line x1="270.6" y1="200.0" x2="241.1" y2="182.9" stroke="rgb(0,0,0)"  stroke-width="2.0"/>
<line x1="239.6" y1="173.7" x2="200.5" y2="196.2" stroke="rgb(0,0,0)"  stroke-width="2.0"/>
<text x="242.970343" y="137.817564" fill="rgb(17,127,178)"  stroke="rgb(17,127,178)" stroke-width="1" font-size="16" >Xx</text>
<text x="34.000000" y="250.753221" fill="rgb(191,191,191)"  stroke="rgb(191,191,191)" stroke-width="1" font-size="16" >H</text>
<text x="432.732518" y="250.753221" fill="rgb(191,191,191)"  stroke="rgb(191,191,191)" stroke-width="1" font-size="16" >H</text>
<text x="86.124150" y="327.229045" fill="rgb(191,191,191)"  stroke="rgb(191,191,191)" stroke-width="1" font-size="16" >H</text>
<text x="113.432110" y="374.957220" fill="rgb(191,191,191)"  stroke="rgb(191,191,191)" stroke-width="1" font-size="16" >H</text>
<text x="182.214208" y="335.341143" fill="rgb(191,191,191)"  stroke="rgb(191,191,191)" stroke-width="1" font-size="16" >H</text>
<text x="164.307298" y="235.178117" fill="rgb(191,191,191)"  stroke="rgb(191,191,191)" stroke-width="1" font-size="16" >H</text>
<text x="165.636242" y="220.079833" fill="rgb(191,191,191)"  stroke="rgb(191,191,191)" stroke-width="1" font-size="16" >H</text>
<text x="155.198492" y="148.692143" fill="rgb(191,191,191)"  stroke="rgb(191,191,191)" stroke-width="1" font-size="16" >H</text>
<text x="126.623113" y="164.359535" fill="rgb(191,191,191)"  stroke="rgb(191,191,191)" stroke-width="1" font-size="16" >H</text>
<text x="284.835165" y="165.423921" fill="rgb(191,191,191)"  stroke="rgb(191,191,191)" stroke-width="1" font-size="16" >H</text>
<text x="285.035122" y="119.132360" fill="rgb(191,191,191)"  stroke="rgb(191,191,191)" stroke-width="1" font-size="16" >H</text>
<text x="313.462841" y="102.692827" fill="rgb(191,191,191)"  stroke="rgb(191,191,191)" stroke-width="1" font-size="16" >H</text>
<text x="381.097494" y="128.111963" fill="rgb(191,191,191)"  stroke="rgb(191,191,191)" stroke-width="1" font-size="16" >H</text>
<text x="381.555857" y="48.381456" fill="rgb(191,191,191)"  stroke="rgb(191,191,191)" stroke-width="1" font-size="16" >H</text>
<text x="326.567709" y="48.000000" fill="rgb(191,191,191)"  stroke="rgb(191,191,191)" stroke-width="1" font-size="16" >H</text>
<text x="301.191640" y="267.568059" fill="rgb(191,191,191)"  stroke="rgb(191,191,191)" stroke-width="1" font-size="16" >H</text>
<text x="234.147629" y="304.194010" fill="rgb(191,191,191)"  stroke="rgb(191,191,191)" stroke-width="1" font-size="16" >H</text>
<text x="125.054220" y="256.555048" fill="rgb(191,191,191)"  stroke="rgb(191,191,191)" stroke-width="1" font-size="16" >H</text>
<text x="154.198708" y="240.315471" fill="rgb(191,191,191)"  stroke="rgb(191,191,191)" stroke-width="1" font-size="16" >H</text>
</svg>
</g>
<text font-size="18.000000" fill ="black" font-family="sans-serif"
x="10.000000" y="20.000000" ></text>
</svg>
