<?xml version="1.0"?>
<svg version="1.1" id="topsvg"
xmlns="http://www.w3.org/2000/svg" xmlns:xlink="http://www.w3.org/1999/xlink"
xmlns:cml="http://www.xml-cml.org/schema" x="0" y="0" width="200px" height="200px" viewBox="0 0 100 100">
<title> - Open Babel Depiction</title>
<rect x="0" y="0" width="100" height="100" fill="white"/>
<g transform="translate(0,0)">
<svg width="100" height="100" x="0" y="0" viewBox="0 0 419.364 273.383"
font-family="sans-serif" stroke="rgb(0,0,0)" stroke-width="2"  stroke-linecap="round">
<line x1="302.1" y1="81.7" x2="330.6" y2="131.4" stroke="rgb(0,0,0)"  stroke-width="2.0"/>
<line x1="305.8" y1="79.6" x2="334.3" y2="129.3" stroke="rgb(0,0,0)"  stroke-width="2.0"/>
<line x1="298.5" y1="83.8" x2="327.0" y2="133.5" stroke="rgb(0,0,0)"  stroke-width="2.0"/>
<line x1="322.8" y1="200.3" x2="345.2" y2="160.0" stroke="rgb(0,0,0)"  stroke-width="2.0"/>
<line x1="328.0" y1="203.2" x2="350.4" y2="162.9" stroke="rgb(0,0,0)"  stroke-width="2.0"/>
<line x1="325.4" y1="201.7" x2="334.8" y2="217.7" stroke="rgb(0,0,0)"  stroke-width="2.0"/>
<line x1="347.8" y1="161.4" x2="330.6" y2="131.4" stroke="rgb(0,0,0)"  stroke-width="2.0"/>
<line x1="347.8" y1="161.4" x2="366.4" y2="161.3" stroke="rgb(0,0,0)"  stroke-width="2.0"/>
<line x1="281.0" y1="201.7" x2="217.5" y2="201.8" stroke="rgb(0,0,0)"  stroke-width="2.0"/>
<line x1="281.0" y1="205.9" x2="217.5" y2="206.0" stroke="rgb(0,0,0)"  stroke-width="2.0"/>
<line x1="281.0" y1="197.5" x2="217.4" y2="197.6" stroke="rgb(0,0,0)"  stroke-width="2.0"/>
<line x1="281.0" y1="201.7" x2="325.4" y2="201.7" stroke="rgb(0,0,0)"  stroke-width="2.0"/>
<line x1="67.5" y1="131.7" x2="51.4" y2="122.4" stroke="rgb(0,0,0)"  stroke-width="2.0"/>
<line x1="67.4" y1="178.6" x2="51.3" y2="187.8" stroke="rgb(0,0,0)"  stroke-width="2.0"/>
<line x1="107.4" y1="108.3" x2="107.3" y2="62.4" stroke="rgb(0,0,0)"  stroke-width="2.0"/>
<line x1="105.9" y1="59.8" x2="134.0" y2="43.8" stroke="rgb(0,0,0)"  stroke-width="2.0"/>
<line x1="108.8" y1="65.0" x2="137.0" y2="49.0" stroke="rgb(0,0,0)"  stroke-width="2.0"/>
<line x1="107.3" y1="62.4" x2="91.3" y2="53.1" stroke="rgb(0,0,0)"  stroke-width="2.0"/>
<line x1="147.2" y1="132.1" x2="186.8" y2="113.3" stroke="rgb(0,0,0)"  stroke-width="2.0"/>
<line x1="148.0" y1="141.3" x2="146.4" y2="141.3" stroke="rgb(0,0,0)"  stroke-width="1.0"/>
<line x1="148.6" y1="148.6" x2="145.7" y2="148.6" stroke="rgb(0,0,0)"  stroke-width="1.0"/>
<line x1="149.2" y1="155.9" x2="145.0" y2="155.9" stroke="rgb(0,0,0)"  stroke-width="1.0"/>
<line x1="149.8" y1="163.3" x2="144.3" y2="163.2" stroke="rgb(0,0,0)"  stroke-width="1.0"/>
<line x1="150.4" y1="170.6" x2="143.7" y2="170.6" stroke="rgb(0,0,0)"  stroke-width="1.0"/>
<line x1="151.0" y1="177.9" x2="143.0" y2="177.9" stroke="rgb(0,0,0)"  stroke-width="1.0"/>
<line x1="147.2" y1="132.1" x2="148.1" y2="112.5" stroke="rgb(0,0,0)"  stroke-width="2.0"/>
<line x1="188.1" y1="110.6" x2="229.5" y2="129.8" stroke="rgb(0,0,0)"  stroke-width="2.0"/>
<line x1="185.6" y1="116.0" x2="227.0" y2="135.2" stroke="rgb(0,0,0)"  stroke-width="2.0"/>
<line x1="186.8" y1="113.3" x2="186.7" y2="94.7" stroke="rgb(0,0,0)"  stroke-width="2.0"/>
<line x1="228.2" y1="132.5" x2="229.9" y2="151.0" stroke="rgb(0,0,0)"  stroke-width="2.0"/>
<line x1="228.2" y1="132.5" x2="243.4" y2="121.9" stroke="rgb(0,0,0)"  stroke-width="2.0"/>
<line x1="107.4" y1="201.8" x2="107.6" y2="220.4" stroke="rgb(0,0,0)"  stroke-width="2.0"/>
<line x1="147.0" y1="177.9" x2="186.0" y2="198.7" stroke="rgb(0,0,0)"  stroke-width="2.0"/>
<polygon points="146.977409 177.893137 151.570038 199.696703 143.572977 199.913527 " stroke-width="2.000000" fill="rgb(0,0,0)"  stroke="rgb(0,0,0)" />
<line x1="186.0" y1="198.7" x2="217.5" y2="201.8" stroke="rgb(0,0,0)"  stroke-width="2.0"/>
<line x1="186.0" y1="198.7" x2="180.3" y2="217.6" stroke="rgb(0,0,0)"  stroke-width="2.0"/>
<line x1="186.0" y1="198.7" x2="197.0" y2="215.1" stroke="rgb(0,0,0)"  stroke-width="2.0"/>
<line x1="286.3" y1="54.3" x2="302.1" y2="81.7" stroke="rgb(0,0,0)"  stroke-width="2.0"/>
<line x1="67.5" y1="131.7" x2="67.4" y2="178.6" stroke="rgb(0,0,0)"  stroke-width="2.0"/>
<line x1="67.4" y1="178.6" x2="107.4" y2="201.8" stroke="rgb(0,0,0)"  stroke-width="2.0"/>
<line x1="76.2" y1="175.4" x2="105.8" y2="192.6" stroke="rgb(0,0,0)"  stroke-width="2.0"/>
<line x1="107.4" y1="201.8" x2="147.0" y2="177.9" stroke="rgb(0,0,0)"  stroke-width="2.0"/>
<line x1="147.0" y1="177.9" x2="147.2" y2="132.1" stroke="rgb(0,0,0)"  stroke-width="2.0"/>
<line x1="147.2" y1="132.1" x2="107.4" y2="108.3" stroke="rgb(0,0,0)"  stroke-width="2.0"/>
<line x1="107.4" y1="108.3" x2="67.5" y2="131.7" stroke="rgb(0,0,0)"  stroke-width="2.0"/>
<line x1="105.9" y1="117.6" x2="76.3" y2="134.9" stroke="rgb(0,0,0)"  stroke-width="2.0"/>
<text x="140.818412" y="48.000000" fill="rgb(255,12,12)"  stroke="rgb(255,12,12)" stroke-width="1" font-size="16" >O</text>
<text x="273.779588" y="51.048460" fill="rgb(147,0,147)"  stroke="rgb(147,0,147)" stroke-width="1" font-size="16" >I</text>
<text x="335.433701" y="236.897515" fill="rgb(191,191,191)"  stroke="rgb(191,191,191)" stroke-width="1" font-size="16" >H</text>
<text x="373.363640" y="169.198461" fill="rgb(191,191,191)"  stroke="rgb(191,191,191)" stroke-width="1" font-size="16" >H</text>
<text x="34.125363" y="123.911857" fill="rgb(191,191,191)"  stroke="rgb(191,191,191)" stroke-width="1" font-size="16" >H</text>
<text x="34.000000" y="202.318742" fill="rgb(191,191,191)"  stroke="rgb(191,191,191)" stroke-width="1" font-size="16" >H</text>
<text x="74.042763" y="54.580026" fill="rgb(191,191,191)"  stroke="rgb(191,191,191)" stroke-width="1" font-size="16" >H</text>
<text x="142.760009" y="107.467906" fill="rgb(191,191,191)"  stroke="rgb(191,191,191)" stroke-width="1" font-size="16" >H</text>
<text x="180.677717" y="89.721404" fill="rgb(191,191,191)"  stroke="rgb(191,191,191)" stroke-width="1" font-size="16" >H</text>
<text x="225.028685" y="171.944215" fill="rgb(191,191,191)"  stroke="rgb(191,191,191)" stroke-width="1" font-size="16" >H</text>
<text x="248.055720" y="122.379983" fill="rgb(191,191,191)"  stroke="rgb(191,191,191)" stroke-width="1" font-size="16" >H</text>
<text x="101.720458" y="241.383063" fill="rgb(191,191,191)"  stroke="rgb(191,191,191)" stroke-width="1" font-size="16" >H</text>
<text x="141.864123" y="218.597581" fill="rgb(191,191,191)"  stroke="rgb(191,191,191)" stroke-width="1" font-size="16" >H</text>
<text x="170.569182" y="238.041070" fill="rgb(191,191,191)"  stroke="rgb(191,191,191)" stroke-width="1" font-size="16" >H</text>
<text x="198.237704" y="233.913265" fill="rgb(191,191,191)"  stroke="rgb(191,191,191)" stroke-width="1" font-size="16" >H</text>
</svg>
</g>
<text font-size="18.000000" fill ="black" font-family="sans-serif"
x="10.000000" y="20.000000" ></text>
</svg>
