<?xml version="1.0"?>
<svg version="1.1" id="topsvg"
xmlns="http://www.w3.org/2000/svg" xmlns:xlink="http://www.w3.org/1999/xlink"
xmlns:cml="http://www.xml-cml.org/schema" x="0" y="0" width="200px" height="200px" viewBox="0 0 100 100">
<title> - Open Babel Depiction</title>
<rect x="0" y="0" width="100" height="100" fill="white"/>
<g transform="translate(0,0)">
<svg width="100" height="100" x="0" y="0" viewBox="0 0 553.183 758.37"
font-family="sans-serif" stroke="rgb(0,0,0)" stroke-width="2"  stroke-linecap="round">
<line x1="288.4" y1="622.6" x2="270.1" y2="636.6" stroke="rgb(0,0,0)"  stroke-width="2.0"/>
<line x1="261.4" y1="657.4" x2="264.4" y2="680.2" stroke="rgb(0,0,0)"  stroke-width="2.0"/>
<line x1="235.7" y1="635.3" x2="176.6" y2="632.2" stroke="rgb(0,0,0)"  stroke-width="2.0"/>
<line x1="201.3" y1="598.1" x2="261.1" y2="589.6" stroke="rgb(0,0,0)"  stroke-width="2.0"/>
<line x1="369.2" y1="542.3" x2="369.8" y2="589.6" stroke="rgb(0,0,0)"  stroke-width="2.0"/>
<line x1="352.3" y1="680.3" x2="341.0" y2="636.7" stroke="rgb(0,0,0)"  stroke-width="2.0"/>
<line x1="346.4" y1="702.0" x2="340.0" y2="708.3" stroke="rgb(0,0,0)"  stroke-width="2.0"/>
<line x1="369.0" y1="472.9" x2="369.1" y2="516.3" stroke="rgb(0,0,0)"  stroke-width="2.0"/>
<line x1="280.1" y1="465.4" x2="322.4" y2="449.1" stroke="rgb(0,0,0)"  stroke-width="2.0"/>
<line x1="260.8" y1="366.6" x2="322.4" y2="393.6" stroke="rgb(0,0,0)"  stroke-width="2.0"/>
<line x1="369.2" y1="362.9" x2="370.1" y2="313.0" stroke="rgb(0,0,0)"  stroke-width="2.0"/>
<line x1="368.6" y1="310.4" x2="407.5" y2="287.8" stroke="rgb(0,0,0)"  stroke-width="2.0"/>
<line x1="371.6" y1="315.5" x2="410.5" y2="293.0" stroke="rgb(0,0,0)"  stroke-width="2.0"/>
<line x1="335.9" y1="301.8" x2="324.9" y2="322.0" stroke="rgb(0,0,0)"  stroke-width="2.0"/>
<line x1="352.2" y1="298.5" x2="370.1" y2="313.0" stroke="rgb(0,0,0)"  stroke-width="2.0"/>
<line x1="416.0" y1="387.7" x2="438.1" y2="381.5" stroke="rgb(0,0,0)"  stroke-width="2.0"/>
<line x1="453.9" y1="365.4" x2="459.6" y2="343.2" stroke="rgb(0,0,0)"  stroke-width="2.0"/>
<line x1="459.4" y1="448.4" x2="476.9" y2="433.5" stroke="rgb(0,0,0)"  stroke-width="2.0"/>
<line x1="437.2" y1="452.4" x2="415.6" y2="444.7" stroke="rgb(0,0,0)"  stroke-width="2.0"/>
<line x1="231.6" y1="229.7" x2="235.4" y2="265.6" stroke="rgb(0,0,0)"  stroke-width="2.0"/>
<line x1="231.6" y1="229.7" x2="198.7" y2="215.1" stroke="rgb(0,0,0)"  stroke-width="2.0"/>
<line x1="231.6" y1="229.7" x2="267.4" y2="225.9" stroke="rgb(0,0,0)"  stroke-width="2.0"/>
<line x1="231.6" y1="229.7" x2="240.9" y2="208.7" stroke="rgb(0,0,0)"  stroke-width="2.0"/>
<line x1="186.5" y1="274.7" x2="207.5" y2="284.0" stroke="rgb(0,0,0)"  stroke-width="2.0"/>
<line x1="184.0" y1="280.2" x2="205.1" y2="289.5" stroke="rgb(0,0,0)"  stroke-width="2.0"/>
<line x1="206.3" y1="286.7" x2="235.4" y2="265.6" stroke="rgb(0,0,0)"  stroke-width="2.0"/>
<line x1="165.1" y1="228.1" x2="155.7" y2="249.1" stroke="rgb(0,0,0)"  stroke-width="2.0"/>
<line x1="185.7" y1="181.6" x2="200.3" y2="148.6" stroke="rgb(0,0,0)"  stroke-width="2.0"/>
<line x1="131.1" y1="185.2" x2="152.1" y2="194.5" stroke="rgb(0,0,0)"  stroke-width="2.0"/>
<line x1="200.3" y1="148.6" x2="179.1" y2="119.5" stroke="rgb(0,0,0)"  stroke-width="2.0"/>
<line x1="200.3" y1="148.6" x2="236.1" y2="144.8" stroke="rgb(0,0,0)"  stroke-width="2.0"/>
<line x1="91.9" y1="211.6" x2="78.3" y2="193.0" stroke="rgb(0,0,0)"  stroke-width="2.0"/>
<line x1="112.4" y1="220.7" x2="135.3" y2="218.3" stroke="rgb(0,0,0)"  stroke-width="2.0"/>
<line x1="156.5" y1="247.4" x2="147.2" y2="268.4" stroke="rgb(0,0,0)"  stroke-width="2.0"/>
<line x1="206.9" y1="210.7" x2="229.8" y2="208.2" stroke="rgb(0,0,0)"  stroke-width="2.0"/>
<line x1="129.0" y1="281.7" x2="120.1" y2="282.6" stroke="rgb(0,0,0)"  stroke-width="2.0"/>
<line x1="257.3" y1="173.9" x2="248.0" y2="195.0" stroke="rgb(0,0,0)"  stroke-width="2.0"/>
<line x1="286.5" y1="108.1" x2="301.1" y2="75.2" stroke="rgb(0,0,0)"  stroke-width="2.0"/>
<line x1="330.6" y1="134.8" x2="307.7" y2="137.2" stroke="rgb(0,0,0)"  stroke-width="2.0"/>
<line x1="348.8" y1="121.5" x2="353.1" y2="111.7" stroke="rgb(0,0,0)"  stroke-width="2.0"/>
<line x1="306.7" y1="188.7" x2="293.1" y2="170.1" stroke="rgb(0,0,0)"  stroke-width="2.0"/>
<line x1="309.0" y1="211.1" x2="305.4" y2="219.3" stroke="rgb(0,0,0)"  stroke-width="2.0"/>
<line x1="299.7" y1="232.1" x2="276.8" y2="234.6" stroke="rgb(0,0,0)"  stroke-width="2.0"/>
<line x1="359.4" y1="174.4" x2="350.1" y2="195.4" stroke="rgb(0,0,0)"  stroke-width="2.0"/>
<line x1="357.0" y1="152.0" x2="351.2" y2="143.9" stroke="rgb(0,0,0)"  stroke-width="2.0"/>
<line x1="384.2" y1="223.1" x2="393.1" y2="222.2" stroke="rgb(0,0,0)"  stroke-width="2.0"/>
<line x1="256.2" y1="225.4" x2="251.0" y2="218.2" stroke="rgb(0,0,0)"  stroke-width="2.0"/>
<line x1="157.8" y1="619.9" x2="153.7" y2="612.0" stroke="rgb(0,0,0)"  stroke-width="2.0"/>
<line x1="259.1" y1="195.5" x2="268.0" y2="194.5" stroke="rgb(0,0,0)"  stroke-width="2.0"/>
<line x1="288.4" y1="622.6" x2="293.3" y2="647.7" stroke="rgb(0,0,0)"  stroke-width="2.0"/>
<line x1="264.4" y1="680.2" x2="244.1" y2="695.6" stroke="rgb(0,0,0)"  stroke-width="2.0"/>
<line x1="264.4" y1="680.2" x2="287.9" y2="690.0" stroke="rgb(0,0,0)"  stroke-width="2.0"/>
<line x1="264.4" y1="680.2" x2="267.6" y2="705.5" stroke="rgb(0,0,0)"  stroke-width="2.0"/>
<line x1="235.7" y1="635.3" x2="256.1" y2="619.8" stroke="rgb(0,0,0)"  stroke-width="2.0"/>
<line x1="261.1" y1="589.6" x2="271.0" y2="613.1" stroke="rgb(0,0,0)"  stroke-width="2.0"/>
<line x1="201.3" y1="598.1" x2="185.6" y2="578.0" stroke="rgb(0,0,0)"  stroke-width="2.0"/>
<line x1="201.3" y1="598.1" x2="191.8" y2="621.7" stroke="rgb(0,0,0)"  stroke-width="2.0"/>
<line x1="201.3" y1="598.1" x2="176.0" y2="601.6" stroke="rgb(0,0,0)"  stroke-width="2.0"/>
<line x1="369.8" y1="589.6" x2="349.4" y2="605.0" stroke="rgb(0,0,0)"  stroke-width="2.0"/>
<line x1="341.0" y1="636.7" x2="331.5" y2="613.0" stroke="rgb(0,0,0)"  stroke-width="2.0"/>
<line x1="280.1" y1="465.4" x2="260.2" y2="449.3" stroke="rgb(0,0,0)"  stroke-width="2.0"/>
<line x1="280.1" y1="465.4" x2="276.1" y2="490.6" stroke="rgb(0,0,0)"  stroke-width="2.0"/>
<line x1="280.1" y1="465.4" x2="256.2" y2="474.5" stroke="rgb(0,0,0)"  stroke-width="2.0"/>
<line x1="260.8" y1="366.6" x2="258.0" y2="341.2" stroke="rgb(0,0,0)"  stroke-width="2.0"/>
<line x1="260.8" y1="366.6" x2="240.2" y2="381.7" stroke="rgb(0,0,0)"  stroke-width="2.0"/>
<line x1="260.8" y1="366.6" x2="237.4" y2="356.3" stroke="rgb(0,0,0)"  stroke-width="2.0"/>
<line x1="324.9" y1="322.0" x2="299.4" y2="322.6" stroke="rgb(0,0,0)"  stroke-width="2.0"/>
<line x1="324.9" y1="322.0" x2="338.2" y2="343.7" stroke="rgb(0,0,0)"  stroke-width="2.0"/>
<line x1="324.9" y1="322.0" x2="312.7" y2="344.4" stroke="rgb(0,0,0)"  stroke-width="2.0"/>
<line x1="459.6" y1="343.2" x2="484.2" y2="336.3" stroke="rgb(0,0,0)"  stroke-width="2.0"/>
<line x1="459.6" y1="343.2" x2="441.4" y2="325.3" stroke="rgb(0,0,0)"  stroke-width="2.0"/>
<line x1="459.6" y1="343.2" x2="466.0" y2="318.4" stroke="rgb(0,0,0)"  stroke-width="2.0"/>
<line x1="476.9" y1="433.5" x2="500.9" y2="442.0" stroke="rgb(0,0,0)"  stroke-width="2.0"/>
<line x1="476.9" y1="433.5" x2="472.3" y2="408.4" stroke="rgb(0,0,0)"  stroke-width="2.0"/>
<line x1="476.9" y1="433.5" x2="496.3" y2="416.9" stroke="rgb(0,0,0)"  stroke-width="2.0"/>
<line x1="235.4" y1="265.6" x2="258.7" y2="275.9" stroke="rgb(0,0,0)"  stroke-width="2.0"/>
<line x1="235.4" y1="265.6" x2="238.1" y2="290.9" stroke="rgb(0,0,0)"  stroke-width="2.0"/>
<line x1="206.3" y1="286.7" x2="208.8" y2="310.8" stroke="rgb(0,0,0)"  stroke-width="2.0"/>
<line x1="179.1" y1="119.5" x2="189.5" y2="96.2" stroke="rgb(0,0,0)"  stroke-width="2.0"/>
<line x1="179.1" y1="119.5" x2="153.7" y2="122.2" stroke="rgb(0,0,0)"  stroke-width="2.0"/>
<line x1="179.1" y1="119.5" x2="164.1" y2="98.9" stroke="rgb(0,0,0)"  stroke-width="2.0"/>
<line x1="195.3" y1="150.0" x2="195.1" y2="148.4" stroke="rgb(0,0,0)"  stroke-width="1.0"/>
<line x1="191.2" y1="151.1" x2="190.9" y2="148.2" stroke="rgb(0,0,0)"  stroke-width="1.0"/>
<line x1="187.2" y1="152.1" x2="186.7" y2="148.0" stroke="rgb(0,0,0)"  stroke-width="1.0"/>
<line x1="183.1" y1="153.2" x2="182.6" y2="147.8" stroke="rgb(0,0,0)"  stroke-width="1.0"/>
<line x1="179.1" y1="154.3" x2="178.4" y2="147.6" stroke="rgb(0,0,0)"  stroke-width="1.0"/>
<line x1="175.1" y1="155.4" x2="174.2" y2="147.4" stroke="rgb(0,0,0)"  stroke-width="1.0"/>
<line x1="267.4" y1="225.9" x2="282.4" y2="246.6" stroke="rgb(0,0,0)"  stroke-width="2.0"/>
<line x1="267.4" y1="225.9" x2="277.7" y2="202.6" stroke="rgb(0,0,0)"  stroke-width="2.0"/>
<line x1="267.4" y1="225.9" x2="292.7" y2="223.2" stroke="rgb(0,0,0)"  stroke-width="2.0"/>
<line x1="78.3" y1="193.0" x2="88.7" y2="169.7" stroke="rgb(0,0,0)"  stroke-width="2.0"/>
<line x1="78.3" y1="193.0" x2="52.9" y2="195.7" stroke="rgb(0,0,0)"  stroke-width="2.0"/>
<line x1="78.3" y1="193.0" x2="63.3" y2="172.4" stroke="rgb(0,0,0)"  stroke-width="2.0"/>
<line x1="135.3" y1="218.3" x2="120.3" y2="197.6" stroke="rgb(0,0,0)"  stroke-width="2.0"/>
<line x1="149.9" y1="185.4" x2="134.9" y2="164.7" stroke="rgb(0,0,0)"  stroke-width="2.0"/>
<line x1="149.9" y1="185.4" x2="160.3" y2="162.0" stroke="rgb(0,0,0)"  stroke-width="2.0"/>
<line x1="156.5" y1="247.4" x2="131.1" y2="250.1" stroke="rgb(0,0,0)"  stroke-width="2.0"/>
<line x1="206.9" y1="210.7" x2="217.3" y2="187.3" stroke="rgb(0,0,0)"  stroke-width="2.0"/>
<line x1="192.3" y1="243.6" x2="207.3" y2="264.2" stroke="rgb(0,0,0)"  stroke-width="2.0"/>
<line x1="192.3" y1="243.6" x2="182.0" y2="266.9" stroke="rgb(0,0,0)"  stroke-width="2.0"/>
<line x1="293.1" y1="170.1" x2="278.1" y2="149.5" stroke="rgb(0,0,0)"  stroke-width="2.0"/>
<line x1="257.3" y1="173.9" x2="267.7" y2="150.6" stroke="rgb(0,0,0)"  stroke-width="2.0"/>
<line x1="236.1" y1="144.8" x2="225.8" y2="168.2" stroke="rgb(0,0,0)"  stroke-width="2.0"/>
<line x1="307.7" y1="137.2" x2="282.3" y2="139.9" stroke="rgb(0,0,0)"  stroke-width="2.0"/>
<line x1="286.5" y1="108.1" x2="271.5" y2="87.5" stroke="rgb(0,0,0)"  stroke-width="2.0"/>
<line x1="301.1" y1="75.2" x2="326.5" y2="72.5" stroke="rgb(0,0,0)"  stroke-width="2.0"/>
<line x1="301.1" y1="75.2" x2="286.1" y2="54.6" stroke="rgb(0,0,0)"  stroke-width="2.0"/>
<line x1="301.1" y1="75.2" x2="311.5" y2="51.9" stroke="rgb(0,0,0)"  stroke-width="2.0"/>
<line x1="299.7" y1="232.1" x2="284.7" y2="211.5" stroke="rgb(0,0,0)"  stroke-width="2.0"/>
<line x1="314.3" y1="199.2" x2="299.3" y2="178.6" stroke="rgb(0,0,0)"  stroke-width="2.0"/>
<line x1="314.3" y1="199.2" x2="324.7" y2="175.9" stroke="rgb(0,0,0)"  stroke-width="2.0"/>
<line x1="350.1" y1="195.4" x2="335.1" y2="174.8" stroke="rgb(0,0,0)"  stroke-width="2.0"/>
<line x1="320.9" y1="261.2" x2="344.2" y2="271.6" stroke="rgb(0,0,0)"  stroke-width="2.0"/>
<line x1="356.7" y1="257.4" x2="341.7" y2="236.8" stroke="rgb(0,0,0)"  stroke-width="2.0"/>
<line x1="322.4" y1="449.1" x2="369.0" y2="472.9" stroke="rgb(0,0,0)"  stroke-width="2.0"/>
<line x1="331.0" y1="445.4" x2="366.9" y2="463.7" stroke="rgb(0,0,0)"  stroke-width="2.0"/>
<line x1="369.0" y1="472.9" x2="415.6" y2="444.7" stroke="rgb(0,0,0)"  stroke-width="2.0"/>
<line x1="415.6" y1="444.7" x2="416.0" y2="387.7" stroke="rgb(0,0,0)"  stroke-width="2.0"/>
<line x1="408.4" y1="438.7" x2="408.7" y2="393.6" stroke="rgb(0,0,0)"  stroke-width="2.0"/>
<line x1="416.0" y1="387.7" x2="369.2" y2="362.9" stroke="rgb(0,0,0)"  stroke-width="2.0"/>
<line x1="369.2" y1="362.9" x2="322.4" y2="393.6" stroke="rgb(0,0,0)"  stroke-width="2.0"/>
<line x1="368.1" y1="372.2" x2="331.4" y2="396.3" stroke="rgb(0,0,0)"  stroke-width="2.0"/>
<line x1="322.4" y1="393.6" x2="322.4" y2="449.1" stroke="rgb(0,0,0)"  stroke-width="2.0"/>
<line x1="334.4" y1="279.8" x2="320.9" y2="261.2" stroke="rgb(0,0,0)"  stroke-width="2.0"/>
<line x1="320.9" y1="261.2" x2="356.7" y2="257.4" stroke="rgb(0,0,0)"  stroke-width="2.0"/>
<line x1="356.7" y1="257.4" x2="347.4" y2="278.5" stroke="rgb(0,0,0)"  stroke-width="2.0"/>
<line x1="165.1" y1="228.1" x2="152.1" y2="194.5" stroke="rgb(0,0,0)"  stroke-width="2.0"/>
<line x1="152.1" y1="194.5" x2="185.7" y2="181.6" stroke="rgb(0,0,0)"  stroke-width="2.0"/>
<line x1="160.3" y1="199.1" x2="182.7" y2="190.4" stroke="rgb(0,0,0)"  stroke-width="2.0"/>
<line x1="185.7" y1="181.6" x2="198.7" y2="215.1" stroke="rgb(0,0,0)"  stroke-width="2.0"/>
<line x1="198.7" y1="215.1" x2="165.1" y2="228.1" stroke="rgb(0,0,0)"  stroke-width="2.0"/>
<line x1="190.5" y1="210.6" x2="168.1" y2="219.2" stroke="rgb(0,0,0)"  stroke-width="2.0"/>
<line x1="261.1" y1="589.6" x2="235.7" y2="635.3" stroke="rgb(0,0,0)"  stroke-width="2.0"/>
<line x1="235.7" y1="635.3" x2="288.4" y2="622.6" stroke="rgb(0,0,0)"  stroke-width="2.0"/>
<line x1="288.4" y1="622.6" x2="341.0" y2="636.7" stroke="rgb(0,0,0)"  stroke-width="2.0"/>
<line x1="341.0" y1="636.7" x2="369.8" y2="589.6" stroke="rgb(0,0,0)"  stroke-width="2.0"/>
<line x1="369.8" y1="589.6" x2="328.6" y2="601.1" stroke="rgb(0,0,0)"  stroke-width="2.0"/>
<line x1="303.6" y1="601.2" x2="261.1" y2="589.6" stroke="rgb(0,0,0)"  stroke-width="2.0"/>
<line x1="135.3" y1="218.3" x2="149.9" y2="185.4" stroke="rgb(0,0,0)"  stroke-width="2.0"/>
<line x1="149.9" y1="185.4" x2="172.8" y2="182.9" stroke="rgb(0,0,0)"  stroke-width="2.0"/>
<line x1="193.4" y1="192.1" x2="206.9" y2="210.7" stroke="rgb(0,0,0)"  stroke-width="2.0"/>
<line x1="206.9" y1="210.7" x2="192.3" y2="243.6" stroke="rgb(0,0,0)"  stroke-width="2.0"/>
<line x1="192.3" y1="243.6" x2="156.5" y2="247.4" stroke="rgb(0,0,0)"  stroke-width="2.0"/>
<line x1="156.5" y1="247.4" x2="135.3" y2="218.3" stroke="rgb(0,0,0)"  stroke-width="2.0"/>
<line x1="293.1" y1="170.1" x2="257.3" y2="173.9" stroke="rgb(0,0,0)"  stroke-width="2.0"/>
<line x1="257.3" y1="173.9" x2="236.1" y2="144.8" stroke="rgb(0,0,0)"  stroke-width="2.0"/>
<line x1="236.1" y1="144.8" x2="245.4" y2="123.8" stroke="rgb(0,0,0)"  stroke-width="2.0"/>
<line x1="263.6" y1="110.6" x2="286.5" y2="108.1" stroke="rgb(0,0,0)"  stroke-width="2.0"/>
<line x1="286.5" y1="108.1" x2="307.7" y2="137.2" stroke="rgb(0,0,0)"  stroke-width="2.0"/>
<line x1="307.7" y1="137.2" x2="293.1" y2="170.1" stroke="rgb(0,0,0)"  stroke-width="2.0"/>
<line x1="314.3" y1="199.2" x2="350.1" y2="195.4" stroke="rgb(0,0,0)"  stroke-width="2.0"/>
<line x1="350.1" y1="195.4" x2="363.6" y2="214.0" stroke="rgb(0,0,0)"  stroke-width="2.0"/>
<line x1="366.0" y1="236.4" x2="356.7" y2="257.4" stroke="rgb(0,0,0)"  stroke-width="2.0"/>
<line x1="320.9" y1="261.2" x2="299.7" y2="232.1" stroke="rgb(0,0,0)"  stroke-width="2.0"/>
<line x1="299.7" y1="232.1" x2="314.3" y2="199.2" stroke="rgb(0,0,0)"  stroke-width="2.0"/>
<text x="253.762629" y="652.456680" fill="rgb(255,12,12)"  stroke="rgb(255,12,12)" stroke-width="1" font-size="16" >O</text>
<text x="310.112918" y="612.562893" fill="rgb(255,12,12)"  stroke="rgb(255,12,12)" stroke-width="1" font-size="16" >O</text>
<text x="363.100623" y="537.264765" fill="rgb(255,12,12)"  stroke="rgb(255,12,12)" stroke-width="1" font-size="16" >O</text>
<text x="349.621484" y="700.879334" fill="rgb(255,12,12)"  stroke="rgb(255,12,12)" stroke-width="1" font-size="16" >O</text>
<text x="336.099143" y="298.334068" fill="rgb(178,178,0)"  stroke="rgb(178,178,0)" stroke-width="1" font-size="16" >S</text>
<text x="414.230626" y="291.842912" fill="rgb(255,12,12)"  stroke="rgb(255,12,12)" stroke-width="1" font-size="16" >O</text>
<text x="444.659494" y="386.024075" fill="rgb(255,12,12)"  stroke="rgb(255,12,12)" stroke-width="1" font-size="16" >O</text>
<text x="443.471429" y="464.799993" fill="rgb(255,12,12)"  stroke="rgb(255,12,12)" stroke-width="1" font-size="16" >O</text>
<text x="167.361493" y="280.145870" fill="rgb(255,12,12)"  stroke="rgb(255,12,12)" stroke-width="1" font-size="16" >O</text>
<text x="132.457037" y="268.999659" fill="rgb(17,127,178)"  stroke="rgb(17,127,178)" stroke-width="1" font-size="16" >Xx</text>
<text x="101.203724" y="187.898014" fill="rgb(17,127,178)"  stroke="rgb(17,127,178)" stroke-width="1" font-size="16" >Xx</text>
<text x="87.507044" y="230.077926" fill="rgb(17,127,178)"  stroke="rgb(17,127,178)" stroke-width="1" font-size="16" >Xx</text>
<text x="179.706569" y="189.554104" fill="rgb(255,12,12)"  stroke="rgb(255,12,12)" stroke-width="1" font-size="16" >O</text>
<text x="236.704894" y="214.845491" fill="rgb(255,12,12)"  stroke="rgb(255,12,12)" stroke-width="1" font-size="16" >O</text>
<text x="135.902968" y="288.278716" fill="rgb(255,12,12)"  stroke="rgb(255,12,12)" stroke-width="1" font-size="16" >O</text>
<text x="244.708133" y="119.929888" fill="rgb(255,12,12)"  stroke="rgb(255,12,12)" stroke-width="1" font-size="16" >O</text>
<text x="337.506820" y="141.412265" fill="rgb(12,12,255)"  stroke="rgb(12,12,255)" stroke-width="1" font-size="16" >N</text>
<text x="308.305619" y="207.227473" fill="rgb(255,12,12)"  stroke="rgb(255,12,12)" stroke-width="1" font-size="16" >O</text>
<text x="358.704782" y="170.509060" fill="rgb(255,12,12)"  stroke="rgb(255,12,12)" stroke-width="1" font-size="16" >O</text>
<text x="376.103944" y="220.486860" fill="rgb(255,12,12)"  stroke="rgb(255,12,12)" stroke-width="1" font-size="16" >+</text>
<text x="365.303944" y="232.518860" fill="rgb(255,12,12)"  stroke="rgb(255,12,12)" stroke-width="1" font-size="16" >O</text>
<text x="257.902856" y="243.942286" fill="rgb(255,12,12)"  stroke="rgb(255,12,12)" stroke-width="1" font-size="16" >O</text>
<text x="157.655361" y="639.524771" fill="rgb(255,12,12)"  stroke="rgb(255,12,12)" stroke-width="1" font-size="16" >O</text>
<text x="240.161083" y="204.840542" fill="rgb(255,12,12)"  stroke="rgb(255,12,12)" stroke-width="1" font-size="16" >O</text>
<text x="324.765721" y="725.407479" fill="rgb(191,191,191)"  stroke="rgb(191,191,191)" stroke-width="1" font-size="16" >H</text>
<text x="101.175464" y="291.972519" fill="rgb(191,191,191)"  stroke="rgb(191,191,191)" stroke-width="1" font-size="16" >H</text>
<text x="352.400836" y="107.844025" fill="rgb(191,191,191)"  stroke="rgb(191,191,191)" stroke-width="1" font-size="16" >H</text>
<text x="294.142443" y="239.146823" fill="rgb(191,191,191)"  stroke="rgb(191,191,191)" stroke-width="1" font-size="16" >H</text>
<text x="400.027847" y="228.821457" fill="rgb(191,191,191)"  stroke="rgb(191,191,191)" stroke-width="1" font-size="16" >H</text>
<text x="237.342129" y="215.716739" fill="rgb(191,191,191)"  stroke="rgb(191,191,191)" stroke-width="1" font-size="16" >H</text>
<text x="141.803692" y="608.404665" fill="rgb(191,191,191)"  stroke="rgb(191,191,191)" stroke-width="1" font-size="16" >H</text>
<text x="274.888587" y="201.146740" fill="rgb(191,191,191)"  stroke="rgb(191,191,191)" stroke-width="1" font-size="16" >H</text>
<text x="289.848072" y="668.409994" fill="rgb(191,191,191)"  stroke="rgb(191,191,191)" stroke-width="1" font-size="16" >H</text>
<text x="227.737679" y="711.530104" fill="rgb(191,191,191)"  stroke="rgb(191,191,191)" stroke-width="1" font-size="16" >H</text>
<text x="293.912809" y="703.003000" fill="rgb(191,191,191)"  stroke="rgb(191,191,191)" stroke-width="1" font-size="16" >H</text>
<text x="263.286807" y="726.369666" fill="rgb(191,191,191)"  stroke="rgb(191,191,191)" stroke-width="1" font-size="16" >H</text>
<text x="260.398464" y="619.972285" fill="rgb(191,191,191)"  stroke="rgb(191,191,191)" stroke-width="1" font-size="16" >H</text>
<text x="270.055165" y="633.113054" fill="rgb(191,191,191)"  stroke="rgb(191,191,191)" stroke-width="1" font-size="16" >H</text>
<text x="171.572444" y="575.712129" fill="rgb(191,191,191)"  stroke="rgb(191,191,191)" stroke-width="1" font-size="16" >H</text>
<text x="180.887994" y="641.780879" fill="rgb(191,191,191)"  stroke="rgb(191,191,191)" stroke-width="1" font-size="16" >H</text>
<text x="157.157813" y="611.435672" fill="rgb(191,191,191)"  stroke="rgb(191,191,191)" stroke-width="1" font-size="16" >H</text>
<text x="333.024174" y="620.832841" fill="rgb(191,191,191)"  stroke="rgb(191,191,191)" stroke-width="1" font-size="16" >H</text>
<text x="320.678753" y="608.936885" fill="rgb(191,191,191)"  stroke="rgb(191,191,191)" stroke-width="1" font-size="16" >H</text>
<text x="244.100895" y="449.139783" fill="rgb(191,191,191)"  stroke="rgb(191,191,191)" stroke-width="1" font-size="16" >H</text>
<text x="268.078702" y="511.404733" fill="rgb(191,191,191)"  stroke="rgb(191,191,191)" stroke-width="1" font-size="16" >H</text>
<text x="238.115456" y="487.194055" fill="rgb(191,191,191)"  stroke="rgb(191,191,191)" stroke-width="1" font-size="16" >H</text>
<text x="250.543863" y="336.292721" fill="rgb(191,191,191)"  stroke="rgb(191,191,191)" stroke-width="1" font-size="16" >H</text>
<text x="223.770367" y="397.407688" fill="rgb(191,191,191)"  stroke="rgb(191,191,191)" stroke-width="1" font-size="16" >H</text>
<text x="219.514743" y="359.121362" fill="rgb(191,191,191)"  stroke="rgb(191,191,191)" stroke-width="1" font-size="16" >H</text>
<text x="280.395198" y="330.954871" fill="rgb(191,191,191)"  stroke="rgb(191,191,191)" stroke-width="1" font-size="16" >H</text>
<text x="339.016207" y="362.820787" fill="rgb(191,191,191)"  stroke="rgb(191,191,191)" stroke-width="1" font-size="16" >H</text>
<text x="300.506805" y="363.810257" fill="rgb(191,191,191)"  stroke="rgb(191,191,191)" stroke-width="1" font-size="16" >H</text>
<text x="490.735225" y="340.816835" fill="rgb(191,191,191)"  stroke="rgb(191,191,191)" stroke-width="1" font-size="16" >H</text>
<text x="426.116526" y="324.195069" fill="rgb(191,191,191)"  stroke="rgb(191,191,191)" stroke-width="1" font-size="16" >H</text>
<text x="463.224166" y="313.852140" fill="rgb(191,191,191)"  stroke="rgb(191,191,191)" stroke-width="1" font-size="16" >H</text>
<text x="507.183417" y="454.408848" fill="rgb(191,191,191)"  stroke="rgb(191,191,191)" stroke-width="1" font-size="16" >H</text>
<text x="463.956524" y="403.582722" fill="rgb(191,191,191)"  stroke="rgb(191,191,191)" stroke-width="1" font-size="16" >H</text>
<text x="500.242209" y="416.517256" fill="rgb(191,191,191)"  stroke="rgb(191,191,191)" stroke-width="1" font-size="16" >H</text>
<text x="264.579103" y="289.174315" fill="rgb(191,191,191)"  stroke="rgb(191,191,191)" stroke-width="1" font-size="16" >H</text>
<text x="233.442277" y="311.856325" fill="rgb(191,191,191)"  stroke="rgb(191,191,191)" stroke-width="1" font-size="16" >H</text>
<text x="204.196502" y="331.693958" fill="rgb(191,191,191)"  stroke="rgb(191,191,191)" stroke-width="1" font-size="16" >H</text>
<text x="188.733556" y="92.335846" fill="rgb(191,191,191)"  stroke="rgb(191,191,191)" stroke-width="1" font-size="16" >H</text>
<text x="134.805196" y="131.624411" fill="rgb(191,191,191)"  stroke="rgb(191,191,191)" stroke-width="1" font-size="16" >H</text>
<text x="150.427744" y="96.412352" fill="rgb(191,191,191)"  stroke="rgb(191,191,191)" stroke-width="1" font-size="16" >H</text>
<text x="156.003082" y="160.720490" fill="rgb(191,191,191)"  stroke="rgb(191,191,191)" stroke-width="1" font-size="16" >H</text>
<text x="284.041563" y="265.077034" fill="rgb(191,191,191)"  stroke="rgb(191,191,191)" stroke-width="1" font-size="16" >H</text>
<text x="276.982437" y="198.729253" fill="rgb(191,191,191)"  stroke="rgb(191,191,191)" stroke-width="1" font-size="16" >H</text>
<text x="299.664955" y="229.865349" fill="rgb(191,191,191)"  stroke="rgb(191,191,191)" stroke-width="1" font-size="16" >H</text>
<text x="87.925184" y="165.767809" fill="rgb(191,191,191)"  stroke="rgb(191,191,191)" stroke-width="1" font-size="16" >H</text>
<text x="34.000000" y="205.060733" fill="rgb(191,191,191)"  stroke="rgb(191,191,191)" stroke-width="1" font-size="16" >H</text>
<text x="49.619702" y="169.847411" fill="rgb(191,191,191)"  stroke="rgb(191,191,191)" stroke-width="1" font-size="16" >H</text>
<text x="106.621964" y="195.132329" fill="rgb(191,191,191)"  stroke="rgb(191,191,191)" stroke-width="1" font-size="16" >H</text>
<text x="121.224530" y="162.226405" fill="rgb(191,191,191)"  stroke="rgb(191,191,191)" stroke-width="1" font-size="16" >H</text>
<text x="159.530073" y="158.151639" fill="rgb(191,191,191)"  stroke="rgb(191,191,191)" stroke-width="1" font-size="16" >H</text>
<text x="112.199526" y="259.445523" fill="rgb(191,191,191)"  stroke="rgb(191,191,191)" stroke-width="1" font-size="16" >H</text>
<text x="216.528538" y="183.443088" fill="rgb(191,191,191)"  stroke="rgb(191,191,191)" stroke-width="1" font-size="16" >H</text>
<text x="208.983973" y="282.696892" fill="rgb(191,191,191)"  stroke="rgb(191,191,191)" stroke-width="1" font-size="16" >H</text>
<text x="170.678544" y="286.771901" fill="rgb(191,191,191)"  stroke="rgb(191,191,191)" stroke-width="1" font-size="16" >H</text>
<text x="264.423925" y="146.991866" fill="rgb(191,191,191)"  stroke="rgb(191,191,191)" stroke-width="1" font-size="16" >H</text>
<text x="266.931301" y="146.724675" fill="rgb(191,191,191)"  stroke="rgb(191,191,191)" stroke-width="1" font-size="16" >H</text>
<text x="214.485326" y="188.047103" fill="rgb(191,191,191)"  stroke="rgb(191,191,191)" stroke-width="1" font-size="16" >H</text>
<text x="263.400756" y="149.295215" fill="rgb(191,191,191)"  stroke="rgb(191,191,191)" stroke-width="1" font-size="16" >H</text>
<text x="257.826187" y="84.984630" fill="rgb(191,191,191)"  stroke="rgb(191,191,191)" stroke-width="1" font-size="16" >H</text>
<text x="333.416859" y="79.136401" fill="rgb(191,191,191)"  stroke="rgb(191,191,191)" stroke-width="1" font-size="16" >H</text>
<text x="272.428796" y="52.075074" fill="rgb(191,191,191)"  stroke="rgb(191,191,191)" stroke-width="1" font-size="16" >H</text>
<text x="310.734760" y="48.000000" fill="rgb(191,191,191)"  stroke="rgb(191,191,191)" stroke-width="1" font-size="16" >H</text>
<text x="271.021541" y="208.996569" fill="rgb(191,191,191)"  stroke="rgb(191,191,191)" stroke-width="1" font-size="16" >H</text>
<text x="285.623942" y="176.090765" fill="rgb(191,191,191)"  stroke="rgb(191,191,191)" stroke-width="1" font-size="16" >H</text>
<text x="323.929486" y="172.015999" fill="rgb(191,191,191)"  stroke="rgb(191,191,191)" stroke-width="1" font-size="16" >H</text>
<text x="321.422250" y="172.283253" fill="rgb(191,191,191)"  stroke="rgb(191,191,191)" stroke-width="1" font-size="16" >H</text>
<text x="350.112592" y="284.857679" fill="rgb(191,191,191)"  stroke="rgb(191,191,191)" stroke-width="1" font-size="16" >H</text>
<text x="328.019866" y="234.287955" fill="rgb(191,191,191)"  stroke="rgb(191,191,191)" stroke-width="1" font-size="16" >H</text>
</svg>
</g>
<text font-size="18.000000" fill ="black" font-family="sans-serif"
x="10.000000" y="20.000000" ></text>
</svg>
