<?xml version="1.0"?>
<svg version="1.1" id="topsvg"
xmlns="http://www.w3.org/2000/svg" xmlns:xlink="http://www.w3.org/1999/xlink"
xmlns:cml="http://www.xml-cml.org/schema" x="0" y="0" width="200px" height="200px" viewBox="0 0 100 100">
<title> - Open Babel Depiction</title>
<rect x="0" y="0" width="100" height="100" fill="white"/>
<g transform="translate(0,0)">
<svg width="100" height="100" x="0" y="0" viewBox="0 0 395.142 314.212"
font-family="sans-serif" stroke="rgb(0,0,0)" stroke-width="2"  stroke-linecap="round">
<line x1="69.3" y1="210.3" x2="52.9" y2="207.9" stroke="rgb(0,0,0)"  stroke-width="2.0"/>
<line x1="134.4" y1="147.0" x2="134.6" y2="145.4" stroke="rgb(0,0,0)"  stroke-width="1.0"/>
<line x1="128.7" y1="146.8" x2="129.1" y2="144.0" stroke="rgb(0,0,0)"  stroke-width="1.0"/>
<line x1="123.0" y1="146.7" x2="123.5" y2="142.5" stroke="rgb(0,0,0)"  stroke-width="1.0"/>
<line x1="117.2" y1="146.5" x2="118.0" y2="141.1" stroke="rgb(0,0,0)"  stroke-width="1.0"/>
<line x1="111.5" y1="146.4" x2="112.5" y2="139.7" stroke="rgb(0,0,0)"  stroke-width="1.0"/>
<line x1="105.8" y1="146.2" x2="106.9" y2="138.3" stroke="rgb(0,0,0)"  stroke-width="1.0"/>
<line x1="123.2" y1="109.2" x2="106.3" y2="104.0" stroke="rgb(0,0,0)"  stroke-width="2.0"/>
<line x1="123.2" y1="109.2" x2="121.2" y2="91.6" stroke="rgb(0,0,0)"  stroke-width="2.0"/>
<line x1="159.5" y1="52.6" x2="163.1" y2="87.4" stroke="rgb(0,0,0)"  stroke-width="2.0"/>
<line x1="153.5" y1="53.2" x2="157.1" y2="88.1" stroke="rgb(0,0,0)"  stroke-width="2.0"/>
<line x1="180.3" y1="123.8" x2="204.8" y2="107.6" stroke="rgb(0,0,0)"  stroke-width="2.0"/>
<polygon points="180.260910 123.814446 181.227043 102.910736 189.000555 104.800843 " stroke-width="2.000000" fill="rgb(0,0,0)"  stroke="rgb(0,0,0)" />
<line x1="253.3" y1="136.6" x2="251.5" y2="120.1" stroke="rgb(0,0,0)"  stroke-width="2.0"/>
<line x1="296.0" y1="142.4" x2="303.8" y2="127.8" stroke="rgb(0,0,0)"  stroke-width="2.0"/>
<line x1="325.9" y1="176.7" x2="342.3" y2="179.1" stroke="rgb(0,0,0)"  stroke-width="2.0"/>
<line x1="291.4" y1="198.6" x2="295.7" y2="214.6" stroke="rgb(0,0,0)"  stroke-width="2.0"/>
<line x1="204.6" y1="196.1" x2="198.2" y2="212.6" stroke="rgb(0,0,0)"  stroke-width="2.0"/>
<line x1="204.6" y1="196.1" x2="214.5" y2="210.7" stroke="rgb(0,0,0)"  stroke-width="2.0"/>
<line x1="147.3" y1="250.9" x2="154.9" y2="261.4" stroke="rgb(0,0,0)"  stroke-width="2.0"/>
<line x1="92.9" y1="246.4" x2="85.5" y2="262.4" stroke="rgb(0,0,0)"  stroke-width="2.0"/>
<line x1="92.9" y1="246.4" x2="75.3" y2="247.7" stroke="rgb(0,0,0)"  stroke-width="2.0"/>
<line x1="228.6" y1="100.7" x2="244.3" y2="101.0" stroke="rgb(0,0,0)"  stroke-width="2.0"/>
<line x1="246.9" y1="99.5" x2="254.5" y2="113.2" stroke="rgb(0,0,0)"  stroke-width="2.0"/>
<line x1="241.6" y1="102.4" x2="249.2" y2="116.1" stroke="rgb(0,0,0)"  stroke-width="2.0"/>
<line x1="244.3" y1="101.0" x2="252.3" y2="87.5" stroke="rgb(0,0,0)"  stroke-width="2.0"/>
<line x1="272.0" y1="76.6" x2="287.7" y2="76.9" stroke="rgb(0,0,0)"  stroke-width="2.0"/>
<line x1="287.7" y1="76.9" x2="296.2" y2="92.3" stroke="rgb(0,0,0)"  stroke-width="2.0"/>
<line x1="287.7" y1="76.9" x2="296.8" y2="61.8" stroke="rgb(0,0,0)"  stroke-width="2.0"/>
<line x1="287.7" y1="76.9" x2="305.3" y2="77.2" stroke="rgb(0,0,0)"  stroke-width="2.0"/>
<line x1="215.1" y1="71.3" x2="215.4" y2="87.5" stroke="rgb(0,0,0)"  stroke-width="2.0"/>
<line x1="84.2" y1="127.8" x2="83.5" y2="126.1" stroke="rgb(0,0,0)"  stroke-width="2.0"/>
<line x1="253.3" y1="136.6" x2="296.0" y2="142.4" stroke="rgb(0,0,0)"  stroke-width="2.0"/>
<line x1="296.0" y1="142.4" x2="325.9" y2="176.7" stroke="rgb(0,0,0)"  stroke-width="2.0"/>
<line x1="294.5" y1="151.7" x2="316.5" y2="176.9" stroke="rgb(0,0,0)"  stroke-width="2.0"/>
<line x1="325.9" y1="176.7" x2="291.4" y2="198.6" stroke="rgb(0,0,0)"  stroke-width="2.0"/>
<line x1="291.4" y1="198.6" x2="247.6" y2="196.7" stroke="rgb(0,0,0)"  stroke-width="2.0"/>
<line x1="285.7" y1="191.1" x2="253.9" y2="189.8" stroke="rgb(0,0,0)"  stroke-width="2.0"/>
<line x1="247.6" y1="196.7" x2="212.7" y2="151.7" stroke="rgb(0,0,0)"  stroke-width="2.0"/>
<line x1="212.7" y1="151.7" x2="253.3" y2="136.6" stroke="rgb(0,0,0)"  stroke-width="2.0"/>
<line x1="220.9" y1="156.4" x2="250.2" y2="145.4" stroke="rgb(0,0,0)"  stroke-width="2.0"/>
<line x1="92.9" y1="246.4" x2="69.3" y2="210.3" stroke="rgb(0,0,0)"  stroke-width="2.0"/>
<line x1="69.3" y1="210.3" x2="102.3" y2="182.6" stroke="rgb(0,0,0)"  stroke-width="2.0"/>
<line x1="78.5" y1="211.9" x2="102.3" y2="192.0" stroke="rgb(0,0,0)"  stroke-width="2.0"/>
<line x1="102.3" y1="182.6" x2="174.0" y2="169.1" stroke="rgb(0,0,0)"  stroke-width="2.0"/>
<line x1="174.0" y1="169.1" x2="151.0" y2="216.8" stroke="rgb(0,0,0)"  stroke-width="2.0"/>
<line x1="164.9" y1="171.4" x2="143.7" y2="215.4" stroke="rgb(0,0,0)"  stroke-width="2.0"/>
<line x1="126.8" y1="242.0" x2="92.9" y2="246.4" stroke="rgb(0,0,0)"  stroke-width="2.0"/>
<line x1="102.3" y1="182.6" x2="141.5" y2="147.1" stroke="rgb(0,0,0)"  stroke-width="2.0"/>
<line x1="141.5" y1="147.1" x2="212.7" y2="151.7" stroke="rgb(0,0,0)"  stroke-width="2.0"/>
<line x1="247.6" y1="196.7" x2="204.6" y2="196.1" stroke="rgb(0,0,0)"  stroke-width="2.0"/>
<line x1="204.6" y1="196.1" x2="174.0" y2="169.1" stroke="rgb(0,0,0)"  stroke-width="2.0"/>
<line x1="141.5" y1="147.1" x2="123.2" y2="109.2" stroke="rgb(0,0,0)"  stroke-width="2.0"/>
<line x1="123.2" y1="109.2" x2="160.1" y2="87.7" stroke="rgb(0,0,0)"  stroke-width="2.0"/>
<line x1="160.1" y1="87.7" x2="180.3" y2="123.8" stroke="rgb(0,0,0)"  stroke-width="2.0"/>
<line x1="180.3" y1="123.8" x2="174.0" y2="169.1" stroke="rgb(0,0,0)"  stroke-width="2.0"/>
<text x="149.150671" y="48.000000" fill="rgb(255,12,12)"  stroke="rgb(255,12,12)" stroke-width="1" font-size="16" >O</text>
<text x="133.687418" y="248.343258" fill="rgb(178,178,0)"  stroke="rgb(178,178,0)" stroke-width="1" font-size="16" >S</text>
<text x="209.605490" y="108.454819" fill="rgb(12,12,255)"  stroke="rgb(12,12,255)" stroke-width="1" font-size="16" >N</text>
<text x="252.144481" y="134.014887" fill="rgb(255,12,12)"  stroke="rgb(255,12,12)" stroke-width="1" font-size="16" >O</text>
<text x="253.009758" y="84.396093" fill="rgb(255,12,12)"  stroke="rgb(255,12,12)" stroke-width="1" font-size="16" >O</text>
<text x="208.903527" y="66.276838" fill="rgb(191,191,191)"  stroke="rgb(191,191,191)" stroke-width="1" font-size="16" >H</text>
<text x="83.074414" y="147.819215" fill="rgb(255,12,12)"  stroke="rgb(255,12,12)" stroke-width="1" font-size="16" >O</text>
<text x="72.642376" y="122.061451" fill="rgb(191,191,191)"  stroke="rgb(191,191,191)" stroke-width="1" font-size="16" >H</text>
<text x="34.000000" y="213.952775" fill="rgb(191,191,191)"  stroke="rgb(191,191,191)" stroke-width="1" font-size="16" >H</text>
<text x="87.905069" y="108.202685" fill="rgb(191,191,191)"  stroke="rgb(191,191,191)" stroke-width="1" font-size="16" >H</text>
<text x="113.711541" y="86.731196" fill="rgb(191,191,191)"  stroke="rgb(191,191,191)" stroke-width="1" font-size="16" >H</text>
<text x="181.504028" y="102.025406" fill="rgb(191,191,191)"  stroke="rgb(191,191,191)" stroke-width="1" font-size="16" >H</text>
<text x="244.036085" y="115.196534" fill="rgb(191,191,191)"  stroke="rgb(191,191,191)" stroke-width="1" font-size="16" >H</text>
<text x="304.006693" y="124.385093" fill="rgb(191,191,191)"  stroke="rgb(191,191,191)" stroke-width="1" font-size="16" >H</text>
<text x="349.141515" y="188.939952" fill="rgb(191,191,191)"  stroke="rgb(191,191,191)" stroke-width="1" font-size="16" >H</text>
<text x="293.033140" y="235.120557" fill="rgb(191,191,191)"  stroke="rgb(191,191,191)" stroke-width="1" font-size="16" >H</text>
<text x="187.569566" y="232.713825" fill="rgb(191,191,191)"  stroke="rgb(191,191,191)" stroke-width="1" font-size="16" >H</text>
<text x="215.768444" y="229.513445" fill="rgb(191,191,191)"  stroke="rgb(191,191,191)" stroke-width="1" font-size="16" >H</text>
<text x="156.482609" y="279.945943" fill="rgb(191,191,191)"  stroke="rgb(191,191,191)" stroke-width="1" font-size="16" >H</text>
<text x="74.080685" y="282.212283" fill="rgb(191,191,191)"  stroke="rgb(191,191,191)" stroke-width="1" font-size="16" >H</text>
<text x="56.328171" y="256.640754" fill="rgb(191,191,191)"  stroke="rgb(191,191,191)" stroke-width="1" font-size="16" >H</text>
<text x="296.522902" y="111.706772" fill="rgb(191,191,191)"  stroke="rgb(191,191,191)" stroke-width="1" font-size="16" >H</text>
<text x="297.445482" y="58.615408" fill="rgb(191,191,191)"  stroke="rgb(191,191,191)" stroke-width="1" font-size="16" >H</text>
<text x="312.309918" y="85.427550" fill="rgb(191,191,191)"  stroke="rgb(191,191,191)" stroke-width="1" font-size="16" >H</text>
</svg>
</g>
<text font-size="18.000000" fill ="black" font-family="sans-serif"
x="10.000000" y="20.000000" ></text>
</svg>
