<?xml version="1.0"?>
<svg version="1.1" id="topsvg"
xmlns="http://www.w3.org/2000/svg" xmlns:xlink="http://www.w3.org/1999/xlink"
xmlns:cml="http://www.xml-cml.org/schema" x="0" y="0" width="200px" height="200px" viewBox="0 0 100 100">
<title> - Open Babel Depiction</title>
<rect x="0" y="0" width="100" height="100" fill="white"/>
<g transform="translate(0,0)">
<svg width="100" height="100" x="0" y="0" viewBox="0 0 318.874 464.913"
font-family="sans-serif" stroke="rgb(0,0,0)" stroke-width="2"  stroke-linecap="round">
<line x1="82.0" y1="315.9" x2="64.8" y2="326.2" stroke="rgb(0,0,0)"  stroke-width="2.0"/>
<line x1="123.6" y1="338.7" x2="132.0" y2="355.8" stroke="rgb(0,0,0)"  stroke-width="2.0"/>
<line x1="81.8" y1="267.4" x2="51.2" y2="249.3" stroke="rgb(0,0,0)"  stroke-width="2.0"/>
<line x1="81.8" y1="267.4" x2="63.3" y2="278.0" stroke="rgb(0,0,0)"  stroke-width="2.0"/>
<line x1="126.3" y1="195.6" x2="126.8" y2="243.2" stroke="rgb(0,0,0)"  stroke-width="2.0"/>
<line x1="120.3" y1="195.7" x2="120.8" y2="243.3" stroke="rgb(0,0,0)"  stroke-width="2.0"/>
<line x1="84.8" y1="178.6" x2="123.3" y2="195.6" stroke="rgb(0,0,0)"  stroke-width="2.0"/>
<line x1="60.7" y1="177.9" x2="58.8" y2="178.7" stroke="rgb(0,0,0)"  stroke-width="2.0"/>
<line x1="153.8" y1="177.9" x2="123.3" y2="195.6" stroke="rgb(0,0,0)"  stroke-width="2.0"/>
<line x1="165.0" y1="266.7" x2="182.4" y2="256.7" stroke="rgb(0,0,0)"  stroke-width="2.0"/>
<line x1="164.7" y1="316.0" x2="182.0" y2="326.2" stroke="rgb(0,0,0)"  stroke-width="2.0"/>
<line x1="130.6" y1="378.3" x2="120.0" y2="394.1" stroke="rgb(0,0,0)"  stroke-width="2.0"/>
<line x1="120.0" y1="394.1" x2="98.7" y2="392.7" stroke="rgb(0,0,0)"  stroke-width="2.0"/>
<line x1="120.0" y1="394.1" x2="129.4" y2="413.3" stroke="rgb(0,0,0)"  stroke-width="2.0"/>
<line x1="120.0" y1="394.1" x2="108.1" y2="411.9" stroke="rgb(0,0,0)"  stroke-width="2.0"/>
<line x1="207.1" y1="99.8" x2="206.9" y2="78.5" stroke="rgb(0,0,0)"  stroke-width="2.0"/>
<line x1="207.1" y1="99.8" x2="225.3" y2="88.7" stroke="rgb(0,0,0)"  stroke-width="2.0"/>
<line x1="165.3" y1="122.9" x2="122.9" y2="98.7" stroke="rgb(0,0,0)"  stroke-width="2.0"/>
<line x1="122.9" y1="98.7" x2="122.8" y2="77.4" stroke="rgb(0,0,0)"  stroke-width="2.0"/>
<line x1="122.9" y1="98.7" x2="104.5" y2="109.5" stroke="rgb(0,0,0)"  stroke-width="2.0"/>
<line x1="122.9" y1="98.7" x2="104.3" y2="88.1" stroke="rgb(0,0,0)"  stroke-width="2.0"/>
<line x1="164.9" y1="74.3" x2="165.3" y2="122.9" stroke="rgb(0,0,0)"  stroke-width="2.0"/>
<line x1="164.9" y1="74.3" x2="183.3" y2="63.5" stroke="rgb(0,0,0)"  stroke-width="2.0"/>
<line x1="164.9" y1="74.3" x2="146.4" y2="63.8" stroke="rgb(0,0,0)"  stroke-width="2.0"/>
<line x1="164.9" y1="74.3" x2="164.8" y2="53.0" stroke="rgb(0,0,0)"  stroke-width="2.0"/>
<line x1="249.2" y1="122.0" x2="267.5" y2="111.1" stroke="rgb(0,0,0)"  stroke-width="2.0"/>
<line x1="249.2" y1="122.0" x2="267.6" y2="132.7" stroke="rgb(0,0,0)"  stroke-width="2.0"/>
<line x1="248.5" y1="171.8" x2="266.8" y2="182.7" stroke="rgb(0,0,0)"  stroke-width="2.0"/>
<line x1="248.5" y1="171.8" x2="248.3" y2="193.2" stroke="rgb(0,0,0)"  stroke-width="2.0"/>
<line x1="248.8" y1="220.1" x2="206.3" y2="195.9" stroke="rgb(0,0,0)"  stroke-width="2.0"/>
<line x1="248.8" y1="220.1" x2="248.9" y2="241.5" stroke="rgb(0,0,0)"  stroke-width="2.0"/>
<line x1="248.8" y1="220.1" x2="267.2" y2="209.4" stroke="rgb(0,0,0)"  stroke-width="2.0"/>
<line x1="248.8" y1="220.1" x2="267.3" y2="230.7" stroke="rgb(0,0,0)"  stroke-width="2.0"/>
<line x1="205.7" y1="245.1" x2="206.3" y2="195.9" stroke="rgb(0,0,0)"  stroke-width="2.0"/>
<line x1="205.7" y1="245.1" x2="187.1" y2="255.5" stroke="rgb(0,0,0)"  stroke-width="2.0"/>
<line x1="205.7" y1="245.1" x2="224.1" y2="256.0" stroke="rgb(0,0,0)"  stroke-width="2.0"/>
<line x1="205.7" y1="245.1" x2="205.5" y2="266.4" stroke="rgb(0,0,0)"  stroke-width="2.0"/>
<line x1="123.6" y1="338.7" x2="164.7" y2="316.0" stroke="rgb(0,0,0)"  stroke-width="2.0"/>
<line x1="164.7" y1="316.0" x2="165.0" y2="266.7" stroke="rgb(0,0,0)"  stroke-width="2.0"/>
<line x1="157.5" y1="309.9" x2="157.8" y2="272.7" stroke="rgb(0,0,0)"  stroke-width="2.0"/>
<line x1="165.0" y1="266.7" x2="123.8" y2="243.2" stroke="rgb(0,0,0)"  stroke-width="2.0"/>
<line x1="123.8" y1="243.2" x2="81.8" y2="267.4" stroke="rgb(0,0,0)"  stroke-width="2.0"/>
<line x1="81.8" y1="267.4" x2="82.0" y2="315.9" stroke="rgb(0,0,0)"  stroke-width="2.0"/>
<line x1="82.0" y1="315.9" x2="123.6" y2="338.7" stroke="rgb(0,0,0)"  stroke-width="2.0"/>
<line x1="90.8" y1="312.5" x2="121.8" y2="329.5" stroke="rgb(0,0,0)"  stroke-width="2.0"/>
<line x1="206.3" y1="195.9" x2="248.5" y2="171.8" stroke="rgb(0,0,0)"  stroke-width="2.0"/>
<line x1="248.5" y1="171.8" x2="249.2" y2="122.0" stroke="rgb(0,0,0)"  stroke-width="2.0"/>
<line x1="249.2" y1="122.0" x2="207.1" y2="99.8" stroke="rgb(0,0,0)"  stroke-width="2.0"/>
<line x1="207.1" y1="99.8" x2="165.3" y2="122.9" stroke="rgb(0,0,0)"  stroke-width="2.0"/>
<line x1="165.3" y1="122.9" x2="165.1" y2="158.3" stroke="rgb(0,0,0)"  stroke-width="2.0"/>
<line x1="176.2" y1="178.0" x2="206.3" y2="195.9" stroke="rgb(0,0,0)"  stroke-width="2.0"/>
<text x="22.000000" y="250.670333" fill="rgb(17,127,178)"  stroke="rgb(17,127,178)" stroke-width="1" font-size="16" >Xx</text>
<text x="60.866673" y="181.330764" fill="rgb(17,127,178)"  stroke="rgb(17,127,178)" stroke-width="1" font-size="16" >Xx</text>
<text x="159.053136" y="179.325525" fill="rgb(12,12,255)"  stroke="rgb(12,12,255)" stroke-width="1" font-size="16" >N</text>
<text x="131.788299" y="375.444340" fill="rgb(255,12,12)"  stroke="rgb(255,12,12)" stroke-width="1" font-size="16" >O</text>
<text x="28.599643" y="191.302418" fill="rgb(17,127,178)"  stroke="rgb(17,127,178)" stroke-width="1" font-size="16" >Xx</text>
<text x="47.587501" y="340.851557" fill="rgb(191,191,191)"  stroke="rgb(191,191,191)" stroke-width="1" font-size="16" >H</text>
<text x="46.021810" y="292.491603" fill="rgb(191,191,191)"  stroke="rgb(191,191,191)" stroke-width="1" font-size="16" >H</text>
<text x="187.675119" y="258.184366" fill="rgb(191,191,191)"  stroke="rgb(191,191,191)" stroke-width="1" font-size="16" >H</text>
<text x="187.171403" y="340.874015" fill="rgb(191,191,191)"  stroke="rgb(191,191,191)" stroke-width="1" font-size="16" >H</text>
<text x="79.722663" y="399.905051" fill="rgb(191,191,191)"  stroke="rgb(191,191,191)" stroke-width="1" font-size="16" >H</text>
<text x="129.179884" y="432.912893" fill="rgb(191,191,191)"  stroke="rgb(191,191,191)" stroke-width="1" font-size="16" >H</text>
<text x="94.923981" y="430.686275" fill="rgb(191,191,191)"  stroke="rgb(191,191,191)" stroke-width="1" font-size="16" >H</text>
<text x="200.813447" y="73.516268" fill="rgb(191,191,191)"  stroke="rgb(191,191,191)" stroke-width="1" font-size="16" >H</text>
<text x="230.442862" y="89.984897" fill="rgb(191,191,191)"  stroke="rgb(191,191,191)" stroke-width="1" font-size="16" >H</text>
<text x="116.683233" y="72.370876" fill="rgb(191,191,191)"  stroke="rgb(191,191,191)" stroke-width="1" font-size="16" >H</text>
<text x="87.249529" y="124.035464" fill="rgb(191,191,191)"  stroke="rgb(191,191,191)" stroke-width="1" font-size="16" >H</text>
<text x="87.053818" y="89.705768" fill="rgb(191,191,191)"  stroke="rgb(191,191,191)" stroke-width="1" font-size="16" >H</text>
<text x="188.544591" y="64.937053" fill="rgb(191,191,191)"  stroke="rgb(191,191,191)" stroke-width="1" font-size="16" >H</text>
<text x="129.083633" y="65.395852" fill="rgb(191,191,191)"  stroke="rgb(191,191,191)" stroke-width="1" font-size="16" >H</text>
<text x="158.680964" y="48.000000" fill="rgb(191,191,191)"  stroke="rgb(191,191,191)" stroke-width="1" font-size="16" >H</text>
<text x="272.684430" y="112.507745" fill="rgb(191,191,191)"  stroke="rgb(191,191,191)" stroke-width="1" font-size="16" >H</text>
<text x="272.873725" y="147.222446" fill="rgb(191,191,191)"  stroke="rgb(191,191,191)" stroke-width="1" font-size="16" >H</text>
<text x="272.026712" y="197.266801" fill="rgb(191,191,191)"  stroke="rgb(191,191,191)" stroke-width="1" font-size="16" >H</text>
<text x="242.230460" y="214.162145" fill="rgb(191,191,191)"  stroke="rgb(191,191,191)" stroke-width="1" font-size="16" >H</text>
<text x="243.000472" y="262.473973" fill="rgb(191,191,191)"  stroke="rgb(191,191,191)" stroke-width="1" font-size="16" >H</text>
<text x="272.459843" y="210.822219" fill="rgb(191,191,191)"  stroke="rgb(191,191,191)" stroke-width="1" font-size="16" >H</text>
<text x="272.639513" y="245.151915" fill="rgb(191,191,191)"  stroke="rgb(191,191,191)" stroke-width="1" font-size="16" >H</text>
<text x="169.791594" y="269.869296" fill="rgb(191,191,191)"  stroke="rgb(191,191,191)" stroke-width="1" font-size="16" >H</text>
<text x="229.246135" y="270.610432" fill="rgb(191,191,191)"  stroke="rgb(191,191,191)" stroke-width="1" font-size="16" >H</text>
<text x="199.305507" y="287.403108" fill="rgb(191,191,191)"  stroke="rgb(191,191,191)" stroke-width="1" font-size="16" >H</text>
</svg>
</g>
<text font-size="18.000000" fill ="black" font-family="sans-serif"
x="10.000000" y="20.000000" ></text>
</svg>
