<?xml version="1.0"?>
<svg version="1.1" id="topsvg"
xmlns="http://www.w3.org/2000/svg" xmlns:xlink="http://www.w3.org/1999/xlink"
xmlns:cml="http://www.xml-cml.org/schema" x="0" y="0" width="200px" height="200px" viewBox="0 0 100 100">
<title> - Open Babel Depiction</title>
<rect x="0" y="0" width="100" height="100" fill="white"/>
<g transform="translate(0,0)">
<svg width="100" height="100" x="0" y="0" viewBox="0 0 274.691 465.405"
font-family="sans-serif" stroke="rgb(0,0,0)" stroke-width="2"  stroke-linecap="round">
<line x1="79.2" y1="356.3" x2="61.0" y2="365.7" stroke="rgb(0,0,0)"  stroke-width="2.0"/>
<line x1="79.2" y1="356.3" x2="75.8" y2="376.5" stroke="rgb(0,0,0)"  stroke-width="2.0"/>
<line x1="73.5" y1="327.1" x2="53.0" y2="326.7" stroke="rgb(0,0,0)"  stroke-width="2.0"/>
<line x1="73.5" y1="327.1" x2="61.0" y2="310.9" stroke="rgb(0,0,0)"  stroke-width="2.0"/>
<line x1="101.7" y1="189.5" x2="113.4" y2="172.6" stroke="rgb(0,0,0)"  stroke-width="2.0"/>
<line x1="180.6" y1="184.9" x2="196.5" y2="175.3" stroke="rgb(0,0,0)"  stroke-width="2.0"/>
<line x1="183.7" y1="190.0" x2="199.6" y2="180.5" stroke="rgb(0,0,0)"  stroke-width="2.0"/>
<line x1="178.4" y1="377.8" x2="190.8" y2="394.1" stroke="rgb(0,0,0)"  stroke-width="2.0"/>
<line x1="178.4" y1="377.8" x2="198.9" y2="378.7" stroke="rgb(0,0,0)"  stroke-width="2.0"/>
<line x1="149.2" y1="392.3" x2="153.9" y2="412.3" stroke="rgb(0,0,0)"  stroke-width="2.0"/>
<line x1="149.2" y1="392.3" x2="136.4" y2="408.4" stroke="rgb(0,0,0)"  stroke-width="2.0"/>
<line x1="129.4" y1="392.3" x2="126.1" y2="412.6" stroke="rgb(0,0,0)"  stroke-width="2.0"/>
<line x1="129.4" y1="392.3" x2="111.8" y2="402.9" stroke="rgb(0,0,0)"  stroke-width="2.0"/>
<line x1="106.1" y1="384.5" x2="95.1" y2="401.8" stroke="rgb(0,0,0)"  stroke-width="2.0"/>
<line x1="106.1" y1="384.5" x2="113.0" y2="403.8" stroke="rgb(0,0,0)"  stroke-width="2.0"/>
<line x1="190.1" y1="364.9" x2="208.1" y2="374.9" stroke="rgb(0,0,0)"  stroke-width="2.0"/>
<line x1="190.1" y1="364.9" x2="209.1" y2="357.1" stroke="rgb(0,0,0)"  stroke-width="2.0"/>
<line x1="201.2" y1="326.1" x2="221.7" y2="326.8" stroke="rgb(0,0,0)"  stroke-width="2.0"/>
<line x1="201.2" y1="326.1" x2="214.5" y2="310.4" stroke="rgb(0,0,0)"  stroke-width="2.0"/>
<line x1="140.8" y1="52.9" x2="141.6" y2="87.7" stroke="rgb(0,0,0)"  stroke-width="2.0"/>
<line x1="134.8" y1="53.1" x2="135.6" y2="87.8" stroke="rgb(0,0,0)"  stroke-width="2.0"/>
<line x1="138.6" y1="87.7" x2="91.0" y2="119.3" stroke="rgb(0,0,0)"  stroke-width="2.0"/>
<line x1="84.3" y1="138.7" x2="101.7" y2="189.5" stroke="rgb(0,0,0)"  stroke-width="2.0"/>
<line x1="101.7" y1="189.5" x2="182.1" y2="187.4" stroke="rgb(0,0,0)"  stroke-width="2.0"/>
<line x1="182.1" y1="187.4" x2="190.9" y2="139.2" stroke="rgb(0,0,0)"  stroke-width="2.0"/>
<line x1="182.6" y1="118.9" x2="138.6" y2="87.7" stroke="rgb(0,0,0)"  stroke-width="2.0"/>
<line x1="73.5" y1="327.1" x2="79.2" y2="356.3" stroke="rgb(0,0,0)"  stroke-width="2.0"/>
<line x1="79.2" y1="356.3" x2="106.1" y2="384.5" stroke="rgb(0,0,0)"  stroke-width="2.0"/>
<line x1="106.1" y1="384.5" x2="129.4" y2="392.3" stroke="rgb(0,0,0)"  stroke-width="2.0"/>
<line x1="129.4" y1="392.3" x2="149.2" y2="392.3" stroke="rgb(0,0,0)"  stroke-width="2.0"/>
<line x1="149.2" y1="392.3" x2="178.4" y2="377.8" stroke="rgb(0,0,0)"  stroke-width="2.0"/>
<line x1="178.4" y1="377.8" x2="190.1" y2="364.9" stroke="rgb(0,0,0)"  stroke-width="2.0"/>
<line x1="190.1" y1="364.9" x2="201.2" y2="326.1" stroke="rgb(0,0,0)"  stroke-width="2.0"/>
<line x1="201.2" y1="326.1" x2="195.2" y2="297.0" stroke="rgb(0,0,0)"  stroke-width="2.0"/>
<line x1="195.2" y1="297.0" x2="182.7" y2="235.3" stroke="rgb(0,0,0)"  stroke-width="2.0"/>
<line x1="191.1" y1="297.8" x2="178.5" y2="236.2" stroke="rgb(0,0,0)"  stroke-width="2.0"/>
<line x1="199.4" y1="296.1" x2="186.8" y2="234.5" stroke="rgb(0,0,0)"  stroke-width="2.0"/>
<line x1="182.7" y1="235.3" x2="182.1" y2="187.4" stroke="rgb(0,0,0)"  stroke-width="2.0"/>
<line x1="101.7" y1="189.5" x2="92.9" y2="234.6" stroke="rgb(0,0,0)"  stroke-width="2.0"/>
<line x1="92.9" y1="234.6" x2="80.6" y2="297.4" stroke="rgb(0,0,0)"  stroke-width="2.0"/>
<line x1="97.0" y1="235.4" x2="84.7" y2="298.2" stroke="rgb(0,0,0)"  stroke-width="2.0"/>
<line x1="88.8" y1="233.8" x2="76.4" y2="296.6" stroke="rgb(0,0,0)"  stroke-width="2.0"/>
<line x1="80.6" y1="297.4" x2="73.5" y2="327.1" stroke="rgb(0,0,0)"  stroke-width="2.0"/>
<text x="74.114037" y="134.426947" fill="rgb(255,12,12)"  stroke="rgb(255,12,12)" stroke-width="1" font-size="16" >O</text>
<text x="187.198016" y="134.426947" fill="rgb(255,12,12)"  stroke="rgb(255,12,12)" stroke-width="1" font-size="16" >O</text>
<text x="131.464575" y="48.000000" fill="rgb(178,178,0)"  stroke="rgb(178,178,0)" stroke-width="1" font-size="16" >S</text>
<text x="203.231095" y="179.232447" fill="rgb(191,191,191)"  stroke="rgb(191,191,191)" stroke-width="1" font-size="16" >H</text>
<text x="43.436201" y="379.667875" fill="rgb(191,191,191)"  stroke="rgb(191,191,191)" stroke-width="1" font-size="16" >H</text>
<text x="67.686390" y="397.330587" fill="rgb(191,191,191)"  stroke="rgb(191,191,191)" stroke-width="1" font-size="16" >H</text>
<text x="34.000000" y="334.480039" fill="rgb(191,191,191)"  stroke="rgb(191,191,191)" stroke-width="1" font-size="16" >H</text>
<text x="46.990054" y="308.637824" fill="rgb(191,191,191)"  stroke="rgb(191,191,191)" stroke-width="1" font-size="16" >H</text>
<text x="114.851723" y="169.971745" fill="rgb(191,191,191)"  stroke="rgb(191,191,191)" stroke-width="1" font-size="16" >H</text>
<text x="192.657286" y="412.498708" fill="rgb(191,191,191)"  stroke="rgb(191,191,191)" stroke-width="1" font-size="16" >H</text>
<text x="205.932525" y="387.277007" fill="rgb(191,191,191)"  stroke="rgb(191,191,191)" stroke-width="1" font-size="16" >H</text>
<text x="150.847803" y="432.972536" fill="rgb(191,191,191)"  stroke="rgb(191,191,191)" stroke-width="1" font-size="16" >H</text>
<text x="122.344900" y="426.607567" fill="rgb(191,191,191)"  stroke="rgb(191,191,191)" stroke-width="1" font-size="16" >H</text>
<text x="117.941757" y="433.405016" fill="rgb(191,191,191)"  stroke="rgb(191,191,191)" stroke-width="1" font-size="16" >H</text>
<text x="94.641142" y="417.588176" fill="rgb(191,191,191)"  stroke="rgb(191,191,191)" stroke-width="1" font-size="16" >H</text>
<text x="82.111774" y="420.747157" fill="rgb(191,191,191)"  stroke="rgb(191,191,191)" stroke-width="1" font-size="16" >H</text>
<text x="111.279066" y="424.091038" fill="rgb(191,191,191)"  stroke="rgb(191,191,191)" stroke-width="1" font-size="16" >H</text>
<text x="213.413166" y="389.226298" fill="rgb(191,191,191)"  stroke="rgb(191,191,191)" stroke-width="1" font-size="16" >H</text>
<text x="215.096075" y="360.084077" fill="rgb(191,191,191)"  stroke="rgb(191,191,191)" stroke-width="1" font-size="16" >H</text>
<text x="228.690973" y="335.329328" fill="rgb(191,191,191)"  stroke="rgb(191,191,191)" stroke-width="1" font-size="16" >H</text>
<text x="216.882404" y="308.487396" fill="rgb(191,191,191)"  stroke="rgb(191,191,191)" stroke-width="1" font-size="16" >H</text>
</svg>
</g>
<text font-size="18.000000" fill ="black" font-family="sans-serif"
x="10.000000" y="20.000000" ></text>
</svg>
