<?xml version="1.0"?>
<svg version="1.1" id="topsvg"
xmlns="http://www.w3.org/2000/svg" xmlns:xlink="http://www.w3.org/1999/xlink"
xmlns:cml="http://www.xml-cml.org/schema" x="0" y="0" width="200px" height="200px" viewBox="0 0 100 100">
<title> - Open Babel Depiction</title>
<rect x="0" y="0" width="100" height="100" fill="white"/>
<g transform="translate(0,0)">
<svg width="100" height="100" x="0" y="0" viewBox="0 0 380.621 431.27"
font-family="sans-serif" stroke="rgb(0,0,0)" stroke-width="2"  stroke-linecap="round">
<line x1="245.8" y1="312.9" x2="199.0" y2="324.7" stroke="rgb(0,0,0)"  stroke-width="2.0"/>
<line x1="245.8" y1="312.9" x2="232.6" y2="358.9" stroke="rgb(0,0,0)"  stroke-width="2.0"/>
<line x1="187.7" y1="190.7" x2="229.4" y2="168.6" stroke="rgb(0,0,0)"  stroke-width="2.0"/>
<line x1="190.5" y1="196.0" x2="232.2" y2="173.9" stroke="rgb(0,0,0)"  stroke-width="2.0"/>
<line x1="189.7" y1="98.3" x2="149.1" y2="123.0" stroke="rgb(0,0,0)"  stroke-width="2.0"/>
<line x1="108.7" y1="99.8" x2="149.1" y2="123.0" stroke="rgb(0,0,0)"  stroke-width="2.0"/>
<line x1="66.2" y1="119.2" x2="107.2" y2="97.1" stroke="rgb(0,0,0)"  stroke-width="2.0"/>
<line x1="69.0" y1="124.5" x2="110.1" y2="102.4" stroke="rgb(0,0,0)"  stroke-width="2.0"/>
<line x1="230.0" y1="121.7" x2="230.3" y2="73.6" stroke="rgb(0,0,0)"  stroke-width="2.0"/>
<line x1="230.0" y1="121.7" x2="189.7" y2="98.3" stroke="rgb(0,0,0)"  stroke-width="2.0"/>
<line x1="273.0" y1="65.1" x2="275.5" y2="100.5" stroke="rgb(0,0,0)"  stroke-width="2.0"/>
<line x1="267.1" y1="65.6" x2="269.6" y2="101.0" stroke="rgb(0,0,0)"  stroke-width="2.0"/>
<line x1="271.1" y1="190.9" x2="272.6" y2="238.1" stroke="rgb(0,0,0)"  stroke-width="2.0"/>
<line x1="229.3" y1="204.3" x2="230.8" y2="171.2" stroke="rgb(0,0,0)"  stroke-width="2.0"/>
<line x1="150.0" y1="166.8" x2="190.7" y2="190.8" stroke="rgb(0,0,0)"  stroke-width="2.0"/>
<line x1="147.0" y1="172.0" x2="187.6" y2="195.9" stroke="rgb(0,0,0)"  stroke-width="2.0"/>
<line x1="199.0" y1="324.7" x2="184.6" y2="309.9" stroke="rgb(0,0,0)"  stroke-width="2.0"/>
<line x1="199.0" y1="324.7" x2="193.4" y2="344.6" stroke="rgb(0,0,0)"  stroke-width="2.0"/>
<line x1="199.0" y1="324.7" x2="179.0" y2="329.8" stroke="rgb(0,0,0)"  stroke-width="2.0"/>
<line x1="293.4" y1="312.9" x2="305.7" y2="329.5" stroke="rgb(0,0,0)"  stroke-width="2.0"/>
<line x1="293.4" y1="312.9" x2="284.1" y2="331.4" stroke="rgb(0,0,0)"  stroke-width="2.0"/>
<line x1="232.6" y1="358.9" x2="212.6" y2="363.9" stroke="rgb(0,0,0)"  stroke-width="2.0"/>
<line x1="232.6" y1="358.9" x2="247.0" y2="373.8" stroke="rgb(0,0,0)"  stroke-width="2.0"/>
<line x1="232.6" y1="358.9" x2="227.0" y2="378.8" stroke="rgb(0,0,0)"  stroke-width="2.0"/>
<line x1="189.7" y1="98.3" x2="189.5" y2="77.7" stroke="rgb(0,0,0)"  stroke-width="2.0"/>
<line x1="189.7" y1="98.3" x2="207.6" y2="87.9" stroke="rgb(0,0,0)"  stroke-width="2.0"/>
<line x1="149.1" y1="123.0" x2="149.4" y2="143.7" stroke="rgb(0,0,0)"  stroke-width="2.0"/>
<line x1="149.1" y1="123.0" x2="131.3" y2="133.5" stroke="rgb(0,0,0)"  stroke-width="2.0"/>
<line x1="108.7" y1="99.8" x2="108.9" y2="80.3" stroke="rgb(0,0,0)"  stroke-width="2.0"/>
<line x1="67.6" y1="121.8" x2="51.1" y2="111.6" stroke="rgb(0,0,0)"  stroke-width="2.0"/>
<line x1="67.6" y1="121.8" x2="67.0" y2="141.2" stroke="rgb(0,0,0)"  stroke-width="2.0"/>
<line x1="230.3" y1="73.6" x2="248.2" y2="63.4" stroke="rgb(0,0,0)"  stroke-width="2.0"/>
<line x1="230.3" y1="73.6" x2="212.5" y2="63.2" stroke="rgb(0,0,0)"  stroke-width="2.0"/>
<line x1="230.3" y1="73.6" x2="230.4" y2="53.0" stroke="rgb(0,0,0)"  stroke-width="2.0"/>
<line x1="311.1" y1="122.7" x2="328.9" y2="112.2" stroke="rgb(0,0,0)"  stroke-width="2.0"/>
<line x1="311.1" y1="122.7" x2="329.1" y2="132.8" stroke="rgb(0,0,0)"  stroke-width="2.0"/>
<line x1="311.9" y1="170.5" x2="329.5" y2="181.2" stroke="rgb(0,0,0)"  stroke-width="2.0"/>
<line x1="311.9" y1="170.5" x2="311.0" y2="191.1" stroke="rgb(0,0,0)"  stroke-width="2.0"/>
<polygon points="271.057041 190.894337 254.305884 206.493944 249.960804 199.776781 " stroke-width="2.000000" fill="rgb(0,0,0)"  stroke="rgb(0,0,0)" />
<line x1="148.5" y1="169.4" x2="148.7" y2="150.0" stroke="rgb(0,0,0)"  stroke-width="2.0"/>
<line x1="148.5" y1="169.4" x2="131.6" y2="179.0" stroke="rgb(0,0,0)"  stroke-width="2.0"/>
<line x1="244.6" y1="258.2" x2="272.6" y2="238.1" stroke="rgb(0,0,0)"  stroke-width="2.0"/>
<line x1="249.5" y1="263.5" x2="271.9" y2="247.5" stroke="rgb(0,0,0)"  stroke-width="2.0"/>
<line x1="272.6" y1="238.1" x2="297.0" y2="261.2" stroke="rgb(0,0,0)"  stroke-width="2.0"/>
<line x1="302.7" y1="282.6" x2="293.4" y2="312.9" stroke="rgb(0,0,0)"  stroke-width="2.0"/>
<line x1="293.4" y1="312.9" x2="245.8" y2="312.9" stroke="rgb(0,0,0)"  stroke-width="2.0"/>
<line x1="245.8" y1="312.9" x2="234.9" y2="280.4" stroke="rgb(0,0,0)"  stroke-width="2.0"/>
<line x1="230.8" y1="171.2" x2="230.0" y2="121.7" stroke="rgb(0,0,0)"  stroke-width="2.0"/>
<line x1="230.0" y1="121.7" x2="272.5" y2="100.7" stroke="rgb(0,0,0)"  stroke-width="2.0"/>
<line x1="272.5" y1="100.7" x2="311.1" y2="122.7" stroke="rgb(0,0,0)"  stroke-width="2.0"/>
<line x1="311.1" y1="122.7" x2="311.9" y2="170.5" stroke="rgb(0,0,0)"  stroke-width="2.0"/>
<line x1="311.9" y1="170.5" x2="271.1" y2="190.9" stroke="rgb(0,0,0)"  stroke-width="2.0"/>
<line x1="271.1" y1="190.9" x2="230.8" y2="171.2" stroke="rgb(0,0,0)"  stroke-width="2.0"/>
<text x="224.760131" y="276.067729" fill="rgb(12,12,255)"  stroke="rgb(12,12,255)" stroke-width="1" font-size="16" >N</text>
<text x="300.455949" y="278.142621" fill="rgb(255,12,12)"  stroke="rgb(255,12,12)" stroke-width="1" font-size="16" >O</text>
<text x="263.126763" y="60.382747" fill="rgb(255,12,12)"  stroke="rgb(255,12,12)" stroke-width="1" font-size="16" >O</text>
<text x="222.685239" y="225.258035" fill="rgb(191,191,191)"  stroke="rgb(191,191,191)" stroke-width="1" font-size="16" >H</text>
<text x="169.560606" y="308.614291" fill="rgb(191,191,191)"  stroke="rgb(191,191,191)" stroke-width="1" font-size="16" >H</text>
<text x="183.865495" y="365.094331" fill="rgb(191,191,191)"  stroke="rgb(191,191,191)" stroke-width="1" font-size="16" >H</text>
<text x="160.408667" y="340.983777" fill="rgb(191,191,191)"  stroke="rgb(191,191,191)" stroke-width="1" font-size="16" >H</text>
<text x="307.389399" y="347.982648" fill="rgb(191,191,191)"  stroke="rgb(191,191,191)" stroke-width="1" font-size="16" >H</text>
<text x="272.224885" y="350.956747" fill="rgb(191,191,191)"  stroke="rgb(191,191,191)" stroke-width="1" font-size="16" >H</text>
<text x="194.006465" y="375.079760" fill="rgb(191,191,191)"  stroke="rgb(191,191,191)" stroke-width="1" font-size="16" >H</text>
<text x="250.017585" y="391.122800" fill="rgb(191,191,191)"  stroke="rgb(191,191,191)" stroke-width="1" font-size="16" >H</text>
<text x="217.380799" y="399.270298" fill="rgb(191,191,191)"  stroke="rgb(191,191,191)" stroke-width="1" font-size="16" >H</text>
<text x="183.381433" y="72.695617" fill="rgb(191,191,191)"  stroke="rgb(191,191,191)" stroke-width="1" font-size="16" >H</text>
<text x="212.793078" y="89.388031" fill="rgb(191,191,191)"  stroke="rgb(191,191,191)" stroke-width="1" font-size="16" >H</text>
<text x="143.536286" y="164.668656" fill="rgb(191,191,191)"  stroke="rgb(191,191,191)" stroke-width="1" font-size="16" >H</text>
<text x="114.109774" y="148.056284" fill="rgb(191,191,191)"  stroke="rgb(191,191,191)" stroke-width="1" font-size="16" >H</text>
<text x="103.134861" y="75.325456" fill="rgb(191,191,191)"  stroke="rgb(191,191,191)" stroke-width="1" font-size="16" >H</text>
<text x="34.000000" y="112.722523" fill="rgb(191,191,191)"  stroke="rgb(191,191,191)" stroke-width="1" font-size="16" >H</text>
<text x="60.570923" y="162.237962" fill="rgb(191,191,191)"  stroke="rgb(191,191,191)" stroke-width="1" font-size="16" >H</text>
<text x="253.512527" y="64.990467" fill="rgb(191,191,191)"  stroke="rgb(191,191,191)" stroke-width="1" font-size="16" >H</text>
<text x="195.250130" y="64.647344" fill="rgb(191,191,191)"  stroke="rgb(191,191,191)" stroke-width="1" font-size="16" >H</text>
<text x="224.480380" y="48.000000" fill="rgb(191,191,191)"  stroke="rgb(191,191,191)" stroke-width="1" font-size="16" >H</text>
<text x="334.083195" y="113.532564" fill="rgb(191,191,191)"  stroke="rgb(191,191,191)" stroke-width="1" font-size="16" >H</text>
<text x="334.491097" y="147.108067" fill="rgb(191,191,191)"  stroke="rgb(191,191,191)" stroke-width="1" font-size="16" >H</text>
<text x="334.620830" y="195.933883" fill="rgb(191,191,191)"  stroke="rgb(191,191,191)" stroke-width="1" font-size="16" >H</text>
<text x="304.493504" y="212.082612" fill="rgb(191,191,191)"  stroke="rgb(191,191,191)" stroke-width="1" font-size="16" >H</text>
<text x="236.812717" y="217.164524" fill="rgb(191,191,191)"  stroke="rgb(191,191,191)" stroke-width="1" font-size="16" >H</text>
<text x="142.796296" y="144.964141" fill="rgb(191,191,191)"  stroke="rgb(191,191,191)" stroke-width="1" font-size="16" >H</text>
<text x="114.270141" y="193.379542" fill="rgb(191,191,191)"  stroke="rgb(191,191,191)" stroke-width="1" font-size="16" >H</text>
</svg>
</g>
<text font-size="18.000000" fill ="black" font-family="sans-serif"
x="10.000000" y="20.000000" ></text>
</svg>
