<?xml version="1.0"?>
<svg version="1.1" id="topsvg"
xmlns="http://www.w3.org/2000/svg" xmlns:xlink="http://www.w3.org/1999/xlink"
xmlns:cml="http://www.xml-cml.org/schema" x="0" y="0" width="200px" height="200px" viewBox="0 0 100 100">
<title> - Open Babel Depiction</title>
<rect x="0" y="0" width="100" height="100" fill="white"/>
<g transform="translate(0,0)">
<svg width="100" height="100" x="0" y="0" viewBox="0 0 255.838 315.212"
font-family="sans-serif" stroke="rgb(0,0,0)" stroke-width="2"  stroke-linecap="round">
<line x1="47.9" y1="96.8" x2="70.6" y2="67.2" stroke="rgb(0,0,0)"  stroke-width="2.0"/>
<line x1="70.6" y1="64.2" x2="116.6" y2="64.2" stroke="rgb(0,0,0)"  stroke-width="2.0"/>
<line x1="70.6" y1="70.2" x2="116.6" y2="70.2" stroke="rgb(0,0,0)"  stroke-width="2.0"/>
<line x1="70.6" y1="67.2" x2="62.9" y2="51.7" stroke="rgb(0,0,0)"  stroke-width="2.0"/>
<line x1="116.6" y1="67.2" x2="138.9" y2="105.5" stroke="rgb(0,0,0)"  stroke-width="2.0"/>
<line x1="116.6" y1="67.2" x2="125.2" y2="52.2" stroke="rgb(0,0,0)"  stroke-width="2.0"/>
<line x1="138.9" y1="105.5" x2="169.5" y2="157.9" stroke="rgb(0,0,0)"  stroke-width="2.0"/>
<line x1="142.5" y1="103.4" x2="173.1" y2="155.8" stroke="rgb(0,0,0)"  stroke-width="2.0"/>
<line x1="135.3" y1="107.6" x2="165.9" y2="160.1" stroke="rgb(0,0,0)"  stroke-width="2.0"/>
<line x1="184.4" y1="183.4" x2="161.4" y2="221.5" stroke="rgb(0,0,0)"  stroke-width="2.0"/>
<line x1="184.4" y1="183.4" x2="169.5" y2="157.9" stroke="rgb(0,0,0)"  stroke-width="2.0"/>
<line x1="184.4" y1="183.4" x2="202.8" y2="183.5" stroke="rgb(0,0,0)"  stroke-width="2.0"/>
<line x1="184.4" y1="183.4" x2="193.6" y2="167.4" stroke="rgb(0,0,0)"  stroke-width="2.0"/>
<line x1="161.4" y1="221.5" x2="143.0" y2="220.1" stroke="rgb(0,0,0)"  stroke-width="2.0"/>
<line x1="161.4" y1="221.5" x2="150.6" y2="236.4" stroke="rgb(0,0,0)"  stroke-width="2.0"/>
<line x1="178.8" y1="263.2" x2="161.4" y2="221.5" stroke="rgb(0,0,0)"  stroke-width="2.0"/>
<text x="22.000000" y="115.071194" fill="rgb(30,239,30)"  stroke="rgb(30,239,30)" stroke-width="1" font-size="16" >Cl</text>
<text x="177.803815" y="283.212396" fill="rgb(147,0,147)"  stroke="rgb(147,0,147)" stroke-width="1" font-size="16" >I</text>
<text x="51.155285" y="48.000000" fill="rgb(191,191,191)"  stroke="rgb(191,191,191)" stroke-width="1" font-size="16" >H</text>
<text x="125.693865" y="48.932320" fill="rgb(191,191,191)"  stroke="rgb(191,191,191)" stroke-width="1" font-size="16" >H</text>
<text x="209.837994" y="191.633233" fill="rgb(191,191,191)"  stroke="rgb(191,191,191)" stroke-width="1" font-size="16" >H</text>
<text x="194.141482" y="164.166542" fill="rgb(191,191,191)"  stroke="rgb(191,191,191)" stroke-width="1" font-size="16" >H</text>
<text x="123.996866" y="227.131997" fill="rgb(191,191,191)"  stroke="rgb(191,191,191)" stroke-width="1" font-size="16" >H</text>
<text x="136.972884" y="254.983968" fill="rgb(191,191,191)"  stroke="rgb(191,191,191)" stroke-width="1" font-size="16" >H</text>
</svg>
</g>
<text font-size="18.000000" fill ="black" font-family="sans-serif"
x="10.000000" y="20.000000" ></text>
</svg>
