<?xml version="1.0"?>
<svg version="1.1" id="topsvg"
xmlns="http://www.w3.org/2000/svg" xmlns:xlink="http://www.w3.org/1999/xlink"
xmlns:cml="http://www.xml-cml.org/schema" x="0" y="0" width="200px" height="200px" viewBox="0 0 100 100">
<title> - Open Babel Depiction</title>
<rect x="0" y="0" width="100" height="100" fill="white"/>
<g transform="translate(0,0)">
<svg width="100" height="100" x="0" y="0" viewBox="0 0 380.961 295.974"
font-family="sans-serif" stroke="rgb(0,0,0)" stroke-width="2"  stroke-linecap="round">
<line x1="114.1" y1="138.3" x2="121.9" y2="116.9" stroke="rgb(0,0,0)"  stroke-width="2.0"/>
<line x1="97.4" y1="146.0" x2="76.0" y2="138.1" stroke="rgb(0,0,0)"  stroke-width="2.0"/>
<line x1="105.1" y1="162.7" x2="97.2" y2="184.1" stroke="rgb(0,0,0)"  stroke-width="2.0"/>
<line x1="121.8" y1="155.0" x2="143.2" y2="162.9" stroke="rgb(0,0,0)"  stroke-width="2.0"/>
<line x1="199.8" y1="93.2" x2="187.6" y2="74.0" stroke="rgb(0,0,0)"  stroke-width="2.0"/>
<line x1="200.7" y1="115.7" x2="190.2" y2="135.9" stroke="rgb(0,0,0)"  stroke-width="2.0"/>
<line x1="237.9" y1="162.0" x2="259.3" y2="154.0" stroke="rgb(0,0,0)"  stroke-width="2.0"/>
<line x1="276.0" y1="161.7" x2="284.0" y2="183.0" stroke="rgb(0,0,0)"  stroke-width="2.0"/>
<line x1="283.7" y1="144.9" x2="305.0" y2="137.0" stroke="rgb(0,0,0)"  stroke-width="2.0"/>
<line x1="266.9" y1="137.3" x2="259.0" y2="115.9" stroke="rgb(0,0,0)"  stroke-width="2.0"/>
<line x1="189.3" y1="238.1" x2="228.8" y2="209.9" stroke="rgb(0,0,0)"  stroke-width="2.0"/>
<line x1="143.9" y1="217.7" x2="123.9" y2="230.9" stroke="rgb(0,0,0)"  stroke-width="2.0"/>
<line x1="121.9" y1="116.9" x2="146.9" y2="112.6" stroke="rgb(0,0,0)"  stroke-width="2.0"/>
<line x1="121.9" y1="116.9" x2="105.7" y2="97.4" stroke="rgb(0,0,0)"  stroke-width="2.0"/>
<line x1="121.9" y1="116.9" x2="130.7" y2="93.1" stroke="rgb(0,0,0)"  stroke-width="2.0"/>
<line x1="76.0" y1="138.1" x2="71.7" y2="113.2" stroke="rgb(0,0,0)"  stroke-width="2.0"/>
<line x1="76.0" y1="138.1" x2="56.5" y2="154.3" stroke="rgb(0,0,0)"  stroke-width="2.0"/>
<line x1="76.0" y1="138.1" x2="52.2" y2="129.4" stroke="rgb(0,0,0)"  stroke-width="2.0"/>
<line x1="97.2" y1="184.1" x2="72.3" y2="188.4" stroke="rgb(0,0,0)"  stroke-width="2.0"/>
<line x1="97.2" y1="184.1" x2="113.4" y2="203.6" stroke="rgb(0,0,0)"  stroke-width="2.0"/>
<line x1="97.2" y1="184.1" x2="88.5" y2="207.9" stroke="rgb(0,0,0)"  stroke-width="2.0"/>
<line x1="187.6" y1="74.0" x2="199.3" y2="51.5" stroke="rgb(0,0,0)"  stroke-width="2.0"/>
<line x1="187.6" y1="74.0" x2="162.3" y2="75.0" stroke="rgb(0,0,0)"  stroke-width="2.0"/>
<line x1="187.6" y1="74.0" x2="174.0" y2="52.6" stroke="rgb(0,0,0)"  stroke-width="2.0"/>
<line x1="284.0" y1="183.0" x2="267.8" y2="202.6" stroke="rgb(0,0,0)"  stroke-width="2.0"/>
<line x1="284.0" y1="183.0" x2="308.9" y2="187.3" stroke="rgb(0,0,0)"  stroke-width="2.0"/>
<line x1="284.0" y1="183.0" x2="292.8" y2="206.8" stroke="rgb(0,0,0)"  stroke-width="2.0"/>
<line x1="305.0" y1="137.0" x2="324.6" y2="153.1" stroke="rgb(0,0,0)"  stroke-width="2.0"/>
<line x1="305.0" y1="137.0" x2="309.3" y2="112.0" stroke="rgb(0,0,0)"  stroke-width="2.0"/>
<line x1="305.0" y1="137.0" x2="328.8" y2="128.2" stroke="rgb(0,0,0)"  stroke-width="2.0"/>
<line x1="259.0" y1="115.9" x2="275.1" y2="96.4" stroke="rgb(0,0,0)"  stroke-width="2.0"/>
<line x1="259.0" y1="115.9" x2="234.0" y2="111.7" stroke="rgb(0,0,0)"  stroke-width="2.0"/>
<line x1="259.0" y1="115.9" x2="250.2" y2="92.2" stroke="rgb(0,0,0)"  stroke-width="2.0"/>
<line x1="238.0" y1="217.8" x2="259.1" y2="231.9" stroke="rgb(0,0,0)"  stroke-width="2.0"/>
<line x1="238.0" y1="217.8" x2="235.6" y2="243.0" stroke="rgb(0,0,0)"  stroke-width="2.0"/>
<line x1="189.3" y1="238.1" x2="189.6" y2="212.7" stroke="rgb(0,0,0)"  stroke-width="2.0"/>
<line x1="228.8" y1="209.9" x2="251.8" y2="220.5" stroke="rgb(0,0,0)"  stroke-width="2.0"/>
<line x1="228.8" y1="209.9" x2="226.4" y2="184.7" stroke="rgb(0,0,0)"  stroke-width="2.0"/>
<line x1="228.8" y1="209.9" x2="249.4" y2="195.2" stroke="rgb(0,0,0)"  stroke-width="2.0"/>
<line x1="143.9" y1="217.7" x2="143.2" y2="162.9" stroke="rgb(0,0,0)"  stroke-width="2.0"/>
<line x1="151.0" y1="211.7" x2="150.5" y2="168.8" stroke="rgb(0,0,0)"  stroke-width="2.0"/>
<line x1="143.2" y1="162.9" x2="190.2" y2="135.9" stroke="rgb(0,0,0)"  stroke-width="2.0"/>
<line x1="190.2" y1="135.9" x2="237.9" y2="162.0" stroke="rgb(0,0,0)"  stroke-width="2.0"/>
<line x1="192.0" y1="145.1" x2="229.2" y2="165.4" stroke="rgb(0,0,0)"  stroke-width="2.0"/>
<line x1="237.9" y1="162.0" x2="238.0" y2="217.8" stroke="rgb(0,0,0)"  stroke-width="2.0"/>
<line x1="238.0" y1="217.8" x2="189.3" y2="238.1" stroke="rgb(0,0,0)"  stroke-width="2.0"/>
<line x1="189.3" y1="238.1" x2="143.9" y2="217.7" stroke="rgb(0,0,0)"  stroke-width="2.0"/>
<text x="103.575723" y="158.487601" fill="rgb(127,153,153)"  stroke="rgb(127,153,153)" stroke-width="1" font-size="16" >Si</text>
<text x="200.755701" y="112.195050" fill="rgb(255,12,12)"  stroke="rgb(255,12,12)" stroke-width="1" font-size="16" >O</text>
<text x="265.477888" y="157.470497" fill="rgb(127,153,153)"  stroke="rgb(127,153,153)" stroke-width="1" font-size="16" >Si</text>
<text x="107.016859" y="246.049992" fill="rgb(191,191,191)"  stroke="rgb(191,191,191)" stroke-width="1" font-size="16" >H</text>
<text x="153.699219" y="118.350538" fill="rgb(191,191,191)"  stroke="rgb(191,191,191)" stroke-width="1" font-size="16" >H</text>
<text x="91.406465" y="95.437956" fill="rgb(191,191,191)"  stroke="rgb(191,191,191)" stroke-width="1" font-size="16" >H</text>
<text x="129.167135" y="88.911878" fill="rgb(191,191,191)"  stroke="rgb(191,191,191)" stroke-width="1" font-size="16" >H</text>
<text x="63.438660" y="108.364106" fill="rgb(191,191,191)"  stroke="rgb(191,191,191)" stroke-width="1" font-size="16" >H</text>
<text x="40.526078" y="170.656859" fill="rgb(191,191,191)"  stroke="rgb(191,191,191)" stroke-width="1" font-size="16" >H</text>
<text x="34.000000" y="132.896190" fill="rgb(191,191,191)"  stroke="rgb(191,191,191)" stroke-width="1" font-size="16" >H</text>
<text x="53.452228" y="198.624665" fill="rgb(191,191,191)"  stroke="rgb(191,191,191)" stroke-width="1" font-size="16" >H</text>
<text x="115.744982" y="221.537247" fill="rgb(191,191,191)"  stroke="rgb(191,191,191)" stroke-width="1" font-size="16" >H</text>
<text x="77.984312" y="228.063325" fill="rgb(191,191,191)"  stroke="rgb(191,191,191)" stroke-width="1" font-size="16" >H</text>
<text x="199.289540" y="48.000000" fill="rgb(191,191,191)"  stroke="rgb(191,191,191)" stroke-width="1" font-size="16" >H</text>
<text x="143.266436" y="83.591929" fill="rgb(191,191,191)"  stroke="rgb(191,191,191)" stroke-width="1" font-size="16" >H</text>
<text x="161.003483" y="49.623488" fill="rgb(191,191,191)"  stroke="rgb(191,191,191)" stroke-width="1" font-size="16" >H</text>
<text x="253.543035" y="220.567706" fill="rgb(191,191,191)"  stroke="rgb(191,191,191)" stroke-width="1" font-size="16" >H</text>
<text x="315.750612" y="197.424868" fill="rgb(191,191,191)"  stroke="rgb(191,191,191)" stroke-width="1" font-size="16" >H</text>
<text x="291.327585" y="226.954068" fill="rgb(191,191,191)"  stroke="rgb(191,191,191)" stroke-width="1" font-size="16" >H</text>
<text x="328.575097" y="169.405351" fill="rgb(191,191,191)"  stroke="rgb(191,191,191)" stroke-width="1" font-size="16" >H</text>
<text x="305.432259" y="107.197774" fill="rgb(191,191,191)"  stroke="rgb(191,191,191)" stroke-width="1" font-size="16" >H</text>
<text x="334.961459" y="131.620800" fill="rgb(191,191,191)"  stroke="rgb(191,191,191)" stroke-width="1" font-size="16" >H</text>
<text x="277.411712" y="94.376018" fill="rgb(191,191,191)"  stroke="rgb(191,191,191)" stroke-width="1" font-size="16" >H</text>
<text x="215.204942" y="117.521026" fill="rgb(191,191,191)"  stroke="rgb(191,191,191)" stroke-width="1" font-size="16" >H</text>
<text x="239.626939" y="87.990974" fill="rgb(191,191,191)"  stroke="rgb(191,191,191)" stroke-width="1" font-size="16" >H</text>
<text x="263.914610" y="247.082922" fill="rgb(191,191,191)"  stroke="rgb(191,191,191)" stroke-width="1" font-size="16" >H</text>
<text x="228.305377" y="263.974480" fill="rgb(191,191,191)"  stroke="rgb(191,191,191)" stroke-width="1" font-size="16" >H</text>
<text x="183.825308" y="207.734736" fill="rgb(191,191,191)"  stroke="rgb(191,191,191)" stroke-width="1" font-size="16" >H</text>
<text x="257.651621" y="233.856061" fill="rgb(191,191,191)"  stroke="rgb(191,191,191)" stroke-width="1" font-size="16" >H</text>
<text x="219.155711" y="179.787230" fill="rgb(191,191,191)"  stroke="rgb(191,191,191)" stroke-width="1" font-size="16" >H</text>
<text x="254.011993" y="195.708834" fill="rgb(191,191,191)"  stroke="rgb(191,191,191)" stroke-width="1" font-size="16" >H</text>
</svg>
</g>
<text font-size="18.000000" fill ="black" font-family="sans-serif"
x="10.000000" y="20.000000" ></text>
</svg>
