<?xml version="1.0"?>
<svg version="1.1" id="topsvg"
xmlns="http://www.w3.org/2000/svg" xmlns:xlink="http://www.w3.org/1999/xlink"
xmlns:cml="http://www.xml-cml.org/schema" x="0" y="0" width="200px" height="200px" viewBox="0 0 100 100">
<title> - Open Babel Depiction</title>
<rect x="0" y="0" width="100" height="100" fill="white"/>
<g transform="translate(0,0)">
<svg width="100" height="100" x="0" y="0" viewBox="0 0 326.925 300.829"
font-family="sans-serif" stroke="rgb(0,0,0)" stroke-width="2"  stroke-linecap="round">
<line x1="228.9" y1="113.9" x2="235.5" y2="131.6" stroke="rgb(0,0,0)"  stroke-width="2.0"/>
<line x1="236.6" y1="97.2" x2="254.3" y2="90.7" stroke="rgb(0,0,0)"  stroke-width="2.0"/>
<line x1="219.9" y1="89.6" x2="213.4" y2="71.9" stroke="rgb(0,0,0)"  stroke-width="2.0"/>
<line x1="212.2" y1="106.3" x2="194.6" y2="112.8" stroke="rgb(0,0,0)"  stroke-width="2.0"/>
<line x1="194.7" y1="188.2" x2="212.4" y2="194.4" stroke="rgb(0,0,0)"  stroke-width="2.0"/>
<line x1="220.5" y1="210.9" x2="214.3" y2="228.7" stroke="rgb(0,0,0)"  stroke-width="2.0"/>
<line x1="237.0" y1="202.9" x2="254.8" y2="209.1" stroke="rgb(0,0,0)"  stroke-width="2.0"/>
<line x1="229.0" y1="186.4" x2="235.2" y2="168.6" stroke="rgb(0,0,0)"  stroke-width="2.0"/>
<line x1="68.7" y1="187.1" x2="51.6" y2="197.0" stroke="rgb(0,0,0)"  stroke-width="2.0"/>
<line x1="68.5" y1="112.1" x2="51.3" y2="102.3" stroke="rgb(0,0,0)"  stroke-width="2.0"/>
<line x1="131.4" y1="74.8" x2="131.5" y2="55.0" stroke="rgb(0,0,0)"  stroke-width="2.0"/>
<line x1="235.5" y1="131.6" x2="222.0" y2="147.8" stroke="rgb(0,0,0)"  stroke-width="2.0"/>
<line x1="235.5" y1="131.6" x2="256.2" y2="135.1" stroke="rgb(0,0,0)"  stroke-width="2.0"/>
<line x1="235.5" y1="131.6" x2="242.8" y2="151.3" stroke="rgb(0,0,0)"  stroke-width="2.0"/>
<line x1="254.3" y1="90.7" x2="270.5" y2="104.2" stroke="rgb(0,0,0)"  stroke-width="2.0"/>
<line x1="254.3" y1="90.7" x2="257.8" y2="70.0" stroke="rgb(0,0,0)"  stroke-width="2.0"/>
<line x1="254.3" y1="90.7" x2="274.0" y2="83.4" stroke="rgb(0,0,0)"  stroke-width="2.0"/>
<line x1="213.4" y1="71.9" x2="226.9" y2="55.7" stroke="rgb(0,0,0)"  stroke-width="2.0"/>
<line x1="213.4" y1="71.9" x2="192.7" y2="68.4" stroke="rgb(0,0,0)"  stroke-width="2.0"/>
<line x1="213.4" y1="71.9" x2="206.1" y2="52.2" stroke="rgb(0,0,0)"  stroke-width="2.0"/>
<line x1="214.3" y1="228.7" x2="193.6" y2="232.6" stroke="rgb(0,0,0)"  stroke-width="2.0"/>
<line x1="214.3" y1="228.7" x2="228.1" y2="244.6" stroke="rgb(0,0,0)"  stroke-width="2.0"/>
<line x1="214.3" y1="228.7" x2="207.4" y2="248.5" stroke="rgb(0,0,0)"  stroke-width="2.0"/>
<line x1="254.8" y1="209.1" x2="258.7" y2="229.7" stroke="rgb(0,0,0)"  stroke-width="2.0"/>
<line x1="254.8" y1="209.1" x2="270.7" y2="195.3" stroke="rgb(0,0,0)"  stroke-width="2.0"/>
<line x1="254.8" y1="209.1" x2="274.6" y2="216.0" stroke="rgb(0,0,0)"  stroke-width="2.0"/>
<line x1="235.2" y1="168.6" x2="255.8" y2="164.6" stroke="rgb(0,0,0)"  stroke-width="2.0"/>
<line x1="235.2" y1="168.6" x2="221.4" y2="152.7" stroke="rgb(0,0,0)"  stroke-width="2.0"/>
<line x1="235.2" y1="168.6" x2="242.1" y2="148.7" stroke="rgb(0,0,0)"  stroke-width="2.0"/>
<line x1="131.1" y1="223.0" x2="130.9" y2="242.8" stroke="rgb(0,0,0)"  stroke-width="2.0"/>
<line x1="68.5" y1="112.1" x2="68.7" y2="187.1" stroke="rgb(0,0,0)"  stroke-width="2.0"/>
<line x1="75.8" y1="118.1" x2="75.9" y2="181.1" stroke="rgb(0,0,0)"  stroke-width="2.0"/>
<line x1="68.7" y1="187.1" x2="131.1" y2="223.0" stroke="rgb(0,0,0)"  stroke-width="2.0"/>
<line x1="131.1" y1="223.0" x2="194.7" y2="188.2" stroke="rgb(0,0,0)"  stroke-width="2.0"/>
<line x1="132.9" y1="213.8" x2="186.0" y2="184.8" stroke="rgb(0,0,0)"  stroke-width="2.0"/>
<line x1="194.7" y1="188.2" x2="194.6" y2="112.8" stroke="rgb(0,0,0)"  stroke-width="2.0"/>
<line x1="194.6" y1="112.8" x2="131.4" y2="74.8" stroke="rgb(0,0,0)"  stroke-width="2.0"/>
<line x1="185.8" y1="115.9" x2="132.9" y2="84.1" stroke="rgb(0,0,0)"  stroke-width="2.0"/>
<line x1="131.4" y1="74.8" x2="68.5" y2="112.1" stroke="rgb(0,0,0)"  stroke-width="2.0"/>
<text x="218.443605" y="109.754891" fill="rgb(127,153,153)"  stroke="rgb(127,153,153)" stroke-width="1" font-size="16" >Si</text>
<text x="218.729850" y="206.632928" fill="rgb(127,153,153)"  stroke="rgb(127,153,153)" stroke-width="1" font-size="16" >Si</text>
<text x="34.302858" y="211.521775" fill="rgb(191,191,191)"  stroke="rgb(191,191,191)" stroke-width="1" font-size="16" >H</text>
<text x="34.000000" y="103.921758" fill="rgb(191,191,191)"  stroke="rgb(191,191,191)" stroke-width="1" font-size="16" >H</text>
<text x="125.509115" y="49.980690" fill="rgb(191,191,191)"  stroke="rgb(191,191,191)" stroke-width="1" font-size="16" >H</text>
<text x="207.719836" y="165.764008" fill="rgb(191,191,191)"  stroke="rgb(191,191,191)" stroke-width="1" font-size="16" >H</text>
<text x="263.010013" y="145.333757" fill="rgb(191,191,191)"  stroke="rgb(191,191,191)" stroke-width="1" font-size="16" >H</text>
<text x="241.262630" y="171.509782" fill="rgb(191,191,191)"  stroke="rgb(191,191,191)" stroke-width="1" font-size="16" >H</text>
<text x="274.452722" y="120.478660" fill="rgb(191,191,191)"  stroke="rgb(191,191,191)" stroke-width="1" font-size="16" >H</text>
<text x="254.022471" y="65.188483" fill="rgb(191,191,191)"  stroke="rgb(191,191,191)" stroke-width="1" font-size="16" >H</text>
<text x="280.198496" y="86.935866" fill="rgb(191,191,191)"  stroke="rgb(191,191,191)" stroke-width="1" font-size="16" >H</text>
<text x="229.167374" y="53.745774" fill="rgb(191,191,191)"  stroke="rgb(191,191,191)" stroke-width="1" font-size="16" >H</text>
<text x="173.877197" y="74.176025" fill="rgb(191,191,191)"  stroke="rgb(191,191,191)" stroke-width="1" font-size="16" >H</text>
<text x="195.624580" y="48.000000" fill="rgb(191,191,191)"  stroke="rgb(191,191,191)" stroke-width="1" font-size="16" >H</text>
<text x="174.878944" y="243.090024" fill="rgb(191,191,191)"  stroke="rgb(191,191,191)" stroke-width="1" font-size="16" >H</text>
<text x="230.564024" y="262.417999" fill="rgb(191,191,191)"  stroke="rgb(191,191,191)" stroke-width="1" font-size="16" >H</text>
<text x="197.141978" y="268.828910" fill="rgb(191,191,191)"  stroke="rgb(191,191,191)" stroke-width="1" font-size="16" >H</text>
<text x="255.183789" y="250.487620" fill="rgb(191,191,191)"  stroke="rgb(191,191,191)" stroke-width="1" font-size="16" >H</text>
<text x="274.517025" y="194.804366" fill="rgb(191,191,191)"  stroke="rgb(191,191,191)" stroke-width="1" font-size="16" >H</text>
<text x="280.924778" y="228.227017" fill="rgb(191,191,191)"  stroke="rgb(191,191,191)" stroke-width="1" font-size="16" >H</text>
<text x="262.580757" y="170.175832" fill="rgb(191,191,191)"  stroke="rgb(191,191,191)" stroke-width="1" font-size="16" >H</text>
<text x="206.895676" y="150.847856" fill="rgb(191,191,191)"  stroke="rgb(191,191,191)" stroke-width="1" font-size="16" >H</text>
<text x="240.317722" y="144.436946" fill="rgb(191,191,191)"  stroke="rgb(191,191,191)" stroke-width="1" font-size="16" >H</text>
<text x="124.706916" y="263.832211" fill="rgb(191,191,191)"  stroke="rgb(191,191,191)" stroke-width="1" font-size="16" >H</text>
</svg>
</g>
<text font-size="18.000000" fill ="black" font-family="sans-serif"
x="10.000000" y="20.000000" ></text>
</svg>
