<?xml version="1.0"?>
<svg version="1.1" id="topsvg"
xmlns="http://www.w3.org/2000/svg" xmlns:xlink="http://www.w3.org/1999/xlink"
xmlns:cml="http://www.xml-cml.org/schema" x="0" y="0" width="200px" height="200px" viewBox="0 0 100 100">
<title> - Open Babel Depiction</title>
<rect x="0" y="0" width="100" height="100" fill="white"/>
<g transform="translate(0,0)">
<svg width="100" height="100" x="0" y="0" viewBox="0 0 226.683 248.462"
font-family="sans-serif" stroke="rgb(0,0,0)" stroke-width="2"  stroke-linecap="round">
<line x1="61.9" y1="153.5" x2="51.3" y2="159.6" stroke="rgb(0,0,0)"  stroke-width="2.0"/>
<line x1="61.9" y1="153.5" x2="61.9" y2="165.7" stroke="rgb(0,0,0)"  stroke-width="2.0"/>
<line x1="61.9" y1="92.5" x2="51.4" y2="86.3" stroke="rgb(0,0,0)"  stroke-width="2.0"/>
<line x1="61.9" y1="92.5" x2="62.1" y2="80.3" stroke="rgb(0,0,0)"  stroke-width="2.0"/>
<line x1="113.6" y1="183.2" x2="113.6" y2="195.5" stroke="rgb(0,0,0)"  stroke-width="2.0"/>
<line x1="113.6" y1="183.2" x2="103.0" y2="189.3" stroke="rgb(0,0,0)"  stroke-width="2.0"/>
<line x1="165.7" y1="153.5" x2="175.5" y2="159.2" stroke="rgb(0,0,0)"  stroke-width="2.0"/>
<line x1="112.9" y1="64.3" x2="112.7" y2="53.0" stroke="rgb(0,0,0)"  stroke-width="2.0"/>
<line x1="61.9" y1="92.5" x2="112.9" y2="64.3" stroke="rgb(0,0,0)"  stroke-width="2.0"/>
<line x1="112.9" y1="64.3" x2="165.9" y2="92.4" stroke="rgb(0,0,0)"  stroke-width="2.0"/>
<line x1="114.8" y1="73.5" x2="157.2" y2="95.9" stroke="rgb(0,0,0)"  stroke-width="2.0"/>
<line x1="165.9" y1="92.4" x2="165.7" y2="153.5" stroke="rgb(0,0,0)"  stroke-width="2.0"/>
<line x1="158.7" y1="98.3" x2="158.5" y2="147.5" stroke="rgb(0,0,0)"  stroke-width="2.0"/>
<line x1="165.7" y1="153.5" x2="113.6" y2="183.2" stroke="rgb(0,0,0)"  stroke-width="2.0"/>
<line x1="113.6" y1="183.2" x2="61.9" y2="153.5" stroke="rgb(0,0,0)"  stroke-width="2.0"/>
<line x1="61.9" y1="153.5" x2="61.9" y2="92.5" stroke="rgb(0,0,0)"  stroke-width="2.0"/>
<text x="34.000000" y="174.082434" fill="rgb(191,191,191)"  stroke="rgb(191,191,191)" stroke-width="1" font-size="16" >H</text>
<text x="55.873849" y="186.696338" fill="rgb(191,191,191)"  stroke="rgb(191,191,191)" stroke-width="1" font-size="16" >H</text>
<text x="34.186331" y="87.705023" fill="rgb(191,191,191)"  stroke="rgb(191,191,191)" stroke-width="1" font-size="16" >H</text>
<text x="56.270098" y="75.298677" fill="rgb(191,191,191)"  stroke="rgb(191,191,191)" stroke-width="1" font-size="16" >H</text>
<text x="107.551231" y="216.462132" fill="rgb(191,191,191)"  stroke="rgb(191,191,191)" stroke-width="1" font-size="16" >H</text>
<text x="85.733989" y="203.843511" fill="rgb(191,191,191)"  stroke="rgb(191,191,191)" stroke-width="1" font-size="16" >H</text>
<text x="180.682628" y="173.756944" fill="rgb(191,191,191)"  stroke="rgb(191,191,191)" stroke-width="1" font-size="16" >H</text>
<text x="106.619576" y="48.000000" fill="rgb(191,191,191)"  stroke="rgb(191,191,191)" stroke-width="1" font-size="16" >H</text>
</svg>
</g>
<text font-size="18.000000" fill ="black" font-family="sans-serif"
x="10.000000" y="20.000000" ></text>
</svg>
