<?xml version="1.0"?>
<svg version="1.1" id="topsvg"
xmlns="http://www.w3.org/2000/svg" xmlns:xlink="http://www.w3.org/1999/xlink"
xmlns:cml="http://www.xml-cml.org/schema" x="0" y="0" width="200px" height="200px" viewBox="0 0 100 100">
<title> - Open Babel Depiction</title>
<rect x="0" y="0" width="100" height="100" fill="white"/>
<g transform="translate(0,0)">
<svg width="100" height="100" x="0" y="0" viewBox="0 0 306.757 287.627"
font-family="sans-serif" stroke="rgb(0,0,0)" stroke-width="2"  stroke-linecap="round">
<line x1="47.6" y1="108.9" x2="74.3" y2="71.8" stroke="rgb(0,0,0)"  stroke-width="2.0"/>
<line x1="74.3" y1="68.8" x2="126.7" y2="69.1" stroke="rgb(0,0,0)"  stroke-width="2.0"/>
<line x1="74.3" y1="74.8" x2="126.6" y2="75.1" stroke="rgb(0,0,0)"  stroke-width="2.0"/>
<line x1="126.7" y1="72.1" x2="146.4" y2="106.6" stroke="rgb(0,0,0)"  stroke-width="2.0"/>
<line x1="179.1" y1="164.0" x2="146.4" y2="106.6" stroke="rgb(0,0,0)"  stroke-width="2.0"/>
<line x1="175.5" y1="166.0" x2="142.7" y2="108.7" stroke="rgb(0,0,0)"  stroke-width="2.0"/>
<line x1="182.8" y1="161.9" x2="150.0" y2="104.5" stroke="rgb(0,0,0)"  stroke-width="2.0"/>
<line x1="197.1" y1="196.3" x2="183.1" y2="212.7" stroke="rgb(0,0,0)"  stroke-width="2.0"/>
<line x1="215.4" y1="194.8" x2="231.9" y2="208.8" stroke="rgb(0,0,0)"  stroke-width="2.0"/>
<line x1="213.9" y1="176.5" x2="227.9" y2="160.0" stroke="rgb(0,0,0)"  stroke-width="2.0"/>
<line x1="195.6" y1="178.0" x2="179.1" y2="164.0" stroke="rgb(0,0,0)"  stroke-width="2.0"/>
<line x1="74.3" y1="71.8" x2="64.0" y2="51.6" stroke="rgb(0,0,0)"  stroke-width="2.0"/>
<line x1="126.7" y1="72.1" x2="138.1" y2="52.5" stroke="rgb(0,0,0)"  stroke-width="2.0"/>
<line x1="183.1" y1="212.7" x2="159.4" y2="208.4" stroke="rgb(0,0,0)"  stroke-width="2.0"/>
<line x1="183.1" y1="212.7" x2="191.2" y2="235.4" stroke="rgb(0,0,0)"  stroke-width="2.0"/>
<line x1="183.1" y1="212.7" x2="167.5" y2="231.1" stroke="rgb(0,0,0)"  stroke-width="2.0"/>
<line x1="231.9" y1="208.8" x2="227.5" y2="232.4" stroke="rgb(0,0,0)"  stroke-width="2.0"/>
<line x1="231.9" y1="208.8" x2="254.5" y2="200.7" stroke="rgb(0,0,0)"  stroke-width="2.0"/>
<line x1="231.9" y1="208.8" x2="250.2" y2="224.4" stroke="rgb(0,0,0)"  stroke-width="2.0"/>
<line x1="227.9" y1="160.0" x2="251.6" y2="164.3" stroke="rgb(0,0,0)"  stroke-width="2.0"/>
<line x1="227.9" y1="160.0" x2="219.9" y2="137.4" stroke="rgb(0,0,0)"  stroke-width="2.0"/>
<line x1="227.9" y1="160.0" x2="243.5" y2="141.7" stroke="rgb(0,0,0)"  stroke-width="2.0"/>
<text x="22.000000" y="127.410248" fill="rgb(30,239,30)"  stroke="rgb(30,239,30)" stroke-width="1" font-size="16" >Cl</text>
<text x="199.503494" y="194.375199" fill="rgb(127,153,153)"  stroke="rgb(127,153,153)" stroke-width="1" font-size="16" >Si</text>
<text x="52.124949" y="48.000000" fill="rgb(191,191,191)"  stroke="rgb(191,191,191)" stroke-width="1" font-size="16" >H</text>
<text x="138.656361" y="49.240217" fill="rgb(191,191,191)"  stroke="rgb(191,191,191)" stroke-width="1" font-size="16" >H</text>
<text x="140.651689" y="214.072504" fill="rgb(191,191,191)"  stroke="rgb(191,191,191)" stroke-width="1" font-size="16" >H</text>
<text x="189.519485" y="255.627450" fill="rgb(191,191,191)"  stroke="rgb(191,191,191)" stroke-width="1" font-size="16" >H</text>
<text x="153.089708" y="248.956895" fill="rgb(191,191,191)"  stroke="rgb(191,191,191)" stroke-width="1" font-size="16" >H</text>
<text x="219.198024" y="253.229957" fill="rgb(191,191,191)"  stroke="rgb(191,191,191)" stroke-width="1" font-size="16" >H</text>
<text x="260.756693" y="204.365326" fill="rgb(191,191,191)"  stroke="rgb(191,191,191)" stroke-width="1" font-size="16" >H</text>
<text x="254.083362" y="240.794596" fill="rgb(191,191,191)"  stroke="rgb(191,191,191)" stroke-width="1" font-size="16" >H</text>
<text x="258.357819" y="174.686490" fill="rgb(191,191,191)"  stroke="rgb(191,191,191)" stroke-width="1" font-size="16" >H</text>
<text x="209.495881" y="133.124656" fill="rgb(191,191,191)"  stroke="rgb(191,191,191)" stroke-width="1" font-size="16" >H</text>
<text x="245.924719" y="139.800346" fill="rgb(191,191,191)"  stroke="rgb(191,191,191)" stroke-width="1" font-size="16" >H</text>
</svg>
</g>
<text font-size="18.000000" fill ="black" font-family="sans-serif"
x="10.000000" y="20.000000" ></text>
</svg>
