<?xml version="1.0"?>
<svg version="1.1" id="topsvg"
xmlns="http://www.w3.org/2000/svg" xmlns:xlink="http://www.w3.org/1999/xlink"
xmlns:cml="http://www.xml-cml.org/schema" x="0" y="0" width="200px" height="200px" viewBox="0 0 100 100">
<title> - Open Babel Depiction</title>
<rect x="0" y="0" width="100" height="100" fill="white"/>
<g transform="translate(0,0)">
<svg width="100" height="100" x="0" y="0" viewBox="0 0 421.173 330.989"
font-family="sans-serif" stroke="rgb(0,0,0)" stroke-width="2"  stroke-linecap="round">
<line x1="195.7" y1="195.0" x2="177.7" y2="228.3" stroke="rgb(0,0,0)"  stroke-width="2.0"/>
<line x1="137.0" y1="228.4" x2="177.7" y2="228.3" stroke="rgb(0,0,0)"  stroke-width="2.0"/>
<line x1="113.9" y1="260.7" x2="134.4" y2="226.8" stroke="rgb(0,0,0)"  stroke-width="2.0"/>
<line x1="119.0" y1="263.8" x2="139.6" y2="229.9" stroke="rgb(0,0,0)"  stroke-width="2.0"/>
<line x1="74.0" y1="261.8" x2="116.4" y2="262.3" stroke="rgb(0,0,0)"  stroke-width="2.0"/>
<line x1="195.7" y1="195.0" x2="179.5" y2="208.4" stroke="rgb(0,0,0)"  stroke-width="2.0"/>
<line x1="151.2" y1="209.3" x2="134.8" y2="222.5" stroke="rgb(0,0,0)"  stroke-width="2.0"/>
<line x1="151.2" y1="209.3" x2="135.2" y2="195.7" stroke="rgb(0,0,0)"  stroke-width="2.0"/>
<line x1="181.6" y1="156.6" x2="174.6" y2="136.9" stroke="rgb(0,0,0)"  stroke-width="2.0"/>
<line x1="181.6" y1="156.6" x2="196.6" y2="142.0" stroke="rgb(0,0,0)"  stroke-width="2.0"/>
<line x1="316.8" y1="72.4" x2="313.7" y2="52.8" stroke="rgb(0,0,0)"  stroke-width="2.0"/>
<line x1="350.8" y1="94.1" x2="369.1" y2="86.7" stroke="rgb(0,0,0)"  stroke-width="2.0"/>
<line x1="302.4" y1="202.0" x2="315.7" y2="218.2" stroke="rgb(0,0,0)"  stroke-width="2.0"/>
<line x1="302.4" y1="202.0" x2="323.3" y2="200.2" stroke="rgb(0,0,0)"  stroke-width="2.0"/>
<line x1="268.9" y1="213.1" x2="268.1" y2="192.2" stroke="rgb(0,0,0)"  stroke-width="2.0"/>
<line x1="177.7" y1="228.3" x2="188.4" y2="246.3" stroke="rgb(0,0,0)"  stroke-width="2.0"/>
<line x1="177.7" y1="228.3" x2="167.3" y2="246.6" stroke="rgb(0,0,0)"  stroke-width="2.0"/>
<line x1="137.0" y1="228.4" x2="127.3" y2="211.1" stroke="rgb(0,0,0)"  stroke-width="2.0"/>
<line x1="116.4" y1="262.3" x2="126.0" y2="279.6" stroke="rgb(0,0,0)"  stroke-width="2.0"/>
<line x1="74.0" y1="261.8" x2="63.7" y2="243.5" stroke="rgb(0,0,0)"  stroke-width="2.0"/>
<line x1="74.0" y1="261.8" x2="63.3" y2="279.8" stroke="rgb(0,0,0)"  stroke-width="2.0"/>
<line x1="74.0" y1="261.8" x2="53.0" y2="261.5" stroke="rgb(0,0,0)"  stroke-width="2.0"/>
<line x1="292.4" y1="166.5" x2="308.4" y2="152.9" stroke="rgb(0,0,0)"  stroke-width="2.0"/>
<line x1="292.4" y1="166.5" x2="308.8" y2="179.5" stroke="rgb(0,0,0)"  stroke-width="2.0"/>
<line x1="151.2" y1="209.3" x2="195.7" y2="195.0" stroke="rgb(0,0,0)"  stroke-width="2.0"/>
<line x1="195.7" y1="195.0" x2="268.9" y2="213.1" stroke="rgb(0,0,0)"  stroke-width="2.0"/>
<line x1="268.9" y1="213.1" x2="292.4" y2="166.5" stroke="rgb(0,0,0)"  stroke-width="2.0"/>
<line x1="292.4" y1="166.5" x2="256.9" y2="177.3" stroke="rgb(0,0,0)"  stroke-width="2.0"/>
<line x1="232.4" y1="176.4" x2="181.6" y2="156.6" stroke="rgb(0,0,0)"  stroke-width="2.0"/>
<line x1="181.6" y1="156.6" x2="151.2" y2="209.3" stroke="rgb(0,0,0)"  stroke-width="2.0"/>
<line x1="263.5" y1="146.8" x2="285.4" y2="110.6" stroke="rgb(0,0,0)"  stroke-width="2.0"/>
<line x1="259.9" y1="144.6" x2="281.8" y2="108.4" stroke="rgb(0,0,0)"  stroke-width="2.0"/>
<line x1="267.1" y1="148.9" x2="289.0" y2="112.8" stroke="rgb(0,0,0)"  stroke-width="2.0"/>
<line x1="285.4" y1="110.6" x2="316.8" y2="72.4" stroke="rgb(0,0,0)"  stroke-width="2.0"/>
<line x1="316.8" y1="72.4" x2="350.8" y2="94.1" stroke="rgb(0,0,0)"  stroke-width="2.0"/>
<line x1="317.9" y1="81.7" x2="341.9" y2="97.0" stroke="rgb(0,0,0)"  stroke-width="2.0"/>
<line x1="350.8" y1="94.1" x2="342.0" y2="132.1" stroke="rgb(0,0,0)"  stroke-width="2.0"/>
<line x1="342.0" y1="132.1" x2="321.2" y2="168.8" stroke="rgb(0,0,0)"  stroke-width="2.0"/>
<line x1="345.6" y1="134.2" x2="324.8" y2="170.9" stroke="rgb(0,0,0)"  stroke-width="2.0"/>
<line x1="338.3" y1="130.1" x2="317.5" y2="166.8" stroke="rgb(0,0,0)"  stroke-width="2.0"/>
<line x1="321.2" y1="168.8" x2="302.4" y2="202.0" stroke="rgb(0,0,0)"  stroke-width="2.0"/>
<line x1="302.4" y1="202.0" x2="268.9" y2="213.1" stroke="rgb(0,0,0)"  stroke-width="2.0"/>
<line x1="250.8" y1="169.7" x2="263.5" y2="146.8" stroke="rgb(0,0,0)"  stroke-width="2.0"/>
<text x="226.500495" y="189.088299" fill="rgb(17,127,178)"  stroke="rgb(17,127,178)" stroke-width="1" font-size="16" >Xx</text>
<text x="163.518557" y="224.715140" fill="rgb(191,191,191)"  stroke="rgb(191,191,191)" stroke-width="1" font-size="16" >H</text>
<text x="118.723664" y="238.612607" fill="rgb(191,191,191)"  stroke="rgb(191,191,191)" stroke-width="1" font-size="16" >H</text>
<text x="119.352337" y="195.198522" fill="rgb(191,191,191)"  stroke="rgb(191,191,191)" stroke-width="1" font-size="16" >H</text>
<text x="164.280615" y="132.588056" fill="rgb(191,191,191)"  stroke="rgb(191,191,191)" stroke-width="1" font-size="16" >H</text>
<text x="199.961284" y="141.002018" fill="rgb(191,191,191)"  stroke="rgb(191,191,191)" stroke-width="1" font-size="16" >H</text>
<text x="305.623896" y="48.000000" fill="rgb(191,191,191)"  stroke="rgb(191,191,191)" stroke-width="1" font-size="16" >H</text>
<text x="375.173036" y="89.788794" fill="rgb(191,191,191)"  stroke="rgb(191,191,191)" stroke-width="1" font-size="16" >H</text>
<text x="317.959826" y="236.190042" fill="rgb(191,191,191)"  stroke="rgb(191,191,191)" stroke-width="1" font-size="16" >H</text>
<text x="330.222126" y="207.033763" fill="rgb(191,191,191)"  stroke="rgb(191,191,191)" stroke-width="1" font-size="16" >H</text>
<text x="261.581255" y="187.175678" fill="rgb(191,191,191)"  stroke="rgb(191,191,191)" stroke-width="1" font-size="16" >H</text>
<text x="189.084575" y="265.476336" fill="rgb(191,191,191)"  stroke="rgb(191,191,191)" stroke-width="1" font-size="16" >H</text>
<text x="154.917856" y="265.864890" fill="rgb(191,191,191)"  stroke="rgb(191,191,191)" stroke-width="1" font-size="16" >H</text>
<text x="114.919500" y="207.818967" fill="rgb(191,191,191)"  stroke="rgb(191,191,191)" stroke-width="1" font-size="16" >H</text>
<text x="126.313351" y="298.936239" fill="rgb(191,191,191)"  stroke="rgb(191,191,191)" stroke-width="1" font-size="16" >H</text>
<text x="51.338303" y="240.154607" fill="rgb(191,191,191)"  stroke="rgb(191,191,191)" stroke-width="1" font-size="16" >H</text>
<text x="50.629825" y="298.989131" fill="rgb(191,191,191)"  stroke="rgb(191,191,191)" stroke-width="1" font-size="16" >H</text>
<text x="34.000000" y="269.367349" fill="rgb(191,191,191)"  stroke="rgb(191,191,191)" stroke-width="1" font-size="16" >H</text>
<text x="312.345158" y="152.563667" fill="rgb(191,191,191)"  stroke="rgb(191,191,191)" stroke-width="1" font-size="16" >H</text>
<text x="313.052922" y="195.505240" fill="rgb(191,191,191)"  stroke="rgb(191,191,191)" stroke-width="1" font-size="16" >H</text>
</svg>
</g>
<text font-size="18.000000" fill ="black" font-family="sans-serif"
x="10.000000" y="20.000000" ></text>
</svg>
