<?xml version="1.0"?>
<svg version="1.1" id="topsvg"
xmlns="http://www.w3.org/2000/svg" xmlns:xlink="http://www.w3.org/1999/xlink"
xmlns:cml="http://www.xml-cml.org/schema" x="0" y="0" width="200px" height="200px" viewBox="0 0 100 100">
<title> - Open Babel Depiction</title>
<rect x="0" y="0" width="100" height="100" fill="white"/>
<g transform="translate(0,0)">
<svg width="100" height="100" x="0" y="0" viewBox="0 0 399.943 442.657"
font-family="sans-serif" stroke="rgb(0,0,0)" stroke-width="2"  stroke-linecap="round">
<line x1="204.6" y1="333.9" x2="252.4" y2="321.9" stroke="rgb(0,0,0)"  stroke-width="2.0"/>
<line x1="252.4" y1="321.9" x2="239.6" y2="369.2" stroke="rgb(0,0,0)"  stroke-width="2.0"/>
<line x1="236.9" y1="174.1" x2="195.3" y2="193.8" stroke="rgb(0,0,0)"  stroke-width="2.0"/>
<polygon points="236.914025 174.094560 234.046567 126.019863 242.044343 126.208459 " stroke-width="2.000000" fill="rgb(0,0,0)"  stroke="rgb(0,0,0)" />
<line x1="269.6" y1="192.6" x2="270.3" y2="191.2" stroke="rgb(0,0,0)"  stroke-width="1.0"/>
<line x1="262.7" y1="189.6" x2="264.0" y2="187.1" stroke="rgb(0,0,0)"  stroke-width="1.0"/>
<line x1="255.7" y1="186.6" x2="257.7" y2="182.9" stroke="rgb(0,0,0)"  stroke-width="1.0"/>
<line x1="248.8" y1="183.6" x2="251.4" y2="178.8" stroke="rgb(0,0,0)"  stroke-width="1.0"/>
<line x1="241.9" y1="180.6" x2="245.1" y2="174.7" stroke="rgb(0,0,0)"  stroke-width="1.0"/>
<line x1="235.0" y1="177.6" x2="238.8" y2="170.6" stroke="rgb(0,0,0)"  stroke-width="1.0"/>
<line x1="238.0" y1="126.1" x2="195.6" y2="103.3" stroke="rgb(0,0,0)"  stroke-width="2.0"/>
<line x1="305.9" y1="71.7" x2="325.3" y2="70.8" stroke="rgb(0,0,0)"  stroke-width="2.0"/>
<line x1="286.9" y1="83.9" x2="278.0" y2="101.1" stroke="rgb(0,0,0)"  stroke-width="2.0"/>
<line x1="278.2" y1="196.4" x2="280.3" y2="244.3" stroke="rgb(0,0,0)"  stroke-width="2.0"/>
<line x1="67.6" y1="123.2" x2="109.9" y2="98.4" stroke="rgb(0,0,0)"  stroke-width="2.0"/>
<line x1="70.6" y1="128.4" x2="112.9" y2="103.6" stroke="rgb(0,0,0)"  stroke-width="2.0"/>
<line x1="111.4" y1="101.0" x2="152.3" y2="125.6" stroke="rgb(0,0,0)"  stroke-width="2.0"/>
<line x1="152.3" y1="125.6" x2="195.6" y2="103.3" stroke="rgb(0,0,0)"  stroke-width="2.0"/>
<line x1="153.6" y1="171.4" x2="196.5" y2="191.1" stroke="rgb(0,0,0)"  stroke-width="2.0"/>
<line x1="151.1" y1="176.8" x2="194.0" y2="196.5" stroke="rgb(0,0,0)"  stroke-width="2.0"/>
<line x1="204.6" y1="333.9" x2="189.5" y2="318.3" stroke="rgb(0,0,0)"  stroke-width="2.0"/>
<line x1="204.6" y1="333.9" x2="198.7" y2="354.8" stroke="rgb(0,0,0)"  stroke-width="2.0"/>
<line x1="204.6" y1="333.9" x2="183.6" y2="339.2" stroke="rgb(0,0,0)"  stroke-width="2.0"/>
<line x1="301.3" y1="322.3" x2="314.1" y2="339.8" stroke="rgb(0,0,0)"  stroke-width="2.0"/>
<line x1="301.3" y1="322.3" x2="291.4" y2="341.6" stroke="rgb(0,0,0)"  stroke-width="2.0"/>
<line x1="239.6" y1="369.2" x2="218.6" y2="374.7" stroke="rgb(0,0,0)"  stroke-width="2.0"/>
<line x1="239.6" y1="369.2" x2="254.9" y2="384.6" stroke="rgb(0,0,0)"  stroke-width="2.0"/>
<line x1="239.6" y1="369.2" x2="233.9" y2="390.1" stroke="rgb(0,0,0)"  stroke-width="2.0"/>
<line x1="236.9" y1="174.1" x2="218.7" y2="162.3" stroke="rgb(0,0,0)"  stroke-width="2.0"/>
<line x1="195.3" y1="193.8" x2="195.4" y2="214.2" stroke="rgb(0,0,0)"  stroke-width="2.0"/>
<polygon points="238.045455 126.114161 219.979324 141.272449 215.951208 134.360555 " stroke-width="2.000000" fill="rgb(0,0,0)"  stroke="rgb(0,0,0)" />
<line x1="325.3" y1="70.8" x2="337.0" y2="89.1" stroke="rgb(0,0,0)"  stroke-width="2.0"/>
<line x1="325.3" y1="70.8" x2="335.3" y2="51.5" stroke="rgb(0,0,0)"  stroke-width="2.0"/>
<line x1="325.3" y1="70.8" x2="347.0" y2="69.8" stroke="rgb(0,0,0)"  stroke-width="2.0"/>
<line x1="320.8" y1="125.3" x2="338.5" y2="115.1" stroke="rgb(0,0,0)"  stroke-width="2.0"/>
<line x1="320.7" y1="175.0" x2="339.1" y2="186.4" stroke="rgb(0,0,0)"  stroke-width="2.0"/>
<line x1="320.7" y1="175.0" x2="319.7" y2="196.6" stroke="rgb(0,0,0)"  stroke-width="2.0"/>
<line x1="278.2" y1="196.4" x2="259.8" y2="207.9" stroke="rgb(0,0,0)"  stroke-width="2.0"/>
<line x1="69.1" y1="125.8" x2="51.3" y2="115.7" stroke="rgb(0,0,0)"  stroke-width="2.0"/>
<line x1="69.1" y1="125.8" x2="69.2" y2="146.3" stroke="rgb(0,0,0)"  stroke-width="2.0"/>
<line x1="111.4" y1="101.0" x2="111.5" y2="80.5" stroke="rgb(0,0,0)"  stroke-width="2.0"/>
<line x1="152.3" y1="125.6" x2="151.6" y2="147.3" stroke="rgb(0,0,0)"  stroke-width="2.0"/>
<line x1="152.3" y1="125.6" x2="170.6" y2="137.2" stroke="rgb(0,0,0)"  stroke-width="2.0"/>
<line x1="195.6" y1="103.3" x2="195.7" y2="81.7" stroke="rgb(0,0,0)"  stroke-width="2.0"/>
<line x1="195.6" y1="103.3" x2="177.1" y2="92.0" stroke="rgb(0,0,0)"  stroke-width="2.0"/>
<line x1="152.4" y1="174.1" x2="150.5" y2="153.7" stroke="rgb(0,0,0)"  stroke-width="2.0"/>
<line x1="152.4" y1="174.1" x2="135.7" y2="185.9" stroke="rgb(0,0,0)"  stroke-width="2.0"/>
<line x1="251.5" y1="265.5" x2="280.3" y2="244.3" stroke="rgb(0,0,0)"  stroke-width="2.0"/>
<line x1="256.3" y1="270.9" x2="279.7" y2="253.6" stroke="rgb(0,0,0)"  stroke-width="2.0"/>
<line x1="280.3" y1="244.3" x2="305.8" y2="268.6" stroke="rgb(0,0,0)"  stroke-width="2.0"/>
<line x1="311.3" y1="290.0" x2="301.3" y2="322.3" stroke="rgb(0,0,0)"  stroke-width="2.0"/>
<line x1="301.3" y1="322.3" x2="252.4" y2="321.9" stroke="rgb(0,0,0)"  stroke-width="2.0"/>
<line x1="252.4" y1="321.9" x2="241.4" y2="288.3" stroke="rgb(0,0,0)"  stroke-width="2.0"/>
<line x1="236.9" y1="174.1" x2="238.0" y2="126.1" stroke="rgb(0,0,0)"  stroke-width="2.0"/>
<line x1="238.0" y1="126.1" x2="278.0" y2="101.1" stroke="rgb(0,0,0)"  stroke-width="2.0"/>
<line x1="278.0" y1="101.1" x2="320.8" y2="125.3" stroke="rgb(0,0,0)"  stroke-width="2.0"/>
<line x1="279.7" y1="110.3" x2="312.1" y2="128.7" stroke="rgb(0,0,0)"  stroke-width="2.0"/>
<line x1="320.8" y1="125.3" x2="320.7" y2="175.0" stroke="rgb(0,0,0)"  stroke-width="2.0"/>
<line x1="320.7" y1="175.0" x2="278.2" y2="196.4" stroke="rgb(0,0,0)"  stroke-width="2.0"/>
<line x1="278.2" y1="196.4" x2="236.9" y2="174.1" stroke="rgb(0,0,0)"  stroke-width="2.0"/>
<text x="231.306298" y="283.994552" fill="rgb(12,12,255)"  stroke="rgb(12,12,255)" stroke-width="1" font-size="16" >N</text>
<text x="309.151252" y="285.599302" fill="rgb(255,12,12)"  stroke="rgb(255,12,12)" stroke-width="1" font-size="16" >O</text>
<text x="286.905205" y="80.317761" fill="rgb(255,12,12)"  stroke="rgb(255,12,12)" stroke-width="1" font-size="16" >O</text>
<text x="174.478484" y="317.009196" fill="rgb(191,191,191)"  stroke="rgb(191,191,191)" stroke-width="1" font-size="16" >H</text>
<text x="189.159435" y="375.270267" fill="rgb(191,191,191)"  stroke="rgb(191,191,191)" stroke-width="1" font-size="16" >H</text>
<text x="165.000437" y="350.377757" fill="rgb(191,191,191)"  stroke="rgb(191,191,191)" stroke-width="1" font-size="16" >H</text>
<text x="315.780911" y="358.283865" fill="rgb(191,191,191)"  stroke="rgb(191,191,191)" stroke-width="1" font-size="16" >H</text>
<text x="279.479819" y="361.139584" fill="rgb(191,191,191)"  stroke="rgb(191,191,191)" stroke-width="1" font-size="16" >H</text>
<text x="200.032664" y="386.054823" fill="rgb(191,191,191)"  stroke="rgb(191,191,191)" stroke-width="1" font-size="16" >H</text>
<text x="258.020939" y="401.778773" fill="rgb(191,191,191)"  stroke="rgb(191,191,191)" stroke-width="1" font-size="16" >H</text>
<text x="224.487688" y="410.656571" fill="rgb(191,191,191)"  stroke="rgb(191,191,191)" stroke-width="1" font-size="16" >H</text>
<text x="201.826849" y="163.194021" fill="rgb(191,191,191)"  stroke="rgb(191,191,191)" stroke-width="1" font-size="16" >H</text>
<text x="189.486750" y="235.242023" fill="rgb(191,191,191)"  stroke="rgb(191,191,191)" stroke-width="1" font-size="16" >H</text>
<text x="202.075024" y="151.580342" fill="rgb(191,191,191)"  stroke="rgb(191,191,191)" stroke-width="1" font-size="16" >H</text>
<text x="338.011364" y="108.017596" fill="rgb(191,191,191)"  stroke="rgb(191,191,191)" stroke-width="1" font-size="16" >H</text>
<text x="335.223760" y="48.000000" fill="rgb(191,191,191)"  stroke="rgb(191,191,191)" stroke-width="1" font-size="16" >H</text>
<text x="353.943150" y="77.204086" fill="rgb(191,191,191)"  stroke="rgb(191,191,191)" stroke-width="1" font-size="16" >H</text>
<text x="343.749870" y="116.536170" fill="rgb(191,191,191)"  stroke="rgb(191,191,191)" stroke-width="1" font-size="16" >H</text>
<text x="344.200934" y="201.191461" fill="rgb(191,191,191)"  stroke="rgb(191,191,191)" stroke-width="1" font-size="16" >H</text>
<text x="313.182964" y="217.612616" fill="rgb(191,191,191)"  stroke="rgb(191,191,191)" stroke-width="1" font-size="16" >H</text>
<text x="242.811388" y="222.768550" fill="rgb(191,191,191)"  stroke="rgb(191,191,191)" stroke-width="1" font-size="16" >H</text>
<text x="34.000000" y="117.267085" fill="rgb(191,191,191)"  stroke="rgb(191,191,191)" stroke-width="1" font-size="16" >H</text>
<text x="63.311898" y="167.255537" fill="rgb(191,191,191)"  stroke="rgb(191,191,191)" stroke-width="1" font-size="16" >H</text>
<text x="105.579296" y="75.539725" fill="rgb(191,191,191)"  stroke="rgb(191,191,191)" stroke-width="1" font-size="16" >H</text>
<text x="145.175373" y="168.304019" fill="rgb(191,191,191)"  stroke="rgb(191,191,191)" stroke-width="1" font-size="16" >H</text>
<text x="175.636284" y="152.176587" fill="rgb(191,191,191)"  stroke="rgb(191,191,191)" stroke-width="1" font-size="16" >H</text>
<text x="189.838107" y="76.661990" fill="rgb(191,191,191)"  stroke="rgb(191,191,191)" stroke-width="1" font-size="16" >H</text>
<text x="160.013997" y="93.174659" fill="rgb(191,191,191)"  stroke="rgb(191,191,191)" stroke-width="1" font-size="16" >H</text>
<text x="143.277534" y="148.776632" fill="rgb(191,191,191)"  stroke="rgb(191,191,191)" stroke-width="1" font-size="16" >H</text>
<text x="119.098753" y="201.439895" fill="rgb(191,191,191)"  stroke="rgb(191,191,191)" stroke-width="1" font-size="16" >H</text>
</svg>
</g>
<text font-size="18.000000" fill ="black" font-family="sans-serif"
x="10.000000" y="20.000000" ></text>
</svg>
