<?xml version="1.0"?>
<svg version="1.1" id="topsvg"
xmlns="http://www.w3.org/2000/svg" xmlns:xlink="http://www.w3.org/1999/xlink"
xmlns:cml="http://www.xml-cml.org/schema" x="0" y="0" width="200px" height="200px" viewBox="0 0 100 100">
<title> - Open Babel Depiction</title>
<rect x="0" y="0" width="100" height="100" fill="white"/>
<g transform="translate(0,0)">
<svg width="100" height="100" x="0" y="0" viewBox="0 0 401.569 434.812"
font-family="sans-serif" stroke="rgb(0,0,0)" stroke-width="2"  stroke-linecap="round">
<line x1="298.8" y1="322.8" x2="327.8" y2="361.0" stroke="rgb(0,0,0)"  stroke-width="2.0"/>
<line x1="298.8" y1="322.8" x2="276.5" y2="364.7" stroke="rgb(0,0,0)"  stroke-width="2.0"/>
<line x1="275.1" y1="199.9" x2="274.7" y2="248.2" stroke="rgb(0,0,0)"  stroke-width="2.0"/>
<line x1="233.6" y1="178.5" x2="193.6" y2="196.5" stroke="rgb(0,0,0)"  stroke-width="2.0"/>
<polygon points="233.563033 178.508053 229.193972 130.189079 237.193739 130.127996 " stroke-width="2.000000" fill="rgb(0,0,0)"  stroke="rgb(0,0,0)" />
<polygon points="233.193856 130.158538 190.328371 109.144744 194.439299 102.281780 " stroke-width="2.000000" fill="rgb(0,0,0)"  stroke="rgb(0,0,0)" />
<line x1="233.2" y1="130.2" x2="234.0" y2="74.0" stroke="rgb(0,0,0)"  stroke-width="2.0"/>
<line x1="192.4" y1="105.7" x2="152.4" y2="129.2" stroke="rgb(0,0,0)"  stroke-width="2.0"/>
<line x1="111.2" y1="106.8" x2="152.4" y2="129.2" stroke="rgb(0,0,0)"  stroke-width="2.0"/>
<line x1="66.8" y1="128.3" x2="109.8" y2="104.2" stroke="rgb(0,0,0)"  stroke-width="2.0"/>
<line x1="69.7" y1="133.5" x2="112.7" y2="109.4" stroke="rgb(0,0,0)"  stroke-width="2.0"/>
<line x1="194.6" y1="72.0" x2="195.4" y2="105.6" stroke="rgb(0,0,0)"  stroke-width="2.0"/>
<line x1="188.6" y1="72.2" x2="189.4" y2="105.8" stroke="rgb(0,0,0)"  stroke-width="2.0"/>
<line x1="302.9" y1="77.2" x2="321.7" y2="76.7" stroke="rgb(0,0,0)"  stroke-width="2.0"/>
<line x1="283.7" y1="89.0" x2="274.7" y2="105.5" stroke="rgb(0,0,0)"  stroke-width="2.0"/>
<line x1="152.1" y1="173.8" x2="194.9" y2="193.8" stroke="rgb(0,0,0)"  stroke-width="2.0"/>
<line x1="149.5" y1="179.3" x2="192.4" y2="199.2" stroke="rgb(0,0,0)"  stroke-width="2.0"/>
<line x1="250.7" y1="322.5" x2="238.4" y2="339.6" stroke="rgb(0,0,0)"  stroke-width="2.0"/>
<line x1="250.7" y1="322.5" x2="229.9" y2="319.3" stroke="rgb(0,0,0)"  stroke-width="2.0"/>
<line x1="327.8" y1="361.0" x2="319.6" y2="380.4" stroke="rgb(0,0,0)"  stroke-width="2.0"/>
<line x1="327.8" y1="361.0" x2="348.7" y2="358.3" stroke="rgb(0,0,0)"  stroke-width="2.0"/>
<line x1="327.8" y1="361.0" x2="340.5" y2="377.7" stroke="rgb(0,0,0)"  stroke-width="2.0"/>
<line x1="233.6" y1="178.5" x2="215.8" y2="167.2" stroke="rgb(0,0,0)"  stroke-width="2.0"/>
<line x1="193.6" y1="196.5" x2="193.5" y2="216.4" stroke="rgb(0,0,0)"  stroke-width="2.0"/>
<line x1="152.4" y1="129.2" x2="152.8" y2="150.2" stroke="rgb(0,0,0)"  stroke-width="2.0"/>
<line x1="152.4" y1="129.2" x2="134.4" y2="140.1" stroke="rgb(0,0,0)"  stroke-width="2.0"/>
<line x1="111.2" y1="106.8" x2="111.1" y2="86.9" stroke="rgb(0,0,0)"  stroke-width="2.0"/>
<line x1="68.2" y1="130.9" x2="51.2" y2="120.8" stroke="rgb(0,0,0)"  stroke-width="2.0"/>
<line x1="68.2" y1="130.9" x2="68.0" y2="150.7" stroke="rgb(0,0,0)"  stroke-width="2.0"/>
<line x1="321.7" y1="76.7" x2="332.7" y2="94.6" stroke="rgb(0,0,0)"  stroke-width="2.0"/>
<line x1="321.7" y1="76.7" x2="331.7" y2="58.2" stroke="rgb(0,0,0)"  stroke-width="2.0"/>
<line x1="321.7" y1="76.7" x2="342.8" y2="76.1" stroke="rgb(0,0,0)"  stroke-width="2.0"/>
<line x1="316.4" y1="129.1" x2="333.5" y2="119.1" stroke="rgb(0,0,0)"  stroke-width="2.0"/>
<line x1="316.4" y1="178.3" x2="333.4" y2="188.6" stroke="rgb(0,0,0)"  stroke-width="2.0"/>
<line x1="276.5" y1="364.7" x2="255.5" y2="365.5" stroke="rgb(0,0,0)"  stroke-width="2.0"/>
<line x1="276.5" y1="364.7" x2="287.7" y2="382.6" stroke="rgb(0,0,0)"  stroke-width="2.0"/>
<line x1="276.5" y1="364.7" x2="266.6" y2="383.3" stroke="rgb(0,0,0)"  stroke-width="2.0"/>
<line x1="150.8" y1="176.6" x2="149.1" y2="156.8" stroke="rgb(0,0,0)"  stroke-width="2.0"/>
<line x1="150.8" y1="176.6" x2="134.6" y2="187.9" stroke="rgb(0,0,0)"  stroke-width="2.0"/>
<line x1="234.0" y1="74.0" x2="252.4" y2="63.8" stroke="rgb(0,0,0)"  stroke-width="2.0"/>
<line x1="234.0" y1="74.0" x2="215.9" y2="63.3" stroke="rgb(0,0,0)"  stroke-width="2.0"/>
<line x1="234.0" y1="74.0" x2="234.3" y2="53.0" stroke="rgb(0,0,0)"  stroke-width="2.0"/>
<line x1="250.7" y1="322.5" x2="239.8" y2="290.1" stroke="rgb(0,0,0)"  stroke-width="2.0"/>
<line x1="246.0" y1="269.9" x2="274.7" y2="248.2" stroke="rgb(0,0,0)"  stroke-width="2.0"/>
<line x1="274.7" y1="248.2" x2="300.2" y2="267.3" stroke="rgb(0,0,0)"  stroke-width="2.0"/>
<line x1="275.2" y1="257.5" x2="294.9" y2="272.3" stroke="rgb(0,0,0)"  stroke-width="2.0"/>
<line x1="309.0" y1="289.2" x2="298.8" y2="322.8" stroke="rgb(0,0,0)"  stroke-width="2.0"/>
<line x1="298.8" y1="322.8" x2="250.7" y2="322.5" stroke="rgb(0,0,0)"  stroke-width="2.0"/>
<line x1="233.2" y1="130.2" x2="233.6" y2="178.5" stroke="rgb(0,0,0)"  stroke-width="2.0"/>
<line x1="233.6" y1="178.5" x2="275.1" y2="199.9" stroke="rgb(0,0,0)"  stroke-width="2.0"/>
<line x1="275.1" y1="199.9" x2="316.4" y2="178.3" stroke="rgb(0,0,0)"  stroke-width="2.0"/>
<line x1="277.1" y1="190.7" x2="307.7" y2="174.7" stroke="rgb(0,0,0)"  stroke-width="2.0"/>
<line x1="316.4" y1="178.3" x2="316.4" y2="129.1" stroke="rgb(0,0,0)"  stroke-width="2.0"/>
<line x1="316.4" y1="129.1" x2="274.7" y2="105.5" stroke="rgb(0,0,0)"  stroke-width="2.0"/>
<line x1="307.6" y1="132.4" x2="276.4" y2="114.7" stroke="rgb(0,0,0)"  stroke-width="2.0"/>
<line x1="274.7" y1="105.5" x2="233.2" y2="130.2" stroke="rgb(0,0,0)"  stroke-width="2.0"/>
<text x="229.634882" y="285.778596" fill="rgb(255,12,12)"  stroke="rgb(255,12,12)" stroke-width="1" font-size="16" >O</text>
<text x="185.269937" y="67.117340" fill="rgb(255,12,12)"  stroke="rgb(255,12,12)" stroke-width="1" font-size="16" >O</text>
<text x="283.897602" y="85.522109" fill="rgb(255,12,12)"  stroke="rgb(255,12,12)" stroke-width="1" font-size="16" >O</text>
<text x="306.748413" y="284.721985" fill="rgb(12,12,255)"  stroke="rgb(12,12,255)" stroke-width="1" font-size="16" >N</text>
<text x="224.745834" y="358.109436" fill="rgb(191,191,191)"  stroke="rgb(191,191,191)" stroke-width="1" font-size="16" >H</text>
<text x="211.019909" y="325.400615" fill="rgb(191,191,191)"  stroke="rgb(191,191,191)" stroke-width="1" font-size="16" >H</text>
<text x="308.574109" y="400.345445" fill="rgb(191,191,191)"  stroke="rgb(191,191,191)" stroke-width="1" font-size="16" >H</text>
<text x="355.569459" y="364.703520" fill="rgb(191,191,191)"  stroke="rgb(191,191,191)" stroke-width="1" font-size="16" >H</text>
<text x="342.360721" y="396.090872" fill="rgb(191,191,191)"  stroke="rgb(191,191,191)" stroke-width="1" font-size="16" >H</text>
<text x="198.888529" y="168.139346" fill="rgb(191,191,191)"  stroke="rgb(191,191,191)" stroke-width="1" font-size="16" >H</text>
<text x="187.444007" y="237.355272" fill="rgb(191,191,191)"  stroke="rgb(191,191,191)" stroke-width="1" font-size="16" >H</text>
<text x="146.991788" y="171.223979" fill="rgb(191,191,191)"  stroke="rgb(191,191,191)" stroke-width="1" font-size="16" >H</text>
<text x="117.304348" y="154.814627" fill="rgb(191,191,191)"  stroke="rgb(191,191,191)" stroke-width="1" font-size="16" >H</text>
<text x="105.020916" y="81.923346" fill="rgb(191,191,191)"  stroke="rgb(191,191,191)" stroke-width="1" font-size="16" >H</text>
<text x="34.000000" y="122.129450" fill="rgb(191,191,191)"  stroke="rgb(191,191,191)" stroke-width="1" font-size="16" >H</text>
<text x="61.841298" y="171.738516" fill="rgb(191,191,191)"  stroke="rgb(191,191,191)" stroke-width="1" font-size="16" >H</text>
<text x="333.527517" y="113.688479" fill="rgb(191,191,191)"  stroke="rgb(191,191,191)" stroke-width="1" font-size="16" >H</text>
<text x="331.940991" y="54.727538" fill="rgb(191,191,191)"  stroke="rgb(191,191,191)" stroke-width="1" font-size="16" >H</text>
<text x="349.754812" y="83.750018" fill="rgb(191,191,191)"  stroke="rgb(191,191,191)" stroke-width="1" font-size="16" >H</text>
<text x="338.751296" y="120.529984" fill="rgb(191,191,191)"  stroke="rgb(191,191,191)" stroke-width="1" font-size="16" >H</text>
<text x="338.488915" y="203.288349" fill="rgb(191,191,191)"  stroke="rgb(191,191,191)" stroke-width="1" font-size="16" >H</text>
<text x="236.473125" y="373.940123" fill="rgb(191,191,191)"  stroke="rgb(191,191,191)" stroke-width="1" font-size="16" >H</text>
<text x="288.561715" y="401.611199" fill="rgb(191,191,191)"  stroke="rgb(191,191,191)" stroke-width="1" font-size="16" >H</text>
<text x="254.529468" y="402.812342" fill="rgb(191,191,191)"  stroke="rgb(191,191,191)" stroke-width="1" font-size="16" >H</text>
<text x="141.923059" y="151.839362" fill="rgb(191,191,191)"  stroke="rgb(191,191,191)" stroke-width="1" font-size="16" >H</text>
<text x="117.904719" y="203.407925" fill="rgb(191,191,191)"  stroke="rgb(191,191,191)" stroke-width="1" font-size="16" >H</text>
<text x="257.731467" y="65.448136" fill="rgb(191,191,191)"  stroke="rgb(191,191,191)" stroke-width="1" font-size="16" >H</text>
<text x="198.755256" y="64.601795" fill="rgb(191,191,191)"  stroke="rgb(191,191,191)" stroke-width="1" font-size="16" >H</text>
<text x="228.487679" y="48.000000" fill="rgb(191,191,191)"  stroke="rgb(191,191,191)" stroke-width="1" font-size="16" >H</text>
</svg>
</g>
<text font-size="18.000000" fill ="black" font-family="sans-serif"
x="10.000000" y="20.000000" ></text>
</svg>
