<?xml version="1.0"?>
<svg version="1.1" id="topsvg"
xmlns="http://www.w3.org/2000/svg" xmlns:xlink="http://www.w3.org/1999/xlink"
xmlns:cml="http://www.xml-cml.org/schema" x="0" y="0" width="200px" height="200px" viewBox="0 0 100 100">
<title> - Open Babel Depiction</title>
<rect x="0" y="0" width="100" height="100" fill="white"/>
<g transform="translate(0,0)">
<svg width="100" height="100" x="0" y="0" viewBox="0 0 436.914 423.506"
font-family="sans-serif" stroke="rgb(0,0,0)" stroke-width="2"  stroke-linecap="round">
<line x1="234.7" y1="279.6" x2="234.9" y2="214.3" stroke="rgb(0,0,0)"  stroke-width="2.0"/>
<line x1="230.5" y1="279.6" x2="230.7" y2="214.3" stroke="rgb(0,0,0)"  stroke-width="2.0"/>
<line x1="238.9" y1="279.6" x2="239.1" y2="214.3" stroke="rgb(0,0,0)"  stroke-width="2.0"/>
<line x1="234.7" y1="279.6" x2="234.6" y2="326.7" stroke="rgb(0,0,0)"  stroke-width="2.0"/>
<line x1="358.3" y1="302.3" x2="305.0" y2="333.5" stroke="rgb(0,0,0)"  stroke-width="2.0"/>
<line x1="360.4" y1="306.0" x2="307.1" y2="337.1" stroke="rgb(0,0,0)"  stroke-width="2.0"/>
<line x1="356.2" y1="298.7" x2="302.9" y2="329.9" stroke="rgb(0,0,0)"  stroke-width="2.0"/>
<line x1="236.1" y1="324.1" x2="277.2" y2="348.0" stroke="rgb(0,0,0)"  stroke-width="2.0"/>
<line x1="233.1" y1="329.3" x2="274.2" y2="353.2" stroke="rgb(0,0,0)"  stroke-width="2.0"/>
<line x1="234.6" y1="326.7" x2="217.3" y2="336.6" stroke="rgb(0,0,0)"  stroke-width="2.0"/>
<line x1="275.7" y1="350.6" x2="305.0" y2="333.5" stroke="rgb(0,0,0)"  stroke-width="2.0"/>
<line x1="275.7" y1="350.6" x2="275.7" y2="370.5" stroke="rgb(0,0,0)"  stroke-width="2.0"/>
<line x1="69.7" y1="326.7" x2="111.6" y2="303.1" stroke="rgb(0,0,0)"  stroke-width="2.0"/>
<line x1="69.7" y1="326.7" x2="51.5" y2="316.0" stroke="rgb(0,0,0)"  stroke-width="2.0"/>
<line x1="69.7" y1="326.7" x2="69.5" y2="347.8" stroke="rgb(0,0,0)"  stroke-width="2.0"/>
<line x1="69.7" y1="326.7" x2="51.3" y2="337.1" stroke="rgb(0,0,0)"  stroke-width="2.0"/>
<line x1="108.6" y1="303.1" x2="108.8" y2="255.0" stroke="rgb(0,0,0)"  stroke-width="2.0"/>
<line x1="114.6" y1="303.1" x2="114.8" y2="255.0" stroke="rgb(0,0,0)"  stroke-width="2.0"/>
<line x1="111.6" y1="303.1" x2="128.8" y2="313.1" stroke="rgb(0,0,0)"  stroke-width="2.0"/>
<line x1="111.8" y1="255.0" x2="150.3" y2="231.3" stroke="rgb(0,0,0)"  stroke-width="2.0"/>
<line x1="111.8" y1="255.0" x2="94.5" y2="245.3" stroke="rgb(0,0,0)"  stroke-width="2.0"/>
<line x1="150.3" y1="231.3" x2="132.1" y2="220.5" stroke="rgb(0,0,0)"  stroke-width="2.0"/>
<line x1="111.1" y1="160.8" x2="93.0" y2="171.7" stroke="rgb(0,0,0)"  stroke-width="2.0"/>
<line x1="111.1" y1="160.8" x2="92.9" y2="150.3" stroke="rgb(0,0,0)"  stroke-width="2.0"/>
<line x1="112.1" y1="111.3" x2="94.2" y2="100.2" stroke="rgb(0,0,0)"  stroke-width="2.0"/>
<line x1="112.1" y1="111.3" x2="112.9" y2="90.3" stroke="rgb(0,0,0)"  stroke-width="2.0"/>
<line x1="156.1" y1="52.9" x2="157.0" y2="89.7" stroke="rgb(0,0,0)"  stroke-width="2.0"/>
<line x1="150.1" y1="53.1" x2="151.0" y2="89.8" stroke="rgb(0,0,0)"  stroke-width="2.0"/>
<line x1="195.1" y1="110.9" x2="213.1" y2="100.0" stroke="rgb(0,0,0)"  stroke-width="2.0"/>
<line x1="195.1" y1="110.9" x2="213.4" y2="121.3" stroke="rgb(0,0,0)"  stroke-width="2.0"/>
<line x1="194.6" y1="160.0" x2="235.9" y2="182.1" stroke="rgb(0,0,0)"  stroke-width="2.0"/>
<polygon points="194.565573 160.025513 154.785756 185.523517 151.054321 178.447050 " stroke-width="2.000000" fill="rgb(0,0,0)"  stroke="rgb(0,0,0)" />
<line x1="194.6" y1="160.0" x2="212.7" y2="149.3" stroke="rgb(0,0,0)"  stroke-width="2.0"/>
<line x1="152.9" y1="230.4" x2="169.9" y2="242.9" stroke="rgb(0,0,0)"  stroke-width="2.0"/>
<line x1="152.9" y1="230.4" x2="149.5" y2="251.2" stroke="rgb(0,0,0)"  stroke-width="2.0"/>
<line x1="385.7" y1="286.1" x2="358.3" y2="302.3" stroke="rgb(0,0,0)"  stroke-width="2.0"/>
<line x1="235.9" y1="182.1" x2="234.9" y2="214.3" stroke="rgb(0,0,0)"  stroke-width="2.0"/>
<line x1="235.9" y1="182.1" x2="254.2" y2="171.6" stroke="rgb(0,0,0)"  stroke-width="2.0"/>
<line x1="235.9" y1="182.1" x2="254.0" y2="193.0" stroke="rgb(0,0,0)"  stroke-width="2.0"/>
<line x1="152.9" y1="230.4" x2="150.3" y2="231.3" stroke="rgb(0,0,0)"  stroke-width="2.0"/>
<line x1="150.3" y1="231.3" x2="152.9" y2="182.0" stroke="rgb(0,0,0)"  stroke-width="2.0"/>
<line x1="152.9" y1="182.0" x2="152.9" y2="230.4" stroke="rgb(0,0,0)"  stroke-width="2.0"/>
<line x1="111.1" y1="160.8" x2="112.1" y2="111.3" stroke="rgb(0,0,0)"  stroke-width="2.0"/>
<line x1="112.1" y1="111.3" x2="154.0" y2="89.7" stroke="rgb(0,0,0)"  stroke-width="2.0"/>
<line x1="154.0" y1="89.7" x2="195.1" y2="110.9" stroke="rgb(0,0,0)"  stroke-width="2.0"/>
<line x1="195.1" y1="110.9" x2="194.6" y2="160.0" stroke="rgb(0,0,0)"  stroke-width="2.0"/>
<line x1="194.6" y1="160.0" x2="152.9" y2="182.0" stroke="rgb(0,0,0)"  stroke-width="2.0"/>
<line x1="152.9" y1="182.0" x2="111.1" y2="160.8" stroke="rgb(0,0,0)"  stroke-width="2.0"/>
<text x="146.732130" y="48.000000" fill="rgb(255,12,12)"  stroke="rgb(255,12,12)" stroke-width="1" font-size="16" >O</text>
<text x="390.913950" y="287.423604" fill="rgb(147,0,147)"  stroke="rgb(147,0,147)" stroke-width="1" font-size="16" >I</text>
<text x="200.066186" y="351.022539" fill="rgb(191,191,191)"  stroke="rgb(191,191,191)" stroke-width="1" font-size="16" >H</text>
<text x="269.760988" y="391.505591" fill="rgb(191,191,191)"  stroke="rgb(191,191,191)" stroke-width="1" font-size="16" >H</text>
<text x="34.343967" y="317.406096" fill="rgb(191,191,191)"  stroke="rgb(191,191,191)" stroke-width="1" font-size="16" >H</text>
<text x="63.335960" y="368.819667" fill="rgb(191,191,191)"  stroke="rgb(191,191,191)" stroke-width="1" font-size="16" >H</text>
<text x="34.000000" y="351.484347" fill="rgb(191,191,191)"  stroke="rgb(191,191,191)" stroke-width="1" font-size="16" >H</text>
<text x="133.976672" y="327.728302" fill="rgb(191,191,191)"  stroke="rgb(191,191,191)" stroke-width="1" font-size="16" >H</text>
<text x="77.161539" y="246.895964" fill="rgb(191,191,191)"  stroke="rgb(191,191,191)" stroke-width="1" font-size="16" >H</text>
<text x="114.956549" y="221.856411" fill="rgb(191,191,191)"  stroke="rgb(191,191,191)" stroke-width="1" font-size="16" >H</text>
<text x="75.903510" y="186.389550" fill="rgb(191,191,191)"  stroke="rgb(191,191,191)" stroke-width="1" font-size="16" >H</text>
<text x="75.610501" y="151.763499" fill="rgb(191,191,191)"  stroke="rgb(191,191,191)" stroke-width="1" font-size="16" >H</text>
<text x="77.158354" y="101.299022" fill="rgb(191,191,191)"  stroke="rgb(191,191,191)" stroke-width="1" font-size="16" >H</text>
<text x="107.478443" y="85.279059" fill="rgb(191,191,191)"  stroke="rgb(191,191,191)" stroke-width="1" font-size="16" >H</text>
<text x="218.264610" y="101.289468" fill="rgb(191,191,191)"  stroke="rgb(191,191,191)" stroke-width="1" font-size="16" >H</text>
<text x="218.662720" y="135.797679" fill="rgb(191,191,191)"  stroke="rgb(191,191,191)" stroke-width="1" font-size="16" >H</text>
<text x="217.888793" y="150.661529" fill="rgb(191,191,191)"  stroke="rgb(191,191,191)" stroke-width="1" font-size="16" >H</text>
<text x="174.415136" y="258.559006" fill="rgb(191,191,191)"  stroke="rgb(191,191,191)" stroke-width="1" font-size="16" >H</text>
<text x="141.387896" y="272.043802" fill="rgb(191,191,191)"  stroke="rgb(191,191,191)" stroke-width="1" font-size="16" >H</text>
<text x="259.435596" y="173.089477" fill="rgb(191,191,191)"  stroke="rgb(191,191,191)" stroke-width="1" font-size="16" >H</text>
<text x="259.183991" y="207.635907" fill="rgb(191,191,191)"  stroke="rgb(191,191,191)" stroke-width="1" font-size="16" >H</text>
</svg>
</g>
<text font-size="18.000000" fill ="black" font-family="sans-serif"
x="10.000000" y="20.000000" ></text>
</svg>
