<?xml version="1.0"?>
<svg version="1.1" id="topsvg"
xmlns="http://www.w3.org/2000/svg" xmlns:xlink="http://www.w3.org/1999/xlink"
xmlns:cml="http://www.xml-cml.org/schema" x="0" y="0" width="200px" height="200px" viewBox="0 0 100 100">
<title> - Open Babel Depiction</title>
<rect x="0" y="0" width="100" height="100" fill="white"/>
<g transform="translate(0,0)">
<svg width="100" height="100" x="0" y="0" viewBox="0 0 412.88 342.614"
font-family="sans-serif" stroke="rgb(0,0,0)" stroke-width="2"  stroke-linecap="round">
<line x1="139.1" y1="118.4" x2="119.1" y2="111.2" stroke="rgb(0,0,0)"  stroke-width="2.0"/>
<line x1="111.2" y1="94.6" x2="118.4" y2="74.5" stroke="rgb(0,0,0)"  stroke-width="2.0"/>
<line x1="94.6" y1="102.4" x2="74.5" y2="95.3" stroke="rgb(0,0,0)"  stroke-width="2.0"/>
<line x1="102.4" y1="119.1" x2="95.2" y2="139.1" stroke="rgb(0,0,0)"  stroke-width="2.0"/>
<line x1="184.8" y1="57.2" x2="187.3" y2="95.7" stroke="rgb(0,0,0)"  stroke-width="2.0"/>
<line x1="178.8" y1="57.6" x2="181.3" y2="96.1" stroke="rgb(0,0,0)"  stroke-width="2.0"/>
<line x1="223.6" y1="158.5" x2="225.2" y2="158.5" stroke="rgb(0,0,0)"  stroke-width="1.0"/>
<line x1="223.1" y1="150.5" x2="226.0" y2="150.5" stroke="rgb(0,0,0)"  stroke-width="1.0"/>
<line x1="222.5" y1="142.4" x2="226.7" y2="142.5" stroke="rgb(0,0,0)"  stroke-width="1.0"/>
<line x1="222.0" y1="134.4" x2="227.4" y2="134.4" stroke="rgb(0,0,0)"  stroke-width="1.0"/>
<line x1="221.5" y1="126.3" x2="228.2" y2="126.4" stroke="rgb(0,0,0)"  stroke-width="1.0"/>
<line x1="220.9" y1="118.3" x2="228.9" y2="118.4" stroke="rgb(0,0,0)"  stroke-width="1.0"/>
<line x1="315.8" y1="119.8" x2="336.4" y2="167.6" stroke="rgb(0,0,0)"  stroke-width="2.0"/>
<line x1="194.4" y1="241.1" x2="235.6" y2="265.9" stroke="rgb(0,0,0)"  stroke-width="2.0"/>
<polygon points="194.398688 241.140666 178.229445 193.189285 185.988405 191.240300 " stroke-width="2.000000" fill="rgb(0,0,0)"  stroke="rgb(0,0,0)" />
<line x1="224.3" y1="168.6" x2="266.7" y2="192.8" stroke="rgb(0,0,0)"  stroke-width="2.0"/>
<line x1="265.2" y1="190.2" x2="310.2" y2="164.0" stroke="rgb(0,0,0)"  stroke-width="2.0"/>
<line x1="268.2" y1="195.4" x2="313.2" y2="169.2" stroke="rgb(0,0,0)"  stroke-width="2.0"/>
<line x1="191.4" y1="240.3" x2="173.9" y2="256.3" stroke="rgb(0,0,0)"  stroke-width="2.0"/>
<line x1="191.4" y1="240.3" x2="196.9" y2="263.3" stroke="rgb(0,0,0)"  stroke-width="2.0"/>
<line x1="138.5" y1="168.9" x2="119.3" y2="180.4" stroke="rgb(0,0,0)"  stroke-width="2.0"/>
<line x1="118.4" y1="74.5" x2="141.7" y2="70.3" stroke="rgb(0,0,0)"  stroke-width="2.0"/>
<line x1="118.4" y1="74.5" x2="103.1" y2="56.5" stroke="rgb(0,0,0)"  stroke-width="2.0"/>
<line x1="118.4" y1="74.5" x2="126.4" y2="52.2" stroke="rgb(0,0,0)"  stroke-width="2.0"/>
<line x1="74.5" y1="95.3" x2="70.3" y2="71.9" stroke="rgb(0,0,0)"  stroke-width="2.0"/>
<line x1="74.5" y1="95.3" x2="56.5" y2="110.6" stroke="rgb(0,0,0)"  stroke-width="2.0"/>
<line x1="74.5" y1="95.3" x2="52.2" y2="87.3" stroke="rgb(0,0,0)"  stroke-width="2.0"/>
<line x1="95.2" y1="139.1" x2="71.9" y2="143.3" stroke="rgb(0,0,0)"  stroke-width="2.0"/>
<line x1="95.2" y1="139.1" x2="110.6" y2="157.2" stroke="rgb(0,0,0)"  stroke-width="2.0"/>
<line x1="95.2" y1="139.1" x2="87.3" y2="161.4" stroke="rgb(0,0,0)"  stroke-width="2.0"/>
<line x1="264.0" y1="102.2" x2="263.3" y2="78.5" stroke="rgb(0,0,0)"  stroke-width="2.0"/>
<line x1="264.0" y1="102.2" x2="283.1" y2="88.1" stroke="rgb(0,0,0)"  stroke-width="2.0"/>
<line x1="313.1" y1="124.0" x2="311.9" y2="122.9" stroke="rgb(0,0,0)"  stroke-width="1.0"/>
<line x1="310.9" y1="127.3" x2="308.8" y2="125.3" stroke="rgb(0,0,0)"  stroke-width="1.0"/>
<line x1="308.7" y1="130.6" x2="305.6" y2="127.8" stroke="rgb(0,0,0)"  stroke-width="1.0"/>
<line x1="306.5" y1="133.9" x2="302.5" y2="130.2" stroke="rgb(0,0,0)"  stroke-width="1.0"/>
<line x1="304.3" y1="137.3" x2="299.4" y2="132.7" stroke="rgb(0,0,0)"  stroke-width="1.0"/>
<line x1="302.1" y1="140.6" x2="296.2" y2="135.2" stroke="rgb(0,0,0)"  stroke-width="1.0"/>
<line x1="235.6" y1="265.9" x2="235.1" y2="289.6" stroke="rgb(0,0,0)"  stroke-width="2.0"/>
<line x1="235.6" y1="265.9" x2="256.3" y2="254.5" stroke="rgb(0,0,0)"  stroke-width="2.0"/>
<line x1="235.6" y1="265.9" x2="255.9" y2="278.1" stroke="rgb(0,0,0)"  stroke-width="2.0"/>
<line x1="194.4" y1="241.1" x2="213.4" y2="227.0" stroke="rgb(0,0,0)"  stroke-width="2.0"/>
<line x1="281.3" y1="109.6" x2="282.9" y2="85.9" stroke="rgb(0,0,0)"  stroke-width="2.0"/>
<line x1="281.3" y1="109.6" x2="300.7" y2="96.0" stroke="rgb(0,0,0)"  stroke-width="2.0"/>
<line x1="224.3" y1="168.6" x2="244.9" y2="156.8" stroke="rgb(0,0,0)"  stroke-width="2.0"/>
<line x1="336.4" y1="167.6" x2="322.3" y2="186.6" stroke="rgb(0,0,0)"  stroke-width="2.0"/>
<line x1="336.4" y1="167.6" x2="360.0" y2="170.3" stroke="rgb(0,0,0)"  stroke-width="2.0"/>
<line x1="336.4" y1="167.6" x2="345.8" y2="189.3" stroke="rgb(0,0,0)"  stroke-width="2.0"/>
<line x1="266.7" y1="192.8" x2="266.8" y2="215.2" stroke="rgb(0,0,0)"  stroke-width="2.0"/>
<line x1="311.7" y1="166.6" x2="331.1" y2="177.7" stroke="rgb(0,0,0)"  stroke-width="2.0"/>
<line x1="311.7" y1="166.6" x2="311.6" y2="144.2" stroke="rgb(0,0,0)"  stroke-width="2.0"/>
<line x1="191.4" y1="240.3" x2="194.4" y2="241.1" stroke="rgb(0,0,0)"  stroke-width="2.0"/>
<line x1="194.4" y1="241.1" x2="182.1" y2="192.2" stroke="rgb(0,0,0)"  stroke-width="2.0"/>
<line x1="182.1" y1="192.2" x2="191.4" y2="240.3" stroke="rgb(0,0,0)"  stroke-width="2.0"/>
<line x1="264.0" y1="102.2" x2="224.9" y2="118.3" stroke="rgb(0,0,0)"  stroke-width="2.0"/>
<line x1="224.9" y1="118.3" x2="281.3" y2="109.6" stroke="rgb(0,0,0)"  stroke-width="2.0"/>
<line x1="281.3" y1="109.6" x2="315.8" y2="119.8" stroke="rgb(0,0,0)"  stroke-width="2.0"/>
<line x1="315.8" y1="119.8" x2="264.0" y2="102.2" stroke="rgb(0,0,0)"  stroke-width="2.0"/>
<line x1="138.5" y1="168.9" x2="139.1" y2="118.4" stroke="rgb(0,0,0)"  stroke-width="2.0"/>
<line x1="145.8" y1="163.0" x2="146.2" y2="124.5" stroke="rgb(0,0,0)"  stroke-width="2.0"/>
<line x1="139.1" y1="118.4" x2="184.3" y2="95.9" stroke="rgb(0,0,0)"  stroke-width="2.0"/>
<line x1="184.3" y1="95.9" x2="224.9" y2="118.3" stroke="rgb(0,0,0)"  stroke-width="2.0"/>
<line x1="224.9" y1="118.3" x2="224.3" y2="168.6" stroke="rgb(0,0,0)"  stroke-width="2.0"/>
<line x1="224.3" y1="168.6" x2="182.1" y2="192.2" stroke="rgb(0,0,0)"  stroke-width="2.0"/>
<line x1="182.1" y1="192.2" x2="138.5" y2="168.9" stroke="rgb(0,0,0)"  stroke-width="2.0"/>
<text x="100.816984" y="114.820831" fill="rgb(127,153,153)"  stroke="rgb(127,153,153)" stroke-width="1" font-size="16" >Si</text>
<text x="174.956760" y="52.405022" fill="rgb(255,12,12)"  stroke="rgb(255,12,12)" stroke-width="1" font-size="16" >O</text>
<text x="158.339386" y="273.100729" fill="rgb(191,191,191)"  stroke="rgb(191,191,191)" stroke-width="1" font-size="16" >H</text>
<text x="193.863216" y="283.976404" fill="rgb(191,191,191)"  stroke="rgb(191,191,191)" stroke-width="1" font-size="16" >H</text>
<text x="102.067021" y="194.976428" fill="rgb(191,191,191)"  stroke="rgb(191,191,191)" stroke-width="1" font-size="16" >H</text>
<text x="148.488383" y="75.990417" fill="rgb(191,191,191)"  stroke="rgb(191,191,191)" stroke-width="1" font-size="16" >H</text>
<text x="88.663989" y="54.549212" fill="rgb(191,191,191)"  stroke="rgb(191,191,191)" stroke-width="1" font-size="16" >H</text>
<text x="124.765729" y="48.000000" fill="rgb(191,191,191)"  stroke="rgb(191,191,191)" stroke-width="1" font-size="16" >H</text>
<text x="61.991218" y="67.149211" fill="rgb(191,191,191)"  stroke="rgb(191,191,191)" stroke-width="1" font-size="16" >H</text>
<text x="40.547994" y="126.972881" fill="rgb(191,191,191)"  stroke="rgb(191,191,191)" stroke-width="1" font-size="16" >H</text>
<text x="34.000000" y="90.870921" fill="rgb(191,191,191)"  stroke="rgb(191,191,191)" stroke-width="1" font-size="16" >H</text>
<text x="53.145364" y="153.646597" fill="rgb(191,191,191)"  stroke="rgb(191,191,191)" stroke-width="1" font-size="16" >H</text>
<text x="112.969034" y="175.089820" fill="rgb(191,191,191)"  stroke="rgb(191,191,191)" stroke-width="1" font-size="16" >H</text>
<text x="76.867074" y="181.637815" fill="rgb(191,191,191)"  stroke="rgb(191,191,191)" stroke-width="1" font-size="16" >H</text>
<text x="256.860730" y="73.546445" fill="rgb(191,191,191)"  stroke="rgb(191,191,191)" stroke-width="1" font-size="16" >H</text>
<text x="287.503458" y="88.376541" fill="rgb(191,191,191)"  stroke="rgb(191,191,191)" stroke-width="1" font-size="16" >H</text>
<text x="284.954173" y="154.765739" fill="rgb(191,191,191)"  stroke="rgb(191,191,191)" stroke-width="1" font-size="16" >H</text>
<text x="228.903425" y="310.614197" fill="rgb(191,191,191)"  stroke="rgb(191,191,191)" stroke-width="1" font-size="16" >H</text>
<text x="261.680602" y="256.168444" fill="rgb(191,191,191)"  stroke="rgb(191,191,191)" stroke-width="1" font-size="16" >H</text>
<text x="261.009149" y="292.853276" fill="rgb(191,191,191)"  stroke="rgb(191,191,191)" stroke-width="1" font-size="16" >H</text>
<text x="217.883095" y="227.302684" fill="rgb(191,191,191)"  stroke="rgb(191,191,191)" stroke-width="1" font-size="16" >H</text>
<text x="277.734755" y="80.975829" fill="rgb(191,191,191)"  stroke="rgb(191,191,191)" stroke-width="1" font-size="16" >H</text>
<text x="305.392700" y="96.620281" fill="rgb(191,191,191)"  stroke="rgb(191,191,191)" stroke-width="1" font-size="16" >H</text>
<text x="250.136753" y="158.383062" fill="rgb(191,191,191)"  stroke="rgb(191,191,191)" stroke-width="1" font-size="16" >H</text>
<text x="308.527621" y="204.984106" fill="rgb(191,191,191)"  stroke="rgb(191,191,191)" stroke-width="1" font-size="16" >H</text>
<text x="366.880318" y="179.811779" fill="rgb(191,191,191)"  stroke="rgb(191,191,191)" stroke-width="1" font-size="16" >H</text>
<text x="344.970594" y="209.242915" fill="rgb(191,191,191)"  stroke="rgb(191,191,191)" stroke-width="1" font-size="16" >H</text>
<text x="260.846664" y="236.226483" fill="rgb(191,191,191)"  stroke="rgb(191,191,191)" stroke-width="1" font-size="16" >H</text>
<text x="336.417877" y="192.151349" fill="rgb(191,191,191)"  stroke="rgb(191,191,191)" stroke-width="1" font-size="16" >H</text>
<text x="305.537020" y="139.205244" fill="rgb(191,191,191)"  stroke="rgb(191,191,191)" stroke-width="1" font-size="16" >H</text>
</svg>
</g>
<text font-size="18.000000" fill ="black" font-family="sans-serif"
x="10.000000" y="20.000000" ></text>
</svg>
