<?xml version="1.0"?>
<svg version="1.1" id="topsvg"
xmlns="http://www.w3.org/2000/svg" xmlns:xlink="http://www.w3.org/1999/xlink"
xmlns:cml="http://www.xml-cml.org/schema" x="0" y="0" width="200px" height="200px" viewBox="0 0 100 100">
<title> - Open Babel Depiction</title>
<rect x="0" y="0" width="100" height="100" fill="white"/>
<g transform="translate(0,0)">
<svg width="100" height="100" x="0" y="0" viewBox="0 0 436.28 296.721"
font-family="sans-serif" stroke="rgb(0,0,0)" stroke-width="2"  stroke-linecap="round">
<line x1="102.7" y1="87.5" x2="107.7" y2="71.6" stroke="rgb(0,0,0)"  stroke-width="2.0"/>
<line x1="86.4" y1="96.0" x2="70.4" y2="90.9" stroke="rgb(0,0,0)"  stroke-width="2.0"/>
<line x1="94.8" y1="112.3" x2="89.8" y2="128.3" stroke="rgb(0,0,0)"  stroke-width="2.0"/>
<line x1="111.1" y1="103.9" x2="127.1" y2="108.9" stroke="rgb(0,0,0)"  stroke-width="2.0"/>
<line x1="166.2" y1="86.7" x2="212.6" y2="48.3" stroke="rgb(0,0,0)"  stroke-width="2.0"/>
<line x1="216.8" y1="106.3" x2="217.1" y2="107.9" stroke="rgb(0,0,0)"  stroke-width="1.0"/>
<line x1="225.0" y1="104.3" x2="225.4" y2="107.1" stroke="rgb(0,0,0)"  stroke-width="1.0"/>
<line x1="233.1" y1="102.2" x2="233.8" y2="106.3" stroke="rgb(0,0,0)"  stroke-width="1.0"/>
<line x1="241.3" y1="100.2" x2="242.2" y2="105.6" stroke="rgb(0,0,0)"  stroke-width="1.0"/>
<line x1="249.4" y1="98.2" x2="250.6" y2="104.8" stroke="rgb(0,0,0)"  stroke-width="1.0"/>
<line x1="257.6" y1="96.1" x2="258.9" y2="104.0" stroke="rgb(0,0,0)"  stroke-width="1.0"/>
<line x1="266.4" y1="101.3" x2="266.0" y2="102.9" stroke="rgb(0,0,0)"  stroke-width="1.0"/>
<line x1="272.8" y1="102.3" x2="272.1" y2="105.1" stroke="rgb(0,0,0)"  stroke-width="1.0"/>
<line x1="279.3" y1="103.3" x2="278.3" y2="107.4" stroke="rgb(0,0,0)"  stroke-width="1.0"/>
<line x1="285.8" y1="104.3" x2="284.4" y2="109.6" stroke="rgb(0,0,0)"  stroke-width="1.0"/>
<line x1="292.2" y1="105.3" x2="290.6" y2="111.9" stroke="rgb(0,0,0)"  stroke-width="1.0"/>
<line x1="298.7" y1="106.4" x2="296.7" y2="114.1" stroke="rgb(0,0,0)"  stroke-width="1.0"/>
<line x1="207.0" y1="147.5" x2="208.6" y2="147.4" stroke="rgb(0,0,0)"  stroke-width="1.0"/>
<line x1="206.2" y1="139.8" x2="209.0" y2="139.7" stroke="rgb(0,0,0)"  stroke-width="1.0"/>
<line x1="205.3" y1="132.1" x2="209.4" y2="131.9" stroke="rgb(0,0,0)"  stroke-width="1.0"/>
<line x1="204.4" y1="124.4" x2="209.8" y2="124.2" stroke="rgb(0,0,0)"  stroke-width="1.0"/>
<line x1="203.5" y1="116.7" x2="210.2" y2="116.4" stroke="rgb(0,0,0)"  stroke-width="1.0"/>
<line x1="202.6" y1="109.0" x2="210.6" y2="108.7" stroke="rgb(0,0,0)"  stroke-width="1.0"/>
<line x1="208.1" y1="157.1" x2="246.7" y2="178.4" stroke="rgb(0,0,0)"  stroke-width="2.0"/>
<line x1="245.2" y1="175.8" x2="285.4" y2="151.8" stroke="rgb(0,0,0)"  stroke-width="2.0"/>
<line x1="248.2" y1="181.0" x2="288.5" y2="156.9" stroke="rgb(0,0,0)"  stroke-width="2.0"/>
<line x1="178.1" y1="221.6" x2="163.0" y2="232.8" stroke="rgb(0,0,0)"  stroke-width="2.0"/>
<line x1="178.1" y1="221.6" x2="179.2" y2="240.4" stroke="rgb(0,0,0)"  stroke-width="2.0"/>
<line x1="127.3" y1="155.4" x2="112.1" y2="164.5" stroke="rgb(0,0,0)"  stroke-width="2.0"/>
<line x1="107.7" y1="71.6" x2="126.2" y2="67.5" stroke="rgb(0,0,0)"  stroke-width="2.0"/>
<line x1="107.7" y1="71.6" x2="95.0" y2="57.6" stroke="rgb(0,0,0)"  stroke-width="2.0"/>
<line x1="107.7" y1="71.6" x2="113.4" y2="53.6" stroke="rgb(0,0,0)"  stroke-width="2.0"/>
<line x1="70.4" y1="90.9" x2="66.3" y2="72.5" stroke="rgb(0,0,0)"  stroke-width="2.0"/>
<line x1="70.4" y1="90.9" x2="56.4" y2="103.7" stroke="rgb(0,0,0)"  stroke-width="2.0"/>
<line x1="70.4" y1="90.9" x2="52.4" y2="85.3" stroke="rgb(0,0,0)"  stroke-width="2.0"/>
<line x1="89.8" y1="128.3" x2="71.3" y2="132.4" stroke="rgb(0,0,0)"  stroke-width="2.0"/>
<line x1="89.8" y1="128.3" x2="102.5" y2="142.2" stroke="rgb(0,0,0)"  stroke-width="2.0"/>
<line x1="89.8" y1="128.3" x2="84.1" y2="146.3" stroke="rgb(0,0,0)"  stroke-width="2.0"/>
<line x1="243.7" y1="94.0" x2="243.8" y2="75.1" stroke="rgb(0,0,0)"  stroke-width="2.0"/>
<line x1="243.7" y1="94.0" x2="259.4" y2="83.6" stroke="rgb(0,0,0)"  stroke-width="2.0"/>
<line x1="258.3" y1="100.1" x2="239.5" y2="97.9" stroke="rgb(0,0,0)"  stroke-width="2.0"/>
<line x1="309.0" y1="232.6" x2="320.0" y2="246.5" stroke="rgb(0,0,0)"  stroke-width="2.0"/>
<line x1="330.8" y1="192.7" x2="348.4" y2="195.0" stroke="rgb(0,0,0)"  stroke-width="2.0"/>
<line x1="208.1" y1="157.1" x2="191.9" y2="147.6" stroke="rgb(0,0,0)"  stroke-width="2.0"/>
<line x1="246.7" y1="178.4" x2="247.0" y2="196.1" stroke="rgb(0,0,0)"  stroke-width="2.0"/>
<line x1="286.9" y1="154.4" x2="302.4" y2="163.0" stroke="rgb(0,0,0)"  stroke-width="2.0"/>
<line x1="286.9" y1="154.4" x2="286.7" y2="136.6" stroke="rgb(0,0,0)"  stroke-width="2.0"/>
<line x1="383.6" y1="128.7" x2="319.0" y2="144.4" stroke="rgb(0,0,0)"  stroke-width="2.0"/>
<line x1="319.0" y1="144.4" x2="328.1" y2="115.5" stroke="rgb(0,0,0)"  stroke-width="2.0"/>
<line x1="328.1" y1="115.5" x2="383.4" y2="123.8" stroke="rgb(0,0,0)"  stroke-width="2.0"/>
<line x1="243.7" y1="94.0" x2="258.3" y2="100.1" stroke="rgb(0,0,0)"  stroke-width="2.0"/>
<line x1="258.3" y1="100.1" x2="206.6" y2="108.8" stroke="rgb(0,0,0)"  stroke-width="2.0"/>
<line x1="206.6" y1="108.8" x2="243.7" y2="94.0" stroke="rgb(0,0,0)"  stroke-width="2.0"/>
<line x1="328.1" y1="115.5" x2="297.7" y2="110.2" stroke="rgb(0,0,0)"  stroke-width="2.0"/>
<line x1="297.7" y1="110.2" x2="319.0" y2="144.4" stroke="rgb(0,0,0)"  stroke-width="2.0"/>
<line x1="328.1" y1="115.5" x2="361.8" y2="92.5" stroke="rgb(0,0,0)"  stroke-width="2.0"/>
<line x1="360.2" y1="89.3" x2="297.7" y2="110.2" stroke="rgb(0,0,0)"  stroke-width="2.0"/>
<line x1="379.1" y1="96.4" x2="389.7" y2="114.4" stroke="rgb(0,0,0)"  stroke-width="2.0"/>
<line x1="127.3" y1="155.4" x2="168.1" y2="177.6" stroke="rgb(0,0,0)"  stroke-width="2.0"/>
<line x1="136.0" y1="152.0" x2="166.3" y2="168.4" stroke="rgb(0,0,0)"  stroke-width="2.0"/>
<line x1="168.1" y1="177.6" x2="208.1" y2="157.1" stroke="rgb(0,0,0)"  stroke-width="2.0"/>
<line x1="208.1" y1="157.1" x2="206.6" y2="108.8" stroke="rgb(0,0,0)"  stroke-width="2.0"/>
<line x1="206.6" y1="108.8" x2="166.2" y2="86.7" stroke="rgb(0,0,0)"  stroke-width="2.0"/>
<line x1="166.2" y1="86.7" x2="127.1" y2="108.9" stroke="rgb(0,0,0)"  stroke-width="2.0"/>
<line x1="164.6" y1="95.9" x2="135.9" y2="112.2" stroke="rgb(0,0,0)"  stroke-width="2.0"/>
<line x1="127.1" y1="108.9" x2="127.3" y2="155.4" stroke="rgb(0,0,0)"  stroke-width="2.0"/>
<line x1="178.1" y1="221.6" x2="168.1" y2="177.6" stroke="rgb(0,0,0)"  stroke-width="2.0"/>
<line x1="258.3" y1="100.1" x2="297.7" y2="110.2" stroke="rgb(0,0,0)"  stroke-width="2.0"/>
<line x1="319.0" y1="144.4" x2="330.8" y2="192.7" stroke="rgb(0,0,0)"  stroke-width="2.0"/>
<line x1="330.8" y1="192.7" x2="309.0" y2="232.6" stroke="rgb(0,0,0)"  stroke-width="2.0"/>
<line x1="321.6" y1="194.6" x2="305.6" y2="223.9" stroke="rgb(0,0,0)"  stroke-width="2.0"/>
<line x1="309.0" y1="232.6" x2="264.6" y2="244.7" stroke="rgb(0,0,0)"  stroke-width="2.0"/>
<line x1="264.6" y1="244.7" x2="218.5" y2="244.6" stroke="rgb(0,0,0)"  stroke-width="2.0"/>
<line x1="264.6" y1="248.9" x2="218.5" y2="248.8" stroke="rgb(0,0,0)"  stroke-width="2.0"/>
<line x1="264.6" y1="240.5" x2="218.5" y2="240.4" stroke="rgb(0,0,0)"  stroke-width="2.0"/>
<line x1="218.5" y1="244.6" x2="178.1" y2="221.6" stroke="rgb(0,0,0)"  stroke-width="2.0"/>
<text x="92.744953" y="107.937551" fill="rgb(127,153,153)"  stroke="rgb(127,153,153)" stroke-width="1" font-size="16" >Si</text>
<text x="216.647844" y="48.000000" fill="rgb(17,127,178)"  stroke="rgb(17,127,178)" stroke-width="1" font-size="16" >Xx</text>
<text x="366.569122" y="93.130291" fill="rgb(17,127,178)"  stroke="rgb(17,127,178)" stroke-width="1" font-size="16" >Xx</text>
<text x="390.280386" y="133.670152" fill="rgb(17,127,178)"  stroke="rgb(17,127,178)" stroke-width="1" font-size="16" >Xx</text>
<text x="146.514457" y="248.585312" fill="rgb(191,191,191)"  stroke="rgb(191,191,191)" stroke-width="1" font-size="16" >H</text>
<text x="174.033557" y="261.386446" fill="rgb(191,191,191)"  stroke="rgb(191,191,191)" stroke-width="1" font-size="16" >H</text>
<text x="94.931583" y="179.150591" fill="rgb(191,191,191)"  stroke="rgb(191,191,191)" stroke-width="1" font-size="16" >H</text>
<text x="132.846597" y="72.713341" fill="rgb(191,191,191)"  stroke="rgb(191,191,191)" stroke-width="1" font-size="16" >H</text>
<text x="80.253477" y="56.044875" fill="rgb(191,191,191)"  stroke="rgb(191,191,191)" stroke-width="1" font-size="16" >H</text>
<text x="111.361808" y="49.196782" fill="rgb(191,191,191)"  stroke="rgb(191,191,191)" stroke-width="1" font-size="16" >H</text>
<text x="57.513861" y="67.839745" fill="rgb(191,191,191)"  stroke="rgb(191,191,191)" stroke-width="1" font-size="16" >H</text>
<text x="40.851998" y="120.434956" fill="rgb(191,191,191)"  stroke="rgb(191,191,191)" stroke-width="1" font-size="16" >H</text>
<text x="34.000000" y="89.327485" fill="rgb(191,191,191)"  stroke="rgb(191,191,191)" stroke-width="1" font-size="16" >H</text>
<text x="52.643517" y="143.165678" fill="rgb(191,191,191)"  stroke="rgb(191,191,191)" stroke-width="1" font-size="16" >H</text>
<text x="105.237140" y="159.832554" fill="rgb(191,191,191)"  stroke="rgb(191,191,191)" stroke-width="1" font-size="16" >H</text>
<text x="74.129016" y="166.681587" fill="rgb(191,191,191)"  stroke="rgb(191,191,191)" stroke-width="1" font-size="16" >H</text>
<text x="237.855548" y="70.149037" fill="rgb(191,191,191)"  stroke="rgb(191,191,191)" stroke-width="1" font-size="16" >H</text>
<text x="264.199057" y="84.401049" fill="rgb(191,191,191)"  stroke="rgb(191,191,191)" stroke-width="1" font-size="16" >H</text>
<text x="220.613151" y="104.482834" fill="rgb(191,191,191)"  stroke="rgb(191,191,191)" stroke-width="1" font-size="16" >H</text>
<text x="322.035892" y="264.721484" fill="rgb(191,191,191)"  stroke="rgb(191,191,191)" stroke-width="1" font-size="16" >H</text>
<text x="355.265401" y="204.732496" fill="rgb(191,191,191)"  stroke="rgb(191,191,191)" stroke-width="1" font-size="16" >H</text>
<text x="174.705743" y="148.951557" fill="rgb(191,191,191)"  stroke="rgb(191,191,191)" stroke-width="1" font-size="16" >H</text>
<text x="241.223315" y="217.109024" fill="rgb(191,191,191)"  stroke="rgb(191,191,191)" stroke-width="1" font-size="16" >H</text>
<text x="307.767503" y="177.325397" fill="rgb(191,191,191)"  stroke="rgb(191,191,191)" stroke-width="1" font-size="16" >H</text>
<text x="280.484166" y="131.640255" fill="rgb(191,191,191)"  stroke="rgb(191,191,191)" stroke-width="1" font-size="16" >H</text>
</svg>
</g>
<text font-size="18.000000" fill ="black" font-family="sans-serif"
x="10.000000" y="20.000000" ></text>
</svg>
