<?xml version="1.0"?>
<svg version="1.1" id="topsvg"
xmlns="http://www.w3.org/2000/svg" xmlns:xlink="http://www.w3.org/1999/xlink"
xmlns:cml="http://www.xml-cml.org/schema" x="0" y="0" width="200px" height="200px" viewBox="0 0 100 100">
<title> - Open Babel Depiction</title>
<rect x="0" y="0" width="100" height="100" fill="white"/>
<g transform="translate(0,0)">
<svg width="100" height="100" x="0" y="0" viewBox="0 0 390.522 342.369"
font-family="sans-serif" stroke="rgb(0,0,0)" stroke-width="2"  stroke-linecap="round">
<line x1="237.5" y1="169.9" x2="196.3" y2="192.6" stroke="rgb(0,0,0)"  stroke-width="2.0"/>
<polygon points="237.533278 169.860144 233.357915 120.473246 241.357864 120.444843 " stroke-width="2.000000" fill="rgb(0,0,0)"  stroke="rgb(0,0,0)" />
<line x1="237.4" y1="120.5" x2="236.2" y2="74.7" stroke="rgb(0,0,0)"  stroke-width="2.0"/>
<line x1="237.4" y1="120.5" x2="195.4" y2="97.4" stroke="rgb(0,0,0)"  stroke-width="2.0"/>
<line x1="277.7" y1="194.7" x2="277.1" y2="242.3" stroke="rgb(0,0,0)"  stroke-width="2.0"/>
<polygon points="277.713489 194.677619 235.431289 173.263325 239.635267 166.456963 " stroke-width="2.000000" fill="rgb(0,0,0)"  stroke="rgb(0,0,0)" />
<line x1="245.1" y1="115.4" x2="245.9" y2="116.8" stroke="rgb(0,0,0)"  stroke-width="1.0"/>
<line x1="251.3" y1="111.3" x2="252.7" y2="113.8" stroke="rgb(0,0,0)"  stroke-width="1.0"/>
<line x1="257.5" y1="107.2" x2="259.5" y2="110.9" stroke="rgb(0,0,0)"  stroke-width="1.0"/>
<line x1="263.7" y1="103.2" x2="266.3" y2="108.0" stroke="rgb(0,0,0)"  stroke-width="1.0"/>
<line x1="269.9" y1="99.1" x2="273.1" y2="105.0" stroke="rgb(0,0,0)"  stroke-width="1.0"/>
<line x1="276.1" y1="95.1" x2="279.9" y2="102.1" stroke="rgb(0,0,0)"  stroke-width="1.0"/>
<line x1="278.0" y1="98.6" x2="286.9" y2="63.1" stroke="rgb(0,0,0)"  stroke-width="2.0"/>
<line x1="67.3" y1="120.5" x2="110.7" y2="96.3" stroke="rgb(0,0,0)"  stroke-width="2.0"/>
<line x1="70.2" y1="125.8" x2="113.6" y2="101.6" stroke="rgb(0,0,0)"  stroke-width="2.0"/>
<line x1="112.1" y1="99.0" x2="153.2" y2="121.8" stroke="rgb(0,0,0)"  stroke-width="2.0"/>
<line x1="277.1" y1="242.3" x2="316.6" y2="264.5" stroke="rgb(0,0,0)"  stroke-width="2.0"/>
<line x1="328.1" y1="283.9" x2="328.1" y2="289.4" stroke="rgb(0,0,0)"  stroke-width="2.0"/>
<line x1="154.0" y1="166.8" x2="197.7" y2="190.0" stroke="rgb(0,0,0)"  stroke-width="2.0"/>
<line x1="151.2" y1="172.1" x2="194.9" y2="195.3" stroke="rgb(0,0,0)"  stroke-width="2.0"/>
<line x1="195.4" y1="97.4" x2="153.2" y2="121.8" stroke="rgb(0,0,0)"  stroke-width="2.0"/>
<line x1="302.5" y1="46.9" x2="307.8" y2="45.4" stroke="rgb(0,0,0)"  stroke-width="2.0"/>
<line x1="237.5" y1="169.9" x2="218.8" y2="158.8" stroke="rgb(0,0,0)"  stroke-width="2.0"/>
<line x1="196.3" y1="192.6" x2="196.4" y2="213.1" stroke="rgb(0,0,0)"  stroke-width="2.0"/>
<line x1="236.2" y1="74.7" x2="254.7" y2="63.4" stroke="rgb(0,0,0)"  stroke-width="2.0"/>
<line x1="236.2" y1="74.7" x2="217.1" y2="64.4" stroke="rgb(0,0,0)"  stroke-width="2.0"/>
<line x1="236.2" y1="74.7" x2="235.6" y2="53.0" stroke="rgb(0,0,0)"  stroke-width="2.0"/>
<line x1="320.0" y1="121.2" x2="338.6" y2="110.0" stroke="rgb(0,0,0)"  stroke-width="2.0"/>
<line x1="320.0" y1="121.2" x2="319.5" y2="99.5" stroke="rgb(0,0,0)"  stroke-width="2.0"/>
<line x1="320.4" y1="170.4" x2="339.3" y2="181.3" stroke="rgb(0,0,0)"  stroke-width="2.0"/>
<line x1="320.4" y1="170.4" x2="320.3" y2="192.2" stroke="rgb(0,0,0)"  stroke-width="2.0"/>
<line x1="277.7" y1="194.7" x2="296.4" y2="205.7" stroke="rgb(0,0,0)"  stroke-width="2.0"/>
<polygon points="278.012299 98.577703 281.997681 121.864659 273.997682 121.859637 " stroke-width="2.000000" fill="rgb(0,0,0)"  stroke="rgb(0,0,0)" />
<line x1="68.8" y1="123.2" x2="51.2" y2="112.6" stroke="rgb(0,0,0)"  stroke-width="2.0"/>
<line x1="68.8" y1="123.2" x2="68.5" y2="143.7" stroke="rgb(0,0,0)"  stroke-width="2.0"/>
<line x1="112.1" y1="99.0" x2="112.1" y2="78.4" stroke="rgb(0,0,0)"  stroke-width="2.0"/>
<line x1="153.2" y1="121.8" x2="153.3" y2="143.6" stroke="rgb(0,0,0)"  stroke-width="2.0"/>
<line x1="153.2" y1="121.8" x2="172.0" y2="132.6" stroke="rgb(0,0,0)"  stroke-width="2.0"/>
<line x1="277.1" y1="242.3" x2="258.2" y2="253.1" stroke="rgb(0,0,0)"  stroke-width="2.0"/>
<line x1="277.1" y1="242.3" x2="277.2" y2="264.0" stroke="rgb(0,0,0)"  stroke-width="2.0"/>
<line x1="152.6" y1="169.4" x2="151.9" y2="148.9" stroke="rgb(0,0,0)"  stroke-width="2.0"/>
<line x1="152.6" y1="169.4" x2="135.2" y2="180.3" stroke="rgb(0,0,0)"  stroke-width="2.0"/>
<line x1="195.4" y1="97.4" x2="195.1" y2="75.7" stroke="rgb(0,0,0)"  stroke-width="2.0"/>
<line x1="195.4" y1="97.4" x2="176.4" y2="86.6" stroke="rgb(0,0,0)"  stroke-width="2.0"/>
<line x1="237.4" y1="120.5" x2="278.0" y2="98.6" stroke="rgb(0,0,0)"  stroke-width="2.0"/>
<line x1="278.0" y1="98.6" x2="320.0" y2="121.2" stroke="rgb(0,0,0)"  stroke-width="2.0"/>
<line x1="320.0" y1="121.2" x2="320.4" y2="170.4" stroke="rgb(0,0,0)"  stroke-width="2.0"/>
<line x1="320.4" y1="170.4" x2="277.7" y2="194.7" stroke="rgb(0,0,0)"  stroke-width="2.0"/>
<line x1="277.7" y1="194.7" x2="237.5" y2="169.9" stroke="rgb(0,0,0)"  stroke-width="2.0"/>
<line x1="237.5" y1="169.9" x2="237.4" y2="120.5" stroke="rgb(0,0,0)"  stroke-width="2.0"/>
<text x="321.923324" y="278.867691" fill="rgb(255,12,12)"  stroke="rgb(255,12,12)" stroke-width="1" font-size="16" >O</text>
<text x="283.997181" y="58.505009" fill="rgb(255,12,12)"  stroke="rgb(255,12,12)" stroke-width="1" font-size="16" >O</text>
<text x="322.270853" y="310.369418" fill="rgb(191,191,191)"  stroke="rgb(191,191,191)" stroke-width="1" font-size="16" >H</text>
<text x="314.284180" y="49.820029" fill="rgb(191,191,191)"  stroke="rgb(191,191,191)" stroke-width="1" font-size="16" >H</text>
<text x="201.578613" y="160.239621" fill="rgb(191,191,191)"  stroke="rgb(191,191,191)" stroke-width="1" font-size="16" >H</text>
<text x="190.523546" y="234.126382" fill="rgb(191,191,191)"  stroke="rgb(191,191,191)" stroke-width="1" font-size="16" >H</text>
<text x="259.799678" y="64.586110" fill="rgb(191,191,191)"  stroke="rgb(191,191,191)" stroke-width="1" font-size="16" >H</text>
<text x="199.626321" y="66.154994" fill="rgb(191,191,191)"  stroke="rgb(191,191,191)" stroke-width="1" font-size="16" >H</text>
<text x="229.260101" y="48.000000" fill="rgb(191,191,191)"  stroke="rgb(191,191,191)" stroke-width="1" font-size="16" >H</text>
<text x="343.757417" y="111.305804" fill="rgb(191,191,191)"  stroke="rgb(191,191,191)" stroke-width="1" font-size="16" >H</text>
<text x="313.169098" y="94.495303" fill="rgb(191,191,191)"  stroke="rgb(191,191,191)" stroke-width="1" font-size="16" >H</text>
<text x="344.522193" y="195.770209" fill="rgb(191,191,191)"  stroke="rgb(191,191,191)" stroke-width="1" font-size="16" >H</text>
<text x="314.305021" y="213.171538" fill="rgb(191,191,191)"  stroke="rgb(191,191,191)" stroke-width="1" font-size="16" >H</text>
<text x="301.632474" y="220.358657" fill="rgb(191,191,191)"  stroke="rgb(191,191,191)" stroke-width="1" font-size="16" >H</text>
<text x="271.990482" y="141.330606" fill="rgb(191,191,191)"  stroke="rgb(191,191,191)" stroke-width="1" font-size="16" >H</text>
<text x="34.000000" y="113.985450" fill="rgb(191,191,191)"  stroke="rgb(191,191,191)" stroke-width="1" font-size="16" >H</text>
<text x="62.300564" y="164.676542" fill="rgb(191,191,191)"  stroke="rgb(191,191,191)" stroke-width="1" font-size="16" >H</text>
<text x="106.119091" y="73.442266" fill="rgb(191,191,191)"  stroke="rgb(191,191,191)" stroke-width="1" font-size="16" >H</text>
<text x="147.432647" y="164.578202" fill="rgb(191,191,191)"  stroke="rgb(191,191,191)" stroke-width="1" font-size="16" >H</text>
<text x="177.327952" y="147.065087" fill="rgb(191,191,191)"  stroke="rgb(191,191,191)" stroke-width="1" font-size="16" >H</text>
<text x="240.960298" y="267.602177" fill="rgb(191,191,191)"  stroke="rgb(191,191,191)" stroke-width="1" font-size="16" >H</text>
<text x="271.250220" y="285.012353" fill="rgb(191,191,191)"  stroke="rgb(191,191,191)" stroke-width="1" font-size="16" >H</text>
<text x="145.435250" y="143.920533" fill="rgb(191,191,191)"  stroke="rgb(191,191,191)" stroke-width="1" font-size="16" >H</text>
<text x="118.196355" y="195.189933" fill="rgb(191,191,191)"  stroke="rgb(191,191,191)" stroke-width="1" font-size="16" >H</text>
<text x="188.958554" y="70.651271" fill="rgb(191,191,191)"  stroke="rgb(191,191,191)" stroke-width="1" font-size="16" >H</text>
<text x="159.148301" y="88.212395" fill="rgb(191,191,191)"  stroke="rgb(191,191,191)" stroke-width="1" font-size="16" >H</text>
</svg>
</g>
<text font-size="18.000000" fill ="black" font-family="sans-serif"
x="10.000000" y="20.000000" ></text>
</svg>
