<?xml version="1.0"?>
<svg version="1.1" id="topsvg"
xmlns="http://www.w3.org/2000/svg" xmlns:xlink="http://www.w3.org/1999/xlink"
xmlns:cml="http://www.xml-cml.org/schema" x="0" y="0" width="200px" height="200px" viewBox="0 0 100 100">
<title> - Open Babel Depiction</title>
<rect x="0" y="0" width="100" height="100" fill="white"/>
<g transform="translate(0,0)">
<svg width="100" height="100" x="0" y="0" viewBox="0 0 314.097 439.885"
font-family="sans-serif" stroke="rgb(0,0,0)" stroke-width="2"  stroke-linecap="round">
<line x1="121.6" y1="332.2" x2="167.3" y2="320.3" stroke="rgb(0,0,0)"  stroke-width="2.0"/>
<line x1="121.6" y1="332.2" x2="107.3" y2="317.6" stroke="rgb(0,0,0)"  stroke-width="2.0"/>
<line x1="121.6" y1="332.2" x2="116.2" y2="351.9" stroke="rgb(0,0,0)"  stroke-width="2.0"/>
<line x1="121.6" y1="332.2" x2="101.8" y2="337.4" stroke="rgb(0,0,0)"  stroke-width="2.0"/>
<line x1="167.3" y1="320.3" x2="156.2" y2="367.3" stroke="rgb(0,0,0)"  stroke-width="2.0"/>
<line x1="218.0" y1="320.7" x2="230.0" y2="337.2" stroke="rgb(0,0,0)"  stroke-width="2.0"/>
<line x1="218.0" y1="320.7" x2="208.7" y2="338.8" stroke="rgb(0,0,0)"  stroke-width="2.0"/>
<line x1="156.2" y1="367.3" x2="136.6" y2="373.2" stroke="rgb(0,0,0)"  stroke-width="2.0"/>
<line x1="156.2" y1="367.3" x2="171.1" y2="381.4" stroke="rgb(0,0,0)"  stroke-width="2.0"/>
<line x1="156.2" y1="367.3" x2="151.5" y2="387.2" stroke="rgb(0,0,0)"  stroke-width="2.0"/>
<line x1="194.9" y1="245.3" x2="194.8" y2="195.5" stroke="rgb(0,0,0)"  stroke-width="2.0"/>
<line x1="153.6" y1="172.7" x2="111.2" y2="192.0" stroke="rgb(0,0,0)"  stroke-width="2.0"/>
<line x1="153.0" y1="163.1" x2="154.6" y2="163.1" stroke="rgb(0,0,0)"  stroke-width="1.0"/>
<line x1="152.5" y1="155.3" x2="155.4" y2="155.4" stroke="rgb(0,0,0)"  stroke-width="1.0"/>
<line x1="152.0" y1="147.6" x2="156.1" y2="147.7" stroke="rgb(0,0,0)"  stroke-width="1.0"/>
<line x1="151.5" y1="139.9" x2="156.9" y2="140.0" stroke="rgb(0,0,0)"  stroke-width="1.0"/>
<line x1="151.0" y1="132.1" x2="157.7" y2="132.3" stroke="rgb(0,0,0)"  stroke-width="1.0"/>
<line x1="150.4" y1="124.4" x2="158.4" y2="124.5" stroke="rgb(0,0,0)"  stroke-width="1.0"/>
<line x1="153.6" y1="172.7" x2="152.8" y2="193.2" stroke="rgb(0,0,0)"  stroke-width="2.0"/>
<line x1="111.2" y1="192.0" x2="109.3" y2="211.1" stroke="rgb(0,0,0)"  stroke-width="2.0"/>
<line x1="154.4" y1="124.5" x2="110.5" y2="99.7" stroke="rgb(0,0,0)"  stroke-width="2.0"/>
<polygon points="154.439778 124.480854 149.873427 102.176302 157.870861 101.973694 " stroke-width="2.000000" fill="rgb(0,0,0)"  stroke="rgb(0,0,0)" />
<line x1="222.4" y1="70.5" x2="240.7" y2="69.7" stroke="rgb(0,0,0)"  stroke-width="2.0"/>
<line x1="203.5" y1="82.6" x2="195.0" y2="98.8" stroke="rgb(0,0,0)"  stroke-width="2.0"/>
<line x1="240.7" y1="69.7" x2="251.7" y2="86.9" stroke="rgb(0,0,0)"  stroke-width="2.0"/>
<line x1="240.7" y1="69.7" x2="250.1" y2="51.5" stroke="rgb(0,0,0)"  stroke-width="2.0"/>
<line x1="240.7" y1="69.7" x2="261.1" y2="68.8" stroke="rgb(0,0,0)"  stroke-width="2.0"/>
<line x1="237.6" y1="123.2" x2="254.3" y2="113.6" stroke="rgb(0,0,0)"  stroke-width="2.0"/>
<line x1="237.5" y1="172.9" x2="254.0" y2="182.9" stroke="rgb(0,0,0)"  stroke-width="2.0"/>
<line x1="75.6" y1="162.2" x2="113.0" y2="189.5" stroke="rgb(0,0,0)"  stroke-width="2.0"/>
<line x1="72.0" y1="167.1" x2="109.5" y2="194.4" stroke="rgb(0,0,0)"  stroke-width="2.0"/>
<line x1="73.8" y1="164.7" x2="75.8" y2="145.5" stroke="rgb(0,0,0)"  stroke-width="2.0"/>
<line x1="73.8" y1="164.7" x2="56.2" y2="172.5" stroke="rgb(0,0,0)"  stroke-width="2.0"/>
<line x1="107.5" y1="99.7" x2="107.7" y2="63.8" stroke="rgb(0,0,0)"  stroke-width="2.0"/>
<line x1="113.5" y1="99.7" x2="113.7" y2="63.9" stroke="rgb(0,0,0)"  stroke-width="2.0"/>
<line x1="69.2" y1="124.3" x2="110.5" y2="99.7" stroke="rgb(0,0,0)"  stroke-width="2.0"/>
<line x1="69.2" y1="124.3" x2="51.4" y2="114.3" stroke="rgb(0,0,0)"  stroke-width="2.0"/>
<line x1="69.2" y1="124.3" x2="69.5" y2="144.8" stroke="rgb(0,0,0)"  stroke-width="2.0"/>
<line x1="69.2" y1="124.3" x2="51.6" y2="134.8" stroke="rgb(0,0,0)"  stroke-width="2.0"/>
<line x1="167.6" y1="264.5" x2="194.9" y2="245.3" stroke="rgb(0,0,0)"  stroke-width="2.0"/>
<line x1="172.6" y1="269.8" x2="194.2" y2="254.6" stroke="rgb(0,0,0)"  stroke-width="2.0"/>
<line x1="194.9" y1="245.3" x2="222.5" y2="266.7" stroke="rgb(0,0,0)"  stroke-width="2.0"/>
<line x1="228.8" y1="287.1" x2="218.0" y2="320.7" stroke="rgb(0,0,0)"  stroke-width="2.0"/>
<line x1="218.0" y1="320.7" x2="167.3" y2="320.3" stroke="rgb(0,0,0)"  stroke-width="2.0"/>
<line x1="167.3" y1="320.3" x2="157.7" y2="286.4" stroke="rgb(0,0,0)"  stroke-width="2.0"/>
<line x1="154.4" y1="124.5" x2="153.6" y2="172.7" stroke="rgb(0,0,0)"  stroke-width="2.0"/>
<line x1="153.6" y1="172.7" x2="194.8" y2="195.5" stroke="rgb(0,0,0)"  stroke-width="2.0"/>
<line x1="194.8" y1="195.5" x2="237.5" y2="172.9" stroke="rgb(0,0,0)"  stroke-width="2.0"/>
<line x1="196.7" y1="186.4" x2="228.8" y2="169.3" stroke="rgb(0,0,0)"  stroke-width="2.0"/>
<line x1="237.5" y1="172.9" x2="237.6" y2="123.2" stroke="rgb(0,0,0)"  stroke-width="2.0"/>
<line x1="237.6" y1="123.2" x2="195.0" y2="98.8" stroke="rgb(0,0,0)"  stroke-width="2.0"/>
<line x1="228.8" y1="126.5" x2="196.7" y2="108.1" stroke="rgb(0,0,0)"  stroke-width="2.0"/>
<line x1="195.0" y1="98.8" x2="154.4" y2="124.5" stroke="rgb(0,0,0)"  stroke-width="2.0"/>
<text x="148.124026" y="281.925336" fill="rgb(12,12,255)"  stroke="rgb(12,12,255)" stroke-width="1" font-size="16" >N</text>
<text x="226.755652" y="282.728784" fill="rgb(255,12,12)"  stroke="rgb(255,12,12)" stroke-width="1" font-size="16" >O</text>
<text x="203.449403" y="79.081251" fill="rgb(255,12,12)"  stroke="rgb(255,12,12)" stroke-width="1" font-size="16" >O</text>
<text x="104.794099" y="58.863744" fill="rgb(255,12,12)"  stroke="rgb(255,12,12)" stroke-width="1" font-size="16" >O</text>
<text x="92.132756" y="316.379819" fill="rgb(191,191,191)"  stroke="rgb(191,191,191)" stroke-width="1" font-size="16" >H</text>
<text x="106.760515" y="372.442992" fill="rgb(191,191,191)"  stroke="rgb(191,191,191)" stroke-width="1" font-size="16" >H</text>
<text x="83.263564" y="348.633416" fill="rgb(191,191,191)"  stroke="rgb(191,191,191)" stroke-width="1" font-size="16" >H</text>
<text x="231.638866" y="355.761283" fill="rgb(191,191,191)"  stroke="rgb(191,191,191)" stroke-width="1" font-size="16" >H</text>
<text x="196.696687" y="358.390465" fill="rgb(191,191,191)"  stroke="rgb(191,191,191)" stroke-width="1" font-size="16" >H</text>
<text x="118.168228" y="384.948022" fill="rgb(191,191,191)"  stroke="rgb(191,191,191)" stroke-width="1" font-size="16" >H</text>
<text x="174.556532" y="398.265879" fill="rgb(191,191,191)"  stroke="rgb(191,191,191)" stroke-width="1" font-size="16" >H</text>
<text x="142.518647" y="407.885373" fill="rgb(191,191,191)"  stroke="rgb(191,191,191)" stroke-width="1" font-size="16" >H</text>
<text x="146.292039" y="214.163707" fill="rgb(191,191,191)"  stroke="rgb(191,191,191)" stroke-width="1" font-size="16" >H</text>
<text x="101.927321" y="232.064657" fill="rgb(191,191,191)"  stroke="rgb(191,191,191)" stroke-width="1" font-size="16" >H</text>
<text x="147.592562" y="99.039278" fill="rgb(191,191,191)"  stroke="rgb(191,191,191)" stroke-width="1" font-size="16" >H</text>
<text x="252.681705" y="105.882656" fill="rgb(191,191,191)"  stroke="rgb(191,191,191)" stroke-width="1" font-size="16" >H</text>
<text x="250.096290" y="48.000000" fill="rgb(191,191,191)"  stroke="rgb(191,191,191)" stroke-width="1" font-size="16" >H</text>
<text x="268.097280" y="76.195715" fill="rgb(191,191,191)"  stroke="rgb(191,191,191)" stroke-width="1" font-size="16" >H</text>
<text x="259.565724" y="115.086357" fill="rgb(191,191,191)"  stroke="rgb(191,191,191)" stroke-width="1" font-size="16" >H</text>
<text x="259.115542" y="197.578911" fill="rgb(191,191,191)"  stroke="rgb(191,191,191)" stroke-width="1" font-size="16" >H</text>
<text x="71.233726" y="140.577860" fill="rgb(191,191,191)"  stroke="rgb(191,191,191)" stroke-width="1" font-size="16" >H</text>
<text x="38.292351" y="185.717891" fill="rgb(191,191,191)"  stroke="rgb(191,191,191)" stroke-width="1" font-size="16" >H</text>
<text x="34.000000" y="116.002351" fill="rgb(191,191,191)"  stroke="rgb(191,191,191)" stroke-width="1" font-size="16" >H</text>
<text x="63.683814" y="165.759864" fill="rgb(191,191,191)"  stroke="rgb(191,191,191)" stroke-width="1" font-size="16" >H</text>
<text x="34.478317" y="149.450179" fill="rgb(191,191,191)"  stroke="rgb(191,191,191)" stroke-width="1" font-size="16" >H</text>
</svg>
</g>
<text font-size="18.000000" fill ="black" font-family="sans-serif"
x="10.000000" y="20.000000" ></text>
</svg>
