<?xml version="1.0"?>
<svg version="1.1" id="topsvg"
xmlns="http://www.w3.org/2000/svg" xmlns:xlink="http://www.w3.org/1999/xlink"
xmlns:cml="http://www.xml-cml.org/schema" x="0" y="0" width="200px" height="200px" viewBox="0 0 100 100">
<title> - Open Babel Depiction</title>
<rect x="0" y="0" width="100" height="100" fill="white"/>
<g transform="translate(0,0)">
<svg width="100" height="100" x="0" y="0" viewBox="0 0 474.515 414.168"
font-family="sans-serif" stroke="rgb(0,0,0)" stroke-width="2"  stroke-linecap="round">
<line x1="190.5" y1="157.0" x2="231.1" y2="179.3" stroke="rgb(0,0,0)"  stroke-width="2.0"/>
<line x1="182.8" y1="161.8" x2="182.1" y2="160.4" stroke="rgb(0,0,0)"  stroke-width="1.0"/>
<line x1="176.6" y1="165.6" x2="175.3" y2="163.1" stroke="rgb(0,0,0)"  stroke-width="1.0"/>
<line x1="170.4" y1="169.5" x2="168.5" y2="165.7" stroke="rgb(0,0,0)"  stroke-width="1.0"/>
<line x1="164.1" y1="173.3" x2="161.7" y2="168.4" stroke="rgb(0,0,0)"  stroke-width="1.0"/>
<line x1="157.9" y1="177.1" x2="154.9" y2="171.1" stroke="rgb(0,0,0)"  stroke-width="1.0"/>
<line x1="151.7" y1="180.9" x2="148.1" y2="173.8" stroke="rgb(0,0,0)"  stroke-width="1.0"/>
<line x1="190.5" y1="157.0" x2="208.1" y2="146.5" stroke="rgb(0,0,0)"  stroke-width="2.0"/>
<line x1="231.1" y1="179.3" x2="232.0" y2="224.4" stroke="rgb(0,0,0)"  stroke-width="2.0"/>
<line x1="231.1" y1="179.3" x2="248.7" y2="168.7" stroke="rgb(0,0,0)"  stroke-width="2.0"/>
<line x1="231.1" y1="179.3" x2="249.1" y2="189.3" stroke="rgb(0,0,0)"  stroke-width="2.0"/>
<line x1="111.0" y1="156.9" x2="93.5" y2="167.5" stroke="rgb(0,0,0)"  stroke-width="2.0"/>
<line x1="111.0" y1="156.9" x2="111.7" y2="177.4" stroke="rgb(0,0,0)"  stroke-width="2.0"/>
<line x1="111.0" y1="109.0" x2="93.0" y2="99.1" stroke="rgb(0,0,0)"  stroke-width="2.0"/>
<line x1="111.0" y1="109.0" x2="110.4" y2="88.5" stroke="rgb(0,0,0)"  stroke-width="2.0"/>
<line x1="142.6" y1="86.9" x2="145.5" y2="52.7" stroke="rgb(0,0,0)"  stroke-width="2.0"/>
<line x1="148.6" y1="87.4" x2="151.5" y2="53.2" stroke="rgb(0,0,0)"  stroke-width="2.0"/>
<line x1="232.0" y1="224.4" x2="232.1" y2="289.1" stroke="rgb(0,0,0)"  stroke-width="2.0"/>
<line x1="236.2" y1="224.4" x2="236.3" y2="289.1" stroke="rgb(0,0,0)"  stroke-width="2.0"/>
<line x1="227.8" y1="224.4" x2="227.9" y2="289.1" stroke="rgb(0,0,0)"  stroke-width="2.0"/>
<line x1="232.1" y1="289.1" x2="232.2" y2="317.8" stroke="rgb(0,0,0)"  stroke-width="2.0"/>
<line x1="233.8" y1="315.3" x2="271.3" y2="339.3" stroke="rgb(0,0,0)"  stroke-width="2.0"/>
<line x1="230.6" y1="320.4" x2="268.0" y2="344.4" stroke="rgb(0,0,0)"  stroke-width="2.0"/>
<line x1="232.2" y1="317.8" x2="215.2" y2="327.1" stroke="rgb(0,0,0)"  stroke-width="2.0"/>
<line x1="269.7" y1="341.9" x2="308.8" y2="319.3" stroke="rgb(0,0,0)"  stroke-width="2.0"/>
<line x1="269.7" y1="341.9" x2="269.2" y2="361.2" stroke="rgb(0,0,0)"  stroke-width="2.0"/>
<line x1="352.8" y1="290.5" x2="375.3" y2="277.1" stroke="rgb(0,0,0)"  stroke-width="2.0"/>
<line x1="355.9" y1="295.7" x2="378.4" y2="282.2" stroke="rgb(0,0,0)"  stroke-width="2.0"/>
<line x1="399.3" y1="279.3" x2="423.1" y2="292.5" stroke="rgb(0,0,0)"  stroke-width="2.0"/>
<line x1="190.0" y1="109.7" x2="207.4" y2="98.9" stroke="rgb(0,0,0)"  stroke-width="2.0"/>
<line x1="190.0" y1="109.7" x2="189.1" y2="89.2" stroke="rgb(0,0,0)"  stroke-width="2.0"/>
<line x1="149.9" y1="177.3" x2="150.0" y2="222.9" stroke="rgb(0,0,0)"  stroke-width="2.0"/>
<polygon points="149.937150 177.340792 171.147916 185.717998 166.949673 192.527900 " stroke-width="2.000000" fill="rgb(0,0,0)"  stroke="rgb(0,0,0)" />
<line x1="69.3" y1="318.3" x2="109.4" y2="294.3" stroke="rgb(0,0,0)"  stroke-width="2.0"/>
<line x1="69.3" y1="318.3" x2="51.4" y2="308.3" stroke="rgb(0,0,0)"  stroke-width="2.0"/>
<line x1="69.3" y1="318.3" x2="69.6" y2="338.8" stroke="rgb(0,0,0)"  stroke-width="2.0"/>
<line x1="69.3" y1="318.3" x2="51.7" y2="328.8" stroke="rgb(0,0,0)"  stroke-width="2.0"/>
<line x1="106.4" y1="294.3" x2="106.7" y2="248.3" stroke="rgb(0,0,0)"  stroke-width="2.0"/>
<line x1="112.4" y1="294.4" x2="112.7" y2="248.3" stroke="rgb(0,0,0)"  stroke-width="2.0"/>
<line x1="109.4" y1="294.3" x2="126.1" y2="303.9" stroke="rgb(0,0,0)"  stroke-width="2.0"/>
<line x1="109.7" y1="248.3" x2="150.0" y2="222.9" stroke="rgb(0,0,0)"  stroke-width="2.0"/>
<line x1="109.7" y1="248.3" x2="92.9" y2="238.9" stroke="rgb(0,0,0)"  stroke-width="2.0"/>
<line x1="150.0" y1="222.9" x2="168.0" y2="232.8" stroke="rgb(0,0,0)"  stroke-width="2.0"/>
<line x1="150.0" y1="222.9" x2="150.6" y2="243.4" stroke="rgb(0,0,0)"  stroke-width="2.0"/>
<line x1="308.8" y1="319.3" x2="354.3" y2="293.1" stroke="rgb(0,0,0)"  stroke-width="2.0"/>
<line x1="306.7" y1="315.7" x2="352.2" y2="289.5" stroke="rgb(0,0,0)"  stroke-width="2.0"/>
<line x1="310.9" y1="323.0" x2="356.4" y2="296.8" stroke="rgb(0,0,0)"  stroke-width="2.0"/>
<line x1="111.0" y1="156.9" x2="111.0" y2="109.0" stroke="rgb(0,0,0)"  stroke-width="2.0"/>
<line x1="111.0" y1="109.0" x2="145.6" y2="87.1" stroke="rgb(0,0,0)"  stroke-width="2.0"/>
<line x1="145.6" y1="87.1" x2="190.0" y2="109.7" stroke="rgb(0,0,0)"  stroke-width="2.0"/>
<line x1="190.0" y1="109.7" x2="190.5" y2="157.0" stroke="rgb(0,0,0)"  stroke-width="2.0"/>
<line x1="190.5" y1="157.0" x2="149.9" y2="177.3" stroke="rgb(0,0,0)"  stroke-width="2.0"/>
<line x1="149.9" y1="177.3" x2="111.0" y2="156.9" stroke="rgb(0,0,0)"  stroke-width="2.0"/>
<text x="143.645888" y="48.000000" fill="rgb(255,12,12)"  stroke="rgb(255,12,12)" stroke-width="1" font-size="16" >O</text>
<text x="381.966753" y="280.943488" fill="rgb(147,0,147)"  stroke="rgb(147,0,147)" stroke-width="1" font-size="16" >I</text>
<text x="213.279326" y="147.799368" fill="rgb(191,191,191)"  stroke="rgb(191,191,191)" stroke-width="1" font-size="16" >H</text>
<text x="253.827321" y="170.016675" fill="rgb(191,191,191)"  stroke="rgb(191,191,191)" stroke-width="1" font-size="16" >H</text>
<text x="254.488141" y="203.536810" fill="rgb(191,191,191)"  stroke="rgb(191,191,191)" stroke-width="1" font-size="16" >H</text>
<text x="76.370729" y="182.259057" fill="rgb(191,191,191)"  stroke="rgb(191,191,191)" stroke-width="1" font-size="16" >H</text>
<text x="106.057486" y="198.406849" fill="rgb(191,191,191)"  stroke="rgb(191,191,191)" stroke-width="1" font-size="16" >H</text>
<text x="75.625350" y="100.884332" fill="rgb(191,191,191)"  stroke="rgb(191,191,191)" stroke-width="1" font-size="16" >H</text>
<text x="103.959150" y="83.537043" fill="rgb(191,191,191)"  stroke="rgb(191,191,191)" stroke-width="1" font-size="16" >H</text>
<text x="197.839331" y="341.381829" fill="rgb(191,191,191)"  stroke="rgb(191,191,191)" stroke-width="1" font-size="16" >H</text>
<text x="262.881485" y="382.167845" fill="rgb(191,191,191)"  stroke="rgb(191,191,191)" stroke-width="1" font-size="16" >H</text>
<text x="428.515363" y="306.787471" fill="rgb(191,191,191)"  stroke="rgb(191,191,191)" stroke-width="1" font-size="16" >H</text>
<text x="212.418069" y="99.994888" fill="rgb(191,191,191)"  stroke="rgb(191,191,191)" stroke-width="1" font-size="16" >H</text>
<text x="182.530874" y="84.207258" fill="rgb(191,191,191)"  stroke="rgb(191,191,191)" stroke-width="1" font-size="16" >H</text>
<text x="172.461992" y="202.926101" fill="rgb(191,191,191)"  stroke="rgb(191,191,191)" stroke-width="1" font-size="16" >H</text>
<text x="34.000000" y="309.953766" fill="rgb(191,191,191)"  stroke="rgb(191,191,191)" stroke-width="1" font-size="16" >H</text>
<text x="63.749394" y="359.790813" fill="rgb(191,191,191)"  stroke="rgb(191,191,191)" stroke-width="1" font-size="16" >H</text>
<text x="34.488568" y="343.461374" fill="rgb(191,191,191)"  stroke="rgb(191,191,191)" stroke-width="1" font-size="16" >H</text>
<text x="131.425429" y="318.400352" fill="rgb(191,191,191)"  stroke="rgb(191,191,191)" stroke-width="1" font-size="16" >H</text>
<text x="75.503208" y="240.592799" fill="rgb(191,191,191)"  stroke="rgb(191,191,191)" stroke-width="1" font-size="16" >H</text>
<text x="173.398414" y="247.091377" fill="rgb(191,191,191)"  stroke="rgb(191,191,191)" stroke-width="1" font-size="16" >H</text>
<text x="145.030163" y="264.426138" fill="rgb(191,191,191)"  stroke="rgb(191,191,191)" stroke-width="1" font-size="16" >H</text>
</svg>
</g>
<text font-size="18.000000" fill ="black" font-family="sans-serif"
x="10.000000" y="20.000000" ></text>
</svg>
