<?xml version="1.0"?>
<svg version="1.1" id="topsvg"
xmlns="http://www.w3.org/2000/svg" xmlns:xlink="http://www.w3.org/1999/xlink"
xmlns:cml="http://www.xml-cml.org/schema" x="0" y="0" width="200px" height="200px" viewBox="0 0 100 100">
<title> - Open Babel Depiction</title>
<rect x="0" y="0" width="100" height="100" fill="white"/>
<g transform="translate(0,0)">
<svg width="100" height="100" x="0" y="0" viewBox="0 0 414.212 385.619"
font-family="sans-serif" stroke="rgb(0,0,0)" stroke-width="2"  stroke-linecap="round">
<line x1="175.5" y1="237.9" x2="175.6" y2="189.4" stroke="rgb(0,0,0)"  stroke-width="2.0"/>
<line x1="175.5" y1="237.9" x2="204.4" y2="254.8" stroke="rgb(0,0,0)"  stroke-width="2.0"/>
<line x1="175.5" y1="237.9" x2="156.3" y2="248.9" stroke="rgb(0,0,0)"  stroke-width="2.0"/>
<line x1="175.5" y1="237.9" x2="175.4" y2="260.0" stroke="rgb(0,0,0)"  stroke-width="2.0"/>
<line x1="175.6" y1="189.4" x2="156.3" y2="200.3" stroke="rgb(0,0,0)"  stroke-width="2.0"/>
<line x1="133.9" y1="164.8" x2="115.7" y2="175.0" stroke="rgb(0,0,0)"  stroke-width="2.0"/>
<line x1="134.4" y1="115.1" x2="115.8" y2="108.2" stroke="rgb(0,0,0)"  stroke-width="2.0"/>
<line x1="108.2" y1="91.5" x2="115.1" y2="72.9" stroke="rgb(0,0,0)"  stroke-width="2.0"/>
<line x1="91.5" y1="99.1" x2="72.9" y2="92.2" stroke="rgb(0,0,0)"  stroke-width="2.0"/>
<line x1="99.1" y1="115.8" x2="92.2" y2="134.4" stroke="rgb(0,0,0)"  stroke-width="2.0"/>
<line x1="115.1" y1="72.9" x2="137.0" y2="69.2" stroke="rgb(0,0,0)"  stroke-width="2.0"/>
<line x1="115.1" y1="72.9" x2="101.1" y2="55.8" stroke="rgb(0,0,0)"  stroke-width="2.0"/>
<line x1="115.1" y1="72.9" x2="122.9" y2="52.2" stroke="rgb(0,0,0)"  stroke-width="2.0"/>
<line x1="72.9" y1="92.2" x2="69.2" y2="70.4" stroke="rgb(0,0,0)"  stroke-width="2.0"/>
<line x1="72.9" y1="92.2" x2="55.8" y2="106.3" stroke="rgb(0,0,0)"  stroke-width="2.0"/>
<line x1="72.9" y1="92.2" x2="52.2" y2="84.5" stroke="rgb(0,0,0)"  stroke-width="2.0"/>
<line x1="92.2" y1="134.4" x2="70.4" y2="138.1" stroke="rgb(0,0,0)"  stroke-width="2.0"/>
<line x1="92.2" y1="134.4" x2="106.3" y2="151.5" stroke="rgb(0,0,0)"  stroke-width="2.0"/>
<line x1="92.2" y1="134.4" x2="84.5" y2="155.2" stroke="rgb(0,0,0)"  stroke-width="2.0"/>
<line x1="177.7" y1="54.1" x2="177.9" y2="92.2" stroke="rgb(0,0,0)"  stroke-width="2.0"/>
<line x1="171.7" y1="54.2" x2="171.9" y2="92.2" stroke="rgb(0,0,0)"  stroke-width="2.0"/>
<line x1="217.7" y1="163.7" x2="261.8" y2="187.9" stroke="rgb(0,0,0)"  stroke-width="2.0"/>
<line x1="217.7" y1="163.7" x2="218.2" y2="185.8" stroke="rgb(0,0,0)"  stroke-width="2.0"/>
<line x1="264.8" y1="187.9" x2="265.1" y2="239.9" stroke="rgb(0,0,0)"  stroke-width="2.0"/>
<line x1="258.8" y1="187.9" x2="259.1" y2="240.0" stroke="rgb(0,0,0)"  stroke-width="2.0"/>
<line x1="261.8" y1="187.9" x2="279.7" y2="177.3" stroke="rgb(0,0,0)"  stroke-width="2.0"/>
<line x1="262.1" y1="239.9" x2="244.1" y2="250.5" stroke="rgb(0,0,0)"  stroke-width="2.0"/>
<line x1="262.1" y1="239.9" x2="280.2" y2="250.3" stroke="rgb(0,0,0)"  stroke-width="2.0"/>
<line x1="346.1" y1="287.2" x2="350.2" y2="251.5" stroke="rgb(0,0,0)"  stroke-width="2.0"/>
<line x1="346.1" y1="287.2" x2="363.4" y2="298.8" stroke="rgb(0,0,0)"  stroke-width="2.0"/>
<line x1="300.5" y1="309.1" x2="344.6" y2="284.6" stroke="rgb(0,0,0)"  stroke-width="2.0"/>
<line x1="303.4" y1="314.4" x2="347.5" y2="289.9" stroke="rgb(0,0,0)"  stroke-width="2.0"/>
<line x1="301.9" y1="311.7" x2="301.7" y2="332.6" stroke="rgb(0,0,0)"  stroke-width="2.0"/>
<line x1="262.2" y1="288.5" x2="204.4" y2="254.8" stroke="rgb(0,0,0)"  stroke-width="2.0"/>
<line x1="260.1" y1="292.2" x2="202.3" y2="258.4" stroke="rgb(0,0,0)"  stroke-width="2.0"/>
<line x1="264.3" y1="284.9" x2="206.5" y2="251.1" stroke="rgb(0,0,0)"  stroke-width="2.0"/>
<line x1="262.2" y1="288.5" x2="301.9" y2="311.7" stroke="rgb(0,0,0)"  stroke-width="2.0"/>
<line x1="217.4" y1="115.1" x2="236.3" y2="103.6" stroke="rgb(0,0,0)"  stroke-width="2.0"/>
<line x1="217.4" y1="115.1" x2="236.7" y2="125.9" stroke="rgb(0,0,0)"  stroke-width="2.0"/>
<line x1="133.9" y1="164.8" x2="134.4" y2="115.1" stroke="rgb(0,0,0)"  stroke-width="2.0"/>
<line x1="141.2" y1="158.9" x2="141.6" y2="121.2" stroke="rgb(0,0,0)"  stroke-width="2.0"/>
<line x1="134.4" y1="115.1" x2="174.9" y2="92.2" stroke="rgb(0,0,0)"  stroke-width="2.0"/>
<line x1="174.9" y1="92.2" x2="217.4" y2="115.1" stroke="rgb(0,0,0)"  stroke-width="2.0"/>
<line x1="217.4" y1="115.1" x2="217.7" y2="163.7" stroke="rgb(0,0,0)"  stroke-width="2.0"/>
<line x1="217.7" y1="163.7" x2="175.6" y2="189.4" stroke="rgb(0,0,0)"  stroke-width="2.0"/>
<line x1="175.6" y1="189.4" x2="133.9" y2="164.8" stroke="rgb(0,0,0)"  stroke-width="2.0"/>
<text x="97.667932" y="111.667932" fill="rgb(127,153,153)"  stroke="rgb(127,153,153)" stroke-width="1" font-size="16" >Si</text>
<text x="168.623830" y="49.135872" fill="rgb(255,12,12)"  stroke="rgb(255,12,12)" stroke-width="1" font-size="16" >O</text>
<text x="345.695136" y="246.574088" fill="rgb(30,239,30)"  stroke="rgb(30,239,30)" stroke-width="1" font-size="16" >Cl</text>
<text x="138.986102" y="263.323278" fill="rgb(191,191,191)"  stroke="rgb(191,191,191)" stroke-width="1" font-size="16" >H</text>
<text x="169.316515" y="280.998236" fill="rgb(191,191,191)"  stroke="rgb(191,191,191)" stroke-width="1" font-size="16" >H</text>
<text x="139.051759" y="214.779517" fill="rgb(191,191,191)"  stroke="rgb(191,191,191)" stroke-width="1" font-size="16" >H</text>
<text x="98.393446" y="189.416082" fill="rgb(191,191,191)"  stroke="rgb(191,191,191)" stroke-width="1" font-size="16" >H</text>
<text x="143.782371" y="75.086940" fill="rgb(191,191,191)"  stroke="rgb(191,191,191)" stroke-width="1" font-size="16" >H</text>
<text x="86.778660" y="53.823807" fill="rgb(191,191,191)"  stroke="rgb(191,191,191)" stroke-width="1" font-size="16" >H</text>
<text x="121.419478" y="48.000000" fill="rgb(191,191,191)"  stroke="rgb(191,191,191)" stroke-width="1" font-size="16" >H</text>
<text x="61.086940" y="65.553492" fill="rgb(191,191,191)"  stroke="rgb(191,191,191)" stroke-width="1" font-size="16" >H</text>
<text x="39.823807" y="122.557203" fill="rgb(191,191,191)"  stroke="rgb(191,191,191)" stroke-width="1" font-size="16" >H</text>
<text x="34.000000" y="87.916386" fill="rgb(191,191,191)"  stroke="rgb(191,191,191)" stroke-width="1" font-size="16" >H</text>
<text x="51.553492" y="148.252207" fill="rgb(191,191,191)"  stroke="rgb(191,191,191)" stroke-width="1" font-size="16" >H</text>
<text x="108.557203" y="169.515340" fill="rgb(191,191,191)"  stroke="rgb(191,191,191)" stroke-width="1" font-size="16" >H</text>
<text x="73.919669" y="175.339147" fill="rgb(191,191,191)"  stroke="rgb(191,191,191)" stroke-width="1" font-size="16" >H</text>
<text x="212.519051" y="206.782451" fill="rgb(191,191,191)"  stroke="rgb(191,191,191)" stroke-width="1" font-size="16" >H</text>
<text x="284.886581" y="178.608883" fill="rgb(191,191,191)"  stroke="rgb(191,191,191)" stroke-width="1" font-size="16" >H</text>
<text x="226.845484" y="265.050066" fill="rgb(191,191,191)"  stroke="rgb(191,191,191)" stroke-width="1" font-size="16" >H</text>
<text x="285.523458" y="264.695517" fill="rgb(191,191,191)"  stroke="rgb(191,191,191)" stroke-width="1" font-size="16" >H</text>
<text x="368.212324" y="314.073126" fill="rgb(191,191,191)"  stroke="rgb(191,191,191)" stroke-width="1" font-size="16" >H</text>
<text x="295.542769" y="353.618548" fill="rgb(191,191,191)"  stroke="rgb(191,191,191)" stroke-width="1" font-size="16" >H</text>
<text x="241.450962" y="104.934771" fill="rgb(191,191,191)"  stroke="rgb(191,191,191)" stroke-width="1" font-size="16" >H</text>
<text x="242.015615" y="140.225596" fill="rgb(191,191,191)"  stroke="rgb(191,191,191)" stroke-width="1" font-size="16" >H</text>
</svg>
</g>
<text font-size="18.000000" fill ="black" font-family="sans-serif"
x="10.000000" y="20.000000" ></text>
</svg>
