<?xml version="1.0"?>
<svg version="1.1" id="topsvg"
xmlns="http://www.w3.org/2000/svg" xmlns:xlink="http://www.w3.org/1999/xlink"
xmlns:cml="http://www.xml-cml.org/schema" x="0" y="0" width="200px" height="200px" viewBox="0 0 100 100">
<title> - Open Babel Depiction</title>
<rect x="0" y="0" width="100" height="100" fill="white"/>
<g transform="translate(0,0)">
<svg width="100" height="100" x="0" y="0" viewBox="0 0 388.779 464.696"
font-family="sans-serif" stroke="rgb(0,0,0)" stroke-width="2"  stroke-linecap="round">
<line x1="204.2" y1="357.0" x2="251.6" y2="345.2" stroke="rgb(0,0,0)"  stroke-width="2.0"/>
<line x1="204.2" y1="357.0" x2="189.2" y2="341.4" stroke="rgb(0,0,0)"  stroke-width="2.0"/>
<line x1="204.2" y1="357.0" x2="198.2" y2="377.7" stroke="rgb(0,0,0)"  stroke-width="2.0"/>
<line x1="204.2" y1="357.0" x2="183.2" y2="362.2" stroke="rgb(0,0,0)"  stroke-width="2.0"/>
<line x1="251.6" y1="345.2" x2="239.0" y2="391.4" stroke="rgb(0,0,0)"  stroke-width="2.0"/>
<line x1="301.2" y1="345.3" x2="313.9" y2="362.7" stroke="rgb(0,0,0)"  stroke-width="2.0"/>
<line x1="301.2" y1="345.3" x2="291.4" y2="364.6" stroke="rgb(0,0,0)"  stroke-width="2.0"/>
<line x1="239.0" y1="391.4" x2="218.1" y2="396.8" stroke="rgb(0,0,0)"  stroke-width="2.0"/>
<line x1="239.0" y1="391.4" x2="254.1" y2="406.7" stroke="rgb(0,0,0)"  stroke-width="2.0"/>
<line x1="239.0" y1="391.4" x2="233.3" y2="412.2" stroke="rgb(0,0,0)"  stroke-width="2.0"/>
<line x1="277.5" y1="270.2" x2="277.4" y2="222.1" stroke="rgb(0,0,0)"  stroke-width="2.0"/>
<line x1="236.1" y1="198.2" x2="194.5" y2="217.9" stroke="rgb(0,0,0)"  stroke-width="2.0"/>
<polygon points="236.082259 198.191608 229.985974 148.529401 237.978881 148.192585 " stroke-width="2.000000" fill="rgb(0,0,0)"  stroke="rgb(0,0,0)" />
<line x1="236.1" y1="198.2" x2="217.6" y2="187.1" stroke="rgb(0,0,0)"  stroke-width="2.0"/>
<line x1="194.5" y1="217.9" x2="194.7" y2="238.3" stroke="rgb(0,0,0)"  stroke-width="2.0"/>
<line x1="234.0" y1="148.4" x2="197.5" y2="125.9" stroke="rgb(0,0,0)"  stroke-width="2.0"/>
<polygon points="233.982427 148.360993 216.028152 163.527531 211.981110 156.626701 " stroke-width="2.000000" fill="rgb(0,0,0)"  stroke="rgb(0,0,0)" />
<line x1="285.3" y1="86.9" x2="275.1" y2="70.5" stroke="rgb(0,0,0)"  stroke-width="2.0"/>
<line x1="286.1" y1="109.4" x2="277.1" y2="126.5" stroke="rgb(0,0,0)"  stroke-width="2.0"/>
<line x1="275.1" y1="70.5" x2="285.2" y2="51.5" stroke="rgb(0,0,0)"  stroke-width="2.0"/>
<line x1="275.1" y1="70.5" x2="253.5" y2="71.3" stroke="rgb(0,0,0)"  stroke-width="2.0"/>
<line x1="275.1" y1="70.5" x2="263.6" y2="52.3" stroke="rgb(0,0,0)"  stroke-width="2.0"/>
<line x1="320.0" y1="150.5" x2="337.6" y2="140.2" stroke="rgb(0,0,0)"  stroke-width="2.0"/>
<line x1="320.2" y1="199.9" x2="337.6" y2="210.4" stroke="rgb(0,0,0)"  stroke-width="2.0"/>
<line x1="152.7" y1="149.1" x2="197.5" y2="125.9" stroke="rgb(0,0,0)"  stroke-width="2.0"/>
<line x1="152.7" y1="149.1" x2="152.6" y2="170.7" stroke="rgb(0,0,0)"  stroke-width="2.0"/>
<line x1="152.7" y1="149.1" x2="134.2" y2="160.1" stroke="rgb(0,0,0)"  stroke-width="2.0"/>
<line x1="197.5" y1="125.9" x2="198.3" y2="104.3" stroke="rgb(0,0,0)"  stroke-width="2.0"/>
<line x1="197.5" y1="125.9" x2="179.3" y2="114.3" stroke="rgb(0,0,0)"  stroke-width="2.0"/>
<line x1="110.8" y1="126.7" x2="152.7" y2="149.1" stroke="rgb(0,0,0)"  stroke-width="2.0"/>
<line x1="110.8" y1="126.7" x2="110.3" y2="106.4" stroke="rgb(0,0,0)"  stroke-width="2.0"/>
<line x1="67.6" y1="149.0" x2="109.2" y2="124.1" stroke="rgb(0,0,0)"  stroke-width="2.0"/>
<line x1="70.6" y1="154.1" x2="112.3" y2="129.3" stroke="rgb(0,0,0)"  stroke-width="2.0"/>
<line x1="69.1" y1="151.5" x2="51.4" y2="141.6" stroke="rgb(0,0,0)"  stroke-width="2.0"/>
<line x1="69.1" y1="151.5" x2="69.4" y2="171.9" stroke="rgb(0,0,0)"  stroke-width="2.0"/>
<line x1="153.8" y1="196.4" x2="195.7" y2="215.2" stroke="rgb(0,0,0)"  stroke-width="2.0"/>
<line x1="151.3" y1="201.9" x2="193.3" y2="220.7" stroke="rgb(0,0,0)"  stroke-width="2.0"/>
<line x1="152.6" y1="199.1" x2="150.5" y2="178.9" stroke="rgb(0,0,0)"  stroke-width="2.0"/>
<line x1="152.6" y1="199.1" x2="136.1" y2="211.0" stroke="rgb(0,0,0)"  stroke-width="2.0"/>
<line x1="251.1" y1="289.3" x2="277.5" y2="270.2" stroke="rgb(0,0,0)"  stroke-width="2.0"/>
<line x1="256.2" y1="294.5" x2="276.9" y2="279.6" stroke="rgb(0,0,0)"  stroke-width="2.0"/>
<line x1="277.5" y1="270.2" x2="305.0" y2="291.8" stroke="rgb(0,0,0)"  stroke-width="2.0"/>
<line x1="311.3" y1="312.3" x2="301.2" y2="345.3" stroke="rgb(0,0,0)"  stroke-width="2.0"/>
<line x1="301.2" y1="345.3" x2="251.6" y2="345.2" stroke="rgb(0,0,0)"  stroke-width="2.0"/>
<line x1="251.6" y1="345.2" x2="241.7" y2="311.3" stroke="rgb(0,0,0)"  stroke-width="2.0"/>
<line x1="234.0" y1="148.4" x2="236.1" y2="198.2" stroke="rgb(0,0,0)"  stroke-width="2.0"/>
<line x1="236.1" y1="198.2" x2="277.4" y2="222.1" stroke="rgb(0,0,0)"  stroke-width="2.0"/>
<line x1="277.4" y1="222.1" x2="320.2" y2="199.9" stroke="rgb(0,0,0)"  stroke-width="2.0"/>
<line x1="279.4" y1="213.0" x2="311.6" y2="196.2" stroke="rgb(0,0,0)"  stroke-width="2.0"/>
<line x1="320.2" y1="199.9" x2="320.0" y2="150.5" stroke="rgb(0,0,0)"  stroke-width="2.0"/>
<line x1="320.0" y1="150.5" x2="277.1" y2="126.5" stroke="rgb(0,0,0)"  stroke-width="2.0"/>
<line x1="311.3" y1="153.9" x2="278.8" y2="135.7" stroke="rgb(0,0,0)"  stroke-width="2.0"/>
<line x1="277.1" y1="126.5" x2="234.0" y2="148.4" stroke="rgb(0,0,0)"  stroke-width="2.0"/>
<text x="232.094866" y="306.770303" fill="rgb(12,12,255)"  stroke="rgb(12,12,255)" stroke-width="1" font-size="16" >N</text>
<text x="309.168371" y="307.839602" fill="rgb(255,12,12)"  stroke="rgb(255,12,12)" stroke-width="1" font-size="16" >O</text>
<text x="286.215599" y="105.916581" fill="rgb(255,12,12)"  stroke="rgb(255,12,12)" stroke-width="1" font-size="16" >O</text>
<text x="174.181516" y="340.070399" fill="rgb(191,191,191)"  stroke="rgb(191,191,191)" stroke-width="1" font-size="16" >H</text>
<text x="188.621895" y="398.171119" fill="rgb(191,191,191)"  stroke="rgb(191,191,191)" stroke-width="1" font-size="16" >H</text>
<text x="164.628898" y="373.289732" fill="rgb(191,191,191)"  stroke="rgb(191,191,191)" stroke-width="1" font-size="16" >H</text>
<text x="315.645544" y="381.175407" fill="rgb(191,191,191)"  stroke="rgb(191,191,191)" stroke-width="1" font-size="16" >H</text>
<text x="279.505829" y="384.153937" fill="rgb(191,191,191)"  stroke="rgb(191,191,191)" stroke-width="1" font-size="16" >H</text>
<text x="199.518405" y="408.130781" fill="rgb(191,191,191)"  stroke="rgb(191,191,191)" stroke-width="1" font-size="16" >H</text>
<text x="257.270230" y="423.918283" fill="rgb(191,191,191)"  stroke="rgb(191,191,191)" stroke-width="1" font-size="16" >H</text>
<text x="223.837683" y="432.695579" fill="rgb(191,191,191)"  stroke="rgb(191,191,191)" stroke-width="1" font-size="16" >H</text>
<text x="200.484327" y="188.339811" fill="rgb(191,191,191)"  stroke="rgb(191,191,191)" stroke-width="1" font-size="16" >H</text>
<text x="188.838339" y="259.275347" fill="rgb(191,191,191)"  stroke="rgb(191,191,191)" stroke-width="1" font-size="16" >H</text>
<text x="198.164821" y="173.847743" fill="rgb(191,191,191)"  stroke="rgb(191,191,191)" stroke-width="1" font-size="16" >H</text>
<text x="285.249676" y="48.000000" fill="rgb(191,191,191)"  stroke="rgb(191,191,191)" stroke-width="1" font-size="16" >H</text>
<text x="234.517749" y="79.791448" fill="rgb(191,191,191)"  stroke="rgb(191,191,191)" stroke-width="1" font-size="16" >H</text>
<text x="250.705834" y="49.250207" fill="rgb(191,191,191)"  stroke="rgb(191,191,191)" stroke-width="1" font-size="16" >H</text>
<text x="342.778596" y="141.620177" fill="rgb(191,191,191)"  stroke="rgb(191,191,191)" stroke-width="1" font-size="16" >H</text>
<text x="342.746291" y="225.099783" fill="rgb(191,191,191)"  stroke="rgb(191,191,191)" stroke-width="1" font-size="16" >H</text>
<text x="146.479893" y="191.651083" fill="rgb(191,191,191)"  stroke="rgb(191,191,191)" stroke-width="1" font-size="16" >H</text>
<text x="116.995030" y="174.768439" fill="rgb(191,191,191)"  stroke="rgb(191,191,191)" stroke-width="1" font-size="16" >H</text>
<text x="192.773100" y="99.336033" fill="rgb(191,191,191)"  stroke="rgb(191,191,191)" stroke-width="1" font-size="16" >H</text>
<text x="162.296470" y="115.372284" fill="rgb(191,191,191)"  stroke="rgb(191,191,191)" stroke-width="1" font-size="16" >H</text>
<text x="103.959922" y="101.355101" fill="rgb(191,191,191)"  stroke="rgb(191,191,191)" stroke-width="1" font-size="16" >H</text>
<text x="34.000000" y="143.277428" fill="rgb(191,191,191)"  stroke="rgb(191,191,191)" stroke-width="1" font-size="16" >H</text>
<text x="63.588240" y="192.865755" fill="rgb(191,191,191)"  stroke="rgb(191,191,191)" stroke-width="1" font-size="16" >H</text>
<text x="143.165390" y="173.970503" fill="rgb(191,191,191)"  stroke="rgb(191,191,191)" stroke-width="1" font-size="16" >H</text>
<text x="119.530980" y="226.656888" fill="rgb(191,191,191)"  stroke="rgb(191,191,191)" stroke-width="1" font-size="16" >H</text>
</svg>
</g>
<text font-size="18.000000" fill ="black" font-family="sans-serif"
x="10.000000" y="20.000000" ></text>
</svg>
