<?xml version="1.0"?>
<svg version="1.1" id="topsvg"
xmlns="http://www.w3.org/2000/svg" xmlns:xlink="http://www.w3.org/1999/xlink"
xmlns:cml="http://www.xml-cml.org/schema" x="0" y="0" width="200px" height="200px" viewBox="0 0 100 100">
<title> - Open Babel Depiction</title>
<rect x="0" y="0" width="100" height="100" fill="white"/>
<g transform="translate(0,0)">
<svg width="100" height="100" x="0" y="0" viewBox="0 0 390.721 436.905"
font-family="sans-serif" stroke="rgb(0,0,0)" stroke-width="2"  stroke-linecap="round">
<line x1="140.1" y1="319.3" x2="94.7" y2="344.3" stroke="rgb(0,0,0)"  stroke-width="2.0"/>
<line x1="183.2" y1="247.4" x2="139.5" y2="268.7" stroke="rgb(0,0,0)"  stroke-width="2.0"/>
<line x1="142.5" y1="268.7" x2="143.1" y2="319.2" stroke="rgb(0,0,0)"  stroke-width="2.0"/>
<line x1="136.5" y1="268.7" x2="137.1" y2="319.3" stroke="rgb(0,0,0)"  stroke-width="2.0"/>
<line x1="225.9" y1="168.3" x2="270.4" y2="193.5" stroke="rgb(0,0,0)"  stroke-width="2.0"/>
<line x1="270.4" y1="193.5" x2="270.7" y2="242.9" stroke="rgb(0,0,0)"  stroke-width="2.0"/>
<line x1="140.6" y1="117.7" x2="120.2" y2="111.6" stroke="rgb(0,0,0)"  stroke-width="2.0"/>
<line x1="111.6" y1="95.4" x2="117.7" y2="75.0" stroke="rgb(0,0,0)"  stroke-width="2.0"/>
<line x1="95.4" y1="104.0" x2="75.0" y2="97.9" stroke="rgb(0,0,0)"  stroke-width="2.0"/>
<line x1="104.0" y1="120.2" x2="97.9" y2="140.6" stroke="rgb(0,0,0)"  stroke-width="2.0"/>
<line x1="174.7" y1="94.0" x2="177.3" y2="56.7" stroke="rgb(0,0,0)"  stroke-width="2.0"/>
<line x1="180.7" y1="94.4" x2="183.3" y2="57.2" stroke="rgb(0,0,0)"  stroke-width="2.0"/>
<line x1="270.7" y1="242.9" x2="270.2" y2="307.4" stroke="rgb(0,0,0)"  stroke-width="2.0"/>
<line x1="274.9" y1="242.9" x2="274.4" y2="307.4" stroke="rgb(0,0,0)"  stroke-width="2.0"/>
<line x1="266.5" y1="242.8" x2="266.0" y2="307.4" stroke="rgb(0,0,0)"  stroke-width="2.0"/>
<line x1="278.7" y1="343.0" x2="261.2" y2="355.0" stroke="rgb(0,0,0)"  stroke-width="2.0"/>
<line x1="296.8" y1="346.4" x2="308.8" y2="363.9" stroke="rgb(0,0,0)"  stroke-width="2.0"/>
<line x1="300.2" y1="328.3" x2="317.7" y2="316.4" stroke="rgb(0,0,0)"  stroke-width="2.0"/>
<line x1="282.1" y1="324.9" x2="270.2" y2="307.4" stroke="rgb(0,0,0)"  stroke-width="2.0"/>
<line x1="183.4" y1="191.0" x2="183.2" y2="247.4" stroke="rgb(0,0,0)"  stroke-width="2.0"/>
<line x1="217.8" y1="173.6" x2="217.0" y2="172.2" stroke="rgb(0,0,0)"  stroke-width="1.0"/>
<line x1="211.3" y1="177.8" x2="209.9" y2="175.2" stroke="rgb(0,0,0)"  stroke-width="1.0"/>
<line x1="204.8" y1="182.0" x2="202.8" y2="178.3" stroke="rgb(0,0,0)"  stroke-width="1.0"/>
<line x1="198.3" y1="186.2" x2="195.7" y2="181.4" stroke="rgb(0,0,0)"  stroke-width="1.0"/>
<line x1="191.8" y1="190.4" x2="188.6" y2="184.4" stroke="rgb(0,0,0)"  stroke-width="1.0"/>
<line x1="185.3" y1="194.6" x2="181.5" y2="187.5" stroke="rgb(0,0,0)"  stroke-width="1.0"/>
<line x1="140.1" y1="319.3" x2="159.3" y2="330.5" stroke="rgb(0,0,0)"  stroke-width="2.0"/>
<line x1="94.7" y1="344.3" x2="74.5" y2="332.1" stroke="rgb(0,0,0)"  stroke-width="2.0"/>
<line x1="94.7" y1="344.3" x2="94.2" y2="367.9" stroke="rgb(0,0,0)"  stroke-width="2.0"/>
<line x1="94.7" y1="344.3" x2="74.0" y2="355.7" stroke="rgb(0,0,0)"  stroke-width="2.0"/>
<line x1="183.2" y1="247.4" x2="203.2" y2="260.0" stroke="rgb(0,0,0)"  stroke-width="2.0"/>
<line x1="183.2" y1="247.4" x2="203.9" y2="236.0" stroke="rgb(0,0,0)"  stroke-width="2.0"/>
<line x1="139.5" y1="268.7" x2="120.6" y2="257.0" stroke="rgb(0,0,0)"  stroke-width="2.0"/>
<line x1="225.9" y1="168.3" x2="246.3" y2="156.5" stroke="rgb(0,0,0)"  stroke-width="2.0"/>
<line x1="270.4" y1="193.5" x2="290.7" y2="181.6" stroke="rgb(0,0,0)"  stroke-width="2.0"/>
<line x1="270.4" y1="193.5" x2="290.9" y2="205.2" stroke="rgb(0,0,0)"  stroke-width="2.0"/>
<line x1="140.5" y1="169.4" x2="121.5" y2="181.1" stroke="rgb(0,0,0)"  stroke-width="2.0"/>
<line x1="117.7" y1="75.0" x2="140.7" y2="69.7" stroke="rgb(0,0,0)"  stroke-width="2.0"/>
<line x1="117.7" y1="75.0" x2="101.5" y2="57.8" stroke="rgb(0,0,0)"  stroke-width="2.0"/>
<line x1="117.7" y1="75.0" x2="124.5" y2="52.4" stroke="rgb(0,0,0)"  stroke-width="2.0"/>
<line x1="75.0" y1="97.9" x2="69.7" y2="74.9" stroke="rgb(0,0,0)"  stroke-width="2.0"/>
<line x1="75.0" y1="97.9" x2="57.8" y2="114.1" stroke="rgb(0,0,0)"  stroke-width="2.0"/>
<line x1="75.0" y1="97.9" x2="52.4" y2="91.1" stroke="rgb(0,0,0)"  stroke-width="2.0"/>
<line x1="97.9" y1="140.6" x2="74.9" y2="145.9" stroke="rgb(0,0,0)"  stroke-width="2.0"/>
<line x1="97.9" y1="140.6" x2="114.1" y2="157.8" stroke="rgb(0,0,0)"  stroke-width="2.0"/>
<line x1="97.9" y1="140.6" x2="91.1" y2="163.2" stroke="rgb(0,0,0)"  stroke-width="2.0"/>
<line x1="226.1" y1="118.4" x2="246.2" y2="106.0" stroke="rgb(0,0,0)"  stroke-width="2.0"/>
<line x1="226.1" y1="118.4" x2="225.1" y2="94.8" stroke="rgb(0,0,0)"  stroke-width="2.0"/>
<line x1="261.2" y1="355.0" x2="239.9" y2="344.7" stroke="rgb(0,0,0)"  stroke-width="2.0"/>
<line x1="261.2" y1="355.0" x2="263.0" y2="378.5" stroke="rgb(0,0,0)"  stroke-width="2.0"/>
<line x1="261.2" y1="355.0" x2="241.7" y2="368.3" stroke="rgb(0,0,0)"  stroke-width="2.0"/>
<line x1="308.8" y1="363.9" x2="298.5" y2="385.2" stroke="rgb(0,0,0)"  stroke-width="2.0"/>
<line x1="308.8" y1="363.9" x2="332.3" y2="362.1" stroke="rgb(0,0,0)"  stroke-width="2.0"/>
<line x1="308.8" y1="363.9" x2="322.1" y2="383.4" stroke="rgb(0,0,0)"  stroke-width="2.0"/>
<line x1="317.7" y1="316.4" x2="339.0" y2="326.6" stroke="rgb(0,0,0)"  stroke-width="2.0"/>
<line x1="317.7" y1="316.4" x2="315.9" y2="292.8" stroke="rgb(0,0,0)"  stroke-width="2.0"/>
<line x1="317.7" y1="316.4" x2="337.2" y2="303.0" stroke="rgb(0,0,0)"  stroke-width="2.0"/>
<polygon points="183.437471 191.047842 164.620805 207.281585 160.438075 200.462145 " stroke-width="2.000000" fill="rgb(0,0,0)"  stroke="rgb(0,0,0)" />
<line x1="140.5" y1="169.4" x2="183.4" y2="191.0" stroke="rgb(0,0,0)"  stroke-width="2.0"/>
<line x1="183.4" y1="191.0" x2="225.9" y2="168.3" stroke="rgb(0,0,0)"  stroke-width="2.0"/>
<line x1="225.9" y1="168.3" x2="226.1" y2="118.4" stroke="rgb(0,0,0)"  stroke-width="2.0"/>
<line x1="226.1" y1="118.4" x2="177.7" y2="94.2" stroke="rgb(0,0,0)"  stroke-width="2.0"/>
<line x1="177.7" y1="94.2" x2="140.6" y2="117.7" stroke="rgb(0,0,0)"  stroke-width="2.0"/>
<line x1="140.6" y1="117.7" x2="140.5" y2="169.4" stroke="rgb(0,0,0)"  stroke-width="2.0"/>
<line x1="147.7" y1="123.7" x2="147.7" y2="163.4" stroke="rgb(0,0,0)"  stroke-width="2.0"/>
<text x="101.798560" y="115.803300" fill="rgb(127,153,153)"  stroke="rgb(127,153,153)" stroke-width="1" font-size="16" >Si</text>
<text x="175.251237" y="51.985107" fill="rgb(255,12,12)"  stroke="rgb(255,12,12)" stroke-width="1" font-size="16" >O</text>
<text x="283.471537" y="343.654058" fill="rgb(127,153,153)"  stroke="rgb(127,153,153)" stroke-width="1" font-size="16" >Si</text>
<text x="164.564253" y="345.061478" fill="rgb(191,191,191)"  stroke="rgb(191,191,191)" stroke-width="1" font-size="16" >H</text>
<text x="57.343033" y="333.357162" fill="rgb(191,191,191)"  stroke="rgb(191,191,191)" stroke-width="1" font-size="16" >H</text>
<text x="87.952152" y="388.887202" fill="rgb(191,191,191)"  stroke="rgb(191,191,191)" stroke-width="1" font-size="16" >H</text>
<text x="56.617451" y="369.958273" fill="rgb(191,191,191)"  stroke="rgb(191,191,191)" stroke-width="1" font-size="16" >H</text>
<text x="208.229249" y="274.873541" fill="rgb(191,191,191)"  stroke="rgb(191,191,191)" stroke-width="1" font-size="16" >H</text>
<text x="209.295993" y="237.754149" fill="rgb(191,191,191)"  stroke="rgb(191,191,191)" stroke-width="1" font-size="16" >H</text>
<text x="103.498429" y="258.128055" fill="rgb(191,191,191)"  stroke="rgb(191,191,191)" stroke-width="1" font-size="16" >H</text>
<text x="251.557585" y="157.960212" fill="rgb(191,191,191)"  stroke="rgb(191,191,191)" stroke-width="1" font-size="16" >H</text>
<text x="295.960390" y="182.986023" fill="rgb(191,191,191)"  stroke="rgb(191,191,191)" stroke-width="1" font-size="16" >H</text>
<text x="296.207962" y="219.614754" fill="rgb(191,191,191)"  stroke="rgb(191,191,191)" stroke-width="1" font-size="16" >H</text>
<text x="104.431575" y="195.921421" fill="rgb(191,191,191)"  stroke="rgb(191,191,191)" stroke-width="1" font-size="16" >H</text>
<text x="147.322623" y="74.682559" fill="rgb(191,191,191)"  stroke="rgb(191,191,191)" stroke-width="1" font-size="16" >H</text>
<text x="86.618707" y="56.364864" fill="rgb(191,191,191)"  stroke="rgb(191,191,191)" stroke-width="1" font-size="16" >H</text>
<text x="122.258528" y="48.000000" fill="rgb(191,191,191)"  stroke="rgb(191,191,191)" stroke-width="1" font-size="16" >H</text>
<text x="60.685682" y="70.274773" fill="rgb(191,191,191)"  stroke="rgb(191,191,191)" stroke-width="1" font-size="16" >H</text>
<text x="42.360422" y="130.976406" fill="rgb(191,191,191)"  stroke="rgb(191,191,191)" stroke-width="1" font-size="16" >H</text>
<text x="34.000000" y="95.335543" fill="rgb(191,191,191)"  stroke="rgb(191,191,191)" stroke-width="1" font-size="16" >H</text>
<text x="56.270034" y="156.916177" fill="rgb(191,191,191)"  stroke="rgb(191,191,191)" stroke-width="1" font-size="16" >H</text>
<text x="116.971666" y="175.241438" fill="rgb(191,191,191)"  stroke="rgb(191,191,191)" stroke-width="1" font-size="16" >H</text>
<text x="81.330803" y="183.601860" fill="rgb(191,191,191)"  stroke="rgb(191,191,191)" stroke-width="1" font-size="16" >H</text>
<text x="251.314872" y="107.179569" fill="rgb(191,191,191)"  stroke="rgb(191,191,191)" stroke-width="1" font-size="16" >H</text>
<text x="218.515646" y="89.785536" fill="rgb(191,191,191)"  stroke="rgb(191,191,191)" stroke-width="1" font-size="16" >H</text>
<text x="222.223578" y="347.101344" fill="rgb(191,191,191)"  stroke="rgb(191,191,191)" stroke-width="1" font-size="16" >H</text>
<text x="257.991906" y="399.457147" fill="rgb(191,191,191)"  stroke="rgb(191,191,191)" stroke-width="1" font-size="16" >H</text>
<text x="224.993923" y="383.604672" fill="rgb(191,191,191)"  stroke="rgb(191,191,191)" stroke-width="1" font-size="16" >H</text>
<text x="286.916962" y="404.904545" fill="rgb(191,191,191)"  stroke="rgb(191,191,191)" stroke-width="1" font-size="16" >H</text>
<text x="339.274782" y="369.139170" fill="rgb(191,191,191)"  stroke="rgb(191,191,191)" stroke-width="1" font-size="16" >H</text>
<text x="323.420446" y="402.136258" fill="rgb(191,191,191)"  stroke="rgb(191,191,191)" stroke-width="1" font-size="16" >H</text>
<text x="344.720715" y="340.214780" fill="rgb(191,191,191)"  stroke="rgb(191,191,191)" stroke-width="1" font-size="16" >H</text>
<text x="308.959663" y="287.854006" fill="rgb(191,191,191)"  stroke="rgb(191,191,191)" stroke-width="1" font-size="16" >H</text>
<text x="341.955442" y="303.711067" fill="rgb(191,191,191)"  stroke="rgb(191,191,191)" stroke-width="1" font-size="16" >H</text>
<text x="146.231454" y="218.188175" fill="rgb(191,191,191)"  stroke="rgb(191,191,191)" stroke-width="1" font-size="16" >H</text>
</svg>
</g>
<text font-size="18.000000" fill ="black" font-family="sans-serif"
x="10.000000" y="20.000000" ></text>
</svg>
