<?xml version="1.0"?>
<svg version="1.1" id="topsvg"
xmlns="http://www.w3.org/2000/svg" xmlns:xlink="http://www.w3.org/1999/xlink"
xmlns:cml="http://www.xml-cml.org/schema" x="0" y="0" width="200px" height="200px" viewBox="0 0 100 100">
<title> - Open Babel Depiction</title>
<rect x="0" y="0" width="100" height="100" fill="white"/>
<g transform="translate(0,0)">
<svg width="100" height="100" x="0" y="0" viewBox="0 0 226.327 234.437"
font-family="sans-serif" stroke="rgb(0,0,0)" stroke-width="2"  stroke-linecap="round">
<line x1="147.8" y1="93.7" x2="175.2" y2="77.2" stroke="rgb(0,0,0)"  stroke-width="2.0"/>
<line x1="67.3" y1="93.0" x2="51.3" y2="83.4" stroke="rgb(0,0,0)"  stroke-width="2.0"/>
<line x1="67.4" y1="139.5" x2="51.3" y2="148.9" stroke="rgb(0,0,0)"  stroke-width="2.0"/>
<line x1="107.2" y1="71.6" x2="107.3" y2="53.0" stroke="rgb(0,0,0)"  stroke-width="2.0"/>
<line x1="148.0" y1="139.4" x2="164.2" y2="148.6" stroke="rgb(0,0,0)"  stroke-width="2.0"/>
<line x1="107.5" y1="162.8" x2="107.5" y2="181.4" stroke="rgb(0,0,0)"  stroke-width="2.0"/>
<line x1="67.4" y1="139.5" x2="67.3" y2="93.0" stroke="rgb(0,0,0)"  stroke-width="2.0"/>
<line x1="74.6" y1="133.5" x2="74.5" y2="99.0" stroke="rgb(0,0,0)"  stroke-width="2.0"/>
<line x1="67.3" y1="93.0" x2="107.2" y2="71.6" stroke="rgb(0,0,0)"  stroke-width="2.0"/>
<line x1="107.2" y1="71.6" x2="147.8" y2="93.7" stroke="rgb(0,0,0)"  stroke-width="2.0"/>
<line x1="109.1" y1="80.8" x2="139.1" y2="97.2" stroke="rgb(0,0,0)"  stroke-width="2.0"/>
<line x1="147.8" y1="93.7" x2="148.0" y2="139.4" stroke="rgb(0,0,0)"  stroke-width="2.0"/>
<line x1="148.0" y1="139.4" x2="107.5" y2="162.8" stroke="rgb(0,0,0)"  stroke-width="2.0"/>
<line x1="139.2" y1="136.1" x2="109.1" y2="153.6" stroke="rgb(0,0,0)"  stroke-width="2.0"/>
<line x1="107.5" y1="162.8" x2="67.4" y2="139.5" stroke="rgb(0,0,0)"  stroke-width="2.0"/>
<text x="180.327354" y="78.460981" fill="rgb(17,127,178)"  stroke="rgb(17,127,178)" stroke-width="1" font-size="16" >Xx</text>
<text x="34.123689" y="84.772421" fill="rgb(191,191,191)"  stroke="rgb(191,191,191)" stroke-width="1" font-size="16" >H</text>
<text x="34.000000" y="163.351238" fill="rgb(191,191,191)"  stroke="rgb(191,191,191)" stroke-width="1" font-size="16" >H</text>
<text x="101.370934" y="48.000000" fill="rgb(191,191,191)"  stroke="rgb(191,191,191)" stroke-width="1" font-size="16" >H</text>
<text x="169.428355" y="163.104600" fill="rgb(191,191,191)"  stroke="rgb(191,191,191)" stroke-width="1" font-size="16" >H</text>
<text x="101.469732" y="202.436521" fill="rgb(191,191,191)"  stroke="rgb(191,191,191)" stroke-width="1" font-size="16" >H</text>
</svg>
</g>
<text font-size="18.000000" fill ="black" font-family="sans-serif"
x="10.000000" y="20.000000" ></text>
</svg>
