<?xml version="1.0"?>
<svg version="1.1" id="topsvg"
xmlns="http://www.w3.org/2000/svg" xmlns:xlink="http://www.w3.org/1999/xlink"
xmlns:cml="http://www.xml-cml.org/schema" x="0" y="0" width="200px" height="200px" viewBox="0 0 100 100">
<title> - Open Babel Depiction</title>
<rect x="0" y="0" width="100" height="100" fill="white"/>
<g transform="translate(0,0)">
<svg width="100" height="100" x="0" y="0" viewBox="0 0 566.623 403.885"
font-family="sans-serif" stroke="rgb(0,0,0)" stroke-width="2"  stroke-linecap="round">
<line x1="70.7" y1="319.5" x2="94.1" y2="275.1" stroke="rgb(0,0,0)"  stroke-width="2.0"/>
<line x1="76.0" y1="322.3" x2="99.5" y2="277.9" stroke="rgb(0,0,0)"  stroke-width="2.0"/>
<line x1="73.4" y1="320.9" x2="53.0" y2="322.6" stroke="rgb(0,0,0)"  stroke-width="2.0"/>
<line x1="96.8" y1="276.5" x2="144.7" y2="276.3" stroke="rgb(0,0,0)"  stroke-width="2.0"/>
<line x1="96.8" y1="276.5" x2="86.2" y2="258.9" stroke="rgb(0,0,0)"  stroke-width="2.0"/>
<line x1="144.7" y1="276.3" x2="209.0" y2="276.0" stroke="rgb(0,0,0)"  stroke-width="2.0"/>
<line x1="144.7" y1="272.1" x2="209.0" y2="271.8" stroke="rgb(0,0,0)"  stroke-width="2.0"/>
<line x1="144.7" y1="280.5" x2="209.0" y2="280.2" stroke="rgb(0,0,0)"  stroke-width="2.0"/>
<line x1="98.4" y1="353.6" x2="73.4" y2="320.9" stroke="rgb(0,0,0)"  stroke-width="2.0"/>
<line x1="274.4" y1="204.5" x2="245.1" y2="190.6" stroke="rgb(0,0,0)"  stroke-width="2.0"/>
<line x1="274.7" y1="214.7" x2="273.1" y2="214.6" stroke="rgb(0,0,0)"  stroke-width="1.0"/>
<line x1="275.0" y1="222.9" x2="272.1" y2="222.8" stroke="rgb(0,0,0)"  stroke-width="1.0"/>
<line x1="275.2" y1="231.1" x2="271.1" y2="230.9" stroke="rgb(0,0,0)"  stroke-width="1.0"/>
<line x1="275.5" y1="239.3" x2="270.1" y2="239.0" stroke="rgb(0,0,0)"  stroke-width="1.0"/>
<line x1="275.7" y1="247.5" x2="269.0" y2="247.1" stroke="rgb(0,0,0)"  stroke-width="1.0"/>
<line x1="276.0" y1="255.6" x2="268.0" y2="255.3" stroke="rgb(0,0,0)"  stroke-width="1.0"/>
<line x1="274.4" y1="204.5" x2="273.8" y2="182.8" stroke="rgb(0,0,0)"  stroke-width="2.0"/>
<line x1="218.4" y1="209.0" x2="220.1" y2="229.4" stroke="rgb(0,0,0)"  stroke-width="2.0"/>
<line x1="189.1" y1="195.1" x2="172.2" y2="206.8" stroke="rgb(0,0,0)"  stroke-width="2.0"/>
<line x1="186.5" y1="162.8" x2="167.9" y2="154.0" stroke="rgb(0,0,0)"  stroke-width="2.0"/>
<line x1="213.2" y1="144.3" x2="211.5" y2="123.9" stroke="rgb(0,0,0)"  stroke-width="2.0"/>
<line x1="242.5" y1="158.2" x2="259.3" y2="146.6" stroke="rgb(0,0,0)"  stroke-width="2.0"/>
<line x1="323.3" y1="146.4" x2="316.0" y2="181.9" stroke="rgb(0,0,0)"  stroke-width="2.0"/>
<line x1="358.6" y1="203.5" x2="400.8" y2="180.1" stroke="rgb(0,0,0)"  stroke-width="2.0"/>
<line x1="400.8" y1="180.1" x2="400.3" y2="131.3" stroke="rgb(0,0,0)"  stroke-width="2.0"/>
<line x1="400.8" y1="180.1" x2="431.9" y2="198.1" stroke="rgb(0,0,0)"  stroke-width="2.0"/>
<line x1="396.4" y1="178.5" x2="397.2" y2="177.1" stroke="rgb(0,0,0)"  stroke-width="1.0"/>
<line x1="392.8" y1="177.2" x2="394.3" y2="174.7" stroke="rgb(0,0,0)"  stroke-width="1.0"/>
<line x1="389.3" y1="175.8" x2="391.4" y2="172.2" stroke="rgb(0,0,0)"  stroke-width="1.0"/>
<line x1="385.7" y1="174.5" x2="388.5" y2="169.8" stroke="rgb(0,0,0)"  stroke-width="1.0"/>
<line x1="382.2" y1="173.2" x2="385.6" y2="167.4" stroke="rgb(0,0,0)"  stroke-width="1.0"/>
<line x1="378.7" y1="171.9" x2="382.7" y2="165.0" stroke="rgb(0,0,0)"  stroke-width="1.0"/>
<line x1="400.3" y1="131.3" x2="442.5" y2="106.9" stroke="rgb(0,0,0)"  stroke-width="2.0"/>
<line x1="400.3" y1="131.3" x2="381.5" y2="120.6" stroke="rgb(0,0,0)"  stroke-width="2.0"/>
<line x1="400.3" y1="131.3" x2="400.3" y2="109.6" stroke="rgb(0,0,0)"  stroke-width="2.0"/>
<line x1="439.5" y1="106.9" x2="439.7" y2="56.9" stroke="rgb(0,0,0)"  stroke-width="2.0"/>
<line x1="445.5" y1="106.9" x2="445.7" y2="56.9" stroke="rgb(0,0,0)"  stroke-width="2.0"/>
<line x1="442.5" y1="106.9" x2="460.2" y2="117.2" stroke="rgb(0,0,0)"  stroke-width="2.0"/>
<line x1="442.7" y1="56.9" x2="460.5" y2="46.7" stroke="rgb(0,0,0)"  stroke-width="2.0"/>
<line x1="442.7" y1="56.9" x2="425.0" y2="46.5" stroke="rgb(0,0,0)"  stroke-width="2.0"/>
<line x1="484.3" y1="228.5" x2="431.9" y2="198.1" stroke="rgb(0,0,0)"  stroke-width="2.0"/>
<line x1="482.2" y1="232.2" x2="429.8" y2="201.8" stroke="rgb(0,0,0)"  stroke-width="2.0"/>
<line x1="486.4" y1="224.9" x2="434.0" y2="194.5" stroke="rgb(0,0,0)"  stroke-width="2.0"/>
<line x1="358.6" y1="253.2" x2="376.2" y2="263.8" stroke="rgb(0,0,0)"  stroke-width="2.0"/>
<line x1="316.8" y1="275.6" x2="317.4" y2="296.0" stroke="rgb(0,0,0)"  stroke-width="2.0"/>
<line x1="272.0" y1="255.4" x2="232.1" y2="277.6" stroke="rgb(0,0,0)"  stroke-width="2.0"/>
<polygon points="272.001135 255.445387 276.993215 278.515493 269.000548 278.857929 " stroke-width="2.000000" fill="rgb(0,0,0)"  stroke="rgb(0,0,0)" />
<line x1="515.3" y1="246.2" x2="484.3" y2="228.5" stroke="rgb(0,0,0)"  stroke-width="2.0"/>
<line x1="232.1" y1="277.6" x2="209.0" y2="276.0" stroke="rgb(0,0,0)"  stroke-width="2.0"/>
<line x1="232.1" y1="277.6" x2="236.8" y2="298.8" stroke="rgb(0,0,0)"  stroke-width="2.0"/>
<line x1="232.1" y1="277.6" x2="218.0" y2="294.1" stroke="rgb(0,0,0)"  stroke-width="2.0"/>
<line x1="218.4" y1="209.0" x2="245.1" y2="190.6" stroke="rgb(0,0,0)"  stroke-width="2.0"/>
<line x1="219.3" y1="199.7" x2="236.1" y2="188.1" stroke="rgb(0,0,0)"  stroke-width="2.0"/>
<line x1="245.1" y1="190.6" x2="242.5" y2="158.2" stroke="rgb(0,0,0)"  stroke-width="2.0"/>
<line x1="242.5" y1="158.2" x2="213.2" y2="144.3" stroke="rgb(0,0,0)"  stroke-width="2.0"/>
<line x1="234.0" y1="162.2" x2="215.5" y2="153.4" stroke="rgb(0,0,0)"  stroke-width="2.0"/>
<line x1="213.2" y1="144.3" x2="186.5" y2="162.8" stroke="rgb(0,0,0)"  stroke-width="2.0"/>
<line x1="186.5" y1="162.8" x2="189.1" y2="195.1" stroke="rgb(0,0,0)"  stroke-width="2.0"/>
<line x1="194.1" y1="168.2" x2="195.8" y2="188.6" stroke="rgb(0,0,0)"  stroke-width="2.0"/>
<line x1="189.1" y1="195.1" x2="218.4" y2="209.0" stroke="rgb(0,0,0)"  stroke-width="2.0"/>
<line x1="274.4" y1="204.5" x2="272.0" y2="255.4" stroke="rgb(0,0,0)"  stroke-width="2.0"/>
<line x1="272.0" y1="255.4" x2="316.8" y2="275.6" stroke="rgb(0,0,0)"  stroke-width="2.0"/>
<line x1="316.8" y1="275.6" x2="358.6" y2="253.2" stroke="rgb(0,0,0)"  stroke-width="2.0"/>
<line x1="318.7" y1="266.4" x2="350.0" y2="249.7" stroke="rgb(0,0,0)"  stroke-width="2.0"/>
<line x1="358.6" y1="253.2" x2="358.6" y2="203.5" stroke="rgb(0,0,0)"  stroke-width="2.0"/>
<line x1="358.6" y1="203.5" x2="316.0" y2="181.9" stroke="rgb(0,0,0)"  stroke-width="2.0"/>
<line x1="350.0" y1="207.2" x2="318.1" y2="191.0" stroke="rgb(0,0,0)"  stroke-width="2.0"/>
<line x1="316.0" y1="181.9" x2="274.4" y2="204.5" stroke="rgb(0,0,0)"  stroke-width="2.0"/>
<text x="100.245709" y="371.885215" fill="rgb(30,239,30)"  stroke="rgb(30,239,30)" stroke-width="1" font-size="16" >Cl</text>
<text x="319.984168" y="141.720723" fill="rgb(17,127,178)"  stroke="rgb(17,127,178)" stroke-width="1" font-size="16" >Xx</text>
<text x="520.622836" y="260.644993" fill="rgb(17,127,178)"  stroke="rgb(17,127,178)" stroke-width="1" font-size="16" >Xx</text>
<text x="34.000000" y="331.660782" fill="rgb(191,191,191)"  stroke="rgb(191,191,191)" stroke-width="1" font-size="16" >H</text>
<text x="73.445645" y="255.822993" fill="rgb(191,191,191)"  stroke="rgb(191,191,191)" stroke-width="1" font-size="16" >H</text>
<text x="267.467854" y="177.775392" fill="rgb(191,191,191)"  stroke="rgb(191,191,191)" stroke-width="1" font-size="16" >H</text>
<text x="215.113788" y="250.403922" fill="rgb(191,191,191)"  stroke="rgb(191,191,191)" stroke-width="1" font-size="16" >H</text>
<text x="155.533212" y="222.163099" fill="rgb(191,191,191)"  stroke="rgb(191,191,191)" stroke-width="1" font-size="16" >H</text>
<text x="150.201755" y="156.436583" fill="rgb(191,191,191)"  stroke="rgb(191,191,191)" stroke-width="1" font-size="16" >H</text>
<text x="204.454118" y="118.963870" fill="rgb(191,191,191)"  stroke="rgb(191,191,191)" stroke-width="1" font-size="16" >H</text>
<text x="264.034694" y="147.204693" fill="rgb(191,191,191)"  stroke="rgb(191,191,191)" stroke-width="1" font-size="16" >H</text>
<text x="364.783984" y="170.633251" fill="rgb(191,191,191)"  stroke="rgb(191,191,191)" stroke-width="1" font-size="16" >H</text>
<text x="364.180423" y="122.108229" fill="rgb(191,191,191)"  stroke="rgb(191,191,191)" stroke-width="1" font-size="16" >H</text>
<text x="394.228685" y="104.595219" fill="rgb(191,191,191)"  stroke="rgb(191,191,191)" stroke-width="1" font-size="16" >H</text>
<text x="465.432681" y="131.726268" fill="rgb(191,191,191)"  stroke="rgb(191,191,191)" stroke-width="1" font-size="16" >H</text>
<text x="465.737706" y="48.240126" fill="rgb(191,191,191)"  stroke="rgb(191,191,191)" stroke-width="1" font-size="16" >H</text>
<text x="407.734178" y="48.000000" fill="rgb(191,191,191)"  stroke="rgb(191,191,191)" stroke-width="1" font-size="16" >H</text>
<text x="381.362447" y="278.453293" fill="rgb(191,191,191)"  stroke="rgb(191,191,191)" stroke-width="1" font-size="16" >H</text>
<text x="311.881521" y="317.022800" fill="rgb(191,191,191)"  stroke="rgb(191,191,191)" stroke-width="1" font-size="16" >H</text>
<text x="267.487324" y="298.133931" fill="rgb(191,191,191)"  stroke="rgb(191,191,191)" stroke-width="1" font-size="16" >H</text>
<text x="233.668427" y="319.527904" fill="rgb(191,191,191)"  stroke="rgb(191,191,191)" stroke-width="1" font-size="16" >H</text>
<text x="203.467653" y="311.934714" fill="rgb(191,191,191)"  stroke="rgb(191,191,191)" stroke-width="1" font-size="16" >H</text>
</svg>
</g>
<text font-size="18.000000" fill ="black" font-family="sans-serif"
x="10.000000" y="20.000000" ></text>
</svg>
