<?xml version="1.0"?>
<svg version="1.1" id="topsvg"
xmlns="http://www.w3.org/2000/svg" xmlns:xlink="http://www.w3.org/1999/xlink"
xmlns:cml="http://www.xml-cml.org/schema" x="0" y="0" width="200px" height="200px" viewBox="0 0 100 100">
<title> - Open Babel Depiction</title>
<rect x="0" y="0" width="100" height="100" fill="white"/>
<g transform="translate(0,0)">
<svg width="100" height="100" x="0" y="0" viewBox="0 0 388.256 297.34"
font-family="sans-serif" stroke="rgb(0,0,0)" stroke-width="2"  stroke-linecap="round">
<line x1="236.3" y1="176.2" x2="194.5" y2="195.5" stroke="rgb(0,0,0)"  stroke-width="2.0"/>
<line x1="194.5" y1="195.5" x2="194.5" y2="215.5" stroke="rgb(0,0,0)"  stroke-width="2.0"/>
<line x1="194.7" y1="104.2" x2="236.1" y2="129.5" stroke="rgb(0,0,0)"  stroke-width="2.0"/>
<line x1="194.7" y1="104.2" x2="237.9" y2="123.5" stroke="rgb(0,0,0)"  stroke-width="2.0"/>
<line x1="194.7" y1="104.2" x2="213.4" y2="114.1" stroke="rgb(0,0,0)"  stroke-width="2.0"/>
<line x1="67.2" y1="125.0" x2="108.8" y2="100.4" stroke="rgb(0,0,0)"  stroke-width="2.0"/>
<line x1="70.3" y1="130.2" x2="111.9" y2="105.6" stroke="rgb(0,0,0)"  stroke-width="2.0"/>
<line x1="68.8" y1="127.6" x2="51.3" y2="117.8" stroke="rgb(0,0,0)"  stroke-width="2.0"/>
<line x1="68.8" y1="127.6" x2="69.0" y2="147.6" stroke="rgb(0,0,0)"  stroke-width="2.0"/>
<line x1="110.3" y1="103.0" x2="152.0" y2="127.3" stroke="rgb(0,0,0)"  stroke-width="2.0"/>
<line x1="110.3" y1="103.0" x2="110.3" y2="83.0" stroke="rgb(0,0,0)"  stroke-width="2.0"/>
<line x1="152.0" y1="127.3" x2="194.7" y2="104.2" stroke="rgb(0,0,0)"  stroke-width="2.0"/>
<line x1="152.0" y1="127.3" x2="151.6" y2="148.5" stroke="rgb(0,0,0)"  stroke-width="2.0"/>
<line x1="152.0" y1="127.3" x2="170.1" y2="138.3" stroke="rgb(0,0,0)"  stroke-width="2.0"/>
<line x1="237.9" y1="123.5" x2="249.9" y2="141.0" stroke="rgb(0,0,0)"  stroke-width="2.0"/>
<line x1="237.9" y1="123.5" x2="258.0" y2="116.7" stroke="rgb(0,0,0)"  stroke-width="2.0"/>
<line x1="320.2" y1="127.4" x2="337.1" y2="116.8" stroke="rgb(0,0,0)"  stroke-width="2.0"/>
<line x1="320.0" y1="177.1" x2="337.1" y2="187.5" stroke="rgb(0,0,0)"  stroke-width="2.0"/>
<line x1="272.1" y1="237.2" x2="271.3" y2="244.4" stroke="rgb(0,0,0)"  stroke-width="2.0"/>
<line x1="276.3" y1="237.7" x2="275.5" y2="244.9" stroke="rgb(0,0,0)"  stroke-width="2.0"/>
<line x1="268.0" y1="236.7" x2="267.1" y2="243.9" stroke="rgb(0,0,0)"  stroke-width="2.0"/>
<line x1="272.1" y1="237.2" x2="274.3" y2="218.5" stroke="rgb(0,0,0)"  stroke-width="2.0"/>
<line x1="271.5" y1="244.5" x2="277.5" y2="199.4" stroke="rgb(0,0,0)"  stroke-width="2.0"/>
<line x1="153.0" y1="173.4" x2="195.7" y2="192.8" stroke="rgb(0,0,0)"  stroke-width="2.0"/>
<line x1="150.5" y1="178.8" x2="193.2" y2="198.2" stroke="rgb(0,0,0)"  stroke-width="2.0"/>
<line x1="151.7" y1="176.1" x2="149.8" y2="156.2" stroke="rgb(0,0,0)"  stroke-width="2.0"/>
<line x1="151.7" y1="176.1" x2="135.5" y2="187.8" stroke="rgb(0,0,0)"  stroke-width="2.0"/>
<line x1="235.4" y1="74.2" x2="237.9" y2="123.5" stroke="rgb(0,0,0)"  stroke-width="2.0"/>
<line x1="235.4" y1="74.2" x2="253.2" y2="62.6" stroke="rgb(0,0,0)"  stroke-width="2.0"/>
<line x1="235.4" y1="74.2" x2="216.5" y2="64.5" stroke="rgb(0,0,0)"  stroke-width="2.0"/>
<line x1="235.4" y1="74.2" x2="234.3" y2="53.0" stroke="rgb(0,0,0)"  stroke-width="2.0"/>
<line x1="286.2" y1="68.7" x2="277.1" y2="106.6" stroke="rgb(0,0,0)"  stroke-width="2.0"/>
<line x1="301.8" y1="52.4" x2="305.5" y2="51.3" stroke="rgb(0,0,0)"  stroke-width="2.0"/>
<line x1="320.2" y1="127.4" x2="277.1" y2="106.6" stroke="rgb(0,0,0)"  stroke-width="2.0"/>
<line x1="277.1" y1="106.6" x2="236.1" y2="129.5" stroke="rgb(0,0,0)"  stroke-width="2.0"/>
<line x1="275.3" y1="115.8" x2="244.9" y2="132.9" stroke="rgb(0,0,0)"  stroke-width="2.0"/>
<line x1="236.1" y1="129.5" x2="236.3" y2="176.2" stroke="rgb(0,0,0)"  stroke-width="2.0"/>
<line x1="236.3" y1="176.2" x2="277.5" y2="199.4" stroke="rgb(0,0,0)"  stroke-width="2.0"/>
<line x1="245.1" y1="172.9" x2="275.8" y2="190.2" stroke="rgb(0,0,0)"  stroke-width="2.0"/>
<line x1="277.5" y1="199.4" x2="320.0" y2="177.1" stroke="rgb(0,0,0)"  stroke-width="2.0"/>
<line x1="320.0" y1="177.1" x2="320.2" y2="127.4" stroke="rgb(0,0,0)"  stroke-width="2.0"/>
<line x1="312.9" y1="171.1" x2="313.0" y2="133.4" stroke="rgb(0,0,0)"  stroke-width="2.0"/>
<text x="257.823151" y="265.340232" fill="rgb(17,127,178)"  stroke="rgb(17,127,178)" stroke-width="1" font-size="16" >Xx</text>
<text x="283.281159" y="64.066363" fill="rgb(255,12,12)"  stroke="rgb(255,12,12)" stroke-width="1" font-size="16" >O</text>
<text x="312.015846" y="55.617617" fill="rgb(191,191,191)"  stroke="rgb(191,191,191)" stroke-width="1" font-size="16" >H</text>
<text x="188.577207" y="236.477680" fill="rgb(191,191,191)"  stroke="rgb(191,191,191)" stroke-width="1" font-size="16" >H</text>
<text x="218.919808" y="128.114442" fill="rgb(191,191,191)"  stroke="rgb(191,191,191)" stroke-width="1" font-size="16" >H</text>
<text x="34.000000" y="119.461110" fill="rgb(191,191,191)"  stroke="rgb(191,191,191)" stroke-width="1" font-size="16" >H</text>
<text x="63.134268" y="168.615997" fill="rgb(191,191,191)"  stroke="rgb(191,191,191)" stroke-width="1" font-size="16" >H</text>
<text x="104.233597" y="77.997363" fill="rgb(191,191,191)"  stroke="rgb(191,191,191)" stroke-width="1" font-size="16" >H</text>
<text x="145.435218" y="169.527042" fill="rgb(191,191,191)"  stroke="rgb(191,191,191)" stroke-width="1" font-size="16" >H</text>
<text x="175.231193" y="153.057902" fill="rgb(191,191,191)"  stroke="rgb(191,191,191)" stroke-width="1" font-size="16" >H</text>
<text x="251.241136" y="159.738900" fill="rgb(191,191,191)"  stroke="rgb(191,191,191)" stroke-width="1" font-size="16" >H</text>
<text x="264.318631" y="120.579938" fill="rgb(191,191,191)"  stroke="rgb(191,191,191)" stroke-width="1" font-size="16" >H</text>
<text x="342.134682" y="117.945898" fill="rgb(191,191,191)"  stroke="rgb(191,191,191)" stroke-width="1" font-size="16" >H</text>
<text x="342.256154" y="202.244755" fill="rgb(191,191,191)"  stroke="rgb(191,191,191)" stroke-width="1" font-size="16" >H</text>
<text x="269.736953" y="213.605649" fill="rgb(191,191,191)"  stroke="rgb(191,191,191)" stroke-width="1" font-size="16" >H</text>
<text x="142.484710" y="151.286958" fill="rgb(191,191,191)"  stroke="rgb(191,191,191)" stroke-width="1" font-size="16" >H</text>
<text x="118.906220" y="203.334813" fill="rgb(191,191,191)"  stroke="rgb(191,191,191)" stroke-width="1" font-size="16" >H</text>
<text x="258.120327" y="63.577275" fill="rgb(191,191,191)"  stroke="rgb(191,191,191)" stroke-width="1" font-size="16" >H</text>
<text x="198.953532" y="66.582126" fill="rgb(191,191,191)"  stroke="rgb(191,191,191)" stroke-width="1" font-size="16" >H</text>
<text x="227.669039" y="48.000000" fill="rgb(191,191,191)"  stroke="rgb(191,191,191)" stroke-width="1" font-size="16" >H</text>
</svg>
</g>
<text font-size="18.000000" fill ="black" font-family="sans-serif"
x="10.000000" y="20.000000" ></text>
</svg>
