<?xml version="1.0"?>
<svg version="1.1" id="topsvg"
xmlns="http://www.w3.org/2000/svg" xmlns:xlink="http://www.w3.org/1999/xlink"
xmlns:cml="http://www.xml-cml.org/schema" x="0" y="0" width="200px" height="200px" viewBox="0 0 100 100">
<title> - Open Babel Depiction</title>
<rect x="0" y="0" width="100" height="100" fill="white"/>
<g transform="translate(0,0)">
<svg width="100" height="100" x="0" y="0" viewBox="0 0 298.294 338.434"
font-family="sans-serif" stroke="rgb(0,0,0)" stroke-width="2"  stroke-linecap="round">
<line x1="75.8" y1="178.5" x2="75.0" y2="179.8" stroke="rgb(0,0,0)"  stroke-width="1.0"/>
<line x1="82.7" y1="181.6" x2="81.3" y2="184.1" stroke="rgb(0,0,0)"  stroke-width="1.0"/>
<line x1="89.6" y1="184.7" x2="87.6" y2="188.4" stroke="rgb(0,0,0)"  stroke-width="1.0"/>
<line x1="96.5" y1="187.9" x2="93.9" y2="192.6" stroke="rgb(0,0,0)"  stroke-width="1.0"/>
<line x1="103.4" y1="191.0" x2="100.1" y2="196.9" stroke="rgb(0,0,0)"  stroke-width="1.0"/>
<line x1="110.3" y1="194.2" x2="106.4" y2="201.1" stroke="rgb(0,0,0)"  stroke-width="1.0"/>
<line x1="67.2" y1="174.5" x2="87.2" y2="174.8" stroke="rgb(0,0,0)"  stroke-width="2.0"/>
<line x1="68.3" y1="129.0" x2="51.2" y2="118.7" stroke="rgb(0,0,0)"  stroke-width="2.0"/>
<line x1="68.3" y1="129.0" x2="68.6" y2="109.0" stroke="rgb(0,0,0)"  stroke-width="2.0"/>
<line x1="107.4" y1="106.8" x2="107.0" y2="86.8" stroke="rgb(0,0,0)"  stroke-width="2.0"/>
<line x1="107.4" y1="106.8" x2="124.4" y2="96.2" stroke="rgb(0,0,0)"  stroke-width="2.0"/>
<line x1="229.7" y1="127.8" x2="247.0" y2="117.8" stroke="rgb(0,0,0)"  stroke-width="2.0"/>
<line x1="229.7" y1="127.8" x2="229.5" y2="107.8" stroke="rgb(0,0,0)"  stroke-width="2.0"/>
<line x1="228.9" y1="175.6" x2="246.1" y2="185.8" stroke="rgb(0,0,0)"  stroke-width="2.0"/>
<line x1="228.9" y1="175.6" x2="228.6" y2="195.6" stroke="rgb(0,0,0)"  stroke-width="2.0"/>
<line x1="180.4" y1="194.0" x2="181.2" y2="192.6" stroke="rgb(0,0,0)"  stroke-width="1.0"/>
<line x1="173.6" y1="190.7" x2="175.1" y2="188.2" stroke="rgb(0,0,0)"  stroke-width="1.0"/>
<line x1="166.9" y1="187.5" x2="169.0" y2="183.9" stroke="rgb(0,0,0)"  stroke-width="1.0"/>
<line x1="160.2" y1="184.2" x2="162.9" y2="179.5" stroke="rgb(0,0,0)"  stroke-width="1.0"/>
<line x1="153.4" y1="180.9" x2="156.9" y2="175.2" stroke="rgb(0,0,0)"  stroke-width="1.0"/>
<line x1="146.7" y1="177.7" x2="150.8" y2="170.8" stroke="rgb(0,0,0)"  stroke-width="1.0"/>
<line x1="188.8" y1="198.0" x2="188.0" y2="244.8" stroke="rgb(0,0,0)"  stroke-width="2.0"/>
<line x1="188.8" y1="198.0" x2="189.1" y2="178.0" stroke="rgb(0,0,0)"  stroke-width="2.0"/>
<line x1="116.0" y1="192.3" x2="116.8" y2="193.7" stroke="rgb(0,0,0)"  stroke-width="1.0"/>
<line x1="122.2" y1="188.0" x2="123.6" y2="190.5" stroke="rgb(0,0,0)"  stroke-width="1.0"/>
<line x1="128.3" y1="183.7" x2="130.4" y2="187.3" stroke="rgb(0,0,0)"  stroke-width="1.0"/>
<line x1="134.4" y1="179.4" x2="137.2" y2="184.1" stroke="rgb(0,0,0)"  stroke-width="1.0"/>
<line x1="140.6" y1="175.1" x2="144.0" y2="180.9" stroke="rgb(0,0,0)"  stroke-width="1.0"/>
<line x1="146.7" y1="170.8" x2="150.7" y2="177.7" stroke="rgb(0,0,0)"  stroke-width="1.0"/>
<line x1="108.4" y1="197.7" x2="108.2" y2="177.6" stroke="rgb(0,0,0)"  stroke-width="2.0"/>
<line x1="149.5" y1="137.3" x2="147.9" y2="137.3" stroke="rgb(0,0,0)"  stroke-width="1.0"/>
<line x1="150.1" y1="144.7" x2="147.3" y2="144.7" stroke="rgb(0,0,0)"  stroke-width="1.0"/>
<line x1="150.8" y1="152.1" x2="146.6" y2="152.1" stroke="rgb(0,0,0)"  stroke-width="1.0"/>
<line x1="151.4" y1="159.5" x2="146.0" y2="159.5" stroke="rgb(0,0,0)"  stroke-width="1.0"/>
<line x1="152.1" y1="166.9" x2="145.4" y2="166.9" stroke="rgb(0,0,0)"  stroke-width="1.0"/>
<line x1="152.7" y1="174.2" x2="144.7" y2="174.2" stroke="rgb(0,0,0)"  stroke-width="1.0"/>
<line x1="148.7" y1="128.1" x2="148.3" y2="73.0" stroke="rgb(0,0,0)"  stroke-width="2.0"/>
<line x1="149.3" y1="180.5" x2="147.7" y2="180.5" stroke="rgb(0,0,0)"  stroke-width="1.0"/>
<line x1="149.7" y1="185.6" x2="146.8" y2="185.5" stroke="rgb(0,0,0)"  stroke-width="1.0"/>
<line x1="150.1" y1="190.6" x2="146.0" y2="190.5" stroke="rgb(0,0,0)"  stroke-width="1.0"/>
<line x1="150.6" y1="195.7" x2="145.1" y2="195.4" stroke="rgb(0,0,0)"  stroke-width="1.0"/>
<line x1="151.0" y1="200.7" x2="144.3" y2="200.4" stroke="rgb(0,0,0)"  stroke-width="1.0"/>
<line x1="151.4" y1="205.8" x2="143.5" y2="205.4" stroke="rgb(0,0,0)"  stroke-width="1.0"/>
<line x1="181.2" y1="110.4" x2="180.4" y2="109.0" stroke="rgb(0,0,0)"  stroke-width="1.0"/>
<line x1="175.1" y1="114.6" x2="173.7" y2="112.1" stroke="rgb(0,0,0)"  stroke-width="1.0"/>
<line x1="169.0" y1="118.9" x2="166.9" y2="115.3" stroke="rgb(0,0,0)"  stroke-width="1.0"/>
<line x1="162.9" y1="123.1" x2="160.2" y2="118.4" stroke="rgb(0,0,0)"  stroke-width="1.0"/>
<line x1="156.8" y1="127.3" x2="153.4" y2="121.5" stroke="rgb(0,0,0)"  stroke-width="1.0"/>
<line x1="150.7" y1="131.6" x2="146.7" y2="124.6" stroke="rgb(0,0,0)"  stroke-width="1.0"/>
<line x1="188.9" y1="105.1" x2="197.5" y2="70.6" stroke="rgb(0,0,0)"  stroke-width="2.0"/>
<line x1="188.9" y1="105.1" x2="172.9" y2="93.0" stroke="rgb(0,0,0)"  stroke-width="2.0"/>
<line x1="148.3" y1="73.0" x2="165.6" y2="62.9" stroke="rgb(0,0,0)"  stroke-width="2.0"/>
<line x1="148.3" y1="73.0" x2="130.9" y2="63.1" stroke="rgb(0,0,0)"  stroke-width="2.0"/>
<line x1="148.3" y1="73.0" x2="148.1" y2="53.0" stroke="rgb(0,0,0)"  stroke-width="2.0"/>
<line x1="213.1" y1="54.4" x2="216.9" y2="53.4" stroke="rgb(0,0,0)"  stroke-width="2.0"/>
<line x1="188.0" y1="244.8" x2="228.2" y2="263.2" stroke="rgb(0,0,0)"  stroke-width="2.0"/>
<line x1="188.0" y1="244.8" x2="171.1" y2="255.5" stroke="rgb(0,0,0)"  stroke-width="2.0"/>
<line x1="188.0" y1="244.8" x2="189.3" y2="264.8" stroke="rgb(0,0,0)"  stroke-width="2.0"/>
<line x1="241.3" y1="281.6" x2="241.6" y2="285.5" stroke="rgb(0,0,0)"  stroke-width="2.0"/>
<line x1="108.4" y1="197.7" x2="67.2" y2="174.5" stroke="rgb(0,0,0)"  stroke-width="2.0"/>
<line x1="67.2" y1="174.5" x2="67.2" y2="208.0" stroke="rgb(0,0,0)"  stroke-width="2.0"/>
<line x1="78.6" y1="214.6" x2="108.4" y2="197.7" stroke="rgb(0,0,0)"  stroke-width="2.0"/>
<line x1="68.3" y1="129.0" x2="67.2" y2="174.5" stroke="rgb(0,0,0)"  stroke-width="2.0"/>
<line x1="108.4" y1="197.7" x2="148.7" y2="174.2" stroke="rgb(0,0,0)"  stroke-width="2.0"/>
<line x1="148.7" y1="174.2" x2="148.7" y2="128.1" stroke="rgb(0,0,0)"  stroke-width="2.0"/>
<line x1="148.7" y1="128.1" x2="107.4" y2="106.8" stroke="rgb(0,0,0)"  stroke-width="2.0"/>
<line x1="107.4" y1="106.8" x2="68.3" y2="129.0" stroke="rgb(0,0,0)"  stroke-width="2.0"/>
<line x1="229.7" y1="127.8" x2="188.9" y2="105.1" stroke="rgb(0,0,0)"  stroke-width="2.0"/>
<line x1="188.9" y1="105.1" x2="148.7" y2="128.1" stroke="rgb(0,0,0)"  stroke-width="2.0"/>
<line x1="148.7" y1="174.2" x2="188.8" y2="198.0" stroke="rgb(0,0,0)"  stroke-width="2.0"/>
<line x1="188.8" y1="198.0" x2="228.9" y2="175.6" stroke="rgb(0,0,0)"  stroke-width="2.0"/>
<line x1="228.9" y1="175.6" x2="229.7" y2="127.8" stroke="rgb(0,0,0)"  stroke-width="2.0"/>
<text x="194.638998" y="66.015473" fill="rgb(255,12,12)"  stroke="rgb(255,12,12)" stroke-width="1" font-size="16" >O</text>
<text x="234.031639" y="276.623023" fill="rgb(255,12,12)"  stroke="rgb(255,12,12)" stroke-width="1" font-size="16" >O</text>
<text x="61.254731" y="229.040688" fill="rgb(255,12,12)"  stroke="rgb(255,12,12)" stroke-width="1" font-size="16" >O</text>
<text x="140.817926" y="229.040688" fill="rgb(191,191,191)"  stroke="rgb(191,191,191)" stroke-width="1" font-size="16" >H</text>
<text x="223.431034" y="57.782562" fill="rgb(191,191,191)"  stroke="rgb(191,191,191)" stroke-width="1" font-size="16" >H</text>
<text x="236.846943" y="306.433753" fill="rgb(191,191,191)"  stroke="rgb(191,191,191)" stroke-width="1" font-size="16" >H</text>
<text x="94.226505" y="182.918484" fill="rgb(191,191,191)"  stroke="rgb(191,191,191)" stroke-width="1" font-size="16" >H</text>
<text x="34.000000" y="120.034110" fill="rgb(191,191,191)"  stroke="rgb(191,191,191)" stroke-width="1" font-size="16" >H</text>
<text x="62.711775" y="103.972680" fill="rgb(191,191,191)"  stroke="rgb(191,191,191)" stroke-width="1" font-size="16" >H</text>
<text x="100.764677" y="81.758947" fill="rgb(191,191,191)"  stroke="rgb(191,191,191)" stroke-width="1" font-size="16" >H</text>
<text x="129.464104" y="97.326464" fill="rgb(191,191,191)"  stroke="rgb(191,191,191)" stroke-width="1" font-size="16" >H</text>
<text x="252.294069" y="119.268545" fill="rgb(191,191,191)"  stroke="rgb(191,191,191)" stroke-width="1" font-size="16" >H</text>
<text x="223.415599" y="102.759506" fill="rgb(191,191,191)"  stroke="rgb(191,191,191)" stroke-width="1" font-size="16" >H</text>
<text x="251.275374" y="200.511044" fill="rgb(191,191,191)"  stroke="rgb(191,191,191)" stroke-width="1" font-size="16" >H</text>
<text x="222.458643" y="216.606431" fill="rgb(191,191,191)"  stroke="rgb(191,191,191)" stroke-width="1" font-size="16" >H</text>
<text x="183.226523" y="173.018617" fill="rgb(191,191,191)"  stroke="rgb(191,191,191)" stroke-width="1" font-size="16" >H</text>
<text x="102.132198" y="172.626574" fill="rgb(191,191,191)"  stroke="rgb(191,191,191)" stroke-width="1" font-size="16" >H</text>
<text x="156.527444" y="93.171422" fill="rgb(191,191,191)"  stroke="rgb(191,191,191)" stroke-width="1" font-size="16" >H</text>
<text x="170.767570" y="64.311474" fill="rgb(191,191,191)"  stroke="rgb(191,191,191)" stroke-width="1" font-size="16" >H</text>
<text x="113.560108" y="64.718952" fill="rgb(191,191,191)"  stroke="rgb(191,191,191)" stroke-width="1" font-size="16" >H</text>
<text x="142.046535" y="48.000000" fill="rgb(191,191,191)"  stroke="rgb(191,191,191)" stroke-width="1" font-size="16" >H</text>
<text x="154.054792" y="270.402807" fill="rgb(191,191,191)"  stroke="rgb(191,191,191)" stroke-width="1" font-size="16" >H</text>
<text x="184.192740" y="285.754237" fill="rgb(191,191,191)"  stroke="rgb(191,191,191)" stroke-width="1" font-size="16" >H</text>
</svg>
</g>
<text font-size="18.000000" fill ="black" font-family="sans-serif"
x="10.000000" y="20.000000" ></text>
</svg>
