<?xml version="1.0"?>
<svg version="1.1" id="topsvg"
xmlns="http://www.w3.org/2000/svg" xmlns:xlink="http://www.w3.org/1999/xlink"
xmlns:cml="http://www.xml-cml.org/schema" x="0" y="0" width="200px" height="200px" viewBox="0 0 100 100">
<title> - Open Babel Depiction</title>
<rect x="0" y="0" width="100" height="100" fill="white"/>
<g transform="translate(0,0)">
<svg width="100" height="100" x="0" y="0" viewBox="0 0 385.039 336.587"
font-family="sans-serif" stroke="rgb(0,0,0)" stroke-width="2"  stroke-linecap="round">
<line x1="233.8" y1="219.5" x2="209.9" y2="264.8" stroke="rgb(0,0,0)"  stroke-width="2.0"/>
<line x1="233.8" y1="219.5" x2="284.6" y2="222.1" stroke="rgb(0,0,0)"  stroke-width="2.0"/>
<line x1="233.8" y1="219.5" x2="211.9" y2="182.3" stroke="rgb(0,0,0)"  stroke-width="2.0"/>
<line x1="233.8" y1="219.5" x2="244.7" y2="238.6" stroke="rgb(0,0,0)"  stroke-width="2.0"/>
<line x1="209.9" y1="264.8" x2="187.9" y2="265.6" stroke="rgb(0,0,0)"  stroke-width="2.0"/>
<line x1="209.9" y1="264.8" x2="221.7" y2="283.5" stroke="rgb(0,0,0)"  stroke-width="2.0"/>
<line x1="209.9" y1="264.8" x2="199.6" y2="284.3" stroke="rgb(0,0,0)"  stroke-width="2.0"/>
<line x1="284.6" y1="222.1" x2="296.2" y2="203.3" stroke="rgb(0,0,0)"  stroke-width="2.0"/>
<line x1="284.6" y1="222.1" x2="306.7" y2="222.4" stroke="rgb(0,0,0)"  stroke-width="2.0"/>
<line x1="310.0" y1="266.2" x2="284.6" y2="222.1" stroke="rgb(0,0,0)"  stroke-width="2.0"/>
<line x1="310.0" y1="266.2" x2="298.9" y2="285.3" stroke="rgb(0,0,0)"  stroke-width="2.0"/>
<line x1="310.0" y1="266.2" x2="332.0" y2="266.2" stroke="rgb(0,0,0)"  stroke-width="2.0"/>
<line x1="310.0" y1="266.2" x2="321.0" y2="285.3" stroke="rgb(0,0,0)"  stroke-width="2.0"/>
<line x1="123.9" y1="127.1" x2="111.8" y2="80.0" stroke="rgb(0,0,0)"  stroke-width="2.0"/>
<line x1="114.7" y1="122.2" x2="115.6" y2="120.9" stroke="rgb(0,0,0)"  stroke-width="1.0"/>
<line x1="107.4" y1="118.3" x2="109.0" y2="115.9" stroke="rgb(0,0,0)"  stroke-width="1.0"/>
<line x1="100.1" y1="114.4" x2="102.4" y2="110.9" stroke="rgb(0,0,0)"  stroke-width="1.0"/>
<line x1="92.8" y1="110.4" x2="95.8" y2="105.8" stroke="rgb(0,0,0)"  stroke-width="1.0"/>
<line x1="85.5" y1="106.5" x2="89.2" y2="100.8" stroke="rgb(0,0,0)"  stroke-width="1.0"/>
<line x1="78.2" y1="102.6" x2="82.6" y2="95.8" stroke="rgb(0,0,0)"  stroke-width="1.0"/>
<line x1="124.4" y1="179.1" x2="106.5" y2="189.8" stroke="rgb(0,0,0)"  stroke-width="2.0"/>
<line x1="111.8" y1="80.0" x2="127.6" y2="64.6" stroke="rgb(0,0,0)"  stroke-width="2.0"/>
<line x1="111.8" y1="80.0" x2="90.6" y2="74.1" stroke="rgb(0,0,0)"  stroke-width="2.0"/>
<line x1="111.8" y1="80.0" x2="106.4" y2="58.7" stroke="rgb(0,0,0)"  stroke-width="2.0"/>
<line x1="167.7" y1="104.9" x2="167.9" y2="84.0" stroke="rgb(0,0,0)"  stroke-width="2.0"/>
<line x1="211.1" y1="128.2" x2="228.7" y2="117.1" stroke="rgb(0,0,0)"  stroke-width="2.0"/>
<line x1="213.3" y1="176.5" x2="246.0" y2="178.7" stroke="rgb(0,0,0)"  stroke-width="2.0"/>
<line x1="216.1" y1="172.7" x2="217.2" y2="173.8" stroke="rgb(0,0,0)"  stroke-width="1.0"/>
<line x1="218.4" y1="169.6" x2="220.4" y2="171.6" stroke="rgb(0,0,0)"  stroke-width="1.0"/>
<line x1="220.6" y1="166.5" x2="223.5" y2="169.5" stroke="rgb(0,0,0)"  stroke-width="1.0"/>
<line x1="222.8" y1="163.4" x2="226.6" y2="167.3" stroke="rgb(0,0,0)"  stroke-width="1.0"/>
<line x1="225.1" y1="160.3" x2="229.8" y2="165.1" stroke="rgb(0,0,0)"  stroke-width="1.0"/>
<line x1="227.3" y1="157.2" x2="232.9" y2="162.9" stroke="rgb(0,0,0)"  stroke-width="1.0"/>
<line x1="246.0" y1="178.7" x2="268.1" y2="178.2" stroke="rgb(0,0,0)"  stroke-width="2.0"/>
<line x1="246.0" y1="178.7" x2="247.4" y2="200.7" stroke="rgb(0,0,0)"  stroke-width="2.0"/>
<line x1="211.9" y1="182.3" x2="246.0" y2="178.7" stroke="rgb(0,0,0)"  stroke-width="2.0"/>
<line x1="211.9" y1="182.3" x2="192.2" y2="172.4" stroke="rgb(0,0,0)"  stroke-width="2.0"/>
<line x1="211.9" y1="182.3" x2="215.8" y2="160.6" stroke="rgb(0,0,0)"  stroke-width="2.0"/>
<line x1="167.8" y1="203.0" x2="168.1" y2="223.8" stroke="rgb(0,0,0)"  stroke-width="2.0"/>
<line x1="49.0" y1="117.1" x2="78.7" y2="96.7" stroke="rgb(0,0,0)"  stroke-width="2.0"/>
<line x1="52.4" y1="122.1" x2="82.1" y2="101.7" stroke="rgb(0,0,0)"  stroke-width="2.0"/>
<line x1="80.4" y1="99.2" x2="81.0" y2="67.8" stroke="rgb(0,0,0)"  stroke-width="2.0"/>
<line x1="92.7" y1="48.5" x2="96.8" y2="46.3" stroke="rgb(0,0,0)"  stroke-width="2.0"/>
<line x1="123.9" y1="127.1" x2="124.4" y2="179.1" stroke="rgb(0,0,0)"  stroke-width="2.0"/>
<line x1="124.4" y1="179.1" x2="167.8" y2="203.0" stroke="rgb(0,0,0)"  stroke-width="2.0"/>
<line x1="133.1" y1="175.7" x2="166.0" y2="193.8" stroke="rgb(0,0,0)"  stroke-width="2.0"/>
<line x1="167.8" y1="203.0" x2="213.3" y2="176.5" stroke="rgb(0,0,0)"  stroke-width="2.0"/>
<line x1="213.3" y1="176.5" x2="211.1" y2="128.2" stroke="rgb(0,0,0)"  stroke-width="2.0"/>
<line x1="211.1" y1="128.2" x2="167.7" y2="104.9" stroke="rgb(0,0,0)"  stroke-width="2.0"/>
<line x1="202.4" y1="131.7" x2="169.6" y2="114.0" stroke="rgb(0,0,0)"  stroke-width="2.0"/>
<line x1="167.7" y1="104.9" x2="123.9" y2="127.1" stroke="rgb(0,0,0)"  stroke-width="2.0"/>
<text x="22.000000" y="134.959792" fill="rgb(17,127,178)"  stroke="rgb(17,127,178)" stroke-width="1" font-size="16" >Xx</text>
<text x="75.269609" y="62.821538" fill="rgb(255,12,12)"  stroke="rgb(255,12,12)" stroke-width="1" font-size="16" >O</text>
<text x="102.156789" y="48.000000" fill="rgb(191,191,191)"  stroke="rgb(191,191,191)" stroke-width="1" font-size="16" >H</text>
<text x="245.148744" y="257.952666" fill="rgb(191,191,191)"  stroke="rgb(191,191,191)" stroke-width="1" font-size="16" >H</text>
<text x="168.894670" y="274.130851" fill="rgb(191,191,191)"  stroke="rgb(191,191,191)" stroke-width="1" font-size="16" >H</text>
<text x="222.613322" y="302.459879" fill="rgb(191,191,191)"  stroke="rgb(191,191,191)" stroke-width="1" font-size="16" >H</text>
<text x="187.576426" y="303.803418" fill="rgb(191,191,191)"  stroke="rgb(191,191,191)" stroke-width="1" font-size="16" >H</text>
<text x="296.956948" y="200.245994" fill="rgb(191,191,191)"  stroke="rgb(191,191,191)" stroke-width="1" font-size="16" >H</text>
<text x="313.675826" y="230.623101" fill="rgb(191,191,191)"  stroke="rgb(191,191,191)" stroke-width="1" font-size="16" >H</text>
<text x="286.401969" y="304.537450" fill="rgb(191,191,191)"  stroke="rgb(191,191,191)" stroke-width="1" font-size="16" >H</text>
<text x="339.039236" y="274.245543" fill="rgb(191,191,191)"  stroke="rgb(191,191,191)" stroke-width="1" font-size="16" >H</text>
<text x="321.465080" y="304.586604" fill="rgb(191,191,191)"  stroke="rgb(191,191,191)" stroke-width="1" font-size="16" >H</text>
<text x="89.370223" y="204.430629" fill="rgb(191,191,191)"  stroke="rgb(191,191,191)" stroke-width="1" font-size="16" >H</text>
<text x="130.918371" y="63.532631" fill="rgb(191,191,191)"  stroke="rgb(191,191,191)" stroke-width="1" font-size="16" >H</text>
<text x="72.077883" y="78.570445" fill="rgb(191,191,191)"  stroke="rgb(191,191,191)" stroke-width="1" font-size="16" >H</text>
<text x="97.156200" y="54.065591" fill="rgb(191,191,191)"  stroke="rgb(191,191,191)" stroke-width="1" font-size="16" >H</text>
<text x="162.068832" y="79.035769" fill="rgb(191,191,191)"  stroke="rgb(191,191,191)" stroke-width="1" font-size="16" >H</text>
<text x="233.745041" y="118.165545" fill="rgb(191,191,191)"  stroke="rgb(191,191,191)" stroke-width="1" font-size="16" >H</text>
<text x="232.365455" y="159.985678" fill="rgb(191,191,191)"  stroke="rgb(191,191,191)" stroke-width="1" font-size="16" >H</text>
<text x="275.090019" y="185.948765" fill="rgb(191,191,191)"  stroke="rgb(191,191,191)" stroke-width="1" font-size="16" >H</text>
<text x="242.265049" y="221.663984" fill="rgb(191,191,191)"  stroke="rgb(191,191,191)" stroke-width="1" font-size="16" >H</text>
<text x="174.534260" y="174.604046" fill="rgb(191,191,191)"  stroke="rgb(191,191,191)" stroke-width="1" font-size="16" >H</text>
<text x="212.123881" y="155.827259" fill="rgb(191,191,191)"  stroke="rgb(191,191,191)" stroke-width="1" font-size="16" >H</text>
<text x="162.226125" y="244.825299" fill="rgb(191,191,191)"  stroke="rgb(191,191,191)" stroke-width="1" font-size="16" >H</text>
</svg>
</g>
<text font-size="18.000000" fill ="black" font-family="sans-serif"
x="10.000000" y="20.000000" ></text>
</svg>
