<?xml version="1.0"?>
<svg version="1.1" id="topsvg"
xmlns="http://www.w3.org/2000/svg" xmlns:xlink="http://www.w3.org/1999/xlink"
xmlns:cml="http://www.xml-cml.org/schema" x="0" y="0" width="200px" height="200px" viewBox="0 0 100 100">
<title> - Open Babel Depiction</title>
<rect x="0" y="0" width="100" height="100" fill="white"/>
<g transform="translate(0,0)">
<svg width="100" height="100" x="0" y="0" viewBox="0 0 514.507 327.782"
font-family="sans-serif" stroke="rgb(0,0,0)" stroke-width="2"  stroke-linecap="round">
<line x1="174.2" y1="203.9" x2="175.0" y2="205.2" stroke="rgb(0,0,0)"  stroke-width="1.0"/>
<line x1="180.0" y1="199.6" x2="181.5" y2="202.1" stroke="rgb(0,0,0)"  stroke-width="1.0"/>
<line x1="185.9" y1="195.4" x2="188.0" y2="198.9" stroke="rgb(0,0,0)"  stroke-width="1.0"/>
<line x1="191.7" y1="191.1" x2="194.5" y2="195.8" stroke="rgb(0,0,0)"  stroke-width="1.0"/>
<line x1="197.5" y1="186.8" x2="201.0" y2="192.6" stroke="rgb(0,0,0)"  stroke-width="1.0"/>
<line x1="203.4" y1="182.6" x2="207.5" y2="189.4" stroke="rgb(0,0,0)"  stroke-width="1.0"/>
<line x1="166.9" y1="209.2" x2="151.6" y2="220.9" stroke="rgb(0,0,0)"  stroke-width="2.0"/>
<line x1="178.1" y1="251.7" x2="162.5" y2="263.0" stroke="rgb(0,0,0)"  stroke-width="2.0"/>
<line x1="178.1" y1="251.7" x2="178.7" y2="270.9" stroke="rgb(0,0,0)"  stroke-width="2.0"/>
<line x1="126.6" y1="186.4" x2="110.9" y2="195.4" stroke="rgb(0,0,0)"  stroke-width="2.0"/>
<line x1="127.0" y1="141.0" x2="110.9" y2="135.2" stroke="rgb(0,0,0)"  stroke-width="2.0"/>
<line x1="103.1" y1="118.5" x2="108.9" y2="102.4" stroke="rgb(0,0,0)"  stroke-width="2.0"/>
<line x1="86.4" y1="126.3" x2="70.3" y2="120.5" stroke="rgb(0,0,0)"  stroke-width="2.0"/>
<line x1="94.2" y1="143.0" x2="88.4" y2="159.1" stroke="rgb(0,0,0)"  stroke-width="2.0"/>
<line x1="108.9" y1="102.4" x2="127.9" y2="99.1" stroke="rgb(0,0,0)"  stroke-width="2.0"/>
<line x1="108.9" y1="102.4" x2="96.5" y2="87.7" stroke="rgb(0,0,0)"  stroke-width="2.0"/>
<line x1="108.9" y1="102.4" x2="115.5" y2="84.4" stroke="rgb(0,0,0)"  stroke-width="2.0"/>
<line x1="70.3" y1="120.5" x2="66.9" y2="101.6" stroke="rgb(0,0,0)"  stroke-width="2.0"/>
<line x1="70.3" y1="120.5" x2="55.6" y2="132.9" stroke="rgb(0,0,0)"  stroke-width="2.0"/>
<line x1="70.3" y1="120.5" x2="52.2" y2="114.0" stroke="rgb(0,0,0)"  stroke-width="2.0"/>
<line x1="88.4" y1="159.1" x2="69.4" y2="162.5" stroke="rgb(0,0,0)"  stroke-width="2.0"/>
<line x1="88.4" y1="159.1" x2="100.8" y2="173.8" stroke="rgb(0,0,0)"  stroke-width="2.0"/>
<line x1="88.4" y1="159.1" x2="81.8" y2="177.2" stroke="rgb(0,0,0)"  stroke-width="2.0"/>
<line x1="168.4" y1="85.3" x2="169.1" y2="117.9" stroke="rgb(0,0,0)"  stroke-width="2.0"/>
<line x1="162.4" y1="85.4" x2="163.1" y2="118.1" stroke="rgb(0,0,0)"  stroke-width="2.0"/>
<line x1="241.3" y1="125.7" x2="242.3" y2="106.5" stroke="rgb(0,0,0)"  stroke-width="2.0"/>
<line x1="241.3" y1="125.7" x2="258.1" y2="116.3" stroke="rgb(0,0,0)"  stroke-width="2.0"/>
<line x1="245.2" y1="135.1" x2="244.9" y2="133.5" stroke="rgb(0,0,0)"  stroke-width="1.0"/>
<line x1="237.5" y1="136.9" x2="237.1" y2="134.1" stroke="rgb(0,0,0)"  stroke-width="1.0"/>
<line x1="229.9" y1="138.7" x2="229.3" y2="134.6" stroke="rgb(0,0,0)"  stroke-width="1.0"/>
<line x1="222.3" y1="140.5" x2="221.5" y2="135.1" stroke="rgb(0,0,0)"  stroke-width="1.0"/>
<line x1="214.7" y1="142.2" x2="213.7" y2="135.6" stroke="rgb(0,0,0)"  stroke-width="1.0"/>
<line x1="207.0" y1="144.0" x2="205.9" y2="136.1" stroke="rgb(0,0,0)"  stroke-width="1.0"/>
<line x1="254.7" y1="132.9" x2="261.2" y2="114.8" stroke="rgb(0,0,0)"  stroke-width="2.0"/>
<line x1="336.6" y1="106.7" x2="341.1" y2="95.9" stroke="rgb(0,0,0)"  stroke-width="2.0"/>
<line x1="414.2" y1="155.3" x2="443.8" y2="145.9" stroke="rgb(0,0,0)"  stroke-width="2.0"/>
<line x1="317.7" y1="176.5" x2="303.8" y2="189.8" stroke="rgb(0,0,0)"  stroke-width="2.0"/>
<line x1="317.7" y1="176.5" x2="301.0" y2="166.9" stroke="rgb(0,0,0)"  stroke-width="2.0"/>
<line x1="306.1" y1="263.3" x2="317.3" y2="277.5" stroke="rgb(0,0,0)"  stroke-width="2.0"/>
<line x1="328.7" y1="223.8" x2="346.8" y2="224.8" stroke="rgb(0,0,0)"  stroke-width="2.0"/>
<polygon points="205.451210 186.015785 202.449536 139.986035 210.447652 140.159668 " stroke-width="2.000000" fill="rgb(0,0,0)"  stroke="rgb(0,0,0)" />
<line x1="205.5" y1="186.0" x2="244.8" y2="209.0" stroke="rgb(0,0,0)"  stroke-width="2.0"/>
<line x1="205.5" y1="186.0" x2="205.6" y2="205.3" stroke="rgb(0,0,0)"  stroke-width="2.0"/>
<line x1="443.8" y1="145.9" x2="458.0" y2="158.8" stroke="rgb(0,0,0)"  stroke-width="2.0"/>
<line x1="443.8" y1="145.9" x2="447.9" y2="127.1" stroke="rgb(0,0,0)"  stroke-width="2.0"/>
<line x1="443.8" y1="145.9" x2="462.1" y2="140.0" stroke="rgb(0,0,0)"  stroke-width="2.0"/>
<line x1="357.8" y1="78.1" x2="370.1" y2="72.2" stroke="rgb(0,0,0)"  stroke-width="2.0"/>
<line x1="370.1" y1="72.2" x2="386.0" y2="82.9" stroke="rgb(0,0,0)"  stroke-width="2.0"/>
<line x1="370.1" y1="72.2" x2="371.4" y2="53.0" stroke="rgb(0,0,0)"  stroke-width="2.0"/>
<line x1="370.1" y1="72.2" x2="387.4" y2="63.7" stroke="rgb(0,0,0)"  stroke-width="2.0"/>
<line x1="243.3" y1="206.4" x2="283.7" y2="182.8" stroke="rgb(0,0,0)"  stroke-width="2.0"/>
<line x1="246.3" y1="211.6" x2="286.8" y2="188.0" stroke="rgb(0,0,0)"  stroke-width="2.0"/>
<line x1="244.8" y1="209.0" x2="244.8" y2="227.1" stroke="rgb(0,0,0)"  stroke-width="2.0"/>
<line x1="285.3" y1="185.4" x2="301.0" y2="194.4" stroke="rgb(0,0,0)"  stroke-width="2.0"/>
<line x1="285.3" y1="185.4" x2="285.2" y2="167.3" stroke="rgb(0,0,0)"  stroke-width="2.0"/>
<line x1="241.3" y1="125.7" x2="254.7" y2="132.9" stroke="rgb(0,0,0)"  stroke-width="2.0"/>
<line x1="254.7" y1="132.9" x2="206.4" y2="140.1" stroke="rgb(0,0,0)"  stroke-width="2.0"/>
<line x1="206.4" y1="140.1" x2="241.3" y2="125.7" stroke="rgb(0,0,0)"  stroke-width="2.0"/>
<line x1="342.9" y1="125.3" x2="390.6" y2="152.7" stroke="rgb(0,0,0)"  stroke-width="2.0"/>
<line x1="389.0" y1="157.0" x2="293.0" y2="140.6" stroke="rgb(0,0,0)"  stroke-width="2.0"/>
<line x1="293.0" y1="140.6" x2="320.4" y2="125.1" stroke="rgb(0,0,0)"  stroke-width="2.0"/>
<line x1="317.7" y1="176.5" x2="389.1" y2="161.8" stroke="rgb(0,0,0)"  stroke-width="2.0"/>
<line x1="328.6" y1="131.4" x2="317.7" y2="176.5" stroke="rgb(0,0,0)"  stroke-width="2.0"/>
<line x1="127.0" y1="141.0" x2="166.1" y2="118.0" stroke="rgb(0,0,0)"  stroke-width="2.0"/>
<line x1="166.1" y1="118.0" x2="206.4" y2="140.1" stroke="rgb(0,0,0)"  stroke-width="2.0"/>
<line x1="206.4" y1="140.1" x2="205.5" y2="186.0" stroke="rgb(0,0,0)"  stroke-width="2.0"/>
<line x1="205.5" y1="186.0" x2="166.9" y2="209.2" stroke="rgb(0,0,0)"  stroke-width="2.0"/>
<line x1="166.9" y1="209.2" x2="126.6" y2="186.4" stroke="rgb(0,0,0)"  stroke-width="2.0"/>
<line x1="126.6" y1="186.4" x2="127.0" y2="141.0" stroke="rgb(0,0,0)"  stroke-width="2.0"/>
<line x1="133.8" y1="180.4" x2="134.1" y2="147.1" stroke="rgb(0,0,0)"  stroke-width="2.0"/>
<line x1="178.1" y1="251.7" x2="166.9" y2="209.2" stroke="rgb(0,0,0)"  stroke-width="2.0"/>
<line x1="254.7" y1="132.9" x2="293.0" y2="140.6" stroke="rgb(0,0,0)"  stroke-width="2.0"/>
<line x1="293.0" y1="140.6" x2="328.7" y2="223.8" stroke="rgb(0,0,0)"  stroke-width="2.0"/>
<line x1="328.7" y1="223.8" x2="306.1" y2="263.3" stroke="rgb(0,0,0)"  stroke-width="2.0"/>
<line x1="319.5" y1="225.4" x2="302.9" y2="254.5" stroke="rgb(0,0,0)"  stroke-width="2.0"/>
<line x1="306.1" y1="263.3" x2="262.3" y2="275.7" stroke="rgb(0,0,0)"  stroke-width="2.0"/>
<line x1="262.3" y1="275.7" x2="215.8" y2="275.6" stroke="rgb(0,0,0)"  stroke-width="2.0"/>
<line x1="262.3" y1="279.9" x2="215.8" y2="279.8" stroke="rgb(0,0,0)"  stroke-width="2.0"/>
<line x1="262.3" y1="271.5" x2="215.8" y2="271.4" stroke="rgb(0,0,0)"  stroke-width="2.0"/>
<line x1="215.8" y1="275.6" x2="178.1" y2="251.7" stroke="rgb(0,0,0)"  stroke-width="2.0"/>
<text x="92.643758" y="138.770967" fill="rgb(127,153,153)"  stroke="rgb(127,153,153)" stroke-width="1" font-size="16" >Si</text>
<text x="159.088805" y="80.320057" fill="rgb(255,12,12)"  stroke="rgb(255,12,12)" stroke-width="1" font-size="16" >O</text>
<text x="313.682035" y="126.766202" fill="rgb(239,142,160)"  stroke="rgb(239,142,160)" stroke-width="1" font-size="16" >Co</text>
<text x="395.815292" y="167.231058" fill="rgb(17,127,178)"  stroke="rgb(17,127,178)" stroke-width="1" font-size="16" >Xx</text>
<text x="334.094381" y="91.836676" fill="rgb(17,127,178)"  stroke="rgb(17,127,178)" stroke-width="1" font-size="16" >Xx</text>
<text x="135.314308" y="236.858091" fill="rgb(191,191,191)"  stroke="rgb(191,191,191)" stroke-width="1" font-size="16" >H</text>
<text x="146.047484" y="278.699999" fill="rgb(191,191,191)"  stroke="rgb(191,191,191)" stroke-width="1" font-size="16" >H</text>
<text x="173.139562" y="291.879929" fill="rgb(191,191,191)"  stroke="rgb(191,191,191)" stroke-width="1" font-size="16" >H</text>
<text x="93.650181" y="209.889556" fill="rgb(191,191,191)"  stroke="rgb(191,191,191)" stroke-width="1" font-size="16" >H</text>
<text x="134.654408" y="104.799652" fill="rgb(191,191,191)"  stroke="rgb(191,191,191)" stroke-width="1" font-size="16" >H</text>
<text x="82.151642" y="85.774029" fill="rgb(191,191,191)"  stroke="rgb(191,191,191)" stroke-width="1" font-size="16" >H</text>
<text x="113.896169" y="80.130222" fill="rgb(191,191,191)"  stroke="rgb(191,191,191)" stroke-width="1" font-size="16" >H</text>
<text x="58.669430" y="96.760317" fill="rgb(191,191,191)"  stroke="rgb(191,191,191)" stroke-width="1" font-size="16" >H</text>
<text x="39.643806" y="149.263083" fill="rgb(191,191,191)"  stroke="rgb(191,191,191)" stroke-width="1" font-size="16" >H</text>
<text x="34.000000" y="117.521569" fill="rgb(191,191,191)"  stroke="rgb(191,191,191)" stroke-width="1" font-size="16" >H</text>
<text x="50.630095" y="172.742282" fill="rgb(191,191,191)"  stroke="rgb(191,191,191)" stroke-width="1" font-size="16" >H</text>
<text x="103.132861" y="191.773932" fill="rgb(191,191,191)"  stroke="rgb(191,191,191)" stroke-width="1" font-size="16" >H</text>
<text x="71.388334" y="197.414725" fill="rgb(191,191,191)"  stroke="rgb(191,191,191)" stroke-width="1" font-size="16" >H</text>
<text x="236.954047" y="101.548362" fill="rgb(191,191,191)"  stroke="rgb(191,191,191)" stroke-width="1" font-size="16" >H</text>
<text x="263.389238" y="117.886172" fill="rgb(191,191,191)"  stroke="rgb(191,191,191)" stroke-width="1" font-size="16" >H</text>
<text x="259.568444" y="110.551935" fill="rgb(191,191,191)"  stroke="rgb(191,191,191)" stroke-width="1" font-size="16" >H</text>
<text x="288.465456" y="206.834126" fill="rgb(191,191,191)"  stroke="rgb(191,191,191)" stroke-width="1" font-size="16" >H</text>
<text x="283.707543" y="168.409237" fill="rgb(191,191,191)"  stroke="rgb(191,191,191)" stroke-width="1" font-size="16" >H</text>
<text x="319.278891" y="295.782080" fill="rgb(191,191,191)"  stroke="rgb(191,191,191)" stroke-width="1" font-size="16" >H</text>
<text x="353.786563" y="233.570642" fill="rgb(191,191,191)"  stroke="rgb(191,191,191)" stroke-width="1" font-size="16" >H</text>
<text x="199.644058" y="226.257498" fill="rgb(191,191,191)"  stroke="rgb(191,191,191)" stroke-width="1" font-size="16" >H</text>
<text x="461.615505" y="175.580758" fill="rgb(191,191,191)"  stroke="rgb(191,191,191)" stroke-width="1" font-size="16" >H</text>
<text x="444.672033" y="122.369879" fill="rgb(191,191,191)"  stroke="rgb(191,191,191)" stroke-width="1" font-size="16" >H</text>
<text x="468.506794" y="144.083316" fill="rgb(191,191,191)"  stroke="rgb(191,191,191)" stroke-width="1" font-size="16" >H</text>
<text x="390.795228" y="98.209687" fill="rgb(191,191,191)"  stroke="rgb(191,191,191)" stroke-width="1" font-size="16" >H</text>
<text x="366.348778" y="48.000000" fill="rgb(191,191,191)"  stroke="rgb(191,191,191)" stroke-width="1" font-size="16" >H</text>
<text x="393.064200" y="66.046319" fill="rgb(191,191,191)"  stroke="rgb(191,191,191)" stroke-width="1" font-size="16" >H</text>
<text x="238.786100" y="248.085439" fill="rgb(191,191,191)"  stroke="rgb(191,191,191)" stroke-width="1" font-size="16" >H</text>
<text x="306.255649" y="208.828894" fill="rgb(191,191,191)"  stroke="rgb(191,191,191)" stroke-width="1" font-size="16" >H</text>
<text x="279.127412" y="162.298377" fill="rgb(191,191,191)"  stroke="rgb(191,191,191)" stroke-width="1" font-size="16" >H</text>
</svg>
</g>
<text font-size="18.000000" fill ="black" font-family="sans-serif"
x="10.000000" y="20.000000" ></text>
</svg>
