<?xml version="1.0"?>
<svg version="1.1" id="topsvg"
xmlns="http://www.w3.org/2000/svg" xmlns:xlink="http://www.w3.org/1999/xlink"
xmlns:cml="http://www.xml-cml.org/schema" x="0" y="0" width="200px" height="200px" viewBox="0 0 100 100">
<title> - Open Babel Depiction</title>
<rect x="0" y="0" width="100" height="100" fill="white"/>
<g transform="translate(0,0)">
<svg width="100" height="100" x="0" y="0" viewBox="0 0 385.648 422.901"
font-family="sans-serif" stroke="rgb(0,0,0)" stroke-width="2"  stroke-linecap="round">
<line x1="202.9" y1="316.0" x2="250.4" y2="305.7" stroke="rgb(0,0,0)"  stroke-width="2.0"/>
<line x1="250.4" y1="305.7" x2="236.8" y2="350.5" stroke="rgb(0,0,0)"  stroke-width="2.0"/>
<line x1="233.8" y1="157.3" x2="193.1" y2="177.3" stroke="rgb(0,0,0)"  stroke-width="2.0"/>
<polygon points="233.781103 157.324299 232.092730 112.145072 240.082231 112.554790 " stroke-width="2.000000" fill="rgb(0,0,0)"  stroke="rgb(0,0,0)" />
<line x1="266.5" y1="176.4" x2="267.3" y2="175.0" stroke="rgb(0,0,0)"  stroke-width="1.0"/>
<line x1="259.6" y1="173.3" x2="261.0" y2="170.8" stroke="rgb(0,0,0)"  stroke-width="1.0"/>
<line x1="252.6" y1="170.2" x2="254.7" y2="166.6" stroke="rgb(0,0,0)"  stroke-width="1.0"/>
<line x1="245.7" y1="167.1" x2="248.3" y2="162.3" stroke="rgb(0,0,0)"  stroke-width="1.0"/>
<line x1="238.8" y1="163.9" x2="242.0" y2="158.1" stroke="rgb(0,0,0)"  stroke-width="1.0"/>
<line x1="231.8" y1="160.8" x2="235.7" y2="153.8" stroke="rgb(0,0,0)"  stroke-width="1.0"/>
<line x1="236.1" y1="112.3" x2="193.3" y2="87.9" stroke="rgb(0,0,0)"  stroke-width="2.0"/>
<line x1="270.4" y1="87.9" x2="270.9" y2="53.0" stroke="rgb(0,0,0)"  stroke-width="2.0"/>
<line x1="276.4" y1="88.0" x2="276.9" y2="53.0" stroke="rgb(0,0,0)"  stroke-width="2.0"/>
<line x1="232.7" y1="163.3" x2="193.1" y2="177.3" stroke="rgb(0,0,0)"  stroke-width="2.0"/>
<line x1="275.2" y1="180.4" x2="275.2" y2="227.9" stroke="rgb(0,0,0)"  stroke-width="2.0"/>
<line x1="66.5" y1="108.3" x2="109.2" y2="84.9" stroke="rgb(0,0,0)"  stroke-width="2.0"/>
<line x1="69.4" y1="113.6" x2="112.1" y2="90.1" stroke="rgb(0,0,0)"  stroke-width="2.0"/>
<line x1="110.7" y1="87.5" x2="151.0" y2="111.0" stroke="rgb(0,0,0)"  stroke-width="2.0"/>
<line x1="193.3" y1="87.9" x2="151.0" y2="111.0" stroke="rgb(0,0,0)"  stroke-width="2.0"/>
<line x1="151.4" y1="156.9" x2="194.3" y2="174.6" stroke="rgb(0,0,0)"  stroke-width="2.0"/>
<line x1="149.1" y1="162.5" x2="192.0" y2="180.1" stroke="rgb(0,0,0)"  stroke-width="2.0"/>
<line x1="232.8" y1="194.2" x2="232.7" y2="163.3" stroke="rgb(0,0,0)"  stroke-width="2.0"/>
<line x1="202.9" y1="316.0" x2="188.9" y2="300.5" stroke="rgb(0,0,0)"  stroke-width="2.0"/>
<line x1="202.9" y1="316.0" x2="196.5" y2="335.9" stroke="rgb(0,0,0)"  stroke-width="2.0"/>
<line x1="202.9" y1="316.0" x2="182.5" y2="320.4" stroke="rgb(0,0,0)"  stroke-width="2.0"/>
<line x1="298.3" y1="304.1" x2="310.9" y2="320.7" stroke="rgb(0,0,0)"  stroke-width="2.0"/>
<line x1="298.3" y1="304.1" x2="289.3" y2="323.0" stroke="rgb(0,0,0)"  stroke-width="2.0"/>
<line x1="236.8" y1="350.5" x2="216.5" y2="355.2" stroke="rgb(0,0,0)"  stroke-width="2.0"/>
<line x1="236.8" y1="350.5" x2="251.1" y2="365.7" stroke="rgb(0,0,0)"  stroke-width="2.0"/>
<line x1="236.8" y1="350.5" x2="230.7" y2="370.5" stroke="rgb(0,0,0)"  stroke-width="2.0"/>
<line x1="233.8" y1="157.3" x2="216.3" y2="145.8" stroke="rgb(0,0,0)"  stroke-width="2.0"/>
<polygon points="236.087481 112.349931 218.074907 126.750887 214.238779 119.730621 " stroke-width="2.000000" fill="rgb(0,0,0)"  stroke="rgb(0,0,0)" />
<line x1="316.6" y1="110.4" x2="334.5" y2="99.6" stroke="rgb(0,0,0)"  stroke-width="2.0"/>
<line x1="316.6" y1="110.4" x2="315.9" y2="89.5" stroke="rgb(0,0,0)"  stroke-width="2.0"/>
<line x1="316.2" y1="158.4" x2="334.1" y2="169.2" stroke="rgb(0,0,0)"  stroke-width="2.0"/>
<line x1="316.2" y1="158.4" x2="315.6" y2="179.3" stroke="rgb(0,0,0)"  stroke-width="2.0"/>
<line x1="232.7" y1="163.3" x2="244.7" y2="146.2" stroke="rgb(0,0,0)"  stroke-width="2.0"/>
<line x1="232.7" y1="163.3" x2="252.6" y2="169.6" stroke="rgb(0,0,0)"  stroke-width="2.0"/>
<line x1="275.2" y1="180.4" x2="257.1" y2="190.9" stroke="rgb(0,0,0)"  stroke-width="2.0"/>
<line x1="68.0" y1="111.0" x2="51.1" y2="100.7" stroke="rgb(0,0,0)"  stroke-width="2.0"/>
<line x1="68.0" y1="111.0" x2="67.5" y2="130.6" stroke="rgb(0,0,0)"  stroke-width="2.0"/>
<line x1="110.7" y1="87.5" x2="110.9" y2="67.8" stroke="rgb(0,0,0)"  stroke-width="2.0"/>
<line x1="193.3" y1="87.9" x2="193.4" y2="67.0" stroke="rgb(0,0,0)"  stroke-width="2.0"/>
<line x1="193.3" y1="87.9" x2="175.3" y2="77.1" stroke="rgb(0,0,0)"  stroke-width="2.0"/>
<line x1="151.0" y1="111.0" x2="150.8" y2="131.9" stroke="rgb(0,0,0)"  stroke-width="2.0"/>
<line x1="151.0" y1="111.0" x2="168.9" y2="121.7" stroke="rgb(0,0,0)"  stroke-width="2.0"/>
<line x1="150.3" y1="159.7" x2="147.7" y2="140.2" stroke="rgb(0,0,0)"  stroke-width="2.0"/>
<line x1="150.3" y1="159.7" x2="134.7" y2="171.7" stroke="rgb(0,0,0)"  stroke-width="2.0"/>
<line x1="248.2" y1="248.8" x2="275.2" y2="227.9" stroke="rgb(0,0,0)"  stroke-width="2.0"/>
<line x1="253.3" y1="253.9" x2="274.8" y2="237.3" stroke="rgb(0,0,0)"  stroke-width="2.0"/>
<line x1="275.2" y1="227.9" x2="302.4" y2="251.6" stroke="rgb(0,0,0)"  stroke-width="2.0"/>
<line x1="308.3" y1="272.5" x2="298.3" y2="304.1" stroke="rgb(0,0,0)"  stroke-width="2.0"/>
<line x1="298.3" y1="304.1" x2="250.4" y2="305.7" stroke="rgb(0,0,0)"  stroke-width="2.0"/>
<line x1="250.4" y1="305.7" x2="239.0" y2="271.4" stroke="rgb(0,0,0)"  stroke-width="2.0"/>
<line x1="233.8" y1="157.3" x2="275.2" y2="180.4" stroke="rgb(0,0,0)"  stroke-width="2.0"/>
<line x1="275.2" y1="180.4" x2="316.2" y2="158.4" stroke="rgb(0,0,0)"  stroke-width="2.0"/>
<line x1="316.2" y1="158.4" x2="316.6" y2="110.4" stroke="rgb(0,0,0)"  stroke-width="2.0"/>
<line x1="316.6" y1="110.4" x2="273.4" y2="88.0" stroke="rgb(0,0,0)"  stroke-width="2.0"/>
<line x1="273.4" y1="88.0" x2="236.1" y2="112.3" stroke="rgb(0,0,0)"  stroke-width="2.0"/>
<line x1="236.1" y1="112.3" x2="233.8" y2="157.3" stroke="rgb(0,0,0)"  stroke-width="2.0"/>
<text x="228.931124" y="267.058371" fill="rgb(12,12,255)"  stroke="rgb(12,12,255)" stroke-width="1" font-size="16" >N</text>
<text x="306.182108" y="268.116516" fill="rgb(255,12,12)"  stroke="rgb(255,12,12)" stroke-width="1" font-size="16" >O</text>
<text x="268.085689" y="48.000000" fill="rgb(255,12,12)"  stroke="rgb(255,12,12)" stroke-width="1" font-size="16" >O</text>
<text x="226.814832" y="215.202887" fill="rgb(191,191,191)"  stroke="rgb(191,191,191)" stroke-width="1" font-size="16" >H</text>
<text x="174.125619" y="298.874163" fill="rgb(191,191,191)"  stroke="rgb(191,191,191)" stroke-width="1" font-size="16" >H</text>
<text x="186.502656" y="356.269036" fill="rgb(191,191,191)"  stroke="rgb(191,191,191)" stroke-width="1" font-size="16" >H</text>
<text x="163.745665" y="331.144542" fill="rgb(191,191,191)"  stroke="rgb(191,191,191)" stroke-width="1" font-size="16" >H</text>
<text x="312.806152" y="339.073566" fill="rgb(191,191,191)"  stroke="rgb(191,191,191)" stroke-width="1" font-size="16" >H</text>
<text x="277.761610" y="342.707978" fill="rgb(191,191,191)"  stroke="rgb(191,191,191)" stroke-width="1" font-size="16" >H</text>
<text x="197.793024" y="366.139118" fill="rgb(191,191,191)"  stroke="rgb(191,191,191)" stroke-width="1" font-size="16" >H</text>
<text x="253.963938" y="383.232711" fill="rgb(191,191,191)"  stroke="rgb(191,191,191)" stroke-width="1" font-size="16" >H</text>
<text x="220.943986" y="390.901061" fill="rgb(191,191,191)"  stroke="rgb(191,191,191)" stroke-width="1" font-size="16" >H</text>
<text x="199.469858" y="146.680419" fill="rgb(191,191,191)"  stroke="rgb(191,191,191)" stroke-width="1" font-size="16" >H</text>
<text x="200.340260" y="136.604891" fill="rgb(191,191,191)"  stroke="rgb(191,191,191)" stroke-width="1" font-size="16" >H</text>
<text x="339.648412" y="100.944742" fill="rgb(191,191,191)"  stroke="rgb(191,191,191)" stroke-width="1" font-size="16" >H</text>
<text x="309.537442" y="84.538580" fill="rgb(191,191,191)"  stroke="rgb(191,191,191)" stroke-width="1" font-size="16" >H</text>
<text x="339.182382" y="183.981884" fill="rgb(191,191,191)"  stroke="rgb(191,191,191)" stroke-width="1" font-size="16" >H</text>
<text x="309.275593" y="200.313325" fill="rgb(191,191,191)"  stroke="rgb(191,191,191)" stroke-width="1" font-size="16" >H</text>
<text x="246.151373" y="143.556819" fill="rgb(191,191,191)"  stroke="rgb(191,191,191)" stroke-width="1" font-size="16" >H</text>
<text x="258.991715" y="181.452543" fill="rgb(191,191,191)"  stroke="rgb(191,191,191)" stroke-width="1" font-size="16" >H</text>
<text x="239.941414" y="205.537674" fill="rgb(191,191,191)"  stroke="rgb(191,191,191)" stroke-width="1" font-size="16" >H</text>
<text x="34.000000" y="102.005343" fill="rgb(191,191,191)"  stroke="rgb(191,191,191)" stroke-width="1" font-size="16" >H</text>
<text x="61.262335" y="151.640171" fill="rgb(191,191,191)"  stroke="rgb(191,191,191)" stroke-width="1" font-size="16" >H</text>
<text x="105.063336" y="62.803790" fill="rgb(191,191,191)"  stroke="rgb(191,191,191)" stroke-width="1" font-size="16" >H</text>
<text x="187.564848" y="61.963270" fill="rgb(191,191,191)"  stroke="rgb(191,191,191)" stroke-width="1" font-size="16" >H</text>
<text x="158.169132" y="78.444081" fill="rgb(191,191,191)"  stroke="rgb(191,191,191)" stroke-width="1" font-size="16" >H</text>
<text x="144.603550" y="152.864517" fill="rgb(191,191,191)"  stroke="rgb(191,191,191)" stroke-width="1" font-size="16" >H</text>
<text x="174.090606" y="136.437796" fill="rgb(191,191,191)"  stroke="rgb(191,191,191)" stroke-width="1" font-size="16" >H</text>
<text x="139.929073" y="135.298186" fill="rgb(191,191,191)"  stroke="rgb(191,191,191)" stroke-width="1" font-size="16" >H</text>
<text x="118.376527" y="187.665531" fill="rgb(191,191,191)"  stroke="rgb(191,191,191)" stroke-width="1" font-size="16" >H</text>
</svg>
</g>
<text font-size="18.000000" fill ="black" font-family="sans-serif"
x="10.000000" y="20.000000" ></text>
</svg>
