<?xml version="1.0"?>
<svg version="1.1" id="topsvg"
xmlns="http://www.w3.org/2000/svg" xmlns:xlink="http://www.w3.org/1999/xlink"
xmlns:cml="http://www.xml-cml.org/schema" x="0" y="0" width="200px" height="200px" viewBox="0 0 100 100">
<title> - Open Babel Depiction</title>
<rect x="0" y="0" width="100" height="100" fill="white"/>
<g transform="translate(0,0)">
<svg width="100" height="100" x="0" y="0" viewBox="0 0 403.541 445.955"
font-family="sans-serif" stroke="rgb(0,0,0)" stroke-width="2"  stroke-linecap="round">
<line x1="299.9" y1="321.9" x2="329.4" y2="361.4" stroke="rgb(0,0,0)"  stroke-width="2.0"/>
<line x1="299.9" y1="371.6" x2="299.9" y2="321.9" stroke="rgb(0,0,0)"  stroke-width="2.0"/>
<line x1="276.0" y1="200.6" x2="275.6" y2="248.7" stroke="rgb(0,0,0)"  stroke-width="2.0"/>
<line x1="234.7" y1="178.4" x2="193.4" y2="196.2" stroke="rgb(0,0,0)"  stroke-width="2.0"/>
<polygon points="234.688328 178.358171 230.826538 130.030151 238.826506 130.053032 " stroke-width="2.000000" fill="rgb(0,0,0)"  stroke="rgb(0,0,0)" />
<line x1="234.8" y1="130.0" x2="193.0" y2="104.2" stroke="rgb(0,0,0)"  stroke-width="2.0"/>
<line x1="234.0" y1="118.9" x2="235.6" y2="118.9" stroke="rgb(0,0,0)"  stroke-width="1.0"/>
<line x1="233.4" y1="110.0" x2="236.3" y2="110.0" stroke="rgb(0,0,0)"  stroke-width="1.0"/>
<line x1="232.8" y1="101.1" x2="236.9" y2="101.1" stroke="rgb(0,0,0)"  stroke-width="1.0"/>
<line x1="232.2" y1="92.2" x2="237.6" y2="92.2" stroke="rgb(0,0,0)"  stroke-width="1.0"/>
<line x1="231.5" y1="83.3" x2="238.2" y2="83.3" stroke="rgb(0,0,0)"  stroke-width="1.0"/>
<line x1="230.9" y1="74.4" x2="238.9" y2="74.4" stroke="rgb(0,0,0)"  stroke-width="1.0"/>
<line x1="193.0" y1="104.2" x2="201.6" y2="71.9" stroke="rgb(0,0,0)"  stroke-width="2.0"/>
<line x1="67.2" y1="127.9" x2="109.3" y2="103.6" stroke="rgb(0,0,0)"  stroke-width="2.0"/>
<line x1="70.2" y1="133.1" x2="112.3" y2="108.8" stroke="rgb(0,0,0)"  stroke-width="2.0"/>
<line x1="110.8" y1="106.2" x2="152.3" y2="128.4" stroke="rgb(0,0,0)"  stroke-width="2.0"/>
<line x1="152.3" y1="128.4" x2="193.0" y2="104.2" stroke="rgb(0,0,0)"  stroke-width="2.0"/>
<line x1="304.4" y1="77.1" x2="323.5" y2="76.7" stroke="rgb(0,0,0)"  stroke-width="2.0"/>
<line x1="285.1" y1="88.7" x2="275.8" y2="105.5" stroke="rgb(0,0,0)"  stroke-width="2.0"/>
<line x1="152.0" y1="174.6" x2="194.6" y2="193.5" stroke="rgb(0,0,0)"  stroke-width="2.0"/>
<line x1="149.5" y1="180.1" x2="192.2" y2="199.0" stroke="rgb(0,0,0)"  stroke-width="2.0"/>
<line x1="217.5" y1="55.9" x2="222.4" y2="54.5" stroke="rgb(0,0,0)"  stroke-width="2.0"/>
<line x1="252.0" y1="321.6" x2="239.7" y2="339.0" stroke="rgb(0,0,0)"  stroke-width="2.0"/>
<line x1="252.0" y1="321.6" x2="230.9" y2="318.7" stroke="rgb(0,0,0)"  stroke-width="2.0"/>
<line x1="329.4" y1="361.4" x2="320.9" y2="381.1" stroke="rgb(0,0,0)"  stroke-width="2.0"/>
<line x1="329.4" y1="361.4" x2="350.6" y2="358.9" stroke="rgb(0,0,0)"  stroke-width="2.0"/>
<line x1="329.4" y1="361.4" x2="342.2" y2="378.5" stroke="rgb(0,0,0)"  stroke-width="2.0"/>
<line x1="299.9" y1="371.6" x2="281.3" y2="382.2" stroke="rgb(0,0,0)"  stroke-width="2.0"/>
<line x1="299.9" y1="371.6" x2="318.4" y2="382.3" stroke="rgb(0,0,0)"  stroke-width="2.0"/>
<line x1="299.9" y1="371.6" x2="299.8" y2="393.0" stroke="rgb(0,0,0)"  stroke-width="2.0"/>
<line x1="234.7" y1="178.4" x2="216.8" y2="166.6" stroke="rgb(0,0,0)"  stroke-width="2.0"/>
<line x1="193.4" y1="196.2" x2="193.3" y2="216.4" stroke="rgb(0,0,0)"  stroke-width="2.0"/>
<line x1="193.0" y1="104.2" x2="212.9" y2="96.3" stroke="rgb(0,0,0)"  stroke-width="2.0"/>
<line x1="68.7" y1="130.5" x2="51.3" y2="120.5" stroke="rgb(0,0,0)"  stroke-width="2.0"/>
<line x1="68.7" y1="130.5" x2="68.8" y2="150.7" stroke="rgb(0,0,0)"  stroke-width="2.0"/>
<line x1="110.8" y1="106.2" x2="110.5" y2="86.0" stroke="rgb(0,0,0)"  stroke-width="2.0"/>
<line x1="152.3" y1="128.4" x2="152.8" y2="149.8" stroke="rgb(0,0,0)"  stroke-width="2.0"/>
<line x1="152.3" y1="128.4" x2="171.0" y2="138.8" stroke="rgb(0,0,0)"  stroke-width="2.0"/>
<line x1="323.5" y1="76.7" x2="334.6" y2="95.1" stroke="rgb(0,0,0)"  stroke-width="2.0"/>
<line x1="323.5" y1="76.7" x2="333.8" y2="58.0" stroke="rgb(0,0,0)"  stroke-width="2.0"/>
<line x1="323.5" y1="76.7" x2="344.9" y2="76.3" stroke="rgb(0,0,0)"  stroke-width="2.0"/>
<line x1="318.2" y1="129.5" x2="335.6" y2="119.4" stroke="rgb(0,0,0)"  stroke-width="2.0"/>
<line x1="317.7" y1="178.7" x2="334.9" y2="189.2" stroke="rgb(0,0,0)"  stroke-width="2.0"/>
<line x1="150.7" y1="177.3" x2="148.6" y2="157.3" stroke="rgb(0,0,0)"  stroke-width="2.0"/>
<line x1="150.7" y1="177.3" x2="134.4" y2="189.2" stroke="rgb(0,0,0)"  stroke-width="2.0"/>
<line x1="234.9" y1="74.4" x2="253.4" y2="63.7" stroke="rgb(0,0,0)"  stroke-width="2.0"/>
<line x1="234.9" y1="74.4" x2="216.4" y2="63.7" stroke="rgb(0,0,0)"  stroke-width="2.0"/>
<line x1="234.9" y1="74.4" x2="234.9" y2="53.0" stroke="rgb(0,0,0)"  stroke-width="2.0"/>
<line x1="252.0" y1="321.6" x2="240.5" y2="289.4" stroke="rgb(0,0,0)"  stroke-width="2.0"/>
<line x1="246.6" y1="269.6" x2="275.6" y2="248.7" stroke="rgb(0,0,0)"  stroke-width="2.0"/>
<line x1="275.6" y1="248.7" x2="301.6" y2="267.3" stroke="rgb(0,0,0)"  stroke-width="2.0"/>
<line x1="276.3" y1="258.1" x2="296.5" y2="272.4" stroke="rgb(0,0,0)"  stroke-width="2.0"/>
<line x1="310.5" y1="288.8" x2="299.9" y2="321.9" stroke="rgb(0,0,0)"  stroke-width="2.0"/>
<line x1="299.9" y1="321.9" x2="252.0" y2="321.6" stroke="rgb(0,0,0)"  stroke-width="2.0"/>
<line x1="234.8" y1="130.0" x2="234.7" y2="178.4" stroke="rgb(0,0,0)"  stroke-width="2.0"/>
<line x1="234.7" y1="178.4" x2="276.0" y2="200.6" stroke="rgb(0,0,0)"  stroke-width="2.0"/>
<line x1="276.0" y1="200.6" x2="317.7" y2="178.7" stroke="rgb(0,0,0)"  stroke-width="2.0"/>
<line x1="278.0" y1="191.4" x2="309.0" y2="175.1" stroke="rgb(0,0,0)"  stroke-width="2.0"/>
<line x1="317.7" y1="178.7" x2="318.2" y2="129.5" stroke="rgb(0,0,0)"  stroke-width="2.0"/>
<line x1="318.2" y1="129.5" x2="275.8" y2="105.5" stroke="rgb(0,0,0)"  stroke-width="2.0"/>
<line x1="309.4" y1="132.8" x2="277.5" y2="114.7" stroke="rgb(0,0,0)"  stroke-width="2.0"/>
<line x1="275.8" y1="105.5" x2="234.8" y2="130.0" stroke="rgb(0,0,0)"  stroke-width="2.0"/>
<text x="230.092767" y="285.205654" fill="rgb(255,12,12)"  stroke="rgb(255,12,12)" stroke-width="1" font-size="16" >O</text>
<text x="308.458571" y="284.405413" fill="rgb(12,12,255)"  stroke="rgb(12,12,255)" stroke-width="1" font-size="16" >N</text>
<text x="285.380125" y="85.354215" fill="rgb(255,12,12)"  stroke="rgb(255,12,12)" stroke-width="1" font-size="16" >O</text>
<text x="198.902638" y="67.292543" fill="rgb(255,12,12)"  stroke="rgb(255,12,12)" stroke-width="1" font-size="16" >O</text>
<text x="228.993641" y="59.145507" fill="rgb(191,191,191)"  stroke="rgb(191,191,191)" stroke-width="1" font-size="16" >H</text>
<text x="226.173145" y="357.637405" fill="rgb(191,191,191)"  stroke="rgb(191,191,191)" stroke-width="1" font-size="16" >H</text>
<text x="211.976831" y="324.929453" fill="rgb(191,191,191)"  stroke="rgb(191,191,191)" stroke-width="1" font-size="16" >H</text>
<text x="309.806699" y="400.999223" fill="rgb(191,191,191)"  stroke="rgb(191,191,191)" stroke-width="1" font-size="16" >H</text>
<text x="357.540637" y="365.375491" fill="rgb(191,191,191)"  stroke="rgb(191,191,191)" stroke-width="1" font-size="16" >H</text>
<text x="343.957354" y="396.966958" fill="rgb(191,191,191)"  stroke="rgb(191,191,191)" stroke-width="1" font-size="16" >H</text>
<text x="264.058505" y="396.727807" fill="rgb(191,191,191)"  stroke="rgb(191,191,191)" stroke-width="1" font-size="16" >H</text>
<text x="323.620027" y="396.793340" fill="rgb(191,191,191)"  stroke="rgb(191,191,191)" stroke-width="1" font-size="16" >H</text>
<text x="293.820348" y="413.954504" fill="rgb(191,191,191)"  stroke="rgb(191,191,191)" stroke-width="1" font-size="16" >H</text>
<text x="199.968459" y="167.445331" fill="rgb(191,191,191)"  stroke="rgb(191,191,191)" stroke-width="1" font-size="16" >H</text>
<text x="187.273502" y="237.415873" fill="rgb(191,191,191)"  stroke="rgb(191,191,191)" stroke-width="1" font-size="16" >H</text>
<text x="218.953418" y="99.458747" fill="rgb(191,191,191)"  stroke="rgb(191,191,191)" stroke-width="1" font-size="16" >H</text>
<text x="34.000000" y="121.984751" fill="rgb(191,191,191)"  stroke="rgb(191,191,191)" stroke-width="1" font-size="16" >H</text>
<text x="62.772189" y="171.706347" fill="rgb(191,191,191)"  stroke="rgb(191,191,191)" stroke-width="1" font-size="16" >H</text>
<text x="104.252788" y="81.039334" fill="rgb(191,191,191)"  stroke="rgb(191,191,191)" stroke-width="1" font-size="16" >H</text>
<text x="147.055636" y="170.794520" fill="rgb(191,191,191)"  stroke="rgb(191,191,191)" stroke-width="1" font-size="16" >H</text>
<text x="176.363089" y="153.073919" fill="rgb(191,191,191)"  stroke="rgb(191,191,191)" stroke-width="1" font-size="16" >H</text>
<text x="335.274475" y="114.182321" fill="rgb(191,191,191)"  stroke="rgb(191,191,191)" stroke-width="1" font-size="16" >H</text>
<text x="334.130875" y="54.631744" fill="rgb(191,191,191)"  stroke="rgb(191,191,191)" stroke-width="1" font-size="16" >H</text>
<text x="351.893446" y="84.076904" fill="rgb(191,191,191)"  stroke="rgb(191,191,191)" stroke-width="1" font-size="16" >H</text>
<text x="340.900337" y="120.896902" fill="rgb(191,191,191)"  stroke="rgb(191,191,191)" stroke-width="1" font-size="16" >H</text>
<text x="340.017440" y="203.937871" fill="rgb(191,191,191)"  stroke="rgb(191,191,191)" stroke-width="1" font-size="16" >H</text>
<text x="141.211308" y="152.370663" fill="rgb(191,191,191)"  stroke="rgb(191,191,191)" stroke-width="1" font-size="16" >H</text>
<text x="117.944417" y="204.894255" fill="rgb(191,191,191)"  stroke="rgb(191,191,191)" stroke-width="1" font-size="16" >H</text>
<text x="258.691415" y="65.228324" fill="rgb(191,191,191)"  stroke="rgb(191,191,191)" stroke-width="1" font-size="16" >H</text>
<text x="199.129897" y="65.159534" fill="rgb(191,191,191)"  stroke="rgb(191,191,191)" stroke-width="1" font-size="16" >H</text>
<text x="228.930514" y="48.000000" fill="rgb(191,191,191)"  stroke="rgb(191,191,191)" stroke-width="1" font-size="16" >H</text>
</svg>
</g>
<text font-size="18.000000" fill ="black" font-family="sans-serif"
x="10.000000" y="20.000000" ></text>
</svg>
