<?xml version="1.0"?>
<svg version="1.1" id="topsvg"
xmlns="http://www.w3.org/2000/svg" xmlns:xlink="http://www.w3.org/1999/xlink"
xmlns:cml="http://www.xml-cml.org/schema" x="0" y="0" width="200px" height="200px" viewBox="0 0 100 100">
<title> - Open Babel Depiction</title>
<rect x="0" y="0" width="100" height="100" fill="white"/>
<g transform="translate(0,0)">
<svg width="100" height="100" x="0" y="0" viewBox="0 0 404.446 466.552"
font-family="sans-serif" stroke="rgb(0,0,0)" stroke-width="2"  stroke-linecap="round">
<line x1="302.7" y1="342.8" x2="330.5" y2="382.5" stroke="rgb(0,0,0)"  stroke-width="2.0"/>
<line x1="301.6" y1="392.4" x2="302.7" y2="342.8" stroke="rgb(0,0,0)"  stroke-width="2.0"/>
<line x1="277.4" y1="221.4" x2="277.5" y2="268.9" stroke="rgb(0,0,0)"  stroke-width="2.0"/>
<line x1="236.2" y1="197.5" x2="194.3" y2="216.6" stroke="rgb(0,0,0)"  stroke-width="2.0"/>
<polygon points="236.207484 197.528501 232.287186 148.773268 240.287175 148.786347 " stroke-width="2.000000" fill="rgb(0,0,0)"  stroke="rgb(0,0,0)" />
<line x1="67.1" y1="147.1" x2="109.9" y2="121.9" stroke="rgb(0,0,0)"  stroke-width="2.0"/>
<line x1="70.2" y1="152.3" x2="113.0" y2="127.0" stroke="rgb(0,0,0)"  stroke-width="2.0"/>
<line x1="111.4" y1="124.4" x2="153.3" y2="148.0" stroke="rgb(0,0,0)"  stroke-width="2.0"/>
<line x1="193.0" y1="124.2" x2="153.3" y2="148.0" stroke="rgb(0,0,0)"  stroke-width="2.0"/>
<line x1="193.0" y1="124.2" x2="202.9" y2="89.7" stroke="rgb(0,0,0)"  stroke-width="2.0"/>
<line x1="236.3" y1="148.8" x2="193.0" y2="124.2" stroke="rgb(0,0,0)"  stroke-width="2.0"/>
<line x1="235.2" y1="137.6" x2="236.8" y2="137.6" stroke="rgb(0,0,0)"  stroke-width="1.0"/>
<line x1="234.3" y1="128.7" x2="237.2" y2="128.6" stroke="rgb(0,0,0)"  stroke-width="1.0"/>
<line x1="233.4" y1="119.8" x2="237.6" y2="119.7" stroke="rgb(0,0,0)"  stroke-width="1.0"/>
<line x1="232.5" y1="110.9" x2="238.0" y2="110.7" stroke="rgb(0,0,0)"  stroke-width="1.0"/>
<line x1="231.6" y1="102.0" x2="238.4" y2="101.8" stroke="rgb(0,0,0)"  stroke-width="1.0"/>
<line x1="230.8" y1="93.0" x2="238.8" y2="92.8" stroke="rgb(0,0,0)"  stroke-width="1.0"/>
<line x1="285.7" y1="86.1" x2="275.6" y2="70.2" stroke="rgb(0,0,0)"  stroke-width="2.0"/>
<line x1="286.5" y1="108.6" x2="277.7" y2="125.3" stroke="rgb(0,0,0)"  stroke-width="2.0"/>
<line x1="153.6" y1="193.5" x2="195.7" y2="213.9" stroke="rgb(0,0,0)"  stroke-width="2.0"/>
<line x1="150.9" y1="198.9" x2="193.0" y2="219.3" stroke="rgb(0,0,0)"  stroke-width="2.0"/>
<line x1="219.0" y1="74.0" x2="223.8" y2="72.8" stroke="rgb(0,0,0)"  stroke-width="2.0"/>
<line x1="253.2" y1="342.9" x2="240.9" y2="360.1" stroke="rgb(0,0,0)"  stroke-width="2.0"/>
<line x1="253.2" y1="342.9" x2="232.3" y2="339.8" stroke="rgb(0,0,0)"  stroke-width="2.0"/>
<line x1="330.5" y1="382.5" x2="321.5" y2="401.6" stroke="rgb(0,0,0)"  stroke-width="2.0"/>
<line x1="330.5" y1="382.5" x2="351.5" y2="380.6" stroke="rgb(0,0,0)"  stroke-width="2.0"/>
<line x1="330.5" y1="382.5" x2="342.6" y2="399.8" stroke="rgb(0,0,0)"  stroke-width="2.0"/>
<line x1="301.6" y1="392.4" x2="283.1" y2="402.6" stroke="rgb(0,0,0)"  stroke-width="2.0"/>
<line x1="301.6" y1="392.4" x2="319.6" y2="403.4" stroke="rgb(0,0,0)"  stroke-width="2.0"/>
<line x1="301.6" y1="392.4" x2="301.1" y2="413.6" stroke="rgb(0,0,0)"  stroke-width="2.0"/>
<line x1="236.2" y1="197.5" x2="254.5" y2="187.0" stroke="rgb(0,0,0)"  stroke-width="2.0"/>
<line x1="194.3" y1="216.6" x2="194.1" y2="236.5" stroke="rgb(0,0,0)"  stroke-width="2.0"/>
<line x1="68.6" y1="149.7" x2="51.3" y2="139.9" stroke="rgb(0,0,0)"  stroke-width="2.0"/>
<line x1="68.6" y1="149.7" x2="68.8" y2="169.6" stroke="rgb(0,0,0)"  stroke-width="2.0"/>
<line x1="111.4" y1="124.4" x2="111.2" y2="104.5" stroke="rgb(0,0,0)"  stroke-width="2.0"/>
<line x1="153.3" y1="148.0" x2="153.6" y2="169.1" stroke="rgb(0,0,0)"  stroke-width="2.0"/>
<line x1="153.3" y1="148.0" x2="171.8" y2="158.3" stroke="rgb(0,0,0)"  stroke-width="2.0"/>
<line x1="188.9" y1="122.1" x2="189.9" y2="120.8" stroke="rgb(0,0,0)"  stroke-width="1.0"/>
<line x1="185.6" y1="120.3" x2="187.4" y2="118.1" stroke="rgb(0,0,0)"  stroke-width="1.0"/>
<line x1="182.3" y1="118.6" x2="184.9" y2="115.3" stroke="rgb(0,0,0)"  stroke-width="1.0"/>
<line x1="179.1" y1="116.9" x2="182.4" y2="112.6" stroke="rgb(0,0,0)"  stroke-width="1.0"/>
<line x1="175.8" y1="115.2" x2="179.9" y2="109.9" stroke="rgb(0,0,0)"  stroke-width="1.0"/>
<line x1="172.5" y1="113.5" x2="177.3" y2="107.1" stroke="rgb(0,0,0)"  stroke-width="1.0"/>
<line x1="275.6" y1="70.2" x2="285.5" y2="51.5" stroke="rgb(0,0,0)"  stroke-width="2.0"/>
<line x1="275.6" y1="70.2" x2="254.5" y2="71.0" stroke="rgb(0,0,0)"  stroke-width="2.0"/>
<line x1="275.6" y1="70.2" x2="264.4" y2="52.3" stroke="rgb(0,0,0)"  stroke-width="2.0"/>
<line x1="319.4" y1="148.2" x2="336.5" y2="138.0" stroke="rgb(0,0,0)"  stroke-width="2.0"/>
<line x1="319.5" y1="198.0" x2="336.7" y2="208.1" stroke="rgb(0,0,0)"  stroke-width="2.0"/>
<line x1="152.2" y1="196.2" x2="150.8" y2="176.4" stroke="rgb(0,0,0)"  stroke-width="2.0"/>
<line x1="152.2" y1="196.2" x2="135.8" y2="207.4" stroke="rgb(0,0,0)"  stroke-width="2.0"/>
<line x1="234.8" y1="92.9" x2="252.7" y2="81.9" stroke="rgb(0,0,0)"  stroke-width="2.0"/>
<line x1="234.8" y1="92.9" x2="216.2" y2="82.9" stroke="rgb(0,0,0)"  stroke-width="2.0"/>
<line x1="234.8" y1="92.9" x2="234.2" y2="71.8" stroke="rgb(0,0,0)"  stroke-width="2.0"/>
<line x1="253.2" y1="342.9" x2="242.2" y2="310.1" stroke="rgb(0,0,0)"  stroke-width="2.0"/>
<line x1="248.6" y1="290.1" x2="277.5" y2="268.9" stroke="rgb(0,0,0)"  stroke-width="2.0"/>
<line x1="277.5" y1="268.9" x2="303.8" y2="288.3" stroke="rgb(0,0,0)"  stroke-width="2.0"/>
<line x1="278.0" y1="278.3" x2="298.6" y2="293.4" stroke="rgb(0,0,0)"  stroke-width="2.0"/>
<line x1="312.8" y1="310.2" x2="302.7" y2="342.8" stroke="rgb(0,0,0)"  stroke-width="2.0"/>
<line x1="302.7" y1="342.8" x2="253.2" y2="342.9" stroke="rgb(0,0,0)"  stroke-width="2.0"/>
<line x1="236.3" y1="148.8" x2="236.2" y2="197.5" stroke="rgb(0,0,0)"  stroke-width="2.0"/>
<line x1="236.2" y1="197.5" x2="277.4" y2="221.4" stroke="rgb(0,0,0)"  stroke-width="2.0"/>
<line x1="277.4" y1="221.4" x2="319.5" y2="198.0" stroke="rgb(0,0,0)"  stroke-width="2.0"/>
<line x1="279.1" y1="212.2" x2="310.8" y2="194.6" stroke="rgb(0,0,0)"  stroke-width="2.0"/>
<line x1="319.5" y1="198.0" x2="319.4" y2="148.2" stroke="rgb(0,0,0)"  stroke-width="2.0"/>
<line x1="319.4" y1="148.2" x2="277.7" y2="125.3" stroke="rgb(0,0,0)"  stroke-width="2.0"/>
<line x1="310.7" y1="151.6" x2="279.5" y2="134.5" stroke="rgb(0,0,0)"  stroke-width="2.0"/>
<line x1="277.7" y1="125.3" x2="236.3" y2="148.8" stroke="rgb(0,0,0)"  stroke-width="2.0"/>
<text x="232.113822" y="305.796135" fill="rgb(255,12,12)"  stroke="rgb(255,12,12)" stroke-width="1" font-size="16" >O</text>
<text x="286.600656" y="105.149292" fill="rgb(255,12,12)"  stroke="rgb(255,12,12)" stroke-width="1" font-size="16" >O</text>
<text x="310.723162" y="305.796135" fill="rgb(12,12,255)"  stroke="rgb(12,12,255)" stroke-width="1" font-size="16" >N</text>
<text x="200.429722" y="85.206066" fill="rgb(255,12,12)"  stroke="rgb(255,12,12)" stroke-width="1" font-size="16" >O</text>
<text x="230.417883" y="77.666786" fill="rgb(191,191,191)"  stroke="rgb(191,191,191)" stroke-width="1" font-size="16" >H</text>
<text x="227.284718" y="378.646557" fill="rgb(191,191,191)"  stroke="rgb(191,191,191)" stroke-width="1" font-size="16" >H</text>
<text x="213.454175" y="345.831543" fill="rgb(191,191,191)"  stroke="rgb(191,191,191)" stroke-width="1" font-size="16" >H</text>
<text x="310.056995" y="421.401968" fill="rgb(191,191,191)"  stroke="rgb(191,191,191)" stroke-width="1" font-size="16" >H</text>
<text x="358.445641" y="387.504663" fill="rgb(191,191,191)"  stroke="rgb(191,191,191)" stroke-width="1" font-size="16" >H</text>
<text x="344.036627" y="418.421914" fill="rgb(191,191,191)"  stroke="rgb(191,191,191)" stroke-width="1" font-size="16" >H</text>
<text x="265.671352" y="416.860305" fill="rgb(191,191,191)"  stroke="rgb(191,191,191)" stroke-width="1" font-size="16" >H</text>
<text x="324.737811" y="418.141639" fill="rgb(191,191,191)"  stroke="rgb(191,191,191)" stroke-width="1" font-size="16" >H</text>
<text x="294.834692" y="434.551990" fill="rgb(191,191,191)"  stroke="rgb(191,191,191)" stroke-width="1" font-size="16" >H</text>
<text x="259.774715" y="188.520416" fill="rgb(191,191,191)"  stroke="rgb(191,191,191)" stroke-width="1" font-size="16" >H</text>
<text x="187.969520" y="257.462876" fill="rgb(191,191,191)"  stroke="rgb(191,191,191)" stroke-width="1" font-size="16" >H</text>
<text x="34.000000" y="141.531898" fill="rgb(191,191,191)"  stroke="rgb(191,191,191)" stroke-width="1" font-size="16" >H</text>
<text x="62.962639" y="190.604637" fill="rgb(191,191,191)"  stroke="rgb(191,191,191)" stroke-width="1" font-size="16" >H</text>
<text x="105.102816" y="99.550036" fill="rgb(191,191,191)"  stroke="rgb(191,191,191)" stroke-width="1" font-size="16" >H</text>
<text x="147.780410" y="190.096128" fill="rgb(191,191,191)"  stroke="rgb(191,191,191)" stroke-width="1" font-size="16" >H</text>
<text x="177.104503" y="172.608245" fill="rgb(191,191,191)"  stroke="rgb(191,191,191)" stroke-width="1" font-size="16" >H</text>
<text x="159.980964" y="111.445039" fill="rgb(191,191,191)"  stroke="rgb(191,191,191)" stroke-width="1" font-size="16" >H</text>
<text x="285.554078" y="48.000000" fill="rgb(191,191,191)"  stroke="rgb(191,191,191)" stroke-width="1" font-size="16" >H</text>
<text x="235.542858" y="79.454192" fill="rgb(191,191,191)"  stroke="rgb(191,191,191)" stroke-width="1" font-size="16" >H</text>
<text x="251.468425" y="49.290100" fill="rgb(191,191,191)"  stroke="rgb(191,191,191)" stroke-width="1" font-size="16" >H</text>
<text x="341.685310" y="139.393091" fill="rgb(191,191,191)"  stroke="rgb(191,191,191)" stroke-width="1" font-size="16" >H</text>
<text x="341.881574" y="222.667864" fill="rgb(191,191,191)"  stroke="rgb(191,191,191)" stroke-width="1" font-size="16" >H</text>
<text x="143.821161" y="171.428211" fill="rgb(191,191,191)"  stroke="rgb(191,191,191)" stroke-width="1" font-size="16" >H</text>
<text x="119.044412" y="222.741765" fill="rgb(191,191,191)"  stroke="rgb(191,191,191)" stroke-width="1" font-size="16" >H</text>
<text x="257.814731" y="83.078692" fill="rgb(191,191,191)"  stroke="rgb(191,191,191)" stroke-width="1" font-size="16" >H</text>
<text x="198.756636" y="84.700371" fill="rgb(191,191,191)"  stroke="rgb(191,191,191)" stroke-width="1" font-size="16" >H</text>
<text x="227.817545" y="66.840928" fill="rgb(191,191,191)"  stroke="rgb(191,191,191)" stroke-width="1" font-size="16" >H</text>
</svg>
</g>
<text font-size="18.000000" fill ="black" font-family="sans-serif"
x="10.000000" y="20.000000" ></text>
</svg>
