<?xml version="1.0"?>
<svg version="1.1" id="topsvg"
xmlns="http://www.w3.org/2000/svg" xmlns:xlink="http://www.w3.org/1999/xlink"
xmlns:cml="http://www.xml-cml.org/schema" x="0" y="0" width="200px" height="200px" viewBox="0 0 100 100">
<title> - Open Babel Depiction</title>
<rect x="0" y="0" width="100" height="100" fill="white"/>
<g transform="translate(0,0)">
<svg width="100" height="100" x="0" y="0" viewBox="0 0 226.861 325.239"
font-family="sans-serif" stroke="rgb(0,0,0)" stroke-width="2"  stroke-linecap="round">
<line x1="113.1" y1="152.8" x2="113.3" y2="103.4" stroke="rgb(0,0,0)"  stroke-width="2.0"/>
<line x1="113.3" y1="103.4" x2="70.3" y2="78.8" stroke="rgb(0,0,0)"  stroke-width="2.0"/>
<line x1="113.3" y1="103.4" x2="121.0" y2="71.7" stroke="rgb(0,0,0)"  stroke-width="2.0"/>
<line x1="121.0" y1="71.7" x2="125.6" y2="52.6" stroke="rgb(0,0,0)"  stroke-width="2.0"/>
<line x1="116.9" y1="70.7" x2="121.5" y2="51.7" stroke="rgb(0,0,0)"  stroke-width="2.0"/>
<line x1="125.1" y1="72.7" x2="129.7" y2="53.6" stroke="rgb(0,0,0)"  stroke-width="2.0"/>
<line x1="156.4" y1="79.3" x2="113.3" y2="103.4" stroke="rgb(0,0,0)"  stroke-width="2.0"/>
<line x1="70.4" y1="226.7" x2="52.3" y2="236.8" stroke="rgb(0,0,0)"  stroke-width="2.0"/>
<line x1="71.1" y1="177.3" x2="53.3" y2="166.9" stroke="rgb(0,0,0)"  stroke-width="2.0"/>
<line x1="70.3" y1="78.8" x2="70.2" y2="56.9" stroke="rgb(0,0,0)"  stroke-width="2.0"/>
<line x1="70.3" y1="78.8" x2="51.4" y2="89.9" stroke="rgb(0,0,0)"  stroke-width="2.0"/>
<line x1="70.3" y1="78.8" x2="51.3" y2="67.9" stroke="rgb(0,0,0)"  stroke-width="2.0"/>
<line x1="156.4" y1="79.3" x2="175.3" y2="90.4" stroke="rgb(0,0,0)"  stroke-width="2.0"/>
<line x1="156.4" y1="79.3" x2="156.7" y2="57.3" stroke="rgb(0,0,0)"  stroke-width="2.0"/>
<line x1="156.4" y1="79.3" x2="175.5" y2="68.5" stroke="rgb(0,0,0)"  stroke-width="2.0"/>
<line x1="156.1" y1="176.6" x2="175.0" y2="165.4" stroke="rgb(0,0,0)"  stroke-width="2.0"/>
<line x1="156.1" y1="176.6" x2="175.1" y2="187.4" stroke="rgb(0,0,0)"  stroke-width="2.0"/>
<line x1="156.2" y1="226.4" x2="175.2" y2="237.3" stroke="rgb(0,0,0)"  stroke-width="2.0"/>
<line x1="156.2" y1="226.4" x2="156.3" y2="248.3" stroke="rgb(0,0,0)"  stroke-width="2.0"/>
<line x1="112.9" y1="251.6" x2="112.9" y2="272.2" stroke="rgb(0,0,0)"  stroke-width="2.0"/>
<line x1="71.1" y1="177.3" x2="70.4" y2="226.7" stroke="rgb(0,0,0)"  stroke-width="2.0"/>
<line x1="70.4" y1="226.7" x2="112.9" y2="251.6" stroke="rgb(0,0,0)"  stroke-width="2.0"/>
<line x1="79.2" y1="223.5" x2="111.4" y2="242.3" stroke="rgb(0,0,0)"  stroke-width="2.0"/>
<line x1="112.9" y1="251.6" x2="156.2" y2="226.4" stroke="rgb(0,0,0)"  stroke-width="2.0"/>
<line x1="156.2" y1="226.4" x2="156.1" y2="176.6" stroke="rgb(0,0,0)"  stroke-width="2.0"/>
<line x1="156.1" y1="176.6" x2="113.1" y2="152.8" stroke="rgb(0,0,0)"  stroke-width="2.0"/>
<line x1="113.1" y1="152.8" x2="71.1" y2="177.3" stroke="rgb(0,0,0)"  stroke-width="2.0"/>
<line x1="111.5" y1="162.0" x2="79.9" y2="180.5" stroke="rgb(0,0,0)"  stroke-width="2.0"/>
<text x="122.615417" y="48.000000" fill="rgb(12,12,255)"  stroke="rgb(12,12,255)" stroke-width="1" font-size="16" >N</text>
<text x="35.016959" y="251.176908" fill="rgb(191,191,191)"  stroke="rgb(191,191,191)" stroke-width="1" font-size="16" >H</text>
<text x="36.056657" y="168.364770" fill="rgb(191,191,191)"  stroke="rgb(191,191,191)" stroke-width="1" font-size="16" >H</text>
<text x="64.160013" y="51.918496" fill="rgb(191,191,191)"  stroke="rgb(191,191,191)" stroke-width="1" font-size="16" >H</text>
<text x="34.142323" y="104.403683" fill="rgb(191,191,191)"  stroke="rgb(191,191,191)" stroke-width="1" font-size="16" >H</text>
<text x="34.000000" y="69.495729" fill="rgb(191,191,191)"  stroke="rgb(191,191,191)" stroke-width="1" font-size="16" >H</text>
<text x="180.433413" y="105.073668" fill="rgb(191,191,191)"  stroke="rgb(191,191,191)" stroke-width="1" font-size="16" >H</text>
<text x="150.845609" y="52.344943" fill="rgb(191,191,191)"  stroke="rgb(191,191,191)" stroke-width="1" font-size="16" >H</text>
<text x="180.860983" y="70.168042" fill="rgb(191,191,191)"  stroke="rgb(191,191,191)" stroke-width="1" font-size="16" >H</text>
<text x="180.144601" y="166.811641" fill="rgb(191,191,191)"  stroke="rgb(191,191,191)" stroke-width="1" font-size="16" >H</text>
<text x="180.442546" y="201.839854" fill="rgb(191,191,191)"  stroke="rgb(191,191,191)" stroke-width="1" font-size="16" >H</text>
<text x="180.496294" y="251.816294" fill="rgb(191,191,191)"  stroke="rgb(191,191,191)" stroke-width="1" font-size="16" >H</text>
<text x="150.306886" y="269.344266" fill="rgb(191,191,191)"  stroke="rgb(191,191,191)" stroke-width="1" font-size="16" >H</text>
<text x="106.872038" y="293.238523" fill="rgb(191,191,191)"  stroke="rgb(191,191,191)" stroke-width="1" font-size="16" >H</text>
</svg>
</g>
<text font-size="18.000000" fill ="black" font-family="sans-serif"
x="10.000000" y="20.000000" ></text>
</svg>
