<?xml version="1.0"?>
<svg version="1.1" id="topsvg"
xmlns="http://www.w3.org/2000/svg" xmlns:xlink="http://www.w3.org/1999/xlink"
xmlns:cml="http://www.xml-cml.org/schema" x="0" y="0" width="200px" height="200px" viewBox="0 0 100 100">
<title> - Open Babel Depiction</title>
<rect x="0" y="0" width="100" height="100" fill="white"/>
<g transform="translate(0,0)">
<svg width="100" height="100" x="0" y="0" viewBox="0 0 229.562 319.027"
font-family="sans-serif" stroke="rgb(0,0,0)" stroke-width="2"  stroke-linecap="round">
<line x1="113.3" y1="125.6" x2="74.3" y2="97.5" stroke="rgb(0,0,0)"  stroke-width="2.0"/>
<line x1="153.6" y1="234.8" x2="165.5" y2="188.5" stroke="rgb(0,0,0)"  stroke-width="2.0"/>
<line x1="105.1" y1="244.5" x2="152.8" y2="231.9" stroke="rgb(0,0,0)"  stroke-width="2.0"/>
<line x1="106.6" y1="250.3" x2="154.4" y2="237.7" stroke="rgb(0,0,0)"  stroke-width="2.0"/>
<line x1="165.5" y1="188.5" x2="153.0" y2="171.7" stroke="rgb(0,0,0)"  stroke-width="2.0"/>
<line x1="123.5" y1="167.4" x2="123.0" y2="188.4" stroke="rgb(0,0,0)"  stroke-width="2.0"/>
<line x1="74.5" y1="189.1" x2="64.9" y2="206.4" stroke="rgb(0,0,0)"  stroke-width="2.0"/>
<line x1="68.6" y1="145.5" x2="51.4" y2="135.9" stroke="rgb(0,0,0)"  stroke-width="2.0"/>
<line x1="74.3" y1="97.5" x2="76.4" y2="76.7" stroke="rgb(0,0,0)"  stroke-width="2.0"/>
<line x1="74.3" y1="97.5" x2="55.2" y2="106.1" stroke="rgb(0,0,0)"  stroke-width="2.0"/>
<line x1="74.3" y1="97.5" x2="57.3" y2="85.3" stroke="rgb(0,0,0)"  stroke-width="2.0"/>
<line x1="115.3" y1="73.3" x2="111.2" y2="52.7" stroke="rgb(0,0,0)"  stroke-width="2.0"/>
<line x1="115.3" y1="73.3" x2="135.2" y2="66.8" stroke="rgb(0,0,0)"  stroke-width="2.0"/>
<line x1="131.4" y1="108.3" x2="152.1" y2="105.2" stroke="rgb(0,0,0)"  stroke-width="2.0"/>
<line x1="131.4" y1="108.3" x2="146.3" y2="123.0" stroke="rgb(0,0,0)"  stroke-width="2.0"/>
<line x1="157.8" y1="143.9" x2="174.2" y2="130.8" stroke="rgb(0,0,0)"  stroke-width="2.0"/>
<line x1="157.8" y1="143.9" x2="177.4" y2="151.3" stroke="rgb(0,0,0)"  stroke-width="2.0"/>
<line x1="153.6" y1="234.8" x2="167.6" y2="248.7" stroke="rgb(0,0,0)"  stroke-width="2.0"/>
<line x1="105.9" y1="247.4" x2="91.9" y2="233.4" stroke="rgb(0,0,0)"  stroke-width="2.0"/>
<line x1="105.9" y1="247.4" x2="100.7" y2="266.5" stroke="rgb(0,0,0)"  stroke-width="2.0"/>
<line x1="165.5" y1="188.5" x2="157.8" y2="143.9" stroke="rgb(0,0,0)"  stroke-width="2.0"/>
<line x1="157.8" y1="143.9" x2="113.3" y2="125.6" stroke="rgb(0,0,0)"  stroke-width="2.0"/>
<line x1="113.3" y1="125.6" x2="115.3" y2="73.3" stroke="rgb(0,0,0)"  stroke-width="2.0"/>
<line x1="115.3" y1="73.3" x2="131.4" y2="108.3" stroke="rgb(0,0,0)"  stroke-width="2.0"/>
<line x1="131.4" y1="108.3" x2="123.5" y2="167.4" stroke="rgb(0,0,0)"  stroke-width="2.0"/>
<line x1="123.5" y1="167.4" x2="165.5" y2="188.5" stroke="rgb(0,0,0)"  stroke-width="2.0"/>
<line x1="74.5" y1="189.1" x2="68.6" y2="145.5" stroke="rgb(0,0,0)"  stroke-width="2.0"/>
<line x1="80.9" y1="182.2" x2="76.6" y2="150.5" stroke="rgb(0,0,0)"  stroke-width="2.0"/>
<line x1="68.6" y1="145.5" x2="113.3" y2="125.6" stroke="rgb(0,0,0)"  stroke-width="2.0"/>
<line x1="123.5" y1="167.4" x2="74.5" y2="189.1" stroke="rgb(0,0,0)"  stroke-width="2.0"/>
<text x="139.245455" y="169.213411" fill="rgb(191,191,191)"  stroke="rgb(191,191,191)" stroke-width="1" font-size="16" >H</text>
<text x="116.696543" y="209.401303" fill="rgb(191,191,191)"  stroke="rgb(191,191,191)" stroke-width="1" font-size="16" >H</text>
<text x="52.561846" y="225.739438" fill="rgb(191,191,191)"  stroke="rgb(191,191,191)" stroke-width="1" font-size="16" >H</text>
<text x="34.000000" y="137.565303" fill="rgb(191,191,191)"  stroke="rgb(191,191,191)" stroke-width="1" font-size="16" >H</text>
<text x="71.748341" y="71.725204" fill="rgb(191,191,191)"  stroke="rgb(191,191,191)" stroke-width="1" font-size="16" >H</text>
<text x="37.357846" y="119.462542" fill="rgb(191,191,191)"  stroke="rgb(191,191,191)" stroke-width="1" font-size="16" >H</text>
<text x="40.772511" y="85.666192" fill="rgb(191,191,191)"  stroke="rgb(191,191,191)" stroke-width="1" font-size="16" >H</text>
<text x="102.614842" y="48.000000" fill="rgb(191,191,191)"  stroke="rgb(191,191,191)" stroke-width="1" font-size="16" >H</text>
<text x="141.564987" y="70.809718" fill="rgb(191,191,191)"  stroke="rgb(191,191,191)" stroke-width="1" font-size="16" >H</text>
<text x="158.970253" y="111.237661" fill="rgb(191,191,191)"  stroke="rgb(191,191,191)" stroke-width="1" font-size="16" >H</text>
<text x="149.607296" y="140.113628" fill="rgb(191,191,191)"  stroke="rgb(191,191,191)" stroke-width="1" font-size="16" >H</text>
<text x="178.305693" y="130.668261" fill="rgb(191,191,191)"  stroke="rgb(191,191,191)" stroke-width="1" font-size="16" >H</text>
<text x="183.562046" y="163.945301" fill="rgb(191,191,191)"  stroke="rgb(191,191,191)" stroke-width="1" font-size="16" >H</text>
<text x="170.833068" y="265.911041" fill="rgb(191,191,191)"  stroke="rgb(191,191,191)" stroke-width="1" font-size="16" >H</text>
<text x="76.774995" y="232.158414" fill="rgb(191,191,191)"  stroke="rgb(191,191,191)" stroke-width="1" font-size="16" >H</text>
<text x="91.249221" y="287.026934" fill="rgb(191,191,191)"  stroke="rgb(191,191,191)" stroke-width="1" font-size="16" >H</text>
</svg>
</g>
<text font-size="18.000000" fill ="black" font-family="sans-serif"
x="10.000000" y="20.000000" ></text>
</svg>
