<?xml version="1.0"?>
<svg version="1.1" id="topsvg"
xmlns="http://www.w3.org/2000/svg" xmlns:xlink="http://www.w3.org/1999/xlink"
xmlns:cml="http://www.xml-cml.org/schema" x="0" y="0" width="200px" height="200px" viewBox="0 0 100 100">
<title> - Open Babel Depiction</title>
<rect x="0" y="0" width="100" height="100" fill="white"/>
<g transform="translate(0,0)">
<svg width="100" height="100" x="0" y="0" viewBox="0 0 351.688 248.436"
font-family="sans-serif" stroke="rgb(0,0,0)" stroke-width="2"  stroke-linecap="round">
<line x1="68.8" y1="149.2" x2="51.2" y2="159.4" stroke="rgb(0,0,0)"  stroke-width="2.0"/>
<line x1="70.0" y1="100.2" x2="52.5" y2="89.9" stroke="rgb(0,0,0)"  stroke-width="2.0"/>
<line x1="110.5" y1="76.4" x2="110.1" y2="56.0" stroke="rgb(0,0,0)"  stroke-width="2.0"/>
<line x1="153.2" y1="99.2" x2="195.4" y2="74.6" stroke="rgb(0,0,0)"  stroke-width="2.0"/>
<line x1="195.4" y1="74.6" x2="195.1" y2="53.0" stroke="rgb(0,0,0)"  stroke-width="2.0"/>
<line x1="195.4" y1="74.6" x2="213.9" y2="63.5" stroke="rgb(0,0,0)"  stroke-width="2.0"/>
<line x1="280.9" y1="74.9" x2="238.4" y2="98.2" stroke="rgb(0,0,0)"  stroke-width="2.0"/>
<line x1="280.9" y1="74.9" x2="299.3" y2="86.0" stroke="rgb(0,0,0)"  stroke-width="2.0"/>
<line x1="280.9" y1="74.9" x2="281.4" y2="53.3" stroke="rgb(0,0,0)"  stroke-width="2.0"/>
<line x1="280.9" y1="74.9" x2="299.8" y2="64.5" stroke="rgb(0,0,0)"  stroke-width="2.0"/>
<line x1="238.4" y1="98.2" x2="195.4" y2="74.6" stroke="rgb(0,0,0)"  stroke-width="2.0"/>
<line x1="238.4" y1="98.2" x2="238.5" y2="119.8" stroke="rgb(0,0,0)"  stroke-width="2.0"/>
<line x1="238.4" y1="98.2" x2="219.9" y2="109.2" stroke="rgb(0,0,0)"  stroke-width="2.0"/>
<line x1="237.8" y1="149.6" x2="281.5" y2="173.9" stroke="rgb(0,0,0)"  stroke-width="2.0"/>
<line x1="237.8" y1="149.6" x2="195.7" y2="172.0" stroke="rgb(0,0,0)"  stroke-width="2.0"/>
<line x1="237.8" y1="149.6" x2="237.9" y2="128.0" stroke="rgb(0,0,0)"  stroke-width="2.0"/>
<line x1="237.8" y1="149.6" x2="219.3" y2="138.4" stroke="rgb(0,0,0)"  stroke-width="2.0"/>
<line x1="281.5" y1="173.9" x2="281.8" y2="195.4" stroke="rgb(0,0,0)"  stroke-width="2.0"/>
<line x1="281.5" y1="173.9" x2="300.0" y2="162.8" stroke="rgb(0,0,0)"  stroke-width="2.0"/>
<line x1="281.5" y1="173.9" x2="300.3" y2="184.3" stroke="rgb(0,0,0)"  stroke-width="2.0"/>
<line x1="195.7" y1="172.0" x2="153.0" y2="149.9" stroke="rgb(0,0,0)"  stroke-width="2.0"/>
<line x1="195.7" y1="172.0" x2="195.8" y2="193.6" stroke="rgb(0,0,0)"  stroke-width="2.0"/>
<line x1="195.7" y1="172.0" x2="177.3" y2="183.3" stroke="rgb(0,0,0)"  stroke-width="2.0"/>
<line x1="110.9" y1="171.9" x2="110.8" y2="192.2" stroke="rgb(0,0,0)"  stroke-width="2.0"/>
<line x1="70.0" y1="100.2" x2="110.5" y2="76.4" stroke="rgb(0,0,0)"  stroke-width="2.0"/>
<line x1="110.5" y1="76.4" x2="153.2" y2="99.2" stroke="rgb(0,0,0)"  stroke-width="2.0"/>
<line x1="112.4" y1="85.5" x2="144.5" y2="102.7" stroke="rgb(0,0,0)"  stroke-width="2.0"/>
<line x1="153.2" y1="99.2" x2="153.0" y2="149.9" stroke="rgb(0,0,0)"  stroke-width="2.0"/>
<line x1="153.0" y1="149.9" x2="110.9" y2="171.9" stroke="rgb(0,0,0)"  stroke-width="2.0"/>
<line x1="144.4" y1="146.3" x2="112.9" y2="162.7" stroke="rgb(0,0,0)"  stroke-width="2.0"/>
<line x1="110.9" y1="171.9" x2="68.8" y2="149.2" stroke="rgb(0,0,0)"  stroke-width="2.0"/>
<line x1="68.8" y1="149.2" x2="70.0" y2="100.2" stroke="rgb(0,0,0)"  stroke-width="2.0"/>
<line x1="76.2" y1="143.4" x2="77.1" y2="106.4" stroke="rgb(0,0,0)"  stroke-width="2.0"/>
<text x="34.000000" y="173.977105" fill="rgb(191,191,191)"  stroke="rgb(191,191,191)" stroke-width="1" font-size="16" >H</text>
<text x="35.292504" y="91.266562" fill="rgb(191,191,191)"  stroke="rgb(191,191,191)" stroke-width="1" font-size="16" >H</text>
<text x="103.875982" y="51.027690" fill="rgb(191,191,191)"  stroke="rgb(191,191,191)" stroke-width="1" font-size="16" >H</text>
<text x="188.922726" y="48.000000" fill="rgb(191,191,191)"  stroke="rgb(191,191,191)" stroke-width="1" font-size="16" >H</text>
<text x="219.025137" y="64.750848" fill="rgb(191,191,191)"  stroke="rgb(191,191,191)" stroke-width="1" font-size="16" >H</text>
<text x="304.459632" y="100.789083" fill="rgb(191,191,191)"  stroke="rgb(191,191,191)" stroke-width="1" font-size="16" >H</text>
<text x="275.633568" y="48.297276" fill="rgb(191,191,191)"  stroke="rgb(191,191,191)" stroke-width="1" font-size="16" >H</text>
<text x="305.199590" y="66.221071" fill="rgb(191,191,191)"  stroke="rgb(191,191,191)" stroke-width="1" font-size="16" >H</text>
<text x="232.460713" y="140.750066" fill="rgb(191,191,191)"  stroke="rgb(191,191,191)" stroke-width="1" font-size="16" >H</text>
<text x="202.700815" y="123.795649" fill="rgb(191,191,191)"  stroke="rgb(191,191,191)" stroke-width="1" font-size="16" >H</text>
<text x="232.043881" y="122.991065" fill="rgb(191,191,191)"  stroke="rgb(191,191,191)" stroke-width="1" font-size="16" >H</text>
<text x="202.177351" y="139.667594" fill="rgb(191,191,191)"  stroke="rgb(191,191,191)" stroke-width="1" font-size="16" >H</text>
<text x="276.031013" y="216.435852" fill="rgb(191,191,191)"  stroke="rgb(191,191,191)" stroke-width="1" font-size="16" >H</text>
<text x="305.125271" y="164.092683" fill="rgb(191,191,191)"  stroke="rgb(191,191,191)" stroke-width="1" font-size="16" >H</text>
<text x="305.687511" y="198.663926" fill="rgb(191,191,191)"  stroke="rgb(191,191,191)" stroke-width="1" font-size="16" >H</text>
<text x="189.908260" y="214.623115" fill="rgb(191,191,191)"  stroke="rgb(191,191,191)" stroke-width="1" font-size="16" >H</text>
<text x="160.203293" y="198.091993" fill="rgb(191,191,191)"  stroke="rgb(191,191,191)" stroke-width="1" font-size="16" >H</text>
<text x="104.667640" y="213.198130" fill="rgb(191,191,191)"  stroke="rgb(191,191,191)" stroke-width="1" font-size="16" >H</text>
</svg>
</g>
<text font-size="18.000000" fill ="black" font-family="sans-serif"
x="10.000000" y="20.000000" ></text>
</svg>
