<?xml version="1.0"?>
<svg version="1.1" id="topsvg"
xmlns="http://www.w3.org/2000/svg" xmlns:xlink="http://www.w3.org/1999/xlink"
xmlns:cml="http://www.xml-cml.org/schema" x="0" y="0" width="200px" height="200px" viewBox="0 0 100 100">
<title> - Open Babel Depiction</title>
<rect x="0" y="0" width="100" height="100" fill="white"/>
<g transform="translate(0,0)">
<svg width="100" height="100" x="0" y="0" viewBox="0 0 384.732 438.11"
font-family="sans-serif" stroke="rgb(0,0,0)" stroke-width="2"  stroke-linecap="round">
<line x1="219.4" y1="353.6" x2="248.8" y2="315.4" stroke="rgb(0,0,0)"  stroke-width="2.0"/>
<line x1="219.4" y1="353.6" x2="198.8" y2="350.9" stroke="rgb(0,0,0)"  stroke-width="2.0"/>
<line x1="219.4" y1="353.6" x2="227.3" y2="372.8" stroke="rgb(0,0,0)"  stroke-width="2.0"/>
<line x1="219.4" y1="353.6" x2="206.8" y2="370.0" stroke="rgb(0,0,0)"  stroke-width="2.0"/>
<line x1="248.8" y1="315.4" x2="248.3" y2="364.4" stroke="rgb(0,0,0)"  stroke-width="2.0"/>
<line x1="220.7" y1="269.5" x2="185.7" y2="269.3" stroke="rgb(0,0,0)"  stroke-width="2.0"/>
<line x1="297.1" y1="315.8" x2="309.4" y2="332.5" stroke="rgb(0,0,0)"  stroke-width="2.0"/>
<line x1="297.1" y1="315.8" x2="287.6" y2="334.3" stroke="rgb(0,0,0)"  stroke-width="2.0"/>
<line x1="248.3" y1="364.4" x2="230.3" y2="374.6" stroke="rgb(0,0,0)"  stroke-width="2.0"/>
<line x1="248.3" y1="364.4" x2="266.2" y2="374.9" stroke="rgb(0,0,0)"  stroke-width="2.0"/>
<line x1="248.3" y1="364.4" x2="248.2" y2="385.1" stroke="rgb(0,0,0)"  stroke-width="2.0"/>
<line x1="185.7" y1="269.3" x2="175.4" y2="251.3" stroke="rgb(0,0,0)"  stroke-width="2.0"/>
<line x1="185.7" y1="269.3" x2="175.2" y2="287.2" stroke="rgb(0,0,0)"  stroke-width="2.0"/>
<line x1="185.7" y1="269.3" x2="164.9" y2="269.2" stroke="rgb(0,0,0)"  stroke-width="2.0"/>
<line x1="273.4" y1="240.0" x2="272.8" y2="260.7" stroke="rgb(0,0,0)"  stroke-width="2.0"/>
<line x1="233.5" y1="171.1" x2="192.0" y2="189.0" stroke="rgb(0,0,0)"  stroke-width="2.0"/>
<polygon points="233.457430 171.101429 227.999658 120.833143 235.996304 120.601508 " stroke-width="2.000000" fill="rgb(0,0,0)"  stroke="rgb(0,0,0)" />
<line x1="233.5" y1="171.1" x2="216.0" y2="160.0" stroke="rgb(0,0,0)"  stroke-width="2.0"/>
<line x1="192.0" y1="189.0" x2="193.9" y2="208.5" stroke="rgb(0,0,0)"  stroke-width="2.0"/>
<polygon points="231.997981 120.717325 228.865505 73.648024 236.864144 73.795561 " stroke-width="2.000000" fill="rgb(0,0,0)"  stroke="rgb(0,0,0)" />
<line x1="232.0" y1="120.7" x2="196.3" y2="96.3" stroke="rgb(0,0,0)"  stroke-width="2.0"/>
<line x1="232.9" y1="73.7" x2="251.0" y2="63.7" stroke="rgb(0,0,0)"  stroke-width="2.0"/>
<line x1="232.9" y1="73.7" x2="215.1" y2="63.0" stroke="rgb(0,0,0)"  stroke-width="2.0"/>
<line x1="232.9" y1="73.7" x2="233.2" y2="53.0" stroke="rgb(0,0,0)"  stroke-width="2.0"/>
<line x1="266.0" y1="98.5" x2="269.2" y2="63.7" stroke="rgb(0,0,0)"  stroke-width="2.0"/>
<line x1="272.0" y1="99.1" x2="275.2" y2="64.2" stroke="rgb(0,0,0)"  stroke-width="2.0"/>
<line x1="315.3" y1="121.9" x2="332.9" y2="111.0" stroke="rgb(0,0,0)"  stroke-width="2.0"/>
<line x1="315.3" y1="121.9" x2="314.3" y2="101.2" stroke="rgb(0,0,0)"  stroke-width="2.0"/>
<line x1="315.8" y1="170.8" x2="333.6" y2="181.4" stroke="rgb(0,0,0)"  stroke-width="2.0"/>
<line x1="315.8" y1="170.8" x2="315.2" y2="191.5" stroke="rgb(0,0,0)"  stroke-width="2.0"/>
<line x1="273.5" y1="193.1" x2="273.4" y2="240.0" stroke="rgb(0,0,0)"  stroke-width="2.0"/>
<line x1="273.5" y1="193.1" x2="273.7" y2="172.4" stroke="rgb(0,0,0)"  stroke-width="2.0"/>
<line x1="66.3" y1="118.9" x2="108.2" y2="96.0" stroke="rgb(0,0,0)"  stroke-width="2.0"/>
<line x1="69.2" y1="124.1" x2="111.0" y2="101.3" stroke="rgb(0,0,0)"  stroke-width="2.0"/>
<line x1="67.8" y1="121.5" x2="51.1" y2="111.3" stroke="rgb(0,0,0)"  stroke-width="2.0"/>
<line x1="67.8" y1="121.5" x2="67.3" y2="141.0" stroke="rgb(0,0,0)"  stroke-width="2.0"/>
<line x1="109.6" y1="98.7" x2="150.5" y2="120.4" stroke="rgb(0,0,0)"  stroke-width="2.0"/>
<line x1="109.6" y1="98.7" x2="109.5" y2="79.1" stroke="rgb(0,0,0)"  stroke-width="2.0"/>
<line x1="150.5" y1="120.4" x2="196.3" y2="96.3" stroke="rgb(0,0,0)"  stroke-width="2.0"/>
<line x1="150.5" y1="120.4" x2="150.5" y2="141.1" stroke="rgb(0,0,0)"  stroke-width="2.0"/>
<line x1="150.5" y1="120.4" x2="168.3" y2="131.1" stroke="rgb(0,0,0)"  stroke-width="2.0"/>
<line x1="196.3" y1="96.3" x2="197.5" y2="75.6" stroke="rgb(0,0,0)"  stroke-width="2.0"/>
<line x1="196.3" y1="96.3" x2="178.8" y2="85.1" stroke="rgb(0,0,0)"  stroke-width="2.0"/>
<line x1="150.1" y1="177.1" x2="192.6" y2="186.1" stroke="rgb(0,0,0)"  stroke-width="2.0"/>
<line x1="148.8" y1="183.0" x2="191.3" y2="192.0" stroke="rgb(0,0,0)"  stroke-width="2.0"/>
<line x1="244.1" y1="261.8" x2="273.4" y2="240.0" stroke="rgb(0,0,0)"  stroke-width="2.0"/>
<line x1="273.4" y1="240.0" x2="300.8" y2="262.8" stroke="rgb(0,0,0)"  stroke-width="2.0"/>
<line x1="306.9" y1="283.6" x2="297.1" y2="315.8" stroke="rgb(0,0,0)"  stroke-width="2.0"/>
<line x1="297.1" y1="315.8" x2="248.8" y2="315.4" stroke="rgb(0,0,0)"  stroke-width="2.0"/>
<line x1="248.8" y1="315.4" x2="237.7" y2="281.9" stroke="rgb(0,0,0)"  stroke-width="2.0"/>
<line x1="233.5" y1="171.1" x2="232.0" y2="120.7" stroke="rgb(0,0,0)"  stroke-width="2.0"/>
<line x1="232.0" y1="120.7" x2="269.0" y2="98.8" stroke="rgb(0,0,0)"  stroke-width="2.0"/>
<line x1="269.0" y1="98.8" x2="315.3" y2="121.9" stroke="rgb(0,0,0)"  stroke-width="2.0"/>
<line x1="315.3" y1="121.9" x2="315.8" y2="170.8" stroke="rgb(0,0,0)"  stroke-width="2.0"/>
<line x1="315.8" y1="170.8" x2="273.5" y2="193.1" stroke="rgb(0,0,0)"  stroke-width="2.0"/>
<line x1="273.5" y1="193.1" x2="233.5" y2="171.1" stroke="rgb(0,0,0)"  stroke-width="2.0"/>
<text x="227.659168" y="277.543342" fill="rgb(12,12,255)"  stroke="rgb(12,12,255)" stroke-width="1" font-size="16" >N</text>
<text x="304.735750" y="279.132030" fill="rgb(255,12,12)"  stroke="rgb(255,12,12)" stroke-width="1" font-size="16" >O</text>
<text x="267.388975" y="59.029403" fill="rgb(255,12,12)"  stroke="rgb(255,12,12)" stroke-width="1" font-size="16" >O</text>
<text x="130.717682" y="185.371072" fill="rgb(178,178,0)"  stroke="rgb(178,178,0)" stroke-width="1" font-size="16" >S</text>
<text x="179.960704" y="357.173173" fill="rgb(191,191,191)"  stroke="rgb(191,191,191)" stroke-width="1" font-size="16" >H</text>
<text x="226.284827" y="392.767347" fill="rgb(191,191,191)"  stroke="rgb(191,191,191)" stroke-width="1" font-size="16" >H</text>
<text x="192.849881" y="388.344869" fill="rgb(191,191,191)"  stroke="rgb(191,191,191)" stroke-width="1" font-size="16" >H</text>
<text x="311.040068" y="351.029615" fill="rgb(191,191,191)"  stroke="rgb(191,191,191)" stroke-width="1" font-size="16" >H</text>
<text x="275.710674" y="353.841341" fill="rgb(191,191,191)"  stroke="rgb(191,191,191)" stroke-width="1" font-size="16" >H</text>
<text x="212.982718" y="388.987909" fill="rgb(191,191,191)"  stroke="rgb(191,191,191)" stroke-width="1" font-size="16" >H</text>
<text x="271.398521" y="389.501711" fill="rgb(191,191,191)"  stroke="rgb(191,191,191)" stroke-width="1" font-size="16" >H</text>
<text x="242.042468" y="406.110435" fill="rgb(191,191,191)"  stroke="rgb(191,191,191)" stroke-width="1" font-size="16" >H</text>
<text x="162.976874" y="247.963485" fill="rgb(191,191,191)"  stroke="rgb(191,191,191)" stroke-width="1" font-size="16" >H</text>
<text x="162.642745" y="306.382441" fill="rgb(191,191,191)"  stroke="rgb(191,191,191)" stroke-width="1" font-size="16" >H</text>
<text x="145.945761" y="277.076822" fill="rgb(191,191,191)"  stroke="rgb(191,191,191)" stroke-width="1" font-size="16" >H</text>
<text x="266.471697" y="281.710495" fill="rgb(191,191,191)"  stroke="rgb(191,191,191)" stroke-width="1" font-size="16" >H</text>
<text x="199.002894" y="160.989125" fill="rgb(191,191,191)"  stroke="rgb(191,191,191)" stroke-width="1" font-size="16" >H</text>
<text x="189.215442" y="229.409880" fill="rgb(191,191,191)"  stroke="rgb(191,191,191)" stroke-width="1" font-size="16" >H</text>
<text x="256.381637" y="65.399916" fill="rgb(191,191,191)"  stroke="rgb(191,191,191)" stroke-width="1" font-size="16" >H</text>
<text x="197.972139" y="64.321877" fill="rgb(191,191,191)"  stroke="rgb(191,191,191)" stroke-width="1" font-size="16" >H</text>
<text x="227.485800" y="48.000000" fill="rgb(191,191,191)"  stroke="rgb(191,191,191)" stroke-width="1" font-size="16" >H</text>
<text x="337.927981" y="112.086537" fill="rgb(191,191,191)"  stroke="rgb(191,191,191)" stroke-width="1" font-size="16" >H</text>
<text x="307.723997" y="96.259548" fill="rgb(191,191,191)"  stroke="rgb(191,191,191)" stroke-width="1" font-size="16" >H</text>
<text x="338.731781" y="196.041129" fill="rgb(191,191,191)"  stroke="rgb(191,191,191)" stroke-width="1" font-size="16" >H</text>
<text x="308.899752" y="212.482788" fill="rgb(191,191,191)"  stroke="rgb(191,191,191)" stroke-width="1" font-size="16" >H</text>
<text x="267.792452" y="167.372246" fill="rgb(191,191,191)"  stroke="rgb(191,191,191)" stroke-width="1" font-size="16" >H</text>
<text x="34.000000" y="112.568817" fill="rgb(191,191,191)"  stroke="rgb(191,191,191)" stroke-width="1" font-size="16" >H</text>
<text x="61.001391" y="162.019881" fill="rgb(191,191,191)"  stroke="rgb(191,191,191)" stroke-width="1" font-size="16" >H</text>
<text x="103.423141" y="74.128243" fill="rgb(191,191,191)"  stroke="rgb(191,191,191)" stroke-width="1" font-size="16" >H</text>
<text x="144.473703" y="162.139663" fill="rgb(191,191,191)"  stroke="rgb(191,191,191)" stroke-width="1" font-size="16" >H</text>
<text x="173.394758" y="145.865068" fill="rgb(191,191,191)"  stroke="rgb(191,191,191)" stroke-width="1" font-size="16" >H</text>
<text x="192.203688" y="70.641955" fill="rgb(191,191,191)"  stroke="rgb(191,191,191)" stroke-width="1" font-size="16" >H</text>
<text x="161.908292" y="86.068619" fill="rgb(191,191,191)"  stroke="rgb(191,191,191)" stroke-width="1" font-size="16" >H</text>
</svg>
</g>
<text font-size="18.000000" fill ="black" font-family="sans-serif"
x="10.000000" y="20.000000" ></text>
</svg>
