<?xml version="1.0"?>
<svg version="1.1" id="topsvg"
xmlns="http://www.w3.org/2000/svg" xmlns:xlink="http://www.w3.org/1999/xlink"
xmlns:cml="http://www.xml-cml.org/schema" x="0" y="0" width="200px" height="200px" viewBox="0 0 100 100">
<title> - Open Babel Depiction</title>
<rect x="0" y="0" width="100" height="100" fill="white"/>
<g transform="translate(0,0)">
<svg width="100" height="100" x="0" y="0" viewBox="0 0 304.772 272.841"
font-family="sans-serif" stroke="rgb(0,0,0)" stroke-width="2"  stroke-linecap="round">
<line x1="69.4" y1="126.0" x2="51.3" y2="115.5" stroke="rgb(0,0,0)"  stroke-width="2.0"/>
<line x1="69.4" y1="126.0" x2="69.5" y2="105.0" stroke="rgb(0,0,0)"  stroke-width="2.0"/>
<line x1="69.5" y1="175.0" x2="52.5" y2="184.9" stroke="rgb(0,0,0)"  stroke-width="2.0"/>
<line x1="110.9" y1="102.3" x2="110.3" y2="81.4" stroke="rgb(0,0,0)"  stroke-width="2.0"/>
<line x1="110.9" y1="102.3" x2="128.6" y2="91.1" stroke="rgb(0,0,0)"  stroke-width="2.0"/>
<line x1="153.3" y1="123.6" x2="151.5" y2="78.3" stroke="rgb(0,0,0)"  stroke-width="2.0"/>
<polygon points="153.276470 123.634296 156.371032 173.971310 148.372328 173.827331 " stroke-width="2.000000" fill="rgb(0,0,0)"  stroke="rgb(0,0,0)" />
<line x1="151.5" y1="78.3" x2="169.2" y2="67.2" stroke="rgb(0,0,0)"  stroke-width="2.0"/>
<line x1="151.5" y1="78.3" x2="132.9" y2="68.6" stroke="rgb(0,0,0)"  stroke-width="2.0"/>
<line x1="151.5" y1="78.3" x2="150.7" y2="57.4" stroke="rgb(0,0,0)"  stroke-width="2.0"/>
<line x1="186.1" y1="108.0" x2="185.4" y2="106.5" stroke="rgb(0,0,0)"  stroke-width="1.0"/>
<line x1="179.9" y1="111.8" x2="178.6" y2="109.2" stroke="rgb(0,0,0)"  stroke-width="1.0"/>
<line x1="173.7" y1="115.7" x2="171.8" y2="111.9" stroke="rgb(0,0,0)"  stroke-width="1.0"/>
<line x1="167.5" y1="119.5" x2="165.0" y2="114.7" stroke="rgb(0,0,0)"  stroke-width="1.0"/>
<line x1="161.3" y1="123.4" x2="158.2" y2="117.4" stroke="rgb(0,0,0)"  stroke-width="1.0"/>
<line x1="155.1" y1="127.2" x2="151.5" y2="120.1" stroke="rgb(0,0,0)"  stroke-width="1.0"/>
<line x1="193.8" y1="103.1" x2="193.3" y2="68.8" stroke="rgb(0,0,0)"  stroke-width="2.0"/>
<line x1="193.8" y1="103.1" x2="193.4" y2="124.1" stroke="rgb(0,0,0)"  stroke-width="2.0"/>
<line x1="235.2" y1="126.4" x2="253.3" y2="115.7" stroke="rgb(0,0,0)"  stroke-width="2.0"/>
<line x1="235.2" y1="126.4" x2="253.5" y2="136.8" stroke="rgb(0,0,0)"  stroke-width="2.0"/>
<line x1="235.4" y1="175.1" x2="253.5" y2="185.6" stroke="rgb(0,0,0)"  stroke-width="2.0"/>
<line x1="235.4" y1="175.1" x2="235.3" y2="196.0" stroke="rgb(0,0,0)"  stroke-width="2.0"/>
<line x1="193.5" y1="198.9" x2="193.2" y2="219.8" stroke="rgb(0,0,0)"  stroke-width="2.0"/>
<line x1="193.5" y1="198.9" x2="175.1" y2="209.0" stroke="rgb(0,0,0)"  stroke-width="2.0"/>
<line x1="152.9" y1="180.3" x2="151.3" y2="180.2" stroke="rgb(0,0,0)"  stroke-width="1.0"/>
<line x1="153.3" y1="185.3" x2="150.5" y2="185.2" stroke="rgb(0,0,0)"  stroke-width="1.0"/>
<line x1="153.8" y1="190.4" x2="149.6" y2="190.2" stroke="rgb(0,0,0)"  stroke-width="1.0"/>
<line x1="154.2" y1="195.5" x2="148.8" y2="195.3" stroke="rgb(0,0,0)"  stroke-width="1.0"/>
<line x1="154.6" y1="200.6" x2="147.9" y2="200.3" stroke="rgb(0,0,0)"  stroke-width="1.0"/>
<line x1="155.1" y1="205.7" x2="147.1" y2="205.3" stroke="rgb(0,0,0)"  stroke-width="1.0"/>
<line x1="111.3" y1="198.6" x2="111.6" y2="218.4" stroke="rgb(0,0,0)"  stroke-width="2.0"/>
<line x1="204.2" y1="49.1" x2="208.3" y2="46.7" stroke="rgb(0,0,0)"  stroke-width="2.0"/>
<line x1="69.5" y1="175.0" x2="69.4" y2="126.0" stroke="rgb(0,0,0)"  stroke-width="2.0"/>
<line x1="69.4" y1="126.0" x2="110.9" y2="102.3" stroke="rgb(0,0,0)"  stroke-width="2.0"/>
<line x1="110.9" y1="102.3" x2="153.3" y2="123.6" stroke="rgb(0,0,0)"  stroke-width="2.0"/>
<line x1="153.3" y1="123.6" x2="152.4" y2="173.9" stroke="rgb(0,0,0)"  stroke-width="2.0"/>
<line x1="152.4" y1="173.9" x2="111.3" y2="198.6" stroke="rgb(0,0,0)"  stroke-width="2.0"/>
<line x1="111.3" y1="198.6" x2="69.5" y2="175.0" stroke="rgb(0,0,0)"  stroke-width="2.0"/>
<line x1="109.6" y1="189.4" x2="78.3" y2="171.7" stroke="rgb(0,0,0)"  stroke-width="2.0"/>
<line x1="235.4" y1="175.1" x2="193.5" y2="198.9" stroke="rgb(0,0,0)"  stroke-width="2.0"/>
<line x1="193.5" y1="198.9" x2="152.4" y2="173.9" stroke="rgb(0,0,0)"  stroke-width="2.0"/>
<line x1="153.3" y1="123.6" x2="193.8" y2="103.1" stroke="rgb(0,0,0)"  stroke-width="2.0"/>
<line x1="193.8" y1="103.1" x2="235.2" y2="126.4" stroke="rgb(0,0,0)"  stroke-width="2.0"/>
<line x1="235.2" y1="126.4" x2="235.4" y2="175.1" stroke="rgb(0,0,0)"  stroke-width="2.0"/>
<text x="144.419240" y="229.062663" fill="rgb(191,191,191)"  stroke="rgb(191,191,191)" stroke-width="1" font-size="16" >H</text>
<text x="187.058635" y="63.829054" fill="rgb(255,12,12)"  stroke="rgb(255,12,12)" stroke-width="1" font-size="16" >O</text>
<text x="213.475313" y="48.000000" fill="rgb(191,191,191)"  stroke="rgb(191,191,191)" stroke-width="1" font-size="16" >H</text>
<text x="34.000000" y="116.986230" fill="rgb(191,191,191)"  stroke="rgb(191,191,191)" stroke-width="1" font-size="16" >H</text>
<text x="63.508836" y="100.033333" fill="rgb(191,191,191)"  stroke="rgb(191,191,191)" stroke-width="1" font-size="16" >H</text>
<text x="35.266705" y="199.499857" fill="rgb(191,191,191)"  stroke="rgb(191,191,191)" stroke-width="1" font-size="16" >H</text>
<text x="103.976737" y="76.384992" fill="rgb(191,191,191)"  stroke="rgb(191,191,191)" stroke-width="1" font-size="16" >H</text>
<text x="133.552242" y="92.128330" fill="rgb(191,191,191)"  stroke="rgb(191,191,191)" stroke-width="1" font-size="16" >H</text>
<text x="174.204275" y="68.210140" fill="rgb(191,191,191)"  stroke="rgb(191,191,191)" stroke-width="1" font-size="16" >H</text>
<text x="115.415181" y="70.540370" fill="rgb(191,191,191)"  stroke="rgb(191,191,191)" stroke-width="1" font-size="16" >H</text>
<text x="144.139866" y="52.403309" fill="rgb(191,191,191)"  stroke="rgb(191,191,191)" stroke-width="1" font-size="16" >H</text>
<text x="187.090382" y="145.107723" fill="rgb(191,191,191)"  stroke="rgb(191,191,191)" stroke-width="1" font-size="16" >H</text>
<text x="258.517957" y="117.157664" fill="rgb(191,191,191)"  stroke="rgb(191,191,191)" stroke-width="1" font-size="16" >H</text>
<text x="258.746535" y="151.193623" fill="rgb(191,191,191)"  stroke="rgb(191,191,191)" stroke-width="1" font-size="16" >H</text>
<text x="258.771933" y="200.122098" fill="rgb(191,191,191)"  stroke="rgb(191,191,191)" stroke-width="1" font-size="16" >H</text>
<text x="229.231349" y="217.046424" fill="rgb(191,191,191)"  stroke="rgb(191,191,191)" stroke-width="1" font-size="16" >H</text>
<text x="186.963394" y="240.840800" fill="rgb(191,191,191)"  stroke="rgb(191,191,191)" stroke-width="1" font-size="16" >H</text>
<text x="157.737106" y="223.306932" fill="rgb(191,191,191)"  stroke="rgb(191,191,191)" stroke-width="1" font-size="16" >H</text>
<text x="105.751394" y="239.374089" fill="rgb(191,191,191)"  stroke="rgb(191,191,191)" stroke-width="1" font-size="16" >H</text>
</svg>
</g>
<text font-size="18.000000" fill ="black" font-family="sans-serif"
x="10.000000" y="20.000000" ></text>
</svg>
